<?xml version="1.0" encoding="UTF-8" standalone="no"?>
<!DOCTYPE svg PUBLIC "-//W3C//DTD SVG 1.1//EN"
 "http://www.w3.org/Graphics/SVG/1.1/DTD/svg11.dtd">
<!-- Generated by graphviz version 2.43.0 (0)
 -->
<!-- Title: m_assign_variables::s_assign_patch_xxxxx_primitive_variables::s_assign_patch_xxxxx_primitive_variables Pages: 1 -->
<svg width="839pt" height="149pt"
 viewBox="0.00 0.00 839.00 148.55" xmlns="http://www.w3.org/2000/svg" xmlns:xlink="http://www.w3.org/1999/xlink">
<g id="graph0" class="graph" transform="scale(1 1) rotate(0) translate(4 144.55)">
<title>m_assign_variables::s_assign_patch_xxxxx_primitive_variables::s_assign_patch_xxxxx_primitive_variables</title>
<!-- Node1 -->
<g id="Node000001" class="node">
<title>Node1</title>
<g id="a_Node000001"><a xlink:title=" ">
<polygon fill="#999999" stroke="#666666" points="176,-97.55 0,-97.55 0,-34.55 176,-34.55 176,-97.55"/>
<text text-anchor="start" x="8" y="-85.55" font-family="Helvetica,sans-Serif" font-size="10.00">m_assign_variables</text>
<text text-anchor="start" x="8" y="-74.55" font-family="Helvetica,sans-Serif" font-size="10.00">::s_assign_patch_xxxxx</text>
<text text-anchor="start" x="8" y="-63.55" font-family="Helvetica,sans-Serif" font-size="10.00">_primitive_variables::</text>
<text text-anchor="start" x="8" y="-52.55" font-family="Helvetica,sans-Serif" font-size="10.00">s_assign_patch_xxxxx_primitive</text>
<text text-anchor="middle" x="88" y="-41.55" font-family="Helvetica,sans-Serif" font-size="10.00">_variables</text>
</a>
</g>
</g>
<!-- Node2 -->
<g id="Node000002" class="node">
<title>Node2</title>
<g id="a_Node000002"><a xlink:href="namespacem__assign__variables.html#aa06360954af8af6e857e009116101f20" target="_top" xlink:title="This subroutine assigns the mixture primitive variables of the patch designated by the patch_id,...">
<polygon fill="white" stroke="#666666" points="501,-140.55 361,-140.55 361,-99.55 501,-99.55 501,-140.55"/>
<text text-anchor="start" x="369" y="-128.55" font-family="Helvetica,sans-Serif" font-size="10.00">m_assign_variables</text>
<text text-anchor="start" x="369" y="-117.55" font-family="Helvetica,sans-Serif" font-size="10.00">::s_assign_patch_mixture</text>
<text text-anchor="middle" x="431" y="-106.55" font-family="Helvetica,sans-Serif" font-size="10.00">_primitive_variables</text>
</a>
</g>
</g>
<!-- Node1&#45;&gt;Node2 -->
<g id="edge1_Node000001_Node000002" class="edge">
<title>Node1&#45;&gt;Node2</title>
<g id="a_edge1_Node000001_Node000002"><a xlink:title=" ">
<path fill="none" stroke="#63b8ff" d="M140.32,-97.55C161.68,-108.91 187.23,-120.33 212,-126.05 257.16,-136.48 308.97,-135.56 350.75,-131.76"/>
<polygon fill="#63b8ff" stroke="#63b8ff" points="351.26,-135.23 360.87,-130.77 350.58,-128.26 351.26,-135.23"/>
</a>
</g>
</g>
<!-- Node3 -->
<g id="Node000003" class="node">
<title>Node3</title>
<g id="a_Node000003"><a xlink:href="namespacem__assign__variables.html#acea8669db4dc8eb166849ab1f9683223" target="_top" xlink:title="This subroutine assigns the species primitive variables. This follows s_assign_patch_species_primitiv...">
<polygon fill="white" stroke="#666666" points="500.5,-57.55 361.5,-57.55 361.5,-16.55 500.5,-16.55 500.5,-57.55"/>
<text text-anchor="start" x="369.5" y="-45.55" font-family="Helvetica,sans-Serif" font-size="10.00">m_assign_variables</text>
<text text-anchor="start" x="369.5" y="-34.55" font-family="Helvetica,sans-Serif" font-size="10.00">::s_assign_patch_species</text>
<text text-anchor="middle" x="431" y="-23.55" font-family="Helvetica,sans-Serif" font-size="10.00">_primitive_variables</text>
</a>
</g>
</g>
<!-- Node1&#45;&gt;Node3 -->
<g id="edge2_Node000001_Node000003" class="edge">
<title>Node1&#45;&gt;Node3</title>
<g id="a_edge2_Node000001_Node000003"><a xlink:title=" ">
<path fill="none" stroke="#63b8ff" d="M141.59,-34.44C162.7,-23.48 187.75,-12.56 212,-7.05 260.97,4.09 275.26,-0.08 325,-7.05 336.18,-8.62 347.84,-11.08 359.16,-13.93"/>
<polygon fill="#63b8ff" stroke="#63b8ff" points="358.43,-17.36 368.99,-16.53 360.21,-10.59 358.43,-17.36"/>
</a>
</g>
</g>
<!-- Node6 -->
<g id="Node000006" class="node">
<title>Node6</title>
<g id="a_Node000006"><a xlink:href="namespacem__assign__variables.html#ac89ca97fbded5c8e62c5c9d28441ded2" target="_top" xlink:title=" ">
<polygon fill="white" stroke="#666666" points="325,-57.55 212,-57.55 212,-16.55 325,-16.55 325,-57.55"/>
<text text-anchor="start" x="220" y="-45.55" font-family="Helvetica,sans-Serif" font-size="10.00">m_assign_variables</text>
<text text-anchor="start" x="220" y="-34.55" font-family="Helvetica,sans-Serif" font-size="10.00">::s_finalize_assign</text>
<text text-anchor="middle" x="268.5" y="-23.55" font-family="Helvetica,sans-Serif" font-size="10.00">_variables_module</text>
</a>
</g>
</g>
<!-- Node1&#45;&gt;Node6 -->
<g id="edge5_Node000001_Node000006" class="edge">
<title>Node1&#45;&gt;Node6</title>
<g id="a_edge5_Node000001_Node000006"><a xlink:title=" ">
<path fill="none" stroke="#63b8ff" d="M176.16,-51.89C184.72,-50.5 193.3,-49.1 201.59,-47.76"/>
<polygon fill="#63b8ff" stroke="#63b8ff" points="202.23,-51.2 211.54,-46.14 201.11,-44.29 202.23,-51.2"/>
</a>
</g>
</g>
<!-- Node7 -->
<g id="Node000007" class="node">
<title>Node7</title>
<g id="a_Node000007"><a xlink:href="namespacem__assign__variables.html#a84b36028fb3b766edc3ffdc2a9793caa" target="_top" xlink:title=" ">
<polygon fill="white" stroke="#666666" points="325,-116.55 212,-116.55 212,-75.55 325,-75.55 325,-116.55"/>
<text text-anchor="start" x="220" y="-104.55" font-family="Helvetica,sans-Serif" font-size="10.00">m_assign_variables</text>
<text text-anchor="start" x="220" y="-93.55" font-family="Helvetica,sans-Serif" font-size="10.00">::s_initialize_assign</text>
<text text-anchor="middle" x="268.5" y="-82.55" font-family="Helvetica,sans-Serif" font-size="10.00">_variables_module</text>
</a>
</g>
</g>
<!-- Node1&#45;&gt;Node7 -->
<g id="edge6_Node000001_Node000007" class="edge">
<title>Node1&#45;&gt;Node7</title>
<g id="a_edge6_Node000001_Node000007"><a xlink:title=" ">
<path fill="none" stroke="#63b8ff" d="M176.16,-80.7C184.72,-82.14 193.3,-83.58 201.59,-84.97"/>
<polygon fill="#63b8ff" stroke="#63b8ff" points="201.1,-88.44 211.54,-86.64 202.26,-81.54 201.1,-88.44"/>
</a>
</g>
</g>
<!-- Node4 -->
<g id="Node000004" class="node">
<title>Node4</title>
<g id="a_Node000004"><a xlink:href="namespacem__helper__basic.html#af1ad5f2cff7ebf5c909a7fc212815ff2" target="_top" xlink:title="Checks if a real(kind(0d0)) variable is of default value.">
<polygon fill="white" stroke="#666666" points="653,-52.05 537,-52.05 537,-22.05 653,-22.05 653,-52.05"/>
<text text-anchor="start" x="545" y="-40.05" font-family="Helvetica,sans-Serif" font-size="10.00">m_helper_basic::f_is</text>
<text text-anchor="middle" x="595" y="-29.05" font-family="Helvetica,sans-Serif" font-size="10.00">_default</text>
</a>
</g>
</g>
<!-- Node3&#45;&gt;Node4 -->
<g id="edge3_Node000003_Node000004" class="edge">
<title>Node3&#45;&gt;Node4</title>
<g id="a_edge3_Node000003_Node000004"><a xlink:title=" ">
<path fill="none" stroke="#63b8ff" d="M500.7,-37.05C509.38,-37.05 518.25,-37.05 526.9,-37.05"/>
<polygon fill="#63b8ff" stroke="#63b8ff" points="526.93,-40.55 536.93,-37.05 526.93,-33.55 526.93,-40.55"/>
</a>
</g>
</g>
<!-- Node5 -->
<g id="Node000005" class="node">
<title>Node5</title>
<g id="a_Node000005"><a xlink:href="namespacem__helper__basic.html#a4d4fbabb3807eb662390dd48ef95330d" target="_top" xlink:title="This procedure checks if two floating point numbers of kind(0d0) are within tolerance.">
<polygon fill="white" stroke="#666666" points="831,-52.05 689,-52.05 689,-22.05 831,-22.05 831,-52.05"/>
<text text-anchor="start" x="697" y="-40.05" font-family="Helvetica,sans-Serif" font-size="10.00">m_helper_basic::f_approx</text>
<text text-anchor="middle" x="760" y="-29.05" font-family="Helvetica,sans-Serif" font-size="10.00">_equal</text>
</a>
</g>
</g>
<!-- Node4&#45;&gt;Node5 -->
<g id="edge4_Node000004_Node000005" class="edge">
<title>Node4&#45;&gt;Node5</title>
<g id="a_edge4_Node000004_Node000005"><a xlink:title=" ">
<path fill="none" stroke="#63b8ff" d="M653.01,-37.05C661.32,-37.05 670.01,-37.05 678.68,-37.05"/>
<polygon fill="#63b8ff" stroke="#63b8ff" points="678.83,-40.55 688.83,-37.05 678.83,-33.55 678.83,-40.55"/>
</a>
</g>
</g>
<!-- Node7&#45;&gt;Node2 -->
<g id="edge7_Node000007_Node000002" class="edge">
<title>Node7&#45;&gt;Node2</title>
<g id="a_edge7_Node000007_Node000002"><a xlink:title=" ">
<path fill="none" stroke="#63b8ff" d="M325.18,-104.38C333.45,-105.61 342.1,-106.91 350.73,-108.2"/>
<polygon fill="#63b8ff" stroke="#63b8ff" points="350.43,-111.69 360.84,-109.71 351.46,-104.77 350.43,-111.69"/>
</a>
</g>
</g>
<!-- Node7&#45;&gt;Node3 -->
<g id="edge8_Node000007_Node000003" class="edge">
<title>Node7&#45;&gt;Node3</title>
<g id="a_edge8_Node000007_Node000003"><a xlink:title=" ">
<path fill="none" stroke="#63b8ff" d="M325.18,-75.58C337.93,-70.89 351.6,-65.87 364.71,-61.05"/>
<polygon fill="#63b8ff" stroke="#63b8ff" points="365.96,-64.32 374.14,-57.58 363.55,-57.75 365.96,-64.32"/>
</a>
</g>
</g>
</g>
</svg>
