<?xml version="1.0" encoding="UTF-8" standalone="no"?>
<!DOCTYPE svg PUBLIC "-//W3C//DTD SVG 1.1//EN"
 "http://www.w3.org/Graphics/SVG/1.1/DTD/svg11.dtd">
<!-- Generated by graphviz version 2.43.0 (0)
 -->
<!-- Title: s_check_active_patch_primitive_variables Pages: 1 -->
<svg width="503pt" height="178pt"
 viewBox="0.00 0.00 503.00 178.00" xmlns="http://www.w3.org/2000/svg" xmlns:xlink="http://www.w3.org/1999/xlink">
<g id="graph0" class="graph" transform="scale(1 1) rotate(0) translate(4 174)">
<title>s_check_active_patch_primitive_variables</title>
<!-- Node1 -->
<g id="Node000001" class="node">
<title>Node1</title>
<g id="a_Node000001"><a xlink:title="This subroutine checks the primitive variables.">
<polygon fill="#999999" stroke="#666666" points="123,-99.5 0,-99.5 0,-69.5 123,-69.5 123,-99.5"/>
<text text-anchor="start" x="8" y="-87.5" font-family="Helvetica,sans-Serif" font-size="10.00">s_check_active_patch</text>
<text text-anchor="middle" x="61.5" y="-76.5" font-family="Helvetica,sans-Serif" font-size="10.00">_primitive_variables</text>
</a>
</g>
</g>
<!-- Node2 -->
<g id="Node000002" class="node">
<title>Node2</title>
<g id="a_Node000002"><a xlink:href="m__helper__basic_8fpp_8f90.html#acaf79d2f8a0a30596167d29ccabee2cd" target="_top" xlink:title="Checks if ALL elements of a real(wp) array are of default value.">
<polygon fill="white" stroke="#666666" points="245,-170 168,-170 168,-151 245,-151 245,-170"/>
<text text-anchor="middle" x="206.5" y="-158" font-family="Helvetica,sans-Serif" font-size="10.00">f_all_default</text>
</a>
</g>
</g>
<!-- Node1&#45;&gt;Node2 -->
<g id="edge1_Node000001_Node000002" class="edge">
<title>Node1&#45;&gt;Node2</title>
<g id="a_edge1_Node000001_Node000002"><a xlink:title=" ">
<path fill="none" stroke="#63b8ff" d="M90.3,-99.65C109.54,-110.09 135.77,-124.25 159,-136.5 165.01,-139.67 171.48,-143.04 177.63,-146.22"/>
<polygon fill="#63b8ff" stroke="#63b8ff" points="176.41,-149.53 186.91,-151 179.62,-143.31 176.41,-149.53"/>
</a>
</g>
</g>
<!-- Node3 -->
<g id="Node000003" class="node">
<title>Node3</title>
<g id="a_Node000003"><a xlink:href="m__helper__basic_8fpp_8f90.html#af13561cd8191e20b0ee3bdf335944ce5" target="_top" xlink:title="Checks if a real(wp) variable is of default value.">
<polygon fill="white" stroke="#666666" points="365.5,-132 291.5,-132 291.5,-113 365.5,-113 365.5,-132"/>
<text text-anchor="middle" x="328.5" y="-120" font-family="Helvetica,sans-Serif" font-size="10.00">f_is_default</text>
</a>
</g>
</g>
<!-- Node1&#45;&gt;Node3 -->
<g id="edge5_Node000001_Node000003" class="edge">
<title>Node1&#45;&gt;Node3</title>
<g id="a_edge5_Node000001_Node000003"><a xlink:title=" ">
<path fill="none" stroke="#63b8ff" d="M123.24,-93.34C135.1,-95.05 147.44,-96.84 159,-98.5 200.35,-104.44 247.42,-111.14 281.28,-115.95"/>
<polygon fill="#63b8ff" stroke="#63b8ff" points="280.95,-119.44 291.34,-117.38 281.93,-112.51 280.95,-119.44"/>
</a>
</g>
</g>
<!-- Node4 -->
<g id="Node000004" class="node">
<title>Node4</title>
<g id="a_Node000004"><a xlink:href="m__helper__basic_8fpp_8f90.html#a49aa1857cb519bdc6b35434fd1821cab" target="_top" xlink:title="This procedure checks if two floating point numbers of wp are within tolerance.">
<polygon fill="white" stroke="#666666" points="495,-113 403,-113 403,-94 495,-94 495,-113"/>
<text text-anchor="middle" x="449" y="-101" font-family="Helvetica,sans-Serif" font-size="10.00">f_approx_equal</text>
</a>
</g>
</g>
<!-- Node1&#45;&gt;Node4 -->
<g id="edge4_Node000001_Node000004" class="edge">
<title>Node1&#45;&gt;Node4</title>
<g id="a_edge4_Node000001_Node000004"><a xlink:title=" ">
<path fill="none" stroke="#63b8ff" d="M123.16,-87.49C197.13,-91.14 321.1,-97.25 392.6,-100.77"/>
<polygon fill="#63b8ff" stroke="#63b8ff" points="392.59,-104.27 402.75,-101.27 392.94,-97.28 392.59,-104.27"/>
</a>
</g>
</g>
<!-- Node5 -->
<g id="Node000005" class="node">
<title>Node5</title>
<g id="a_Node000005"><a xlink:href="m__helper_8fpp_8f90.html#a61ed7167a8466d96b3403bf41febc469" target="_top" xlink:title=" ">
<polygon fill="white" stroke="#666666" points="243,-56 170,-56 170,-37 243,-37 243,-56"/>
<text text-anchor="middle" x="206.5" y="-44" font-family="Helvetica,sans-Serif" font-size="10.00">s_int_to_str</text>
</a>
</g>
</g>
<!-- Node1&#45;&gt;Node5 -->
<g id="edge6_Node000001_Node000005" class="edge">
<title>Node1&#45;&gt;Node5</title>
<g id="a_edge6_Node000001_Node000005"><a xlink:title=" ">
<path fill="none" stroke="#63b8ff" d="M119.02,-69.48C132.7,-65.84 147.16,-62 160.25,-58.53"/>
<polygon fill="#63b8ff" stroke="#63b8ff" points="161.19,-61.9 169.96,-55.95 159.39,-55.13 161.19,-61.9"/>
</a>
</g>
</g>
<!-- Node6 -->
<g id="Node000006" class="node">
<title>Node6</title>
<g id="a_Node000006"><a xlink:href="m__mpi__common_8fpp_8f90.html#a7a63ba325e6315d6d7dc45c614d65347" target="_top" xlink:title=" ">
<polygon fill="white" stroke="#666666" points="254,-19 159,-19 159,0 254,0 254,-19"/>
<text text-anchor="middle" x="206.5" y="-7" font-family="Helvetica,sans-Serif" font-size="10.00">s_prohibit_abort</text>
</a>
</g>
</g>
<!-- Node1&#45;&gt;Node6 -->
<g id="edge7_Node000001_Node000006" class="edge">
<title>Node1&#45;&gt;Node6</title>
<g id="a_edge7_Node000001_Node000006"><a xlink:title=" ">
<path fill="none" stroke="#63b8ff" d="M85.7,-69.33C104.88,-57.15 133.09,-40.06 159,-27.5 162.31,-25.89 165.8,-24.33 169.33,-22.83"/>
<polygon fill="#63b8ff" stroke="#63b8ff" points="170.68,-26.06 178.62,-19.04 168.04,-19.57 170.68,-26.06"/>
</a>
</g>
</g>
<!-- Node2&#45;&gt;Node3 -->
<g id="edge2_Node000002_Node000003" class="edge">
<title>Node2&#45;&gt;Node3</title>
<g id="a_edge2_Node000002_Node000003"><a xlink:title=" ">
<path fill="none" stroke="#63b8ff" d="M237.78,-150.91C252.85,-146.14 271.25,-140.31 287.47,-135.18"/>
<polygon fill="#63b8ff" stroke="#63b8ff" points="288.75,-138.44 297.23,-132.09 286.64,-131.77 288.75,-138.44"/>
</a>
</g>
</g>
<!-- Node3&#45;&gt;Node4 -->
<g id="edge3_Node000003_Node000004" class="edge">
<title>Node3&#45;&gt;Node4</title>
<g id="a_edge3_Node000003_Node000004"><a xlink:title=" ">
<path fill="none" stroke="#63b8ff" d="M365.7,-116.7C374.3,-115.32 383.66,-113.82 392.89,-112.34"/>
<polygon fill="#63b8ff" stroke="#63b8ff" points="393.49,-115.78 402.81,-110.75 392.38,-108.87 393.49,-115.78"/>
</a>
</g>
</g>
<!-- Node7 -->
<g id="Node000007" class="node">
<title>Node7</title>
<g id="a_Node000007"><a xlink:href="m__mpi__common_8fpp_8f90.html#adbcc47e90968ff0f14ccc2ca3c47586a" target="_top" xlink:title="The subroutine terminates the MPI execution environment.">
<polygon fill="white" stroke="#666666" points="367,-19 290,-19 290,0 367,0 367,-19"/>
<text text-anchor="middle" x="328.5" y="-7" font-family="Helvetica,sans-Serif" font-size="10.00">s_mpi_abort</text>
</a>
</g>
</g>
<!-- Node6&#45;&gt;Node7 -->
<g id="edge8_Node000006_Node000007" class="edge">
<title>Node6&#45;&gt;Node7</title>
<g id="a_edge8_Node000006_Node000007"><a xlink:title=" ">
<path fill="none" stroke="#63b8ff" d="M254.24,-9.5C262.66,-9.5 271.45,-9.5 279.89,-9.5"/>
<polygon fill="#63b8ff" stroke="#63b8ff" points="279.98,-13 289.98,-9.5 279.98,-6 279.98,-13"/>
</a>
</g>
</g>
</g>
</svg>
