<?xml version="1.0" encoding="UTF-8" standalone="no"?>
<!DOCTYPE svg PUBLIC "-//W3C//DTD SVG 1.1//EN"
 "http://www.w3.org/Graphics/SVG/1.1/DTD/svg11.dtd">
<!-- Generated by graphviz version 2.43.0 (0)
 -->
<!-- Title: __m_checker_common_fpp_f90__ Pages: 1 -->
<!--zoomable 681 -->

<svg id="main" version="1.1" xmlns="http://www.w3.org/2000/svg" xmlns:xlink="http://www.w3.org/1999/xlink" xml:space="preserve" onload="init(evt)">

<style type="text/css"><![CDATA[
.node, .edge {opacity: 0.7;}
.node.selected, .edge.selected {opacity: 1;}
.edge:hover path { stroke: red; }
.edge:hover polygon { stroke: red; fill: red; }
]]></style>

<defs>
  <circle id="rim" cx="0" cy="0" r="7"/>
  <circle id="rim2" cx="0" cy="0" r="3.5"/>
  <g id="zoomPlus">
    <use xlink:href="#rim" fill="#404040"><set attributeName="fill" to="#808080" begin="zoomplus.mouseover" end="zoomplus.mouseout"/></use>
    <path d="M-4,0h8M0,-4v8" fill="none" stroke="white" stroke-width="1.5" pointer-events="none"/>
  </g>
  <g id="zoomMin">
    <use xlink:href="#rim" fill="#404040"><set attributeName="fill" to="#808080" begin="zoomminus.mouseover" end="zoomminus.mouseout"/></use>
    <path d="M-4,0h8" fill="none" stroke="white" stroke-width="1.5" pointer-events="none"/>
  </g>
  <g id="arrowUp" transform="translate(30 24)">
    <use xlink:href="#rim"/>
    <path pointer-events="none" fill="none" stroke="white" stroke-width="1.5" d="M0,-3.0v7 M-2.5,-0.5L0,-3.0L2.5,-0.5"/>
  </g>
  <g id="arrowRight" transform="rotate(90) translate(36 -43)">
    <use xlink:href="#rim"/>
    <path pointer-events="none" fill="none" stroke="white" stroke-width="1.5" d="M0,-3.0v7 M-2.5,-0.5L0,-3.0L2.5,-0.5"/>
  </g>
  <g id="arrowDown" transform="rotate(180) translate(-30 -48)">
    <use xlink:href="#rim"/>
    <path pointer-events="none" fill="none" stroke="white" stroke-width="1.5" d="M0,-3.0v7 M-2.5,-0.5L0,-3.0L2.5,-0.5"/>
  </g>
  <g id="arrowLeft" transform="rotate(270) translate(-36 17)">
    <use xlink:href="#rim"/>
    <path pointer-events="none" fill="none" stroke="white" stroke-width="1.5" d="M0,-3.0v7 M-2.5,-0.5L0,-3.0L2.5,-0.5"/>
  </g>
  <g id="resetDef">
    <use xlink:href="#rim2" fill="#404040"><set attributeName="fill" to="#808080" begin="reset.mouseover" end="reset.mouseout"/></use>
  </g>
</defs>
<script type="application/ecmascript">
var viewWidth = 875;
var viewHeight = 681;
var sectionId = 'dynsection-0';
</script>
<script type="application/ecmascript" xlink:href="svg.min.js"/>
<svg id="graph" class="graph">
<g id="viewport">
<title>__m_checker_common_fpp_f90__</title>
<!-- Node1 -->
<g id="Node000001" class="node">
<title>Node1</title>
<g id="a_Node000001"><a xlink:title=" ">
<polygon fill="#999999" stroke="#666666" points="128,-355.08 0,-355.08 0,-325.08 128,-325.08 128,-355.08"/>
<text text-anchor="start" x="8" y="-343.08" font-family="Helvetica,sans-Serif" font-size="10.00">__m_checker_common</text>
<text text-anchor="middle" x="64" y="-332.08" font-family="Helvetica,sans-Serif" font-size="10.00">_fpp_f90__</text>
</a>
</g>
</g>
<!-- Node2 -->
<g id="Node000002" class="node">
<title>Node2</title>
<g id="a_Node000002"><a xlink:href="m__checker__common_8fpp_8f90.html#ac1305563044bff409bb307d98e1dfe13" target="_top" xlink:title="Checks compatibility of parameters in the input file. Used by all three stages.">
<polygon fill="white" stroke="#666666" points="303,-349.58 164,-349.58 164,-330.58 303,-330.58 303,-349.58"/>
<text text-anchor="middle" x="233.5" y="-337.58" font-family="Helvetica,sans-Serif" font-size="10.00">s_check_inputs_common</text>
</a>
</g>
</g>
<!-- Node1&#45;&gt;Node2 -->
<g id="edge1_Node000001_Node000002" class="edge">
<title>Node1&#45;&gt;Node2</title>
<g id="a_edge1_Node000001_Node000002"><a xlink:title=" ">
<path fill="none" stroke="#63b8ff" d="M128.32,-340.08C136.56,-340.08 145.07,-340.08 153.52,-340.08"/>
<polygon fill="#63b8ff" stroke="#63b8ff" points="153.77,-343.58 163.77,-340.08 153.77,-336.58 153.77,-343.58"/>
</a>
</g>
</g>
<!-- Node3 -->
<g id="Node000003" class="node">
<title>Node3</title>
<g id="a_Node000003"><a xlink:href="m__checker__common_8fpp_8f90.html#a538dcaa242ef367d1b2cddca76058620" target="_top" xlink:title="Checks constraints on the adv_n flag. Called by s_check_inputs_common for pre&#45;processing and simulati...">
<polygon fill="white" stroke="#666666" points="484,-672.58 359,-672.58 359,-653.58 484,-653.58 484,-672.58"/>
<text text-anchor="middle" x="421.5" y="-660.58" font-family="Helvetica,sans-Serif" font-size="10.00">s_check_inputs_adv_n</text>
</a>
</g>
</g>
<!-- Node2&#45;&gt;Node3 -->
<g id="edge2_Node000002_Node000003" class="edge">
<title>Node2&#45;&gt;Node3</title>
<g id="a_edge2_Node000002_Node000003"><a xlink:title=" ">
<path fill="none" stroke="#63b8ff" d="M234.62,-349.83C235.7,-392.21 245.91,-561.93 339,-645.08 342.22,-647.96 345.8,-650.41 349.6,-652.5"/>
<polygon fill="#63b8ff" stroke="#63b8ff" points="348.29,-655.74 358.84,-656.73 351.2,-649.38 348.29,-655.74"/>
</a>
</g>
</g>
<!-- Node6 -->
<g id="Node000006" class="node">
<title>Node6</title>
<g id="a_Node000006"><a xlink:href="m__checker__common_8fpp_8f90.html#ab9d26fff561c55f5ef7f201aa14d2688" target="_top" xlink:title="Checks constraints on the boundary conditions in the x&#45;direction. Called by s_check_inputs_common for...">
<polygon fill="white" stroke="#666666" points="475,-635.58 368,-635.58 368,-616.58 475,-616.58 475,-635.58"/>
<text text-anchor="middle" x="421.5" y="-623.58" font-family="Helvetica,sans-Serif" font-size="10.00">s_check_inputs_bc</text>
</a>
</g>
</g>
<!-- Node2&#45;&gt;Node6 -->
<g id="edge5_Node000002_Node000006" class="edge">
<title>Node2&#45;&gt;Node6</title>
<g id="a_edge5_Node000002_Node000006"><a xlink:title=" ">
<path fill="none" stroke="#63b8ff" d="M235.16,-349.65C238.38,-388.41 255.82,-535.09 339,-607.08 344.59,-611.92 351.18,-615.58 358.14,-618.35"/>
<polygon fill="#63b8ff" stroke="#63b8ff" points="357.23,-621.73 367.82,-621.59 359.45,-615.1 357.23,-621.73"/>
</a>
</g>
</g>
<!-- Node7 -->
<g id="Node000007" class="node">
<title>Node7</title>
<g id="a_Node000007"><a xlink:href="m__checker__common_8fpp_8f90.html#ad303eb73a684151b34b7a78d459e8969" target="_top" xlink:title="Checks constraints on the bubble parameters. Called by s_check_inputs_common for pre&#45;processing and s...">
<polygon fill="white" stroke="#666666" points="488.5,-245.08 354.5,-245.08 354.5,-215.08 488.5,-215.08 488.5,-245.08"/>
<text text-anchor="start" x="362.5" y="-233.08" font-family="Helvetica,sans-Serif" font-size="10.00">s_check_inputs_bubbles</text>
<text text-anchor="middle" x="421.5" y="-222.08" font-family="Helvetica,sans-Serif" font-size="10.00">_euler</text>
</a>
</g>
</g>
<!-- Node2&#45;&gt;Node7 -->
<g id="edge7_Node000002_Node000007" class="edge">
<title>Node2&#45;&gt;Node7</title>
<g id="a_edge7_Node000002_Node000007"><a xlink:title=" ">
<path fill="none" stroke="#63b8ff" d="M243.62,-330.33C260.69,-312.63 299.35,-275.1 339,-254.08 342.49,-252.23 346.15,-250.5 349.89,-248.9"/>
<polygon fill="#63b8ff" stroke="#63b8ff" points="351.34,-252.09 359.34,-245.14 348.75,-245.58 351.34,-252.09"/>
</a>
</g>
</g>
<!-- Node10 -->
<g id="Node000010" class="node">
<title>Node10</title>
<g id="a_Node000010"><a xlink:href="m__checker__common_8fpp_8f90.html#a1f58bf767848b82995c95a02051a26a3" target="_top" xlink:title="Checks constraints on the finite difference parameters. Called by s_check_inputs_common for simulatio...">
<polygon fill="white" stroke="#666666" points="482,-598.08 361,-598.08 361,-568.08 482,-568.08 482,-598.08"/>
<text text-anchor="start" x="369" y="-586.08" font-family="Helvetica,sans-Serif" font-size="10.00">s_check_inputs_finite</text>
<text text-anchor="middle" x="421.5" y="-575.08" font-family="Helvetica,sans-Serif" font-size="10.00">_difference</text>
</a>
</g>
</g>
<!-- Node2&#45;&gt;Node10 -->
<g id="edge11_Node000002_Node000010" class="edge">
<title>Node2&#45;&gt;Node10</title>
<g id="a_edge11_Node000002_Node000010"><a xlink:title=" ">
<path fill="none" stroke="#63b8ff" d="M236.19,-349.65C242.72,-383.65 269.43,-499.77 339,-559.08 342.9,-562.41 347.24,-565.27 351.83,-567.74"/>
<polygon fill="#63b8ff" stroke="#63b8ff" points="350.38,-570.92 360.92,-572.01 353.36,-564.59 350.38,-570.92"/>
</a>
</g>
</g>
<!-- Node11 -->
<g id="Node000011" class="node">
<title>Node11</title>
<g id="a_Node000011"><a xlink:href="m__checker__common_8fpp_8f90.html#accfb74f37212066b8bc82dd89ed2ed22" target="_top" xlink:title="Checks constraints on the hypoelasticity parameters. Called by s_check_inputs_common for pre&#45;processi...">
<polygon fill="white" stroke="#666666" points="504,-549.58 339,-549.58 339,-530.58 504,-530.58 504,-549.58"/>
<text text-anchor="middle" x="421.5" y="-537.58" font-family="Helvetica,sans-Serif" font-size="10.00">s_check_inputs_hypoelasticity</text>
</a>
</g>
</g>
<!-- Node2&#45;&gt;Node11 -->
<g id="edge13_Node000002_Node000011" class="edge">
<title>Node2&#45;&gt;Node11</title>
<g id="a_edge13_Node000002_Node000011"><a xlink:title=" ">
<path fill="none" stroke="#63b8ff" d="M237.06,-349.87C245.64,-380.65 276.45,-476.14 339,-522.08 340.85,-523.44 342.78,-524.7 344.78,-525.87"/>
<polygon fill="#63b8ff" stroke="#63b8ff" points="343.4,-529.09 353.92,-530.42 346.53,-522.83 343.4,-529.09"/>
</a>
</g>
</g>
<!-- Node12 -->
<g id="Node000012" class="node">
<title>Node12</title>
<g id="a_Node000012"><a xlink:href="m__checker__common_8fpp_8f90.html#a5f288df12e9ccee0eb013354410ebfa8" target="_top" xlink:title="Checks constraints on the Immersed Boundaries parameters. Called by s_check_inputs_common for pre&#45;pro...">
<polygon fill="white" stroke="#666666" points="479,-512.58 364,-512.58 364,-493.58 479,-493.58 479,-512.58"/>
<text text-anchor="middle" x="421.5" y="-500.58" font-family="Helvetica,sans-Serif" font-size="10.00">s_check_inputs_ibm</text>
</a>
</g>
</g>
<!-- Node2&#45;&gt;Node12 -->
<g id="edge15_Node000002_Node000012" class="edge">
<title>Node2&#45;&gt;Node12</title>
<g id="a_edge15_Node000002_Node000012"><a xlink:title=" ">
<path fill="none" stroke="#63b8ff" d="M238.5,-349.62C249.94,-375.69 285.47,-448.55 339,-484.08 343.69,-487.19 348.83,-489.8 354.17,-491.98"/>
<polygon fill="#63b8ff" stroke="#63b8ff" points="353.36,-495.41 363.96,-495.47 355.71,-488.82 353.36,-495.41"/>
</a>
</g>
</g>
<!-- Node13 -->
<g id="Node000013" class="node">
<title>Node13</title>
<g id="a_Node000013"><a xlink:href="m__checker__common_8fpp_8f90.html#a62ef6c0450d3c2d10771bc88062ae6e4" target="_top" xlink:title="Checks constraints on model equations and number of fluids in the flow. Called by s_check_inputs_comm...">
<polygon fill="white" stroke="#666666" points="485,-475.08 358,-475.08 358,-445.08 485,-445.08 485,-475.08"/>
<text text-anchor="start" x="366" y="-463.08" font-family="Helvetica,sans-Serif" font-size="10.00">s_check_inputs_model</text>
<text text-anchor="middle" x="421.5" y="-452.08" font-family="Helvetica,sans-Serif" font-size="10.00">_eqns_and_num_fluids</text>
</a>
</g>
</g>
<!-- Node2&#45;&gt;Node13 -->
<g id="edge17_Node000002_Node000013" class="edge">
<title>Node2&#45;&gt;Node13</title>
<g id="a_edge17_Node000002_Node000013"><a xlink:title=" ">
<path fill="none" stroke="#63b8ff" d="M242.35,-349.81C258.44,-369.11 297.18,-412.43 339,-436.08 342.21,-437.89 345.56,-439.58 349.01,-441.15"/>
<polygon fill="#63b8ff" stroke="#63b8ff" points="347.72,-444.41 358.3,-445.03 350.42,-437.95 347.72,-444.41"/>
</a>
</g>
</g>
<!-- Node14 -->
<g id="Node000014" class="node">
<title>Node14</title>
<g id="a_Node000014"><a xlink:href="m__checker__common_8fpp_8f90.html#a697321811bee46ce0c7e4d23ef95fb9e" target="_top" xlink:title="Checks constraints on the inputs for moving boundaries. Called by s_check_inputs_common for all three...">
<polygon fill="white" stroke="#666666" points="689,-35.58 540,-35.58 540,-16.58 689,-16.58 689,-35.58"/>
<text text-anchor="middle" x="614.5" y="-23.58" font-family="Helvetica,sans-Serif" font-size="10.00">s_check_inputs_moving_bc</text>
</a>
</g>
</g>
<!-- Node2&#45;&gt;Node14 -->
<g id="edge19_Node000002_Node000014" class="edge">
<title>Node2&#45;&gt;Node14</title>
<g id="a_edge19_Node000002_Node000014"><a xlink:title=" ">
<path fill="none" stroke="#63b8ff" d="M234.26,-330.47C233.79,-287.23 238.19,-109.63 339,-35.08 407.17,15.33 513.08,0.05 571.41,-13.98"/>
<polygon fill="#63b8ff" stroke="#63b8ff" points="570.83,-17.45 581.38,-16.48 572.54,-10.66 570.83,-17.45"/>
</a>
</g>
</g>
<!-- Node15 -->
<g id="Node000015" class="node">
<title>Node15</title>
<g id="a_Node000015"><a xlink:href="m__checker__common_8fpp_8f90.html#add5396f309ec2b5791b6e7e931a8a83a" target="_top" xlink:title="Checks constraints on the phase change parameters. Called by s_check_inputs_common for pre&#45;processing...">
<polygon fill="white" stroke="#666666" points="484,-197.08 359,-197.08 359,-167.08 484,-167.08 484,-197.08"/>
<text text-anchor="start" x="367" y="-185.08" font-family="Helvetica,sans-Serif" font-size="10.00">s_check_inputs_phase</text>
<text text-anchor="middle" x="421.5" y="-174.08" font-family="Helvetica,sans-Serif" font-size="10.00">_change</text>
</a>
</g>
</g>
<!-- Node2&#45;&gt;Node15 -->
<g id="edge21_Node000002_Node000015" class="edge">
<title>Node2&#45;&gt;Node15</title>
<g id="a_edge21_Node000002_Node000015"><a xlink:title=" ">
<path fill="none" stroke="#63b8ff" d="M239.34,-330.3C252.07,-305.56 289,-240.1 339,-206.08 342.33,-203.81 345.89,-201.75 349.57,-199.89"/>
<polygon fill="#63b8ff" stroke="#63b8ff" points="351.29,-202.95 358.96,-195.63 348.4,-196.57 351.29,-202.95"/>
</a>
</g>
</g>
<!-- Node16 -->
<g id="Node000016" class="node">
<title>Node16</title>
<g id="a_Node000016"><a xlink:href="m__checker_8fpp_8f90.html#aa1150dd90c403e3d368f04ede12180b5" target="_top" xlink:title="Checks constraints on the QBMM and polydisperse bubble parameters (qbmm, polydisperse,...">
<polygon fill="white" stroke="#666666" points="485.5,-427.08 357.5,-427.08 357.5,-397.08 485.5,-397.08 485.5,-427.08"/>
<text text-anchor="start" x="365.5" y="-415.08" font-family="Helvetica,sans-Serif" font-size="10.00">s_check_inputs_qbmm</text>
<text text-anchor="middle" x="421.5" y="-404.08" font-family="Helvetica,sans-Serif" font-size="10.00">_and_polydisperse</text>
</a>
</g>
</g>
<!-- Node2&#45;&gt;Node16 -->
<g id="edge24_Node000002_Node000016" class="edge">
<title>Node2&#45;&gt;Node16</title>
<g id="a_edge24_Node000002_Node000016"><a xlink:title=" ">
<path fill="none" stroke="#63b8ff" d="M253.03,-349.58C273.66,-359.92 308.15,-376.52 339,-388.08 344.4,-390.1 350.05,-392.07 355.74,-393.94"/>
<polygon fill="#63b8ff" stroke="#63b8ff" points="354.75,-397.3 365.34,-397.01 356.88,-390.63 354.75,-397.3"/>
</a>
</g>
</g>
<!-- Node17 -->
<g id="Node000017" class="node">
<title>Node17</title>
<g id="a_Node000017"><a xlink:href="m__checker__common_8fpp_8f90.html#a3638eec34667eefff3ec91023602d436" target="_top" xlink:title="Checks constraints on dimensionality and the number of cells for the grid. Called by s_check_inputs_c...">
<polygon fill="white" stroke="#666666" points="495.5,-379.08 347.5,-379.08 347.5,-349.08 495.5,-349.08 495.5,-379.08"/>
<text text-anchor="start" x="355.5" y="-367.08" font-family="Helvetica,sans-Serif" font-size="10.00">s_check_inputs_simulation</text>
<text text-anchor="middle" x="421.5" y="-356.08" font-family="Helvetica,sans-Serif" font-size="10.00">_domain</text>
</a>
</g>
</g>
<!-- Node2&#45;&gt;Node17 -->
<g id="edge26_Node000002_Node000017" class="edge">
<title>Node2&#45;&gt;Node17</title>
<g id="a_edge26_Node000002_Node000017"><a xlink:title=" ">
<path fill="none" stroke="#63b8ff" d="M303.23,-348.95C314.36,-350.39 325.98,-351.89 337.4,-353.36"/>
<polygon fill="#63b8ff" stroke="#63b8ff" points="337,-356.84 347.37,-354.65 337.9,-349.89 337,-356.84"/>
</a>
</g>
</g>
<!-- Node18 -->
<g id="Node000018" class="node">
<title>Node18</title>
<g id="a_Node000018"><a xlink:href="m__checker__common_8fpp_8f90.html#ae37785075c904635e02713670b0cfc46" target="_top" xlink:title="Checks constraints on the stiffened equation of state fluids parameters. Called by s_check_inputs_com...">
<polygon fill="white" stroke="#666666" points="502,-100.58 341,-100.58 341,-81.58 502,-81.58 502,-100.58"/>
<text text-anchor="middle" x="421.5" y="-88.58" font-family="Helvetica,sans-Serif" font-size="10.00">s_check_inputs_stiffened_eos</text>
</a>
</g>
</g>
<!-- Node2&#45;&gt;Node18 -->
<g id="edge28_Node000002_Node000018" class="edge">
<title>Node2&#45;&gt;Node18</title>
<g id="a_edge28_Node000002_Node000018"><a xlink:title=" ">
<path fill="none" stroke="#63b8ff" d="M235.84,-330.39C241.27,-294.86 265.06,-170.7 339,-110.08 341.06,-108.39 343.25,-106.84 345.54,-105.43"/>
<polygon fill="#63b8ff" stroke="#63b8ff" points="347.52,-108.34 354.75,-100.6 344.27,-102.14 347.52,-108.34"/>
</a>
</g>
</g>
<!-- Node20 -->
<g id="Node000020" class="node">
<title>Node20</title>
<g id="a_Node000020"><a xlink:href="m__checker__common_8fpp_8f90.html#ad84e19a34c1b30082df3e369b5c8e921" target="_top" xlink:title="Checks constraints on the surface tension parameters. Called by s_check_inputs_common for all three s...">
<polygon fill="white" stroke="#666666" points="487.5,-149.08 355.5,-149.08 355.5,-119.08 487.5,-119.08 487.5,-149.08"/>
<text text-anchor="start" x="363.5" y="-137.08" font-family="Helvetica,sans-Serif" font-size="10.00">s_check_inputs_surface</text>
<text text-anchor="middle" x="421.5" y="-126.08" font-family="Helvetica,sans-Serif" font-size="10.00">_tension</text>
</a>
</g>
</g>
<!-- Node2&#45;&gt;Node20 -->
<g id="edge32_Node000002_Node000020" class="edge">
<title>Node2&#45;&gt;Node20</title>
<g id="a_edge32_Node000002_Node000020"><a xlink:title=" ">
<path fill="none" stroke="#63b8ff" d="M237.2,-330.47C246.19,-300.22 278.07,-206.15 339,-158.08 341.41,-156.18 343.97,-154.43 346.64,-152.81"/>
<polygon fill="#63b8ff" stroke="#63b8ff" points="348.28,-155.9 355.47,-148.12 344.99,-149.72 348.28,-155.9"/>
</a>
</g>
</g>
<!-- Node21 -->
<g id="Node000021" class="node">
<title>Node21</title>
<g id="a_Node000021"><a xlink:href="m__checker__common_8fpp_8f90.html#a5ce97109d7a61fb087f1b5246c654a96" target="_top" xlink:title="Checks constraints on the time&#45;stepping parameters. Called by s_check_inputs_common for simulation an...">
<polygon fill="white" stroke="#666666" points="481,-331.08 362,-331.08 362,-301.08 481,-301.08 481,-331.08"/>
<text text-anchor="start" x="370" y="-319.08" font-family="Helvetica,sans-Serif" font-size="10.00">s_check_inputs_time</text>
<text text-anchor="middle" x="421.5" y="-308.08" font-family="Helvetica,sans-Serif" font-size="10.00">_stepping</text>
</a>
</g>
</g>
<!-- Node2&#45;&gt;Node21 -->
<g id="edge35_Node000002_Node000021" class="edge">
<title>Node2&#45;&gt;Node21</title>
<g id="a_edge35_Node000002_Node000021"><a xlink:title=" ">
<path fill="none" stroke="#63b8ff" d="M303.23,-331.21C319.02,-329.18 335.81,-327.01 351.61,-324.97"/>
<polygon fill="#63b8ff" stroke="#63b8ff" points="352.36,-328.4 361.83,-323.65 351.46,-321.46 352.36,-328.4"/>
</a>
</g>
</g>
<!-- Node22 -->
<g id="Node000022" class="node">
<title>Node22</title>
<g id="a_Node000022"><a xlink:href="m__checker__common_8fpp_8f90.html#aef9fe5f21786bdd9903e9d6f6085c8b9" target="_top" xlink:title="Checks constraints regarding WENO order. Called by s_check_inputs_common for all three stages.">
<polygon fill="white" stroke="#666666" points="482.5,-282.58 360.5,-282.58 360.5,-263.58 482.5,-263.58 482.5,-282.58"/>
<text text-anchor="middle" x="421.5" y="-270.58" font-family="Helvetica,sans-Serif" font-size="10.00">s_check_inputs_weno</text>
</a>
</g>
</g>
<!-- Node2&#45;&gt;Node22 -->
<g id="edge37_Node000002_Node000022" class="edge">
<title>Node2&#45;&gt;Node22</title>
<g id="a_edge37_Node000002_Node000022"><a xlink:title=" ">
<path fill="none" stroke="#63b8ff" d="M252.54,-330.43C273.01,-319.81 307.64,-302.81 339,-292.08 346.44,-289.53 354.38,-287.21 362.28,-285.14"/>
<polygon fill="#63b8ff" stroke="#63b8ff" points="363.36,-288.48 372.21,-282.64 361.66,-281.69 363.36,-288.48"/>
</a>
</g>
</g>
<!-- Node23 -->
<g id="Node000023" class="node">
<title>Node23</title>
<g id="a_Node000023"><a xlink:href="m__checker__common_8fpp_8f90.html#ac5ead5876fd9afbfaa1d2c233f13e716" target="_top" xlink:title=" ">
<polygon fill="white" stroke="#666666" points="477,-63.58 366,-63.58 366,-44.58 477,-44.58 477,-63.58"/>
<text text-anchor="middle" x="421.5" y="-51.58" font-family="Helvetica,sans-Serif" font-size="10.00">s_check_total_cells</text>
</a>
</g>
</g>
<!-- Node2&#45;&gt;Node23 -->
<g id="edge39_Node000002_Node000023" class="edge">
<title>Node2&#45;&gt;Node23</title>
<g id="a_edge39_Node000002_Node000023"><a xlink:title=" ">
<path fill="none" stroke="#63b8ff" d="M235.13,-330.45C238.2,-291.44 255.17,-143.87 339,-72.08 343.98,-67.81 349.75,-64.49 355.88,-61.92"/>
<polygon fill="#63b8ff" stroke="#63b8ff" points="357.45,-65.07 365.73,-58.45 355.13,-58.47 357.45,-65.07"/>
</a>
</g>
</g>
<!-- Node4 -->
<g id="Node000004" class="node">
<title>Node4</title>
<g id="a_Node000004"><a xlink:href="m__helper_8fpp_8f90.html#aaf652be9ac041c3a38652bb42475f83f" target="_top" xlink:title=" ">
<polygon fill="white" stroke="#666666" points="662,-349.58 567,-349.58 567,-330.58 662,-330.58 662,-349.58"/>
<text text-anchor="middle" x="614.5" y="-337.58" font-family="Helvetica,sans-Serif" font-size="10.00">s_prohibit_abort</text>
</a>
</g>
</g>
<!-- Node3&#45;&gt;Node4 -->
<g id="edge3_Node000003_Node000004" class="edge">
<title>Node3&#45;&gt;Node4</title>
<g id="a_edge3_Node000003_Node000004"><a xlink:title=" ">
<path fill="none" stroke="#63b8ff" d="M484.09,-656.65C491.36,-653.9 498.24,-650.16 504,-645.08 591.92,-567.69 609.26,-414.46 612.67,-359.92"/>
<polygon fill="#63b8ff" stroke="#63b8ff" points="616.17,-360.02 613.21,-349.85 609.18,-359.65 616.17,-360.02"/>
</a>
</g>
</g>
<!-- Node5 -->
<g id="Node000005" class="node">
<title>Node5</title>
<g id="a_Node000005"><a xlink:href="m__mpi__common_8fpp_8f90.html#ad9e1329e498b65ad4256658675d6f797" target="_top" xlink:title="The subroutine terminates the MPI execution environment.">
<polygon fill="white" stroke="#666666" points="834.5,-106.58 757.5,-106.58 757.5,-87.58 834.5,-87.58 834.5,-106.58"/>
<text text-anchor="middle" x="796" y="-94.58" font-family="Helvetica,sans-Serif" font-size="10.00">s_mpi_abort</text>
</a>
</g>
</g>
<!-- Node4&#45;&gt;Node5 -->
<g id="edge4_Node000004_Node000005" class="edge">
<title>Node4&#45;&gt;Node5</title>
<g id="a_edge4_Node000004_Node000005"><a xlink:title=" ">
<path fill="none" stroke="#63b8ff" d="M619.73,-330.38C635.79,-293.89 693.6,-165.4 725,-134.08 734.6,-124.51 747.19,-116.82 759.05,-110.98"/>
<polygon fill="#63b8ff" stroke="#63b8ff" points="760.71,-114.07 768.33,-106.7 757.78,-107.71 760.71,-114.07"/>
</a>
</g>
</g>
<!-- Node6&#45;&gt;Node4 -->
<g id="edge6_Node000006_Node000004" class="edge">
<title>Node6&#45;&gt;Node4</title>
<g id="a_edge6_Node000006_Node000004"><a xlink:title=" ">
<path fill="none" stroke="#63b8ff" d="M475.09,-621.49C485.55,-618.58 495.81,-614.05 504,-607.08 582.21,-540.49 605.38,-409.3 611.51,-359.7"/>
<polygon fill="#63b8ff" stroke="#63b8ff" points="615,-359.99 612.65,-349.66 608.04,-359.21 615,-359.99"/>
</a>
</g>
</g>
<!-- Node7&#45;&gt;Node4 -->
<g id="edge10_Node000007_Node000004" class="edge">
<title>Node7&#45;&gt;Node4</title>
<g id="a_edge10_Node000007_Node000004"><a xlink:title=" ">
<path fill="none" stroke="#63b8ff" d="M483.15,-245.13C490.34,-247.73 497.45,-250.7 504,-254.08 540.23,-272.76 576.24,-304.14 596.6,-323.39"/>
<polygon fill="#63b8ff" stroke="#63b8ff" points="594.21,-325.95 603.84,-330.36 599.06,-320.9 594.21,-325.95"/>
</a>
</g>
</g>
<!-- Node8 -->
<g id="Node000008" class="node">
<title>Node8</title>
<g id="a_Node000008"><a xlink:href="namespacem__helper__basic.html#af1ad5f2cff7ebf5c909a7fc212815ff2" target="_top" xlink:title="Checks if a real(wp) variable is of default value.">
<polygon fill="white" stroke="#666666" points="672.5,-173.08 556.5,-173.08 556.5,-143.08 672.5,-143.08 672.5,-173.08"/>
<text text-anchor="start" x="564.5" y="-161.08" font-family="Helvetica,sans-Serif" font-size="10.00">m_helper_basic::f_is</text>
<text text-anchor="middle" x="614.5" y="-150.08" font-family="Helvetica,sans-Serif" font-size="10.00">_default</text>
</a>
</g>
</g>
<!-- Node7&#45;&gt;Node8 -->
<g id="edge8_Node000007_Node000008" class="edge">
<title>Node7&#45;&gt;Node8</title>
<g id="a_edge8_Node000007_Node000008"><a xlink:title=" ">
<path fill="none" stroke="#63b8ff" d="M477.17,-215.02C486.2,-212.24 495.41,-209.21 504,-206.08 527.06,-197.67 552.19,-186.78 572.55,-177.51"/>
<polygon fill="#63b8ff" stroke="#63b8ff" points="574.21,-180.6 581.83,-173.24 571.28,-174.24 574.21,-180.6"/>
</a>
</g>
</g>
<!-- Node9 -->
<g id="Node000009" class="node">
<title>Node9</title>
<g id="a_Node000009"><a xlink:href="namespacem__helper__basic.html#a4d4fbabb3807eb662390dd48ef95330d" target="_top" xlink:title="This procedure checks if two floating point numbers of wp are within tolerance.">
<polygon fill="white" stroke="#666666" points="867,-173.08 725,-173.08 725,-143.08 867,-143.08 867,-173.08"/>
<text text-anchor="start" x="733" y="-161.08" font-family="Helvetica,sans-Serif" font-size="10.00">m_helper_basic::f_approx</text>
<text text-anchor="middle" x="796" y="-150.08" font-family="Helvetica,sans-Serif" font-size="10.00">_equal</text>
</a>
</g>
</g>
<!-- Node8&#45;&gt;Node9 -->
<g id="edge9_Node000008_Node000009" class="edge">
<title>Node8&#45;&gt;Node9</title>
<g id="a_edge9_Node000008_Node000009"><a xlink:title=" ">
<path fill="none" stroke="#63b8ff" d="M672.79,-158.08C686.08,-158.08 700.47,-158.08 714.55,-158.08"/>
<polygon fill="#63b8ff" stroke="#63b8ff" points="714.73,-161.58 724.73,-158.08 714.73,-154.58 714.73,-161.58"/>
</a>
</g>
</g>
<!-- Node10&#45;&gt;Node4 -->
<g id="edge12_Node000010_Node000004" class="edge">
<title>Node10&#45;&gt;Node4</title>
<g id="a_edge12_Node000010_Node000004"><a xlink:title=" ">
<path fill="none" stroke="#63b8ff" d="M482.41,-571.73C490.2,-568.51 497.67,-564.38 504,-559.08 568.94,-504.74 599.12,-402.37 609.31,-359.62"/>
<polygon fill="#63b8ff" stroke="#63b8ff" points="612.77,-360.19 611.58,-349.66 605.94,-358.63 612.77,-360.19"/>
</a>
</g>
</g>
<!-- Node11&#45;&gt;Node4 -->
<g id="edge14_Node000011_Node000004" class="edge">
<title>Node11&#45;&gt;Node4</title>
<g id="a_edge14_Node000011_Node000004"><a xlink:title=" ">
<path fill="none" stroke="#63b8ff" d="M488.6,-530.49C494.07,-528.23 499.29,-525.46 504,-522.08 562.05,-480.35 594.97,-397.45 607.54,-359.67"/>
<polygon fill="#63b8ff" stroke="#63b8ff" points="610.96,-360.47 610.67,-349.88 604.29,-358.34 610.96,-360.47"/>
</a>
</g>
</g>
<!-- Node12&#45;&gt;Node4 -->
<g id="edge16_Node000012_Node000004" class="edge">
<title>Node12&#45;&gt;Node4</title>
<g id="a_edge16_Node000012_Node000004"><a xlink:title=" ">
<path fill="none" stroke="#63b8ff" d="M479.38,-495.19C488.04,-492.5 496.56,-488.9 504,-484.08 553.26,-452.17 588.95,-390.11 604.63,-358.93"/>
<polygon fill="#63b8ff" stroke="#63b8ff" points="607.94,-360.15 609.18,-349.62 601.64,-357.07 607.94,-360.15"/>
</a>
</g>
</g>
<!-- Node13&#45;&gt;Node4 -->
<g id="edge18_Node000013_Node000004" class="edge">
<title>Node13&#45;&gt;Node4</title>
<g id="a_edge18_Node000013_Node000004"><a xlink:title=" ">
<path fill="none" stroke="#63b8ff" d="M484.19,-445.06C491.06,-442.47 497.8,-439.49 504,-436.08 542.13,-415.1 578.49,-378.92 598.22,-357.48"/>
<polygon fill="#63b8ff" stroke="#63b8ff" points="601.07,-359.56 605.17,-349.79 595.87,-354.86 601.07,-359.56"/>
</a>
</g>
</g>
<!-- Node14&#45;&gt;Node5 -->
<g id="edge20_Node000014_Node000005" class="edge">
<title>Node14&#45;&gt;Node5</title>
<g id="a_edge20_Node000014_Node000005"><a xlink:title=" ">
<path fill="none" stroke="#63b8ff" d="M639.71,-35.66C671.11,-48.08 726.05,-69.81 761.46,-83.81"/>
<polygon fill="#63b8ff" stroke="#63b8ff" points="760.3,-87.12 770.89,-87.54 762.88,-80.61 760.3,-87.12"/>
</a>
</g>
</g>
<!-- Node15&#45;&gt;Node4 -->
<g id="edge23_Node000015_Node000004" class="edge">
<title>Node15&#45;&gt;Node4</title>
<g id="a_edge23_Node000015_Node000004"><a xlink:title=" ">
<path fill="none" stroke="#63b8ff" d="M484.37,-195.94C491.28,-198.74 497.98,-202.08 504,-206.08 550.1,-236.68 586.55,-292.61 603.37,-321.58"/>
<polygon fill="#63b8ff" stroke="#63b8ff" points="600.33,-323.33 608.3,-330.3 606.42,-319.88 600.33,-323.33"/>
</a>
</g>
</g>
<!-- Node15&#45;&gt;Node8 -->
<g id="edge22_Node000015_Node000008" class="edge">
<title>Node15&#45;&gt;Node8</title>
<g id="a_edge22_Node000015_Node000008"><a xlink:title=" ">
<path fill="none" stroke="#63b8ff" d="M484.25,-174.32C504.11,-171.83 526.2,-169.05 546.43,-166.51"/>
<polygon fill="#63b8ff" stroke="#63b8ff" points="547.01,-169.96 556.5,-165.24 546.14,-163.02 547.01,-169.96"/>
</a>
</g>
</g>
<!-- Node16&#45;&gt;Node4 -->
<g id="edge25_Node000016_Node000004" class="edge">
<title>Node16&#45;&gt;Node4</title>
<g id="a_edge25_Node000016_Node000004"><a xlink:title=" ">
<path fill="none" stroke="#63b8ff" d="M477.17,-397.02C486.2,-394.24 495.41,-391.21 504,-388.08 531.86,-377.92 562.72,-364.15 584.56,-353.97"/>
<polygon fill="#63b8ff" stroke="#63b8ff" points="586.07,-357.13 593.63,-349.7 583.09,-350.79 586.07,-357.13"/>
</a>
</g>
</g>
<!-- Node17&#45;&gt;Node4 -->
<g id="edge27_Node000017_Node000004" class="edge">
<title>Node17&#45;&gt;Node4</title>
<g id="a_edge27_Node000017_Node000004"><a xlink:title=" ">
<path fill="none" stroke="#63b8ff" d="M495.53,-354.91C515.79,-352.36 537.49,-349.63 556.67,-347.22"/>
<polygon fill="#63b8ff" stroke="#63b8ff" points="557.27,-350.67 566.75,-345.95 556.4,-343.73 557.27,-350.67"/>
</a>
</g>
</g>
<!-- Node18&#45;&gt;Node4 -->
<g id="edge31_Node000018_Node000004" class="edge">
<title>Node18&#45;&gt;Node4</title>
<g id="a_edge31_Node000018_Node000004"><a xlink:title=" ">
<path fill="none" stroke="#63b8ff" d="M488.17,-100.69C493.86,-103.17 499.25,-106.25 504,-110.08 508.53,-113.73 579.6,-266.79 604.76,-321.16"/>
<polygon fill="#63b8ff" stroke="#63b8ff" points="601.65,-322.77 609.02,-330.38 608,-319.83 601.65,-322.77"/>
</a>
</g>
</g>
<!-- Node18&#45;&gt;Node8 -->
<g id="edge29_Node000018_Node000008" class="edge">
<title>Node18&#45;&gt;Node8</title>
<g id="a_edge29_Node000018_Node000008"><a xlink:title=" ">
<path fill="none" stroke="#63b8ff" d="M470.32,-100.68C481.48,-103.34 493.25,-106.5 504,-110.08 527.63,-117.94 553.17,-128.98 573.63,-138.49"/>
<polygon fill="#63b8ff" stroke="#63b8ff" points="572.41,-141.78 582.95,-142.87 575.39,-135.45 572.41,-141.78"/>
</a>
</g>
</g>
<!-- Node19 -->
<g id="Node000019" class="node">
<title>Node19</title>
<g id="a_Node000019"><a xlink:href="m__helper_8fpp_8f90.html#a8a0505b2bd4f3d8cb2bf3ce16cfe01e3" target="_top" xlink:title=" ">
<polygon fill="white" stroke="#666666" points="651,-91.58 578,-91.58 578,-72.58 651,-72.58 651,-91.58"/>
<text text-anchor="middle" x="614.5" y="-79.58" font-family="Helvetica,sans-Serif" font-size="10.00">s_int_to_str</text>
</a>
</g>
</g>
<!-- Node18&#45;&gt;Node19 -->
<g id="edge30_Node000018_Node000019" class="edge">
<title>Node18&#45;&gt;Node19</title>
<g id="a_edge30_Node000018_Node000019"><a xlink:title=" ">
<path fill="none" stroke="#63b8ff" d="M502.12,-87.33C524.5,-86.27 548.09,-85.16 567.76,-84.24"/>
<polygon fill="#63b8ff" stroke="#63b8ff" points="568.14,-87.72 577.96,-83.76 567.81,-80.73 568.14,-87.72"/>
</a>
</g>
</g>
<!-- Node20&#45;&gt;Node4 -->
<g id="edge34_Node000020_Node000004" class="edge">
<title>Node20&#45;&gt;Node4</title>
<g id="a_edge34_Node000020_Node000004"><a xlink:title=" ">
<path fill="none" stroke="#63b8ff" d="M487.86,-148.42C493.61,-151.1 499.1,-154.29 504,-158.08 560.57,-201.79 594.26,-283.67 607.28,-320.84"/>
<polygon fill="#63b8ff" stroke="#63b8ff" points="604.01,-322.11 610.53,-330.47 610.64,-319.87 604.01,-322.11"/>
</a>
</g>
</g>
<!-- Node20&#45;&gt;Node8 -->
<g id="edge33_Node000020_Node000008" class="edge">
<title>Node20&#45;&gt;Node8</title>
<g id="a_edge33_Node000020_Node000008"><a xlink:title=" ">
<path fill="none" stroke="#63b8ff" d="M487.7,-142.27C506.57,-144.64 527.2,-147.24 546.2,-149.62"/>
<polygon fill="#63b8ff" stroke="#63b8ff" points="545.9,-153.11 556.26,-150.89 546.77,-146.17 545.9,-153.11"/>
</a>
</g>
</g>
<!-- Node21&#45;&gt;Node4 -->
<g id="edge36_Node000021_Node000004" class="edge">
<title>Node21&#45;&gt;Node4</title>
<g id="a_edge36_Node000021_Node000004"><a xlink:title=" ">
<path fill="none" stroke="#63b8ff" d="M481.1,-323.45C505.19,-326.47 532.97,-329.96 556.85,-332.96"/>
<polygon fill="#63b8ff" stroke="#63b8ff" points="556.46,-336.44 566.82,-334.22 557.33,-329.5 556.46,-336.44"/>
</a>
</g>
</g>
<!-- Node22&#45;&gt;Node4 -->
<g id="edge38_Node000022_Node000004" class="edge">
<title>Node22&#45;&gt;Node4</title>
<g id="a_edge38_Node000022_Node000004"><a xlink:title=" ">
<path fill="none" stroke="#63b8ff" d="M470.32,-282.68C481.48,-285.34 493.25,-288.5 504,-292.08 532.48,-301.55 563.72,-315.64 585.52,-326.11"/>
<polygon fill="#63b8ff" stroke="#63b8ff" points="584.01,-329.26 594.54,-330.49 587.07,-322.97 584.01,-329.26"/>
</a>
</g>
</g>
<!-- Node23&#45;&gt;Node4 -->
<g id="edge41_Node000023_Node000004" class="edge">
<title>Node23&#45;&gt;Node4</title>
<g id="a_edge41_Node000023_Node000004"><a xlink:title=" ">
<path fill="none" stroke="#63b8ff" d="M477.15,-58C486.98,-60.84 496.48,-65.27 504,-72.08 542.13,-106.61 521.12,-134.23 540,-182.08 560.26,-233.44 588.99,-291.86 603.81,-321.18"/>
<polygon fill="#63b8ff" stroke="#63b8ff" points="600.79,-322.95 608.44,-330.28 607.02,-319.78 600.79,-322.95"/>
</a>
</g>
</g>
<!-- Node23&#45;&gt;Node19 -->
<g id="edge40_Node000023_Node000019" class="edge">
<title>Node23&#45;&gt;Node19</title>
<g id="a_edge40_Node000023_Node000019"><a xlink:title=" ">
<path fill="none" stroke="#63b8ff" d="M477.23,-62.1C505.87,-66.3 540.53,-71.38 567.73,-75.37"/>
<polygon fill="#63b8ff" stroke="#63b8ff" points="567.36,-78.85 577.76,-76.84 568.38,-71.93 567.36,-78.85"/>
</a>
</g>
</g>
</g>
</svg>

<g id="navigator" transform="translate(0 0)" fill="#404254">
  <rect fill="#f2f5e9" fill-opacity="0.5" stroke="#606060" stroke-width=".5" x="0" y="0" width="60" height="60"/>
  <use id="zoomplus" xlink:href="#zoomPlus" x="17" y="9" onmousedown="handleZoom(evt,'in')"/>
  <use id="zoomminus" xlink:href="#zoomMin" x="42" y="9" onmousedown="handleZoom(evt,'out')"/>
  <use id="reset" xlink:href="#resetDef" x="30" y="36" onmousedown="handleReset()"/>
   <use id="arrowup" xlink:href="#arrowUp" x="0" y="0" onmousedown="handlePan(0,-1)"/>
  <use id="arrowright" xlink:href="#arrowRight" x="0" y="0" onmousedown="handlePan(1,0)"/>
  <use id="arrowdown" xlink:href="#arrowDown" x="0" y="0" onmousedown="handlePan(0,1)"/>
  <use id="arrowleft" xlink:href="#arrowLeft" x="0" y="0" onmousedown="handlePan(-1,0)"/>
</g>
<svg viewBox="0 0 15 15" width="100%" height="30px" preserveAspectRatio="xMaxYMin meet">
 <g id="arrow_out" transform="scale(0.3 0.3)">
  <a xlink:href="m__checker__common_8fpp_8f90_a3d7d0fa7763c21af55ac8bad130f285a_cgraph_org.svg" target="_base">
   <rect id="button" ry="5" rx="5" y="6" x="6" height="38" width="38"
        fill="#f2f5e9" fill-opacity="0.5" stroke="#606060" stroke-width="1.0"/>
   <path id="arrow"
     d="M 11.500037,31.436501 C 11.940474,20.09759 22.043105,11.32322 32.158766,21.979434 L 37.068811,17.246167 C 37.068811,17.246167 37.088388,32 37.088388,32 L 22.160133,31.978069 C 22.160133,31.978069 26.997745,27.140456 26.997745,27.140456 C 18.528582,18.264221 13.291696,25.230495 11.500037,31.436501 z"
     style="fill:#404040;"/>
  </a>
 </g>
</svg>

<style type='text/css'>
<![CDATA[
[data-mouse-over-selected='false'] { opacity: 0.7; }
[data-mouse-over-selected='true']  { opacity: 1.0; }
]]>
</style>
<script type="application/ecmascript"><![CDATA[
document.addEventListener('DOMContentLoaded', (event) => {
  highlightEdges();
  highlightAdjacentNodes();
});
]]></script>
</svg>
