<?xml version="1.0" encoding="UTF-8" standalone="no"?>
<!DOCTYPE svg PUBLIC "-//W3C//DTD SVG 1.1//EN"
 "http://www.w3.org/Graphics/SVG/1.1/DTD/svg11.dtd">
<!-- Generated by graphviz version 2.43.0 (0)
 -->
<!-- Title: s_check_line_sweep_patch_geometry Pages: 1 -->
<svg width="454pt" height="113pt"
 viewBox="0.00 0.00 454.00 112.50" xmlns="http://www.w3.org/2000/svg" xmlns:xlink="http://www.w3.org/1999/xlink">
<g id="graph0" class="graph" transform="scale(1 1) rotate(0) translate(4 108.5)">
<title>s_check_line_sweep_patch_geometry</title>
<!-- Node1 -->
<g id="Node000001" class="node">
<title>Node1</title>
<g id="a_Node000001"><a xlink:title="This subroutine checks the line sweep patch input.">
<polygon fill="#999999" stroke="#666666" points="116,-61.5 0,-61.5 0,-31.5 116,-31.5 116,-61.5"/>
<text text-anchor="start" x="8" y="-49.5" font-family="Helvetica,sans-Serif" font-size="10.00">s_check_line_sweep</text>
<text text-anchor="middle" x="58" y="-38.5" font-family="Helvetica,sans-Serif" font-size="10.00">_patch_geometry</text>
</a>
</g>
</g>
<!-- Node2 -->
<g id="Node000002" class="node">
<title>Node2</title>
<g id="a_Node000002"><a xlink:href="namespacem__helper__basic.html#af1ad5f2cff7ebf5c909a7fc212815ff2" target="_top" xlink:title="Checks if a real(kind(0d0)) variable is of default value.">
<polygon fill="white" stroke="#666666" points="268,-104.5 152,-104.5 152,-74.5 268,-74.5 268,-104.5"/>
<text text-anchor="start" x="160" y="-92.5" font-family="Helvetica,sans-Serif" font-size="10.00">m_helper_basic::f_is</text>
<text text-anchor="middle" x="210" y="-81.5" font-family="Helvetica,sans-Serif" font-size="10.00">_default</text>
</a>
</g>
</g>
<!-- Node1&#45;&gt;Node2 -->
<g id="edge1_Node000001_Node000002" class="edge">
<title>Node1&#45;&gt;Node2</title>
<g id="a_edge1_Node000001_Node000002"><a xlink:title=" ">
<path fill="none" stroke="#63b8ff" d="M111.46,-61.54C122.88,-64.81 135.07,-68.31 146.82,-71.68"/>
<polygon fill="#63b8ff" stroke="#63b8ff" points="145.99,-75.08 156.57,-74.47 147.92,-68.35 145.99,-75.08"/>
</a>
</g>
</g>
<!-- Node4 -->
<g id="Node000004" class="node">
<title>Node4</title>
<g id="a_Node000004"><a xlink:href="m__helper_8fpp_8f90.html#a8a0505b2bd4f3d8cb2bf3ce16cfe01e3" target="_top" xlink:title=" ">
<polygon fill="white" stroke="#666666" points="246.5,-56 173.5,-56 173.5,-37 246.5,-37 246.5,-56"/>
<text text-anchor="middle" x="210" y="-44" font-family="Helvetica,sans-Serif" font-size="10.00">s_int_to_str</text>
</a>
</g>
</g>
<!-- Node1&#45;&gt;Node4 -->
<g id="edge3_Node000001_Node000004" class="edge">
<title>Node1&#45;&gt;Node4</title>
<g id="a_edge3_Node000001_Node000004"><a xlink:title=" ">
<path fill="none" stroke="#63b8ff" d="M116.14,-46.5C131.59,-46.5 148.12,-46.5 162.89,-46.5"/>
<polygon fill="#63b8ff" stroke="#63b8ff" points="163.29,-50 173.29,-46.5 163.29,-43 163.29,-50"/>
</a>
</g>
</g>
<!-- Node5 -->
<g id="Node000005" class="node">
<title>Node5</title>
<g id="a_Node000005"><a xlink:href="m__helper_8fpp_8f90.html#aaf652be9ac041c3a38652bb42475f83f" target="_top" xlink:title=" ">
<polygon fill="white" stroke="#666666" points="257.5,-19 162.5,-19 162.5,0 257.5,0 257.5,-19"/>
<text text-anchor="middle" x="210" y="-7" font-family="Helvetica,sans-Serif" font-size="10.00">s_prohibit_abort</text>
</a>
</g>
</g>
<!-- Node1&#45;&gt;Node5 -->
<g id="edge4_Node000001_Node000005" class="edge">
<title>Node1&#45;&gt;Node5</title>
<g id="a_edge4_Node000001_Node000005"><a xlink:title=" ">
<path fill="none" stroke="#63b8ff" d="M116.14,-32.41C130.66,-28.82 146.13,-25.01 160.2,-21.54"/>
<polygon fill="#63b8ff" stroke="#63b8ff" points="161.29,-24.87 170.16,-19.08 159.61,-18.08 161.29,-24.87"/>
</a>
</g>
</g>
<!-- Node3 -->
<g id="Node000003" class="node">
<title>Node3</title>
<g id="a_Node000003"><a xlink:href="namespacem__helper__basic.html#a4d4fbabb3807eb662390dd48ef95330d" target="_top" xlink:title="This procedure checks if two floating point numbers of kind(0d0) are within tolerance.">
<polygon fill="white" stroke="#666666" points="446,-104.5 304,-104.5 304,-74.5 446,-74.5 446,-104.5"/>
<text text-anchor="start" x="312" y="-92.5" font-family="Helvetica,sans-Serif" font-size="10.00">m_helper_basic::f_approx</text>
<text text-anchor="middle" x="375" y="-81.5" font-family="Helvetica,sans-Serif" font-size="10.00">_equal</text>
</a>
</g>
</g>
<!-- Node2&#45;&gt;Node3 -->
<g id="edge2_Node000002_Node000003" class="edge">
<title>Node2&#45;&gt;Node3</title>
<g id="a_edge2_Node000002_Node000003"><a xlink:title=" ">
<path fill="none" stroke="#63b8ff" d="M268.01,-89.5C276.32,-89.5 285.01,-89.5 293.68,-89.5"/>
<polygon fill="#63b8ff" stroke="#63b8ff" points="293.83,-93 303.83,-89.5 293.83,-86 293.83,-93"/>
</a>
</g>
</g>
<!-- Node6 -->
<g id="Node000006" class="node">
<title>Node6</title>
<g id="a_Node000006"><a xlink:href="m__mpi__common_8fpp_8f90.html#ad9e1329e498b65ad4256658675d6f797" target="_top" xlink:title="The subroutine terminates the MPI execution environment.">
<polygon fill="white" stroke="#666666" points="413.5,-19 336.5,-19 336.5,0 413.5,0 413.5,-19"/>
<text text-anchor="middle" x="375" y="-7" font-family="Helvetica,sans-Serif" font-size="10.00">s_mpi_abort</text>
</a>
</g>
</g>
<!-- Node5&#45;&gt;Node6 -->
<g id="edge5_Node000005_Node000006" class="edge">
<title>Node5&#45;&gt;Node6</title>
<g id="a_edge5_Node000005_Node000006"><a xlink:title=" ">
<path fill="none" stroke="#63b8ff" d="M257.71,-9.5C279.13,-9.5 304.51,-9.5 326.08,-9.5"/>
<polygon fill="#63b8ff" stroke="#63b8ff" points="326.33,-13 336.33,-9.5 326.33,-6 326.33,-13"/>
</a>
</g>
</g>
</g>
</svg>
