<?xml version="1.0" encoding="UTF-8" standalone="no"?>
<!DOCTYPE svg PUBLIC "-//W3C//DTD SVG 1.1//EN"
 "http://www.w3.org/Graphics/SVG/1.1/DTD/svg11.dtd">
<!-- Generated by graphviz version 2.43.0 (0)
 -->
<!-- Title: s_check_inputs_grid_stretching Pages: 1 -->
<svg width="453pt" height="76pt"
 viewBox="0.00 0.00 453.00 75.50" xmlns="http://www.w3.org/2000/svg" xmlns:xlink="http://www.w3.org/1999/xlink">
<g id="graph0" class="graph" transform="scale(1 1) rotate(0) translate(4 71.5)">
<title>s_check_inputs_grid_stretching</title>
<!-- Node1 -->
<g id="Node000001" class="node">
<title>Node1</title>
<g id="a_Node000001"><a xlink:title="Checks constraints on grid stretching parameters (loops_x[y,z], stretch_x[y,z], etc....">
<polygon fill="#999999" stroke="#666666" points="115,-45.5 0,-45.5 0,-15.5 115,-15.5 115,-45.5"/>
<text text-anchor="start" x="8" y="-33.5" font-family="Helvetica,sans-Serif" font-size="10.00">s_check_inputs_grid</text>
<text text-anchor="middle" x="57.5" y="-22.5" font-family="Helvetica,sans-Serif" font-size="10.00">_stretching</text>
</a>
</g>
</g>
<!-- Node2 -->
<g id="Node000002" class="node">
<title>Node2</title>
<g id="a_Node000002"><a xlink:href="namespacem__helper__basic.html#a345e205ced0b0674a22f59a2c1549eb4" target="_top" xlink:title="Checks if a real(wp) variable is of default value.">
<polygon fill="white" stroke="#666666" points="267,-67.5 151,-67.5 151,-37.5 267,-37.5 267,-67.5"/>
<text text-anchor="start" x="159" y="-55.5" font-family="Helvetica,sans-Serif" font-size="10.00">m_helper_basic::f_is</text>
<text text-anchor="middle" x="209" y="-44.5" font-family="Helvetica,sans-Serif" font-size="10.00">_default</text>
</a>
</g>
</g>
<!-- Node1&#45;&gt;Node2 -->
<g id="edge1_Node000001_Node000002" class="edge">
<title>Node1&#45;&gt;Node2</title>
<g id="a_edge1_Node000001_Node000002"><a xlink:title=" ">
<path fill="none" stroke="#63b8ff" d="M115.02,-38.82C123.46,-40.06 132.23,-41.35 140.86,-42.62"/>
<polygon fill="#63b8ff" stroke="#63b8ff" points="140.5,-46.1 150.9,-44.1 141.52,-39.18 140.5,-46.1"/>
</a>
</g>
</g>
<!-- Node4 -->
<g id="Node000004" class="node">
<title>Node4</title>
<g id="a_Node000004"><a xlink:href="m__mpi__common_8fpp_8f90.html#a7a63ba325e6315d6d7dc45c614d65347" target="_top" xlink:title=" ">
<polygon fill="white" stroke="#666666" points="256.5,-19 161.5,-19 161.5,0 256.5,0 256.5,-19"/>
<text text-anchor="middle" x="209" y="-7" font-family="Helvetica,sans-Serif" font-size="10.00">s_prohibit_abort</text>
</a>
</g>
</g>
<!-- Node1&#45;&gt;Node4 -->
<g id="edge3_Node000001_Node000004" class="edge">
<title>Node1&#45;&gt;Node4</title>
<g id="a_edge3_Node000001_Node000004"><a xlink:title=" ">
<path fill="none" stroke="#63b8ff" d="M115.02,-22.56C126.79,-20.91 139.2,-19.16 150.98,-17.51"/>
<polygon fill="#63b8ff" stroke="#63b8ff" points="151.73,-20.94 161.15,-16.08 150.76,-14.01 151.73,-20.94"/>
</a>
</g>
</g>
<!-- Node3 -->
<g id="Node000003" class="node">
<title>Node3</title>
<g id="a_Node000003"><a xlink:href="namespacem__helper__basic.html#a58590a12d49b9b884256a839f2be8610" target="_top" xlink:title="This procedure checks if two floating point numbers of wp are within tolerance.">
<polygon fill="white" stroke="#666666" points="445,-67.5 303,-67.5 303,-37.5 445,-37.5 445,-67.5"/>
<text text-anchor="start" x="311" y="-55.5" font-family="Helvetica,sans-Serif" font-size="10.00">m_helper_basic::f_approx</text>
<text text-anchor="middle" x="374" y="-44.5" font-family="Helvetica,sans-Serif" font-size="10.00">_equal</text>
</a>
</g>
</g>
<!-- Node2&#45;&gt;Node3 -->
<g id="edge2_Node000002_Node000003" class="edge">
<title>Node2&#45;&gt;Node3</title>
<g id="a_edge2_Node000002_Node000003"><a xlink:title=" ">
<path fill="none" stroke="#63b8ff" d="M267.01,-52.5C275.32,-52.5 284.01,-52.5 292.68,-52.5"/>
<polygon fill="#63b8ff" stroke="#63b8ff" points="292.83,-56 302.83,-52.5 292.83,-49 292.83,-56"/>
</a>
</g>
</g>
<!-- Node5 -->
<g id="Node000005" class="node">
<title>Node5</title>
<g id="a_Node000005"><a xlink:href="m__mpi__common_8fpp_8f90.html#adbcc47e90968ff0f14ccc2ca3c47586a" target="_top" xlink:title="The subroutine terminates the MPI execution environment.">
<polygon fill="white" stroke="#666666" points="412.5,-19 335.5,-19 335.5,0 412.5,0 412.5,-19"/>
<text text-anchor="middle" x="374" y="-7" font-family="Helvetica,sans-Serif" font-size="10.00">s_mpi_abort</text>
</a>
</g>
</g>
<!-- Node4&#45;&gt;Node5 -->
<g id="edge4_Node000004_Node000005" class="edge">
<title>Node4&#45;&gt;Node5</title>
<g id="a_edge4_Node000004_Node000005"><a xlink:title=" ">
<path fill="none" stroke="#63b8ff" d="M256.71,-9.5C278.13,-9.5 303.51,-9.5 325.08,-9.5"/>
<polygon fill="#63b8ff" stroke="#63b8ff" points="325.33,-13 335.33,-9.5 325.33,-6 325.33,-13"/>
</a>
</g>
</g>
</g>
</svg>
