<?xml version="1.0" encoding="UTF-8" standalone="no"?>
<!DOCTYPE svg PUBLIC "-//W3C//DTD SVG 1.1//EN"
 "http://www.w3.org/Graphics/SVG/1.1/DTD/svg11.dtd">
<!-- Generated by graphviz version 2.43.0 (0)
 -->
<!-- Title: s_check_unsupported_patch_smoothing Pages: 1 -->
<svg width="460pt" height="113pt"
 viewBox="0.00 0.00 460.00 112.50" xmlns="http://www.w3.org/2000/svg" xmlns:xlink="http://www.w3.org/1999/xlink">
<g id="graph0" class="graph" transform="scale(1 1) rotate(0) translate(4 108.5)">
<title>s_check_unsupported_patch_smoothing</title>
<!-- Node1 -->
<g id="Node000001" class="node">
<title>Node1</title>
<g id="a_Node000001"><a xlink:title="This subroutine verifies that inactive patches cannot be smoothed.">
<polygon fill="#999999" stroke="#666666" points="122,-61.5 0,-61.5 0,-31.5 122,-31.5 122,-61.5"/>
<text text-anchor="start" x="8" y="-49.5" font-family="Helvetica,sans-Serif" font-size="10.00">s_check_unsupported</text>
<text text-anchor="middle" x="61" y="-38.5" font-family="Helvetica,sans-Serif" font-size="10.00">_patch_smoothing</text>
</a>
</g>
</g>
<!-- Node2 -->
<g id="Node000002" class="node">
<title>Node2</title>
<g id="a_Node000002"><a xlink:href="namespacem__helper__basic.html#af1ad5f2cff7ebf5c909a7fc212815ff2" target="_top" xlink:title="Checks if a real(wp) variable is of default value.">
<polygon fill="white" stroke="#666666" points="274,-104.5 158,-104.5 158,-74.5 274,-74.5 274,-104.5"/>
<text text-anchor="start" x="166" y="-92.5" font-family="Helvetica,sans-Serif" font-size="10.00">m_helper_basic::f_is</text>
<text text-anchor="middle" x="216" y="-81.5" font-family="Helvetica,sans-Serif" font-size="10.00">_default</text>
</a>
</g>
</g>
<!-- Node1&#45;&gt;Node2 -->
<g id="edge1_Node000001_Node000002" class="edge">
<title>Node1&#45;&gt;Node2</title>
<g id="a_edge1_Node000001_Node000002"><a xlink:title=" ">
<path fill="none" stroke="#63b8ff" d="M115.51,-61.54C127.16,-64.81 139.59,-68.31 151.58,-71.68"/>
<polygon fill="#63b8ff" stroke="#63b8ff" points="150.94,-75.13 161.52,-74.47 152.84,-68.39 150.94,-75.13"/>
</a>
</g>
</g>
<!-- Node4 -->
<g id="Node000004" class="node">
<title>Node4</title>
<g id="a_Node000004"><a xlink:href="m__helper_8fpp_8f90.html#a8a0505b2bd4f3d8cb2bf3ce16cfe01e3" target="_top" xlink:title=" ">
<polygon fill="white" stroke="#666666" points="252.5,-56 179.5,-56 179.5,-37 252.5,-37 252.5,-56"/>
<text text-anchor="middle" x="216" y="-44" font-family="Helvetica,sans-Serif" font-size="10.00">s_int_to_str</text>
</a>
</g>
</g>
<!-- Node1&#45;&gt;Node4 -->
<g id="edge3_Node000001_Node000004" class="edge">
<title>Node1&#45;&gt;Node4</title>
<g id="a_edge3_Node000001_Node000004"><a xlink:title=" ">
<path fill="none" stroke="#63b8ff" d="M122.03,-46.5C137.66,-46.5 154.25,-46.5 169.03,-46.5"/>
<polygon fill="#63b8ff" stroke="#63b8ff" points="169.42,-50 179.42,-46.5 169.42,-43 169.42,-50"/>
</a>
</g>
</g>
<!-- Node5 -->
<g id="Node000005" class="node">
<title>Node5</title>
<g id="a_Node000005"><a xlink:href="m__helper_8fpp_8f90.html#aaf652be9ac041c3a38652bb42475f83f" target="_top" xlink:title=" ">
<polygon fill="white" stroke="#666666" points="263.5,-19 168.5,-19 168.5,0 263.5,0 263.5,-19"/>
<text text-anchor="middle" x="216" y="-7" font-family="Helvetica,sans-Serif" font-size="10.00">s_prohibit_abort</text>
</a>
</g>
</g>
<!-- Node1&#45;&gt;Node5 -->
<g id="edge4_Node000001_Node000005" class="edge">
<title>Node1&#45;&gt;Node5</title>
<g id="a_edge4_Node000001_Node000005"><a xlink:title=" ">
<path fill="none" stroke="#63b8ff" d="M122.03,-31.98C136.45,-28.5 151.68,-24.81 165.56,-21.46"/>
<polygon fill="#63b8ff" stroke="#63b8ff" points="166.49,-24.83 175.39,-19.08 164.84,-18.03 166.49,-24.83"/>
</a>
</g>
</g>
<!-- Node3 -->
<g id="Node000003" class="node">
<title>Node3</title>
<g id="a_Node000003"><a xlink:href="namespacem__helper__basic.html#a4d4fbabb3807eb662390dd48ef95330d" target="_top" xlink:title="This procedure checks if two floating point numbers of wp are within tolerance.">
<polygon fill="white" stroke="#666666" points="452,-104.5 310,-104.5 310,-74.5 452,-74.5 452,-104.5"/>
<text text-anchor="start" x="318" y="-92.5" font-family="Helvetica,sans-Serif" font-size="10.00">m_helper_basic::f_approx</text>
<text text-anchor="middle" x="381" y="-81.5" font-family="Helvetica,sans-Serif" font-size="10.00">_equal</text>
</a>
</g>
</g>
<!-- Node2&#45;&gt;Node3 -->
<g id="edge2_Node000002_Node000003" class="edge">
<title>Node2&#45;&gt;Node3</title>
<g id="a_edge2_Node000002_Node000003"><a xlink:title=" ">
<path fill="none" stroke="#63b8ff" d="M274.01,-89.5C282.32,-89.5 291.01,-89.5 299.68,-89.5"/>
<polygon fill="#63b8ff" stroke="#63b8ff" points="299.83,-93 309.83,-89.5 299.83,-86 299.83,-93"/>
</a>
</g>
</g>
<!-- Node6 -->
<g id="Node000006" class="node">
<title>Node6</title>
<g id="a_Node000006"><a xlink:href="m__mpi__common_8fpp_8f90.html#ad9e1329e498b65ad4256658675d6f797" target="_top" xlink:title="The subroutine terminates the MPI execution environment.">
<polygon fill="white" stroke="#666666" points="419.5,-19 342.5,-19 342.5,0 419.5,0 419.5,-19"/>
<text text-anchor="middle" x="381" y="-7" font-family="Helvetica,sans-Serif" font-size="10.00">s_mpi_abort</text>
</a>
</g>
</g>
<!-- Node5&#45;&gt;Node6 -->
<g id="edge5_Node000005_Node000006" class="edge">
<title>Node5&#45;&gt;Node6</title>
<g id="a_edge5_Node000005_Node000006"><a xlink:title=" ">
<path fill="none" stroke="#63b8ff" d="M263.71,-9.5C285.13,-9.5 310.51,-9.5 332.08,-9.5"/>
<polygon fill="#63b8ff" stroke="#63b8ff" points="332.33,-13 342.33,-9.5 332.33,-6 332.33,-13"/>
</a>
</g>
</g>
</g>
</svg>
