<?xml version="1.0" encoding="UTF-8" standalone="no"?>
<!DOCTYPE svg PUBLIC "-//W3C//DTD SVG 1.1//EN"
 "http://www.w3.org/Graphics/SVG/1.1/DTD/svg11.dtd">
<!-- Generated by graphviz version 2.43.0 (0)
 -->
<!-- Title: f_approx_in_array Pages: 1 -->
<svg width="865pt" height="110pt"
 viewBox="0.00 0.00 865.00 110.00" xmlns="http://www.w3.org/2000/svg" xmlns:xlink="http://www.w3.org/1999/xlink">
<g id="graph0" class="graph" transform="scale(1 1) rotate(0) translate(4 106)">
<title>f_approx_in_array</title>
<!-- Node1 -->
<g id="Node000001" class="node">
<title>Node1</title>
<g id="a_Node000001"><a xlink:title="This procedure checks if the point numbers of wp belongs to another array are within tolerance.">
<polygon fill="#999999" stroke="#666666" points="857,-72.5 753,-72.5 753,-53.5 857,-53.5 857,-72.5"/>
<text text-anchor="middle" x="805" y="-60.5" font-family="Helvetica,sans-Serif" font-size="10.00">f_approx_in_array</text>
</a>
</g>
</g>
<!-- Node2 -->
<g id="Node000002" class="node">
<title>Node2</title>
<g id="a_Node000002"><a xlink:href="m__helper__basic_8fpp_8f90.html#ad82dbe6afc8cb807568ee1b7f0a0afbb" target="_top" xlink:title=" ">
<polygon fill="white" stroke="#666666" points="701.5,-102 576.5,-102 576.5,-72 701.5,-72 701.5,-102"/>
<text text-anchor="start" x="584.5" y="-90" font-family="Helvetica,sans-Serif" font-size="10.00">__m_helper_basic_fpp</text>
<text text-anchor="middle" x="639" y="-79" font-family="Helvetica,sans-Serif" font-size="10.00">_f90__</text>
</a>
</g>
</g>
<!-- Node1&#45;&gt;Node2 -->
<g id="edge1_Node000001_Node000002" class="edge">
<title>Node1&#45;&gt;Node2</title>
<g id="a_edge1_Node000001_Node000002"><a xlink:title=" ">
<path fill="none" stroke="#63b8ff" d="M742.51,-72C729.14,-73.96 714.99,-76.03 701.61,-77.98"/>
<polygon fill="#63b8ff" stroke="#63b8ff" points="743.17,-75.44 752.56,-70.53 742.16,-68.51 743.17,-75.44"/>
</a>
</g>
</g>
<!-- Node3 -->
<g id="Node000003" class="node">
<title>Node3</title>
<g id="a_Node000003"><a xlink:href="m__check__patches_8fpp_8f90.html#aa4c2019b6005a0aca926036802450d4a" target="_top" xlink:title="This subroutine checks the model patch input.">
<polygon fill="white" stroke="#666666" points="717,-54 561,-54 561,-24 717,-24 717,-54"/>
<text text-anchor="start" x="569" y="-42" font-family="Helvetica,sans-Serif" font-size="10.00">s_check_spherical_harmonic</text>
<text text-anchor="middle" x="639" y="-31" font-family="Helvetica,sans-Serif" font-size="10.00">_patch_geometry</text>
</a>
</g>
</g>
<!-- Node1&#45;&gt;Node3 -->
<g id="edge2_Node000001_Node000003" class="edge">
<title>Node1&#45;&gt;Node3</title>
<g id="a_edge2_Node000001_Node000003"><a xlink:title=" ">
<path fill="none" stroke="#63b8ff" d="M742.58,-54.01C734.26,-52.79 725.64,-51.53 717.09,-50.28"/>
<polygon fill="#63b8ff" stroke="#63b8ff" points="742.16,-57.49 752.56,-55.47 743.17,-50.56 742.16,-57.49"/>
</a>
</g>
</g>
<!-- Node4 -->
<g id="Node000004" class="node">
<title>Node4</title>
<g id="a_Node000004"><a xlink:href="m__check__patches_8fpp_8f90.html#a5473a25916590e0d6fad8bb64eab552f" target="_top" xlink:title=" ">
<polygon fill="white" stroke="#666666" points="525,-48.5 426,-48.5 426,-29.5 525,-29.5 525,-48.5"/>
<text text-anchor="middle" x="475.5" y="-36.5" font-family="Helvetica,sans-Serif" font-size="10.00">s_check_patches</text>
</a>
</g>
</g>
<!-- Node3&#45;&gt;Node4 -->
<g id="edge3_Node000003_Node000004" class="edge">
<title>Node3&#45;&gt;Node4</title>
<g id="a_edge3_Node000003_Node000004"><a xlink:title=" ">
<path fill="none" stroke="#63b8ff" d="M550.45,-39C541.86,-39 533.37,-39 525.38,-39"/>
<polygon fill="#63b8ff" stroke="#63b8ff" points="550.56,-42.5 560.56,-39 550.56,-35.5 550.56,-42.5"/>
</a>
</g>
</g>
<!-- Node5 -->
<g id="Node000005" class="node">
<title>Node5</title>
<g id="a_Node000005"><a xlink:href="m__check__patches_8fpp_8f90.html#abc543146d1c0580932d5b9d4130c4b8f" target="_top" xlink:title=" ">
<polygon fill="white" stroke="#666666" points="390,-78 255,-78 255,-48 390,-48 390,-78"/>
<text text-anchor="start" x="263" y="-66" font-family="Helvetica,sans-Serif" font-size="10.00">__m_check_patches_fpp</text>
<text text-anchor="middle" x="322.5" y="-55" font-family="Helvetica,sans-Serif" font-size="10.00">_f90__</text>
</a>
</g>
</g>
<!-- Node4&#45;&gt;Node5 -->
<g id="edge4_Node000004_Node000005" class="edge">
<title>Node4&#45;&gt;Node5</title>
<g id="a_edge4_Node000004_Node000005"><a xlink:title=" ">
<path fill="none" stroke="#63b8ff" d="M415.82,-48.33C407.41,-49.66 398.72,-51.04 390.18,-52.4"/>
<polygon fill="#63b8ff" stroke="#63b8ff" points="416.56,-51.75 425.89,-46.73 415.47,-44.84 416.56,-51.75"/>
</a>
</g>
</g>
<!-- Node6 -->
<g id="Node000006" class="node">
<title>Node6</title>
<g id="a_Node000006"><a xlink:href="namespacem__start__up.html#ad26e747c87bb6bcf4c9d6baa21d044c1" target="_top" xlink:title="Checking that the user inputs make sense, i.e. that the individual choices are compatible with the co...">
<polygon fill="white" stroke="#666666" points="380.5,-30 264.5,-30 264.5,0 380.5,0 380.5,-30"/>
<text text-anchor="start" x="272.5" y="-18" font-family="Helvetica,sans-Serif" font-size="10.00">m_start_up::s_check</text>
<text text-anchor="middle" x="322.5" y="-7" font-family="Helvetica,sans-Serif" font-size="10.00">_input_file</text>
</a>
</g>
</g>
<!-- Node4&#45;&gt;Node6 -->
<g id="edge5_Node000004_Node000006" class="edge">
<title>Node4&#45;&gt;Node6</title>
<g id="a_edge5_Node000004_Node000006"><a xlink:title=" ">
<path fill="none" stroke="#63b8ff" d="M415.9,-29.69C404.34,-27.85 392.22,-25.92 380.71,-24.09"/>
<polygon fill="#63b8ff" stroke="#63b8ff" points="415.47,-33.16 425.89,-31.27 416.56,-26.25 415.47,-33.16"/>
</a>
</g>
</g>
<!-- Node7 -->
<g id="Node000007" class="node">
<title>Node7</title>
<g id="a_Node000007"><a xlink:href="namespacem__start__up.html#ab64542f13c680e17ce8879c77c65c0e0" target="_top" xlink:title=" ">
<polygon fill="white" stroke="#666666" points="219,-30 89,-30 89,0 219,0 219,-30"/>
<text text-anchor="start" x="97" y="-18" font-family="Helvetica,sans-Serif" font-size="10.00">m_start_up::s_initialize</text>
<text text-anchor="middle" x="154" y="-7" font-family="Helvetica,sans-Serif" font-size="10.00">_mpi_domain</text>
</a>
</g>
</g>
<!-- Node6&#45;&gt;Node7 -->
<g id="edge6_Node000006_Node000007" class="edge">
<title>Node6&#45;&gt;Node7</title>
<g id="a_edge6_Node000006_Node000007"><a xlink:title=" ">
<path fill="none" stroke="#63b8ff" d="M254.2,-15C242.67,-15 230.71,-15 219.26,-15"/>
<polygon fill="#63b8ff" stroke="#63b8ff" points="254.2,-18.5 264.2,-15 254.2,-11.5 254.2,-18.5"/>
</a>
</g>
</g>
<!-- Node8 -->
<g id="Node000008" class="node">
<title>Node8</title>
<g id="a_Node000008"><a xlink:href="p__main_8f90.html#aeec10ee8e2940c953967da3e374e1579" target="_top" xlink:title="This program takes care of setting up the initial condition and grid data for the multicomponent flow...">
<polygon fill="white" stroke="#666666" points="53,-24.5 0,-24.5 0,-5.5 53,-5.5 53,-24.5"/>
<text text-anchor="middle" x="26.5" y="-12.5" font-family="Helvetica,sans-Serif" font-size="10.00">p_main</text>
</a>
</g>
</g>
<!-- Node7&#45;&gt;Node8 -->
<g id="edge7_Node000007_Node000008" class="edge">
<title>Node7&#45;&gt;Node8</title>
<g id="a_edge7_Node000007_Node000008"><a xlink:title=" ">
<path fill="none" stroke="#63b8ff" d="M78.74,-15C69.58,-15 60.76,-15 53.09,-15"/>
<polygon fill="#63b8ff" stroke="#63b8ff" points="78.78,-18.5 88.78,-15 78.78,-11.5 78.78,-18.5"/>
</a>
</g>
</g>
</g>
</svg>
