<?xml version="1.0" encoding="UTF-8" standalone="no"?>
<!DOCTYPE svg PUBLIC "-//W3C//DTD SVG 1.1//EN"
 "http://www.w3.org/Graphics/SVG/1.1/DTD/svg11.dtd">
<!-- Generated by graphviz version 2.43.0 (0)
 -->
<!-- Title: __m_model_fpp_f90__ Pages: 1 -->
<svg width="859pt" height="553pt"
 viewBox="0.00 0.00 859.00 553.00" xmlns="http://www.w3.org/2000/svg" xmlns:xlink="http://www.w3.org/1999/xlink">
<g id="graph0" class="graph" transform="scale(1 1) rotate(0) translate(4 549)">
<title>__m_model_fpp_f90__</title>
<!-- Node1 -->
<g id="Node000001" class="node">
<title>Node1</title>
<g id="a_Node000001"><a xlink:title=" ">
<polygon fill="#999999" stroke="#666666" points="125,-284 0,-284 0,-265 125,-265 125,-284"/>
<text text-anchor="middle" x="62.5" y="-272" font-family="Helvetica,sans-Serif" font-size="10.00">__m_model_fpp_f90__</text>
</a>
</g>
</g>
<!-- Node2 -->
<g id="Node000002" class="node">
<title>Node2</title>
<g id="a_Node000002"><a xlink:href="m__model_8fpp_8f90.html#ad5fc67b341b383de4afdf9c24cb5a498" target="_top" xlink:title="This procedure checks and labels edges shared by two or more triangles facets of the 2D STL model.">
<polygon fill="white" stroke="#666666" points="283,-545 178,-545 178,-526 283,-526 283,-545"/>
<text text-anchor="middle" x="230.5" y="-533" font-family="Helvetica,sans-Serif" font-size="10.00">f_check_boundary</text>
</a>
</g>
</g>
<!-- Node1&#45;&gt;Node2 -->
<g id="edge1_Node000001_Node000002" class="edge">
<title>Node1&#45;&gt;Node2</title>
<g id="a_edge1_Node000001_Node000002"><a xlink:title=" ">
<path fill="none" stroke="#63b8ff" d="M64.65,-284.2C69.4,-319.83 90.61,-444.77 161,-511.5 165.28,-515.55 170.28,-518.93 175.59,-521.74"/>
<polygon fill="#63b8ff" stroke="#63b8ff" points="174.22,-524.96 184.77,-525.94 177.14,-518.59 174.22,-524.96"/>
</a>
</g>
</g>
<!-- Node3 -->
<g id="Node000003" class="node">
<title>Node3</title>
<g id="a_Node000003"><a xlink:href="m__model_8fpp_8f90.html#a0473a63ec4134331f66170c52e2d9d38" target="_top" xlink:title="This procedure appends the edge end vertices to a temporary buffer.">
<polygon fill="white" stroke="#666666" points="440,-526 348,-526 348,-507 440,-507 440,-526"/>
<text text-anchor="middle" x="394" y="-514" font-family="Helvetica,sans-Serif" font-size="10.00">f_register_edge</text>
</a>
</g>
</g>
<!-- Node1&#45;&gt;Node3 -->
<g id="edge29_Node000001_Node000003" class="edge">
<title>Node1&#45;&gt;Node3</title>
<g id="a_edge29_Node000001_Node000003"><a xlink:title=" ">
<path fill="none" stroke="#63b8ff" d="M64.93,-284.16C70.39,-317.37 93.18,-427.62 161,-478.5 188.16,-498.88 278.01,-508.82 337.59,-513.28"/>
<polygon fill="#63b8ff" stroke="#63b8ff" points="337.38,-516.77 347.61,-514 337.89,-509.79 337.38,-516.77"/>
</a>
</g>
</g>
<!-- Node4 -->
<g id="Node000004" class="node">
<title>Node4</title>
<g id="a_Node000004"><a xlink:href="m__model_8fpp_8f90.html#a762862c0b1fec3a13fdd54bd379966ec" target="_top" xlink:title="This procedure check if interpolates is needed for 2D models.">
<polygon fill="white" stroke="#666666" points="300,-469 161,-469 161,-450 300,-450 300,-469"/>
<text text-anchor="middle" x="230.5" y="-457" font-family="Helvetica,sans-Serif" font-size="10.00">f_check_interpolation_2d</text>
</a>
</g>
</g>
<!-- Node1&#45;&gt;Node4 -->
<g id="edge3_Node000001_Node000004" class="edge">
<title>Node1&#45;&gt;Node4</title>
<g id="a_edge3_Node000001_Node000004"><a xlink:title=" ">
<path fill="none" stroke="#63b8ff" d="M66.25,-284.19C74.93,-312.99 104.59,-398.65 161,-441.5 162.83,-442.89 164.76,-444.17 166.76,-445.36"/>
<polygon fill="#63b8ff" stroke="#63b8ff" points="165.42,-448.6 175.93,-449.94 168.55,-442.34 165.42,-448.6"/>
</a>
</g>
</g>
<!-- Node5 -->
<g id="Node000005" class="node">
<title>Node5</title>
<g id="a_Node000005"><a xlink:href="m__model_8fpp_8f90.html#a1b3d7736f0e18465f72160616afe8daf" target="_top" xlink:title="This procedure check if interpolates is needed for 3D models.">
<polygon fill="white" stroke="#666666" points="300,-432 161,-432 161,-413 300,-413 300,-432"/>
<text text-anchor="middle" x="230.5" y="-420" font-family="Helvetica,sans-Serif" font-size="10.00">f_check_interpolation_3d</text>
</a>
</g>
</g>
<!-- Node1&#45;&gt;Node5 -->
<g id="edge4_Node000001_Node000005" class="edge">
<title>Node1&#45;&gt;Node5</title>
<g id="a_edge4_Node000001_Node000005"><a xlink:title=" ">
<path fill="none" stroke="#63b8ff" d="M67.85,-284.08C79.36,-308.28 113.01,-372.22 161,-404.5 163.39,-406.11 165.92,-407.57 168.54,-408.91"/>
<polygon fill="#63b8ff" stroke="#63b8ff" points="167.17,-412.13 177.73,-412.96 169.99,-405.72 167.17,-412.13"/>
</a>
</g>
</g>
<!-- Node6 -->
<g id="Node000006" class="node">
<title>Node6</title>
<g id="a_Node000006"><a xlink:href="m__model_8fpp_8f90.html#a7f89839ed0d896e225cfb456b66b40db" target="_top" xlink:title="This procedure determines the levelset distance of 2D models without interpolation.">
<polygon fill="white" stroke="#666666" points="264,-395 197,-395 197,-376 264,-376 264,-395"/>
<text text-anchor="middle" x="230.5" y="-383" font-family="Helvetica,sans-Serif" font-size="10.00">f_distance</text>
</a>
</g>
</g>
<!-- Node1&#45;&gt;Node6 -->
<g id="edge5_Node000001_Node000006" class="edge">
<title>Node1&#45;&gt;Node6</title>
<g id="a_edge5_Node000001_Node000006"><a xlink:title=" ">
<path fill="none" stroke="#63b8ff" d="M70.69,-284.04C85.45,-302.94 121.18,-345.26 161,-367.5 168.96,-371.94 178.05,-375.32 186.95,-377.88"/>
<polygon fill="#63b8ff" stroke="#63b8ff" points="186.29,-381.33 196.85,-380.44 188.04,-374.55 186.29,-381.33"/>
</a>
</g>
</g>
<!-- Node7 -->
<g id="Node000007" class="node">
<title>Node7</title>
<g id="a_Node000007"><a xlink:href="m__model_8fpp_8f90.html#a34d36ab6ab3df7a0e13ab58696540e15" target="_top" xlink:title="This procedure determines the levelset distance and normals of the 3D models without interpolation.">
<polygon fill="white" stroke="#666666" points="295,-358 166,-358 166,-339 295,-339 295,-358"/>
<text text-anchor="middle" x="230.5" y="-346" font-family="Helvetica,sans-Serif" font-size="10.00">f_distance_normals_3d</text>
</a>
</g>
</g>
<!-- Node1&#45;&gt;Node7 -->
<g id="edge6_Node000001_Node000007" class="edge">
<title>Node1&#45;&gt;Node7</title>
<g id="a_edge6_Node000001_Node000007"><a xlink:title=" ">
<path fill="none" stroke="#63b8ff" d="M77.43,-284.09C95.83,-296.37 129.57,-317.61 161,-330.5 165.98,-332.54 171.25,-334.41 176.58,-336.11"/>
<polygon fill="#63b8ff" stroke="#63b8ff" points="175.59,-339.46 186.18,-338.97 177.6,-332.76 175.59,-339.46"/>
</a>
</g>
</g>
<!-- Node8 -->
<g id="Node000008" class="node">
<title>Node8</title>
<g id="a_Node000008"><a xlink:href="m__model_8fpp_8f90.html#a1e1085dab7ce97f80630ac92e5ca45d3" target="_top" xlink:title="This procedure interpolates 2D models.">
<polygon fill="white" stroke="#666666" points="278.5,-321 182.5,-321 182.5,-302 278.5,-302 278.5,-321"/>
<text text-anchor="middle" x="230.5" y="-309" font-family="Helvetica,sans-Serif" font-size="10.00">f_interpolate_2d</text>
</a>
</g>
</g>
<!-- Node1&#45;&gt;Node8 -->
<g id="edge7_Node000001_Node000008" class="edge">
<title>Node1&#45;&gt;Node8</title>
<g id="a_edge7_Node000001_Node000008"><a xlink:title=" ">
<path fill="none" stroke="#63b8ff" d="M106.25,-284.03C127.76,-288.82 154.02,-294.68 176.77,-299.75"/>
<polygon fill="#63b8ff" stroke="#63b8ff" points="176.09,-303.18 186.61,-301.94 177.61,-296.35 176.09,-303.18"/>
</a>
</g>
</g>
<!-- Node9 -->
<g id="Node000009" class="node">
<title>Node9</title>
<g id="a_Node000009"><a xlink:href="m__model_8fpp_8f90.html#a768fba2d24fe7643b3a4195293eb5c90" target="_top" xlink:title="This procedure interpolates 3D models.">
<polygon fill="white" stroke="#666666" points="278.5,-284 182.5,-284 182.5,-265 278.5,-265 278.5,-284"/>
<text text-anchor="middle" x="230.5" y="-272" font-family="Helvetica,sans-Serif" font-size="10.00">f_interpolate_3d</text>
</a>
</g>
</g>
<!-- Node1&#45;&gt;Node9 -->
<g id="edge8_Node000001_Node000009" class="edge">
<title>Node1&#45;&gt;Node9</title>
<g id="a_edge8_Node000001_Node000009"><a xlink:title=" ">
<path fill="none" stroke="#63b8ff" d="M125.31,-274.5C140.67,-274.5 157.06,-274.5 172.18,-274.5"/>
<polygon fill="#63b8ff" stroke="#63b8ff" points="172.43,-278 182.43,-274.5 172.43,-271 172.43,-278"/>
</a>
</g>
</g>
<!-- Node10 -->
<g id="Node000010" class="node">
<title>Node10</title>
<g id="a_Node000010"><a xlink:href="m__model_8fpp_8f90.html#a1bca53a2bd4edad3fe014011cfa92927" target="_top" xlink:title="This procedure calculates the barycentric facet area.">
<polygon fill="white" stroke="#666666" points="425.5,-284 362.5,-284 362.5,-265 425.5,-265 425.5,-284"/>
<text text-anchor="middle" x="394" y="-272" font-family="Helvetica,sans-Serif" font-size="10.00">f_tri_area</text>
</a>
</g>
</g>
<!-- Node1&#45;&gt;Node10 -->
<g id="edge30_Node000001_Node000010" class="edge">
<title>Node1&#45;&gt;Node10</title>
<g id="a_edge30_Node000001_Node000010"><a xlink:title=" ">
<path fill="none" stroke="#63b8ff" d="M105.98,-264.92C122.99,-261.54 142.83,-258.16 161,-256.5 222.52,-250.87 238.5,-250.6 300,-256.5 317.19,-258.15 335.92,-261.47 352.04,-264.82"/>
<polygon fill="#63b8ff" stroke="#63b8ff" points="351.7,-268.33 362.22,-267.01 353.17,-261.48 351.7,-268.33"/>
</a>
</g>
</g>
<!-- Node11 -->
<g id="Node000011" class="node">
<title>Node11</title>
<g id="a_Node000011"><a xlink:href="m__model_8fpp_8f90.html#a262d20ca063a25d8396fd1540120e184" target="_top" xlink:title="This procedure determines the levelset of interpolated 2D models.">
<polygon fill="white" stroke="#666666" points="296,-208 165,-208 165,-189 296,-189 296,-208"/>
<text text-anchor="middle" x="230.5" y="-196" font-family="Helvetica,sans-Serif" font-size="10.00">f_interpolated_distance</text>
</a>
</g>
</g>
<!-- Node1&#45;&gt;Node11 -->
<g id="edge10_Node000001_Node000011" class="edge">
<title>Node1&#45;&gt;Node11</title>
<g id="a_edge10_Node000001_Node000011"><a xlink:title=" ">
<path fill="none" stroke="#63b8ff" d="M79.68,-264.88C98.72,-253.8 131.49,-235.45 161,-222.5 170.08,-218.52 180.05,-214.72 189.5,-211.36"/>
<polygon fill="#63b8ff" stroke="#63b8ff" points="190.8,-214.61 199.11,-208.04 188.51,-208 190.8,-214.61"/>
</a>
</g>
</g>
<!-- Node12 -->
<g id="Node000012" class="node">
<title>Node12</title>
<g id="a_Node000012"><a xlink:href="m__model_8fpp_8f90.html#ae80ea59f7fb4c692c7a39c18fe8020b3" target="_top" xlink:title="This procedure, recursively, finds whether a point is inside an octree.">
<polygon fill="white" stroke="#666666" points="282.5,-171 178.5,-171 178.5,-152 282.5,-152 282.5,-171"/>
<text text-anchor="middle" x="230.5" y="-159" font-family="Helvetica,sans-Serif" font-size="10.00">f_model_is_inside</text>
</a>
</g>
</g>
<!-- Node1&#45;&gt;Node12 -->
<g id="edge11_Node000001_Node000012" class="edge">
<title>Node1&#45;&gt;Node12</title>
<g id="a_edge11_Node000001_Node000012"><a xlink:title=" ">
<path fill="none" stroke="#63b8ff" d="M70.69,-264.9C85.45,-245.88 121.18,-203.24 161,-180.5 164.9,-178.27 169.08,-176.29 173.38,-174.54"/>
<polygon fill="#63b8ff" stroke="#63b8ff" points="174.73,-177.77 182.92,-171.04 172.32,-171.2 174.73,-177.77"/>
</a>
</g>
</g>
<!-- Node15 -->
<g id="Node000015" class="node">
<title>Node15</title>
<g id="a_Node000015"><a xlink:href="m__model_8fpp_8f90.html#a07dc4b0b27f01254d015126242950433" target="_top" xlink:title="This procedure reads a mesh from a file.">
<polygon fill="white" stroke="#666666" points="272,-95 189,-95 189,-76 272,-76 272,-95"/>
<text text-anchor="middle" x="230.5" y="-83" font-family="Helvetica,sans-Serif" font-size="10.00">f_model_read</text>
</a>
</g>
</g>
<!-- Node1&#45;&gt;Node15 -->
<g id="edge14_Node000001_Node000015" class="edge">
<title>Node1&#45;&gt;Node15</title>
<g id="a_edge14_Node000001_Node000015"><a xlink:title=" ">
<path fill="none" stroke="#63b8ff" d="M66.58,-264.72C75.98,-236.46 106.98,-153.82 161,-109.5 166.37,-105.1 172.6,-101.48 179.07,-98.51"/>
<polygon fill="#63b8ff" stroke="#63b8ff" points="180.71,-101.62 188.65,-94.61 178.07,-95.14 180.71,-101.62"/>
</a>
</g>
</g>
<!-- Node23 -->
<g id="Node000023" class="node">
<title>Node23</title>
<g id="a_Node000023"><a xlink:href="m__model_8fpp_8f90.html#afd60e21ba0bc32c567a4fc571c55c44b" target="_top" xlink:title="This procedure determines the levelset normals of 2D models without interpolation.">
<polygon fill="white" stroke="#666666" points="263,-58 198,-58 198,-39 263,-39 263,-58"/>
<text text-anchor="middle" x="230.5" y="-46" font-family="Helvetica,sans-Serif" font-size="10.00">f_normals</text>
</a>
</g>
</g>
<!-- Node1&#45;&gt;Node23 -->
<g id="edge28_Node000001_Node000023" class="edge">
<title>Node1&#45;&gt;Node23</title>
<g id="a_edge28_Node000001_Node000023"><a xlink:title=" ">
<path fill="none" stroke="#63b8ff" d="M65.05,-264.89C70.91,-231.81 94.82,-121.65 161,-66.5 168.64,-60.13 178.29,-55.99 187.92,-53.31"/>
<polygon fill="#63b8ff" stroke="#63b8ff" points="188.91,-56.67 197.87,-51 187.33,-49.85 188.91,-56.67"/>
</a>
</g>
</g>
<!-- Node24 -->
<g id="Node000024" class="node">
<title>Node24</title>
<g id="a_Node000024"><a xlink:href="m__model_8fpp_8f90.html#aa7053fd2f3b5e3bac65b11999bc3655a" target="_top" xlink:title="This procedure frees the memory allocated for an STL mesh.">
<polygon fill="white" stroke="#666666" points="272,-21 189,-21 189,-2 272,-2 272,-21"/>
<text text-anchor="middle" x="230.5" y="-9" font-family="Helvetica,sans-Serif" font-size="10.00">s_model_free</text>
</a>
</g>
</g>
<!-- Node1&#45;&gt;Node24 -->
<g id="edge31_Node000001_Node000024" class="edge">
<title>Node1&#45;&gt;Node24</title>
<g id="a_edge31_Node000001_Node000024"><a xlink:title=" ">
<path fill="none" stroke="#63b8ff" d="M64.32,-264.79C67.95,-228 85.93,-95.95 161,-29.5 166.2,-24.9 172.43,-21.45 178.99,-18.88"/>
<polygon fill="#63b8ff" stroke="#63b8ff" points="180.34,-22.12 188.76,-15.69 178.17,-15.46 180.34,-22.12"/>
</a>
</g>
</g>
<!-- Node25 -->
<g id="Node000025" class="node">
<title>Node25</title>
<g id="a_Node000025"><a xlink:href="m__model_8fpp_8f90.html#a414d0b55562304dc94c12fb279d25c49" target="_top" xlink:title="This procedure writes a binary STL file.">
<polygon fill="white" stroke="#666666" points="438,-133 350,-133 350,-114 438,-114 438,-133"/>
<text text-anchor="middle" x="394" y="-121" font-family="Helvetica,sans-Serif" font-size="10.00">s_model_write</text>
</a>
</g>
</g>
<!-- Node1&#45;&gt;Node25 -->
<g id="edge32_Node000001_Node000025" class="edge">
<title>Node1&#45;&gt;Node25</title>
<g id="a_edge32_Node000001_Node000025"><a xlink:title=" ">
<path fill="none" stroke="#63b8ff" d="M67.37,-264.71C77.94,-239.43 109.99,-171.93 161,-143.5 216.06,-112.81 290.1,-112.09 339.59,-116.21"/>
<polygon fill="#63b8ff" stroke="#63b8ff" points="339.48,-119.71 349.76,-117.15 340.12,-112.74 339.48,-119.71"/>
</a>
</g>
</g>
<!-- Node2&#45;&gt;Node3 -->
<g id="edge2_Node000002_Node000003" class="edge">
<title>Node2&#45;&gt;Node3</title>
<g id="a_edge2_Node000002_Node000003"><a xlink:title=" ">
<path fill="none" stroke="#63b8ff" d="M283.04,-529.44C300.48,-527.38 320.02,-525.09 337.74,-523"/>
<polygon fill="#63b8ff" stroke="#63b8ff" points="338.41,-526.45 347.93,-521.8 337.59,-519.49 338.41,-526.45"/>
</a>
</g>
</g>
<!-- Node9&#45;&gt;Node10 -->
<g id="edge9_Node000009_Node000010" class="edge">
<title>Node9&#45;&gt;Node10</title>
<g id="a_edge9_Node000009_Node000010"><a xlink:title=" ">
<path fill="none" stroke="#63b8ff" d="M278.65,-274.5C301.96,-274.5 329.81,-274.5 352.19,-274.5"/>
<polygon fill="#63b8ff" stroke="#63b8ff" points="352.38,-278 362.38,-274.5 352.38,-271 352.38,-278"/>
</a>
</g>
</g>
<!-- Node13 -->
<g id="Node000013" class="node">
<title>Node13</title>
<g id="a_Node000013"><a xlink:href="m__model_8fpp_8f90.html#ab7f5ccefd0b04acff35398399928a8ad" target="_top" xlink:title="This procedure checks if a ray intersects a triangle.">
<polygon fill="white" stroke="#666666" points="452,-246 336,-246 336,-227 452,-227 452,-246"/>
<text text-anchor="middle" x="394" y="-234" font-family="Helvetica,sans-Serif" font-size="10.00">f_intersects_triangle</text>
</a>
</g>
</g>
<!-- Node12&#45;&gt;Node13 -->
<g id="edge12_Node000012_Node000013" class="edge">
<title>Node12&#45;&gt;Node13</title>
<g id="a_edge12_Node000012_Node000013"><a xlink:title=" ">
<path fill="none" stroke="#63b8ff" d="M278.91,-171.1C286.24,-173.58 293.52,-176.66 300,-180.5 319.74,-192.19 316.57,-205.3 336,-217.5 339.19,-219.5 342.62,-221.32 346.15,-222.96"/>
<polygon fill="#63b8ff" stroke="#63b8ff" points="345.07,-226.3 355.65,-226.91 347.76,-219.84 345.07,-226.3"/>
</a>
</g>
</g>
<!-- Node14 -->
<g id="Node000014" class="node">
<title>Node14</title>
<g id="a_Node000014"><a xlink:href="m__helper_8fpp_8f90.html#ae6d01781ea9ab7cf732bb4e8506cd20d" target="_top" xlink:title="This procedure computes the cross product of two vectors.">
<polygon fill="white" stroke="#666666" points="564.5,-321 513.5,-321 513.5,-302 564.5,-302 564.5,-321"/>
<text text-anchor="middle" x="539" y="-309" font-family="Helvetica,sans-Serif" font-size="10.00">f_cross</text>
</a>
</g>
</g>
<!-- Node13&#45;&gt;Node14 -->
<g id="edge13_Node000013_Node000014" class="edge">
<title>Node13&#45;&gt;Node14</title>
<g id="a_edge13_Node000013_Node000014"><a xlink:title=" ">
<path fill="none" stroke="#63b8ff" d="M430.25,-246.01C437.73,-248.8 445.37,-252.27 452,-256.5 471.34,-268.85 468.71,-281.07 488,-293.5 492.8,-296.59 498.2,-299.24 503.63,-301.48"/>
<polygon fill="#63b8ff" stroke="#63b8ff" points="502.72,-304.88 513.31,-305.08 505.16,-298.31 502.72,-304.88"/>
</a>
</g>
</g>
<!-- Node16 -->
<g id="Node000016" class="node">
<title>Node16</title>
<g id="a_Node000016"><a xlink:href="m__mpi__common_8fpp_8f90.html#adbcc47e90968ff0f14ccc2ca3c47586a" target="_top" xlink:title="The subroutine terminates the MPI execution environment.">
<polygon fill="white" stroke="#666666" points="723.5,-152 646.5,-152 646.5,-133 723.5,-133 723.5,-152"/>
<text text-anchor="middle" x="685" y="-140" font-family="Helvetica,sans-Serif" font-size="10.00">s_mpi_abort</text>
</a>
</g>
</g>
<!-- Node15&#45;&gt;Node16 -->
<g id="edge15_Node000015_Node000016" class="edge">
<title>Node15&#45;&gt;Node16</title>
<g id="a_edge15_Node000015_Node000016"><a xlink:title=" ">
<path fill="none" stroke="#63b8ff" d="M272.28,-79.16C353.63,-67.2 533.15,-44.39 590,-66.5 610.23,-74.37 609.26,-85.68 626,-99.5 637.6,-109.07 651.06,-119.11 662.09,-127.08"/>
<polygon fill="#63b8ff" stroke="#63b8ff" points="660.17,-130.01 670.34,-132.98 664.24,-124.32 660.17,-130.01"/>
</a>
</g>
</g>
<!-- Node17 -->
<g id="Node000017" class="node">
<title>Node17</title>
<g id="a_Node000017"><a xlink:href="m__model_8fpp_8f90.html#a4f37137f454c5d9dcba98bc366556f3d" target="_top" xlink:title="This procedure reads an OBJ file.">
<polygon fill="white" stroke="#666666" points="573.5,-19 504.5,-19 504.5,0 573.5,0 573.5,-19"/>
<text text-anchor="middle" x="539" y="-7" font-family="Helvetica,sans-Serif" font-size="10.00">s_read_obj</text>
</a>
</g>
</g>
<!-- Node15&#45;&gt;Node17 -->
<g id="edge16_Node000015_Node000017" class="edge">
<title>Node15&#45;&gt;Node17</title>
<g id="a_edge16_Node000015_Node000017"><a xlink:title=" ">
<path fill="none" stroke="#63b8ff" d="M272.23,-77.59C281.69,-74.85 291.47,-71.23 300,-66.5 318.98,-55.98 316.27,-42.55 336,-33.5 386.75,-10.22 451.86,-6.54 494.24,-7.13"/>
<polygon fill="#63b8ff" stroke="#63b8ff" points="494.42,-10.64 504.5,-7.36 494.58,-3.64 494.42,-10.64"/>
</a>
</g>
</g>
<!-- Node19 -->
<g id="Node000019" class="node">
<title>Node19</title>
<g id="a_Node000019"><a xlink:href="m__model_8fpp_8f90.html#a404e208ab5c1811a56c1d04621421099" target="_top" xlink:title="This procedure reads an STL file.">
<polygon fill="white" stroke="#666666" points="427,-208 361,-208 361,-189 427,-189 427,-208"/>
<text text-anchor="middle" x="394" y="-196" font-family="Helvetica,sans-Serif" font-size="10.00">s_read_stl</text>
</a>
</g>
</g>
<!-- Node15&#45;&gt;Node19 -->
<g id="edge19_Node000015_Node000019" class="edge">
<title>Node15&#45;&gt;Node19</title>
<g id="a_edge19_Node000015_Node000019"><a xlink:title=" ">
<path fill="none" stroke="#63b8ff" d="M245.27,-95.13C273.28,-114.73 337.09,-159.38 370.95,-183.07"/>
<polygon fill="#63b8ff" stroke="#63b8ff" points="369.07,-186.02 379.27,-188.89 373.08,-180.29 369.07,-186.02"/>
</a>
</g>
</g>
<!-- Node17&#45;&gt;Node16 -->
<g id="edge18_Node000017_Node000016" class="edge">
<title>Node17&#45;&gt;Node16</title>
<g id="a_edge18_Node000017_Node000016"><a xlink:title=" ">
<path fill="none" stroke="#63b8ff" d="M565.77,-19.08C574,-22.84 582.83,-27.67 590,-33.5 610.42,-50.09 608.99,-60.42 626,-80.5 639.29,-96.18 655.31,-113.18 667.14,-125.4"/>
<polygon fill="#63b8ff" stroke="#63b8ff" points="664.76,-127.97 674.24,-132.68 669.77,-123.08 664.76,-127.97"/>
</a>
</g>
</g>
<!-- Node18 -->
<g id="Node000018" class="node">
<title>Node18</title>
<g id="a_Node000018"><a xlink:href="m__model_8fpp_8f90.html#a14eb5f04f09371da9e08d7bd2f8bf8e9" target="_top" xlink:title=" ">
<polygon fill="white" stroke="#666666" points="851,-246 780,-246 780,-227 851,-227 851,-246"/>
<text text-anchor="middle" x="815.5" y="-234" font-family="Helvetica,sans-Serif" font-size="10.00">f_read_line</text>
</a>
</g>
</g>
<!-- Node17&#45;&gt;Node18 -->
<g id="edge17_Node000017_Node000018" class="edge">
<title>Node17&#45;&gt;Node18</title>
<g id="a_edge17_Node000017_Node000018"><a xlink:title=" ">
<path fill="none" stroke="#63b8ff" d="M565.93,-19.03C607.55,-35.36 690.07,-72.07 744,-124.5 772.54,-152.25 794.74,-193.74 806.11,-217.66"/>
<polygon fill="#63b8ff" stroke="#63b8ff" points="802.94,-219.13 810.31,-226.74 809.29,-216.2 802.94,-219.13"/>
</a>
</g>
</g>
<!-- Node19&#45;&gt;Node16 -->
<g id="edge20_Node000019_Node000016" class="edge">
<title>Node19&#45;&gt;Node16</title>
<g id="a_edge20_Node000019_Node000016"><a xlink:title=" ">
<path fill="none" stroke="#63b8ff" d="M421.72,-208.08C460.09,-220.31 532.53,-237.62 590,-217.5 622.64,-206.08 652.39,-178.04 669.33,-159.67"/>
<polygon fill="#63b8ff" stroke="#63b8ff" points="672.13,-161.79 676.18,-152 666.91,-157.13 672.13,-161.79"/>
</a>
</g>
</g>
<!-- Node20 -->
<g id="Node000020" class="node">
<title>Node20</title>
<g id="a_Node000020"><a xlink:href="m__model_8fpp_8f90.html#a8d5074f74a532f5e1652cc504f92e050" target="_top" xlink:title="This procedure reads an ASCII STL file.">
<polygon fill="white" stroke="#666666" points="586,-284 492,-284 492,-265 586,-265 586,-284"/>
<text text-anchor="middle" x="539" y="-272" font-family="Helvetica,sans-Serif" font-size="10.00">s_read_stl_ascii</text>
</a>
</g>
</g>
<!-- Node19&#45;&gt;Node20 -->
<g id="edge21_Node000019_Node000020" class="edge">
<title>Node19&#45;&gt;Node20</title>
<g id="a_edge21_Node000019_Node000020"><a xlink:title=" ">
<path fill="none" stroke="#63b8ff" d="M427.04,-207.3C435.45,-210.25 444.32,-213.98 452,-218.5 470.45,-229.36 470.18,-238.64 488,-250.5 493.42,-254.11 499.46,-257.48 505.42,-260.49"/>
<polygon fill="#63b8ff" stroke="#63b8ff" points="504.09,-263.74 514.62,-264.92 507.12,-257.43 504.09,-263.74"/>
</a>
</g>
</g>
<!-- Node22 -->
<g id="Node000022" class="node">
<title>Node22</title>
<g id="a_Node000022"><a xlink:href="m__model_8fpp_8f90.html#ad008b1ab3277ba031915914a48195f0a" target="_top" xlink:title="This procedure reads a binary STL file.">
<polygon fill="white" stroke="#666666" points="590,-208 488,-208 488,-189 590,-189 590,-208"/>
<text text-anchor="middle" x="539" y="-196" font-family="Helvetica,sans-Serif" font-size="10.00">s_read_stl_binary</text>
</a>
</g>
</g>
<!-- Node19&#45;&gt;Node22 -->
<g id="edge26_Node000019_Node000022" class="edge">
<title>Node19&#45;&gt;Node22</title>
<g id="a_edge26_Node000019_Node000022"><a xlink:title=" ">
<path fill="none" stroke="#63b8ff" d="M427.09,-198.5C442.03,-198.5 460.3,-198.5 477.68,-198.5"/>
<polygon fill="#63b8ff" stroke="#63b8ff" points="477.77,-202 487.77,-198.5 477.77,-195 477.77,-202"/>
</a>
</g>
</g>
<!-- Node20&#45;&gt;Node16 -->
<g id="edge23_Node000020_Node000016" class="edge">
<title>Node20&#45;&gt;Node16</title>
<g id="a_edge23_Node000020_Node000016"><a xlink:title=" ">
<path fill="none" stroke="#63b8ff" d="M565.05,-264.89C573.41,-261.08 582.49,-256.22 590,-250.5 624.56,-224.17 655.75,-183.44 672.06,-160.26"/>
<polygon fill="#63b8ff" stroke="#63b8ff" points="674.94,-162.24 677.74,-152.03 669.18,-158.27 674.94,-162.24"/>
</a>
</g>
</g>
<!-- Node20&#45;&gt;Node18 -->
<g id="edge22_Node000020_Node000018" class="edge">
<title>Node20&#45;&gt;Node18</title>
<g id="a_edge22_Node000020_Node000018"><a xlink:title=" ">
<path fill="none" stroke="#63b8ff" d="M581.4,-264.96C595.5,-261.94 611.38,-258.8 626,-256.5 674.88,-248.81 731.37,-243.25 769.67,-239.98"/>
<polygon fill="#63b8ff" stroke="#63b8ff" points="770.29,-243.44 779.97,-239.11 769.71,-236.46 770.29,-243.44"/>
</a>
</g>
</g>
<!-- Node21 -->
<g id="Node000021" class="node">
<title>Node21</title>
<g id="a_Node000021"><a xlink:href="m__model_8fpp_8f90.html#a35f807109a6ec6d813c5364de042e794" target="_top" xlink:title=" ">
<polygon fill="white" stroke="#666666" points="744,-284 626,-284 626,-265 744,-265 744,-284"/>
<text text-anchor="middle" x="685" y="-272" font-family="Helvetica,sans-Serif" font-size="10.00">s_skip_ignored_lines</text>
</a>
</g>
</g>
<!-- Node20&#45;&gt;Node21 -->
<g id="edge24_Node000020_Node000021" class="edge">
<title>Node20&#45;&gt;Node21</title>
<g id="a_edge24_Node000020_Node000021"><a xlink:title=" ">
<path fill="none" stroke="#63b8ff" d="M586.36,-274.5C595.69,-274.5 605.69,-274.5 615.6,-274.5"/>
<polygon fill="#63b8ff" stroke="#63b8ff" points="615.86,-278 625.86,-274.5 615.86,-271 615.86,-278"/>
</a>
</g>
</g>
<!-- Node21&#45;&gt;Node18 -->
<g id="edge25_Node000021_Node000018" class="edge">
<title>Node21&#45;&gt;Node18</title>
<g id="a_edge25_Node000021_Node000018"><a xlink:title=" ">
<path fill="none" stroke="#63b8ff" d="M718.43,-264.91C734.71,-260.1 754.64,-254.2 772.12,-249.03"/>
<polygon fill="#63b8ff" stroke="#63b8ff" points="773.49,-252.28 782.08,-246.09 771.5,-245.57 773.49,-252.28"/>
</a>
</g>
</g>
<!-- Node22&#45;&gt;Node16 -->
<g id="edge27_Node000022_Node000016" class="edge">
<title>Node22&#45;&gt;Node16</title>
<g id="a_edge27_Node000022_Node000016"><a xlink:title=" ">
<path fill="none" stroke="#63b8ff" d="M567.06,-188.97C574.51,-186.29 582.59,-183.33 590,-180.5 610.53,-172.66 633.4,-163.42 651.44,-156.02"/>
<polygon fill="#63b8ff" stroke="#63b8ff" points="653.01,-159.16 660.92,-152.12 650.34,-152.69 653.01,-159.16"/>
</a>
</g>
</g>
<!-- Node25&#45;&gt;Node16 -->
<g id="edge33_Node000025_Node000016" class="edge">
<title>Node25&#45;&gt;Node16</title>
<g id="a_edge33_Node000025_Node000016"><a xlink:title=" ">
<path fill="none" stroke="#63b8ff" d="M438.27,-126.34C491.37,-129.84 581.14,-135.74 636.23,-139.36"/>
<polygon fill="#63b8ff" stroke="#63b8ff" points="636.22,-142.87 646.43,-140.03 636.68,-135.88 636.22,-142.87"/>
</a>
</g>
</g>
<!-- Node26 -->
<g id="Node000026" class="node">
<title>Node26</title>
<g id="a_Node000026"><a xlink:href="m__model_8fpp_8f90.html#a9b174d7c54539faab4411c11189a88c9" target="_top" xlink:title="This procedure writes an OBJ file.">
<polygon fill="white" stroke="#666666" points="575,-95 503,-95 503,-76 575,-76 575,-95"/>
<text text-anchor="middle" x="539" y="-83" font-family="Helvetica,sans-Serif" font-size="10.00">s_write_obj</text>
</a>
</g>
</g>
<!-- Node25&#45;&gt;Node26 -->
<g id="edge34_Node000025_Node000026" class="edge">
<title>Node25&#45;&gt;Node26</title>
<g id="a_edge34_Node000025_Node000026"><a xlink:title=" ">
<path fill="none" stroke="#63b8ff" d="M431.08,-113.91C449.91,-108.91 473.12,-102.74 493.1,-97.43"/>
<polygon fill="#63b8ff" stroke="#63b8ff" points="494.15,-100.77 502.92,-94.82 492.35,-94.01 494.15,-100.77"/>
</a>
</g>
</g>
<!-- Node27 -->
<g id="Node000027" class="node">
<title>Node27</title>
<g id="a_Node000027"><a xlink:href="m__model_8fpp_8f90.html#ad24a37038553994999cc8455abe09cbd" target="_top" xlink:title="This procedure writes a binary STL file.">
<polygon fill="white" stroke="#666666" points="573.5,-171 504.5,-171 504.5,-152 573.5,-152 573.5,-171"/>
<text text-anchor="middle" x="539" y="-159" font-family="Helvetica,sans-Serif" font-size="10.00">s_write_stl</text>
</a>
</g>
</g>
<!-- Node25&#45;&gt;Node27 -->
<g id="edge36_Node000025_Node000027" class="edge">
<title>Node25&#45;&gt;Node27</title>
<g id="a_edge36_Node000025_Node000027"><a xlink:title=" ">
<path fill="none" stroke="#63b8ff" d="M431.08,-133.09C450.34,-138.21 474.17,-144.54 494.45,-149.93"/>
<polygon fill="#63b8ff" stroke="#63b8ff" points="493.82,-153.38 504.38,-152.57 495.62,-146.62 493.82,-153.38"/>
</a>
</g>
</g>
<!-- Node26&#45;&gt;Node16 -->
<g id="edge35_Node000026_Node000016" class="edge">
<title>Node26&#45;&gt;Node16</title>
<g id="a_edge35_Node000026_Node000016"><a xlink:title=" ">
<path fill="none" stroke="#63b8ff" d="M564.1,-95.04C587.67,-104.37 623.78,-118.66 650.21,-129.12"/>
<polygon fill="#63b8ff" stroke="#63b8ff" points="649.23,-132.5 659.82,-132.93 651.81,-125.99 649.23,-132.5"/>
</a>
</g>
</g>
<!-- Node27&#45;&gt;Node16 -->
<g id="edge37_Node000027_Node000016" class="edge">
<title>Node27&#45;&gt;Node16</title>
<g id="a_edge37_Node000027_Node000016"><a xlink:title=" ">
<path fill="none" stroke="#63b8ff" d="M573.76,-157.05C592.39,-154.59 615.84,-151.49 636.31,-148.79"/>
<polygon fill="#63b8ff" stroke="#63b8ff" points="636.94,-152.24 646.4,-147.46 636.02,-145.3 636.94,-152.24"/>
</a>
</g>
</g>
</g>
</svg>
