<?xml version="1.0" encoding="UTF-8" standalone="no"?>
<!DOCTYPE svg PUBLIC "-//W3C//DTD SVG 1.1//EN"
 "http://www.w3.org/Graphics/SVG/1.1/DTD/svg11.dtd">
<!-- Generated by graphviz version 2.43.0 (0)
 -->
<!-- Title: s_mpi_barrier Pages: 1 -->
<svg width="888pt" height="263pt"
 viewBox="0.00 0.00 888.00 262.60" xmlns="http://www.w3.org/2000/svg" xmlns:xlink="http://www.w3.org/1999/xlink">
<g id="graph0" class="graph" transform="scale(1 1) rotate(0) translate(4 258.6)">
<title>s_mpi_barrier</title>
<!-- Node1 -->
<g id="Node000001" class="node">
<title>Node1</title>
<g id="a_Node000001"><a xlink:title="Halts all processes until all have reached barrier.">
<polygon fill="#999999" stroke="#666666" points="880,-142.6 797,-142.6 797,-123.6 880,-123.6 880,-142.6"/>
<text text-anchor="middle" x="838.5" y="-130.6" font-family="Helvetica,sans-Serif" font-size="10.00">s_mpi_barrier</text>
</a>
</g>
</g>
<!-- Node2 -->
<g id="Node000002" class="node">
<title>Node2</title>
<g id="a_Node000002"><a xlink:href="namespacem__data__output.html#a795efa6dc563a04a903c13a960089a58" target="_top" xlink:title="Computation of parameters, allocation procedures, and/or any other tasks needed to properly setup the...">
<polygon fill="white" stroke="#666666" points="404,-164.1 255,-164.1 255,-134.1 404,-134.1 404,-164.1"/>
<text text-anchor="start" x="263" y="-152.1" font-family="Helvetica,sans-Serif" font-size="10.00">m_data_output::s_initialize</text>
<text text-anchor="middle" x="329.5" y="-141.1" font-family="Helvetica,sans-Serif" font-size="10.00">_data_output_module</text>
</a>
</g>
</g>
<!-- Node1&#45;&gt;Node2 -->
<g id="edge1_Node000001_Node000002" class="edge">
<title>Node1&#45;&gt;Node2</title>
<g id="a_edge1_Node000001_Node000002"><a xlink:title=" ">
<path fill="none" stroke="#63b8ff" d="M820.68,-150.03C806.25,-163.27 784.17,-180.64 761,-188.1 625.1,-231.88 453.43,-189.05 374.21,-164.16"/>
<polygon fill="#63b8ff" stroke="#63b8ff" points="823.42,-152.26 828.24,-142.82 818.59,-147.19 823.42,-152.26"/>
</a>
</g>
</g>
<!-- Node5 -->
<g id="Node000005" class="node">
<title>Node5</title>
<g id="a_Node000005"><a xlink:href="namespacem__start__up.html#a7ff1609d736d72da1116824757e233c8" target="_top" xlink:title=" ">
<polygon fill="white" stroke="#666666" points="574,-254.6 440,-254.6 440,-235.6 574,-235.6 574,-254.6"/>
<text text-anchor="middle" x="507" y="-242.6" font-family="Helvetica,sans-Serif" font-size="10.00">m_start_up::s_read_grid</text>
</a>
</g>
</g>
<!-- Node1&#45;&gt;Node5 -->
<g id="edge4_Node000001_Node000005" class="edge">
<title>Node1&#45;&gt;Node5</title>
<g id="a_edge4_Node000001_Node000005"><a xlink:title=" ">
<path fill="none" stroke="#63b8ff" d="M827.39,-151.51C814.83,-172.38 791.31,-205.52 761,-221.1 702.93,-250.96 627.44,-254.32 574.09,-251.83"/>
<polygon fill="#63b8ff" stroke="#63b8ff" points="830.55,-153.05 832.52,-142.64 824.49,-149.55 830.55,-153.05"/>
</a>
</g>
</g>
<!-- Node6 -->
<g id="Node000006" class="node">
<title>Node6</title>
<g id="a_Node000006"><a xlink:href="namespacem__start__up.html#a8e076f52f58b792374a25573940168b0" target="_top" xlink:title="The goal of this subroutine is to read in any preexisting initial condition data files so that they m...">
<polygon fill="white" stroke="#666666" points="748,-81.1 623,-81.1 623,-51.1 748,-51.1 748,-81.1"/>
<text text-anchor="start" x="631" y="-69.1" font-family="Helvetica,sans-Serif" font-size="10.00">m_start_up::s_read</text>
<text text-anchor="middle" x="685.5" y="-58.1" font-family="Helvetica,sans-Serif" font-size="10.00">_parallel_ic_data_files</text>
</a>
</g>
</g>
<!-- Node1&#45;&gt;Node6 -->
<g id="edge6_Node000001_Node000006" class="edge">
<title>Node1&#45;&gt;Node6</title>
<g id="a_edge6_Node000001_Node000006"><a xlink:title=" ">
<path fill="none" stroke="#63b8ff" d="M810.54,-118.97C796.01,-111.54 777.69,-102.48 761,-95.1 750.21,-90.33 738.37,-85.54 727.37,-81.25"/>
<polygon fill="#63b8ff" stroke="#63b8ff" points="808.99,-122.11 819.48,-123.58 812.19,-115.89 808.99,-122.11"/>
</a>
</g>
</g>
<!-- Node7 -->
<g id="Node000007" class="node">
<title>Node7</title>
<g id="a_Node000007"><a xlink:href="namespacem__start__up.html#a2a5bdd175d6ddb8c024887e4e18bbdd8" target="_top" xlink:title=" ">
<polygon fill="white" stroke="#666666" points="398.5,-35.6 260.5,-35.6 260.5,-16.6 398.5,-16.6 398.5,-35.6"/>
<text text-anchor="middle" x="329.5" y="-23.6" font-family="Helvetica,sans-Serif" font-size="10.00">m_start_up::s_save_data</text>
</a>
</g>
</g>
<!-- Node1&#45;&gt;Node7 -->
<g id="edge8_Node000001_Node000007" class="edge">
<title>Node1&#45;&gt;Node7</title>
<g id="a_edge8_Node000001_Node000007"><a xlink:title=" ">
<path fill="none" stroke="#63b8ff" d="M828.07,-114.4C815.91,-92.57 792.52,-57.5 761,-42.1 632.65,20.6 456.18,-1.35 374.84,-16.55"/>
<polygon fill="#63b8ff" stroke="#63b8ff" points="825.06,-116.2 832.85,-123.38 831.24,-112.91 825.06,-116.2"/>
</a>
</g>
</g>
<!-- Node8 -->
<g id="Node000008" class="node">
<title>Node8</title>
<g id="a_Node000008"><a xlink:href="namespacem__boundary__conditions.html#a51c29e698ebfe5f6df0b7fc9b47bc3ca" target="_top" xlink:title=" ">
<polygon fill="white" stroke="#666666" points="761,-178.6 610,-178.6 610,-137.6 761,-137.6 761,-178.6"/>
<text text-anchor="start" x="618" y="-166.6" font-family="Helvetica,sans-Serif" font-size="10.00">m_boundary_conditions</text>
<text text-anchor="start" x="618" y="-155.6" font-family="Helvetica,sans-Serif" font-size="10.00">::s_write_parallel_boundary</text>
<text text-anchor="middle" x="685.5" y="-144.6" font-family="Helvetica,sans-Serif" font-size="10.00">_condition_files</text>
</a>
</g>
</g>
<!-- Node1&#45;&gt;Node8 -->
<g id="edge10_Node000001_Node000008" class="edge">
<title>Node1&#45;&gt;Node8</title>
<g id="a_edge10_Node000001_Node000008"><a xlink:title=" ">
<path fill="none" stroke="#63b8ff" d="M786.54,-141.54C778.36,-142.9 769.74,-144.32 761.14,-145.75"/>
<polygon fill="#63b8ff" stroke="#63b8ff" points="787.34,-144.96 796.64,-139.87 786.2,-138.05 787.34,-144.96"/>
</a>
</g>
</g>
<!-- Node9 -->
<g id="Node000009" class="node">
<title>Node9</title>
<g id="a_Node000009"><a xlink:href="namespacem__data__output.html#a196669b970e1cc01a8daacef837aaa56" target="_top" xlink:title="Writes grid and initial condition data files in parallel to the &quot;0&quot; time&#45;step directory in the local ...">
<polygon fill="white" stroke="#666666" points="572.5,-144.1 441.5,-144.1 441.5,-114.1 572.5,-114.1 572.5,-144.1"/>
<text text-anchor="start" x="449.5" y="-132.1" font-family="Helvetica,sans-Serif" font-size="10.00">m_data_output::s_write</text>
<text text-anchor="middle" x="507" y="-121.1" font-family="Helvetica,sans-Serif" font-size="10.00">_parallel_data_files</text>
</a>
</g>
</g>
<!-- Node1&#45;&gt;Node9 -->
<g id="edge14_Node000001_Node000009" class="edge">
<title>Node1&#45;&gt;Node9</title>
<g id="a_edge14_Node000001_Node000009"><a xlink:title=" ">
<path fill="none" stroke="#63b8ff" d="M786.43,-130.06C777.94,-129.66 769.22,-129.32 761,-129.1 697,-127.43 623.87,-127.66 572.75,-128.17"/>
<polygon fill="#63b8ff" stroke="#63b8ff" points="786.46,-133.57 796.62,-130.57 786.81,-126.58 786.46,-133.57"/>
</a>
</g>
</g>
<!-- Node3 -->
<g id="Node000003" class="node">
<title>Node3</title>
<g id="a_Node000003"><a xlink:href="namespacem__start__up.html#a1fb7a3f9d412acd2a9cbcfe8b45006dd" target="_top" xlink:title=" ">
<polygon fill="white" stroke="#666666" points="219,-121.1 89,-121.1 89,-91.1 219,-91.1 219,-121.1"/>
<text text-anchor="start" x="97" y="-109.1" font-family="Helvetica,sans-Serif" font-size="10.00">m_start_up::s_initialize</text>
<text text-anchor="middle" x="154" y="-98.1" font-family="Helvetica,sans-Serif" font-size="10.00">_modules</text>
</a>
</g>
</g>
<!-- Node2&#45;&gt;Node3 -->
<g id="edge2_Node000002_Node000003" class="edge">
<title>Node2&#45;&gt;Node3</title>
<g id="a_edge2_Node000002_Node000003"><a xlink:title=" ">
<path fill="none" stroke="#63b8ff" d="M257.77,-131.57C243.8,-128.11 229.25,-124.51 215.65,-121.13"/>
<polygon fill="#63b8ff" stroke="#63b8ff" points="257.27,-135.06 267.82,-134.06 258.95,-128.26 257.27,-135.06"/>
</a>
</g>
</g>
<!-- Node4 -->
<g id="Node000004" class="node">
<title>Node4</title>
<g id="a_Node000004"><a xlink:href="p__main_8f90.html#aeec10ee8e2940c953967da3e374e1579" target="_top" xlink:title="This program takes care of setting up the initial condition and grid data for the multicomponent flow...">
<polygon fill="white" stroke="#666666" points="53,-115.6 0,-115.6 0,-96.6 53,-96.6 53,-115.6"/>
<text text-anchor="middle" x="26.5" y="-103.6" font-family="Helvetica,sans-Serif" font-size="10.00">p_main</text>
</a>
</g>
</g>
<!-- Node3&#45;&gt;Node4 -->
<g id="edge3_Node000003_Node000004" class="edge">
<title>Node3&#45;&gt;Node4</title>
<g id="a_edge3_Node000003_Node000004"><a xlink:title=" ">
<path fill="none" stroke="#63b8ff" d="M78.74,-106.1C69.58,-106.1 60.76,-106.1 53.09,-106.1"/>
<polygon fill="#63b8ff" stroke="#63b8ff" points="78.78,-109.6 88.78,-106.1 78.78,-102.6 78.78,-109.6"/>
</a>
</g>
</g>
<!-- Node5&#45;&gt;Node4 -->
<g id="edge5_Node000005_Node000004" class="edge">
<title>Node5&#45;&gt;Node4</title>
<g id="a_edge5_Node000005_Node000004"><a xlink:title=" ">
<path fill="none" stroke="#63b8ff" d="M456.09,-233.11C377.35,-213.79 219.79,-173.53 89,-130.1 76.06,-125.81 61.86,-120.32 50.37,-115.67"/>
<polygon fill="#63b8ff" stroke="#63b8ff" points="455.67,-236.61 466.21,-235.58 457.33,-229.81 455.67,-236.61"/>
</a>
</g>
</g>
<!-- Node6&#45;&gt;Node3 -->
<g id="edge7_Node000006_Node000003" class="edge">
<title>Node6&#45;&gt;Node3</title>
<g id="a_edge7_Node000006_Node000003"><a xlink:title=" ">
<path fill="none" stroke="#63b8ff" d="M612.92,-71.51C509.23,-79.34 318.81,-93.73 219.34,-101.24"/>
<polygon fill="#63b8ff" stroke="#63b8ff" points="613.28,-74.99 622.98,-70.75 612.75,-68.01 613.28,-74.99"/>
</a>
</g>
</g>
<!-- Node7&#45;&gt;Node4 -->
<g id="edge9_Node000007_Node000004" class="edge">
<title>Node7&#45;&gt;Node4</title>
<g id="a_edge9_Node000007_Node000004"><a xlink:title=" ">
<path fill="none" stroke="#63b8ff" d="M268.33,-37.69C219.51,-47.69 149.16,-63.44 89,-82.1 75.75,-86.21 61.29,-91.8 49.72,-96.55"/>
<polygon fill="#63b8ff" stroke="#63b8ff" points="269.3,-41.07 278.41,-35.65 267.91,-34.21 269.3,-41.07"/>
</a>
</g>
</g>
<!-- Node8&#45;&gt;Node9 -->
<g id="edge11_Node000008_Node000009" class="edge">
<title>Node8&#45;&gt;Node9</title>
<g id="a_edge11_Node000008_Node000009"><a xlink:title=" ">
<path fill="none" stroke="#63b8ff" d="M599.95,-144.21C590.74,-142.7 581.47,-141.18 572.55,-139.71"/>
<polygon fill="#63b8ff" stroke="#63b8ff" points="599.47,-147.68 609.9,-145.85 600.6,-140.77 599.47,-147.68"/>
</a>
</g>
</g>
<!-- Node9&#45;&gt;Node2 -->
<g id="edge12_Node000009_Node000002" class="edge">
<title>Node9&#45;&gt;Node2</title>
<g id="a_edge12_Node000009_Node000002"><a xlink:title=" ">
<path fill="none" stroke="#63b8ff" d="M431.18,-137.63C422.26,-138.65 413.16,-139.68 404.26,-140.7"/>
<polygon fill="#63b8ff" stroke="#63b8ff" points="431.61,-141.1 441.15,-136.49 430.82,-134.15 431.61,-141.1"/>
</a>
</g>
</g>
<!-- Node9&#45;&gt;Node3 -->
<g id="edge13_Node000009_Node000003" class="edge">
<title>Node9&#45;&gt;Node3</title>
<g id="a_edge13_Node000009_Node000003"><a xlink:title=" ">
<path fill="none" stroke="#63b8ff" d="M430.94,-124.18C367.92,-120.06 278.84,-114.22 219.11,-110.3"/>
<polygon fill="#63b8ff" stroke="#63b8ff" points="431,-127.7 441.21,-124.86 431.46,-120.71 431,-127.7"/>
</a>
</g>
</g>
</g>
</svg>
