<?xml version="1.0" encoding="UTF-8" standalone="no"?>
<!DOCTYPE svg PUBLIC "-//W3C//DTD SVG 1.1//EN"
 "http://www.w3.org/Graphics/SVG/1.1/DTD/svg11.dtd">
<!-- Generated by graphviz version 2.43.0 (0)
 -->
<!-- Title: f_read_line Pages: 1 -->
<svg width="1330pt" height="103pt"
 viewBox="0.00 0.00 1330.00 103.00" xmlns="http://www.w3.org/2000/svg" xmlns:xlink="http://www.w3.org/1999/xlink">
<g id="graph0" class="graph" transform="scale(1 1) rotate(0) translate(4 99)">
<title>f_read_line</title>
<!-- Node1 -->
<g id="Node000001" class="node">
<title>Node1</title>
<g id="a_Node000001"><a xlink:title=" ">
<polygon fill="#999999" stroke="#666666" points="1322,-57 1251,-57 1251,-38 1322,-38 1322,-57"/>
<text text-anchor="middle" x="1286.5" y="-45" font-family="Helvetica,sans-Serif" font-size="10.00">f_read_line</text>
</a>
</g>
</g>
<!-- Node2 -->
<g id="Node000002" class="node">
<title>Node2</title>
<g id="a_Node000002"><a xlink:href="m__model_8fpp_8f90.html#a4f37137f454c5d9dcba98bc366556f3d" target="_top" xlink:title="This procedure reads an OBJ file.">
<polygon fill="white" stroke="#666666" points="1048.5,-95 979.5,-95 979.5,-76 1048.5,-76 1048.5,-95"/>
<text text-anchor="middle" x="1014" y="-83" font-family="Helvetica,sans-Serif" font-size="10.00">s_read_obj</text>
</a>
</g>
</g>
<!-- Node1&#45;&gt;Node2 -->
<g id="edge1_Node000001_Node000002" class="edge">
<title>Node1&#45;&gt;Node2</title>
<g id="a_edge1_Node000001_Node000002"><a xlink:title=" ">
<path fill="none" stroke="#63b8ff" d="M1240.94,-56.88C1232.36,-58.54 1223.41,-60.16 1215,-61.5 1156.8,-70.76 1088.57,-78.22 1048.73,-82.25"/>
<polygon fill="#63b8ff" stroke="#63b8ff" points="1241.68,-60.31 1250.81,-54.94 1240.32,-53.44 1241.68,-60.31"/>
</a>
</g>
</g>
<!-- Node11 -->
<g id="Node000011" class="node">
<title>Node11</title>
<g id="a_Node000011"><a xlink:href="m__model_8fpp_8f90.html#a8d5074f74a532f5e1652cc504f92e050" target="_top" xlink:title="This procedure reads an ASCII STL file.">
<polygon fill="white" stroke="#666666" points="1061,-57 967,-57 967,-38 1061,-38 1061,-57"/>
<text text-anchor="middle" x="1014" y="-45" font-family="Helvetica,sans-Serif" font-size="10.00">s_read_stl_ascii</text>
</a>
</g>
</g>
<!-- Node1&#45;&gt;Node11 -->
<g id="edge10_Node000001_Node000011" class="edge">
<title>Node1&#45;&gt;Node11</title>
<g id="a_edge10_Node000001_Node000011"><a xlink:title=" ">
<path fill="none" stroke="#63b8ff" d="M1240.85,-47.5C1191.17,-47.5 1111.32,-47.5 1061.08,-47.5"/>
<polygon fill="#63b8ff" stroke="#63b8ff" points="1240.97,-51 1250.97,-47.5 1240.97,-44 1240.97,-51"/>
</a>
</g>
</g>
<!-- Node13 -->
<g id="Node000013" class="node">
<title>Node13</title>
<g id="a_Node000013"><a xlink:href="m__model_8fpp_8f90.html#a35f807109a6ec6d813c5364de042e794" target="_top" xlink:title=" ">
<polygon fill="white" stroke="#666666" points="1215,-19 1097,-19 1097,0 1215,0 1215,-19"/>
<text text-anchor="middle" x="1156" y="-7" font-family="Helvetica,sans-Serif" font-size="10.00">s_skip_ignored_lines</text>
</a>
</g>
</g>
<!-- Node1&#45;&gt;Node13 -->
<g id="edge13_Node000001_Node000013" class="edge">
<title>Node1&#45;&gt;Node13</title>
<g id="a_edge13_Node000001_Node000013"><a xlink:title=" ">
<path fill="none" stroke="#63b8ff" d="M1243.11,-34.96C1225.63,-29.8 1205.7,-23.9 1189.42,-19.09"/>
<polygon fill="#63b8ff" stroke="#63b8ff" points="1242.49,-38.43 1253.07,-37.91 1244.48,-31.72 1242.49,-38.43"/>
</a>
</g>
</g>
<!-- Node3 -->
<g id="Node000003" class="node">
<title>Node3</title>
<g id="a_Node000003"><a xlink:href="m__model_8fpp_8f90.html#a07dc4b0b27f01254d015126242950433" target="_top" xlink:title="This procedure reads a mesh from a file.">
<polygon fill="white" stroke="#666666" points="829,-76 746,-76 746,-57 829,-57 829,-76"/>
<text text-anchor="middle" x="787.5" y="-64" font-family="Helvetica,sans-Serif" font-size="10.00">f_model_read</text>
</a>
</g>
</g>
<!-- Node2&#45;&gt;Node3 -->
<g id="edge2_Node000002_Node000003" class="edge">
<title>Node2&#45;&gt;Node3</title>
<g id="a_edge2_Node000002_Node000003"><a xlink:title=" ">
<path fill="none" stroke="#63b8ff" d="M969.26,-81.8C928.68,-78.36 868.77,-73.29 829.2,-69.94"/>
<polygon fill="#63b8ff" stroke="#63b8ff" points="969.13,-85.3 979.39,-82.66 969.72,-78.32 969.13,-85.3"/>
</a>
</g>
</g>
<!-- Node4 -->
<g id="Node000004" class="node">
<title>Node4</title>
<g id="a_Node000004"><a xlink:href="m__model_8fpp_8f90.html#aec55944fb8c1ba7a734931f79a5a7686" target="_top" xlink:title=" ">
<polygon fill="white" stroke="#666666" points="710,-95 585,-95 585,-76 710,-76 710,-95"/>
<text text-anchor="middle" x="647.5" y="-83" font-family="Helvetica,sans-Serif" font-size="10.00">__m_model_fpp_f90__</text>
</a>
</g>
</g>
<!-- Node3&#45;&gt;Node4 -->
<g id="edge3_Node000003_Node000004" class="edge">
<title>Node3&#45;&gt;Node4</title>
<g id="a_edge3_Node000003_Node000004"><a xlink:title=" ">
<path fill="none" stroke="#63b8ff" d="M735.85,-73.47C727.48,-74.63 718.71,-75.83 710.1,-77.02"/>
<polygon fill="#63b8ff" stroke="#63b8ff" points="736.41,-76.93 745.84,-72.1 735.46,-69.99 736.41,-76.93"/>
</a>
</g>
</g>
<!-- Node5 -->
<g id="Node000005" class="node">
<title>Node5</title>
<g id="a_Node000005"><a xlink:href="m__patches_8fpp_8f90.html#a79c545d03e094101b0bb8cb12704dd65" target="_top" xlink:title="The STL patch is a 2/3D geometry that is imported from an STL file.">
<polygon fill="white" stroke="#666666" points="676.5,-58 618.5,-58 618.5,-39 676.5,-39 676.5,-58"/>
<text text-anchor="middle" x="647.5" y="-46" font-family="Helvetica,sans-Serif" font-size="10.00">s_model</text>
</a>
</g>
</g>
<!-- Node3&#45;&gt;Node5 -->
<g id="edge4_Node000003_Node000005" class="edge">
<title>Node3&#45;&gt;Node5</title>
<g id="a_edge4_Node000003_Node000005"><a xlink:title=" ">
<path fill="none" stroke="#63b8ff" d="M735.65,-59.87C715.71,-57.27 693.6,-54.38 676.63,-52.17"/>
<polygon fill="#63b8ff" stroke="#63b8ff" points="735.47,-63.37 745.84,-61.2 736.38,-56.43 735.47,-63.37"/>
</a>
</g>
</g>
<!-- Node6 -->
<g id="Node000006" class="node">
<title>Node6</title>
<g id="a_Node000006"><a xlink:href="m__patches_8fpp_8f90.html#af43e9148f010e851e66d33048b57e47e" target="_top" xlink:title=" ">
<polygon fill="white" stroke="#666666" points="549,-58 409,-58 409,-39 549,-39 549,-58"/>
<text text-anchor="middle" x="479" y="-46" font-family="Helvetica,sans-Serif" font-size="10.00">s_apply_domain_patches</text>
</a>
</g>
</g>
<!-- Node5&#45;&gt;Node6 -->
<g id="edge5_Node000005_Node000006" class="edge">
<title>Node5&#45;&gt;Node6</title>
<g id="a_edge5_Node000005_Node000006"><a xlink:title=" ">
<path fill="none" stroke="#63b8ff" d="M607.93,-48.5C590.51,-48.5 569.38,-48.5 549.35,-48.5"/>
<polygon fill="#63b8ff" stroke="#63b8ff" points="608.26,-52 618.26,-48.5 608.26,-45 608.26,-52"/>
</a>
</g>
</g>
<!-- Node7 -->
<g id="Node000007" class="node">
<title>Node7</title>
<g id="a_Node000007"><a xlink:href="m__patches_8fpp_8f90.html#a4a44c39189d79ff9c01b6372bf3dd856" target="_top" xlink:title=" ">
<polygon fill="white" stroke="#666666" points="373,-82 240,-82 240,-63 373,-63 373,-82"/>
<text text-anchor="middle" x="306.5" y="-70" font-family="Helvetica,sans-Serif" font-size="10.00">__m_patches_fpp_f90__</text>
</a>
</g>
</g>
<!-- Node6&#45;&gt;Node7 -->
<g id="edge6_Node000006_Node000007" class="edge">
<title>Node6&#45;&gt;Node7</title>
<g id="a_edge6_Node000006_Node000007"><a xlink:title=" ">
<path fill="none" stroke="#63b8ff" d="M400.06,-59.47C391.08,-60.74 381.99,-62.01 373.2,-63.25"/>
<polygon fill="#63b8ff" stroke="#63b8ff" points="400.71,-62.91 410.12,-58.05 399.73,-55.98 400.71,-62.91"/>
</a>
</g>
</g>
<!-- Node8 -->
<g id="Node000008" class="node">
<title>Node8</title>
<g id="a_Node000008"><a xlink:href="namespacem__initial__condition.html#ae5ca036f43a2eebe1e2cc84fc9c61d28" target="_top" xlink:title="This subroutine peruses the patches and depending on the type of geometry associated with a particula...">
<polygon fill="white" stroke="#666666" points="361.5,-45 251.5,-45 251.5,-4 361.5,-4 361.5,-45"/>
<text text-anchor="start" x="259.5" y="-33" font-family="Helvetica,sans-Serif" font-size="10.00">m_initial_condition</text>
<text text-anchor="start" x="259.5" y="-22" font-family="Helvetica,sans-Serif" font-size="10.00">::s_generate_initial</text>
<text text-anchor="middle" x="306.5" y="-11" font-family="Helvetica,sans-Serif" font-size="10.00">_condition</text>
</a>
</g>
</g>
<!-- Node6&#45;&gt;Node8 -->
<g id="edge7_Node000006_Node000008" class="edge">
<title>Node6&#45;&gt;Node8</title>
<g id="a_edge7_Node000006_Node000008"><a xlink:title=" ">
<path fill="none" stroke="#63b8ff" d="M399.87,-37.5C386.99,-35.69 373.89,-33.85 361.76,-32.14"/>
<polygon fill="#63b8ff" stroke="#63b8ff" points="399.73,-41.02 410.12,-38.95 400.71,-34.09 399.73,-41.02"/>
</a>
</g>
</g>
<!-- Node9 -->
<g id="Node000009" class="node">
<title>Node9</title>
<g id="a_Node000009"><a xlink:href="namespacem__start__up.html#a9f88ac9c3dcb3aba90d45f3ccff3379f" target="_top" xlink:title=" ">
<polygon fill="white" stroke="#666666" points="204,-39.5 89,-39.5 89,-9.5 204,-9.5 204,-39.5"/>
<text text-anchor="start" x="97" y="-27.5" font-family="Helvetica,sans-Serif" font-size="10.00">m_start_up::s_apply</text>
<text text-anchor="middle" x="146.5" y="-16.5" font-family="Helvetica,sans-Serif" font-size="10.00">_initial_condition</text>
</a>
</g>
</g>
<!-- Node8&#45;&gt;Node9 -->
<g id="edge8_Node000008_Node000009" class="edge">
<title>Node8&#45;&gt;Node9</title>
<g id="a_edge8_Node000008_Node000009"><a xlink:title=" ">
<path fill="none" stroke="#63b8ff" d="M241,-24.5C228.78,-24.5 216.08,-24.5 204.13,-24.5"/>
<polygon fill="#63b8ff" stroke="#63b8ff" points="241.13,-28 251.13,-24.5 241.13,-21 241.13,-28"/>
</a>
</g>
</g>
<!-- Node10 -->
<g id="Node000010" class="node">
<title>Node10</title>
<g id="a_Node000010"><a xlink:href="p__main_8f90.html#aeec10ee8e2940c953967da3e374e1579" target="_top" xlink:title="This program takes care of setting up the initial condition and grid data for the multicomponent flow...">
<polygon fill="white" stroke="#666666" points="53,-34 0,-34 0,-15 53,-15 53,-34"/>
<text text-anchor="middle" x="26.5" y="-22" font-family="Helvetica,sans-Serif" font-size="10.00">p_main</text>
</a>
</g>
</g>
<!-- Node9&#45;&gt;Node10 -->
<g id="edge9_Node000009_Node000010" class="edge">
<title>Node9&#45;&gt;Node10</title>
<g id="a_edge9_Node000009_Node000010"><a xlink:title=" ">
<path fill="none" stroke="#63b8ff" d="M78.65,-24.5C69.6,-24.5 60.81,-24.5 53.13,-24.5"/>
<polygon fill="#63b8ff" stroke="#63b8ff" points="78.92,-28 88.92,-24.5 78.92,-21 78.92,-28"/>
</a>
</g>
</g>
<!-- Node12 -->
<g id="Node000012" class="node">
<title>Node12</title>
<g id="a_Node000012"><a xlink:href="m__model_8fpp_8f90.html#a404e208ab5c1811a56c1d04621421099" target="_top" xlink:title="This procedure reads an STL file.">
<polygon fill="white" stroke="#666666" points="931,-57 865,-57 865,-38 931,-38 931,-57"/>
<text text-anchor="middle" x="898" y="-45" font-family="Helvetica,sans-Serif" font-size="10.00">s_read_stl</text>
</a>
</g>
</g>
<!-- Node11&#45;&gt;Node12 -->
<g id="edge11_Node000011_Node000012" class="edge">
<title>Node11&#45;&gt;Node12</title>
<g id="a_edge11_Node000011_Node000012"><a xlink:title=" ">
<path fill="none" stroke="#63b8ff" d="M956.74,-47.5C947.97,-47.5 939.19,-47.5 931.21,-47.5"/>
<polygon fill="#63b8ff" stroke="#63b8ff" points="956.96,-51 966.96,-47.5 956.96,-44 956.96,-51"/>
</a>
</g>
</g>
<!-- Node12&#45;&gt;Node3 -->
<g id="edge12_Node000012_Node000003" class="edge">
<title>Node12&#45;&gt;Node3</title>
<g id="a_edge12_Node000012_Node000003"><a xlink:title=" ">
<path fill="none" stroke="#63b8ff" d="M854.78,-54.89C846.41,-56.36 837.63,-57.9 829.31,-59.35"/>
<polygon fill="#63b8ff" stroke="#63b8ff" points="855.49,-58.32 864.74,-53.15 854.29,-51.43 855.49,-58.32"/>
</a>
</g>
</g>
<!-- Node13&#45;&gt;Node11 -->
<g id="edge14_Node000013_Node000011" class="edge">
<title>Node13&#45;&gt;Node11</title>
<g id="a_edge14_Node000013_Node000011"><a xlink:title=" ">
<path fill="none" stroke="#63b8ff" d="M1109.88,-21.75C1090.59,-26.98 1068.39,-33.01 1050.32,-37.91"/>
<polygon fill="#63b8ff" stroke="#63b8ff" points="1110.94,-25.09 1119.67,-19.09 1109.1,-18.33 1110.94,-25.09"/>
</a>
</g>
</g>
</g>
</svg>
