<?xml version="1.0" encoding="UTF-8" standalone="no"?>
<!DOCTYPE svg PUBLIC "-//W3C//DTD SVG 1.1//EN"
 "http://www.w3.org/Graphics/SVG/1.1/DTD/svg11.dtd">
<!-- Generated by graphviz version 2.43.0 (0)
 -->
<!-- Title: s_mpi_barrier Pages: 1 -->
<svg width="706pt" height="200pt"
 viewBox="0.00 0.00 706.00 199.55" xmlns="http://www.w3.org/2000/svg" xmlns:xlink="http://www.w3.org/1999/xlink">
<g id="graph0" class="graph" transform="scale(1 1) rotate(0) translate(4 195.55)">
<title>s_mpi_barrier</title>
<!-- Node1 -->
<g id="Node000001" class="node">
<title>Node1</title>
<g id="a_Node000001"><a xlink:title="Halts all processes until all have reached barrier.">
<polygon fill="#999999" stroke="#666666" points="698,-111.55 615,-111.55 615,-92.55 698,-92.55 698,-111.55"/>
<text text-anchor="middle" x="656.5" y="-99.55" font-family="Helvetica,sans-Serif" font-size="10.00">s_mpi_barrier</text>
</a>
</g>
</g>
<!-- Node2 -->
<g id="Node000002" class="node">
<title>Node2</title>
<g id="a_Node000002"><a xlink:href="namespacem__data__output.html#a0fabebb4b451b87d34228f7f186f1b64" target="_top" xlink:title="Computation of parameters, allocation procedures, and/or any other tasks needed to properly setup the...">
<polygon fill="white" stroke="#666666" points="412,-153.05 263,-153.05 263,-123.05 412,-123.05 412,-153.05"/>
<text text-anchor="start" x="271" y="-141.05" font-family="Helvetica,sans-Serif" font-size="10.00">m_data_output::s_initialize</text>
<text text-anchor="middle" x="337.5" y="-130.05" font-family="Helvetica,sans-Serif" font-size="10.00">_data_output_module</text>
</a>
</g>
</g>
<!-- Node1&#45;&gt;Node2 -->
<g id="edge1_Node000001_Node000002" class="edge">
<title>Node1&#45;&gt;Node2</title>
<g id="a_edge1_Node000001_Node000002"><a xlink:title=" ">
<path fill="none" stroke="#63b8ff" d="M621.23,-114.84C608.19,-119.16 593.09,-123.53 579,-126.05 523.65,-135.94 460.07,-138.75 412.19,-139.19"/>
<polygon fill="#63b8ff" stroke="#63b8ff" points="622.43,-118.13 630.75,-111.57 620.15,-111.51 622.43,-118.13"/>
</a>
</g>
</g>
<!-- Node5 -->
<g id="Node000005" class="node">
<title>Node5</title>
<g id="a_Node000005"><a xlink:href="namespacem__start__up.html#a4ae27fbac7b8d425f70b3f5c20671c1b" target="_top" xlink:title=" ">
<polygon fill="white" stroke="#666666" points="404.5,-191.55 270.5,-191.55 270.5,-172.55 404.5,-172.55 404.5,-191.55"/>
<text text-anchor="middle" x="337.5" y="-179.55" font-family="Helvetica,sans-Serif" font-size="10.00">m_start_up::s_read_grid</text>
</a>
</g>
</g>
<!-- Node1&#45;&gt;Node5 -->
<g id="edge4_Node000001_Node000005" class="edge">
<title>Node1&#45;&gt;Node5</title>
<g id="a_edge4_Node000001_Node000005"><a xlink:title=" ">
<path fill="none" stroke="#63b8ff" d="M634.01,-117.33C619.23,-127.09 598.77,-139.16 579,-146.05 522.09,-165.88 453.87,-174.78 404.64,-178.79"/>
<polygon fill="#63b8ff" stroke="#63b8ff" points="636.11,-120.13 642.42,-111.62 632.18,-114.34 636.11,-120.13"/>
</a>
</g>
</g>
<!-- Node6 -->
<g id="Node000006" class="node">
<title>Node6</title>
<g id="a_Node000006"><a xlink:href="namespacem__start__up.html#a2f3025fdc859790b2978de5c822a8c6f" target="_top" xlink:title="The goal of this subroutine is to read in any preexisting initial condition data files so that they m...">
<polygon fill="white" stroke="#666666" points="576,-69.05 451,-69.05 451,-39.05 576,-39.05 576,-69.05"/>
<text text-anchor="start" x="459" y="-57.05" font-family="Helvetica,sans-Serif" font-size="10.00">m_start_up::s_read</text>
<text text-anchor="middle" x="513.5" y="-46.05" font-family="Helvetica,sans-Serif" font-size="10.00">_parallel_ic_data_files</text>
</a>
</g>
</g>
<!-- Node1&#45;&gt;Node6 -->
<g id="edge6_Node000001_Node000006" class="edge">
<title>Node1&#45;&gt;Node6</title>
<g id="a_edge6_Node000001_Node000006"><a xlink:title=" ">
<path fill="none" stroke="#63b8ff" d="M617.65,-89.16C599.5,-82.98 577.66,-75.55 558.75,-69.11"/>
<polygon fill="#63b8ff" stroke="#63b8ff" points="616.71,-92.54 627.31,-92.45 618.97,-85.91 616.71,-92.54"/>
</a>
</g>
</g>
<!-- Node7 -->
<g id="Node000007" class="node">
<title>Node7</title>
<g id="a_Node000007"><a xlink:href="namespacem__start__up.html#a461f1c8a73f2ddcee3735221bb541fbd" target="_top" xlink:title=" ">
<polygon fill="white" stroke="#666666" points="227,-42.55 89,-42.55 89,-23.55 227,-23.55 227,-42.55"/>
<text text-anchor="middle" x="158" y="-30.55" font-family="Helvetica,sans-Serif" font-size="10.00">m_start_up::s_save_data</text>
</a>
</g>
</g>
<!-- Node1&#45;&gt;Node7 -->
<g id="edge8_Node000001_Node000007" class="edge">
<title>Node1&#45;&gt;Node7</title>
<g id="a_edge8_Node000001_Node000007"><a xlink:title=" ">
<path fill="none" stroke="#63b8ff" d="M642.98,-84.11C629.5,-66.54 606.29,-40.87 579,-30.05 447.33,22.17 273.66,-6.58 197.54,-23.49"/>
<polygon fill="#63b8ff" stroke="#63b8ff" points="640.36,-86.46 649.11,-92.44 646,-82.32 640.36,-86.46"/>
</a>
</g>
</g>
<!-- Node8 -->
<g id="Node000008" class="node">
<title>Node8</title>
<g id="a_Node000008"><a xlink:href="namespacem__data__output.html#a4b0e6e0d36e6f8439bd8af7ce5dd9979" target="_top" xlink:title="Writes grid and initial condition data files in parallel to the &quot;0&quot; time&#45;step directory in the local ...">
<polygon fill="white" stroke="#666666" points="579,-117.05 448,-117.05 448,-87.05 579,-87.05 579,-117.05"/>
<text text-anchor="start" x="456" y="-105.05" font-family="Helvetica,sans-Serif" font-size="10.00">m_data_output::s_write</text>
<text text-anchor="middle" x="513.5" y="-94.05" font-family="Helvetica,sans-Serif" font-size="10.00">_parallel_data_files</text>
</a>
</g>
</g>
<!-- Node1&#45;&gt;Node8 -->
<g id="edge10_Node000001_Node000008" class="edge">
<title>Node1&#45;&gt;Node8</title>
<g id="a_edge10_Node000001_Node000008"><a xlink:title=" ">
<path fill="none" stroke="#63b8ff" d="M604.51,-102.05C596.26,-102.05 587.62,-102.05 579.1,-102.05"/>
<polygon fill="#63b8ff" stroke="#63b8ff" points="604.72,-105.55 614.72,-102.05 604.72,-98.55 604.72,-105.55"/>
</a>
</g>
</g>
<!-- Node3 -->
<g id="Node000003" class="node">
<title>Node3</title>
<g id="a_Node000003"><a xlink:href="namespacem__start__up.html#a14f564f341f1feca9308fe2579e5ced6" target="_top" xlink:title=" ">
<polygon fill="white" stroke="#666666" points="223,-110.05 93,-110.05 93,-80.05 223,-80.05 223,-110.05"/>
<text text-anchor="start" x="101" y="-98.05" font-family="Helvetica,sans-Serif" font-size="10.00">m_start_up::s_initialize</text>
<text text-anchor="middle" x="158" y="-87.05" font-family="Helvetica,sans-Serif" font-size="10.00">_modules</text>
</a>
</g>
</g>
<!-- Node2&#45;&gt;Node3 -->
<g id="edge2_Node000002_Node000003" class="edge">
<title>Node2&#45;&gt;Node3</title>
<g id="a_edge2_Node000002_Node000003"><a xlink:title=" ">
<path fill="none" stroke="#63b8ff" d="M264.55,-120.62C250.13,-117.12 235.1,-113.48 221.05,-110.08"/>
<polygon fill="#63b8ff" stroke="#63b8ff" points="263.88,-124.05 274.42,-123.01 265.52,-117.25 263.88,-124.05"/>
</a>
</g>
</g>
<!-- Node4 -->
<g id="Node000004" class="node">
<title>Node4</title>
<g id="a_Node000004"><a xlink:href="p__main_8f90.html#aeec10ee8e2940c953967da3e374e1579" target="_top" xlink:title="This program takes care of setting up the initial condition and grid data for the multicomponent flow...">
<polygon fill="white" stroke="#666666" points="53,-104.55 0,-104.55 0,-85.55 53,-85.55 53,-104.55"/>
<text text-anchor="middle" x="26.5" y="-92.55" font-family="Helvetica,sans-Serif" font-size="10.00">p_main</text>
</a>
</g>
</g>
<!-- Node3&#45;&gt;Node4 -->
<g id="edge3_Node000003_Node000004" class="edge">
<title>Node3&#45;&gt;Node4</title>
<g id="a_edge3_Node000003_Node000004"><a xlink:title=" ">
<path fill="none" stroke="#63b8ff" d="M82.52,-95.05C72.04,-95.05 61.91,-95.05 53.26,-95.05"/>
<polygon fill="#63b8ff" stroke="#63b8ff" points="82.63,-98.55 92.63,-95.05 82.63,-91.55 82.63,-98.55"/>
</a>
</g>
</g>
<!-- Node5&#45;&gt;Node4 -->
<g id="edge5_Node000005_Node000004" class="edge">
<title>Node5&#45;&gt;Node4</title>
<g id="a_edge5_Node000005_Node000004"><a xlink:title=" ">
<path fill="none" stroke="#63b8ff" d="M282.17,-170.24C231.66,-158.79 154.56,-140.1 89,-119.05 75.9,-114.84 61.57,-109.31 50.04,-104.61"/>
<polygon fill="#63b8ff" stroke="#63b8ff" points="281.7,-173.72 292.22,-172.5 283.24,-166.89 281.7,-173.72"/>
</a>
</g>
</g>
<!-- Node6&#45;&gt;Node3 -->
<g id="edge7_Node000006_Node000003" class="edge">
<title>Node6&#45;&gt;Node3</title>
<g id="a_edge7_Node000006_Node000003"><a xlink:title=" ">
<path fill="none" stroke="#63b8ff" d="M440.94,-62.35C377.14,-69.75 284.59,-80.48 223.15,-87.61"/>
<polygon fill="#63b8ff" stroke="#63b8ff" points="441.39,-65.82 450.92,-61.19 440.59,-58.86 441.39,-65.82"/>
</a>
</g>
</g>
<!-- Node7&#45;&gt;Node4 -->
<g id="edge9_Node000007_Node000004" class="edge">
<title>Node7&#45;&gt;Node4</title>
<g id="a_edge9_Node000007_Node000004"><a xlink:title=" ">
<path fill="none" stroke="#63b8ff" d="M127.89,-46.98C103.46,-58.68 69.2,-75.08 47.69,-85.38"/>
<polygon fill="#63b8ff" stroke="#63b8ff" points="129.54,-50.07 137.05,-42.6 126.52,-43.76 129.54,-50.07"/>
</a>
</g>
</g>
<!-- Node8&#45;&gt;Node2 -->
<g id="edge11_Node000008_Node000002" class="edge">
<title>Node8&#45;&gt;Node2</title>
<g id="a_edge11_Node000008_Node000002"><a xlink:title=" ">
<path fill="none" stroke="#63b8ff" d="M437.85,-117.49C429.03,-119.32 420.04,-121.18 411.25,-123"/>
<polygon fill="#63b8ff" stroke="#63b8ff" points="438.63,-120.91 447.71,-115.45 437.21,-114.05 438.63,-120.91"/>
</a>
</g>
</g>
<!-- Node8&#45;&gt;Node3 -->
<g id="edge12_Node000008_Node000003" class="edge">
<title>Node8&#45;&gt;Node3</title>
<g id="a_edge12_Node000008_Node000003"><a xlink:title=" ">
<path fill="none" stroke="#63b8ff" d="M437.29,-100.56C373.64,-99.3 283.41,-97.51 223.13,-96.32"/>
<polygon fill="#63b8ff" stroke="#63b8ff" points="437.6,-104.06 447.66,-100.76 437.73,-97.07 437.6,-104.06"/>
</a>
</g>
</g>
</g>
</svg>
