<?xml version="1.0" encoding="UTF-8" standalone="no"?>
<!DOCTYPE svg PUBLIC "-//W3C//DTD SVG 1.1//EN"
 "http://www.w3.org/Graphics/SVG/1.1/DTD/svg11.dtd">
<!-- Generated by graphviz version 2.43.0 (0)
 -->
<!-- Title: s_3d_analytical Pages: 1 -->
<svg width="685pt" height="86pt"
 viewBox="0.00 0.00 685.00 86.00" xmlns="http://www.w3.org/2000/svg" xmlns:xlink="http://www.w3.org/1999/xlink">
<g id="graph0" class="graph" transform="scale(1 1) rotate(0) translate(4 82)">
<title>s_3d_analytical</title>
<!-- Node1 -->
<g id="Node000001" class="node">
<title>Node1</title>
<g id="a_Node000001"><a xlink:title="This patch assigns the primitive variables as analytical functions such that the code can be verified...">
<polygon fill="#999999" stroke="#666666" points="677,-54 585,-54 585,-35 677,-35 677,-54"/>
<text text-anchor="middle" x="631" y="-42" font-family="Helvetica,sans-Serif" font-size="10.00">s_3d_analytical</text>
</a>
</g>
</g>
<!-- Node2 -->
<g id="Node000002" class="node">
<title>Node2</title>
<g id="a_Node000002"><a xlink:href="m__patches_8fpp_8f90.html#af43e9148f010e851e66d33048b57e47e" target="_top" xlink:title=" ">
<polygon fill="white" stroke="#666666" points="549,-54 409,-54 409,-35 549,-35 549,-54"/>
<text text-anchor="middle" x="479" y="-42" font-family="Helvetica,sans-Serif" font-size="10.00">s_apply_domain_patches</text>
</a>
</g>
</g>
<!-- Node1&#45;&gt;Node2 -->
<g id="edge1_Node000001_Node000002" class="edge">
<title>Node1&#45;&gt;Node2</title>
<g id="a_edge1_Node000001_Node000002"><a xlink:title=" ">
<path fill="none" stroke="#63b8ff" d="M574.95,-44.5C566.54,-44.5 557.77,-44.5 549.11,-44.5"/>
<polygon fill="#63b8ff" stroke="#63b8ff" points="575,-48 585,-44.5 575,-41 575,-48"/>
</a>
</g>
</g>
<!-- Node3 -->
<g id="Node000003" class="node">
<title>Node3</title>
<g id="a_Node000003"><a xlink:href="m__patches_8fpp_8f90.html#a4a44c39189d79ff9c01b6372bf3dd856" target="_top" xlink:title="Allocate memory and read initial condition data for IC extrusion.">
<polygon fill="white" stroke="#666666" points="373,-78 240,-78 240,-59 373,-59 373,-78"/>
<text text-anchor="middle" x="306.5" y="-66" font-family="Helvetica,sans-Serif" font-size="10.00">__m_patches_fpp_f90__</text>
</a>
</g>
</g>
<!-- Node2&#45;&gt;Node3 -->
<g id="edge2_Node000002_Node000003" class="edge">
<title>Node2&#45;&gt;Node3</title>
<g id="a_edge2_Node000002_Node000003"><a xlink:title=" ">
<path fill="none" stroke="#63b8ff" d="M400.06,-55.47C391.08,-56.74 381.99,-58.01 373.2,-59.25"/>
<polygon fill="#63b8ff" stroke="#63b8ff" points="400.71,-58.91 410.12,-54.05 399.73,-51.98 400.71,-58.91"/>
</a>
</g>
</g>
<!-- Node4 -->
<g id="Node000004" class="node">
<title>Node4</title>
<g id="a_Node000004"><a xlink:href="namespacem__initial__condition.html#ae5ca036f43a2eebe1e2cc84fc9c61d28" target="_top" xlink:title="This subroutine peruses the patches and depending on the type of geometry associated with a particula...">
<polygon fill="white" stroke="#666666" points="361.5,-41 251.5,-41 251.5,0 361.5,0 361.5,-41"/>
<text text-anchor="start" x="259.5" y="-29" font-family="Helvetica,sans-Serif" font-size="10.00">m_initial_condition</text>
<text text-anchor="start" x="259.5" y="-18" font-family="Helvetica,sans-Serif" font-size="10.00">::s_generate_initial</text>
<text text-anchor="middle" x="306.5" y="-7" font-family="Helvetica,sans-Serif" font-size="10.00">_condition</text>
</a>
</g>
</g>
<!-- Node2&#45;&gt;Node4 -->
<g id="edge3_Node000002_Node000004" class="edge">
<title>Node2&#45;&gt;Node4</title>
<g id="a_edge3_Node000002_Node000004"><a xlink:title=" ">
<path fill="none" stroke="#63b8ff" d="M399.87,-33.5C386.99,-31.69 373.89,-29.85 361.76,-28.14"/>
<polygon fill="#63b8ff" stroke="#63b8ff" points="399.73,-37.02 410.12,-34.95 400.71,-30.09 399.73,-37.02"/>
</a>
</g>
</g>
<!-- Node5 -->
<g id="Node000005" class="node">
<title>Node5</title>
<g id="a_Node000005"><a xlink:href="namespacem__start__up.html#a513ef24d6c8beafb8b94c015db266100" target="_top" xlink:title=" ">
<polygon fill="white" stroke="#666666" points="204,-35.5 89,-35.5 89,-5.5 204,-5.5 204,-35.5"/>
<text text-anchor="start" x="97" y="-23.5" font-family="Helvetica,sans-Serif" font-size="10.00">m_start_up::s_apply</text>
<text text-anchor="middle" x="146.5" y="-12.5" font-family="Helvetica,sans-Serif" font-size="10.00">_initial_condition</text>
</a>
</g>
</g>
<!-- Node4&#45;&gt;Node5 -->
<g id="edge4_Node000004_Node000005" class="edge">
<title>Node4&#45;&gt;Node5</title>
<g id="a_edge4_Node000004_Node000005"><a xlink:title=" ">
<path fill="none" stroke="#63b8ff" d="M241,-20.5C228.78,-20.5 216.08,-20.5 204.13,-20.5"/>
<polygon fill="#63b8ff" stroke="#63b8ff" points="241.13,-24 251.13,-20.5 241.13,-17 241.13,-24"/>
</a>
</g>
</g>
<!-- Node6 -->
<g id="Node000006" class="node">
<title>Node6</title>
<g id="a_Node000006"><a xlink:href="p__main_8f90.html#aeec10ee8e2940c953967da3e374e1579" target="_top" xlink:title="This program takes care of setting up the initial condition and grid data for the multicomponent flow...">
<polygon fill="white" stroke="#666666" points="53,-30 0,-30 0,-11 53,-11 53,-30"/>
<text text-anchor="middle" x="26.5" y="-18" font-family="Helvetica,sans-Serif" font-size="10.00">p_main</text>
</a>
</g>
</g>
<!-- Node5&#45;&gt;Node6 -->
<g id="edge5_Node000005_Node000006" class="edge">
<title>Node5&#45;&gt;Node6</title>
<g id="a_edge5_Node000005_Node000006"><a xlink:title=" ">
<path fill="none" stroke="#63b8ff" d="M78.65,-20.5C69.6,-20.5 60.81,-20.5 53.13,-20.5"/>
<polygon fill="#63b8ff" stroke="#63b8ff" points="78.92,-24 88.92,-20.5 78.92,-17 78.92,-24"/>
</a>
</g>
</g>
</g>
</svg>
