<?xml version="1.0" encoding="UTF-8" standalone="no"?>
<!DOCTYPE svg PUBLIC "-//W3C//DTD SVG 1.1//EN"
 "http://www.w3.org/Graphics/SVG/1.1/DTD/svg11.dtd">
<!-- Generated by graphviz version 2.43.0 (0)
 -->
<!-- Title: s_convert_species_to_mixture_variables Pages: 1 -->
<svg width="959pt" height="282pt"
 viewBox="0.00 0.00 959.00 282.00" xmlns="http://www.w3.org/2000/svg" xmlns:xlink="http://www.w3.org/1999/xlink">
<g id="graph0" class="graph" transform="scale(1 1) rotate(0) translate(4 278)">
<title>s_convert_species_to_mixture_variables</title>
<!-- Node1 -->
<g id="Node000001" class="node">
<title>Node1</title>
<g id="a_Node000001"><a xlink:title="This subroutine is designed for the volume fraction model and provided a set of either conservative o...">
<polygon fill="#999999" stroke="#666666" points="951,-247 830,-247 830,-217 951,-217 951,-247"/>
<text text-anchor="start" x="838" y="-235" font-family="Helvetica,sans-Serif" font-size="10.00">s_convert_species_to</text>
<text text-anchor="middle" x="890.5" y="-224" font-family="Helvetica,sans-Serif" font-size="10.00">_mixture_variables</text>
</a>
</g>
</g>
<!-- Node2 -->
<g id="Node000002" class="node">
<title>Node2</title>
<g id="a_Node000002"><a xlink:href="m__variables__conversion_8fpp_8f90.html#a347ac5f0eb3158bfb1edcad667b6025c" target="_top" xlink:title=" ">
<polygon fill="white" stroke="#666666" points="448.5,-274 302.5,-274 302.5,-244 448.5,-244 448.5,-274"/>
<text text-anchor="start" x="310.5" y="-262" font-family="Helvetica,sans-Serif" font-size="10.00">__m_variables_conversion</text>
<text text-anchor="middle" x="375.5" y="-251" font-family="Helvetica,sans-Serif" font-size="10.00">_fpp_f90__</text>
</a>
</g>
</g>
<!-- Node1&#45;&gt;Node2 -->
<g id="edge1_Node000001_Node000002" class="edge">
<title>Node1&#45;&gt;Node2</title>
<g id="a_edge1_Node000001_Node000002"><a xlink:title=" ">
<path fill="none" stroke="#63b8ff" d="M819.89,-243.18C769.08,-250.75 698.47,-260.07 636,-264 569.46,-268.18 552.65,-265.52 486,-264 473.92,-263.72 461.09,-263.28 448.64,-262.76"/>
<polygon fill="#63b8ff" stroke="#63b8ff" points="820.41,-246.64 829.77,-241.69 819.36,-239.72 820.41,-246.64"/>
</a>
</g>
</g>
<!-- Node3 -->
<g id="Node000003" class="node">
<title>Node3</title>
<g id="a_Node000003"><a xlink:href="m__variables__conversion_8fpp_8f90.html#ab8bdf7610d49d294015daa441faabc01" target="_top" xlink:title="Dispatch to the s_convert_mixture_to_mixture_variables and s_convert_species_to_mixture_variables sub...">
<polygon fill="white" stroke="#666666" points="794,-207 672,-207 672,-177 794,-177 794,-207"/>
<text text-anchor="start" x="680" y="-195" font-family="Helvetica,sans-Serif" font-size="10.00">s_convert_to_mixture</text>
<text text-anchor="middle" x="733" y="-184" font-family="Helvetica,sans-Serif" font-size="10.00">_variables</text>
</a>
</g>
</g>
<!-- Node1&#45;&gt;Node3 -->
<g id="edge2_Node000001_Node000003" class="edge">
<title>Node1&#45;&gt;Node3</title>
<g id="a_edge2_Node000001_Node000003"><a xlink:title=" ">
<path fill="none" stroke="#63b8ff" d="M821.24,-214.44C811.62,-211.97 801.82,-209.44 792.41,-207.03"/>
<polygon fill="#63b8ff" stroke="#63b8ff" points="820.6,-217.89 831.16,-216.99 822.34,-211.11 820.6,-217.89"/>
</a>
</g>
</g>
<!-- Node3&#45;&gt;Node2 -->
<g id="edge3_Node000003_Node000002" class="edge">
<title>Node3&#45;&gt;Node2</title>
<g id="a_edge3_Node000003_Node000002"><a xlink:title=" ">
<path fill="none" stroke="#63b8ff" d="M699.29,-212.37C681.3,-222.52 658.18,-233.9 636,-240 574.26,-256.98 501.33,-260.98 448.53,-261.17"/>
<polygon fill="#63b8ff" stroke="#63b8ff" points="701.3,-215.25 708.2,-207.21 697.79,-209.19 701.3,-215.25"/>
</a>
</g>
</g>
<!-- Node4 -->
<g id="Node000004" class="node">
<title>Node4</title>
<g id="a_Node000004"><a xlink:href="namespacem__assign__variables.html#acea8669db4dc8eb166849ab1f9683223" target="_top" xlink:title="This subroutine assigns the species primitive variables. This follows s_assign_patch_species_primitiv...">
<polygon fill="white" stroke="#666666" points="630.5,-134.5 491.5,-134.5 491.5,-93.5 630.5,-93.5 630.5,-134.5"/>
<text text-anchor="start" x="499.5" y="-122.5" font-family="Helvetica,sans-Serif" font-size="10.00">m_assign_variables</text>
<text text-anchor="start" x="499.5" y="-111.5" font-family="Helvetica,sans-Serif" font-size="10.00">::s_assign_patch_species</text>
<text text-anchor="middle" x="561" y="-100.5" font-family="Helvetica,sans-Serif" font-size="10.00">_primitive_variables</text>
</a>
</g>
</g>
<!-- Node3&#45;&gt;Node4 -->
<g id="edge4_Node000003_Node000004" class="edge">
<title>Node3&#45;&gt;Node4</title>
<g id="a_edge4_Node000003_Node000004"><a xlink:title=" ">
<path fill="none" stroke="#63b8ff" d="M693.98,-172.13C676.48,-163.21 655.34,-152.74 636,-144 629.05,-140.86 621.67,-137.69 614.37,-134.63"/>
<polygon fill="#63b8ff" stroke="#63b8ff" points="692.8,-175.46 703.3,-176.91 696,-169.23 692.8,-175.46"/>
</a>
</g>
</g>
<!-- Node9 -->
<g id="Node000009" class="node">
<title>Node9</title>
<g id="a_Node000009"><a xlink:href="m__variables__conversion_8fpp_8f90.html#a3480e5d3bc628f115c1952e68a0ae891" target="_top" xlink:title="The following procedure handles the conversion between the conservative variables and the primitive v...">
<polygon fill="white" stroke="#666666" points="627,-231 495,-231 495,-201 627,-201 627,-231"/>
<text text-anchor="start" x="503" y="-219" font-family="Helvetica,sans-Serif" font-size="10.00">s_convert_conservative</text>
<text text-anchor="middle" x="561" y="-208" font-family="Helvetica,sans-Serif" font-size="10.00">_to_primitive_variables</text>
</a>
</g>
</g>
<!-- Node3&#45;&gt;Node9 -->
<g id="edge10_Node000003_Node000009" class="edge">
<title>Node3&#45;&gt;Node9</title>
<g id="a_edge10_Node000003_Node000009"><a xlink:title=" ">
<path fill="none" stroke="#63b8ff" d="M661.65,-201.93C650.22,-203.55 638.42,-205.21 627.12,-206.81"/>
<polygon fill="#63b8ff" stroke="#63b8ff" points="662.17,-205.39 671.59,-200.53 661.19,-198.46 662.17,-205.39"/>
</a>
</g>
</g>
<!-- Node12 -->
<g id="Node000012" class="node">
<title>Node12</title>
<g id="a_Node000012"><a xlink:href="m__variables__conversion_8fpp_8f90.html#a5bc6f1a313312f4085accb9a1c224b99" target="_top" xlink:title="The following procedure handles the conversion between the primitive variables and the conservative v...">
<polygon fill="white" stroke="#666666" points="636,-183 486,-183 486,-153 636,-153 636,-183"/>
<text text-anchor="start" x="494" y="-171" font-family="Helvetica,sans-Serif" font-size="10.00">s_convert_primitive</text>
<text text-anchor="middle" x="561" y="-160" font-family="Helvetica,sans-Serif" font-size="10.00">_to_conservative_variables</text>
</a>
</g>
</g>
<!-- Node3&#45;&gt;Node12 -->
<g id="edge15_Node000003_Node000012" class="edge">
<title>Node3&#45;&gt;Node12</title>
<g id="a_edge15_Node000003_Node000012"><a xlink:title=" ">
<path fill="none" stroke="#63b8ff" d="M661.51,-182.05C653.16,-180.87 644.61,-179.66 636.21,-178.48"/>
<polygon fill="#63b8ff" stroke="#63b8ff" points="661.19,-185.54 671.59,-183.47 662.17,-178.61 661.19,-185.54"/>
</a>
</g>
</g>
<!-- Node13 -->
<g id="Node000013" class="node">
<title>Node13</title>
<g id="a_Node000013"><a xlink:href="namespacem__data__output.html#aed140b1c0699111233919d751d1be298" target="_top" xlink:title="Writes grid and initial condition data files to the &quot;0&quot; time&#45;step directory in the local processor ra...">
<polygon fill="white" stroke="#666666" points="626.5,-73 495.5,-73 495.5,-43 626.5,-43 626.5,-73"/>
<text text-anchor="start" x="503.5" y="-61" font-family="Helvetica,sans-Serif" font-size="10.00">m_data_output::s_write</text>
<text text-anchor="middle" x="561" y="-50" font-family="Helvetica,sans-Serif" font-size="10.00">_serial_data_files</text>
</a>
</g>
</g>
<!-- Node3&#45;&gt;Node13 -->
<g id="edge18_Node000003_Node000013" class="edge">
<title>Node3&#45;&gt;Node13</title>
<g id="a_edge18_Node000003_Node000013"><a xlink:title=" ">
<path fill="none" stroke="#63b8ff" d="M716.64,-168.61C699.58,-144.33 669.95,-106.78 636,-84 629.67,-79.75 622.57,-76.12 615.33,-73.03"/>
<polygon fill="#63b8ff" stroke="#63b8ff" points="713.79,-170.64 722.33,-176.9 719.55,-166.68 713.79,-170.64"/>
</a>
</g>
</g>
<!-- Node5 -->
<g id="Node000005" class="node">
<title>Node5</title>
<g id="a_Node000005"><a xlink:href="interfacem__assign__variables_1_1s__assign__patch__xxxxx__primitive__variables.html#a1c825e2bfe2443bd9219a8188a343bfe" target="_top" xlink:title=" ">
<polygon fill="white" stroke="#666666" points="265,-166.5 89,-166.5 89,-103.5 265,-103.5 265,-166.5"/>
<text text-anchor="start" x="97" y="-154.5" font-family="Helvetica,sans-Serif" font-size="10.00">m_assign_variables</text>
<text text-anchor="start" x="97" y="-143.5" font-family="Helvetica,sans-Serif" font-size="10.00">::s_assign_patch_xxxxx</text>
<text text-anchor="start" x="97" y="-132.5" font-family="Helvetica,sans-Serif" font-size="10.00">_primitive_variables::</text>
<text text-anchor="start" x="97" y="-121.5" font-family="Helvetica,sans-Serif" font-size="10.00">s_assign_patch_xxxxx_primitive</text>
<text text-anchor="middle" x="177" y="-110.5" font-family="Helvetica,sans-Serif" font-size="10.00">_variables</text>
</a>
</g>
</g>
<!-- Node4&#45;&gt;Node5 -->
<g id="edge5_Node000004_Node000005" class="edge">
<title>Node4&#45;&gt;Node5</title>
<g id="a_edge5_Node000004_Node000005"><a xlink:title=" ">
<path fill="none" stroke="#63b8ff" d="M481.4,-132.48C470.89,-134.35 460.22,-135.94 450,-137 388.47,-143.36 318.68,-142.69 265.21,-140.52"/>
<polygon fill="#63b8ff" stroke="#63b8ff" points="482.21,-135.89 491.4,-130.61 480.92,-129.01 482.21,-135.89"/>
</a>
</g>
</g>
<!-- Node6 -->
<g id="Node000006" class="node">
<title>Node6</title>
<g id="a_Node000006"><a xlink:href="namespacem__assign__variables.html#a84b36028fb3b766edc3ffdc2a9793caa" target="_top" xlink:title=" ">
<polygon fill="white" stroke="#666666" points="432,-127.5 319,-127.5 319,-86.5 432,-86.5 432,-127.5"/>
<text text-anchor="start" x="327" y="-115.5" font-family="Helvetica,sans-Serif" font-size="10.00">m_assign_variables</text>
<text text-anchor="start" x="327" y="-104.5" font-family="Helvetica,sans-Serif" font-size="10.00">::s_initialize_assign</text>
<text text-anchor="middle" x="375.5" y="-93.5" font-family="Helvetica,sans-Serif" font-size="10.00">_variables_module</text>
</a>
</g>
</g>
<!-- Node4&#45;&gt;Node6 -->
<g id="edge6_Node000004_Node000006" class="edge">
<title>Node4&#45;&gt;Node6</title>
<g id="a_edge6_Node000004_Node000006"><a xlink:title=" ">
<path fill="none" stroke="#63b8ff" d="M481.22,-110.99C464.7,-110.36 447.61,-109.71 432.15,-109.12"/>
<polygon fill="#63b8ff" stroke="#63b8ff" points="481.28,-114.5 491.41,-111.38 481.55,-107.5 481.28,-114.5"/>
</a>
</g>
</g>
<!-- Node6&#45;&gt;Node5 -->
<g id="edge7_Node000006_Node000005" class="edge">
<title>Node6&#45;&gt;Node5</title>
<g id="a_edge7_Node000006_Node000005"><a xlink:title=" ">
<path fill="none" stroke="#63b8ff" d="M308.99,-116.33C295,-118.33 280.01,-120.46 265.35,-122.55"/>
<polygon fill="#63b8ff" stroke="#63b8ff" points="309.57,-119.79 318.98,-114.91 308.59,-112.86 309.57,-119.79"/>
</a>
</g>
</g>
<!-- Node7 -->
<g id="Node000007" class="node">
<title>Node7</title>
<g id="a_Node000007"><a xlink:href="namespacem__start__up.html#a14f564f341f1feca9308fe2579e5ced6" target="_top" xlink:title=" ">
<polygon fill="white" stroke="#666666" points="242,-81 112,-81 112,-51 242,-51 242,-81"/>
<text text-anchor="start" x="120" y="-69" font-family="Helvetica,sans-Serif" font-size="10.00">m_start_up::s_initialize</text>
<text text-anchor="middle" x="177" y="-58" font-family="Helvetica,sans-Serif" font-size="10.00">_modules</text>
</a>
</g>
</g>
<!-- Node6&#45;&gt;Node7 -->
<g id="edge8_Node000006_Node000007" class="edge">
<title>Node6&#45;&gt;Node7</title>
<g id="a_edge8_Node000006_Node000007"><a xlink:title=" ">
<path fill="none" stroke="#63b8ff" d="M308.94,-93.32C287.4,-88.83 263.49,-83.84 242.06,-79.37"/>
<polygon fill="#63b8ff" stroke="#63b8ff" points="308.47,-96.8 318.98,-95.42 309.9,-89.95 308.47,-96.8"/>
</a>
</g>
</g>
<!-- Node8 -->
<g id="Node000008" class="node">
<title>Node8</title>
<g id="a_Node000008"><a xlink:href="p__main_8f90.html#aeec10ee8e2940c953967da3e374e1579" target="_top" xlink:title="This program takes care of setting up the initial condition and grid data for the multicomponent flow...">
<polygon fill="white" stroke="#666666" points="53,-140.5 0,-140.5 0,-121.5 53,-121.5 53,-140.5"/>
<text text-anchor="middle" x="26.5" y="-128.5" font-family="Helvetica,sans-Serif" font-size="10.00">p_main</text>
</a>
</g>
</g>
<!-- Node7&#45;&gt;Node8 -->
<g id="edge9_Node000007_Node000008" class="edge">
<title>Node7&#45;&gt;Node8</title>
<g id="a_edge9_Node000007_Node000008"><a xlink:title=" ">
<path fill="none" stroke="#63b8ff" d="M112.84,-84.42C104.71,-87.35 96.58,-90.56 89,-94 71.98,-101.73 53.79,-113.11 41.65,-121.2"/>
<polygon fill="#63b8ff" stroke="#63b8ff" points="114.05,-87.71 122.35,-81.12 111.76,-81.09 114.05,-87.71"/>
</a>
</g>
</g>
<!-- Node9&#45;&gt;Node2 -->
<g id="edge11_Node000009_Node000002" class="edge">
<title>Node9&#45;&gt;Node2</title>
<g id="a_edge11_Node000009_Node000002"><a xlink:title=" ">
<path fill="none" stroke="#63b8ff" d="M486.05,-233.33C471.01,-236.85 455.31,-240.53 440.64,-243.97"/>
<polygon fill="#63b8ff" stroke="#63b8ff" points="486.88,-236.73 495.82,-231.04 485.29,-229.91 486.88,-236.73"/>
</a>
</g>
</g>
<!-- Node10 -->
<g id="Node000010" class="node">
<title>Node10</title>
<g id="a_Node000010"><a xlink:href="namespacem__initial__condition.html#a819a22af40efdd0fbeed368ebf6a0753" target="_top" xlink:title="This subroutine peruses the patches and depending on the type of geometry associated with a particula...">
<polygon fill="white" stroke="#666666" points="430.5,-225.5 320.5,-225.5 320.5,-184.5 430.5,-184.5 430.5,-225.5"/>
<text text-anchor="start" x="328.5" y="-213.5" font-family="Helvetica,sans-Serif" font-size="10.00">m_initial_condition</text>
<text text-anchor="start" x="328.5" y="-202.5" font-family="Helvetica,sans-Serif" font-size="10.00">::s_generate_initial</text>
<text text-anchor="middle" x="375.5" y="-191.5" font-family="Helvetica,sans-Serif" font-size="10.00">_condition</text>
</a>
</g>
</g>
<!-- Node9&#45;&gt;Node10 -->
<g id="edge12_Node000009_Node000010" class="edge">
<title>Node9&#45;&gt;Node10</title>
<g id="a_edge12_Node000009_Node000010"><a xlink:title=" ">
<path fill="none" stroke="#63b8ff" d="M484.56,-211.48C466.47,-210.39 447.5,-209.26 430.6,-208.24"/>
<polygon fill="#63b8ff" stroke="#63b8ff" points="484.6,-214.99 494.79,-212.09 485.02,-208 484.6,-214.99"/>
</a>
</g>
</g>
<!-- Node11 -->
<g id="Node000011" class="node">
<title>Node11</title>
<g id="a_Node000011"><a xlink:href="namespacem__start__up.html#abdd3c5dcf76d06086edf11b2df325492" target="_top" xlink:title=" ">
<polygon fill="white" stroke="#666666" points="234.5,-217 119.5,-217 119.5,-187 234.5,-187 234.5,-217"/>
<text text-anchor="start" x="127.5" y="-205" font-family="Helvetica,sans-Serif" font-size="10.00">m_start_up::s_apply</text>
<text text-anchor="middle" x="177" y="-194" font-family="Helvetica,sans-Serif" font-size="10.00">_initial_condition</text>
</a>
</g>
</g>
<!-- Node10&#45;&gt;Node11 -->
<g id="edge13_Node000010_Node000011" class="edge">
<title>Node10&#45;&gt;Node11</title>
<g id="a_edge13_Node000010_Node000011"><a xlink:title=" ">
<path fill="none" stroke="#63b8ff" d="M310.08,-204.02C285.78,-203.65 258.33,-203.23 234.78,-202.87"/>
<polygon fill="#63b8ff" stroke="#63b8ff" points="310.23,-207.52 320.29,-204.17 310.34,-200.52 310.23,-207.52"/>
</a>
</g>
</g>
<!-- Node11&#45;&gt;Node8 -->
<g id="edge14_Node000011_Node000008" class="edge">
<title>Node11&#45;&gt;Node8</title>
<g id="a_edge14_Node000011_Node000008"><a xlink:title=" ">
<path fill="none" stroke="#63b8ff" d="M109.56,-184.74C102.48,-182.14 95.5,-179.23 89,-176 69.57,-166.35 49.79,-150.59 38.09,-140.52"/>
<polygon fill="#63b8ff" stroke="#63b8ff" points="108.63,-188.12 119.23,-188.09 110.93,-181.51 108.63,-188.12"/>
</a>
</g>
</g>
<!-- Node12&#45;&gt;Node2 -->
<g id="edge16_Node000012_Node000002" class="edge">
<title>Node12&#45;&gt;Node2</title>
<g id="a_edge16_Node000012_Node000002"><a xlink:title=" ">
<path fill="none" stroke="#63b8ff" d="M493.13,-187.65C490.67,-189.01 488.28,-190.46 486,-192 465.34,-205.94 470.65,-221.04 450,-235 445,-238.38 439.48,-241.32 433.79,-243.86"/>
<polygon fill="#63b8ff" stroke="#63b8ff" points="494.91,-190.68 502.32,-183.11 491.81,-184.4 494.91,-190.68"/>
</a>
</g>
</g>
<!-- Node12&#45;&gt;Node10 -->
<g id="edge17_Node000012_Node000010" class="edge">
<title>Node12&#45;&gt;Node10</title>
<g id="a_edge17_Node000012_Node000010"><a xlink:title=" ">
<path fill="none" stroke="#63b8ff" d="M475.84,-184.97C460.46,-188.07 444.78,-191.23 430.57,-194.1"/>
<polygon fill="#63b8ff" stroke="#63b8ff" points="476.78,-188.35 485.89,-182.94 475.4,-181.49 476.78,-188.35"/>
</a>
</g>
</g>
<!-- Node13&#45;&gt;Node7 -->
<g id="edge21_Node000013_Node000007" class="edge">
<title>Node13&#45;&gt;Node7</title>
<g id="a_edge21_Node000013_Node000007"><a xlink:title=" ">
<path fill="none" stroke="#63b8ff" d="M485.01,-59.57C414.21,-61.05 309.18,-63.25 242.16,-64.66"/>
<polygon fill="#63b8ff" stroke="#63b8ff" points="485.27,-63.07 495.2,-59.36 485.13,-56.07 485.27,-63.07"/>
</a>
</g>
</g>
<!-- Node14 -->
<g id="Node000014" class="node">
<title>Node14</title>
<g id="a_Node000014"><a xlink:href="namespacem__data__output.html#a0fabebb4b451b87d34228f7f186f1b64" target="_top" xlink:title="Computation of parameters, allocation procedures, and/or any other tasks needed to properly setup the...">
<polygon fill="white" stroke="#666666" points="450,-30 301,-30 301,0 450,0 450,-30"/>
<text text-anchor="start" x="309" y="-18" font-family="Helvetica,sans-Serif" font-size="10.00">m_data_output::s_initialize</text>
<text text-anchor="middle" x="375.5" y="-7" font-family="Helvetica,sans-Serif" font-size="10.00">_data_output_module</text>
</a>
</g>
</g>
<!-- Node13&#45;&gt;Node14 -->
<g id="edge19_Node000013_Node000014" class="edge">
<title>Node13&#45;&gt;Node14</title>
<g id="a_edge19_Node000013_Node000014"><a xlink:title=" ">
<path fill="none" stroke="#63b8ff" d="M486.05,-40.67C471.01,-37.15 455.31,-33.47 440.64,-30.03"/>
<polygon fill="#63b8ff" stroke="#63b8ff" points="485.29,-44.09 495.82,-42.96 486.88,-37.27 485.29,-44.09"/>
</a>
</g>
</g>
<!-- Node14&#45;&gt;Node7 -->
<g id="edge20_Node000014_Node000007" class="edge">
<title>Node14&#45;&gt;Node7</title>
<g id="a_edge20_Node000014_Node000007"><a xlink:title=" ">
<path fill="none" stroke="#63b8ff" d="M306.87,-32.55C283.74,-38.56 258.1,-45.21 235.82,-50.99"/>
<polygon fill="#63b8ff" stroke="#63b8ff" points="307.81,-35.93 316.61,-30.03 306.05,-29.15 307.81,-35.93"/>
</a>
</g>
</g>
</g>
</svg>
