<?xml version="1.0" encoding="UTF-8" standalone="no"?>
<!DOCTYPE svg PUBLIC "-//W3C//DTD SVG 1.1//EN"
 "http://www.w3.org/Graphics/SVG/1.1/DTD/svg11.dtd">
<!-- Generated by graphviz version 2.40.1 (20161225.0304)
 -->
<!-- Title: m_start_up::s_check_line_segment_patch_geometry Pages: 1 -->
<svg width="262pt" height="44pt"
 viewBox="0.00 0.00 262.00 44.00" xmlns="http://www.w3.org/2000/svg" xmlns:xlink="http://www.w3.org/1999/xlink">
<g id="graph0" class="graph" transform="scale(1 1) rotate(0) translate(4 40)">
<title>m_start_up::s_check_line_segment_patch_geometry</title>
<polygon fill="#ffffff" stroke="transparent" points="-4,4 -4,-40 258,-40 258,4 -4,4"/>
<!-- Node103 -->
<g id="node1" class="node">
<title>Node103</title>
<polygon fill="#bfbfbf" stroke="#000000" points="0,-.5 0,-35.5 74,-35.5 74,-.5 0,-.5"/>
<text text-anchor="start" x="8" y="-25.1" font-family="Helvetica,sans-Serif" font-size="8.00" fill="#000000">m_start_up::s_check</text>
<text text-anchor="start" x="8" y="-16.1" font-family="Helvetica,sans-Serif" font-size="8.00" fill="#000000">_line_segment_patch</text>
<text text-anchor="middle" x="37" y="-7.1" font-family="Helvetica,sans-Serif" font-size="8.00" fill="#000000">_geometry</text>
</g>
<!-- Node104 -->
<g id="node2" class="node">
<title>Node104</title>
<g id="a_node2"><a xlink:href="namespacem__start__up.html#ab5f7e03f1da1999ee699cec4f26370e0" target="_top" xlink:title="Checking that the user inputs make sense, i.e. that the individual choices are compatible with the co...">
<polygon fill="#ffffff" stroke="#000000" points="110,-5 110,-31 182,-31 182,-5 110,-5"/>
<text text-anchor="start" x="118" y="-20.6" font-family="Helvetica,sans-Serif" font-size="8.00" fill="#000000">m_start_up::s_check</text>
<text text-anchor="middle" x="146" y="-11.6" font-family="Helvetica,sans-Serif" font-size="8.00" fill="#000000">_input_file</text>
</a>
</g>
</g>
<!-- Node103&#45;&gt;Node104 -->
<g id="edge1" class="edge">
<title>Node103&#45;&gt;Node104</title>
<path fill="none" stroke="#191970" d="M84.3836,-18C92.8684,-18 101.5873,-18 109.6987,-18"/>
<polygon fill="#191970" stroke="#191970" points="84.2068,-14.5001 74.2068,-18 84.2067,-21.5001 84.2068,-14.5001"/>
</g>
<!-- Node105 -->
<g id="node3" class="node">
<title>Node105</title>
<g id="a_node3"><a xlink:href="p__main_8f90.html#aeec10ee8e2940c953967da3e374e1579" target="_top" xlink:title="This program takes care of setting up the initial condition and grid data for the multicomponent flow...">
<polygon fill="#ffffff" stroke="#000000" points="218,-9.5 218,-26.5 254,-26.5 254,-9.5 218,-9.5"/>
<text text-anchor="middle" x="236" y="-16.1" font-family="Helvetica,sans-Serif" font-size="8.00" fill="#000000">p_main</text>
</a>
</g>
</g>
<!-- Node104&#45;&gt;Node105 -->
<g id="edge2" class="edge">
<title>Node104&#45;&gt;Node105</title>
<path fill="none" stroke="#191970" d="M192.3258,-18C201.437,-18 210.4757,-18 217.9461,-18"/>
<polygon fill="#191970" stroke="#191970" points="192.0879,-14.5001 182.0879,-18 192.0878,-21.5001 192.0879,-14.5001"/>
</g>
</g>
</svg>
