<?xml version="1.0" encoding="UTF-8" standalone="no"?>
<!DOCTYPE svg PUBLIC "-//W3C//DTD SVG 1.1//EN"
 "http://www.w3.org/Graphics/SVG/1.1/DTD/svg11.dtd">
<!-- Generated by graphviz version 2.43.0 (0)
 -->
<!-- Title: m_checker_common::s_check_inputs_common Pages: 1 -->
<!--zoomable 829 -->

<svg id="main" version="1.1" xmlns="http://www.w3.org/2000/svg" xmlns:xlink="http://www.w3.org/1999/xlink" xml:space="preserve" onload="init(evt)">
<style type="text/css"><![CDATA[
.node, .edge {opacity: 0.7;}
.node.selected, .edge.selected {opacity: 1;}
.edge:hover path { stroke: red; }
.edge:hover polygon { stroke: red; fill: red; }
]]></style>

<defs>
  <circle id="rim" cx="0" cy="0" r="7"/>
  <circle id="rim2" cx="0" cy="0" r="3.5"/>
  <g id="zoomPlus">
    <use xlink:href="#rim" fill="#404040"><set attributeName="fill" to="#808080" begin="zoomplus.mouseover" end="zoomplus.mouseout"/></use>
    <path d="M-4,0h8M0,-4v8" fill="none" stroke="white" stroke-width="1.5" pointer-events="none"/>
  </g>
  <g id="zoomMin">
    <use xlink:href="#rim" fill="#404040"><set attributeName="fill" to="#808080" begin="zoomminus.mouseover" end="zoomminus.mouseout"/></use>
    <path d="M-4,0h8" fill="none" stroke="white" stroke-width="1.5" pointer-events="none"/>
  </g>
  <g id="arrowUp" transform="translate(30 24)">
    <use xlink:href="#rim"/>
    <path pointer-events="none" fill="none" stroke="white" stroke-width="1.5" d="M0,-3.0v7 M-2.5,-0.5L0,-3.0L2.5,-0.5"/>
  </g>
  <g id="arrowRight" transform="rotate(90) translate(36 -43)">
    <use xlink:href="#rim"/>
    <path pointer-events="none" fill="none" stroke="white" stroke-width="1.5" d="M0,-3.0v7 M-2.5,-0.5L0,-3.0L2.5,-0.5"/>
  </g>
  <g id="arrowDown" transform="rotate(180) translate(-30 -48)">
    <use xlink:href="#rim"/>
    <path pointer-events="none" fill="none" stroke="white" stroke-width="1.5" d="M0,-3.0v7 M-2.5,-0.5L0,-3.0L2.5,-0.5"/>
  </g>
  <g id="arrowLeft" transform="rotate(270) translate(-36 17)">
    <use xlink:href="#rim"/>
    <path pointer-events="none" fill="none" stroke="white" stroke-width="1.5" d="M0,-3.0v7 M-2.5,-0.5L0,-3.0L2.5,-0.5"/>
  </g>
  <g id="resetDef">
    <use xlink:href="#rim2" fill="#404040"><set attributeName="fill" to="#808080" begin="reset.mouseover" end="reset.mouseout"/></use>
  </g>
</defs>
<script type="application/ecmascript">
var viewWidth = 669;
var viewHeight = 829;
var sectionId = 'dynsection-6';
</script>
<script type="application/ecmascript" xlink:href="svg.min.js"/>
<svg id="graph" class="graph">
<g id="viewport">
<title>m_checker_common::s_check_inputs_common</title>
<!-- Node1 -->
<g id="Node000001" class="node">
<title>Node1</title>
<g id="a_Node000001"><a xlink:title="Checks compatibility of parameters in the input file. Used by all three stages.">
<polygon fill="#999999" stroke="#666666" points="134,-425 0,-425 0,-395 134,-395 134,-425"/>
<text text-anchor="start" x="8" y="-413" font-family="Helvetica,sans-Serif" font-size="10.00">m_checker_common::s</text>
<text text-anchor="middle" x="67" y="-402" font-family="Helvetica,sans-Serif" font-size="10.00">_check_inputs_common</text>
</a>
</g>
</g>
<!-- Node2 -->
<g id="Node000002" class="node">
<title>Node2</title>
<g id="a_Node000002"><a xlink:href="namespacem__checker__common.html#a338aa96ad89c8cf24a4bbc2ff4854fca" target="_top" xlink:title="Checks constraints on the adv_n flag. Called by s_check_inputs_common for pre&#45;processing and simulati...">
<polygon fill="white" stroke="#666666" points="314.5,-401 186.5,-401 186.5,-371 314.5,-371 314.5,-401"/>
<text text-anchor="start" x="194.5" y="-389" font-family="Helvetica,sans-Serif" font-size="10.00">m_checker_common::s</text>
<text text-anchor="middle" x="250.5" y="-378" font-family="Helvetica,sans-Serif" font-size="10.00">_check_inputs_adv_n</text>
</a>
</g>
</g>
<!-- Node1&#45;&gt;Node2 -->
<g id="edge1_Node000001_Node000002" class="edge">
<title>Node1&#45;&gt;Node2</title>
<g id="a_edge1_Node000001_Node000002"><a xlink:title=" ">
<path fill="none" stroke="#63b8ff" d="M134.04,-401.27C147.74,-399.46 162.26,-397.54 176.2,-395.69"/>
<polygon fill="#63b8ff" stroke="#63b8ff" points="176.78,-399.15 186.24,-394.37 175.86,-392.21 176.78,-399.15"/>
</a>
</g>
</g>
<!-- Node4 -->
<g id="Node000004" class="node">
<title>Node4</title>
<g id="a_Node000004"><a xlink:href="namespacem__checker__common.html#a60440046226eb692dd3126310abc954b" target="_top" xlink:title="Checks constraints on the boundary conditions in the x&#45;direction. Called by s_check_inputs_common for...">
<polygon fill="white" stroke="#666666" points="314.5,-353 186.5,-353 186.5,-323 314.5,-323 314.5,-353"/>
<text text-anchor="start" x="194.5" y="-341" font-family="Helvetica,sans-Serif" font-size="10.00">m_checker_common::s</text>
<text text-anchor="middle" x="250.5" y="-330" font-family="Helvetica,sans-Serif" font-size="10.00">_check_inputs_bc</text>
</a>
</g>
</g>
<!-- Node1&#45;&gt;Node4 -->
<g id="edge3_Node000001_Node000004" class="edge">
<title>Node1&#45;&gt;Node4</title>
<g id="a_edge3_Node000001_Node000004"><a xlink:title=" ">
<path fill="none" stroke="#63b8ff" d="M96.96,-394.98C117.12,-384.87 144.79,-371.68 170,-362 175.13,-360.03 180.5,-358.11 185.92,-356.28"/>
<polygon fill="#63b8ff" stroke="#63b8ff" points="187.27,-359.52 195.68,-353.08 185.09,-352.87 187.27,-359.52"/>
</a>
</g>
</g>
<!-- Node5 -->
<g id="Node000005" class="node">
<title>Node5</title>
<g id="a_Node000005"><a xlink:href="namespacem__checker__common.html#a2ff2c47878e2ca94e6d26b003e4601d7" target="_top" xlink:title="Checks constraints on the bubble parameters. Called by s_check_inputs_common for pre&#45;processing and s...">
<polygon fill="white" stroke="#666666" points="315,-186 186,-186 186,-156 315,-156 315,-186"/>
<text text-anchor="start" x="194" y="-174" font-family="Helvetica,sans-Serif" font-size="10.00">m_checker_common::s</text>
<text text-anchor="middle" x="250.5" y="-163" font-family="Helvetica,sans-Serif" font-size="10.00">_check_inputs_bubbles</text>
</a>
</g>
</g>
<!-- Node1&#45;&gt;Node5 -->
<g id="edge5_Node000001_Node000005" class="edge">
<title>Node1&#45;&gt;Node5</title>
<g id="a_edge5_Node000001_Node000005"><a xlink:title=" ">
<path fill="none" stroke="#63b8ff" d="M70.77,-394.95C78.75,-355.9 105.49,-250.51 170,-195 172.2,-193.1 174.55,-191.36 177.01,-189.75"/>
<polygon fill="#63b8ff" stroke="#63b8ff" points="178.77,-192.78 185.74,-184.8 175.31,-186.69 178.77,-192.78"/>
</a>
</g>
</g>
<!-- Node8 -->
<g id="Node000008" class="node">
<title>Node8</title>
<g id="a_Node000008"><a xlink:href="namespacem__checker__common.html#aebf926a4911082ef2beff5fd28d47891" target="_top" xlink:title="Checks constraints on the finite difference parameters. Called by s_check_inputs_common for simulatio...">
<polygon fill="white" stroke="#666666" points="314.5,-820.5 186.5,-820.5 186.5,-779.5 314.5,-779.5 314.5,-820.5"/>
<text text-anchor="start" x="194.5" y="-808.5" font-family="Helvetica,sans-Serif" font-size="10.00">m_checker_common::s</text>
<text text-anchor="start" x="194.5" y="-797.5" font-family="Helvetica,sans-Serif" font-size="10.00">_check_inputs_finite</text>
<text text-anchor="middle" x="250.5" y="-786.5" font-family="Helvetica,sans-Serif" font-size="10.00">_difference</text>
</a>
</g>
</g>
<!-- Node1&#45;&gt;Node8 -->
<g id="edge9_Node000001_Node000008" class="edge">
<title>Node1&#45;&gt;Node8</title>
<g id="a_edge9_Node000001_Node000008"><a xlink:title=" ">
<path fill="none" stroke="#63b8ff" d="M67.74,-425.29C67.65,-479.7 74.64,-666.19 170,-770 172.42,-772.63 175.09,-775.04 177.95,-777.23"/>
<polygon fill="#63b8ff" stroke="#63b8ff" points="176.17,-780.25 186.43,-782.87 180.05,-774.42 176.17,-780.25"/>
</a>
</g>
</g>
<!-- Node9 -->
<g id="Node000009" class="node">
<title>Node9</title>
<g id="a_Node000009"><a xlink:href="namespacem__checker__common.html#a7aaf5cf7c231ec77d3b60adfcb9232a5" target="_top" xlink:title="Checks constraints on the hypoelasticity parameters. Called by s_check_inputs_common for pre&#45;processi...">
<polygon fill="white" stroke="#666666" points="330.5,-761 170.5,-761 170.5,-731 330.5,-731 330.5,-761"/>
<text text-anchor="start" x="178.5" y="-749" font-family="Helvetica,sans-Serif" font-size="10.00">m_checker_common::s</text>
<text text-anchor="middle" x="250.5" y="-738" font-family="Helvetica,sans-Serif" font-size="10.00">_check_inputs_hypoelasticity</text>
</a>
</g>
</g>
<!-- Node1&#45;&gt;Node9 -->
<g id="edge11_Node000001_Node000009" class="edge">
<title>Node1&#45;&gt;Node9</title>
<g id="a_edge11_Node000001_Node000009"><a xlink:title=" ">
<path fill="none" stroke="#63b8ff" d="M68.28,-425.2C70.05,-475.25 82.59,-636.55 170,-722 171.1,-723.07 172.24,-724.09 173.42,-725.07"/>
<polygon fill="#63b8ff" stroke="#63b8ff" points="171.54,-728.03 181.74,-730.89 175.55,-722.29 171.54,-728.03"/>
</a>
</g>
</g>
<!-- Node10 -->
<g id="Node000010" class="node">
<title>Node10</title>
<g id="a_Node000010"><a xlink:href="namespacem__checker__common.html#aca8413f022abcd2ae73568a653117c9a" target="_top" xlink:title="Checks constraints on the Immersed Boundaries parameters. Called by s_check_inputs_common for pre&#45;pro...">
<polygon fill="white" stroke="#666666" points="314.5,-713 186.5,-713 186.5,-683 314.5,-683 314.5,-713"/>
<text text-anchor="start" x="194.5" y="-701" font-family="Helvetica,sans-Serif" font-size="10.00">m_checker_common::s</text>
<text text-anchor="middle" x="250.5" y="-690" font-family="Helvetica,sans-Serif" font-size="10.00">_check_inputs_ibm</text>
</a>
</g>
</g>
<!-- Node1&#45;&gt;Node10 -->
<g id="edge13_Node000001_Node000010" class="edge">
<title>Node1&#45;&gt;Node10</title>
<g id="a_edge13_Node000001_Node000010"><a xlink:title=" ">
<path fill="none" stroke="#63b8ff" d="M69.3,-425.07C73.98,-469.87 93.98,-603.51 170,-674 172.3,-676.14 174.79,-678.08 177.42,-679.86"/>
<polygon fill="#63b8ff" stroke="#63b8ff" points="175.8,-682.96 186.2,-684.95 179.31,-676.91 175.8,-682.96"/>
</a>
</g>
</g>
<!-- Node11 -->
<g id="Node000011" class="node">
<title>Node11</title>
<g id="a_Node000011"><a xlink:href="namespacem__checker__common.html#ae4cc02df552e32e1accb89367ae94243" target="_top" xlink:title="Checks constraints on model equations and number of fluids in the flow. Called by s_check_inputs_comm...">
<polygon fill="white" stroke="#666666" points="314.5,-664.5 186.5,-664.5 186.5,-623.5 314.5,-623.5 314.5,-664.5"/>
<text text-anchor="start" x="194.5" y="-652.5" font-family="Helvetica,sans-Serif" font-size="10.00">m_checker_common::s</text>
<text text-anchor="start" x="194.5" y="-641.5" font-family="Helvetica,sans-Serif" font-size="10.00">_check_inputs_model</text>
<text text-anchor="middle" x="250.5" y="-630.5" font-family="Helvetica,sans-Serif" font-size="10.00">_eqns_and_num_fluids</text>
</a>
</g>
</g>
<!-- Node1&#45;&gt;Node11 -->
<g id="edge15_Node000001_Node000011" class="edge">
<title>Node1&#45;&gt;Node11</title>
<g id="a_edge15_Node000001_Node000011"><a xlink:title=" ">
<path fill="none" stroke="#63b8ff" d="M71.49,-425.13C80.86,-462.48 110.02,-559.89 170,-614 172.33,-616.11 174.83,-618.07 177.45,-619.9"/>
<polygon fill="#63b8ff" stroke="#63b8ff" points="175.81,-623 186.15,-625.3 179.5,-617.05 175.81,-623"/>
</a>
</g>
</g>
<!-- Node12 -->
<g id="Node000012" class="node">
<title>Node12</title>
<g id="a_Node000012"><a xlink:href="namespacem__checker__common.html#abcfe8095ea79c59799aeac919ade0fff" target="_top" xlink:title="Checks constraints on the inputs for moving boundaries. Called by s_check_inputs_common for all three...">
<polygon fill="white" stroke="#666666" points="322.5,-605 178.5,-605 178.5,-575 322.5,-575 322.5,-605"/>
<text text-anchor="start" x="186.5" y="-593" font-family="Helvetica,sans-Serif" font-size="10.00">m_checker_common::s</text>
<text text-anchor="middle" x="250.5" y="-582" font-family="Helvetica,sans-Serif" font-size="10.00">_check_inputs_moving_bc</text>
</a>
</g>
</g>
<!-- Node1&#45;&gt;Node12 -->
<g id="edge17_Node000001_Node000012" class="edge">
<title>Node1&#45;&gt;Node12</title>
<g id="a_edge17_Node000001_Node000012"><a xlink:title=" ">
<path fill="none" stroke="#63b8ff" d="M73.81,-425.43C86.41,-456.74 119.22,-528 170,-566 171.88,-567.4 173.83,-568.73 175.86,-569.97"/>
<polygon fill="#63b8ff" stroke="#63b8ff" points="174.62,-573.28 185.08,-574.95 177.94,-567.12 174.62,-573.28"/>
</a>
</g>
</g>
<!-- Node13 -->
<g id="Node000013" class="node">
<title>Node13</title>
<g id="a_Node000013"><a xlink:href="namespacem__checker__common.html#a36bce663f6835f9be8da49f7957ad795" target="_top" xlink:title="Checks constraints on the phase change parameters. Called by s_check_inputs_common for pre&#45;processing...">
<polygon fill="white" stroke="#666666" points="314.5,-137.5 186.5,-137.5 186.5,-96.5 314.5,-96.5 314.5,-137.5"/>
<text text-anchor="start" x="194.5" y="-125.5" font-family="Helvetica,sans-Serif" font-size="10.00">m_checker_common::s</text>
<text text-anchor="start" x="194.5" y="-114.5" font-family="Helvetica,sans-Serif" font-size="10.00">_check_inputs_phase</text>
<text text-anchor="middle" x="250.5" y="-103.5" font-family="Helvetica,sans-Serif" font-size="10.00">_change</text>
</a>
</g>
</g>
<!-- Node1&#45;&gt;Node13 -->
<g id="edge19_Node000001_Node000013" class="edge">
<title>Node1&#45;&gt;Node13</title>
<g id="a_edge19_Node000001_Node000013"><a xlink:title=" ">
<path fill="none" stroke="#63b8ff" d="M69.58,-394.91C75.01,-350.61 96.77,-219.56 170,-147 172.36,-144.66 174.92,-142.51 177.62,-140.51"/>
<polygon fill="#63b8ff" stroke="#63b8ff" points="179.62,-143.39 186.12,-135.02 175.82,-137.51 179.62,-143.39"/>
</a>
</g>
</g>
<!-- Node14 -->
<g id="Node000014" class="node">
<title>Node14</title>
<g id="a_Node000014"><a xlink:href="namespacem__checker__common.html#a12d2c159000d13213ad316f13192e0d4" target="_top" xlink:title="Checks constraints on the QBMM and polydisperse bubble parameters. Called by s_check_inputs_common fo...">
<polygon fill="white" stroke="#666666" points="323.5,-304.5 177.5,-304.5 177.5,-263.5 323.5,-263.5 323.5,-304.5"/>
<text text-anchor="start" x="185.5" y="-292.5" font-family="Helvetica,sans-Serif" font-size="10.00">m_checker_common::s</text>
<text text-anchor="start" x="185.5" y="-281.5" font-family="Helvetica,sans-Serif" font-size="10.00">_check_inputs_qbmm_and</text>
<text text-anchor="middle" x="250.5" y="-270.5" font-family="Helvetica,sans-Serif" font-size="10.00">_polydisperse</text>
</a>
</g>
</g>
<!-- Node1&#45;&gt;Node14 -->
<g id="edge22_Node000001_Node000014" class="edge">
<title>Node1&#45;&gt;Node14</title>
<g id="a_edge22_Node000001_Node000014"><a xlink:title=" ">
<path fill="none" stroke="#63b8ff" d="M80.71,-394.73C98.7,-373.96 133.49,-336.79 170,-314 172.75,-312.28 175.62,-310.64 178.56,-309.07"/>
<polygon fill="#63b8ff" stroke="#63b8ff" points="180.18,-312.17 187.57,-304.58 177.06,-305.91 180.18,-312.17"/>
</a>
</g>
</g>
<!-- Node15 -->
<g id="Node000015" class="node">
<title>Node15</title>
<g id="a_Node000015"><a xlink:href="namespacem__checker__common.html#a7363fae983f044870a56f2a21a25c8f6" target="_top" xlink:title="Checks constraints on dimensionality and the number of cells for the grid. Called by s_check_inputs_c...">
<polygon fill="white" stroke="#666666" points="322,-556.5 179,-556.5 179,-515.5 322,-515.5 322,-556.5"/>
<text text-anchor="start" x="187" y="-544.5" font-family="Helvetica,sans-Serif" font-size="10.00">m_checker_common::s</text>
<text text-anchor="start" x="187" y="-533.5" font-family="Helvetica,sans-Serif" font-size="10.00">_check_inputs_simulation</text>
<text text-anchor="middle" x="250.5" y="-522.5" font-family="Helvetica,sans-Serif" font-size="10.00">_domain</text>
</a>
</g>
</g>
<!-- Node1&#45;&gt;Node15 -->
<g id="edge25_Node000001_Node000015" class="edge">
<title>Node1&#45;&gt;Node15</title>
<g id="a_edge25_Node000001_Node000015"><a xlink:title=" ">
<path fill="none" stroke="#63b8ff" d="M80.71,-425.27C98.7,-446.04 133.49,-483.21 170,-506 172.75,-507.72 175.62,-509.36 178.56,-510.93"/>
<polygon fill="#63b8ff" stroke="#63b8ff" points="177.06,-514.09 187.57,-515.42 180.18,-507.83 177.06,-514.09"/>
</a>
</g>
</g>
<!-- Node16 -->
<g id="Node000016" class="node">
<title>Node16</title>
<g id="a_Node000016"><a xlink:href="namespacem__checker__common.html#acb9da079048c2c1239f4b3a18de2f1e6" target="_top" xlink:title="Checks constraints on the stiffened equation of state fluids parameters. Called by s_check_inputs_com...">
<polygon fill="white" stroke="#666666" points="328.5,-78 172.5,-78 172.5,-48 328.5,-48 328.5,-78"/>
<text text-anchor="start" x="180.5" y="-66" font-family="Helvetica,sans-Serif" font-size="10.00">m_checker_common::s</text>
<text text-anchor="middle" x="250.5" y="-55" font-family="Helvetica,sans-Serif" font-size="10.00">_check_inputs_stiffened_eos</text>
</a>
</g>
</g>
<!-- Node1&#45;&gt;Node16 -->
<g id="edge27_Node000001_Node000016" class="edge">
<title>Node1&#45;&gt;Node16</title>
<g id="a_edge27_Node000001_Node000016"><a xlink:title=" ">
<path fill="none" stroke="#63b8ff" d="M68.08,-394.99C69.19,-344.06 79.82,-176.04 170,-87 171.09,-85.92 172.23,-84.9 173.4,-83.91"/>
<polygon fill="#63b8ff" stroke="#63b8ff" points="175.54,-86.69 181.7,-78.07 171.51,-80.96 175.54,-86.69"/>
</a>
</g>
</g>
<!-- Node18 -->
<g id="Node000018" class="node">
<title>Node18</title>
<g id="a_Node000018"><a xlink:href="namespacem__checker__common.html#a2abda84a3552ab0b6ed2288699f40806" target="_top" xlink:title="Checks constraints on the surface tension parameters. Called by s_check_inputs_common for all three s...">
<polygon fill="white" stroke="#666666" points="314.5,-245.5 186.5,-245.5 186.5,-204.5 314.5,-204.5 314.5,-245.5"/>
<text text-anchor="start" x="194.5" y="-233.5" font-family="Helvetica,sans-Serif" font-size="10.00">m_checker_common::s</text>
<text text-anchor="start" x="194.5" y="-222.5" font-family="Helvetica,sans-Serif" font-size="10.00">_check_inputs_surface</text>
<text text-anchor="middle" x="250.5" y="-211.5" font-family="Helvetica,sans-Serif" font-size="10.00">_tension</text>
</a>
</g>
</g>
<!-- Node1&#45;&gt;Node18 -->
<g id="edge31_Node000001_Node000018" class="edge">
<title>Node1&#45;&gt;Node18</title>
<g id="a_edge31_Node000001_Node000018"><a xlink:title=" ">
<path fill="none" stroke="#63b8ff" d="M74,-394.81C86.92,-363.92 120.32,-293.42 170,-254 172.4,-252.1 174.93,-250.31 177.56,-248.64"/>
<polygon fill="#63b8ff" stroke="#63b8ff" points="179.31,-251.67 186.25,-243.67 175.84,-245.6 179.31,-251.67"/>
</a>
</g>
</g>
<!-- Node19 -->
<g id="Node000019" class="node">
<title>Node19</title>
<g id="a_Node000019"><a xlink:href="namespacem__checker__common.html#aa25ab374da29ce7fd0ba0e37e1c274d6" target="_top" xlink:title="Checks constraints on the time&#45;stepping parameters. Called by s_check_inputs_common for simulation an...">
<polygon fill="white" stroke="#666666" points="331,-497 170,-497 170,-467 331,-467 331,-497"/>
<text text-anchor="start" x="178" y="-485" font-family="Helvetica,sans-Serif" font-size="10.00">m_checker_common::s</text>
<text text-anchor="middle" x="250.5" y="-474" font-family="Helvetica,sans-Serif" font-size="10.00">_check_inputs_time_stepping</text>
</a>
</g>
</g>
<!-- Node1&#45;&gt;Node19 -->
<g id="edge34_Node000001_Node000019" class="edge">
<title>Node1&#45;&gt;Node19</title>
<g id="a_edge34_Node000001_Node000019"><a xlink:title=" ">
<path fill="none" stroke="#63b8ff" d="M96.96,-425.02C117.12,-435.13 144.79,-448.32 170,-458 175.13,-459.97 180.5,-461.89 185.92,-463.72"/>
<polygon fill="#63b8ff" stroke="#63b8ff" points="185.09,-467.13 195.68,-466.92 187.27,-460.48 185.09,-467.13"/>
</a>
</g>
</g>
<!-- Node20 -->
<g id="Node000020" class="node">
<title>Node20</title>
<g id="a_Node000020"><a xlink:href="namespacem__checker__common.html#a5e3c218420704d543eab2759272e16f8" target="_top" xlink:title="Checks constraints regarding WENO order. Called by s_check_inputs_common for all three stages.">
<polygon fill="white" stroke="#666666" points="314.5,-449 186.5,-449 186.5,-419 314.5,-419 314.5,-449"/>
<text text-anchor="start" x="194.5" y="-437" font-family="Helvetica,sans-Serif" font-size="10.00">m_checker_common::s</text>
<text text-anchor="middle" x="250.5" y="-426" font-family="Helvetica,sans-Serif" font-size="10.00">_check_inputs_weno</text>
</a>
</g>
</g>
<!-- Node1&#45;&gt;Node20 -->
<g id="edge36_Node000001_Node000020" class="edge">
<title>Node1&#45;&gt;Node20</title>
<g id="a_edge36_Node000001_Node000020"><a xlink:title=" ">
<path fill="none" stroke="#63b8ff" d="M134.04,-418.73C147.74,-420.54 162.26,-422.46 176.2,-424.31"/>
<polygon fill="#63b8ff" stroke="#63b8ff" points="175.86,-427.79 186.24,-425.63 176.78,-420.85 175.86,-427.79"/>
</a>
</g>
</g>
<!-- Node21 -->
<g id="Node000021" class="node">
<title>Node21</title>
<g id="a_Node000021"><a xlink:href="namespacem__checker__common.html#acf11b2467e1adeb65d8400c2bca5a97d" target="_top" xlink:title=" ">
<polygon fill="white" stroke="#666666" points="314.5,-30 186.5,-30 186.5,0 314.5,0 314.5,-30"/>
<text text-anchor="start" x="194.5" y="-18" font-family="Helvetica,sans-Serif" font-size="10.00">m_checker_common::s</text>
<text text-anchor="middle" x="250.5" y="-7" font-family="Helvetica,sans-Serif" font-size="10.00">_check_total_cells</text>
</a>
</g>
</g>
<!-- Node1&#45;&gt;Node21 -->
<g id="edge38_Node000001_Node000021" class="edge">
<title>Node1&#45;&gt;Node21</title>
<g id="a_edge38_Node000001_Node000021"><a xlink:title=" ">
<path fill="none" stroke="#63b8ff" d="M67.35,-394.79C65.85,-338.98 68.32,-143.24 170,-39 172.32,-36.63 174.86,-34.49 177.56,-32.55"/>
<polygon fill="#63b8ff" stroke="#63b8ff" points="179.39,-35.54 186.13,-27.37 175.76,-29.56 179.39,-35.54"/>
</a>
</g>
</g>
<!-- Node3 -->
<g id="Node000003" class="node">
<title>Node3</title>
<g id="a_Node000003"><a xlink:href="m__mpi__common_8fpp_8f90.html#ad9e1329e498b65ad4256658675d6f797" target="_top" xlink:title="The subroutine terminates the MPI execution environment.">
<polygon fill="white" stroke="#666666" points="463.5,-419.5 386.5,-419.5 386.5,-400.5 463.5,-400.5 463.5,-419.5"/>
<text text-anchor="middle" x="425" y="-407.5" font-family="Helvetica,sans-Serif" font-size="10.00">s_mpi_abort</text>
</a>
</g>
</g>
<!-- Node2&#45;&gt;Node3 -->
<g id="edge2_Node000002_Node000003" class="edge">
<title>Node2&#45;&gt;Node3</title>
<g id="a_edge2_Node000002_Node000003"><a xlink:title=" ">
<path fill="none" stroke="#63b8ff" d="M314.75,-394.8C335.13,-397.64 357.35,-400.73 376.41,-403.38"/>
<polygon fill="#63b8ff" stroke="#63b8ff" points="375.95,-406.85 386.34,-404.76 376.92,-399.92 375.95,-406.85"/>
</a>
</g>
</g>
<!-- Node4&#45;&gt;Node3 -->
<g id="edge4_Node000004_Node000003" class="edge">
<title>Node4&#45;&gt;Node3</title>
<g id="a_edge4_Node000004_Node000003"><a xlink:title=" ">
<path fill="none" stroke="#63b8ff" d="M306.27,-353.09C314.64,-355.81 323.12,-358.81 331,-362 354.66,-371.58 380.37,-385.11 398.74,-395.36"/>
<polygon fill="#63b8ff" stroke="#63b8ff" points="397.21,-398.51 407.63,-400.38 400.65,-392.42 397.21,-398.51"/>
</a>
</g>
</g>
<!-- Node5&#45;&gt;Node3 -->
<g id="edge8_Node000005_Node000003" class="edge">
<title>Node5&#45;&gt;Node3</title>
<g id="a_edge8_Node000005_Node000003"><a xlink:title=" ">
<path fill="none" stroke="#63b8ff" d="M315.02,-184.43C320.81,-187.3 326.26,-190.78 331,-195 391.08,-248.53 413.84,-347.75 421.08,-390.05"/>
<polygon fill="#63b8ff" stroke="#63b8ff" points="417.67,-390.85 422.7,-400.17 424.58,-389.75 417.67,-390.85"/>
</a>
</g>
</g>
<!-- Node6 -->
<g id="Node000006" class="node">
<title>Node6</title>
<g id="a_Node000006"><a xlink:href="namespacem__helper__basic.html#af1ad5f2cff7ebf5c909a7fc212815ff2" target="_top" xlink:title="Checks if a real(kind(0d0)) variable is of default value.">
<polygon fill="white" stroke="#666666" points="483,-186 367,-186 367,-156 483,-156 483,-186"/>
<text text-anchor="start" x="375" y="-174" font-family="Helvetica,sans-Serif" font-size="10.00">m_helper_basic::f_is</text>
<text text-anchor="middle" x="425" y="-163" font-family="Helvetica,sans-Serif" font-size="10.00">_default</text>
</a>
</g>
</g>
<!-- Node5&#45;&gt;Node6 -->
<g id="edge6_Node000005_Node000006" class="edge">
<title>Node5&#45;&gt;Node6</title>
<g id="a_edge6_Node000005_Node000006"><a xlink:title=" ">
<path fill="none" stroke="#63b8ff" d="M315.24,-171C328.7,-171 342.95,-171 356.54,-171"/>
<polygon fill="#63b8ff" stroke="#63b8ff" points="356.78,-174.5 366.78,-171 356.78,-167.5 356.78,-174.5"/>
</a>
</g>
</g>
<!-- Node7 -->
<g id="Node000007" class="node">
<title>Node7</title>
<g id="a_Node000007"><a xlink:href="namespacem__helper__basic.html#a4d4fbabb3807eb662390dd48ef95330d" target="_top" xlink:title="This procedure checks if two floating point numbers of kind(0d0) are within tolerance.">
<polygon fill="white" stroke="#666666" points="661,-186 519,-186 519,-156 661,-156 661,-186"/>
<text text-anchor="start" x="527" y="-174" font-family="Helvetica,sans-Serif" font-size="10.00">m_helper_basic::f_approx</text>
<text text-anchor="middle" x="590" y="-163" font-family="Helvetica,sans-Serif" font-size="10.00">_equal</text>
</a>
</g>
</g>
<!-- Node6&#45;&gt;Node7 -->
<g id="edge7_Node000006_Node000007" class="edge">
<title>Node6&#45;&gt;Node7</title>
<g id="a_edge7_Node000006_Node000007"><a xlink:title=" ">
<path fill="none" stroke="#63b8ff" d="M483.01,-171C491.32,-171 500.01,-171 508.68,-171"/>
<polygon fill="#63b8ff" stroke="#63b8ff" points="508.83,-174.5 518.83,-171 508.83,-167.5 508.83,-174.5"/>
</a>
</g>
</g>
<!-- Node8&#45;&gt;Node3 -->
<g id="edge10_Node000008_Node000003" class="edge">
<title>Node8&#45;&gt;Node3</title>
<g id="a_edge10_Node000008_Node000003"><a xlink:title=" ">
<path fill="none" stroke="#63b8ff" d="M314.69,-782.98C320.76,-779.44 326.37,-775.16 331,-770 421.94,-668.66 426.16,-489.91 424.82,-430.12"/>
<polygon fill="#63b8ff" stroke="#63b8ff" points="428.31,-429.69 424.51,-419.8 421.32,-429.91 428.31,-429.69"/>
</a>
</g>
</g>
<!-- Node9&#45;&gt;Node3 -->
<g id="edge12_Node000009_Node000003" class="edge">
<title>Node9&#45;&gt;Node3</title>
<g id="a_edge12_Node000009_Node000003"><a xlink:title=" ">
<path fill="none" stroke="#63b8ff" d="M319.36,-730.99C323.6,-728.45 327.54,-725.47 331,-722 414.06,-638.65 423.53,-484.52 424.17,-429.86"/>
<polygon fill="#63b8ff" stroke="#63b8ff" points="427.67,-429.77 424.2,-419.77 420.67,-429.76 427.67,-429.77"/>
</a>
</g>
</g>
<!-- Node10&#45;&gt;Node3 -->
<g id="edge14_Node000010_Node000003" class="edge">
<title>Node10&#45;&gt;Node3</title>
<g id="a_edge14_Node000010_Node000003"><a xlink:title=" ">
<path fill="none" stroke="#63b8ff" d="M314.54,-685.3C320.57,-682.29 326.21,-678.58 331,-674 402.72,-605.47 419.2,-478.37 422.93,-429.68"/>
<polygon fill="#63b8ff" stroke="#63b8ff" points="426.43,-429.76 423.6,-419.55 419.44,-429.3 426.43,-429.76"/>
</a>
</g>
</g>
<!-- Node11&#45;&gt;Node3 -->
<g id="edge16_Node000011_Node000003" class="edge">
<title>Node11&#45;&gt;Node3</title>
<g id="a_edge16_Node000011_Node000003"><a xlink:title=" ">
<path fill="none" stroke="#63b8ff" d="M314.61,-625.7C320.55,-622.4 326.15,-618.53 331,-614 386.87,-561.75 411.77,-469.5 420.32,-429.46"/>
<polygon fill="#63b8ff" stroke="#63b8ff" points="423.76,-430.12 422.31,-419.62 416.9,-428.73 423.76,-430.12"/>
</a>
</g>
</g>
<!-- Node12&#45;&gt;Node3 -->
<g id="edge18_Node000012_Node000003" class="edge">
<title>Node12&#45;&gt;Node3</title>
<g id="a_edge18_Node000012_Node000003"><a xlink:title=" ">
<path fill="none" stroke="#63b8ff" d="M316.48,-574.96C321.64,-572.43 326.57,-569.46 331,-566 377.66,-529.55 405.9,-462.64 417.65,-429.57"/>
<polygon fill="#63b8ff" stroke="#63b8ff" points="421.08,-430.34 421,-419.74 414.46,-428.08 421.08,-430.34"/>
</a>
</g>
</g>
<!-- Node13&#45;&gt;Node3 -->
<g id="edge21_Node000013_Node000003" class="edge">
<title>Node13&#45;&gt;Node3</title>
<g id="a_edge21_Node000013_Node000003"><a xlink:title=" ">
<path fill="none" stroke="#63b8ff" d="M314.64,-134.65C320.64,-138.08 326.25,-142.15 331,-147 400.01,-217.47 418.08,-342.28 422.58,-390.36"/>
<polygon fill="#63b8ff" stroke="#63b8ff" points="419.1,-390.7 423.42,-400.38 426.07,-390.12 419.1,-390.7"/>
</a>
</g>
</g>
<!-- Node13&#45;&gt;Node6 -->
<g id="edge20_Node000013_Node000006" class="edge">
<title>Node13&#45;&gt;Node6</title>
<g id="a_edge20_Node000013_Node000006"><a xlink:title=" ">
<path fill="none" stroke="#63b8ff" d="M314.75,-136.8C331.63,-142.09 349.78,-147.77 366.34,-152.95"/>
<polygon fill="#63b8ff" stroke="#63b8ff" points="365.3,-156.29 375.89,-155.94 367.39,-149.61 365.3,-156.29"/>
</a>
</g>
</g>
<!-- Node14&#45;&gt;Node3 -->
<g id="edge24_Node000014_Node000003" class="edge">
<title>Node14&#45;&gt;Node3</title>
<g id="a_edge24_Node000014_Node000003"><a xlink:title=" ">
<path fill="none" stroke="#63b8ff" d="M314.01,-304.51C319.93,-307.36 325.7,-310.52 331,-314 364.1,-335.73 394.39,-371.14 410.91,-392.34"/>
<polygon fill="#63b8ff" stroke="#63b8ff" points="408.27,-394.65 417.12,-400.48 413.83,-390.4 408.27,-394.65"/>
</a>
</g>
</g>
<!-- Node14&#45;&gt;Node6 -->
<g id="edge23_Node000014_Node000006" class="edge">
<title>Node14&#45;&gt;Node6</title>
<g id="a_edge23_Node000014_Node000006"><a xlink:title=" ">
<path fill="none" stroke="#63b8ff" d="M312.92,-263.47C319.18,-260.6 325.32,-257.44 331,-254 358.69,-237.22 385.78,-211.7 403.52,-193.39"/>
<polygon fill="#63b8ff" stroke="#63b8ff" points="406.16,-195.69 410.52,-186.03 401.09,-190.87 406.16,-195.69"/>
</a>
</g>
</g>
<!-- Node15&#45;&gt;Node3 -->
<g id="edge26_Node000015_Node000003" class="edge">
<title>Node15&#45;&gt;Node3</title>
<g id="a_edge26_Node000015_Node000003"><a xlink:title=" ">
<path fill="none" stroke="#63b8ff" d="M314.01,-515.49C319.93,-512.64 325.7,-509.48 331,-506 364.1,-484.27 394.39,-448.86 410.91,-427.66"/>
<polygon fill="#63b8ff" stroke="#63b8ff" points="413.83,-429.6 417.12,-419.52 408.27,-425.35 413.83,-429.6"/>
</a>
</g>
</g>
<!-- Node16&#45;&gt;Node3 -->
<g id="edge30_Node000016_Node000003" class="edge">
<title>Node16&#45;&gt;Node3</title>
<g id="a_edge30_Node000016_Node000003"><a xlink:title=" ">
<path fill="none" stroke="#63b8ff" d="M319.77,-78.2C323.86,-80.7 327.66,-83.61 331,-87 342.12,-98.26 401.17,-322.36 418.94,-390.51"/>
<polygon fill="#63b8ff" stroke="#63b8ff" points="415.6,-391.58 421.51,-400.38 422.37,-389.82 415.6,-391.58"/>
</a>
</g>
</g>
<!-- Node16&#45;&gt;Node6 -->
<g id="edge28_Node000016_Node000006" class="edge">
<title>Node16&#45;&gt;Node6</title>
<g id="a_edge28_Node000016_Node000006"><a xlink:title=" ">
<path fill="none" stroke="#63b8ff" d="M311.73,-78.05C318.41,-80.63 324.97,-83.6 331,-87 359.51,-103.1 386.64,-129.3 404.16,-148.16"/>
<polygon fill="#63b8ff" stroke="#63b8ff" points="401.74,-150.7 411.06,-155.74 406.92,-145.99 401.74,-150.7"/>
</a>
</g>
</g>
<!-- Node17 -->
<g id="Node000017" class="node">
<title>Node17</title>
<g id="a_Node000017"><a xlink:href="m__helper_8fpp_8f90.html#a8a0505b2bd4f3d8cb2bf3ce16cfe01e3" target="_top" xlink:title=" ">
<polygon fill="white" stroke="#666666" points="461.5,-48.5 388.5,-48.5 388.5,-29.5 461.5,-29.5 461.5,-48.5"/>
<text text-anchor="middle" x="425" y="-36.5" font-family="Helvetica,sans-Serif" font-size="10.00">s_int_to_str</text>
</a>
</g>
</g>
<!-- Node16&#45;&gt;Node17 -->
<g id="edge29_Node000016_Node000017" class="edge">
<title>Node16&#45;&gt;Node17</title>
<g id="a_edge29_Node000016_Node000017"><a xlink:title=" ">
<path fill="none" stroke="#63b8ff" d="M328.67,-52.26C345.58,-49.91 362.96,-47.49 378.17,-45.38"/>
<polygon fill="#63b8ff" stroke="#63b8ff" points="378.9,-48.81 388.32,-43.96 377.94,-41.88 378.9,-48.81"/>
</a>
</g>
</g>
<!-- Node18&#45;&gt;Node3 -->
<g id="edge33_Node000018_Node000003" class="edge">
<title>Node18&#45;&gt;Node3</title>
<g id="a_edge33_Node000018_Node000003"><a xlink:title=" ">
<path fill="none" stroke="#63b8ff" d="M314.52,-243.24C320.4,-246.32 326.02,-249.88 331,-254 376.61,-291.76 405.34,-358.05 417.42,-390.71"/>
<polygon fill="#63b8ff" stroke="#63b8ff" points="414.22,-392.16 420.88,-400.41 420.82,-389.81 414.22,-392.16"/>
</a>
</g>
</g>
<!-- Node18&#45;&gt;Node6 -->
<g id="edge32_Node000018_Node000006" class="edge">
<title>Node18&#45;&gt;Node6</title>
<g id="a_edge32_Node000018_Node000006"><a xlink:title=" ">
<path fill="none" stroke="#63b8ff" d="M314.75,-205.2C331.63,-199.91 349.78,-194.23 366.34,-189.05"/>
<polygon fill="#63b8ff" stroke="#63b8ff" points="367.39,-192.39 375.89,-186.06 365.3,-185.71 367.39,-192.39"/>
</a>
</g>
</g>
<!-- Node19&#45;&gt;Node3 -->
<g id="edge35_Node000019_Node000003" class="edge">
<title>Node19&#45;&gt;Node3</title>
<g id="a_edge35_Node000019_Node000003"><a xlink:title=" ">
<path fill="none" stroke="#63b8ff" d="M306.27,-466.91C314.64,-464.19 323.12,-461.19 331,-458 354.66,-448.42 380.37,-434.89 398.74,-424.64"/>
<polygon fill="#63b8ff" stroke="#63b8ff" points="400.65,-427.58 407.63,-419.62 397.21,-421.49 400.65,-427.58"/>
</a>
</g>
</g>
<!-- Node20&#45;&gt;Node3 -->
<g id="edge37_Node000020_Node000003" class="edge">
<title>Node20&#45;&gt;Node3</title>
<g id="a_edge37_Node000020_Node000003"><a xlink:title=" ">
<path fill="none" stroke="#63b8ff" d="M314.75,-425.2C335.13,-422.36 357.35,-419.27 376.41,-416.62"/>
<polygon fill="#63b8ff" stroke="#63b8ff" points="376.92,-420.08 386.34,-415.24 375.95,-413.15 376.92,-420.08"/>
</a>
</g>
</g>
<!-- Node21&#45;&gt;Node3 -->
<g id="edge40_Node000021_Node000003" class="edge">
<title>Node21&#45;&gt;Node3</title>
<g id="a_edge40_Node000021_Node000003"><a xlink:title=" ">
<path fill="none" stroke="#63b8ff" d="M314.69,-26.98C320.76,-30.11 326.37,-34.05 331,-39 379.62,-90.96 349.88,-125.93 367,-195 384.93,-267.32 408.21,-352.76 418.59,-390.46"/>
<polygon fill="#63b8ff" stroke="#63b8ff" points="415.24,-391.46 421.27,-400.17 421.99,-389.6 415.24,-391.46"/>
</a>
</g>
</g>
<!-- Node21&#45;&gt;Node17 -->
<g id="edge39_Node000021_Node000017" class="edge">
<title>Node21&#45;&gt;Node17</title>
<g id="a_edge39_Node000021_Node000017"><a xlink:title=" ">
<path fill="none" stroke="#63b8ff" d="M314.75,-23.8C335.78,-26.73 358.78,-29.93 378.22,-32.63"/>
<polygon fill="#63b8ff" stroke="#63b8ff" points="377.95,-36.13 388.33,-34.04 378.91,-29.19 377.95,-36.13"/>
</a>
</g>
</g>
</g>
</svg>

<g id="navigator" transform="translate(0 0)" fill="#404254">
  <rect fill="#f2f5e9" fill-opacity="0.5" stroke="#606060" stroke-width=".5" x="0" y="0" width="60" height="60"/>
  <use id="zoomplus" xlink:href="#zoomPlus" x="17" y="9" onmousedown="handleZoom(evt,'in')"/>
  <use id="zoomminus" xlink:href="#zoomMin" x="42" y="9" onmousedown="handleZoom(evt,'out')"/>
  <use id="reset" xlink:href="#resetDef" x="30" y="36" onmousedown="handleReset()"/>
   <use id="arrowup" xlink:href="#arrowUp" x="0" y="0" onmousedown="handlePan(0,-1)"/>
  <use id="arrowright" xlink:href="#arrowRight" x="0" y="0" onmousedown="handlePan(1,0)"/>
  <use id="arrowdown" xlink:href="#arrowDown" x="0" y="0" onmousedown="handlePan(0,1)"/>
  <use id="arrowleft" xlink:href="#arrowLeft" x="0" y="0" onmousedown="handlePan(-1,0)"/>
</g>
<svg viewBox="0 0 15 15" width="100%" height="30px" preserveAspectRatio="xMaxYMin meet">
 <g id="arrow_out" transform="scale(0.3 0.3)">
  <a xlink:href="namespacem__checker__common_a74f42bff05dce7a5d2d873832fb68802_cgraph_org.svg" target="_base">
   <rect id="button" ry="5" rx="5" y="6" x="6" height="38" width="38"
        fill="#f2f5e9" fill-opacity="0.5" stroke="#606060" stroke-width="1.0"/>
   <path id="arrow"
     d="M 11.500037,31.436501 C 11.940474,20.09759 22.043105,11.32322 32.158766,21.979434 L 37.068811,17.246167 C 37.068811,17.246167 37.088388,32 37.088388,32 L 22.160133,31.978069 C 22.160133,31.978069 26.997745,27.140456 26.997745,27.140456 C 18.528582,18.264221 13.291696,25.230495 11.500037,31.436501 z"
     style="fill:#404040;"/>
  </a>
 </g>
</svg>

<style type='text/css'>
<![CDATA[
[data-mouse-over-selected='false'] { opacity: 0.7; }
[data-mouse-over-selected='true']  { opacity: 1.0; }
]]>
</style>
<script type="application/ecmascript"><![CDATA[
document.addEventListener('DOMContentLoaded', (event) => {
  highlightEdges();
  highlightAdjacentNodes();
});
]]></script>
</svg>
