<?xml version="1.0" encoding="UTF-8" standalone="no"?>
<!DOCTYPE svg PUBLIC "-//W3C//DTD SVG 1.1//EN"
 "http://www.w3.org/Graphics/SVG/1.1/DTD/svg11.dtd">
<!-- Generated by graphviz version 2.43.0 (0)
 -->
<!-- Title: m_checker::s_check_inputs Pages: 1 -->
<!--zoomable 401 -->

<svg id="main" version="1.1" xmlns="http://www.w3.org/2000/svg" xmlns:xlink="http://www.w3.org/1999/xlink" xml:space="preserve" onload="init(evt)">
<style type="text/css"><![CDATA[
.node, .edge {opacity: 0.7;}
.node.selected, .edge.selected {opacity: 1;}
.edge:hover path { stroke: red; }
.edge:hover polygon { stroke: red; fill: red; }
]]></style>

<defs>
  <circle id="rim" cx="0" cy="0" r="7"/>
  <circle id="rim2" cx="0" cy="0" r="3.5"/>
  <g id="zoomPlus">
    <use xlink:href="#rim" fill="#404040"><set attributeName="fill" to="#808080" begin="zoomplus.mouseover" end="zoomplus.mouseout"/></use>
    <path d="M-4,0h8M0,-4v8" fill="none" stroke="white" stroke-width="1.5" pointer-events="none"/>
  </g>
  <g id="zoomMin">
    <use xlink:href="#rim" fill="#404040"><set attributeName="fill" to="#808080" begin="zoomminus.mouseover" end="zoomminus.mouseout"/></use>
    <path d="M-4,0h8" fill="none" stroke="white" stroke-width="1.5" pointer-events="none"/>
  </g>
  <g id="arrowUp" transform="translate(30 24)">
    <use xlink:href="#rim"/>
    <path pointer-events="none" fill="none" stroke="white" stroke-width="1.5" d="M0,-3.0v7 M-2.5,-0.5L0,-3.0L2.5,-0.5"/>
  </g>
  <g id="arrowRight" transform="rotate(90) translate(36 -43)">
    <use xlink:href="#rim"/>
    <path pointer-events="none" fill="none" stroke="white" stroke-width="1.5" d="M0,-3.0v7 M-2.5,-0.5L0,-3.0L2.5,-0.5"/>
  </g>
  <g id="arrowDown" transform="rotate(180) translate(-30 -48)">
    <use xlink:href="#rim"/>
    <path pointer-events="none" fill="none" stroke="white" stroke-width="1.5" d="M0,-3.0v7 M-2.5,-0.5L0,-3.0L2.5,-0.5"/>
  </g>
  <g id="arrowLeft" transform="rotate(270) translate(-36 17)">
    <use xlink:href="#rim"/>
    <path pointer-events="none" fill="none" stroke="white" stroke-width="1.5" d="M0,-3.0v7 M-2.5,-0.5L0,-3.0L2.5,-0.5"/>
  </g>
  <g id="resetDef">
    <use xlink:href="#rim2" fill="#404040"><set attributeName="fill" to="#808080" begin="reset.mouseover" end="reset.mouseout"/></use>
  </g>
</defs>
<script type="application/ecmascript">
var viewWidth = 936;
var viewHeight = 401;
var sectionId = 'dynsection-0';
</script>
<script type="application/ecmascript" xlink:href="svg.min.js"/>
<svg id="graph" class="graph">
<g id="viewport">
<title>m_checker::s_check_inputs</title>
<!-- Node1 -->
<g id="Node000001" class="node">
<title>Node1</title>
<g id="a_Node000001"><a xlink:title="Checks compatibility of parameters in the input file. Used by the pre_process stage.">
<polygon fill="#999999" stroke="#666666" points="114,-158.26 0,-158.26 0,-128.26 114,-128.26 114,-158.26"/>
<text text-anchor="start" x="8" y="-146.26" font-family="Helvetica,sans-Serif" font-size="10.00">m_checker::s_check</text>
<text text-anchor="middle" x="57" y="-135.26" font-family="Helvetica,sans-Serif" font-size="10.00">_inputs</text>
</a>
</g>
</g>
<!-- Node2 -->
<g id="Node000002" class="node">
<title>Node2</title>
<g id="a_Node000002"><a xlink:href="namespacem__checker.html#af56311c15309306dcc5d55db0b1eea9f" target="_top" xlink:title="Checks constraints on grid stretching parameters (loops_x[y,z], stretch_x[y,z], etc....">
<polygon fill="white" stroke="#666666" points="450,-379.26 320,-379.26 320,-349.26 450,-349.26 450,-379.26"/>
<text text-anchor="start" x="328" y="-367.26" font-family="Helvetica,sans-Serif" font-size="10.00">m_checker::s_check</text>
<text text-anchor="middle" x="385" y="-356.26" font-family="Helvetica,sans-Serif" font-size="10.00">_inputs_grid_stretching</text>
</a>
</g>
</g>
<!-- Node1&#45;&gt;Node2 -->
<g id="edge1_Node000001_Node000002" class="edge">
<title>Node1&#45;&gt;Node2</title>
<g id="a_edge1_Node000001_Node000002"><a xlink:title=" ">
<path fill="none" stroke="#63b8ff" d="M65.53,-158.57C79.06,-184.66 109.86,-237.92 150,-269.26 198.03,-306.76 262.88,-331.54 312.13,-346.36"/>
<polygon fill="#63b8ff" stroke="#63b8ff" points="311.18,-349.73 321.76,-349.2 313.16,-343.02 311.18,-349.73"/>
</a>
</g>
</g>
<!-- Node6 -->
<g id="Node000006" class="node">
<title>Node6</title>
<g id="a_Node000006"><a xlink:href="namespacem__checker.html#acd9c8d302aa495492a27f8d847c14929" target="_top" xlink:title="Checks miscellaneous constraints (vel_profile and instability_wave)">
<polygon fill="white" stroke="#666666" points="600,-142.26 486,-142.26 486,-112.26 600,-112.26 600,-142.26"/>
<text text-anchor="start" x="494" y="-130.26" font-family="Helvetica,sans-Serif" font-size="10.00">m_checker::s_check</text>
<text text-anchor="middle" x="543" y="-119.26" font-family="Helvetica,sans-Serif" font-size="10.00">_inputs_misc</text>
</a>
</g>
</g>
<!-- Node1&#45;&gt;Node6 -->
<g id="edge6_Node000001_Node000006" class="edge">
<title>Node1&#45;&gt;Node6</title>
<g id="a_edge6_Node000001_Node000006"><a xlink:title=" ">
<path fill="none" stroke="#63b8ff" d="M114.47,-141.39C204.45,-138.42 379.96,-132.62 475.75,-129.45"/>
<polygon fill="#63b8ff" stroke="#63b8ff" points="476.01,-132.94 485.89,-129.11 475.78,-125.95 476.01,-132.94"/>
</a>
</g>
</g>
<!-- Node7 -->
<g id="Node000007" class="node">
<title>Node7</title>
<g id="a_Node000007"><a xlink:href="namespacem__checker.html#a0fd3a05104f108b9fdebe73e440cd74a" target="_top" xlink:title="Checks constraints on initial partial density perturbation (perturb_flow, perturb_flow_fluid,...">
<polygon fill="white" stroke="#666666" points="284,-260.26 150,-260.26 150,-230.26 284,-230.26 284,-260.26"/>
<text text-anchor="start" x="158" y="-248.26" font-family="Helvetica,sans-Serif" font-size="10.00">m_checker::s_check</text>
<text text-anchor="middle" x="217" y="-237.26" font-family="Helvetica,sans-Serif" font-size="10.00">_inputs_perturb_density</text>
</a>
</g>
</g>
<!-- Node1&#45;&gt;Node7 -->
<g id="edge8_Node000001_Node000007" class="edge">
<title>Node1&#45;&gt;Node7</title>
<g id="a_edge8_Node000001_Node000007"><a xlink:title=" ">
<path fill="none" stroke="#63b8ff" d="M81.31,-158.31C108.5,-175.86 153.6,-204.97 184.04,-224.62"/>
<polygon fill="#63b8ff" stroke="#63b8ff" points="182.29,-227.66 192.59,-230.15 186.09,-221.78 182.29,-227.66"/>
</a>
</g>
</g>
<!-- Node10 -->
<g id="Node000010" class="node">
<title>Node10</title>
<g id="a_Node000010"><a xlink:href="namespacem__checker.html#a4c66b5035aeed78b4f60b828793912b1" target="_top" xlink:title="Checks constraints on the QBMM and polydisperse bubble parameters (qbmm, polydisperse,...">
<polygon fill="white" stroke="#666666" points="815,-102.26 636,-102.26 636,-72.26 815,-72.26 815,-102.26"/>
<text text-anchor="start" x="644" y="-90.26" font-family="Helvetica,sans-Serif" font-size="10.00">m_checker::s_check</text>
<text text-anchor="middle" x="725.5" y="-79.26" font-family="Helvetica,sans-Serif" font-size="10.00">_inputs_qbmm_and_polydisperse</text>
</a>
</g>
</g>
<!-- Node1&#45;&gt;Node10 -->
<g id="edge14_Node000001_Node000010" class="edge">
<title>Node1&#45;&gt;Node10</title>
<g id="a_edge14_Node000001_Node000010"><a xlink:title=" ">
<path fill="none" stroke="#63b8ff" d="M114.41,-136.22C126.16,-134.83 138.48,-133.44 150,-132.26 299.1,-116.92 336.55,-114.72 486,-103.26 531.87,-99.74 582.74,-96.27 625.68,-93.46"/>
<polygon fill="#63b8ff" stroke="#63b8ff" points="626.09,-96.94 635.84,-92.8 625.64,-89.96 626.09,-96.94"/>
</a>
</g>
</g>
<!-- Node11 -->
<g id="Node000011" class="node">
<title>Node11</title>
<g id="a_Node000011"><a xlink:href="namespacem__checker.html#af5132806d0d5132e6e182e1e3106eaea" target="_top" xlink:title="Checks constraints on the restart parameters (old_grid, old_ic, etc.)">
<polygon fill="white" stroke="#666666" points="442,-180.26 328,-180.26 328,-150.26 442,-150.26 442,-180.26"/>
<text text-anchor="start" x="336" y="-168.26" font-family="Helvetica,sans-Serif" font-size="10.00">m_checker::s_check</text>
<text text-anchor="middle" x="385" y="-157.26" font-family="Helvetica,sans-Serif" font-size="10.00">_inputs_restart</text>
</a>
</g>
</g>
<!-- Node1&#45;&gt;Node11 -->
<g id="edge16_Node000001_Node000011" class="edge">
<title>Node1&#45;&gt;Node11</title>
<g id="a_edge16_Node000001_Node000011"><a xlink:title=" ">
<path fill="none" stroke="#63b8ff" d="M114.04,-147.04C170.57,-150.86 257.84,-156.75 317.76,-160.79"/>
<polygon fill="#63b8ff" stroke="#63b8ff" points="317.66,-164.29 327.87,-161.47 318.13,-157.31 317.66,-164.29"/>
</a>
</g>
</g>
<!-- Node12 -->
<g id="Node000012" class="node">
<title>Node12</title>
<g id="a_Node000012"><a xlink:href="namespacem__checker.html#a44e21acd82407f9218b83b0b6cdf7251" target="_top" xlink:title="Checks if mpi is enabled with parallel_io.">
<polygon fill="white" stroke="#666666" points="274,-56.26 160,-56.26 160,-26.26 274,-26.26 274,-56.26"/>
<text text-anchor="start" x="168" y="-44.26" font-family="Helvetica,sans-Serif" font-size="10.00">m_checker::s_check</text>
<text text-anchor="middle" x="217" y="-33.26" font-family="Helvetica,sans-Serif" font-size="10.00">_parallel_io</text>
</a>
</g>
</g>
<!-- Node1&#45;&gt;Node12 -->
<g id="edge19_Node000001_Node000012" class="edge">
<title>Node1&#45;&gt;Node12</title>
<g id="a_edge19_Node000001_Node000012"><a xlink:title=" ">
<path fill="none" stroke="#63b8ff" d="M74.33,-128.15C92.02,-112.32 121.53,-87.41 150,-70.26 155.56,-66.91 161.57,-63.73 167.63,-60.78"/>
<polygon fill="#63b8ff" stroke="#63b8ff" points="169.53,-63.76 177.12,-56.36 166.58,-57.41 169.53,-63.76"/>
</a>
</g>
</g>
<!-- Node3 -->
<g id="Node000003" class="node">
<title>Node3</title>
<g id="a_Node000003"><a xlink:href="m__helper_8fpp_8f90.html#ad7eb5f3e531ad8b37fa39d55e1076db5" target="_top" xlink:title="Checks if a real(kind(0d0)) variable is of default value.">
<polygon fill="white" stroke="#666666" points="580,-217.76 506,-217.76 506,-198.76 580,-198.76 580,-217.76"/>
<text text-anchor="middle" x="543" y="-205.76" font-family="Helvetica,sans-Serif" font-size="10.00">f_is_default</text>
</a>
</g>
</g>
<!-- Node2&#45;&gt;Node3 -->
<g id="edge2_Node000002_Node000003" class="edge">
<title>Node2&#45;&gt;Node3</title>
<g id="a_edge2_Node000002_Node000003"><a xlink:title=" ">
<path fill="none" stroke="#63b8ff" d="M401.24,-349.02C430.52,-319.74 494.43,-255.83 525.02,-225.24"/>
<polygon fill="#63b8ff" stroke="#63b8ff" points="527.78,-227.43 532.37,-217.89 522.83,-222.48 527.78,-227.43"/>
</a>
</g>
</g>
<!-- Node5 -->
<g id="Node000005" class="node">
<title>Node5</title>
<g id="a_Node000005"><a xlink:href="m__mpi__common_8fpp_8f90.html#ad9e1329e498b65ad4256658675d6f797" target="_top" xlink:title="The subroutine terminates the MPI execution environment.">
<polygon fill="white" stroke="#666666" points="928,-179.76 851,-179.76 851,-160.76 928,-160.76 928,-179.76"/>
<text text-anchor="middle" x="889.5" y="-167.76" font-family="Helvetica,sans-Serif" font-size="10.00">s_mpi_abort</text>
</a>
</g>
</g>
<!-- Node2&#45;&gt;Node5 -->
<g id="edge5_Node000002_Node000005" class="edge">
<title>Node2&#45;&gt;Node5</title>
<g id="a_edge5_Node000002_Node000005"><a xlink:title=" ">
<path fill="none" stroke="#63b8ff" d="M450.11,-378.87C540.28,-395.55 705.75,-411.55 815,-335.26 864.18,-300.91 880.9,-225.76 886.21,-189.97"/>
<polygon fill="#63b8ff" stroke="#63b8ff" points="889.71,-190.21 887.56,-179.83 882.77,-189.28 889.71,-190.21"/>
</a>
</g>
</g>
<!-- Node4 -->
<g id="Node000004" class="node">
<title>Node4</title>
<g id="a_Node000004"><a xlink:href="m__helper_8fpp_8f90.html#a7bdf2eff292c20e9c330089da2e53a97" target="_top" xlink:title="This procedure checks if two floating point numbers of kind(0d0) are within tolerance.">
<polygon fill="white" stroke="#666666" points="771.5,-217.76 679.5,-217.76 679.5,-198.76 771.5,-198.76 771.5,-217.76"/>
<text text-anchor="middle" x="725.5" y="-205.76" font-family="Helvetica,sans-Serif" font-size="10.00">f_approx_equal</text>
</a>
</g>
</g>
<!-- Node3&#45;&gt;Node4 -->
<g id="edge3_Node000003_Node000004" class="edge">
<title>Node3&#45;&gt;Node4</title>
<g id="a_edge3_Node000003_Node000004"><a xlink:title=" ">
<path fill="none" stroke="#63b8ff" d="M580.09,-208.26C605.47,-208.26 639.92,-208.26 668.81,-208.26"/>
<polygon fill="#63b8ff" stroke="#63b8ff" points="669.17,-211.76 679.17,-208.26 669.17,-204.76 669.17,-211.76"/>
</a>
</g>
</g>
<!-- Node4&#45;&gt;Node5 -->
<g id="edge4_Node000004_Node000005" class="edge">
<title>Node4&#45;&gt;Node5</title>
<g id="a_edge4_Node000004_Node000005"><a xlink:title=" ">
<path fill="none" stroke="#63b8ff" d="M767.38,-198.67C789.75,-193.42 817.59,-186.89 840.93,-181.42"/>
<polygon fill="#63b8ff" stroke="#63b8ff" points="842.03,-184.76 850.96,-179.06 840.43,-177.94 842.03,-184.76"/>
</a>
</g>
</g>
<!-- Node6&#45;&gt;Node5 -->
<g id="edge7_Node000006_Node000005" class="edge">
<title>Node6&#45;&gt;Node5</title>
<g id="a_edge7_Node000006_Node000005"><a xlink:title=" ">
<path fill="none" stroke="#63b8ff" d="M600.22,-131.93C655.15,-136.81 741.05,-145.28 815,-156.26 823.4,-157.51 832.31,-159.03 840.92,-160.61"/>
<polygon fill="#63b8ff" stroke="#63b8ff" points="840.36,-164.07 850.83,-162.47 841.65,-157.19 840.36,-164.07"/>
</a>
</g>
</g>
<!-- Node7&#45;&gt;Node3 -->
<g id="edge11_Node000007_Node000003" class="edge">
<title>Node7&#45;&gt;Node3</title>
<g id="a_edge11_Node000007_Node000003"><a xlink:title=" ">
<path fill="none" stroke="#63b8ff" d="M272.47,-260.33C320.15,-271.04 390.85,-280.84 450,-264.26 477.44,-256.56 504.82,-238.18 522.48,-224.56"/>
<polygon fill="#63b8ff" stroke="#63b8ff" points="525.14,-226.92 530.78,-217.96 520.78,-221.45 525.14,-226.92"/>
</a>
</g>
</g>
<!-- Node7&#45;&gt;Node5 -->
<g id="edge13_Node000007_Node000005" class="edge">
<title>Node7&#45;&gt;Node5</title>
<g id="a_edge13_Node000007_Node000005"><a xlink:title=" ">
<path fill="none" stroke="#63b8ff" d="M270.12,-260.27C274.85,-261.87 279.53,-263.54 284,-265.26 300.51,-271.62 302.73,-278.39 320,-282.26 376.38,-294.9 392.38,-286.58 450,-282.26 613.6,-270 664.19,-291.84 815,-227.26 836.84,-217.91 857.85,-200.48 871.78,-187.34"/>
<polygon fill="#63b8ff" stroke="#63b8ff" points="874.39,-189.69 879.11,-180.2 869.5,-184.67 874.39,-189.69"/>
</a>
</g>
</g>
<!-- Node8 -->
<g id="Node000008" class="node">
<title>Node8</title>
<g id="a_Node000008"><a xlink:href="m__helper_8fpp_8f90.html#a990d763ae6b5208718f7f78006e5e323" target="_top" xlink:title="Checks if ALL elements of a real(kind(0d0)) array are of default value.">
<polygon fill="white" stroke="#666666" points="423.5,-217.76 346.5,-217.76 346.5,-198.76 423.5,-198.76 423.5,-217.76"/>
<text text-anchor="middle" x="385" y="-205.76" font-family="Helvetica,sans-Serif" font-size="10.00">f_all_default</text>
</a>
</g>
</g>
<!-- Node7&#45;&gt;Node8 -->
<g id="edge9_Node000007_Node000008" class="edge">
<title>Node7&#45;&gt;Node8</title>
<g id="a_edge9_Node000007_Node000008"><a xlink:title=" ">
<path fill="none" stroke="#63b8ff" d="M284.08,-230.53C301.61,-226.62 320.18,-222.49 336.49,-218.85"/>
<polygon fill="#63b8ff" stroke="#63b8ff" points="337.33,-222.25 346.33,-216.66 335.81,-215.42 337.33,-222.25"/>
</a>
</g>
</g>
<!-- Node9 -->
<g id="Node000009" class="node">
<title>Node9</title>
<g id="a_Node000009"><a xlink:href="m__helper_8fpp_8f90.html#a8a0505b2bd4f3d8cb2bf3ce16cfe01e3" target="_top" xlink:title=" ">
<polygon fill="white" stroke="#666666" points="421.5,-254.76 348.5,-254.76 348.5,-235.76 421.5,-235.76 421.5,-254.76"/>
<text text-anchor="middle" x="385" y="-242.76" font-family="Helvetica,sans-Serif" font-size="10.00">s_int_to_str</text>
</a>
</g>
</g>
<!-- Node7&#45;&gt;Node9 -->
<g id="edge12_Node000007_Node000009" class="edge">
<title>Node7&#45;&gt;Node9</title>
<g id="a_edge12_Node000007_Node000009"><a xlink:title=" ">
<path fill="none" stroke="#63b8ff" d="M284.08,-245.26C302.2,-245.26 321.45,-245.26 338.16,-245.26"/>
<polygon fill="#63b8ff" stroke="#63b8ff" points="338.2,-248.76 348.2,-245.26 338.2,-241.76 338.2,-248.76"/>
</a>
</g>
</g>
<!-- Node8&#45;&gt;Node3 -->
<g id="edge10_Node000008_Node000003" class="edge">
<title>Node8&#45;&gt;Node3</title>
<g id="a_edge10_Node000008_Node000003"><a xlink:title=" ">
<path fill="none" stroke="#63b8ff" d="M423.76,-208.26C445.42,-208.26 472.79,-208.26 495.73,-208.26"/>
<polygon fill="#63b8ff" stroke="#63b8ff" points="495.93,-211.76 505.93,-208.26 495.93,-204.76 495.93,-211.76"/>
</a>
</g>
</g>
<!-- Node10&#45;&gt;Node5 -->
<g id="edge15_Node000010_Node000005" class="edge">
<title>Node10&#45;&gt;Node5</title>
<g id="a_edge15_Node000010_Node000005"><a xlink:title=" ">
<path fill="none" stroke="#63b8ff" d="M779.51,-102.36C791.46,-106.54 803.9,-111.54 815,-117.26 834.69,-127.4 854.95,-142.42 869.2,-153.88"/>
<polygon fill="#63b8ff" stroke="#63b8ff" points="867.29,-156.84 877.24,-160.48 871.73,-151.43 867.29,-156.84"/>
</a>
</g>
</g>
<!-- Node11&#45;&gt;Node3 -->
<g id="edge17_Node000011_Node000003" class="edge">
<title>Node11&#45;&gt;Node3</title>
<g id="a_edge17_Node000011_Node000003"><a xlink:title=" ">
<path fill="none" stroke="#63b8ff" d="M440.56,-180.3C459.07,-185.4 479.52,-191.04 497.18,-195.91"/>
<polygon fill="#63b8ff" stroke="#63b8ff" points="496.65,-199.39 507.22,-198.67 498.51,-192.64 496.65,-199.39"/>
</a>
</g>
</g>
<!-- Node11&#45;&gt;Node5 -->
<g id="edge18_Node000011_Node000005" class="edge">
<title>Node11&#45;&gt;Node5</title>
<g id="a_edge18_Node000011_Node000005"><a xlink:title=" ">
<path fill="none" stroke="#63b8ff" d="M442.18,-165.82C541.68,-166.81 747.18,-168.85 840.51,-169.78"/>
<polygon fill="#63b8ff" stroke="#63b8ff" points="840.75,-173.28 850.79,-169.88 840.82,-166.28 840.75,-173.28"/>
</a>
</g>
</g>
<!-- Node12&#45;&gt;Node5 -->
<g id="edge20_Node000012_Node000005" class="edge">
<title>Node12&#45;&gt;Node5</title>
<g id="a_edge20_Node000012_Node000005"><a xlink:title=" ">
<path fill="none" stroke="#63b8ff" d="M274.21,-27.63C385.46,-3.85 638.25,33.96 815,-63.26 849.73,-82.36 871.43,-125.72 881.61,-150.99"/>
<polygon fill="#63b8ff" stroke="#63b8ff" points="878.44,-152.49 885.28,-160.59 884.98,-150 878.44,-152.49"/>
</a>
</g>
</g>
</g>
</svg>

<g id="navigator" transform="translate(0 0)" fill="#404254">
  <rect fill="#f2f5e9" fill-opacity="0.5" stroke="#606060" stroke-width=".5" x="0" y="0" width="60" height="60"/>
  <use id="zoomplus" xlink:href="#zoomPlus" x="17" y="9" onmousedown="handleZoom(evt,'in')"/>
  <use id="zoomminus" xlink:href="#zoomMin" x="42" y="9" onmousedown="handleZoom(evt,'out')"/>
  <use id="reset" xlink:href="#resetDef" x="30" y="36" onmousedown="handleReset()"/>
   <use id="arrowup" xlink:href="#arrowUp" x="0" y="0" onmousedown="handlePan(0,-1)"/>
  <use id="arrowright" xlink:href="#arrowRight" x="0" y="0" onmousedown="handlePan(1,0)"/>
  <use id="arrowdown" xlink:href="#arrowDown" x="0" y="0" onmousedown="handlePan(0,1)"/>
  <use id="arrowleft" xlink:href="#arrowLeft" x="0" y="0" onmousedown="handlePan(-1,0)"/>
</g>
<svg viewBox="0 0 15 15" width="100%" height="30px" preserveAspectRatio="xMaxYMin meet">
 <g id="arrow_out" transform="scale(0.3 0.3)">
  <a xlink:href="namespacem__checker_a91965851c33800f743ed0f6eb055f013_cgraph_org.svg" target="_base">
   <rect id="button" ry="5" rx="5" y="6" x="6" height="38" width="38"
        fill="#f2f5e9" fill-opacity="0.5" stroke="#606060" stroke-width="1.0"/>
   <path id="arrow"
     d="M 11.500037,31.436501 C 11.940474,20.09759 22.043105,11.32322 32.158766,21.979434 L 37.068811,17.246167 C 37.068811,17.246167 37.088388,32 37.088388,32 L 22.160133,31.978069 C 22.160133,31.978069 26.997745,27.140456 26.997745,27.140456 C 18.528582,18.264221 13.291696,25.230495 11.500037,31.436501 z"
     style="fill:#404040;"/>
  </a>
 </g>
</svg>

<style type='text/css'>
<![CDATA[
[data-mouse-over-selected='false'] { opacity: 0.7; }
[data-mouse-over-selected='true']  { opacity: 1.0; }
]]>
</style>
<script type="application/ecmascript"><![CDATA[
document.addEventListener('DOMContentLoaded', (event) => {
  highlightEdges();
  highlightAdjacentNodes();
});
]]></script>
</svg>
