<?xml version="1.0" encoding="UTF-8" standalone="no"?>
<!DOCTYPE svg PUBLIC "-//W3C//DTD SVG 1.1//EN"
 "http://www.w3.org/Graphics/SVG/1.1/DTD/svg11.dtd">
<!-- Generated by graphviz version 2.43.0 (0)
 -->
<!-- Title: m_variables_conversion::s_convert_to_mixture_variables Pages: 1 -->
<svg width="511pt" height="108pt"
 viewBox="0.00 0.00 511.00 108.00" xmlns="http://www.w3.org/2000/svg" xmlns:xlink="http://www.w3.org/1999/xlink">
<g id="graph0" class="graph" transform="scale(1 1) rotate(0) translate(4 104)">
<title>m_variables_conversion::s_convert_to_mixture_variables</title>
<!-- Node1 -->
<g id="Node000001" class="node">
<title>Node1</title>
<g id="a_Node000001"><a xlink:title="Dispatch to the s_convert_mixture_to_mixture_variables and s_convert_species_to_mixture_variables sub...">
<polygon fill="#999999" stroke="#666666" points="135,-70 0,-70 0,-29 135,-29 135,-70"/>
<text text-anchor="start" x="8" y="-58" font-family="Helvetica,sans-Serif" font-size="10.00">m_variables_conversion</text>
<text text-anchor="start" x="8" y="-47" font-family="Helvetica,sans-Serif" font-size="10.00">::s_convert_to_mixture</text>
<text text-anchor="middle" x="67.5" y="-36" font-family="Helvetica,sans-Serif" font-size="10.00">_variables</text>
</a>
</g>
</g>
<!-- Node2 -->
<g id="Node000002" class="node">
<title>Node2</title>
<g id="a_Node000002"><a xlink:href="namespacem__variables__conversion.html#a8b30b668d9de48d0bf0d53fa56116847" target="_top" xlink:title="This subroutine is designed for the gamma/pi_inf model and provided a set of either conservative or p...">
<polygon fill="white" stroke="#666666" points="306,-100 171,-100 171,-59 306,-59 306,-100"/>
<text text-anchor="start" x="179" y="-88" font-family="Helvetica,sans-Serif" font-size="10.00">m_variables_conversion</text>
<text text-anchor="start" x="179" y="-77" font-family="Helvetica,sans-Serif" font-size="10.00">::s_convert_mixture_to</text>
<text text-anchor="middle" x="238.5" y="-66" font-family="Helvetica,sans-Serif" font-size="10.00">_mixture_variables</text>
</a>
</g>
</g>
<!-- Node1&#45;&gt;Node2 -->
<g id="edge1_Node000001_Node000002" class="edge">
<title>Node1&#45;&gt;Node2</title>
<g id="a_edge1_Node000001_Node000002"><a xlink:title=" ">
<path fill="none" stroke="#63b8ff" d="M135.29,-61.36C143.72,-62.85 152.38,-64.39 160.94,-65.91"/>
<polygon fill="#63b8ff" stroke="#63b8ff" points="160.46,-69.38 170.92,-67.68 161.68,-62.49 160.46,-69.38"/>
</a>
</g>
</g>
<!-- Node3 -->
<g id="Node000003" class="node">
<title>Node3</title>
<g id="a_Node000003"><a xlink:href="namespacem__variables__conversion.html#a7f3bffa0ba13432f79f095a78fcf6e5a" target="_top" xlink:title="This subroutine is designed for the volume fraction model and provided a set of either conservative o...">
<polygon fill="white" stroke="#666666" points="306,-41 171,-41 171,0 306,0 306,-41"/>
<text text-anchor="start" x="179" y="-29" font-family="Helvetica,sans-Serif" font-size="10.00">m_variables_conversion</text>
<text text-anchor="start" x="179" y="-18" font-family="Helvetica,sans-Serif" font-size="10.00">::s_convert_species_to</text>
<text text-anchor="middle" x="238.5" y="-7" font-family="Helvetica,sans-Serif" font-size="10.00">_mixture_variables</text>
</a>
</g>
</g>
<!-- Node1&#45;&gt;Node3 -->
<g id="edge2_Node000001_Node000003" class="edge">
<title>Node1&#45;&gt;Node3</title>
<g id="a_edge2_Node000001_Node000003"><a xlink:title=" ">
<path fill="none" stroke="#63b8ff" d="M135.29,-38.04C143.72,-36.59 152.38,-35.11 160.94,-33.64"/>
<polygon fill="#63b8ff" stroke="#63b8ff" points="161.65,-37.07 170.92,-31.93 160.47,-30.17 161.65,-37.07"/>
</a>
</g>
</g>
<!-- Node4 -->
<g id="Node000004" class="node">
<title>Node4</title>
<g id="a_Node000004"><a xlink:href="namespacem__variables__conversion.html#a21906a4c29bbb1187212feb969c00502" target="_top" xlink:title="This subroutine computes partial densities and volume fractions.">
<polygon fill="white" stroke="#666666" points="503,-35.5 342,-35.5 342,-5.5 503,-5.5 503,-35.5"/>
<text text-anchor="start" x="350" y="-23.5" font-family="Helvetica,sans-Serif" font-size="10.00">m_variables_conversion</text>
<text text-anchor="middle" x="422.5" y="-12.5" font-family="Helvetica,sans-Serif" font-size="10.00">::s_compute_species_fraction</text>
</a>
</g>
</g>
<!-- Node3&#45;&gt;Node4 -->
<g id="edge3_Node000003_Node000004" class="edge">
<title>Node3&#45;&gt;Node4</title>
<g id="a_edge3_Node000003_Node000004"><a xlink:title=" ">
<path fill="none" stroke="#63b8ff" d="M306.24,-20.5C314.55,-20.5 323.15,-20.5 331.74,-20.5"/>
<polygon fill="#63b8ff" stroke="#63b8ff" points="331.8,-24 341.8,-20.5 331.8,-17 331.8,-24"/>
</a>
</g>
</g>
</g>
</svg>
