<?xml version="1.0" encoding="UTF-8" standalone="no"?>
<!DOCTYPE svg PUBLIC "-//W3C//DTD SVG 1.1//EN"
 "http://www.w3.org/Graphics/SVG/1.1/DTD/svg11.dtd">
<!-- Generated by graphviz version 2.40.1 (20161225.0304)
 -->
<!-- Title: m_start_up::s_check_inactive_patch_primitive_variables Pages: 1 -->
<svg width="272pt" height="44pt"
 viewBox="0.00 0.00 272.00 44.00" xmlns="http://www.w3.org/2000/svg" xmlns:xlink="http://www.w3.org/1999/xlink">
<g id="graph0" class="graph" transform="scale(1 1) rotate(0) translate(4 40)">
<title>m_start_up::s_check_inactive_patch_primitive_variables</title>
<polygon fill="#ffffff" stroke="transparent" points="-4,4 -4,-40 268,-40 268,4 -4,4"/>
<!-- Node66 -->
<g id="node1" class="node">
<title>Node66</title>
<polygon fill="#bfbfbf" stroke="#000000" points="0,-.5 0,-35.5 84,-35.5 84,-.5 0,-.5"/>
<text text-anchor="start" x="8" y="-25.1" font-family="Helvetica,sans-Serif" font-size="8.00" fill="#000000">m_start_up::s_check</text>
<text text-anchor="start" x="8" y="-16.1" font-family="Helvetica,sans-Serif" font-size="8.00" fill="#000000">_inactive_patch_primitive</text>
<text text-anchor="middle" x="42" y="-7.1" font-family="Helvetica,sans-Serif" font-size="8.00" fill="#000000">_variables</text>
</g>
<!-- Node67 -->
<g id="node2" class="node">
<title>Node67</title>
<g id="a_node2"><a xlink:href="namespacem__start__up.html#ab5f7e03f1da1999ee699cec4f26370e0" target="_top" xlink:title="Checking that the user inputs make sense, i.e. that the individual choices are compatible with the co...">
<polygon fill="#ffffff" stroke="#000000" points="120,-5 120,-31 192,-31 192,-5 120,-5"/>
<text text-anchor="start" x="128" y="-20.6" font-family="Helvetica,sans-Serif" font-size="8.00" fill="#000000">m_start_up::s_check</text>
<text text-anchor="middle" x="156" y="-11.6" font-family="Helvetica,sans-Serif" font-size="8.00" fill="#000000">_input_file</text>
</a>
</g>
</g>
<!-- Node66&#45;&gt;Node67 -->
<g id="edge1" class="edge">
<title>Node66&#45;&gt;Node67</title>
<path fill="none" stroke="#191970" d="M94.1369,-18C102.7644,-18 111.5416,-18 119.6702,-18"/>
<polygon fill="#191970" stroke="#191970" points="94.1255,-14.5001 84.1255,-18 94.1255,-21.5001 94.1255,-14.5001"/>
</g>
<!-- Node68 -->
<g id="node3" class="node">
<title>Node68</title>
<g id="a_node3"><a xlink:href="p__main_8f90.html#aeec10ee8e2940c953967da3e374e1579" target="_top" xlink:title="This program takes care of setting up the initial condition and grid data for the multicomponent flow...">
<polygon fill="#ffffff" stroke="#000000" points="228,-9.5 228,-26.5 264,-26.5 264,-9.5 228,-9.5"/>
<text text-anchor="middle" x="246" y="-16.1" font-family="Helvetica,sans-Serif" font-size="8.00" fill="#000000">p_main</text>
</a>
</g>
</g>
<!-- Node67&#45;&gt;Node68 -->
<g id="edge2" class="edge">
<title>Node67&#45;&gt;Node68</title>
<path fill="none" stroke="#191970" d="M202.3258,-18C211.437,-18 220.4757,-18 227.9461,-18"/>
<polygon fill="#191970" stroke="#191970" points="202.0879,-14.5001 192.0879,-18 202.0878,-21.5001 202.0879,-14.5001"/>
</g>
</g>
</svg>
