<?xml version="1.0" encoding="UTF-8" standalone="no"?>
<!DOCTYPE svg PUBLIC "-//W3C//DTD SVG 1.1//EN"
 "http://www.w3.org/Graphics/SVG/1.1/DTD/svg11.dtd">
<!-- Generated by graphviz version 2.40.1 (20161225.0304)
 -->
<!-- Title: m_start_up::s_check_isentropic_vortex_patch_geometry Pages: 1 -->
<svg width="199pt" height="44pt"
 viewBox="0.00 0.00 199.00 44.00" xmlns="http://www.w3.org/2000/svg" xmlns:xlink="http://www.w3.org/1999/xlink">
<g id="graph0" class="graph" transform="scale(1 1) rotate(0) translate(4 40)">
<title>m_start_up::s_check_isentropic_vortex_patch_geometry</title>
<polygon fill="#ffffff" stroke="transparent" points="-4,4 -4,-40 195,-40 195,4 -4,4"/>
<!-- Node96 -->
<g id="node1" class="node">
<title>Node96</title>
<polygon fill="#bfbfbf" stroke="#000000" points="0,-.5 0,-35.5 83,-35.5 83,-.5 0,-.5"/>
<text text-anchor="start" x="8" y="-25.1" font-family="Helvetica,sans-Serif" font-size="8.00" fill="#000000">m_start_up::s_check</text>
<text text-anchor="start" x="8" y="-16.1" font-family="Helvetica,sans-Serif" font-size="8.00" fill="#000000">_isentropic_vortex_patch</text>
<text text-anchor="middle" x="41.5" y="-7.1" font-family="Helvetica,sans-Serif" font-size="8.00" fill="#000000">_geometry</text>
</g>
<!-- Node97 -->
<g id="node2" class="node">
<title>Node97</title>
<g id="a_node2"><a xlink:href="namespacem__mpi__proxy.html#a04ac565bad2b22dc045a5eeb4f516e2e" target="_top" xlink:title="The subroutine terminates the MPI execution environment. ">
<polygon fill="#ffffff" stroke="#000000" points="119,-5 119,-31 191,-31 191,-5 119,-5"/>
<text text-anchor="start" x="127" y="-20.6" font-family="Helvetica,sans-Serif" font-size="8.00" fill="#000000">m_mpi_proxy::s_mpi</text>
<text text-anchor="middle" x="155" y="-11.6" font-family="Helvetica,sans-Serif" font-size="8.00" fill="#000000">_abort</text>
</a>
</g>
</g>
<!-- Node96&#45;&gt;Node97 -->
<g id="edge1" class="edge">
<title>Node96&#45;&gt;Node97</title>
<path fill="none" stroke="#191970" d="M83.1187,-18C91.4848,-18 100.3242,-18 108.8344,-18"/>
<polygon fill="#191970" stroke="#191970" points="108.9978,-21.5001 118.9978,-18 108.9977,-14.5001 108.9978,-21.5001"/>
</g>
</g>
</svg>
