<?xml version="1.0" encoding="UTF-8" standalone="no"?>
<!DOCTYPE svg PUBLIC "-//W3C//DTD SVG 1.1//EN"
 "http://www.w3.org/Graphics/SVG/1.1/DTD/svg11.dtd">
<!-- Generated by graphviz version 2.43.0 (0)
 -->
<!-- Title: m_checker_common::s_check_inputs_qbmm_and_polydisperse Pages: 1 -->
<svg width="484pt" height="76pt"
 viewBox="0.00 0.00 484.00 75.50" xmlns="http://www.w3.org/2000/svg" xmlns:xlink="http://www.w3.org/1999/xlink">
<g id="graph0" class="graph" transform="scale(1 1) rotate(0) translate(4 71.5)">
<title>m_checker_common::s_check_inputs_qbmm_and_polydisperse</title>
<!-- Node1 -->
<g id="Node000001" class="node">
<title>Node1</title>
<g id="a_Node000001"><a xlink:title="Checks constraints on the QBMM and polydisperse bubble parameters. Called by s_check_inputs_common fo...">
<polygon fill="#999999" stroke="#666666" points="146,-51 0,-51 0,-10 146,-10 146,-51"/>
<text text-anchor="start" x="8" y="-39" font-family="Helvetica,sans-Serif" font-size="10.00">m_checker_common::s</text>
<text text-anchor="start" x="8" y="-28" font-family="Helvetica,sans-Serif" font-size="10.00">_check_inputs_qbmm_and</text>
<text text-anchor="middle" x="73" y="-17" font-family="Helvetica,sans-Serif" font-size="10.00">_polydisperse</text>
</a>
</g>
</g>
<!-- Node2 -->
<g id="Node000002" class="node">
<title>Node2</title>
<g id="a_Node000002"><a xlink:href="namespacem__helper__basic.html#af1ad5f2cff7ebf5c909a7fc212815ff2" target="_top" xlink:title="Checks if a real(kind(0d0)) variable is of default value.">
<polygon fill="white" stroke="#666666" points="298,-67.5 182,-67.5 182,-37.5 298,-37.5 298,-67.5"/>
<text text-anchor="start" x="190" y="-55.5" font-family="Helvetica,sans-Serif" font-size="10.00">m_helper_basic::f_is</text>
<text text-anchor="middle" x="240" y="-44.5" font-family="Helvetica,sans-Serif" font-size="10.00">_default</text>
</a>
</g>
</g>
<!-- Node1&#45;&gt;Node2 -->
<g id="edge1_Node000001_Node000002" class="edge">
<title>Node1&#45;&gt;Node2</title>
<g id="a_edge1_Node000001_Node000002"><a xlink:title=" ">
<path fill="none" stroke="#63b8ff" d="M146.37,-40.15C154.74,-41.27 163.26,-42.4 171.56,-43.51"/>
<polygon fill="#63b8ff" stroke="#63b8ff" points="171.18,-46.99 181.56,-44.84 172.11,-40.05 171.18,-46.99"/>
</a>
</g>
</g>
<!-- Node4 -->
<g id="Node000004" class="node">
<title>Node4</title>
<g id="a_Node000004"><a xlink:href="m__mpi__common_8fpp_8f90.html#ad9e1329e498b65ad4256658675d6f797" target="_top" xlink:title="The subroutine terminates the MPI execution environment.">
<polygon fill="white" stroke="#666666" points="278.5,-19 201.5,-19 201.5,0 278.5,0 278.5,-19"/>
<text text-anchor="middle" x="240" y="-7" font-family="Helvetica,sans-Serif" font-size="10.00">s_mpi_abort</text>
</a>
</g>
</g>
<!-- Node1&#45;&gt;Node4 -->
<g id="edge3_Node000001_Node000004" class="edge">
<title>Node1&#45;&gt;Node4</title>
<g id="a_edge3_Node000001_Node000004"><a xlink:title=" ">
<path fill="none" stroke="#63b8ff" d="M146.37,-21.29C161.41,-19.37 176.91,-17.4 190.82,-15.63"/>
<polygon fill="#63b8ff" stroke="#63b8ff" points="191.64,-19.06 201.12,-14.32 190.76,-12.11 191.64,-19.06"/>
</a>
</g>
</g>
<!-- Node3 -->
<g id="Node000003" class="node">
<title>Node3</title>
<g id="a_Node000003"><a xlink:href="namespacem__helper__basic.html#a4d4fbabb3807eb662390dd48ef95330d" target="_top" xlink:title="This procedure checks if two floating point numbers of kind(0d0) are within tolerance.">
<polygon fill="white" stroke="#666666" points="476,-67.5 334,-67.5 334,-37.5 476,-37.5 476,-67.5"/>
<text text-anchor="start" x="342" y="-55.5" font-family="Helvetica,sans-Serif" font-size="10.00">m_helper_basic::f_approx</text>
<text text-anchor="middle" x="405" y="-44.5" font-family="Helvetica,sans-Serif" font-size="10.00">_equal</text>
</a>
</g>
</g>
<!-- Node2&#45;&gt;Node3 -->
<g id="edge2_Node000002_Node000003" class="edge">
<title>Node2&#45;&gt;Node3</title>
<g id="a_edge2_Node000002_Node000003"><a xlink:title=" ">
<path fill="none" stroke="#63b8ff" d="M298.01,-52.5C306.32,-52.5 315.01,-52.5 323.68,-52.5"/>
<polygon fill="#63b8ff" stroke="#63b8ff" points="323.83,-56 333.83,-52.5 323.83,-49 323.83,-56"/>
</a>
</g>
</g>
</g>
</svg>
