<?xml version="1.0" encoding="UTF-8" standalone="no"?>
<!DOCTYPE svg PUBLIC "-//W3C//DTD SVG 1.1//EN"
 "http://www.w3.org/Graphics/SVG/1.1/DTD/svg11.dtd">
<!-- Generated by graphviz version 2.43.0 (0)
 -->
<!-- Title: m_start_up::s_initialize_modules Pages: 1 -->
<svg width="865pt" height="815pt"
 viewBox="0.00 0.00 865.00 815.28" xmlns="http://www.w3.org/2000/svg" xmlns:xlink="http://www.w3.org/1999/xlink">
<g id="graph0" class="graph" transform="scale(1 1) rotate(0) translate(4 811.28)">
<title>m_start_up::s_initialize_modules</title>
<!-- Node1 -->
<g id="Node000001" class="node">
<title>Node1</title>
<g id="a_Node000001"><a xlink:title=" ">
<polygon fill="#999999" stroke="#666666" points="130,-446 0,-446 0,-416 130,-416 130,-446"/>
<text text-anchor="start" x="8" y="-434" font-family="Helvetica,sans-Serif" font-size="10.00">m_start_up::s_initialize</text>
<text text-anchor="middle" x="65" y="-423" font-family="Helvetica,sans-Serif" font-size="10.00">_modules</text>
</a>
</g>
</g>
<!-- Node2 -->
<g id="Node000002" class="node">
<title>Node2</title>
<g id="a_Node000002"><a xlink:href="namespacem__grid.html#a475baa23ebacca5a4790f12b2221bc0d" target="_top" xlink:title="The following subroutine generates either a uniform or non&#45;uniform rectilinear grid in parallel,...">
<polygon fill="white" stroke="#666666" points="483,-791 373,-791 373,-761 483,-761 483,-791"/>
<text text-anchor="start" x="381" y="-779" font-family="Helvetica,sans-Serif" font-size="10.00">m_grid::s_generate</text>
<text text-anchor="middle" x="428" y="-768" font-family="Helvetica,sans-Serif" font-size="10.00">_parallel_grid</text>
</a>
</g>
</g>
<!-- Node1&#45;&gt;Node2 -->
<g id="edge1_Node000001_Node000002" class="edge">
<title>Node1&#45;&gt;Node2</title>
<g id="a_edge1_Node000001_Node000002"><a xlink:title=" ">
<path fill="none" stroke="#63b8ff" d="M68.01,-446.26C76.41,-507.57 110.91,-734.61 166,-776 224.78,-820.16 313.9,-808.34 371.29,-793.77"/>
<polygon fill="#63b8ff" stroke="#63b8ff" points="372.49,-797.07 381.26,-791.12 370.7,-790.3 372.49,-797.07"/>
</a>
</g>
</g>
<!-- Node3 -->
<g id="Node000003" class="node">
<title>Node3</title>
<g id="a_Node000003"><a xlink:href="namespacem__grid.html#a8b6cf6f41e6f75092930f43a4309c3a9" target="_top" xlink:title="The following subroutine generates either a uniform or non&#45;uniform rectilinear grid in serial,...">
<polygon fill="white" stroke="#666666" points="483,-724 373,-724 373,-694 483,-694 483,-724"/>
<text text-anchor="start" x="381" y="-712" font-family="Helvetica,sans-Serif" font-size="10.00">m_grid::s_generate</text>
<text text-anchor="middle" x="428" y="-701" font-family="Helvetica,sans-Serif" font-size="10.00">_serial_grid</text>
</a>
</g>
</g>
<!-- Node1&#45;&gt;Node3 -->
<g id="edge2_Node000001_Node000003" class="edge">
<title>Node1&#45;&gt;Node3</title>
<g id="a_edge2_Node000001_Node000003"><a xlink:title=" ">
<path fill="none" stroke="#63b8ff" d="M66.59,-446.26C69.26,-492.12 84.08,-629.32 166,-690 222.31,-731.71 305.51,-730.05 362.76,-722.15"/>
<polygon fill="#63b8ff" stroke="#63b8ff" points="363.4,-725.59 372.78,-720.67 362.37,-718.67 363.4,-725.59"/>
</a>
</g>
</g>
<!-- Node5 -->
<g id="Node000005" class="node">
<title>Node5</title>
<g id="a_Node000005"><a xlink:href="namespacem__assign__variables.html#ae31ee924c1ac66d05a215ec59656a9e0" target="_top" xlink:title=" ">
<polygon fill="white" stroke="#666666" points="297,-316.5 184,-316.5 184,-275.5 297,-275.5 297,-316.5"/>
<text text-anchor="start" x="192" y="-304.5" font-family="Helvetica,sans-Serif" font-size="10.00">m_assign_variables</text>
<text text-anchor="start" x="192" y="-293.5" font-family="Helvetica,sans-Serif" font-size="10.00">::s_initialize_assign</text>
<text text-anchor="middle" x="240.5" y="-282.5" font-family="Helvetica,sans-Serif" font-size="10.00">_variables_module</text>
</a>
</g>
</g>
<!-- Node1&#45;&gt;Node5 -->
<g id="edge4_Node000001_Node000005" class="edge">
<title>Node1&#45;&gt;Node5</title>
<g id="a_edge4_Node000001_Node000005"><a xlink:title=" ">
<path fill="none" stroke="#63b8ff" d="M78.25,-415.83C95.9,-394.71 130.3,-356.21 166,-331 170.81,-327.6 176,-324.39 181.31,-321.38"/>
<polygon fill="#63b8ff" stroke="#63b8ff" points="183.19,-324.35 190.34,-316.53 179.88,-318.18 183.19,-324.35"/>
</a>
</g>
</g>
<!-- Node8 -->
<g id="Node000008" class="node">
<title>Node8</title>
<g id="a_Node000008"><a xlink:href="namespacem__data__output.html#ab65b312ef83adb104cafafada9c998b6" target="_top" xlink:title="Computation of parameters, allocation procedures, and/or any other tasks needed to properly setup the...">
<polygon fill="white" stroke="#666666" points="315,-403 166,-403 166,-373 315,-373 315,-403"/>
<text text-anchor="start" x="174" y="-391" font-family="Helvetica,sans-Serif" font-size="10.00">m_data_output::s_initialize</text>
<text text-anchor="middle" x="240.5" y="-380" font-family="Helvetica,sans-Serif" font-size="10.00">_data_output_module</text>
</a>
</g>
</g>
<!-- Node1&#45;&gt;Node8 -->
<g id="edge7_Node000001_Node000008" class="edge">
<title>Node1&#45;&gt;Node8</title>
<g id="a_edge7_Node000001_Node000008"><a xlink:title=" ">
<path fill="none" stroke="#63b8ff" d="M126.68,-415.96C140.29,-412.59 154.83,-408.98 168.8,-405.52"/>
<polygon fill="#63b8ff" stroke="#63b8ff" points="169.99,-408.83 178.85,-403.03 168.3,-402.04 169.99,-408.83"/>
</a>
</g>
</g>
<!-- Node10 -->
<g id="Node000010" class="node">
<title>Node10</title>
<g id="a_Node000010"><a xlink:href="namespacem__data__output.html#a12a171700eb3f8a63d17c01a0033cf39" target="_top" xlink:title="Writes grid and initial condition data files in parallel to the &quot;0&quot; time&#45;step directory in the local ...">
<polygon fill="white" stroke="#666666" points="493.5,-446 362.5,-446 362.5,-416 493.5,-416 493.5,-446"/>
<text text-anchor="start" x="370.5" y="-434" font-family="Helvetica,sans-Serif" font-size="10.00">m_data_output::s_write</text>
<text text-anchor="middle" x="428" y="-423" font-family="Helvetica,sans-Serif" font-size="10.00">_parallel_data_files</text>
</a>
</g>
</g>
<!-- Node1&#45;&gt;Node10 -->
<g id="edge47_Node000001_Node000010" class="edge">
<title>Node1&#45;&gt;Node10</title>
<g id="a_edge47_Node000001_Node000010"><a xlink:title=" ">
<path fill="none" stroke="#63b8ff" d="M130.12,-431C192.24,-431 286.42,-431 351.99,-431"/>
<polygon fill="#63b8ff" stroke="#63b8ff" points="352.26,-434.5 362.26,-431 352.26,-427.5 352.26,-434.5"/>
</a>
</g>
</g>
<!-- Node12 -->
<g id="Node000012" class="node">
<title>Node12</title>
<g id="a_Node000012"><a xlink:href="namespacem__data__output.html#abaf86e34cd05a2227a23bcef0671a391" target="_top" xlink:title="Writes grid and initial condition data files to the &quot;0&quot; time&#45;step directory in the local processor ra...">
<polygon fill="white" stroke="#666666" points="493.5,-360 362.5,-360 362.5,-330 493.5,-330 493.5,-360"/>
<text text-anchor="start" x="370.5" y="-348" font-family="Helvetica,sans-Serif" font-size="10.00">m_data_output::s_write</text>
<text text-anchor="middle" x="428" y="-337" font-family="Helvetica,sans-Serif" font-size="10.00">_serial_data_files</text>
</a>
</g>
</g>
<!-- Node1&#45;&gt;Node12 -->
<g id="edge48_Node000001_Node000012" class="edge">
<title>Node1&#45;&gt;Node12</title>
<g id="a_edge48_Node000001_Node000012"><a xlink:title=" ">
<path fill="none" stroke="#63b8ff" d="M82.56,-415.87C101.28,-399.81 133.4,-375.22 166,-364 226.34,-343.23 299.03,-339.53 352.35,-340.43"/>
<polygon fill="#63b8ff" stroke="#63b8ff" points="352.34,-343.93 362.42,-340.65 352.5,-336.93 352.34,-343.93"/>
</a>
</g>
</g>
<!-- Node15 -->
<g id="Node000015" class="node">
<title>Node15</title>
<g id="a_Node000015"><a xlink:href="namespacem__global__parameters.html#a8a76198d180cb9736c21dde108cb0dbf" target="_top" xlink:title="Computation of parameters, allocation procedures, and/or any other tasks needed to properly setup the...">
<polygon fill="white" stroke="#666666" points="302,-257.5 179,-257.5 179,-216.5 302,-216.5 302,-257.5"/>
<text text-anchor="start" x="187" y="-245.5" font-family="Helvetica,sans-Serif" font-size="10.00">m_global_parameters</text>
<text text-anchor="start" x="187" y="-234.5" font-family="Helvetica,sans-Serif" font-size="10.00">::s_initialize_global</text>
<text text-anchor="middle" x="240.5" y="-223.5" font-family="Helvetica,sans-Serif" font-size="10.00">_parameters_module</text>
</a>
</g>
</g>
<!-- Node1&#45;&gt;Node15 -->
<g id="edge15_Node000001_Node000015" class="edge">
<title>Node1&#45;&gt;Node15</title>
<g id="a_edge15_Node000001_Node000015"><a xlink:title=" ">
<path fill="none" stroke="#63b8ff" d="M71.52,-415.67C83.73,-383.75 115.98,-309.59 166,-267 167.53,-265.69 169.13,-264.44 170.79,-263.23"/>
<polygon fill="#63b8ff" stroke="#63b8ff" points="172.95,-266 179.42,-257.61 169.13,-260.13 172.95,-266"/>
</a>
</g>
</g>
<!-- Node16 -->
<g id="Node000016" class="node">
<title>Node16</title>
<g id="a_Node000016"><a xlink:href="namespacem__grid.html#a08c7d18352873ceab95c10629c1ce317" target="_top" xlink:title="Computation of parameters, allocation procedures, and/or any other tasks needed to properly setup the...">
<polygon fill="white" stroke="#666666" points="295,-767 186,-767 186,-737 295,-737 295,-767"/>
<text text-anchor="start" x="194" y="-755" font-family="Helvetica,sans-Serif" font-size="10.00">m_grid::s_initialize</text>
<text text-anchor="middle" x="240.5" y="-744" font-family="Helvetica,sans-Serif" font-size="10.00">_grid_module</text>
</a>
</g>
</g>
<!-- Node1&#45;&gt;Node16 -->
<g id="edge16_Node000001_Node000016" class="edge">
<title>Node1&#45;&gt;Node16</title>
<g id="a_edge16_Node000001_Node000016"><a xlink:title=" ">
<path fill="none" stroke="#63b8ff" d="M66.87,-446.3C70.37,-493.82 87.35,-640.66 166,-723 169.32,-726.48 173.11,-729.54 177.17,-732.25"/>
<polygon fill="#63b8ff" stroke="#63b8ff" points="175.44,-735.29 185.84,-737.31 178.97,-729.25 175.44,-735.29"/>
</a>
</g>
</g>
<!-- Node17 -->
<g id="Node000017" class="node">
<title>Node17</title>
<g id="a_Node000017"><a xlink:href="namespacem__initial__condition.html#a07a665ff41297455ac2da7b54243bac5" target="_top" xlink:title="Computation of parameters, allocation procedures, and/or any other tasks needed to properly setup the...">
<polygon fill="white" stroke="#666666" points="295.5,-198.5 185.5,-198.5 185.5,-157.5 295.5,-157.5 295.5,-198.5"/>
<text text-anchor="start" x="193.5" y="-186.5" font-family="Helvetica,sans-Serif" font-size="10.00">m_initial_condition</text>
<text text-anchor="start" x="193.5" y="-175.5" font-family="Helvetica,sans-Serif" font-size="10.00">::s_initialize_initial</text>
<text text-anchor="middle" x="240.5" y="-164.5" font-family="Helvetica,sans-Serif" font-size="10.00">_condition_module</text>
</a>
</g>
</g>
<!-- Node1&#45;&gt;Node17 -->
<g id="edge19_Node000001_Node000017" class="edge">
<title>Node1&#45;&gt;Node17</title>
<g id="a_edge19_Node000001_Node000017"><a xlink:title=" ">
<path fill="none" stroke="#63b8ff" d="M68.76,-415.75C76.7,-376.13 103.15,-268.74 166,-208 169.12,-204.98 172.59,-202.25 176.27,-199.79"/>
<polygon fill="#63b8ff" stroke="#63b8ff" points="178.36,-202.61 185.17,-194.5 174.79,-196.6 178.36,-202.61"/>
</a>
</g>
</g>
<!-- Node18 -->
<g id="Node000018" class="node">
<title>Node18</title>
<g id="a_Node000018"><a xlink:href="m__helper_8fpp_8f90.html#ae6e719f709d847b8b1a1f8e8b483158f" target="_top" xlink:title="Initializes non&#45;polydisperse bubble modeling.">
<polygon fill="white" stroke="#666666" points="297,-139.5 184,-139.5 184,-120.5 297,-120.5 297,-139.5"/>
<text text-anchor="middle" x="240.5" y="-127.5" font-family="Helvetica,sans-Serif" font-size="10.00">s_initialize_nonpoly</text>
</a>
</g>
</g>
<!-- Node1&#45;&gt;Node18 -->
<g id="edge20_Node000001_Node000018" class="edge">
<title>Node1&#45;&gt;Node18</title>
<g id="a_edge20_Node000001_Node000018"><a xlink:title=" ">
<path fill="none" stroke="#63b8ff" d="M66.63,-415.8C69.43,-368.64 84.6,-223.55 166,-149 168.66,-146.57 171.58,-144.44 174.69,-142.57"/>
<polygon fill="#63b8ff" stroke="#63b8ff" points="176.48,-145.59 183.86,-137.99 173.35,-139.33 176.48,-145.59"/>
</a>
</g>
</g>
<!-- Node20 -->
<g id="Node000020" class="node">
<title>Node20</title>
<g id="a_Node000020"><a xlink:href="m__phase__change_8fpp_8f90.html#a14fb0d0271f50c4373b2f17b8e88a770" target="_top" xlink:title="The purpose of this subroutine is to initialize the phase change module by setting the parameters nee...">
<polygon fill="white" stroke="#666666" points="310,-537 171,-537 171,-507 310,-507 310,-537"/>
<text text-anchor="start" x="179" y="-525" font-family="Helvetica,sans-Serif" font-size="10.00">s_initialize_phasechange</text>
<text text-anchor="middle" x="240.5" y="-514" font-family="Helvetica,sans-Serif" font-size="10.00">_module</text>
</a>
</g>
</g>
<!-- Node1&#45;&gt;Node20 -->
<g id="edge22_Node000001_Node000020" class="edge">
<title>Node1&#45;&gt;Node20</title>
<g id="a_edge22_Node000001_Node000020"><a xlink:title=" ">
<path fill="none" stroke="#63b8ff" d="M84.96,-446.03C104.39,-460.85 135.94,-483.37 166,-498 169.8,-499.85 173.78,-501.61 177.84,-503.27"/>
<polygon fill="#63b8ff" stroke="#63b8ff" points="176.8,-506.62 187.39,-506.97 179.33,-500.09 176.8,-506.62"/>
</a>
</g>
</g>
<!-- Node28 -->
<g id="Node000028" class="node">
<title>Node28</title>
<g id="a_Node000028"><a xlink:href="m__variables__conversion_8fpp_8f90.html#ad5e4b4372f2626845645a4e03a83df65" target="_top" xlink:title="The computation of parameters, the allocation of memory, the association of pointers and/or the execu...">
<polygon fill="white" stroke="#666666" points="300,-102 181,-102 181,-72 300,-72 300,-102"/>
<text text-anchor="start" x="189" y="-90" font-family="Helvetica,sans-Serif" font-size="10.00">s_initialize_variables</text>
<text text-anchor="middle" x="240.5" y="-79" font-family="Helvetica,sans-Serif" font-size="10.00">_conversion_module</text>
</a>
</g>
</g>
<!-- Node1&#45;&gt;Node28 -->
<g id="edge30_Node000001_Node000028" class="edge">
<title>Node1&#45;&gt;Node28</title>
<g id="a_edge30_Node000001_Node000028"><a xlink:title=" ">
<path fill="none" stroke="#63b8ff" d="M66.17,-415.94C67.55,-365.6 78.83,-201.29 166,-112 167.85,-110.1 169.86,-108.35 171.98,-106.73"/>
<polygon fill="#63b8ff" stroke="#63b8ff" points="174.16,-109.48 180.65,-101.11 170.35,-103.61 174.16,-109.48"/>
</a>
</g>
</g>
<!-- Node32 -->
<g id="Node000032" class="node">
<title>Node32</title>
<g id="a_Node000032"><a xlink:href="namespacem__start__up.html#ac1c3187de246cbfb9c6b3751e90b9426" target="_top" xlink:title="Cell&#45;boundary data are checked for consistency by looking at the (non&#45;)uniform cell&#45;width distributio...">
<polygon fill="white" stroke="#666666" points="308,-681 173,-681 173,-651 308,-651 308,-681"/>
<text text-anchor="start" x="181" y="-669" font-family="Helvetica,sans-Serif" font-size="10.00">m_start_up::s_read</text>
<text text-anchor="middle" x="240.5" y="-658" font-family="Helvetica,sans-Serif" font-size="10.00">_parallel_grid_data_files</text>
</a>
</g>
</g>
<!-- Node1&#45;&gt;Node32 -->
<g id="edge34_Node000001_Node000032" class="edge">
<title>Node1&#45;&gt;Node32</title>
<g id="a_edge34_Node000001_Node000032"><a xlink:title=" ">
<path fill="none" stroke="#63b8ff" d="M68.9,-446.25C77.02,-484.82 103.63,-587.08 166,-642 167.35,-643.19 168.76,-644.32 170.22,-645.39"/>
<polygon fill="#63b8ff" stroke="#63b8ff" points="168.74,-648.6 179.07,-650.96 172.47,-642.67 168.74,-648.6"/>
</a>
</g>
</g>
<!-- Node33 -->
<g id="Node000033" class="node">
<title>Node33</title>
<g id="a_Node000033"><a xlink:href="namespacem__start__up.html#a25daee88d75c57908efa6e3e0516fb28" target="_top" xlink:title="The goal of this subroutine is to read in any preexisting initial condition data files so that they m...">
<polygon fill="white" stroke="#666666" points="303,-489 178,-489 178,-459 303,-459 303,-489"/>
<text text-anchor="start" x="186" y="-477" font-family="Helvetica,sans-Serif" font-size="10.00">m_start_up::s_read</text>
<text text-anchor="middle" x="240.5" y="-466" font-family="Helvetica,sans-Serif" font-size="10.00">_parallel_ic_data_files</text>
</a>
</g>
</g>
<!-- Node1&#45;&gt;Node33 -->
<g id="edge37_Node000001_Node000033" class="edge">
<title>Node1&#45;&gt;Node33</title>
<g id="a_edge37_Node000001_Node000033"><a xlink:title=" ">
<path fill="none" stroke="#63b8ff" d="M126.68,-446.04C140.29,-449.41 154.83,-453.02 168.8,-456.48"/>
<polygon fill="#63b8ff" stroke="#63b8ff" points="168.3,-459.96 178.85,-458.97 169.99,-453.17 168.3,-459.96"/>
</a>
</g>
</g>
<!-- Node34 -->
<g id="Node000034" class="node">
<title>Node34</title>
<g id="a_Node000034"><a xlink:href="namespacem__start__up.html#a396fa8a3563d4b04bb838a09c273bf61" target="_top" xlink:title="The goal of this subroutine is to read in any preexisting grid data as well as based on the imported ...">
<polygon fill="white" stroke="#666666" points="303,-633 178,-633 178,-603 303,-603 303,-633"/>
<text text-anchor="start" x="186" y="-621" font-family="Helvetica,sans-Serif" font-size="10.00">m_start_up::s_read</text>
<text text-anchor="middle" x="240.5" y="-610" font-family="Helvetica,sans-Serif" font-size="10.00">_serial_grid_data_files</text>
</a>
</g>
</g>
<!-- Node1&#45;&gt;Node34 -->
<g id="edge41_Node000001_Node000034" class="edge">
<title>Node1&#45;&gt;Node34</title>
<g id="a_edge41_Node000001_Node000034"><a xlink:title=" ">
<path fill="none" stroke="#63b8ff" d="M71.13,-446.04C82.8,-478.04 114.4,-553.28 166,-594 167.76,-595.39 169.59,-596.69 171.5,-597.92"/>
<polygon fill="#63b8ff" stroke="#63b8ff" points="169.77,-600.97 180.19,-602.86 173.23,-594.88 169.77,-600.97"/>
</a>
</g>
</g>
<!-- Node35 -->
<g id="Node000035" class="node">
<title>Node35</title>
<g id="a_Node000035"><a xlink:href="namespacem__start__up.html#a88f1f355d8aeecb6cd47653ed285cfa2" target="_top" xlink:title="The goal of this subroutine is to read in any preexisting initial condition data files so that they m...">
<polygon fill="white" stroke="#666666" points="298,-585 183,-585 183,-555 298,-555 298,-585"/>
<text text-anchor="start" x="191" y="-573" font-family="Helvetica,sans-Serif" font-size="10.00">m_start_up::s_read</text>
<text text-anchor="middle" x="240.5" y="-562" font-family="Helvetica,sans-Serif" font-size="10.00">_serial_ic_data_files</text>
</a>
</g>
</g>
<!-- Node1&#45;&gt;Node35 -->
<g id="edge44_Node000001_Node000035" class="edge">
<title>Node1&#45;&gt;Node35</title>
<g id="a_edge44_Node000001_Node000035"><a xlink:title=" ">
<path fill="none" stroke="#63b8ff" d="M75.39,-446.39C91.15,-470.94 125.2,-518.96 166,-546 168.41,-547.6 170.94,-549.1 173.55,-550.51"/>
<polygon fill="#63b8ff" stroke="#63b8ff" points="172.13,-553.71 182.66,-554.93 175.19,-547.41 172.13,-553.71"/>
</a>
</g>
</g>
<!-- Node36 -->
<g id="Node000036" class="node">
<title>Node36</title>
<g id="a_Node000036"><a xlink:href="m__helper_8fpp_8f90.html#a546be57ed19ff3f9da2d133dc9df96a9" target="_top" xlink:title="Computes the Simpson weights for quadrature.">
<polygon fill="white" stroke="#666666" points="274.5,-53.5 206.5,-53.5 206.5,-34.5 274.5,-34.5 274.5,-53.5"/>
<text text-anchor="middle" x="240.5" y="-41.5" font-family="Helvetica,sans-Serif" font-size="10.00">s_simpson</text>
</a>
</g>
</g>
<!-- Node1&#45;&gt;Node36 -->
<g id="edge46_Node000001_Node000036" class="edge">
<title>Node1&#45;&gt;Node36</title>
<g id="a_edge46_Node000001_Node000036"><a xlink:title=" ">
<path fill="none" stroke="#63b8ff" d="M68.06,-415.98C76.91,-353.46 113.72,-114.64 166,-63 174.11,-54.99 185.14,-50.22 196.18,-47.42"/>
<polygon fill="#63b8ff" stroke="#63b8ff" points="197.14,-50.8 206.24,-45.37 195.74,-43.94 197.14,-50.8"/>
</a>
</g>
</g>
<!-- Node4 -->
<g id="Node000004" class="node">
<title>Node4</title>
<g id="a_Node000004"><a xlink:href="m__mpi__common_8fpp_8f90.html#a69c6a0b8d191bf31b9831c7f39206fe4" target="_top" xlink:title="The following subroutine takes the inputted variable and determines its minimum value on the entire c...">
<polygon fill="white" stroke="#666666" points="669,-675.5 561,-675.5 561,-656.5 669,-656.5 669,-675.5"/>
<text text-anchor="middle" x="615" y="-663.5" font-family="Helvetica,sans-Serif" font-size="10.00">s_mpi_reduce_min</text>
</a>
</g>
</g>
<!-- Node3&#45;&gt;Node4 -->
<g id="edge3_Node000003_Node000004" class="edge">
<title>Node3&#45;&gt;Node4</title>
<g id="a_edge3_Node000003_Node000004"><a xlink:title=" ">
<path fill="none" stroke="#63b8ff" d="M483.01,-696.45C508.22,-690.59 538.08,-683.65 562.92,-677.87"/>
<polygon fill="#63b8ff" stroke="#63b8ff" points="563.93,-681.23 572.88,-675.56 562.34,-674.41 563.93,-681.23"/>
</a>
</g>
</g>
<!-- Node6 -->
<g id="Node000006" class="node">
<title>Node6</title>
<g id="a_Node000006"><a xlink:href="namespacem__assign__variables.html#aa06360954af8af6e857e009116101f20" target="_top" xlink:title="This subroutine assigns the mixture primitive variables of the patch designated by the patch_id,...">
<polygon fill="white" stroke="#666666" points="498,-252.5 358,-252.5 358,-211.5 498,-211.5 498,-252.5"/>
<text text-anchor="start" x="366" y="-240.5" font-family="Helvetica,sans-Serif" font-size="10.00">m_assign_variables</text>
<text text-anchor="start" x="366" y="-229.5" font-family="Helvetica,sans-Serif" font-size="10.00">::s_assign_patch_mixture</text>
<text text-anchor="middle" x="428" y="-218.5" font-family="Helvetica,sans-Serif" font-size="10.00">_primitive_variables</text>
</a>
</g>
</g>
<!-- Node5&#45;&gt;Node6 -->
<g id="edge5_Node000005_Node000006" class="edge">
<title>Node5&#45;&gt;Node6</title>
<g id="a_edge5_Node000005_Node000006"><a xlink:title=" ">
<path fill="none" stroke="#63b8ff" d="M297.16,-276.8C316.23,-270.22 337.81,-262.77 357.83,-255.87"/>
<polygon fill="#63b8ff" stroke="#63b8ff" points="359.2,-259.1 367.51,-252.53 356.91,-252.48 359.2,-259.1"/>
</a>
</g>
</g>
<!-- Node7 -->
<g id="Node000007" class="node">
<title>Node7</title>
<g id="a_Node000007"><a xlink:href="namespacem__assign__variables.html#acea8669db4dc8eb166849ab1f9683223" target="_top" xlink:title="This subroutine assigns the species primitive variables. This follows s_assign_patch_species_primitiv...">
<polygon fill="white" stroke="#666666" points="497.5,-311.5 358.5,-311.5 358.5,-270.5 497.5,-270.5 497.5,-311.5"/>
<text text-anchor="start" x="366.5" y="-299.5" font-family="Helvetica,sans-Serif" font-size="10.00">m_assign_variables</text>
<text text-anchor="start" x="366.5" y="-288.5" font-family="Helvetica,sans-Serif" font-size="10.00">::s_assign_patch_species</text>
<text text-anchor="middle" x="428" y="-277.5" font-family="Helvetica,sans-Serif" font-size="10.00">_primitive_variables</text>
</a>
</g>
</g>
<!-- Node5&#45;&gt;Node7 -->
<g id="edge6_Node000005_Node000007" class="edge">
<title>Node5&#45;&gt;Node7</title>
<g id="a_edge6_Node000005_Node000007"><a xlink:title=" ">
<path fill="none" stroke="#63b8ff" d="M297.16,-294.5C313.21,-294.07 331.05,-293.59 348.23,-293.12"/>
<polygon fill="#63b8ff" stroke="#63b8ff" points="348.35,-296.62 358.25,-292.85 348.16,-289.62 348.35,-296.62"/>
</a>
</g>
</g>
<!-- Node9 -->
<g id="Node000009" class="node">
<title>Node9</title>
<g id="a_Node000009"><a xlink:href="m__mpi__common_8fpp_8f90.html#ae966ace411b5ffbc9ebd5fed9f35da63" target="_top" xlink:title="Halts all processes until all have reached barrier.">
<polygon fill="white" stroke="#666666" points="656.5,-440.5 573.5,-440.5 573.5,-421.5 656.5,-421.5 656.5,-440.5"/>
<text text-anchor="middle" x="615" y="-428.5" font-family="Helvetica,sans-Serif" font-size="10.00">s_mpi_barrier</text>
</a>
</g>
</g>
<!-- Node8&#45;&gt;Node9 -->
<g id="edge8_Node000008_Node000009" class="edge">
<title>Node8&#45;&gt;Node9</title>
<g id="a_edge8_Node000008_Node000009"><a xlink:title=" ">
<path fill="none" stroke="#63b8ff" d="M315.07,-390.45C368.09,-392.91 441.23,-397.73 505,-407 525.48,-409.98 547.84,-414.65 566.96,-419.08"/>
<polygon fill="#63b8ff" stroke="#63b8ff" points="566.38,-422.54 576.91,-421.44 567.99,-415.73 566.38,-422.54"/>
</a>
</g>
</g>
<!-- Node8&#45;&gt;Node10 -->
<g id="edge9_Node000008_Node000010" class="edge">
<title>Node8&#45;&gt;Node10</title>
<g id="a_edge9_Node000008_Node000010"><a xlink:title=" ">
<path fill="none" stroke="#63b8ff" d="M306.38,-403.04C321.29,-406.5 337.26,-410.2 352.55,-413.74"/>
<polygon fill="#63b8ff" stroke="#63b8ff" points="351.94,-417.19 362.47,-416.04 353.52,-410.37 351.94,-417.19"/>
</a>
</g>
</g>
<!-- Node8&#45;&gt;Node12 -->
<g id="edge12_Node000008_Node000012" class="edge">
<title>Node8&#45;&gt;Node12</title>
<g id="a_edge12_Node000008_Node000012"><a xlink:title=" ">
<path fill="none" stroke="#63b8ff" d="M306.38,-372.96C321.29,-369.5 337.26,-365.8 352.55,-362.26"/>
<polygon fill="#63b8ff" stroke="#63b8ff" points="353.52,-365.63 362.47,-359.96 351.94,-358.81 353.52,-365.63"/>
</a>
</g>
</g>
<!-- Node10&#45;&gt;Node9 -->
<g id="edge11_Node000010_Node000009" class="edge">
<title>Node10&#45;&gt;Node9</title>
<g id="a_edge11_Node000010_Node000009"><a xlink:title=" ">
<path fill="none" stroke="#63b8ff" d="M493.7,-431C516.45,-431 541.66,-431 563.11,-431"/>
<polygon fill="#63b8ff" stroke="#63b8ff" points="563.31,-434.5 573.31,-431 563.31,-427.5 563.31,-434.5"/>
</a>
</g>
</g>
<!-- Node11 -->
<g id="Node000011" class="node">
<title>Node11</title>
<g id="a_Node000011"><a xlink:href="m__mpi__common_8fpp_8f90.html#af3c13e2984fd36a116df57de0b672bc1" target="_top" xlink:title=" ">
<polygon fill="white" stroke="#666666" points="675,-481.5 555,-481.5 555,-462.5 675,-462.5 675,-481.5"/>
<text text-anchor="middle" x="615" y="-469.5" font-family="Helvetica,sans-Serif" font-size="10.00">s_initialize_mpi_data</text>
</a>
</g>
</g>
<!-- Node10&#45;&gt;Node11 -->
<g id="edge10_Node000010_Node000011" class="edge">
<title>Node10&#45;&gt;Node11</title>
<g id="a_edge10_Node000010_Node000011"><a xlink:title=" ">
<path fill="none" stroke="#63b8ff" d="M493.7,-445.34C515.73,-450.22 540.08,-455.62 561.07,-460.27"/>
<polygon fill="#63b8ff" stroke="#63b8ff" points="560.56,-463.74 571.09,-462.49 562.08,-456.91 560.56,-463.74"/>
</a>
</g>
</g>
<!-- Node13 -->
<g id="Node000013" class="node">
<title>Node13</title>
<g id="a_Node000013"><a xlink:href="m__helper_8fpp_8f90.html#a772c75c8b24c414cfaed17e2f8acc772" target="_top" xlink:title=" ">
<polygon fill="white" stroke="#666666" points="676,-372.5 554,-372.5 554,-353.5 676,-353.5 676,-372.5"/>
<text text-anchor="middle" x="615" y="-360.5" font-family="Helvetica,sans-Serif" font-size="10.00">s_comp_n_from_cons</text>
</a>
</g>
</g>
<!-- Node12&#45;&gt;Node13 -->
<g id="edge13_Node000012_Node000013" class="edge">
<title>Node12&#45;&gt;Node13</title>
<g id="a_edge13_Node000012_Node000013"><a xlink:title=" ">
<path fill="none" stroke="#63b8ff" d="M493.7,-351.3C509.93,-352.87 527.41,-354.57 543.88,-356.18"/>
<polygon fill="#63b8ff" stroke="#63b8ff" points="543.69,-359.68 553.98,-357.16 544.37,-352.71 543.69,-359.68"/>
</a>
</g>
</g>
<!-- Node14 -->
<g id="Node000014" class="node">
<title>Node14</title>
<g id="a_Node000014"><a xlink:href="m__variables__conversion_8fpp_8f90.html#ac61bd62d4ea1652a4feb24d42eb3c3b1" target="_top" xlink:title="This procedure conditionally calculates the appropriate pressure.">
<polygon fill="white" stroke="#666666" points="673.5,-335.5 556.5,-335.5 556.5,-316.5 673.5,-316.5 673.5,-335.5"/>
<text text-anchor="middle" x="615" y="-323.5" font-family="Helvetica,sans-Serif" font-size="10.00">s_compute_pressure</text>
</a>
</g>
</g>
<!-- Node12&#45;&gt;Node14 -->
<g id="edge14_Node000012_Node000014" class="edge">
<title>Node12&#45;&gt;Node14</title>
<g id="a_edge14_Node000012_Node000014"><a xlink:title=" ">
<path fill="none" stroke="#63b8ff" d="M493.7,-338.35C510.78,-336.6 529.24,-334.71 546.46,-332.94"/>
<polygon fill="#63b8ff" stroke="#63b8ff" points="546.84,-336.42 556.43,-331.91 546.13,-329.45 546.84,-336.42"/>
</a>
</g>
</g>
<!-- Node16&#45;&gt;Node2 -->
<g id="edge17_Node000016_Node000002" class="edge">
<title>Node16&#45;&gt;Node2</title>
<g id="a_edge17_Node000016_Node000002"><a xlink:title=" ">
<path fill="none" stroke="#63b8ff" d="M295.15,-758.94C316.31,-761.68 340.79,-764.85 362.87,-767.7"/>
<polygon fill="#63b8ff" stroke="#63b8ff" points="362.46,-771.18 372.82,-768.99 363.36,-764.24 362.46,-771.18"/>
</a>
</g>
</g>
<!-- Node16&#45;&gt;Node3 -->
<g id="edge18_Node000016_Node000003" class="edge">
<title>Node16&#45;&gt;Node3</title>
<g id="a_edge18_Node000016_Node000003"><a xlink:title=" ">
<path fill="none" stroke="#63b8ff" d="M295.15,-739.56C316.31,-734.66 340.79,-728.98 362.87,-723.87"/>
<polygon fill="#63b8ff" stroke="#63b8ff" points="363.87,-727.23 372.82,-721.56 362.29,-720.41 363.87,-727.23"/>
</a>
</g>
</g>
<!-- Node19 -->
<g id="Node000019" class="node">
<title>Node19</title>
<g id="a_Node000019"><a xlink:href="m__helper_8fpp_8f90.html#a91cfb5e94039510845e0bb8cdc843ee8" target="_top" xlink:title="Computes the transfer coefficient for the non&#45;polytropic bubble compression process.">
<polygon fill="white" stroke="#666666" points="466,-163.5 390,-163.5 390,-144.5 466,-144.5 466,-163.5"/>
<text text-anchor="middle" x="428" y="-151.5" font-family="Helvetica,sans-Serif" font-size="10.00">s_transcoeff</text>
</a>
</g>
</g>
<!-- Node18&#45;&gt;Node19 -->
<g id="edge21_Node000018_Node000019" class="edge">
<title>Node18&#45;&gt;Node19</title>
<g id="a_edge21_Node000018_Node000019"><a xlink:title=" ">
<path fill="none" stroke="#63b8ff" d="M297.16,-137.2C323.51,-140.61 354.65,-144.64 379.83,-147.9"/>
<polygon fill="#63b8ff" stroke="#63b8ff" points="379.5,-151.38 389.87,-149.2 380.4,-144.44 379.5,-151.38"/>
</a>
</g>
</g>
<!-- Node21 -->
<g id="Node000021" class="node">
<title>Node21</title>
<g id="a_Node000021"><a xlink:href="m__phase__change_8fpp_8f90.html#ab0612220c96671498ca9877e1c00a639" target="_top" xlink:title="This subroutine is created to activate either the pT&#45; (N fluids) or the pTg&#45;equilibrium (2 fluids for...">
<polygon fill="white" stroke="#666666" points="491.5,-559.5 364.5,-559.5 364.5,-540.5 491.5,-540.5 491.5,-559.5"/>
<text text-anchor="middle" x="428" y="-547.5" font-family="Helvetica,sans-Serif" font-size="10.00">s_infinite_relaxation_k</text>
</a>
</g>
</g>
<!-- Node20&#45;&gt;Node21 -->
<g id="edge23_Node000020_Node000021" class="edge">
<title>Node20&#45;&gt;Node21</title>
<g id="a_edge23_Node000020_Node000021"><a xlink:title=" ">
<path fill="none" stroke="#63b8ff" d="M310.05,-532.35C324.47,-534.52 339.73,-536.83 354.3,-539.03"/>
<polygon fill="#63b8ff" stroke="#63b8ff" points="353.85,-542.5 364.26,-540.53 354.89,-535.58 353.85,-542.5"/>
</a>
</g>
</g>
<!-- Node27 -->
<g id="Node000027" class="node">
<title>Node27</title>
<g id="a_Node000027"><a xlink:href="m__mpi__common_8fpp_8f90.html#ad9e1329e498b65ad4256658675d6f797" target="_top" xlink:title="The subroutine terminates the MPI execution environment.">
<polygon fill="white" stroke="#666666" points="466.5,-596.5 389.5,-596.5 389.5,-577.5 466.5,-577.5 466.5,-596.5"/>
<text text-anchor="middle" x="428" y="-584.5" font-family="Helvetica,sans-Serif" font-size="10.00">s_mpi_abort</text>
</a>
</g>
</g>
<!-- Node20&#45;&gt;Node27 -->
<g id="edge29_Node000020_Node000027" class="edge">
<title>Node20&#45;&gt;Node27</title>
<g id="a_edge29_Node000020_Node000027"><a xlink:title=" ">
<path fill="none" stroke="#63b8ff" d="M293.15,-537.03C300.6,-539.72 308.08,-542.73 315,-546 332.16,-554.12 333.52,-561.6 351,-569 359.99,-572.81 369.93,-575.9 379.58,-578.37"/>
<polygon fill="#63b8ff" stroke="#63b8ff" points="378.94,-581.81 389.48,-580.73 380.57,-575.01 378.94,-581.81"/>
</a>
</g>
</g>
<!-- Node22 -->
<g id="Node000022" class="node">
<title>Node22</title>
<g id="a_Node000022"><a xlink:href="m__phase__change_8fpp_8f90.html#ad652f4225e50ad62205200e60dc7425f" target="_top" xlink:title="This auxiliary subroutine is created to activate the pT&#45;equilibrium for N fluids.">
<polygon fill="white" stroke="#666666" points="686,-596.5 544,-596.5 544,-577.5 686,-577.5 686,-596.5"/>
<text text-anchor="middle" x="615" y="-584.5" font-family="Helvetica,sans-Serif" font-size="10.00">s_infinite_pt_relaxation_k</text>
</a>
</g>
</g>
<!-- Node21&#45;&gt;Node22 -->
<g id="edge24_Node000021_Node000022" class="edge">
<title>Node21&#45;&gt;Node22</title>
<g id="a_edge24_Node000021_Node000022"><a xlink:title=" ">
<path fill="none" stroke="#63b8ff" d="M476.64,-559.53C500.93,-564.39 530.67,-570.33 556.25,-575.45"/>
<polygon fill="#63b8ff" stroke="#63b8ff" points="555.71,-578.91 566.2,-577.44 557.08,-572.05 555.71,-578.91"/>
</a>
</g>
</g>
<!-- Node23 -->
<g id="Node000023" class="node">
<title>Node23</title>
<g id="a_Node000023"><a xlink:href="m__phase__change_8fpp_8f90.html#acdc2376a76e6e6e8cfb6f4ed9907d9de" target="_top" xlink:title="This auxiliary subroutine is created to activate the pTg&#45;equilibrium for N fluids under pT and 2 flui...">
<polygon fill="white" stroke="#666666" points="689,-559.5 541,-559.5 541,-540.5 689,-540.5 689,-559.5"/>
<text text-anchor="middle" x="615" y="-547.5" font-family="Helvetica,sans-Serif" font-size="10.00">s_infinite_ptg_relaxation_k</text>
</a>
</g>
</g>
<!-- Node21&#45;&gt;Node23 -->
<g id="edge25_Node000021_Node000023" class="edge">
<title>Node21&#45;&gt;Node23</title>
<g id="a_edge25_Node000021_Node000023"><a xlink:title=" ">
<path fill="none" stroke="#63b8ff" d="M491.63,-550C504.25,-550 517.69,-550 530.88,-550"/>
<polygon fill="#63b8ff" stroke="#63b8ff" points="530.89,-553.5 540.89,-550 530.89,-546.5 530.89,-553.5"/>
</a>
</g>
</g>
<!-- Node26 -->
<g id="Node000026" class="node">
<title>Node26</title>
<g id="a_Node000026"><a xlink:href="m__phase__change_8fpp_8f90.html#a8d29934dda273de9a032c4797605be3f" target="_top" xlink:title="This auxiliary subroutine finds the Saturation temperature for a given saturation pressure through a ...">
<polygon fill="white" stroke="#666666" points="638,-522.5 592,-522.5 592,-503.5 638,-503.5 638,-522.5"/>
<text text-anchor="middle" x="615" y="-510.5" font-family="Helvetica,sans-Serif" font-size="10.00">s_tsat</text>
</a>
</g>
</g>
<!-- Node21&#45;&gt;Node26 -->
<g id="edge28_Node000021_Node000026" class="edge">
<title>Node21&#45;&gt;Node26</title>
<g id="a_edge28_Node000021_Node000026"><a xlink:title=" ">
<path fill="none" stroke="#63b8ff" d="M476.64,-540.47C509.63,-533.87 552.67,-525.27 581.71,-519.46"/>
<polygon fill="#63b8ff" stroke="#63b8ff" points="582.61,-522.85 591.73,-517.45 581.24,-515.98 582.61,-522.85"/>
</a>
</g>
</g>
<!-- Node24 -->
<g id="Node000024" class="node">
<title>Node24</title>
<g id="a_Node000024"><a xlink:href="m__phase__change_8fpp_8f90.html#a1cd33c317cc8ace82ccc1c33a53644cc" target="_top" xlink:title="This auxiliary subroutine calculates the 2 x 2 Jacobian and, its inverse and transpose to be used in ...">
<polygon fill="white" stroke="#666666" points="849,-586 733,-586 733,-556 849,-556 849,-586"/>
<text text-anchor="start" x="741" y="-574" font-family="Helvetica,sans-Serif" font-size="10.00">s_compute_jacobian</text>
<text text-anchor="middle" x="791" y="-563" font-family="Helvetica,sans-Serif" font-size="10.00">_matrix</text>
</a>
</g>
</g>
<!-- Node23&#45;&gt;Node24 -->
<g id="edge26_Node000023_Node000024" class="edge">
<title>Node23&#45;&gt;Node24</title>
<g id="a_edge26_Node000023_Node000024"><a xlink:title=" ">
<path fill="none" stroke="#63b8ff" d="M689.04,-558.81C700.21,-560.16 711.71,-561.55 722.76,-562.88"/>
<polygon fill="#63b8ff" stroke="#63b8ff" points="722.41,-566.37 732.75,-564.09 723.24,-559.42 722.41,-566.37"/>
</a>
</g>
</g>
<!-- Node25 -->
<g id="Node000025" class="node">
<title>Node25</title>
<g id="a_Node000025"><a xlink:href="m__phase__change_8fpp_8f90.html#abdbfe3d69ae51ba911409597a6870620" target="_top" xlink:title="This auxiliary subroutine computes the residue of the pTg&#45;equilibrium procedure.">
<polygon fill="white" stroke="#666666" points="857,-537.5 725,-537.5 725,-518.5 857,-518.5 857,-537.5"/>
<text text-anchor="middle" x="791" y="-525.5" font-family="Helvetica,sans-Serif" font-size="10.00">s_compute_ptg_residue</text>
</a>
</g>
</g>
<!-- Node23&#45;&gt;Node25 -->
<g id="edge27_Node000023_Node000025" class="edge">
<title>Node23&#45;&gt;Node25</title>
<g id="a_edge27_Node000023_Node000025"><a xlink:title=" ">
<path fill="none" stroke="#63b8ff" d="M689.04,-540.77C697.59,-539.68 706.33,-538.58 714.92,-537.49"/>
<polygon fill="#63b8ff" stroke="#63b8ff" points="715.42,-540.96 724.9,-536.23 714.54,-534.01 715.42,-540.96"/>
</a>
</g>
</g>
<!-- Node29 -->
<g id="Node000029" class="node">
<title>Node29</title>
<g id="a_Node000029"><a xlink:href="m__variables__conversion_8fpp_8f90.html#adec0ccf2a3298d2b375a9405a0fa7c1a" target="_top" xlink:title="This subroutine is designed for the gamma/pi_inf model and provided a set of either conservative or p...">
<polygon fill="white" stroke="#666666" points="489,-126 367,-126 367,-96 489,-96 489,-126"/>
<text text-anchor="start" x="375" y="-114" font-family="Helvetica,sans-Serif" font-size="10.00">s_convert_mixture_to</text>
<text text-anchor="middle" x="428" y="-103" font-family="Helvetica,sans-Serif" font-size="10.00">_mixture_variables</text>
</a>
</g>
</g>
<!-- Node28&#45;&gt;Node29 -->
<g id="edge31_Node000028_Node000029" class="edge">
<title>Node28&#45;&gt;Node29</title>
<g id="a_edge31_Node000028_Node000029"><a xlink:title=" ">
<path fill="none" stroke="#63b8ff" d="M300.19,-94.59C318.19,-96.92 338.17,-99.51 356.85,-101.92"/>
<polygon fill="#63b8ff" stroke="#63b8ff" points="356.41,-105.4 366.77,-103.21 357.31,-98.45 356.41,-105.4"/>
</a>
</g>
</g>
<!-- Node30 -->
<g id="Node000030" class="node">
<title>Node30</title>
<g id="a_Node000030"><a xlink:href="m__variables__conversion_8fpp_8f90.html#ac9e3787fd3c00962752030f2c218c3fc" target="_top" xlink:title="This subroutine is designed for the volume fraction model and provided a set of either conservative o...">
<polygon fill="white" stroke="#666666" points="488.5,-78 367.5,-78 367.5,-48 488.5,-48 488.5,-78"/>
<text text-anchor="start" x="375.5" y="-66" font-family="Helvetica,sans-Serif" font-size="10.00">s_convert_species_to</text>
<text text-anchor="middle" x="428" y="-55" font-family="Helvetica,sans-Serif" font-size="10.00">_mixture_variables</text>
</a>
</g>
</g>
<!-- Node28&#45;&gt;Node30 -->
<g id="edge32_Node000028_Node000030" class="edge">
<title>Node28&#45;&gt;Node30</title>
<g id="a_edge32_Node000028_Node000030"><a xlink:title=" ">
<path fill="none" stroke="#63b8ff" d="M300.19,-79.41C318.37,-77.05 338.57,-74.44 357.41,-72"/>
<polygon fill="#63b8ff" stroke="#63b8ff" points="357.95,-75.46 367.41,-70.71 357.05,-68.52 357.95,-75.46"/>
</a>
</g>
</g>
<!-- Node31 -->
<g id="Node000031" class="node">
<title>Node31</title>
<g id="a_Node000031"><a xlink:href="m__variables__conversion_8fpp_8f90.html#a975c2bf46f73cd704b4503e833f5ec3c" target="_top" xlink:title="This procedure is used alongside with the gamma/pi_inf model to transfer the density,...">
<polygon fill="white" stroke="#666666" points="505,-30 351,-30 351,0 505,0 505,-30"/>
<text text-anchor="start" x="359" y="-18" font-family="Helvetica,sans-Serif" font-size="10.00">s_convert_species_to</text>
<text text-anchor="middle" x="428" y="-7" font-family="Helvetica,sans-Serif" font-size="10.00">_mixture_variables_bubbles</text>
</a>
</g>
</g>
<!-- Node28&#45;&gt;Node31 -->
<g id="edge33_Node000028_Node000031" class="edge">
<title>Node28&#45;&gt;Node31</title>
<g id="a_edge33_Node000028_Node000031"><a xlink:title=" ">
<path fill="none" stroke="#63b8ff" d="M293.6,-71.95C300.92,-69.28 308.24,-66.28 315,-63 332.3,-54.6 333.66,-47.31 351,-39 354.86,-37.15 358.9,-35.4 363.01,-33.74"/>
<polygon fill="#63b8ff" stroke="#63b8ff" points="364.6,-36.89 372.71,-30.07 362.12,-30.34 364.6,-36.89"/>
</a>
</g>
</g>
<!-- Node32&#45;&gt;Node4 -->
<g id="edge36_Node000032_Node000004" class="edge">
<title>Node32&#45;&gt;Node4</title>
<g id="a_edge36_Node000032_Node000004"><a xlink:title=" ">
<path fill="none" stroke="#63b8ff" d="M308.1,-666C376.87,-666 483.38,-666 550.86,-666"/>
<polygon fill="#63b8ff" stroke="#63b8ff" points="550.93,-669.5 560.93,-666 550.93,-662.5 550.93,-669.5"/>
</a>
</g>
</g>
<!-- Node32&#45;&gt;Node27 -->
<g id="edge35_Node000032_Node000027" class="edge">
<title>Node32&#45;&gt;Node27</title>
<g id="a_edge35_Node000032_Node000027"><a xlink:title=" ">
<path fill="none" stroke="#63b8ff" d="M290.87,-650.94C299,-648.16 307.29,-645.13 315,-642 345.03,-629.8 378.21,-613.07 400.61,-601.28"/>
<polygon fill="#63b8ff" stroke="#63b8ff" points="402.32,-604.33 409.51,-596.55 399.03,-598.15 402.32,-604.33"/>
</a>
</g>
</g>
<!-- Node33&#45;&gt;Node9 -->
<g id="edge40_Node000033_Node000009" class="edge">
<title>Node33&#45;&gt;Node9</title>
<g id="a_edge40_Node000033_Node000009"><a xlink:title=" ">
<path fill="none" stroke="#63b8ff" d="M303,-472.08C356.58,-469.81 436.24,-465 505,-455 525.48,-452.02 547.84,-447.35 566.96,-442.92"/>
<polygon fill="#63b8ff" stroke="#63b8ff" points="567.99,-446.27 576.91,-440.56 566.38,-439.46 567.99,-446.27"/>
</a>
</g>
</g>
<!-- Node33&#45;&gt;Node11 -->
<g id="edge38_Node000033_Node000011" class="edge">
<title>Node33&#45;&gt;Node11</title>
<g id="a_edge38_Node000033_Node000011"><a xlink:title=" ">
<path fill="none" stroke="#63b8ff" d="M303.04,-483.26C318.65,-485.23 335.41,-487.01 351,-488 419.31,-492.35 436.74,-492.98 505,-488 519.57,-486.94 535.15,-485.08 549.83,-483.01"/>
<polygon fill="#63b8ff" stroke="#63b8ff" points="550.45,-486.45 559.84,-481.54 549.44,-479.53 550.45,-486.45"/>
</a>
</g>
</g>
<!-- Node33&#45;&gt;Node27 -->
<g id="edge39_Node000033_Node000027" class="edge">
<title>Node33&#45;&gt;Node27</title>
<g id="a_edge39_Node000033_Node000027"><a xlink:title=" ">
<path fill="none" stroke="#63b8ff" d="M301.83,-489.16C306.56,-491.67 311.02,-494.59 315,-498 341.86,-521.02 323.2,-547.11 351,-569 359.15,-575.42 369.22,-579.61 379.32,-582.33"/>
<polygon fill="#63b8ff" stroke="#63b8ff" points="378.85,-585.81 389.38,-584.58 380.39,-578.98 378.85,-585.81"/>
</a>
</g>
</g>
<!-- Node34&#45;&gt;Node4 -->
<g id="edge43_Node000034_Node000004" class="edge">
<title>Node34&#45;&gt;Node4</title>
<g id="a_edge43_Node000034_Node000004"><a xlink:title=" ">
<path fill="none" stroke="#63b8ff" d="M303.01,-625.93C371.41,-634.74 481.35,-648.91 550.53,-657.82"/>
<polygon fill="#63b8ff" stroke="#63b8ff" points="550.49,-661.34 560.85,-659.15 551.38,-654.4 550.49,-661.34"/>
</a>
</g>
</g>
<!-- Node34&#45;&gt;Node27 -->
<g id="edge42_Node000034_Node000027" class="edge">
<title>Node34&#45;&gt;Node27</title>
<g id="a_edge42_Node000034_Node000027"><a xlink:title=" ">
<path fill="none" stroke="#63b8ff" d="M303.01,-607.72C327.91,-603.56 356.2,-598.83 379.47,-594.94"/>
<polygon fill="#63b8ff" stroke="#63b8ff" points="380.16,-598.38 389.45,-593.28 379.01,-591.47 380.16,-598.38"/>
</a>
</g>
</g>
<!-- Node35&#45;&gt;Node27 -->
<g id="edge45_Node000035_Node000027" class="edge">
<title>Node35&#45;&gt;Node27</title>
<g id="a_edge45_Node000035_Node000027"><a xlink:title=" ">
<path fill="none" stroke="#63b8ff" d="M298.16,-575.19C324.08,-577.57 354.45,-580.35 379.2,-582.62"/>
<polygon fill="#63b8ff" stroke="#63b8ff" points="379.15,-586.13 389.43,-583.56 379.79,-579.16 379.15,-586.13"/>
</a>
</g>
</g>
</g>
</svg>
