<?xml version="1.0" encoding="UTF-8" standalone="no"?>
<!DOCTYPE svg PUBLIC "-//W3C//DTD SVG 1.1//EN"
 "http://www.w3.org/Graphics/SVG/1.1/DTD/svg11.dtd">
<!-- Generated by graphviz version 2.43.0 (0)
 -->
<!-- Title: m_eigen_solver::cdiv Pages: 1 -->
<svg width="1510pt" height="65pt"
 viewBox="0.00 0.00 1510.00 65.00" xmlns="http://www.w3.org/2000/svg" xmlns:xlink="http://www.w3.org/1999/xlink">
<g id="graph0" class="graph" transform="scale(1 1) rotate(0) translate(4 61)">
<title>m_eigen_solver::cdiv</title>
<!-- Node1 -->
<g id="Node000001" class="node">
<title>Node1</title>
<g id="a_Node000001"><a xlink:title=" ">
<polygon fill="#999999" stroke="#666666" points="1502,-38 1382,-38 1382,-19 1502,-19 1502,-38"/>
<text text-anchor="middle" x="1442" y="-26" font-family="Helvetica,sans-Serif" font-size="10.00">m_eigen_solver::cdiv</text>
</a>
</g>
</g>
<!-- Node2 -->
<g id="Node000002" class="node">
<title>Node2</title>
<g id="a_Node000002"><a xlink:href="namespacem__eigen__solver.html#a0554aa8887cd850437debd71f0469bdd" target="_top" xlink:title="This subroutine is a translation of a unitary analogue of the algol procedure comlr2,...">
<polygon fill="white" stroke="#666666" points="1346,-57 1209,-57 1209,-38 1346,-38 1346,-57"/>
<text text-anchor="middle" x="1277.5" y="-45" font-family="Helvetica,sans-Serif" font-size="10.00">m_eigen_solver::comqr2</text>
</a>
</g>
</g>
<!-- Node1&#45;&gt;Node2 -->
<g id="edge1_Node000001_Node000002" class="edge">
<title>Node1&#45;&gt;Node2</title>
<g id="a_edge1_Node000001_Node000002"><a xlink:title=" ">
<path fill="none" stroke="#63b8ff" d="M1371.66,-36.61C1363.2,-37.6 1354.56,-38.61 1346.12,-39.59"/>
<polygon fill="#63b8ff" stroke="#63b8ff" points="1372.35,-40.05 1381.87,-35.41 1371.54,-33.1 1372.35,-40.05"/>
</a>
</g>
</g>
<!-- Node10 -->
<g id="Node000010" class="node">
<title>Node10</title>
<g id="a_Node000010"><a xlink:href="namespacem__perturbation.html#abb96709b7cccdc8eb0637c9917e92cee" target="_top" xlink:title="This subroutine generates an instability wave using the most unstable eigenvalue and corresponding ei...">
<polygon fill="white" stroke="#666666" points="1173,-19 990,-19 990,0 1173,0 1173,-19"/>
<text text-anchor="middle" x="1081.5" y="-7" font-family="Helvetica,sans-Serif" font-size="10.00">m_perturbation::s_generate_wave</text>
</a>
</g>
</g>
<!-- Node1&#45;&gt;Node10 -->
<g id="edge9_Node000001_Node000010" class="edge">
<title>Node1&#45;&gt;Node10</title>
<g id="a_edge9_Node000001_Node000010"><a xlink:title=" ">
<path fill="none" stroke="#63b8ff" d="M1371.52,-24.82C1314.96,-21.82 1234.67,-17.56 1173.06,-14.3"/>
<polygon fill="#63b8ff" stroke="#63b8ff" points="1371.63,-28.33 1381.8,-25.36 1372,-21.34 1371.63,-28.33"/>
</a>
</g>
</g>
<!-- Node3 -->
<g id="Node000003" class="node">
<title>Node3</title>
<g id="a_Node000003"><a xlink:href="namespacem__eigen__solver.html#aefb5aec687cc395843bddeaa3fca02da" target="_top" xlink:title="This subroutine calls the recommended sequence of subroutines from the eigensystem subroutine package...">
<polygon fill="white" stroke="#666666" points="1137,-56 1026,-56 1026,-37 1137,-37 1137,-56"/>
<text text-anchor="middle" x="1081.5" y="-44" font-family="Helvetica,sans-Serif" font-size="10.00">m_eigen_solver::cg</text>
</a>
</g>
</g>
<!-- Node2&#45;&gt;Node3 -->
<g id="edge2_Node000002_Node000003" class="edge">
<title>Node2&#45;&gt;Node3</title>
<g id="a_edge2_Node000002_Node000003"><a xlink:title=" ">
<path fill="none" stroke="#63b8ff" d="M1198.87,-47.1C1178.16,-46.99 1156.21,-46.88 1137.03,-46.78"/>
<polygon fill="#63b8ff" stroke="#63b8ff" points="1198.9,-50.6 1208.92,-47.15 1198.94,-43.6 1198.9,-50.6"/>
</a>
</g>
</g>
<!-- Node4 -->
<g id="Node000004" class="node">
<title>Node4</title>
<g id="a_Node000004"><a xlink:href="namespacem__perturbation.html#a41cb29ef03f665ae5238147ea8d98ffe" target="_top" xlink:title="This subroutine solves linear system from linear stability analysis and generate instability waves fo...">
<polygon fill="white" stroke="#666666" points="954,-42.5 820,-42.5 820,-12.5 954,-12.5 954,-42.5"/>
<text text-anchor="start" x="828" y="-30.5" font-family="Helvetica,sans-Serif" font-size="10.00">m_perturbation::s_solve</text>
<text text-anchor="middle" x="887" y="-19.5" font-family="Helvetica,sans-Serif" font-size="10.00">_linear_system</text>
</a>
</g>
</g>
<!-- Node3&#45;&gt;Node4 -->
<g id="edge3_Node000003_Node000004" class="edge">
<title>Node3&#45;&gt;Node4</title>
<g id="a_edge3_Node000003_Node000004"><a xlink:title=" ">
<path fill="none" stroke="#63b8ff" d="M1015.68,-40.1C995.84,-38.14 973.99,-35.99 954.07,-34.02"/>
<polygon fill="#63b8ff" stroke="#63b8ff" points="1015.56,-43.61 1025.85,-41.11 1016.24,-36.64 1015.56,-43.61"/>
</a>
</g>
</g>
<!-- Node5 -->
<g id="Node000005" class="node">
<title>Node5</title>
<g id="a_Node000005"><a xlink:href="namespacem__perturbation.html#a2083de284651fe7033948177c00dcf1b" target="_top" xlink:title="This subroutine computes instability waves for a given set of spatial wavenumbers (alpha,...">
<polygon fill="white" stroke="#666666" points="784,-37 596,-37 596,-18 784,-18 784,-37"/>
<text text-anchor="middle" x="690" y="-25" font-family="Helvetica,sans-Serif" font-size="10.00">m_perturbation::s_instability_wave</text>
</a>
</g>
</g>
<!-- Node4&#45;&gt;Node5 -->
<g id="edge4_Node000004_Node000005" class="edge">
<title>Node4&#45;&gt;Node5</title>
<g id="a_edge4_Node000004_Node000005"><a xlink:title=" ">
<path fill="none" stroke="#63b8ff" d="M809.87,-27.5C801.48,-27.5 792.86,-27.5 784.29,-27.5"/>
<polygon fill="#63b8ff" stroke="#63b8ff" points="809.98,-31 819.98,-27.5 809.98,-24 809.98,-31"/>
</a>
</g>
</g>
<!-- Node6 -->
<g id="Node000006" class="node">
<title>Node6</title>
<g id="a_Node000006"><a xlink:href="namespacem__perturbation.html#a68e0d6637f82ef127f3bce4fc8064e99" target="_top" xlink:title="This subroutine computes velocity perturbations for a temporal mixing layer with hypertangent mean st...">
<polygon fill="white" stroke="#666666" points="560,-42.5 386,-42.5 386,-12.5 560,-12.5 560,-42.5"/>
<text text-anchor="start" x="394" y="-30.5" font-family="Helvetica,sans-Serif" font-size="10.00">m_perturbation::s_superposition</text>
<text text-anchor="middle" x="473" y="-19.5" font-family="Helvetica,sans-Serif" font-size="10.00">_instability_wave</text>
</a>
</g>
</g>
<!-- Node5&#45;&gt;Node6 -->
<g id="edge5_Node000005_Node000006" class="edge">
<title>Node5&#45;&gt;Node6</title>
<g id="a_edge5_Node000005_Node000006"><a xlink:title=" ">
<path fill="none" stroke="#63b8ff" d="M585.85,-27.5C577.22,-27.5 568.56,-27.5 560.08,-27.5"/>
<polygon fill="#63b8ff" stroke="#63b8ff" points="585.95,-31 595.95,-27.5 585.95,-24 585.95,-31"/>
</a>
</g>
</g>
<!-- Node7 -->
<g id="Node000007" class="node">
<title>Node7</title>
<g id="a_Node000007"><a xlink:href="namespacem__initial__condition.html#ae5ca036f43a2eebe1e2cc84fc9c61d28" target="_top" xlink:title="This subroutine peruses the patches and depending on the type of geometry associated with a particula...">
<polygon fill="white" stroke="#666666" points="350,-48 240,-48 240,-7 350,-7 350,-48"/>
<text text-anchor="start" x="248" y="-36" font-family="Helvetica,sans-Serif" font-size="10.00">m_initial_condition</text>
<text text-anchor="start" x="248" y="-25" font-family="Helvetica,sans-Serif" font-size="10.00">::s_generate_initial</text>
<text text-anchor="middle" x="295" y="-14" font-family="Helvetica,sans-Serif" font-size="10.00">_condition</text>
</a>
</g>
</g>
<!-- Node6&#45;&gt;Node7 -->
<g id="edge6_Node000006_Node000007" class="edge">
<title>Node6&#45;&gt;Node7</title>
<g id="a_edge6_Node000006_Node000007"><a xlink:title=" ">
<path fill="none" stroke="#63b8ff" d="M375.53,-27.5C366.8,-27.5 358.18,-27.5 350.02,-27.5"/>
<polygon fill="#63b8ff" stroke="#63b8ff" points="375.8,-31 385.8,-27.5 375.8,-24 375.8,-31"/>
</a>
</g>
</g>
<!-- Node8 -->
<g id="Node000008" class="node">
<title>Node8</title>
<g id="a_Node000008"><a xlink:href="namespacem__start__up.html#a513ef24d6c8beafb8b94c015db266100" target="_top" xlink:title=" ">
<polygon fill="white" stroke="#666666" points="204,-42.5 89,-42.5 89,-12.5 204,-12.5 204,-42.5"/>
<text text-anchor="start" x="97" y="-30.5" font-family="Helvetica,sans-Serif" font-size="10.00">m_start_up::s_apply</text>
<text text-anchor="middle" x="146.5" y="-19.5" font-family="Helvetica,sans-Serif" font-size="10.00">_initial_condition</text>
</a>
</g>
</g>
<!-- Node7&#45;&gt;Node8 -->
<g id="edge7_Node000007_Node000008" class="edge">
<title>Node7&#45;&gt;Node8</title>
<g id="a_edge7_Node000007_Node000008"><a xlink:title=" ">
<path fill="none" stroke="#63b8ff" d="M229.69,-27.5C221.25,-27.5 212.66,-27.5 204.36,-27.5"/>
<polygon fill="#63b8ff" stroke="#63b8ff" points="229.87,-31 239.87,-27.5 229.87,-24 229.87,-31"/>
</a>
</g>
</g>
<!-- Node9 -->
<g id="Node000009" class="node">
<title>Node9</title>
<g id="a_Node000009"><a xlink:href="p__main_8f90.html#aeec10ee8e2940c953967da3e374e1579" target="_top" xlink:title="This program takes care of setting up the initial condition and grid data for the multicomponent flow...">
<polygon fill="white" stroke="#666666" points="53,-37 0,-37 0,-18 53,-18 53,-37"/>
<text text-anchor="middle" x="26.5" y="-25" font-family="Helvetica,sans-Serif" font-size="10.00">p_main</text>
</a>
</g>
</g>
<!-- Node8&#45;&gt;Node9 -->
<g id="edge8_Node000008_Node000009" class="edge">
<title>Node8&#45;&gt;Node9</title>
<g id="a_edge8_Node000008_Node000009"><a xlink:title=" ">
<path fill="none" stroke="#63b8ff" d="M78.65,-27.5C69.6,-27.5 60.81,-27.5 53.13,-27.5"/>
<polygon fill="#63b8ff" stroke="#63b8ff" points="78.92,-31 88.92,-27.5 78.92,-24 78.92,-31"/>
</a>
</g>
</g>
<!-- Node10&#45;&gt;Node4 -->
<g id="edge10_Node000010_Node000004" class="edge">
<title>Node10&#45;&gt;Node4</title>
<g id="a_edge10_Node000010_Node000004"><a xlink:title=" ">
<path fill="none" stroke="#63b8ff" d="M979.67,-18.93C970.98,-19.74 962.33,-20.55 954.02,-21.33"/>
<polygon fill="#63b8ff" stroke="#63b8ff" points="980.26,-22.39 989.89,-17.97 979.6,-15.42 980.26,-22.39"/>
</a>
</g>
</g>
</g>
</svg>
