<?xml version="1.0" encoding="UTF-8" standalone="no"?>
<!DOCTYPE svg PUBLIC "-//W3C//DTD SVG 1.1//EN"
 "http://www.w3.org/Graphics/SVG/1.1/DTD/svg11.dtd">
<!-- Generated by graphviz version 2.43.0 (0)
 -->
<!-- Title: m_initial_condition::s_generate_initial_condition Pages: 1 -->
<svg width="697pt" height="1005pt"
 viewBox="0.00 0.00 697.00 1005.00" xmlns="http://www.w3.org/2000/svg" xmlns:xlink="http://www.w3.org/1999/xlink">
<g id="graph0" class="graph" transform="scale(1 1) rotate(0) translate(4 1001)">
<title>m_initial_condition::s_generate_initial_condition</title>
<!-- Node1 -->
<g id="Node000001" class="node">
<title>Node1</title>
<g id="a_Node000001"><a xlink:title="This subroutine peruses the patches and depending on the type of geometry associated with a particula...">
<polygon fill="#999999" stroke="#666666" points="110,-511 0,-511 0,-470 110,-470 110,-511"/>
<text text-anchor="start" x="8" y="-499" font-family="Helvetica,sans-Serif" font-size="10.00">m_initial_condition</text>
<text text-anchor="start" x="8" y="-488" font-family="Helvetica,sans-Serif" font-size="10.00">::s_generate_initial</text>
<text text-anchor="middle" x="55" y="-477" font-family="Helvetica,sans-Serif" font-size="10.00">_condition</text>
</a>
</g>
</g>
<!-- Node2 -->
<g id="Node000002" class="node">
<title>Node2</title>
<g id="a_Node000002"><a xlink:href="namespacem__patches.html#a049be436d0c118c61d37c22c1a66d52a" target="_top" xlink:title="This patch assigns the primitive variables as analytical functions such that the code can be verified...">
<polygon fill="white" stroke="#666666" points="314.5,-997 162.5,-997 162.5,-978 314.5,-978 314.5,-997"/>
<text text-anchor="middle" x="238.5" y="-985" font-family="Helvetica,sans-Serif" font-size="10.00">m_patches::s_1d_analytical</text>
</a>
</g>
</g>
<!-- Node1&#45;&gt;Node2 -->
<g id="edge1_Node000001_Node000002" class="edge">
<title>Node1&#45;&gt;Node2</title>
<g id="a_edge1_Node000001_Node000002"><a xlink:title=" ">
<path fill="none" stroke="#63b8ff" d="M56.92,-511.13C61.05,-594.06 80.64,-901.91 146,-968.5 148.26,-970.8 150.71,-972.86 153.33,-974.69"/>
<polygon fill="#63b8ff" stroke="#63b8ff" points="151.75,-977.83 162.15,-979.85 155.28,-971.78 151.75,-977.83"/>
</a>
</g>
</g>
<!-- Node3 -->
<g id="Node000003" class="node">
<title>Node3</title>
<g id="a_Node000003"><a xlink:href="namespacem__patches.html#a7bbae345a3fa4e777ccbd05dbb78335a" target="_top" xlink:title=" ">
<polygon fill="white" stroke="#666666" points="307,-959.5 170,-959.5 170,-929.5 307,-929.5 307,-959.5"/>
<text text-anchor="start" x="178" y="-947.5" font-family="Helvetica,sans-Serif" font-size="10.00">m_patches::s_1d_bubble</text>
<text text-anchor="middle" x="238.5" y="-936.5" font-family="Helvetica,sans-Serif" font-size="10.00">_pulse</text>
</a>
</g>
</g>
<!-- Node1&#45;&gt;Node3 -->
<g id="edge2_Node000001_Node000003" class="edge">
<title>Node1&#45;&gt;Node3</title>
<g id="a_edge2_Node000001_Node000003"><a xlink:title=" ">
<path fill="none" stroke="#63b8ff" d="M57.49,-511.06C63.5,-588.32 88.45,-859.98 146,-920.5 150.21,-924.92 155.12,-928.57 160.44,-931.56"/>
<polygon fill="#63b8ff" stroke="#63b8ff" points="159.21,-934.86 169.74,-936.02 162.24,-928.54 159.21,-934.86"/>
</a>
</g>
</g>
<!-- Node4 -->
<g id="Node000004" class="node">
<title>Node4</title>
<g id="a_Node000004"><a xlink:href="namespacem__patches.html#a2e69c0fc458162bde0a907b2fbf51cd5" target="_top" xlink:title="This patch assigns the primitive variables as analytical functions such that the code can be verified...">
<polygon fill="white" stroke="#666666" points="314.5,-911 162.5,-911 162.5,-892 314.5,-892 314.5,-911"/>
<text text-anchor="middle" x="238.5" y="-899" font-family="Helvetica,sans-Serif" font-size="10.00">m_patches::s_2d_analytical</text>
</a>
</g>
</g>
<!-- Node1&#45;&gt;Node4 -->
<g id="edge3_Node000001_Node000004" class="edge">
<title>Node1&#45;&gt;Node4</title>
<g id="a_edge3_Node000001_Node000004"><a xlink:title=" ">
<path fill="none" stroke="#63b8ff" d="M57.81,-511.15C64.66,-584.45 91.41,-830.57 146,-883.5 148.31,-885.74 150.81,-887.74 153.46,-889.52"/>
<polygon fill="#63b8ff" stroke="#63b8ff" points="151.94,-892.68 162.37,-894.51 155.36,-886.57 151.94,-892.68"/>
</a>
</g>
</g>
<!-- Node5 -->
<g id="Node000005" class="node">
<title>Node5</title>
<g id="a_Node000005"><a xlink:href="namespacem__patches.html#a236fcbc415c46b059d1a864254f03749" target="_top" xlink:title="This patch assigns the primitive variables as analytical functions such that the code can be verified...">
<polygon fill="white" stroke="#666666" points="314.5,-228 162.5,-228 162.5,-209 314.5,-209 314.5,-228"/>
<text text-anchor="middle" x="238.5" y="-216" font-family="Helvetica,sans-Serif" font-size="10.00">m_patches::s_3d_analytical</text>
</a>
</g>
</g>
<!-- Node1&#45;&gt;Node5 -->
<g id="edge4_Node000001_Node000005" class="edge">
<title>Node1&#45;&gt;Node5</title>
<g id="a_edge4_Node000001_Node000005"><a xlink:title=" ">
<path fill="none" stroke="#63b8ff" d="M56.85,-469.74C60.01,-421.13 75.01,-299.37 146,-237.5 148.37,-235.43 150.9,-233.57 153.57,-231.9"/>
<polygon fill="#63b8ff" stroke="#63b8ff" points="155.28,-234.95 162.45,-227.15 151.98,-228.77 155.28,-234.95"/>
</a>
</g>
</g>
<!-- Node7 -->
<g id="Node000007" class="node">
<title>Node7</title>
<g id="a_Node000007"><a xlink:href="namespacem__patches.html#a9953de1edc7ab7b0eb574e7ac33f5156" target="_top" xlink:title=" ">
<polygon fill="white" stroke="#666666" points="308.5,-815 168.5,-815 168.5,-796 308.5,-796 308.5,-815"/>
<text text-anchor="middle" x="238.5" y="-803" font-family="Helvetica,sans-Serif" font-size="10.00">m_patches::s_3dvarcircle</text>
</a>
</g>
</g>
<!-- Node1&#45;&gt;Node7 -->
<g id="edge6_Node000001_Node000007" class="edge">
<title>Node1&#45;&gt;Node7</title>
<g id="a_edge6_Node000001_Node000007"><a xlink:title=" ">
<path fill="none" stroke="#63b8ff" d="M55.54,-511.15C55.53,-565.39 63.5,-712.86 146,-787.5 149.88,-791.01 154.23,-793.92 158.88,-796.32"/>
<polygon fill="#63b8ff" stroke="#63b8ff" points="157.58,-799.57 168.14,-800.35 160.37,-793.15 157.58,-799.57"/>
</a>
</g>
</g>
<!-- Node8 -->
<g id="Node000008" class="node">
<title>Node8</title>
<g id="a_Node000008"><a xlink:href="namespacem__patches.html#a99bd27a782f64ea9785aedbe33e2eecb" target="_top" xlink:title="The circular patch is a 2D geometry that may be used, for example, in creating a bubble or a droplet....">
<polygon fill="white" stroke="#666666" points="295,-778 182,-778 182,-759 295,-759 295,-778"/>
<text text-anchor="middle" x="238.5" y="-766" font-family="Helvetica,sans-Serif" font-size="10.00">m_patches::s_circle</text>
</a>
</g>
</g>
<!-- Node1&#45;&gt;Node8 -->
<g id="edge7_Node000001_Node000008" class="edge">
<title>Node1&#45;&gt;Node8</title>
<g id="a_edge7_Node000001_Node000008"><a xlink:title=" ">
<path fill="none" stroke="#63b8ff" d="M56.64,-511.01C59.34,-560.24 73.39,-685.74 146,-749.5 153.33,-755.94 162.26,-760.4 171.64,-763.45"/>
<polygon fill="#63b8ff" stroke="#63b8ff" points="170.96,-766.9 181.53,-766.16 172.81,-760.14 170.96,-766.9"/>
</a>
</g>
</g>
<!-- Node9 -->
<g id="Node000009" class="node">
<title>Node9</title>
<g id="a_Node000009"><a xlink:href="namespacem__variables__conversion.html#a86ac76fa70eabaede1b0f3a4af740560" target="_top" xlink:title="The following procedure handles the conversion between the conservative variables and the primitive v...">
<polygon fill="white" stroke="#666666" points="307.5,-874 169.5,-874 169.5,-833 307.5,-833 307.5,-874"/>
<text text-anchor="start" x="177.5" y="-862" font-family="Helvetica,sans-Serif" font-size="10.00">m_variables_conversion</text>
<text text-anchor="start" x="177.5" y="-851" font-family="Helvetica,sans-Serif" font-size="10.00">::s_convert_conservative</text>
<text text-anchor="middle" x="238.5" y="-840" font-family="Helvetica,sans-Serif" font-size="10.00">_to_primitive_variables</text>
</a>
</g>
</g>
<!-- Node1&#45;&gt;Node9 -->
<g id="edge8_Node000001_Node000009" class="edge">
<title>Node1&#45;&gt;Node9</title>
<g id="a_edge8_Node000001_Node000009"><a xlink:title=" ">
<path fill="none" stroke="#63b8ff" d="M55.2,-511.39C54.17,-569.38 59.42,-734.05 146,-824.5 150.21,-828.9 155.08,-832.63 160.33,-835.8"/>
<polygon fill="#63b8ff" stroke="#63b8ff" points="159.02,-839.06 169.5,-840.61 162.27,-832.86 159.02,-839.06"/>
</a>
</g>
</g>
<!-- Node13 -->
<g id="Node000013" class="node">
<title>Node13</title>
<g id="a_Node000013"><a xlink:href="namespacem__variables__conversion.html#a866ca0a45dcda5e1c48344e17df62fd1" target="_top" xlink:title="The following procedure handles the conversion between the primitive variables and the conservative v...">
<polygon fill="white" stroke="#666666" points="313.5,-692 163.5,-692 163.5,-651 313.5,-651 313.5,-692"/>
<text text-anchor="start" x="171.5" y="-680" font-family="Helvetica,sans-Serif" font-size="10.00">m_variables_conversion</text>
<text text-anchor="start" x="171.5" y="-669" font-family="Helvetica,sans-Serif" font-size="10.00">::s_convert_primitive</text>
<text text-anchor="middle" x="238.5" y="-658" font-family="Helvetica,sans-Serif" font-size="10.00">_to_conservative_variables</text>
</a>
</g>
</g>
<!-- Node1&#45;&gt;Node13 -->
<g id="edge12_Node000001_Node000013" class="edge">
<title>Node1&#45;&gt;Node13</title>
<g id="a_edge12_Node000001_Node000013"><a xlink:title=" ">
<path fill="none" stroke="#63b8ff" d="M62.77,-511.21C74.51,-543.88 101.7,-607.29 146,-642.5 148.61,-644.57 151.37,-646.5 154.24,-648.29"/>
<polygon fill="#63b8ff" stroke="#63b8ff" points="152.71,-651.44 163.15,-653.26 156.12,-645.33 152.71,-651.44"/>
</a>
</g>
</g>
<!-- Node14 -->
<g id="Node000014" class="node">
<title>Node14</title>
<g id="a_Node000014"><a xlink:href="namespacem__patches.html#a66aced9da5e4fde4d5c92b2283f8cccd" target="_top" xlink:title="The cuboidal patch is a 3D geometry that may be used, for example, in creating a solid boundary,...">
<polygon fill="white" stroke="#666666" points="298,-633 179,-633 179,-614 298,-614 298,-633"/>
<text text-anchor="middle" x="238.5" y="-621" font-family="Helvetica,sans-Serif" font-size="10.00">m_patches::s_cuboid</text>
</a>
</g>
</g>
<!-- Node1&#45;&gt;Node14 -->
<g id="edge13_Node000001_Node000014" class="edge">
<title>Node1&#45;&gt;Node14</title>
<g id="a_edge13_Node000001_Node000014"><a xlink:title=" ">
<path fill="none" stroke="#63b8ff" d="M66.21,-511.24C80.34,-537.59 108.4,-582.42 146,-605.5 152.96,-609.77 160.74,-613.06 168.74,-615.59"/>
<polygon fill="#63b8ff" stroke="#63b8ff" points="167.99,-619.01 178.56,-618.31 169.85,-612.27 167.99,-619.01"/>
</a>
</g>
</g>
<!-- Node15 -->
<g id="Node000015" class="node">
<title>Node15</title>
<g id="a_Node000015"><a xlink:href="namespacem__patches.html#ac9e356d1f9db7bcd0f98095a8cf503a7" target="_top" xlink:title="The cylindrical patch is a 3D geometry that may be used, for example, in setting up a cylindrical sol...">
<polygon fill="white" stroke="#666666" points="301,-596 176,-596 176,-577 301,-577 301,-596"/>
<text text-anchor="middle" x="238.5" y="-584" font-family="Helvetica,sans-Serif" font-size="10.00">m_patches::s_cylinder</text>
</a>
</g>
</g>
<!-- Node1&#45;&gt;Node15 -->
<g id="edge15_Node000001_Node000015" class="edge">
<title>Node1&#45;&gt;Node15</title>
<g id="a_edge15_Node000001_Node000015"><a xlink:title=" ">
<path fill="none" stroke="#63b8ff" d="M73.85,-511.13C90.63,-529.14 117.39,-554.53 146,-568.5 152.16,-571.51 158.78,-574.01 165.55,-576.1"/>
<polygon fill="#63b8ff" stroke="#63b8ff" points="164.95,-579.56 175.53,-578.86 166.82,-572.82 164.95,-579.56"/>
</a>
</g>
</g>
<!-- Node16 -->
<g id="Node000016" class="node">
<title>Node16</title>
<g id="a_Node000016"><a xlink:href="namespacem__patches.html#acdb5dc6256daeea167f0969a914ac734" target="_top" xlink:title="The elliptical patch is a 2D geometry. The geometry of the patch is well&#45;defined when its centroid an...">
<polygon fill="white" stroke="#666666" points="298,-559 179,-559 179,-540 298,-540 298,-559"/>
<text text-anchor="middle" x="238.5" y="-547" font-family="Helvetica,sans-Serif" font-size="10.00">m_patches::s_ellipse</text>
</a>
</g>
</g>
<!-- Node1&#45;&gt;Node16 -->
<g id="edge17_Node000001_Node000016" class="edge">
<title>Node1&#45;&gt;Node16</title>
<g id="a_edge17_Node000001_Node000016"><a xlink:title=" ">
<path fill="none" stroke="#63b8ff" d="M95.97,-511.13C111.3,-518.4 129.16,-526.09 146,-531.5 153.37,-533.87 161.18,-535.98 169,-537.85"/>
<polygon fill="#63b8ff" stroke="#63b8ff" points="168.37,-541.29 178.9,-540.08 169.91,-534.46 168.37,-541.29"/>
</a>
</g>
</g>
<!-- Node17 -->
<g id="Node000017" class="node">
<title>Node17</title>
<g id="a_Node000017"><a xlink:href="namespacem__patches.html#abcefacc72ee4a302589be269e902bb25" target="_top" xlink:title="The ellipsoidal patch is a 3D geometry. The geometry of the patch is well&#45;defined when its centroid a...">
<polygon fill="white" stroke="#666666" points="302.5,-522 174.5,-522 174.5,-503 302.5,-503 302.5,-522"/>
<text text-anchor="middle" x="238.5" y="-510" font-family="Helvetica,sans-Serif" font-size="10.00">m_patches::s_ellipsoid</text>
</a>
</g>
</g>
<!-- Node1&#45;&gt;Node17 -->
<g id="edge18_Node000001_Node000017" class="edge">
<title>Node1&#45;&gt;Node17</title>
<g id="a_edge18_Node000001_Node000017"><a xlink:title=" ">
<path fill="none" stroke="#63b8ff" d="M110.46,-497.1C127.38,-499.15 146.32,-501.45 164.31,-503.63"/>
<polygon fill="#63b8ff" stroke="#63b8ff" points="164.12,-507.13 174.47,-504.86 164.97,-500.18 164.12,-507.13"/>
</a>
</g>
</g>
<!-- Node18 -->
<g id="Node000018" class="node">
<title>Node18</title>
<g id="a_Node000018"><a xlink:href="namespacem__patches.html#a6a55561aea30814a3a1491ee7a6a2e81" target="_top" xlink:title="The isentropic vortex is a 2D geometry that may be used, for example, to generate an isentropic flow ...">
<polygon fill="white" stroke="#666666" points="305.5,-484.5 171.5,-484.5 171.5,-454.5 305.5,-454.5 305.5,-484.5"/>
<text text-anchor="start" x="179.5" y="-472.5" font-family="Helvetica,sans-Serif" font-size="10.00">m_patches::s_isentropic</text>
<text text-anchor="middle" x="238.5" y="-461.5" font-family="Helvetica,sans-Serif" font-size="10.00">_vortex</text>
</a>
</g>
</g>
<!-- Node1&#45;&gt;Node18 -->
<g id="edge20_Node000001_Node000018" class="edge">
<title>Node1&#45;&gt;Node18</title>
<g id="a_edge20_Node000001_Node000018"><a xlink:title=" ">
<path fill="none" stroke="#63b8ff" d="M110.46,-484.2C126.43,-482.35 144.2,-480.3 161.27,-478.32"/>
<polygon fill="#63b8ff" stroke="#63b8ff" points="161.68,-481.8 171.21,-477.17 160.88,-474.84 161.68,-481.8"/>
</a>
</g>
</g>
<!-- Node19 -->
<g id="Node000019" class="node">
<title>Node19</title>
<g id="a_Node000019"><a xlink:href="namespacem__patches.html#a6b17e82e2e0ed61936e576b878169007" target="_top" xlink:title="The line segment patch is a 1D geometry that may be used, for example, in creating a Riemann problem....">
<polygon fill="white" stroke="#666666" points="314.5,-436 162.5,-436 162.5,-417 314.5,-417 314.5,-436"/>
<text text-anchor="middle" x="238.5" y="-424" font-family="Helvetica,sans-Serif" font-size="10.00">m_patches::s_line_segment</text>
</a>
</g>
</g>
<!-- Node1&#45;&gt;Node19 -->
<g id="edge21_Node000001_Node000019" class="edge">
<title>Node1&#45;&gt;Node19</title>
<g id="a_edge21_Node000001_Node000019"><a xlink:title=" ">
<path fill="none" stroke="#63b8ff" d="M91.85,-469.89C107.98,-461.33 127.52,-451.92 146,-445.5 153.82,-442.78 162.16,-440.4 170.5,-438.31"/>
<polygon fill="#63b8ff" stroke="#63b8ff" points="171.33,-441.71 180.26,-436.01 169.72,-434.9 171.33,-441.71"/>
</a>
</g>
</g>
<!-- Node20 -->
<g id="Node000020" class="node">
<title>Node20</title>
<g id="a_Node000020"><a xlink:href="namespacem__initial__condition.html#afef3f507e182798fcfd7aecc52878fc9" target="_top" xlink:title=" ">
<polygon fill="white" stroke="#666666" points="293.5,-398.5 183.5,-398.5 183.5,-368.5 293.5,-368.5 293.5,-398.5"/>
<text text-anchor="start" x="191.5" y="-386.5" font-family="Helvetica,sans-Serif" font-size="10.00">m_initial_condition</text>
<text text-anchor="middle" x="238.5" y="-375.5" font-family="Helvetica,sans-Serif" font-size="10.00">::s_perturb_sphere</text>
</a>
</g>
</g>
<!-- Node1&#45;&gt;Node20 -->
<g id="edge22_Node000001_Node000020" class="edge">
<title>Node1&#45;&gt;Node20</title>
<g id="a_edge22_Node000001_Node000020"><a xlink:title=" ">
<path fill="none" stroke="#63b8ff" d="M73.57,-469.65C90.35,-451.02 117.29,-424.29 146,-408.5 154.46,-403.85 163.85,-400.01 173.29,-396.87"/>
<polygon fill="#63b8ff" stroke="#63b8ff" points="174.59,-400.13 183.11,-393.84 172.52,-393.44 174.59,-400.13"/>
</a>
</g>
</g>
<!-- Node21 -->
<g id="Node000021" class="node">
<title>Node21</title>
<g id="a_Node000021"><a xlink:href="namespacem__initial__condition.html#ab66e3b04024a8ae7327857b1b265bc27" target="_top" xlink:title=" ">
<polygon fill="white" stroke="#666666" points="317,-350.5 160,-350.5 160,-320.5 317,-320.5 317,-350.5"/>
<text text-anchor="start" x="168" y="-338.5" font-family="Helvetica,sans-Serif" font-size="10.00">m_initial_condition</text>
<text text-anchor="middle" x="238.5" y="-327.5" font-family="Helvetica,sans-Serif" font-size="10.00">::s_perturb_surrounding_flow</text>
</a>
</g>
</g>
<!-- Node1&#45;&gt;Node21 -->
<g id="edge23_Node000001_Node000021" class="edge">
<title>Node1&#45;&gt;Node21</title>
<g id="a_edge23_Node000001_Node000021"><a xlink:title=" ">
<path fill="none" stroke="#63b8ff" d="M64.56,-469.78C77.69,-440.63 105.59,-387.9 146,-359.5 148.12,-358.01 150.32,-356.62 152.59,-355.31"/>
<polygon fill="#63b8ff" stroke="#63b8ff" points="154.33,-358.35 161.64,-350.68 151.14,-352.12 154.33,-358.35"/>
</a>
</g>
</g>
<!-- Node22 -->
<g id="Node000022" class="node">
<title>Node22</title>
<g id="a_Node000022"><a xlink:href="namespacem__patches.html#a2477a5e1abe26b776e376f90627ad4ac" target="_top" xlink:title="The rectangular patch is a 2D geometry that may be used, for example, in creating a solid boundary,...">
<polygon fill="white" stroke="#666666" points="304.5,-302 172.5,-302 172.5,-283 304.5,-283 304.5,-302"/>
<text text-anchor="middle" x="238.5" y="-290" font-family="Helvetica,sans-Serif" font-size="10.00">m_patches::s_rectangle</text>
</a>
</g>
</g>
<!-- Node1&#45;&gt;Node22 -->
<g id="edge24_Node000001_Node000022" class="edge">
<title>Node1&#45;&gt;Node22</title>
<g id="a_edge24_Node000001_Node000022"><a xlink:title=" ">
<path fill="none" stroke="#63b8ff" d="M60.2,-469.86C69.02,-432.11 93.17,-352.07 146,-311.5 151.07,-307.61 156.74,-304.47 162.71,-301.93"/>
<polygon fill="#63b8ff" stroke="#63b8ff" points="164.11,-305.15 172.3,-298.43 161.71,-298.57 164.11,-305.15"/>
</a>
</g>
</g>
<!-- Node23 -->
<g id="Node000023" class="node">
<title>Node23</title>
<g id="a_Node000023"><a xlink:href="namespacem__patches.html#a0a4c1431391482cd3947343d01832f94" target="_top" xlink:title="The spherical patch is a 3D geometry that may be used, for example, in creating a bubble or a droplet...">
<polygon fill="white" stroke="#666666" points="298,-265 179,-265 179,-246 298,-246 298,-265"/>
<text text-anchor="middle" x="238.5" y="-253" font-family="Helvetica,sans-Serif" font-size="10.00">m_patches::s_sphere</text>
</a>
</g>
</g>
<!-- Node1&#45;&gt;Node23 -->
<g id="edge25_Node000001_Node000023" class="edge">
<title>Node1&#45;&gt;Node23</title>
<g id="a_edge25_Node000001_Node000023"><a xlink:title=" ">
<path fill="none" stroke="#63b8ff" d="M58.26,-469.82C64.16,-426.41 84.14,-325.6 146,-274.5 152.65,-269 160.49,-264.97 168.74,-262.03"/>
<polygon fill="#63b8ff" stroke="#63b8ff" points="169.99,-265.31 178.55,-259.06 167.97,-258.61 169.99,-265.31"/>
</a>
</g>
</g>
<!-- Node24 -->
<g id="Node000024" class="node">
<title>Node24</title>
<g id="a_Node000024"><a xlink:href="namespacem__patches.html#a36be577575b5c54d581467162eef12ab" target="_top" xlink:title="This patch generates the shape of the spherical harmonics as a perturbation to a perfect sphere.">
<polygon fill="white" stroke="#666666" points="304,-190.5 173,-190.5 173,-160.5 304,-160.5 304,-190.5"/>
<text text-anchor="start" x="181" y="-178.5" font-family="Helvetica,sans-Serif" font-size="10.00">m_patches::s_spherical</text>
<text text-anchor="middle" x="238.5" y="-167.5" font-family="Helvetica,sans-Serif" font-size="10.00">_harmonic</text>
</a>
</g>
</g>
<!-- Node1&#45;&gt;Node24 -->
<g id="edge27_Node000001_Node000024" class="edge">
<title>Node1&#45;&gt;Node24</title>
<g id="a_edge27_Node000001_Node000024"><a xlink:title=" ">
<path fill="none" stroke="#63b8ff" d="M56.03,-469.89C57.27,-417.07 68.1,-275.78 146,-200.5 151.01,-195.66 156.87,-191.73 163.15,-188.55"/>
<polygon fill="#63b8ff" stroke="#63b8ff" points="164.86,-191.63 172.62,-184.41 162.05,-185.21 164.86,-191.63"/>
</a>
</g>
</g>
<!-- Node26 -->
<g id="Node000026" class="node">
<title>Node26</title>
<g id="a_Node000026"><a xlink:href="namespacem__patches.html#af9b0318710825d616d4d03361fd4d88b" target="_top" xlink:title="The spiral patch is a 2D geometry that may be used, The geometry of the patch is well&#45;defined when it...">
<polygon fill="white" stroke="#666666" points="295,-142 182,-142 182,-123 295,-123 295,-142"/>
<text text-anchor="middle" x="238.5" y="-130" font-family="Helvetica,sans-Serif" font-size="10.00">m_patches::s_spiral</text>
</a>
</g>
</g>
<!-- Node1&#45;&gt;Node26 -->
<g id="edge30_Node000001_Node000026" class="edge">
<title>Node1&#45;&gt;Node26</title>
<g id="a_edge30_Node000001_Node000026"><a xlink:title=" ">
<path fill="none" stroke="#63b8ff" d="M58.65,-469.74C67.58,-403.09 98.68,-196.29 146,-151.5 153.25,-144.64 162.29,-139.98 171.85,-136.86"/>
<polygon fill="#63b8ff" stroke="#63b8ff" points="172.81,-140.23 181.54,-134.22 170.97,-133.47 172.81,-140.23"/>
</a>
</g>
</g>
<!-- Node28 -->
<g id="Node000028" class="node">
<title>Node28</title>
<g id="a_Node000028"><a xlink:href="namespacem__initial__condition.html#a50f37d0c816501ebcd2908e17e7afde5" target="_top" xlink:title="This subroutine computes velocity perturbations for a temporal mixing &#160;&#160;layer with hypertangent mean ...">
<polygon fill="white" stroke="#666666" points="331,-67.5 146,-67.5 146,-37.5 331,-37.5 331,-67.5"/>
<text text-anchor="start" x="154" y="-55.5" font-family="Helvetica,sans-Serif" font-size="10.00">m_initial_condition</text>
<text text-anchor="middle" x="238.5" y="-44.5" font-family="Helvetica,sans-Serif" font-size="10.00">::s_superposition_instability_wave</text>
</a>
</g>
</g>
<!-- Node1&#45;&gt;Node28 -->
<g id="edge33_Node000001_Node000028" class="edge">
<title>Node1&#45;&gt;Node28</title>
<g id="a_edge33_Node000001_Node000028"><a xlink:title=" ">
<path fill="none" stroke="#63b8ff" d="M57.67,-469.93C64.21,-394.49 90.46,-134.45 146,-76.5 146.93,-75.53 147.89,-74.6 148.88,-73.71"/>
<polygon fill="#63b8ff" stroke="#63b8ff" points="151.17,-76.36 157.03,-67.54 146.95,-70.78 151.17,-76.36"/>
</a>
</g>
</g>
<!-- Node31 -->
<g id="Node000031" class="node">
<title>Node31</title>
<g id="a_Node000031"><a xlink:href="namespacem__patches.html#a33b9e3cf733ea5ed19cd9c1e26023fdb" target="_top" xlink:title="The swept line patch is a 2D geometry that may be used, for example, in creating a solid boundary,...">
<polygon fill="white" stroke="#666666" points="309,-105 168,-105 168,-86 309,-86 309,-105"/>
<text text-anchor="middle" x="238.5" y="-93" font-family="Helvetica,sans-Serif" font-size="10.00">m_patches::s_sweep_line</text>
</a>
</g>
</g>
<!-- Node1&#45;&gt;Node31 -->
<g id="edge36_Node000001_Node000031" class="edge">
<title>Node1&#45;&gt;Node31</title>
<g id="a_edge36_Node000001_Node000031"><a xlink:title=" ">
<path fill="none" stroke="#63b8ff" d="M58.09,-469.53C65.67,-397.95 93.97,-164.98 146,-114.5 149.76,-110.85 154.03,-107.82 158.62,-105.31"/>
<polygon fill="#63b8ff" stroke="#63b8ff" points="160.16,-108.45 167.78,-101.1 157.24,-102.09 160.16,-108.45"/>
</a>
</g>
</g>
<!-- Node32 -->
<g id="Node000032" class="node">
<title>Node32</title>
<g id="a_Node000032"><a xlink:href="namespacem__patches.html#a216bbe41add1a4d8f4d316eaef75b6a1" target="_top" xlink:title="The swept plane patch is a 3D geometry that may be used, for example, in creating a solid boundary,...">
<polygon fill="white" stroke="#666666" points="297.5,-740.5 179.5,-740.5 179.5,-710.5 297.5,-710.5 297.5,-740.5"/>
<text text-anchor="start" x="187.5" y="-728.5" font-family="Helvetica,sans-Serif" font-size="10.00">m_patches::s_sweep</text>
<text text-anchor="middle" x="238.5" y="-717.5" font-family="Helvetica,sans-Serif" font-size="10.00">_plane</text>
</a>
</g>
</g>
<!-- Node1&#45;&gt;Node32 -->
<g id="edge37_Node000001_Node000032" class="edge">
<title>Node1&#45;&gt;Node32</title>
<g id="a_edge37_Node000001_Node000032"><a xlink:title=" ">
<path fill="none" stroke="#63b8ff" d="M58.72,-511.11C65.44,-553.42 86.76,-650.37 146,-701.5 152.94,-707.49 161.2,-712.01 169.88,-715.41"/>
<polygon fill="#63b8ff" stroke="#63b8ff" points="168.82,-718.75 179.42,-718.69 171.1,-712.13 168.82,-718.75"/>
</a>
</g>
</g>
<!-- Node33 -->
<g id="Node000033" class="node">
<title>Node33</title>
<g id="a_Node000033"><a xlink:href="namespacem__patches.html#a6dbf82573766e0711b3551d8b74fcd81" target="_top" xlink:title="The varcircle patch is a 2D geometry that may be used . It generatres an annulus.">
<polygon fill="white" stroke="#666666" points="302.5,-19 174.5,-19 174.5,0 302.5,0 302.5,-19"/>
<text text-anchor="middle" x="238.5" y="-7" font-family="Helvetica,sans-Serif" font-size="10.00">m_patches::s_varcircle</text>
</a>
</g>
</g>
<!-- Node1&#45;&gt;Node33 -->
<g id="edge39_Node000001_Node000033" class="edge">
<title>Node1&#45;&gt;Node33</title>
<g id="a_edge39_Node000001_Node000033"><a xlink:title=" ">
<path fill="none" stroke="#63b8ff" d="M57.08,-469.73C61.72,-388.36 82.76,-92.52 146,-28.5 151.33,-23.1 157.76,-19.04 164.72,-16.01"/>
<polygon fill="#63b8ff" stroke="#63b8ff" points="166.26,-19.18 174.48,-12.49 163.89,-12.6 166.26,-19.18"/>
</a>
</g>
</g>
<!-- Node6 -->
<g id="Node000006" class="node">
<title>Node6</title>
<g id="a_Node000006"><a xlink:href="namespacem__patches.html#aae6a1ff489da8002462c8dd57727782f" target="_top" xlink:title=" ">
<polygon fill="white" stroke="#666666" points="540,-527.5 370,-527.5 370,-497.5 540,-497.5 540,-527.5"/>
<text text-anchor="start" x="378" y="-515.5" font-family="Helvetica,sans-Serif" font-size="10.00">m_patches::s_convert</text>
<text text-anchor="middle" x="455" y="-504.5" font-family="Helvetica,sans-Serif" font-size="10.00">_cylindrical_to_cartesian_coord</text>
</a>
</g>
</g>
<!-- Node5&#45;&gt;Node6 -->
<g id="edge5_Node000005_Node000006" class="edge">
<title>Node5&#45;&gt;Node6</title>
<g id="a_edge5_Node000005_Node000006"><a xlink:title=" ">
<path fill="none" stroke="#63b8ff" d="M314.65,-227.76C320.52,-230.34 326.07,-233.53 331,-237.5 412.01,-302.68 441.38,-432.47 450.46,-487.21"/>
<polygon fill="#63b8ff" stroke="#63b8ff" points="447.05,-488.07 452.05,-497.41 453.96,-486.99 447.05,-488.07"/>
</a>
</g>
</g>
<!-- Node10 -->
<g id="Node000010" class="node">
<title>Node10</title>
<g id="a_Node000010"><a xlink:href="namespacem__variables__conversion.html#a1be52cb9db2d49f8f256b226d72b8d4c" target="_top" xlink:title="This procedure conditionally calculates the appropriate pressure.">
<polygon fill="white" stroke="#666666" points="522.5,-868.5 387.5,-868.5 387.5,-838.5 522.5,-838.5 522.5,-868.5"/>
<text text-anchor="start" x="395.5" y="-856.5" font-family="Helvetica,sans-Serif" font-size="10.00">m_variables_conversion</text>
<text text-anchor="middle" x="455" y="-845.5" font-family="Helvetica,sans-Serif" font-size="10.00">::s_compute_pressure</text>
</a>
</g>
</g>
<!-- Node9&#45;&gt;Node10 -->
<g id="edge9_Node000009_Node000010" class="edge">
<title>Node9&#45;&gt;Node10</title>
<g id="a_edge9_Node000009_Node000010"><a xlink:title=" ">
<path fill="none" stroke="#63b8ff" d="M307.66,-853.5C329.79,-853.5 354.49,-853.5 377.2,-853.5"/>
<polygon fill="#63b8ff" stroke="#63b8ff" points="377.48,-857 387.48,-853.5 377.48,-850 377.48,-857"/>
</a>
</g>
</g>
<!-- Node11 -->
<g id="Node000011" class="node">
<title>Node11</title>
<g id="a_Node000011"><a xlink:href="namespacem__variables__conversion.html#a0e52444cc72f2fd0ea3a6d3543cfa32e" target="_top" xlink:title=" ">
<polygon fill="white" stroke="#666666" points="522.5,-820 387.5,-820 387.5,-779 522.5,-779 522.5,-820"/>
<text text-anchor="start" x="395.5" y="-808" font-family="Helvetica,sans-Serif" font-size="10.00">m_variables_conversion</text>
<text text-anchor="start" x="395.5" y="-797" font-family="Helvetica,sans-Serif" font-size="10.00">::s_convert_species_to</text>
<text text-anchor="middle" x="455" y="-786" font-family="Helvetica,sans-Serif" font-size="10.00">_mixture_variables_acc</text>
</a>
</g>
</g>
<!-- Node9&#45;&gt;Node11 -->
<g id="edge10_Node000009_Node000011" class="edge">
<title>Node9&#45;&gt;Node11</title>
<g id="a_edge10_Node000009_Node000011"><a xlink:title=" ">
<path fill="none" stroke="#63b8ff" d="M307.66,-836.34C329.89,-830.74 354.71,-824.5 377.51,-818.76"/>
<polygon fill="#63b8ff" stroke="#63b8ff" points="378.64,-822.08 387.48,-816.25 376.93,-815.29 378.64,-822.08"/>
</a>
</g>
</g>
<!-- Node12 -->
<g id="Node000012" class="node">
<title>Node12</title>
<g id="a_Node000012"><a xlink:href="namespacem__variables__conversion.html#a915eb0e3917fc09375124cf3df2c6df6" target="_top" xlink:title=" ">
<polygon fill="white" stroke="#666666" points="543,-928 367,-928 367,-887 543,-887 543,-928"/>
<text text-anchor="start" x="375" y="-916" font-family="Helvetica,sans-Serif" font-size="10.00">m_variables_conversion</text>
<text text-anchor="start" x="375" y="-905" font-family="Helvetica,sans-Serif" font-size="10.00">::s_convert_species_to</text>
<text text-anchor="middle" x="455" y="-894" font-family="Helvetica,sans-Serif" font-size="10.00">_mixture_variables_bubbles_acc</text>
</a>
</g>
</g>
<!-- Node9&#45;&gt;Node12 -->
<g id="edge11_Node000009_Node000012" class="edge">
<title>Node9&#45;&gt;Node12</title>
<g id="a_edge11_Node000009_Node000012"><a xlink:title=" ">
<path fill="none" stroke="#63b8ff" d="M307.66,-870.66C325.13,-875.06 344.21,-879.86 362.64,-884.5"/>
<polygon fill="#63b8ff" stroke="#63b8ff" points="361.95,-887.94 372.5,-886.98 363.66,-881.15 361.95,-887.94"/>
</a>
</g>
</g>
<!-- Node14&#45;&gt;Node6 -->
<g id="edge14_Node000014_Node000006" class="edge">
<title>Node14&#45;&gt;Node6</title>
<g id="a_edge14_Node000014_Node000006"><a xlink:title=" ">
<path fill="none" stroke="#63b8ff" d="M298.32,-616.02C309.46,-613.47 320.8,-610.06 331,-605.5 369.91,-588.09 408,-556.36 431.24,-534.86"/>
<polygon fill="#63b8ff" stroke="#63b8ff" points="433.94,-537.12 438.82,-527.72 429.14,-532.03 433.94,-537.12"/>
</a>
</g>
</g>
<!-- Node15&#45;&gt;Node6 -->
<g id="edge16_Node000015_Node000006" class="edge">
<title>Node15&#45;&gt;Node6</title>
<g id="a_edge16_Node000015_Node000006"><a xlink:title=" ">
<path fill="none" stroke="#63b8ff" d="M298.59,-576.98C309.48,-574.63 320.67,-571.82 331,-568.5 360.78,-558.94 392.9,-544.15 416.84,-532.17"/>
<polygon fill="#63b8ff" stroke="#63b8ff" points="418.59,-535.21 425.92,-527.57 415.42,-528.97 418.59,-535.21"/>
</a>
</g>
</g>
<!-- Node17&#45;&gt;Node6 -->
<g id="edge19_Node000017_Node000006" class="edge">
<title>Node17&#45;&gt;Node6</title>
<g id="a_edge19_Node000017_Node000006"><a xlink:title=" ">
<path fill="none" stroke="#63b8ff" d="M302.7,-512.5C320.59,-512.5 340.46,-512.5 359.76,-512.5"/>
<polygon fill="#63b8ff" stroke="#63b8ff" points="359.78,-516 369.78,-512.5 359.78,-509 359.78,-516"/>
</a>
</g>
</g>
<!-- Node23&#45;&gt;Node6 -->
<g id="edge26_Node000023_Node000006" class="edge">
<title>Node23&#45;&gt;Node6</title>
<g id="a_edge26_Node000023_Node000006"><a xlink:title=" ">
<path fill="none" stroke="#63b8ff" d="M298.46,-259.77C310.07,-262.72 321.57,-267.34 331,-274.5 403.14,-329.25 436.7,-438.4 448.63,-487.52"/>
<polygon fill="#63b8ff" stroke="#63b8ff" points="445.24,-488.38 450.91,-497.32 452.05,-486.79 445.24,-488.38"/>
</a>
</g>
</g>
<!-- Node24&#45;&gt;Node6 -->
<g id="edge28_Node000024_Node000006" class="edge">
<title>Node24&#45;&gt;Node6</title>
<g id="a_edge28_Node000024_Node000006"><a xlink:title=" ">
<path fill="none" stroke="#63b8ff" d="M304.4,-185.07C314.11,-188.7 323.4,-193.68 331,-200.5 418.74,-279.18 444.63,-428.48 451.62,-487.54"/>
<polygon fill="#63b8ff" stroke="#63b8ff" points="448.14,-487.93 452.72,-497.49 455.1,-487.16 448.14,-487.93"/>
</a>
</g>
</g>
<!-- Node25 -->
<g id="Node000025" class="node">
<title>Node25</title>
<g id="a_Node000025"><a xlink:href="namespacem__patches.html#a02315a55f5a44491a9743cfe648514fe" target="_top" xlink:title=" ">
<polygon fill="white" stroke="#666666" points="539.5,-199.5 370.5,-199.5 370.5,-169.5 539.5,-169.5 539.5,-199.5"/>
<text text-anchor="start" x="378.5" y="-187.5" font-family="Helvetica,sans-Serif" font-size="10.00">m_patches::s_convert</text>
<text text-anchor="middle" x="455" y="-176.5" font-family="Helvetica,sans-Serif" font-size="10.00">_cylindrical_to_spherical_coord</text>
</a>
</g>
</g>
<!-- Node24&#45;&gt;Node25 -->
<g id="edge29_Node000024_Node000025" class="edge">
<title>Node24&#45;&gt;Node25</title>
<g id="a_edge29_Node000024_Node000025"><a xlink:title=" ">
<path fill="none" stroke="#63b8ff" d="M304.15,-178.21C321.82,-178.95 341.33,-179.77 360.27,-180.57"/>
<polygon fill="#63b8ff" stroke="#63b8ff" points="360.28,-184.07 370.42,-180.99 360.57,-177.08 360.28,-184.07"/>
</a>
</g>
</g>
<!-- Node27 -->
<g id="Node000027" class="node">
<title>Node27</title>
<g id="a_Node000027"><a xlink:href="namespacem__patches.html#a38e8db0da64a4a5afd83bda4dc990f0c" target="_top" xlink:title="Archimedes spiral function.">
<polygon fill="white" stroke="#666666" points="499.5,-133 410.5,-133 410.5,-114 499.5,-114 499.5,-133"/>
<text text-anchor="middle" x="455" y="-121" font-family="Helvetica,sans-Serif" font-size="10.00">m_patches::f_r</text>
</a>
</g>
</g>
<!-- Node26&#45;&gt;Node27 -->
<g id="edge31_Node000026_Node000027" class="edge">
<title>Node26&#45;&gt;Node27</title>
<g id="a_edge31_Node000026_Node000027"><a xlink:title=" ">
<path fill="none" stroke="#63b8ff" d="M295.02,-130.17C327.39,-128.81 368.03,-127.11 400.11,-125.76"/>
<polygon fill="#63b8ff" stroke="#63b8ff" points="400.37,-129.25 410.21,-125.34 400.07,-122.26 400.37,-129.25"/>
</a>
</g>
</g>
<!-- Node27&#45;&gt;Node27 -->
<g id="edge32_Node000027_Node000027" class="edge">
<title>Node27&#45;&gt;Node27</title>
<g id="a_edge32_Node000027_Node000027"><a xlink:title=" ">
<path fill="none" stroke="#63b8ff" d="M427.57,-133.08C414.22,-141.73 423.36,-151 455,-151 476.26,-151 487.36,-146.82 488.31,-141.45"/>
<polygon fill="#63b8ff" stroke="#63b8ff" points="491.05,-139.26 482.43,-133.08 485.32,-143.28 491.05,-139.26"/>
</a>
</g>
</g>
<!-- Node29 -->
<g id="Node000029" class="node">
<title>Node29</title>
<g id="a_Node000029"><a xlink:href="namespacem__initial__condition.html#a7ef3152e5d06fe9242edb0b09ae97951" target="_top" xlink:title="This subroutine computes instability waves for a given set of spatial wavenumbers (alpha,...">
<polygon fill="white" stroke="#666666" points="511.5,-67.5 398.5,-67.5 398.5,-37.5 511.5,-37.5 511.5,-67.5"/>
<text text-anchor="start" x="406.5" y="-55.5" font-family="Helvetica,sans-Serif" font-size="10.00">m_initial_condition</text>
<text text-anchor="middle" x="455" y="-44.5" font-family="Helvetica,sans-Serif" font-size="10.00">::s_instability_wave</text>
</a>
</g>
</g>
<!-- Node28&#45;&gt;Node29 -->
<g id="edge34_Node000028_Node000029" class="edge">
<title>Node28&#45;&gt;Node29</title>
<g id="a_edge34_Node000028_Node000029"><a xlink:title=" ">
<path fill="none" stroke="#63b8ff" d="M331.09,-52.5C350.31,-52.5 370.22,-52.5 388.27,-52.5"/>
<polygon fill="#63b8ff" stroke="#63b8ff" points="388.38,-56 398.38,-52.5 388.38,-49 388.38,-56"/>
</a>
</g>
</g>
<!-- Node30 -->
<g id="Node000030" class="node">
<title>Node30</title>
<g id="a_Node000030"><a xlink:href="namespacem__initial__condition.html#a5ec73f4130ceb7893efddc863874e951" target="_top" xlink:title="This subroutine generates an instability wave using the most unstable eigenvalue and corresponding ei...">
<polygon fill="white" stroke="#666666" points="689,-67.5 579,-67.5 579,-37.5 689,-37.5 689,-67.5"/>
<text text-anchor="start" x="587" y="-55.5" font-family="Helvetica,sans-Serif" font-size="10.00">m_initial_condition</text>
<text text-anchor="middle" x="634" y="-44.5" font-family="Helvetica,sans-Serif" font-size="10.00">::s_generate_wave</text>
</a>
</g>
</g>
<!-- Node29&#45;&gt;Node30 -->
<g id="edge35_Node000029_Node000030" class="edge">
<title>Node29&#45;&gt;Node30</title>
<g id="a_edge35_Node000029_Node000030"><a xlink:title=" ">
<path fill="none" stroke="#63b8ff" d="M511.52,-52.5C529.65,-52.5 549.94,-52.5 568.67,-52.5"/>
<polygon fill="#63b8ff" stroke="#63b8ff" points="568.89,-56 578.89,-52.5 568.89,-49 568.89,-56"/>
</a>
</g>
</g>
<!-- Node32&#45;&gt;Node6 -->
<g id="edge38_Node000032_Node000006" class="edge">
<title>Node32&#45;&gt;Node6</title>
<g id="a_edge38_Node000032_Node000006"><a xlink:title=" ">
<path fill="none" stroke="#63b8ff" d="M297.54,-717.14C309.34,-713.62 321.15,-708.61 331,-701.5 390.26,-658.73 428.5,-577.83 444.86,-537.16"/>
<polygon fill="#63b8ff" stroke="#63b8ff" points="448.17,-538.32 448.55,-527.73 441.65,-535.77 448.17,-538.32"/>
</a>
</g>
</g>
</g>
</svg>
