<?xml version="1.0" encoding="UTF-8" standalone="no"?>
<!DOCTYPE svg PUBLIC "-//W3C//DTD SVG 1.1//EN"
 "http://www.w3.org/Graphics/SVG/1.1/DTD/svg11.dtd">
<!-- Generated by graphviz version 2.43.0 (0)
 -->
<!-- Title: m_helper::modmul Pages: 1 -->
<svg width="1007pt" height="57pt"
 viewBox="0.00 0.00 1007.00 57.00" xmlns="http://www.w3.org/2000/svg" xmlns:xlink="http://www.w3.org/1999/xlink">
<g id="graph0" class="graph" transform="scale(1 1) rotate(0) translate(4 53)">
<title>m_helper::modmul</title>
<!-- Node1 -->
<g id="Node000001" class="node">
<title>Node1</title>
<g id="a_Node000001"><a xlink:title="Compute a modular multiplication step for the linear congruential pseudo&#45;random number generator.">
<polygon fill="#999999" stroke="#666666" points="999,-38 890,-38 890,-19 999,-19 999,-38"/>
<text text-anchor="middle" x="944.5" y="-26" font-family="Helvetica,sans-Serif" font-size="10.00">m_helper::modmul</text>
</a>
</g>
</g>
<!-- Node2 -->
<g id="Node000002" class="node">
<title>Node2</title>
<g id="a_Node000002"><a xlink:href="namespacem__perturbation.html#a49336011b98f1698ccd754d19a70db20" target="_top" xlink:title="Generate deterministic pseudo&#45;random wave vector, polarization, and phase for a perturbation mode.">
<polygon fill="white" stroke="#666666" points="717,-43.5 565,-43.5 565,-13.5 717,-13.5 717,-43.5"/>
<text text-anchor="start" x="573" y="-31.5" font-family="Helvetica,sans-Serif" font-size="10.00">m_perturbation::s_generate</text>
<text text-anchor="middle" x="641" y="-20.5" font-family="Helvetica,sans-Serif" font-size="10.00">_random_perturbation</text>
</a>
</g>
</g>
<!-- Node1&#45;&gt;Node2 -->
<g id="edge1_Node000001_Node000002" class="edge">
<title>Node1&#45;&gt;Node2</title>
<g id="a_edge1_Node000001_Node000002"><a xlink:title=" ">
<path fill="none" stroke="#63b8ff" d="M879.78,-28.5C832.26,-28.5 767.18,-28.5 717.12,-28.5"/>
<polygon fill="#63b8ff" stroke="#63b8ff" points="879.95,-32 889.95,-28.5 879.95,-25 879.95,-32"/>
</a>
</g>
</g>
<!-- Node7 -->
<g id="Node000007" class="node">
<title>Node7</title>
<g id="a_Node000007"><a xlink:href="namespacem__helper.html#ac7e4e8792a668882d4145a218e26ad32" target="_top" xlink:title="Generate a pseudo&#45;random number between 0 and 1 using a linear congruential generator.">
<polygon fill="white" stroke="#666666" points="854,-19 753,-19 753,0 854,0 854,-19"/>
<text text-anchor="middle" x="803.5" y="-7" font-family="Helvetica,sans-Serif" font-size="10.00">m_helper::s_prng</text>
</a>
</g>
</g>
<!-- Node1&#45;&gt;Node7 -->
<g id="edge6_Node000001_Node000007" class="edge">
<title>Node1&#45;&gt;Node7</title>
<g id="a_edge6_Node000001_Node000007"><a xlink:title=" ">
<path fill="none" stroke="#63b8ff" d="M879.71,-19.78C871.08,-18.6 862.33,-17.41 854,-16.27"/>
<polygon fill="#63b8ff" stroke="#63b8ff" points="879.38,-23.27 889.76,-21.15 880.33,-16.33 879.38,-23.27"/>
</a>
</g>
</g>
<!-- Node3 -->
<g id="Node000003" class="node">
<title>Node3</title>
<g id="a_Node000003"><a xlink:href="namespacem__perturbation.html#afa02cfb00a8406637b02037a5d8a05ae" target="_top" xlink:title="Compute velocity perturbations for a temporal mixing layer with a hyperbolic tangent mean streamwise ...">
<polygon fill="white" stroke="#666666" points="529,-43.5 386,-43.5 386,-13.5 529,-13.5 529,-43.5"/>
<text text-anchor="start" x="394" y="-31.5" font-family="Helvetica,sans-Serif" font-size="10.00">m_perturbation::s_perturb</text>
<text text-anchor="middle" x="457.5" y="-20.5" font-family="Helvetica,sans-Serif" font-size="10.00">_mixlayer</text>
</a>
</g>
</g>
<!-- Node2&#45;&gt;Node3 -->
<g id="edge2_Node000002_Node000003" class="edge">
<title>Node2&#45;&gt;Node3</title>
<g id="a_edge2_Node000002_Node000003"><a xlink:title=" ">
<path fill="none" stroke="#63b8ff" d="M554.84,-28.5C546.26,-28.5 537.61,-28.5 529.21,-28.5"/>
<polygon fill="#63b8ff" stroke="#63b8ff" points="554.87,-32 564.87,-28.5 554.87,-25 554.87,-32"/>
</a>
</g>
</g>
<!-- Node4 -->
<g id="Node000004" class="node">
<title>Node4</title>
<g id="a_Node000004"><a xlink:href="namespacem__initial__condition.html#ae5ca036f43a2eebe1e2cc84fc9c61d28" target="_top" xlink:title="Iterate over patches and, depending on the geometry type, call the related subroutine to setup the sa...">
<polygon fill="white" stroke="#666666" points="350,-49 240,-49 240,-8 350,-8 350,-49"/>
<text text-anchor="start" x="248" y="-37" font-family="Helvetica,sans-Serif" font-size="10.00">m_initial_condition</text>
<text text-anchor="start" x="248" y="-26" font-family="Helvetica,sans-Serif" font-size="10.00">::s_generate_initial</text>
<text text-anchor="middle" x="295" y="-15" font-family="Helvetica,sans-Serif" font-size="10.00">_condition</text>
</a>
</g>
</g>
<!-- Node3&#45;&gt;Node4 -->
<g id="edge3_Node000003_Node000004" class="edge">
<title>Node3&#45;&gt;Node4</title>
<g id="a_edge3_Node000003_Node000004"><a xlink:title=" ">
<path fill="none" stroke="#63b8ff" d="M375.53,-28.5C366.91,-28.5 358.3,-28.5 350.09,-28.5"/>
<polygon fill="#63b8ff" stroke="#63b8ff" points="375.64,-32 385.64,-28.5 375.64,-25 375.64,-32"/>
</a>
</g>
</g>
<!-- Node5 -->
<g id="Node000005" class="node">
<title>Node5</title>
<g id="a_Node000005"><a xlink:href="namespacem__start__up.html#a513ef24d6c8beafb8b94c015db266100" target="_top" xlink:title="Generate or read the initial condition, apply relaxation if needed, and write output data files.">
<polygon fill="white" stroke="#666666" points="204,-43.5 89,-43.5 89,-13.5 204,-13.5 204,-43.5"/>
<text text-anchor="start" x="97" y="-31.5" font-family="Helvetica,sans-Serif" font-size="10.00">m_start_up::s_apply</text>
<text text-anchor="middle" x="146.5" y="-20.5" font-family="Helvetica,sans-Serif" font-size="10.00">_initial_condition</text>
</a>
</g>
</g>
<!-- Node4&#45;&gt;Node5 -->
<g id="edge4_Node000004_Node000005" class="edge">
<title>Node4&#45;&gt;Node5</title>
<g id="a_edge4_Node000004_Node000005"><a xlink:title=" ">
<path fill="none" stroke="#63b8ff" d="M229.69,-28.5C221.25,-28.5 212.66,-28.5 204.36,-28.5"/>
<polygon fill="#63b8ff" stroke="#63b8ff" points="229.87,-32 239.87,-28.5 229.87,-25 229.87,-32"/>
</a>
</g>
</g>
<!-- Node6 -->
<g id="Node000006" class="node">
<title>Node6</title>
<g id="a_Node000006"><a xlink:href="p__main_8f90.html#aeec10ee8e2940c953967da3e374e1579" target="_top" xlink:title="Set up the initial condition and grid data for the multicomponent flow code.">
<polygon fill="white" stroke="#666666" points="53,-38 0,-38 0,-19 53,-19 53,-38"/>
<text text-anchor="middle" x="26.5" y="-26" font-family="Helvetica,sans-Serif" font-size="10.00">p_main</text>
</a>
</g>
</g>
<!-- Node5&#45;&gt;Node6 -->
<g id="edge5_Node000005_Node000006" class="edge">
<title>Node5&#45;&gt;Node6</title>
<g id="a_edge5_Node000005_Node000006"><a xlink:title=" ">
<path fill="none" stroke="#63b8ff" d="M78.65,-28.5C69.6,-28.5 60.81,-28.5 53.13,-28.5"/>
<polygon fill="#63b8ff" stroke="#63b8ff" points="78.92,-32 88.92,-28.5 78.92,-25 78.92,-32"/>
</a>
</g>
</g>
<!-- Node7&#45;&gt;Node2 -->
<g id="edge7_Node000007_Node000002" class="edge">
<title>Node7&#45;&gt;Node2</title>
<g id="a_edge7_Node000007_Node000002"><a xlink:title=" ">
<path fill="none" stroke="#63b8ff" d="M742.65,-16.58C734.35,-17.57 725.74,-18.59 717.21,-19.6"/>
<polygon fill="#63b8ff" stroke="#63b8ff" points="743.08,-20.06 752.6,-15.41 742.25,-13.11 743.08,-20.06"/>
</a>
</g>
</g>
</g>
</svg>
