<?xml version="1.0" encoding="UTF-8" standalone="no"?>
<!DOCTYPE svg PUBLIC "-//W3C//DTD SVG 1.1//EN"
 "http://www.w3.org/Graphics/SVG/1.1/DTD/svg11.dtd">
<!-- Generated by graphviz version 2.40.1 (20161225.0304)
 -->
<!-- Title: m_start_up::s_check_sphere_patch_geometry Pages: 1 -->
<svg width="201pt" height="35pt"
 viewBox="0.00 0.00 201.00 35.00" xmlns="http://www.w3.org/2000/svg" xmlns:xlink="http://www.w3.org/1999/xlink">
<g id="graph0" class="graph" transform="scale(1 1) rotate(0) translate(4 31)">
<title>m_start_up::s_check_sphere_patch_geometry</title>
<polygon fill="#ffffff" stroke="transparent" points="-4,4 -4,-31 197,-31 197,4 -4,4"/>
<!-- Node121 -->
<g id="node1" class="node">
<title>Node121</title>
<polygon fill="#bfbfbf" stroke="#000000" points="0,-.5 0,-26.5 85,-26.5 85,-.5 0,-.5"/>
<text text-anchor="start" x="8" y="-16.1" font-family="Helvetica,sans-Serif" font-size="8.00" fill="#000000">m_start_up::s_check</text>
<text text-anchor="middle" x="42.5" y="-7.1" font-family="Helvetica,sans-Serif" font-size="8.00" fill="#000000">_sphere_patch_geometry</text>
</g>
<!-- Node122 -->
<g id="node2" class="node">
<title>Node122</title>
<g id="a_node2"><a xlink:href="namespacem__mpi__proxy.html#a04ac565bad2b22dc045a5eeb4f516e2e" target="_top" xlink:title="The subroutine terminates the MPI execution environment. ">
<polygon fill="#ffffff" stroke="#000000" points="121,-.5 121,-26.5 193,-26.5 193,-.5 121,-.5"/>
<text text-anchor="start" x="129" y="-16.1" font-family="Helvetica,sans-Serif" font-size="8.00" fill="#000000">m_mpi_proxy::s_mpi</text>
<text text-anchor="middle" x="157" y="-7.1" font-family="Helvetica,sans-Serif" font-size="8.00" fill="#000000">_abort</text>
</a>
</g>
</g>
<!-- Node121&#45;&gt;Node122 -->
<g id="edge1" class="edge">
<title>Node121&#45;&gt;Node122</title>
<path fill="none" stroke="#191970" d="M85.1356,-13.5C93.4529,-13.5 102.2112,-13.5 110.6424,-13.5"/>
<polygon fill="#191970" stroke="#191970" points="110.7125,-17.0001 120.7125,-13.5 110.7125,-10.0001 110.7125,-17.0001"/>
</g>
</g>
</svg>
