<?xml version="1.0" encoding="UTF-8" standalone="no"?>
<!DOCTYPE svg PUBLIC "-//W3C//DTD SVG 1.1//EN"
 "http://www.w3.org/Graphics/SVG/1.1/DTD/svg11.dtd">
<!-- Generated by graphviz version 2.40.1 (20161225.0304)
 -->
<!-- Title: m_compile_specific::my_inquire Pages: 1 -->
<svg width="386pt" height="157pt"
 viewBox="0.00 0.00 386.00 157.00" xmlns="http://www.w3.org/2000/svg" xmlns:xlink="http://www.w3.org/1999/xlink">
<g id="graph0" class="graph" transform="scale(1 1) rotate(0) translate(4 153)">
<title>m_compile_specific::my_inquire</title>
<polygon fill="#ffffff" stroke="transparent" points="-4,4 -4,-153 382,-153 382,4 -4,4"/>
<!-- Node1 -->
<g id="node1" class="node">
<title>Node1</title>
<polygon fill="#bfbfbf" stroke="#000000" points="0,-80.5 0,-106.5 69,-106.5 69,-80.5 0,-80.5"/>
<text text-anchor="start" x="8" y="-96.1" font-family="Helvetica,sans-Serif" font-size="8.00" fill="#000000">m_compile_specific</text>
<text text-anchor="middle" x="34.5" y="-87.1" font-family="Helvetica,sans-Serif" font-size="8.00" fill="#000000">::my_inquire</text>
</g>
<!-- Node2 -->
<g id="node2" class="node">
<title>Node2</title>
<g id="a_node2"><a xlink:href="namespacem__data__output.html#ab65b312ef83adb104cafafada9c998b6" target="_top" xlink:title="Computation of parameters, allocation procedures, and/or any other tasks needed to properly setup the...">
<polygon fill="#ffffff" stroke="#000000" points="218,-122.5 218,-148.5 306,-148.5 306,-122.5 218,-122.5"/>
<text text-anchor="start" x="226" y="-138.1" font-family="Helvetica,sans-Serif" font-size="8.00" fill="#000000">m_data_output::s_initialize</text>
<text text-anchor="middle" x="262" y="-129.1" font-family="Helvetica,sans-Serif" font-size="8.00" fill="#000000">_data_output_module</text>
</a>
</g>
</g>
<!-- Node1&#45;&gt;Node2 -->
<g id="edge1" class="edge">
<title>Node1&#45;&gt;Node2</title>
<path fill="none" stroke="#191970" d="M79.0561,-109.4832C87.587,-112.1298 96.5074,-114.6197 105,-116.5 142.6633,-124.839 186.2756,-129.7477 217.9623,-132.4795"/>
<polygon fill="#191970" stroke="#191970" points="79.8611,-106.0655 69.2696,-106.3314 77.7152,-112.7284 79.8611,-106.0655"/>
</g>
<!-- Node4 -->
<g id="node4" class="node">
<title>Node4</title>
<g id="a_node4"><a xlink:href="namespacem__start__up.html#ab5f7e03f1da1999ee699cec4f26370e0" target="_top" xlink:title="Checking that the user inputs make sense, i.e. that the individual choices are compatible with the co...">
<polygon fill="#ffffff" stroke="#000000" points="107.5,-80.5 107.5,-106.5 179.5,-106.5 179.5,-80.5 107.5,-80.5"/>
<text text-anchor="start" x="115.5" y="-96.1" font-family="Helvetica,sans-Serif" font-size="8.00" fill="#000000">m_start_up::s_check</text>
<text text-anchor="middle" x="143.5" y="-87.1" font-family="Helvetica,sans-Serif" font-size="8.00" fill="#000000">_input_file</text>
</a>
</g>
</g>
<!-- Node1&#45;&gt;Node4 -->
<g id="edge3" class="edge">
<title>Node1&#45;&gt;Node4</title>
<path fill="none" stroke="#191970" d="M79.4797,-93.5C88.6999,-93.5 98.2952,-93.5 107.1655,-93.5"/>
<polygon fill="#191970" stroke="#191970" points="79.288,-90.0001 69.288,-93.5 79.2879,-97.0001 79.288,-90.0001"/>
</g>
<!-- Node5 -->
<g id="node5" class="node">
<title>Node5</title>
<g id="a_node5"><a xlink:href="namespacem__start__up.html#ac2be28e53607458a3860b03446ed6497" target="_top" xlink:title="The goal of this subroutine is to read in any preexisting grid data as well as based on the imported ...">
<polygon fill="#ffffff" stroke="#000000" points="105,-35.5 105,-61.5 182,-61.5 182,-35.5 105,-35.5"/>
<text text-anchor="start" x="113" y="-51.1" font-family="Helvetica,sans-Serif" font-size="8.00" fill="#000000">m_start_up::s_read</text>
<text text-anchor="middle" x="143.5" y="-42.1" font-family="Helvetica,sans-Serif" font-size="8.00" fill="#000000">_serial_grid_data_files</text>
</a>
</g>
</g>
<!-- Node1&#45;&gt;Node5 -->
<g id="edge5" class="edge">
<title>Node1&#45;&gt;Node5</title>
<path fill="none" stroke="#191970" d="M75.397,-76.6159C87.3917,-71.664 100.3254,-66.3244 111.6659,-61.6425"/>
<polygon fill="#191970" stroke="#191970" points="73.935,-73.4329 66.0273,-80.4841 76.6062,-79.9032 73.935,-73.4329"/>
</g>
<!-- Node3 -->
<g id="node3" class="node">
<title>Node3</title>
<g id="a_node3"><a xlink:href="p__main_8f90.html#aeec10ee8e2940c953967da3e374e1579" target="_top" xlink:title="This program takes care of setting up the initial condition and grid data for the multicomponent flow...">
<polygon fill="#ffffff" stroke="#000000" points="342,-66 342,-83 378,-83 378,-66 342,-66"/>
<text text-anchor="middle" x="360" y="-72.6" font-family="Helvetica,sans-Serif" font-size="8.00" fill="#000000">p_main</text>
</a>
</g>
</g>
<!-- Node2&#45;&gt;Node3 -->
<g id="edge2" class="edge">
<title>Node2&#45;&gt;Node3</title>
<path fill="none" stroke="#191970" d="M291.7841,-116.9609C309.9338,-105.6637 332.263,-91.7649 346.3187,-83.0159"/>
<polygon fill="#191970" stroke="#191970" points="289.9047,-114.0081 283.2645,-122.2639 293.6038,-119.9509 289.9047,-114.0081"/>
</g>
<!-- Node4&#45;&gt;Node3 -->
<g id="edge4" class="edge">
<title>Node4&#45;&gt;Node3</title>
<path fill="none" stroke="#191970" d="M189.7769,-89.4387C237.2574,-85.2719 308.7252,-78.9999 341.8956,-76.0888"/>
<polygon fill="#191970" stroke="#191970" points="189.3929,-85.9589 179.7372,-90.3198 190.005,-92.9321 189.3929,-85.9589"/>
</g>
<!-- Node5&#45;&gt;Node3 -->
<g id="edge8" class="edge">
<title>Node5&#45;&gt;Node3</title>
<path fill="none" stroke="#191970" d="M192.262,-54.3559C239.6717,-60.0495 309.1618,-68.3947 341.7991,-72.3142"/>
<polygon fill="#191970" stroke="#191970" points="192.5519,-50.8657 182.2059,-53.1483 191.7172,-57.8158 192.5519,-50.8657"/>
</g>
<!-- Node6 -->
<g id="node6" class="node">
<title>Node6</title>
<g id="a_node6"><a xlink:href="namespacem__start__up.html#a37202711d89d04cd18f08170ba608aa1" target="_top" xlink:title="m_start_up::s_initialize\l_start_up_module">
<polygon fill="#ffffff" stroke="#000000" points="223,-.5 223,-26.5 301,-26.5 301,-.5 223,-.5"/>
<text text-anchor="start" x="231" y="-16.1" font-family="Helvetica,sans-Serif" font-size="8.00" fill="#000000">m_start_up::s_initialize</text>
<text text-anchor="middle" x="262" y="-7.1" font-family="Helvetica,sans-Serif" font-size="8.00" fill="#000000">_start_up_module</text>
</a>
</g>
</g>
<!-- Node5&#45;&gt;Node6 -->
<g id="edge6" class="edge">
<title>Node5&#45;&gt;Node6</title>
<path fill="none" stroke="#191970" d="M191.9375,-34.1936C202.1742,-31.1701 212.8565,-28.015 222.7058,-25.1059"/>
<polygon fill="#191970" stroke="#191970" points="190.9003,-30.8504 182.3013,-37.0397 192.8832,-37.5637 190.9003,-30.8504"/>
</g>
<!-- Node6&#45;&gt;Node3 -->
<g id="edge7" class="edge">
<title>Node6&#45;&gt;Node3</title>
<path fill="none" stroke="#191970" d="M291.7841,-32.0391C309.9338,-43.3363 332.263,-57.2351 346.3187,-65.9841"/>
<polygon fill="#191970" stroke="#191970" points="293.6038,-29.0491 283.2645,-26.7361 289.9047,-34.9919 293.6038,-29.0491"/>
</g>
</g>
</svg>
