<?xml version="1.0" encoding="UTF-8" standalone="no"?>
<!DOCTYPE svg PUBLIC "-//W3C//DTD SVG 1.1//EN"
 "http://www.w3.org/Graphics/SVG/1.1/DTD/svg11.dtd">
<!-- Generated by graphviz version 2.43.0 (0)
 -->
<!-- Title: m_perturbation::s_superposition_instability_wave Pages: 1 -->
<!--zoomable 189 -->

<svg id="main" version="1.1" xmlns="http://www.w3.org/2000/svg" xmlns:xlink="http://www.w3.org/1999/xlink" xml:space="preserve" onload="init(evt)">

<style type="text/css"><![CDATA[
.node, .edge {opacity: 0.7;}
.node.selected, .edge.selected {opacity: 1;}
.edge:hover path { stroke: red; }
.edge:hover polygon { stroke: red; fill: red; }
]]></style>

<defs>
  <circle id="rim" cx="0" cy="0" r="7"/>
  <circle id="rim2" cx="0" cy="0" r="3.5"/>
  <g id="zoomPlus">
    <use xlink:href="#rim" fill="#404040"><set attributeName="fill" to="#808080" begin="zoomplus.mouseover" end="zoomplus.mouseout"/></use>
    <path d="M-4,0h8M0,-4v8" fill="none" stroke="white" stroke-width="1.5" pointer-events="none"/>
  </g>
  <g id="zoomMin">
    <use xlink:href="#rim" fill="#404040"><set attributeName="fill" to="#808080" begin="zoomminus.mouseover" end="zoomminus.mouseout"/></use>
    <path d="M-4,0h8" fill="none" stroke="white" stroke-width="1.5" pointer-events="none"/>
  </g>
  <g id="arrowUp" transform="translate(30 24)">
    <use xlink:href="#rim"/>
    <path pointer-events="none" fill="none" stroke="white" stroke-width="1.5" d="M0,-3.0v7 M-2.5,-0.5L0,-3.0L2.5,-0.5"/>
  </g>
  <g id="arrowRight" transform="rotate(90) translate(36 -43)">
    <use xlink:href="#rim"/>
    <path pointer-events="none" fill="none" stroke="white" stroke-width="1.5" d="M0,-3.0v7 M-2.5,-0.5L0,-3.0L2.5,-0.5"/>
  </g>
  <g id="arrowDown" transform="rotate(180) translate(-30 -48)">
    <use xlink:href="#rim"/>
    <path pointer-events="none" fill="none" stroke="white" stroke-width="1.5" d="M0,-3.0v7 M-2.5,-0.5L0,-3.0L2.5,-0.5"/>
  </g>
  <g id="arrowLeft" transform="rotate(270) translate(-36 17)">
    <use xlink:href="#rim"/>
    <path pointer-events="none" fill="none" stroke="white" stroke-width="1.5" d="M0,-3.0v7 M-2.5,-0.5L0,-3.0L2.5,-0.5"/>
  </g>
  <g id="resetDef">
    <use xlink:href="#rim2" fill="#404040"><set attributeName="fill" to="#808080" begin="reset.mouseover" end="reset.mouseout"/></use>
  </g>
</defs>
<script type="application/ecmascript">
var viewWidth = 1305;
var viewHeight = 189;
var sectionId = 'dynsection-12';
</script>
<script type="application/ecmascript" xlink:href="svg.min.js"/>
<svg id="graph" class="graph">
<g id="viewport">
<title>m_perturbation::s_superposition_instability_wave</title>
<!-- Node1 -->
<g id="Node000001" class="node">
<title>Node1</title>
<g id="a_Node000001"><a xlink:title="This subroutine computes velocity perturbations for a temporal mixing layer with hypertangent mean st...">
<polygon fill="#999999" stroke="#666666" points="174,-94 0,-94 0,-64 174,-64 174,-94"/>
<text text-anchor="start" x="8" y="-82" font-family="Helvetica,sans-Serif" font-size="10.00">m_perturbation::s_superposition</text>
<text text-anchor="middle" x="87" y="-71" font-family="Helvetica,sans-Serif" font-size="10.00">_instability_wave</text>
</a>
</g>
</g>
<!-- Node2 -->
<g id="Node000002" class="node">
<title>Node2</title>
<g id="a_Node000002"><a xlink:href="namespacem__perturbation.html#a16bddc763f4f7e1d585eb470382e35f4" target="_top" xlink:title="This subroutine computes equilibrium bubble radius of the perturbed pressure field.">
<polygon fill="white" stroke="#666666" points="379.5,-116 228.5,-116 228.5,-86 379.5,-86 379.5,-116"/>
<text text-anchor="start" x="236.5" y="-104" font-family="Helvetica,sans-Serif" font-size="10.00">m_perturbation::s_compute</text>
<text text-anchor="middle" x="304" y="-93" font-family="Helvetica,sans-Serif" font-size="10.00">_equilibrium_state</text>
</a>
</g>
</g>
<!-- Node1&#45;&gt;Node2 -->
<g id="edge1_Node000001_Node000002" class="edge">
<title>Node1&#45;&gt;Node2</title>
<g id="a_edge1_Node000001_Node000002"><a xlink:title=" ">
<path fill="none" stroke="#63b8ff" d="M174.21,-87.82C188.59,-89.29 203.51,-90.82 217.86,-92.29"/>
<polygon fill="#63b8ff" stroke="#63b8ff" points="217.9,-95.81 228.2,-93.35 218.61,-88.85 217.9,-95.81"/>
</a>
</g>
</g>
<!-- Node3 -->
<g id="Node000003" class="node">
<title>Node3</title>
<g id="a_Node000003"><a xlink:href="namespacem__perturbation.html#a2083de284651fe7033948177c00dcf1b" target="_top" xlink:title="This subroutine computes instability waves for a given set of spatial wavenumbers (alpha,...">
<polygon fill="white" stroke="#666666" points="398,-67.5 210,-67.5 210,-48.5 398,-48.5 398,-67.5"/>
<text text-anchor="middle" x="304" y="-55.5" font-family="Helvetica,sans-Serif" font-size="10.00">m_perturbation::s_instability_wave</text>
</a>
</g>
</g>
<!-- Node1&#45;&gt;Node3 -->
<g id="edge2_Node000001_Node000003" class="edge">
<title>Node1&#45;&gt;Node3</title>
<g id="a_edge2_Node000001_Node000003"><a xlink:title=" ">
<path fill="none" stroke="#63b8ff" d="M174.21,-70.58C182.61,-69.76 191.18,-68.92 199.73,-68.09"/>
<polygon fill="#63b8ff" stroke="#63b8ff" points="200.11,-71.57 209.72,-67.11 199.43,-64.6 200.11,-71.57"/>
</a>
</g>
</g>
<!-- Node4 -->
<g id="Node000004" class="node">
<title>Node4</title>
<g id="a_Node000004"><a xlink:href="namespacem__perturbation.html#a41cb29ef03f665ae5238147ea8d98ffe" target="_top" xlink:title="This subroutine solves linear system from linear stability analysis and generate instability waves fo...">
<polygon fill="white" stroke="#666666" points="568,-73 434,-73 434,-43 568,-43 568,-73"/>
<text text-anchor="start" x="442" y="-61" font-family="Helvetica,sans-Serif" font-size="10.00">m_perturbation::s_solve</text>
<text text-anchor="middle" x="501" y="-50" font-family="Helvetica,sans-Serif" font-size="10.00">_linear_system</text>
</a>
</g>
</g>
<!-- Node3&#45;&gt;Node4 -->
<g id="edge3_Node000003_Node000004" class="edge">
<title>Node3&#45;&gt;Node4</title>
<g id="a_edge3_Node000003_Node000004"><a xlink:title=" ">
<path fill="none" stroke="#63b8ff" d="M398.22,-58C406.78,-58 415.39,-58 423.77,-58"/>
<polygon fill="#63b8ff" stroke="#63b8ff" points="423.87,-61.5 433.87,-58 423.87,-54.5 423.87,-61.5"/>
</a>
</g>
</g>
<!-- Node5 -->
<g id="Node000005" class="node">
<title>Node5</title>
<g id="a_Node000005"><a xlink:href="namespacem__eigen__solver.html#aefb5aec687cc395843bddeaa3fca02da" target="_top" xlink:title="This subroutine calls the recommended sequence of subroutines from the eigensystem subroutine package...">
<polygon fill="white" stroke="#666666" points="751.5,-123.5 640.5,-123.5 640.5,-104.5 751.5,-104.5 751.5,-123.5"/>
<text text-anchor="middle" x="696" y="-111.5" font-family="Helvetica,sans-Serif" font-size="10.00">m_eigen_solver::cg</text>
</a>
</g>
</g>
<!-- Node4&#45;&gt;Node5 -->
<g id="edge4_Node000004_Node000005" class="edge">
<title>Node4&#45;&gt;Node5</title>
<g id="a_edge4_Node000004_Node000005"><a xlink:title=" ">
<path fill="none" stroke="#63b8ff" d="M553.72,-73.01C584.58,-81.96 623.3,-93.2 652.39,-101.64"/>
<polygon fill="#63b8ff" stroke="#63b8ff" points="651.68,-105.07 662.26,-104.5 653.63,-98.35 651.68,-105.07"/>
</a>
</g>
</g>
<!-- Node13 -->
<g id="Node000013" class="node">
<title>Node13</title>
<g id="a_Node000013"><a xlink:href="namespacem__perturbation.html#a1f21a6b74e354360bb4bffb5e7956a46" target="_top" xlink:title="This subroutine generates an instability wave using the most unstable eigenvalue and corresponding ei...">
<polygon fill="white" stroke="#666666" points="787.5,-67.5 604.5,-67.5 604.5,-48.5 787.5,-48.5 787.5,-67.5"/>
<text text-anchor="middle" x="696" y="-55.5" font-family="Helvetica,sans-Serif" font-size="10.00">m_perturbation::s_generate_wave</text>
</a>
</g>
</g>
<!-- Node4&#45;&gt;Node13 -->
<g id="edge14_Node000004_Node000013" class="edge">
<title>Node4&#45;&gt;Node13</title>
<g id="a_edge14_Node000004_Node000013"><a xlink:title=" ">
<path fill="none" stroke="#63b8ff" d="M568.15,-58C576.63,-58 585.46,-58 594.34,-58"/>
<polygon fill="#63b8ff" stroke="#63b8ff" points="594.37,-61.5 604.37,-58 594.37,-54.5 594.37,-61.5"/>
</a>
</g>
</g>
<!-- Node14 -->
<g id="Node000014" class="node">
<title>Node14</title>
<g id="a_Node000014"><a xlink:href="namespacem__perturbation.html#a50408520dee6e810e8e862d90c1b0eef" target="_top" xlink:title="This subroutine applies non&#45;reflecting subsonic buffer boundary condition to the linear system of equ...">
<polygon fill="white" stroke="#666666" points="788,-30 604,-30 604,0 788,0 788,-30"/>
<text text-anchor="start" x="612" y="-18" font-family="Helvetica,sans-Serif" font-size="10.00">m_perturbation::s_instability</text>
<text text-anchor="middle" x="696" y="-7" font-family="Helvetica,sans-Serif" font-size="10.00">_nonreflecting_subsonic_buffer_bc</text>
</a>
</g>
</g>
<!-- Node4&#45;&gt;Node14 -->
<g id="edge16_Node000004_Node000014" class="edge">
<title>Node4&#45;&gt;Node14</title>
<g id="a_edge16_Node000004_Node000014"><a xlink:title=" ">
<path fill="none" stroke="#63b8ff" d="M568.15,-43.26C584.05,-39.72 601.18,-35.9 617.55,-32.26"/>
<polygon fill="#63b8ff" stroke="#63b8ff" points="618.63,-35.6 627.62,-30.01 617.1,-28.77 618.63,-35.6"/>
</a>
</g>
</g>
<!-- Node6 -->
<g id="Node000006" class="node">
<title>Node6</title>
<g id="a_Node000006"><a xlink:href="namespacem__eigen__solver.html#afe5d80a5a6c788da67adda9f6d084990" target="_top" xlink:title="This subroutine is a translation of the algol procedure cbabk2, which is a complex version of balbak,...">
<polygon fill="white" stroke="#666666" points="960,-160.5 825,-160.5 825,-141.5 960,-141.5 960,-160.5"/>
<text text-anchor="middle" x="892.5" y="-148.5" font-family="Helvetica,sans-Serif" font-size="10.00">m_eigen_solver::cbabk2</text>
</a>
</g>
</g>
<!-- Node5&#45;&gt;Node6 -->
<g id="edge5_Node000005_Node000006" class="edge">
<title>Node5&#45;&gt;Node6</title>
<g id="a_edge5_Node000005_Node000006"><a xlink:title=" ">
<path fill="none" stroke="#63b8ff" d="M747.09,-123.53C772.74,-128.41 804.16,-134.39 831.14,-139.52"/>
<polygon fill="#63b8ff" stroke="#63b8ff" points="830.77,-143.01 841.24,-141.44 832.07,-136.13 830.77,-143.01"/>
</a>
</g>
</g>
<!-- Node7 -->
<g id="Node000007" class="node">
<title>Node7</title>
<g id="a_Node000007"><a xlink:href="namespacem__eigen__solver.html#a1cf253da760f9e1cdb0c083de7100ec2" target="_top" xlink:title="This subroutine is a translation of the algol procedure cbalance, which is a complex version of balan...">
<polygon fill="white" stroke="#666666" points="952.5,-123.5 832.5,-123.5 832.5,-104.5 952.5,-104.5 952.5,-123.5"/>
<text text-anchor="middle" x="892.5" y="-111.5" font-family="Helvetica,sans-Serif" font-size="10.00">m_eigen_solver::cbal</text>
</a>
</g>
</g>
<!-- Node5&#45;&gt;Node7 -->
<g id="edge6_Node000005_Node000007" class="edge">
<title>Node5&#45;&gt;Node7</title>
<g id="a_edge6_Node000005_Node000007"><a xlink:title=" ">
<path fill="none" stroke="#63b8ff" d="M751.7,-114C773.62,-114 799.14,-114 822.33,-114"/>
<polygon fill="#63b8ff" stroke="#63b8ff" points="822.45,-117.5 832.45,-114 822.45,-110.5 822.45,-117.5"/>
</a>
</g>
</g>
<!-- Node8 -->
<g id="Node000008" class="node">
<title>Node8</title>
<g id="a_Node000008"><a xlink:href="namespacem__eigen__solver.html#a0554aa8887cd850437debd71f0469bdd" target="_top" xlink:title="This subroutine is a translation of a unitary analogue of the algol procedure comlr2,...">
<polygon fill="white" stroke="#666666" points="961,-86.5 824,-86.5 824,-67.5 961,-67.5 961,-86.5"/>
<text text-anchor="middle" x="892.5" y="-74.5" font-family="Helvetica,sans-Serif" font-size="10.00">m_eigen_solver::comqr2</text>
</a>
</g>
</g>
<!-- Node5&#45;&gt;Node8 -->
<g id="edge7_Node000005_Node000008" class="edge">
<title>Node5&#45;&gt;Node8</title>
<g id="a_edge7_Node000005_Node000008"><a xlink:title=" ">
<path fill="none" stroke="#63b8ff" d="M747.09,-104.47C772.74,-99.59 804.16,-93.61 831.14,-88.48"/>
<polygon fill="#63b8ff" stroke="#63b8ff" points="832.07,-91.87 841.24,-86.56 830.77,-84.99 832.07,-91.87"/>
</a>
</g>
</g>
<!-- Node12 -->
<g id="Node000012" class="node">
<title>Node12</title>
<g id="a_Node000012"><a xlink:href="namespacem__eigen__solver.html#a9d7bdad7cb058473d8a1683a4b399341" target="_top" xlink:title="This subroutine is a translation of a complex analogue of the algol procedure orthes,...">
<polygon fill="white" stroke="#666666" points="1124.5,-180.5 999.5,-180.5 999.5,-161.5 1124.5,-161.5 1124.5,-180.5"/>
<text text-anchor="middle" x="1062" y="-168.5" font-family="Helvetica,sans-Serif" font-size="10.00">m_eigen_solver::corth</text>
</a>
</g>
</g>
<!-- Node5&#45;&gt;Node12 -->
<g id="edge12_Node000005_Node000012" class="edge">
<title>Node5&#45;&gt;Node12</title>
<g id="a_edge12_Node000005_Node000012"><a xlink:title=" ">
<path fill="none" stroke="#63b8ff" d="M713.11,-123.71C736.53,-137.22 781.81,-161.02 824,-170 878.55,-181.61 941.78,-181.21 989.21,-178.26"/>
<polygon fill="#63b8ff" stroke="#63b8ff" points="989.64,-181.74 999.38,-177.57 989.17,-174.75 989.64,-181.74"/>
</a>
</g>
</g>
<!-- Node9 -->
<g id="Node000009" class="node">
<title>Node9</title>
<g id="a_Node000009"><a xlink:href="namespacem__eigen__solver.html#a17488ee727264ec2f03bba43290108ea" target="_top" xlink:title=" ">
<polygon fill="white" stroke="#666666" points="1122,-49.5 1002,-49.5 1002,-30.5 1122,-30.5 1122,-49.5"/>
<text text-anchor="middle" x="1062" y="-37.5" font-family="Helvetica,sans-Serif" font-size="10.00">m_eigen_solver::cdiv</text>
</a>
</g>
</g>
<!-- Node8&#45;&gt;Node9 -->
<g id="edge8_Node000008_Node000009" class="edge">
<title>Node8&#45;&gt;Node9</title>
<g id="a_edge8_Node000008_Node000009"><a xlink:title=" ">
<path fill="none" stroke="#63b8ff" d="M936.64,-67.47C958.34,-62.68 984.84,-56.82 1007.79,-51.75"/>
<polygon fill="#63b8ff" stroke="#63b8ff" points="1008.71,-55.14 1017.72,-49.56 1007.2,-48.3 1008.71,-55.14"/>
</a>
</g>
</g>
<!-- Node10 -->
<g id="Node000010" class="node">
<title>Node10</title>
<g id="a_Node000010"><a xlink:href="namespacem__eigen__solver.html#ac753696c245075b4785870a2fb52c9f0" target="_top" xlink:title=" ">
<polygon fill="white" stroke="#666666" points="1127,-86.5 997,-86.5 997,-67.5 1127,-67.5 1127,-86.5"/>
<text text-anchor="middle" x="1062" y="-74.5" font-family="Helvetica,sans-Serif" font-size="10.00">m_eigen_solver::csroot</text>
</a>
</g>
</g>
<!-- Node8&#45;&gt;Node10 -->
<g id="edge9_Node000008_Node000010" class="edge">
<title>Node8&#45;&gt;Node10</title>
<g id="a_edge9_Node000008_Node000010"><a xlink:title=" ">
<path fill="none" stroke="#63b8ff" d="M961.15,-77C969.54,-77 978.15,-77 986.64,-77"/>
<polygon fill="#63b8ff" stroke="#63b8ff" points="986.9,-80.5 996.9,-77 986.9,-73.5 986.9,-80.5"/>
</a>
</g>
</g>
<!-- Node11 -->
<g id="Node000011" class="node">
<title>Node11</title>
<g id="a_Node000011"><a xlink:href="namespacem__eigen__solver.html#aeecb6d18469aac6ba1a78db5ec25d122" target="_top" xlink:title=" ">
<polygon fill="white" stroke="#666666" points="1297,-124.5 1163,-124.5 1163,-105.5 1297,-105.5 1297,-124.5"/>
<text text-anchor="middle" x="1230" y="-112.5" font-family="Helvetica,sans-Serif" font-size="10.00">m_eigen_solver::pythag</text>
</a>
</g>
</g>
<!-- Node8&#45;&gt;Node11 -->
<g id="edge11_Node000008_Node000011" class="edge">
<title>Node8&#45;&gt;Node11</title>
<g id="a_edge11_Node000008_Node000011"><a xlink:title=" ">
<path fill="none" stroke="#63b8ff" d="M939.71,-86.5C957.55,-89.9 978.16,-93.51 997,-96 1048.77,-102.85 1107.39,-107.63 1152.76,-110.68"/>
<polygon fill="#63b8ff" stroke="#63b8ff" points="1152.6,-114.18 1162.81,-111.34 1153.06,-107.19 1152.6,-114.18"/>
</a>
</g>
</g>
<!-- Node10&#45;&gt;Node11 -->
<g id="edge10_Node000010_Node000011" class="edge">
<title>Node10&#45;&gt;Node11</title>
<g id="a_edge10_Node000010_Node000011"><a xlink:title=" ">
<path fill="none" stroke="#63b8ff" d="M1104.89,-86.59C1126.89,-91.63 1154.05,-97.84 1177.35,-103.18"/>
<polygon fill="#63b8ff" stroke="#63b8ff" points="1176.88,-106.66 1187.41,-105.48 1178.45,-99.84 1176.88,-106.66"/>
</a>
</g>
</g>
<!-- Node12&#45;&gt;Node11 -->
<g id="edge13_Node000012_Node000011" class="edge">
<title>Node12&#45;&gt;Node11</title>
<g id="a_edge13_Node000012_Node000011"><a xlink:title=" ">
<path fill="none" stroke="#63b8ff" d="M1091.54,-161.37C1119.02,-152.1 1160.77,-138.02 1191.05,-127.8"/>
<polygon fill="#63b8ff" stroke="#63b8ff" points="1192.48,-131.01 1200.84,-124.5 1190.24,-124.38 1192.48,-131.01"/>
</a>
</g>
</g>
<!-- Node13&#45;&gt;Node9 -->
<g id="edge15_Node000013_Node000009" class="edge">
<title>Node13&#45;&gt;Node9</title>
<g id="a_edge15_Node000013_Node000009"><a xlink:title=" ">
<path fill="none" stroke="#63b8ff" d="M787.91,-53.5C851.08,-50.38 933.98,-46.28 991.8,-43.42"/>
<polygon fill="#63b8ff" stroke="#63b8ff" points="992.12,-46.91 1001.93,-42.92 991.77,-39.92 992.12,-46.91"/>
</a>
</g>
</g>
</g>
</svg>

<g id="navigator" transform="translate(0 0)" fill="#404254">
  <rect fill="#f2f5e9" fill-opacity="0.5" stroke="#606060" stroke-width=".5" x="0" y="0" width="60" height="60"/>
  <use id="zoomplus" xlink:href="#zoomPlus" x="17" y="9" onmousedown="handleZoom(evt,'in')"/>
  <use id="zoomminus" xlink:href="#zoomMin" x="42" y="9" onmousedown="handleZoom(evt,'out')"/>
  <use id="reset" xlink:href="#resetDef" x="30" y="36" onmousedown="handleReset()"/>
   <use id="arrowup" xlink:href="#arrowUp" x="0" y="0" onmousedown="handlePan(0,-1)"/>
  <use id="arrowright" xlink:href="#arrowRight" x="0" y="0" onmousedown="handlePan(1,0)"/>
  <use id="arrowdown" xlink:href="#arrowDown" x="0" y="0" onmousedown="handlePan(0,1)"/>
  <use id="arrowleft" xlink:href="#arrowLeft" x="0" y="0" onmousedown="handlePan(-1,0)"/>
</g>
<svg viewBox="0 0 15 15" width="100%" height="30px" preserveAspectRatio="xMaxYMin meet">
 <g id="arrow_out" transform="scale(0.3 0.3)">
  <a xlink:href="namespacem__perturbation_a68e0d6637f82ef127f3bce4fc8064e99_cgraph_org.svg" target="_base">
   <rect id="button" ry="5" rx="5" y="6" x="6" height="38" width="38"
        fill="#f2f5e9" fill-opacity="0.5" stroke="#606060" stroke-width="1.0"/>
   <path id="arrow"
     d="M 11.500037,31.436501 C 11.940474,20.09759 22.043105,11.32322 32.158766,21.979434 L 37.068811,17.246167 C 37.068811,17.246167 37.088388,32 37.088388,32 L 22.160133,31.978069 C 22.160133,31.978069 26.997745,27.140456 26.997745,27.140456 C 18.528582,18.264221 13.291696,25.230495 11.500037,31.436501 z"
     style="fill:#404040;"/>
  </a>
 </g>
</svg>

<style type='text/css'>
<![CDATA[
[data-mouse-over-selected='false'] { opacity: 0.7; }
[data-mouse-over-selected='true']  { opacity: 1.0; }
]]>
</style>
<script type="application/ecmascript"><![CDATA[
document.addEventListener('DOMContentLoaded', (event) => {
  highlightEdges();
  highlightAdjacentNodes();
});
]]></script>
</svg>
