<?xml version="1.0" encoding="UTF-8" standalone="no"?>
<!DOCTYPE svg PUBLIC "-//W3C//DTD SVG 1.1//EN"
 "http://www.w3.org/Graphics/SVG/1.1/DTD/svg11.dtd">
<!-- Generated by graphviz version 2.43.0 (0)
 -->
<!-- Title: m_perturbation::s_elliptic_smoothing Pages: 1 -->
<svg width="634pt" height="374pt"
 viewBox="0.00 0.00 634.00 374.00" xmlns="http://www.w3.org/2000/svg" xmlns:xlink="http://www.w3.org/1999/xlink">
<g id="graph0" class="graph" transform="scale(1 1) rotate(0) translate(4 370)">
<title>m_perturbation::s_elliptic_smoothing</title>
<!-- Node1 -->
<g id="Node000001" class="node">
<title>Node1</title>
<g id="a_Node000001"><a xlink:title=" ">
<polygon fill="#999999" stroke="#666666" points="141,-198 0,-198 0,-168 141,-168 141,-198"/>
<text text-anchor="start" x="8" y="-186" font-family="Helvetica,sans-Serif" font-size="10.00">m_perturbation::s_elliptic</text>
<text text-anchor="middle" x="70.5" y="-175" font-family="Helvetica,sans-Serif" font-size="10.00">_smoothing</text>
</a>
</g>
</g>
<!-- Node2 -->
<g id="Node000002" class="node">
<title>Node2</title>
<g id="a_Node000002"><a xlink:href="namespacem__boundary__conditions.html#ac0f941b0622d2e701b2f20148440ba65" target="_top" xlink:title="The purpose of this procedure is to populate the buffers of the primitive variables,...">
<polygon fill="white" stroke="#666666" points="310,-203.5 177,-203.5 177,-162.5 310,-162.5 310,-203.5"/>
<text text-anchor="start" x="185" y="-191.5" font-family="Helvetica,sans-Serif" font-size="10.00">m_boundary_conditions</text>
<text text-anchor="start" x="185" y="-180.5" font-family="Helvetica,sans-Serif" font-size="10.00">::s_populate_variables</text>
<text text-anchor="middle" x="243.5" y="-169.5" font-family="Helvetica,sans-Serif" font-size="10.00">_buffers</text>
</a>
</g>
</g>
<!-- Node1&#45;&gt;Node2 -->
<g id="edge1_Node000001_Node000002" class="edge">
<title>Node1&#45;&gt;Node2</title>
<g id="a_edge1_Node000001_Node000002"><a xlink:title=" ">
<path fill="none" stroke="#63b8ff" d="M141.05,-183C149.56,-183 158.28,-183 166.87,-183"/>
<polygon fill="#63b8ff" stroke="#63b8ff" points="166.88,-186.5 176.88,-183 166.88,-179.5 166.88,-186.5"/>
</a>
</g>
</g>
<!-- Node3 -->
<g id="Node000003" class="node">
<title>Node3</title>
<g id="a_Node000003"><a xlink:href="namespacem__boundary__conditions.html#a3d6227c971fb98a1d518a645e3db5c41" target="_top" xlink:title=" ">
<polygon fill="white" stroke="#666666" points="489,-366 356,-366 356,-336 489,-336 489,-366"/>
<text text-anchor="start" x="364" y="-354" font-family="Helvetica,sans-Serif" font-size="10.00">m_boundary_conditions</text>
<text text-anchor="middle" x="422.5" y="-343" font-family="Helvetica,sans-Serif" font-size="10.00">::s_axis</text>
</a>
</g>
</g>
<!-- Node2&#45;&gt;Node3 -->
<g id="edge2_Node000002_Node000003" class="edge">
<title>Node2&#45;&gt;Node3</title>
<g id="a_edge2_Node000002_Node000003"><a xlink:title=" ">
<path fill="none" stroke="#63b8ff" d="M253.66,-203.64C268.56,-234.87 300.97,-294.01 346,-327 347.89,-328.39 349.87,-329.7 351.91,-330.93"/>
<polygon fill="#63b8ff" stroke="#63b8ff" points="350.73,-334.27 361.2,-335.88 354.02,-328.09 350.73,-334.27"/>
</a>
</g>
</g>
<!-- Node4 -->
<g id="Node000004" class="node">
<title>Node4</title>
<g id="a_Node000004"><a xlink:href="namespacem__boundary__conditions.html#a6b07b760d5e002f6fd09fbeb2e96c227" target="_top" xlink:title=" ">
<polygon fill="white" stroke="#666666" points="499,-318 346,-318 346,-288 499,-288 499,-318"/>
<text text-anchor="start" x="354" y="-306" font-family="Helvetica,sans-Serif" font-size="10.00">m_boundary_conditions</text>
<text text-anchor="middle" x="422.5" y="-295" font-family="Helvetica,sans-Serif" font-size="10.00">::s_ghost_cell_extrapolation</text>
</a>
</g>
</g>
<!-- Node2&#45;&gt;Node4 -->
<g id="edge3_Node000002_Node000004" class="edge">
<title>Node2&#45;&gt;Node4</title>
<g id="a_edge3_Node000002_Node000004"><a xlink:title=" ">
<path fill="none" stroke="#63b8ff" d="M261.47,-203.85C280.11,-225.49 311.94,-258.92 346,-279 348.84,-280.68 351.82,-282.25 354.87,-283.72"/>
<polygon fill="#63b8ff" stroke="#63b8ff" points="353.67,-287.02 364.23,-287.85 356.5,-280.61 353.67,-287.02"/>
</a>
</g>
</g>
<!-- Node5 -->
<g id="Node000005" class="node">
<title>Node5</title>
<g id="a_Node000005"><a xlink:href="m__mpi__common_8fpp_8f90.html#a815e648dc99c14163990d199ff63d785" target="_top" xlink:title="The goal of this procedure is to populate the buffers of the cell&#45;average conservative variables by c...">
<polygon fill="white" stroke="#666666" points="495.5,-270 349.5,-270 349.5,-240 495.5,-240 495.5,-270"/>
<text text-anchor="start" x="357.5" y="-258" font-family="Helvetica,sans-Serif" font-size="10.00">s_mpi_sendrecv_variables</text>
<text text-anchor="middle" x="422.5" y="-247" font-family="Helvetica,sans-Serif" font-size="10.00">_buffers</text>
</a>
</g>
</g>
<!-- Node2&#45;&gt;Node5 -->
<g id="edge4_Node000002_Node000005" class="edge">
<title>Node2&#45;&gt;Node5</title>
<g id="a_edge4_Node000002_Node000005"><a xlink:title=" ">
<path fill="none" stroke="#63b8ff" d="M284.94,-203.65C303.32,-212.64 325.5,-222.94 346,-231 350.84,-232.9 355.89,-234.77 360.99,-236.56"/>
<polygon fill="#63b8ff" stroke="#63b8ff" points="360.22,-240 370.81,-239.92 362.48,-233.37 360.22,-240"/>
</a>
</g>
</g>
<!-- Node8 -->
<g id="Node000008" class="node">
<title>Node8</title>
<g id="a_Node000008"><a xlink:href="namespacem__boundary__conditions.html#addb7b32cdfa1a35e0b18f1b187ac6af4" target="_top" xlink:title=" ">
<polygon fill="white" stroke="#666666" points="489,-222 356,-222 356,-192 489,-192 489,-222"/>
<text text-anchor="start" x="364" y="-210" font-family="Helvetica,sans-Serif" font-size="10.00">m_boundary_conditions</text>
<text text-anchor="middle" x="422.5" y="-199" font-family="Helvetica,sans-Serif" font-size="10.00">::s_no_slip_wall</text>
</a>
</g>
</g>
<!-- Node2&#45;&gt;Node8 -->
<g id="edge7_Node000002_Node000008" class="edge">
<title>Node2&#45;&gt;Node8</title>
<g id="a_edge7_Node000002_Node000008"><a xlink:title=" ">
<path fill="none" stroke="#63b8ff" d="M310.16,-191.9C321.84,-193.49 334.09,-195.15 346.02,-196.77"/>
<polygon fill="#63b8ff" stroke="#63b8ff" points="345.57,-200.24 355.95,-198.11 346.51,-193.3 345.57,-200.24"/>
</a>
</g>
</g>
<!-- Node9 -->
<g id="Node000009" class="node">
<title>Node9</title>
<g id="a_Node000009"><a xlink:href="namespacem__boundary__conditions.html#a29b132a26ddae2cd3afb4214f861dcfc" target="_top" xlink:title=" ">
<polygon fill="white" stroke="#666666" points="489,-174 356,-174 356,-144 489,-144 489,-174"/>
<text text-anchor="start" x="364" y="-162" font-family="Helvetica,sans-Serif" font-size="10.00">m_boundary_conditions</text>
<text text-anchor="middle" x="422.5" y="-151" font-family="Helvetica,sans-Serif" font-size="10.00">::s_periodic</text>
</a>
</g>
</g>
<!-- Node2&#45;&gt;Node9 -->
<g id="edge8_Node000002_Node000009" class="edge">
<title>Node2&#45;&gt;Node9</title>
<g id="a_edge8_Node000002_Node000009"><a xlink:title=" ">
<path fill="none" stroke="#63b8ff" d="M310.16,-174.1C321.84,-172.51 334.09,-170.85 346.02,-169.23"/>
<polygon fill="#63b8ff" stroke="#63b8ff" points="346.51,-172.7 355.95,-167.89 345.57,-165.76 346.51,-172.7"/>
</a>
</g>
</g>
<!-- Node10 -->
<g id="Node000010" class="node">
<title>Node10</title>
<g id="a_Node000010"><a xlink:href="namespacem__boundary__conditions.html#a655f4ef9edcb15614b91363aae213c65" target="_top" xlink:title=" ">
<polygon fill="white" stroke="#666666" points="490,-126 355,-126 355,-96 490,-96 490,-126"/>
<text text-anchor="start" x="363" y="-114" font-family="Helvetica,sans-Serif" font-size="10.00">m_boundary_conditions</text>
<text text-anchor="middle" x="422.5" y="-103" font-family="Helvetica,sans-Serif" font-size="10.00">::s_qbmm_extrapolation</text>
</a>
</g>
</g>
<!-- Node2&#45;&gt;Node10 -->
<g id="edge9_Node000002_Node000010" class="edge">
<title>Node2&#45;&gt;Node10</title>
<g id="a_edge9_Node000002_Node000010"><a xlink:title=" ">
<path fill="none" stroke="#63b8ff" d="M284.94,-162.35C303.32,-153.36 325.5,-143.06 346,-135 350.84,-133.1 355.89,-131.23 360.99,-129.44"/>
<polygon fill="#63b8ff" stroke="#63b8ff" points="362.48,-132.63 370.81,-126.08 360.22,-126 362.48,-132.63"/>
</a>
</g>
</g>
<!-- Node11 -->
<g id="Node000011" class="node">
<title>Node11</title>
<g id="a_Node000011"><a xlink:href="namespacem__boundary__conditions.html#a00baa416b778d7fa702a0d6dbfe34eb3" target="_top" xlink:title=" ">
<polygon fill="white" stroke="#666666" points="489,-78 356,-78 356,-48 489,-48 489,-78"/>
<text text-anchor="start" x="364" y="-66" font-family="Helvetica,sans-Serif" font-size="10.00">m_boundary_conditions</text>
<text text-anchor="middle" x="422.5" y="-55" font-family="Helvetica,sans-Serif" font-size="10.00">::s_slip_wall</text>
</a>
</g>
</g>
<!-- Node2&#45;&gt;Node11 -->
<g id="edge10_Node000002_Node000011" class="edge">
<title>Node2&#45;&gt;Node11</title>
<g id="a_edge10_Node000002_Node000011"><a xlink:title=" ">
<path fill="none" stroke="#63b8ff" d="M261.47,-162.15C280.11,-140.51 311.94,-107.08 346,-87 348.84,-85.32 351.82,-83.75 354.87,-82.28"/>
<polygon fill="#63b8ff" stroke="#63b8ff" points="356.5,-85.39 364.23,-78.15 353.67,-78.98 356.5,-85.39"/>
</a>
</g>
</g>
<!-- Node12 -->
<g id="Node000012" class="node">
<title>Node12</title>
<g id="a_Node000012"><a xlink:href="namespacem__boundary__conditions.html#a89094a3a651a34a2ff666e69e0cdcfb7" target="_top" xlink:title=" ">
<polygon fill="white" stroke="#666666" points="489,-30 356,-30 356,0 489,0 489,-30"/>
<text text-anchor="start" x="364" y="-18" font-family="Helvetica,sans-Serif" font-size="10.00">m_boundary_conditions</text>
<text text-anchor="middle" x="422.5" y="-7" font-family="Helvetica,sans-Serif" font-size="10.00">::s_symmetry</text>
</a>
</g>
</g>
<!-- Node2&#45;&gt;Node12 -->
<g id="edge11_Node000002_Node000012" class="edge">
<title>Node2&#45;&gt;Node12</title>
<g id="a_edge11_Node000002_Node000012"><a xlink:title=" ">
<path fill="none" stroke="#63b8ff" d="M253.66,-162.36C268.56,-131.13 300.97,-71.99 346,-39 347.89,-37.61 349.87,-36.3 351.91,-35.07"/>
<polygon fill="#63b8ff" stroke="#63b8ff" points="354.02,-37.91 361.2,-30.12 350.73,-31.73 354.02,-37.91"/>
</a>
</g>
</g>
<!-- Node6 -->
<g id="Node000006" class="node">
<title>Node6</title>
<g id="a_Node000006"><a xlink:href="m__helper_8fpp_8f90.html#aaa9cc8944c8dfe3f302e106b0eb3efee" target="_top" xlink:title=" ">
<polygon fill="white" stroke="#666666" points="626,-282.5 535,-282.5 535,-263.5 626,-263.5 626,-282.5"/>
<text text-anchor="middle" x="580.5" y="-270.5" font-family="Helvetica,sans-Serif" font-size="10.00">f_logical_to_int</text>
</a>
</g>
</g>
<!-- Node5&#45;&gt;Node6 -->
<g id="edge5_Node000005_Node000006" class="edge">
<title>Node5&#45;&gt;Node6</title>
<g id="a_edge5_Node000005_Node000006"><a xlink:title=" ">
<path fill="none" stroke="#63b8ff" d="M495.56,-263.32C505.41,-264.45 515.39,-265.6 524.86,-266.7"/>
<polygon fill="#63b8ff" stroke="#63b8ff" points="524.57,-270.19 534.91,-267.85 525.37,-263.23 524.57,-270.19"/>
</a>
</g>
</g>
<!-- Node7 -->
<g id="Node000007" class="node">
<title>Node7</title>
<g id="a_Node000007"><a xlink:href="m__helper_8fpp_8f90.html#abd1074cc9307589b2d34db68c67afb7f" target="_top" xlink:title=" ">
<polygon fill="white" stroke="#666666" points="601,-245.5 560,-245.5 560,-226.5 601,-226.5 601,-245.5"/>
<text text-anchor="middle" x="580.5" y="-233.5" font-family="Helvetica,sans-Serif" font-size="10.00">f_xor</text>
</a>
</g>
</g>
<!-- Node5&#45;&gt;Node7 -->
<g id="edge6_Node000005_Node000007" class="edge">
<title>Node5&#45;&gt;Node7</title>
<g id="a_edge6_Node000005_Node000007"><a xlink:title=" ">
<path fill="none" stroke="#63b8ff" d="M495.56,-246.22C514.76,-243.88 534.45,-241.49 549.92,-239.6"/>
<polygon fill="#63b8ff" stroke="#63b8ff" points="550.4,-243.07 559.91,-238.39 549.56,-236.12 550.4,-243.07"/>
</a>
</g>
</g>
</g>
</svg>
