<?xml version="1.0" encoding="UTF-8" standalone="no"?>
<!DOCTYPE svg PUBLIC "-//W3C//DTD SVG 1.1//EN"
 "http://www.w3.org/Graphics/SVG/1.1/DTD/svg11.dtd">
<!-- Generated by graphviz version 2.43.0 (0)
 -->
<!-- Title: m_perturbation::s_instability_wave Pages: 1 -->
<svg width="1095pt" height="189pt"
 viewBox="0.00 0.00 1095.00 188.57" xmlns="http://www.w3.org/2000/svg" xmlns:xlink="http://www.w3.org/1999/xlink">
<g id="graph0" class="graph" transform="scale(1 1) rotate(0) translate(4 184.57)">
<title>m_perturbation::s_instability_wave</title>
<!-- Node1 -->
<g id="Node000001" class="node">
<title>Node1</title>
<g id="a_Node000001"><a xlink:title="This subroutine computes instability waves for a given set of spatial wavenumbers (alpha,...">
<polygon fill="#999999" stroke="#666666" points="188,-67.5 0,-67.5 0,-48.5 188,-48.5 188,-67.5"/>
<text text-anchor="middle" x="94" y="-55.5" font-family="Helvetica,sans-Serif" font-size="10.00">m_perturbation::s_instability_wave</text>
</a>
</g>
</g>
<!-- Node2 -->
<g id="Node000002" class="node">
<title>Node2</title>
<g id="a_Node000002"><a xlink:href="namespacem__perturbation.html#a41cb29ef03f665ae5238147ea8d98ffe" target="_top" xlink:title="This subroutine solves linear system from linear stability analysis and generate instability waves fo...">
<polygon fill="white" stroke="#666666" points="358,-73 224,-73 224,-43 358,-43 358,-73"/>
<text text-anchor="start" x="232" y="-61" font-family="Helvetica,sans-Serif" font-size="10.00">m_perturbation::s_solve</text>
<text text-anchor="middle" x="291" y="-50" font-family="Helvetica,sans-Serif" font-size="10.00">_linear_system</text>
</a>
</g>
</g>
<!-- Node1&#45;&gt;Node2 -->
<g id="edge1_Node000001_Node000002" class="edge">
<title>Node1&#45;&gt;Node2</title>
<g id="a_edge1_Node000001_Node000002"><a xlink:title=" ">
<path fill="none" stroke="#63b8ff" d="M188.22,-58C196.78,-58 205.39,-58 213.77,-58"/>
<polygon fill="#63b8ff" stroke="#63b8ff" points="213.87,-61.5 223.87,-58 213.87,-54.5 213.87,-61.5"/>
</a>
</g>
</g>
<!-- Node3 -->
<g id="Node000003" class="node">
<title>Node3</title>
<g id="a_Node000003"><a xlink:href="namespacem__eigen__solver.html#aefb5aec687cc395843bddeaa3fca02da" target="_top" xlink:title="This subroutine calls the recommended sequence of subroutines from the eigensystem subroutine package...">
<polygon fill="white" stroke="#666666" points="541.5,-123.5 430.5,-123.5 430.5,-104.5 541.5,-104.5 541.5,-123.5"/>
<text text-anchor="middle" x="486" y="-111.5" font-family="Helvetica,sans-Serif" font-size="10.00">m_eigen_solver::cg</text>
</a>
</g>
</g>
<!-- Node2&#45;&gt;Node3 -->
<g id="edge2_Node000002_Node000003" class="edge">
<title>Node2&#45;&gt;Node3</title>
<g id="a_edge2_Node000002_Node000003"><a xlink:title=" ">
<path fill="none" stroke="#63b8ff" d="M343.72,-73.01C374.58,-81.96 413.3,-93.2 442.39,-101.64"/>
<polygon fill="#63b8ff" stroke="#63b8ff" points="441.68,-105.07 452.26,-104.5 443.63,-98.35 441.68,-105.07"/>
</a>
</g>
</g>
<!-- Node11 -->
<g id="Node000011" class="node">
<title>Node11</title>
<g id="a_Node000011"><a xlink:href="namespacem__perturbation.html#a1f21a6b74e354360bb4bffb5e7956a46" target="_top" xlink:title="This subroutine generates an instability wave using the most unstable eigenvalue and corresponding ei...">
<polygon fill="white" stroke="#666666" points="577.5,-67.5 394.5,-67.5 394.5,-48.5 577.5,-48.5 577.5,-67.5"/>
<text text-anchor="middle" x="486" y="-55.5" font-family="Helvetica,sans-Serif" font-size="10.00">m_perturbation::s_generate_wave</text>
</a>
</g>
</g>
<!-- Node2&#45;&gt;Node11 -->
<g id="edge12_Node000002_Node000011" class="edge">
<title>Node2&#45;&gt;Node11</title>
<g id="a_edge12_Node000002_Node000011"><a xlink:title=" ">
<path fill="none" stroke="#63b8ff" d="M358.15,-58C366.63,-58 375.46,-58 384.34,-58"/>
<polygon fill="#63b8ff" stroke="#63b8ff" points="384.37,-61.5 394.37,-58 384.37,-54.5 384.37,-61.5"/>
</a>
</g>
</g>
<!-- Node12 -->
<g id="Node000012" class="node">
<title>Node12</title>
<g id="a_Node000012"><a xlink:href="namespacem__perturbation.html#a50408520dee6e810e8e862d90c1b0eef" target="_top" xlink:title="This subroutine applies non&#45;reflecting subsonic buffer boundary condition to the linear system of equ...">
<polygon fill="white" stroke="#666666" points="578,-30 394,-30 394,0 578,0 578,-30"/>
<text text-anchor="start" x="402" y="-18" font-family="Helvetica,sans-Serif" font-size="10.00">m_perturbation::s_instability</text>
<text text-anchor="middle" x="486" y="-7" font-family="Helvetica,sans-Serif" font-size="10.00">_nonreflecting_subsonic_buffer_bc</text>
</a>
</g>
</g>
<!-- Node2&#45;&gt;Node12 -->
<g id="edge14_Node000002_Node000012" class="edge">
<title>Node2&#45;&gt;Node12</title>
<g id="a_edge14_Node000002_Node000012"><a xlink:title=" ">
<path fill="none" stroke="#63b8ff" d="M358.15,-43.26C374.05,-39.72 391.18,-35.9 407.55,-32.26"/>
<polygon fill="#63b8ff" stroke="#63b8ff" points="408.63,-35.6 417.62,-30.01 407.1,-28.77 408.63,-35.6"/>
</a>
</g>
</g>
<!-- Node4 -->
<g id="Node000004" class="node">
<title>Node4</title>
<g id="a_Node000004"><a xlink:href="namespacem__eigen__solver.html#afe5d80a5a6c788da67adda9f6d084990" target="_top" xlink:title="This subroutine is a translation of the algol procedure cbabk2, which is a complex version of balbak,...">
<polygon fill="white" stroke="#666666" points="750,-160.5 615,-160.5 615,-141.5 750,-141.5 750,-160.5"/>
<text text-anchor="middle" x="682.5" y="-148.5" font-family="Helvetica,sans-Serif" font-size="10.00">m_eigen_solver::cbabk2</text>
</a>
</g>
</g>
<!-- Node3&#45;&gt;Node4 -->
<g id="edge3_Node000003_Node000004" class="edge">
<title>Node3&#45;&gt;Node4</title>
<g id="a_edge3_Node000003_Node000004"><a xlink:title=" ">
<path fill="none" stroke="#63b8ff" d="M537.09,-123.53C562.74,-128.41 594.16,-134.39 621.14,-139.52"/>
<polygon fill="#63b8ff" stroke="#63b8ff" points="620.77,-143.01 631.24,-141.44 622.07,-136.13 620.77,-143.01"/>
</a>
</g>
</g>
<!-- Node5 -->
<g id="Node000005" class="node">
<title>Node5</title>
<g id="a_Node000005"><a xlink:href="namespacem__eigen__solver.html#a1cf253da760f9e1cdb0c083de7100ec2" target="_top" xlink:title="This subroutine is a translation of the algol procedure cbalance, which is a complex version of balan...">
<polygon fill="white" stroke="#666666" points="742.5,-123.5 622.5,-123.5 622.5,-104.5 742.5,-104.5 742.5,-123.5"/>
<text text-anchor="middle" x="682.5" y="-111.5" font-family="Helvetica,sans-Serif" font-size="10.00">m_eigen_solver::cbal</text>
</a>
</g>
</g>
<!-- Node3&#45;&gt;Node5 -->
<g id="edge4_Node000003_Node000005" class="edge">
<title>Node3&#45;&gt;Node5</title>
<g id="a_edge4_Node000003_Node000005"><a xlink:title=" ">
<path fill="none" stroke="#63b8ff" d="M541.7,-114C563.62,-114 589.14,-114 612.33,-114"/>
<polygon fill="#63b8ff" stroke="#63b8ff" points="612.45,-117.5 622.45,-114 612.45,-110.5 612.45,-117.5"/>
</a>
</g>
</g>
<!-- Node6 -->
<g id="Node000006" class="node">
<title>Node6</title>
<g id="a_Node000006"><a xlink:href="namespacem__eigen__solver.html#a0554aa8887cd850437debd71f0469bdd" target="_top" xlink:title="This subroutine is a translation of a unitary analogue of the algol procedure comlr2,...">
<polygon fill="white" stroke="#666666" points="751,-86.5 614,-86.5 614,-67.5 751,-67.5 751,-86.5"/>
<text text-anchor="middle" x="682.5" y="-74.5" font-family="Helvetica,sans-Serif" font-size="10.00">m_eigen_solver::comqr2</text>
</a>
</g>
</g>
<!-- Node3&#45;&gt;Node6 -->
<g id="edge5_Node000003_Node000006" class="edge">
<title>Node3&#45;&gt;Node6</title>
<g id="a_edge5_Node000003_Node000006"><a xlink:title=" ">
<path fill="none" stroke="#63b8ff" d="M537.09,-104.47C562.74,-99.59 594.16,-93.61 621.14,-88.48"/>
<polygon fill="#63b8ff" stroke="#63b8ff" points="622.07,-91.87 631.24,-86.56 620.77,-84.99 622.07,-91.87"/>
</a>
</g>
</g>
<!-- Node10 -->
<g id="Node000010" class="node">
<title>Node10</title>
<g id="a_Node000010"><a xlink:href="namespacem__eigen__solver.html#a9d7bdad7cb058473d8a1683a4b399341" target="_top" xlink:title="This subroutine is a translation of a complex analogue of the algol procedure orthes,...">
<polygon fill="white" stroke="#666666" points="914.5,-180.5 789.5,-180.5 789.5,-161.5 914.5,-161.5 914.5,-180.5"/>
<text text-anchor="middle" x="852" y="-168.5" font-family="Helvetica,sans-Serif" font-size="10.00">m_eigen_solver::corth</text>
</a>
</g>
</g>
<!-- Node3&#45;&gt;Node10 -->
<g id="edge10_Node000003_Node000010" class="edge">
<title>Node3&#45;&gt;Node10</title>
<g id="a_edge10_Node000003_Node000010"><a xlink:title=" ">
<path fill="none" stroke="#63b8ff" d="M503.11,-123.71C526.53,-137.22 571.81,-161.02 614,-170 668.55,-181.61 731.78,-181.21 779.21,-178.26"/>
<polygon fill="#63b8ff" stroke="#63b8ff" points="779.64,-181.74 789.38,-177.57 779.17,-174.75 779.64,-181.74"/>
</a>
</g>
</g>
<!-- Node7 -->
<g id="Node000007" class="node">
<title>Node7</title>
<g id="a_Node000007"><a xlink:href="namespacem__eigen__solver.html#a17488ee727264ec2f03bba43290108ea" target="_top" xlink:title=" ">
<polygon fill="white" stroke="#666666" points="912,-49.5 792,-49.5 792,-30.5 912,-30.5 912,-49.5"/>
<text text-anchor="middle" x="852" y="-37.5" font-family="Helvetica,sans-Serif" font-size="10.00">m_eigen_solver::cdiv</text>
</a>
</g>
</g>
<!-- Node6&#45;&gt;Node7 -->
<g id="edge6_Node000006_Node000007" class="edge">
<title>Node6&#45;&gt;Node7</title>
<g id="a_edge6_Node000006_Node000007"><a xlink:title=" ">
<path fill="none" stroke="#63b8ff" d="M726.64,-67.47C748.34,-62.68 774.84,-56.82 797.79,-51.75"/>
<polygon fill="#63b8ff" stroke="#63b8ff" points="798.71,-55.14 807.72,-49.56 797.2,-48.3 798.71,-55.14"/>
</a>
</g>
</g>
<!-- Node8 -->
<g id="Node000008" class="node">
<title>Node8</title>
<g id="a_Node000008"><a xlink:href="namespacem__eigen__solver.html#ac753696c245075b4785870a2fb52c9f0" target="_top" xlink:title=" ">
<polygon fill="white" stroke="#666666" points="917,-86.5 787,-86.5 787,-67.5 917,-67.5 917,-86.5"/>
<text text-anchor="middle" x="852" y="-74.5" font-family="Helvetica,sans-Serif" font-size="10.00">m_eigen_solver::csroot</text>
</a>
</g>
</g>
<!-- Node6&#45;&gt;Node8 -->
<g id="edge7_Node000006_Node000008" class="edge">
<title>Node6&#45;&gt;Node8</title>
<g id="a_edge7_Node000006_Node000008"><a xlink:title=" ">
<path fill="none" stroke="#63b8ff" d="M751.15,-77C759.54,-77 768.15,-77 776.64,-77"/>
<polygon fill="#63b8ff" stroke="#63b8ff" points="776.9,-80.5 786.9,-77 776.9,-73.5 776.9,-80.5"/>
</a>
</g>
</g>
<!-- Node9 -->
<g id="Node000009" class="node">
<title>Node9</title>
<g id="a_Node000009"><a xlink:href="namespacem__eigen__solver.html#aeecb6d18469aac6ba1a78db5ec25d122" target="_top" xlink:title=" ">
<polygon fill="white" stroke="#666666" points="1087,-124.5 953,-124.5 953,-105.5 1087,-105.5 1087,-124.5"/>
<text text-anchor="middle" x="1020" y="-112.5" font-family="Helvetica,sans-Serif" font-size="10.00">m_eigen_solver::pythag</text>
</a>
</g>
</g>
<!-- Node6&#45;&gt;Node9 -->
<g id="edge9_Node000006_Node000009" class="edge">
<title>Node6&#45;&gt;Node9</title>
<g id="a_edge9_Node000006_Node000009"><a xlink:title=" ">
<path fill="none" stroke="#63b8ff" d="M729.71,-86.5C747.55,-89.9 768.16,-93.51 787,-96 838.77,-102.85 897.39,-107.63 942.76,-110.68"/>
<polygon fill="#63b8ff" stroke="#63b8ff" points="942.6,-114.18 952.81,-111.34 943.06,-107.19 942.6,-114.18"/>
</a>
</g>
</g>
<!-- Node8&#45;&gt;Node9 -->
<g id="edge8_Node000008_Node000009" class="edge">
<title>Node8&#45;&gt;Node9</title>
<g id="a_edge8_Node000008_Node000009"><a xlink:title=" ">
<path fill="none" stroke="#63b8ff" d="M894.89,-86.59C916.89,-91.63 944.05,-97.84 967.35,-103.18"/>
<polygon fill="#63b8ff" stroke="#63b8ff" points="966.88,-106.66 977.41,-105.48 968.45,-99.84 966.88,-106.66"/>
</a>
</g>
</g>
<!-- Node10&#45;&gt;Node9 -->
<g id="edge11_Node000010_Node000009" class="edge">
<title>Node10&#45;&gt;Node9</title>
<g id="a_edge11_Node000010_Node000009"><a xlink:title=" ">
<path fill="none" stroke="#63b8ff" d="M881.54,-161.37C909.02,-152.1 950.77,-138.02 981.05,-127.8"/>
<polygon fill="#63b8ff" stroke="#63b8ff" points="982.48,-131.01 990.84,-124.5 980.24,-124.38 982.48,-131.01"/>
</a>
</g>
</g>
<!-- Node11&#45;&gt;Node7 -->
<g id="edge13_Node000011_Node000007" class="edge">
<title>Node11&#45;&gt;Node7</title>
<g id="a_edge13_Node000011_Node000007"><a xlink:title=" ">
<path fill="none" stroke="#63b8ff" d="M577.91,-53.5C641.08,-50.38 723.98,-46.28 781.8,-43.42"/>
<polygon fill="#63b8ff" stroke="#63b8ff" points="782.12,-46.91 791.93,-42.92 781.77,-39.92 782.12,-46.91"/>
</a>
</g>
</g>
</g>
</svg>
