<?xml version="1.0" encoding="UTF-8" standalone="no"?>
<!DOCTYPE svg PUBLIC "-//W3C//DTD SVG 1.1//EN"
 "http://www.w3.org/Graphics/SVG/1.1/DTD/svg11.dtd">
<!-- Generated by graphviz version 2.43.0 (0)
 -->
<!-- Title: m_model::f_read_line Pages: 1 -->
<svg width="1517pt" height="114pt"
 viewBox="0.00 0.00 1517.00 113.50" xmlns="http://www.w3.org/2000/svg" xmlns:xlink="http://www.w3.org/1999/xlink">
<g id="graph0" class="graph" transform="scale(1 1) rotate(0) translate(4 109.5)">
<title>m_model::f_read_line</title>
<!-- Node1 -->
<g id="Node000001" class="node">
<title>Node1</title>
<g id="a_Node000001"><a xlink:title="Read the next non&#45;blank, non&#45;comment line from an STL or OBJ model file.">
<polygon fill="#999999" stroke="#666666" points="1509,-67.5 1387,-67.5 1387,-48.5 1509,-48.5 1509,-67.5"/>
<text text-anchor="middle" x="1448" y="-55.5" font-family="Helvetica,sans-Serif" font-size="10.00">m_model::f_read_line</text>
</a>
</g>
</g>
<!-- Node2 -->
<g id="Node000002" class="node">
<title>Node2</title>
<g id="a_Node000002"><a xlink:href="namespacem__model.html#a33ad862ed39fa4f0a0364389cf9a0821" target="_top" xlink:title="Read an OBJ file.">
<polygon fill="white" stroke="#666666" points="1174,-105.5 1053,-105.5 1053,-86.5 1174,-86.5 1174,-105.5"/>
<text text-anchor="middle" x="1113.5" y="-93.5" font-family="Helvetica,sans-Serif" font-size="10.00">m_model::s_read_obj</text>
</a>
</g>
</g>
<!-- Node1&#45;&gt;Node2 -->
<g id="edge1_Node000001_Node000002" class="edge">
<title>Node1&#45;&gt;Node2</title>
<g id="a_edge1_Node000001_Node000002"><a xlink:title=" ">
<path fill="none" stroke="#63b8ff" d="M1376.72,-66.06C1368.06,-67.05 1359.33,-68.05 1351,-69 1290.85,-75.88 1222.09,-83.73 1174.28,-89.18"/>
<polygon fill="#63b8ff" stroke="#63b8ff" points="1377.29,-69.51 1386.83,-64.9 1376.5,-62.56 1377.29,-69.51"/>
</a>
</g>
</g>
<!-- Node9 -->
<g id="Node000009" class="node">
<title>Node9</title>
<g id="a_Node000009"><a xlink:href="namespacem__model.html#ad7e72764fdcd2dac89b5e91d0d7db271" target="_top" xlink:title="Read an ASCII STL file.">
<polygon fill="white" stroke="#666666" points="1172.5,-68 1054.5,-68 1054.5,-38 1172.5,-38 1172.5,-68"/>
<text text-anchor="start" x="1062.5" y="-56" font-family="Helvetica,sans-Serif" font-size="10.00">m_model::s_read_stl</text>
<text text-anchor="middle" x="1113.5" y="-45" font-family="Helvetica,sans-Serif" font-size="10.00">_ascii</text>
</a>
</g>
</g>
<!-- Node1&#45;&gt;Node9 -->
<g id="edge8_Node000001_Node000009" class="edge">
<title>Node1&#45;&gt;Node9</title>
<g id="a_edge8_Node000001_Node000009"><a xlink:title=" ">
<path fill="none" stroke="#63b8ff" d="M1376.53,-56.94C1315.86,-56.03 1229.36,-54.73 1172.59,-53.87"/>
<polygon fill="#63b8ff" stroke="#63b8ff" points="1376.74,-60.44 1386.79,-57.09 1376.84,-53.44 1376.74,-60.44"/>
</a>
</g>
</g>
<!-- Node11 -->
<g id="Node000011" class="node">
<title>Node11</title>
<g id="a_Node000011"><a xlink:href="namespacem__model.html#a532686157e0170dfff866cafe2162e9b" target="_top" xlink:title="Read the next non&#45;comment line from a model file, using a buffered look&#45;ahead mechanism.">
<polygon fill="white" stroke="#666666" points="1351,-30 1210,-30 1210,0 1351,0 1351,-30"/>
<text text-anchor="start" x="1218" y="-18" font-family="Helvetica,sans-Serif" font-size="10.00">m_model::s_skip_ignored</text>
<text text-anchor="middle" x="1280.5" y="-7" font-family="Helvetica,sans-Serif" font-size="10.00">_lines</text>
</a>
</g>
</g>
<!-- Node1&#45;&gt;Node11 -->
<g id="edge11_Node000001_Node000011" class="edge">
<title>Node1&#45;&gt;Node11</title>
<g id="a_edge11_Node000001_Node000011"><a xlink:title=" ">
<path fill="none" stroke="#63b8ff" d="M1400.37,-45.88C1381.39,-40.95 1359.25,-35.2 1339.26,-30.01"/>
<polygon fill="#63b8ff" stroke="#63b8ff" points="1399.71,-49.33 1410.27,-48.46 1401.47,-42.55 1399.71,-49.33"/>
</a>
</g>
</g>
<!-- Node3 -->
<g id="Node000003" class="node">
<title>Node3</title>
<g id="a_Node000003"><a xlink:href="namespacem__model.html#a8df07f3e9d228d00fef27cae7484d81e" target="_top" xlink:title="Read a mesh from a file.">
<polygon fill="white" stroke="#666666" points="863,-83.5 728,-83.5 728,-64.5 863,-64.5 863,-83.5"/>
<text text-anchor="middle" x="795.5" y="-71.5" font-family="Helvetica,sans-Serif" font-size="10.00">m_model::f_model_read</text>
</a>
</g>
</g>
<!-- Node2&#45;&gt;Node3 -->
<g id="edge2_Node000002_Node000003" class="edge">
<title>Node2&#45;&gt;Node3</title>
<g id="a_edge2_Node000002_Node000003"><a xlink:title=" ">
<path fill="none" stroke="#63b8ff" d="M1042.61,-91.13C989.12,-87.41 915.84,-82.31 863.17,-78.64"/>
<polygon fill="#63b8ff" stroke="#63b8ff" points="1042.47,-94.63 1052.69,-91.84 1042.96,-87.65 1042.47,-94.63"/>
</a>
</g>
</g>
<!-- Node4 -->
<g id="Node000004" class="node">
<title>Node4</title>
<g id="a_Node000004"><a xlink:href="namespacem__model.html#ad9f8c664e4672afe1a2ea1d0f92accd9" target="_top" xlink:title="Load, transform, and register STL/OBJ immersed&#45;boundary models onto the simulation grid.">
<polygon fill="white" stroke="#666666" points="692,-89 561,-89 561,-59 692,-59 692,-89"/>
<text text-anchor="start" x="569" y="-77" font-family="Helvetica,sans-Serif" font-size="10.00">m_model::s_instantiate</text>
<text text-anchor="middle" x="626.5" y="-66" font-family="Helvetica,sans-Serif" font-size="10.00">_stl_models</text>
</a>
</g>
</g>
<!-- Node3&#45;&gt;Node4 -->
<g id="edge3_Node000003_Node000004" class="edge">
<title>Node3&#45;&gt;Node4</title>
<g id="a_edge3_Node000003_Node000004"><a xlink:title=" ">
<path fill="none" stroke="#63b8ff" d="M717.3,-74C708.85,-74 700.31,-74 692.03,-74"/>
<polygon fill="#63b8ff" stroke="#63b8ff" points="717.54,-77.5 727.54,-74 717.54,-70.5 717.54,-77.5"/>
</a>
</g>
</g>
<!-- Node5 -->
<g id="Node000005" class="node">
<title>Node5</title>
<g id="a_Node000005"><a xlink:href="namespacem__icpp__patches.html#a82d33950641130d1348d1d3a2eb72c3f" target="_top" xlink:title="Dispatch each initial condition patch to its geometry&#45;specific initialization routine.">
<polygon fill="white" stroke="#666666" points="525,-89 386,-89 386,-59 525,-59 525,-89"/>
<text text-anchor="start" x="394" y="-77" font-family="Helvetica,sans-Serif" font-size="10.00">m_icpp_patches::s_apply</text>
<text text-anchor="middle" x="455.5" y="-66" font-family="Helvetica,sans-Serif" font-size="10.00">_icpp_patches</text>
</a>
</g>
</g>
<!-- Node4&#45;&gt;Node5 -->
<g id="edge4_Node000004_Node000005" class="edge">
<title>Node4&#45;&gt;Node5</title>
<g id="a_edge4_Node000004_Node000005"><a xlink:title=" ">
<path fill="none" stroke="#63b8ff" d="M550.44,-74C542.01,-74 533.45,-74 525.11,-74"/>
<polygon fill="#63b8ff" stroke="#63b8ff" points="550.64,-77.5 560.64,-74 550.64,-70.5 550.64,-77.5"/>
</a>
</g>
</g>
<!-- Node6 -->
<g id="Node000006" class="node">
<title>Node6</title>
<g id="a_Node000006"><a xlink:href="namespacem__initial__condition.html#ae5ca036f43a2eebe1e2cc84fc9c61d28" target="_top" xlink:title="Iterate over patches and, depending on the geometry type, call the related subroutine to setup the sa...">
<polygon fill="white" stroke="#666666" points="350,-94.5 240,-94.5 240,-53.5 350,-53.5 350,-94.5"/>
<text text-anchor="start" x="248" y="-82.5" font-family="Helvetica,sans-Serif" font-size="10.00">m_initial_condition</text>
<text text-anchor="start" x="248" y="-71.5" font-family="Helvetica,sans-Serif" font-size="10.00">::s_generate_initial</text>
<text text-anchor="middle" x="295" y="-60.5" font-family="Helvetica,sans-Serif" font-size="10.00">_condition</text>
</a>
</g>
</g>
<!-- Node5&#45;&gt;Node6 -->
<g id="edge5_Node000005_Node000006" class="edge">
<title>Node5&#45;&gt;Node6</title>
<g id="a_edge5_Node000005_Node000006"><a xlink:title=" ">
<path fill="none" stroke="#63b8ff" d="M375.82,-74C367.22,-74 358.6,-74 350.38,-74"/>
<polygon fill="#63b8ff" stroke="#63b8ff" points="375.9,-77.5 385.9,-74 375.9,-70.5 375.9,-77.5"/>
</a>
</g>
</g>
<!-- Node7 -->
<g id="Node000007" class="node">
<title>Node7</title>
<g id="a_Node000007"><a xlink:href="namespacem__start__up.html#a513ef24d6c8beafb8b94c015db266100" target="_top" xlink:title="Generate or read the initial condition, apply relaxation if needed, and write output data files.">
<polygon fill="white" stroke="#666666" points="204,-89 89,-89 89,-59 204,-59 204,-89"/>
<text text-anchor="start" x="97" y="-77" font-family="Helvetica,sans-Serif" font-size="10.00">m_start_up::s_apply</text>
<text text-anchor="middle" x="146.5" y="-66" font-family="Helvetica,sans-Serif" font-size="10.00">_initial_condition</text>
</a>
</g>
</g>
<!-- Node6&#45;&gt;Node7 -->
<g id="edge6_Node000006_Node000007" class="edge">
<title>Node6&#45;&gt;Node7</title>
<g id="a_edge6_Node000006_Node000007"><a xlink:title=" ">
<path fill="none" stroke="#63b8ff" d="M229.69,-74C221.25,-74 212.66,-74 204.36,-74"/>
<polygon fill="#63b8ff" stroke="#63b8ff" points="229.87,-77.5 239.87,-74 229.87,-70.5 229.87,-77.5"/>
</a>
</g>
</g>
<!-- Node8 -->
<g id="Node000008" class="node">
<title>Node8</title>
<g id="a_Node000008"><a xlink:href="p__main_8f90.html#aeec10ee8e2940c953967da3e374e1579" target="_top" xlink:title="Set up the initial condition and grid data for the multicomponent flow code.">
<polygon fill="white" stroke="#666666" points="53,-83.5 0,-83.5 0,-64.5 53,-64.5 53,-83.5"/>
<text text-anchor="middle" x="26.5" y="-71.5" font-family="Helvetica,sans-Serif" font-size="10.00">p_main</text>
</a>
</g>
</g>
<!-- Node7&#45;&gt;Node8 -->
<g id="edge7_Node000007_Node000008" class="edge">
<title>Node7&#45;&gt;Node8</title>
<g id="a_edge7_Node000007_Node000008"><a xlink:title=" ">
<path fill="none" stroke="#63b8ff" d="M78.65,-74C69.6,-74 60.81,-74 53.13,-74"/>
<polygon fill="#63b8ff" stroke="#63b8ff" points="78.92,-77.5 88.92,-74 78.92,-70.5 78.92,-77.5"/>
</a>
</g>
</g>
<!-- Node10 -->
<g id="Node000010" class="node">
<title>Node10</title>
<g id="a_Node000010"><a xlink:href="namespacem__model.html#a6f7ded1a2960fcf521c5892b8b1b850b" target="_top" xlink:title="Read an STL file.">
<polygon fill="white" stroke="#666666" points="1017,-64.5 899,-64.5 899,-45.5 1017,-45.5 1017,-64.5"/>
<text text-anchor="middle" x="958" y="-52.5" font-family="Helvetica,sans-Serif" font-size="10.00">m_model::s_read_stl</text>
</a>
</g>
</g>
<!-- Node9&#45;&gt;Node10 -->
<g id="edge9_Node000009_Node000010" class="edge">
<title>Node9&#45;&gt;Node10</title>
<g id="a_edge9_Node000009_Node000010"><a xlink:title=" ">
<path fill="none" stroke="#63b8ff" d="M1044.32,-53.89C1035.24,-54.01 1026,-54.13 1017.11,-54.24"/>
<polygon fill="#63b8ff" stroke="#63b8ff" points="1044.51,-57.39 1054.47,-53.76 1044.42,-50.39 1044.51,-57.39"/>
</a>
</g>
</g>
<!-- Node10&#45;&gt;Node3 -->
<g id="edge10_Node000010_Node000003" class="edge">
<title>Node10&#45;&gt;Node3</title>
<g id="a_edge10_Node000010_Node000003"><a xlink:title=" ">
<path fill="none" stroke="#63b8ff" d="M888.44,-63.12C880.01,-64.11 871.41,-65.13 863.01,-66.13"/>
<polygon fill="#63b8ff" stroke="#63b8ff" points="889.08,-66.56 898.6,-61.91 888.26,-59.61 889.08,-66.56"/>
</a>
</g>
</g>
<!-- Node11&#45;&gt;Node9 -->
<g id="edge12_Node000011_Node000009" class="edge">
<title>Node11&#45;&gt;Node9</title>
<g id="a_edge12_Node000011_Node000009"><a xlink:title=" ">
<path fill="none" stroke="#63b8ff" d="M1204.51,-32.27C1193.78,-34.74 1182.89,-37.25 1172.55,-39.63"/>
<polygon fill="#63b8ff" stroke="#63b8ff" points="1205.33,-35.67 1214.29,-30.02 1203.76,-28.85 1205.33,-35.67"/>
</a>
</g>
</g>
</g>
</svg>
