<?xml version="1.0" encoding="UTF-8" standalone="no"?>
<!DOCTYPE svg PUBLIC "-//W3C//DTD SVG 1.1//EN"
 "http://www.w3.org/Graphics/SVG/1.1/DTD/svg11.dtd">
<!-- Generated by graphviz version 2.40.1 (20161225.0304)
 -->
<!-- Title: m_grid::s_initialize_grid_module Pages: 1 -->
<svg width="286pt" height="80pt"
 viewBox="0.00 0.00 286.00 80.00" xmlns="http://www.w3.org/2000/svg" xmlns:xlink="http://www.w3.org/1999/xlink">
<g id="graph0" class="graph" transform="scale(1 1) rotate(0) translate(4 76)">
<title>m_grid::s_initialize_grid_module</title>
<polygon fill="#ffffff" stroke="transparent" points="-4,4 -4,-76 282,-76 282,4 -4,4"/>
<!-- Node12 -->
<g id="node1" class="node">
<title>Node12</title>
<polygon fill="#bfbfbf" stroke="#000000" points="0,-22.5 0,-48.5 66,-48.5 66,-22.5 0,-22.5"/>
<text text-anchor="start" x="8" y="-38.1" font-family="Helvetica,sans-Serif" font-size="8.00" fill="#000000">m_grid::s_initialize</text>
<text text-anchor="middle" x="33" y="-29.1" font-family="Helvetica,sans-Serif" font-size="8.00" fill="#000000">_grid_module</text>
</g>
<!-- Node13 -->
<g id="node2" class="node">
<title>Node13</title>
<g id="a_node2"><a xlink:href="namespacem__grid.html#a7c0d1c6fcecd2759774be2b3786a6b50" target="_top" xlink:title="The following subroutine generates either a uniform or non&#45;uniform rectilinear grid in serial...">
<polygon fill="#ffffff" stroke="#000000" points="102,-45.5 102,-71.5 170,-71.5 170,-45.5 102,-45.5"/>
<text text-anchor="start" x="110" y="-61.1" font-family="Helvetica,sans-Serif" font-size="8.00" fill="#000000">m_grid::s_generate</text>
<text text-anchor="middle" x="136" y="-52.1" font-family="Helvetica,sans-Serif" font-size="8.00" fill="#000000">_serial_grid</text>
</a>
</g>
</g>
<!-- Node12&#45;&gt;Node13 -->
<g id="edge1" class="edge">
<title>Node12&#45;&gt;Node13</title>
<path fill="none" stroke="#191970" d="M66.1568,-42.9039C74.357,-44.7351 83.2709,-46.7255 91.9015,-48.6528"/>
<polygon fill="#191970" stroke="#191970" points="91.3209,-52.1092 101.8433,-50.8728 92.8465,-45.2775 91.3209,-52.1092"/>
</g>
<!-- Node15 -->
<g id="node4" class="node">
<title>Node15</title>
<g id="a_node4"><a xlink:href="namespacem__grid.html#abcc7c446abd0c768e42b2a2f7323a2d7" target="_top" xlink:title="The following subroutine generates either a uniform or non&#45;uniform rectilinear grid in parallel...">
<polygon fill="#ffffff" stroke="#000000" points="102,-.5 102,-26.5 170,-26.5 170,-.5 102,-.5"/>
<text text-anchor="start" x="110" y="-16.1" font-family="Helvetica,sans-Serif" font-size="8.00" fill="#000000">m_grid::s_generate</text>
<text text-anchor="middle" x="136" y="-7.1" font-family="Helvetica,sans-Serif" font-size="8.00" fill="#000000">_parallel_grid</text>
</a>
</g>
</g>
<!-- Node12&#45;&gt;Node15 -->
<g id="edge3" class="edge">
<title>Node12&#45;&gt;Node15</title>
<path fill="none" stroke="#191970" d="M66.1568,-28.418C74.357,-26.6665 83.2709,-24.7625 91.9015,-22.9191"/>
<polygon fill="#191970" stroke="#191970" points="92.795,-26.3073 101.8433,-20.7956 91.3328,-19.4617 92.795,-26.3073"/>
</g>
<!-- Node14 -->
<g id="node3" class="node">
<title>Node14</title>
<g id="a_node3"><a xlink:href="namespacem__mpi__proxy.html#ad02d11c9b94b9354f7d8234937bb27a2" target="_top" xlink:title="The following subroutine takes the inputted variable and determines its minimum value on the entire c...">
<polygon fill="#ffffff" stroke="#000000" points="206,-45.5 206,-71.5 278,-71.5 278,-45.5 206,-45.5"/>
<text text-anchor="start" x="214" y="-61.1" font-family="Helvetica,sans-Serif" font-size="8.00" fill="#000000">m_mpi_proxy::s_mpi</text>
<text text-anchor="middle" x="242" y="-52.1" font-family="Helvetica,sans-Serif" font-size="8.00" fill="#000000">_reduce_min</text>
</a>
</g>
</g>
<!-- Node13&#45;&gt;Node14 -->
<g id="edge2" class="edge">
<title>Node13&#45;&gt;Node14</title>
<path fill="none" stroke="#191970" d="M170.1225,-58.5C178.2117,-58.5 186.9756,-58.5 195.5109,-58.5"/>
<polygon fill="#191970" stroke="#191970" points="195.7479,-62.0001 205.7478,-58.5 195.7478,-55.0001 195.7479,-62.0001"/>
</g>
</g>
</svg>
