<?xml version="1.0" encoding="UTF-8" standalone="no"?>
<!DOCTYPE svg PUBLIC "-//W3C//DTD SVG 1.1//EN"
 "http://www.w3.org/Graphics/SVG/1.1/DTD/svg11.dtd">
<!-- Generated by graphviz version 2.43.0 (0)
 -->
<!-- Title: m_helper::s_int_to_str Pages: 1 -->
<svg width="879pt" height="1427pt"
 viewBox="0.00 0.00 879.00 1427.32" xmlns="http://www.w3.org/2000/svg" xmlns:xlink="http://www.w3.org/1999/xlink">
<g id="graph0" class="graph" transform="scale(1 1) rotate(0) translate(4 1423.32)">
<title>m_helper::s_int_to_str</title>
<!-- Node1 -->
<g id="Node000001" class="node">
<title>Node1</title>
<g id="a_Node000001"><a xlink:title=" ">
<polygon fill="#999999" stroke="#666666" points="871,-720.32 746,-720.32 746,-701.32 871,-701.32 871,-720.32"/>
<text text-anchor="middle" x="808.5" y="-708.32" font-family="Helvetica,sans-Serif" font-size="10.00">m_helper::s_int_to_str</text>
</a>
</g>
</g>
<!-- Node2 -->
<g id="Node000002" class="node">
<title>Node2</title>
<g id="a_Node000002"><a xlink:href="namespacem__check__patches.html#a4d14e04de7d9344029130ab09571fdb9" target="_top" xlink:title="This subroutine verifies that the geometric parameters of the analytical patch have consistently been...">
<polygon fill="white" stroke="#666666" points="694.5,-1419.32 573.5,-1419.32 573.5,-1378.32 694.5,-1378.32 694.5,-1419.32"/>
<text text-anchor="start" x="581.5" y="-1407.32" font-family="Helvetica,sans-Serif" font-size="10.00">m_check_patches::s</text>
<text text-anchor="start" x="581.5" y="-1396.32" font-family="Helvetica,sans-Serif" font-size="10.00">_check_1d_analytical</text>
<text text-anchor="middle" x="634" y="-1385.32" font-family="Helvetica,sans-Serif" font-size="10.00">_patch_geometry</text>
</a>
</g>
</g>
<!-- Node1&#45;&gt;Node2 -->
<g id="edge1_Node000001_Node000002" class="edge">
<title>Node1&#45;&gt;Node2</title>
<g id="a_edge1_Node000001_Node000002"><a xlink:title=" ">
<path fill="none" stroke="#63b8ff" d="M807.01,-730.65C804.22,-828.55 787.66,-1259.77 710,-1363.82 705.79,-1369.46 700.44,-1374.22 694.55,-1378.24"/>
<polygon fill="#63b8ff" stroke="#63b8ff" points="810.51,-730.72 807.28,-720.63 803.51,-730.53 810.51,-730.72"/>
</a>
</g>
</g>
<!-- Node3 -->
<g id="Node000003" class="node">
<title>Node3</title>
<g id="a_Node000003"><a xlink:href="namespacem__check__patches.html#a1c50b481760b96ce4496118759dc67f5" target="_top" xlink:title=" ">
<polygon fill="white" stroke="#666666" points="522,-725.82 407,-725.82 407,-695.82 522,-695.82 522,-725.82"/>
<text text-anchor="start" x="415" y="-713.82" font-family="Helvetica,sans-Serif" font-size="10.00">m_check_patches::s</text>
<text text-anchor="middle" x="464.5" y="-702.82" font-family="Helvetica,sans-Serif" font-size="10.00">_check_patches</text>
</a>
</g>
</g>
<!-- Node1&#45;&gt;Node3 -->
<g id="edge40_Node000001_Node000003" class="edge">
<title>Node1&#45;&gt;Node3</title>
<g id="a_edge40_Node000001_Node000003"><a xlink:title=" ">
<path fill="none" stroke="#63b8ff" d="M807.65,-730.68C807.93,-827.74 803.71,-1250.69 710,-1330.82 658.65,-1374.72 609.17,-1374.92 558,-1330.82 463.09,-1249.02 464.08,-812.82 465.24,-725.89"/>
<polygon fill="#63b8ff" stroke="#63b8ff" points="811.15,-730.49 807.6,-720.5 804.15,-730.52 811.15,-730.49"/>
</a>
</g>
</g>
<!-- Node7 -->
<g id="Node000007" class="node">
<title>Node7</title>
<g id="a_Node000007"><a xlink:href="namespacem__check__patches.html#a41e469c1773e6b92e16b2e3b3558c0ed" target="_top" xlink:title="This subroutine verifies that the geometric parameters of the analytical patch have consistently been...">
<polygon fill="white" stroke="#666666" points="694.5,-1321.32 573.5,-1321.32 573.5,-1280.32 694.5,-1280.32 694.5,-1321.32"/>
<text text-anchor="start" x="581.5" y="-1309.32" font-family="Helvetica,sans-Serif" font-size="10.00">m_check_patches::s</text>
<text text-anchor="start" x="581.5" y="-1298.32" font-family="Helvetica,sans-Serif" font-size="10.00">_check_2d_analytical</text>
<text text-anchor="middle" x="634" y="-1287.32" font-family="Helvetica,sans-Serif" font-size="10.00">_patch_geometry</text>
</a>
</g>
</g>
<!-- Node1&#45;&gt;Node7 -->
<g id="edge6_Node000001_Node000007" class="edge">
<title>Node1&#45;&gt;Node7</title>
<g id="a_edge6_Node000001_Node000007"><a xlink:title=" ">
<path fill="none" stroke="#63b8ff" d="M806.61,-730.7C802.24,-820.33 780.27,-1186.14 710,-1271.82 705.75,-1277 700.46,-1281.26 694.66,-1284.75"/>
<polygon fill="#63b8ff" stroke="#63b8ff" points="810.12,-730.71 807.09,-720.55 803.12,-730.38 810.12,-730.71"/>
</a>
</g>
</g>
<!-- Node8 -->
<g id="Node000008" class="node">
<title>Node8</title>
<g id="a_Node000008"><a xlink:href="namespacem__check__patches.html#a5d383a1b6d22d83b4d85e0efaa0de52a" target="_top" xlink:title="This subroutine verifies that the geometric parameters of the Taylor Green vortex patch have been ent...">
<polygon fill="white" stroke="#666666" points="703,-1262.32 565,-1262.32 565,-1221.32 703,-1221.32 703,-1262.32"/>
<text text-anchor="start" x="573" y="-1250.32" font-family="Helvetica,sans-Serif" font-size="10.00">m_check_patches::s</text>
<text text-anchor="start" x="573" y="-1239.32" font-family="Helvetica,sans-Serif" font-size="10.00">_check_2d_taylorgreen</text>
<text text-anchor="middle" x="634" y="-1228.32" font-family="Helvetica,sans-Serif" font-size="10.00">_vortex_patch_geometry</text>
</a>
</g>
</g>
<!-- Node1&#45;&gt;Node8 -->
<g id="edge8_Node000001_Node000008" class="edge">
<title>Node1&#45;&gt;Node8</title>
<g id="a_edge8_Node000001_Node000008"><a xlink:title=" ">
<path fill="none" stroke="#63b8ff" d="M806.19,-730.43C800.25,-813.68 773.4,-1137.06 710,-1212.82 707.4,-1215.92 704.43,-1218.69 701.2,-1221.17"/>
<polygon fill="#63b8ff" stroke="#63b8ff" points="809.69,-730.54 806.89,-720.32 802.7,-730.06 809.69,-730.54"/>
</a>
</g>
</g>
<!-- Node9 -->
<g id="Node000009" class="node">
<title>Node9</title>
<g id="a_Node000009"><a xlink:href="namespacem__check__patches.html#a5643fb88910457783efdc7be07c2096c" target="_top" xlink:title="This subroutine verifies that the geometric parameters of the analytical patch have consistently been...">
<polygon fill="white" stroke="#666666" points="694.5,-1203.32 573.5,-1203.32 573.5,-1162.32 694.5,-1162.32 694.5,-1203.32"/>
<text text-anchor="start" x="581.5" y="-1191.32" font-family="Helvetica,sans-Serif" font-size="10.00">m_check_patches::s</text>
<text text-anchor="start" x="581.5" y="-1180.32" font-family="Helvetica,sans-Serif" font-size="10.00">_check_3d_analytical</text>
<text text-anchor="middle" x="634" y="-1169.32" font-family="Helvetica,sans-Serif" font-size="10.00">_patch_geometry</text>
</a>
</g>
</g>
<!-- Node1&#45;&gt;Node9 -->
<g id="edge10_Node000001_Node000009" class="edge">
<title>Node1&#45;&gt;Node9</title>
<g id="a_edge10_Node000001_Node000009"><a xlink:title=" ">
<path fill="none" stroke="#63b8ff" d="M805.58,-731.03C797.79,-808.87 766.34,-1088.16 710,-1153.82 705.73,-1158.8 700.49,-1162.92 694.8,-1166.35"/>
<polygon fill="#63b8ff" stroke="#63b8ff" points="809.1,-730.98 806.59,-720.69 802.13,-730.3 809.1,-730.98"/>
</a>
</g>
</g>
<!-- Node10 -->
<g id="Node000010" class="node">
<title>Node10</title>
<g id="a_Node000010"><a xlink:href="namespacem__check__patches.html#ac652a2c373fea30afb587a3a8f28e4c9" target="_top" xlink:title="This subroutine verifies that any rights granted to the given active patch, to overwrite the precedin...">
<polygon fill="white" stroke="#666666" points="693,-1144.32 575,-1144.32 575,-1103.32 693,-1103.32 693,-1144.32"/>
<text text-anchor="start" x="583" y="-1132.32" font-family="Helvetica,sans-Serif" font-size="10.00">m_check_patches::s</text>
<text text-anchor="start" x="583" y="-1121.32" font-family="Helvetica,sans-Serif" font-size="10.00">_check_active_patch</text>
<text text-anchor="middle" x="634" y="-1110.32" font-family="Helvetica,sans-Serif" font-size="10.00">_alteration_rights</text>
</a>
</g>
</g>
<!-- Node1&#45;&gt;Node10 -->
<g id="edge12_Node000001_Node000010" class="edge">
<title>Node1&#45;&gt;Node10</title>
<g id="a_edge12_Node000001_Node000010"><a xlink:title=" ">
<path fill="none" stroke="#63b8ff" d="M804.9,-730.56C795.27,-801.02 759.59,-1038.87 710,-1094.82 705.28,-1100.14 699.46,-1104.5 693.17,-1108.06"/>
<polygon fill="#63b8ff" stroke="#63b8ff" points="808.4,-730.79 806.27,-720.41 801.46,-729.85 808.4,-730.79"/>
</a>
</g>
</g>
<!-- Node11 -->
<g id="Node000011" class="node">
<title>Node11</title>
<g id="a_Node000011"><a xlink:href="namespacem__check__patches.html#a7286a74b75fa2f5e046638056a85665e" target="_top" xlink:title="This subroutine verifies that the primitive variables associated with the given active patch are phys...">
<polygon fill="white" stroke="#666666" points="693,-1085.32 575,-1085.32 575,-1044.32 693,-1044.32 693,-1085.32"/>
<text text-anchor="start" x="583" y="-1073.32" font-family="Helvetica,sans-Serif" font-size="10.00">m_check_patches::s</text>
<text text-anchor="start" x="583" y="-1062.32" font-family="Helvetica,sans-Serif" font-size="10.00">_check_active_patch</text>
<text text-anchor="middle" x="634" y="-1051.32" font-family="Helvetica,sans-Serif" font-size="10.00">_primitive_variables</text>
</a>
</g>
</g>
<!-- Node1&#45;&gt;Node11 -->
<g id="edge14_Node000001_Node000011" class="edge">
<title>Node1&#45;&gt;Node11</title>
<g id="a_edge14_Node000001_Node000011"><a xlink:title=" ">
<path fill="none" stroke="#63b8ff" d="M807.3,-730.79C805.65,-786.54 793.48,-945.6 710,-1035.82 705.26,-1040.94 699.51,-1045.17 693.33,-1048.66"/>
<polygon fill="#63b8ff" stroke="#63b8ff" points="810.8,-730.6 807.51,-720.53 803.8,-730.45 810.8,-730.6"/>
</a>
</g>
</g>
<!-- Node12 -->
<g id="Node000012" class="node">
<title>Node12</title>
<g id="a_Node000012"><a xlink:href="namespacem__check__patches.html#aad20d0b0a41ec17a6c03afc700efa25a" target="_top" xlink:title="This subroutine verifies that the geometric parameters of the circle patch have consistently been inp...">
<polygon fill="white" stroke="#666666" points="691.5,-1026.32 576.5,-1026.32 576.5,-985.32 691.5,-985.32 691.5,-1026.32"/>
<text text-anchor="start" x="584.5" y="-1014.32" font-family="Helvetica,sans-Serif" font-size="10.00">m_check_patches::s</text>
<text text-anchor="start" x="584.5" y="-1003.32" font-family="Helvetica,sans-Serif" font-size="10.00">_check_circle_patch</text>
<text text-anchor="middle" x="634" y="-992.32" font-family="Helvetica,sans-Serif" font-size="10.00">_geometry</text>
</a>
</g>
</g>
<!-- Node1&#45;&gt;Node12 -->
<g id="edge16_Node000001_Node000012" class="edge">
<title>Node1&#45;&gt;Node12</title>
<g id="a_edge16_Node000001_Node000012"><a xlink:title=" ">
<path fill="none" stroke="#63b8ff" d="M805.74,-730.66C800.42,-779.23 780.21,-905.36 710,-976.82 704.72,-982.19 698.33,-986.59 691.53,-990.19"/>
<polygon fill="#63b8ff" stroke="#63b8ff" points="809.24,-730.84 806.76,-720.54 802.28,-730.14 809.24,-730.84"/>
</a>
</g>
</g>
<!-- Node13 -->
<g id="Node000013" class="node">
<title>Node13</title>
<g id="a_Node000013"><a xlink:href="namespacem__check__patches.html#aea0d7e10470a4ecaa08df5ff79fe2485" target="_top" xlink:title="This subroutine verifies that the geometric parameters of the cuboid patch have consistently been inp...">
<polygon fill="white" stroke="#666666" points="694,-967.32 574,-967.32 574,-926.32 694,-926.32 694,-967.32"/>
<text text-anchor="start" x="582" y="-955.32" font-family="Helvetica,sans-Serif" font-size="10.00">m_check_patches::s</text>
<text text-anchor="start" x="582" y="-944.32" font-family="Helvetica,sans-Serif" font-size="10.00">_check_cuboid_patch</text>
<text text-anchor="middle" x="634" y="-933.32" font-family="Helvetica,sans-Serif" font-size="10.00">_geometry</text>
</a>
</g>
</g>
<!-- Node1&#45;&gt;Node13 -->
<g id="edge18_Node000001_Node000013" class="edge">
<title>Node1&#45;&gt;Node13</title>
<g id="a_edge18_Node000001_Node000013"><a xlink:title=" ">
<path fill="none" stroke="#63b8ff" d="M803.41,-730.53C794.01,-771.11 767.13,-864.62 710,-917.82 705.3,-922.19 699.87,-925.93 694.12,-929.12"/>
<polygon fill="#63b8ff" stroke="#63b8ff" points="806.87,-731.09 805.61,-720.57 800.03,-729.58 806.87,-731.09"/>
</a>
</g>
</g>
<!-- Node14 -->
<g id="Node000014" class="node">
<title>Node14</title>
<g id="a_Node000014"><a xlink:href="namespacem__check__patches.html#a66adadaa54ebba56992b9bb9ed7cb490" target="_top" xlink:title="This subroutine verifies that the geometric parameters of the cylinder patch have consistently been i...">
<polygon fill="white" stroke="#666666" points="697.5,-908.32 570.5,-908.32 570.5,-867.32 697.5,-867.32 697.5,-908.32"/>
<text text-anchor="start" x="578.5" y="-896.32" font-family="Helvetica,sans-Serif" font-size="10.00">m_check_patches::s</text>
<text text-anchor="start" x="578.5" y="-885.32" font-family="Helvetica,sans-Serif" font-size="10.00">_check_cylinder_patch</text>
<text text-anchor="middle" x="634" y="-874.32" font-family="Helvetica,sans-Serif" font-size="10.00">_geometry</text>
</a>
</g>
</g>
<!-- Node1&#45;&gt;Node14 -->
<g id="edge20_Node000001_Node000014" class="edge">
<title>Node1&#45;&gt;Node14</title>
<g id="a_edge20_Node000001_Node000014"><a xlink:title=" ">
<path fill="none" stroke="#63b8ff" d="M799.6,-729.92C785.83,-761.06 754.54,-822.9 710,-858.82 706.2,-861.88 702.03,-864.65 697.67,-867.15"/>
<polygon fill="#63b8ff" stroke="#63b8ff" points="802.87,-731.18 803.6,-720.61 796.44,-728.42 802.87,-731.18"/>
</a>
</g>
</g>
<!-- Node15 -->
<g id="Node000015" class="node">
<title>Node15</title>
<g id="a_Node000015"><a xlink:href="namespacem__check__patches.html#ac701bfedde9f28ce1c4aafba47c0b7c9" target="_top" xlink:title="This subroutine verifies that the geometric parameters of the ellipse patch have consistently been in...">
<polygon fill="white" stroke="#666666" points="694,-849.32 574,-849.32 574,-808.32 694,-808.32 694,-849.32"/>
<text text-anchor="start" x="582" y="-837.32" font-family="Helvetica,sans-Serif" font-size="10.00">m_check_patches::s</text>
<text text-anchor="start" x="582" y="-826.32" font-family="Helvetica,sans-Serif" font-size="10.00">_check_ellipse_patch</text>
<text text-anchor="middle" x="634" y="-815.32" font-family="Helvetica,sans-Serif" font-size="10.00">_geometry</text>
</a>
</g>
</g>
<!-- Node1&#45;&gt;Node15 -->
<g id="edge22_Node000001_Node000015" class="edge">
<title>Node1&#45;&gt;Node15</title>
<g id="a_edge22_Node000001_Node000015"><a xlink:title=" ">
<path fill="none" stroke="#63b8ff" d="M792.46,-727.95C774.5,-747.55 742.74,-779.55 710,-799.82 705.01,-802.9 699.65,-805.76 694.16,-808.37"/>
<polygon fill="#63b8ff" stroke="#63b8ff" points="795.19,-730.15 799.28,-720.38 789.99,-725.47 795.19,-730.15"/>
</a>
</g>
</g>
<!-- Node16 -->
<g id="Node000016" class="node">
<title>Node16</title>
<g id="a_Node000016"><a xlink:href="namespacem__check__patches.html#abd8a1330518492f664a786646fcba9f9" target="_top" xlink:title="This subroutine verifies that the geometric parameters of the ellipsoid patch have consistently been ...">
<polygon fill="white" stroke="#666666" points="698.5,-790.32 569.5,-790.32 569.5,-749.32 698.5,-749.32 698.5,-790.32"/>
<text text-anchor="start" x="577.5" y="-778.32" font-family="Helvetica,sans-Serif" font-size="10.00">m_check_patches::s</text>
<text text-anchor="start" x="577.5" y="-767.32" font-family="Helvetica,sans-Serif" font-size="10.00">_check_ellipsoid_patch</text>
<text text-anchor="middle" x="634" y="-756.32" font-family="Helvetica,sans-Serif" font-size="10.00">_geometry</text>
</a>
</g>
</g>
<!-- Node1&#45;&gt;Node16 -->
<g id="edge24_Node000001_Node000016" class="edge">
<title>Node1&#45;&gt;Node16</title>
<g id="a_edge24_Node000001_Node000016"><a xlink:title=" ">
<path fill="none" stroke="#63b8ff" d="M769.85,-723.69C748.04,-731.15 720.08,-740.72 695.28,-749.2"/>
<polygon fill="#63b8ff" stroke="#63b8ff" points="771.07,-726.98 779.4,-720.43 768.81,-720.35 771.07,-726.98"/>
</a>
</g>
</g>
<!-- Node17 -->
<g id="Node000017" class="node">
<title>Node17</title>
<g id="a_Node000017"><a xlink:href="namespacem__check__patches.html#a2690167f0b25ca2a4475875740a1a99c" target="_top" xlink:title="This subroutine verifies that the rights of the given inactive patch, to overwrite the preceding patc...">
<polygon fill="white" stroke="#666666" points="697.5,-731.32 570.5,-731.32 570.5,-690.32 697.5,-690.32 697.5,-731.32"/>
<text text-anchor="start" x="578.5" y="-719.32" font-family="Helvetica,sans-Serif" font-size="10.00">m_check_patches::s</text>
<text text-anchor="start" x="578.5" y="-708.32" font-family="Helvetica,sans-Serif" font-size="10.00">_check_inactive_patch</text>
<text text-anchor="middle" x="634" y="-697.32" font-family="Helvetica,sans-Serif" font-size="10.00">_alteration_rights</text>
</a>
</g>
</g>
<!-- Node1&#45;&gt;Node17 -->
<g id="edge26_Node000001_Node000017" class="edge">
<title>Node1&#45;&gt;Node17</title>
<g id="a_edge26_Node000001_Node000017"><a xlink:title=" ">
<path fill="none" stroke="#63b8ff" d="M735.67,-710.82C723,-710.82 709.9,-710.82 697.52,-710.82"/>
<polygon fill="#63b8ff" stroke="#63b8ff" points="735.71,-714.32 745.71,-710.82 735.71,-707.32 735.71,-714.32"/>
</a>
</g>
</g>
<!-- Node18 -->
<g id="Node000018" class="node">
<title>Node18</title>
<g id="a_Node000018"><a xlink:href="namespacem__check__patches.html#aa2e133b2f325b7a3597149ec08e7dccc" target="_top" xlink:title=" ">
<polygon fill="white" stroke="#666666" points="697.5,-672.32 570.5,-672.32 570.5,-631.32 697.5,-631.32 697.5,-672.32"/>
<text text-anchor="start" x="578.5" y="-660.32" font-family="Helvetica,sans-Serif" font-size="10.00">m_check_patches::s</text>
<text text-anchor="start" x="578.5" y="-649.32" font-family="Helvetica,sans-Serif" font-size="10.00">_check_inactive_patch</text>
<text text-anchor="middle" x="634" y="-638.32" font-family="Helvetica,sans-Serif" font-size="10.00">_geometry</text>
</a>
</g>
</g>
<!-- Node1&#45;&gt;Node18 -->
<g id="edge28_Node000001_Node000018" class="edge">
<title>Node1&#45;&gt;Node18</title>
<g id="a_edge28_Node000001_Node000018"><a xlink:title=" ">
<path fill="none" stroke="#63b8ff" d="M769.85,-697.94C748.04,-690.48 720.08,-680.92 695.28,-672.43"/>
<polygon fill="#63b8ff" stroke="#63b8ff" points="768.81,-701.28 779.4,-701.21 771.07,-694.66 768.81,-701.28"/>
</a>
</g>
</g>
<!-- Node19 -->
<g id="Node000019" class="node">
<title>Node19</title>
<g id="a_Node000019"><a xlink:href="namespacem__check__patches.html#a67a788934dbcdcd139962e5b453bf622" target="_top" xlink:title="This subroutine verifies that the primitive variables associated with the given inactive patch remain...">
<polygon fill="white" stroke="#666666" points="697.5,-613.32 570.5,-613.32 570.5,-572.32 697.5,-572.32 697.5,-613.32"/>
<text text-anchor="start" x="578.5" y="-601.32" font-family="Helvetica,sans-Serif" font-size="10.00">m_check_patches::s</text>
<text text-anchor="start" x="578.5" y="-590.32" font-family="Helvetica,sans-Serif" font-size="10.00">_check_inactive_patch</text>
<text text-anchor="middle" x="634" y="-579.32" font-family="Helvetica,sans-Serif" font-size="10.00">_primitive_variables</text>
</a>
</g>
</g>
<!-- Node1&#45;&gt;Node19 -->
<g id="edge30_Node000001_Node000019" class="edge">
<title>Node1&#45;&gt;Node19</title>
<g id="a_edge30_Node000001_Node000019"><a xlink:title=" ">
<path fill="none" stroke="#63b8ff" d="M792.1,-693.65C774.01,-674.32 742.34,-642.97 710,-622.82 704.53,-619.4 698.6,-616.25 692.55,-613.37"/>
<polygon fill="#63b8ff" stroke="#63b8ff" points="789.64,-696.14 798.98,-701.13 794.79,-691.4 789.64,-696.14"/>
</a>
</g>
</g>
<!-- Node20 -->
<g id="Node000020" class="node">
<title>Node20</title>
<g id="a_Node000020"><a xlink:href="namespacem__checker.html#af3af1277501908ef5a97721ebf04061f" target="_top" xlink:title=" ">
<polygon fill="white" stroke="#666666" points="521.5,-352.82 407.5,-352.82 407.5,-322.82 521.5,-322.82 521.5,-352.82"/>
<text text-anchor="start" x="415.5" y="-340.82" font-family="Helvetica,sans-Serif" font-size="10.00">m_checker::s_check</text>
<text text-anchor="middle" x="464.5" y="-329.82" font-family="Helvetica,sans-Serif" font-size="10.00">_inputs</text>
</a>
</g>
</g>
<!-- Node1&#45;&gt;Node20 -->
<g id="edge32_Node000001_Node000020" class="edge">
<title>Node1&#45;&gt;Node20</title>
<g id="a_edge32_Node000001_Node000020"><a xlink:title=" ">
<path fill="none" stroke="#63b8ff" d="M807.94,-691.05C809.79,-588.72 812.47,-120.62 710,-31.82 658.95,12.43 612.24,8.45 558,-31.82 509.21,-68.04 476.2,-266.23 467.68,-322.76"/>
<polygon fill="#63b8ff" stroke="#63b8ff" points="804.44,-691.14 807.74,-701.2 811.44,-691.28 804.44,-691.14"/>
</a>
</g>
</g>
<!-- Node21 -->
<g id="Node000021" class="node">
<title>Node21</title>
<g id="a_Node000021"><a xlink:href="namespacem__check__patches.html#ad07ba3c6ec28f098d2301cb5c4fab3fa" target="_top" xlink:title="This subroutine verifies that the geometric parameters of the isentropic vortex patch have been enter...">
<polygon fill="white" stroke="#666666" points="704,-554.32 564,-554.32 564,-513.32 704,-513.32 704,-554.32"/>
<text text-anchor="start" x="572" y="-542.32" font-family="Helvetica,sans-Serif" font-size="10.00">m_check_patches::s</text>
<text text-anchor="start" x="572" y="-531.32" font-family="Helvetica,sans-Serif" font-size="10.00">_check_isentropic_vortex</text>
<text text-anchor="middle" x="634" y="-520.32" font-family="Helvetica,sans-Serif" font-size="10.00">_patch_geometry</text>
</a>
</g>
</g>
<!-- Node1&#45;&gt;Node21 -->
<g id="edge34_Node000001_Node000021" class="edge">
<title>Node1&#45;&gt;Node21</title>
<g id="a_edge34_Node000001_Node000021"><a xlink:title=" ">
<path fill="none" stroke="#63b8ff" d="M799.52,-691.9C785.63,-661.06 754.18,-599.75 710,-563.82 705.76,-560.37 701.07,-557.27 696.16,-554.5"/>
<polygon fill="#63b8ff" stroke="#63b8ff" points="796.34,-693.36 803.56,-701.12 802.75,-690.55 796.34,-693.36"/>
</a>
</g>
</g>
<!-- Node22 -->
<g id="Node000022" class="node">
<title>Node22</title>
<g id="a_Node000022"><a xlink:href="namespacem__check__patches.html#a5b142fb0ce186f97c22e5a10a36a3bb8" target="_top" xlink:title="This subroutine verifies that the geometric parameters of the line segment patch have consistently be...">
<polygon fill="white" stroke="#666666" points="695,-495.32 573,-495.32 573,-454.32 695,-454.32 695,-495.32"/>
<text text-anchor="start" x="581" y="-483.32" font-family="Helvetica,sans-Serif" font-size="10.00">m_check_patches::s</text>
<text text-anchor="start" x="581" y="-472.32" font-family="Helvetica,sans-Serif" font-size="10.00">_check_line_segment</text>
<text text-anchor="middle" x="634" y="-461.32" font-family="Helvetica,sans-Serif" font-size="10.00">_patch_geometry</text>
</a>
</g>
</g>
<!-- Node1&#45;&gt;Node22 -->
<g id="edge36_Node000001_Node000022" class="edge">
<title>Node1&#45;&gt;Node22</title>
<g id="a_edge36_Node000001_Node000022"><a xlink:title=" ">
<path fill="none" stroke="#63b8ff" d="M803.33,-691.25C793.78,-650.97 766.65,-558.08 710,-504.82 705.61,-500.69 700.57,-497.1 695.24,-493.98"/>
<polygon fill="#63b8ff" stroke="#63b8ff" points="799.95,-692.16 805.57,-701.14 806.78,-690.62 799.95,-692.16"/>
</a>
</g>
</g>
<!-- Node23 -->
<g id="Node000023" class="node">
<title>Node23</title>
<g id="a_Node000023"><a xlink:href="namespacem__check__patches.html#a7bae026c1e443c8247a8ad74a849063b" target="_top" xlink:title="This subroutine verifies that the geometric parameters of the line sweep patch have consistently been...">
<polygon fill="white" stroke="#666666" points="705.5,-436.32 562.5,-436.32 562.5,-395.32 705.5,-395.32 705.5,-436.32"/>
<text text-anchor="start" x="570.5" y="-424.32" font-family="Helvetica,sans-Serif" font-size="10.00">m_check_patches::s</text>
<text text-anchor="start" x="570.5" y="-413.32" font-family="Helvetica,sans-Serif" font-size="10.00">_check_line_sweep_patch</text>
<text text-anchor="middle" x="634" y="-402.32" font-family="Helvetica,sans-Serif" font-size="10.00">_geometry</text>
</a>
</g>
</g>
<!-- Node1&#45;&gt;Node23 -->
<g id="edge38_Node000001_Node000023" class="edge">
<title>Node1&#45;&gt;Node23</title>
<g id="a_edge38_Node000001_Node000023"><a xlink:title=" ">
<path fill="none" stroke="#63b8ff" d="M805.67,-691.1C800.17,-642.82 779.61,-517.4 710,-445.82 706.58,-442.3 702.69,-439.18 698.53,-436.42"/>
<polygon fill="#63b8ff" stroke="#63b8ff" points="802.2,-691.57 806.72,-701.16 809.16,-690.85 802.2,-691.57"/>
</a>
</g>
</g>
<!-- Node24 -->
<g id="Node000024" class="node">
<title>Node24</title>
<g id="a_Node000024"><a xlink:href="namespacem__check__patches.html#a9bb2f96dfcb0168c5a5e51cb7b5dc906" target="_top" xlink:title="This subroutine verifies that the geometric parameters of the plane sweep patch have consistently bee...">
<polygon fill="white" stroke="#666666" points="710,-377.32 558,-377.32 558,-336.32 710,-336.32 710,-377.32"/>
<text text-anchor="start" x="566" y="-365.32" font-family="Helvetica,sans-Serif" font-size="10.00">m_check_patches::s</text>
<text text-anchor="start" x="566" y="-354.32" font-family="Helvetica,sans-Serif" font-size="10.00">_check_plane_sweep_patch</text>
<text text-anchor="middle" x="634" y="-343.32" font-family="Helvetica,sans-Serif" font-size="10.00">_geometry</text>
</a>
</g>
</g>
<!-- Node1&#45;&gt;Node24 -->
<g id="edge41_Node000001_Node000024" class="edge">
<title>Node1&#45;&gt;Node24</title>
<g id="a_edge41_Node000001_Node000024"><a xlink:title=" ">
<path fill="none" stroke="#63b8ff" d="M807.22,-690.95C805.38,-635.5 792.76,-477.22 710,-386.82 706.78,-383.3 703.09,-380.19 699.12,-377.44"/>
<polygon fill="#63b8ff" stroke="#63b8ff" points="803.73,-691.25 807.47,-701.16 810.73,-691.08 803.73,-691.25"/>
</a>
</g>
</g>
<!-- Node25 -->
<g id="Node000025" class="node">
<title>Node25</title>
<g id="a_Node000025"><a xlink:href="namespacem__check__patches.html#ac34be0830489fb414bc93ecbb25c0383" target="_top" xlink:title="This subroutine verifies that the geometric parameters of the rectangle patch have consistently been ...">
<polygon fill="white" stroke="#666666" points="701,-318.32 567,-318.32 567,-277.32 701,-277.32 701,-318.32"/>
<text text-anchor="start" x="575" y="-306.32" font-family="Helvetica,sans-Serif" font-size="10.00">m_check_patches::s</text>
<text text-anchor="start" x="575" y="-295.32" font-family="Helvetica,sans-Serif" font-size="10.00">_check_rectangle_patch</text>
<text text-anchor="middle" x="634" y="-284.32" font-family="Helvetica,sans-Serif" font-size="10.00">_geometry</text>
</a>
</g>
</g>
<!-- Node1&#45;&gt;Node25 -->
<g id="edge43_Node000001_Node000025" class="edge">
<title>Node1&#45;&gt;Node25</title>
<g id="a_edge43_Node000001_Node000025"><a xlink:title=" ">
<path fill="none" stroke="#63b8ff" d="M804.87,-691.14C795.14,-620.93 759.17,-383.9 710,-327.82 706.95,-324.34 703.44,-321.26 699.64,-318.53"/>
<polygon fill="#63b8ff" stroke="#63b8ff" points="801.43,-691.82 806.25,-701.26 808.37,-690.88 801.43,-691.82"/>
</a>
</g>
</g>
<!-- Node26 -->
<g id="Node000026" class="node">
<title>Node26</title>
<g id="a_Node000026"><a xlink:href="namespacem__check__patches.html#ad2dd6dc473d7bb6d32cd5fd906c80da4" target="_top" xlink:title="This subroutine verifies that the geometric parameters of the sphere patch have consistently been inp...">
<polygon fill="white" stroke="#666666" points="694.5,-259.32 573.5,-259.32 573.5,-218.32 694.5,-218.32 694.5,-259.32"/>
<text text-anchor="start" x="581.5" y="-247.32" font-family="Helvetica,sans-Serif" font-size="10.00">m_check_patches::s</text>
<text text-anchor="start" x="581.5" y="-236.32" font-family="Helvetica,sans-Serif" font-size="10.00">_check_sphere_patch</text>
<text text-anchor="middle" x="634" y="-225.32" font-family="Helvetica,sans-Serif" font-size="10.00">_geometry</text>
</a>
</g>
</g>
<!-- Node1&#45;&gt;Node26 -->
<g id="edge45_Node000001_Node000026" class="edge">
<title>Node1&#45;&gt;Node26</title>
<g id="a_edge45_Node000001_Node000026"><a xlink:title=" ">
<path fill="none" stroke="#63b8ff" d="M805.55,-690.67C797.66,-613.07 765.86,-334.64 710,-268.82 705.74,-263.79 700.51,-259.6 694.82,-256.11"/>
<polygon fill="#63b8ff" stroke="#63b8ff" points="802.1,-691.37 806.57,-700.97 809.06,-690.68 802.1,-691.37"/>
</a>
</g>
</g>
<!-- Node27 -->
<g id="Node000027" class="node">
<title>Node27</title>
<g id="a_Node000027"><a xlink:href="namespacem__check__patches.html#a7f4fc28d325755439d8764d595e09387" target="_top" xlink:title="This subroutine verifies that the geometric parameters of the spherical harmonic patch have consisten...">
<polygon fill="white" stroke="#666666" points="709.5,-200.32 558.5,-200.32 558.5,-159.32 709.5,-159.32 709.5,-200.32"/>
<text text-anchor="start" x="566.5" y="-188.32" font-family="Helvetica,sans-Serif" font-size="10.00">m_check_patches::s</text>
<text text-anchor="start" x="566.5" y="-177.32" font-family="Helvetica,sans-Serif" font-size="10.00">_check_spherical_harmonic</text>
<text text-anchor="middle" x="634" y="-166.32" font-family="Helvetica,sans-Serif" font-size="10.00">_patch_geometry</text>
</a>
</g>
</g>
<!-- Node1&#45;&gt;Node27 -->
<g id="edge47_Node000001_Node000027" class="edge">
<title>Node1&#45;&gt;Node27</title>
<g id="a_edge47_Node000001_Node000027"><a xlink:title=" ">
<path fill="none" stroke="#63b8ff" d="M806.12,-690.73C799.99,-606.87 772.72,-285.62 710,-209.82 707.05,-206.25 703.61,-203.11 699.87,-200.33"/>
<polygon fill="#63b8ff" stroke="#63b8ff" points="802.65,-691.21 806.85,-700.93 809.63,-690.71 802.65,-691.21"/>
</a>
</g>
</g>
<!-- Node28 -->
<g id="Node000028" class="node">
<title>Node28</title>
<g id="a_Node000028"><a xlink:href="namespacem__check__patches.html#ac4618b7bb46f92ac59717a31d673ab88" target="_top" xlink:title="This subroutine verifies that the smoothing parameters of the given patch, which supports the smoothi...">
<polygon fill="white" stroke="#666666" points="702.5,-141.32 565.5,-141.32 565.5,-100.32 702.5,-100.32 702.5,-141.32"/>
<text text-anchor="start" x="573.5" y="-129.32" font-family="Helvetica,sans-Serif" font-size="10.00">m_check_patches::s</text>
<text text-anchor="start" x="573.5" y="-118.32" font-family="Helvetica,sans-Serif" font-size="10.00">_check_supported_patch</text>
<text text-anchor="middle" x="634" y="-107.32" font-family="Helvetica,sans-Serif" font-size="10.00">_smoothing</text>
</a>
</g>
</g>
<!-- Node1&#45;&gt;Node28 -->
<g id="edge49_Node000001_Node000028" class="edge">
<title>Node1&#45;&gt;Node28</title>
<g id="a_edge49_Node000001_Node000028"><a xlink:title=" ">
<path fill="none" stroke="#63b8ff" d="M806.58,-690.99C802.09,-601.59 779.67,-236.73 710,-150.82 707.17,-147.33 703.88,-144.25 700.29,-141.52"/>
<polygon fill="#63b8ff" stroke="#63b8ff" points="803.09,-691.29 807.07,-701.11 810.09,-690.95 803.09,-691.29"/>
</a>
</g>
</g>
<!-- Node29 -->
<g id="Node000029" class="node">
<title>Node29</title>
<g id="a_Node000029"><a xlink:href="namespacem__check__patches.html#a7f27b499f2b90ad0f25443c1a1c5a0e5" target="_top" xlink:title="This subroutine verifies that the smoothing parameters of the given patch, which does not support the...">
<polygon fill="white" stroke="#666666" points="708.5,-82.32 559.5,-82.32 559.5,-41.32 708.5,-41.32 708.5,-82.32"/>
<text text-anchor="start" x="567.5" y="-70.32" font-family="Helvetica,sans-Serif" font-size="10.00">m_check_patches::s</text>
<text text-anchor="start" x="567.5" y="-59.32" font-family="Helvetica,sans-Serif" font-size="10.00">_check_unsupported_patch</text>
<text text-anchor="middle" x="634" y="-48.32" font-family="Helvetica,sans-Serif" font-size="10.00">_smoothing</text>
</a>
</g>
</g>
<!-- Node1&#45;&gt;Node29 -->
<g id="edge51_Node000001_Node000029" class="edge">
<title>Node1&#45;&gt;Node29</title>
<g id="a_edge51_Node000001_Node000029"><a xlink:title=" ">
<path fill="none" stroke="#63b8ff" d="M806.94,-690.75C803.89,-595.29 786.51,-187.75 710,-91.82 707.2,-88.31 703.93,-85.21 700.35,-82.47"/>
<polygon fill="#63b8ff" stroke="#63b8ff" points="803.45,-691.13 807.25,-701.02 810.45,-690.92 803.45,-691.13"/>
</a>
</g>
</g>
<!-- Node2&#45;&gt;Node3 -->
<g id="edge2_Node000002_Node000003" class="edge">
<title>Node2&#45;&gt;Node3</title>
<g id="a_edge2_Node000002_Node000003"><a xlink:title=" ">
<path fill="none" stroke="#63b8ff" d="M565.07,-1371.66C562.48,-1369.25 560.1,-1366.65 558,-1363.82 479.55,-1257.89 467.39,-814.26 465.74,-726.09"/>
<polygon fill="#63b8ff" stroke="#63b8ff" points="563.4,-1374.8 573.41,-1378.27 567.75,-1369.32 563.4,-1374.8"/>
</a>
</g>
</g>
<!-- Node4 -->
<g id="Node000004" class="node">
<title>Node4</title>
<g id="a_Node000004"><a xlink:href="namespacem__start__up.html#ab5f7e03f1da1999ee699cec4f26370e0" target="_top" xlink:title="Checking that the user inputs make sense, i.e. that the individual choices are compatible with the co...">
<polygon fill="white" stroke="#666666" points="371,-376.82 255,-376.82 255,-346.82 371,-346.82 371,-376.82"/>
<text text-anchor="start" x="263" y="-364.82" font-family="Helvetica,sans-Serif" font-size="10.00">m_start_up::s_check</text>
<text text-anchor="middle" x="313" y="-353.82" font-family="Helvetica,sans-Serif" font-size="10.00">_input_file</text>
</a>
</g>
</g>
<!-- Node3&#45;&gt;Node4 -->
<g id="edge3_Node000003_Node000004" class="edge">
<title>Node3&#45;&gt;Node4</title>
<g id="a_edge3_Node000003_Node000004"><a xlink:title=" ">
<path fill="none" stroke="#63b8ff" d="M452.83,-685.9C423.79,-618.11 343.96,-431.76 320.54,-377.08"/>
<polygon fill="#63b8ff" stroke="#63b8ff" points="449.73,-687.56 456.88,-695.37 456.16,-684.8 449.73,-687.56"/>
</a>
</g>
</g>
<!-- Node5 -->
<g id="Node000005" class="node">
<title>Node5</title>
<g id="a_Node000005"><a xlink:href="namespacem__start__up.html#ad4011175691e51e9eac9fe16dc2df28a" target="_top" xlink:title=" ">
<polygon fill="white" stroke="#666666" points="219,-376.82 89,-376.82 89,-346.82 219,-346.82 219,-376.82"/>
<text text-anchor="start" x="97" y="-364.82" font-family="Helvetica,sans-Serif" font-size="10.00">m_start_up::s_initialize</text>
<text text-anchor="middle" x="154" y="-353.82" font-family="Helvetica,sans-Serif" font-size="10.00">_mpi_domain</text>
</a>
</g>
</g>
<!-- Node4&#45;&gt;Node5 -->
<g id="edge4_Node000004_Node000005" class="edge">
<title>Node4&#45;&gt;Node5</title>
<g id="a_edge4_Node000004_Node000005"><a xlink:title=" ">
<path fill="none" stroke="#63b8ff" d="M244.7,-361.82C236.26,-361.82 227.65,-361.82 219.26,-361.82"/>
<polygon fill="#63b8ff" stroke="#63b8ff" points="244.88,-365.32 254.88,-361.82 244.88,-358.32 244.88,-365.32"/>
</a>
</g>
</g>
<!-- Node6 -->
<g id="Node000006" class="node">
<title>Node6</title>
<g id="a_Node000006"><a xlink:href="p__main_8f90.html#aeec10ee8e2940c953967da3e374e1579" target="_top" xlink:title="This program takes care of setting up the initial condition and grid data for the multicomponent flow...">
<polygon fill="white" stroke="#666666" points="53,-371.32 0,-371.32 0,-352.32 53,-352.32 53,-371.32"/>
<text text-anchor="middle" x="26.5" y="-359.32" font-family="Helvetica,sans-Serif" font-size="10.00">p_main</text>
</a>
</g>
</g>
<!-- Node5&#45;&gt;Node6 -->
<g id="edge5_Node000005_Node000006" class="edge">
<title>Node5&#45;&gt;Node6</title>
<g id="a_edge5_Node000005_Node000006"><a xlink:title=" ">
<path fill="none" stroke="#63b8ff" d="M78.74,-361.82C69.58,-361.82 60.76,-361.82 53.09,-361.82"/>
<polygon fill="#63b8ff" stroke="#63b8ff" points="78.78,-365.32 88.78,-361.82 78.78,-358.32 78.78,-365.32"/>
</a>
</g>
</g>
<!-- Node7&#45;&gt;Node3 -->
<g id="edge7_Node000007_Node000003" class="edge">
<title>Node7&#45;&gt;Node3</title>
<g id="a_edge7_Node000007_Node000003"><a xlink:title=" ">
<path fill="none" stroke="#63b8ff" d="M565.06,-1278.94C562.49,-1276.78 560.11,-1274.42 558,-1271.82 486.86,-1184.31 469.02,-806.07 466.01,-725.82"/>
<polygon fill="#63b8ff" stroke="#63b8ff" points="563.11,-1281.85 573.29,-1284.79 567.17,-1276.14 563.11,-1281.85"/>
</a>
</g>
</g>
<!-- Node8&#45;&gt;Node3 -->
<g id="edge9_Node000008_Node000003" class="edge">
<title>Node8&#45;&gt;Node3</title>
<g id="a_edge9_Node000008_Node000003"><a xlink:title=" ">
<path fill="none" stroke="#63b8ff" d="M559.24,-1214.25C558.82,-1213.78 558.4,-1213.3 558,-1212.82 493.96,-1135.54 470.83,-802.04 466.35,-726.2"/>
<polygon fill="#63b8ff" stroke="#63b8ff" points="557.04,-1216.99 566.76,-1221.2 561.79,-1211.85 557.04,-1216.99"/>
</a>
</g>
</g>
<!-- Node9&#45;&gt;Node3 -->
<g id="edge11_Node000009_Node000003" class="edge">
<title>Node9&#45;&gt;Node3</title>
<g id="a_edge11_Node000009_Node000003"><a xlink:title=" ">
<path fill="none" stroke="#63b8ff" d="M564.56,-1160.3C562.19,-1158.32 559.99,-1156.16 558,-1153.82 500.93,-1086.58 472.82,-796.58 466.76,-726.23"/>
<polygon fill="#63b8ff" stroke="#63b8ff" points="562.97,-1163.46 573.15,-1166.39 567.02,-1157.75 562.97,-1163.46"/>
</a>
</g>
</g>
<!-- Node10&#45;&gt;Node3 -->
<g id="edge13_Node000010_Node000003" class="edge">
<title>Node10&#45;&gt;Node3</title>
<g id="a_edge13_Node000010_Node000003"><a xlink:title=" ">
<path fill="none" stroke="#63b8ff" d="M566.32,-1102.55C563.3,-1100.23 560.49,-1097.66 558,-1094.82 507.75,-1037.42 474.97,-789.72 467.26,-725.87"/>
<polygon fill="#63b8ff" stroke="#63b8ff" points="564.49,-1105.54 574.77,-1108.12 568.34,-1099.69 564.49,-1105.54"/>
</a>
</g>
</g>
<!-- Node11&#45;&gt;Node3 -->
<g id="edge15_Node000011_Node000003" class="edge">
<title>Node11&#45;&gt;Node3</title>
<g id="a_edge15_Node000011_Node000003"><a xlink:title=" ">
<path fill="none" stroke="#63b8ff" d="M566.46,-1043.42C563.4,-1041.14 560.55,-1038.61 558,-1035.82 472.99,-942.64 465.53,-776.74 465.32,-725.99"/>
<polygon fill="#63b8ff" stroke="#63b8ff" points="564.68,-1046.44 574.97,-1048.93 568.48,-1040.56 564.68,-1046.44"/>
</a>
</g>
</g>
<!-- Node12&#45;&gt;Node3 -->
<g id="edge17_Node000012_Node000003" class="edge">
<title>Node12&#45;&gt;Node3</title>
<g id="a_edge17_Node000012_Node000003"><a xlink:title=" ">
<path fill="none" stroke="#63b8ff" d="M567.78,-985.05C564.25,-982.6 560.95,-979.87 558,-976.82 486.48,-902.8 470.04,-770.66 466.45,-726.02"/>
<polygon fill="#63b8ff" stroke="#63b8ff" points="566.02,-988.08 576.39,-990.27 569.65,-982.09 566.02,-988.08"/>
</a>
</g>
</g>
<!-- Node13&#45;&gt;Node3 -->
<g id="edge19_Node000013_Node000003" class="edge">
<title>Node13&#45;&gt;Node3</title>
<g id="a_edge19_Node000013_Node000003"><a xlink:title=" ">
<path fill="none" stroke="#63b8ff" d="M565,-923.62C562.53,-921.82 560.18,-919.89 558,-917.82 499.64,-862.38 475.49,-763.42 468.14,-725.85"/>
<polygon fill="#63b8ff" stroke="#63b8ff" points="563.48,-926.8 573.79,-929.22 567.24,-920.89 563.48,-926.8"/>
</a>
</g>
</g>
<!-- Node14&#45;&gt;Node3 -->
<g id="edge21_Node000014_Node000003" class="edge">
<title>Node14&#45;&gt;Node3</title>
<g id="a_edge21_Node000014_Node000003"><a xlink:title=" ">
<path fill="none" stroke="#63b8ff" d="M561.63,-861.64C560.39,-860.73 559.18,-859.79 558,-858.82 512.69,-821.37 482.93,-755.69 471.18,-726.07"/>
<polygon fill="#63b8ff" stroke="#63b8ff" points="559.95,-864.73 570.24,-867.25 563.78,-858.86 559.95,-864.73"/>
</a>
</g>
</g>
<!-- Node15&#45;&gt;Node3 -->
<g id="edge23_Node000015_Node000003" class="edge">
<title>Node15&#45;&gt;Node3</title>
<g id="a_edge23_Node000015_Node000003"><a xlink:title=" ">
<path fill="none" stroke="#63b8ff" d="M564.69,-803.81C562.4,-802.53 560.16,-801.2 558,-799.82 525.3,-778.97 494.32,-745.35 477.83,-725.95"/>
<polygon fill="#63b8ff" stroke="#63b8ff" points="563.27,-807.01 573.76,-808.51 566.49,-800.8 563.27,-807.01"/>
</a>
</g>
</g>
<!-- Node16&#45;&gt;Node3 -->
<g id="edge25_Node000016_Node000003" class="edge">
<title>Node16&#45;&gt;Node3</title>
<g id="a_edge25_Node000016_Node000003"><a xlink:title=" ">
<path fill="none" stroke="#63b8ff" d="M564.83,-745.8C545.69,-739.06 525.42,-731.92 508.22,-725.86"/>
<polygon fill="#63b8ff" stroke="#63b8ff" points="563.82,-749.16 574.42,-749.18 566.15,-742.56 563.82,-749.16"/>
</a>
</g>
</g>
<!-- Node17&#45;&gt;Node3 -->
<g id="edge27_Node000017_Node000003" class="edge">
<title>Node17&#45;&gt;Node3</title>
<g id="a_edge27_Node000017_Node000003"><a xlink:title=" ">
<path fill="none" stroke="#63b8ff" d="M560.05,-710.82C547.33,-710.82 534.27,-710.82 522.08,-710.82"/>
<polygon fill="#63b8ff" stroke="#63b8ff" points="560.15,-714.32 570.15,-710.82 560.15,-707.32 560.15,-714.32"/>
</a>
</g>
</g>
<!-- Node18&#45;&gt;Node3 -->
<g id="edge29_Node000018_Node000003" class="edge">
<title>Node18&#45;&gt;Node3</title>
<g id="a_edge29_Node000018_Node000003"><a xlink:title=" ">
<path fill="none" stroke="#63b8ff" d="M564.83,-675.83C545.69,-682.57 525.42,-689.71 508.22,-695.77"/>
<polygon fill="#63b8ff" stroke="#63b8ff" points="566.15,-679.08 574.42,-672.45 563.82,-672.47 566.15,-679.08"/>
</a>
</g>
</g>
<!-- Node19&#45;&gt;Node3 -->
<g id="edge31_Node000019_Node000003" class="edge">
<title>Node19&#45;&gt;Node3</title>
<g id="a_edge31_Node000019_Node000003"><a xlink:title=" ">
<path fill="none" stroke="#63b8ff" d="M566,-618.06C563.25,-619.58 560.57,-621.17 558,-622.82 525.73,-643.53 494.83,-676.43 478.19,-695.59"/>
<polygon fill="#63b8ff" stroke="#63b8ff" points="567.69,-621.12 574.96,-613.42 564.47,-614.91 567.69,-621.12"/>
</a>
</g>
</g>
<!-- Node20&#45;&gt;Node4 -->
<g id="edge33_Node000020_Node000004" class="edge">
<title>Node20&#45;&gt;Node4</title>
<g id="a_edge33_Node000020_Node000004"><a xlink:title=" ">
<path fill="none" stroke="#63b8ff" d="M397.35,-348.44C388.7,-349.82 379.89,-351.24 371.4,-352.6"/>
<polygon fill="#63b8ff" stroke="#63b8ff" points="398.09,-351.86 407.41,-346.82 396.98,-344.95 398.09,-351.86"/>
</a>
</g>
</g>
<!-- Node21&#45;&gt;Node3 -->
<g id="edge35_Node000021_Node000003" class="edge">
<title>Node21&#45;&gt;Node3</title>
<g id="a_edge35_Node000021_Node000003"><a xlink:title=" ">
<path fill="none" stroke="#63b8ff" d="M562.91,-560.03C561.22,-561.24 559.58,-562.5 558,-563.82 513.06,-601.27 483.11,-666.38 471.24,-695.72"/>
<polygon fill="#63b8ff" stroke="#63b8ff" points="565.2,-562.72 571.75,-554.39 561.44,-556.82 565.2,-562.72"/>
</a>
</g>
</g>
<!-- Node22&#45;&gt;Node3 -->
<g id="edge37_Node000022_Node000003" class="edge">
<title>Node22&#45;&gt;Node3</title>
<g id="a_edge37_Node000022_Node000003"><a xlink:title=" ">
<path fill="none" stroke="#63b8ff" d="M564.06,-499.65C561.93,-501.27 559.9,-502.99 558,-504.82 500.29,-560.18 475.82,-658.12 468.26,-695.62"/>
<polygon fill="#63b8ff" stroke="#63b8ff" points="566.31,-502.36 572.67,-493.89 562.42,-496.54 566.31,-502.36"/>
</a>
</g>
</g>
<!-- Node23&#45;&gt;Node3 -->
<g id="edge39_Node000023_Node000003" class="edge">
<title>Node23&#45;&gt;Node3</title>
<g id="a_edge39_Node000023_Node000003"><a xlink:title=" ">
<path fill="none" stroke="#63b8ff" d="M561.31,-442.61C560.17,-443.64 559.06,-444.71 558,-445.82 487.11,-519.95 470.26,-651.34 466.51,-695.7"/>
<polygon fill="#63b8ff" stroke="#63b8ff" points="563.63,-445.24 569.41,-436.36 559.35,-439.7 563.63,-445.24"/>
</a>
</g>
</g>
<!-- Node24&#45;&gt;Node3 -->
<g id="edge42_Node000024_Node000003" class="edge">
<title>Node24&#45;&gt;Node3</title>
<g id="a_edge42_Node000024_Node000003"><a xlink:title=" ">
<path fill="none" stroke="#63b8ff" d="M560.8,-383.93C559.83,-384.86 558.9,-385.82 558,-386.82 473.74,-480.18 465.77,-645.25 465.37,-695.73"/>
<polygon fill="#63b8ff" stroke="#63b8ff" points="563.29,-386.42 568.82,-377.38 558.86,-380.99 563.29,-386.42"/>
</a>
</g>
</g>
<!-- Node25&#45;&gt;Node3 -->
<g id="edge44_Node000025_Node000003" class="edge">
<title>Node25&#45;&gt;Node3</title>
<g id="a_edge44_Node000025_Node000003"><a xlink:title=" ">
<path fill="none" stroke="#63b8ff" d="M560.66,-324.96C559.74,-325.88 558.85,-326.83 558,-327.82 508.19,-385.35 475.09,-632.19 467.28,-695.81"/>
<polygon fill="#63b8ff" stroke="#63b8ff" points="562.94,-327.62 568.31,-318.49 558.42,-322.27 562.94,-327.62"/>
</a>
</g>
</g>
<!-- Node26&#45;&gt;Node3 -->
<g id="edge46_Node000026_Node000003" class="edge">
<title>Node26&#45;&gt;Node3</title>
<g id="a_edge46_Node000026_Node000003"><a xlink:title=" ">
<path fill="none" stroke="#63b8ff" d="M565.19,-261.72C562.58,-263.88 560.16,-266.24 558,-268.82 529.52,-302.74 479.23,-621.24 467.84,-695.43"/>
<polygon fill="#63b8ff" stroke="#63b8ff" points="567.36,-264.47 573.49,-255.84 563.31,-258.76 567.36,-264.47"/>
</a>
</g>
</g>
<!-- Node27&#45;&gt;Node3 -->
<g id="edge48_Node000027_Node000003" class="edge">
<title>Node27&#45;&gt;Node3</title>
<g id="a_edge48_Node000027_Node000003"><a xlink:title=" ">
<path fill="none" stroke="#63b8ff" d="M560.22,-207.29C559.45,-208.11 558.71,-208.95 558,-209.82 541.97,-229.38 480.73,-614 467.88,-695.66"/>
<polygon fill="#63b8ff" stroke="#63b8ff" points="562.63,-209.83 567.76,-200.55 557.97,-204.61 562.63,-209.83"/>
</a>
</g>
</g>
<!-- Node28&#45;&gt;Node3 -->
<g id="edge50_Node000028_Node000003" class="edge">
<title>Node28&#45;&gt;Node3</title>
<g id="a_edge50_Node000028_Node000003"><a xlink:title=" ">
<path fill="none" stroke="#63b8ff" d="M560.19,-148.27C559.43,-149.09 558.7,-149.94 558,-150.82 555.77,-153.59 482.41,-606.34 467.96,-695.63"/>
<polygon fill="#63b8ff" stroke="#63b8ff" points="562.61,-150.8 567.68,-141.49 557.92,-145.61 562.61,-150.8"/>
</a>
</g>
</g>
<!-- Node29&#45;&gt;Node3 -->
<g id="edge52_Node000029_Node000003" class="edge">
<title>Node29&#45;&gt;Node3</title>
<g id="a_edge52_Node000029_Node000003"><a xlink:title=" ">
<path fill="none" stroke="#63b8ff" d="M560.16,-89.24C559.41,-90.07 558.69,-90.93 558,-91.82 520.82,-139.58 530.84,-301.93 522,-361.82 502.91,-491.15 476.47,-646.87 468.13,-695.53"/>
<polygon fill="#63b8ff" stroke="#63b8ff" points="562.59,-91.75 567.55,-82.39 557.84,-86.62 562.59,-91.75"/>
</a>
</g>
</g>
</g>
</svg>
