<?xml version="1.0" encoding="UTF-8" standalone="no"?>
<!DOCTYPE svg PUBLIC "-//W3C//DTD SVG 1.1//EN"
 "http://www.w3.org/Graphics/SVG/1.1/DTD/svg11.dtd">
<!-- Generated by graphviz version 2.43.0 (0)
 -->
<!-- Title: m_start_up::s_finalize_modules Pages: 1 -->
<svg width="309pt" height="265pt"
 viewBox="0.00 0.00 309.00 264.50" xmlns="http://www.w3.org/2000/svg" xmlns:xlink="http://www.w3.org/1999/xlink">
<g id="graph0" class="graph" transform="scale(1 1) rotate(0) translate(4 260.5)">
<title>m_start_up::s_finalize_modules</title>
<!-- Node1 -->
<g id="Node000001" class="node">
<title>Node1</title>
<g id="a_Node000001"><a xlink:title=" ">
<polygon fill="#999999" stroke="#666666" points="123,-148.5 0,-148.5 0,-118.5 123,-118.5 123,-148.5"/>
<text text-anchor="start" x="8" y="-136.5" font-family="Helvetica,sans-Serif" font-size="10.00">m_start_up::s_finalize</text>
<text text-anchor="middle" x="61.5" y="-125.5" font-family="Helvetica,sans-Serif" font-size="10.00">_modules</text>
</a>
</g>
</g>
<!-- Node2 -->
<g id="Node000002" class="node">
<title>Node2</title>
<g id="a_Node000002"><a xlink:href="namespacem__data__output.html#a02f2b04a434c1f0ebf9156147d0f976e" target="_top" xlink:title="Resets s_write_data_files pointer.">
<polygon fill="white" stroke="#666666" points="301,-256.5 159,-256.5 159,-226.5 301,-226.5 301,-256.5"/>
<text text-anchor="start" x="167" y="-244.5" font-family="Helvetica,sans-Serif" font-size="10.00">m_data_output::s_finalize</text>
<text text-anchor="middle" x="230" y="-233.5" font-family="Helvetica,sans-Serif" font-size="10.00">_data_output_module</text>
</a>
</g>
</g>
<!-- Node1&#45;&gt;Node2 -->
<g id="edge1_Node000001_Node000002" class="edge">
<title>Node1&#45;&gt;Node2</title>
<g id="a_edge1_Node000001_Node000002"><a xlink:title=" ">
<path fill="none" stroke="#63b8ff" d="M76.16,-148.53C93.72,-167.05 125.91,-198.41 159,-217.5 161.98,-219.22 165.11,-220.85 168.32,-222.37"/>
<polygon fill="#63b8ff" stroke="#63b8ff" points="166.95,-225.6 177.51,-226.43 169.78,-219.19 166.95,-225.6"/>
</a>
</g>
</g>
<!-- Node3 -->
<g id="Node000003" class="node">
<title>Node3</title>
<g id="a_Node000003"><a xlink:href="namespacem__global__parameters.html#aa2237c2ed3662bbd69ef39e2e92af7bf" target="_top" xlink:title=" ">
<polygon fill="white" stroke="#666666" points="291.5,-208 168.5,-208 168.5,-167 291.5,-167 291.5,-208"/>
<text text-anchor="start" x="176.5" y="-196" font-family="Helvetica,sans-Serif" font-size="10.00">m_global_parameters</text>
<text text-anchor="start" x="176.5" y="-185" font-family="Helvetica,sans-Serif" font-size="10.00">::s_finalize_global</text>
<text text-anchor="middle" x="230" y="-174" font-family="Helvetica,sans-Serif" font-size="10.00">_parameters_module</text>
</a>
</g>
</g>
<!-- Node1&#45;&gt;Node3 -->
<g id="edge2_Node000001_Node000003" class="edge">
<title>Node1&#45;&gt;Node3</title>
<g id="a_edge2_Node000001_Node000003"><a xlink:title=" ">
<path fill="none" stroke="#63b8ff" d="M108.88,-148.54C124.24,-153.52 141.71,-159.19 158.46,-164.62"/>
<polygon fill="#63b8ff" stroke="#63b8ff" points="157.64,-168.03 168.23,-167.79 159.8,-161.38 157.64,-168.03"/>
</a>
</g>
</g>
<!-- Node4 -->
<g id="Node000004" class="node">
<title>Node4</title>
<g id="a_Node000004"><a xlink:href="namespacem__grid.html#a128e8c4d55df21039d945edda39205aa" target="_top" xlink:title="Deallocation procedures for the module.">
<polygon fill="white" stroke="#666666" points="281,-148.5 179,-148.5 179,-118.5 281,-118.5 281,-148.5"/>
<text text-anchor="start" x="187" y="-136.5" font-family="Helvetica,sans-Serif" font-size="10.00">m_grid::s_finalize</text>
<text text-anchor="middle" x="230" y="-125.5" font-family="Helvetica,sans-Serif" font-size="10.00">_grid_module</text>
</a>
</g>
</g>
<!-- Node1&#45;&gt;Node4 -->
<g id="edge3_Node000001_Node000004" class="edge">
<title>Node1&#45;&gt;Node4</title>
<g id="a_edge3_Node000001_Node000004"><a xlink:title=" ">
<path fill="none" stroke="#63b8ff" d="M123.08,-133.5C137.96,-133.5 153.89,-133.5 168.76,-133.5"/>
<polygon fill="#63b8ff" stroke="#63b8ff" points="168.86,-137 178.86,-133.5 168.86,-130 168.86,-137"/>
</a>
</g>
</g>
<!-- Node5 -->
<g id="Node000005" class="node">
<title>Node5</title>
<g id="a_Node000005"><a xlink:href="namespacem__variables__conversion.html#a6a3f90e69ef4dea304495d0f7c068de2" target="_top" xlink:title=" ">
<polygon fill="white" stroke="#666666" points="297.5,-100 162.5,-100 162.5,-59 297.5,-59 297.5,-100"/>
<text text-anchor="start" x="170.5" y="-88" font-family="Helvetica,sans-Serif" font-size="10.00">m_variables_conversion</text>
<text text-anchor="start" x="170.5" y="-77" font-family="Helvetica,sans-Serif" font-size="10.00">::s_finalize_variables</text>
<text text-anchor="middle" x="230" y="-66" font-family="Helvetica,sans-Serif" font-size="10.00">_conversion_module</text>
</a>
</g>
</g>
<!-- Node1&#45;&gt;Node5 -->
<g id="edge4_Node000001_Node000005" class="edge">
<title>Node1&#45;&gt;Node5</title>
<g id="a_edge4_Node000001_Node000005"><a xlink:title=" ">
<path fill="none" stroke="#63b8ff" d="M108.88,-118.46C123.46,-113.73 139.94,-108.39 155.9,-103.21"/>
<polygon fill="#63b8ff" stroke="#63b8ff" points="157.33,-106.43 165.76,-100.01 155.17,-99.77 157.33,-106.43"/>
</a>
</g>
</g>
<!-- Node6 -->
<g id="Node000006" class="node">
<title>Node6</title>
<g id="a_Node000006"><a xlink:href="namespacem__assign__variables.html#a0ac5909103b06b46099506b517f43c5f" target="_top" xlink:title=" ">
<polygon fill="white" stroke="#666666" points="286.5,-41 173.5,-41 173.5,0 286.5,0 286.5,-41"/>
<text text-anchor="start" x="181.5" y="-29" font-family="Helvetica,sans-Serif" font-size="10.00">m_assign_variables</text>
<text text-anchor="start" x="181.5" y="-18" font-family="Helvetica,sans-Serif" font-size="10.00">::s_finialize_assign</text>
<text text-anchor="middle" x="230" y="-7" font-family="Helvetica,sans-Serif" font-size="10.00">_variables_module</text>
</a>
</g>
</g>
<!-- Node1&#45;&gt;Node6 -->
<g id="edge5_Node000001_Node000006" class="edge">
<title>Node1&#45;&gt;Node6</title>
<g id="a_edge5_Node000001_Node000006"><a xlink:title=" ">
<path fill="none" stroke="#63b8ff" d="M77.06,-118.42C95.03,-100.46 127.12,-70.38 159,-50.5 161.61,-48.87 164.32,-47.29 167.1,-45.77"/>
<polygon fill="#63b8ff" stroke="#63b8ff" points="168.86,-48.79 176.13,-41.08 165.64,-42.58 168.86,-48.79"/>
</a>
</g>
</g>
</g>
</svg>
