<?xml version="1.0" encoding="UTF-8" standalone="no"?>
<!DOCTYPE svg PUBLIC "-//W3C//DTD SVG 1.1//EN"
 "http://www.w3.org/Graphics/SVG/1.1/DTD/svg11.dtd">
<!-- Generated by graphviz version 2.40.1 (20161225.0304)
 -->
<!-- Title: m_mpi_proxy::s_mpi_abort Pages: 1 -->
<svg width="404pt" height="1365pt"
 viewBox="0.00 0.00 404.00 1365.22" xmlns="http://www.w3.org/2000/svg" xmlns:xlink="http://www.w3.org/1999/xlink">
<g id="graph0" class="graph" transform="scale(1 1) rotate(0) translate(4 1361.2155)">
<title>m_mpi_proxy::s_mpi_abort</title>
<polygon fill="#ffffff" stroke="transparent" points="-4,4 -4,-1361.2155 400,-1361.2155 400,4 -4,4"/>
<!-- Node8 -->
<g id="node1" class="node">
<title>Node8</title>
<polygon fill="#bfbfbf" stroke="#000000" points="0,-653.5 0,-679.5 72,-679.5 72,-653.5 0,-653.5"/>
<text text-anchor="start" x="8" y="-669.1" font-family="Helvetica,sans-Serif" font-size="8.00" fill="#000000">m_mpi_proxy::s_mpi</text>
<text text-anchor="middle" x="36" y="-660.1" font-family="Helvetica,sans-Serif" font-size="8.00" fill="#000000">_abort</text>
</g>
<!-- Node9 -->
<g id="node2" class="node">
<title>Node9</title>
<g id="a_node2"><a xlink:href="namespacem__start__up.html#ae0571e78c0179c22d3811df31c33c321" target="_top" xlink:title="Reads the configuration file pre_process.inp, in order to populate the parameters in module m_global_...">
<polygon fill="#ffffff" stroke="#000000" points="251,-1071.5 251,-1097.5 319,-1097.5 319,-1071.5 251,-1071.5"/>
<text text-anchor="start" x="259" y="-1087.1" font-family="Helvetica,sans-Serif" font-size="8.00" fill="#000000">m_start_up::s_read</text>
<text text-anchor="middle" x="285" y="-1078.1" font-family="Helvetica,sans-Serif" font-size="8.00" fill="#000000">_input_file</text>
</a>
</g>
</g>
<!-- Node8&#45;&gt;Node9 -->
<g id="edge1" class="edge">
<title>Node8&#45;&gt;Node9</title>
<path fill="none" stroke="#191970" d="M36.701,-689.7652C40.3421,-802.8361 58.8493,-1291.3552 108,-1335.5 141.727,-1365.7919 173.6442,-1362.5808 210,-1335.5 249.6649,-1305.9543 276.0682,-1145.4323 283.1127,-1097.8186"/>
<polygon fill="#191970" stroke="#191970" points="40.1987,-689.6339 36.3862,-679.7488 33.2022,-689.8539 40.1987,-689.6339"/>
</g>
<!-- Node11 -->
<g id="node4" class="node">
<title>Node11</title>
<g id="a_node4"><a xlink:href="namespacem__start__up.html#ab5f7e03f1da1999ee699cec4f26370e0" target="_top" xlink:title="Checking that the user inputs make sense, i.e. that the individual choices are compatible with the co...">
<polygon fill="#ffffff" stroke="#000000" points="249,-732.5 249,-758.5 321,-758.5 321,-732.5 249,-732.5"/>
<text text-anchor="start" x="257" y="-748.1" font-family="Helvetica,sans-Serif" font-size="8.00" fill="#000000">m_start_up::s_check</text>
<text text-anchor="middle" x="285" y="-739.1" font-family="Helvetica,sans-Serif" font-size="8.00" fill="#000000">_input_file</text>
</a>
</g>
</g>
<!-- Node8&#45;&gt;Node11 -->
<g id="edge3" class="edge">
<title>Node8&#45;&gt;Node11</title>
<path fill="none" stroke="#191970" d="M39.8891,-643.2181C49.21,-590.5524 74.5573,-464.9445 108,-440.5 144.5988,-413.7486 174.3219,-412.5324 210,-440.5 257.5284,-477.757 278.9577,-678.8742 283.8703,-732.405"/>
<polygon fill="#191970" stroke="#191970" points="36.4033,-642.8361 38.1463,-653.2865 43.3007,-644.0301 36.4033,-642.8361"/>
</g>
<!-- Node12 -->
<g id="node5" class="node">
<title>Node12</title>
<g id="a_node5"><a xlink:href="namespacem__start__up.html#a9a3e975da11ddbbabdf66a66ff9167d1" target="_top" xlink:title="This subroutine verifies that the geometric parameters of the line segment patch have consistently be...">
<polygon fill="#ffffff" stroke="#000000" points="122,-358 122,-393 196,-393 196,-358 122,-358"/>
<text text-anchor="start" x="130" y="-382.6" font-family="Helvetica,sans-Serif" font-size="8.00" fill="#000000">m_start_up::s_check</text>
<text text-anchor="start" x="130" y="-373.6" font-family="Helvetica,sans-Serif" font-size="8.00" fill="#000000">_line_segment_patch</text>
<text text-anchor="middle" x="159" y="-364.6" font-family="Helvetica,sans-Serif" font-size="8.00" fill="#000000">_geometry</text>
</a>
</g>
</g>
<!-- Node8&#45;&gt;Node12 -->
<g id="edge5" class="edge">
<title>Node8&#45;&gt;Node12</title>
<path fill="none" stroke="#191970" d="M36.945,-643.4202C40.0088,-595.0117 52.9951,-481.2555 108,-407.5 112.1243,-401.9697 117.5119,-397.1641 123.2372,-393.0769"/>
<polygon fill="#191970" stroke="#191970" points="33.4455,-643.317 36.3945,-653.4931 40.4351,-643.6991 33.4455,-643.317"/>
</g>
<!-- Node13 -->
<g id="node6" class="node">
<title>Node13</title>
<g id="a_node6"><a xlink:href="namespacem__start__up.html#a2ab9d448e20b9f9b5db3adbb28e011fe" target="_top" xlink:title="This subroutine verifies that the geometric parameters of the circle patch have consistently been inp...">
<polygon fill="#ffffff" stroke="#000000" points="119,-312.5 119,-338.5 199,-338.5 199,-312.5 119,-312.5"/>
<text text-anchor="start" x="127" y="-328.1" font-family="Helvetica,sans-Serif" font-size="8.00" fill="#000000">m_start_up::s_check</text>
<text text-anchor="middle" x="159" y="-319.1" font-family="Helvetica,sans-Serif" font-size="8.00" fill="#000000">_circle_patch_geometry</text>
</a>
</g>
</g>
<!-- Node8&#45;&gt;Node13 -->
<g id="edge7" class="edge">
<title>Node8&#45;&gt;Node13</title>
<path fill="none" stroke="#191970" d="M38.5633,-643.2754C46.1807,-577.9527 70.5111,-394.3979 108,-348.5 111.195,-344.5883 115.1963,-341.3167 119.5445,-338.5867"/>
<polygon fill="#191970" stroke="#191970" points="35.0671,-643.0432 37.4097,-653.3758 42.0219,-643.8375 35.0671,-643.0432"/>
</g>
<!-- Node14 -->
<g id="node7" class="node">
<title>Node14</title>
<g id="a_node7"><a xlink:href="namespacem__start__up.html#a038565f6f0f4ed12a0a3738ab880f507" target="_top" xlink:title="This subroutine verifies that the geometric parameters of the rectangle patch have consistently been ...">
<polygon fill="#ffffff" stroke="#000000" points="113.5,-267.5 113.5,-293.5 204.5,-293.5 204.5,-267.5 113.5,-267.5"/>
<text text-anchor="start" x="121.5" y="-283.1" font-family="Helvetica,sans-Serif" font-size="8.00" fill="#000000">m_start_up::s_check</text>
<text text-anchor="middle" x="159" y="-274.1" font-family="Helvetica,sans-Serif" font-size="8.00" fill="#000000">_rectangle_patch_geometry</text>
</a>
</g>
</g>
<!-- Node8&#45;&gt;Node14 -->
<g id="edge9" class="edge">
<title>Node8&#45;&gt;Node14</title>
<path fill="none" stroke="#191970" d="M37.8817,-642.8942C44.0279,-571.0741 65.6004,-356.8567 108,-303.5 111.1422,-299.5457 115.1122,-296.2489 119.4439,-293.5056"/>
<polygon fill="#191970" stroke="#191970" points="34.3695,-642.8957 37.0269,-653.1518 41.3454,-643.4771 34.3695,-642.8957"/>
</g>
<!-- Node15 -->
<g id="node8" class="node">
<title>Node15</title>
<g id="a_node8"><a xlink:href="namespacem__start__up.html#af838464749f53bf064afdba3c261ac83" target="_top" xlink:title="This subroutine verifies that the geometric parameters of the line sweep patch have consistently been...">
<polygon fill="#ffffff" stroke="#000000" points="111,-222.5 111,-248.5 207,-248.5 207,-222.5 111,-222.5"/>
<text text-anchor="start" x="119" y="-238.1" font-family="Helvetica,sans-Serif" font-size="8.00" fill="#000000">m_start_up::s_check</text>
<text text-anchor="middle" x="159" y="-229.1" font-family="Helvetica,sans-Serif" font-size="8.00" fill="#000000">_line_sweep_patch_geometry</text>
</a>
</g>
</g>
<!-- Node8&#45;&gt;Node15 -->
<g id="edge11" class="edge">
<title>Node8&#45;&gt;Node15</title>
<path fill="none" stroke="#191970" d="M37.3012,-643.0777C42.0249,-565.669 60.5529,-319.5215 108,-258.5 110.981,-254.6661 114.7431,-251.4525 118.8674,-248.763"/>
<polygon fill="#191970" stroke="#191970" points="33.7973,-643.0436 36.7027,-653.2322 40.7851,-643.4555 33.7973,-643.0436"/>
</g>
<!-- Node16 -->
<g id="node9" class="node">
<title>Node16</title>
<g id="a_node9"><a xlink:href="namespacem__start__up.html#a51ddc16cb3379a50fbf2957e47dbb7d5" target="_top" xlink:title="This subroutine verifies that the geometric parameters of the ellipse patch have consistently been in...">
<polygon fill="#ffffff" stroke="#000000" points="117.5,-1299.5 117.5,-1325.5 200.5,-1325.5 200.5,-1299.5 117.5,-1299.5"/>
<text text-anchor="start" x="125.5" y="-1315.1" font-family="Helvetica,sans-Serif" font-size="8.00" fill="#000000">m_start_up::s_check</text>
<text text-anchor="middle" x="159" y="-1306.1" font-family="Helvetica,sans-Serif" font-size="8.00" fill="#000000">_ellipse_patch_geometry</text>
</a>
</g>
</g>
<!-- Node8&#45;&gt;Node16 -->
<g id="edge13" class="edge">
<title>Node8&#45;&gt;Node16</title>
<path fill="none" stroke="#191970" d="M37.3393,-689.8118C43.6815,-797.0813 71.8968,-1240.0971 108,-1289.5 110.8654,-1293.421 114.5571,-1296.6878 118.6428,-1299.4063"/>
<polygon fill="#191970" stroke="#191970" points="40.8269,-689.4955 36.7488,-679.717 33.8388,-689.9044 40.8269,-689.4955"/>
</g>
<!-- Node17 -->
<g id="node10" class="node">
<title>Node17</title>
<g id="a_node10"><a xlink:href="namespacem__start__up.html#a3fe683c4126d72deba7f8daf1ad83b94" target="_top" xlink:title="This subroutine verifies that the geometric parameters of the isentropic vortex patch have been enter...">
<polygon fill="#ffffff" stroke="#000000" points="117.5,-1245 117.5,-1280 200.5,-1280 200.5,-1245 117.5,-1245"/>
<text text-anchor="start" x="125.5" y="-1269.6" font-family="Helvetica,sans-Serif" font-size="8.00" fill="#000000">m_start_up::s_check</text>
<text text-anchor="start" x="125.5" y="-1260.6" font-family="Helvetica,sans-Serif" font-size="8.00" fill="#000000">_isentropic_vortex_patch</text>
<text text-anchor="middle" x="159" y="-1251.6" font-family="Helvetica,sans-Serif" font-size="8.00" fill="#000000">_geometry</text>
</a>
</g>
</g>
<!-- Node8&#45;&gt;Node17 -->
<g id="edge15" class="edge">
<title>Node8&#45;&gt;Node17</title>
<path fill="none" stroke="#191970" d="M37.6693,-689.6382C45.1223,-790.6246 76.3792,-1189.7608 108,-1235.5 110.5067,-1239.126 113.6584,-1242.3031 117.1592,-1245.0786"/>
<polygon fill="#191970" stroke="#191970" points="41.1533,-689.2903 36.9327,-679.5724 34.1719,-689.8012 41.1533,-689.2903"/>
</g>
<!-- Node18 -->
<g id="node11" class="node">
<title>Node18</title>
<g id="a_node11"><a xlink:href="namespacem__start__up.html#a2c3f4c2fe04814a924bff26228516a39" target="_top" xlink:title="This subroutine verifies that the geometric parameters of the analytical patch have consistently been...">
<polygon fill="#ffffff" stroke="#000000" points="122.5,-1191 122.5,-1226 195.5,-1226 195.5,-1191 122.5,-1191"/>
<text text-anchor="start" x="130.5" y="-1215.6" font-family="Helvetica,sans-Serif" font-size="8.00" fill="#000000">m_start_up::s_check</text>
<text text-anchor="start" x="130.5" y="-1206.6" font-family="Helvetica,sans-Serif" font-size="8.00" fill="#000000">_1d_analytical_patch</text>
<text text-anchor="middle" x="159" y="-1197.6" font-family="Helvetica,sans-Serif" font-size="8.00" fill="#000000">_geometry</text>
</a>
</g>
</g>
<!-- Node8&#45;&gt;Node18 -->
<g id="edge17" class="edge">
<title>Node8&#45;&gt;Node18</title>
<path fill="none" stroke="#191970" d="M36.5016,-689.8427C38.8375,-779.437 51.0978,-1100.3279 108,-1181.5 111.738,-1186.8323 116.8656,-1191.1974 122.4363,-1194.7428"/>
<polygon fill="#191970" stroke="#191970" points="39.996,-689.5649 36.2537,-679.653 32.9981,-689.7352 39.996,-689.5649"/>
</g>
<!-- Node19 -->
<g id="node12" class="node">
<title>Node19</title>
<g id="a_node12"><a xlink:href="namespacem__start__up.html#a0acb93e848d6dd38e617d4870a9b9261" target="_top" xlink:title="This subroutine verifies that the geometric parameters of the analytical patch have consistently been...">
<polygon fill="#ffffff" stroke="#000000" points="122.5,-1137 122.5,-1172 195.5,-1172 195.5,-1137 122.5,-1137"/>
<text text-anchor="start" x="130.5" y="-1161.6" font-family="Helvetica,sans-Serif" font-size="8.00" fill="#000000">m_start_up::s_check</text>
<text text-anchor="start" x="130.5" y="-1152.6" font-family="Helvetica,sans-Serif" font-size="8.00" fill="#000000">_2d_analytical_patch</text>
<text text-anchor="middle" x="159" y="-1143.6" font-family="Helvetica,sans-Serif" font-size="8.00" fill="#000000">_geometry</text>
</a>
</g>
</g>
<!-- Node8&#45;&gt;Node19 -->
<g id="edge19" class="edge">
<title>Node8&#45;&gt;Node19</title>
<path fill="none" stroke="#191970" d="M36.9253,-689.774C40.6446,-773.1531 56.8564,-1055.7723 108,-1127.5 111.7224,-1132.7206 116.7711,-1137.0184 122.2503,-1140.5285"/>
<polygon fill="#191970" stroke="#191970" points="40.4134,-689.4204 36.4894,-679.5791 33.4198,-689.7195 40.4134,-689.4204"/>
</g>
<!-- Node20 -->
<g id="node13" class="node">
<title>Node20</title>
<g id="a_node13"><a xlink:href="namespacem__start__up.html#a936948a39ac13e74203588cae06b325f" target="_top" xlink:title="This subroutine verifies that the geometric parameters of the analytical patch have consistently been...">
<polygon fill="#ffffff" stroke="#000000" points="122.5,-1083 122.5,-1118 195.5,-1118 195.5,-1083 122.5,-1083"/>
<text text-anchor="start" x="130.5" y="-1107.6" font-family="Helvetica,sans-Serif" font-size="8.00" fill="#000000">m_start_up::s_check</text>
<text text-anchor="start" x="130.5" y="-1098.6" font-family="Helvetica,sans-Serif" font-size="8.00" fill="#000000">_3d_analytical_patch</text>
<text text-anchor="middle" x="159" y="-1089.6" font-family="Helvetica,sans-Serif" font-size="8.00" fill="#000000">_geometry</text>
</a>
</g>
</g>
<!-- Node8&#45;&gt;Node20 -->
<g id="edge21" class="edge">
<title>Node8&#45;&gt;Node20</title>
<path fill="none" stroke="#191970" d="M37.4593,-689.7521C42.682,-766.6152 62.6005,-1011.1673 108,-1073.5 111.7749,-1078.6828 116.8498,-1082.9617 122.3388,-1086.4647"/>
<polygon fill="#191970" stroke="#191970" points="40.945,-689.4178 36.7941,-679.67 33.9602,-689.8788 40.945,-689.4178"/>
</g>
<!-- Node21 -->
<g id="node14" class="node">
<title>Node21</title>
<g id="a_node14"><a xlink:href="namespacem__start__up.html#a3bc334d434726c8cdba2f5d611ec4d42" target="_top" xlink:title="This subroutine verifies that the geometric parameters of the sphere patch have consistently been inp...">
<polygon fill="#ffffff" stroke="#000000" points="116.5,-1037.5 116.5,-1063.5 201.5,-1063.5 201.5,-1037.5 116.5,-1037.5"/>
<text text-anchor="start" x="124.5" y="-1053.1" font-family="Helvetica,sans-Serif" font-size="8.00" fill="#000000">m_start_up::s_check</text>
<text text-anchor="middle" x="159" y="-1044.1" font-family="Helvetica,sans-Serif" font-size="8.00" fill="#000000">_sphere_patch_geometry</text>
</a>
</g>
</g>
<!-- Node8&#45;&gt;Node21 -->
<g id="edge23" class="edge">
<title>Node8&#45;&gt;Node21</title>
<path fill="none" stroke="#191970" d="M37.899,-689.9767C44.0953,-761.4039 65.7971,-974.4484 108,-1027.5 111.1443,-1031.4526 115.1155,-1034.7484 119.4479,-1037.4912"/>
<polygon fill="#191970" stroke="#191970" points="41.3666,-689.4449 37.0369,-679.7752 34.3915,-690.0344 41.3666,-689.4449"/>
</g>
<!-- Node22 -->
<g id="node15" class="node">
<title>Node22</title>
<g id="a_node15"><a xlink:href="namespacem__start__up.html#a59bfdd1a0d03041d57f7f9e7e1a38a97" target="_top" xlink:title="This subroutine verifies that the geometric parameters of the spherical harmonic patch have consisten...">
<polygon fill="#ffffff" stroke="#000000" points="123,-983 123,-1018 195,-1018 195,-983 123,-983"/>
<text text-anchor="start" x="131" y="-1007.6" font-family="Helvetica,sans-Serif" font-size="8.00" fill="#000000">m_start_up::s_check</text>
<text text-anchor="start" x="131" y="-998.6" font-family="Helvetica,sans-Serif" font-size="8.00" fill="#000000">_spherical_harmonic</text>
<text text-anchor="middle" x="159" y="-989.6" font-family="Helvetica,sans-Serif" font-size="8.00" fill="#000000">_patch_geometry</text>
</a>
</g>
</g>
<!-- Node8&#45;&gt;Node22 -->
<g id="edge25" class="edge">
<title>Node8&#45;&gt;Node22</title>
<path fill="none" stroke="#191970" d="M38.9752,-690.0673C47.4242,-753.9098 73.2199,-928.4198 108,-973.5 111.9778,-978.6558 117.2236,-982.9341 122.8369,-986.4481"/>
<polygon fill="#191970" stroke="#191970" points="42.4026,-689.282 37.6427,-679.8166 35.461,-690.1844 42.4026,-689.282"/>
</g>
<!-- Node23 -->
<g id="node16" class="node">
<title>Node23</title>
<g id="a_node16"><a xlink:href="namespacem__start__up.html#ac9af27b20bc2249e7c015c76061b5515" target="_top" xlink:title="This subroutine verifies that the geometric parameters of the cuboid patch have consistently been inp...">
<polygon fill="#ffffff" stroke="#000000" points="117,-937.5 117,-963.5 201,-963.5 201,-937.5 117,-937.5"/>
<text text-anchor="start" x="125" y="-953.1" font-family="Helvetica,sans-Serif" font-size="8.00" fill="#000000">m_start_up::s_check</text>
<text text-anchor="middle" x="159" y="-944.1" font-family="Helvetica,sans-Serif" font-size="8.00" fill="#000000">_cuboid_patch_geometry</text>
</a>
</g>
</g>
<!-- Node8&#45;&gt;Node23 -->
<g id="edge27" class="edge">
<title>Node8&#45;&gt;Node23</title>
<path fill="none" stroke="#191970" d="M39.7436,-689.7295C49.352,-746.8459 76.365,-892.1286 108,-928.5 111.0376,-931.9924 114.729,-934.9485 118.7224,-937.4468"/>
<polygon fill="#191970" stroke="#191970" points="43.1432,-688.8347 38.0578,-679.5402 36.2371,-689.9774 43.1432,-688.8347"/>
</g>
<!-- Node24 -->
<g id="node17" class="node">
<title>Node24</title>
<g id="a_node17"><a xlink:href="namespacem__start__up.html#ad6c503541113565dcac0b49b11ff3afb" target="_top" xlink:title="This subroutine verifies that the geometric parameters of the cylinder patch have consistently been i...">
<polygon fill="#ffffff" stroke="#000000" points="115.5,-892.5 115.5,-918.5 202.5,-918.5 202.5,-892.5 115.5,-892.5"/>
<text text-anchor="start" x="123.5" y="-908.1" font-family="Helvetica,sans-Serif" font-size="8.00" fill="#000000">m_start_up::s_check</text>
<text text-anchor="middle" x="159" y="-899.1" font-family="Helvetica,sans-Serif" font-size="8.00" fill="#000000">_cylinder_patch_geometry</text>
</a>
</g>
</g>
<!-- Node8&#45;&gt;Node24 -->
<g id="edge29" class="edge">
<title>Node8&#45;&gt;Node24</title>
<path fill="none" stroke="#191970" d="M37.5771,-689.6939C41.7106,-733.0899 56.4313,-827.244 108,-883.5 111.1928,-886.983 115.0318,-889.9387 119.1527,-892.4413"/>
<polygon fill="#191970" stroke="#191970" points="41.0515,-689.2429 36.721,-679.5735 34.0764,-689.833 41.0515,-689.2429"/>
</g>
<!-- Node25 -->
<g id="node18" class="node">
<title>Node25</title>
<g id="a_node18"><a xlink:href="namespacem__start__up.html#aae294c405210613a2466358f3af3fd90" target="_top" xlink:title="This subroutine verifies that the geometric parameters of the plane sweep patch have consistently bee...">
<polygon fill="#ffffff" stroke="#000000" points="108,-847.5 108,-873.5 210,-873.5 210,-847.5 108,-847.5"/>
<text text-anchor="start" x="116" y="-863.1" font-family="Helvetica,sans-Serif" font-size="8.00" fill="#000000">m_start_up::s_check</text>
<text text-anchor="middle" x="159" y="-854.1" font-family="Helvetica,sans-Serif" font-size="8.00" fill="#000000">_plane_sweep_patch_geometry</text>
</a>
</g>
</g>
<!-- Node8&#45;&gt;Node25 -->
<g id="edge31" class="edge">
<title>Node8&#45;&gt;Node25</title>
<path fill="none" stroke="#191970" d="M39.9454,-689.633C47.248,-725.8492 66.1172,-796.1618 108,-838.5 111.4586,-841.9962 115.5632,-844.9725 119.9193,-847.4973"/>
<polygon fill="#191970" stroke="#191970" points="43.3369,-688.7313 38.0377,-679.5569 36.4591,-690.0335 43.3369,-688.7313"/>
</g>
<!-- Node26 -->
<g id="node19" class="node">
<title>Node26</title>
<g id="a_node19"><a xlink:href="namespacem__start__up.html#a9cb00dcfe248d67b64c361ac57b6a269" target="_top" xlink:title="This subroutine verifies that the geometric parameters of the ellipsoid patch have consistently been ...">
<polygon fill="#ffffff" stroke="#000000" points="115,-802.5 115,-828.5 203,-828.5 203,-802.5 115,-802.5"/>
<text text-anchor="start" x="123" y="-818.1" font-family="Helvetica,sans-Serif" font-size="8.00" fill="#000000">m_start_up::s_check</text>
<text text-anchor="middle" x="159" y="-809.1" font-family="Helvetica,sans-Serif" font-size="8.00" fill="#000000">_ellipsoid_patch_geometry</text>
</a>
</g>
</g>
<!-- Node8&#45;&gt;Node26 -->
<g id="edge33" class="edge">
<title>Node8&#45;&gt;Node26</title>
<path fill="none" stroke="#191970" d="M43.8459,-689.5672C54.4162,-717.5419 75.7111,-764.5371 108,-793.5 111.8044,-796.9126 116.2196,-799.8551 120.8294,-802.3759"/>
<polygon fill="#191970" stroke="#191970" points="47.0221,-688.0593 40.3193,-679.8541 40.4423,-690.4483 47.0221,-688.0593"/>
</g>
<!-- Node27 -->
<g id="node20" class="node">
<title>Node27</title>
<g id="a_node20"><a xlink:href="namespacem__start__up.html#a1a6b2eb124c5710f9078ea787be5d650" target="_top" xlink:title="This subroutine verifies that the geometric parameters of the inactive patch remain unaltered by the ...">
<polygon fill="#ffffff" stroke="#000000" points="115.5,-757.5 115.5,-783.5 202.5,-783.5 202.5,-757.5 115.5,-757.5"/>
<text text-anchor="start" x="123.5" y="-773.1" font-family="Helvetica,sans-Serif" font-size="8.00" fill="#000000">m_start_up::s_check</text>
<text text-anchor="middle" x="159" y="-764.1" font-family="Helvetica,sans-Serif" font-size="8.00" fill="#000000">_inactive_patch_geometry</text>
</a>
</g>
</g>
<!-- Node8&#45;&gt;Node27 -->
<g id="edge35" class="edge">
<title>Node8&#45;&gt;Node27</title>
<path fill="none" stroke="#191970" d="M50.7825,-687.6204C64.103,-705.4316 85.0712,-730.6445 108,-747.5 113.0868,-751.2394 118.8784,-754.5627 124.6888,-757.4401"/>
<polygon fill="#191970" stroke="#191970" points="53.6064,-685.5526 44.8826,-679.5404 47.9531,-689.6806 53.6064,-685.5526"/>
</g>
<!-- Node28 -->
<g id="node21" class="node">
<title>Node28</title>
<g id="a_node21"><a xlink:href="namespacem__start__up.html#ada150cf67ef5f91529ac7eda46ad5492" target="_top" xlink:title="This subroutine verifies that any rights granted to the given active patch, to overwrite the precedin...">
<polygon fill="#ffffff" stroke="#000000" points="118,-703 118,-738 200,-738 200,-703 118,-703"/>
<text text-anchor="start" x="126" y="-727.6" font-family="Helvetica,sans-Serif" font-size="8.00" fill="#000000">m_start_up::s_check</text>
<text text-anchor="start" x="126" y="-718.6" font-family="Helvetica,sans-Serif" font-size="8.00" fill="#000000">_active_patch_alteration</text>
<text text-anchor="middle" x="159" y="-709.6" font-family="Helvetica,sans-Serif" font-size="8.00" fill="#000000">_rights</text>
</a>
</g>
</g>
<!-- Node8&#45;&gt;Node28 -->
<g id="edge37" class="edge">
<title>Node8&#45;&gt;Node28</title>
<path fill="none" stroke="#191970" d="M75.1028,-683.6671C89.0488,-689.7897 104.7745,-696.6937 118.8103,-702.8557"/>
<polygon fill="#191970" stroke="#191970" points="76.3383,-680.3871 65.7749,-679.5719 73.5243,-686.7966 76.3383,-680.3871"/>
</g>
<!-- Node29 -->
<g id="node22" class="node">
<title>Node29</title>
<g id="a_node22"><a xlink:href="namespacem__start__up.html#a3bf3a6bd18c4f5c2e4aefec6ad9664d8" target="_top" xlink:title="This subroutine verifies that the rights of the given inactive patch, to overwrite the preceding patc...">
<polygon fill="#ffffff" stroke="#000000" points="116,-649 116,-684 202,-684 202,-649 116,-649"/>
<text text-anchor="start" x="124" y="-673.6" font-family="Helvetica,sans-Serif" font-size="8.00" fill="#000000">m_start_up::s_check</text>
<text text-anchor="start" x="124" y="-664.6" font-family="Helvetica,sans-Serif" font-size="8.00" fill="#000000">_inactive_patch_alteration</text>
<text text-anchor="middle" x="159" y="-655.6" font-family="Helvetica,sans-Serif" font-size="8.00" fill="#000000">_rights</text>
</a>
</g>
</g>
<!-- Node8&#45;&gt;Node29 -->
<g id="edge39" class="edge">
<title>Node8&#45;&gt;Node29</title>
<path fill="none" stroke="#191970" d="M82.4271,-666.5C93.3189,-666.5 104.8829,-666.5 115.6348,-666.5"/>
<polygon fill="#191970" stroke="#191970" points="82.2388,-663.0001 72.2388,-666.5 82.2388,-670.0001 82.2388,-663.0001"/>
</g>
<!-- Node30 -->
<g id="node23" class="node">
<title>Node30</title>
<g id="a_node23"><a xlink:href="namespacem__start__up.html#a06fc233527470088dcf63425fc758b8c" target="_top" xlink:title="This subroutine verifies that the smoothing parameters of the given patch, which supports the smoothi...">
<polygon fill="#ffffff" stroke="#000000" points="111,-603.5 111,-629.5 207,-629.5 207,-603.5 111,-603.5"/>
<text text-anchor="start" x="119" y="-619.1" font-family="Helvetica,sans-Serif" font-size="8.00" fill="#000000">m_start_up::s_check</text>
<text text-anchor="middle" x="159" y="-610.1" font-family="Helvetica,sans-Serif" font-size="8.00" fill="#000000">_supported_patch_smoothing</text>
</a>
</g>
</g>
<!-- Node8&#45;&gt;Node30 -->
<g id="edge41" class="edge">
<title>Node8&#45;&gt;Node30</title>
<path fill="none" stroke="#191970" d="M77.6682,-649.5617C93.6926,-643.0477 111.7287,-635.716 126.7372,-629.615"/>
<polygon fill="#191970" stroke="#191970" points="75.9415,-646.4854 67.9957,-653.4936 78.5776,-652.9701 75.9415,-646.4854"/>
</g>
<!-- Node31 -->
<g id="node24" class="node">
<title>Node31</title>
<g id="a_node24"><a xlink:href="namespacem__start__up.html#a9ec1a8955422d87dddd1ad55f99fb9b8" target="_top" xlink:title="This subroutine verifies that the smoothing parameters of the given patch, which does not support the...">
<polygon fill="#ffffff" stroke="#000000" points="108,-558.5 108,-584.5 210,-584.5 210,-558.5 108,-558.5"/>
<text text-anchor="start" x="116" y="-574.1" font-family="Helvetica,sans-Serif" font-size="8.00" fill="#000000">m_start_up::s_check</text>
<text text-anchor="middle" x="159" y="-565.1" font-family="Helvetica,sans-Serif" font-size="8.00" fill="#000000">_unsupported_patch_smoothing</text>
</a>
</g>
</g>
<!-- Node8&#45;&gt;Node31 -->
<g id="edge43" class="edge">
<title>Node8&#45;&gt;Node31</title>
<path fill="none" stroke="#191970" d="M53.4187,-645.3401C67.0501,-629.7775 87.1376,-608.912 108,-594.5 113.3543,-590.8012 119.3993,-587.4631 125.4067,-584.5502"/>
<polygon fill="#191970" stroke="#191970" points="50.3919,-643.4937 46.5459,-653.3658 55.7088,-648.0468 50.3919,-643.4937"/>
</g>
<!-- Node32 -->
<g id="node25" class="node">
<title>Node32</title>
<g id="a_node25"><a xlink:href="namespacem__start__up.html#a2650f87062992def80eb084ff2c0913b" target="_top" xlink:title="This subroutine verifies that the primitive variables associated with the given active patch are phys...">
<polygon fill="#ffffff" stroke="#000000" points="119.5,-504 119.5,-539 198.5,-539 198.5,-504 119.5,-504"/>
<text text-anchor="start" x="127.5" y="-528.6" font-family="Helvetica,sans-Serif" font-size="8.00" fill="#000000">m_start_up::s_check</text>
<text text-anchor="start" x="127.5" y="-519.6" font-family="Helvetica,sans-Serif" font-size="8.00" fill="#000000">_active_patch_primitive</text>
<text text-anchor="middle" x="159" y="-510.6" font-family="Helvetica,sans-Serif" font-size="8.00" fill="#000000">_variables</text>
</a>
</g>
</g>
<!-- Node8&#45;&gt;Node32 -->
<g id="edge45" class="edge">
<title>Node8&#45;&gt;Node32</title>
<path fill="none" stroke="#191970" d="M45.44,-644.2003C57.1059,-618.7459 79.0195,-577.0785 108,-549.5 112.0244,-545.6702 116.6737,-542.1937 121.4935,-539.0953"/>
<polygon fill="#191970" stroke="#191970" points="42.2102,-642.8497 41.3435,-653.409 48.6059,-645.6949 42.2102,-642.8497"/>
</g>
<!-- Node33 -->
<g id="node26" class="node">
<title>Node33</title>
<g id="a_node26"><a xlink:href="namespacem__start__up.html#a3242a22615c7f69033b53d51df04ad02" target="_top" xlink:title="This subroutine verifies that the primitive variables associated with the given inactive patch remain...">
<polygon fill="#ffffff" stroke="#000000" points="117,-450 117,-485 201,-485 201,-450 117,-450"/>
<text text-anchor="start" x="125" y="-474.6" font-family="Helvetica,sans-Serif" font-size="8.00" fill="#000000">m_start_up::s_check</text>
<text text-anchor="start" x="125" y="-465.6" font-family="Helvetica,sans-Serif" font-size="8.00" fill="#000000">_inactive_patch_primitive</text>
<text text-anchor="middle" x="159" y="-456.6" font-family="Helvetica,sans-Serif" font-size="8.00" fill="#000000">_variables</text>
</a>
</g>
</g>
<!-- Node8&#45;&gt;Node33 -->
<g id="edge47" class="edge">
<title>Node8&#45;&gt;Node33</title>
<path fill="none" stroke="#191970" d="M40.4706,-643.2252C48.4091,-607.3852 68.0338,-538.2554 108,-494.5 111.1756,-491.0233 114.9042,-487.9132 118.8757,-485.1521"/>
<polygon fill="#191970" stroke="#191970" points="37.0029,-642.7083 38.3726,-653.2143 43.8534,-644.1472 37.0029,-642.7083"/>
</g>
<!-- Node34 -->
<g id="node27" class="node">
<title>Node34</title>
<g id="a_node27"><a xlink:href="namespacem__start__up.html#ac2be28e53607458a3860b03446ed6497" target="_top" xlink:title="The goal of this subroutine is to read in any preexisting grid data as well as based on the imported ...">
<polygon fill="#ffffff" stroke="#000000" points="120.5,-177.5 120.5,-203.5 197.5,-203.5 197.5,-177.5 120.5,-177.5"/>
<text text-anchor="start" x="128.5" y="-193.1" font-family="Helvetica,sans-Serif" font-size="8.00" fill="#000000">m_start_up::s_read</text>
<text text-anchor="middle" x="159" y="-184.1" font-family="Helvetica,sans-Serif" font-size="8.00" fill="#000000">_serial_grid_data_files</text>
</a>
</g>
</g>
<!-- Node8&#45;&gt;Node34 -->
<g id="edge49" class="edge">
<title>Node8&#45;&gt;Node34</title>
<path fill="none" stroke="#191970" d="M36.8507,-642.9713C40.2815,-559.972 55.5417,-282.1665 108,-213.5 111.302,-209.1777 115.5998,-205.6459 120.2998,-202.7655"/>
<polygon fill="#191970" stroke="#191970" points="33.3465,-643.0125 36.4502,-653.1425 40.3411,-643.288 33.3465,-643.0125"/>
</g>
<!-- Node36 -->
<g id="node29" class="node">
<title>Node36</title>
<g id="a_node29"><a xlink:href="namespacem__start__up.html#a1d2e9e9354b18d2aab09e673b04032ef" target="_top" xlink:title="Cell&#45;boundary data are checked for consistency by looking at the (non&#45;)uniform cell&#45;width distributio...">
<polygon fill="#ffffff" stroke="#000000" points="249,-.5 249,-26.5 321,-26.5 321,-.5 249,-.5"/>
<text text-anchor="start" x="257" y="-16.1" font-family="Helvetica,sans-Serif" font-size="8.00" fill="#000000">m_start_up::s_check</text>
<text text-anchor="middle" x="285" y="-7.1" font-family="Helvetica,sans-Serif" font-size="8.00" fill="#000000">_grid_data_files</text>
</a>
</g>
</g>
<!-- Node8&#45;&gt;Node36 -->
<g id="edge53" class="edge">
<title>Node8&#45;&gt;Node36</title>
<path fill="none" stroke="#191970" d="M36.9501,-643.1987C41.6233,-534.0151 63.749,-76.4799 108,-32.5 144.6075,3.8833 208.7764,.8832 248.9693,-5.6002"/>
<polygon fill="#191970" stroke="#191970" points="33.4424,-643.3098 36.5193,-653.4479 40.4362,-643.6038 33.4424,-643.3098"/>
</g>
<!-- Node37 -->
<g id="node30" class="node">
<title>Node37</title>
<g id="a_node30"><a xlink:href="namespacem__start__up.html#a88f1f355d8aeecb6cd47653ed285cfa2" target="_top" xlink:title="The goal of this subroutine is to read in any preexisting initial condition data files so that they m...">
<polygon fill="#ffffff" stroke="#000000" points="123.5,-132.5 123.5,-158.5 194.5,-158.5 194.5,-132.5 123.5,-132.5"/>
<text text-anchor="start" x="131.5" y="-148.1" font-family="Helvetica,sans-Serif" font-size="8.00" fill="#000000">m_start_up::s_read</text>
<text text-anchor="middle" x="159" y="-139.1" font-family="Helvetica,sans-Serif" font-size="8.00" fill="#000000">_serial_ic_data_files</text>
</a>
</g>
</g>
<!-- Node8&#45;&gt;Node37 -->
<g id="edge55" class="edge">
<title>Node8&#45;&gt;Node37</title>
<path fill="none" stroke="#191970" d="M36.4678,-643.2415C38.6634,-555.4018 50.4309,-244.9631 108,-168.5 111.9727,-163.2235 117.4332,-159.1274 123.311,-155.9568"/>
<polygon fill="#191970" stroke="#191970" points="32.9685,-643.1765 36.2358,-653.2549 39.9666,-643.3387 32.9685,-643.1765"/>
</g>
<!-- Node38 -->
<g id="node31" class="node">
<title>Node38</title>
<g id="a_node31"><a xlink:href="namespacem__start__up.html#aaaad3d18eef01d1d8387e34a8b7d33ac" target="_top" xlink:title="Cell&#45;boundary data are checked for consistency by looking at the (non&#45;)uniform cell&#45;width distributio...">
<polygon fill="#ffffff" stroke="#000000" points="118,-87.5 118,-113.5 200,-113.5 200,-87.5 118,-87.5"/>
<text text-anchor="start" x="126" y="-103.1" font-family="Helvetica,sans-Serif" font-size="8.00" fill="#000000">m_start_up::s_read</text>
<text text-anchor="middle" x="159" y="-94.1" font-family="Helvetica,sans-Serif" font-size="8.00" fill="#000000">_parallel_grid_data_files</text>
</a>
</g>
</g>
<!-- Node8&#45;&gt;Node38 -->
<g id="edge58" class="edge">
<title>Node8&#45;&gt;Node38</title>
<path fill="none" stroke="#191970" d="M37.7372,-643.4419C45.3019,-545.3677 76.4084,-165.9772 108,-123.5 110.8982,-119.6031 114.6098,-116.3511 118.7065,-113.6407"/>
<polygon fill="#191970" stroke="#191970" points="34.2414,-643.2544 36.9688,-653.4922 41.2211,-643.7881 34.2414,-643.2544"/>
</g>
<!-- Node39 -->
<g id="node32" class="node">
<title>Node39</title>
<g id="a_node32"><a xlink:href="namespacem__start__up.html#a25daee88d75c57908efa6e3e0516fb28" target="_top" xlink:title="The goal of this subroutine is to read in any preexisting initial condition data files so that they m...">
<polygon fill="#ffffff" stroke="#000000" points="121,-42.5 121,-68.5 197,-68.5 197,-42.5 121,-42.5"/>
<text text-anchor="start" x="129" y="-58.1" font-family="Helvetica,sans-Serif" font-size="8.00" fill="#000000">m_start_up::s_read</text>
<text text-anchor="middle" x="159" y="-49.1" font-family="Helvetica,sans-Serif" font-size="8.00" fill="#000000">_parallel_ic_data_files</text>
</a>
</g>
</g>
<!-- Node8&#45;&gt;Node39 -->
<g id="edge61" class="edge">
<title>Node8&#45;&gt;Node39</title>
<path fill="none" stroke="#191970" d="M37.5065,-643.2124C44.3775,-539.7577 73.8823,-124.8552 108,-78.5 111.3969,-73.8847 115.9369,-70.1751 120.9128,-67.1989"/>
<polygon fill="#191970" stroke="#191970" points="33.9939,-643.2901 36.8301,-653.4982 40.9788,-643.7495 33.9939,-643.2901"/>
</g>
<!-- Node10 -->
<g id="node3" class="node">
<title>Node10</title>
<g id="a_node3"><a xlink:href="p__main_8f90.html#aeec10ee8e2940c953967da3e374e1579" target="_top" xlink:title="This program takes care of setting up the initial condition and grid data for the multicomponent flow...">
<polygon fill="#ffffff" stroke="#000000" points="360,-148 360,-165 396,-165 396,-148 360,-148"/>
<text text-anchor="middle" x="378" y="-154.6" font-family="Helvetica,sans-Serif" font-size="8.00" fill="#000000">p_main</text>
</a>
</g>
</g>
<!-- Node9&#45;&gt;Node10 -->
<g id="edge2" class="edge">
<title>Node9&#45;&gt;Node10</title>
<path fill="none" stroke="#191970" d="M288.1788,-1061.0413C295.2162,-1008.6465 312.4054,-878.0955 324,-768.5 350.0343,-522.4156 373.231,-219.7303 377.3516,-165.1396"/>
<polygon fill="#191970" stroke="#191970" points="284.6669,-1060.8953 286.7998,-1071.2732 291.6042,-1061.8303 284.6669,-1060.8953"/>
</g>
<!-- Node11&#45;&gt;Node10 -->
<g id="edge4" class="edge">
<title>Node11&#45;&gt;Node10</title>
<path fill="none" stroke="#191970" d="M288.6502,-722.3822C304.4623,-622.2386 366.6974,-228.0832 376.6534,-165.0284"/>
<polygon fill="#191970" stroke="#191970" points="285.1754,-721.9485 287.0728,-732.3721 292.0897,-723.0403 285.1754,-721.9485"/>
</g>
<!-- Node12&#45;&gt;Node11 -->
<g id="edge6" class="edge">
<title>Node12&#45;&gt;Node11</title>
<path fill="none" stroke="#191970" d="M203.2648,-399.7363C205.7586,-402.1373 208.0417,-404.7241 210,-407.5 248.5482,-462.1409 276.7442,-677.1276 283.4635,-732.4579"/>
<polygon fill="#191970" stroke="#191970" points="205.1929,-396.7877 195.2652,-393.0874 200.7185,-402.171 205.1929,-396.7877"/>
</g>
<!-- Node13&#45;&gt;Node11 -->
<g id="edge8" class="edge">
<title>Node13&#45;&gt;Node11</title>
<path fill="none" stroke="#191970" d="M206.9702,-345.0994C208.0471,-346.175 209.0612,-347.3075 210,-348.5 258.8118,-410.5024 279.7573,-670.1893 284.1143,-732.173"/>
<polygon fill="#191970" stroke="#191970" points="209.0843,-342.3085 199.0879,-338.798 204.7133,-347.7761 209.0843,-342.3085"/>
</g>
<!-- Node14&#45;&gt;Node11 -->
<g id="edge10" class="edge">
<title>Node14&#45;&gt;Node11</title>
<path fill="none" stroke="#191970" d="M206.9997,-300.0764C208.068,-301.1586 209.0724,-302.2988 210,-303.5 263.9957,-373.4178 281.2037,-666.8722 284.4094,-732.4607"/>
<polygon fill="#191970" stroke="#191970" points="209.1363,-297.3031 199.1572,-293.744 204.7388,-302.7494 209.1363,-297.3031"/>
</g>
<!-- Node15&#45;&gt;Node11 -->
<g id="edge12" class="edge">
<title>Node15&#45;&gt;Node11</title>
<path fill="none" stroke="#191970" d="M207.024,-255.0578C208.0853,-256.1454 209.0816,-257.2918 210,-258.5 269.0161,-336.1375 282.4007,-661.7779 284.6226,-732.0829"/>
<polygon fill="#191970" stroke="#191970" points="209.1793,-252.2991 199.2144,-248.7001 204.7599,-257.7278 209.1793,-252.2991"/>
</g>
<!-- Node16&#45;&gt;Node11 -->
<g id="edge14" class="edge">
<title>Node16&#45;&gt;Node11</title>
<path fill="none" stroke="#191970" d="M207.0494,-1292.9613C208.1033,-1291.8682 209.0912,-1290.7154 210,-1289.5 218.2785,-1278.4289 273.1489,-840.6429 283.3643,-758.6554"/>
<polygon fill="#191970" stroke="#191970" points="204.7821,-1290.2943 199.2739,-1299.3447 209.2238,-1295.7046 204.7821,-1290.2943"/>
</g>
<!-- Node17&#45;&gt;Node11 -->
<g id="edge16" class="edge">
<title>Node17&#45;&gt;Node11</title>
<path fill="none" stroke="#191970" d="M208.2369,-1237.7956C208.8527,-1237.051 209.4414,-1236.286 210,-1235.5 224.3648,-1215.2886 273.6645,-834.2289 283.3434,-758.5152"/>
<polygon fill="#191970" stroke="#191970" points="205.5196,-1235.5533 200.7442,-1245.0109 210.3752,-1240.5955 205.5196,-1235.5533"/>
</g>
<!-- Node18&#45;&gt;Node11 -->
<g id="edge18" class="edge">
<title>Node18&#45;&gt;Node11</title>
<path fill="none" stroke="#191970" d="M203.9394,-1188.2155C206.1856,-1186.1677 208.2363,-1183.9336 210,-1181.5 235.6906,-1146.0509 275.1108,-827.9047 283.4266,-758.7343"/>
<polygon fill="#191970" stroke="#191970" points="201.5334,-1185.6475 195.6819,-1194.4798 205.7642,-1191.2243 201.5334,-1185.6475"/>
</g>
<!-- Node19&#45;&gt;Node11 -->
<g id="edge20" class="edge">
<title>Node19&#45;&gt;Node11</title>
<path fill="none" stroke="#191970" d="M203.8727,-1134.1666C206.1353,-1132.1308 208.2078,-1129.9127 210,-1127.5 255.2381,-1066.5986 278.8113,-818.7367 283.9276,-758.6615"/>
<polygon fill="#191970" stroke="#191970" points="201.4672,-1131.5964 195.5793,-1140.4046 205.6749,-1137.1906 201.4672,-1131.5964"/>
</g>
<!-- Node20&#45;&gt;Node11 -->
<g id="edge22" class="edge">
<title>Node20&#45;&gt;Node11</title>
<path fill="none" stroke="#191970" d="M203.8929,-1080.0063C206.1354,-1078.0126 208.1993,-1075.8475 210,-1073.5 249.464,-1022.0532 276.8837,-813.1738 283.4709,-758.5977"/>
<polygon fill="#191970" stroke="#191970" points="201.6096,-1077.3436 195.704,-1086.1399 205.806,-1082.9463 201.6096,-1077.3436"/>
</g>
<!-- Node21&#45;&gt;Node11 -->
<g id="edge24" class="edge">
<title>Node21&#45;&gt;Node11</title>
<path fill="none" stroke="#191970" d="M206.299,-1031.3254C207.6151,-1030.1232 208.8552,-1028.8494 210,-1027.5 245.8864,-985.1985 275.2604,-808.8971 283.0017,-758.8186"/>
<polygon fill="#191970" stroke="#191970" points="203.9969,-1028.6758 198.0651,-1037.4544 208.1767,-1034.2909 203.9969,-1028.6758"/>
</g>
<!-- Node22&#45;&gt;Node11 -->
<g id="edge26" class="edge">
<title>Node22&#45;&gt;Node11</title>
<path fill="none" stroke="#191970" d="M203.5314,-979.8963C205.8776,-977.9266 208.0618,-975.7971 210,-973.5 266.2958,-906.7781 280.6796,-796.5668 284.0476,-758.7305"/>
<polygon fill="#191970" stroke="#191970" points="201.1321,-977.3105 195.0539,-985.9884 205.2171,-982.995 201.1321,-977.3105"/>
</g>
<!-- Node23&#45;&gt;Node11 -->
<g id="edge28" class="edge">
<title>Node23&#45;&gt;Node11</title>
<path fill="none" stroke="#191970" d="M206.6612,-931.5795C207.8277,-930.6009 208.9444,-929.5751 210,-928.5 259.0737,-878.52 277.5619,-791.9888 283.048,-758.8977"/>
<polygon fill="#191970" stroke="#191970" points="204.5581,-928.7791 198.3616,-937.3729 208.5649,-934.519 204.5581,-928.7791"/>
</g>
<!-- Node24&#45;&gt;Node11 -->
<g id="edge30" class="edge">
<title>Node24&#45;&gt;Node11</title>
<path fill="none" stroke="#191970" d="M205.9044,-886.8848C207.3319,-885.8123 208.7028,-884.6847 210,-883.5 249.4635,-847.458 272.4621,-785.7122 281.075,-758.7488"/>
<polygon fill="#191970" stroke="#191970" points="203.7628,-884.1 197.2285,-892.44 207.5375,-889.9951 203.7628,-884.1"/>
</g>
<!-- Node25&#45;&gt;Node11 -->
<g id="edge32" class="edge">
<title>Node25&#45;&gt;Node11</title>
<path fill="none" stroke="#191970" d="M204.3089,-842.4242C206.2826,-841.1823 208.1908,-839.8745 210,-838.5 240.0595,-815.6631 265.2855,-778.2922 277.3577,-758.5954"/>
<polygon fill="#191970" stroke="#191970" points="202.3544,-839.5072 195.3405,-847.4479 205.7755,-845.6144 202.3544,-839.5072"/>
</g>
<!-- Node26&#45;&gt;Node11 -->
<g id="edge34" class="edge">
<title>Node26&#45;&gt;Node11</title>
<path fill="none" stroke="#191970" d="M200.5801,-798.2361C203.7975,-796.6964 206.9702,-795.1094 210,-793.5 229.9328,-782.912 251.524,-768.7886 266.3987,-758.6062"/>
<polygon fill="#191970" stroke="#191970" points="199.0946,-795.0668 191.4762,-802.4295 202.0233,-801.4248 199.0946,-795.0668"/>
</g>
<!-- Node27&#45;&gt;Node11 -->
<g id="edge36" class="edge">
<title>Node27&#45;&gt;Node11</title>
<path fill="none" stroke="#191970" d="M212.7964,-759.8261C224.9785,-757.409 237.6297,-754.8989 248.875,-752.6677"/>
<polygon fill="#191970" stroke="#191970" points="211.8427,-756.447 202.7151,-761.8264 213.2051,-763.3132 211.8427,-756.447"/>
</g>
<!-- Node28&#45;&gt;Node11 -->
<g id="edge38" class="edge">
<title>Node28&#45;&gt;Node11</title>
<path fill="none" stroke="#191970" d="M210.3875,-730.6959C223.2516,-733.2483 236.7848,-735.9335 248.7405,-738.3056"/>
<polygon fill="#191970" stroke="#191970" points="210.7471,-727.1991 200.2571,-728.6859 209.3847,-734.0653 210.7471,-727.1991"/>
</g>
<!-- Node29&#45;&gt;Node11 -->
<g id="edge40" class="edge">
<title>Node29&#45;&gt;Node11</title>
<path fill="none" stroke="#191970" d="M202.44,-689.04C205.0158,-690.5179 207.5527,-692.0111 210,-693.5 230.304,-705.8528 252.5635,-721.5825 267.516,-732.4907"/>
<polygon fill="#191970" stroke="#191970" points="204.042,-685.9259 193.6052,-684.1026 200.627,-692.0364 204.042,-685.9259"/>
</g>
<!-- Node30&#45;&gt;Node11 -->
<g id="edge42" class="edge">
<title>Node30&#45;&gt;Node11</title>
<path fill="none" stroke="#191970" d="M203.5285,-634.7618C205.7922,-636.2455 207.967,-637.8243 210,-639.5 242.5303,-666.3127 267.5547,-710.5137 278.6812,-732.3929"/>
<polygon fill="#191970" stroke="#191970" points="204.8752,-631.4968 194.4688,-629.5075 201.3633,-637.5522 204.8752,-631.4968"/>
</g>
<!-- Node31&#45;&gt;Node11 -->
<g id="edge44" class="edge">
<title>Node31&#45;&gt;Node11</title>
<path fill="none" stroke="#191970" d="M204.8036,-590.0968C206.6362,-591.4732 208.3802,-592.9396 210,-594.5 251.9497,-634.9124 274.0005,-703.7399 281.7403,-732.3862"/>
<polygon fill="#191970" stroke="#191970" points="206.6144,-587.0999 196.3129,-584.624 202.822,-592.9836 206.6144,-587.0999"/>
</g>
<!-- Node32&#45;&gt;Node11 -->
<g id="edge46" class="edge">
<title>Node32&#45;&gt;Node11</title>
<path fill="none" stroke="#191970" d="M206.2858,-545.6496C207.5927,-546.8821 208.8362,-548.1653 210,-549.5 259.3247,-606.07 277.8316,-698.512 283.1793,-732.4641"/>
<polygon fill="#191970" stroke="#191970" points="208.201,-542.6975 198.2214,-539.1395 203.804,-548.1443 208.201,-542.6975"/>
</g>
<!-- Node33&#45;&gt;Node11 -->
<g id="edge48" class="edge">
<title>Node33&#45;&gt;Node11</title>
<path fill="none" stroke="#191970" d="M207.3989,-491.5902C208.3085,-492.5283 209.1778,-493.498 210,-494.5 271.1598,-569.0379 282.458,-692.2559 284.535,-732.4102"/>
<polygon fill="#191970" stroke="#191970" points="209.6126,-488.8776 199.7505,-485.0059 205.0456,-494.1826 209.6126,-488.8776"/>
</g>
<!-- Node34&#45;&gt;Node10 -->
<g id="edge52" class="edge">
<title>Node34&#45;&gt;Node10</title>
<path fill="none" stroke="#191970" d="M207.9376,-187.4738C240.9548,-184.8677 285.3798,-180.2627 324,-172.5 336.0785,-170.0722 349.3487,-166.1583 359.7114,-162.8093"/>
<polygon fill="#191970" stroke="#191970" points="207.3485,-184.0082 197.6403,-188.2511 207.8755,-190.9883 207.3485,-184.0082"/>
</g>
<!-- Node35 -->
<g id="node28" class="node">
<title>Node35</title>
<g id="a_node28"><a xlink:href="namespacem__start__up.html#a37202711d89d04cd18f08170ba608aa1" target="_top" xlink:title="m_start_up::s_initialize\l_start_up_module">
<polygon fill="#ffffff" stroke="#000000" points="246,-122.5 246,-148.5 324,-148.5 324,-122.5 246,-122.5"/>
<text text-anchor="start" x="254" y="-138.1" font-family="Helvetica,sans-Serif" font-size="8.00" fill="#000000">m_start_up::s_initialize</text>
<text text-anchor="middle" x="285" y="-129.1" font-family="Helvetica,sans-Serif" font-size="8.00" fill="#000000">_start_up_module</text>
</a>
</g>
</g>
<!-- Node34&#45;&gt;Node35 -->
<g id="edge50" class="edge">
<title>Node34&#45;&gt;Node35</title>
<path fill="none" stroke="#191970" d="M198.8207,-173.3555C202.6009,-171.718 206.3741,-170.0797 210,-168.5 224.9977,-161.9658 241.6558,-154.6428 255.4559,-148.5584"/>
<polygon fill="#191970" stroke="#191970" points="197.279,-170.2088 189.4896,-177.3904 200.0574,-176.6339 197.279,-170.2088"/>
</g>
<!-- Node35&#45;&gt;Node10 -->
<g id="edge51" class="edge">
<title>Node35&#45;&gt;Node10</title>
<path fill="none" stroke="#191970" d="M334.0631,-146.5788C343.1933,-148.6404 352.1914,-150.6722 359.6435,-152.355"/>
<polygon fill="#191970" stroke="#191970" points="334.6962,-143.1337 324.1708,-144.345 333.1543,-149.9618 334.6962,-143.1337"/>
</g>
<!-- Node36&#45;&gt;Node10 -->
<g id="edge54" class="edge">
<title>Node36&#45;&gt;Node10</title>
<path fill="none" stroke="#191970" d="M315.3109,-32.802C318.4572,-35.5011 321.4357,-38.4154 324,-41.5 352.4831,-75.7614 369.6378,-127.5553 375.6075,-147.8814"/>
<polygon fill="#191970" stroke="#191970" points="317.3277,-29.9366 307.2848,-26.5616 313.0311,-35.4628 317.3277,-29.9366"/>
</g>
<!-- Node37&#45;&gt;Node10 -->
<g id="edge57" class="edge">
<title>Node37&#45;&gt;Node10</title>
<path fill="none" stroke="#191970" d="M205.0979,-153.6893C218.2654,-155.6743 232.6608,-157.5089 246,-158.5 280.5714,-161.0687 289.3393,-159.1416 324,-158.5 335.8186,-158.2812 349.0847,-157.7933 359.5103,-157.3542"/>
<polygon fill="#191970" stroke="#191970" points="205.2668,-150.173 194.8447,-152.0784 204.1803,-157.0882 205.2668,-150.173"/>
</g>
<!-- Node37&#45;&gt;Node35 -->
<g id="edge56" class="edge">
<title>Node37&#45;&gt;Node35</title>
<path fill="none" stroke="#191970" d="M204.7432,-141.8696C218.131,-140.8071 232.6454,-139.6551 245.6026,-138.6268"/>
<polygon fill="#191970" stroke="#191970" points="204.4612,-138.3809 194.7695,-142.6611 205.0151,-145.3589 204.4612,-138.3809"/>
</g>
<!-- Node38&#45;&gt;Node10 -->
<g id="edge60" class="edge">
<title>Node38&#45;&gt;Node10</title>
<path fill="none" stroke="#191970" d="M210.1928,-96.9369C243.6851,-96.4144 287.7824,-99.2207 324,-113.5 342.9532,-120.9726 360.5471,-137.4827 370.229,-147.7322"/>
<polygon fill="#191970" stroke="#191970" points="210.0656,-93.4389 200.1596,-97.1968 210.247,-100.4365 210.0656,-93.4389"/>
</g>
<!-- Node38&#45;&gt;Node35 -->
<g id="edge59" class="edge">
<title>Node38&#45;&gt;Node35</title>
<path fill="none" stroke="#191970" d="M210.0826,-114.6896C221.9915,-117.9976 234.49,-121.4694 245.7912,-124.6087"/>
<polygon fill="#191970" stroke="#191970" points="210.8291,-111.2645 200.2571,-111.9603 208.9555,-118.0091 210.8291,-111.2645"/>
</g>
<!-- Node39&#45;&gt;Node10 -->
<g id="edge63" class="edge">
<title>Node39&#45;&gt;Node10</title>
<path fill="none" stroke="#191970" d="M207.5657,-58.6297C242.1393,-62.7011 288.5606,-72.0507 324,-93.5 346.6763,-107.2246 364.6519,-133.766 372.9694,-147.6099"/>
<polygon fill="#191970" stroke="#191970" points="207.5565,-55.109 197.2416,-57.5281 206.8137,-62.0694 207.5565,-55.109"/>
</g>
<!-- Node39&#45;&gt;Node35 -->
<g id="edge62" class="edge">
<title>Node39&#45;&gt;Node35</title>
<path fill="none" stroke="#191970" d="M199.9948,-72.9895C203.4301,-74.7546 206.8073,-76.6002 210,-78.5 232.0655,-91.63 255.2749,-110.0938 269.9259,-122.4107"/>
<polygon fill="#191970" stroke="#191970" points="201.3741,-69.768 190.8527,-68.5231 198.3013,-76.0576 201.3741,-69.768"/>
</g>
</g>
</svg>
