<?xml version="1.0" encoding="UTF-8" standalone="no"?>
<!DOCTYPE svg PUBLIC "-//W3C//DTD SVG 1.1//EN"
 "http://www.w3.org/Graphics/SVG/1.1/DTD/svg11.dtd">
<!-- Generated by graphviz version 2.43.0 (0)
 -->
<!-- Title: m_data_output::s_write_parallel_data_files Pages: 1 -->
<!--zoomable 278 -->

<svg id="main" version="1.1" xmlns="http://www.w3.org/2000/svg" xmlns:xlink="http://www.w3.org/1999/xlink" xml:space="preserve" onload="init(evt)">

<style type="text/css"><![CDATA[
.node, .edge {opacity: 0.7;}
.node.selected, .edge.selected {opacity: 1;}
.edge:hover path { stroke: red; }
.edge:hover polygon { stroke: red; fill: red; }
]]></style>

<defs>
  <circle id="rim" cx="0" cy="0" r="7"/>
  <circle id="rim2" cx="0" cy="0" r="3.5"/>
  <g id="zoomPlus">
    <use xlink:href="#rim" fill="#404040"><set attributeName="fill" to="#808080" begin="zoomplus.mouseover" end="zoomplus.mouseout"/></use>
    <path d="M-4,0h8M0,-4v8" fill="none" stroke="white" stroke-width="1.5" pointer-events="none"/>
  </g>
  <g id="zoomMin">
    <use xlink:href="#rim" fill="#404040"><set attributeName="fill" to="#808080" begin="zoomminus.mouseover" end="zoomminus.mouseout"/></use>
    <path d="M-4,0h8" fill="none" stroke="white" stroke-width="1.5" pointer-events="none"/>
  </g>
  <g id="arrowUp" transform="translate(30 24)">
    <use xlink:href="#rim"/>
    <path pointer-events="none" fill="none" stroke="white" stroke-width="1.5" d="M0,-3.0v7 M-2.5,-0.5L0,-3.0L2.5,-0.5"/>
  </g>
  <g id="arrowRight" transform="rotate(90) translate(36 -43)">
    <use xlink:href="#rim"/>
    <path pointer-events="none" fill="none" stroke="white" stroke-width="1.5" d="M0,-3.0v7 M-2.5,-0.5L0,-3.0L2.5,-0.5"/>
  </g>
  <g id="arrowDown" transform="rotate(180) translate(-30 -48)">
    <use xlink:href="#rim"/>
    <path pointer-events="none" fill="none" stroke="white" stroke-width="1.5" d="M0,-3.0v7 M-2.5,-0.5L0,-3.0L2.5,-0.5"/>
  </g>
  <g id="arrowLeft" transform="rotate(270) translate(-36 17)">
    <use xlink:href="#rim"/>
    <path pointer-events="none" fill="none" stroke="white" stroke-width="1.5" d="M0,-3.0v7 M-2.5,-0.5L0,-3.0L2.5,-0.5"/>
  </g>
  <g id="resetDef">
    <use xlink:href="#rim2" fill="#404040"><set attributeName="fill" to="#808080" begin="reset.mouseover" end="reset.mouseout"/></use>
  </g>
</defs>
<script type="application/ecmascript">
var viewWidth = 553;
var viewHeight = 278;
var sectionId = 'dynsection-3';
</script>
<script type="application/ecmascript" xlink:href="svg.min.js"/>
<svg id="graph" class="graph">
<g id="viewport">
<title>m_data_output::s_write_parallel_data_files</title>
<!-- Node1 -->
<g id="Node000001" class="node">
<title>Node1</title>
<g id="a_Node000001"><a xlink:title="Writes grid and initial condition data files in parallel to the &quot;0&quot; time&#45;step directory in the local ...">
<polygon fill="#999999" stroke="#666666" points="131,-152 0,-152 0,-122 131,-122 131,-152"/>
<text text-anchor="start" x="8" y="-140" font-family="Helvetica,sans-Serif" font-size="10.00">m_data_output::s_write</text>
<text text-anchor="middle" x="65.5" y="-129" font-family="Helvetica,sans-Serif" font-size="10.00">_parallel_data_files</text>
</a>
</g>
</g>
<!-- Node2 -->
<g id="Node000002" class="node">
<title>Node2</title>
<g id="a_Node000002"><a xlink:href="namespacem__delay__file__access.html#a9b90086a2cf6bbb569047c955d2e67fe" target="_top" xlink:title="Introduce a rank&#45;dependent busy&#45;wait delay to stagger parallel file access and reduce I/O contention.">
<polygon fill="white" stroke="#666666" points="525,-270 408,-270 408,-240 525,-240 525,-270"/>
<text text-anchor="start" x="416" y="-258" font-family="Helvetica,sans-Serif" font-size="10.00">m_delay_file_access</text>
<text text-anchor="middle" x="466.5" y="-247" font-family="Helvetica,sans-Serif" font-size="10.00">::delayfileaccess</text>
</a>
</g>
</g>
<!-- Node1&#45;&gt;Node2 -->
<g id="edge1_Node000001_Node000002" class="edge">
<title>Node1&#45;&gt;Node2</title>
<g id="a_edge1_Node000001_Node000002"><a xlink:title=" ">
<path fill="none" stroke="#63b8ff" d="M82.46,-152.15C101.16,-168.95 133.81,-195.46 167,-209 242.2,-239.67 335.66,-250.07 397.77,-253.49"/>
<polygon fill="#63b8ff" stroke="#63b8ff" points="397.68,-256.99 407.84,-254 398.03,-250 397.68,-256.99"/>
</a>
</g>
</g>
<!-- Node3 -->
<g id="Node000003" class="node">
<title>Node3</title>
<g id="a_Node000003"><a xlink:href="namespacem__compile__specific.html#a9cf8c029e502931415929734c03f340d" target="_top" xlink:title="Inquires on the existence of a directory.">
<polygon fill="white" stroke="#666666" points="523,-222 410,-222 410,-192 523,-192 523,-222"/>
<text text-anchor="start" x="418" y="-210" font-family="Helvetica,sans-Serif" font-size="10.00">m_compile_specific</text>
<text text-anchor="middle" x="466.5" y="-199" font-family="Helvetica,sans-Serif" font-size="10.00">::my_inquire</text>
</a>
</g>
</g>
<!-- Node1&#45;&gt;Node3 -->
<g id="edge2_Node000001_Node000003" class="edge">
<title>Node1&#45;&gt;Node3</title>
<g id="a_edge2_Node000001_Node000003"><a xlink:title=" ">
<path fill="none" stroke="#63b8ff" d="M92.85,-152.16C112.59,-162.73 140.63,-176.13 167,-183 245.12,-203.34 338.28,-207.84 399.51,-208.23"/>
<polygon fill="#63b8ff" stroke="#63b8ff" points="399.79,-211.73 409.8,-208.25 399.81,-204.73 399.79,-211.73"/>
</a>
</g>
</g>
<!-- Node4 -->
<g id="Node000004" class="node">
<title>Node4</title>
<g id="a_Node000004"><a xlink:href="namespacem__compile__specific.html#aa1b4e12a20e09147a215c3b5018484b0" target="_top" xlink:title="Create a directory and all its parents if it does not exist.">
<polygon fill="white" stroke="#666666" points="523,-78 410,-78 410,-48 523,-48 523,-78"/>
<text text-anchor="start" x="418" y="-66" font-family="Helvetica,sans-Serif" font-size="10.00">m_compile_specific</text>
<text text-anchor="middle" x="466.5" y="-55" font-family="Helvetica,sans-Serif" font-size="10.00">::s_create_directory</text>
</a>
</g>
</g>
<!-- Node1&#45;&gt;Node4 -->
<g id="edge3_Node000001_Node000004" class="edge">
<title>Node1&#45;&gt;Node4</title>
<g id="a_edge3_Node000001_Node000004"><a xlink:title=" ">
<path fill="none" stroke="#63b8ff" d="M131.06,-130.79C189.25,-124.51 276.94,-113.4 352,-97 357.88,-95.72 382.08,-88.51 406.63,-81.06"/>
<polygon fill="#63b8ff" stroke="#63b8ff" points="407.84,-84.35 416.39,-78.09 405.8,-77.65 407.84,-84.35"/>
</a>
</g>
</g>
<!-- Node5 -->
<g id="Node000005" class="node">
<title>Node5</title>
<g id="a_Node000005"><a xlink:href="namespacem__helper.html#adf827c606652ea511bd0befcc9164c03" target="_top" xlink:title="Downsample conservative variable fields by a factor of 3 in each direction using volume averaging.">
<polygon fill="white" stroke="#666666" points="343.5,-87.5 175.5,-87.5 175.5,-68.5 343.5,-68.5 343.5,-87.5"/>
<text text-anchor="middle" x="259.5" y="-75.5" font-family="Helvetica,sans-Serif" font-size="10.00">m_helper::s_downsample_data</text>
</a>
</g>
</g>
<!-- Node1&#45;&gt;Node5 -->
<g id="edge4_Node000001_Node000005" class="edge">
<title>Node1&#45;&gt;Node5</title>
<g id="a_edge4_Node000001_Node000005"><a xlink:title=" ">
<path fill="none" stroke="#63b8ff" d="M107.33,-121.96C125.5,-115.49 147.21,-108.03 167,-102 180.65,-97.84 195.58,-93.74 209.34,-90.13"/>
<polygon fill="#63b8ff" stroke="#63b8ff" points="210.32,-93.5 219.13,-87.61 208.57,-86.72 210.32,-93.5"/>
</a>
</g>
</g>
<!-- Node6 -->
<g id="Node000006" class="node">
<title>Node6</title>
<g id="a_Node000006"><a xlink:href="namespacem__boundary__common.html#abfbb20311259fa39676228027f156929" target="_top" xlink:title="Populate the buffers of the primitive variables based on the selected boundary conditions.">
<polygon fill="white" stroke="#666666" points="325,-43.5 194,-43.5 194,-2.5 325,-2.5 325,-43.5"/>
<text text-anchor="start" x="202" y="-31.5" font-family="Helvetica,sans-Serif" font-size="10.00">m_boundary_common::</text>
<text text-anchor="start" x="202" y="-20.5" font-family="Helvetica,sans-Serif" font-size="10.00">s_populate_variables</text>
<text text-anchor="middle" x="259.5" y="-9.5" font-family="Helvetica,sans-Serif" font-size="10.00">_buffers</text>
</a>
</g>
</g>
<!-- Node1&#45;&gt;Node6 -->
<g id="edge5_Node000001_Node000006" class="edge">
<title>Node1&#45;&gt;Node6</title>
<g id="a_edge5_Node000001_Node000006"><a xlink:title=" ">
<path fill="none" stroke="#63b8ff" d="M82.87,-121.89C101.94,-104.88 134.94,-77.24 167,-59 174.07,-54.98 181.67,-51.21 189.37,-47.73"/>
<polygon fill="#63b8ff" stroke="#63b8ff" points="191,-50.84 198.78,-43.64 188.21,-44.42 191,-50.84"/>
</a>
</g>
</g>
<!-- Node8 -->
<g id="Node000008" class="node">
<title>Node8</title>
<g id="a_Node000008"><a xlink:href="namespacem__boundary__io.html#a1b6a5f4b89c0cc5313f8f448ce1a9b2c" target="_top" xlink:title="Write boundary condition type and buffer data to per&#45;rank parallel files using MPI I/O.">
<polygon fill="white" stroke="#666666" points="352,-174 167,-174 167,-144 352,-144 352,-174"/>
<text text-anchor="start" x="175" y="-162" font-family="Helvetica,sans-Serif" font-size="10.00">m_boundary_io::s_write</text>
<text text-anchor="middle" x="259.5" y="-151" font-family="Helvetica,sans-Serif" font-size="10.00">_parallel_boundary_condition_files</text>
</a>
</g>
</g>
<!-- Node1&#45;&gt;Node8 -->
<g id="edge7_Node000001_Node000008" class="edge">
<title>Node1&#45;&gt;Node8</title>
<g id="a_edge7_Node000001_Node000008"><a xlink:title=" ">
<path fill="none" stroke="#63b8ff" d="M131.23,-144.42C139.45,-145.36 148.01,-146.34 156.63,-147.33"/>
<polygon fill="#63b8ff" stroke="#63b8ff" points="156.43,-150.83 166.77,-148.49 157.23,-143.87 156.43,-150.83"/>
</a>
</g>
</g>
<!-- Node7 -->
<g id="Node000007" class="node">
<title>Node7</title>
<g id="a_Node000007"><a xlink:href="namespacem__boundary__common.html#a352fa827d9dbbfb0be060dedcce86792" target="_top" xlink:title="Populate the variable buffers along one direction and location, via MPI exchange for processor bounda...">
<polygon fill="white" stroke="#666666" points="533.5,-30 399.5,-30 399.5,0 533.5,0 533.5,-30"/>
<text text-anchor="start" x="407.5" y="-18" font-family="Helvetica,sans-Serif" font-size="10.00">m_boundary_common::</text>
<text text-anchor="middle" x="466.5" y="-7" font-family="Helvetica,sans-Serif" font-size="10.00">s_populate_bc_direction</text>
</a>
</g>
</g>
<!-- Node6&#45;&gt;Node7 -->
<g id="edge6_Node000006_Node000007" class="edge">
<title>Node6&#45;&gt;Node7</title>
<g id="a_edge6_Node000006_Node000007"><a xlink:title=" ">
<path fill="none" stroke="#63b8ff" d="M325.08,-20.48C345.46,-19.68 368.16,-18.8 389.26,-17.98"/>
<polygon fill="#63b8ff" stroke="#63b8ff" points="389.62,-21.46 399.48,-17.58 389.35,-14.47 389.62,-21.46"/>
</a>
</g>
</g>
<!-- Node8&#45;&gt;Node2 -->
<g id="edge8_Node000008_Node000002" class="edge">
<title>Node8&#45;&gt;Node2</title>
<g id="a_edge8_Node000008_Node000002"><a xlink:title=" ">
<path fill="none" stroke="#63b8ff" d="M283.69,-174.11C308.67,-189.89 349.95,-214.59 388,-231 392.45,-232.92 397.11,-234.76 401.84,-236.5"/>
<polygon fill="#63b8ff" stroke="#63b8ff" points="401,-239.92 411.59,-239.94 403.33,-233.32 401,-239.92"/>
</a>
</g>
</g>
<!-- Node8&#45;&gt;Node3 -->
<g id="edge9_Node000008_Node000003" class="edge">
<title>Node8&#45;&gt;Node3</title>
<g id="a_edge9_Node000008_Node000003"><a xlink:title=" ">
<path fill="none" stroke="#63b8ff" d="M324.8,-174.06C348.74,-179.66 375.93,-186.03 399.98,-191.66"/>
<polygon fill="#63b8ff" stroke="#63b8ff" points="399.19,-195.07 409.73,-193.94 400.79,-188.25 399.19,-195.07"/>
</a>
</g>
</g>
<!-- Node8&#45;&gt;Node4 -->
<g id="edge10_Node000008_Node000004" class="edge">
<title>Node8&#45;&gt;Node4</title>
<g id="a_edge10_Node000008_Node000004"><a xlink:title=" ">
<path fill="none" stroke="#63b8ff" d="M324.67,-143.82C334.25,-140.12 343.69,-135.57 352,-130 372.71,-116.13 367.25,-100.81 388,-87 391.97,-84.36 396.24,-82 400.67,-79.89"/>
<polygon fill="#63b8ff" stroke="#63b8ff" points="402.13,-83.07 409.93,-75.9 399.36,-76.64 402.13,-83.07"/>
</a>
</g>
</g>
<!-- Node9 -->
<g id="Node000009" class="node">
<title>Node9</title>
<g id="a_Node000009"><a xlink:href="namespacem__boundary__io.html#a74922617e3b2c7a414056d32bc6aa14d" target="_top" xlink:title="Create MPI derived datatypes for boundary condition type arrays and buffer arrays used in parallel I/...">
<polygon fill="white" stroke="#666666" points="536,-174 397,-174 397,-144 536,-144 536,-174"/>
<text text-anchor="start" x="405" y="-162" font-family="Helvetica,sans-Serif" font-size="10.00">m_boundary_io::s_create</text>
<text text-anchor="middle" x="466.5" y="-151" font-family="Helvetica,sans-Serif" font-size="10.00">_mpi_types</text>
</a>
</g>
</g>
<!-- Node8&#45;&gt;Node9 -->
<g id="edge11_Node000008_Node000009" class="edge">
<title>Node8&#45;&gt;Node9</title>
<g id="a_edge11_Node000008_Node000009"><a xlink:title=" ">
<path fill="none" stroke="#63b8ff" d="M352.21,-159C363.72,-159 375.41,-159 386.69,-159"/>
<polygon fill="#63b8ff" stroke="#63b8ff" points="386.93,-162.5 396.93,-159 386.93,-155.5 386.93,-162.5"/>
</a>
</g>
</g>
<!-- Node10 -->
<g id="Node000010" class="node">
<title>Node10</title>
<g id="a_Node000010"><a xlink:href="namespacem__boundary__io.html#a8ed3282a661e5072782b8d824a7c6646" target="_top" xlink:title="Pack primitive variable boundary slices into bc_buffers arrays for serialization.">
<polygon fill="white" stroke="#666666" points="545,-126 388,-126 388,-96 545,-96 545,-126"/>
<text text-anchor="start" x="396" y="-114" font-family="Helvetica,sans-Serif" font-size="10.00">m_boundary_io::s_pack</text>
<text text-anchor="middle" x="466.5" y="-103" font-family="Helvetica,sans-Serif" font-size="10.00">_boundary_condition_buffers</text>
</a>
</g>
</g>
<!-- Node8&#45;&gt;Node10 -->
<g id="edge12_Node000008_Node000010" class="edge">
<title>Node8&#45;&gt;Node10</title>
<g id="a_edge12_Node000008_Node000010"><a xlink:title=" ">
<path fill="none" stroke="#63b8ff" d="M324.8,-143.94C345.98,-138.99 369.7,-133.43 391.54,-128.32"/>
<polygon fill="#63b8ff" stroke="#63b8ff" points="392.49,-131.69 401.43,-126 390.89,-124.87 392.49,-131.69"/>
</a>
</g>
</g>
</g>
</svg>

<g id="navigator" transform="translate(0 0)" fill="#404254">
  <rect fill="#f2f5e9" fill-opacity="0.5" stroke="#606060" stroke-width=".5" x="0" y="0" width="60" height="60"/>
  <use id="zoomplus" xlink:href="#zoomPlus" x="17" y="9" onmousedown="handleZoom(evt,'in')"/>
  <use id="zoomminus" xlink:href="#zoomMin" x="42" y="9" onmousedown="handleZoom(evt,'out')"/>
  <use id="reset" xlink:href="#resetDef" x="30" y="36" onmousedown="handleReset()"/>
   <use id="arrowup" xlink:href="#arrowUp" x="0" y="0" onmousedown="handlePan(0,-1)"/>
  <use id="arrowright" xlink:href="#arrowRight" x="0" y="0" onmousedown="handlePan(1,0)"/>
  <use id="arrowdown" xlink:href="#arrowDown" x="0" y="0" onmousedown="handlePan(0,1)"/>
  <use id="arrowleft" xlink:href="#arrowLeft" x="0" y="0" onmousedown="handlePan(-1,0)"/>
</g>
<svg viewBox="0 0 15 15" width="100%" height="30px" preserveAspectRatio="xMaxYMin meet">
 <g id="arrow_out" transform="scale(0.3 0.3)">
  <a xlink:href="namespacem__data__output_a95b7eb31bf0e8277ed1e32416b720e8d_cgraph_org.svg" target="_base">
   <rect id="button" ry="5" rx="5" y="6" x="6" height="38" width="38"
        fill="#f2f5e9" fill-opacity="0.5" stroke="#606060" stroke-width="1.0"/>
   <path id="arrow"
     d="M 11.500037,31.436501 C 11.940474,20.09759 22.043105,11.32322 32.158766,21.979434 L 37.068811,17.246167 C 37.068811,17.246167 37.088388,32 37.088388,32 L 22.160133,31.978069 C 22.160133,31.978069 26.997745,27.140456 26.997745,27.140456 C 18.528582,18.264221 13.291696,25.230495 11.500037,31.436501 z"
     style="fill:#404040;"/>
  </a>
 </g>
</svg>

<style type='text/css'>
<![CDATA[
[data-mouse-over-selected='false'] { opacity: 0.7; }
[data-mouse-over-selected='true']  { opacity: 1.0; }
]]>
</style>
<script type="application/ecmascript"><![CDATA[
document.addEventListener('DOMContentLoaded', (event) => {
  highlightEdges();
  highlightAdjacentNodes();
});
]]></script>
</svg>
