<?xml version="1.0" encoding="UTF-8" standalone="no"?>
<!DOCTYPE svg PUBLIC "-//W3C//DTD SVG 1.1//EN"
 "http://www.w3.org/Graphics/SVG/1.1/DTD/svg11.dtd">
<!-- Generated by graphviz version 2.43.0 (0)
 -->
<!-- Title: m_perturbation::s_elliptic_smoothing Pages: 1 -->
<svg width="835pt" height="300pt"
 viewBox="0.00 0.00 835.00 300.00" xmlns="http://www.w3.org/2000/svg" xmlns:xlink="http://www.w3.org/1999/xlink">
<g id="graph0" class="graph" transform="scale(1 1) rotate(0) translate(4 296)">
<title>m_perturbation::s_elliptic_smoothing</title>
<!-- Node1 -->
<g id="Node000001" class="node">
<title>Node1</title>
<g id="a_Node000001"><a xlink:title=" ">
<polygon fill="#999999" stroke="#666666" points="141,-157.5 0,-157.5 0,-127.5 141,-127.5 141,-157.5"/>
<text text-anchor="start" x="8" y="-145.5" font-family="Helvetica,sans-Serif" font-size="10.00">m_perturbation::s_elliptic</text>
<text text-anchor="middle" x="70.5" y="-134.5" font-family="Helvetica,sans-Serif" font-size="10.00">_smoothing</text>
</a>
</g>
</g>
<!-- Node2 -->
<g id="Node000002" class="node">
<title>Node2</title>
<g id="a_Node000002"><a xlink:href="m__boundary__common_8fpp_8f90.html#ac453f843fd9086ee383c2ad446ab21f9" target="_top" xlink:title="The purpose of this procedure is to populate the buffers of the primitive variables,...">
<polygon fill="white" stroke="#666666" points="297,-157.5 177,-157.5 177,-127.5 297,-127.5 297,-157.5"/>
<text text-anchor="start" x="185" y="-145.5" font-family="Helvetica,sans-Serif" font-size="10.00">s_populate_variables</text>
<text text-anchor="middle" x="237" y="-134.5" font-family="Helvetica,sans-Serif" font-size="10.00">_buffers</text>
</a>
</g>
</g>
<!-- Node1&#45;&gt;Node2 -->
<g id="edge1_Node000001_Node000002" class="edge">
<title>Node1&#45;&gt;Node2</title>
<g id="a_edge1_Node000001_Node000002"><a xlink:title=" ">
<path fill="none" stroke="#63b8ff" d="M141.26,-142.5C149.67,-142.5 158.25,-142.5 166.65,-142.5"/>
<polygon fill="#63b8ff" stroke="#63b8ff" points="166.78,-146 176.78,-142.5 166.78,-139 166.78,-146"/>
</a>
</g>
</g>
<!-- Node3 -->
<g id="Node000003" class="node">
<title>Node3</title>
<g id="a_Node000003"><a xlink:href="m__boundary__common_8fpp_8f90.html#aa4cb56bc6ea88679ab8496efd318c659" target="_top" xlink:title=" ">
<polygon fill="white" stroke="#666666" points="429.5,-292 382.5,-292 382.5,-273 429.5,-273 429.5,-292"/>
<text text-anchor="middle" x="406" y="-280" font-family="Helvetica,sans-Serif" font-size="10.00">s_axis</text>
</a>
</g>
</g>
<!-- Node2&#45;&gt;Node3 -->
<g id="edge2_Node000002_Node000003" class="edge">
<title>Node2&#45;&gt;Node3</title>
<g id="a_edge2_Node000002_Node000003"><a xlink:title=" ">
<path fill="none" stroke="#63b8ff" d="M245.38,-157.51C258.96,-183.51 290.48,-236.82 333,-264.5 344.67,-272.1 359.33,-276.49 372.36,-279.03"/>
<polygon fill="#63b8ff" stroke="#63b8ff" points="371.94,-282.51 382.38,-280.69 373.09,-275.6 371.94,-282.51"/>
</a>
</g>
</g>
<!-- Node4 -->
<g id="Node000004" class="node">
<title>Node4</title>
<g id="a_Node000004"><a xlink:href="m__boundary__common_8fpp_8f90.html#aceb7bebda7f530fcb4012aaf86f010ab" target="_top" xlink:title=" ">
<polygon fill="white" stroke="#666666" points="439.5,-255 372.5,-255 372.5,-236 439.5,-236 439.5,-255"/>
<text text-anchor="middle" x="406" y="-243" font-family="Helvetica,sans-Serif" font-size="10.00">s_dirichlet</text>
</a>
</g>
</g>
<!-- Node2&#45;&gt;Node4 -->
<g id="edge3_Node000002_Node000004" class="edge">
<title>Node2&#45;&gt;Node4</title>
<g id="a_edge3_Node000002_Node000004"><a xlink:title=" ">
<path fill="none" stroke="#63b8ff" d="M252.48,-157.56C270.07,-175.09 301.32,-203.87 333,-221.5 342.15,-226.59 352.57,-230.84 362.57,-234.27"/>
<polygon fill="#63b8ff" stroke="#63b8ff" points="361.79,-237.69 372.38,-237.43 363.94,-231.03 361.79,-237.69"/>
</a>
</g>
</g>
<!-- Node5 -->
<g id="Node000005" class="node">
<title>Node5</title>
<g id="a_Node000005"><a xlink:href="m__boundary__common_8fpp_8f90.html#ae070828d34904bf9408d86ec6eb9b724" target="_top" xlink:title=" ">
<polygon fill="white" stroke="#666666" points="662,-267 515,-267 515,-248 662,-248 662,-267"/>
<text text-anchor="middle" x="588.5" y="-255" font-family="Helvetica,sans-Serif" font-size="10.00">s_ghost_cell_extrapolation</text>
</a>
</g>
</g>
<!-- Node2&#45;&gt;Node5 -->
<g id="edge6_Node000002_Node000005" class="edge">
<title>Node2&#45;&gt;Node5</title>
<g id="a_edge6_Node000002_Node000005"><a xlink:title=" ">
<path fill="none" stroke="#63b8ff" d="M265.65,-157.62C284.29,-167.37 309.64,-179.81 333,-188.5 395.95,-211.91 414.67,-208.2 479,-227.5 495.15,-232.35 498.8,-234.8 515,-239.5 522.02,-241.54 529.47,-243.55 536.81,-245.45"/>
<polygon fill="#63b8ff" stroke="#63b8ff" points="536.15,-248.9 546.7,-247.97 537.87,-242.11 536.15,-248.9"/>
</a>
</g>
</g>
<!-- Node7 -->
<g id="Node000007" class="node">
<title>Node7</title>
<g id="a_Node000007"><a xlink:href="m__mpi__common_8fpp_8f90.html#a815e648dc99c14163990d199ff63d785" target="_top" xlink:title="The goal of this procedure is to populate the buffers of the cell&#45;average conservative variables by c...">
<polygon fill="white" stroke="#666666" points="479,-179.5 333,-179.5 333,-149.5 479,-149.5 479,-179.5"/>
<text text-anchor="start" x="341" y="-167.5" font-family="Helvetica,sans-Serif" font-size="10.00">s_mpi_sendrecv_variables</text>
<text text-anchor="middle" x="406" y="-156.5" font-family="Helvetica,sans-Serif" font-size="10.00">_buffers</text>
</a>
</g>
</g>
<!-- Node2&#45;&gt;Node7 -->
<g id="edge7_Node000002_Node000007" class="edge">
<title>Node2&#45;&gt;Node7</title>
<g id="a_edge7_Node000002_Node000007"><a xlink:title=" ">
<path fill="none" stroke="#63b8ff" d="M297.35,-150.32C305.64,-151.41 314.27,-152.55 322.89,-153.68"/>
<polygon fill="#63b8ff" stroke="#63b8ff" points="322.6,-157.17 332.97,-155.01 323.51,-150.23 322.6,-157.17"/>
</a>
</g>
</g>
<!-- Node12 -->
<g id="Node000012" class="node">
<title>Node12</title>
<g id="a_Node000012"><a xlink:href="m__boundary__common_8fpp_8f90.html#a5a55a7fa30d77e2dbe2e7804298a2f97" target="_top" xlink:title=" ">
<polygon fill="white" stroke="#666666" points="632,-82 545,-82 545,-63 632,-63 632,-82"/>
<text text-anchor="middle" x="588.5" y="-70" font-family="Helvetica,sans-Serif" font-size="10.00">s_no_slip_wall</text>
</a>
</g>
</g>
<!-- Node2&#45;&gt;Node12 -->
<g id="edge12_Node000002_Node000012" class="edge">
<title>Node2&#45;&gt;Node12</title>
<g id="a_edge12_Node000002_Node000012"><a xlink:title=" ">
<path fill="none" stroke="#63b8ff" d="M297.36,-134.57C346.4,-127.49 417.67,-116.02 479,-101.5 495.28,-97.64 498.88,-94.96 515,-90.5 522.3,-88.48 530.04,-86.44 537.65,-84.51"/>
<polygon fill="#63b8ff" stroke="#63b8ff" points="538.67,-87.86 547.51,-82.02 536.96,-81.07 538.67,-87.86"/>
</a>
</g>
</g>
<!-- Node13 -->
<g id="Node000013" class="node">
<title>Node13</title>
<g id="a_Node000013"><a xlink:href="m__boundary__common_8fpp_8f90.html#acbc250dbfb9cf5ed806f13a9e4d33662" target="_top" xlink:title=" ">
<polygon fill="white" stroke="#666666" points="439,-93 373,-93 373,-74 439,-74 439,-93"/>
<text text-anchor="middle" x="406" y="-81" font-family="Helvetica,sans-Serif" font-size="10.00">s_periodic</text>
</a>
</g>
</g>
<!-- Node2&#45;&gt;Node13 -->
<g id="edge14_Node000002_Node000013" class="edge">
<title>Node2&#45;&gt;Node13</title>
<g id="a_edge14_Node000002_Node000013"><a xlink:title=" ">
<path fill="none" stroke="#63b8ff" d="M278.12,-127.41C295.02,-121.13 314.92,-113.84 333,-107.5 343.66,-103.76 355.26,-99.83 365.97,-96.26"/>
<polygon fill="#63b8ff" stroke="#63b8ff" points="367.11,-99.57 375.5,-93.1 364.91,-92.93 367.11,-99.57"/>
</a>
</g>
</g>
<!-- Node14 -->
<g id="Node000014" class="node">
<title>Node14</title>
<g id="a_Node000014"><a xlink:href="m__boundary__common_8fpp_8f90.html#a0975c0c2c7dc4fa8441dccfcdc707c47" target="_top" xlink:title=" ">
<polygon fill="white" stroke="#666666" points="441,-56 371,-56 371,-37 441,-37 441,-56"/>
<text text-anchor="middle" x="406" y="-44" font-family="Helvetica,sans-Serif" font-size="10.00">s_slip_wall</text>
</a>
</g>
</g>
<!-- Node2&#45;&gt;Node14 -->
<g id="edge15_Node000002_Node000014" class="edge">
<title>Node2&#45;&gt;Node14</title>
<g id="a_edge15_Node000002_Node000014"><a xlink:title=" ">
<path fill="none" stroke="#63b8ff" d="M252.3,-127.21C269.7,-109.51 300.78,-80.71 333,-64.5 341.71,-60.12 351.57,-56.75 361.13,-54.18"/>
<polygon fill="#63b8ff" stroke="#63b8ff" points="362.04,-57.56 370.93,-51.79 360.38,-50.76 362.04,-57.56"/>
</a>
</g>
</g>
<!-- Node15 -->
<g id="Node000015" class="node">
<title>Node15</title>
<g id="a_Node000015"><a xlink:href="m__boundary__common_8fpp_8f90.html#a21ae98690ba663c4e437765bf1ce6b97" target="_top" xlink:title=" ">
<polygon fill="white" stroke="#666666" points="444.5,-19 367.5,-19 367.5,0 444.5,0 444.5,-19"/>
<text text-anchor="middle" x="406" y="-7" font-family="Helvetica,sans-Serif" font-size="10.00">s_symmetry</text>
</a>
</g>
</g>
<!-- Node2&#45;&gt;Node15 -->
<g id="edge17_Node000002_Node000015" class="edge">
<title>Node2&#45;&gt;Node15</title>
<g id="a_edge17_Node000002_Node000015"><a xlink:title=" ">
<path fill="none" stroke="#63b8ff" d="M246.29,-127.17C260.57,-102.26 292.26,-53.19 333,-27.5 340.36,-22.86 348.85,-19.41 357.37,-16.85"/>
<polygon fill="#63b8ff" stroke="#63b8ff" points="358.52,-20.17 367.3,-14.24 356.74,-13.4 358.52,-20.17"/>
</a>
</g>
</g>
<!-- Node4&#45;&gt;Node5 -->
<g id="edge4_Node000004_Node000005" class="edge">
<title>Node4&#45;&gt;Node5</title>
<g id="a_edge4_Node000004_Node000005"><a xlink:title=" ">
<path fill="none" stroke="#63b8ff" d="M439.69,-247.67C457.92,-248.89 481.53,-250.45 504.5,-251.98"/>
<polygon fill="#63b8ff" stroke="#63b8ff" points="504.43,-255.49 514.64,-252.66 504.9,-248.5 504.43,-255.49"/>
</a>
</g>
</g>
<!-- Node6 -->
<g id="Node000006" class="node">
<title>Node6</title>
<g id="a_Node000006"><a xlink:href="m__boundary__common_8fpp_8f90.html#ad11205f55e9fde81ceb9f39172ca97ef" target="_top" xlink:title=" ">
<polygon fill="white" stroke="#666666" points="827,-82 698,-82 698,-63 827,-63 827,-82"/>
<text text-anchor="middle" x="762.5" y="-70" font-family="Helvetica,sans-Serif" font-size="10.00">s_qbmm_extrapolation</text>
</a>
</g>
</g>
<!-- Node5&#45;&gt;Node6 -->
<g id="edge5_Node000005_Node000006" class="edge">
<title>Node5&#45;&gt;Node6</title>
<g id="a_edge5_Node000005_Node000006"><a xlink:title=" ">
<path fill="none" stroke="#63b8ff" d="M646.88,-247.91C652.27,-245.66 657.42,-242.9 662,-239.5 713.82,-201.04 743.74,-126.86 755.57,-91.78"/>
<polygon fill="#63b8ff" stroke="#63b8ff" points="758.91,-92.82 758.66,-82.23 752.25,-90.67 758.91,-92.82"/>
</a>
</g>
</g>
<!-- Node8 -->
<g id="Node000008" class="node">
<title>Node8</title>
<g id="a_Node000008"><a xlink:href="m__helper_8fpp_8f90.html#a3772a85b78fdb5c5faf618951239db40" target="_top" xlink:title="This procedure converts logical to 1 or 0.">
<polygon fill="white" stroke="#666666" points="634,-230 543,-230 543,-211 634,-211 634,-230"/>
<text text-anchor="middle" x="588.5" y="-218" font-family="Helvetica,sans-Serif" font-size="10.00">f_logical_to_int</text>
</a>
</g>
</g>
<!-- Node7&#45;&gt;Node8 -->
<g id="edge8_Node000007_Node000008" class="edge">
<title>Node7&#45;&gt;Node8</title>
<g id="a_edge8_Node000007_Node000008"><a xlink:title=" ">
<path fill="none" stroke="#63b8ff" d="M446.96,-179.58C467.2,-186.96 492.24,-195.69 515,-202.5 521.92,-204.57 529.26,-206.59 536.51,-208.49"/>
<polygon fill="#63b8ff" stroke="#63b8ff" points="535.73,-211.9 546.29,-210.99 537.47,-205.12 535.73,-211.9"/>
</a>
</g>
</g>
<!-- Node9 -->
<g id="Node000009" class="node">
<title>Node9</title>
<g id="a_Node000009"><a xlink:href="m__helper_8fpp_8f90.html#a3bf0ac9a78e2a4d169933fac708d1bec" target="_top" xlink:title="This procedure performs xor on lhs and rhs.">
<polygon fill="white" stroke="#666666" points="609,-193 568,-193 568,-174 609,-174 609,-193"/>
<text text-anchor="middle" x="588.5" y="-181" font-family="Helvetica,sans-Serif" font-size="10.00">f_xor</text>
</a>
</g>
</g>
<!-- Node7&#45;&gt;Node9 -->
<g id="edge9_Node000007_Node000009" class="edge">
<title>Node7&#45;&gt;Node9</title>
<g id="a_edge9_Node000007_Node000009"><a xlink:title=" ">
<path fill="none" stroke="#63b8ff" d="M479.12,-172.09C506.5,-174.97 536.21,-178.1 557.59,-180.35"/>
<polygon fill="#63b8ff" stroke="#63b8ff" points="557.34,-183.84 567.66,-181.41 558.08,-176.88 557.34,-183.84"/>
</a>
</g>
</g>
<!-- Node10 -->
<g id="Node000010" class="node">
<title>Node10</title>
<g id="a_Node000010"><a xlink:href="namespacem__nvtx.html#acb0ad47c439f074b02a3cfc88817b9c7" target="_top" xlink:title=" ">
<polygon fill="white" stroke="#666666" points="651.5,-156 525.5,-156 525.5,-137 651.5,-137 651.5,-156"/>
<text text-anchor="middle" x="588.5" y="-144" font-family="Helvetica,sans-Serif" font-size="10.00">m_nvtx::nvtxendrange</text>
</a>
</g>
</g>
<!-- Node7&#45;&gt;Node10 -->
<g id="edge10_Node000007_Node000010" class="edge">
<title>Node7&#45;&gt;Node10</title>
<g id="a_edge10_Node000007_Node000010"><a xlink:title=" ">
<path fill="none" stroke="#63b8ff" d="M479.12,-157.31C490.96,-156.13 503.25,-154.9 515.1,-153.72"/>
<polygon fill="#63b8ff" stroke="#63b8ff" points="515.78,-157.17 525.39,-152.69 515.09,-150.2 515.78,-157.17"/>
</a>
</g>
</g>
<!-- Node11 -->
<g id="Node000011" class="node">
<title>Node11</title>
<g id="a_Node000011"><a xlink:href="namespacem__nvtx.html#a9b922c5d5c93c41e0abcd4cf8c382861" target="_top" xlink:title=" ">
<polygon fill="white" stroke="#666666" points="654,-119 523,-119 523,-100 654,-100 654,-119"/>
<text text-anchor="middle" x="588.5" y="-107" font-family="Helvetica,sans-Serif" font-size="10.00">m_nvtx::nvtxstartrange</text>
</a>
</g>
</g>
<!-- Node7&#45;&gt;Node11 -->
<g id="edge11_Node000007_Node000011" class="edge">
<title>Node7&#45;&gt;Node11</title>
<g id="a_edge11_Node000007_Node000011"><a xlink:title=" ">
<path fill="none" stroke="#63b8ff" d="M448.27,-149.42C468.29,-142.35 492.76,-134.06 515,-127.5 521.93,-125.46 529.27,-123.45 536.52,-121.56"/>
<polygon fill="#63b8ff" stroke="#63b8ff" points="537.48,-124.93 546.31,-119.07 535.75,-118.15 537.48,-124.93"/>
</a>
</g>
</g>
<!-- Node12&#45;&gt;Node6 -->
<g id="edge13_Node000012_Node000006" class="edge">
<title>Node12&#45;&gt;Node6</title>
<g id="a_edge13_Node000012_Node000006"><a xlink:title=" ">
<path fill="none" stroke="#63b8ff" d="M632.02,-72.5C648.8,-72.5 668.58,-72.5 687.55,-72.5"/>
<polygon fill="#63b8ff" stroke="#63b8ff" points="687.69,-76 697.69,-72.5 687.69,-69 687.69,-76"/>
</a>
</g>
</g>
<!-- Node14&#45;&gt;Node6 -->
<g id="edge16_Node000014_Node000006" class="edge">
<title>Node14&#45;&gt;Node6</title>
<g id="a_edge16_Node000014_Node000006"><a xlink:title=" ">
<path fill="none" stroke="#63b8ff" d="M441.35,-45.69C490.44,-44.93 583.41,-44.97 662,-53.5 677.63,-55.2 694.48,-58.03 709.79,-60.99"/>
<polygon fill="#63b8ff" stroke="#63b8ff" points="709.11,-64.42 719.61,-62.95 710.48,-57.56 709.11,-64.42"/>
</a>
</g>
</g>
</g>
</svg>
