<?xml version="1.0" encoding="UTF-8" standalone="no"?>
<!DOCTYPE svg PUBLIC "-//W3C//DTD SVG 1.1//EN"
 "http://www.w3.org/Graphics/SVG/1.1/DTD/svg11.dtd">
<!-- Generated by graphviz version 2.43.0 (0)
 -->
<!-- Title: m_data_output::s_write_serial_data_files Pages: 1 -->
<svg width="678pt" height="194pt"
 viewBox="0.00 0.00 678.00 194.00" xmlns="http://www.w3.org/2000/svg" xmlns:xlink="http://www.w3.org/1999/xlink">
<g id="graph0" class="graph" transform="scale(1 1) rotate(0) translate(4 190)">
<title>m_data_output::s_write_serial_data_files</title>
<!-- Node1 -->
<g id="Node000001" class="node">
<title>Node1</title>
<g id="a_Node000001"><a xlink:title="Writes grid and initial condition data files to the &quot;0&quot; time&#45;step directory in the local processor ra...">
<polygon fill="#999999" stroke="#666666" points="131,-111 0,-111 0,-81 131,-81 131,-111"/>
<text text-anchor="start" x="8" y="-99" font-family="Helvetica,sans-Serif" font-size="10.00">m_data_output::s_write</text>
<text text-anchor="middle" x="65.5" y="-88" font-family="Helvetica,sans-Serif" font-size="10.00">_serial_data_files</text>
</a>
</g>
</g>
<!-- Node2 -->
<g id="Node000002" class="node">
<title>Node2</title>
<g id="a_Node000002"><a xlink:href="namespacem__helper.html#aed8be5c8be0cadf256dece6f0912e475" target="_top" xlink:title="Compute the bubble number density from the conservative void fraction and weighted bubble radii.">
<polygon fill="white" stroke="#666666" points="293,-186 176,-186 176,-156 293,-156 293,-186"/>
<text text-anchor="start" x="184" y="-174" font-family="Helvetica,sans-Serif" font-size="10.00">m_helper::s_comp_n</text>
<text text-anchor="middle" x="234.5" y="-163" font-family="Helvetica,sans-Serif" font-size="10.00">_from_cons</text>
</a>
</g>
</g>
<!-- Node1&#45;&gt;Node2 -->
<g id="edge1_Node000001_Node000002" class="edge">
<title>Node1&#45;&gt;Node2</title>
<g id="a_edge1_Node000001_Node000002"><a xlink:title=" ">
<path fill="none" stroke="#63b8ff" d="M93.79,-111C113.76,-121.69 141.68,-136.05 167,-147 171.1,-148.77 175.39,-150.53 179.71,-152.23"/>
<polygon fill="#63b8ff" stroke="#63b8ff" points="178.61,-155.56 189.2,-155.88 181.12,-149.03 178.61,-155.56"/>
</a>
</g>
</g>
<!-- Node3 -->
<g id="Node000003" class="node">
<title>Node3</title>
<g id="a_Node000003"><a xlink:href="namespacem__variables__conversion.html#a58c19a9ba2767016cd7c916cd52b8d0e" target="_top" xlink:title="Compute the pressure from the appropriate equation of state.">
<polygon fill="white" stroke="#666666" points="302,-138 167,-138 167,-108 302,-108 302,-138"/>
<text text-anchor="start" x="175" y="-126" font-family="Helvetica,sans-Serif" font-size="10.00">m_variables_conversion</text>
<text text-anchor="middle" x="234.5" y="-115" font-family="Helvetica,sans-Serif" font-size="10.00">::s_compute_pressure</text>
</a>
</g>
</g>
<!-- Node1&#45;&gt;Node3 -->
<g id="edge2_Node000001_Node000003" class="edge">
<title>Node1&#45;&gt;Node3</title>
<g id="a_edge2_Node000001_Node000003"><a xlink:title=" ">
<path fill="none" stroke="#63b8ff" d="M131.07,-106.44C139.51,-107.8 148.23,-109.21 156.85,-110.61"/>
<polygon fill="#63b8ff" stroke="#63b8ff" points="156.47,-114.09 166.9,-112.23 157.58,-107.18 156.47,-114.09"/>
</a>
</g>
</g>
<!-- Node4 -->
<g id="Node000004" class="node">
<title>Node4</title>
<g id="a_Node000004"><a xlink:href="namespacem__variables__conversion.html#ad79dc943a9108e838d80bb2b264fba8e" target="_top" xlink:title="Dispatch to the s_convert_mixture_to_mixture_variables and s_convert_species_to_mixture_variables sub...">
<polygon fill="white" stroke="#666666" points="302,-89.5 167,-89.5 167,-48.5 302,-48.5 302,-89.5"/>
<text text-anchor="start" x="175" y="-77.5" font-family="Helvetica,sans-Serif" font-size="10.00">m_variables_conversion</text>
<text text-anchor="start" x="175" y="-66.5" font-family="Helvetica,sans-Serif" font-size="10.00">::s_convert_to_mixture</text>
<text text-anchor="middle" x="234.5" y="-55.5" font-family="Helvetica,sans-Serif" font-size="10.00">_variables</text>
</a>
</g>
</g>
<!-- Node1&#45;&gt;Node4 -->
<g id="edge3_Node000001_Node000004" class="edge">
<title>Node1&#45;&gt;Node4</title>
<g id="a_edge3_Node000001_Node000004"><a xlink:title=" ">
<path fill="none" stroke="#63b8ff" d="M131.07,-85.56C139.51,-84.2 148.23,-82.79 156.85,-81.39"/>
<polygon fill="#63b8ff" stroke="#63b8ff" points="157.58,-84.82 166.9,-79.77 156.47,-77.91 157.58,-84.82"/>
</a>
</g>
</g>
<!-- Node8 -->
<g id="Node000008" class="node">
<title>Node8</title>
<g id="a_Node000008"><a xlink:href="namespacem__compile__specific.html#aa1b4e12a20e09147a215c3b5018484b0" target="_top" xlink:title="Create a directory and all its parents if it does not exist.">
<polygon fill="white" stroke="#666666" points="291,-30 178,-30 178,0 291,0 291,-30"/>
<text text-anchor="start" x="186" y="-18" font-family="Helvetica,sans-Serif" font-size="10.00">m_compile_specific</text>
<text text-anchor="middle" x="234.5" y="-7" font-family="Helvetica,sans-Serif" font-size="10.00">::s_create_directory</text>
</a>
</g>
</g>
<!-- Node1&#45;&gt;Node8 -->
<g id="edge7_Node000001_Node000008" class="edge">
<title>Node1&#45;&gt;Node8</title>
<g id="a_edge7_Node000001_Node000008"><a xlink:title=" ">
<path fill="none" stroke="#63b8ff" d="M91.16,-80.9C111.18,-68.98 140.36,-52.35 167,-40 171.57,-37.88 176.37,-35.8 181.22,-33.81"/>
<polygon fill="#63b8ff" stroke="#63b8ff" points="182.56,-37.04 190.54,-30.08 179.96,-30.54 182.56,-37.04"/>
</a>
</g>
</g>
<!-- Node5 -->
<g id="Node000005" class="node">
<title>Node5</title>
<g id="a_Node000005"><a xlink:href="namespacem__variables__conversion.html#a8b30b668d9de48d0bf0d53fa56116847" target="_top" xlink:title="Convert mixture variables to density, gamma, pi_inf, and qv for the gamma/pi_inf model....">
<polygon fill="white" stroke="#666666" points="473,-119.5 338,-119.5 338,-78.5 473,-78.5 473,-119.5"/>
<text text-anchor="start" x="346" y="-107.5" font-family="Helvetica,sans-Serif" font-size="10.00">m_variables_conversion</text>
<text text-anchor="start" x="346" y="-96.5" font-family="Helvetica,sans-Serif" font-size="10.00">::s_convert_mixture_to</text>
<text text-anchor="middle" x="405.5" y="-85.5" font-family="Helvetica,sans-Serif" font-size="10.00">_mixture_variables</text>
</a>
</g>
</g>
<!-- Node4&#45;&gt;Node5 -->
<g id="edge4_Node000004_Node000005" class="edge">
<title>Node4&#45;&gt;Node5</title>
<g id="a_edge4_Node000004_Node000005"><a xlink:title=" ">
<path fill="none" stroke="#63b8ff" d="M302.29,-80.86C310.72,-82.35 319.38,-83.89 327.94,-85.41"/>
<polygon fill="#63b8ff" stroke="#63b8ff" points="327.46,-88.88 337.92,-87.18 328.68,-81.99 327.46,-88.88"/>
</a>
</g>
</g>
<!-- Node6 -->
<g id="Node000006" class="node">
<title>Node6</title>
<g id="a_Node000006"><a xlink:href="namespacem__variables__conversion.html#a7f3bffa0ba13432f79f095a78fcf6e5a" target="_top" xlink:title="Convert species volume fractions and partial densities to mixture density, gamma, pi_inf,...">
<polygon fill="white" stroke="#666666" points="473,-60.5 338,-60.5 338,-19.5 473,-19.5 473,-60.5"/>
<text text-anchor="start" x="346" y="-48.5" font-family="Helvetica,sans-Serif" font-size="10.00">m_variables_conversion</text>
<text text-anchor="start" x="346" y="-37.5" font-family="Helvetica,sans-Serif" font-size="10.00">::s_convert_species_to</text>
<text text-anchor="middle" x="405.5" y="-26.5" font-family="Helvetica,sans-Serif" font-size="10.00">_mixture_variables</text>
</a>
</g>
</g>
<!-- Node4&#45;&gt;Node6 -->
<g id="edge5_Node000004_Node000006" class="edge">
<title>Node4&#45;&gt;Node6</title>
<g id="a_edge5_Node000004_Node000006"><a xlink:title=" ">
<path fill="none" stroke="#63b8ff" d="M302.29,-57.54C310.72,-56.09 319.38,-54.61 327.94,-53.14"/>
<polygon fill="#63b8ff" stroke="#63b8ff" points="328.65,-56.57 337.92,-51.43 327.47,-49.67 328.65,-56.57"/>
</a>
</g>
</g>
<!-- Node7 -->
<g id="Node000007" class="node">
<title>Node7</title>
<g id="a_Node000007"><a xlink:href="namespacem__variables__conversion.html#a21906a4c29bbb1187212feb969c00502" target="_top" xlink:title="Compute partial densities and volume fractions.">
<polygon fill="white" stroke="#666666" points="670,-55 509,-55 509,-25 670,-25 670,-55"/>
<text text-anchor="start" x="517" y="-43" font-family="Helvetica,sans-Serif" font-size="10.00">m_variables_conversion</text>
<text text-anchor="middle" x="589.5" y="-32" font-family="Helvetica,sans-Serif" font-size="10.00">::s_compute_species_fraction</text>
</a>
</g>
</g>
<!-- Node6&#45;&gt;Node7 -->
<g id="edge6_Node000006_Node000007" class="edge">
<title>Node6&#45;&gt;Node7</title>
<g id="a_edge6_Node000006_Node000007"><a xlink:title=" ">
<path fill="none" stroke="#63b8ff" d="M473.24,-40C481.55,-40 490.15,-40 498.74,-40"/>
<polygon fill="#63b8ff" stroke="#63b8ff" points="498.8,-43.5 508.8,-40 498.8,-36.5 498.8,-43.5"/>
</a>
</g>
</g>
</g>
</svg>
