<?xml version="1.0" encoding="UTF-8" standalone="no"?>
<!DOCTYPE svg PUBLIC "-//W3C//DTD SVG 1.1//EN"
 "http://www.w3.org/Graphics/SVG/1.1/DTD/svg11.dtd">
<!-- Generated by graphviz version 2.43.0 (0)
 -->
<!-- Title: m_checker::s_check_inputs_restart Pages: 1 -->
<svg width="473pt" height="52pt"
 viewBox="0.00 0.00 473.00 51.50" xmlns="http://www.w3.org/2000/svg" xmlns:xlink="http://www.w3.org/1999/xlink">
<g id="graph0" class="graph" transform="scale(1 1) rotate(0) translate(4 47.5)">
<title>m_checker::s_check_inputs_restart</title>
<!-- Node1 -->
<g id="Node000001" class="node">
<title>Node1</title>
<g id="a_Node000001"><a xlink:title="Checks constraints on the restart parameters (old_grid, old_ic, etc.)">
<polygon fill="#999999" stroke="#666666" points="114,-30 0,-30 0,0 114,0 114,-30"/>
<text text-anchor="start" x="8" y="-18" font-family="Helvetica,sans-Serif" font-size="10.00">m_checker::s_check</text>
<text text-anchor="middle" x="57" y="-7" font-family="Helvetica,sans-Serif" font-size="10.00">_inputs_restart</text>
</a>
</g>
</g>
<!-- Node2 -->
<g id="Node000002" class="node">
<title>Node2</title>
<g id="a_Node000002"><a xlink:href="m__helper_8fpp_8f90.html#ad7eb5f3e531ad8b37fa39d55e1076db5" target="_top" xlink:title="Checks if a real(kind(0d0)) variable is of default value.">
<polygon fill="white" stroke="#666666" points="224,-43.5 150,-43.5 150,-24.5 224,-24.5 224,-43.5"/>
<text text-anchor="middle" x="187" y="-31.5" font-family="Helvetica,sans-Serif" font-size="10.00">f_is_default</text>
</a>
</g>
</g>
<!-- Node1&#45;&gt;Node2 -->
<g id="edge1_Node000001_Node000002" class="edge">
<title>Node1&#45;&gt;Node2</title>
<g id="a_edge1_Node000001_Node000002"><a xlink:title=" ">
<path fill="none" stroke="#63b8ff" d="M114.14,-23.33C122.74,-24.61 131.53,-25.91 139.87,-27.15"/>
<polygon fill="#63b8ff" stroke="#63b8ff" points="139.39,-30.62 149.79,-28.63 140.42,-23.7 139.39,-30.62"/>
</a>
</g>
</g>
<!-- Node4 -->
<g id="Node000004" class="node">
<title>Node4</title>
<g id="a_Node000004"><a xlink:href="m__mpi__common_8fpp_8f90.html#ad9e1329e498b65ad4256658675d6f797" target="_top" xlink:title="The subroutine terminates the MPI execution environment.">
<polygon fill="white" stroke="#666666" points="465,-24.5 388,-24.5 388,-5.5 465,-5.5 465,-24.5"/>
<text text-anchor="middle" x="426.5" y="-12.5" font-family="Helvetica,sans-Serif" font-size="10.00">s_mpi_abort</text>
</a>
</g>
</g>
<!-- Node1&#45;&gt;Node4 -->
<g id="edge4_Node000001_Node000004" class="edge">
<title>Node1&#45;&gt;Node4</title>
<g id="a_edge4_Node000001_Node000004"><a xlink:title=" ">
<path fill="none" stroke="#63b8ff" d="M114.22,-15C186.17,-15 309.61,-15 377.41,-15"/>
<polygon fill="#63b8ff" stroke="#63b8ff" points="377.8,-18.5 387.8,-15 377.8,-11.5 377.8,-18.5"/>
</a>
</g>
</g>
<!-- Node3 -->
<g id="Node000003" class="node">
<title>Node3</title>
<g id="a_Node000003"><a xlink:href="m__helper_8fpp_8f90.html#a7bdf2eff292c20e9c330089da2e53a97" target="_top" xlink:title="This procedure checks if two floating point numbers of kind(0d0) are within tolerance.">
<polygon fill="white" stroke="#666666" points="352,-43.5 260,-43.5 260,-24.5 352,-24.5 352,-43.5"/>
<text text-anchor="middle" x="306" y="-31.5" font-family="Helvetica,sans-Serif" font-size="10.00">f_approx_equal</text>
</a>
</g>
</g>
<!-- Node2&#45;&gt;Node3 -->
<g id="edge2_Node000002_Node000003" class="edge">
<title>Node2&#45;&gt;Node3</title>
<g id="a_edge2_Node000002_Node000003"><a xlink:title=" ">
<path fill="none" stroke="#63b8ff" d="M224.06,-34C232.17,-34 240.95,-34 249.64,-34"/>
<polygon fill="#63b8ff" stroke="#63b8ff" points="249.76,-37.5 259.76,-34 249.76,-30.5 249.76,-37.5"/>
</a>
</g>
</g>
<!-- Node3&#45;&gt;Node4 -->
<g id="edge3_Node000003_Node000004" class="edge">
<title>Node3&#45;&gt;Node4</title>
<g id="a_edge3_Node000003_Node000004"><a xlink:title=" ">
<path fill="none" stroke="#63b8ff" d="M352.14,-26.76C360.51,-25.42 369.28,-24.01 377.72,-22.66"/>
<polygon fill="#63b8ff" stroke="#63b8ff" points="378.5,-26.08 387.82,-21.04 377.39,-19.17 378.5,-26.08"/>
</a>
</g>
</g>
</g>
</svg>
