<?xml version="1.0" encoding="UTF-8" standalone="no"?>
<!DOCTYPE svg PUBLIC "-//W3C//DTD SVG 1.1//EN"
 "http://www.w3.org/Graphics/SVG/1.1/DTD/svg11.dtd">
<!-- Generated by graphviz version 2.43.0 (0)
 -->
<!-- Title: m_perturbation::s_perturb_simplex Pages: 1 -->
<svg width="465pt" height="86pt"
 viewBox="0.00 0.00 465.00 86.00" xmlns="http://www.w3.org/2000/svg" xmlns:xlink="http://www.w3.org/1999/xlink">
<g id="graph0" class="graph" transform="scale(1 1) rotate(0) translate(4 82)">
<title>m_perturbation::s_perturb_simplex</title>
<!-- Node1 -->
<g id="Node000001" class="node">
<title>Node1</title>
<g id="a_Node000001"><a xlink:title=" ">
<polygon fill="#999999" stroke="#666666" points="143,-54 0,-54 0,-24 143,-24 143,-54"/>
<text text-anchor="start" x="8" y="-42" font-family="Helvetica,sans-Serif" font-size="10.00">m_perturbation::s_perturb</text>
<text text-anchor="middle" x="71.5" y="-31" font-family="Helvetica,sans-Serif" font-size="10.00">_simplex</text>
</a>
</g>
</g>
<!-- Node2 -->
<g id="Node000002" class="node">
<title>Node2</title>
<g id="a_Node000002"><a xlink:href="namespacem__simplex__noise.html#a570c7aecc2e4af4362d24a2c15c92b3b" target="_top" xlink:title=" ">
<polygon fill="white" stroke="#666666" points="291,-78 179,-78 179,-48 291,-48 291,-78"/>
<text text-anchor="start" x="187" y="-66" font-family="Helvetica,sans-Serif" font-size="10.00">m_simplex_noise::f</text>
<text text-anchor="middle" x="235" y="-55" font-family="Helvetica,sans-Serif" font-size="10.00">_simplex2d</text>
</a>
</g>
</g>
<!-- Node1&#45;&gt;Node2 -->
<g id="edge1_Node000001_Node000002" class="edge">
<title>Node1&#45;&gt;Node2</title>
<g id="a_edge1_Node000001_Node000002"><a xlink:title=" ">
<path fill="none" stroke="#63b8ff" d="M143.34,-49.53C151.77,-50.78 160.35,-52.06 168.71,-53.3"/>
<polygon fill="#63b8ff" stroke="#63b8ff" points="168.35,-56.78 178.76,-54.79 169.38,-49.86 168.35,-56.78"/>
</a>
</g>
</g>
<!-- Node4 -->
<g id="Node000004" class="node">
<title>Node4</title>
<g id="a_Node000004"><a xlink:href="namespacem__simplex__noise.html#acfab8f28b5f8ed34aba0607717a04ef8" target="_top" xlink:title=" ">
<polygon fill="white" stroke="#666666" points="291,-30 179,-30 179,0 291,0 291,-30"/>
<text text-anchor="start" x="187" y="-18" font-family="Helvetica,sans-Serif" font-size="10.00">m_simplex_noise::f</text>
<text text-anchor="middle" x="235" y="-7" font-family="Helvetica,sans-Serif" font-size="10.00">_simplex3d</text>
</a>
</g>
</g>
<!-- Node1&#45;&gt;Node4 -->
<g id="edge3_Node000001_Node000004" class="edge">
<title>Node1&#45;&gt;Node4</title>
<g id="a_edge3_Node000001_Node000004"><a xlink:title=" ">
<path fill="none" stroke="#63b8ff" d="M143.34,-28.47C151.77,-27.22 160.35,-25.94 168.71,-24.7"/>
<polygon fill="#63b8ff" stroke="#63b8ff" points="169.38,-28.14 178.76,-23.21 168.35,-21.22 169.38,-28.14"/>
</a>
</g>
</g>
<!-- Node3 -->
<g id="Node000003" class="node">
<title>Node3</title>
<g id="a_Node000003"><a xlink:href="namespacem__simplex__noise.html#aa122143d0fd18514780681015b2eab26" target="_top" xlink:title=" ">
<polygon fill="white" stroke="#666666" points="457,-72.5 327,-72.5 327,-53.5 457,-53.5 457,-72.5"/>
<text text-anchor="middle" x="392" y="-60.5" font-family="Helvetica,sans-Serif" font-size="10.00">m_simplex_noise::dot2</text>
</a>
</g>
</g>
<!-- Node2&#45;&gt;Node3 -->
<g id="edge2_Node000002_Node000003" class="edge">
<title>Node2&#45;&gt;Node3</title>
<g id="a_edge2_Node000002_Node000003"><a xlink:title=" ">
<path fill="none" stroke="#63b8ff" d="M291.08,-63C299.4,-63 308.1,-63 316.74,-63"/>
<polygon fill="#63b8ff" stroke="#63b8ff" points="316.83,-66.5 326.83,-63 316.83,-59.5 316.83,-66.5"/>
</a>
</g>
</g>
</g>
</svg>
