<?xml version="1.0" encoding="UTF-8" standalone="no"?>
<!DOCTYPE svg PUBLIC "-//W3C//DTD SVG 1.1//EN"
 "http://www.w3.org/Graphics/SVG/1.1/DTD/svg11.dtd">
<!-- Generated by graphviz version 2.40.1 (20161225.0304)
 -->
<!-- Title: m_global_parameters::s_comp_n_from_prim Pages: 1 -->
<svg width="386pt" height="44pt"
 viewBox="0.00 0.00 386.00 44.00" xmlns="http://www.w3.org/2000/svg" xmlns:xlink="http://www.w3.org/1999/xlink">
<g id="graph0" class="graph" transform="scale(1 1) rotate(0) translate(4 40)">
<title>m_global_parameters::s_comp_n_from_prim</title>
<polygon fill="#ffffff" stroke="transparent" points="-4,4 -4,-40 382,-40 382,4 -4,4"/>
<!-- Node13 -->
<g id="node1" class="node">
<title>Node13</title>
<polygon fill="#bfbfbf" stroke="#000000" points="0,-5 0,-31 78,-31 78,-5 0,-5"/>
<text text-anchor="start" x="8" y="-20.6" font-family="Helvetica,sans-Serif" font-size="8.00" fill="#000000">m_global_parameters</text>
<text text-anchor="middle" x="39" y="-11.6" font-family="Helvetica,sans-Serif" font-size="8.00" fill="#000000">::s_comp_n_from_prim</text>
</g>
<!-- Node14 -->
<g id="node2" class="node">
<title>Node14</title>
<g id="a_node2"><a xlink:href="namespacem__variables__conversion.html#a63d50d6771031b79117f2aba60e0cca3" target="_top" xlink:title="Converts the primitive variables to the conservative ones. Used when initializing patches...">
<polygon fill="#ffffff" stroke="#000000" points="114,-.5 114,-35.5 203,-35.5 203,-.5 114,-.5"/>
<text text-anchor="start" x="122" y="-25.1" font-family="Helvetica,sans-Serif" font-size="8.00" fill="#000000">m_variables_conversion</text>
<text text-anchor="start" x="122" y="-16.1" font-family="Helvetica,sans-Serif" font-size="8.00" fill="#000000">::s_convert_primitive</text>
<text text-anchor="middle" x="158.5" y="-7.1" font-family="Helvetica,sans-Serif" font-size="8.00" fill="#000000">_to_conservative_variables</text>
</a>
</g>
</g>
<!-- Node13&#45;&gt;Node14 -->
<g id="edge1" class="edge">
<title>Node13&#45;&gt;Node14</title>
<path fill="none" stroke="#191970" d="M88.2855,-18C96.7697,-18 105.5444,-18 113.8964,-18"/>
<polygon fill="#191970" stroke="#191970" points="88.1288,-14.5001 78.1288,-18 88.1287,-21.5001 88.1288,-14.5001"/>
</g>
<!-- Node15 -->
<g id="node3" class="node">
<title>Node15</title>
<g id="a_node3"><a xlink:href="namespacem__initial__condition.html#aa74a70029e3ec0fd3225b369e7c5443e" target="_top" xlink:title="This subroutine peruses the patches and depending on the type of geometry associated with a particula...">
<polygon fill="#ffffff" stroke="#000000" points="239,-.5 239,-35.5 306,-35.5 306,-.5 239,-.5"/>
<text text-anchor="start" x="247" y="-25.1" font-family="Helvetica,sans-Serif" font-size="8.00" fill="#000000">m_initial_condition</text>
<text text-anchor="start" x="247" y="-16.1" font-family="Helvetica,sans-Serif" font-size="8.00" fill="#000000">::s_generate_initial</text>
<text text-anchor="middle" x="272.5" y="-7.1" font-family="Helvetica,sans-Serif" font-size="8.00" fill="#000000">_condition</text>
</a>
</g>
</g>
<!-- Node14&#45;&gt;Node15 -->
<g id="edge2" class="edge">
<title>Node14&#45;&gt;Node15</title>
<path fill="none" stroke="#191970" d="M213.3564,-18C222.0512,-18 230.8127,-18 238.8299,-18"/>
<polygon fill="#191970" stroke="#191970" points="213.2287,-14.5001 203.2286,-18 213.2286,-21.5001 213.2287,-14.5001"/>
</g>
<!-- Node16 -->
<g id="node4" class="node">
<title>Node16</title>
<g id="a_node4"><a xlink:href="p__main_8f90.html#aeec10ee8e2940c953967da3e374e1579" target="_top" xlink:title="This program takes care of setting up the initial condition and grid data for the multicomponent flow...">
<polygon fill="#ffffff" stroke="#000000" points="342,-9.5 342,-26.5 378,-26.5 378,-9.5 342,-9.5"/>
<text text-anchor="middle" x="360" y="-16.1" font-family="Helvetica,sans-Serif" font-size="8.00" fill="#000000">p_main</text>
</a>
</g>
</g>
<!-- Node15&#45;&gt;Node16 -->
<g id="edge3" class="edge">
<title>Node15&#45;&gt;Node16</title>
<path fill="none" stroke="#191970" d="M316.2081,-18C325.253,-18 334.3002,-18 341.8035,-18"/>
<polygon fill="#191970" stroke="#191970" points="316.0796,-14.5001 306.0795,-18 316.0795,-21.5001 316.0796,-14.5001"/>
</g>
</g>
</svg>
