<?xml version="1.0" encoding="UTF-8" standalone="no"?>
<!DOCTYPE svg PUBLIC "-//W3C//DTD SVG 1.1//EN"
 "http://www.w3.org/Graphics/SVG/1.1/DTD/svg11.dtd">
<!-- Generated by graphviz version 2.40.1 (20161225.0304)
 -->
<!-- Title: m_start_up::s_read_parallel_ic_data_files Pages: 1 -->
<svg width="270pt" height="56pt"
 viewBox="0.00 0.00 270.00 56.00" xmlns="http://www.w3.org/2000/svg" xmlns:xlink="http://www.w3.org/1999/xlink">
<g id="graph0" class="graph" transform="scale(1 1) rotate(0) translate(4 52)">
<title>m_start_up::s_read_parallel_ic_data_files</title>
<polygon fill="#ffffff" stroke="transparent" points="-4,4 -4,-52 266,-52 266,4 -4,4"/>
<!-- Node170 -->
<g id="node1" class="node">
<title>Node170</title>
<polygon fill="#bfbfbf" stroke="#000000" points="0,-.5 0,-26.5 76,-26.5 76,-.5 0,-.5"/>
<text text-anchor="start" x="8" y="-16.1" font-family="Helvetica,sans-Serif" font-size="8.00" fill="#000000">m_start_up::s_read</text>
<text text-anchor="middle" x="38" y="-7.1" font-family="Helvetica,sans-Serif" font-size="8.00" fill="#000000">_parallel_ic_data_files</text>
</g>
<!-- Node171 -->
<g id="node2" class="node">
<title>Node171</title>
<g id="a_node2"><a xlink:href="namespacem__start__up.html#a37202711d89d04cd18f08170ba608aa1" target="_top" xlink:title="m_start_up::s_initialize\l_start_up_module">
<polygon fill="#ffffff" stroke="#000000" points="112,-21.5 112,-47.5 190,-47.5 190,-21.5 112,-21.5"/>
<text text-anchor="start" x="120" y="-37.1" font-family="Helvetica,sans-Serif" font-size="8.00" fill="#000000">m_start_up::s_initialize</text>
<text text-anchor="middle" x="151" y="-28.1" font-family="Helvetica,sans-Serif" font-size="8.00" fill="#000000">_start_up_module</text>
</a>
</g>
</g>
<!-- Node170&#45;&gt;Node171 -->
<g id="edge1" class="edge">
<title>Node170&#45;&gt;Node171</title>
<path fill="none" stroke="#191970" d="M86.3661,-22.4884C94.797,-24.0552 103.4746,-25.6678 111.6268,-27.1829"/>
<polygon fill="#191970" stroke="#191970" points="86.7278,-18.9958 76.2566,-20.6096 85.4488,-25.8779 86.7278,-18.9958"/>
</g>
<!-- Node172 -->
<g id="node3" class="node">
<title>Node172</title>
<g id="a_node3"><a xlink:href="p__main_8f90.html#aeec10ee8e2940c953967da3e374e1579" target="_top" xlink:title="This program takes care of setting up the initial condition and grid data for the multicomponent flow...">
<polygon fill="#ffffff" stroke="#000000" points="226,-5 226,-22 262,-22 262,-5 226,-5"/>
<text text-anchor="middle" x="244" y="-11.6" font-family="Helvetica,sans-Serif" font-size="8.00" fill="#000000">p_main</text>
</a>
</g>
</g>
<!-- Node170&#45;&gt;Node172 -->
<g id="edge3" class="edge">
<title>Node170&#45;&gt;Node172</title>
<path fill="none" stroke="#191970" d="M86.2853,-12.7534C94.8509,-12.6478 103.6879,-12.5562 112,-12.5 146.6659,-12.2658 155.3348,-12.1791 190,-12.5 201.814,-12.6094 215.08,-12.8533 225.5068,-13.0729"/>
<polygon fill="#191970" stroke="#191970" points="85.9784,-9.257 76.0251,-12.8877 86.0701,-16.2564 85.9784,-9.257"/>
</g>
<!-- Node171&#45;&gt;Node172 -->
<g id="edge2" class="edge">
<title>Node171&#45;&gt;Node172</title>
<path fill="none" stroke="#191970" d="M200.0631,-23.4212C209.1933,-21.3596 218.1914,-19.3278 225.6435,-17.645"/>
<polygon fill="#191970" stroke="#191970" points="199.1543,-20.0382 190.1708,-25.655 200.6962,-26.8663 199.1543,-20.0382"/>
</g>
</g>
</svg>
