<?xml version="1.0" encoding="UTF-8" standalone="no"?>
<!DOCTYPE svg PUBLIC "-//W3C//DTD SVG 1.1//EN"
 "http://www.w3.org/Graphics/SVG/1.1/DTD/svg11.dtd">
<!-- Generated by graphviz version 2.43.0 (0)
 -->
<!-- Title: m_start_up::s_finalize_modules Pages: 1 -->
<svg width="309pt" height="339pt"
 viewBox="0.00 0.00 309.00 339.00" xmlns="http://www.w3.org/2000/svg" xmlns:xlink="http://www.w3.org/1999/xlink">
<g id="graph0" class="graph" transform="scale(1 1) rotate(0) translate(4 335)">
<title>m_start_up::s_finalize_modules</title>
<!-- Node1 -->
<g id="Node000001" class="node">
<title>Node1</title>
<g id="a_Node000001"><a xlink:title=" ">
<polygon fill="#999999" stroke="#666666" points="123,-163.5 0,-163.5 0,-133.5 123,-133.5 123,-163.5"/>
<text text-anchor="start" x="8" y="-151.5" font-family="Helvetica,sans-Serif" font-size="10.00">m_start_up::s_finalize</text>
<text text-anchor="middle" x="61.5" y="-140.5" font-family="Helvetica,sans-Serif" font-size="10.00">_modules</text>
</a>
</g>
</g>
<!-- Node2 -->
<g id="Node000002" class="node">
<title>Node2</title>
<g id="a_Node000002"><a xlink:href="namespacem__assign__variables.html#ac89ca97fbded5c8e62c5c9d28441ded2" target="_top" xlink:title=" ">
<polygon fill="white" stroke="#666666" points="286.5,-331 173.5,-331 173.5,-290 286.5,-290 286.5,-331"/>
<text text-anchor="start" x="181.5" y="-319" font-family="Helvetica,sans-Serif" font-size="10.00">m_assign_variables</text>
<text text-anchor="start" x="181.5" y="-308" font-family="Helvetica,sans-Serif" font-size="10.00">::s_finalize_assign</text>
<text text-anchor="middle" x="230" y="-297" font-family="Helvetica,sans-Serif" font-size="10.00">_variables_module</text>
</a>
</g>
</g>
<!-- Node1&#45;&gt;Node2 -->
<g id="edge1_Node000001_Node000002" class="edge">
<title>Node1&#45;&gt;Node2</title>
<g id="a_edge1_Node000001_Node000002"><a xlink:title=" ">
<path fill="none" stroke="#63b8ff" d="M70.02,-163.6C84.08,-190.47 116.8,-246.91 159,-280.5 160.77,-281.9 162.61,-283.26 164.5,-284.55"/>
<polygon fill="#63b8ff" stroke="#63b8ff" points="162.8,-287.61 173.14,-289.91 166.49,-281.66 162.8,-287.61"/>
</a>
</g>
</g>
<!-- Node3 -->
<g id="Node000003" class="node">
<title>Node3</title>
<g id="a_Node000003"><a xlink:href="namespacem__data__output.html#aab4817a657723cb9ebadcd09098a70cd" target="_top" xlink:title="Resets s_write_data_files pointer.">
<polygon fill="white" stroke="#666666" points="301,-271.5 159,-271.5 159,-241.5 301,-241.5 301,-271.5"/>
<text text-anchor="start" x="167" y="-259.5" font-family="Helvetica,sans-Serif" font-size="10.00">m_data_output::s_finalize</text>
<text text-anchor="middle" x="230" y="-248.5" font-family="Helvetica,sans-Serif" font-size="10.00">_data_output_module</text>
</a>
</g>
</g>
<!-- Node1&#45;&gt;Node3 -->
<g id="edge2_Node000001_Node000003" class="edge">
<title>Node1&#45;&gt;Node3</title>
<g id="a_edge2_Node000001_Node000003"><a xlink:title=" ">
<path fill="none" stroke="#63b8ff" d="M76.16,-163.53C93.72,-182.05 125.91,-213.41 159,-232.5 161.98,-234.22 165.11,-235.85 168.32,-237.37"/>
<polygon fill="#63b8ff" stroke="#63b8ff" points="166.95,-240.6 177.51,-241.43 169.78,-234.19 166.95,-240.6"/>
</a>
</g>
</g>
<!-- Node4 -->
<g id="Node000004" class="node">
<title>Node4</title>
<g id="a_Node000004"><a xlink:href="namespacem__global__parameters.html#aa2237c2ed3662bbd69ef39e2e92af7bf" target="_top" xlink:title=" ">
<polygon fill="white" stroke="#666666" points="291.5,-223 168.5,-223 168.5,-182 291.5,-182 291.5,-223"/>
<text text-anchor="start" x="176.5" y="-211" font-family="Helvetica,sans-Serif" font-size="10.00">m_global_parameters</text>
<text text-anchor="start" x="176.5" y="-200" font-family="Helvetica,sans-Serif" font-size="10.00">::s_finalize_global</text>
<text text-anchor="middle" x="230" y="-189" font-family="Helvetica,sans-Serif" font-size="10.00">_parameters_module</text>
</a>
</g>
</g>
<!-- Node1&#45;&gt;Node4 -->
<g id="edge3_Node000001_Node000004" class="edge">
<title>Node1&#45;&gt;Node4</title>
<g id="a_edge3_Node000001_Node000004"><a xlink:title=" ">
<path fill="none" stroke="#63b8ff" d="M108.88,-163.54C124.24,-168.52 141.71,-174.19 158.46,-179.62"/>
<polygon fill="#63b8ff" stroke="#63b8ff" points="157.64,-183.03 168.23,-182.79 159.8,-176.38 157.64,-183.03"/>
</a>
</g>
</g>
<!-- Node5 -->
<g id="Node000005" class="node">
<title>Node5</title>
<g id="a_Node000005"><a xlink:href="namespacem__grid.html#a6cea629b480dc605fe0493b4ac15d922" target="_top" xlink:title="Deallocation procedures for the module.">
<polygon fill="white" stroke="#666666" points="281,-163.5 179,-163.5 179,-133.5 281,-133.5 281,-163.5"/>
<text text-anchor="start" x="187" y="-151.5" font-family="Helvetica,sans-Serif" font-size="10.00">m_grid::s_finalize</text>
<text text-anchor="middle" x="230" y="-140.5" font-family="Helvetica,sans-Serif" font-size="10.00">_grid_module</text>
</a>
</g>
</g>
<!-- Node1&#45;&gt;Node5 -->
<g id="edge4_Node000001_Node000005" class="edge">
<title>Node1&#45;&gt;Node5</title>
<g id="a_edge4_Node000001_Node000005"><a xlink:title=" ">
<path fill="none" stroke="#63b8ff" d="M123.08,-148.5C137.96,-148.5 153.89,-148.5 168.76,-148.5"/>
<polygon fill="#63b8ff" stroke="#63b8ff" points="168.86,-152 178.86,-148.5 168.86,-145 168.86,-152"/>
</a>
</g>
</g>
<!-- Node6 -->
<g id="Node000006" class="node">
<title>Node6</title>
<g id="a_Node000006"><a xlink:href="m__phase__change_8fpp_8f90.html#a36f5dcc40afc3ddaecfaedaef61b5021" target="_top" xlink:title="This subroutine finalizes the phase change module.">
<polygon fill="white" stroke="#666666" points="288.5,-115.5 171.5,-115.5 171.5,-85.5 288.5,-85.5 288.5,-115.5"/>
<text text-anchor="start" x="179.5" y="-103.5" font-family="Helvetica,sans-Serif" font-size="10.00">s_finalize_relaxation</text>
<text text-anchor="middle" x="230" y="-92.5" font-family="Helvetica,sans-Serif" font-size="10.00">_solver_module</text>
</a>
</g>
</g>
<!-- Node1&#45;&gt;Node6 -->
<g id="edge5_Node000001_Node000006" class="edge">
<title>Node1&#45;&gt;Node6</title>
<g id="a_edge5_Node000001_Node000006"><a xlink:title=" ">
<path fill="none" stroke="#63b8ff" d="M114.72,-133.44C131.31,-128.66 149.81,-123.33 167.01,-118.37"/>
<polygon fill="#63b8ff" stroke="#63b8ff" points="168.32,-121.64 176.96,-115.5 166.38,-114.91 168.32,-121.64"/>
</a>
</g>
</g>
<!-- Node7 -->
<g id="Node000007" class="node">
<title>Node7</title>
<g id="a_Node000007"><a xlink:href="m__variables__conversion_8fpp_8f90.html#ac3668dc754cef7a968b09b29895b5915" target="_top" xlink:title=" ">
<polygon fill="white" stroke="#666666" points="288.5,-67.5 171.5,-67.5 171.5,-37.5 288.5,-37.5 288.5,-67.5"/>
<text text-anchor="start" x="179.5" y="-55.5" font-family="Helvetica,sans-Serif" font-size="10.00">s_finalize_variables</text>
<text text-anchor="middle" x="230" y="-44.5" font-family="Helvetica,sans-Serif" font-size="10.00">_conversion_module</text>
</a>
</g>
</g>
<!-- Node1&#45;&gt;Node7 -->
<g id="edge6_Node000001_Node000007" class="edge">
<title>Node1&#45;&gt;Node7</title>
<g id="a_edge6_Node000001_Node000007"><a xlink:title=" ">
<path fill="none" stroke="#63b8ff" d="M79.18,-133.49C97.61,-117.55 128.68,-92.5 159,-76.5 162.32,-74.75 165.79,-73.08 169.34,-71.51"/>
<polygon fill="#63b8ff" stroke="#63b8ff" points="170.97,-74.62 178.86,-67.55 168.28,-68.16 170.97,-74.62"/>
</a>
</g>
</g>
<!-- Node8 -->
<g id="Node000008" class="node">
<title>Node8</title>
<g id="a_Node000008"><a xlink:href="m__mpi__common_8fpp_8f90.html#a7e1e245c35e289bd5b4f843555a7e98c" target="_top" xlink:title="The subroutine finalizes the MPI execution environment.">
<polygon fill="white" stroke="#666666" points="273,-19 187,-19 187,0 273,0 273,-19"/>
<text text-anchor="middle" x="230" y="-7" font-family="Helvetica,sans-Serif" font-size="10.00">s_mpi_finalize</text>
</a>
</g>
</g>
<!-- Node1&#45;&gt;Node8 -->
<g id="edge7_Node000001_Node000008" class="edge">
<title>Node1&#45;&gt;Node8</title>
<g id="a_edge7_Node000001_Node000008"><a xlink:title=" ">
<path fill="none" stroke="#63b8ff" d="M70.41,-133.42C84.61,-107.83 116.94,-56.01 159,-28.5 164.46,-24.93 170.58,-22.02 176.87,-19.66"/>
<polygon fill="#63b8ff" stroke="#63b8ff" points="178.42,-22.83 186.82,-16.38 176.23,-16.19 178.42,-22.83"/>
</a>
</g>
</g>
</g>
</svg>
