<?xml version="1.0" encoding="UTF-8" standalone="no"?>
<!DOCTYPE svg PUBLIC "-//W3C//DTD SVG 1.1//EN"
 "http://www.w3.org/Graphics/SVG/1.1/DTD/svg11.dtd">
<!-- Generated by graphviz version 2.40.1 (20161225.0304)
 -->
<!-- Title: m_initial_condition::s_spherical_harmonic Pages: 1 -->
<svg width="261pt" height="44pt"
 viewBox="0.00 0.00 261.00 44.00" xmlns="http://www.w3.org/2000/svg" xmlns:xlink="http://www.w3.org/1999/xlink">
<g id="graph0" class="graph" transform="scale(1 1) rotate(0) translate(4 40)">
<title>m_initial_condition::s_spherical_harmonic</title>
<polygon fill="#ffffff" stroke="transparent" points="-4,4 -4,-40 257,-40 257,4 -4,4"/>
<!-- Node149 -->
<g id="node1" class="node">
<title>Node149</title>
<polygon fill="#bfbfbf" stroke="#000000" points="0,-5 0,-31 78,-31 78,-5 0,-5"/>
<text text-anchor="start" x="8" y="-20.6" font-family="Helvetica,sans-Serif" font-size="8.00" fill="#000000">m_initial_condition</text>
<text text-anchor="middle" x="39" y="-11.6" font-family="Helvetica,sans-Serif" font-size="8.00" fill="#000000">::s_spherical_harmonic</text>
</g>
<!-- Node150 -->
<g id="node2" class="node">
<title>Node150</title>
<g id="a_node2"><a xlink:href="namespacem__initial__condition.html#aa74a70029e3ec0fd3225b369e7c5443e" target="_top" xlink:title="This subroutine peruses the patches and depending on the type of geometry associated with a particula...">
<polygon fill="#ffffff" stroke="#000000" points="114,-.5 114,-35.5 181,-35.5 181,-.5 114,-.5"/>
<text text-anchor="start" x="122" y="-25.1" font-family="Helvetica,sans-Serif" font-size="8.00" fill="#000000">m_initial_condition</text>
<text text-anchor="start" x="122" y="-16.1" font-family="Helvetica,sans-Serif" font-size="8.00" fill="#000000">::s_generate_initial</text>
<text text-anchor="middle" x="147.5" y="-7.1" font-family="Helvetica,sans-Serif" font-size="8.00" fill="#000000">_condition</text>
</a>
</g>
</g>
<!-- Node149&#45;&gt;Node150 -->
<g id="edge1" class="edge">
<title>Node149&#45;&gt;Node150</title>
<path fill="none" stroke="#191970" d="M88.1905,-18C96.8387,-18 105.6599,-18 113.7647,-18"/>
<polygon fill="#191970" stroke="#191970" points="88.171,-14.5001 78.171,-18 88.171,-21.5001 88.171,-14.5001"/>
</g>
<!-- Node151 -->
<g id="node3" class="node">
<title>Node151</title>
<g id="a_node3"><a xlink:href="p__main_8f90.html#aeec10ee8e2940c953967da3e374e1579" target="_top" xlink:title="This program takes care of setting up the initial condition and grid data for the multicomponent flow...">
<polygon fill="#ffffff" stroke="#000000" points="217,-9.5 217,-26.5 253,-26.5 253,-9.5 217,-9.5"/>
<text text-anchor="middle" x="235" y="-16.1" font-family="Helvetica,sans-Serif" font-size="8.00" fill="#000000">p_main</text>
</a>
</g>
</g>
<!-- Node150&#45;&gt;Node151 -->
<g id="edge2" class="edge">
<title>Node150&#45;&gt;Node151</title>
<path fill="none" stroke="#191970" d="M191.2081,-18C200.253,-18 209.3002,-18 216.8035,-18"/>
<polygon fill="#191970" stroke="#191970" points="191.0796,-14.5001 181.0795,-18 191.0795,-21.5001 191.0796,-14.5001"/>
</g>
</g>
</svg>
