<?xml version="1.0" encoding="UTF-8" standalone="no"?>
<!DOCTYPE svg PUBLIC "-//W3C//DTD SVG 1.1//EN"
 "http://www.w3.org/Graphics/SVG/1.1/DTD/svg11.dtd">
<!-- Generated by graphviz version 2.43.0 (0)
 -->
<!-- Title: __m_acoustic_src_fpp_f90__ Pages: 1 -->
<svg width="705pt" height="349pt"
 viewBox="0.00 0.00 705.00 348.50" xmlns="http://www.w3.org/2000/svg" xmlns:xlink="http://www.w3.org/1999/xlink">
<g id="graph0" class="graph" transform="scale(1 1) rotate(0) translate(4 344.5)">
<title>__m_acoustic_src_fpp_f90__</title>
<!-- Node1 -->
<g id="Node000001" class="node">
<title>Node1</title>
<g id="a_Node000001"><a xlink:title=" ">
<polygon fill="#999999" stroke="#666666" points="123,-151 0,-151 0,-121 123,-121 123,-151"/>
<text text-anchor="start" x="8" y="-139" font-family="Helvetica,sans-Serif" font-size="10.00">__m_acoustic_src_fpp</text>
<text text-anchor="middle" x="61.5" y="-128" font-family="Helvetica,sans-Serif" font-size="10.00">_f90__</text>
</a>
</g>
</g>
<!-- Node2 -->
<g id="Node000002" class="node">
<title>Node2</title>
<g id="a_Node000002"><a xlink:href="m__acoustic__src_8fpp_8f90.html#a39c2ea1473275d2287856788c0d21d7a" target="_top" xlink:title="This subroutine updates the rhs by computing the mass, mom, energy sources.">
<polygon fill="white" stroke="#666666" points="310,-200.5 159,-200.5 159,-181.5 310,-181.5 310,-200.5"/>
<text text-anchor="middle" x="234.5" y="-188.5" font-family="Helvetica,sans-Serif" font-size="10.00">s_acoustic_src_calculations</text>
</a>
</g>
</g>
<!-- Node1&#45;&gt;Node2 -->
<g id="edge1_Node000001_Node000002" class="edge">
<title>Node1&#45;&gt;Node2</title>
<g id="a_edge1_Node000001_Node000002"><a xlink:title=" ">
<path fill="none" stroke="#63b8ff" d="M109.23,-151.03C135.85,-159.59 168.84,-170.2 194.14,-178.34"/>
<polygon fill="#63b8ff" stroke="#63b8ff" points="193.18,-181.71 203.78,-181.44 195.33,-175.05 193.18,-181.71"/>
</a>
</g>
</g>
<!-- Node9 -->
<g id="Node000009" class="node">
<title>Node9</title>
<g id="a_Node000009"><a xlink:href="m__acoustic__src_8fpp_8f90.html#af831e41c72f5b6ca9204e6b91b5a0f45" target="_top" xlink:title="This subroutine initializes the acoustic source module.">
<polygon fill="white" stroke="#666666" points="301.5,-145.5 167.5,-145.5 167.5,-126.5 301.5,-126.5 301.5,-145.5"/>
<text text-anchor="middle" x="234.5" y="-133.5" font-family="Helvetica,sans-Serif" font-size="10.00">s_initialize_acoustic_src</text>
</a>
</g>
</g>
<!-- Node1&#45;&gt;Node9 -->
<g id="edge10_Node000001_Node000009" class="edge">
<title>Node1&#45;&gt;Node9</title>
<g id="a_edge10_Node000001_Node000009"><a xlink:title=" ">
<path fill="none" stroke="#63b8ff" d="M123.27,-136C134.22,-136 145.76,-136 157.09,-136"/>
<polygon fill="#63b8ff" stroke="#63b8ff" points="157.41,-139.5 167.41,-136 157.41,-132.5 157.41,-139.5"/>
</a>
</g>
</g>
<!-- Node10 -->
<g id="Node000010" class="node">
<title>Node10</title>
<g id="a_Node000010"><a xlink:href="m__acoustic__src_8fpp_8f90.html#af8a8a19e583a2c2ea5bb6c2cf3285bfa" target="_top" xlink:title="This subroutine identifies and precalculates the non&#45;zero acoustic spatial sources before time&#45;steppi...">
<polygon fill="white" stroke="#666666" points="301,-108 168,-108 168,-78 301,-78 301,-108"/>
<text text-anchor="start" x="176" y="-96" font-family="Helvetica,sans-Serif" font-size="10.00">s_precalculate_acoustic</text>
<text text-anchor="middle" x="234.5" y="-85" font-family="Helvetica,sans-Serif" font-size="10.00">_spatial_sources</text>
</a>
</g>
</g>
<!-- Node1&#45;&gt;Node10 -->
<g id="edge12_Node000001_Node000010" class="edge">
<title>Node1&#45;&gt;Node10</title>
<g id="a_edge12_Node000001_Node000010"><a xlink:title=" ">
<path fill="none" stroke="#63b8ff" d="M122.31,-120.96C135.72,-117.59 150.05,-113.98 163.82,-110.52"/>
<polygon fill="#63b8ff" stroke="#63b8ff" points="164.88,-113.86 173.73,-108.03 163.17,-107.08 164.88,-113.86"/>
</a>
</g>
</g>
<!-- Node3 -->
<g id="Node000003" class="node">
<title>Node3</title>
<g id="a_Node000003"><a xlink:href="m__acoustic__src_8fpp_8f90.html#adb20cd3619a956ef6c73ce656461e650" target="_top" xlink:title="This function performs wavelength to frequency conversion.">
<polygon fill="white" stroke="#666666" points="477.5,-322.5 374.5,-322.5 374.5,-303.5 477.5,-303.5 477.5,-322.5"/>
<text text-anchor="middle" x="426" y="-310.5" font-family="Helvetica,sans-Serif" font-size="10.00">f_frequency_local</text>
</a>
</g>
</g>
<!-- Node2&#45;&gt;Node3 -->
<g id="edge2_Node000002_Node000003" class="edge">
<title>Node2&#45;&gt;Node3</title>
<g id="a_edge2_Node000002_Node000003"><a xlink:title=" ">
<path fill="none" stroke="#63b8ff" d="M242.9,-200.68C259.17,-221.25 300.26,-269.42 346,-294 351.71,-297.07 357.91,-299.65 364.25,-301.81"/>
<polygon fill="#63b8ff" stroke="#63b8ff" points="363.68,-305.3 374.26,-304.89 365.73,-298.61 363.68,-305.3"/>
</a>
</g>
</g>
<!-- Node4 -->
<g id="Node000004" class="node">
<title>Node4</title>
<g id="a_Node000004"><a xlink:href="m__acoustic__src_8fpp_8f90.html#a7c68cb6fc8fb6d6bb872f2e033e9a732" target="_top" xlink:title="This function performs Gaussian sigma dist to time conversion.">
<polygon fill="white" stroke="#666666" points="484.5,-267 367.5,-267 367.5,-237 484.5,-237 484.5,-267"/>
<text text-anchor="start" x="375.5" y="-255" font-family="Helvetica,sans-Serif" font-size="10.00">f_gauss_sigma_time</text>
<text text-anchor="middle" x="426" y="-244" font-family="Helvetica,sans-Serif" font-size="10.00">_local</text>
</a>
</g>
</g>
<!-- Node2&#45;&gt;Node4 -->
<g id="edge4_Node000002_Node000004" class="edge">
<title>Node2&#45;&gt;Node4</title>
<g id="a_edge4_Node000002_Node000004"><a xlink:title=" ">
<path fill="none" stroke="#63b8ff" d="M263.59,-200.65C285.88,-208.25 317.86,-219.02 346,-228 352.09,-229.95 358.46,-231.94 364.83,-233.91"/>
<polygon fill="#63b8ff" stroke="#63b8ff" points="364.2,-237.38 374.78,-236.98 366.26,-230.69 364.2,-237.38"/>
</a>
</g>
</g>
<!-- Node5 -->
<g id="Node000005" class="node">
<title>Node5</title>
<g id="a_Node000005"><a xlink:href="m__helper__basic_8fpp_8f90.html#af13561cd8191e20b0ee3bdf335944ce5" target="_top" xlink:title="Checks if a real(wp) variable is of default value.">
<polygon fill="white" stroke="#666666" points="463,-144.5 389,-144.5 389,-125.5 463,-125.5 463,-144.5"/>
<text text-anchor="middle" x="426" y="-132.5" font-family="Helvetica,sans-Serif" font-size="10.00">f_is_default</text>
</a>
</g>
</g>
<!-- Node2&#45;&gt;Node5 -->
<g id="edge6_Node000002_Node000005" class="edge">
<title>Node2&#45;&gt;Node5</title>
<g id="a_edge6_Node000002_Node000005"><a xlink:title=" ">
<path fill="none" stroke="#63b8ff" d="M262.09,-181.37C284.35,-173.49 317.03,-162.32 346,-154 356.59,-150.96 368.07,-148.01 378.91,-145.37"/>
<polygon fill="#63b8ff" stroke="#63b8ff" points="379.73,-148.77 388.64,-143.04 378.1,-141.96 379.73,-148.77"/>
</a>
</g>
</g>
<!-- Node7 -->
<g id="Node000007" class="node">
<title>Node7</title>
<g id="a_Node000007"><a xlink:href="m__mpi__proxy_8fpp_8f90.html#a4784f0af0b06e78a9702ffe9f4d63346" target="_top" xlink:title=" ">
<polygon fill="white" stroke="#666666" points="506,-218.5 346,-218.5 346,-199.5 506,-199.5 506,-218.5"/>
<text text-anchor="middle" x="426" y="-206.5" font-family="Helvetica,sans-Serif" font-size="10.00">s_mpi_send_random_number</text>
</a>
</g>
</g>
<!-- Node2&#45;&gt;Node7 -->
<g id="edge8_Node000002_Node000007" class="edge">
<title>Node2&#45;&gt;Node7</title>
<g id="a_edge8_Node000002_Node000007"><a xlink:title=" ">
<path fill="none" stroke="#63b8ff" d="M310.12,-198.09C318.54,-198.89 327.17,-199.71 335.74,-200.52"/>
<polygon fill="#63b8ff" stroke="#63b8ff" points="335.48,-204.01 345.76,-201.47 336.14,-197.04 335.48,-204.01"/>
</a>
</g>
</g>
<!-- Node8 -->
<g id="Node000008" class="node">
<title>Node8</title>
<g id="a_Node000008"><a xlink:href="m__acoustic__src_8fpp_8f90.html#a7d7b39dd65978c101de5c5fcb1d45f91" target="_top" xlink:title="This subroutine gives the temporally varying amplitude of the pulse.">
<polygon fill="white" stroke="#666666" points="480.5,-181.5 371.5,-181.5 371.5,-162.5 480.5,-162.5 480.5,-181.5"/>
<text text-anchor="middle" x="426" y="-169.5" font-family="Helvetica,sans-Serif" font-size="10.00">s_source_temporal</text>
</a>
</g>
</g>
<!-- Node2&#45;&gt;Node8 -->
<g id="edge9_Node000002_Node000008" class="edge">
<title>Node2&#45;&gt;Node8</title>
<g id="a_edge9_Node000002_Node000008"><a xlink:title=" ">
<path fill="none" stroke="#63b8ff" d="M310.12,-183.52C327.02,-181.82 344.81,-180.04 361.21,-178.4"/>
<polygon fill="#63b8ff" stroke="#63b8ff" points="361.63,-181.87 371.23,-177.39 360.93,-174.91 361.63,-181.87"/>
</a>
</g>
</g>
<!-- Node3&#45;&gt;Node3 -->
<g id="edge3_Node000003_Node000003" class="edge">
<title>Node3&#45;&gt;Node3</title>
<g id="a_edge3_Node000003_Node000003"><a xlink:title=" ">
<path fill="none" stroke="#63b8ff" d="M396.72,-322.58C382.47,-331.23 392.23,-340.5 426,-340.5 449.22,-340.5 461.09,-336.12 461.61,-330.57"/>
<polygon fill="#63b8ff" stroke="#63b8ff" points="464.23,-328.25 455.28,-322.58 458.75,-332.6 464.23,-328.25"/>
</a>
</g>
</g>
<!-- Node4&#45;&gt;Node4 -->
<g id="edge5_Node000004_Node000004" class="edge">
<title>Node4&#45;&gt;Node4</title>
<g id="a_edge5_Node000004_Node000004"><a xlink:title=" ">
<path fill="none" stroke="#63b8ff" d="M392.6,-267.28C385.18,-276.41 396.31,-285 426,-285 443.63,-285 454.71,-281.97 459.26,-277.6"/>
<polygon fill="#63b8ff" stroke="#63b8ff" points="462.76,-277.32 459.4,-267.28 455.76,-277.23 462.76,-277.32"/>
</a>
</g>
</g>
<!-- Node6 -->
<g id="Node000006" class="node">
<title>Node6</title>
<g id="a_Node000006"><a xlink:href="m__helper__basic_8fpp_8f90.html#a49aa1857cb519bdc6b35434fd1821cab" target="_top" xlink:title="This procedure checks if two floating point numbers of wp are within tolerance.">
<polygon fill="white" stroke="#666666" points="665.5,-144.5 573.5,-144.5 573.5,-125.5 665.5,-125.5 665.5,-144.5"/>
<text text-anchor="middle" x="619.5" y="-132.5" font-family="Helvetica,sans-Serif" font-size="10.00">f_approx_equal</text>
</a>
</g>
</g>
<!-- Node5&#45;&gt;Node6 -->
<g id="edge7_Node000005_Node000006" class="edge">
<title>Node5&#45;&gt;Node6</title>
<g id="a_edge7_Node000005_Node000006"><a xlink:title=" ">
<path fill="none" stroke="#63b8ff" d="M463.02,-135C491.18,-135 530.81,-135 563.01,-135"/>
<polygon fill="#63b8ff" stroke="#63b8ff" points="563.18,-138.5 573.18,-135 563.18,-131.5 563.18,-138.5"/>
</a>
</g>
</g>
<!-- Node9&#45;&gt;Node5 -->
<g id="edge11_Node000009_Node000005" class="edge">
<title>Node9&#45;&gt;Node5</title>
<g id="a_edge11_Node000009_Node000005"><a xlink:title=" ">
<path fill="none" stroke="#63b8ff" d="M301.51,-135.65C326.98,-135.52 355.52,-135.37 378.74,-135.24"/>
<polygon fill="#63b8ff" stroke="#63b8ff" points="379.02,-138.74 389,-135.19 378.98,-131.74 379.02,-138.74"/>
</a>
</g>
</g>
<!-- Node11 -->
<g id="Node000011" class="node">
<title>Node11</title>
<g id="a_Node000011"><a xlink:href="m__mpi__common_8fpp_8f90.html#adbcc47e90968ff0f14ccc2ca3c47586a" target="_top" xlink:title="The subroutine terminates the MPI execution environment.">
<polygon fill="white" stroke="#666666" points="464.5,-104.5 387.5,-104.5 387.5,-85.5 464.5,-85.5 464.5,-104.5"/>
<text text-anchor="middle" x="426" y="-92.5" font-family="Helvetica,sans-Serif" font-size="10.00">s_mpi_abort</text>
</a>
</g>
</g>
<!-- Node10&#45;&gt;Node11 -->
<g id="edge13_Node000010_Node000011" class="edge">
<title>Node10&#45;&gt;Node11</title>
<g id="a_edge13_Node000010_Node000011"><a xlink:title=" ">
<path fill="none" stroke="#63b8ff" d="M301.25,-93.69C326.18,-93.96 354.09,-94.25 377.08,-94.49"/>
<polygon fill="#63b8ff" stroke="#63b8ff" points="377.23,-98 387.26,-94.6 377.3,-91 377.23,-98"/>
</a>
</g>
</g>
<!-- Node12 -->
<g id="Node000012" class="node">
<title>Node12</title>
<g id="a_Node000012"><a xlink:href="m__acoustic__src_8fpp_8f90.html#a4151028fcdf8728708fa365aeb57df5c" target="_top" xlink:title="This subroutine gives the spatial support of the acoustic source.">
<polygon fill="white" stroke="#666666" points="475,-67.5 377,-67.5 377,-48.5 475,-48.5 475,-67.5"/>
<text text-anchor="middle" x="426" y="-55.5" font-family="Helvetica,sans-Serif" font-size="10.00">s_source_spatial</text>
</a>
</g>
</g>
<!-- Node10&#45;&gt;Node12 -->
<g id="edge14_Node000010_Node000012" class="edge">
<title>Node10&#45;&gt;Node12</title>
<g id="a_edge14_Node000010_Node000012"><a xlink:title=" ">
<path fill="none" stroke="#63b8ff" d="M301.25,-80.86C322.65,-76.9 346.24,-72.55 367.03,-68.71"/>
<polygon fill="#63b8ff" stroke="#63b8ff" points="367.8,-72.12 376.99,-66.87 366.53,-65.24 367.8,-72.12"/>
</a>
</g>
</g>
<!-- Node13 -->
<g id="Node000013" class="node">
<title>Node13</title>
<g id="a_Node000013"><a xlink:href="m__acoustic__src_8fpp_8f90.html#ac7c98d7c3759122b3baf873896cd5cd2" target="_top" xlink:title="This subroutine calculates the spatial support for planar acoustic sources in 1D, 2D,...">
<polygon fill="white" stroke="#666666" points="686.5,-104.5 552.5,-104.5 552.5,-85.5 686.5,-85.5 686.5,-104.5"/>
<text text-anchor="middle" x="619.5" y="-92.5" font-family="Helvetica,sans-Serif" font-size="10.00">s_source_spatial_planar</text>
</a>
</g>
</g>
<!-- Node12&#45;&gt;Node13 -->
<g id="edge15_Node000012_Node000013" class="edge">
<title>Node12&#45;&gt;Node13</title>
<g id="a_edge15_Node000012_Node000013"><a xlink:title=" ">
<path fill="none" stroke="#63b8ff" d="M475.32,-67.34C500.77,-72.25 532.2,-78.33 559.12,-83.53"/>
<polygon fill="#63b8ff" stroke="#63b8ff" points="558.71,-87.01 569.19,-85.47 560.04,-80.14 558.71,-87.01"/>
</a>
</g>
</g>
<!-- Node14 -->
<g id="Node000014" class="node">
<title>Node14</title>
<g id="a_Node000014"><a xlink:href="m__acoustic__src_8fpp_8f90.html#aa9f0b015fd9a479127d2ff59b03c06ba" target="_top" xlink:title="This subroutine calculates the spatial support for a single transducer in 2D, 2D axisymmetric,...">
<polygon fill="white" stroke="#666666" points="697,-67.5 542,-67.5 542,-48.5 697,-48.5 697,-67.5"/>
<text text-anchor="middle" x="619.5" y="-55.5" font-family="Helvetica,sans-Serif" font-size="10.00">s_source_spatial_transducer</text>
</a>
</g>
</g>
<!-- Node12&#45;&gt;Node14 -->
<g id="edge16_Node000012_Node000014" class="edge">
<title>Node12&#45;&gt;Node14</title>
<g id="a_edge16_Node000012_Node000014"><a xlink:title=" ">
<path fill="none" stroke="#63b8ff" d="M475.32,-58C492.5,-58 512.39,-58 531.79,-58"/>
<polygon fill="#63b8ff" stroke="#63b8ff" points="531.87,-61.5 541.87,-58 531.87,-54.5 531.87,-61.5"/>
</a>
</g>
</g>
<!-- Node15 -->
<g id="Node000015" class="node">
<title>Node15</title>
<g id="a_Node000015"><a xlink:href="m__acoustic__src_8fpp_8f90.html#a0815c1d9b9bcbbe5bd76586dd2f20163" target="_top" xlink:title="This subroutine calculates the spatial support for multiple transducers in 2D, 2D axisymmetric,...">
<polygon fill="white" stroke="#666666" points="697,-30 542,-30 542,0 697,0 697,-30"/>
<text text-anchor="start" x="550" y="-18" font-family="Helvetica,sans-Serif" font-size="10.00">s_source_spatial_transducer</text>
<text text-anchor="middle" x="619.5" y="-7" font-family="Helvetica,sans-Serif" font-size="10.00">_array</text>
</a>
</g>
</g>
<!-- Node12&#45;&gt;Node15 -->
<g id="edge17_Node000012_Node000015" class="edge">
<title>Node12&#45;&gt;Node15</title>
<g id="a_edge17_Node000012_Node000015"><a xlink:title=" ">
<path fill="none" stroke="#63b8ff" d="M469.5,-48.46C490.71,-43.69 517.03,-37.78 541.62,-32.26"/>
<polygon fill="#63b8ff" stroke="#63b8ff" points="542.68,-35.61 551.67,-30.01 541.15,-28.78 542.68,-35.61"/>
</a>
</g>
</g>
</g>
</svg>
