<?xml version="1.0" encoding="UTF-8" standalone="no"?>
<!DOCTYPE svg PUBLIC "-//W3C//DTD SVG 1.1//EN"
 "http://www.w3.org/Graphics/SVG/1.1/DTD/svg11.dtd">
<!-- Generated by graphviz version 2.43.0 (0)
 -->
<!-- Title: s_acoustic_src_calculations Pages: 1 -->
<svg width="312pt" height="149pt"
 viewBox="0.00 0.00 312.00 149.00" xmlns="http://www.w3.org/2000/svg" xmlns:xlink="http://www.w3.org/1999/xlink">

<svg id="main" version="1.1" xmlns="http://www.w3.org/2000/svg" xmlns:xlink="http://www.w3.org/1999/xlink" xml:space="preserve">

<style type="text/css"><![CDATA[
.node, .edge {opacity: 0.7;}
.node.selected, .edge.selected {opacity: 1;}
.edge:hover path { stroke: red; }
.edge:hover polygon { stroke: red; fill: red; }
]]></style>
<script type="application/ecmascript" xlink:href="svg.min.js"/>
<svg id="graph" class="graph">
<g id="graph0" class="graph" transform="scale(1 1) rotate(0) translate(4 145)">
<title>s_acoustic_src_calculations</title>
<!-- Node1 -->
<g id="Node000001" class="node">
<title>Node1</title>
<g id="a_Node000001"><a xlink:title="This subroutine updates the rhs by computing the mass, mom, energy sources.">
<polygon fill="#999999" stroke="#666666" points="151,-62 0,-62 0,-43 151,-43 151,-62"/>
<text text-anchor="middle" x="75.5" y="-50" font-family="Helvetica,sans-Serif" font-size="10.00">s_acoustic_src_calculations</text>
</a>
</g>
</g>
<!-- Node2 -->
<g id="Node000002" class="node">
<title>Node2</title>
<g id="a_Node000002"><a xlink:href="m__acoustic__src_8fpp_8f90.html#a2e53efec27e8cc52f35b4db516948f51" target="_top" xlink:title="This function performs wavelength to frequency conversion.">
<polygon fill="white" stroke="#666666" points="297,-123 194,-123 194,-104 297,-104 297,-123"/>
<text text-anchor="middle" x="245.5" y="-111" font-family="Helvetica,sans-Serif" font-size="10.00">f_frequency_local</text>
</a>
</g>
</g>
<!-- Node1&#45;&gt;Node2 -->
<g id="edge1_Node000001_Node000002" class="edge">
<title>Node1&#45;&gt;Node2</title>
<g id="a_edge1_Node000001_Node000002"><a xlink:title=" ">
<path fill="none" stroke="#63b8ff" d="M100.96,-62.15C123.28,-70.87 157.22,-83.92 187,-94.5 192.92,-96.6 199.2,-98.76 205.36,-100.82"/>
<polygon fill="#63b8ff" stroke="#63b8ff" points="204.27,-104.15 214.87,-103.99 206.48,-97.51 204.27,-104.15"/>
</a>
</g>
</g>
<!-- Node3 -->
<g id="Node000003" class="node">
<title>Node3</title>
<g id="a_Node000003"><a xlink:href="m__acoustic__src_8fpp_8f90.html#aaf327cf1dd669ce002ce4c8e88484316" target="_top" xlink:title="This function performs Gaussian sigma dist to time conversion.">
<polygon fill="white" stroke="#666666" points="304,-67.5 187,-67.5 187,-37.5 304,-37.5 304,-67.5"/>
<text text-anchor="start" x="195" y="-55.5" font-family="Helvetica,sans-Serif" font-size="10.00">f_gauss_sigma_time</text>
<text text-anchor="middle" x="245.5" y="-44.5" font-family="Helvetica,sans-Serif" font-size="10.00">_local</text>
</a>
</g>
</g>
<!-- Node1&#45;&gt;Node3 -->
<g id="edge3_Node000001_Node000003" class="edge">
<title>Node1&#45;&gt;Node3</title>
<g id="a_edge3_Node000001_Node000003"><a xlink:title=" ">
<path fill="none" stroke="#63b8ff" d="M151.17,-52.5C159.7,-52.5 168.37,-52.5 176.8,-52.5"/>
<polygon fill="#63b8ff" stroke="#63b8ff" points="176.96,-56 186.96,-52.5 176.96,-49 176.96,-56"/>
</a>
</g>
</g>
<!-- Node4 -->
<g id="Node000004" class="node">
<title>Node4</title>
<g id="a_Node000004"><a xlink:href="m__acoustic__src_8fpp_8f90.html#a45959b07b26426df591c7b4af11df6f9" target="_top" xlink:title="This subroutine gives the temporally varying amplitude of the pulse.">
<polygon fill="white" stroke="#666666" points="300,-19 191,-19 191,0 300,0 300,-19"/>
<text text-anchor="middle" x="245.5" y="-7" font-family="Helvetica,sans-Serif" font-size="10.00">s_source_temporal</text>
</a>
</g>
</g>
<!-- Node1&#45;&gt;Node4 -->
<g id="edge5_Node000001_Node000004" class="edge">
<title>Node1&#45;&gt;Node4</title>
<g id="a_edge5_Node000001_Node000004"><a xlink:title=" ">
<path fill="none" stroke="#63b8ff" d="M113.78,-42.96C138.47,-36.64 171.05,-28.3 197.51,-21.53"/>
<polygon fill="#63b8ff" stroke="#63b8ff" points="198.5,-24.89 207.32,-19.02 196.76,-18.11 198.5,-24.89"/>
</a>
</g>
</g>
<!-- Node2&#45;&gt;Node2 -->
<g id="edge2_Node000002_Node000002" class="edge">
<title>Node2&#45;&gt;Node2</title>
<g id="a_edge2_Node000002_Node000002"><a xlink:title=" ">
<path fill="none" stroke="#63b8ff" d="M219.3,-123.08C206.55,-131.73 215.29,-141 245.5,-141 265.8,-141 276.4,-136.82 277.31,-131.45"/>
<polygon fill="#63b8ff" stroke="#63b8ff" points="280.18,-129.44 271.7,-123.08 274.36,-133.34 280.18,-129.44"/>
</a>
</g>
</g>
<!-- Node3&#45;&gt;Node3 -->
<g id="edge4_Node000003_Node000003" class="edge">
<title>Node3&#45;&gt;Node3</title>
<g id="a_edge4_Node000003_Node000003"><a xlink:title=" ">
<path fill="none" stroke="#63b8ff" d="M215.62,-67.78C208.98,-76.91 218.94,-85.5 245.5,-85.5 261.27,-85.5 271.19,-82.47 275.26,-78.1"/>
<polygon fill="#63b8ff" stroke="#63b8ff" points="278.76,-77.82 275.38,-67.78 271.76,-77.73 278.76,-77.82"/>
</a>
</g>
</g>
</g>
</svg>
</svg>

<style type='text/css'>
<![CDATA[
[data-mouse-over-selected='false'] { opacity: 0.7; }
[data-mouse-over-selected='true']  { opacity: 1.0; }
]]>
</style>
<script type="application/ecmascript"><![CDATA[
document.addEventListener('DOMContentLoaded', (event) => {
  highlightEdges();
  highlightAdjacentNodes();
});
]]></script>
</svg>
