<?xml version="1.0" encoding="UTF-8" standalone="no"?>
<!DOCTYPE svg PUBLIC "-//W3C//DTD SVG 1.1//EN"
 "http://www.w3.org/Graphics/SVG/1.1/DTD/svg11.dtd">
<!-- Generated by graphviz version 2.43.0 (0)
 -->
<!-- Title: s_compute_body_forces_rhs Pages: 1 -->
<svg width="354pt" height="64pt"
 viewBox="0.00 0.00 354.00 64.00" xmlns="http://www.w3.org/2000/svg" xmlns:xlink="http://www.w3.org/1999/xlink">
<g id="graph0" class="graph" transform="scale(1 1) rotate(0) translate(4 60)">
<title>s_compute_body_forces_rhs</title>
<!-- Node1 -->
<g id="Node000001" class="node">
<title>Node1</title>
<g id="a_Node000001"><a xlink:title="This subroutine calculates the source term due to body forces so the system can be advanced in time.">
<polygon fill="#999999" stroke="#666666" points="155,-37 0,-37 0,-18 155,-18 155,-37"/>
<text text-anchor="middle" x="77.5" y="-25" font-family="Helvetica,sans-Serif" font-size="10.00">s_compute_body_forces_rhs</text>
</a>
</g>
</g>
<!-- Node2 -->
<g id="Node000002" class="node">
<title>Node2</title>
<g id="a_Node000002"><a xlink:href="m__body__forces_8fpp_8f90.html#a5dc88fbee8eb48c2ce7d4f375abd5b90" target="_top" xlink:title="This subroutine computes the acceleration at time t.">
<polygon fill="white" stroke="#666666" points="336,-56 201,-56 201,-37 336,-37 336,-56"/>
<text text-anchor="middle" x="268.5" y="-44" font-family="Helvetica,sans-Serif" font-size="10.00">s_compute_acceleration</text>
</a>
</g>
</g>
<!-- Node1&#45;&gt;Node2 -->
<g id="edge1_Node000001_Node000002" class="edge">
<title>Node1&#45;&gt;Node2</title>
<g id="a_edge1_Node000001_Node000002"><a xlink:title=" ">
<path fill="none" stroke="#63b8ff" d="M155.1,-35.2C166.81,-36.38 178.91,-37.59 190.63,-38.77"/>
<polygon fill="#63b8ff" stroke="#63b8ff" points="190.51,-42.28 200.81,-39.8 191.21,-35.31 190.51,-42.28"/>
</a>
</g>
</g>
<!-- Node3 -->
<g id="Node000003" class="node">
<title>Node3</title>
<g id="a_Node000003"><a xlink:href="m__body__forces_8fpp_8f90.html#a1a1bbbafe014815de94b94ed3bc90a1b" target="_top" xlink:title="This subroutine calculates the mixture density at each cell center param q_cons_vf Conservative varia...">
<polygon fill="white" stroke="#666666" points="346,-19 191,-19 191,0 346,0 346,-19"/>
<text text-anchor="middle" x="268.5" y="-7" font-family="Helvetica,sans-Serif" font-size="10.00">s_compute_mixture_density</text>
</a>
</g>
</g>
<!-- Node1&#45;&gt;Node3 -->
<g id="edge2_Node000001_Node000003" class="edge">
<title>Node1&#45;&gt;Node3</title>
<g id="a_edge2_Node000001_Node000003"><a xlink:title=" ">
<path fill="none" stroke="#63b8ff" d="M155.1,-20.2C163.56,-19.4 172.22,-18.57 180.79,-17.76"/>
<polygon fill="#63b8ff" stroke="#63b8ff" points="181.17,-21.24 190.79,-16.81 180.5,-14.27 181.17,-21.24"/>
</a>
</g>
</g>
</g>
</svg>
