<?xml version="1.0" encoding="UTF-8" standalone="no"?>
<!DOCTYPE svg PUBLIC "-//W3C//DTD SVG 1.1//EN"
 "http://www.w3.org/Graphics/SVG/1.1/DTD/svg11.dtd">
<!-- Generated by graphviz version 2.43.0 (0)
 -->
<!-- Title: s_finalize_body_forces_module Pages: 1 -->
<svg width="463pt" height="94pt"
 viewBox="0.00 0.00 463.00 93.50" xmlns="http://www.w3.org/2000/svg" xmlns:xlink="http://www.w3.org/1999/xlink">

<svg id="main" version="1.1" xmlns="http://www.w3.org/2000/svg" xmlns:xlink="http://www.w3.org/1999/xlink" xml:space="preserve">

<style type="text/css"><![CDATA[
.node, .edge {opacity: 0.7;}
.node.selected, .edge.selected {opacity: 1;}
.edge:hover path { stroke: red; }
.edge:hover polygon { stroke: red; fill: red; }
]]></style>
<script type="application/ecmascript" xlink:href="svg.min.js"/>
<svg id="graph" class="graph">
<g id="graph0" class="graph" transform="scale(1 1) rotate(0) translate(4 89.5)">
<title>s_finalize_body_forces_module</title>
<!-- Node1 -->
<g id="Node000001" class="node">
<title>Node1</title>
<g id="a_Node000001"><a xlink:title=" ">
<polygon fill="#999999" stroke="#666666" points="455,-63.5 328,-63.5 328,-33.5 455,-33.5 455,-63.5"/>
<text text-anchor="start" x="336" y="-51.5" font-family="Helvetica,sans-Serif" font-size="10.00">s_finalize_body_forces</text>
<text text-anchor="middle" x="391.5" y="-40.5" font-family="Helvetica,sans-Serif" font-size="10.00">_module</text>
</a>
</g>
</g>
<!-- Node2 -->
<g id="Node000002" class="node">
<title>Node2</title>
<g id="a_Node000002"><a xlink:href="m__body__forces_8fpp_8f90.html#aa1d11e529399caec2426ff421523936c" target="_top" xlink:title=" ">
<polygon fill="white" stroke="#666666" points="292,-85.5 170,-85.5 170,-55.5 292,-55.5 292,-85.5"/>
<text text-anchor="start" x="178" y="-73.5" font-family="Helvetica,sans-Serif" font-size="10.00">__m_body_forces_fpp</text>
<text text-anchor="middle" x="231" y="-62.5" font-family="Helvetica,sans-Serif" font-size="10.00">_f90__</text>
</a>
</g>
</g>
<!-- Node1&#45;&gt;Node2 -->
<g id="edge1_Node000001_Node000002" class="edge">
<title>Node1&#45;&gt;Node2</title>
<g id="a_edge1_Node000001_Node000002"><a xlink:title=" ">
<path fill="none" stroke="#63b8ff" d="M317.83,-58.59C309.23,-59.78 300.52,-60.99 292.12,-62.16"/>
<polygon fill="#63b8ff" stroke="#63b8ff" points="318.43,-62.04 327.86,-57.19 317.47,-55.1 318.43,-62.04"/>
</a>
</g>
</g>
<!-- Node3 -->
<g id="Node000003" class="node">
<title>Node3</title>
<g id="a_Node000003"><a xlink:href="m__start__up_8fpp_8f90.html#a3889439c70340fceda8c1cc0e8e0b64a" target="_top" xlink:title=" ">
<polygon fill="white" stroke="#666666" points="286,-37 176,-37 176,-18 286,-18 286,-37"/>
<text text-anchor="middle" x="231" y="-25" font-family="Helvetica,sans-Serif" font-size="10.00">s_finalize_modules</text>
</a>
</g>
</g>
<!-- Node1&#45;&gt;Node3 -->
<g id="edge2_Node000001_Node000003" class="edge">
<title>Node1&#45;&gt;Node3</title>
<g id="a_edge2_Node000001_Node000003"><a xlink:title=" ">
<path fill="none" stroke="#63b8ff" d="M317.76,-38.86C307.16,-37.46 296.4,-36.03 286.25,-34.69"/>
<polygon fill="#63b8ff" stroke="#63b8ff" points="317.48,-42.36 327.86,-40.2 318.4,-35.42 317.48,-42.36"/>
</a>
</g>
</g>
<!-- Node4 -->
<g id="Node000004" class="node">
<title>Node4</title>
<g id="a_Node000004"><a xlink:href="m__start__up_8fpp_8f90.html#ac09c216e540601049a819ae5b76091b5" target="_top" xlink:title=" ">
<polygon fill="white" stroke="#666666" points="134,-56 0,-56 0,-37 134,-37 134,-56"/>
<text text-anchor="middle" x="67" y="-44" font-family="Helvetica,sans-Serif" font-size="10.00">__m_start_up_fpp_f90__</text>
</a>
</g>
</g>
<!-- Node3&#45;&gt;Node4 -->
<g id="edge3_Node000003_Node000004" class="edge">
<title>Node3&#45;&gt;Node4</title>
<g id="a_edge3_Node000003_Node000004"><a xlink:title=" ">
<path fill="none" stroke="#63b8ff" d="M165.43,-35.07C155.11,-36.28 144.42,-37.54 134.06,-38.75"/>
<polygon fill="#63b8ff" stroke="#63b8ff" points="166.08,-38.52 175.61,-33.88 165.27,-31.57 166.08,-38.52"/>
</a>
</g>
</g>
<!-- Node5 -->
<g id="Node000005" class="node">
<title>Node5</title>
<g id="a_Node000005"><a xlink:href="p__main_8fpp_8f90.html#aeec10ee8e2940c953967da3e374e1579" target="_top" xlink:title="Quasi&#45;conservative, shock&#45; and interface&#45; capturing finite&#45;volume scheme for the multicomponent Navie...">
<polygon fill="white" stroke="#666666" points="93.5,-19 40.5,-19 40.5,0 93.5,0 93.5,-19"/>
<text text-anchor="middle" x="67" y="-7" font-family="Helvetica,sans-Serif" font-size="10.00">p_main</text>
</a>
</g>
</g>
<!-- Node3&#45;&gt;Node5 -->
<g id="edge4_Node000003_Node000005" class="edge">
<title>Node3&#45;&gt;Node5</title>
<g id="a_edge4_Node000003_Node000005"><a xlink:title=" ">
<path fill="none" stroke="#63b8ff" d="M165.41,-20.32C140.38,-17.54 113.17,-14.52 93.88,-12.38"/>
<polygon fill="#63b8ff" stroke="#63b8ff" points="165.28,-23.83 175.61,-21.46 166.05,-16.87 165.28,-23.83"/>
</a>
</g>
</g>
</g>
</svg>
</svg>

<style type='text/css'>
<![CDATA[
[data-mouse-over-selected='false'] { opacity: 0.7; }
[data-mouse-over-selected='true']  { opacity: 1.0; }
]]>
</style>
<script type="application/ecmascript"><![CDATA[
document.addEventListener('DOMContentLoaded', (event) => {
  highlightEdges();
  highlightAdjacentNodes();
});
]]></script>
</svg>
