<?xml version="1.0" encoding="UTF-8" standalone="no"?>
<!DOCTYPE svg PUBLIC "-//W3C//DTD SVG 1.1//EN"
 "http://www.w3.org/Graphics/SVG/1.1/DTD/svg11.dtd">
<!-- Generated by graphviz version 2.43.0 (0)
 -->
<!-- Title: s_smoothfunction Pages: 1 -->
<svg width="402pt" height="175pt"
 viewBox="0.00 0.00 402.00 175.00" xmlns="http://www.w3.org/2000/svg" xmlns:xlink="http://www.w3.org/1999/xlink">
<g id="graph0" class="graph" transform="scale(1 1) rotate(0) translate(4 171)">
<title>s_smoothfunction</title>
<!-- Node1 -->
<g id="Node000001" class="node">
<title>Node1</title>
<g id="a_Node000001"><a xlink:title="The purpose of this subroutine is to smear the strength of the lagrangian bubbles into the Eulerian f...">
<polygon fill="#999999" stroke="#666666" points="104,-129 0,-129 0,-110 104,-110 104,-129"/>
<text text-anchor="middle" x="52" y="-117" font-family="Helvetica,sans-Serif" font-size="10.00">s_smoothfunction</text>
</a>
</g>
</g>
<!-- Node2 -->
<g id="Node000002" class="node">
<title>Node2</title>
<g id="a_Node000002"><a xlink:href="m__bubbles__EL__kernels_8fpp_8f90.html#a822e5374cc0b050610301f636ccda860" target="_top" xlink:title="The purpose of this procedure contains the algorithm to use the delta kernel function to map the effe...">
<polygon fill="white" stroke="#666666" points="213,-157 140,-157 140,-138 213,-138 213,-157"/>
<text text-anchor="middle" x="176.5" y="-145" font-family="Helvetica,sans-Serif" font-size="10.00">s_deltafunc</text>
</a>
</g>
</g>
<!-- Node1&#45;&gt;Node2 -->
<g id="edge1_Node000001_Node000002" class="edge">
<title>Node1&#45;&gt;Node2</title>
<g id="a_edge1_Node000001_Node000002"><a xlink:title=" ">
<path fill="none" stroke="#63b8ff" d="M94.81,-129.06C106.18,-131.66 118.54,-134.48 130.09,-137.12"/>
<polygon fill="#63b8ff" stroke="#63b8ff" points="129.46,-140.57 139.99,-139.38 131.02,-133.74 129.46,-140.57"/>
</a>
</g>
</g>
<!-- Node4 -->
<g id="Node000004" class="node">
<title>Node4</title>
<g id="a_Node000004"><a xlink:href="m__bubbles__EL__kernels_8fpp_8f90.html#ac7eec37d4233f840c98c3f9579198caa" target="_top" xlink:title="The purpose of this procedure contains the algorithm to use the gaussian kernel function to map the e...">
<polygon fill="white" stroke="#666666" points="212,-111 141,-111 141,-92 212,-92 212,-111"/>
<text text-anchor="middle" x="176.5" y="-99" font-family="Helvetica,sans-Serif" font-size="10.00">s_gaussian</text>
</a>
</g>
</g>
<!-- Node1&#45;&gt;Node4 -->
<g id="edge3_Node000001_Node000004" class="edge">
<title>Node1&#45;&gt;Node4</title>
<g id="a_edge3_Node000001_Node000004"><a xlink:title=" ">
<path fill="none" stroke="#63b8ff" d="M104.24,-111.97C113.1,-110.67 122.25,-109.32 130.91,-108.05"/>
<polygon fill="#63b8ff" stroke="#63b8ff" points="131.43,-111.51 140.82,-106.6 130.41,-104.59 131.43,-111.51"/>
</a>
</g>
</g>
<!-- Node3 -->
<g id="Node000003" class="node">
<title>Node3</title>
<g id="a_Node000003"><a xlink:href="m__bubbles__EL__kernels_8fpp_8f90.html#ab19526190d79709113ae6c0f9c2f2bfa" target="_top" xlink:title="This subroutine transforms the computational coordinates of the bubble from real type into integer.">
<polygon fill="white" stroke="#666666" points="354,-167 289,-167 289,-148 354,-148 354,-167"/>
<text text-anchor="middle" x="321.5" y="-155" font-family="Helvetica,sans-Serif" font-size="10.00">s_get_cell</text>
</a>
</g>
</g>
<!-- Node2&#45;&gt;Node3 -->
<g id="edge2_Node000002_Node000003" class="edge">
<title>Node2&#45;&gt;Node3</title>
<g id="a_edge2_Node000002_Node000003"><a xlink:title=" ">
<path fill="none" stroke="#63b8ff" d="M213.22,-150C233.03,-151.38 257.79,-153.11 278.52,-154.56"/>
<polygon fill="#63b8ff" stroke="#63b8ff" points="278.43,-158.07 288.65,-155.27 278.92,-151.08 278.43,-158.07"/>
</a>
</g>
</g>
<!-- Node4&#45;&gt;Node3 -->
<g id="edge7_Node000004_Node000003" class="edge">
<title>Node4&#45;&gt;Node3</title>
<g id="a_edge7_Node000004_Node000003"><a xlink:title=" ">
<path fill="none" stroke="#63b8ff" d="M192.89,-111.09C207.03,-119.55 228.8,-131.72 249,-139.5 258.5,-143.16 268.99,-146.28 278.95,-148.84"/>
<polygon fill="#63b8ff" stroke="#63b8ff" points="278.12,-152.25 288.67,-151.22 279.79,-145.45 278.12,-152.25"/>
</a>
</g>
</g>
<!-- Node5 -->
<g id="Node000005" class="node">
<title>Node5</title>
<g id="a_Node000005"><a xlink:href="m__bubbles__EL__kernels_8fpp_8f90.html#a4086faf148ac333c92f855a32e08005f" target="_top" xlink:title="The purpose of this subroutine is to apply the gaussian kernel function for each bubble (Maeda and Co...">
<polygon fill="white" stroke="#666666" points="370.5,-130 272.5,-130 272.5,-111 370.5,-111 370.5,-130"/>
<text text-anchor="middle" x="321.5" y="-118" font-family="Helvetica,sans-Serif" font-size="10.00">s_applygaussian</text>
</a>
</g>
</g>
<!-- Node4&#45;&gt;Node5 -->
<g id="edge4_Node000004_Node000005" class="edge">
<title>Node4&#45;&gt;Node5</title>
<g id="a_edge4_Node000004_Node000005"><a xlink:title=" ">
<path fill="none" stroke="#63b8ff" d="M212.12,-106.1C227.11,-108.09 245.08,-110.48 262.03,-112.73"/>
<polygon fill="#63b8ff" stroke="#63b8ff" points="262.05,-116.26 272.43,-114.11 262.97,-109.33 262.05,-116.26"/>
</a>
</g>
</g>
<!-- Node6 -->
<g id="Node000006" class="node">
<title>Node6</title>
<g id="a_Node000006"><a xlink:href="m__bubbles__EL__kernels_8fpp_8f90.html#aa1e8faf84dd9d5db20321a04c5fea671" target="_top" xlink:title="The purpose of this subroutine is to check if the current cell is outside the computational domain or...">
<polygon fill="white" stroke="#666666" points="378.5,-93 264.5,-93 264.5,-74 378.5,-74 378.5,-93"/>
<text text-anchor="middle" x="321.5" y="-81" font-family="Helvetica,sans-Serif" font-size="10.00">s_check_celloutside</text>
</a>
</g>
</g>
<!-- Node4&#45;&gt;Node6 -->
<g id="edge5_Node000004_Node000006" class="edge">
<title>Node4&#45;&gt;Node6</title>
<g id="a_edge5_Node000004_Node000006"><a xlink:title=" ">
<path fill="none" stroke="#63b8ff" d="M212.12,-97.14C224.88,-95.54 239.8,-93.66 254.41,-91.82"/>
<polygon fill="#63b8ff" stroke="#63b8ff" points="254.97,-95.28 264.45,-90.56 254.09,-88.33 254.97,-95.28"/>
</a>
</g>
</g>
<!-- Node7 -->
<g id="Node000007" class="node">
<title>Node7</title>
<g id="a_Node000007"><a xlink:href="m__bubbles__EL__kernels_8fpp_8f90.html#ae515b8ce4b2d41f97b09580305d05232" target="_top" xlink:title="Calculates the standard deviation of the bubble being smeared in the Eulerian framework.">
<polygon fill="white" stroke="#666666" points="375,-56 268,-56 268,-37 375,-37 375,-56"/>
<text text-anchor="middle" x="321.5" y="-44" font-family="Helvetica,sans-Serif" font-size="10.00">s_compute_stddsv</text>
</a>
</g>
</g>
<!-- Node4&#45;&gt;Node7 -->
<g id="edge6_Node000004_Node000007" class="edge">
<title>Node4&#45;&gt;Node7</title>
<g id="a_edge6_Node000004_Node000007"><a xlink:title=" ">
<path fill="none" stroke="#63b8ff" d="M194.1,-91.9C208.31,-83.99 229.51,-72.9 249,-65.5 255.37,-63.08 262.18,-60.84 268.96,-58.82"/>
<polygon fill="#63b8ff" stroke="#63b8ff" points="270.16,-62.12 278.83,-56.02 268.25,-55.39 270.16,-62.12"/>
</a>
</g>
</g>
<!-- Node8 -->
<g id="Node000008" class="node">
<title>Node8</title>
<g id="a_Node000008"><a xlink:href="m__bubbles__EL__kernels_8fpp_8f90.html#a9bcebbf87b1a300f0e46d76cbfa1f48f" target="_top" xlink:title="This subroutine relocates the current cell, if it intersects a symmetric boundary.">
<polygon fill="white" stroke="#666666" points="394,-19 249,-19 249,0 394,0 394,-19"/>
<text text-anchor="middle" x="321.5" y="-7" font-family="Helvetica,sans-Serif" font-size="10.00">s_shift_cell_symmetric_bc</text>
</a>
</g>
</g>
<!-- Node4&#45;&gt;Node8 -->
<g id="edge8_Node000004_Node000008" class="edge">
<title>Node4&#45;&gt;Node8</title>
<g id="a_edge8_Node000004_Node000008"><a xlink:title=" ">
<path fill="none" stroke="#63b8ff" d="M184.22,-91.84C195.67,-76.12 220.49,-45.12 249,-28.5 252.85,-26.26 256.97,-24.27 261.21,-22.52"/>
<polygon fill="#63b8ff" stroke="#63b8ff" points="262.48,-25.78 270.65,-19.03 260.06,-19.21 262.48,-25.78"/>
</a>
</g>
</g>
</g>
</svg>
