<?xml version="1.0" encoding="UTF-8" standalone="no"?>
<!DOCTYPE svg PUBLIC "-//W3C//DTD SVG 1.1//EN"
 "http://www.w3.org/Graphics/SVG/1.1/DTD/svg11.dtd">
<!-- Generated by graphviz version 2.43.0 (0)
 -->
<!-- Title: s_initialize_bubbles_el_module Pages: 1 -->
<!--zoomable 569 -->

<svg id="main" version="1.1" xmlns="http://www.w3.org/2000/svg" xmlns:xlink="http://www.w3.org/1999/xlink" xml:space="preserve" onload="init(evt)">

<style type="text/css"><![CDATA[
.node, .edge {opacity: 0.7;}
.node.selected, .edge.selected {opacity: 1;}
.edge:hover path { stroke: red; }
.edge:hover polygon { stroke: red; fill: red; }
]]></style>

<defs>
  <circle id="rim" cx="0" cy="0" r="7"/>
  <circle id="rim2" cx="0" cy="0" r="3.5"/>
  <g id="zoomPlus">
    <use xlink:href="#rim" fill="#404040"><set attributeName="fill" to="#808080" begin="zoomplus.mouseover" end="zoomplus.mouseout"/></use>
    <path d="M-4,0h8M0,-4v8" fill="none" stroke="white" stroke-width="1.5" pointer-events="none"/>
  </g>
  <g id="zoomMin">
    <use xlink:href="#rim" fill="#404040"><set attributeName="fill" to="#808080" begin="zoomminus.mouseover" end="zoomminus.mouseout"/></use>
    <path d="M-4,0h8" fill="none" stroke="white" stroke-width="1.5" pointer-events="none"/>
  </g>
  <g id="arrowUp" transform="translate(30 24)">
    <use xlink:href="#rim"/>
    <path pointer-events="none" fill="none" stroke="white" stroke-width="1.5" d="M0,-3.0v7 M-2.5,-0.5L0,-3.0L2.5,-0.5"/>
  </g>
  <g id="arrowRight" transform="rotate(90) translate(36 -43)">
    <use xlink:href="#rim"/>
    <path pointer-events="none" fill="none" stroke="white" stroke-width="1.5" d="M0,-3.0v7 M-2.5,-0.5L0,-3.0L2.5,-0.5"/>
  </g>
  <g id="arrowDown" transform="rotate(180) translate(-30 -48)">
    <use xlink:href="#rim"/>
    <path pointer-events="none" fill="none" stroke="white" stroke-width="1.5" d="M0,-3.0v7 M-2.5,-0.5L0,-3.0L2.5,-0.5"/>
  </g>
  <g id="arrowLeft" transform="rotate(270) translate(-36 17)">
    <use xlink:href="#rim"/>
    <path pointer-events="none" fill="none" stroke="white" stroke-width="1.5" d="M0,-3.0v7 M-2.5,-0.5L0,-3.0L2.5,-0.5"/>
  </g>
  <g id="resetDef">
    <use xlink:href="#rim2" fill="#404040"><set attributeName="fill" to="#808080" begin="reset.mouseover" end="reset.mouseout"/></use>
  </g>
</defs>
<script type="application/ecmascript">
var viewWidth = 988;
var viewHeight = 569;
var sectionId = 'dynsection-15';
</script>
<script type="application/ecmascript" xlink:href="svg.min.js"/>
<svg id="graph" class="graph">
<g id="viewport">
<title>s_initialize_bubbles_el_module</title>
<!-- Node1 -->
<g id="Node000001" class="node">
<title>Node1</title>
<g id="a_Node000001"><a xlink:title="Initializes the lagrangian subgrid bubble solver.">
<polygon fill="#999999" stroke="#666666" points="113,-137.5 0,-137.5 0,-107.5 113,-107.5 113,-137.5"/>
<text text-anchor="start" x="8" y="-125.5" font-family="Helvetica,sans-Serif" font-size="10.00">s_initialize_bubbles</text>
<text text-anchor="middle" x="56.5" y="-114.5" font-family="Helvetica,sans-Serif" font-size="10.00">_el_module</text>
</a>
</g>
</g>
<!-- Node2 -->
<g id="Node000002" class="node">
<title>Node2</title>
<g id="a_Node000002"><a xlink:href="m__helper__basic_8fpp_8f90.html#af13561cd8191e20b0ee3bdf335944ce5" target="_top" xlink:title="Checks if a real(wp) variable is of default value.">
<polygon fill="white" stroke="#666666" points="252.5,-376 178.5,-376 178.5,-357 252.5,-357 252.5,-376"/>
<text text-anchor="middle" x="215.5" y="-364" font-family="Helvetica,sans-Serif" font-size="10.00">f_is_default</text>
</a>
</g>
</g>
<!-- Node1&#45;&gt;Node2 -->
<g id="edge1_Node000001_Node000002" class="edge">
<title>Node1&#45;&gt;Node2</title>
<g id="a_edge1_Node000001_Node000002"><a xlink:title=" ">
<path fill="none" stroke="#63b8ff" d="M67.32,-137.76C94.9,-180.62 172.96,-301.95 202.75,-348.24"/>
<polygon fill="#63b8ff" stroke="#63b8ff" points="199.98,-350.41 208.34,-356.93 205.87,-346.62 199.98,-350.41"/>
</a>
</g>
</g>
<!-- Node4 -->
<g id="Node000004" class="node">
<title>Node4</title>
<g id="a_Node000004"><a xlink:href="m__mpi__common_8fpp_8f90.html#adbcc47e90968ff0f14ccc2ca3c47586a" target="_top" xlink:title="The subroutine terminates the MPI execution environment.">
<polygon fill="white" stroke="#666666" points="586,-95 509,-95 509,-76 586,-76 586,-95"/>
<text text-anchor="middle" x="547.5" y="-83" font-family="Helvetica,sans-Serif" font-size="10.00">s_mpi_abort</text>
</a>
</g>
</g>
<!-- Node1&#45;&gt;Node4 -->
<g id="edge3_Node000001_Node000004" class="edge">
<title>Node1&#45;&gt;Node4</title>
<g id="a_edge3_Node000001_Node000004"><a xlink:title=" ">
<path fill="none" stroke="#63b8ff" d="M113.24,-109.18C165.71,-97.37 246.67,-81.02 318,-74.5 376.42,-69.16 391.43,-71.17 450,-74.5 465.73,-75.39 482.83,-77.1 498.21,-78.91"/>
<polygon fill="#63b8ff" stroke="#63b8ff" points="498.19,-82.43 508.54,-80.17 499.04,-75.48 498.19,-82.43"/>
</a>
</g>
</g>
<!-- Node5 -->
<g id="Node000005" class="node">
<title>Node5</title>
<g id="a_Node000005"><a xlink:href="m__bubbles__EL_8fpp_8f90.html#ae9c61f97e265490256edc6fbb5ff18ba" target="_top" xlink:title="The purpose of this procedure is to obtain the initial bubbles&#39; information.">
<polygon fill="white" stroke="#666666" points="276.5,-226 154.5,-226 154.5,-207 276.5,-207 276.5,-226"/>
<text text-anchor="middle" x="215.5" y="-214" font-family="Helvetica,sans-Serif" font-size="10.00">s_read_input_bubbles</text>
</a>
</g>
</g>
<!-- Node1&#45;&gt;Node5 -->
<g id="edge4_Node000001_Node000005" class="edge">
<title>Node1&#45;&gt;Node5</title>
<g id="a_edge4_Node000001_Node000005"><a xlink:title=" ">
<path fill="none" stroke="#63b8ff" d="M82.72,-137.6C112.13,-155.21 160.43,-184.13 189.67,-201.63"/>
<polygon fill="#63b8ff" stroke="#63b8ff" points="188.07,-204.75 198.45,-206.89 191.66,-198.75 188.07,-204.75"/>
</a>
</g>
</g>
<!-- Node32 -->
<g id="Node000032" class="node">
<title>Node32</title>
<g id="a_Node000032"><a xlink:href="m__bubbles__EL_8fpp_8f90.html#aa3741d85b0d0b32c06e8537426c6745b" target="_top" xlink:title="The purpose of this procedure is to start lagrange bubble parameters applying nondimensionalization i...">
<polygon fill="white" stroke="#666666" points="282,-19 149,-19 149,0 282,0 282,-19"/>
<text text-anchor="middle" x="215.5" y="-7" font-family="Helvetica,sans-Serif" font-size="10.00">s_start_lagrange_inputs</text>
</a>
</g>
</g>
<!-- Node1&#45;&gt;Node32 -->
<g id="edge40_Node000001_Node000032" class="edge">
<title>Node1&#45;&gt;Node32</title>
<g id="a_edge40_Node000001_Node000032"><a xlink:title=" ">
<path fill="none" stroke="#63b8ff" d="M69.6,-107.27C85.82,-87.77 116.36,-54.03 149,-33.5 155.7,-29.28 163.26,-25.66 170.79,-22.59"/>
<polygon fill="#63b8ff" stroke="#63b8ff" points="172.14,-25.82 180.25,-19.01 169.66,-19.28 172.14,-25.82"/>
</a>
</g>
</g>
<!-- Node3 -->
<g id="Node000003" class="node">
<title>Node3</title>
<g id="a_Node000003"><a xlink:href="m__helper__basic_8fpp_8f90.html#a49aa1857cb519bdc6b35434fd1821cab" target="_top" xlink:title="This procedure checks if two floating point numbers of wp are within tolerance.">
<polygon fill="white" stroke="#666666" points="593.5,-310 501.5,-310 501.5,-291 593.5,-291 593.5,-310"/>
<text text-anchor="middle" x="547.5" y="-298" font-family="Helvetica,sans-Serif" font-size="10.00">f_approx_equal</text>
</a>
</g>
</g>
<!-- Node2&#45;&gt;Node3 -->
<g id="edge2_Node000002_Node000003" class="edge">
<title>Node2&#45;&gt;Node3</title>
<g id="a_edge2_Node000002_Node000003"><a xlink:title=" ">
<path fill="none" stroke="#63b8ff" d="M228.44,-376.07C265.09,-404.25 377.93,-481.74 450,-429.5 491.65,-399.31 449.41,-355.66 486,-319.5 487.92,-317.6 490.02,-315.9 492.26,-314.36"/>
<polygon fill="#63b8ff" stroke="#63b8ff" points="494.42,-317.16 501.45,-309.24 491.01,-311.05 494.42,-317.16"/>
</a>
</g>
</g>
<!-- Node5&#45;&gt;Node4 -->
<g id="edge16_Node000005_Node000004" class="edge">
<title>Node5&#45;&gt;Node4</title>
<g id="a_edge16_Node000005_Node000004"><a xlink:title=" ">
<path fill="none" stroke="#63b8ff" d="M221.8,-206.79C234.75,-184.14 270.47,-127.97 318,-104.5 375.19,-76.25 450.31,-75.92 498.51,-79.63"/>
<polygon fill="#63b8ff" stroke="#63b8ff" points="498.41,-83.13 508.67,-80.5 499,-76.16 498.41,-83.13"/>
</a>
</g>
</g>
<!-- Node6 -->
<g id="Node000006" class="node">
<title>Node6</title>
<g id="a_Node000006"><a xlink:href="m__bubbles__EL_8fpp_8f90.html#ae6abadf6a56071b1bfce80c063c17d17" target="_top" xlink:title="The purpose of this procedure is to determine if the global coordinates of the bubbles are present in...">
<polygon fill="white" stroke="#666666" points="602.5,-132 492.5,-132 492.5,-113 602.5,-113 602.5,-132"/>
<text text-anchor="middle" x="547.5" y="-120" font-family="Helvetica,sans-Serif" font-size="10.00">particle_in_domain</text>
</a>
</g>
</g>
<!-- Node5&#45;&gt;Node6 -->
<g id="edge5_Node000005_Node000006" class="edge">
<title>Node5&#45;&gt;Node6</title>
<g id="a_edge5_Node000005_Node000006"><a xlink:title=" ">
<path fill="none" stroke="#63b8ff" d="M249.96,-226.07C297.69,-237.72 386.59,-251.77 450,-216.5 476.51,-201.75 464.35,-179.75 486,-158.5 494.62,-150.04 505.59,-142.75 515.82,-136.99"/>
<polygon fill="#63b8ff" stroke="#63b8ff" points="517.74,-139.93 524.91,-132.14 514.44,-133.76 517.74,-139.93"/>
</a>
</g>
</g>
<!-- Node7 -->
<g id="Node000007" class="node">
<title>Node7</title>
<g id="a_Node000007"><a xlink:href="m__bubbles__EL_8fpp_8f90.html#a6f850343922afe652e16dc6b434acc23" target="_top" xlink:title="The purpose of this procedure is to obtain the information of the bubbles when starting fresh.">
<polygon fill="white" stroke="#666666" points="428.5,-283 339.5,-283 339.5,-264 428.5,-264 428.5,-283"/>
<text text-anchor="middle" x="384" y="-271" font-family="Helvetica,sans-Serif" font-size="10.00">s_add_bubbles</text>
</a>
</g>
</g>
<!-- Node5&#45;&gt;Node7 -->
<g id="edge7_Node000005_Node000007" class="edge">
<title>Node5&#45;&gt;Node7</title>
<g id="a_edge7_Node000005_Node000007"><a xlink:title=" ">
<path fill="none" stroke="#63b8ff" d="M244.37,-226.04C272.1,-235.53 314.84,-250.17 345.53,-260.67"/>
<polygon fill="#63b8ff" stroke="#63b8ff" points="344.45,-264 355.04,-263.93 346.71,-257.38 344.45,-264"/>
</a>
</g>
</g>
<!-- Node14 -->
<g id="Node000014" class="node">
<title>Node14</title>
<g id="a_Node000014"><a xlink:href="m__bubbles__EL_8fpp_8f90.html#a76e7189b6009a29beab1045b414f91e7" target="_top" xlink:title="The purpose of this procedure is to obtain the information of the bubbles from a restart point.">
<polygon fill="white" stroke="#666666" points="435.5,-133 332.5,-133 332.5,-114 435.5,-114 435.5,-133"/>
<text text-anchor="middle" x="384" y="-121" font-family="Helvetica,sans-Serif" font-size="10.00">s_restart_bubbles</text>
</a>
</g>
</g>
<!-- Node5&#45;&gt;Node14 -->
<g id="edge17_Node000005_Node000014" class="edge">
<title>Node5&#45;&gt;Node14</title>
<g id="a_edge17_Node000005_Node000014"><a xlink:title=" ">
<path fill="none" stroke="#63b8ff" d="M226.9,-206.75C244.38,-190.85 281.36,-159.35 318,-141.5 321.85,-139.63 325.92,-137.92 330.08,-136.37"/>
<polygon fill="#63b8ff" stroke="#63b8ff" points="331.53,-139.58 339.87,-133.04 329.28,-132.95 331.53,-139.58"/>
</a>
</g>
</g>
<!-- Node15 -->
<g id="Node000015" class="node">
<title>Node15</title>
<g id="a_Node000015"><a xlink:href="m__bubbles__EL_8fpp_8f90.html#abc8a45ea57e9cc6e620f069aa5bb90e7" target="_top" xlink:title="The purpose of this subroutine is to smear the effect of the bubbles in the Eulerian framework.">
<polygon fill="white" stroke="#666666" points="445,-420 323,-420 323,-401 445,-401 445,-420"/>
<text text-anchor="middle" x="384" y="-408" font-family="Helvetica,sans-Serif" font-size="10.00">s_smear_voidfraction</text>
</a>
</g>
</g>
<!-- Node5&#45;&gt;Node15 -->
<g id="edge21_Node000005_Node000015" class="edge">
<title>Node5&#45;&gt;Node15</title>
<g id="a_edge21_Node000005_Node000015"><a xlink:title=" ">
<path fill="none" stroke="#63b8ff" d="M220.97,-226.27C236.41,-259.6 288.15,-368.1 318,-391.5 320.42,-393.4 323.02,-395.1 325.75,-396.64"/>
<polygon fill="#63b8ff" stroke="#63b8ff" points="324.26,-399.81 334.79,-401 327.3,-393.5 324.26,-399.81"/>
</a>
</g>
</g>
<!-- Node24 -->
<g id="Node000024" class="node">
<title>Node24</title>
<g id="a_Node000024"><a xlink:href="m__bubbles__EL_8fpp_8f90.html#a8ccb43b47efb2a66f50c211613bd2d2b" target="_top" xlink:title="This subroutine transfer data into the temporal variables.">
<polygon fill="white" stroke="#666666" points="450,-207 318,-207 318,-188 450,-188 450,-207"/>
<text text-anchor="middle" x="384" y="-195" font-family="Helvetica,sans-Serif" font-size="10.00">s_transfer_data_to_tmp</text>
</a>
</g>
</g>
<!-- Node5&#45;&gt;Node24 -->
<g id="edge31_Node000005_Node000024" class="edge">
<title>Node5&#45;&gt;Node24</title>
<g id="a_edge31_Node000005_Node000024"><a xlink:title=" ">
<path fill="none" stroke="#63b8ff" d="M276.61,-209.64C286.78,-208.48 297.44,-207.26 307.93,-206.07"/>
<polygon fill="#63b8ff" stroke="#63b8ff" points="308.37,-209.54 317.91,-204.93 307.58,-202.58 308.37,-209.54"/>
</a>
</g>
</g>
<!-- Node25 -->
<g id="Node000025" class="node">
<title>Node25</title>
<g id="a_Node000025"><a xlink:href="m__bubbles__EL_8fpp_8f90.html#a8ef73dc2ace3576cb3237c4ababe29da" target="_top" xlink:title="Subroutine that writes on each time step the changes of the lagrangian bubbles.">
<polygon fill="white" stroke="#666666" points="443.5,-170 324.5,-170 324.5,-151 443.5,-151 443.5,-170"/>
<text text-anchor="middle" x="384" y="-158" font-family="Helvetica,sans-Serif" font-size="10.00">s_write_lag_particles</text>
</a>
</g>
</g>
<!-- Node5&#45;&gt;Node25 -->
<g id="edge32_Node000005_Node000025" class="edge">
<title>Node5&#45;&gt;Node25</title>
<g id="a_edge32_Node000005_Node000025"><a xlink:title=" ">
<path fill="none" stroke="#63b8ff" d="M241.37,-206.92C261.82,-199.17 291.62,-188.15 318,-179.5 324.68,-177.31 331.79,-175.1 338.75,-173.01"/>
<polygon fill="#63b8ff" stroke="#63b8ff" points="340.2,-176.23 348.8,-170.04 338.22,-169.52 340.2,-176.23"/>
</a>
</g>
</g>
<!-- Node26 -->
<g id="Node000026" class="node">
<title>Node26</title>
<g id="a_Node000026"><a xlink:href="m__bubbles__EL_8fpp_8f90.html#af157c7f2796cf73a836756b4fbb6f421" target="_top" xlink:title="Subroutine that writes the restarting files for the particles in the lagrangian solver.">
<polygon fill="white" stroke="#666666" points="439,-382.5 329,-382.5 329,-352.5 439,-352.5 439,-382.5"/>
<text text-anchor="start" x="337" y="-370.5" font-family="Helvetica,sans-Serif" font-size="10.00">s_write_restart_lag</text>
<text text-anchor="middle" x="384" y="-359.5" font-family="Helvetica,sans-Serif" font-size="10.00">_bubbles</text>
</a>
</g>
</g>
<!-- Node5&#45;&gt;Node26 -->
<g id="edge33_Node000005_Node000026" class="edge">
<title>Node5&#45;&gt;Node26</title>
<g id="a_edge33_Node000005_Node000026"><a xlink:title=" ">
<path fill="none" stroke="#63b8ff" d="M221.78,-226.26C234.94,-249.76 271.54,-309.97 318,-343.5 320.05,-344.98 322.2,-346.38 324.42,-347.7"/>
<polygon fill="#63b8ff" stroke="#63b8ff" points="322.8,-350.8 333.27,-352.41 326.09,-344.62 322.8,-350.8"/>
</a>
</g>
</g>
<!-- Node28 -->
<g id="Node000028" class="node">
<title>Node28</title>
<g id="a_Node000028"><a xlink:href="m__bubbles__EL_8fpp_8f90.html#a82ac53d14e7909cec109938ddb1eeefb" target="_top" xlink:title="Subroutine that writes some useful statistics related to the volume fraction of the particles (void f...">
<polygon fill="white" stroke="#666666" points="436,-334 332,-334 332,-315 436,-315 436,-334"/>
<text text-anchor="middle" x="384" y="-322" font-family="Helvetica,sans-Serif" font-size="10.00">s_write_void_evol</text>
</a>
</g>
</g>
<!-- Node5&#45;&gt;Node28 -->
<g id="edge36_Node000005_Node000028" class="edge">
<title>Node5&#45;&gt;Node28</title>
<g id="a_edge36_Node000005_Node000028"><a xlink:title=" ">
<path fill="none" stroke="#63b8ff" d="M227.88,-226.13C246.14,-241.33 283.47,-271.33 318,-292.5 328.7,-299.06 340.93,-305.37 351.88,-310.62"/>
<polygon fill="#63b8ff" stroke="#63b8ff" points="350.55,-313.87 361.09,-314.95 353.53,-307.53 350.55,-313.87"/>
</a>
</g>
</g>
<!-- Node6&#45;&gt;Node6 -->
<g id="edge6_Node000006_Node000006" class="edge">
<title>Node6&#45;&gt;Node6</title>
<g id="a_edge6_Node000006_Node000006"><a xlink:title=" ">
<path fill="none" stroke="#63b8ff" d="M522.53,-132.08C510.38,-140.73 518.71,-150 547.5,-150 566.4,-150 576.48,-146.01 577.74,-140.82"/>
<polygon fill="#63b8ff" stroke="#63b8ff" points="580.63,-138.84 572.47,-132.08 574.64,-142.45 580.63,-138.84"/>
</a>
</g>
</g>
<!-- Node7&#45;&gt;Node3 -->
<g id="edge8_Node000007_Node000003" class="edge">
<title>Node7&#45;&gt;Node3</title>
<g id="a_edge8_Node000007_Node000003"><a xlink:title=" ">
<path fill="none" stroke="#63b8ff" d="M428.7,-280.81C447.96,-284.03 470.81,-287.85 491.24,-291.26"/>
<polygon fill="#63b8ff" stroke="#63b8ff" points="490.91,-294.76 501.35,-292.95 492.07,-287.85 490.91,-294.76"/>
</a>
</g>
</g>
<!-- Node7&#45;&gt;Node4 -->
<g id="edge14_Node000007_Node000004" class="edge">
<title>Node7&#45;&gt;Node4</title>
<g id="a_edge14_Node000007_Node000004"><a xlink:title=" ">
<path fill="none" stroke="#63b8ff" d="M400.02,-263.94C414.74,-253.83 436.85,-236.59 450,-216.5 478.87,-172.4 448.37,-140.41 486,-103.5 489.81,-99.76 494.37,-96.79 499.24,-94.43"/>
<polygon fill="#63b8ff" stroke="#63b8ff" points="500.89,-97.55 508.91,-90.62 498.32,-91.04 500.89,-97.55"/>
</a>
</g>
</g>
<!-- Node8 -->
<g id="Node000008" class="node">
<title>Node8</title>
<g id="a_Node000008"><a xlink:href="m__variables__conversion_8fpp_8f90.html#ab8bdf7610d49d294015daa441faabc01" target="_top" xlink:title="Dispatch to the s_convert_mixture_to_mixture_variables and s_convert_species_to_mixture_variables sub...">
<polygon fill="white" stroke="#666666" points="608.5,-272.5 486.5,-272.5 486.5,-242.5 608.5,-242.5 608.5,-272.5"/>
<text text-anchor="start" x="494.5" y="-260.5" font-family="Helvetica,sans-Serif" font-size="10.00">s_convert_to_mixture</text>
<text text-anchor="middle" x="547.5" y="-249.5" font-family="Helvetica,sans-Serif" font-size="10.00">_variables</text>
</a>
</g>
</g>
<!-- Node7&#45;&gt;Node8 -->
<g id="edge9_Node000007_Node000008" class="edge">
<title>Node7&#45;&gt;Node8</title>
<g id="a_edge9_Node000007_Node000008"><a xlink:title=" ">
<path fill="none" stroke="#63b8ff" d="M428.7,-269.17C443.4,-267.71 460.19,-266.05 476.4,-264.45"/>
<polygon fill="#63b8ff" stroke="#63b8ff" points="476.78,-267.92 486.39,-263.46 476.09,-260.96 476.78,-267.92"/>
</a>
</g>
</g>
<!-- Node12 -->
<g id="Node000012" class="node">
<title>Node12</title>
<g id="a_Node000012"><a xlink:href="m__bubbles__EL_8fpp_8f90.html#aea41610ffd915dc0052d0cb708471a5d" target="_top" xlink:title="This subroutine returns the computational coordinate of the cell for the given position.">
<polygon fill="white" stroke="#666666" points="587.5,-187 507.5,-187 507.5,-168 587.5,-168 587.5,-187"/>
<text text-anchor="middle" x="547.5" y="-175" font-family="Helvetica,sans-Serif" font-size="10.00">s_locate_cell</text>
</a>
</g>
</g>
<!-- Node7&#45;&gt;Node12 -->
<g id="edge13_Node000007_Node000012" class="edge">
<title>Node7&#45;&gt;Node12</title>
<g id="a_edge13_Node000007_Node000012"><a xlink:title=" ">
<path fill="none" stroke="#63b8ff" d="M422.82,-263.99C432.31,-260.45 442.04,-255.73 450,-249.5 472.43,-231.95 463.15,-213.49 486,-196.5 489.63,-193.8 493.65,-191.48 497.84,-189.49"/>
<polygon fill="#63b8ff" stroke="#63b8ff" points="499.3,-192.67 507.21,-185.62 496.63,-186.2 499.3,-192.67"/>
</a>
</g>
</g>
<!-- Node13 -->
<g id="Node000013" class="node">
<title>Node13</title>
<g id="a_Node000013"><a xlink:href="m__helper_8fpp_8f90.html#ad9cf19cef5bf031720439d279cf5983c" target="_top" xlink:title="Computes the transfer coefficient for the non&#45;polytropic bubble compression process.">
<polygon fill="white" stroke="#666666" points="585.5,-224 509.5,-224 509.5,-205 585.5,-205 585.5,-224"/>
<text text-anchor="middle" x="547.5" y="-212" font-family="Helvetica,sans-Serif" font-size="10.00">s_transcoeff</text>
</a>
</g>
</g>
<!-- Node7&#45;&gt;Node13 -->
<g id="edge15_Node000007_Node000013" class="edge">
<title>Node7&#45;&gt;Node13</title>
<g id="a_edge15_Node000007_Node000013"><a xlink:title=" ">
<path fill="none" stroke="#63b8ff" d="M412.03,-263.96C423.77,-259.71 437.63,-254.53 450,-249.5 466.22,-242.91 469.62,-239.69 486,-233.5 491.67,-231.36 497.71,-229.26 503.68,-227.28"/>
<polygon fill="#63b8ff" stroke="#63b8ff" points="505.17,-230.48 513.61,-224.08 503.02,-223.81 505.17,-230.48"/>
</a>
</g>
</g>
<!-- Node9 -->
<g id="Node000009" class="node">
<title>Node9</title>
<g id="a_Node000009"><a xlink:href="m__variables__conversion_8fpp_8f90.html#a3bd84edd74cf4362dae052ad315a8fb5" target="_top" xlink:title="This subroutine is designed for the gamma/pi_inf model and provided a set of either conservative or p...">
<polygon fill="white" stroke="#666666" points="783,-272.5 661,-272.5 661,-242.5 783,-242.5 783,-272.5"/>
<text text-anchor="start" x="669" y="-260.5" font-family="Helvetica,sans-Serif" font-size="10.00">s_convert_mixture_to</text>
<text text-anchor="middle" x="722" y="-249.5" font-family="Helvetica,sans-Serif" font-size="10.00">_mixture_variables</text>
</a>
</g>
</g>
<!-- Node8&#45;&gt;Node9 -->
<g id="edge10_Node000008_Node000009" class="edge">
<title>Node8&#45;&gt;Node9</title>
<g id="a_edge10_Node000008_Node000009"><a xlink:title=" ">
<path fill="none" stroke="#63b8ff" d="M608.83,-257.5C622.44,-257.5 636.99,-257.5 650.95,-257.5"/>
<polygon fill="#63b8ff" stroke="#63b8ff" points="650.99,-261 660.99,-257.5 650.99,-254 650.99,-261"/>
</a>
</g>
</g>
<!-- Node10 -->
<g id="Node000010" class="node">
<title>Node10</title>
<g id="a_Node000010"><a xlink:href="m__variables__conversion_8fpp_8f90.html#ac9e3787fd3c00962752030f2c218c3fc" target="_top" xlink:title="This subroutine is designed for the volume fraction model and provided a set of either conservative o...">
<polygon fill="white" stroke="#666666" points="782.5,-224.5 661.5,-224.5 661.5,-194.5 782.5,-194.5 782.5,-224.5"/>
<text text-anchor="start" x="669.5" y="-212.5" font-family="Helvetica,sans-Serif" font-size="10.00">s_convert_species_to</text>
<text text-anchor="middle" x="722" y="-201.5" font-family="Helvetica,sans-Serif" font-size="10.00">_mixture_variables</text>
</a>
</g>
</g>
<!-- Node8&#45;&gt;Node10 -->
<g id="edge11_Node000008_Node000010" class="edge">
<title>Node8&#45;&gt;Node10</title>
<g id="a_edge11_Node000008_Node000010"><a xlink:title=" ">
<path fill="none" stroke="#63b8ff" d="M602.61,-242.44C619.95,-237.62 639.31,-232.23 657.27,-227.23"/>
<polygon fill="#63b8ff" stroke="#63b8ff" points="658.39,-230.56 667.09,-224.5 656.51,-223.81 658.39,-230.56"/>
</a>
</g>
</g>
<!-- Node11 -->
<g id="Node000011" class="node">
<title>Node11</title>
<g id="a_Node000011"><a xlink:href="m__variables__conversion_8fpp_8f90.html#a4cf5a7b61d1b5ced4619c018ced0e654" target="_top" xlink:title="This procedure is used alongside with the gamma/pi_inf model to transfer the density,...">
<polygon fill="white" stroke="#666666" points="799,-320.5 645,-320.5 645,-290.5 799,-290.5 799,-320.5"/>
<text text-anchor="start" x="653" y="-308.5" font-family="Helvetica,sans-Serif" font-size="10.00">s_convert_species_to</text>
<text text-anchor="middle" x="722" y="-297.5" font-family="Helvetica,sans-Serif" font-size="10.00">_mixture_variables_bubbles</text>
</a>
</g>
</g>
<!-- Node8&#45;&gt;Node11 -->
<g id="edge12_Node000008_Node000011" class="edge">
<title>Node8&#45;&gt;Node11</title>
<g id="a_edge12_Node000008_Node000011"><a xlink:title=" ">
<path fill="none" stroke="#63b8ff" d="M602.61,-272.56C619.95,-277.38 639.31,-282.77 657.27,-287.77"/>
<polygon fill="#63b8ff" stroke="#63b8ff" points="656.51,-291.19 667.09,-290.5 658.39,-284.44 656.51,-291.19"/>
</a>
</g>
</g>
<!-- Node14&#45;&gt;Node4 -->
<g id="edge20_Node000014_Node000004" class="edge">
<title>Node14&#45;&gt;Node4</title>
<g id="a_edge20_Node000014_Node000004"><a xlink:title=" ">
<path fill="none" stroke="#63b8ff" d="M425.75,-113.91C447.97,-108.68 475.6,-102.18 498.82,-96.72"/>
<polygon fill="#63b8ff" stroke="#63b8ff" points="499.87,-100.07 508.81,-94.37 498.27,-93.25 499.87,-100.07"/>
</a>
</g>
</g>
<!-- Node14&#45;&gt;Node6 -->
<g id="edge18_Node000014_Node000006" class="edge">
<title>Node14&#45;&gt;Node6</title>
<g id="a_edge18_Node000014_Node000006"><a xlink:title=" ">
<path fill="none" stroke="#63b8ff" d="M435.66,-123.19C450.45,-123.09 466.82,-122.99 482.34,-122.9"/>
<polygon fill="#63b8ff" stroke="#63b8ff" points="482.41,-126.4 492.39,-122.84 482.37,-119.4 482.41,-126.4"/>
</a>
</g>
</g>
<!-- Node14&#45;&gt;Node12 -->
<g id="edge19_Node000014_Node000012" class="edge">
<title>Node14&#45;&gt;Node12</title>
<g id="a_edge19_Node000014_Node000012"><a xlink:title=" ">
<path fill="none" stroke="#63b8ff" d="M423.84,-133.09C432.54,-135.56 441.66,-138.4 450,-141.5 466.59,-147.66 469.52,-152.06 486,-158.5 491.58,-160.68 497.53,-162.8 503.43,-164.77"/>
<polygon fill="#63b8ff" stroke="#63b8ff" points="502.65,-168.2 513.25,-167.95 504.81,-161.54 502.65,-168.2"/>
</a>
</g>
</g>
<!-- Node16 -->
<g id="Node000016" class="node">
<title>Node16</title>
<g id="a_Node000016"><a xlink:href="m__bubbles__EL__kernels_8fpp_8f90.html#a0be43bc79c64f70548ce4039c14d87d4" target="_top" xlink:title="The purpose of this subroutine is to smear the strength of the lagrangian bubbles into the Eulerian f...">
<polygon fill="white" stroke="#666666" points="599.5,-525 495.5,-525 495.5,-506 599.5,-506 599.5,-525"/>
<text text-anchor="middle" x="547.5" y="-513" font-family="Helvetica,sans-Serif" font-size="10.00">s_smoothfunction</text>
</a>
</g>
</g>
<!-- Node15&#45;&gt;Node16 -->
<g id="edge22_Node000015_Node000016" class="edge">
<title>Node15&#45;&gt;Node16</title>
<g id="a_edge22_Node000015_Node000016"><a xlink:title=" ">
<path fill="none" stroke="#63b8ff" d="M393.78,-420.2C410.23,-437.82 447.5,-475.23 486,-496.5 489.96,-498.69 494.2,-500.66 498.53,-502.43"/>
<polygon fill="#63b8ff" stroke="#63b8ff" points="497.51,-505.78 508.1,-506 499.95,-499.22 497.51,-505.78"/>
</a>
</g>
</g>
<!-- Node17 -->
<g id="Node000017" class="node">
<title>Node17</title>
<g id="a_Node000017"><a xlink:href="m__bubbles__EL__kernels_8fpp_8f90.html#a822e5374cc0b050610301f636ccda860" target="_top" xlink:title="The purpose of this procedure contains the algorithm to use the delta kernel function to map the effe...">
<polygon fill="white" stroke="#666666" points="758.5,-552 685.5,-552 685.5,-533 758.5,-533 758.5,-552"/>
<text text-anchor="middle" x="722" y="-540" font-family="Helvetica,sans-Serif" font-size="10.00">s_deltafunc</text>
</a>
</g>
</g>
<!-- Node16&#45;&gt;Node17 -->
<g id="edge23_Node000016_Node000017" class="edge">
<title>Node16&#45;&gt;Node17</title>
<g id="a_edge23_Node000016_Node000017"><a xlink:title=" ">
<path fill="none" stroke="#63b8ff" d="M599.79,-523.53C623.84,-527.29 652.25,-531.74 675.53,-535.38"/>
<polygon fill="#63b8ff" stroke="#63b8ff" points="675.07,-538.85 685.49,-536.94 676.15,-531.94 675.07,-538.85"/>
</a>
</g>
</g>
<!-- Node19 -->
<g id="Node000019" class="node">
<title>Node19</title>
<g id="a_Node000019"><a xlink:href="m__bubbles__EL__kernels_8fpp_8f90.html#ac7eec37d4233f840c98c3f9579198caa" target="_top" xlink:title="The purpose of this procedure contains the algorithm to use the gaussian kernel function to map the e...">
<polygon fill="white" stroke="#666666" points="757.5,-497 686.5,-497 686.5,-478 757.5,-478 757.5,-497"/>
<text text-anchor="middle" x="722" y="-485" font-family="Helvetica,sans-Serif" font-size="10.00">s_gaussian</text>
</a>
</g>
</g>
<!-- Node16&#45;&gt;Node19 -->
<g id="edge25_Node000016_Node000019" class="edge">
<title>Node16&#45;&gt;Node19</title>
<g id="a_edge25_Node000016_Node000019"><a xlink:title=" ">
<path fill="none" stroke="#63b8ff" d="M599.79,-507.17C624.1,-503.23 652.87,-498.56 676.28,-494.76"/>
<polygon fill="#63b8ff" stroke="#63b8ff" points="676.98,-498.19 686.29,-493.13 675.85,-491.28 676.98,-498.19"/>
</a>
</g>
</g>
<!-- Node18 -->
<g id="Node000018" class="node">
<title>Node18</title>
<g id="a_Node000018"><a xlink:href="m__bubbles__EL__kernels_8fpp_8f90.html#ab19526190d79709113ae6c0f9c2f2bfa" target="_top" xlink:title="This subroutine transforms the computational coordinates of the bubble from real type into integer.">
<polygon fill="white" stroke="#666666" points="940,-561 875,-561 875,-542 940,-542 940,-561"/>
<text text-anchor="middle" x="907.5" y="-549" font-family="Helvetica,sans-Serif" font-size="10.00">s_get_cell</text>
</a>
</g>
</g>
<!-- Node17&#45;&gt;Node18 -->
<g id="edge24_Node000017_Node000018" class="edge">
<title>Node17&#45;&gt;Node18</title>
<g id="a_edge24_Node000017_Node000018"><a xlink:title=" ">
<path fill="none" stroke="#63b8ff" d="M758.82,-544.26C789.08,-545.74 832.48,-547.87 864.41,-549.44"/>
<polygon fill="#63b8ff" stroke="#63b8ff" points="864.6,-552.95 874.76,-549.94 864.94,-545.96 864.6,-552.95"/>
</a>
</g>
</g>
<!-- Node19&#45;&gt;Node18 -->
<g id="edge29_Node000019_Node000018" class="edge">
<title>Node19&#45;&gt;Node18</title>
<g id="a_edge29_Node000019_Node000018"><a xlink:title=" ">
<path fill="none" stroke="#63b8ff" d="M743.72,-497.06C765.95,-507.06 802.46,-522.78 835,-533.5 844.67,-536.68 855.22,-539.63 865.19,-542.17"/>
<polygon fill="#63b8ff" stroke="#63b8ff" points="864.35,-545.57 874.9,-544.57 866.03,-538.77 864.35,-545.57"/>
</a>
</g>
</g>
<!-- Node20 -->
<g id="Node000020" class="node">
<title>Node20</title>
<g id="a_Node000020"><a xlink:href="m__bubbles__EL__kernels_8fpp_8f90.html#a4086faf148ac333c92f855a32e08005f" target="_top" xlink:title="The purpose of this subroutine is to apply the gaussian kernel function for each bubble (Maeda and Co...">
<polygon fill="white" stroke="#666666" points="956.5,-450 858.5,-450 858.5,-431 956.5,-431 956.5,-450"/>
<text text-anchor="middle" x="907.5" y="-438" font-family="Helvetica,sans-Serif" font-size="10.00">s_applygaussian</text>
</a>
</g>
</g>
<!-- Node19&#45;&gt;Node20 -->
<g id="edge26_Node000019_Node000020" class="edge">
<title>Node19&#45;&gt;Node20</title>
<g id="a_edge26_Node000019_Node000020"><a xlink:title=" ">
<path fill="none" stroke="#63b8ff" d="M757.51,-478.66C786.27,-471.29 827.53,-460.73 859.33,-452.58"/>
<polygon fill="#63b8ff" stroke="#63b8ff" points="860.48,-455.9 869.3,-450.03 858.75,-449.12 860.48,-455.9"/>
</a>
</g>
</g>
<!-- Node21 -->
<g id="Node000021" class="node">
<title>Node21</title>
<g id="a_Node000021"><a xlink:href="m__bubbles__EL__kernels_8fpp_8f90.html#aa1e8faf84dd9d5db20321a04c5fea671" target="_top" xlink:title="The purpose of this subroutine is to check if the current cell is outside the computational domain or...">
<polygon fill="white" stroke="#666666" points="964.5,-413 850.5,-413 850.5,-394 964.5,-394 964.5,-413"/>
<text text-anchor="middle" x="907.5" y="-401" font-family="Helvetica,sans-Serif" font-size="10.00">s_check_celloutside</text>
</a>
</g>
</g>
<!-- Node19&#45;&gt;Node21 -->
<g id="edge27_Node000019_Node000021" class="edge">
<title>Node19&#45;&gt;Node21</title>
<g id="a_edge27_Node000019_Node000021"><a xlink:title=" ">
<path fill="none" stroke="#63b8ff" d="M736.87,-477.81C757.43,-463.83 797.61,-437.99 835,-422.5 840.84,-420.08 847.08,-417.89 853.34,-415.93"/>
<polygon fill="#63b8ff" stroke="#63b8ff" points="854.56,-419.22 863.16,-413.03 852.58,-412.5 854.56,-419.22"/>
</a>
</g>
</g>
<!-- Node22 -->
<g id="Node000022" class="node">
<title>Node22</title>
<g id="a_Node000022"><a xlink:href="m__bubbles__EL__kernels_8fpp_8f90.html#ae515b8ce4b2d41f97b09580305d05232" target="_top" xlink:title="Calculates the standard deviation of the bubble being smeared in the Eulerian framework.">
<polygon fill="white" stroke="#666666" points="961,-524 854,-524 854,-505 961,-505 961,-524"/>
<text text-anchor="middle" x="907.5" y="-512" font-family="Helvetica,sans-Serif" font-size="10.00">s_compute_stddsv</text>
</a>
</g>
</g>
<!-- Node19&#45;&gt;Node22 -->
<g id="edge28_Node000019_Node000022" class="edge">
<title>Node19&#45;&gt;Node22</title>
<g id="a_edge28_Node000019_Node000022"><a xlink:title=" ">
<path fill="none" stroke="#63b8ff" d="M757.51,-492.58C781.75,-496.14 814.87,-501.02 843.72,-505.26"/>
<polygon fill="#63b8ff" stroke="#63b8ff" points="843.32,-508.74 853.73,-506.73 844.34,-501.82 843.32,-508.74"/>
</a>
</g>
</g>
<!-- Node23 -->
<g id="Node000023" class="node">
<title>Node23</title>
<g id="a_Node000023"><a xlink:href="m__bubbles__EL__kernels_8fpp_8f90.html#a9bcebbf87b1a300f0e46d76cbfa1f48f" target="_top" xlink:title="This subroutine relocates the current cell, if it intersects a symmetric boundary.">
<polygon fill="white" stroke="#666666" points="980,-487 835,-487 835,-468 980,-468 980,-487"/>
<text text-anchor="middle" x="907.5" y="-475" font-family="Helvetica,sans-Serif" font-size="10.00">s_shift_cell_symmetric_bc</text>
</a>
</g>
</g>
<!-- Node19&#45;&gt;Node23 -->
<g id="edge30_Node000019_Node000023" class="edge">
<title>Node19&#45;&gt;Node23</title>
<g id="a_edge30_Node000019_Node000023"><a xlink:title=" ">
<path fill="none" stroke="#63b8ff" d="M757.51,-485.62C776.59,-484.58 801.16,-483.24 824.83,-481.95"/>
<polygon fill="#63b8ff" stroke="#63b8ff" points="825.11,-485.44 834.9,-481.4 824.73,-478.45 825.11,-485.44"/>
</a>
</g>
</g>
<!-- Node27 -->
<g id="Node000027" class="node">
<title>Node27</title>
<g id="a_Node000027"><a xlink:href="m__bubbles__EL_8fpp_8f90.html#a976df9a876d86b3f6b60c94c9b3e4eb9" target="_top" xlink:title="The purpose of this procedure is to determine if the lagrangian bubble is located in the physical dom...">
<polygon fill="white" stroke="#666666" points="602.5,-469.5 492.5,-469.5 492.5,-439.5 602.5,-439.5 602.5,-469.5"/>
<text text-anchor="start" x="500.5" y="-457.5" font-family="Helvetica,sans-Serif" font-size="10.00">particle_in_domain</text>
<text text-anchor="middle" x="547.5" y="-446.5" font-family="Helvetica,sans-Serif" font-size="10.00">_physical</text>
</a>
</g>
</g>
<!-- Node26&#45;&gt;Node27 -->
<g id="edge34_Node000026_Node000027" class="edge">
<title>Node26&#45;&gt;Node27</title>
<g id="a_edge34_Node000026_Node000027"><a xlink:title=" ">
<path fill="none" stroke="#63b8ff" d="M431.73,-382.54C438.1,-385.42 444.37,-388.73 450,-392.5 469.33,-405.44 466.73,-417.46 486,-430.5 488.25,-432.02 490.61,-433.47 493.03,-434.84"/>
<polygon fill="#63b8ff" stroke="#63b8ff" points="491.57,-438.02 502.06,-439.49 494.77,-431.8 491.57,-438.02"/>
</a>
</g>
</g>
<!-- Node27&#45;&gt;Node27 -->
<g id="edge35_Node000027_Node000027" class="edge">
<title>Node27&#45;&gt;Node27</title>
<g id="a_edge35_Node000027_Node000027"><a xlink:title=" ">
<path fill="none" stroke="#63b8ff" d="M519.02,-469.78C512.7,-478.91 522.19,-487.5 547.5,-487.5 562.53,-487.5 571.98,-484.47 575.86,-480.1"/>
<polygon fill="#63b8ff" stroke="#63b8ff" points="579.36,-479.82 575.98,-469.78 572.36,-479.73 579.36,-479.82"/>
</a>
</g>
</g>
<!-- Node29 -->
<g id="Node000029" class="node">
<title>Node29</title>
<g id="a_Node000029"><a xlink:href="m__bubbles__EL__kernels_8fpp_8f90.html#a815addfa0ae4ae19d4dfd09479c0c2a8" target="_top" xlink:title="The purpose of this procedure is to calculate the characteristic cell volume.">
<polygon fill="white" stroke="#666666" points="592,-347 503,-347 503,-328 592,-328 592,-347"/>
<text text-anchor="middle" x="547.5" y="-335" font-family="Helvetica,sans-Serif" font-size="10.00">s_get_char_vol</text>
</a>
</g>
</g>
<!-- Node28&#45;&gt;Node29 -->
<g id="edge37_Node000028_Node000029" class="edge">
<title>Node28&#45;&gt;Node29</title>
<g id="a_edge37_Node000028_Node000029"><a xlink:title=" ">
<path fill="none" stroke="#63b8ff" d="M436.1,-328.61C454.11,-330.06 474.4,-331.7 492.62,-333.16"/>
<polygon fill="#63b8ff" stroke="#63b8ff" points="492.55,-336.67 502.8,-333.98 493.11,-329.69 492.55,-336.67"/>
</a>
</g>
</g>
<!-- Node30 -->
<g id="Node000030" class="node">
<title>Node30</title>
<g id="a_Node000030"><a xlink:href="m__mpi__common_8fpp_8f90.html#ac7a601dc8cf73abc6bd46a467cbb8c67" target="_top" xlink:title="The following subroutine takes the input local variable from all processors and reduces to the maximu...">
<polygon fill="white" stroke="#666666" points="609,-421 486,-421 486,-402 609,-402 609,-421"/>
<text text-anchor="middle" x="547.5" y="-409" font-family="Helvetica,sans-Serif" font-size="10.00">s_mpi_allreduce_max</text>
</a>
</g>
</g>
<!-- Node28&#45;&gt;Node30 -->
<g id="edge38_Node000028_Node000030" class="edge">
<title>Node28&#45;&gt;Node30</title>
<g id="a_edge38_Node000028_Node000030"><a xlink:title=" ">
<path fill="none" stroke="#63b8ff" d="M431.85,-334.08C438.27,-336.54 444.53,-339.63 450,-343.5 472.36,-359.31 463.68,-377.63 486,-393.5 488.11,-395 490.35,-396.38 492.67,-397.64"/>
<polygon fill="#63b8ff" stroke="#63b8ff" points="491.41,-400.91 501.95,-401.97 494.37,-394.57 491.41,-400.91"/>
</a>
</g>
</g>
<!-- Node31 -->
<g id="Node000031" class="node">
<title>Node31</title>
<g id="a_Node000031"><a xlink:href="m__mpi__common_8fpp_8f90.html#a24ed3fee63870f02c535e9a137e12291" target="_top" xlink:title="The following subroutine takes the input local variable from all processors and reduces to the sum of...">
<polygon fill="white" stroke="#666666" points="608.5,-384 486.5,-384 486.5,-365 608.5,-365 608.5,-384"/>
<text text-anchor="middle" x="547.5" y="-372" font-family="Helvetica,sans-Serif" font-size="10.00">s_mpi_allreduce_sum</text>
</a>
</g>
</g>
<!-- Node28&#45;&gt;Node31 -->
<g id="edge39_Node000028_Node000031" class="edge">
<title>Node28&#45;&gt;Node31</title>
<g id="a_edge39_Node000028_Node000031"><a xlink:title=" ">
<path fill="none" stroke="#63b8ff" d="M419.19,-334.06C429.17,-336.97 440.05,-340.25 450,-343.5 466.17,-348.78 469.84,-351.18 486,-356.5 491.6,-358.34 497.52,-360.21 503.38,-362"/>
<polygon fill="#63b8ff" stroke="#63b8ff" points="502.52,-365.4 513.11,-364.94 504.55,-358.7 502.52,-365.4"/>
</a>
</g>
</g>
</g>
</svg>

<g id="navigator" transform="translate(0 0)" fill="#404254">
  <rect fill="#f2f5e9" fill-opacity="0.5" stroke="#606060" stroke-width=".5" x="0" y="0" width="60" height="60"/>
  <use id="zoomplus" xlink:href="#zoomPlus" x="17" y="9" onmousedown="handleZoom(evt,'in')"/>
  <use id="zoomminus" xlink:href="#zoomMin" x="42" y="9" onmousedown="handleZoom(evt,'out')"/>
  <use id="reset" xlink:href="#resetDef" x="30" y="36" onmousedown="handleReset()"/>
   <use id="arrowup" xlink:href="#arrowUp" x="0" y="0" onmousedown="handlePan(0,-1)"/>
  <use id="arrowright" xlink:href="#arrowRight" x="0" y="0" onmousedown="handlePan(1,0)"/>
  <use id="arrowdown" xlink:href="#arrowDown" x="0" y="0" onmousedown="handlePan(0,1)"/>
  <use id="arrowleft" xlink:href="#arrowLeft" x="0" y="0" onmousedown="handlePan(-1,0)"/>
</g>
<svg viewBox="0 0 15 15" width="100%" height="30px" preserveAspectRatio="xMaxYMin meet">
 <g id="arrow_out" transform="scale(0.3 0.3)">
  <a xlink:href="m__bubbles__EL_8fpp_8f90_ae479bfa2d92038a5c675209a17224a05_cgraph_org.svg" target="_base">
   <rect id="button" ry="5" rx="5" y="6" x="6" height="38" width="38"
        fill="#f2f5e9" fill-opacity="0.5" stroke="#606060" stroke-width="1.0"/>
   <path id="arrow"
     d="M 11.500037,31.436501 C 11.940474,20.09759 22.043105,11.32322 32.158766,21.979434 L 37.068811,17.246167 C 37.068811,17.246167 37.088388,32 37.088388,32 L 22.160133,31.978069 C 22.160133,31.978069 26.997745,27.140456 26.997745,27.140456 C 18.528582,18.264221 13.291696,25.230495 11.500037,31.436501 z"
     style="fill:#404040;"/>
  </a>
 </g>
</svg>

<style type='text/css'>
<![CDATA[
[data-mouse-over-selected='false'] { opacity: 0.7; }
[data-mouse-over-selected='true']  { opacity: 1.0; }
]]>
</style>
<script type="application/ecmascript"><![CDATA[
document.addEventListener('DOMContentLoaded', (event) => {
  highlightEdges();
  highlightAdjacentNodes();
});
]]></script>
</svg>
