<?xml version="1.0" encoding="UTF-8" standalone="no"?>
<!DOCTYPE svg PUBLIC "-//W3C//DTD SVG 1.1//EN"
 "http://www.w3.org/Graphics/SVG/1.1/DTD/svg11.dtd">
<!-- Generated by graphviz version 2.43.0 (0)
 -->
<!-- Title: s_initial_substep_h Pages: 1 -->
<svg width="313pt" height="485pt"
 viewBox="0.00 0.00 313.00 485.00" xmlns="http://www.w3.org/2000/svg" xmlns:xlink="http://www.w3.org/1999/xlink">
<g id="graph0" class="graph" transform="scale(1 1) rotate(0) translate(4 481)">
<title>s_initial_substep_h</title>
<!-- Node1 -->
<g id="Node000001" class="node">
<title>Node1</title>
<g id="a_Node000001"><a xlink:title="Choose the initial time step size for the adaptive time stepping routine (See Heirer,...">
<polygon fill="#999999" stroke="#666666" points="110,-239 0,-239 0,-220 110,-220 110,-239"/>
<text text-anchor="middle" x="55" y="-227" font-family="Helvetica,sans-Serif" font-size="10.00">s_initial_substep_h</text>
</a>
</g>
</g>
<!-- Node2 -->
<g id="Node000002" class="node">
<title>Node2</title>
<g id="a_Node000002"><a xlink:href="m__bubbles_8fpp_8f90.html#a37ad1c43ed066a67b9cef913aec0e337" target="_top" xlink:title="Function that computes the bubble radial acceleration based on bubble models.">
<polygon fill="white" stroke="#666666" points="197,-239 146,-239 146,-220 197,-220 197,-239"/>
<text text-anchor="middle" x="171.5" y="-227" font-family="Helvetica,sans-Serif" font-size="10.00">f_rddot</text>
</a>
</g>
</g>
<!-- Node1&#45;&gt;Node2 -->
<g id="edge1_Node000001_Node000002" class="edge">
<title>Node1&#45;&gt;Node2</title>
<g id="a_edge1_Node000001_Node000002"><a xlink:title=" ">
<path fill="none" stroke="#63b8ff" d="M110.23,-229.5C118.91,-229.5 127.69,-229.5 135.75,-229.5"/>
<polygon fill="#63b8ff" stroke="#63b8ff" points="135.88,-233 145.88,-229.5 135.88,-226 135.88,-233"/>
</a>
</g>
</g>
<!-- Node2&#45;&gt;Node2 -->
<g id="edge14_Node000002_Node000002" class="edge">
<title>Node2&#45;&gt;Node2</title>
<g id="a_edge14_Node000002_Node000002"><a xlink:title=" ">
<path fill="none" stroke="#63b8ff" d="M156.7,-239.08C149.51,-247.73 154.44,-257 171.5,-257 181.9,-257 187.79,-253.56 189.18,-248.91"/>
<polygon fill="#63b8ff" stroke="#63b8ff" points="192.47,-247.69 186.3,-239.08 185.75,-249.66 192.47,-247.69"/>
</a>
</g>
</g>
<!-- Node3 -->
<g id="Node000003" class="node">
<title>Node3</title>
<g id="a_Node000003"><a xlink:href="m__bubbles_8fpp_8f90.html#ab0ac0947d48440f35574b246710fc2c4" target="_top" xlink:title="Function that computes the sound speed for the bubble.">
<polygon fill="white" stroke="#666666" points="293,-459 245,-459 245,-440 293,-440 293,-459"/>
<text text-anchor="middle" x="269" y="-447" font-family="Helvetica,sans-Serif" font-size="10.00">f_cgas</text>
</a>
</g>
</g>
<!-- Node2&#45;&gt;Node3 -->
<g id="edge2_Node000002_Node000003" class="edge">
<title>Node2&#45;&gt;Node3</title>
<g id="a_edge2_Node000002_Node000003"><a xlink:title=" ">
<path fill="none" stroke="#63b8ff" d="M172.81,-239.16C174.29,-270.57 182.93,-371.25 233,-431.5 234.11,-432.84 235.35,-434.09 236.67,-435.25"/>
<polygon fill="#63b8ff" stroke="#63b8ff" points="234.78,-438.2 244.98,-441.04 238.78,-432.45 234.78,-438.2"/>
</a>
</g>
</g>
<!-- Node4 -->
<g id="Node000004" class="node">
<title>Node4</title>
<g id="a_Node000004"><a xlink:href="m__bubbles_8fpp_8f90.html#af98280f380da0387ba9ec1f48eb4cec3" target="_top" xlink:title="Function that computes that bubble wall pressure for Gilmore bubbles.">
<polygon fill="white" stroke="#666666" points="294.5,-404 243.5,-404 243.5,-385 294.5,-385 294.5,-404"/>
<text text-anchor="middle" x="269" y="-392" font-family="Helvetica,sans-Serif" font-size="10.00">f_cpbw</text>
</a>
</g>
</g>
<!-- Node2&#45;&gt;Node4 -->
<g id="edge4_Node000002_Node000004" class="edge">
<title>Node2&#45;&gt;Node4</title>
<g id="a_edge4_Node000002_Node000004"><a xlink:title=" ">
<path fill="none" stroke="#63b8ff" d="M174.12,-239.34C178.8,-264.96 194.54,-334.64 233,-376.5 233.76,-377.33 234.57,-378.13 235.42,-378.89"/>
<polygon fill="#63b8ff" stroke="#63b8ff" points="233.67,-381.94 243.82,-384.96 237.76,-376.27 233.67,-381.94"/>
</a>
</g>
</g>
<!-- Node5 -->
<g id="Node000005" class="node">
<title>Node5</title>
<g id="a_Node000005"><a xlink:href="m__bubbles_8fpp_8f90.html#a2bbc9a7f555b4d1fedc9c62eb1000491" target="_top" xlink:title="Function that computes the bubble wall pressure for Keller–Miksis bubbles.">
<polygon fill="white" stroke="#666666" points="305,-349 233,-349 233,-330 305,-330 305,-349"/>
<text text-anchor="middle" x="269" y="-337" font-family="Helvetica,sans-Serif" font-size="10.00">f_cpbw_km</text>
</a>
</g>
</g>
<!-- Node2&#45;&gt;Node5 -->
<g id="edge6_Node000002_Node000005" class="edge">
<title>Node2&#45;&gt;Node5</title>
<g id="a_edge6_Node000002_Node000005"><a xlink:title=" ">
<path fill="none" stroke="#63b8ff" d="M176.83,-239.28C185.32,-257.48 205.7,-296.97 233,-321.5 234.11,-322.5 235.29,-323.46 236.51,-324.38"/>
<polygon fill="#63b8ff" stroke="#63b8ff" points="234.75,-327.41 245.05,-329.86 238.53,-321.52 234.75,-327.41"/>
</a>
</g>
</g>
<!-- Node6 -->
<g id="Node000006" class="node">
<title>Node6</title>
<g id="a_Node000006"><a xlink:href="m__bubbles_8fpp_8f90.html#adb6eece8a8e4634f8e0ef654d103e659" target="_top" xlink:title="Function that computes the time derivative of the driving pressure.">
<polygon fill="white" stroke="#666666" points="301.5,-294 236.5,-294 236.5,-275 301.5,-275 301.5,-294"/>
<text text-anchor="middle" x="269" y="-282" font-family="Helvetica,sans-Serif" font-size="10.00">f_cpinfdot</text>
</a>
</g>
</g>
<!-- Node2&#45;&gt;Node6 -->
<g id="edge8_Node000002_Node000006" class="edge">
<title>Node2&#45;&gt;Node6</title>
<g id="a_edge8_Node000002_Node000006"><a xlink:title=" ">
<path fill="none" stroke="#63b8ff" d="M187.73,-239.25C199.85,-246.9 217.33,-257.69 233,-266.5 235.03,-267.64 237.15,-268.8 239.28,-269.95"/>
<polygon fill="#63b8ff" stroke="#63b8ff" points="238.13,-273.3 248.61,-274.85 241.38,-267.1 238.13,-273.3"/>
</a>
</g>
</g>
<!-- Node7 -->
<g id="Node000007" class="node">
<title>Node7</title>
<g id="a_Node000007"><a xlink:href="m__bubbles_8fpp_8f90.html#a15f61d914c989ed4d7d1144dd9679254" target="_top" xlink:title="Function that computes the bubble enthalpy.">
<polygon fill="white" stroke="#666666" points="285,-239 253,-239 253,-220 285,-220 285,-239"/>
<text text-anchor="middle" x="269" y="-227" font-family="Helvetica,sans-Serif" font-size="10.00">f_h</text>
</a>
</g>
</g>
<!-- Node2&#45;&gt;Node7 -->
<g id="edge10_Node000002_Node000007" class="edge">
<title>Node2&#45;&gt;Node7</title>
<g id="a_edge10_Node000002_Node000007"><a xlink:title=" ">
<path fill="none" stroke="#63b8ff" d="M197.09,-229.5C211.1,-229.5 228.61,-229.5 242.73,-229.5"/>
<polygon fill="#63b8ff" stroke="#63b8ff" points="242.74,-233 252.74,-229.5 242.74,-226 242.74,-233"/>
</a>
</g>
</g>
<!-- Node8 -->
<g id="Node000008" class="node">
<title>Node8</title>
<g id="a_Node000008"><a xlink:href="m__bubbles_8fpp_8f90.html#a5c800bcc29be182ff4b82b32ebe385a0" target="_top" xlink:title="Function that computes the time derivative of the enthalpy.">
<polygon fill="white" stroke="#666666" points="292.5,-184 245.5,-184 245.5,-165 292.5,-165 292.5,-184"/>
<text text-anchor="middle" x="269" y="-172" font-family="Helvetica,sans-Serif" font-size="10.00">f_hdot</text>
</a>
</g>
</g>
<!-- Node2&#45;&gt;Node8 -->
<g id="edge12_Node000002_Node000008" class="edge">
<title>Node2&#45;&gt;Node8</title>
<g id="a_edge12_Node000002_Node000008"><a xlink:title=" ">
<path fill="none" stroke="#63b8ff" d="M189.13,-219.92C203.83,-211.45 225.5,-198.98 242.41,-189.24"/>
<polygon fill="#63b8ff" stroke="#63b8ff" points="244.32,-192.18 251.24,-184.16 240.82,-186.11 244.32,-192.18"/>
</a>
</g>
</g>
<!-- Node9 -->
<g id="Node000009" class="node">
<title>Node9</title>
<g id="a_Node000009"><a xlink:href="m__bubbles_8fpp_8f90.html#a57f445c9fe39d49a07aa5ef23de29eef" target="_top" xlink:title="Function that computes the bubble radial acceleration.">
<polygon fill="white" stroke="#666666" points="300,-129 238,-129 238,-110 300,-110 300,-129"/>
<text text-anchor="middle" x="269" y="-117" font-family="Helvetica,sans-Serif" font-size="10.00">f_rddot_g</text>
</a>
</g>
</g>
<!-- Node2&#45;&gt;Node9 -->
<g id="edge15_Node000002_Node000009" class="edge">
<title>Node2&#45;&gt;Node9</title>
<g id="a_edge15_Node000002_Node000009"><a xlink:title=" ">
<path fill="none" stroke="#63b8ff" d="M180.14,-219.88C191.43,-205.76 213.36,-178.68 233,-156.5 238.94,-149.8 245.65,-142.61 251.6,-136.37"/>
<polygon fill="#63b8ff" stroke="#63b8ff" points="254.2,-138.71 258.61,-129.08 249.16,-133.86 254.2,-138.71"/>
</a>
</g>
</g>
<!-- Node10 -->
<g id="Node000010" class="node">
<title>Node10</title>
<g id="a_Node000010"><a xlink:href="m__bubbles_8fpp_8f90.html#ab2626844d2d33110f39cb680d2bf113e" target="_top" xlink:title="Function that computes the bubble radial acceleration for Keller–Miksis bubbles.">
<polygon fill="white" stroke="#666666" points="305,-74 233,-74 233,-55 305,-55 305,-74"/>
<text text-anchor="middle" x="269" y="-62" font-family="Helvetica,sans-Serif" font-size="10.00">f_rddot_km</text>
</a>
</g>
</g>
<!-- Node2&#45;&gt;Node10 -->
<g id="edge17_Node000002_Node000010" class="edge">
<title>Node2&#45;&gt;Node10</title>
<g id="a_edge17_Node000002_Node000010"><a xlink:title=" ">
<path fill="none" stroke="#63b8ff" d="M175.82,-219.96C183.72,-197.93 205.12,-142.29 233,-101.5 237.91,-94.31 244.22,-87.18 250.13,-81.13"/>
<polygon fill="#63b8ff" stroke="#63b8ff" points="252.59,-83.62 257.26,-74.11 247.67,-78.63 252.59,-83.62"/>
</a>
</g>
</g>
<!-- Node11 -->
<g id="Node000011" class="node">
<title>Node11</title>
<g id="a_Node000011"><a xlink:href="m__bubbles_8fpp_8f90.html#a9cca2f30ab2f04b334e219081b0fcb70" target="_top" xlink:title="Function that computes the bubble radial acceleration for Rayleigh&#45;Plesset bubbles.">
<polygon fill="white" stroke="#666666" points="302,-19 236,-19 236,0 302,0 302,-19"/>
<text text-anchor="middle" x="269" y="-7" font-family="Helvetica,sans-Serif" font-size="10.00">f_rddot_rp</text>
</a>
</g>
</g>
<!-- Node2&#45;&gt;Node11 -->
<g id="edge19_Node000002_Node000011" class="edge">
<title>Node2&#45;&gt;Node11</title>
<g id="a_edge19_Node000002_Node000011"><a xlink:title=" ">
<path fill="none" stroke="#63b8ff" d="M174.17,-219.74C179.34,-191.32 196.96,-106.83 233,-46.5 237.3,-39.3 243.22,-32.35 248.97,-26.46"/>
<polygon fill="#63b8ff" stroke="#63b8ff" points="251.77,-28.62 256.54,-19.16 246.91,-23.59 251.77,-28.62"/>
</a>
</g>
</g>
<!-- Node3&#45;&gt;Node3 -->
<g id="edge3_Node000003_Node000003" class="edge">
<title>Node3&#45;&gt;Node3</title>
<g id="a_edge3_Node000003_Node000003"><a xlink:title=" ">
<path fill="none" stroke="#63b8ff" d="M254.2,-459.08C247.01,-467.73 251.94,-477 269,-477 279.4,-477 285.29,-473.56 286.68,-468.91"/>
<polygon fill="#63b8ff" stroke="#63b8ff" points="289.97,-467.69 283.8,-459.08 283.25,-469.66 289.97,-467.69"/>
</a>
</g>
</g>
<!-- Node4&#45;&gt;Node4 -->
<g id="edge5_Node000004_Node000004" class="edge">
<title>Node4&#45;&gt;Node4</title>
<g id="a_edge5_Node000004_Node000004"><a xlink:title=" ">
<path fill="none" stroke="#63b8ff" d="M254.2,-404.08C247.01,-412.73 251.94,-422 269,-422 279.4,-422 285.29,-418.56 286.68,-413.91"/>
<polygon fill="#63b8ff" stroke="#63b8ff" points="289.97,-412.69 283.8,-404.08 283.25,-414.66 289.97,-412.69"/>
</a>
</g>
</g>
<!-- Node5&#45;&gt;Node5 -->
<g id="edge7_Node000005_Node000005" class="edge">
<title>Node5&#45;&gt;Node5</title>
<g id="a_edge7_Node000005_Node000005"><a xlink:title=" ">
<path fill="none" stroke="#63b8ff" d="M254.2,-349.08C247.01,-357.73 251.94,-367 269,-367 279.4,-367 285.29,-363.56 286.68,-358.91"/>
<polygon fill="#63b8ff" stroke="#63b8ff" points="289.97,-357.69 283.8,-349.08 283.25,-359.66 289.97,-357.69"/>
</a>
</g>
</g>
<!-- Node6&#45;&gt;Node6 -->
<g id="edge9_Node000006_Node000006" class="edge">
<title>Node6&#45;&gt;Node6</title>
<g id="a_edge9_Node000006_Node000006"><a xlink:title=" ">
<path fill="none" stroke="#63b8ff" d="M254.2,-294.08C247.01,-302.73 251.94,-312 269,-312 279.4,-312 285.29,-308.56 286.68,-303.91"/>
<polygon fill="#63b8ff" stroke="#63b8ff" points="289.97,-302.69 283.8,-294.08 283.25,-304.66 289.97,-302.69"/>
</a>
</g>
</g>
<!-- Node7&#45;&gt;Node7 -->
<g id="edge11_Node000007_Node000007" class="edge">
<title>Node7&#45;&gt;Node7</title>
<g id="a_edge11_Node000007_Node000007"><a xlink:title=" ">
<path fill="none" stroke="#63b8ff" d="M254.2,-239.08C247.01,-247.73 251.94,-257 269,-257 279.4,-257 285.29,-253.56 286.68,-248.91"/>
<polygon fill="#63b8ff" stroke="#63b8ff" points="289.97,-247.69 283.8,-239.08 283.25,-249.66 289.97,-247.69"/>
</a>
</g>
</g>
<!-- Node8&#45;&gt;Node8 -->
<g id="edge13_Node000008_Node000008" class="edge">
<title>Node8&#45;&gt;Node8</title>
<g id="a_edge13_Node000008_Node000008"><a xlink:title=" ">
<path fill="none" stroke="#63b8ff" d="M254.2,-184.08C247.01,-192.73 251.94,-202 269,-202 279.4,-202 285.29,-198.56 286.68,-193.91"/>
<polygon fill="#63b8ff" stroke="#63b8ff" points="289.97,-192.69 283.8,-184.08 283.25,-194.66 289.97,-192.69"/>
</a>
</g>
</g>
<!-- Node9&#45;&gt;Node9 -->
<g id="edge16_Node000009_Node000009" class="edge">
<title>Node9&#45;&gt;Node9</title>
<g id="a_edge16_Node000009_Node000009"><a xlink:title=" ">
<path fill="none" stroke="#63b8ff" d="M254.2,-129.08C247.01,-137.73 251.94,-147 269,-147 279.4,-147 285.29,-143.56 286.68,-138.91"/>
<polygon fill="#63b8ff" stroke="#63b8ff" points="289.97,-137.69 283.8,-129.08 283.25,-139.66 289.97,-137.69"/>
</a>
</g>
</g>
<!-- Node10&#45;&gt;Node10 -->
<g id="edge18_Node000010_Node000010" class="edge">
<title>Node10&#45;&gt;Node10</title>
<g id="a_edge18_Node000010_Node000010"><a xlink:title=" ">
<path fill="none" stroke="#63b8ff" d="M254.2,-74.08C247.01,-82.73 251.94,-92 269,-92 279.4,-92 285.29,-88.56 286.68,-83.91"/>
<polygon fill="#63b8ff" stroke="#63b8ff" points="289.97,-82.69 283.8,-74.08 283.25,-84.66 289.97,-82.69"/>
</a>
</g>
</g>
<!-- Node11&#45;&gt;Node11 -->
<g id="edge20_Node000011_Node000011" class="edge">
<title>Node11&#45;&gt;Node11</title>
<g id="a_edge20_Node000011_Node000011"><a xlink:title=" ">
<path fill="none" stroke="#63b8ff" d="M254.2,-19.08C247.01,-27.73 251.94,-37 269,-37 279.4,-37 285.29,-33.56 286.68,-28.91"/>
<polygon fill="#63b8ff" stroke="#63b8ff" points="289.97,-27.69 283.8,-19.08 283.25,-29.66 289.97,-27.69"/>
</a>
</g>
</g>
</g>
</svg>
