<?xml version="1.0" encoding="UTF-8" standalone="no"?>
<!DOCTYPE svg PUBLIC "-//W3C//DTD SVG 1.1//EN"
 "http://www.w3.org/Graphics/SVG/1.1/DTD/svg11.dtd">
<!-- Generated by graphviz version 2.43.0 (0)
 -->
<!-- Title: s_update_lagrange_tdv_rk Pages: 1 -->
<svg width="480pt" height="187pt"
 viewBox="0.00 0.00 480.00 186.50" xmlns="http://www.w3.org/2000/svg" xmlns:xlink="http://www.w3.org/1999/xlink">

<svg id="main" version="1.1" xmlns="http://www.w3.org/2000/svg" xmlns:xlink="http://www.w3.org/1999/xlink" xml:space="preserve">

<style type="text/css"><![CDATA[
.node, .edge {opacity: 0.7;}
.node.selected, .edge.selected {opacity: 1;}
.edge:hover path { stroke: red; }
.edge:hover polygon { stroke: red; fill: red; }
]]></style>
<script type="application/ecmascript" xlink:href="svg.min.js"/>
<svg id="graph" class="graph">
<g id="graph0" class="graph" transform="scale(1 1) rotate(0) translate(4 182.5)">
<title>s_update_lagrange_tdv_rk</title>
<!-- Node1 -->
<g id="Node000001" class="node">
<title>Node1</title>
<g id="a_Node000001"><a xlink:title="This subroutine updates the Lagrange variables using the tvd RK time steppers. The time derivative of...">
<polygon fill="#999999" stroke="#666666" points="145,-111 0,-111 0,-92 145,-92 145,-111"/>
<text text-anchor="middle" x="72.5" y="-99" font-family="Helvetica,sans-Serif" font-size="10.00">s_update_lagrange_tdv_rk</text>
</a>
</g>
</g>
<!-- Node2 -->
<g id="Node000002" class="node">
<title>Node2</title>
<g id="a_Node000002"><a xlink:href="m__bubbles__EL_8fpp_8f90.html#a251ada661c15b82fe57f5f7db254a250" target="_top" xlink:title="This procedure calculates the maximum and minimum radius of each bubble.">
<polygon fill="white" stroke="#666666" points="312,-178.5 182,-178.5 182,-148.5 312,-148.5 312,-178.5"/>
<text text-anchor="start" x="190" y="-166.5" font-family="Helvetica,sans-Serif" font-size="10.00">s_calculate_lag_bubble</text>
<text text-anchor="middle" x="247" y="-155.5" font-family="Helvetica,sans-Serif" font-size="10.00">_stats</text>
</a>
</g>
</g>
<!-- Node1&#45;&gt;Node2 -->
<g id="edge1_Node000001_Node000002" class="edge">
<title>Node1&#45;&gt;Node2</title>
<g id="a_edge1_Node000001_Node000002"><a xlink:title=" ">
<path fill="none" stroke="#63b8ff" d="M100.08,-111.05C125.06,-120.03 163.15,-133.72 194.15,-144.87"/>
<polygon fill="#63b8ff" stroke="#63b8ff" points="193.35,-148.3 203.94,-148.38 195.72,-141.71 193.35,-148.3"/>
</a>
</g>
</g>
<!-- Node3 -->
<g id="Node000003" class="node">
<title>Node3</title>
<g id="a_Node000003"><a xlink:href="m__bubbles__EL_8fpp_8f90.html#a8ccb43b47efb2a66f50c211613bd2d2b" target="_top" xlink:title="This subroutine transfer data into the temporal variables.">
<polygon fill="white" stroke="#666666" points="313,-130 181,-130 181,-111 313,-111 313,-130"/>
<text text-anchor="middle" x="247" y="-118" font-family="Helvetica,sans-Serif" font-size="10.00">s_transfer_data_to_tmp</text>
</a>
</g>
</g>
<!-- Node1&#45;&gt;Node3 -->
<g id="edge2_Node000001_Node000003" class="edge">
<title>Node1&#45;&gt;Node3</title>
<g id="a_edge2_Node000001_Node000003"><a xlink:title=" ">
<path fill="none" stroke="#63b8ff" d="M145.16,-109.39C153.67,-110.33 162.38,-111.29 170.95,-112.23"/>
<polygon fill="#63b8ff" stroke="#63b8ff" points="170.58,-115.71 180.91,-113.33 171.35,-108.76 170.58,-115.71"/>
</a>
</g>
</g>
<!-- Node4 -->
<g id="Node000004" class="node">
<title>Node4</title>
<g id="a_Node000004"><a xlink:href="m__bubbles__EL_8fpp_8f90.html#a8ef73dc2ace3576cb3237c4ababe29da" target="_top" xlink:title="Subroutine that writes on each time step the changes of the lagrangian bubbles.">
<polygon fill="white" stroke="#666666" points="306.5,-93 187.5,-93 187.5,-74 306.5,-74 306.5,-93"/>
<text text-anchor="middle" x="247" y="-81" font-family="Helvetica,sans-Serif" font-size="10.00">s_write_lag_particles</text>
</a>
</g>
</g>
<!-- Node1&#45;&gt;Node4 -->
<g id="edge3_Node000001_Node000004" class="edge">
<title>Node1&#45;&gt;Node4</title>
<g id="a_edge3_Node000001_Node000004"><a xlink:title=" ">
<path fill="none" stroke="#63b8ff" d="M145.16,-94.02C155.82,-92.91 166.79,-91.77 177.39,-90.66"/>
<polygon fill="#63b8ff" stroke="#63b8ff" points="177.83,-94.13 187.41,-89.61 177.1,-87.17 177.83,-94.13"/>
</a>
</g>
</g>
<!-- Node5 -->
<g id="Node000005" class="node">
<title>Node5</title>
<g id="a_Node000005"><a xlink:href="m__bubbles__EL_8fpp_8f90.html#a82ac53d14e7909cec109938ddb1eeefb" target="_top" xlink:title="Subroutine that writes some useful statistics related to the volume fraction of the particles (void f...">
<polygon fill="white" stroke="#666666" points="299,-56 195,-56 195,-37 299,-37 299,-56"/>
<text text-anchor="middle" x="247" y="-44" font-family="Helvetica,sans-Serif" font-size="10.00">s_write_void_evol</text>
</a>
</g>
</g>
<!-- Node1&#45;&gt;Node5 -->
<g id="edge4_Node000001_Node000005" class="edge">
<title>Node1&#45;&gt;Node5</title>
<g id="a_edge4_Node000001_Node000005"><a xlink:title=" ">
<path fill="none" stroke="#63b8ff" d="M101.25,-91.88C122.9,-84.45 153.77,-74.04 181,-65.5 188.02,-63.3 195.49,-61.04 202.77,-58.88"/>
<polygon fill="#63b8ff" stroke="#63b8ff" points="203.92,-62.19 212.52,-56.02 201.94,-55.48 203.92,-62.19"/>
</a>
</g>
</g>
<!-- Node6 -->
<g id="Node000006" class="node">
<title>Node6</title>
<g id="a_Node000006"><a xlink:href="m__bubbles__EL__kernels_8fpp_8f90.html#a815addfa0ae4ae19d4dfd09479c0c2a8" target="_top" xlink:title="The purpose of this procedure is to calculate the characteristic cell volume.">
<polygon fill="white" stroke="#666666" points="455,-93 366,-93 366,-74 455,-74 455,-93"/>
<text text-anchor="middle" x="410.5" y="-81" font-family="Helvetica,sans-Serif" font-size="10.00">s_get_char_vol</text>
</a>
</g>
</g>
<!-- Node5&#45;&gt;Node6 -->
<g id="edge5_Node000005_Node000006" class="edge">
<title>Node5&#45;&gt;Node6</title>
<g id="a_edge5_Node000005_Node000006"><a xlink:title=" ">
<path fill="none" stroke="#63b8ff" d="M289.59,-56.03C310.42,-60.8 335.84,-66.62 357.9,-71.68"/>
<polygon fill="#63b8ff" stroke="#63b8ff" points="357.24,-75.12 367.77,-73.94 358.8,-68.29 357.24,-75.12"/>
</a>
</g>
</g>
<!-- Node7 -->
<g id="Node000007" class="node">
<title>Node7</title>
<g id="a_Node000007"><a xlink:href="m__mpi__common_8fpp_8f90.html#ac7a601dc8cf73abc6bd46a467cbb8c67" target="_top" xlink:title="The following subroutine takes the input local variable from all processors and reduces to the maximu...">
<polygon fill="white" stroke="#666666" points="472,-56 349,-56 349,-37 472,-37 472,-56"/>
<text text-anchor="middle" x="410.5" y="-44" font-family="Helvetica,sans-Serif" font-size="10.00">s_mpi_allreduce_max</text>
</a>
</g>
</g>
<!-- Node5&#45;&gt;Node7 -->
<g id="edge6_Node000005_Node000007" class="edge">
<title>Node5&#45;&gt;Node7</title>
<g id="a_edge6_Node000005_Node000007"><a xlink:title=" ">
<path fill="none" stroke="#63b8ff" d="M299.1,-46.5C311.69,-46.5 325.4,-46.5 338.74,-46.5"/>
<polygon fill="#63b8ff" stroke="#63b8ff" points="338.85,-50 348.85,-46.5 338.85,-43 338.85,-50"/>
</a>
</g>
</g>
<!-- Node8 -->
<g id="Node000008" class="node">
<title>Node8</title>
<g id="a_Node000008"><a xlink:href="m__mpi__common_8fpp_8f90.html#a24ed3fee63870f02c535e9a137e12291" target="_top" xlink:title="The following subroutine takes the input local variable from all processors and reduces to the sum of...">
<polygon fill="white" stroke="#666666" points="471.5,-19 349.5,-19 349.5,0 471.5,0 471.5,-19"/>
<text text-anchor="middle" x="410.5" y="-7" font-family="Helvetica,sans-Serif" font-size="10.00">s_mpi_allreduce_sum</text>
</a>
</g>
</g>
<!-- Node5&#45;&gt;Node8 -->
<g id="edge7_Node000005_Node000008" class="edge">
<title>Node5&#45;&gt;Node8</title>
<g id="a_edge7_Node000005_Node000008"><a xlink:title=" ">
<path fill="none" stroke="#63b8ff" d="M289.59,-36.97C310.42,-32.2 335.84,-26.38 357.9,-21.32"/>
<polygon fill="#63b8ff" stroke="#63b8ff" points="358.8,-24.71 367.77,-19.06 357.24,-17.88 358.8,-24.71"/>
</a>
</g>
</g>
</g>
</svg>
</svg>

<style type='text/css'>
<![CDATA[
[data-mouse-over-selected='false'] { opacity: 0.7; }
[data-mouse-over-selected='true']  { opacity: 1.0; }
]]>
</style>
<script type="application/ecmascript"><![CDATA[
document.addEventListener('DOMContentLoaded', (event) => {
  highlightEdges();
  highlightAdjacentNodes();
});
]]></script>
</svg>
