<?xml version="1.0" encoding="UTF-8" standalone="no"?>
<!DOCTYPE svg PUBLIC "-//W3C//DTD SVG 1.1//EN"
 "http://www.w3.org/Graphics/SVG/1.1/DTD/svg11.dtd">
<!-- Generated by graphviz version 2.43.0 (0)
 -->
<!-- Title: s_bwproperty Pages: 1 -->
<svg width="968pt" height="215pt"
 viewBox="0.00 0.00 968.00 215.00" xmlns="http://www.w3.org/2000/svg" xmlns:xlink="http://www.w3.org/1999/xlink">
<g id="graph0" class="graph" transform="scale(1 1) rotate(0) translate(4 211)">
<title>s_bwproperty</title>
<!-- Node1 -->
<g id="Node000001" class="node">
<title>Node1</title>
<g id="a_Node000001"><a xlink:title="Subroutine that computes bubble wall properties for vapor bubbles.">
<polygon fill="#999999" stroke="#666666" points="960,-131 877,-131 877,-112 960,-112 960,-131"/>
<text text-anchor="middle" x="918.5" y="-119" font-family="Helvetica,sans-Serif" font-size="10.00">s_bwproperty</text>
</a>
</g>
</g>
<!-- Node2 -->
<g id="Node000002" class="node">
<title>Node2</title>
<g id="a_Node000002"><a xlink:href="m__bubbles__EE_8fpp_8f90.html#a661591fb6b056fbef9867502c2627264" target="_top" xlink:title="The purpose of this procedure is to compute the source terms that are needed for the bubble modeling.">
<polygon fill="white" stroke="#666666" points="841,-136.5 716,-136.5 716,-106.5 841,-106.5 841,-136.5"/>
<text text-anchor="start" x="724" y="-124.5" font-family="Helvetica,sans-Serif" font-size="10.00">s_compute_bubble_ee</text>
<text text-anchor="middle" x="778.5" y="-113.5" font-family="Helvetica,sans-Serif" font-size="10.00">_source</text>
</a>
</g>
</g>
<!-- Node1&#45;&gt;Node2 -->
<g id="edge1_Node000001_Node000002" class="edge">
<title>Node1&#45;&gt;Node2</title>
<g id="a_edge1_Node000001_Node000002"><a xlink:title=" ">
<path fill="none" stroke="#63b8ff" d="M866.58,-121.5C858.29,-121.5 849.62,-121.5 841.1,-121.5"/>
<polygon fill="#63b8ff" stroke="#63b8ff" points="866.84,-125 876.84,-121.5 866.84,-118 866.84,-125"/>
</a>
</g>
</g>
<!-- Node3 -->
<g id="Node000003" class="node">
<title>Node3</title>
<g id="a_Node000003"><a xlink:href="m__time__steppers_8fpp_8f90.html#a7d3b794980e24632e81102bb05044392" target="_top" xlink:title="Bubble source part in Strang operator splitting scheme.">
<polygon fill="white" stroke="#666666" points="680,-179 557,-179 557,-160 680,-160 680,-179"/>
<text text-anchor="middle" x="618.5" y="-167" font-family="Helvetica,sans-Serif" font-size="10.00">s_adaptive_dt_bubble</text>
</a>
</g>
</g>
<!-- Node2&#45;&gt;Node3 -->
<g id="edge2_Node000002_Node000003" class="edge">
<title>Node2&#45;&gt;Node3</title>
<g id="a_edge2_Node000002_Node000003"><a xlink:title=" ">
<path fill="none" stroke="#63b8ff" d="M718.31,-139.48C695.45,-146.43 670.23,-154.09 650.98,-159.94"/>
<polygon fill="#63b8ff" stroke="#63b8ff" points="719.39,-142.81 727.94,-136.56 717.36,-136.11 719.39,-142.81"/>
</a>
</g>
</g>
<!-- Node7 -->
<g id="Node000007" class="node">
<title>Node7</title>
<g id="a_Node000007"><a xlink:href="m__rhs_8fpp_8f90.html#a50aa5455db99885d7ced0100cf083459" target="_top" xlink:title=" ">
<polygon fill="white" stroke="#666666" points="663.5,-113 573.5,-113 573.5,-94 663.5,-94 663.5,-113"/>
<text text-anchor="middle" x="618.5" y="-101" font-family="Helvetica,sans-Serif" font-size="10.00">s_compute_rhs</text>
</a>
</g>
</g>
<!-- Node2&#45;&gt;Node7 -->
<g id="edge6_Node000002_Node000007" class="edge">
<title>Node2&#45;&gt;Node7</title>
<g id="a_edge6_Node000002_Node000007"><a xlink:title=" ">
<path fill="none" stroke="#63b8ff" d="M706.01,-113.36C691.53,-111.71 676.71,-110.02 663.52,-108.51"/>
<polygon fill="#63b8ff" stroke="#63b8ff" points="705.63,-116.83 715.96,-114.49 706.42,-109.88 705.63,-116.83"/>
</a>
</g>
</g>
<!-- Node4 -->
<g id="Node000004" class="node">
<title>Node4</title>
<g id="a_Node000004"><a xlink:href="m__time__steppers_8fpp_8f90.html#a5858523edfce42df32b2b0a8af54bc0e" target="_top" xlink:title="Strang splitting scheme with 3rd order TVD RK time&#45;stepping algorithm for the flux term and adaptive ...">
<polygon fill="white" stroke="#666666" points="359.5,-207 256.5,-207 256.5,-188 359.5,-188 359.5,-207"/>
<text text-anchor="middle" x="308" y="-195" font-family="Helvetica,sans-Serif" font-size="10.00">s_strang_splitting</text>
</a>
</g>
</g>
<!-- Node3&#45;&gt;Node4 -->
<g id="edge3_Node000003_Node000004" class="edge">
<title>Node3&#45;&gt;Node4</title>
<g id="a_edge3_Node000003_Node000004"><a xlink:title=" ">
<path fill="none" stroke="#63b8ff" d="M546.68,-176.99C538.03,-177.86 529.32,-178.72 521,-179.5 465.84,-184.7 402.53,-189.99 359.57,-193.47"/>
<polygon fill="#63b8ff" stroke="#63b8ff" points="547.18,-180.46 556.77,-175.97 546.47,-173.49 547.18,-180.46"/>
</a>
</g>
</g>
<!-- Node5 -->
<g id="Node000005" class="node">
<title>Node5</title>
<g id="a_Node000005"><a xlink:href="namespacem__start__up.html#aaaeff91a52af5b8f17ed9efed8ac17bd" target="_top" xlink:title=" ">
<polygon fill="white" stroke="#666666" points="216,-136.5 89,-136.5 89,-106.5 216,-106.5 216,-136.5"/>
<text text-anchor="start" x="97" y="-124.5" font-family="Helvetica,sans-Serif" font-size="10.00">m_start_up::s_perform</text>
<text text-anchor="middle" x="152.5" y="-113.5" font-family="Helvetica,sans-Serif" font-size="10.00">_time_step</text>
</a>
</g>
</g>
<!-- Node4&#45;&gt;Node5 -->
<g id="edge4_Node000004_Node000005" class="edge">
<title>Node4&#45;&gt;Node5</title>
<g id="a_edge4_Node000004_Node000005"><a xlink:title=" ">
<path fill="none" stroke="#63b8ff" d="M274.84,-183.94C267.3,-180.63 259.33,-177.03 252,-173.5 227.61,-161.76 200.43,-147.31 180.82,-136.62"/>
<polygon fill="#63b8ff" stroke="#63b8ff" points="273.52,-187.18 284.08,-187.95 276.3,-180.76 273.52,-187.18"/>
</a>
</g>
</g>
<!-- Node6 -->
<g id="Node000006" class="node">
<title>Node6</title>
<g id="a_Node000006"><a xlink:href="p__main_8fpp_8f90.html#aeec10ee8e2940c953967da3e374e1579" target="_top" xlink:title="Quasi&#45;conservative, shock&#45; and interface&#45; capturing finite&#45;volume scheme for the multicomponent Navie...">
<polygon fill="white" stroke="#666666" points="53,-131 0,-131 0,-112 53,-112 53,-131"/>
<text text-anchor="middle" x="26.5" y="-119" font-family="Helvetica,sans-Serif" font-size="10.00">p_main</text>
</a>
</g>
</g>
<!-- Node5&#45;&gt;Node6 -->
<g id="edge5_Node000005_Node000006" class="edge">
<title>Node5&#45;&gt;Node6</title>
<g id="a_edge5_Node000005_Node000006"><a xlink:title=" ">
<path fill="none" stroke="#63b8ff" d="M78.77,-121.5C69.63,-121.5 60.81,-121.5 53.14,-121.5"/>
<polygon fill="#63b8ff" stroke="#63b8ff" points="78.77,-125 88.77,-121.5 78.77,-118 78.77,-125"/>
</a>
</g>
</g>
<!-- Node8 -->
<g id="Node000008" class="node">
<title>Node8</title>
<g id="a_Node000008"><a xlink:href="m__rhs_8fpp_8f90.html#a87616394067f1273cd06c4d299d10add" target="_top" xlink:title=" ">
<polygon fill="white" stroke="#666666" points="515.5,-19 405.5,-19 405.5,0 515.5,0 515.5,-19"/>
<text text-anchor="middle" x="460.5" y="-7" font-family="Helvetica,sans-Serif" font-size="10.00">__m_rhs_fpp_f90__</text>
</a>
</g>
</g>
<!-- Node7&#45;&gt;Node8 -->
<g id="edge7_Node000007_Node000008" class="edge">
<title>Node7&#45;&gt;Node8</title>
<g id="a_edge7_Node000007_Node000008"><a xlink:title=" ">
<path fill="none" stroke="#63b8ff" d="M600.47,-86.79C582.2,-69.71 551.67,-43.48 521,-27.5 514.68,-24.21 507.67,-21.42 500.74,-19.09"/>
<polygon fill="#63b8ff" stroke="#63b8ff" points="598.3,-89.56 607.95,-93.93 603.13,-84.5 598.3,-89.56"/>
</a>
</g>
</g>
<!-- Node9 -->
<g id="Node000009" class="node">
<title>Node9</title>
<g id="a_Node000009"><a xlink:href="m__time__steppers_8fpp_8f90.html#af409df8df1b374744d8c379e7e7dba0b" target="_top" xlink:title="1st order TVD RK time&#45;stepping algorithm">
<polygon fill="white" stroke="#666666" points="362.5,-131 253.5,-131 253.5,-112 362.5,-112 362.5,-131"/>
<text text-anchor="middle" x="308" y="-119" font-family="Helvetica,sans-Serif" font-size="10.00">s_1st_order_tvd_rk</text>
</a>
</g>
</g>
<!-- Node7&#45;&gt;Node9 -->
<g id="edge8_Node000007_Node000009" class="edge">
<title>Node7&#45;&gt;Node9</title>
<g id="a_edge8_Node000007_Node000009"><a xlink:title=" ">
<path fill="none" stroke="#63b8ff" d="M563.14,-106.67C506.69,-109.97 418.92,-115.09 362.71,-118.37"/>
<polygon fill="#63b8ff" stroke="#63b8ff" points="563.52,-110.16 573.3,-106.08 563.11,-103.17 563.52,-110.16"/>
</a>
</g>
</g>
<!-- Node10 -->
<g id="Node000010" class="node">
<title>Node10</title>
<g id="a_Node000010"><a xlink:href="m__time__steppers_8fpp_8f90.html#a2847bfea6f3dc3fdae115a99009f7245" target="_top" xlink:title="2nd order TVD RK time&#45;stepping algorithm">
<polygon fill="white" stroke="#666666" points="364,-94 252,-94 252,-75 364,-75 364,-94"/>
<text text-anchor="middle" x="308" y="-82" font-family="Helvetica,sans-Serif" font-size="10.00">s_2nd_order_tvd_rk</text>
</a>
</g>
</g>
<!-- Node7&#45;&gt;Node10 -->
<g id="edge10_Node000007_Node000010" class="edge">
<title>Node7&#45;&gt;Node10</title>
<g id="a_edge10_Node000007_Node000010"><a xlink:title=" ">
<path fill="none" stroke="#63b8ff" d="M563.22,-100.16C507.22,-96.71 420.34,-91.36 364.06,-87.89"/>
<polygon fill="#63b8ff" stroke="#63b8ff" points="563.1,-103.66 573.3,-100.78 563.53,-96.67 563.1,-103.66"/>
</a>
</g>
</g>
<!-- Node11 -->
<g id="Node000011" class="node">
<title>Node11</title>
<g id="a_Node000011"><a xlink:href="m__time__steppers_8fpp_8f90.html#ad642c094881f0cffbb6158f9fa079a86" target="_top" xlink:title="3rd order TVD RK time&#45;stepping algorithm">
<polygon fill="white" stroke="#666666" points="515.5,-170 405.5,-170 405.5,-151 515.5,-151 515.5,-170"/>
<text text-anchor="middle" x="460.5" y="-158" font-family="Helvetica,sans-Serif" font-size="10.00">s_3rd_order_tvd_rk</text>
</a>
</g>
</g>
<!-- Node7&#45;&gt;Node11 -->
<g id="edge12_Node000007_Node000011" class="edge">
<title>Node7&#45;&gt;Node11</title>
<g id="a_edge12_Node000007_Node000011"><a xlink:title=" ">
<path fill="none" stroke="#63b8ff" d="M581.74,-116.57C553.07,-127.04 513.49,-141.51 487.7,-150.93"/>
<polygon fill="#63b8ff" stroke="#63b8ff" points="583.2,-119.76 591.39,-113.04 580.8,-113.19 583.2,-119.76"/>
</a>
</g>
</g>
<!-- Node12 -->
<g id="Node000012" class="node">
<title>Node12</title>
<g id="a_Node000012"><a xlink:href="m__time__steppers_8fpp_8f90.html#aca171c932551af4579eecbfc6b9a8c6a" target="_top" xlink:title="(Adaptive) 4th/5th order Runge—Kutta–Cash–Karp (RKCK) time&#45;stepping algorithm (Cash J....">
<polygon fill="white" stroke="#666666" points="521,-56 400,-56 400,-37 521,-37 521,-56"/>
<text text-anchor="middle" x="460.5" y="-44" font-family="Helvetica,sans-Serif" font-size="10.00">s_4th_5th_order_rkck</text>
</a>
</g>
</g>
<!-- Node7&#45;&gt;Node12 -->
<g id="edge15_Node000007_Node000012" class="edge">
<title>Node7&#45;&gt;Node12</title>
<g id="a_edge15_Node000007_Node000012"><a xlink:title=" ">
<path fill="none" stroke="#63b8ff" d="M581.74,-90.43C553.07,-79.96 513.49,-65.49 487.7,-56.07"/>
<polygon fill="#63b8ff" stroke="#63b8ff" points="580.8,-93.81 591.39,-93.96 583.2,-87.24 580.8,-93.81"/>
</a>
</g>
</g>
<!-- Node9&#45;&gt;Node5 -->
<g id="edge9_Node000009_Node000005" class="edge">
<title>Node9&#45;&gt;Node5</title>
<g id="a_edge9_Node000009_Node000005"><a xlink:title=" ">
<path fill="none" stroke="#63b8ff" d="M243.3,-121.5C234.31,-121.5 225.07,-121.5 216.1,-121.5"/>
<polygon fill="#63b8ff" stroke="#63b8ff" points="243.31,-125 253.31,-121.5 243.31,-118 243.31,-125"/>
</a>
</g>
</g>
<!-- Node10&#45;&gt;Node5 -->
<g id="edge11_Node000010_Node000005" class="edge">
<title>Node10&#45;&gt;Node5</title>
<g id="a_edge11_Node000010_Node000005"><a xlink:title=" ">
<path fill="none" stroke="#63b8ff" d="M257.58,-96.41C244.29,-99.62 229.73,-103.12 215.83,-106.48"/>
<polygon fill="#63b8ff" stroke="#63b8ff" points="258.57,-99.77 267.47,-94.03 256.93,-92.97 258.57,-99.77"/>
</a>
</g>
</g>
<!-- Node11&#45;&gt;Node4 -->
<g id="edge14_Node000011_Node000004" class="edge">
<title>Node11&#45;&gt;Node4</title>
<g id="a_edge14_Node000011_Node000004"><a xlink:title=" ">
<path fill="none" stroke="#63b8ff" d="M410.99,-172.43C390.58,-177.44 367.14,-183.21 347.89,-187.94"/>
<polygon fill="#63b8ff" stroke="#63b8ff" points="411.87,-175.81 420.74,-170.03 410.2,-169.02 411.87,-175.81"/>
</a>
</g>
</g>
<!-- Node11&#45;&gt;Node5 -->
<g id="edge13_Node000011_Node000005" class="edge">
<title>Node11&#45;&gt;Node5</title>
<g id="a_edge13_Node000011_Node000005"><a xlink:title=" ">
<path fill="none" stroke="#63b8ff" d="M395.04,-155.31C354,-151.68 299.76,-146.27 252,-139.5 240.38,-137.85 228.04,-135.82 216.17,-133.73"/>
<polygon fill="#63b8ff" stroke="#63b8ff" points="394.91,-158.81 405.18,-156.2 395.52,-151.84 394.91,-158.81"/>
</a>
</g>
</g>
<!-- Node12&#45;&gt;Node5 -->
<g id="edge16_Node000012_Node000005" class="edge">
<title>Node12&#45;&gt;Node5</title>
<g id="a_edge16_Node000012_Node000005"><a xlink:title=" ">
<path fill="none" stroke="#63b8ff" d="M389.46,-45.58C348.54,-46.84 296.39,-51.57 252,-65.5 222.91,-74.63 192.94,-93.23 173.81,-106.49"/>
<polygon fill="#63b8ff" stroke="#63b8ff" points="389.7,-49.08 399.61,-45.33 389.53,-42.08 389.7,-49.08"/>
</a>
</g>
</g>
</g>
</svg>
