<?xml version="1.0" encoding="UTF-8" standalone="no"?>
<!DOCTYPE svg PUBLIC "-//W3C//DTD SVG 1.1//EN"
 "http://www.w3.org/Graphics/SVG/1.1/DTD/svg11.dtd">
<!-- Generated by graphviz version 2.43.0 (0)
 -->
<!-- Title: s_compute_bubble_el_dynamics Pages: 1 -->
<svg width="693pt" height="577pt"
 viewBox="0.00 0.00 693.00 577.00" xmlns="http://www.w3.org/2000/svg" xmlns:xlink="http://www.w3.org/1999/xlink">
<g id="graph0" class="graph" transform="scale(1 1) rotate(0) translate(4 573)">
<title>s_compute_bubble_el_dynamics</title>
<!-- Node1 -->
<g id="Node000001" class="node">
<title>Node1</title>
<g id="a_Node000001"><a xlink:title="Contains the bubble dynamics subroutines.">
<polygon fill="#999999" stroke="#666666" points="122,-261.5 0,-261.5 0,-231.5 122,-231.5 122,-261.5"/>
<text text-anchor="start" x="8" y="-249.5" font-family="Helvetica,sans-Serif" font-size="10.00">s_compute_bubble_el</text>
<text text-anchor="middle" x="61" y="-238.5" font-family="Helvetica,sans-Serif" font-size="10.00">_dynamics</text>
</a>
</g>
</g>
<!-- Node2 -->
<g id="Node000002" class="node">
<title>Node2</title>
<g id="a_Node000002"><a xlink:href="m__bubbles_8fpp_8f90.html#acff61895758b4c0d9b2e92e12b177717" target="_top" xlink:title="Function that computes the time derivative of the internal bubble pressure.">
<polygon fill="white" stroke="#666666" points="685,-551 611,-551 611,-532 685,-532 685,-551"/>
<text text-anchor="middle" x="648" y="-539" font-family="Helvetica,sans-Serif" font-size="10.00">f_bpres_dot</text>
</a>
</g>
</g>
<!-- Node1&#45;&gt;Node2 -->
<g id="edge1_Node000001_Node000002" class="edge">
<title>Node1&#45;&gt;Node2</title>
<g id="a_edge1_Node000001_Node000002"><a xlink:title=" ">
<path fill="none" stroke="#63b8ff" d="M67.81,-261.55C80.06,-291.48 111.34,-358.87 158,-397.5 291.54,-508.07 507.06,-533.74 600.89,-539.7"/>
<polygon fill="#63b8ff" stroke="#63b8ff" points="600.73,-543.2 610.92,-540.29 601.14,-536.21 600.73,-543.2"/>
</a>
</g>
</g>
<!-- Node3 -->
<g id="Node000003" class="node">
<title>Node3</title>
<g id="a_Node000003"><a xlink:href="m__bubbles_8fpp_8f90.html#a30dca898ade85c5f9dd77f22371a00da" target="_top" xlink:title="Function that computes the bubble wall pressure for Keller–Miksis bubbles.">
<polygon fill="white" stroke="#666666" points="684,-19 612,-19 612,0 684,0 684,-19"/>
<text text-anchor="middle" x="648" y="-7" font-family="Helvetica,sans-Serif" font-size="10.00">f_cpbw_km</text>
</a>
</g>
</g>
<!-- Node1&#45;&gt;Node3 -->
<g id="edge3_Node000001_Node000003" class="edge">
<title>Node1&#45;&gt;Node3</title>
<g id="a_edge3_Node000001_Node000003"><a xlink:title=" ">
<path fill="none" stroke="#63b8ff" d="M122.02,-249.61C172.86,-250.39 246.99,-247.07 308,-226.5 444.17,-180.58 580.33,-68.4 628.62,-26.05"/>
<polygon fill="#63b8ff" stroke="#63b8ff" points="631.18,-28.46 636.35,-19.21 626.54,-23.22 631.18,-28.46"/>
</a>
</g>
</g>
<!-- Node4 -->
<g id="Node000004" class="node">
<title>Node4</title>
<g id="a_Node000004"><a xlink:href="m__bubbles_8fpp_8f90.html#a86272c4537ef61fb3828a48b46d372a1" target="_top" xlink:title="Function that computes the bubble radial acceleration based on bubble models.">
<polygon fill="white" stroke="#666666" points="559,-294 508,-294 508,-275 559,-275 559,-294"/>
<text text-anchor="middle" x="533.5" y="-282" font-family="Helvetica,sans-Serif" font-size="10.00">f_rddot</text>
</a>
</g>
</g>
<!-- Node1&#45;&gt;Node4 -->
<g id="edge5_Node000001_Node000004" class="edge">
<title>Node1&#45;&gt;Node4</title>
<g id="a_edge5_Node000001_Node000004"><a xlink:title=" ">
<path fill="none" stroke="#63b8ff" d="M122.08,-256.02C133.96,-257.69 146.36,-259.28 158,-260.5 282.6,-273.56 431.32,-280.54 497.62,-283.21"/>
<polygon fill="#63b8ff" stroke="#63b8ff" points="497.77,-286.72 507.9,-283.61 498.05,-279.72 497.77,-286.72"/>
</a>
</g>
</g>
<!-- Node13 -->
<g id="Node000013" class="node">
<title>Node13</title>
<g id="a_Node000013"><a xlink:href="m__bubbles_8fpp_8f90.html#a87c7db759f5fe85606b168d1b3c89212" target="_top" xlink:title="Adaptive time stepping routine for subgrid bubbles (See Heirer, E. Hairer S.P.Nørsett G....">
<polygon fill="white" stroke="#666666" points="280.5,-332 185.5,-332 185.5,-313 280.5,-313 280.5,-332"/>
<text text-anchor="middle" x="233" y="-320" font-family="Helvetica,sans-Serif" font-size="10.00">s_advance_step</text>
</a>
</g>
</g>
<!-- Node1&#45;&gt;Node13 -->
<g id="edge24_Node000001_Node000013" class="edge">
<title>Node1&#45;&gt;Node13</title>
<g id="a_edge24_Node000001_Node000013"><a xlink:title=" ">
<path fill="none" stroke="#63b8ff" d="M87.04,-261.71C106.05,-272.85 133.09,-287.82 158,-298.5 167.59,-302.61 178.13,-306.43 188.17,-309.75"/>
<polygon fill="#63b8ff" stroke="#63b8ff" points="187.41,-313.18 198,-312.9 189.55,-306.51 187.41,-313.18"/>
</a>
</g>
</g>
<!-- Node16 -->
<g id="Node000016" class="node">
<title>Node16</title>
<g id="a_Node000016"><a xlink:href="m__bubbles_8fpp_8f90.html#aa47f0b3b286d9c3d2b3ed8cc172638f4" target="_top" xlink:title="Function that computes the vapour flux.">
<polygon fill="white" stroke="#666666" points="673.5,-514 622.5,-514 622.5,-495 673.5,-495 673.5,-514"/>
<text text-anchor="middle" x="648" y="-502" font-family="Helvetica,sans-Serif" font-size="10.00">s_vflux</text>
</a>
</g>
</g>
<!-- Node1&#45;&gt;Node16 -->
<g id="edge36_Node000001_Node000016" class="edge">
<title>Node1&#45;&gt;Node16</title>
<g id="a_edge36_Node000001_Node000016"><a xlink:title=" ">
<path fill="none" stroke="#63b8ff" d="M74.24,-261.78C91.23,-282.2 123.76,-318.46 158,-341.5 291.97,-431.65 336.22,-441.99 492,-484.5 532.45,-495.54 580.54,-500.54 612.31,-502.77"/>
<polygon fill="#63b8ff" stroke="#63b8ff" points="612.22,-506.27 622.43,-503.42 612.68,-499.28 612.22,-506.27"/>
</a>
</g>
</g>
<!-- Node18 -->
<g id="Node000018" class="node">
<title>Node18</title>
<g id="a_Node000018"><a xlink:href="m__bubbles__EL_8fpp_8f90.html#a7f3ff1e6f2b6c9a84183cf6b94ebe6b5" target="_top" xlink:title="This procedure computes the speed of sound from a given driving pressure.">
<polygon fill="white" stroke="#666666" points="308,-218 158,-218 158,-199 308,-199 308,-218"/>
<text text-anchor="middle" x="233" y="-206" font-family="Helvetica,sans-Serif" font-size="10.00">s_compute_cson_from_pinf</text>
</a>
</g>
</g>
<!-- Node1&#45;&gt;Node18 -->
<g id="edge32_Node000001_Node000018" class="edge">
<title>Node1&#45;&gt;Node18</title>
<g id="a_edge32_Node000001_Node000018"><a xlink:title=" ">
<path fill="none" stroke="#63b8ff" d="M122.41,-233C141.1,-228.82 161.51,-224.26 179.6,-220.21"/>
<polygon fill="#63b8ff" stroke="#63b8ff" points="180.39,-223.62 189.39,-218.02 178.87,-216.79 180.39,-223.62"/>
</a>
</g>
</g>
<!-- Node19 -->
<g id="Node000019" class="node">
<title>Node19</title>
<g id="a_Node000019"><a xlink:href="m__variables__conversion_8fpp_8f90.html#a7e916812d559521b02482716753a50d6" target="_top" xlink:title=" ">
<polygon fill="white" stroke="#666666" points="299,-180.5 167,-180.5 167,-150.5 299,-150.5 299,-180.5"/>
<text text-anchor="start" x="175" y="-168.5" font-family="Helvetica,sans-Serif" font-size="10.00">s_convert_species_to</text>
<text text-anchor="middle" x="233" y="-157.5" font-family="Helvetica,sans-Serif" font-size="10.00">_mixture_variables_acc</text>
</a>
</g>
</g>
<!-- Node1&#45;&gt;Node19 -->
<g id="edge33_Node000001_Node000019" class="edge">
<title>Node1&#45;&gt;Node19</title>
<g id="a_edge33_Node000001_Node000019"><a xlink:title=" ">
<path fill="none" stroke="#63b8ff" d="M84.12,-231.44C103.1,-218.99 131.51,-201.48 158,-189.5 162.13,-187.63 166.44,-185.84 170.82,-184.14"/>
<polygon fill="#63b8ff" stroke="#63b8ff" points="172.32,-187.32 180.48,-180.57 169.89,-180.76 172.32,-187.32"/>
</a>
</g>
</g>
<!-- Node20 -->
<g id="Node000020" class="node">
<title>Node20</title>
<g id="a_Node000020"><a xlink:href="m__bubbles__EL_8fpp_8f90.html#adf08680b9fa365cf87cf9ea91e971b3f" target="_top" xlink:title="The purpose of this procedure is obtain the bubble driving pressure p_inf.">
<polygon fill="white" stroke="#666666" points="266.5,-132 199.5,-132 199.5,-113 266.5,-113 266.5,-132"/>
<text text-anchor="middle" x="233" y="-120" font-family="Helvetica,sans-Serif" font-size="10.00">s_get_pinf</text>
</a>
</g>
</g>
<!-- Node1&#45;&gt;Node20 -->
<g id="edge34_Node000001_Node000020" class="edge">
<title>Node1&#45;&gt;Node20</title>
<g id="a_edge34_Node000001_Node000020"><a xlink:title=" ">
<path fill="none" stroke="#63b8ff" d="M71.51,-231.43C86.84,-208.43 119.25,-164.77 158,-141.5 167.58,-135.75 178.86,-131.73 189.69,-128.92"/>
<polygon fill="#63b8ff" stroke="#63b8ff" points="190.5,-132.32 199.45,-126.66 188.92,-125.5 190.5,-132.32"/>
</a>
</g>
</g>
<!-- Node21 -->
<g id="Node000021" class="node">
<title>Node21</title>
<g id="a_Node000021"><a xlink:href="m__mpi__common_8fpp_8f90.html#adbcc47e90968ff0f14ccc2ca3c47586a" target="_top" xlink:title="The subroutine terminates the MPI execution environment.">
<polygon fill="white" stroke="#666666" points="271.5,-95 194.5,-95 194.5,-76 271.5,-76 271.5,-95"/>
<text text-anchor="middle" x="233" y="-83" font-family="Helvetica,sans-Serif" font-size="10.00">s_mpi_abort</text>
</a>
</g>
</g>
<!-- Node1&#45;&gt;Node21 -->
<g id="edge35_Node000001_Node000021" class="edge">
<title>Node1&#45;&gt;Node21</title>
<g id="a_edge35_Node000001_Node000021"><a xlink:title=" ">
<path fill="none" stroke="#63b8ff" d="M67.79,-231.24C79.82,-201.7 110.42,-136.69 158,-103.5 165.89,-98 175.27,-94.17 184.65,-91.51"/>
<polygon fill="#63b8ff" stroke="#63b8ff" points="185.49,-94.91 194.37,-89.13 183.83,-88.11 185.49,-94.91"/>
</a>
</g>
</g>
<!-- Node2&#45;&gt;Node2 -->
<g id="edge2_Node000002_Node000002" class="edge">
<title>Node2&#45;&gt;Node2</title>
<g id="a_edge2_Node000002_Node000002"><a xlink:title=" ">
<path fill="none" stroke="#63b8ff" d="M630.43,-551.08C621.88,-559.73 627.74,-569 648,-569 660.66,-569 667.7,-565.38 669.11,-560.55"/>
<polygon fill="#63b8ff" stroke="#63b8ff" points="672.35,-559.22 665.57,-551.08 665.79,-561.68 672.35,-559.22"/>
</a>
</g>
</g>
<!-- Node3&#45;&gt;Node3 -->
<g id="edge4_Node000003_Node000003" class="edge">
<title>Node3&#45;&gt;Node3</title>
<g id="a_edge4_Node000003_Node000003"><a xlink:title=" ">
<path fill="none" stroke="#63b8ff" d="M630.43,-19.08C621.88,-27.73 627.74,-37 648,-37 660.66,-37 667.7,-33.38 669.11,-28.55"/>
<polygon fill="#63b8ff" stroke="#63b8ff" points="672.35,-27.22 665.57,-19.08 665.79,-29.68 672.35,-27.22"/>
</a>
</g>
</g>
<!-- Node4&#45;&gt;Node3 -->
<g id="edge10_Node000004_Node000003" class="edge">
<title>Node4&#45;&gt;Node3</title>
<g id="a_edge10_Node000004_Node000003"><a xlink:title=" ">
<path fill="none" stroke="#63b8ff" d="M558.26,-274.97C564.6,-271.33 570.84,-266.57 575,-260.5 629.78,-180.58 566.63,-131.63 611,-45.5 614.73,-38.26 620.44,-31.57 626.21,-25.97"/>
<polygon fill="#63b8ff" stroke="#63b8ff" points="628.83,-28.33 633.96,-19.06 624.17,-23.11 628.83,-28.33"/>
</a>
</g>
</g>
<!-- Node4&#45;&gt;Node4 -->
<g id="edge17_Node000004_Node000004" class="edge">
<title>Node4&#45;&gt;Node4</title>
<g id="a_edge17_Node000004_Node000004"><a xlink:title=" ">
<path fill="none" stroke="#63b8ff" d="M515.93,-294.08C507.38,-302.73 513.24,-312 533.5,-312 546.16,-312 553.2,-308.38 554.61,-303.55"/>
<polygon fill="#63b8ff" stroke="#63b8ff" points="557.85,-302.22 551.07,-294.08 551.29,-304.68 557.85,-302.22"/>
</a>
</g>
</g>
<!-- Node5 -->
<g id="Node000005" class="node">
<title>Node5</title>
<g id="a_Node000005"><a xlink:href="m__bubbles_8fpp_8f90.html#a556ff599901d57bfc5f501b3ccac12a5" target="_top" xlink:title="Function that computes the sound speed for the bubble.">
<polygon fill="white" stroke="#666666" points="672,-459 624,-459 624,-440 672,-440 672,-459"/>
<text text-anchor="middle" x="648" y="-447" font-family="Helvetica,sans-Serif" font-size="10.00">f_cgas</text>
</a>
</g>
</g>
<!-- Node4&#45;&gt;Node5 -->
<g id="edge6_Node000004_Node000005" class="edge">
<title>Node4&#45;&gt;Node5</title>
<g id="a_edge6_Node000004_Node000005"><a xlink:title=" ">
<path fill="none" stroke="#63b8ff" d="M537.17,-294C544.73,-319.4 568.55,-389.73 611,-431.5 612.27,-432.75 613.64,-433.92 615.08,-435.03"/>
<polygon fill="#63b8ff" stroke="#63b8ff" points="613.56,-438.21 623.87,-440.64 617.33,-432.31 613.56,-438.21"/>
</a>
</g>
</g>
<!-- Node6 -->
<g id="Node000006" class="node">
<title>Node6</title>
<g id="a_Node000006"><a xlink:href="m__bubbles_8fpp_8f90.html#a2e6dbed3ae55ecbcdccefc14faf7d3b8" target="_top" xlink:title="Function that computes that bubble wall pressure for Gilmore bubbles.">
<polygon fill="white" stroke="#666666" points="673.5,-404 622.5,-404 622.5,-385 673.5,-385 673.5,-404"/>
<text text-anchor="middle" x="648" y="-392" font-family="Helvetica,sans-Serif" font-size="10.00">f_cpbw</text>
</a>
</g>
</g>
<!-- Node4&#45;&gt;Node6 -->
<g id="edge8_Node000004_Node000006" class="edge">
<title>Node4&#45;&gt;Node6</title>
<g id="a_edge8_Node000004_Node000006"><a xlink:title=" ">
<path fill="none" stroke="#63b8ff" d="M540.59,-294.23C552.34,-312.36 579.75,-351.72 611,-376.5 612.36,-377.57 613.78,-378.61 615.26,-379.6"/>
<polygon fill="#63b8ff" stroke="#63b8ff" points="613.66,-382.72 624.05,-384.81 617.24,-376.7 613.66,-382.72"/>
</a>
</g>
</g>
<!-- Node7 -->
<g id="Node000007" class="node">
<title>Node7</title>
<g id="a_Node000007"><a xlink:href="m__bubbles_8fpp_8f90.html#af7fd1de34db00586b080876bfc6ee240" target="_top" xlink:title="Function that computes the time derivative of the driving pressure.">
<polygon fill="white" stroke="#666666" points="680.5,-349 615.5,-349 615.5,-330 680.5,-330 680.5,-349"/>
<text text-anchor="middle" x="648" y="-337" font-family="Helvetica,sans-Serif" font-size="10.00">f_cpinfdot</text>
</a>
</g>
</g>
<!-- Node4&#45;&gt;Node7 -->
<g id="edge11_Node000004_Node000007" class="edge">
<title>Node4&#45;&gt;Node7</title>
<g id="a_edge11_Node000004_Node000007"><a xlink:title=" ">
<path fill="none" stroke="#63b8ff" d="M554.1,-294.08C571.81,-302.74 598.12,-315.6 618.23,-325.43"/>
<polygon fill="#63b8ff" stroke="#63b8ff" points="616.73,-328.6 627.25,-329.84 619.8,-322.31 616.73,-328.6"/>
</a>
</g>
</g>
<!-- Node8 -->
<g id="Node000008" class="node">
<title>Node8</title>
<g id="a_Node000008"><a xlink:href="m__bubbles_8fpp_8f90.html#a53b59cbe0ab1805ab4577ce8628ee6db" target="_top" xlink:title="Function that computes the bubble enthalpy.">
<polygon fill="white" stroke="#666666" points="664,-294 632,-294 632,-275 664,-275 664,-294"/>
<text text-anchor="middle" x="648" y="-282" font-family="Helvetica,sans-Serif" font-size="10.00">f_h</text>
</a>
</g>
</g>
<!-- Node4&#45;&gt;Node8 -->
<g id="edge13_Node000004_Node000008" class="edge">
<title>Node4&#45;&gt;Node8</title>
<g id="a_edge13_Node000004_Node000008"><a xlink:title=" ">
<path fill="none" stroke="#63b8ff" d="M559.19,-284.5C577.68,-284.5 602.9,-284.5 621.57,-284.5"/>
<polygon fill="#63b8ff" stroke="#63b8ff" points="621.7,-288 631.7,-284.5 621.7,-281 621.7,-288"/>
</a>
</g>
</g>
<!-- Node9 -->
<g id="Node000009" class="node">
<title>Node9</title>
<g id="a_Node000009"><a xlink:href="m__bubbles_8fpp_8f90.html#a2470f8228158f1b17464174b55b7cb87" target="_top" xlink:title="Function that computes the time derivative of the enthalpy.">
<polygon fill="white" stroke="#666666" points="671.5,-239 624.5,-239 624.5,-220 671.5,-220 671.5,-239"/>
<text text-anchor="middle" x="648" y="-227" font-family="Helvetica,sans-Serif" font-size="10.00">f_hdot</text>
</a>
</g>
</g>
<!-- Node4&#45;&gt;Node9 -->
<g id="edge15_Node000004_Node000009" class="edge">
<title>Node4&#45;&gt;Node9</title>
<g id="a_edge15_Node000004_Node000009"><a xlink:title=" ">
<path fill="none" stroke="#63b8ff" d="M554.1,-274.92C571.81,-266.26 598.12,-253.4 618.23,-243.57"/>
<polygon fill="#63b8ff" stroke="#63b8ff" points="619.8,-246.69 627.25,-239.16 616.73,-240.4 619.8,-246.69"/>
</a>
</g>
</g>
<!-- Node10 -->
<g id="Node000010" class="node">
<title>Node10</title>
<g id="a_Node000010"><a xlink:href="m__bubbles_8fpp_8f90.html#a757efca2b83ebf6849098caad22a2393" target="_top" xlink:title="Function that computes the bubble radial acceleration.">
<polygon fill="white" stroke="#666666" points="679,-184 617,-184 617,-165 679,-165 679,-184"/>
<text text-anchor="middle" x="648" y="-172" font-family="Helvetica,sans-Serif" font-size="10.00">f_rddot_g</text>
</a>
</g>
</g>
<!-- Node4&#45;&gt;Node10 -->
<g id="edge18_Node000004_Node000010" class="edge">
<title>Node4&#45;&gt;Node10</title>
<g id="a_edge18_Node000004_Node000010"><a xlink:title=" ">
<path fill="none" stroke="#63b8ff" d="M554.57,-274.77C561.47,-270.89 568.97,-266.02 575,-260.5 595.21,-242.02 593.26,-231.36 611,-210.5 616.51,-204.02 622.97,-197.32 628.88,-191.49"/>
<polygon fill="#63b8ff" stroke="#63b8ff" points="631.7,-193.63 636.46,-184.17 626.84,-188.6 631.7,-193.63"/>
</a>
</g>
</g>
<!-- Node11 -->
<g id="Node000011" class="node">
<title>Node11</title>
<g id="a_Node000011"><a xlink:href="m__bubbles_8fpp_8f90.html#afee175b5376a09002788e66a6b5f8bba" target="_top" xlink:title="Function that computes the bubble radial acceleration for Keller–Miksis bubbles.">
<polygon fill="white" stroke="#666666" points="684,-129 612,-129 612,-110 684,-110 684,-129"/>
<text text-anchor="middle" x="648" y="-117" font-family="Helvetica,sans-Serif" font-size="10.00">f_rddot_km</text>
</a>
</g>
</g>
<!-- Node4&#45;&gt;Node11 -->
<g id="edge20_Node000004_Node000011" class="edge">
<title>Node4&#45;&gt;Node11</title>
<g id="a_edge20_Node000004_Node000011"><a xlink:title=" ">
<path fill="none" stroke="#63b8ff" d="M556.8,-274.99C563.4,-271.28 570.15,-266.46 575,-260.5 606.14,-222.24 584.88,-197.35 611,-155.5 615.37,-148.49 621.36,-141.8 627.19,-136.13"/>
<polygon fill="#63b8ff" stroke="#63b8ff" points="629.86,-138.42 634.88,-129.09 625.14,-133.26 629.86,-138.42"/>
</a>
</g>
</g>
<!-- Node12 -->
<g id="Node000012" class="node">
<title>Node12</title>
<g id="a_Node000012"><a xlink:href="m__bubbles_8fpp_8f90.html#acee9b506c881646285a01a5ad4ced5b3" target="_top" xlink:title="Function that computes the bubble radial acceleration for Rayleigh&#45;Plesset bubbles.">
<polygon fill="white" stroke="#666666" points="681,-74 615,-74 615,-55 681,-55 681,-74"/>
<text text-anchor="middle" x="648" y="-62" font-family="Helvetica,sans-Serif" font-size="10.00">f_rddot_rp</text>
</a>
</g>
</g>
<!-- Node4&#45;&gt;Node12 -->
<g id="edge22_Node000004_Node000012" class="edge">
<title>Node4&#45;&gt;Node12</title>
<g id="a_edge22_Node000004_Node000012"><a xlink:title=" ">
<path fill="none" stroke="#63b8ff" d="M558.05,-274.82C564.39,-271.18 570.67,-266.45 575,-260.5 617.86,-201.54 575.84,-164.35 611,-100.5 614.93,-93.37 620.69,-86.71 626.46,-81.1"/>
<polygon fill="#63b8ff" stroke="#63b8ff" points="629.07,-83.46 634.16,-74.17 624.38,-78.26 629.07,-83.46"/>
</a>
</g>
</g>
<!-- Node5&#45;&gt;Node5 -->
<g id="edge7_Node000005_Node000005" class="edge">
<title>Node5&#45;&gt;Node5</title>
<g id="a_edge7_Node000005_Node000005"><a xlink:title=" ">
<path fill="none" stroke="#63b8ff" d="M630.43,-459.08C621.88,-467.73 627.74,-477 648,-477 660.66,-477 667.7,-473.38 669.11,-468.55"/>
<polygon fill="#63b8ff" stroke="#63b8ff" points="672.35,-467.22 665.57,-459.08 665.79,-469.68 672.35,-467.22"/>
</a>
</g>
</g>
<!-- Node6&#45;&gt;Node6 -->
<g id="edge9_Node000006_Node000006" class="edge">
<title>Node6&#45;&gt;Node6</title>
<g id="a_edge9_Node000006_Node000006"><a xlink:title=" ">
<path fill="none" stroke="#63b8ff" d="M630.43,-404.08C621.88,-412.73 627.74,-422 648,-422 660.66,-422 667.7,-418.38 669.11,-413.55"/>
<polygon fill="#63b8ff" stroke="#63b8ff" points="672.35,-412.22 665.57,-404.08 665.79,-414.68 672.35,-412.22"/>
</a>
</g>
</g>
<!-- Node7&#45;&gt;Node7 -->
<g id="edge12_Node000007_Node000007" class="edge">
<title>Node7&#45;&gt;Node7</title>
<g id="a_edge12_Node000007_Node000007"><a xlink:title=" ">
<path fill="none" stroke="#63b8ff" d="M630.43,-349.08C621.88,-357.73 627.74,-367 648,-367 660.66,-367 667.7,-363.38 669.11,-358.55"/>
<polygon fill="#63b8ff" stroke="#63b8ff" points="672.35,-357.22 665.57,-349.08 665.79,-359.68 672.35,-357.22"/>
</a>
</g>
</g>
<!-- Node8&#45;&gt;Node8 -->
<g id="edge14_Node000008_Node000008" class="edge">
<title>Node8&#45;&gt;Node8</title>
<g id="a_edge14_Node000008_Node000008"><a xlink:title=" ">
<path fill="none" stroke="#63b8ff" d="M631.97,-292.66C621.28,-301.69 626.62,-312 648,-312 662.7,-312 669.81,-307.13 669.35,-301.15"/>
<polygon fill="#63b8ff" stroke="#63b8ff" points="672.31,-299.27 664.03,-292.66 666.38,-302.99 672.31,-299.27"/>
</a>
</g>
</g>
<!-- Node9&#45;&gt;Node9 -->
<g id="edge16_Node000009_Node000009" class="edge">
<title>Node9&#45;&gt;Node9</title>
<g id="a_edge16_Node000009_Node000009"><a xlink:title=" ">
<path fill="none" stroke="#63b8ff" d="M630.43,-239.08C621.88,-247.73 627.74,-257 648,-257 660.66,-257 667.7,-253.38 669.11,-248.55"/>
<polygon fill="#63b8ff" stroke="#63b8ff" points="672.35,-247.22 665.57,-239.08 665.79,-249.68 672.35,-247.22"/>
</a>
</g>
</g>
<!-- Node10&#45;&gt;Node10 -->
<g id="edge19_Node000010_Node000010" class="edge">
<title>Node10&#45;&gt;Node10</title>
<g id="a_edge19_Node000010_Node000010"><a xlink:title=" ">
<path fill="none" stroke="#63b8ff" d="M630.43,-184.08C621.88,-192.73 627.74,-202 648,-202 660.66,-202 667.7,-198.38 669.11,-193.55"/>
<polygon fill="#63b8ff" stroke="#63b8ff" points="672.35,-192.22 665.57,-184.08 665.79,-194.68 672.35,-192.22"/>
</a>
</g>
</g>
<!-- Node11&#45;&gt;Node11 -->
<g id="edge21_Node000011_Node000011" class="edge">
<title>Node11&#45;&gt;Node11</title>
<g id="a_edge21_Node000011_Node000011"><a xlink:title=" ">
<path fill="none" stroke="#63b8ff" d="M630.43,-129.08C621.88,-137.73 627.74,-147 648,-147 660.66,-147 667.7,-143.38 669.11,-138.55"/>
<polygon fill="#63b8ff" stroke="#63b8ff" points="672.35,-137.22 665.57,-129.08 665.79,-139.68 672.35,-137.22"/>
</a>
</g>
</g>
<!-- Node12&#45;&gt;Node12 -->
<g id="edge23_Node000012_Node000012" class="edge">
<title>Node12&#45;&gt;Node12</title>
<g id="a_edge23_Node000012_Node000012"><a xlink:title=" ">
<path fill="none" stroke="#63b8ff" d="M630.43,-74.08C621.88,-82.73 627.74,-92 648,-92 660.66,-92 667.7,-88.38 669.11,-83.55"/>
<polygon fill="#63b8ff" stroke="#63b8ff" points="672.35,-82.22 665.57,-74.08 665.79,-84.68 672.35,-82.22"/>
</a>
</g>
</g>
<!-- Node14 -->
<g id="Node000014" class="node">
<title>Node14</title>
<g id="a_Node000014"><a xlink:href="m__bubbles_8fpp_8f90.html#a73a3b89afeff2f93b8f79df8ae5f30ca" target="_top" xlink:title="Integrate bubble variables over the given time step size, h, using a third&#45;order accurate embedded Ru...">
<polygon fill="white" stroke="#666666" points="456,-369 344,-369 344,-350 456,-350 456,-369"/>
<text text-anchor="middle" x="400" y="-357" font-family="Helvetica,sans-Serif" font-size="10.00">s_advance_substep</text>
</a>
</g>
</g>
<!-- Node13&#45;&gt;Node14 -->
<g id="edge25_Node000013_Node000014" class="edge">
<title>Node13&#45;&gt;Node14</title>
<g id="a_edge25_Node000013_Node000014"><a xlink:title=" ">
<path fill="none" stroke="#63b8ff" d="M276.49,-332.03C297.87,-336.82 323.97,-342.68 346.58,-347.75"/>
<polygon fill="#63b8ff" stroke="#63b8ff" points="345.84,-351.17 356.37,-349.94 347.37,-344.34 345.84,-351.17"/>
</a>
</g>
</g>
<!-- Node17 -->
<g id="Node000017" class="node">
<title>Node17</title>
<g id="a_Node000017"><a xlink:href="m__bubbles_8fpp_8f90.html#a0fcf1756074e095c38039a51137ae3f3" target="_top" xlink:title="Choose the initial time step size for the adaptive time stepping routine (See Heirer,...">
<polygon fill="white" stroke="#666666" points="455,-332 345,-332 345,-313 455,-313 455,-332"/>
<text text-anchor="middle" x="400" y="-320" font-family="Helvetica,sans-Serif" font-size="10.00">s_initial_substep_h</text>
</a>
</g>
</g>
<!-- Node13&#45;&gt;Node17 -->
<g id="edge30_Node000013_Node000017" class="edge">
<title>Node13&#45;&gt;Node17</title>
<g id="a_edge30_Node000013_Node000017"><a xlink:title=" ">
<path fill="none" stroke="#63b8ff" d="M280.84,-322.5C297.56,-322.5 316.71,-322.5 334.65,-322.5"/>
<polygon fill="#63b8ff" stroke="#63b8ff" points="334.76,-326 344.76,-322.5 334.75,-319 334.76,-326"/>
</a>
</g>
</g>
<!-- Node14&#45;&gt;Node4 -->
<g id="edge26_Node000014_Node000004" class="edge">
<title>Node14&#45;&gt;Node4</title>
<g id="a_edge26_Node000014_Node000004"><a xlink:title=" ">
<path fill="none" stroke="#63b8ff" d="M436.02,-349.93C442.82,-347.55 449.76,-344.74 456,-341.5 477.39,-330.41 499.17,-313.52 513.99,-301"/>
<polygon fill="#63b8ff" stroke="#63b8ff" points="516.57,-303.4 521.86,-294.22 512,-298.1 516.57,-303.4"/>
</a>
</g>
</g>
<!-- Node15 -->
<g id="Node000015" class="node">
<title>Node15</title>
<g id="a_Node000015"><a xlink:href="m__bubbles_8fpp_8f90.html#addca6dd3c540f5cbb12d79b3bfbc0489" target="_top" xlink:title="Changes of pressure and vapor mass in the lagrange bubbles.">
<polygon fill="white" stroke="#666666" points="575,-475 492,-475 492,-456 575,-456 575,-475"/>
<text text-anchor="middle" x="533.5" y="-463" font-family="Helvetica,sans-Serif" font-size="10.00">s_advance_el</text>
</a>
</g>
</g>
<!-- Node14&#45;&gt;Node15 -->
<g id="edge27_Node000014_Node000015" class="edge">
<title>Node14&#45;&gt;Node15</title>
<g id="a_edge27_Node000014_Node000015"><a xlink:title=" ">
<path fill="none" stroke="#63b8ff" d="M413.14,-369.28C435.84,-387.58 484.93,-427.15 512.56,-449.43"/>
<polygon fill="#63b8ff" stroke="#63b8ff" points="510.41,-452.19 520.39,-455.74 514.8,-446.74 510.41,-452.19"/>
</a>
</g>
</g>
<!-- Node15&#45;&gt;Node2 -->
<g id="edge28_Node000015_Node000002" class="edge">
<title>Node15&#45;&gt;Node2</title>
<g id="a_edge28_Node000015_Node000002"><a xlink:title=" ">
<path fill="none" stroke="#63b8ff" d="M545.69,-475.04C560.19,-487.14 586.51,-508.28 611,-523.5 612.93,-524.7 614.95,-525.88 617,-527.04"/>
<polygon fill="#63b8ff" stroke="#63b8ff" points="615.61,-530.26 626.08,-531.86 618.89,-524.08 615.61,-530.26"/>
</a>
</g>
</g>
<!-- Node15&#45;&gt;Node16 -->
<g id="edge29_Node000015_Node000016" class="edge">
<title>Node15&#45;&gt;Node16</title>
<g id="a_edge29_Node000015_Node000016"><a xlink:title=" ">
<path fill="none" stroke="#63b8ff" d="M562.02,-475.04C577.32,-480.34 596.49,-486.99 612.76,-492.63"/>
<polygon fill="#63b8ff" stroke="#63b8ff" points="611.85,-496.02 622.44,-495.99 614.14,-489.4 611.85,-496.02"/>
</a>
</g>
</g>
<!-- Node17&#45;&gt;Node4 -->
<g id="edge31_Node000017_Node000004" class="edge">
<title>Node17&#45;&gt;Node4</title>
<g id="a_edge31_Node000017_Node000004"><a xlink:title=" ">
<path fill="none" stroke="#63b8ff" d="M434.18,-312.91C453.62,-307.29 478.14,-300.21 497.83,-294.52"/>
<polygon fill="#63b8ff" stroke="#63b8ff" points="499,-297.83 507.63,-291.69 497.05,-291.1 499,-297.83"/>
</a>
</g>
</g>
</g>
</svg>
