<?xml version="1.0" encoding="UTF-8" standalone="no"?>
<!DOCTYPE svg PUBLIC "-//W3C//DTD SVG 1.1//EN"
 "http://www.w3.org/Graphics/SVG/1.1/DTD/svg11.dtd">
<!-- Generated by graphviz version 2.43.0 (0)
 -->
<!-- Title: s_read_input_bubbles Pages: 1 -->
<!--zoomable 430 -->

<svg id="main" version="1.1" xmlns="http://www.w3.org/2000/svg" xmlns:xlink="http://www.w3.org/1999/xlink" xml:space="preserve" onload="init(evt)">

<style type="text/css"><![CDATA[
.node, .edge {opacity: 0.7;}
.node.selected, .edge.selected {opacity: 1;}
.edge:hover path { stroke: red; }
.edge:hover polygon { stroke: red; fill: red; }
]]></style>

<defs>
  <circle id="rim" cx="0" cy="0" r="7"/>
  <circle id="rim2" cx="0" cy="0" r="3.5"/>
  <g id="zoomPlus">
    <use xlink:href="#rim" fill="#404040"><set attributeName="fill" to="#808080" begin="zoomplus.mouseover" end="zoomplus.mouseout"/></use>
    <path d="M-4,0h8M0,-4v8" fill="none" stroke="white" stroke-width="1.5" pointer-events="none"/>
  </g>
  <g id="zoomMin">
    <use xlink:href="#rim" fill="#404040"><set attributeName="fill" to="#808080" begin="zoomminus.mouseover" end="zoomminus.mouseout"/></use>
    <path d="M-4,0h8" fill="none" stroke="white" stroke-width="1.5" pointer-events="none"/>
  </g>
  <g id="arrowUp" transform="translate(30 24)">
    <use xlink:href="#rim"/>
    <path pointer-events="none" fill="none" stroke="white" stroke-width="1.5" d="M0,-3.0v7 M-2.5,-0.5L0,-3.0L2.5,-0.5"/>
  </g>
  <g id="arrowRight" transform="rotate(90) translate(36 -43)">
    <use xlink:href="#rim"/>
    <path pointer-events="none" fill="none" stroke="white" stroke-width="1.5" d="M0,-3.0v7 M-2.5,-0.5L0,-3.0L2.5,-0.5"/>
  </g>
  <g id="arrowDown" transform="rotate(180) translate(-30 -48)">
    <use xlink:href="#rim"/>
    <path pointer-events="none" fill="none" stroke="white" stroke-width="1.5" d="M0,-3.0v7 M-2.5,-0.5L0,-3.0L2.5,-0.5"/>
  </g>
  <g id="arrowLeft" transform="rotate(270) translate(-36 17)">
    <use xlink:href="#rim"/>
    <path pointer-events="none" fill="none" stroke="white" stroke-width="1.5" d="M0,-3.0v7 M-2.5,-0.5L0,-3.0L2.5,-0.5"/>
  </g>
  <g id="resetDef">
    <use xlink:href="#rim2" fill="#404040"><set attributeName="fill" to="#808080" begin="reset.mouseover" end="reset.mouseout"/></use>
  </g>
</defs>
<script type="application/ecmascript">
var viewWidth = 828;
var viewHeight = 430;
var sectionId = 'dynsection-18';
</script>
<script type="application/ecmascript" xlink:href="svg.min.js"/>
<svg id="graph" class="graph">
<g id="viewport">
<title>s_read_input_bubbles</title>
<!-- Node1 -->
<g id="Node000001" class="node">
<title>Node1</title>
<g id="a_Node000001"><a xlink:title="The purpose of this procedure is to obtain the initial bubbles&#39; information.">
<polygon fill="#999999" stroke="#666666" points="122,-253 0,-253 0,-234 122,-234 122,-253"/>
<text text-anchor="middle" x="61" y="-241" font-family="Helvetica,sans-Serif" font-size="10.00">s_read_input_bubbles</text>
</a>
</g>
</g>
<!-- Node2 -->
<g id="Node000002" class="node">
<title>Node2</title>
<g id="a_Node000002"><a xlink:href="m__bubbles__EL_8fpp_8f90.html#ae6abadf6a56071b1bfce80c063c17d17" target="_top" xlink:title="The purpose of this procedure is to determine if the global coordinates of the bubbles are present in...">
<polygon fill="white" stroke="#666666" points="442.5,-404 332.5,-404 332.5,-385 442.5,-385 442.5,-404"/>
<text text-anchor="middle" x="387.5" y="-392" font-family="Helvetica,sans-Serif" font-size="10.00">particle_in_domain</text>
</a>
</g>
</g>
<!-- Node1&#45;&gt;Node2 -->
<g id="edge1_Node000001_Node000002" class="edge">
<title>Node1&#45;&gt;Node2</title>
<g id="a_edge1_Node000001_Node000002"><a xlink:title=" ">
<path fill="none" stroke="#63b8ff" d="M65.73,-253.36C75.97,-278.85 107.13,-346.88 158,-375.5 207.88,-403.56 273.8,-406.1 322.02,-402.93"/>
<polygon fill="#63b8ff" stroke="#63b8ff" points="322.32,-406.41 332.03,-402.17 321.79,-399.43 322.32,-406.41"/>
</a>
</g>
</g>
<!-- Node3 -->
<g id="Node000003" class="node">
<title>Node3</title>
<g id="a_Node000003"><a xlink:href="m__bubbles__EL_8fpp_8f90.html#a6f850343922afe652e16dc6b434acc23" target="_top" xlink:title="The purpose of this procedure is to obtain the information of the bubbles when starting fresh.">
<polygon fill="white" stroke="#666666" points="268.5,-290 179.5,-290 179.5,-271 268.5,-271 268.5,-290"/>
<text text-anchor="middle" x="224" y="-278" font-family="Helvetica,sans-Serif" font-size="10.00">s_add_bubbles</text>
</a>
</g>
</g>
<!-- Node1&#45;&gt;Node3 -->
<g id="edge3_Node000001_Node000003" class="edge">
<title>Node1&#45;&gt;Node3</title>
<g id="a_edge3_Node000001_Node000003"><a xlink:title=" ">
<path fill="none" stroke="#63b8ff" d="M103.46,-253.03C124.23,-257.8 149.56,-263.62 171.56,-268.68"/>
<polygon fill="#63b8ff" stroke="#63b8ff" points="170.87,-272.11 181.4,-270.94 172.44,-265.29 170.87,-272.11"/>
</a>
</g>
</g>
<!-- Node9 -->
<g id="Node000009" class="node">
<title>Node9</title>
<g id="a_Node000009"><a xlink:href="m__mpi__common_8fpp_8f90.html#adbcc47e90968ff0f14ccc2ca3c47586a" target="_top" xlink:title="The subroutine terminates the MPI execution environment.">
<polygon fill="white" stroke="#666666" points="426,-365 349,-365 349,-346 426,-346 426,-365"/>
<text text-anchor="middle" x="387.5" y="-353" font-family="Helvetica,sans-Serif" font-size="10.00">s_mpi_abort</text>
</a>
</g>
</g>
<!-- Node1&#45;&gt;Node9 -->
<g id="edge11_Node000001_Node000009" class="edge">
<title>Node1&#45;&gt;Node9</title>
<g id="a_edge11_Node000001_Node000009"><a xlink:title=" ">
<path fill="none" stroke="#63b8ff" d="M75.66,-253.18C93.71,-265.57 126.87,-286.92 158,-299.5 218.15,-323.82 291.63,-339.52 338.74,-347.93"/>
<polygon fill="#63b8ff" stroke="#63b8ff" points="338.21,-351.39 348.67,-349.67 339.42,-344.5 338.21,-351.39"/>
</a>
</g>
</g>
<!-- Node11 -->
<g id="Node000011" class="node">
<title>Node11</title>
<g id="a_Node000011"><a xlink:href="m__bubbles__EL_8fpp_8f90.html#a76e7189b6009a29beab1045b414f91e7" target="_top" xlink:title="The purpose of this procedure is to obtain the information of the bubbles from a restart point.">
<polygon fill="white" stroke="#666666" points="275.5,-366 172.5,-366 172.5,-347 275.5,-347 275.5,-366"/>
<text text-anchor="middle" x="224" y="-354" font-family="Helvetica,sans-Serif" font-size="10.00">s_restart_bubbles</text>
</a>
</g>
</g>
<!-- Node1&#45;&gt;Node11 -->
<g id="edge12_Node000001_Node000011" class="edge">
<title>Node1&#45;&gt;Node11</title>
<g id="a_edge12_Node000001_Node000011"><a xlink:title=" ">
<path fill="none" stroke="#63b8ff" d="M70.03,-253.13C85.41,-271.02 120.81,-309.67 158,-332.5 164.78,-336.66 172.39,-340.27 179.95,-343.34"/>
<polygon fill="#63b8ff" stroke="#63b8ff" points="178.84,-346.66 189.43,-346.94 181.32,-340.12 178.84,-346.66"/>
</a>
</g>
</g>
<!-- Node12 -->
<g id="Node000012" class="node">
<title>Node12</title>
<g id="a_Node000012"><a xlink:href="m__bubbles__EL_8fpp_8f90.html#abc8a45ea57e9cc6e620f069aa5bb90e7" target="_top" xlink:title="The purpose of this subroutine is to smear the effect of the bubbles in the Eulerian framework.">
<polygon fill="white" stroke="#666666" points="285,-253 163,-253 163,-234 285,-234 285,-253"/>
<text text-anchor="middle" x="224" y="-241" font-family="Helvetica,sans-Serif" font-size="10.00">s_smear_voidfraction</text>
</a>
</g>
</g>
<!-- Node1&#45;&gt;Node12 -->
<g id="edge16_Node000001_Node000012" class="edge">
<title>Node1&#45;&gt;Node12</title>
<g id="a_edge16_Node000001_Node000012"><a xlink:title=" ">
<path fill="none" stroke="#63b8ff" d="M122.41,-243.5C132.31,-243.5 142.65,-243.5 152.77,-243.5"/>
<polygon fill="#63b8ff" stroke="#63b8ff" points="152.79,-247 162.79,-243.5 152.79,-240 152.79,-247"/>
</a>
</g>
</g>
<!-- Node21 -->
<g id="Node000021" class="node">
<title>Node21</title>
<g id="a_Node000021"><a xlink:href="m__bubbles__EL_8fpp_8f90.html#a8ccb43b47efb2a66f50c211613bd2d2b" target="_top" xlink:title="This subroutine transfer data into the temporal variables.">
<polygon fill="white" stroke="#666666" points="290,-216 158,-216 158,-197 290,-197 290,-216"/>
<text text-anchor="middle" x="224" y="-204" font-family="Helvetica,sans-Serif" font-size="10.00">s_transfer_data_to_tmp</text>
</a>
</g>
</g>
<!-- Node1&#45;&gt;Node21 -->
<g id="edge26_Node000001_Node000021" class="edge">
<title>Node1&#45;&gt;Node21</title>
<g id="a_edge26_Node000001_Node000021"><a xlink:title=" ">
<path fill="none" stroke="#63b8ff" d="M103.46,-233.97C124.23,-229.2 149.56,-223.38 171.56,-218.32"/>
<polygon fill="#63b8ff" stroke="#63b8ff" points="172.44,-221.71 181.4,-216.06 170.87,-214.89 172.44,-221.71"/>
</a>
</g>
</g>
<!-- Node22 -->
<g id="Node000022" class="node">
<title>Node22</title>
<g id="a_Node000022"><a xlink:href="m__bubbles__EL_8fpp_8f90.html#a8ef73dc2ace3576cb3237c4ababe29da" target="_top" xlink:title="Subroutine that writes on each time step the changes of the lagrangian bubbles.">
<polygon fill="white" stroke="#666666" points="283.5,-179 164.5,-179 164.5,-160 283.5,-160 283.5,-179"/>
<text text-anchor="middle" x="224" y="-167" font-family="Helvetica,sans-Serif" font-size="10.00">s_write_lag_particles</text>
</a>
</g>
</g>
<!-- Node1&#45;&gt;Node22 -->
<g id="edge27_Node000001_Node000022" class="edge">
<title>Node1&#45;&gt;Node22</title>
<g id="a_edge27_Node000001_Node000022"><a xlink:title=" ">
<path fill="none" stroke="#63b8ff" d="M76.41,-233.8C94.71,-221.82 127.6,-201.44 158,-188.5 163.41,-186.2 169.18,-184.07 174.97,-182.14"/>
<polygon fill="#63b8ff" stroke="#63b8ff" points="176.18,-185.43 184.66,-179.08 174.07,-178.75 176.18,-185.43"/>
</a>
</g>
</g>
<!-- Node23 -->
<g id="Node000023" class="node">
<title>Node23</title>
<g id="a_Node000023"><a xlink:href="m__bubbles__EL_8fpp_8f90.html#af157c7f2796cf73a836756b4fbb6f421" target="_top" xlink:title="Subroutine that writes the restarting files for the particles in the lagrangian solver.">
<polygon fill="white" stroke="#666666" points="279,-141.5 169,-141.5 169,-111.5 279,-111.5 279,-141.5"/>
<text text-anchor="start" x="177" y="-129.5" font-family="Helvetica,sans-Serif" font-size="10.00">s_write_restart_lag</text>
<text text-anchor="middle" x="224" y="-118.5" font-family="Helvetica,sans-Serif" font-size="10.00">_bubbles</text>
</a>
</g>
</g>
<!-- Node1&#45;&gt;Node23 -->
<g id="edge28_Node000001_Node000023" class="edge">
<title>Node1&#45;&gt;Node23</title>
<g id="a_edge28_Node000001_Node000023"><a xlink:title=" ">
<path fill="none" stroke="#63b8ff" d="M69.75,-233.87C84.92,-215.54 120.39,-175.38 158,-151.5 161.09,-149.54 164.36,-147.69 167.72,-145.96"/>
<polygon fill="#63b8ff" stroke="#63b8ff" points="169.26,-149.1 176.78,-141.64 166.25,-142.78 169.26,-149.1"/>
</a>
</g>
</g>
<!-- Node25 -->
<g id="Node000025" class="node">
<title>Node25</title>
<g id="a_Node000025"><a xlink:href="m__bubbles__EL_8fpp_8f90.html#a82ac53d14e7909cec109938ddb1eeefb" target="_top" xlink:title="Subroutine that writes some useful statistics related to the volume fraction of the particles (void f...">
<polygon fill="white" stroke="#666666" points="276,-75 172,-75 172,-56 276,-56 276,-75"/>
<text text-anchor="middle" x="224" y="-63" font-family="Helvetica,sans-Serif" font-size="10.00">s_write_void_evol</text>
</a>
</g>
</g>
<!-- Node1&#45;&gt;Node25 -->
<g id="edge31_Node000001_Node000025" class="edge">
<title>Node1&#45;&gt;Node25</title>
<g id="a_edge31_Node000001_Node000025"><a xlink:title=" ">
<path fill="none" stroke="#63b8ff" d="M66.6,-233.84C78.66,-209.32 113.38,-143.67 158,-102.5 167.77,-93.49 180.11,-85.77 191.41,-79.75"/>
<polygon fill="#63b8ff" stroke="#63b8ff" points="193.25,-82.74 200.58,-75.1 190.08,-76.5 193.25,-82.74"/>
</a>
</g>
</g>
<!-- Node2&#45;&gt;Node2 -->
<g id="edge2_Node000002_Node000002" class="edge">
<title>Node2&#45;&gt;Node2</title>
<g id="a_edge2_Node000002_Node000002"><a xlink:title=" ">
<path fill="none" stroke="#63b8ff" d="M362.53,-404.08C350.38,-412.73 358.71,-422 387.5,-422 406.4,-422 416.48,-418.01 417.74,-412.82"/>
<polygon fill="#63b8ff" stroke="#63b8ff" points="420.63,-410.84 412.47,-404.08 414.64,-414.45 420.63,-410.84"/>
</a>
</g>
</g>
<!-- Node4 -->
<g id="Node000004" class="node">
<title>Node4</title>
<g id="a_Node000004"><a xlink:href="m__variables__conversion_8fpp_8f90.html#ab8bdf7610d49d294015daa441faabc01" target="_top" xlink:title="Dispatch to the s_convert_mixture_to_mixture_variables and s_convert_species_to_mixture_variables sub...">
<polygon fill="white" stroke="#666666" points="448.5,-253.5 326.5,-253.5 326.5,-223.5 448.5,-223.5 448.5,-253.5"/>
<text text-anchor="start" x="334.5" y="-241.5" font-family="Helvetica,sans-Serif" font-size="10.00">s_convert_to_mixture</text>
<text text-anchor="middle" x="387.5" y="-230.5" font-family="Helvetica,sans-Serif" font-size="10.00">_variables</text>
</a>
</g>
</g>
<!-- Node3&#45;&gt;Node4 -->
<g id="edge4_Node000003_Node000004" class="edge">
<title>Node3&#45;&gt;Node4</title>
<g id="a_edge4_Node000003_Node000004"><a xlink:title=" ">
<path fill="none" stroke="#63b8ff" d="M261.65,-270.97C278.6,-266.56 299.31,-261.18 318.94,-256.07"/>
<polygon fill="#63b8ff" stroke="#63b8ff" points="319.98,-259.42 328.77,-253.51 318.21,-252.64 319.98,-259.42"/>
</a>
</g>
</g>
<!-- Node8 -->
<g id="Node000008" class="node">
<title>Node8</title>
<g id="a_Node000008"><a xlink:href="m__bubbles__EL_8fpp_8f90.html#aea41610ffd915dc0052d0cb708471a5d" target="_top" xlink:title="This subroutine returns the computational coordinate of the cell for the given position.">
<polygon fill="white" stroke="#666666" points="427.5,-328 347.5,-328 347.5,-309 427.5,-309 427.5,-328"/>
<text text-anchor="middle" x="387.5" y="-316" font-family="Helvetica,sans-Serif" font-size="10.00">s_locate_cell</text>
</a>
</g>
</g>
<!-- Node3&#45;&gt;Node8 -->
<g id="edge8_Node000003_Node000008" class="edge">
<title>Node3&#45;&gt;Node8</title>
<g id="a_edge8_Node000003_Node000008"><a xlink:title=" ">
<path fill="none" stroke="#63b8ff" d="M265.75,-290.09C287.57,-295.22 314.59,-301.58 337.54,-306.98"/>
<polygon fill="#63b8ff" stroke="#63b8ff" points="336.9,-310.42 347.43,-309.31 338.5,-303.61 336.9,-310.42"/>
</a>
</g>
</g>
<!-- Node3&#45;&gt;Node9 -->
<g id="edge9_Node000003_Node000009" class="edge">
<title>Node3&#45;&gt;Node9</title>
<g id="a_edge9_Node000003_Node000009"><a xlink:title=" ">
<path fill="none" stroke="#63b8ff" d="M258.55,-290.09C269.02,-293.81 280.35,-298.61 290,-304.5 308.53,-315.8 307.12,-326.8 326,-337.5 330.19,-339.87 334.72,-341.96 339.36,-343.8"/>
<polygon fill="#63b8ff" stroke="#63b8ff" points="338.35,-347.15 348.94,-347.2 340.69,-340.56 338.35,-347.15"/>
</a>
</g>
</g>
<!-- Node10 -->
<g id="Node000010" class="node">
<title>Node10</title>
<g id="a_Node000010"><a xlink:href="m__helper_8fpp_8f90.html#ad9cf19cef5bf031720439d279cf5983c" target="_top" xlink:title="Computes the transfer coefficient for the non&#45;polytropic bubble compression process.">
<polygon fill="white" stroke="#666666" points="425.5,-291 349.5,-291 349.5,-272 425.5,-272 425.5,-291"/>
<text text-anchor="middle" x="387.5" y="-279" font-family="Helvetica,sans-Serif" font-size="10.00">s_transcoeff</text>
</a>
</g>
</g>
<!-- Node3&#45;&gt;Node10 -->
<g id="edge10_Node000003_Node000010" class="edge">
<title>Node3&#45;&gt;Node10</title>
<g id="a_edge10_Node000003_Node000010"><a xlink:title=" ">
<path fill="none" stroke="#63b8ff" d="M268.7,-280.77C290.48,-280.91 316.84,-281.07 339.1,-281.21"/>
<polygon fill="#63b8ff" stroke="#63b8ff" points="339.31,-284.71 349.33,-281.27 339.35,-277.71 339.31,-284.71"/>
</a>
</g>
</g>
<!-- Node5 -->
<g id="Node000005" class="node">
<title>Node5</title>
<g id="a_Node000005"><a xlink:href="m__variables__conversion_8fpp_8f90.html#a3bd84edd74cf4362dae052ad315a8fb5" target="_top" xlink:title="This subroutine is designed for the gamma/pi_inf model and provided a set of either conservative or p...">
<polygon fill="white" stroke="#666666" points="623,-345.5 501,-345.5 501,-315.5 623,-315.5 623,-345.5"/>
<text text-anchor="start" x="509" y="-333.5" font-family="Helvetica,sans-Serif" font-size="10.00">s_convert_mixture_to</text>
<text text-anchor="middle" x="562" y="-322.5" font-family="Helvetica,sans-Serif" font-size="10.00">_mixture_variables</text>
</a>
</g>
</g>
<!-- Node4&#45;&gt;Node5 -->
<g id="edge5_Node000004_Node000005" class="edge">
<title>Node4&#45;&gt;Node5</title>
<g id="a_edge5_Node000004_Node000005"><a xlink:title=" ">
<path fill="none" stroke="#63b8ff" d="M432.18,-253.54C438.09,-256.42 443.87,-259.74 449,-263.5 469.1,-278.24 464.29,-292.64 485,-306.5 487.29,-308.03 489.69,-309.48 492.16,-310.83"/>
<polygon fill="#63b8ff" stroke="#63b8ff" points="490.85,-314.09 501.37,-315.35 493.94,-307.8 490.85,-314.09"/>
</a>
</g>
</g>
<!-- Node6 -->
<g id="Node000006" class="node">
<title>Node6</title>
<g id="a_Node000006"><a xlink:href="m__variables__conversion_8fpp_8f90.html#ac9e3787fd3c00962752030f2c218c3fc" target="_top" xlink:title="This subroutine is designed for the volume fraction model and provided a set of either conservative o...">
<polygon fill="white" stroke="#666666" points="622.5,-297.5 501.5,-297.5 501.5,-267.5 622.5,-267.5 622.5,-297.5"/>
<text text-anchor="start" x="509.5" y="-285.5" font-family="Helvetica,sans-Serif" font-size="10.00">s_convert_species_to</text>
<text text-anchor="middle" x="562" y="-274.5" font-family="Helvetica,sans-Serif" font-size="10.00">_mixture_variables</text>
</a>
</g>
</g>
<!-- Node4&#45;&gt;Node6 -->
<g id="edge6_Node000004_Node000006" class="edge">
<title>Node4&#45;&gt;Node6</title>
<g id="a_edge6_Node000004_Node000006"><a xlink:title=" ">
<path fill="none" stroke="#63b8ff" d="M447.38,-253.52C461.74,-257.18 477.22,-261.13 491.99,-264.9"/>
<polygon fill="#63b8ff" stroke="#63b8ff" points="491.54,-268.39 502.09,-267.47 493.27,-261.61 491.54,-268.39"/>
</a>
</g>
</g>
<!-- Node7 -->
<g id="Node000007" class="node">
<title>Node7</title>
<g id="a_Node000007"><a xlink:href="m__variables__conversion_8fpp_8f90.html#a4cf5a7b61d1b5ced4619c018ced0e654" target="_top" xlink:title="This procedure is used alongside with the gamma/pi_inf model to transfer the density,...">
<polygon fill="white" stroke="#666666" points="639,-249.5 485,-249.5 485,-219.5 639,-219.5 639,-249.5"/>
<text text-anchor="start" x="493" y="-237.5" font-family="Helvetica,sans-Serif" font-size="10.00">s_convert_species_to</text>
<text text-anchor="middle" x="562" y="-226.5" font-family="Helvetica,sans-Serif" font-size="10.00">_mixture_variables_bubbles</text>
</a>
</g>
</g>
<!-- Node4&#45;&gt;Node7 -->
<g id="edge7_Node000004_Node000007" class="edge">
<title>Node4&#45;&gt;Node7</title>
<g id="a_edge7_Node000004_Node000007"><a xlink:title=" ">
<path fill="none" stroke="#63b8ff" d="M448.83,-237.1C457.21,-236.91 465.95,-236.7 474.69,-236.5"/>
<polygon fill="#63b8ff" stroke="#63b8ff" points="475.01,-239.99 484.93,-236.26 474.85,-233 475.01,-239.99"/>
</a>
</g>
</g>
<!-- Node11&#45;&gt;Node2 -->
<g id="edge13_Node000011_Node000002" class="edge">
<title>Node11&#45;&gt;Node2</title>
<g id="a_edge13_Node000011_Node000002"><a xlink:title=" ">
<path fill="none" stroke="#63b8ff" d="M265.75,-366.09C287.16,-371.13 313.59,-377.34 336.25,-382.68"/>
<polygon fill="#63b8ff" stroke="#63b8ff" points="335.5,-386.1 346.04,-384.98 337.11,-379.28 335.5,-386.1"/>
</a>
</g>
</g>
<!-- Node11&#45;&gt;Node8 -->
<g id="edge14_Node000011_Node000008" class="edge">
<title>Node11&#45;&gt;Node8</title>
<g id="a_edge14_Node000011_Node000008"><a xlink:title=" ">
<path fill="none" stroke="#63b8ff" d="M265.75,-346.91C287.57,-341.78 314.59,-335.42 337.54,-330.02"/>
<polygon fill="#63b8ff" stroke="#63b8ff" points="338.5,-333.39 347.43,-327.69 336.9,-326.58 338.5,-333.39"/>
</a>
</g>
</g>
<!-- Node11&#45;&gt;Node9 -->
<g id="edge15_Node000011_Node000009" class="edge">
<title>Node11&#45;&gt;Node9</title>
<g id="a_edge15_Node000011_Node000009"><a xlink:title=" ">
<path fill="none" stroke="#63b8ff" d="M275.66,-356.19C295.82,-356.06 318.91,-355.92 338.78,-355.8"/>
<polygon fill="#63b8ff" stroke="#63b8ff" points="338.86,-359.3 348.84,-355.73 338.82,-352.3 338.86,-359.3"/>
</a>
</g>
</g>
<!-- Node13 -->
<g id="Node000013" class="node">
<title>Node13</title>
<g id="a_Node000013"><a xlink:href="m__bubbles__EL__kernels_8fpp_8f90.html#a0be43bc79c64f70548ce4039c14d87d4" target="_top" xlink:title="The purpose of this subroutine is to smear the strength of the lagrangian bubbles into the Eulerian f...">
<polygon fill="white" stroke="#666666" points="439.5,-201 335.5,-201 335.5,-182 439.5,-182 439.5,-201"/>
<text text-anchor="middle" x="387.5" y="-189" font-family="Helvetica,sans-Serif" font-size="10.00">s_smoothfunction</text>
</a>
</g>
</g>
<!-- Node12&#45;&gt;Node13 -->
<g id="edge17_Node000012_Node000013" class="edge">
<title>Node12&#45;&gt;Node13</title>
<g id="a_edge17_Node000012_Node000013"><a xlink:title=" ">
<path fill="none" stroke="#63b8ff" d="M261.23,-233.94C270.64,-231.33 280.73,-228.41 290,-225.5 310.45,-219.08 333.06,-211.15 351.25,-204.57"/>
<polygon fill="#63b8ff" stroke="#63b8ff" points="352.66,-207.79 360.86,-201.07 350.26,-201.21 352.66,-207.79"/>
</a>
</g>
</g>
<!-- Node14 -->
<g id="Node000014" class="node">
<title>Node14</title>
<g id="a_Node000014"><a xlink:href="m__bubbles__EL__kernels_8fpp_8f90.html#a822e5374cc0b050610301f636ccda860" target="_top" xlink:title="The purpose of this procedure contains the algorithm to use the delta kernel function to map the effe...">
<polygon fill="white" stroke="#666666" points="598.5,-164 525.5,-164 525.5,-145 598.5,-145 598.5,-164"/>
<text text-anchor="middle" x="562" y="-152" font-family="Helvetica,sans-Serif" font-size="10.00">s_deltafunc</text>
</a>
</g>
</g>
<!-- Node13&#45;&gt;Node14 -->
<g id="edge18_Node000013_Node000014" class="edge">
<title>Node13&#45;&gt;Node14</title>
<g id="a_edge18_Node000013_Node000014"><a xlink:title=" ">
<path fill="none" stroke="#63b8ff" d="M432.92,-181.97C458.3,-176.53 490.06,-169.72 515.6,-164.24"/>
<polygon fill="#63b8ff" stroke="#63b8ff" points="516.37,-167.65 525.41,-162.13 514.9,-160.81 516.37,-167.65"/>
</a>
</g>
</g>
<!-- Node16 -->
<g id="Node000016" class="node">
<title>Node16</title>
<g id="a_Node000016"><a xlink:href="m__bubbles__EL__kernels_8fpp_8f90.html#ac7eec37d4233f840c98c3f9579198caa" target="_top" xlink:title="The purpose of this procedure contains the algorithm to use the gaussian kernel function to map the e...">
<polygon fill="white" stroke="#666666" points="597.5,-201 526.5,-201 526.5,-182 597.5,-182 597.5,-201"/>
<text text-anchor="middle" x="562" y="-189" font-family="Helvetica,sans-Serif" font-size="10.00">s_gaussian</text>
</a>
</g>
</g>
<!-- Node13&#45;&gt;Node16 -->
<g id="edge20_Node000013_Node000016" class="edge">
<title>Node13&#45;&gt;Node16</title>
<g id="a_edge20_Node000013_Node000016"><a xlink:title=" ">
<path fill="none" stroke="#63b8ff" d="M439.79,-191.5C464.1,-191.5 492.87,-191.5 516.28,-191.5"/>
<polygon fill="#63b8ff" stroke="#63b8ff" points="516.29,-195 526.29,-191.5 516.29,-188 516.29,-195"/>
</a>
</g>
</g>
<!-- Node15 -->
<g id="Node000015" class="node">
<title>Node15</title>
<g id="a_Node000015"><a xlink:href="m__bubbles__EL__kernels_8fpp_8f90.html#ab19526190d79709113ae6c0f9c2f2bfa" target="_top" xlink:title="This subroutine transforms the computational coordinates of the bubble from real type into integer.">
<polygon fill="white" stroke="#666666" points="780,-146 715,-146 715,-127 780,-127 780,-146"/>
<text text-anchor="middle" x="747.5" y="-134" font-family="Helvetica,sans-Serif" font-size="10.00">s_get_cell</text>
</a>
</g>
</g>
<!-- Node14&#45;&gt;Node15 -->
<g id="edge19_Node000014_Node000015" class="edge">
<title>Node14&#45;&gt;Node15</title>
<g id="a_edge19_Node000014_Node000015"><a xlink:title=" ">
<path fill="none" stroke="#63b8ff" d="M598.82,-150.99C629.08,-148.02 672.48,-143.76 704.41,-140.63"/>
<polygon fill="#63b8ff" stroke="#63b8ff" points="705.15,-144.07 714.76,-139.61 704.46,-137.11 705.15,-144.07"/>
</a>
</g>
</g>
<!-- Node16&#45;&gt;Node15 -->
<g id="edge24_Node000016_Node000015" class="edge">
<title>Node16&#45;&gt;Node15</title>
<g id="a_edge24_Node000016_Node000015"><a xlink:title=" ">
<path fill="none" stroke="#63b8ff" d="M597.54,-185.09C610.72,-182.18 625.74,-178.31 639,-173.5 655.82,-167.4 658.27,-161.83 675,-155.5 684.55,-151.89 695.06,-148.69 705.02,-145.99"/>
<polygon fill="#63b8ff" stroke="#63b8ff" points="705.94,-149.37 714.74,-143.46 704.18,-142.59 705.94,-149.37"/>
</a>
</g>
</g>
<!-- Node17 -->
<g id="Node000017" class="node">
<title>Node17</title>
<g id="a_Node000017"><a xlink:href="m__bubbles__EL__kernels_8fpp_8f90.html#a4086faf148ac333c92f855a32e08005f" target="_top" xlink:title="The purpose of this subroutine is to apply the gaussian kernel function for each bubble (Maeda and Co...">
<polygon fill="white" stroke="#666666" points="796.5,-220 698.5,-220 698.5,-201 796.5,-201 796.5,-220"/>
<text text-anchor="middle" x="747.5" y="-208" font-family="Helvetica,sans-Serif" font-size="10.00">s_applygaussian</text>
</a>
</g>
</g>
<!-- Node16&#45;&gt;Node17 -->
<g id="edge21_Node000016_Node000017" class="edge">
<title>Node16&#45;&gt;Node17</title>
<g id="a_edge21_Node000016_Node000017"><a xlink:title=" ">
<path fill="none" stroke="#63b8ff" d="M597.51,-195.07C622.96,-197.71 658.19,-201.36 688,-204.44"/>
<polygon fill="#63b8ff" stroke="#63b8ff" points="687.98,-207.96 698.29,-205.51 688.7,-201 687.98,-207.96"/>
</a>
</g>
</g>
<!-- Node18 -->
<g id="Node000018" class="node">
<title>Node18</title>
<g id="a_Node000018"><a xlink:href="m__bubbles__EL__kernels_8fpp_8f90.html#aa1e8faf84dd9d5db20321a04c5fea671" target="_top" xlink:title="The purpose of this subroutine is to check if the current cell is outside the computational domain or...">
<polygon fill="white" stroke="#666666" points="804.5,-183 690.5,-183 690.5,-164 804.5,-164 804.5,-183"/>
<text text-anchor="middle" x="747.5" y="-171" font-family="Helvetica,sans-Serif" font-size="10.00">s_check_celloutside</text>
</a>
</g>
</g>
<!-- Node16&#45;&gt;Node18 -->
<g id="edge22_Node000016_Node000018" class="edge">
<title>Node16&#45;&gt;Node18</title>
<g id="a_edge22_Node000016_Node000018"><a xlink:title=" ">
<path fill="none" stroke="#63b8ff" d="M597.51,-188.11C620.72,-185.84 652.07,-182.76 680.02,-180.02"/>
<polygon fill="#63b8ff" stroke="#63b8ff" points="680.53,-183.49 690.14,-179.03 679.85,-176.52 680.53,-183.49"/>
</a>
</g>
</g>
<!-- Node19 -->
<g id="Node000019" class="node">
<title>Node19</title>
<g id="a_Node000019"><a xlink:href="m__bubbles__EL__kernels_8fpp_8f90.html#ae515b8ce4b2d41f97b09580305d05232" target="_top" xlink:title="Calculates the standard deviation of the bubble being smeared in the Eulerian framework.">
<polygon fill="white" stroke="#666666" points="801,-294 694,-294 694,-275 801,-275 801,-294"/>
<text text-anchor="middle" x="747.5" y="-282" font-family="Helvetica,sans-Serif" font-size="10.00">s_compute_stddsv</text>
</a>
</g>
</g>
<!-- Node16&#45;&gt;Node19 -->
<g id="edge23_Node000016_Node000019" class="edge">
<title>Node16&#45;&gt;Node19</title>
<g id="a_edge23_Node000016_Node000019"><a xlink:title=" ">
<path fill="none" stroke="#63b8ff" d="M597.87,-194.62C611.67,-197.22 627.06,-201.94 639,-210.5 663.04,-227.75 650.97,-249.24 675,-266.5 677.89,-268.58 681.01,-270.42 684.25,-272.05"/>
<polygon fill="#63b8ff" stroke="#63b8ff" points="683.12,-275.37 693.69,-276.1 685.88,-268.94 683.12,-275.37"/>
</a>
</g>
</g>
<!-- Node20 -->
<g id="Node000020" class="node">
<title>Node20</title>
<g id="a_Node000020"><a xlink:href="m__bubbles__EL__kernels_8fpp_8f90.html#a9bcebbf87b1a300f0e46d76cbfa1f48f" target="_top" xlink:title="This subroutine relocates the current cell, if it intersects a symmetric boundary.">
<polygon fill="white" stroke="#666666" points="820,-257 675,-257 675,-238 820,-238 820,-257"/>
<text text-anchor="middle" x="747.5" y="-245" font-family="Helvetica,sans-Serif" font-size="10.00">s_shift_cell_symmetric_bc</text>
</a>
</g>
</g>
<!-- Node16&#45;&gt;Node20 -->
<g id="edge25_Node000016_Node000020" class="edge">
<title>Node16&#45;&gt;Node20</title>
<g id="a_edge25_Node000016_Node000020"><a xlink:title=" ">
<path fill="none" stroke="#63b8ff" d="M597.59,-198.3C610.77,-201.36 625.79,-205.45 639,-210.5 655.9,-216.96 658.11,-223.02 675,-229.5 680.44,-231.58 686.2,-233.5 692,-235.23"/>
<polygon fill="#63b8ff" stroke="#63b8ff" points="691.17,-238.63 701.74,-237.98 693.07,-231.9 691.17,-238.63"/>
</a>
</g>
</g>
<!-- Node24 -->
<g id="Node000024" class="node">
<title>Node24</title>
<g id="a_Node000024"><a xlink:href="m__bubbles__EL_8fpp_8f90.html#a976df9a876d86b3f6b60c94c9b3e4eb9" target="_top" xlink:title="The purpose of this procedure is to determine if the lagrangian bubble is located in the physical dom...">
<polygon fill="white" stroke="#666666" points="442.5,-141.5 332.5,-141.5 332.5,-111.5 442.5,-111.5 442.5,-141.5"/>
<text text-anchor="start" x="340.5" y="-129.5" font-family="Helvetica,sans-Serif" font-size="10.00">particle_in_domain</text>
<text text-anchor="middle" x="387.5" y="-118.5" font-family="Helvetica,sans-Serif" font-size="10.00">_physical</text>
</a>
</g>
</g>
<!-- Node23&#45;&gt;Node24 -->
<g id="edge29_Node000023_Node000024" class="edge">
<title>Node23&#45;&gt;Node24</title>
<g id="a_edge29_Node000023_Node000024"><a xlink:title=" ">
<path fill="none" stroke="#63b8ff" d="M279.23,-126.5C293.02,-126.5 307.97,-126.5 322.2,-126.5"/>
<polygon fill="#63b8ff" stroke="#63b8ff" points="322.42,-130 332.42,-126.5 322.42,-123 322.42,-130"/>
</a>
</g>
</g>
<!-- Node24&#45;&gt;Node24 -->
<g id="edge30_Node000024_Node000024" class="edge">
<title>Node24&#45;&gt;Node24</title>
<g id="a_edge30_Node000024_Node000024"><a xlink:title=" ">
<path fill="none" stroke="#63b8ff" d="M359.02,-141.78C352.7,-150.91 362.19,-159.5 387.5,-159.5 402.53,-159.5 411.98,-156.47 415.86,-152.1"/>
<polygon fill="#63b8ff" stroke="#63b8ff" points="419.36,-151.82 415.98,-141.78 412.36,-151.73 419.36,-151.82"/>
</a>
</g>
</g>
<!-- Node26 -->
<g id="Node000026" class="node">
<title>Node26</title>
<g id="a_Node000026"><a xlink:href="m__bubbles__EL__kernels_8fpp_8f90.html#a815addfa0ae4ae19d4dfd09479c0c2a8" target="_top" xlink:title="The purpose of this procedure is to calculate the characteristic cell volume.">
<polygon fill="white" stroke="#666666" points="432,-93 343,-93 343,-74 432,-74 432,-93"/>
<text text-anchor="middle" x="387.5" y="-81" font-family="Helvetica,sans-Serif" font-size="10.00">s_get_char_vol</text>
</a>
</g>
</g>
<!-- Node25&#45;&gt;Node26 -->
<g id="edge32_Node000025_Node000026" class="edge">
<title>Node25&#45;&gt;Node26</title>
<g id="a_edge32_Node000025_Node000026"><a xlink:title=" ">
<path fill="none" stroke="#63b8ff" d="M276.1,-71.2C294.11,-73.2 314.4,-75.46 332.62,-77.5"/>
<polygon fill="#63b8ff" stroke="#63b8ff" points="332.47,-81 342.8,-78.63 333.25,-74.04 332.47,-81"/>
</a>
</g>
</g>
<!-- Node27 -->
<g id="Node000027" class="node">
<title>Node27</title>
<g id="a_Node000027"><a xlink:href="m__mpi__common_8fpp_8f90.html#ac7a601dc8cf73abc6bd46a467cbb8c67" target="_top" xlink:title="The following subroutine takes the input local variable from all processors and reduces to the maximu...">
<polygon fill="white" stroke="#666666" points="449,-56 326,-56 326,-37 449,-37 449,-56"/>
<text text-anchor="middle" x="387.5" y="-44" font-family="Helvetica,sans-Serif" font-size="10.00">s_mpi_allreduce_max</text>
</a>
</g>
</g>
<!-- Node25&#45;&gt;Node27 -->
<g id="edge33_Node000025_Node000027" class="edge">
<title>Node25&#45;&gt;Node27</title>
<g id="a_edge33_Node000025_Node000027"><a xlink:title=" ">
<path fill="none" stroke="#63b8ff" d="M276.1,-59.49C288.69,-58.01 302.4,-56.39 315.74,-54.82"/>
<polygon fill="#63b8ff" stroke="#63b8ff" points="316.32,-58.28 325.85,-53.64 315.51,-51.33 316.32,-58.28"/>
</a>
</g>
</g>
<!-- Node28 -->
<g id="Node000028" class="node">
<title>Node28</title>
<g id="a_Node000028"><a xlink:href="m__mpi__common_8fpp_8f90.html#a24ed3fee63870f02c535e9a137e12291" target="_top" xlink:title="The following subroutine takes the input local variable from all processors and reduces to the sum of...">
<polygon fill="white" stroke="#666666" points="448.5,-19 326.5,-19 326.5,0 448.5,0 448.5,-19"/>
<text text-anchor="middle" x="387.5" y="-7" font-family="Helvetica,sans-Serif" font-size="10.00">s_mpi_allreduce_sum</text>
</a>
</g>
</g>
<!-- Node25&#45;&gt;Node28 -->
<g id="edge34_Node000025_Node000028" class="edge">
<title>Node25&#45;&gt;Node28</title>
<g id="a_edge34_Node000025_Node000028"><a xlink:title=" ">
<path fill="none" stroke="#63b8ff" d="M248.91,-55.96C269.27,-47.97 299.36,-36.46 326,-27.5 331.52,-25.64 337.36,-23.78 343.15,-21.99"/>
<polygon fill="#63b8ff" stroke="#63b8ff" points="344.21,-25.33 352.77,-19.08 342.18,-18.63 344.21,-25.33"/>
</a>
</g>
</g>
</g>
</svg>

<g id="navigator" transform="translate(0 0)" fill="#404254">
  <rect fill="#f2f5e9" fill-opacity="0.5" stroke="#606060" stroke-width=".5" x="0" y="0" width="60" height="60"/>
  <use id="zoomplus" xlink:href="#zoomPlus" x="17" y="9" onmousedown="handleZoom(evt,'in')"/>
  <use id="zoomminus" xlink:href="#zoomMin" x="42" y="9" onmousedown="handleZoom(evt,'out')"/>
  <use id="reset" xlink:href="#resetDef" x="30" y="36" onmousedown="handleReset()"/>
   <use id="arrowup" xlink:href="#arrowUp" x="0" y="0" onmousedown="handlePan(0,-1)"/>
  <use id="arrowright" xlink:href="#arrowRight" x="0" y="0" onmousedown="handlePan(1,0)"/>
  <use id="arrowdown" xlink:href="#arrowDown" x="0" y="0" onmousedown="handlePan(0,1)"/>
  <use id="arrowleft" xlink:href="#arrowLeft" x="0" y="0" onmousedown="handlePan(-1,0)"/>
</g>
<svg viewBox="0 0 15 15" width="100%" height="30px" preserveAspectRatio="xMaxYMin meet">
 <g id="arrow_out" transform="scale(0.3 0.3)">
  <a xlink:href="m__bubbles__EL_8fpp_8f90_ae9c61f97e265490256edc6fbb5ff18ba_cgraph_org.svg" target="_base">
   <rect id="button" ry="5" rx="5" y="6" x="6" height="38" width="38"
        fill="#f2f5e9" fill-opacity="0.5" stroke="#606060" stroke-width="1.0"/>
   <path id="arrow"
     d="M 11.500037,31.436501 C 11.940474,20.09759 22.043105,11.32322 32.158766,21.979434 L 37.068811,17.246167 C 37.068811,17.246167 37.088388,32 37.088388,32 L 22.160133,31.978069 C 22.160133,31.978069 26.997745,27.140456 26.997745,27.140456 C 18.528582,18.264221 13.291696,25.230495 11.500037,31.436501 z"
     style="fill:#404040;"/>
  </a>
 </g>
</svg>

<style type='text/css'>
<![CDATA[
[data-mouse-over-selected='false'] { opacity: 0.7; }
[data-mouse-over-selected='true']  { opacity: 1.0; }
]]>
</style>
<script type="application/ecmascript"><![CDATA[
document.addEventListener('DOMContentLoaded', (event) => {
  highlightEdges();
  highlightAdjacentNodes();
});
]]></script>
</svg>
