<?xml version="1.0" encoding="UTF-8" standalone="no"?>
<!DOCTYPE svg PUBLIC "-//W3C//DTD SVG 1.1//EN"
 "http://www.w3.org/Graphics/SVG/1.1/DTD/svg11.dtd">
<!-- Generated by graphviz version 2.43.0 (0)
 -->
<!-- Title: s_get_char_vol Pages: 1 -->
<svg width="1038pt" height="189pt"
 viewBox="0.00 0.00 1038.00 188.50" xmlns="http://www.w3.org/2000/svg" xmlns:xlink="http://www.w3.org/1999/xlink">
<g id="graph0" class="graph" transform="scale(1 1) rotate(0) translate(4 184.5)">
<title>s_get_char_vol</title>
<!-- Node1 -->
<g id="Node000001" class="node">
<title>Node1</title>
<g id="a_Node000001"><a xlink:title="The purpose of this procedure is to calculate the characteristic cell volume.">
<polygon fill="#999999" stroke="#666666" points="1030,-67.5 941,-67.5 941,-48.5 1030,-48.5 1030,-67.5"/>
<text text-anchor="middle" x="985.5" y="-55.5" font-family="Helvetica,sans-Serif" font-size="10.00">s_get_char_vol</text>
</a>
</g>
</g>
<!-- Node2 -->
<g id="Node000002" class="node">
<title>Node2</title>
<g id="a_Node000002"><a xlink:href="m__bubbles__EL_8fpp_8f90.html#a82ac53d14e7909cec109938ddb1eeefb" target="_top" xlink:title="Subroutine that writes some useful statistics related to the volume fraction of the particles (void f...">
<polygon fill="white" stroke="#666666" points="905,-67.5 801,-67.5 801,-48.5 905,-48.5 905,-67.5"/>
<text text-anchor="middle" x="853" y="-55.5" font-family="Helvetica,sans-Serif" font-size="10.00">s_write_void_evol</text>
</a>
</g>
</g>
<!-- Node1&#45;&gt;Node2 -->
<g id="edge1_Node000001_Node000002" class="edge">
<title>Node1&#45;&gt;Node2</title>
<g id="a_edge1_Node000001_Node000002"><a xlink:title=" ">
<path fill="none" stroke="#63b8ff" d="M930.59,-58C922.17,-58 913.5,-58 905.15,-58"/>
<polygon fill="#63b8ff" stroke="#63b8ff" points="930.68,-61.5 940.68,-58 930.68,-54.5 930.68,-61.5"/>
</a>
</g>
</g>
<!-- Node3 -->
<g id="Node000003" class="node">
<title>Node3</title>
<g id="a_Node000003"><a xlink:href="m__time__steppers_8fpp_8f90.html#ac88fae0ccfd624140b3c9caf3c7f2dd0" target="_top" xlink:title="Bubble source part in Strang operator splitting scheme.">
<polygon fill="white" stroke="#666666" points="754,-67.5 631,-67.5 631,-48.5 754,-48.5 754,-67.5"/>
<text text-anchor="middle" x="692.5" y="-55.5" font-family="Helvetica,sans-Serif" font-size="10.00">s_adaptive_dt_bubble</text>
</a>
</g>
</g>
<!-- Node2&#45;&gt;Node3 -->
<g id="edge2_Node000002_Node000003" class="edge">
<title>Node2&#45;&gt;Node3</title>
<g id="a_edge2_Node000002_Node000003"><a xlink:title=" ">
<path fill="none" stroke="#63b8ff" d="M790.62,-58C778.63,-58 766.07,-58 754.11,-58"/>
<polygon fill="#63b8ff" stroke="#63b8ff" points="790.98,-61.5 800.98,-58 790.98,-54.5 790.98,-61.5"/>
</a>
</g>
</g>
<!-- Node8 -->
<g id="Node000008" class="node">
<title>Node8</title>
<g id="a_Node000008"><a xlink:href="m__bubbles__EL_8fpp_8f90.html#ae9c61f97e265490256edc6fbb5ff18ba" target="_top" xlink:title="The purpose of this procedure is to obtain the initial bubbles&#39; information.">
<polygon fill="white" stroke="#666666" points="753.5,-27.5 631.5,-27.5 631.5,-8.5 753.5,-8.5 753.5,-27.5"/>
<text text-anchor="middle" x="692.5" y="-15.5" font-family="Helvetica,sans-Serif" font-size="10.00">s_read_input_bubbles</text>
</a>
</g>
</g>
<!-- Node2&#45;&gt;Node8 -->
<g id="edge7_Node000002_Node000008" class="edge">
<title>Node2&#45;&gt;Node8</title>
<g id="a_edge7_Node000002_Node000008"><a xlink:title=" ">
<path fill="none" stroke="#63b8ff" d="M804.3,-45.96C780.87,-40.05 753.06,-33.03 731.15,-27.5"/>
<polygon fill="#63b8ff" stroke="#63b8ff" points="803.48,-49.37 814.04,-48.42 805.2,-42.58 803.48,-49.37"/>
</a>
</g>
</g>
<!-- Node11 -->
<g id="Node000011" class="node">
<title>Node11</title>
<g id="a_Node000011"><a xlink:href="m__bubbles__EL_8fpp_8f90.html#a5c26596cc654d6a04247a85756b7a929" target="_top" xlink:title="This subroutine updates the Lagrange variables using the tvd RK time steppers. The time derivative of...">
<polygon fill="white" stroke="#666666" points="765,-123.5 620,-123.5 620,-104.5 765,-104.5 765,-123.5"/>
<text text-anchor="middle" x="692.5" y="-111.5" font-family="Helvetica,sans-Serif" font-size="10.00">s_update_lagrange_tdv_rk</text>
</a>
</g>
</g>
<!-- Node2&#45;&gt;Node11 -->
<g id="edge12_Node000002_Node000011" class="edge">
<title>Node2&#45;&gt;Node11</title>
<g id="a_edge12_Node000002_Node000011"><a xlink:title=" ">
<path fill="none" stroke="#63b8ff" d="M814.99,-71.08C786.01,-81.31 746.4,-95.31 720.39,-104.5"/>
<polygon fill="#63b8ff" stroke="#63b8ff" points="816.49,-74.26 824.75,-67.63 814.16,-67.66 816.49,-74.26"/>
</a>
</g>
</g>
<!-- Node4 -->
<g id="Node000004" class="node">
<title>Node4</title>
<g id="a_Node000004"><a xlink:href="m__time__steppers_8fpp_8f90.html#a5858523edfce42df32b2b0a8af54bc0e" target="_top" xlink:title="Strang splitting scheme with 3rd order TVD RK time&#45;stepping algorithm for the flux term and adaptive ...">
<polygon fill="white" stroke="#666666" points="432,-66.5 329,-66.5 329,-47.5 432,-47.5 432,-66.5"/>
<text text-anchor="middle" x="380.5" y="-54.5" font-family="Helvetica,sans-Serif" font-size="10.00">s_strang_splitting</text>
</a>
</g>
</g>
<!-- Node3&#45;&gt;Node4 -->
<g id="edge3_Node000003_Node000004" class="edge">
<title>Node3&#45;&gt;Node4</title>
<g id="a_edge3_Node000003_Node000004"><a xlink:title=" ">
<path fill="none" stroke="#63b8ff" d="M620.88,-57.77C563.33,-57.59 483.45,-57.33 432.12,-57.16"/>
<polygon fill="#63b8ff" stroke="#63b8ff" points="620.98,-61.27 630.99,-57.8 621,-54.27 620.98,-61.27"/>
</a>
</g>
</g>
<!-- Node5 -->
<g id="Node000005" class="node">
<title>Node5</title>
<g id="a_Node000005"><a xlink:href="m__start__up_8fpp_8f90.html#a1f6993aab1d2776640192c044a461640" target="_top" xlink:title=" ">
<polygon fill="white" stroke="#666666" points="290,-104.5 170,-104.5 170,-85.5 290,-85.5 290,-104.5"/>
<text text-anchor="middle" x="230" y="-92.5" font-family="Helvetica,sans-Serif" font-size="10.00">s_perform_time_step</text>
</a>
</g>
</g>
<!-- Node4&#45;&gt;Node5 -->
<g id="edge4_Node000004_Node000005" class="edge">
<title>Node4&#45;&gt;Node5</title>
<g id="a_edge4_Node000004_Node000005"><a xlink:title=" ">
<path fill="none" stroke="#63b8ff" d="M332.17,-69.11C311.49,-74.4 287.58,-80.52 268.2,-85.48"/>
<polygon fill="#63b8ff" stroke="#63b8ff" points="333.21,-72.46 342.03,-66.59 331.47,-65.68 333.21,-72.46"/>
</a>
</g>
</g>
<!-- Node6 -->
<g id="Node000006" class="node">
<title>Node6</title>
<g id="a_Node000006"><a xlink:href="m__start__up_8fpp_8f90.html#ac09c216e540601049a819ae5b76091b5" target="_top" xlink:title=" ">
<polygon fill="white" stroke="#666666" points="134,-104.5 0,-104.5 0,-85.5 134,-85.5 134,-104.5"/>
<text text-anchor="middle" x="67" y="-92.5" font-family="Helvetica,sans-Serif" font-size="10.00">__m_start_up_fpp_f90__</text>
</a>
</g>
</g>
<!-- Node5&#45;&gt;Node6 -->
<g id="edge5_Node000005_Node000006" class="edge">
<title>Node5&#45;&gt;Node6</title>
<g id="a_edge5_Node000005_Node000006"><a xlink:title=" ">
<path fill="none" stroke="#63b8ff" d="M159.71,-95C151.21,-95 142.55,-95 134.1,-95"/>
<polygon fill="#63b8ff" stroke="#63b8ff" points="159.96,-98.5 169.96,-95 159.96,-91.5 159.96,-98.5"/>
</a>
</g>
</g>
<!-- Node7 -->
<g id="Node000007" class="node">
<title>Node7</title>
<g id="a_Node000007"><a xlink:href="p__main_8fpp_8f90.html#aeec10ee8e2940c953967da3e374e1579" target="_top" xlink:title="Quasi&#45;conservative, shock&#45; and interface&#45; capturing finite&#45;volume scheme for the multicomponent Navie...">
<polygon fill="white" stroke="#666666" points="93.5,-67.5 40.5,-67.5 40.5,-48.5 93.5,-48.5 93.5,-67.5"/>
<text text-anchor="middle" x="67" y="-55.5" font-family="Helvetica,sans-Serif" font-size="10.00">p_main</text>
</a>
</g>
</g>
<!-- Node5&#45;&gt;Node7 -->
<g id="edge6_Node000005_Node000007" class="edge">
<title>Node5&#45;&gt;Node7</title>
<g id="a_edge6_Node000005_Node000007"><a xlink:title=" ">
<path fill="none" stroke="#63b8ff" d="M177.51,-83.17C149.56,-76.74 116.21,-69.08 93.72,-63.91"/>
<polygon fill="#63b8ff" stroke="#63b8ff" points="177.01,-86.64 187.54,-85.47 178.58,-79.82 177.01,-86.64"/>
</a>
</g>
</g>
<!-- Node9 -->
<g id="Node000009" class="node">
<title>Node9</title>
<g id="a_Node000009"><a xlink:href="m__bubbles__EL_8fpp_8f90.html#ae479bfa2d92038a5c675209a17224a05" target="_top" xlink:title="Initializes the lagrangian subgrid bubble solver.">
<polygon fill="white" stroke="#666666" points="584,-30 471,-30 471,0 584,0 584,-30"/>
<text text-anchor="start" x="479" y="-18" font-family="Helvetica,sans-Serif" font-size="10.00">s_initialize_bubbles</text>
<text text-anchor="middle" x="527.5" y="-7" font-family="Helvetica,sans-Serif" font-size="10.00">_el_module</text>
</a>
</g>
</g>
<!-- Node8&#45;&gt;Node9 -->
<g id="edge8_Node000008_Node000009" class="edge">
<title>Node8&#45;&gt;Node9</title>
<g id="a_edge8_Node000008_Node000009"><a xlink:title=" ">
<path fill="none" stroke="#63b8ff" d="M621.02,-16.7C608.69,-16.48 596.02,-16.24 584.17,-16.02"/>
<polygon fill="#63b8ff" stroke="#63b8ff" points="621.21,-20.21 631.27,-16.89 621.33,-13.21 621.21,-20.21"/>
</a>
</g>
</g>
<!-- Node10 -->
<g id="Node000010" class="node">
<title>Node10</title>
<g id="a_Node000010"><a xlink:href="m__start__up_8fpp_8f90.html#adf1f9241f0635f38fe245fc5dfb9f12a" target="_top" xlink:title=" ">
<polygon fill="white" stroke="#666666" points="288,-67.5 172,-67.5 172,-48.5 288,-48.5 288,-67.5"/>
<text text-anchor="middle" x="230" y="-55.5" font-family="Helvetica,sans-Serif" font-size="10.00">s_initialize_modules</text>
</a>
</g>
</g>
<!-- Node9&#45;&gt;Node10 -->
<g id="edge9_Node000009_Node000010" class="edge">
<title>Node9&#45;&gt;Node10</title>
<g id="a_edge9_Node000009_Node000010"><a xlink:title=" ">
<path fill="none" stroke="#63b8ff" d="M461.01,-20.96C421.73,-24.91 370.86,-30.72 326,-38 308.2,-40.89 288.68,-44.86 271.99,-48.5"/>
<polygon fill="#63b8ff" stroke="#63b8ff" points="461.39,-24.44 470.99,-19.96 460.69,-17.47 461.39,-24.44"/>
</a>
</g>
</g>
<!-- Node10&#45;&gt;Node6 -->
<g id="edge10_Node000010_Node000006" class="edge">
<title>Node10&#45;&gt;Node6</title>
<g id="a_edge10_Node000010_Node000006"><a xlink:title=" ">
<path fill="none" stroke="#63b8ff" d="M177.7,-69.79C155.73,-74.84 130.39,-80.66 109.6,-85.44"/>
<polygon fill="#63b8ff" stroke="#63b8ff" points="178.58,-73.18 187.54,-67.53 177.01,-66.36 178.58,-73.18"/>
</a>
</g>
</g>
<!-- Node10&#45;&gt;Node7 -->
<g id="edge11_Node000010_Node000007" class="edge">
<title>Node10&#45;&gt;Node7</title>
<g id="a_edge11_Node000010_Node000007"><a xlink:title=" ">
<path fill="none" stroke="#63b8ff" d="M161.6,-58C137.55,-58 111.9,-58 93.54,-58"/>
<polygon fill="#63b8ff" stroke="#63b8ff" points="161.78,-61.5 171.78,-58 161.78,-54.5 161.78,-61.5"/>
</a>
</g>
</g>
<!-- Node12 -->
<g id="Node000012" class="node">
<title>Node12</title>
<g id="a_Node000012"><a xlink:href="m__time__steppers_8fpp_8f90.html#a95dcf858eaba9951c12d4590ec467f62" target="_top" xlink:title="1st order TVD RK time&#45;stepping algorithm">
<polygon fill="white" stroke="#666666" points="435,-180.5 326,-180.5 326,-161.5 435,-161.5 435,-180.5"/>
<text text-anchor="middle" x="380.5" y="-168.5" font-family="Helvetica,sans-Serif" font-size="10.00">s_1st_order_tvd_rk</text>
</a>
</g>
</g>
<!-- Node11&#45;&gt;Node12 -->
<g id="edge13_Node000011_Node000012" class="edge">
<title>Node11&#45;&gt;Node12</title>
<g id="a_edge13_Node000011_Node000012"><a xlink:title=" ">
<path fill="none" stroke="#63b8ff" d="M659.9,-127.49C638.79,-135.92 610.2,-146.23 584,-152 534.34,-162.93 476.48,-167.58 435.35,-169.55"/>
<polygon fill="#63b8ff" stroke="#63b8ff" points="661.38,-130.67 669.32,-123.66 658.74,-124.18 661.38,-130.67"/>
</a>
</g>
</g>
<!-- Node13 -->
<g id="Node000013" class="node">
<title>Node13</title>
<g id="a_Node000013"><a xlink:href="m__time__steppers_8fpp_8f90.html#a30504937d9153ef9e5d9990a8894e89a" target="_top" xlink:title="2nd order TVD RK time&#45;stepping algorithm">
<polygon fill="white" stroke="#666666" points="583.5,-142.5 471.5,-142.5 471.5,-123.5 583.5,-123.5 583.5,-142.5"/>
<text text-anchor="middle" x="527.5" y="-130.5" font-family="Helvetica,sans-Serif" font-size="10.00">s_2nd_order_tvd_rk</text>
</a>
</g>
</g>
<!-- Node11&#45;&gt;Node13 -->
<g id="edge15_Node000011_Node000013" class="edge">
<title>Node11&#45;&gt;Node13</title>
<g id="a_edge15_Node000011_Node000013"><a xlink:title=" ">
<path fill="none" stroke="#63b8ff" d="M609.41,-123.57C600.78,-124.57 592.16,-125.58 583.93,-126.54"/>
<polygon fill="#63b8ff" stroke="#63b8ff" points="610,-127.02 619.53,-122.39 609.19,-120.07 610,-127.02"/>
</a>
</g>
</g>
<!-- Node14 -->
<g id="Node000014" class="node">
<title>Node14</title>
<g id="a_Node000014"><a xlink:href="m__time__steppers_8fpp_8f90.html#aa54ad1694d32cfe180d81112527699e4" target="_top" xlink:title="3rd order TVD RK time&#45;stepping algorithm">
<polygon fill="white" stroke="#666666" points="582.5,-105.5 472.5,-105.5 472.5,-86.5 582.5,-86.5 582.5,-105.5"/>
<text text-anchor="middle" x="527.5" y="-93.5" font-family="Helvetica,sans-Serif" font-size="10.00">s_3rd_order_tvd_rk</text>
</a>
</g>
</g>
<!-- Node11&#45;&gt;Node14 -->
<g id="edge17_Node000011_Node000014" class="edge">
<title>Node11&#45;&gt;Node14</title>
<g id="a_edge17_Node000011_Node000014"><a xlink:title=" ">
<path fill="none" stroke="#63b8ff" d="M609.41,-104.94C600.44,-103.94 591.47,-102.95 582.95,-102.01"/>
<polygon fill="#63b8ff" stroke="#63b8ff" points="609.21,-108.43 619.53,-106.05 609.98,-101.48 609.21,-108.43"/>
</a>
</g>
</g>
<!-- Node12&#45;&gt;Node5 -->
<g id="edge14_Node000012_Node000005" class="edge">
<title>Node12&#45;&gt;Node5</title>
<g id="a_edge14_Node000012_Node000005"><a xlink:title=" ">
<path fill="none" stroke="#63b8ff" d="M347.71,-157.24C340.52,-153.99 332.96,-150.46 326,-147 298.05,-133.11 266.4,-115.37 247.61,-104.61"/>
<polygon fill="#63b8ff" stroke="#63b8ff" points="346.63,-160.59 357.19,-161.46 349.48,-154.2 346.63,-160.59"/>
</a>
</g>
</g>
<!-- Node13&#45;&gt;Node5 -->
<g id="edge16_Node000013_Node000005" class="edge">
<title>Node13&#45;&gt;Node5</title>
<g id="a_edge16_Node000013_Node000005"><a xlink:title=" ">
<path fill="none" stroke="#63b8ff" d="M461.13,-126.21C421.9,-121.96 371.03,-116.14 326,-110 313.92,-108.35 301.01,-106.43 288.72,-104.51"/>
<polygon fill="#63b8ff" stroke="#63b8ff" points="460.79,-129.69 471.1,-127.28 461.54,-122.73 460.79,-129.69"/>
</a>
</g>
</g>
<!-- Node14&#45;&gt;Node4 -->
<g id="edge19_Node000014_Node000004" class="edge">
<title>Node14&#45;&gt;Node4</title>
<g id="a_edge19_Node000014_Node000004"><a xlink:title=" ">
<path fill="none" stroke="#63b8ff" d="M481.16,-83.81C460.42,-78.23 436.22,-71.72 416.86,-66.51"/>
<polygon fill="#63b8ff" stroke="#63b8ff" points="480.46,-87.24 491.03,-86.46 482.28,-80.48 480.46,-87.24"/>
</a>
</g>
</g>
<!-- Node14&#45;&gt;Node5 -->
<g id="edge18_Node000014_Node000005" class="edge">
<title>Node14&#45;&gt;Node5</title>
<g id="a_edge18_Node000014_Node000005"><a xlink:title=" ">
<path fill="none" stroke="#63b8ff" d="M462.02,-95.78C410.86,-95.61 339.91,-95.37 290.18,-95.2"/>
<polygon fill="#63b8ff" stroke="#63b8ff" points="462.29,-99.28 472.3,-95.82 462.31,-92.28 462.29,-99.28"/>
</a>
</g>
</g>
</g>
</svg>
