<?xml version="1.0" encoding="UTF-8" standalone="no"?>
<!DOCTYPE svg PUBLIC "-//W3C//DTD SVG 1.1//EN"
 "http://www.w3.org/Graphics/SVG/1.1/DTD/svg11.dtd">
<!-- Generated by graphviz version 2.43.0 (0)
 -->
<!-- Title: s_initial_substep_h Pages: 1 -->
<!--zoomable 485 -->

<svg id="main" version="1.1" xmlns="http://www.w3.org/2000/svg" xmlns:xlink="http://www.w3.org/1999/xlink" xml:space="preserve" onload="init(evt)">

<style type="text/css"><![CDATA[
.node, .edge {opacity: 0.7;}
.node.selected, .edge.selected {opacity: 1;}
.edge:hover path { stroke: red; }
.edge:hover polygon { stroke: red; fill: red; }
]]></style>

<defs>
  <circle id="rim" cx="0" cy="0" r="7"/>
  <circle id="rim2" cx="0" cy="0" r="3.5"/>
  <g id="zoomPlus">
    <use xlink:href="#rim" fill="#404040"><set attributeName="fill" to="#808080" begin="zoomplus.mouseover" end="zoomplus.mouseout"/></use>
    <path d="M-4,0h8M0,-4v8" fill="none" stroke="white" stroke-width="1.5" pointer-events="none"/>
  </g>
  <g id="zoomMin">
    <use xlink:href="#rim" fill="#404040"><set attributeName="fill" to="#808080" begin="zoomminus.mouseover" end="zoomminus.mouseout"/></use>
    <path d="M-4,0h8" fill="none" stroke="white" stroke-width="1.5" pointer-events="none"/>
  </g>
  <g id="arrowUp" transform="translate(30 24)">
    <use xlink:href="#rim"/>
    <path pointer-events="none" fill="none" stroke="white" stroke-width="1.5" d="M0,-3.0v7 M-2.5,-0.5L0,-3.0L2.5,-0.5"/>
  </g>
  <g id="arrowRight" transform="rotate(90) translate(36 -43)">
    <use xlink:href="#rim"/>
    <path pointer-events="none" fill="none" stroke="white" stroke-width="1.5" d="M0,-3.0v7 M-2.5,-0.5L0,-3.0L2.5,-0.5"/>
  </g>
  <g id="arrowDown" transform="rotate(180) translate(-30 -48)">
    <use xlink:href="#rim"/>
    <path pointer-events="none" fill="none" stroke="white" stroke-width="1.5" d="M0,-3.0v7 M-2.5,-0.5L0,-3.0L2.5,-0.5"/>
  </g>
  <g id="arrowLeft" transform="rotate(270) translate(-36 17)">
    <use xlink:href="#rim"/>
    <path pointer-events="none" fill="none" stroke="white" stroke-width="1.5" d="M0,-3.0v7 M-2.5,-0.5L0,-3.0L2.5,-0.5"/>
  </g>
  <g id="resetDef">
    <use xlink:href="#rim2" fill="#404040"><set attributeName="fill" to="#808080" begin="reset.mouseover" end="reset.mouseout"/></use>
  </g>
</defs>
<script type="application/ecmascript">
var viewWidth = 643;
var viewHeight = 485;
var sectionId = 'dynsection-29';
</script>
<script type="application/ecmascript" xlink:href="svg.min.js"/>
<svg id="graph" class="graph">
<g id="viewport">
<title>s_initial_substep_h</title>
<!-- Node1 -->
<g id="Node000001" class="node">
<title>Node1</title>
<g id="a_Node000001"><a xlink:title="Choose the initial time step size for the adaptive time stepping routine (See Heirer,...">
<polygon fill="#999999" stroke="#666666" points="110,-239 0,-239 0,-220 110,-220 110,-239"/>
<text text-anchor="middle" x="55" y="-227" font-family="Helvetica,sans-Serif" font-size="10.00">s_initial_substep_h</text>
</a>
</g>
</g>
<!-- Node2 -->
<g id="Node000002" class="node">
<title>Node2</title>
<g id="a_Node000002"><a xlink:href="m__bubbles_8fpp_8f90.html#a86272c4537ef61fb3828a48b46d372a1" target="_top" xlink:title="Function that computes the bubble radial acceleration based on bubble models.">
<polygon fill="white" stroke="#666666" points="197,-239 146,-239 146,-220 197,-220 197,-239"/>
<text text-anchor="middle" x="171.5" y="-227" font-family="Helvetica,sans-Serif" font-size="10.00">f_rddot</text>
</a>
</g>
</g>
<!-- Node1&#45;&gt;Node2 -->
<g id="edge1_Node000001_Node000002" class="edge">
<title>Node1&#45;&gt;Node2</title>
<g id="a_edge1_Node000001_Node000002"><a xlink:title=" ">
<path fill="none" stroke="#63b8ff" d="M110.23,-229.5C118.91,-229.5 127.69,-229.5 135.75,-229.5"/>
<polygon fill="#63b8ff" stroke="#63b8ff" points="135.88,-233 145.88,-229.5 135.88,-226 135.88,-233"/>
</a>
</g>
</g>
<!-- Node2&#45;&gt;Node2 -->
<g id="edge16_Node000002_Node000002" class="edge">
<title>Node2&#45;&gt;Node2</title>
<g id="a_edge16_Node000002_Node000002"><a xlink:title=" ">
<path fill="none" stroke="#63b8ff" d="M156.7,-239.08C149.51,-247.73 154.44,-257 171.5,-257 181.9,-257 187.79,-253.56 189.18,-248.91"/>
<polygon fill="#63b8ff" stroke="#63b8ff" points="192.47,-247.69 186.3,-239.08 185.75,-249.66 192.47,-247.69"/>
</a>
</g>
</g>
<!-- Node3 -->
<g id="Node000003" class="node">
<title>Node3</title>
<g id="a_Node000003"><a xlink:href="m__bubbles_8fpp_8f90.html#a556ff599901d57bfc5f501b3ccac12a5" target="_top" xlink:title="Function that computes the sound speed for the bubble.">
<polygon fill="white" stroke="#666666" points="293,-459 245,-459 245,-440 293,-440 293,-459"/>
<text text-anchor="middle" x="269" y="-447" font-family="Helvetica,sans-Serif" font-size="10.00">f_cgas</text>
</a>
</g>
</g>
<!-- Node2&#45;&gt;Node3 -->
<g id="edge2_Node000002_Node000003" class="edge">
<title>Node2&#45;&gt;Node3</title>
<g id="a_edge2_Node000002_Node000003"><a xlink:title=" ">
<path fill="none" stroke="#63b8ff" d="M172.81,-239.16C174.29,-270.57 182.93,-371.25 233,-431.5 234.11,-432.84 235.35,-434.09 236.67,-435.25"/>
<polygon fill="#63b8ff" stroke="#63b8ff" points="234.78,-438.2 244.98,-441.04 238.78,-432.45 234.78,-438.2"/>
</a>
</g>
</g>
<!-- Node4 -->
<g id="Node000004" class="node">
<title>Node4</title>
<g id="a_Node000004"><a xlink:href="m__bubbles_8fpp_8f90.html#a2e6dbed3ae55ecbcdccefc14faf7d3b8" target="_top" xlink:title="Function that computes that bubble wall pressure for Gilmore bubbles.">
<polygon fill="white" stroke="#666666" points="294.5,-404 243.5,-404 243.5,-385 294.5,-385 294.5,-404"/>
<text text-anchor="middle" x="269" y="-392" font-family="Helvetica,sans-Serif" font-size="10.00">f_cpbw</text>
</a>
</g>
</g>
<!-- Node2&#45;&gt;Node4 -->
<g id="edge4_Node000002_Node000004" class="edge">
<title>Node2&#45;&gt;Node4</title>
<g id="a_edge4_Node000002_Node000004"><a xlink:title=" ">
<path fill="none" stroke="#63b8ff" d="M174.12,-239.34C178.8,-264.96 194.54,-334.64 233,-376.5 233.76,-377.33 234.57,-378.13 235.42,-378.89"/>
<polygon fill="#63b8ff" stroke="#63b8ff" points="233.67,-381.94 243.82,-384.96 237.76,-376.27 233.67,-381.94"/>
</a>
</g>
</g>
<!-- Node5 -->
<g id="Node000005" class="node">
<title>Node5</title>
<g id="a_Node000005"><a xlink:href="m__bubbles_8fpp_8f90.html#a30dca898ade85c5f9dd77f22371a00da" target="_top" xlink:title="Function that computes the bubble wall pressure for Keller–Miksis bubbles.">
<polygon fill="white" stroke="#666666" points="305,-349 233,-349 233,-330 305,-330 305,-349"/>
<text text-anchor="middle" x="269" y="-337" font-family="Helvetica,sans-Serif" font-size="10.00">f_cpbw_km</text>
</a>
</g>
</g>
<!-- Node2&#45;&gt;Node5 -->
<g id="edge6_Node000002_Node000005" class="edge">
<title>Node2&#45;&gt;Node5</title>
<g id="a_edge6_Node000002_Node000005"><a xlink:title=" ">
<path fill="none" stroke="#63b8ff" d="M176.83,-239.28C185.32,-257.48 205.7,-296.97 233,-321.5 234.11,-322.5 235.29,-323.46 236.51,-324.38"/>
<polygon fill="#63b8ff" stroke="#63b8ff" points="234.75,-327.41 245.05,-329.86 238.53,-321.52 234.75,-327.41"/>
</a>
</g>
</g>
<!-- Node8 -->
<g id="Node000008" class="node">
<title>Node8</title>
<g id="a_Node000008"><a xlink:href="m__bubbles_8fpp_8f90.html#af7fd1de34db00586b080876bfc6ee240" target="_top" xlink:title="Function that computes the time derivative of the driving pressure.">
<polygon fill="white" stroke="#666666" points="301.5,-294 236.5,-294 236.5,-275 301.5,-275 301.5,-294"/>
<text text-anchor="middle" x="269" y="-282" font-family="Helvetica,sans-Serif" font-size="10.00">f_cpinfdot</text>
</a>
</g>
</g>
<!-- Node2&#45;&gt;Node8 -->
<g id="edge10_Node000002_Node000008" class="edge">
<title>Node2&#45;&gt;Node8</title>
<g id="a_edge10_Node000002_Node000008"><a xlink:title=" ">
<path fill="none" stroke="#63b8ff" d="M187.73,-239.25C199.85,-246.9 217.33,-257.69 233,-266.5 235.03,-267.64 237.15,-268.8 239.28,-269.95"/>
<polygon fill="#63b8ff" stroke="#63b8ff" points="238.13,-273.3 248.61,-274.85 241.38,-267.1 238.13,-273.3"/>
</a>
</g>
</g>
<!-- Node9 -->
<g id="Node000009" class="node">
<title>Node9</title>
<g id="a_Node000009"><a xlink:href="m__bubbles_8fpp_8f90.html#a53b59cbe0ab1805ab4577ce8628ee6db" target="_top" xlink:title="Function that computes the bubble enthalpy.">
<polygon fill="white" stroke="#666666" points="285,-239 253,-239 253,-220 285,-220 285,-239"/>
<text text-anchor="middle" x="269" y="-227" font-family="Helvetica,sans-Serif" font-size="10.00">f_h</text>
</a>
</g>
</g>
<!-- Node2&#45;&gt;Node9 -->
<g id="edge12_Node000002_Node000009" class="edge">
<title>Node2&#45;&gt;Node9</title>
<g id="a_edge12_Node000002_Node000009"><a xlink:title=" ">
<path fill="none" stroke="#63b8ff" d="M197.09,-229.5C211.1,-229.5 228.61,-229.5 242.73,-229.5"/>
<polygon fill="#63b8ff" stroke="#63b8ff" points="242.74,-233 252.74,-229.5 242.74,-226 242.74,-233"/>
</a>
</g>
</g>
<!-- Node10 -->
<g id="Node000010" class="node">
<title>Node10</title>
<g id="a_Node000010"><a xlink:href="m__bubbles_8fpp_8f90.html#a2470f8228158f1b17464174b55b7cb87" target="_top" xlink:title="Function that computes the time derivative of the enthalpy.">
<polygon fill="white" stroke="#666666" points="292.5,-184 245.5,-184 245.5,-165 292.5,-165 292.5,-184"/>
<text text-anchor="middle" x="269" y="-172" font-family="Helvetica,sans-Serif" font-size="10.00">f_hdot</text>
</a>
</g>
</g>
<!-- Node2&#45;&gt;Node10 -->
<g id="edge14_Node000002_Node000010" class="edge">
<title>Node2&#45;&gt;Node10</title>
<g id="a_edge14_Node000002_Node000010"><a xlink:title=" ">
<path fill="none" stroke="#63b8ff" d="M189.13,-219.92C203.83,-211.45 225.5,-198.98 242.41,-189.24"/>
<polygon fill="#63b8ff" stroke="#63b8ff" points="244.32,-192.18 251.24,-184.16 240.82,-186.11 244.32,-192.18"/>
</a>
</g>
</g>
<!-- Node11 -->
<g id="Node000011" class="node">
<title>Node11</title>
<g id="a_Node000011"><a xlink:href="m__bubbles_8fpp_8f90.html#a757efca2b83ebf6849098caad22a2393" target="_top" xlink:title="Function that computes the bubble radial acceleration.">
<polygon fill="white" stroke="#666666" points="300,-129 238,-129 238,-110 300,-110 300,-129"/>
<text text-anchor="middle" x="269" y="-117" font-family="Helvetica,sans-Serif" font-size="10.00">f_rddot_g</text>
</a>
</g>
</g>
<!-- Node2&#45;&gt;Node11 -->
<g id="edge17_Node000002_Node000011" class="edge">
<title>Node2&#45;&gt;Node11</title>
<g id="a_edge17_Node000002_Node000011"><a xlink:title=" ">
<path fill="none" stroke="#63b8ff" d="M180.14,-219.88C191.43,-205.76 213.36,-178.68 233,-156.5 238.94,-149.8 245.65,-142.61 251.6,-136.37"/>
<polygon fill="#63b8ff" stroke="#63b8ff" points="254.2,-138.71 258.61,-129.08 249.16,-133.86 254.2,-138.71"/>
</a>
</g>
</g>
<!-- Node12 -->
<g id="Node000012" class="node">
<title>Node12</title>
<g id="a_Node000012"><a xlink:href="m__bubbles_8fpp_8f90.html#afee175b5376a09002788e66a6b5f8bba" target="_top" xlink:title="Function that computes the bubble radial acceleration for Keller–Miksis bubbles.">
<polygon fill="white" stroke="#666666" points="305,-74 233,-74 233,-55 305,-55 305,-74"/>
<text text-anchor="middle" x="269" y="-62" font-family="Helvetica,sans-Serif" font-size="10.00">f_rddot_km</text>
</a>
</g>
</g>
<!-- Node2&#45;&gt;Node12 -->
<g id="edge19_Node000002_Node000012" class="edge">
<title>Node2&#45;&gt;Node12</title>
<g id="a_edge19_Node000002_Node000012"><a xlink:title=" ">
<path fill="none" stroke="#63b8ff" d="M175.82,-219.96C183.72,-197.93 205.12,-142.29 233,-101.5 237.91,-94.31 244.22,-87.18 250.13,-81.13"/>
<polygon fill="#63b8ff" stroke="#63b8ff" points="252.59,-83.62 257.26,-74.11 247.67,-78.63 252.59,-83.62"/>
</a>
</g>
</g>
<!-- Node13 -->
<g id="Node000013" class="node">
<title>Node13</title>
<g id="a_Node000013"><a xlink:href="m__bubbles_8fpp_8f90.html#a9452bf200a4d5df3fdb8a3cd16bbd252" target="_top" xlink:title="Function that computes the bubble radial acceleration for Rayleigh&#45;Plesset bubbles.">
<polygon fill="white" stroke="#666666" points="302,-19 236,-19 236,0 302,0 302,-19"/>
<text text-anchor="middle" x="269" y="-7" font-family="Helvetica,sans-Serif" font-size="10.00">f_rddot_rp</text>
</a>
</g>
</g>
<!-- Node2&#45;&gt;Node13 -->
<g id="edge22_Node000002_Node000013" class="edge">
<title>Node2&#45;&gt;Node13</title>
<g id="a_edge22_Node000002_Node000013"><a xlink:title=" ">
<path fill="none" stroke="#63b8ff" d="M174.17,-219.74C179.34,-191.32 196.96,-106.83 233,-46.5 237.3,-39.3 243.22,-32.35 248.97,-26.46"/>
<polygon fill="#63b8ff" stroke="#63b8ff" points="251.77,-28.62 256.54,-19.16 246.91,-23.59 251.77,-28.62"/>
</a>
</g>
</g>
<!-- Node3&#45;&gt;Node3 -->
<g id="edge3_Node000003_Node000003" class="edge">
<title>Node3&#45;&gt;Node3</title>
<g id="a_edge3_Node000003_Node000003"><a xlink:title=" ">
<path fill="none" stroke="#63b8ff" d="M254.2,-459.08C247.01,-467.73 251.94,-477 269,-477 279.4,-477 285.29,-473.56 286.68,-468.91"/>
<polygon fill="#63b8ff" stroke="#63b8ff" points="289.97,-467.69 283.8,-459.08 283.25,-469.66 289.97,-467.69"/>
</a>
</g>
</g>
<!-- Node4&#45;&gt;Node4 -->
<g id="edge5_Node000004_Node000004" class="edge">
<title>Node4&#45;&gt;Node4</title>
<g id="a_edge5_Node000004_Node000004"><a xlink:title=" ">
<path fill="none" stroke="#63b8ff" d="M254.2,-404.08C247.01,-412.73 251.94,-422 269,-422 279.4,-422 285.29,-418.56 286.68,-413.91"/>
<polygon fill="#63b8ff" stroke="#63b8ff" points="289.97,-412.69 283.8,-404.08 283.25,-414.66 289.97,-412.69"/>
</a>
</g>
</g>
<!-- Node5&#45;&gt;Node5 -->
<g id="edge7_Node000005_Node000005" class="edge">
<title>Node5&#45;&gt;Node5</title>
<g id="a_edge7_Node000005_Node000005"><a xlink:title=" ">
<path fill="none" stroke="#63b8ff" d="M254.2,-349.08C247.01,-357.73 251.94,-367 269,-367 279.4,-367 285.29,-363.56 286.68,-358.91"/>
<polygon fill="#63b8ff" stroke="#63b8ff" points="289.97,-357.69 283.8,-349.08 283.25,-359.66 289.97,-357.69"/>
</a>
</g>
</g>
<!-- Node6 -->
<g id="Node000006" class="node">
<title>Node6</title>
<g id="a_Node000006"><a xlink:href="namespacem__helper__basic.html#a345e205ced0b0674a22f59a2c1549eb4" target="_top" xlink:title="Checks if a real(wp) variable is of default value.">
<polygon fill="white" stroke="#666666" points="457,-216.5 341,-216.5 341,-186.5 457,-186.5 457,-216.5"/>
<text text-anchor="start" x="349" y="-204.5" font-family="Helvetica,sans-Serif" font-size="10.00">m_helper_basic::f_is</text>
<text text-anchor="middle" x="399" y="-193.5" font-family="Helvetica,sans-Serif" font-size="10.00">_default</text>
</a>
</g>
</g>
<!-- Node5&#45;&gt;Node6 -->
<g id="edge8_Node000005_Node000006" class="edge">
<title>Node5&#45;&gt;Node6</title>
<g id="a_edge8_Node000005_Node000006"><a xlink:title=" ">
<path fill="none" stroke="#63b8ff" d="M292.39,-329.84C296.79,-327.44 301.22,-324.64 305,-321.5 338.55,-293.63 367.59,-251.64 383.93,-225.44"/>
<polygon fill="#63b8ff" stroke="#63b8ff" points="386.93,-227.24 389.16,-216.88 380.96,-223.59 386.93,-227.24"/>
</a>
</g>
</g>
<!-- Node7 -->
<g id="Node000007" class="node">
<title>Node7</title>
<g id="a_Node000007"><a xlink:href="namespacem__helper__basic.html#a58590a12d49b9b884256a839f2be8610" target="_top" xlink:title="This procedure checks if two floating point numbers of wp are within tolerance.">
<polygon fill="white" stroke="#666666" points="635,-216.5 493,-216.5 493,-186.5 635,-186.5 635,-216.5"/>
<text text-anchor="start" x="501" y="-204.5" font-family="Helvetica,sans-Serif" font-size="10.00">m_helper_basic::f_approx</text>
<text text-anchor="middle" x="564" y="-193.5" font-family="Helvetica,sans-Serif" font-size="10.00">_equal</text>
</a>
</g>
</g>
<!-- Node6&#45;&gt;Node7 -->
<g id="edge9_Node000006_Node000007" class="edge">
<title>Node6&#45;&gt;Node7</title>
<g id="a_edge9_Node000006_Node000007"><a xlink:title=" ">
<path fill="none" stroke="#63b8ff" d="M457.01,-201.5C465.32,-201.5 474.01,-201.5 482.68,-201.5"/>
<polygon fill="#63b8ff" stroke="#63b8ff" points="482.83,-205 492.83,-201.5 482.83,-198 482.83,-205"/>
</a>
</g>
</g>
<!-- Node8&#45;&gt;Node8 -->
<g id="edge11_Node000008_Node000008" class="edge">
<title>Node8&#45;&gt;Node8</title>
<g id="a_edge11_Node000008_Node000008"><a xlink:title=" ">
<path fill="none" stroke="#63b8ff" d="M254.2,-294.08C247.01,-302.73 251.94,-312 269,-312 279.4,-312 285.29,-308.56 286.68,-303.91"/>
<polygon fill="#63b8ff" stroke="#63b8ff" points="289.97,-302.69 283.8,-294.08 283.25,-304.66 289.97,-302.69"/>
</a>
</g>
</g>
<!-- Node9&#45;&gt;Node9 -->
<g id="edge13_Node000009_Node000009" class="edge">
<title>Node9&#45;&gt;Node9</title>
<g id="a_edge13_Node000009_Node000009"><a xlink:title=" ">
<path fill="none" stroke="#63b8ff" d="M254.2,-239.08C247.01,-247.73 251.94,-257 269,-257 279.4,-257 285.29,-253.56 286.68,-248.91"/>
<polygon fill="#63b8ff" stroke="#63b8ff" points="289.97,-247.69 283.8,-239.08 283.25,-249.66 289.97,-247.69"/>
</a>
</g>
</g>
<!-- Node10&#45;&gt;Node10 -->
<g id="edge15_Node000010_Node000010" class="edge">
<title>Node10&#45;&gt;Node10</title>
<g id="a_edge15_Node000010_Node000010"><a xlink:title=" ">
<path fill="none" stroke="#63b8ff" d="M254.2,-184.08C247.01,-192.73 251.94,-202 269,-202 279.4,-202 285.29,-198.56 286.68,-193.91"/>
<polygon fill="#63b8ff" stroke="#63b8ff" points="289.97,-192.69 283.8,-184.08 283.25,-194.66 289.97,-192.69"/>
</a>
</g>
</g>
<!-- Node11&#45;&gt;Node11 -->
<g id="edge18_Node000011_Node000011" class="edge">
<title>Node11&#45;&gt;Node11</title>
<g id="a_edge18_Node000011_Node000011"><a xlink:title=" ">
<path fill="none" stroke="#63b8ff" d="M254.2,-129.08C247.01,-137.73 251.94,-147 269,-147 279.4,-147 285.29,-143.56 286.68,-138.91"/>
<polygon fill="#63b8ff" stroke="#63b8ff" points="289.97,-137.69 283.8,-129.08 283.25,-139.66 289.97,-137.69"/>
</a>
</g>
</g>
<!-- Node12&#45;&gt;Node6 -->
<g id="edge20_Node000012_Node000006" class="edge">
<title>Node12&#45;&gt;Node6</title>
<g id="a_edge20_Node000012_Node000006"><a xlink:title=" ">
<path fill="none" stroke="#63b8ff" d="M279.23,-74.22C286.3,-81.67 296.29,-92.21 305,-101.5 329.77,-127.91 358.09,-158.4 376.9,-178.7"/>
<polygon fill="#63b8ff" stroke="#63b8ff" points="374.5,-181.26 383.86,-186.21 379.63,-176.5 374.5,-181.26"/>
</a>
</g>
</g>
<!-- Node12&#45;&gt;Node12 -->
<g id="edge21_Node000012_Node000012" class="edge">
<title>Node12&#45;&gt;Node12</title>
<g id="a_edge21_Node000012_Node000012"><a xlink:title=" ">
<path fill="none" stroke="#63b8ff" d="M254.2,-74.08C247.01,-82.73 251.94,-92 269,-92 279.4,-92 285.29,-88.56 286.68,-83.91"/>
<polygon fill="#63b8ff" stroke="#63b8ff" points="289.97,-82.69 283.8,-74.08 283.25,-84.66 289.97,-82.69"/>
</a>
</g>
</g>
<!-- Node13&#45;&gt;Node13 -->
<g id="edge23_Node000013_Node000013" class="edge">
<title>Node13&#45;&gt;Node13</title>
<g id="a_edge23_Node000013_Node000013"><a xlink:title=" ">
<path fill="none" stroke="#63b8ff" d="M254.2,-19.08C247.01,-27.73 251.94,-37 269,-37 279.4,-37 285.29,-33.56 286.68,-28.91"/>
<polygon fill="#63b8ff" stroke="#63b8ff" points="289.97,-27.69 283.8,-19.08 283.25,-29.66 289.97,-27.69"/>
</a>
</g>
</g>
</g>
</svg>

<g id="navigator" transform="translate(0 0)" fill="#404254">
  <rect fill="#f2f5e9" fill-opacity="0.5" stroke="#606060" stroke-width=".5" x="0" y="0" width="60" height="60"/>
  <use id="zoomplus" xlink:href="#zoomPlus" x="17" y="9" onmousedown="handleZoom(evt,'in')"/>
  <use id="zoomminus" xlink:href="#zoomMin" x="42" y="9" onmousedown="handleZoom(evt,'out')"/>
  <use id="reset" xlink:href="#resetDef" x="30" y="36" onmousedown="handleReset()"/>
   <use id="arrowup" xlink:href="#arrowUp" x="0" y="0" onmousedown="handlePan(0,-1)"/>
  <use id="arrowright" xlink:href="#arrowRight" x="0" y="0" onmousedown="handlePan(1,0)"/>
  <use id="arrowdown" xlink:href="#arrowDown" x="0" y="0" onmousedown="handlePan(0,1)"/>
  <use id="arrowleft" xlink:href="#arrowLeft" x="0" y="0" onmousedown="handlePan(-1,0)"/>
</g>
<svg viewBox="0 0 15 15" width="100%" height="30px" preserveAspectRatio="xMaxYMin meet">
 <g id="arrow_out" transform="scale(0.3 0.3)">
  <a xlink:href="m__bubbles_8fpp_8f90_a0fcf1756074e095c38039a51137ae3f3_cgraph_org.svg" target="_base">
   <rect id="button" ry="5" rx="5" y="6" x="6" height="38" width="38"
        fill="#f2f5e9" fill-opacity="0.5" stroke="#606060" stroke-width="1.0"/>
   <path id="arrow"
     d="M 11.500037,31.436501 C 11.940474,20.09759 22.043105,11.32322 32.158766,21.979434 L 37.068811,17.246167 C 37.068811,17.246167 37.088388,32 37.088388,32 L 22.160133,31.978069 C 22.160133,31.978069 26.997745,27.140456 26.997745,27.140456 C 18.528582,18.264221 13.291696,25.230495 11.500037,31.436501 z"
     style="fill:#404040;"/>
  </a>
 </g>
</svg>

<style type='text/css'>
<![CDATA[
[data-mouse-over-selected='false'] { opacity: 0.7; }
[data-mouse-over-selected='true']  { opacity: 1.0; }
]]>
</style>
<script type="application/ecmascript"><![CDATA[
document.addEventListener('DOMContentLoaded', (event) => {
  highlightEdges();
  highlightAdjacentNodes();
});
]]></script>
</svg>
