<?xml version="1.0" encoding="UTF-8" standalone="no"?>
<!DOCTYPE svg PUBLIC "-//W3C//DTD SVG 1.1//EN"
 "http://www.w3.org/Graphics/SVG/1.1/DTD/svg11.dtd">
<!-- Generated by graphviz version 2.43.0 (0)
 -->
<!-- Title: s_write_void_evol Pages: 1 -->
<!--zoomable 227 -->

<svg id="main" version="1.1" xmlns="http://www.w3.org/2000/svg" xmlns:xlink="http://www.w3.org/1999/xlink" xml:space="preserve" onload="init(evt)">

<style type="text/css"><![CDATA[
.node, .edge {opacity: 0.7;}
.node.selected, .edge.selected {opacity: 1;}
.edge:hover path { stroke: red; }
.edge:hover polygon { stroke: red; fill: red; }
]]></style>

<defs>
  <circle id="rim" cx="0" cy="0" r="7"/>
  <circle id="rim2" cx="0" cy="0" r="3.5"/>
  <g id="zoomPlus">
    <use xlink:href="#rim" fill="#404040"><set attributeName="fill" to="#808080" begin="zoomplus.mouseover" end="zoomplus.mouseout"/></use>
    <path d="M-4,0h8M0,-4v8" fill="none" stroke="white" stroke-width="1.5" pointer-events="none"/>
  </g>
  <g id="zoomMin">
    <use xlink:href="#rim" fill="#404040"><set attributeName="fill" to="#808080" begin="zoomminus.mouseover" end="zoomminus.mouseout"/></use>
    <path d="M-4,0h8" fill="none" stroke="white" stroke-width="1.5" pointer-events="none"/>
  </g>
  <g id="arrowUp" transform="translate(30 24)">
    <use xlink:href="#rim"/>
    <path pointer-events="none" fill="none" stroke="white" stroke-width="1.5" d="M0,-3.0v7 M-2.5,-0.5L0,-3.0L2.5,-0.5"/>
  </g>
  <g id="arrowRight" transform="rotate(90) translate(36 -43)">
    <use xlink:href="#rim"/>
    <path pointer-events="none" fill="none" stroke="white" stroke-width="1.5" d="M0,-3.0v7 M-2.5,-0.5L0,-3.0L2.5,-0.5"/>
  </g>
  <g id="arrowDown" transform="rotate(180) translate(-30 -48)">
    <use xlink:href="#rim"/>
    <path pointer-events="none" fill="none" stroke="white" stroke-width="1.5" d="M0,-3.0v7 M-2.5,-0.5L0,-3.0L2.5,-0.5"/>
  </g>
  <g id="arrowLeft" transform="rotate(270) translate(-36 17)">
    <use xlink:href="#rim"/>
    <path pointer-events="none" fill="none" stroke="white" stroke-width="1.5" d="M0,-3.0v7 M-2.5,-0.5L0,-3.0L2.5,-0.5"/>
  </g>
  <g id="resetDef">
    <use xlink:href="#rim2" fill="#404040"><set attributeName="fill" to="#808080" begin="reset.mouseover" end="reset.mouseout"/></use>
  </g>
</defs>
<script type="application/ecmascript">
var viewWidth = 854;
var viewHeight = 227;
var sectionId = 'dynsection-40';
</script>
<script type="application/ecmascript" xlink:href="svg.min.js"/>
<svg id="graph" class="graph">
<g id="viewport">
<title>s_write_void_evol</title>
<!-- Node1 -->
<g id="Node000001" class="node">
<title>Node1</title>
<g id="a_Node000001"><a xlink:title="Subroutine that writes some useful statistics related to the volume fraction of the particles (void f...">
<polygon fill="#999999" stroke="#666666" points="846,-170 742,-170 742,-151 846,-151 846,-170"/>
<text text-anchor="middle" x="794" y="-158" font-family="Helvetica,sans-Serif" font-size="10.00">s_write_void_evol</text>
</a>
</g>
</g>
<!-- Node2 -->
<g id="Node000002" class="node">
<title>Node2</title>
<g id="a_Node000002"><a xlink:href="m__time__steppers_8fpp_8f90.html#aca171c932551af4579eecbfc6b9a8c6a" target="_top" xlink:title="(Adaptive) 4th/5th order Runge—Kutta–Cash–Karp (RKCK) time&#45;stepping algorithm (Cash J....">
<polygon fill="white" stroke="#666666" points="376,-170 255,-170 255,-151 376,-151 376,-170"/>
<text text-anchor="middle" x="315.5" y="-158" font-family="Helvetica,sans-Serif" font-size="10.00">s_4th_5th_order_rkck</text>
</a>
</g>
</g>
<!-- Node1&#45;&gt;Node2 -->
<g id="edge1_Node000001_Node000002" class="edge">
<title>Node1&#45;&gt;Node2</title>
<g id="a_edge1_Node000001_Node000002"><a xlink:title=" ">
<path fill="none" stroke="#63b8ff" d="M731.28,-160.5C639.25,-160.5 467.18,-160.5 376.29,-160.5"/>
<polygon fill="#63b8ff" stroke="#63b8ff" points="731.55,-164 741.55,-160.5 731.55,-157 731.55,-164"/>
</a>
</g>
</g>
<!-- Node5 -->
<g id="Node000005" class="node">
<title>Node5</title>
<g id="a_Node000005"><a xlink:href="m__bubbles__EL_8fpp_8f90.html#accadf2109d3c888568af8e2702a9dc91" target="_top" xlink:title="The purpose of this procedure is to obtain the initial bubbles&#39; information.">
<polygon fill="white" stroke="#666666" points="694.5,-210 572.5,-210 572.5,-191 694.5,-191 694.5,-210"/>
<text text-anchor="middle" x="633.5" y="-198" font-family="Helvetica,sans-Serif" font-size="10.00">s_read_input_bubbles</text>
</a>
</g>
</g>
<!-- Node1&#45;&gt;Node5 -->
<g id="edge4_Node000001_Node000005" class="edge">
<title>Node1&#45;&gt;Node5</title>
<g id="a_edge4_Node000001_Node000005"><a xlink:title=" ">
<path fill="none" stroke="#63b8ff" d="M745.3,-172.54C721.87,-178.45 694.06,-185.47 672.15,-191"/>
<polygon fill="#63b8ff" stroke="#63b8ff" points="746.2,-175.92 755.04,-170.08 744.48,-169.13 746.2,-175.92"/>
</a>
</g>
</g>
<!-- Node8 -->
<g id="Node000008" class="node">
<title>Node8</title>
<g id="a_Node000008"><a xlink:href="m__bubbles__EL_8fpp_8f90.html#a47fb744c458170aae8a3805edc4773c0" target="_top" xlink:title="This subroutine updates the Lagrange variables using the tvd RK time steppers. The time derivative of...">
<polygon fill="white" stroke="#666666" points="706,-113 561,-113 561,-94 706,-94 706,-113"/>
<text text-anchor="middle" x="633.5" y="-101" font-family="Helvetica,sans-Serif" font-size="10.00">s_update_lagrange_tdv_rk</text>
</a>
</g>
</g>
<!-- Node1&#45;&gt;Node8 -->
<g id="edge8_Node000001_Node000008" class="edge">
<title>Node1&#45;&gt;Node8</title>
<g id="a_edge8_Node000001_Node000008"><a xlink:title=" ">
<path fill="none" stroke="#63b8ff" d="M757.05,-147.57C727.89,-137.08 687.43,-122.54 661.12,-113.07"/>
<polygon fill="#63b8ff" stroke="#63b8ff" points="755.88,-150.87 766.47,-150.96 758.25,-144.28 755.88,-150.87"/>
</a>
</g>
</g>
<!-- Node3 -->
<g id="Node000003" class="node">
<title>Node3</title>
<g id="a_Node000003"><a xlink:href="namespacem__start__up.html#aaaeff91a52af5b8f17ed9efed8ac17bd" target="_top" xlink:title=" ">
<polygon fill="white" stroke="#666666" points="217.5,-119.5 90.5,-119.5 90.5,-89.5 217.5,-89.5 217.5,-119.5"/>
<text text-anchor="start" x="98.5" y="-107.5" font-family="Helvetica,sans-Serif" font-size="10.00">m_start_up::s_perform</text>
<text text-anchor="middle" x="154" y="-96.5" font-family="Helvetica,sans-Serif" font-size="10.00">_time_step</text>
</a>
</g>
</g>
<!-- Node2&#45;&gt;Node3 -->
<g id="edge2_Node000002_Node000003" class="edge">
<title>Node2&#45;&gt;Node3</title>
<g id="a_edge2_Node000002_Node000003"><a xlink:title=" ">
<path fill="none" stroke="#63b8ff" d="M271.45,-147.86C265.89,-146.12 260.3,-144.31 255,-142.5 234.26,-135.43 211.39,-126.8 192.76,-119.56"/>
<polygon fill="#63b8ff" stroke="#63b8ff" points="270.74,-151.31 281.32,-150.91 272.8,-144.62 270.74,-151.31"/>
</a>
</g>
</g>
<!-- Node4 -->
<g id="Node000004" class="node">
<title>Node4</title>
<g id="a_Node000004"><a xlink:href="p__main_8fpp_8f90.html#aeec10ee8e2940c953967da3e374e1579" target="_top" xlink:title="Quasi&#45;conservative, shock&#45; and interface&#45; capturing finite&#45;volume scheme for the multicomponent Navie...">
<polygon fill="white" stroke="#666666" points="53,-138 0,-138 0,-119 53,-119 53,-138"/>
<text text-anchor="middle" x="26.5" y="-126" font-family="Helvetica,sans-Serif" font-size="10.00">p_main</text>
</a>
</g>
</g>
<!-- Node3&#45;&gt;Node4 -->
<g id="edge3_Node000003_Node000004" class="edge">
<title>Node3&#45;&gt;Node4</title>
<g id="a_edge3_Node000003_Node000004"><a xlink:title=" ">
<path fill="none" stroke="#63b8ff" d="M80.15,-118.43C70.53,-120.27 61.23,-122.05 53.2,-123.59"/>
<polygon fill="#63b8ff" stroke="#63b8ff" points="81.09,-121.82 90.25,-116.5 79.77,-114.94 81.09,-121.82"/>
</a>
</g>
</g>
<!-- Node6 -->
<g id="Node000006" class="node">
<title>Node6</title>
<g id="a_Node000006"><a xlink:href="m__bubbles__EL_8fpp_8f90.html#a47b7d3db70cd13c27b94a3cbc0215410" target="_top" xlink:title="Initializes the lagrangian subgrid bubble solver.">
<polygon fill="white" stroke="#666666" points="525,-218.5 412,-218.5 412,-188.5 525,-188.5 525,-218.5"/>
<text text-anchor="start" x="420" y="-206.5" font-family="Helvetica,sans-Serif" font-size="10.00">s_initialize_bubbles</text>
<text text-anchor="middle" x="468.5" y="-195.5" font-family="Helvetica,sans-Serif" font-size="10.00">_el_module</text>
</a>
</g>
</g>
<!-- Node5&#45;&gt;Node6 -->
<g id="edge5_Node000005_Node000006" class="edge">
<title>Node5&#45;&gt;Node6</title>
<g id="a_edge5_Node000005_Node000006"><a xlink:title=" ">
<path fill="none" stroke="#63b8ff" d="M562.02,-201.8C549.69,-202.02 537.02,-202.26 525.17,-202.48"/>
<polygon fill="#63b8ff" stroke="#63b8ff" points="562.33,-205.29 572.27,-201.61 562.21,-198.29 562.33,-205.29"/>
</a>
</g>
</g>
<!-- Node7 -->
<g id="Node000007" class="node">
<title>Node7</title>
<g id="a_Node000007"><a xlink:href="namespacem__start__up.html#a14f564f341f1feca9308fe2579e5ced6" target="_top" xlink:title=" ">
<polygon fill="white" stroke="#666666" points="219,-192.5 89,-192.5 89,-162.5 219,-162.5 219,-192.5"/>
<text text-anchor="start" x="97" y="-180.5" font-family="Helvetica,sans-Serif" font-size="10.00">m_start_up::s_initialize</text>
<text text-anchor="middle" x="154" y="-169.5" font-family="Helvetica,sans-Serif" font-size="10.00">_modules</text>
</a>
</g>
</g>
<!-- Node6&#45;&gt;Node7 -->
<g id="edge6_Node000006_Node000007" class="edge">
<title>Node6&#45;&gt;Node7</title>
<g id="a_edge6_Node000006_Node000007"><a xlink:title=" ">
<path fill="none" stroke="#63b8ff" d="M401.88,-198.04C348.13,-193.57 272.51,-187.28 219.16,-182.84"/>
<polygon fill="#63b8ff" stroke="#63b8ff" points="401.74,-201.54 411.99,-198.88 402.32,-194.56 401.74,-201.54"/>
</a>
</g>
</g>
<!-- Node7&#45;&gt;Node4 -->
<g id="edge7_Node000007_Node000004" class="edge">
<title>Node7&#45;&gt;Node4</title>
<g id="a_edge7_Node000007_Node000004"><a xlink:title=" ">
<path fill="none" stroke="#63b8ff" d="M104.55,-158.58C86.59,-151.57 66.97,-143.91 52.02,-138.08"/>
<polygon fill="#63b8ff" stroke="#63b8ff" points="103.73,-162.02 114.32,-162.4 106.28,-155.5 103.73,-162.02"/>
</a>
</g>
</g>
<!-- Node9 -->
<g id="Node000009" class="node">
<title>Node9</title>
<g id="a_Node000009"><a xlink:href="m__time__steppers_8fpp_8f90.html#af409df8df1b374744d8c379e7e7dba0b" target="_top" xlink:title="1st order TVD RK time&#45;stepping algorithm">
<polygon fill="white" stroke="#666666" points="370,-133 261,-133 261,-114 370,-114 370,-133"/>
<text text-anchor="middle" x="315.5" y="-121" font-family="Helvetica,sans-Serif" font-size="10.00">s_1st_order_tvd_rk</text>
</a>
</g>
</g>
<!-- Node8&#45;&gt;Node9 -->
<g id="edge9_Node000008_Node000009" class="edge">
<title>Node8&#45;&gt;Node9</title>
<g id="a_edge9_Node000008_Node000009"><a xlink:title=" ">
<path fill="none" stroke="#63b8ff" d="M550.75,-108.67C493.89,-112.27 419.7,-116.97 370.2,-120.1"/>
<polygon fill="#63b8ff" stroke="#63b8ff" points="551.04,-112.16 560.79,-108.04 550.59,-105.18 551.04,-112.16"/>
</a>
</g>
</g>
<!-- Node10 -->
<g id="Node000010" class="node">
<title>Node10</title>
<g id="a_Node000010"><a xlink:href="m__time__steppers_8fpp_8f90.html#a2847bfea6f3dc3fdae115a99009f7245" target="_top" xlink:title="2nd order TVD RK time&#45;stepping algorithm">
<polygon fill="white" stroke="#666666" points="524.5,-94 412.5,-94 412.5,-75 524.5,-75 524.5,-94"/>
<text text-anchor="middle" x="468.5" y="-82" font-family="Helvetica,sans-Serif" font-size="10.00">s_2nd_order_tvd_rk</text>
</a>
</g>
</g>
<!-- Node8&#45;&gt;Node10 -->
<g id="edge11_Node000008_Node000010" class="edge">
<title>Node8&#45;&gt;Node10</title>
<g id="a_edge11_Node000008_Node000010"><a xlink:title=" ">
<path fill="none" stroke="#63b8ff" d="M550.41,-93.93C541.78,-92.93 533.16,-91.92 524.93,-90.96"/>
<polygon fill="#63b8ff" stroke="#63b8ff" points="550.19,-97.43 560.53,-95.11 551,-90.48 550.19,-97.43"/>
</a>
</g>
</g>
<!-- Node11 -->
<g id="Node000011" class="node">
<title>Node11</title>
<g id="a_Node000011"><a xlink:href="m__time__steppers_8fpp_8f90.html#ad642c094881f0cffbb6158f9fa079a86" target="_top" xlink:title="3rd order TVD RK time&#45;stepping algorithm">
<polygon fill="white" stroke="#666666" points="523.5,-57 413.5,-57 413.5,-38 523.5,-38 523.5,-57"/>
<text text-anchor="middle" x="468.5" y="-45" font-family="Helvetica,sans-Serif" font-size="10.00">s_3rd_order_tvd_rk</text>
</a>
</g>
</g>
<!-- Node8&#45;&gt;Node11 -->
<g id="edge13_Node000008_Node000011" class="edge">
<title>Node8&#45;&gt;Node11</title>
<g id="a_edge13_Node000008_Node000011"><a xlink:title=" ">
<path fill="none" stroke="#63b8ff" d="M595,-90.58C574.35,-83.46 548.26,-74.49 525,-66.5 516.04,-63.42 506.27,-60.08 497.45,-57.06"/>
<polygon fill="#63b8ff" stroke="#63b8ff" points="594.07,-93.96 604.66,-93.9 596.35,-87.34 594.07,-93.96"/>
</a>
</g>
</g>
<!-- Node9&#45;&gt;Node3 -->
<g id="edge10_Node000009_Node000003" class="edge">
<title>Node9&#45;&gt;Node3</title>
<g id="a_edge10_Node000009_Node000003"><a xlink:title=" ">
<path fill="none" stroke="#63b8ff" d="M250.97,-115.93C239.96,-114.62 228.51,-113.26 217.51,-111.95"/>
<polygon fill="#63b8ff" stroke="#63b8ff" points="250.6,-119.41 260.95,-117.12 251.43,-112.46 250.6,-119.41"/>
</a>
</g>
</g>
<!-- Node10&#45;&gt;Node3 -->
<g id="edge12_Node000010_Node000003" class="edge">
<title>Node10&#45;&gt;Node3</title>
<g id="a_edge12_Node000010_Node000003"><a xlink:title=" ">
<path fill="none" stroke="#63b8ff" d="M402.15,-88.68C347.87,-92.16 271.16,-97.07 217.65,-100.49"/>
<polygon fill="#63b8ff" stroke="#63b8ff" points="402.59,-92.16 412.35,-88.03 402.15,-85.18 402.59,-92.16"/>
</a>
</g>
</g>
<!-- Node11&#45;&gt;Node3 -->
<g id="edge14_Node000011_Node000003" class="edge">
<title>Node11&#45;&gt;Node3</title>
<g id="a_edge14_Node000011_Node000003"><a xlink:title=" ">
<path fill="none" stroke="#63b8ff" d="M403.46,-58.77C361.27,-66.23 304.82,-76.31 255,-85.5 242.92,-87.73 230.03,-90.15 217.66,-92.49"/>
<polygon fill="#63b8ff" stroke="#63b8ff" points="404.08,-62.21 413.32,-57.02 402.86,-55.32 404.08,-62.21"/>
</a>
</g>
</g>
<!-- Node12 -->
<g id="Node000012" class="node">
<title>Node12</title>
<g id="a_Node000012"><a xlink:href="m__time__steppers_8fpp_8f90.html#a5858523edfce42df32b2b0a8af54bc0e" target="_top" xlink:title="Strang splitting scheme with 3rd order TVD RK time&#45;stepping algorithm for the flux term and adaptive ...">
<polygon fill="white" stroke="#666666" points="367,-19 264,-19 264,0 367,0 367,-19"/>
<text text-anchor="middle" x="315.5" y="-7" font-family="Helvetica,sans-Serif" font-size="10.00">s_strang_splitting</text>
</a>
</g>
</g>
<!-- Node11&#45;&gt;Node12 -->
<g id="edge15_Node000011_Node000012" class="edge">
<title>Node11&#45;&gt;Node12</title>
<g id="a_edge15_Node000011_Node000012"><a xlink:title=" ">
<path fill="none" stroke="#63b8ff" d="M419.66,-35.46C398.56,-30.15 374.12,-24 354.33,-19.02"/>
<polygon fill="#63b8ff" stroke="#63b8ff" points="418.84,-38.86 429.4,-37.91 420.55,-32.08 418.84,-38.86"/>
</a>
</g>
</g>
<!-- Node12&#45;&gt;Node3 -->
<g id="edge16_Node000012_Node000003" class="edge">
<title>Node12&#45;&gt;Node3</title>
<g id="a_edge16_Node000012_Node000003"><a xlink:title=" ">
<path fill="none" stroke="#63b8ff" d="M277.51,-22.85C269.91,-26.03 262.08,-29.63 255,-33.5 224.92,-49.95 193.12,-73.79 173.67,-89.22"/>
<polygon fill="#63b8ff" stroke="#63b8ff" points="278.95,-26.05 286.93,-19.07 276.35,-19.55 278.95,-26.05"/>
</a>
</g>
</g>
</g>
</svg>

<g id="navigator" transform="translate(0 0)" fill="#404254">
  <rect fill="#f2f5e9" fill-opacity="0.5" stroke="#606060" stroke-width=".5" x="0" y="0" width="60" height="60"/>
  <use id="zoomplus" xlink:href="#zoomPlus" x="17" y="9" onmousedown="handleZoom(evt,'in')"/>
  <use id="zoomminus" xlink:href="#zoomMin" x="42" y="9" onmousedown="handleZoom(evt,'out')"/>
  <use id="reset" xlink:href="#resetDef" x="30" y="36" onmousedown="handleReset()"/>
   <use id="arrowup" xlink:href="#arrowUp" x="0" y="0" onmousedown="handlePan(0,-1)"/>
  <use id="arrowright" xlink:href="#arrowRight" x="0" y="0" onmousedown="handlePan(1,0)"/>
  <use id="arrowdown" xlink:href="#arrowDown" x="0" y="0" onmousedown="handlePan(0,1)"/>
  <use id="arrowleft" xlink:href="#arrowLeft" x="0" y="0" onmousedown="handlePan(-1,0)"/>
</g>
<svg viewBox="0 0 15 15" width="100%" height="30px" preserveAspectRatio="xMaxYMin meet">
 <g id="arrow_out" transform="scale(0.3 0.3)">
  <a xlink:href="m__bubbles__EL_8fpp_8f90_aa88e25846587d8ed6875ec354d61ce03_icgraph_org.svg" target="_base">
   <rect id="button" ry="5" rx="5" y="6" x="6" height="38" width="38"
        fill="#f2f5e9" fill-opacity="0.5" stroke="#606060" stroke-width="1.0"/>
   <path id="arrow"
     d="M 11.500037,31.436501 C 11.940474,20.09759 22.043105,11.32322 32.158766,21.979434 L 37.068811,17.246167 C 37.068811,17.246167 37.088388,32 37.088388,32 L 22.160133,31.978069 C 22.160133,31.978069 26.997745,27.140456 26.997745,27.140456 C 18.528582,18.264221 13.291696,25.230495 11.500037,31.436501 z"
     style="fill:#404040;"/>
  </a>
 </g>
</svg>

<style type='text/css'>
<![CDATA[
[data-mouse-over-selected='false'] { opacity: 0.7; }
[data-mouse-over-selected='true']  { opacity: 1.0; }
]]>
</style>
<script type="application/ecmascript"><![CDATA[
document.addEventListener('DOMContentLoaded', (event) => {
  highlightEdges();
  highlightAdjacentNodes();
});
]]></script>
</svg>
