<?xml version="1.0" encoding="UTF-8" standalone="no"?>
<!DOCTYPE svg PUBLIC "-//W3C//DTD SVG 1.1//EN"
 "http://www.w3.org/Graphics/SVG/1.1/DTD/svg11.dtd">
<!-- Generated by graphviz version 2.43.0 (0)
 -->
<!-- Title: s_compute_bubble_ee_source Pages: 1 -->
<!--zoomable 661 -->

<svg id="main" version="1.1" xmlns="http://www.w3.org/2000/svg" xmlns:xlink="http://www.w3.org/1999/xlink" xml:space="preserve" onload="init(evt)">

<style type="text/css"><![CDATA[
.node, .edge {opacity: 0.7;}
.node.selected, .edge.selected {opacity: 1;}
.edge:hover path { stroke: red; }
.edge:hover polygon { stroke: red; fill: red; }
]]></style>

<defs>
  <circle id="rim" cx="0" cy="0" r="7"/>
  <circle id="rim2" cx="0" cy="0" r="3.5"/>
  <g id="zoomPlus">
    <use xlink:href="#rim" fill="#404040"><set attributeName="fill" to="#808080" begin="zoomplus.mouseover" end="zoomplus.mouseout"/></use>
    <path d="M-4,0h8M0,-4v8" fill="none" stroke="white" stroke-width="1.5" pointer-events="none"/>
  </g>
  <g id="zoomMin">
    <use xlink:href="#rim" fill="#404040"><set attributeName="fill" to="#808080" begin="zoomminus.mouseover" end="zoomminus.mouseout"/></use>
    <path d="M-4,0h8" fill="none" stroke="white" stroke-width="1.5" pointer-events="none"/>
  </g>
  <g id="arrowUp" transform="translate(30 24)">
    <use xlink:href="#rim"/>
    <path pointer-events="none" fill="none" stroke="white" stroke-width="1.5" d="M0,-3.0v7 M-2.5,-0.5L0,-3.0L2.5,-0.5"/>
  </g>
  <g id="arrowRight" transform="rotate(90) translate(36 -43)">
    <use xlink:href="#rim"/>
    <path pointer-events="none" fill="none" stroke="white" stroke-width="1.5" d="M0,-3.0v7 M-2.5,-0.5L0,-3.0L2.5,-0.5"/>
  </g>
  <g id="arrowDown" transform="rotate(180) translate(-30 -48)">
    <use xlink:href="#rim"/>
    <path pointer-events="none" fill="none" stroke="white" stroke-width="1.5" d="M0,-3.0v7 M-2.5,-0.5L0,-3.0L2.5,-0.5"/>
  </g>
  <g id="arrowLeft" transform="rotate(270) translate(-36 17)">
    <use xlink:href="#rim"/>
    <path pointer-events="none" fill="none" stroke="white" stroke-width="1.5" d="M0,-3.0v7 M-2.5,-0.5L0,-3.0L2.5,-0.5"/>
  </g>
  <g id="resetDef">
    <use xlink:href="#rim2" fill="#404040"><set attributeName="fill" to="#808080" begin="reset.mouseover" end="reset.mouseout"/></use>
  </g>
</defs>
<script type="application/ecmascript">
var viewWidth = 971;
var viewHeight = 661;
var sectionId = 'dynsection-1';
</script>
<script type="application/ecmascript" xlink:href="svg.min.js"/>
<svg id="graph" class="graph">
<g id="viewport">
<title>s_compute_bubble_ee_source</title>
<!-- Node1 -->
<g id="Node000001" class="node">
<title>Node1</title>
<g id="a_Node000001"><a xlink:title="The purpose of this procedure is to compute the source terms that are needed for the bubble modeling.">
<polygon fill="#999999" stroke="#666666" points="125,-203.25 0,-203.25 0,-173.25 125,-173.25 125,-203.25"/>
<text text-anchor="start" x="8" y="-191.25" font-family="Helvetica,sans-Serif" font-size="10.00">s_compute_bubble_ee</text>
<text text-anchor="middle" x="62.5" y="-180.25" font-family="Helvetica,sans-Serif" font-size="10.00">_source</text>
</a>
</g>
</g>
<!-- Node2 -->
<g id="Node000002" class="node">
<title>Node2</title>
<g id="a_Node000002"><a xlink:href="m__bubbles_8fpp_8f90.html#acff61895758b4c0d9b2e92e12b177717" target="_top" xlink:title="Function that computes the time derivative of the internal bubble pressure.">
<polygon fill="white" stroke="#666666" points="633,-634.75 559,-634.75 559,-615.75 633,-615.75 633,-634.75"/>
<text text-anchor="middle" x="596" y="-622.75" font-family="Helvetica,sans-Serif" font-size="10.00">f_bpres_dot</text>
</a>
</g>
</g>
<!-- Node1&#45;&gt;Node2 -->
<g id="edge1_Node000001_Node000002" class="edge">
<title>Node1&#45;&gt;Node2</title>
<g id="a_edge1_Node000001_Node000002"><a xlink:title=" ">
<path fill="none" stroke="#63b8ff" d="M68.44,-203.36C80.56,-239.08 114.22,-330.67 161,-396.25 208.09,-462.27 224.83,-477.82 292,-523.25 373.01,-578.04 486.03,-605.73 548.63,-617.67"/>
<polygon fill="#63b8ff" stroke="#63b8ff" points="548.14,-621.13 558.61,-619.52 549.41,-614.25 548.14,-621.13"/>
</a>
</g>
</g>
<!-- Node3 -->
<g id="Node000003" class="node">
<title>Node3</title>
<g id="a_Node000003"><a xlink:href="m__bubbles_8fpp_8f90.html#a86272c4537ef61fb3828a48b46d372a1" target="_top" xlink:title="Function that computes the bubble radial acceleration based on bubble models.">
<polygon fill="white" stroke="#666666" points="507,-254.75 456,-254.75 456,-235.75 507,-235.75 507,-254.75"/>
<text text-anchor="middle" x="481.5" y="-242.75" font-family="Helvetica,sans-Serif" font-size="10.00">f_rddot</text>
</a>
</g>
</g>
<!-- Node1&#45;&gt;Node3 -->
<g id="edge3_Node000001_Node000003" class="edge">
<title>Node1&#45;&gt;Node3</title>
<g id="a_edge3_Node000001_Node000003"><a xlink:title=" ">
<path fill="none" stroke="#63b8ff" d="M125.11,-192.35C193.63,-197.56 307.39,-208.12 404,-226.25 417.8,-228.84 432.82,-232.41 445.87,-235.75"/>
<polygon fill="#63b8ff" stroke="#63b8ff" points="445.29,-239.21 455.85,-238.36 447.06,-232.44 445.29,-239.21"/>
</a>
</g>
</g>
<!-- Node15 -->
<g id="Node000015" class="node">
<title>Node15</title>
<g id="a_Node000015"><a xlink:href="m__bubbles_8fpp_8f90.html#a87c7db759f5fe85606b168d1b3c89212" target="_top" xlink:title="Adaptive time stepping routine for subgrid bubbles (See Heirer, E. Hairer S.P.Nørsett G....">
<polygon fill="white" stroke="#666666" points="256,-235.75 161,-235.75 161,-216.75 256,-216.75 256,-235.75"/>
<text text-anchor="middle" x="208.5" y="-223.75" font-family="Helvetica,sans-Serif" font-size="10.00">s_advance_step</text>
</a>
</g>
</g>
<!-- Node1&#45;&gt;Node15 -->
<g id="edge26_Node000001_Node000015" class="edge">
<title>Node1&#45;&gt;Node15</title>
<g id="a_edge26_Node000001_Node000015"><a xlink:title=" ">
<path fill="none" stroke="#63b8ff" d="M120.41,-203.27C134.07,-206.87 148.48,-210.68 161.57,-214.13"/>
<polygon fill="#63b8ff" stroke="#63b8ff" points="160.72,-217.53 171.28,-216.69 162.51,-210.76 160.72,-217.53"/>
</a>
</g>
</g>
<!-- Node18 -->
<g id="Node000018" class="node">
<title>Node18</title>
<g id="a_Node000018"><a xlink:href="m__bubbles_8fpp_8f90.html#aa47f0b3b286d9c3d2b3ed8cc172638f4" target="_top" xlink:title="Function that computes the vapour flux.">
<polygon fill="white" stroke="#666666" points="621.5,-587.75 570.5,-587.75 570.5,-568.75 621.5,-568.75 621.5,-587.75"/>
<text text-anchor="middle" x="596" y="-575.75" font-family="Helvetica,sans-Serif" font-size="10.00">s_vflux</text>
</a>
</g>
</g>
<!-- Node1&#45;&gt;Node18 -->
<g id="edge38_Node000001_Node000018" class="edge">
<title>Node1&#45;&gt;Node18</title>
<g id="a_edge38_Node000001_Node000018"><a xlink:title=" ">
<path fill="none" stroke="#63b8ff" d="M72.37,-203.46C108.53,-263.83 251.98,-487.11 440,-568.25 478.59,-584.91 527.66,-584.99 560.13,-582.5"/>
<polygon fill="#63b8ff" stroke="#63b8ff" points="560.82,-585.95 570.47,-581.58 560.2,-578.98 560.82,-585.95"/>
</a>
</g>
</g>
<!-- Node20 -->
<g id="Node000020" class="node">
<title>Node20</title>
<g id="a_Node000020"><a xlink:href="m__bubbles_8fpp_8f90.html#a1984ed0f804328156450067ecc6b5917" target="_top" xlink:title="Subroutine that computes bubble wall properties for vapor bubbles.">
<polygon fill="white" stroke="#666666" points="250,-140.75 167,-140.75 167,-121.75 250,-121.75 250,-140.75"/>
<text text-anchor="middle" x="208.5" y="-128.75" font-family="Helvetica,sans-Serif" font-size="10.00">s_bwproperty</text>
</a>
</g>
</g>
<!-- Node1&#45;&gt;Node20 -->
<g id="edge36_Node000001_Node000020" class="edge">
<title>Node1&#45;&gt;Node20</title>
<g id="a_edge36_Node000001_Node000020"><a xlink:title=" ">
<path fill="none" stroke="#63b8ff" d="M101.71,-173.13C124.11,-164.26 152.15,-153.16 173.74,-144.62"/>
<polygon fill="#63b8ff" stroke="#63b8ff" points="175.15,-147.82 183.16,-140.89 172.57,-141.31 175.15,-147.82"/>
</a>
</g>
</g>
<!-- Node21 -->
<g id="Node000021" class="node">
<title>Node21</title>
<g id="a_Node000021"><a xlink:href="m__mpi__common_8fpp_8f90.html#adbcc47e90968ff0f14ccc2ca3c47586a" target="_top" xlink:title="The subroutine terminates the MPI execution environment.">
<polygon fill="white" stroke="#666666" points="247,-103.75 170,-103.75 170,-84.75 247,-84.75 247,-103.75"/>
<text text-anchor="middle" x="208.5" y="-91.75" font-family="Helvetica,sans-Serif" font-size="10.00">s_mpi_abort</text>
</a>
</g>
</g>
<!-- Node1&#45;&gt;Node21 -->
<g id="edge37_Node000001_Node000021" class="edge">
<title>Node1&#45;&gt;Node21</title>
<g id="a_edge37_Node000001_Node000021"><a xlink:title=" ">
<path fill="none" stroke="#63b8ff" d="M79.69,-173.19C98.21,-156.56 130.01,-129.82 161,-112.25 163.7,-110.72 166.55,-109.27 169.47,-107.9"/>
<polygon fill="#63b8ff" stroke="#63b8ff" points="171.08,-111.01 178.86,-103.82 168.29,-104.59 171.08,-111.01"/>
</a>
</g>
</g>
<!-- Node2&#45;&gt;Node2 -->
<g id="edge2_Node000002_Node000002" class="edge">
<title>Node2&#45;&gt;Node2</title>
<g id="a_edge2_Node000002_Node000002"><a xlink:title=" ">
<path fill="none" stroke="#63b8ff" d="M578.43,-634.83C569.88,-643.48 575.74,-652.75 596,-652.75 608.66,-652.75 615.7,-649.13 617.11,-644.3"/>
<polygon fill="#63b8ff" stroke="#63b8ff" points="620.35,-642.98 613.57,-634.83 613.79,-645.43 620.35,-642.98"/>
</a>
</g>
</g>
<!-- Node3&#45;&gt;Node3 -->
<g id="edge18_Node000003_Node000003" class="edge">
<title>Node3&#45;&gt;Node3</title>
<g id="a_edge18_Node000003_Node000003"><a xlink:title=" ">
<path fill="none" stroke="#63b8ff" d="M463.93,-254.83C455.38,-263.48 461.24,-272.75 481.5,-272.75 494.16,-272.75 501.2,-269.13 502.61,-264.3"/>
<polygon fill="#63b8ff" stroke="#63b8ff" points="505.85,-262.98 499.07,-254.83 499.29,-265.43 505.85,-262.98"/>
</a>
</g>
</g>
<!-- Node4 -->
<g id="Node000004" class="node">
<title>Node4</title>
<g id="a_Node000004"><a xlink:href="m__bubbles_8fpp_8f90.html#a556ff599901d57bfc5f501b3ccac12a5" target="_top" xlink:title="Function that computes the sound speed for the bubble.">
<polygon fill="white" stroke="#666666" points="620,-364.75 572,-364.75 572,-345.75 620,-345.75 620,-364.75"/>
<text text-anchor="middle" x="596" y="-352.75" font-family="Helvetica,sans-Serif" font-size="10.00">f_cgas</text>
</a>
</g>
</g>
<!-- Node3&#45;&gt;Node4 -->
<g id="edge4_Node000003_Node000004" class="edge">
<title>Node3&#45;&gt;Node4</title>
<g id="a_edge4_Node000003_Node000004"><a xlink:title=" ">
<path fill="none" stroke="#63b8ff" d="M488.59,-254.98C500.34,-273.11 527.75,-312.47 559,-337.25 560.36,-338.32 561.78,-339.36 563.26,-340.35"/>
<polygon fill="#63b8ff" stroke="#63b8ff" points="561.66,-343.47 572.05,-345.57 565.24,-337.45 561.66,-343.47"/>
</a>
</g>
</g>
<!-- Node5 -->
<g id="Node000005" class="node">
<title>Node5</title>
<g id="a_Node000005"><a xlink:href="m__bubbles_8fpp_8f90.html#a2e6dbed3ae55ecbcdccefc14faf7d3b8" target="_top" xlink:title="Function that computes that bubble wall pressure for Gilmore bubbles.">
<polygon fill="white" stroke="#666666" points="621.5,-309.75 570.5,-309.75 570.5,-290.75 621.5,-290.75 621.5,-309.75"/>
<text text-anchor="middle" x="596" y="-297.75" font-family="Helvetica,sans-Serif" font-size="10.00">f_cpbw</text>
</a>
</g>
</g>
<!-- Node3&#45;&gt;Node5 -->
<g id="edge6_Node000003_Node000005" class="edge">
<title>Node3&#45;&gt;Node5</title>
<g id="a_edge6_Node000003_Node000005"><a xlink:title=" ">
<path fill="none" stroke="#63b8ff" d="M502.1,-254.83C519.81,-263.49 546.12,-276.35 566.23,-286.18"/>
<polygon fill="#63b8ff" stroke="#63b8ff" points="564.73,-289.35 575.25,-290.6 567.8,-283.06 564.73,-289.35"/>
</a>
</g>
</g>
<!-- Node6 -->
<g id="Node000006" class="node">
<title>Node6</title>
<g id="a_Node000006"><a xlink:href="m__bubbles_8fpp_8f90.html#a30dca898ade85c5f9dd77f22371a00da" target="_top" xlink:title="Function that computes the bubble wall pressure for Keller–Miksis bubbles.">
<polygon fill="white" stroke="#666666" points="632,-199.75 560,-199.75 560,-180.75 632,-180.75 632,-199.75"/>
<text text-anchor="middle" x="596" y="-187.75" font-family="Helvetica,sans-Serif" font-size="10.00">f_cpbw_km</text>
</a>
</g>
</g>
<!-- Node3&#45;&gt;Node6 -->
<g id="edge8_Node000003_Node000006" class="edge">
<title>Node3&#45;&gt;Node6</title>
<g id="a_edge8_Node000003_Node000006"><a xlink:title=" ">
<path fill="none" stroke="#63b8ff" d="M502.1,-235.67C519.81,-227.01 546.12,-214.15 566.23,-204.32"/>
<polygon fill="#63b8ff" stroke="#63b8ff" points="567.8,-207.44 575.25,-199.91 564.73,-201.15 567.8,-207.44"/>
</a>
</g>
</g>
<!-- Node9 -->
<g id="Node000009" class="node">
<title>Node9</title>
<g id="a_Node000009"><a xlink:href="m__bubbles_8fpp_8f90.html#af7fd1de34db00586b080876bfc6ee240" target="_top" xlink:title="Function that computes the time derivative of the driving pressure.">
<polygon fill="white" stroke="#666666" points="628.5,-144.75 563.5,-144.75 563.5,-125.75 628.5,-125.75 628.5,-144.75"/>
<text text-anchor="middle" x="596" y="-132.75" font-family="Helvetica,sans-Serif" font-size="10.00">f_cpinfdot</text>
</a>
</g>
</g>
<!-- Node3&#45;&gt;Node9 -->
<g id="edge12_Node000003_Node000009" class="edge">
<title>Node3&#45;&gt;Node9</title>
<g id="a_edge12_Node000003_Node000009"><a xlink:title=" ">
<path fill="none" stroke="#63b8ff" d="M492.48,-235.49C511.71,-216.69 554.09,-175.26 577.9,-151.97"/>
<polygon fill="#63b8ff" stroke="#63b8ff" points="580.5,-154.33 585.2,-144.83 575.6,-149.32 580.5,-154.33"/>
</a>
</g>
</g>
<!-- Node10 -->
<g id="Node000010" class="node">
<title>Node10</title>
<g id="a_Node000010"><a xlink:href="m__bubbles_8fpp_8f90.html#a53b59cbe0ab1805ab4577ce8628ee6db" target="_top" xlink:title="Function that computes the bubble enthalpy.">
<polygon fill="white" stroke="#666666" points="612,-89.75 580,-89.75 580,-70.75 612,-70.75 612,-89.75"/>
<text text-anchor="middle" x="596" y="-77.75" font-family="Helvetica,sans-Serif" font-size="10.00">f_h</text>
</a>
</g>
</g>
<!-- Node3&#45;&gt;Node10 -->
<g id="edge14_Node000003_Node000010" class="edge">
<title>Node3&#45;&gt;Node10</title>
<g id="a_edge14_Node000003_Node000010"><a xlink:title=" ">
<path fill="none" stroke="#63b8ff" d="M487.13,-235.67C498.05,-213.54 526.9,-157.58 559,-116.25 564.14,-109.63 570.42,-102.97 576.28,-97.21"/>
<polygon fill="#63b8ff" stroke="#63b8ff" points="579.03,-99.43 583.87,-90 574.21,-94.35 579.03,-99.43"/>
</a>
</g>
</g>
<!-- Node11 -->
<g id="Node000011" class="node">
<title>Node11</title>
<g id="a_Node000011"><a xlink:href="m__bubbles_8fpp_8f90.html#a2470f8228158f1b17464174b55b7cb87" target="_top" xlink:title="Function that computes the time derivative of the enthalpy.">
<polygon fill="white" stroke="#666666" points="619.5,-34.75 572.5,-34.75 572.5,-15.75 619.5,-15.75 619.5,-34.75"/>
<text text-anchor="middle" x="596" y="-22.75" font-family="Helvetica,sans-Serif" font-size="10.00">f_hdot</text>
</a>
</g>
</g>
<!-- Node3&#45;&gt;Node11 -->
<g id="edge16_Node000003_Node000011" class="edge">
<title>Node3&#45;&gt;Node11</title>
<g id="a_edge16_Node000003_Node000011"><a xlink:title=" ">
<path fill="none" stroke="#63b8ff" d="M485.11,-235.41C493,-206.77 518.6,-121.63 559,-61.25 563.6,-54.38 569.64,-47.73 575.45,-42.05"/>
<polygon fill="#63b8ff" stroke="#63b8ff" points="578.13,-44.34 583.09,-34.98 573.38,-39.2 578.13,-44.34"/>
</a>
</g>
</g>
<!-- Node12 -->
<g id="Node000012" class="node">
<title>Node12</title>
<g id="a_Node000012"><a xlink:href="m__bubbles_8fpp_8f90.html#a757efca2b83ebf6849098caad22a2393" target="_top" xlink:title="Function that computes the bubble radial acceleration.">
<polygon fill="white" stroke="#666666" points="627,-474.75 565,-474.75 565,-455.75 627,-455.75 627,-474.75"/>
<text text-anchor="middle" x="596" y="-462.75" font-family="Helvetica,sans-Serif" font-size="10.00">f_rddot_g</text>
</a>
</g>
</g>
<!-- Node3&#45;&gt;Node12 -->
<g id="edge19_Node000003_Node000012" class="edge">
<title>Node3&#45;&gt;Node12</title>
<g id="a_edge19_Node000003_Node000012"><a xlink:title=" ">
<path fill="none" stroke="#63b8ff" d="M483.66,-254.97C487.89,-286.55 505.21,-387.7 559,-447.25 559.75,-448.08 560.55,-448.88 561.38,-449.64"/>
<polygon fill="#63b8ff" stroke="#63b8ff" points="559.53,-452.62 569.68,-455.66 563.64,-446.96 559.53,-452.62"/>
</a>
</g>
</g>
<!-- Node13 -->
<g id="Node000013" class="node">
<title>Node13</title>
<g id="a_Node000013"><a xlink:href="m__bubbles_8fpp_8f90.html#afee175b5376a09002788e66a6b5f8bba" target="_top" xlink:title="Function that computes the bubble radial acceleration for Keller–Miksis bubbles.">
<polygon fill="white" stroke="#666666" points="632,-254.75 560,-254.75 560,-235.75 632,-235.75 632,-254.75"/>
<text text-anchor="middle" x="596" y="-242.75" font-family="Helvetica,sans-Serif" font-size="10.00">f_rddot_km</text>
</a>
</g>
</g>
<!-- Node3&#45;&gt;Node13 -->
<g id="edge21_Node000003_Node000013" class="edge">
<title>Node3&#45;&gt;Node13</title>
<g id="a_edge21_Node000003_Node000013"><a xlink:title=" ">
<path fill="none" stroke="#63b8ff" d="M507.19,-245.25C519.58,-245.25 534.98,-245.25 549.42,-245.25"/>
<polygon fill="#63b8ff" stroke="#63b8ff" points="549.7,-248.75 559.7,-245.25 549.7,-241.75 549.7,-248.75"/>
</a>
</g>
</g>
<!-- Node14 -->
<g id="Node000014" class="node">
<title>Node14</title>
<g id="a_Node000014"><a xlink:href="m__bubbles_8fpp_8f90.html#a9452bf200a4d5df3fdb8a3cd16bbd252" target="_top" xlink:title="Function that computes the bubble radial acceleration for Rayleigh&#45;Plesset bubbles.">
<polygon fill="white" stroke="#666666" points="629,-419.75 563,-419.75 563,-400.75 629,-400.75 629,-419.75"/>
<text text-anchor="middle" x="596" y="-407.75" font-family="Helvetica,sans-Serif" font-size="10.00">f_rddot_rp</text>
</a>
</g>
</g>
<!-- Node3&#45;&gt;Node14 -->
<g id="edge24_Node000003_Node000014" class="edge">
<title>Node3&#45;&gt;Node14</title>
<g id="a_edge24_Node000003_Node000014"><a xlink:title=" ">
<path fill="none" stroke="#63b8ff" d="M485.17,-254.75C492.73,-280.15 516.55,-350.48 559,-392.25 559.92,-393.16 560.9,-394.03 561.93,-394.87"/>
<polygon fill="#63b8ff" stroke="#63b8ff" points="560.13,-397.88 570.38,-400.57 564.04,-392.07 560.13,-397.88"/>
</a>
</g>
</g>
<!-- Node4&#45;&gt;Node4 -->
<g id="edge5_Node000004_Node000004" class="edge">
<title>Node4&#45;&gt;Node4</title>
<g id="a_edge5_Node000004_Node000004"><a xlink:title=" ">
<path fill="none" stroke="#63b8ff" d="M578.43,-364.83C569.88,-373.48 575.74,-382.75 596,-382.75 608.66,-382.75 615.7,-379.13 617.11,-374.3"/>
<polygon fill="#63b8ff" stroke="#63b8ff" points="620.35,-372.98 613.57,-364.83 613.79,-375.43 620.35,-372.98"/>
</a>
</g>
</g>
<!-- Node5&#45;&gt;Node5 -->
<g id="edge7_Node000005_Node000005" class="edge">
<title>Node5&#45;&gt;Node5</title>
<g id="a_edge7_Node000005_Node000005"><a xlink:title=" ">
<path fill="none" stroke="#63b8ff" d="M578.43,-309.83C569.88,-318.48 575.74,-327.75 596,-327.75 608.66,-327.75 615.7,-324.13 617.11,-319.3"/>
<polygon fill="#63b8ff" stroke="#63b8ff" points="620.35,-317.98 613.57,-309.83 613.79,-320.43 620.35,-317.98"/>
</a>
</g>
</g>
<!-- Node6&#45;&gt;Node6 -->
<g id="edge9_Node000006_Node000006" class="edge">
<title>Node6&#45;&gt;Node6</title>
<g id="a_edge9_Node000006_Node000006"><a xlink:title=" ">
<path fill="none" stroke="#63b8ff" d="M578.43,-199.83C569.88,-208.48 575.74,-217.75 596,-217.75 608.66,-217.75 615.7,-214.13 617.11,-209.3"/>
<polygon fill="#63b8ff" stroke="#63b8ff" points="620.35,-207.98 613.57,-199.83 613.79,-210.43 620.35,-207.98"/>
</a>
</g>
</g>
<!-- Node7 -->
<g id="Node000007" class="node">
<title>Node7</title>
<g id="a_Node000007"><a xlink:href="namespacem__helper__basic.html#a345e205ced0b0674a22f59a2c1549eb4" target="_top" xlink:title="Checks if a real(wp) variable is of default value.">
<polygon fill="white" stroke="#666666" points="785,-232.25 669,-232.25 669,-202.25 785,-202.25 785,-232.25"/>
<text text-anchor="start" x="677" y="-220.25" font-family="Helvetica,sans-Serif" font-size="10.00">m_helper_basic::f_is</text>
<text text-anchor="middle" x="727" y="-209.25" font-family="Helvetica,sans-Serif" font-size="10.00">_default</text>
</a>
</g>
</g>
<!-- Node6&#45;&gt;Node7 -->
<g id="edge10_Node000006_Node000007" class="edge">
<title>Node6&#45;&gt;Node7</title>
<g id="a_edge10_Node000006_Node000007"><a xlink:title=" ">
<path fill="none" stroke="#63b8ff" d="M632.25,-197.63C640.58,-199.37 649.73,-201.29 658.95,-203.22"/>
<polygon fill="#63b8ff" stroke="#63b8ff" points="658.44,-206.69 668.95,-205.31 659.88,-199.84 658.44,-206.69"/>
</a>
</g>
</g>
<!-- Node8 -->
<g id="Node000008" class="node">
<title>Node8</title>
<g id="a_Node000008"><a xlink:href="namespacem__helper__basic.html#a58590a12d49b9b884256a839f2be8610" target="_top" xlink:title="This procedure checks if two floating point numbers of wp are within tolerance.">
<polygon fill="white" stroke="#666666" points="963,-232.25 821,-232.25 821,-202.25 963,-202.25 963,-232.25"/>
<text text-anchor="start" x="829" y="-220.25" font-family="Helvetica,sans-Serif" font-size="10.00">m_helper_basic::f_approx</text>
<text text-anchor="middle" x="892" y="-209.25" font-family="Helvetica,sans-Serif" font-size="10.00">_equal</text>
</a>
</g>
</g>
<!-- Node7&#45;&gt;Node8 -->
<g id="edge11_Node000007_Node000008" class="edge">
<title>Node7&#45;&gt;Node8</title>
<g id="a_edge11_Node000007_Node000008"><a xlink:title=" ">
<path fill="none" stroke="#63b8ff" d="M785.01,-217.25C793.32,-217.25 802.01,-217.25 810.68,-217.25"/>
<polygon fill="#63b8ff" stroke="#63b8ff" points="810.83,-220.75 820.83,-217.25 810.83,-213.75 810.83,-220.75"/>
</a>
</g>
</g>
<!-- Node9&#45;&gt;Node9 -->
<g id="edge13_Node000009_Node000009" class="edge">
<title>Node9&#45;&gt;Node9</title>
<g id="a_edge13_Node000009_Node000009"><a xlink:title=" ">
<path fill="none" stroke="#63b8ff" d="M578.43,-144.83C569.88,-153.48 575.74,-162.75 596,-162.75 608.66,-162.75 615.7,-159.13 617.11,-154.3"/>
<polygon fill="#63b8ff" stroke="#63b8ff" points="620.35,-152.98 613.57,-144.83 613.79,-155.43 620.35,-152.98"/>
</a>
</g>
</g>
<!-- Node10&#45;&gt;Node10 -->
<g id="edge15_Node000010_Node000010" class="edge">
<title>Node10&#45;&gt;Node10</title>
<g id="a_edge15_Node000010_Node000010"><a xlink:title=" ">
<path fill="none" stroke="#63b8ff" d="M579.97,-88.41C569.28,-97.44 574.62,-107.75 596,-107.75 610.7,-107.75 617.81,-102.88 617.35,-96.9"/>
<polygon fill="#63b8ff" stroke="#63b8ff" points="620.31,-95.02 612.03,-88.41 614.38,-98.75 620.31,-95.02"/>
</a>
</g>
</g>
<!-- Node11&#45;&gt;Node11 -->
<g id="edge17_Node000011_Node000011" class="edge">
<title>Node11&#45;&gt;Node11</title>
<g id="a_edge17_Node000011_Node000011"><a xlink:title=" ">
<path fill="none" stroke="#63b8ff" d="M578.43,-34.83C569.88,-43.48 575.74,-52.75 596,-52.75 608.66,-52.75 615.7,-49.13 617.11,-44.3"/>
<polygon fill="#63b8ff" stroke="#63b8ff" points="620.35,-42.98 613.57,-34.83 613.79,-45.43 620.35,-42.98"/>
</a>
</g>
</g>
<!-- Node12&#45;&gt;Node12 -->
<g id="edge20_Node000012_Node000012" class="edge">
<title>Node12&#45;&gt;Node12</title>
<g id="a_edge20_Node000012_Node000012"><a xlink:title=" ">
<path fill="none" stroke="#63b8ff" d="M578.43,-474.83C569.88,-483.48 575.74,-492.75 596,-492.75 608.66,-492.75 615.7,-489.13 617.11,-484.3"/>
<polygon fill="#63b8ff" stroke="#63b8ff" points="620.35,-482.98 613.57,-474.83 613.79,-485.43 620.35,-482.98"/>
</a>
</g>
</g>
<!-- Node13&#45;&gt;Node7 -->
<g id="edge22_Node000013_Node000007" class="edge">
<title>Node13&#45;&gt;Node7</title>
<g id="a_edge22_Node000013_Node000007"><a xlink:title=" ">
<path fill="none" stroke="#63b8ff" d="M632.25,-237.6C640.58,-235.79 649.73,-233.81 658.95,-231.8"/>
<polygon fill="#63b8ff" stroke="#63b8ff" points="659.92,-235.18 668.95,-229.63 658.43,-228.33 659.92,-235.18"/>
</a>
</g>
</g>
<!-- Node13&#45;&gt;Node13 -->
<g id="edge23_Node000013_Node000013" class="edge">
<title>Node13&#45;&gt;Node13</title>
<g id="a_edge23_Node000013_Node000013"><a xlink:title=" ">
<path fill="none" stroke="#63b8ff" d="M578.43,-254.83C569.88,-263.48 575.74,-272.75 596,-272.75 608.66,-272.75 615.7,-269.13 617.11,-264.3"/>
<polygon fill="#63b8ff" stroke="#63b8ff" points="620.35,-262.98 613.57,-254.83 613.79,-265.43 620.35,-262.98"/>
</a>
</g>
</g>
<!-- Node14&#45;&gt;Node14 -->
<g id="edge25_Node000014_Node000014" class="edge">
<title>Node14&#45;&gt;Node14</title>
<g id="a_edge25_Node000014_Node000014"><a xlink:title=" ">
<path fill="none" stroke="#63b8ff" d="M578.43,-419.83C569.88,-428.48 575.74,-437.75 596,-437.75 608.66,-437.75 615.7,-434.13 617.11,-429.3"/>
<polygon fill="#63b8ff" stroke="#63b8ff" points="620.35,-427.98 613.57,-419.83 613.79,-430.43 620.35,-427.98"/>
</a>
</g>
</g>
<!-- Node15&#45;&gt;Node8 -->
<g id="edge27_Node000015_Node000008" class="edge">
<title>Node15&#45;&gt;Node8</title>
<g id="a_edge27_Node000015_Node000008"><a xlink:title=" ">
<path fill="none" stroke="#63b8ff" d="M219.84,-216.52C259.62,-179.83 408.14,-49.78 559,-6.25 695.34,33.09 829.07,-130.43 874.61,-193.43"/>
<polygon fill="#63b8ff" stroke="#63b8ff" points="872.03,-195.84 880.68,-201.96 877.74,-191.78 872.03,-195.84"/>
</a>
</g>
</g>
<!-- Node16 -->
<g id="Node000016" class="node">
<title>Node16</title>
<g id="a_Node000016"><a xlink:href="m__bubbles_8fpp_8f90.html#a73a3b89afeff2f93b8f79df8ae5f30ca" target="_top" xlink:title="Integrate bubble variables over the given time step size, h, using a third&#45;order accurate embedded Ru...">
<polygon fill="white" stroke="#666666" points="404,-420.75 292,-420.75 292,-401.75 404,-401.75 404,-420.75"/>
<text text-anchor="middle" x="348" y="-408.75" font-family="Helvetica,sans-Serif" font-size="10.00">s_advance_substep</text>
</a>
</g>
</g>
<!-- Node15&#45;&gt;Node16 -->
<g id="edge28_Node000015_Node000016" class="edge">
<title>Node15&#45;&gt;Node16</title>
<g id="a_edge28_Node000015_Node000016"><a xlink:title=" ">
<path fill="none" stroke="#63b8ff" d="M216.7,-235.94C238.7,-265.53 305.26,-355.09 333.79,-393.47"/>
<polygon fill="#63b8ff" stroke="#63b8ff" points="331.1,-395.72 339.87,-401.66 336.72,-391.55 331.1,-395.72"/>
</a>
</g>
</g>
<!-- Node19 -->
<g id="Node000019" class="node">
<title>Node19</title>
<g id="a_Node000019"><a xlink:href="m__bubbles_8fpp_8f90.html#a0fcf1756074e095c38039a51137ae3f3" target="_top" xlink:title="Choose the initial time step size for the adaptive time stepping routine (See Heirer,...">
<polygon fill="white" stroke="#666666" points="403,-254.75 293,-254.75 293,-235.75 403,-235.75 403,-254.75"/>
<text text-anchor="middle" x="348" y="-242.75" font-family="Helvetica,sans-Serif" font-size="10.00">s_initial_substep_h</text>
</a>
</g>
</g>
<!-- Node15&#45;&gt;Node19 -->
<g id="edge34_Node000015_Node000019" class="edge">
<title>Node15&#45;&gt;Node19</title>
<g id="a_edge34_Node000015_Node000019"><a xlink:title=" ">
<path fill="none" stroke="#63b8ff" d="M256.05,-232.68C264.66,-233.87 273.78,-235.13 282.8,-236.38"/>
<polygon fill="#63b8ff" stroke="#63b8ff" points="282.52,-239.87 292.9,-237.78 283.48,-232.94 282.52,-239.87"/>
</a>
</g>
</g>
<!-- Node16&#45;&gt;Node3 -->
<g id="edge30_Node000016_Node000003" class="edge">
<title>Node16&#45;&gt;Node3</title>
<g id="a_edge30_Node000016_Node000003"><a xlink:title=" ">
<path fill="none" stroke="#63b8ff" d="M356.83,-401.36C378.44,-374.08 439.13,-297.47 466.64,-262.75"/>
<polygon fill="#63b8ff" stroke="#63b8ff" points="469.41,-264.89 472.87,-254.88 463.92,-260.54 469.41,-264.89"/>
</a>
</g>
</g>
<!-- Node16&#45;&gt;Node8 -->
<g id="edge29_Node000016_Node000008" class="edge">
<title>Node16&#45;&gt;Node8</title>
<g id="a_edge29_Node000016_Node000008"><a xlink:title=" ">
<path fill="none" stroke="#63b8ff" d="M360.42,-420.76C399.48,-452.08 531.01,-547.5 633,-502.25 757.25,-447.13 847.09,-299.33 878.64,-241.2"/>
<polygon fill="#63b8ff" stroke="#63b8ff" points="881.74,-242.83 883.36,-232.36 875.56,-239.53 881.74,-242.83"/>
</a>
</g>
</g>
<!-- Node17 -->
<g id="Node000017" class="node">
<title>Node17</title>
<g id="a_Node000017"><a xlink:href="m__bubbles_8fpp_8f90.html#addca6dd3c540f5cbb12d79b3bfbc0489" target="_top" xlink:title="Changes of pressure and vapor mass in the lagrange bubbles.">
<polygon fill="white" stroke="#666666" points="523,-558.75 440,-558.75 440,-539.75 523,-539.75 523,-558.75"/>
<text text-anchor="middle" x="481.5" y="-546.75" font-family="Helvetica,sans-Serif" font-size="10.00">s_advance_el</text>
</a>
</g>
</g>
<!-- Node16&#45;&gt;Node17 -->
<g id="edge31_Node000016_Node000017" class="edge">
<title>Node16&#45;&gt;Node17</title>
<g id="a_edge31_Node000016_Node000017"><a xlink:title=" ">
<path fill="none" stroke="#63b8ff" d="M354.87,-420.77C368.08,-441.63 401.98,-492.17 440,-525.25 443.73,-528.5 447.97,-531.55 452.26,-534.33"/>
<polygon fill="#63b8ff" stroke="#63b8ff" points="450.62,-537.43 460.99,-539.59 454.23,-531.43 450.62,-537.43"/>
</a>
</g>
</g>
<!-- Node17&#45;&gt;Node2 -->
<g id="edge32_Node000017_Node000002" class="edge">
<title>Node17&#45;&gt;Node2</title>
<g id="a_edge32_Node000017_Node000002"><a xlink:title=" ">
<path fill="none" stroke="#63b8ff" d="M496.75,-558.88C515.85,-571.78 549.97,-594.83 572.55,-610.08"/>
<polygon fill="#63b8ff" stroke="#63b8ff" points="570.62,-613.01 580.87,-615.7 574.54,-607.2 570.62,-613.01"/>
</a>
</g>
</g>
<!-- Node17&#45;&gt;Node18 -->
<g id="edge33_Node000017_Node000018" class="edge">
<title>Node17&#45;&gt;Node18</title>
<g id="a_edge33_Node000017_Node000018"><a xlink:title=" ">
<path fill="none" stroke="#63b8ff" d="M519.65,-558.83C532.78,-562.21 547.48,-566 560.4,-569.33"/>
<polygon fill="#63b8ff" stroke="#63b8ff" points="559.74,-572.78 570.3,-571.88 561.49,-566 559.74,-572.78"/>
</a>
</g>
</g>
<!-- Node19&#45;&gt;Node3 -->
<g id="edge35_Node000019_Node000003" class="edge">
<title>Node19&#45;&gt;Node3</title>
<g id="a_edge35_Node000019_Node000003"><a xlink:title=" ">
<path fill="none" stroke="#63b8ff" d="M403.25,-245.25C417.51,-245.25 432.51,-245.25 445.46,-245.25"/>
<polygon fill="#63b8ff" stroke="#63b8ff" points="445.8,-248.75 455.8,-245.25 445.8,-241.75 445.8,-248.75"/>
</a>
</g>
</g>
</g>
</svg>

<g id="navigator" transform="translate(0 0)" fill="#404254">
  <rect fill="#f2f5e9" fill-opacity="0.5" stroke="#606060" stroke-width=".5" x="0" y="0" width="60" height="60"/>
  <use id="zoomplus" xlink:href="#zoomPlus" x="17" y="9" onmousedown="handleZoom(evt,'in')"/>
  <use id="zoomminus" xlink:href="#zoomMin" x="42" y="9" onmousedown="handleZoom(evt,'out')"/>
  <use id="reset" xlink:href="#resetDef" x="30" y="36" onmousedown="handleReset()"/>
   <use id="arrowup" xlink:href="#arrowUp" x="0" y="0" onmousedown="handlePan(0,-1)"/>
  <use id="arrowright" xlink:href="#arrowRight" x="0" y="0" onmousedown="handlePan(1,0)"/>
  <use id="arrowdown" xlink:href="#arrowDown" x="0" y="0" onmousedown="handlePan(0,1)"/>
  <use id="arrowleft" xlink:href="#arrowLeft" x="0" y="0" onmousedown="handlePan(-1,0)"/>
</g>
<svg viewBox="0 0 15 15" width="100%" height="30px" preserveAspectRatio="xMaxYMin meet">
 <g id="arrow_out" transform="scale(0.3 0.3)">
  <a xlink:href="m__bubbles__EE_8fpp_8f90_a514683d4d38831caa3cd2da2520c67dc_cgraph_org.svg" target="_base">
   <rect id="button" ry="5" rx="5" y="6" x="6" height="38" width="38"
        fill="#f2f5e9" fill-opacity="0.5" stroke="#606060" stroke-width="1.0"/>
   <path id="arrow"
     d="M 11.500037,31.436501 C 11.940474,20.09759 22.043105,11.32322 32.158766,21.979434 L 37.068811,17.246167 C 37.068811,17.246167 37.088388,32 37.088388,32 L 22.160133,31.978069 C 22.160133,31.978069 26.997745,27.140456 26.997745,27.140456 C 18.528582,18.264221 13.291696,25.230495 11.500037,31.436501 z"
     style="fill:#404040;"/>
  </a>
 </g>
</svg>

<style type='text/css'>
<![CDATA[
[data-mouse-over-selected='false'] { opacity: 0.7; }
[data-mouse-over-selected='true']  { opacity: 1.0; }
]]>
</style>
<script type="application/ecmascript"><![CDATA[
document.addEventListener('DOMContentLoaded', (event) => {
  highlightEdges();
  highlightAdjacentNodes();
});
]]></script>
</svg>
