<?xml version="1.0" encoding="UTF-8" standalone="no"?>
<!DOCTYPE svg PUBLIC "-//W3C//DTD SVG 1.1//EN"
 "http://www.w3.org/Graphics/SVG/1.1/DTD/svg11.dtd">
<!-- Generated by graphviz version 2.43.0 (0)
 -->
<!-- Title: s_any_cbc_boundaries Pages: 1 -->
<svg width="625pt" height="101pt"
 viewBox="0.00 0.00 625.00 101.00" xmlns="http://www.w3.org/2000/svg" xmlns:xlink="http://www.w3.org/1999/xlink">
<g id="graph0" class="graph" transform="scale(1 1) rotate(0) translate(4 97)">
<title>s_any_cbc_boundaries</title>
<!-- Node1 -->
<g id="Node000001" class="node">
<title>Node1</title>
<g id="a_Node000001"><a xlink:title=" ">
<polygon fill="#999999" stroke="#666666" points="617,-55 491,-55 491,-36 617,-36 617,-55"/>
<text text-anchor="middle" x="554" y="-43" font-family="Helvetica,sans-Serif" font-size="10.00">s_any_cbc_boundaries</text>
</a>
</g>
</g>
<!-- Node2 -->
<g id="Node000002" class="node">
<title>Node2</title>
<g id="a_Node000002"><a xlink:href="m__cbc_8fpp_8f90.html#ac8679181a07d098cf600b99a2d616359" target="_top" xlink:title="Module deallocation and/or disassociation procedures.">
<polygon fill="white" stroke="#666666" points="451.5,-37 325.5,-37 325.5,-18 451.5,-18 451.5,-37"/>
<text text-anchor="middle" x="388.5" y="-25" font-family="Helvetica,sans-Serif" font-size="10.00">s_finalize_cbc_module</text>
</a>
</g>
</g>
<!-- Node1&#45;&gt;Node2 -->
<g id="edge1_Node000001_Node000002" class="edge">
<title>Node1&#45;&gt;Node2</title>
<g id="a_edge1_Node000001_Node000002"><a xlink:title=" ">
<path fill="none" stroke="#63b8ff" d="M480.7,-37.54C470.99,-36.47 461.11,-35.38 451.61,-34.34"/>
<polygon fill="#63b8ff" stroke="#63b8ff" points="480.4,-41.03 490.72,-38.64 481.16,-34.07 480.4,-41.03"/>
</a>
</g>
</g>
<!-- Node7 -->
<g id="Node000007" class="node">
<title>Node7</title>
<g id="a_Node000007"><a xlink:href="m__cbc_8fpp_8f90.html#a93f9829e4327e1dbfde890d3eca73da8" target="_top" xlink:title="The computation of parameters, the allocation of memory, the association of pointers and/or the execu...">
<polygon fill="white" stroke="#666666" points="455,-74 322,-74 322,-55 455,-55 455,-74"/>
<text text-anchor="middle" x="388.5" y="-62" font-family="Helvetica,sans-Serif" font-size="10.00">s_initialize_cbc_module</text>
</a>
</g>
</g>
<!-- Node1&#45;&gt;Node7 -->
<g id="edge6_Node000001_Node000007" class="edge">
<title>Node1&#45;&gt;Node7</title>
<g id="a_edge6_Node000001_Node000007"><a xlink:title=" ">
<path fill="none" stroke="#63b8ff" d="M480.51,-53.92C472.06,-54.91 463.49,-55.9 455.14,-56.87"/>
<polygon fill="#63b8ff" stroke="#63b8ff" points="481.19,-57.37 490.72,-52.74 480.38,-50.42 481.19,-57.37"/>
</a>
</g>
</g>
<!-- Node3 -->
<g id="Node000003" class="node">
<title>Node3</title>
<g id="a_Node000003"><a xlink:href="m__cbc_8fpp_8f90.html#a8aaac759a23fea3b31210aa89c940745" target="_top" xlink:title="The module features a large database of characteristic boundary conditions (CBC) for the Euler system...">
<polygon fill="white" stroke="#666666" points="283.5,-56 172.5,-56 172.5,-37 283.5,-37 283.5,-56"/>
<text text-anchor="middle" x="228" y="-44" font-family="Helvetica,sans-Serif" font-size="10.00">__m_cbc_fpp_f90__</text>
</a>
</g>
</g>
<!-- Node2&#45;&gt;Node3 -->
<g id="edge2_Node000002_Node000003" class="edge">
<title>Node2&#45;&gt;Node3</title>
<g id="a_edge2_Node000002_Node000003"><a xlink:title=" ">
<path fill="none" stroke="#63b8ff" d="M315.19,-36.17C304.55,-37.44 293.75,-38.74 283.55,-39.96"/>
<polygon fill="#63b8ff" stroke="#63b8ff" points="315.8,-39.62 325.31,-34.95 314.97,-32.67 315.8,-39.62"/>
</a>
</g>
</g>
<!-- Node4 -->
<g id="Node000004" class="node">
<title>Node4</title>
<g id="a_Node000004"><a xlink:href="m__start__up_8fpp_8f90.html#a3889439c70340fceda8c1cc0e8e0b64a" target="_top" xlink:title=" ">
<polygon fill="white" stroke="#666666" points="283,-19 173,-19 173,0 283,0 283,-19"/>
<text text-anchor="middle" x="228" y="-7" font-family="Helvetica,sans-Serif" font-size="10.00">s_finalize_modules</text>
</a>
</g>
</g>
<!-- Node2&#45;&gt;Node4 -->
<g id="edge3_Node000002_Node000004" class="edge">
<title>Node2&#45;&gt;Node4</title>
<g id="a_edge3_Node000002_Node000004"><a xlink:title=" ">
<path fill="none" stroke="#63b8ff" d="M315.06,-19.27C304.29,-18.05 293.35,-16.81 283.04,-15.64"/>
<polygon fill="#63b8ff" stroke="#63b8ff" points="314.98,-22.79 325.31,-20.44 315.77,-15.83 314.98,-22.79"/>
</a>
</g>
</g>
<!-- Node5 -->
<g id="Node000005" class="node">
<title>Node5</title>
<g id="a_Node000005"><a xlink:href="m__start__up_8fpp_8f90.html#ac09c216e540601049a819ae5b76091b5" target="_top" xlink:title=" ">
<polygon fill="white" stroke="#666666" points="134,-83 0,-83 0,-64 134,-64 134,-83"/>
<text text-anchor="middle" x="67" y="-71" font-family="Helvetica,sans-Serif" font-size="10.00">__m_start_up_fpp_f90__</text>
</a>
</g>
</g>
<!-- Node4&#45;&gt;Node5 -->
<g id="edge4_Node000004_Node000005" class="edge">
<title>Node4&#45;&gt;Node5</title>
<g id="a_edge4_Node000004_Node000005"><a xlink:title=" ">
<path fill="none" stroke="#63b8ff" d="M185.99,-22.39C180.57,-24.32 175.12,-26.38 170,-28.5 153.47,-35.35 150.29,-39.11 134,-46.5 120.47,-52.64 105.12,-58.96 92.64,-63.93"/>
<polygon fill="#63b8ff" stroke="#63b8ff" points="187.33,-25.63 195.64,-19.07 185.05,-19.01 187.33,-25.63"/>
</a>
</g>
</g>
<!-- Node6 -->
<g id="Node000006" class="node">
<title>Node6</title>
<g id="a_Node000006"><a xlink:href="p__main_8fpp_8f90.html#aeec10ee8e2940c953967da3e374e1579" target="_top" xlink:title="Quasi&#45;conservative, shock&#45; and interface&#45; capturing finite&#45;volume scheme for the multicomponent Navie...">
<polygon fill="white" stroke="#666666" points="93.5,-37 40.5,-37 40.5,-18 93.5,-18 93.5,-37"/>
<text text-anchor="middle" x="67" y="-25" font-family="Helvetica,sans-Serif" font-size="10.00">p_main</text>
</a>
</g>
</g>
<!-- Node4&#45;&gt;Node6 -->
<g id="edge5_Node000004_Node000006" class="edge">
<title>Node4&#45;&gt;Node6</title>
<g id="a_edge5_Node000004_Node000006"><a xlink:title=" ">
<path fill="none" stroke="#63b8ff" d="M162.5,-16.8C138.3,-19.54 112.18,-22.5 93.54,-24.61"/>
<polygon fill="#63b8ff" stroke="#63b8ff" points="163.18,-20.25 172.73,-15.64 162.4,-13.29 163.18,-20.25"/>
</a>
</g>
</g>
<!-- Node7&#45;&gt;Node3 -->
<g id="edge7_Node000007_Node000003" class="edge">
<title>Node7&#45;&gt;Node3</title>
<g id="a_edge7_Node000007_Node000003"><a xlink:title=" ">
<path fill="none" stroke="#63b8ff" d="M311.55,-55.88C302.2,-54.81 292.78,-53.74 283.82,-52.73"/>
<polygon fill="#63b8ff" stroke="#63b8ff" points="311.33,-59.37 321.66,-57.02 312.12,-52.42 311.33,-59.37"/>
</a>
</g>
</g>
<!-- Node8 -->
<g id="Node000008" class="node">
<title>Node8</title>
<g id="a_Node000008"><a xlink:href="m__start__up_8fpp_8f90.html#adf1f9241f0635f38fe245fc5dfb9f12a" target="_top" xlink:title=" ">
<polygon fill="white" stroke="#666666" points="286,-93 170,-93 170,-74 286,-74 286,-93"/>
<text text-anchor="middle" x="228" y="-81" font-family="Helvetica,sans-Serif" font-size="10.00">s_initialize_modules</text>
</a>
</g>
</g>
<!-- Node7&#45;&gt;Node8 -->
<g id="edge8_Node000007_Node000008" class="edge">
<title>Node7&#45;&gt;Node8</title>
<g id="a_edge8_Node000007_Node000008"><a xlink:title=" ">
<path fill="none" stroke="#63b8ff" d="M311.68,-73.59C303.14,-74.61 294.55,-75.64 286.3,-76.63"/>
<polygon fill="#63b8ff" stroke="#63b8ff" points="312.15,-77.06 321.66,-72.39 311.31,-70.11 312.15,-77.06"/>
</a>
</g>
</g>
<!-- Node8&#45;&gt;Node5 -->
<g id="edge9_Node000008_Node000005" class="edge">
<title>Node8&#45;&gt;Node5</title>
<g id="a_edge9_Node000008_Node000005"><a xlink:title=" ">
<path fill="none" stroke="#63b8ff" d="M159.5,-79.26C151.14,-78.73 142.59,-78.19 134.24,-77.67"/>
<polygon fill="#63b8ff" stroke="#63b8ff" points="159.4,-82.76 169.6,-79.89 159.84,-75.77 159.4,-82.76"/>
</a>
</g>
</g>
<!-- Node8&#45;&gt;Node6 -->
<g id="edge10_Node000008_Node000006" class="edge">
<title>Node8&#45;&gt;Node6</title>
<g id="a_edge10_Node000008_Node000006"><a xlink:title=" ">
<path fill="none" stroke="#63b8ff" d="M186.17,-70.88C180.72,-69.12 175.21,-67.29 170,-65.5 143.37,-56.34 113.19,-44.97 92.61,-37.07"/>
<polygon fill="#63b8ff" stroke="#63b8ff" points="185.25,-74.26 195.84,-73.98 187.38,-67.6 185.25,-74.26"/>
</a>
</g>
</g>
</g>
</svg>
