<?xml version="1.0" encoding="UTF-8" standalone="no"?>
<!DOCTYPE svg PUBLIC "-//W3C//DTD SVG 1.1//EN"
 "http://www.w3.org/Graphics/SVG/1.1/DTD/svg11.dtd">
<!-- Generated by graphviz version 2.43.0 (0)
 -->
<!-- Title: s_check_inputs_common Pages: 1 -->
<svg width="652pt" height="95pt"
 viewBox="0.00 0.00 652.00 94.50" xmlns="http://www.w3.org/2000/svg" xmlns:xlink="http://www.w3.org/1999/xlink">
<g id="graph0" class="graph" transform="scale(1 1) rotate(0) translate(4 90.5)">
<title>s_check_inputs_common</title>
<!-- Node1 -->
<g id="Node000001" class="node">
<title>Node1</title>
<g id="a_Node000001"><a xlink:title="Checks compatibility of parameters in the input file. Used by all three stages.">
<polygon fill="#999999" stroke="#666666" points="644,-59 505,-59 505,-40 644,-40 644,-59"/>
<text text-anchor="middle" x="574.5" y="-47" font-family="Helvetica,sans-Serif" font-size="10.00">s_check_inputs_common</text>
</a>
</g>
</g>
<!-- Node2 -->
<g id="Node000002" class="node">
<title>Node2</title>
<g id="a_Node000002"><a xlink:href="m__checker__common_8fpp_8f90.html#a3d7d0fa7763c21af55ac8bad130f285a" target="_top" xlink:title=" ">
<polygon fill="white" stroke="#666666" points="469,-86.5 341,-86.5 341,-56.5 469,-56.5 469,-86.5"/>
<text text-anchor="start" x="349" y="-74.5" font-family="Helvetica,sans-Serif" font-size="10.00">__m_checker_common</text>
<text text-anchor="middle" x="405" y="-63.5" font-family="Helvetica,sans-Serif" font-size="10.00">_fpp_f90__</text>
</a>
</g>
</g>
<!-- Node1&#45;&gt;Node2 -->
<g id="edge1_Node000001_Node000002" class="edge">
<title>Node1&#45;&gt;Node2</title>
<g id="a_edge1_Node000001_Node000002"><a xlink:title=" ">
<path fill="none" stroke="#63b8ff" d="M494.82,-59.83C486.21,-60.97 477.51,-62.11 469.12,-63.21"/>
<polygon fill="#63b8ff" stroke="#63b8ff" points="495.43,-63.28 504.89,-58.51 494.52,-56.34 495.43,-63.28"/>
</a>
</g>
</g>
<!-- Node3 -->
<g id="Node000003" class="node">
<title>Node3</title>
<g id="a_Node000003"><a xlink:href="m__start__up_8fpp_8f90.html#af6a41c9370d192d3f131dd239671fa14" target="_top" xlink:title="The goal of this procedure is to verify that each of the user provided inputs is valid and that their...">
<polygon fill="white" stroke="#666666" points="458,-38 352,-38 352,-19 458,-19 458,-38"/>
<text text-anchor="middle" x="405" y="-26" font-family="Helvetica,sans-Serif" font-size="10.00">s_check_input_file</text>
</a>
</g>
</g>
<!-- Node1&#45;&gt;Node3 -->
<g id="edge2_Node000001_Node000003" class="edge">
<title>Node1&#45;&gt;Node3</title>
<g id="a_edge2_Node000001_Node000003"><a xlink:title=" ">
<path fill="none" stroke="#63b8ff" d="M494.92,-39.65C482.43,-38.08 469.78,-36.5 458.09,-35.03"/>
<polygon fill="#63b8ff" stroke="#63b8ff" points="494.53,-43.13 504.89,-40.9 495.4,-36.18 494.53,-43.13"/>
</a>
</g>
</g>
<!-- Node4 -->
<g id="Node000004" class="node">
<title>Node4</title>
<g id="a_Node000004"><a xlink:href="m__start__up_8fpp_8f90.html#ac09c216e540601049a819ae5b76091b5" target="_top" xlink:title=" ">
<polygon fill="white" stroke="#666666" points="134,-56 0,-56 0,-37 134,-37 134,-56"/>
<text text-anchor="middle" x="67" y="-44" font-family="Helvetica,sans-Serif" font-size="10.00">__m_start_up_fpp_f90__</text>
</a>
</g>
</g>
<!-- Node3&#45;&gt;Node4 -->
<g id="edge3_Node000003_Node000004" class="edge">
<title>Node3&#45;&gt;Node4</title>
<g id="a_edge3_Node000003_Node000004"><a xlink:title=" ">
<path fill="none" stroke="#63b8ff" d="M341.57,-31.84C282.56,-35.01 194.33,-39.73 134.13,-42.96"/>
<polygon fill="#63b8ff" stroke="#63b8ff" points="342.07,-35.32 351.87,-31.29 341.7,-28.33 342.07,-35.32"/>
</a>
</g>
</g>
<!-- Node5 -->
<g id="Node000005" class="node">
<title>Node5</title>
<g id="a_Node000005"><a xlink:href="m__start__up_8fpp_8f90.html#a83fe29fa8c08099995587b9463aebcf8" target="_top" xlink:title=" ">
<polygon fill="white" stroke="#666666" points="305,-19 170,-19 170,0 305,0 305,-19"/>
<text text-anchor="middle" x="237.5" y="-7" font-family="Helvetica,sans-Serif" font-size="10.00">s_initialize_mpi_domain</text>
</a>
</g>
</g>
<!-- Node3&#45;&gt;Node5 -->
<g id="edge4_Node000003_Node000005" class="edge">
<title>Node3&#45;&gt;Node5</title>
<g id="a_edge4_Node000003_Node000005"><a xlink:title=" ">
<path fill="none" stroke="#63b8ff" d="M341.39,-21.31C329.53,-19.95 317.08,-18.52 305.1,-17.15"/>
<polygon fill="#63b8ff" stroke="#63b8ff" points="341.3,-24.82 351.63,-22.49 342.1,-17.87 341.3,-24.82"/>
</a>
</g>
</g>
<!-- Node5&#45;&gt;Node4 -->
<g id="edge5_Node000005_Node000004" class="edge">
<title>Node5&#45;&gt;Node4</title>
<g id="a_edge5_Node000005_Node000004"><a xlink:title=" ">
<path fill="none" stroke="#63b8ff" d="M183.13,-21.22C160.05,-26.29 133.39,-32.14 111.54,-36.94"/>
<polygon fill="#63b8ff" stroke="#63b8ff" points="184.09,-24.59 193.11,-19.03 182.59,-17.75 184.09,-24.59"/>
</a>
</g>
</g>
<!-- Node6 -->
<g id="Node000006" class="node">
<title>Node6</title>
<g id="a_Node000006"><a xlink:href="p__main_8fpp_8f90.html#aeec10ee8e2940c953967da3e374e1579" target="_top" xlink:title="Quasi&#45;conservative, shock&#45; and interface&#45; capturing finite&#45;volume scheme for the multicomponent Navie...">
<polygon fill="white" stroke="#666666" points="93.5,-19 40.5,-19 40.5,0 93.5,0 93.5,-19"/>
<text text-anchor="middle" x="67" y="-7" font-family="Helvetica,sans-Serif" font-size="10.00">p_main</text>
</a>
</g>
</g>
<!-- Node5&#45;&gt;Node6 -->
<g id="edge6_Node000005_Node000006" class="edge">
<title>Node5&#45;&gt;Node6</title>
<g id="a_edge6_Node000005_Node000006"><a xlink:title=" ">
<path fill="none" stroke="#63b8ff" d="M159.81,-9.5C136.08,-9.5 111.55,-9.5 93.82,-9.5"/>
<polygon fill="#63b8ff" stroke="#63b8ff" points="159.9,-13 169.9,-9.5 159.9,-6 159.9,-13"/>
</a>
</g>
</g>
</g>
</svg>
