<?xml version="1.0" encoding="UTF-8" standalone="no"?>
<!DOCTYPE svg PUBLIC "-//W3C//DTD SVG 1.1//EN"
 "http://www.w3.org/Graphics/SVG/1.1/DTD/svg11.dtd">
<!-- Generated by graphviz version 2.43.0 (0)
 -->
<!-- Title: s_initialize_cbc_module Pages: 1 -->
<svg width="523pt" height="70pt"
 viewBox="0.00 0.00 523.00 69.50" xmlns="http://www.w3.org/2000/svg" xmlns:xlink="http://www.w3.org/1999/xlink">
<g id="graph0" class="graph" transform="scale(1 1) rotate(0) translate(4 65.5)">
<title>s_initialize_cbc_module</title>
<!-- Node1 -->
<g id="Node000001" class="node">
<title>Node1</title>
<g id="a_Node000001"><a xlink:title="The computation of parameters, the allocation of memory, the association of pointers and/or the execu...">
<polygon fill="#999999" stroke="#666666" points="133,-42.5 0,-42.5 0,-23.5 133,-23.5 133,-42.5"/>
<text text-anchor="middle" x="66.5" y="-30.5" font-family="Helvetica,sans-Serif" font-size="10.00">s_initialize_cbc_module</text>
</a>
</g>
</g>
<!-- Node2 -->
<g id="Node000002" class="node">
<title>Node2</title>
<g id="a_Node000002"><a xlink:href="m__cbc_8fpp_8f90.html#a30c4040c641dbf415536cca445178e84" target="_top" xlink:title=" ">
<polygon fill="white" stroke="#666666" points="308.5,-61.5 182.5,-61.5 182.5,-42.5 308.5,-42.5 308.5,-61.5"/>
<text text-anchor="middle" x="245.5" y="-49.5" font-family="Helvetica,sans-Serif" font-size="10.00">s_any_cbc_boundaries</text>
</a>
</g>
</g>
<!-- Node1&#45;&gt;Node2 -->
<g id="edge1_Node000001_Node000002" class="edge">
<title>Node1&#45;&gt;Node2</title>
<g id="a_edge1_Node000001_Node000002"><a xlink:title=" ">
<path fill="none" stroke="#63b8ff" d="M133.16,-40.05C145.89,-41.41 159.3,-42.85 172.23,-44.24"/>
<polygon fill="#63b8ff" stroke="#63b8ff" points="172.16,-47.75 182.47,-45.34 172.9,-40.79 172.16,-47.75"/>
</a>
</g>
</g>
<!-- Node3 -->
<g id="Node000003" class="node">
<title>Node3</title>
<g id="a_Node000003"><a xlink:href="m__cbc_8fpp_8f90.html#a72c44fba4b33c0653e1ad21b9423b06a" target="_top" xlink:title="Compute CBC coefficients.">
<polygon fill="white" stroke="#666666" points="322,-24.5 169,-24.5 169,-5.5 322,-5.5 322,-24.5"/>
<text text-anchor="middle" x="245.5" y="-12.5" font-family="Helvetica,sans-Serif" font-size="10.00">s_compute_cbc_coefficients</text>
</a>
</g>
</g>
<!-- Node1&#45;&gt;Node3 -->
<g id="edge2_Node000001_Node000003" class="edge">
<title>Node1&#45;&gt;Node3</title>
<g id="a_edge2_Node000001_Node000003"><a xlink:title=" ">
<path fill="none" stroke="#63b8ff" d="M133.16,-26.32C141.5,-25.47 150.14,-24.6 158.74,-23.72"/>
<polygon fill="#63b8ff" stroke="#63b8ff" points="159.2,-27.19 168.8,-22.7 158.49,-20.23 159.2,-27.19"/>
</a>
</g>
</g>
<!-- Node4 -->
<g id="Node000004" class="node">
<title>Node4</title>
<g id="a_Node000004"><a xlink:href="m__cbc_8fpp_8f90.html#a81f1e20487e1a09ae314610505070a7e" target="_top" xlink:title=" ">
<polygon fill="white" stroke="#666666" points="515,-30 358,-30 358,0 515,0 515,-30"/>
<text text-anchor="start" x="366" y="-18" font-family="Helvetica,sans-Serif" font-size="10.00">s_associate_cbc_coefficients</text>
<text text-anchor="middle" x="436.5" y="-7" font-family="Helvetica,sans-Serif" font-size="10.00">_pointers</text>
</a>
</g>
</g>
<!-- Node3&#45;&gt;Node4 -->
<g id="edge3_Node000003_Node000004" class="edge">
<title>Node3&#45;&gt;Node4</title>
<g id="a_edge3_Node000003_Node000004"><a xlink:title=" ">
<path fill="none" stroke="#63b8ff" d="M322.01,-15C330.51,-15 339.22,-15 347.86,-15"/>
<polygon fill="#63b8ff" stroke="#63b8ff" points="347.94,-18.5 357.94,-15 347.94,-11.5 347.94,-18.5"/>
</a>
</g>
</g>
</g>
</svg>
