<?xml version="1.0" encoding="UTF-8" standalone="no"?>
<!DOCTYPE svg PUBLIC "-//W3C//DTD SVG 1.1//EN"
 "http://www.w3.org/Graphics/SVG/1.1/DTD/svg11.dtd">
<!-- Generated by graphviz version 2.43.0 (0)
 -->
<!-- Title: __m_checker_fpp_f90__ Pages: 1 -->
<!--zoomable 711 -->

<svg id="main" version="1.1" xmlns="http://www.w3.org/2000/svg" xmlns:xlink="http://www.w3.org/1999/xlink" xml:space="preserve" onload="init(evt)">

<style type="text/css"><![CDATA[
.node, .edge {opacity: 0.7;}
.node.selected, .edge.selected {opacity: 1;}
.edge:hover path { stroke: red; }
.edge:hover polygon { stroke: red; fill: red; }
]]></style>

<defs>
  <circle id="rim" cx="0" cy="0" r="7"/>
  <circle id="rim2" cx="0" cy="0" r="3.5"/>
  <g id="zoomPlus">
    <use xlink:href="#rim" fill="#404040"><set attributeName="fill" to="#808080" begin="zoomplus.mouseover" end="zoomplus.mouseout"/></use>
    <path d="M-4,0h8M0,-4v8" fill="none" stroke="white" stroke-width="1.5" pointer-events="none"/>
  </g>
  <g id="zoomMin">
    <use xlink:href="#rim" fill="#404040"><set attributeName="fill" to="#808080" begin="zoomminus.mouseover" end="zoomminus.mouseout"/></use>
    <path d="M-4,0h8" fill="none" stroke="white" stroke-width="1.5" pointer-events="none"/>
  </g>
  <g id="arrowUp" transform="translate(30 24)">
    <use xlink:href="#rim"/>
    <path pointer-events="none" fill="none" stroke="white" stroke-width="1.5" d="M0,-3.0v7 M-2.5,-0.5L0,-3.0L2.5,-0.5"/>
  </g>
  <g id="arrowRight" transform="rotate(90) translate(36 -43)">
    <use xlink:href="#rim"/>
    <path pointer-events="none" fill="none" stroke="white" stroke-width="1.5" d="M0,-3.0v7 M-2.5,-0.5L0,-3.0L2.5,-0.5"/>
  </g>
  <g id="arrowDown" transform="rotate(180) translate(-30 -48)">
    <use xlink:href="#rim"/>
    <path pointer-events="none" fill="none" stroke="white" stroke-width="1.5" d="M0,-3.0v7 M-2.5,-0.5L0,-3.0L2.5,-0.5"/>
  </g>
  <g id="arrowLeft" transform="rotate(270) translate(-36 17)">
    <use xlink:href="#rim"/>
    <path pointer-events="none" fill="none" stroke="white" stroke-width="1.5" d="M0,-3.0v7 M-2.5,-0.5L0,-3.0L2.5,-0.5"/>
  </g>
  <g id="resetDef">
    <use xlink:href="#rim2" fill="#404040"><set attributeName="fill" to="#808080" begin="reset.mouseover" end="reset.mouseout"/></use>
  </g>
</defs>
<script type="application/ecmascript">
var viewWidth = 712;
var viewHeight = 711;
var sectionId = 'dynsection-0';
</script>
<script type="application/ecmascript" xlink:href="svg.min.js"/>
<svg id="graph" class="graph">
<g id="viewport">
<title>__m_checker_fpp_f90__</title>
<!-- Node1 -->
<g id="Node000001" class="node">
<title>Node1</title>
<g id="a_Node000001"><a xlink:title=" ">
<polygon fill="#999999" stroke="#666666" points="132,-382.5 0,-382.5 0,-363.5 132,-363.5 132,-382.5"/>
<text text-anchor="middle" x="66" y="-370.5" font-family="Helvetica,sans-Serif" font-size="10.00">__m_checker_fpp_f90__</text>
</a>
</g>
</g>
<!-- Node2 -->
<g id="Node000002" class="node">
<title>Node2</title>
<g id="a_Node000002"><a xlink:href="m__checker_8fpp_8f90.html#a66c49f3c83092720b368c30c6048538a" target="_top" xlink:title="Checks compatibility of parameters in the input file. Used by the simulation stage.">
<polygon fill="white" stroke="#666666" points="259,-382.5 168,-382.5 168,-363.5 259,-363.5 259,-382.5"/>
<text text-anchor="middle" x="213.5" y="-370.5" font-family="Helvetica,sans-Serif" font-size="10.00">s_check_inputs</text>
</a>
</g>
</g>
<!-- Node1&#45;&gt;Node2 -->
<g id="edge1_Node000001_Node000002" class="edge">
<title>Node1&#45;&gt;Node2</title>
<g id="a_edge1_Node000001_Node000002"><a xlink:title=" ">
<path fill="none" stroke="#63b8ff" d="M132.09,-373C140.7,-373 149.45,-373 157.86,-373"/>
<polygon fill="#63b8ff" stroke="#63b8ff" points="157.91,-376.5 167.91,-373 157.91,-369.5 157.91,-376.5"/>
</a>
</g>
</g>
<!-- Node3 -->
<g id="Node000003" class="node">
<title>Node3</title>
<g id="a_Node000003"><a xlink:href="m__checker_8fpp_8f90.html#abbe830eba7de81571f125d9edd621473" target="_top" xlink:title="Checks constraints on acoustic_source parameters.">
<polygon fill="white" stroke="#666666" points="455.5,-702.5 299.5,-702.5 299.5,-683.5 455.5,-683.5 455.5,-702.5"/>
<text text-anchor="middle" x="377.5" y="-690.5" font-family="Helvetica,sans-Serif" font-size="10.00">s_check_inputs_acoustic_src</text>
</a>
</g>
</g>
<!-- Node2&#45;&gt;Node3 -->
<g id="edge2_Node000002_Node000003" class="edge">
<title>Node2&#45;&gt;Node3</title>
<g id="a_edge2_Node000002_Node000003"><a xlink:title=" ">
<path fill="none" stroke="#63b8ff" d="M215.75,-382.68C221.97,-429.45 251.09,-631.48 295,-674 296.49,-675.44 298.06,-676.78 299.71,-678.02"/>
<polygon fill="#63b8ff" stroke="#63b8ff" points="298.14,-681.17 308.48,-683.49 301.84,-675.23 298.14,-681.17"/>
</a>
</g>
</g>
<!-- Node7 -->
<g id="Node000007" class="node">
<title>Node7</title>
<g id="a_Node000007"><a xlink:href="m__checker_8fpp_8f90.html#a53410d93fae624b09410a6037ab72ca4" target="_top" xlink:title="Checks constraints on adaptive time stepping parameters (adap_dt)">
<polygon fill="white" stroke="#666666" points="447,-211.5 308,-211.5 308,-192.5 447,-192.5 447,-211.5"/>
<text text-anchor="middle" x="377.5" y="-199.5" font-family="Helvetica,sans-Serif" font-size="10.00">s_check_inputs_adapt_dt</text>
</a>
</g>
</g>
<!-- Node2&#45;&gt;Node7 -->
<g id="edge6_Node000002_Node000007" class="edge">
<title>Node2&#45;&gt;Node7</title>
<g id="a_edge6_Node000002_Node000007"><a xlink:title=" ">
<path fill="none" stroke="#63b8ff" d="M216.64,-363.36C223.19,-336.3 245.56,-259.09 295,-221 297.32,-219.21 299.78,-217.59 302.34,-216.11"/>
<polygon fill="#63b8ff" stroke="#63b8ff" points="303.98,-219.21 311.4,-211.65 300.89,-212.93 303.98,-219.21"/>
</a>
</g>
</g>
<!-- Node8 -->
<g id="Node000008" class="node">
<title>Node8</title>
<g id="a_Node000008"><a xlink:href="m__checker_8fpp_8f90.html#a890e8e5dba0284794a9a7e25188dbd7f" target="_top" xlink:title="Checks constraints on alternative sound speed parameters (alt_soundspeed)">
<polygon fill="white" stroke="#666666" points="432,-174 323,-174 323,-144 432,-144 432,-174"/>
<text text-anchor="start" x="331" y="-162" font-family="Helvetica,sans-Serif" font-size="10.00">s_check_inputs_alt</text>
<text text-anchor="middle" x="377.5" y="-151" font-family="Helvetica,sans-Serif" font-size="10.00">_soundspeed</text>
</a>
</g>
</g>
<!-- Node2&#45;&gt;Node8 -->
<g id="edge8_Node000002_Node000008" class="edge">
<title>Node2&#45;&gt;Node8</title>
<g id="a_edge8_Node000002_Node000008"><a xlink:title=" ">
<path fill="none" stroke="#63b8ff" d="M215.67,-363.46C219.97,-332.51 237.78,-234.02 295,-183 300.45,-178.14 306.84,-174.26 313.6,-171.17"/>
<polygon fill="#63b8ff" stroke="#63b8ff" points="315.01,-174.38 323,-167.42 312.41,-167.88 315.01,-174.38"/>
</a>
</g>
</g>
<!-- Node9 -->
<g id="Node000009" class="node">
<title>Node9</title>
<g id="a_Node000009"><a xlink:href="m__checker_8fpp_8f90.html#a89185a899611c8b9c8a9fecd6cfe828a" target="_top" xlink:title="Checks constraints on body forces parameters (bf_x[y,z], etc.)">
<polygon fill="white" stroke="#666666" points="437.5,-126 317.5,-126 317.5,-96 437.5,-96 437.5,-126"/>
<text text-anchor="start" x="325.5" y="-114" font-family="Helvetica,sans-Serif" font-size="10.00">s_check_inputs_body</text>
<text text-anchor="middle" x="377.5" y="-103" font-family="Helvetica,sans-Serif" font-size="10.00">_forces</text>
</a>
</g>
</g>
<!-- Node2&#45;&gt;Node9 -->
<g id="edge10_Node000002_Node000009" class="edge">
<title>Node2&#45;&gt;Node9</title>
<g id="a_edge10_Node000002_Node000009"><a xlink:title=" ">
<path fill="none" stroke="#63b8ff" d="M214.76,-363.18C216.27,-327.15 226.44,-200.89 295,-135 298.82,-131.33 303.18,-128.21 307.85,-125.57"/>
<polygon fill="#63b8ff" stroke="#63b8ff" points="309.68,-128.57 317.14,-121.05 306.61,-122.28 309.68,-128.57"/>
</a>
</g>
</g>
<!-- Node10 -->
<g id="Node000010" class="node">
<title>Node10</title>
<g id="a_Node000010"><a xlink:href="m__checker_8fpp_8f90.html#a3e9776ba1676e10c025fc3a7325fdf11" target="_top" xlink:title="Checks constraints on bubble parameters.">
<polygon fill="white" stroke="#666666" points="444.5,-78 310.5,-78 310.5,-48 444.5,-48 444.5,-78"/>
<text text-anchor="start" x="318.5" y="-66" font-family="Helvetica,sans-Serif" font-size="10.00">s_check_inputs_bubbles</text>
<text text-anchor="middle" x="377.5" y="-55" font-family="Helvetica,sans-Serif" font-size="10.00">_euler</text>
</a>
</g>
</g>
<!-- Node2&#45;&gt;Node10 -->
<g id="edge12_Node000002_Node000010" class="edge">
<title>Node2&#45;&gt;Node10</title>
<g id="a_edge12_Node000002_Node000010"><a xlink:title=" ">
<path fill="none" stroke="#63b8ff" d="M214.12,-363.25C213.09,-323.01 214.7,-168.27 295,-87 297.09,-84.89 299.36,-82.95 301.76,-81.19"/>
<polygon fill="#63b8ff" stroke="#63b8ff" points="303.74,-84.08 310.38,-75.83 300.04,-78.14 303.74,-84.08"/>
</a>
</g>
</g>
<!-- Node11 -->
<g id="Node000011" class="node">
<title>Node11</title>
<g id="a_Node000011"><a xlink:href="m__checker_8fpp_8f90.html#a32439099aec521ca9e7a5de00bf53030" target="_top" xlink:title="Checks constraints on lagrangian bubble parameters.">
<polygon fill="white" stroke="#666666" points="444.5,-30 310.5,-30 310.5,0 444.5,0 444.5,-30"/>
<text text-anchor="start" x="318.5" y="-18" font-family="Helvetica,sans-Serif" font-size="10.00">s_check_inputs_bubbles</text>
<text text-anchor="middle" x="377.5" y="-7" font-family="Helvetica,sans-Serif" font-size="10.00">_lagrange</text>
</a>
</g>
</g>
<!-- Node2&#45;&gt;Node11 -->
<g id="edge14_Node000002_Node000011" class="edge">
<title>Node2&#45;&gt;Node11</title>
<g id="a_edge14_Node000002_Node000011"><a xlink:title=" ">
<path fill="none" stroke="#63b8ff" d="M215.53,-363.33C221.01,-313.72 248.24,-88.16 295,-39 297.05,-36.85 299.28,-34.88 301.65,-33.09"/>
<polygon fill="#63b8ff" stroke="#63b8ff" points="303.65,-35.97 310.2,-27.65 299.89,-30.07 303.65,-35.97"/>
</a>
</g>
</g>
<!-- Node12 -->
<g id="Node000012" class="node">
<title>Node12</title>
<g id="a_Node000012"><a xlink:href="m__checker_8fpp_8f90.html#a1ec74473406fc22a2f83913581b1d715" target="_top" xlink:title="Checks constraints on compiler options.">
<polygon fill="white" stroke="#666666" points="449.5,-579.5 305.5,-579.5 305.5,-560.5 449.5,-560.5 449.5,-579.5"/>
<text text-anchor="middle" x="377.5" y="-567.5" font-family="Helvetica,sans-Serif" font-size="10.00">s_check_inputs_compilers</text>
</a>
</g>
</g>
<!-- Node2&#45;&gt;Node12 -->
<g id="edge16_Node000002_Node000012" class="edge">
<title>Node2&#45;&gt;Node12</title>
<g id="a_edge16_Node000002_Node000012"><a xlink:title=" ">
<path fill="none" stroke="#63b8ff" d="M215.89,-382.92C220.69,-413.24 239.43,-505.37 295,-551 297.06,-552.69 299.25,-554.24 301.53,-555.66"/>
<polygon fill="#63b8ff" stroke="#63b8ff" points="300.26,-558.95 310.75,-560.49 303.51,-552.75 300.26,-558.95"/>
</a>
</g>
</g>
<!-- Node13 -->
<g id="Node000013" class="node">
<title>Node13</title>
<g id="a_Node000013"><a xlink:href="m__checker_8fpp_8f90.html#a97581e8fbf3e7e5851a080887b0f8fce" target="_top" xlink:title="Checks constraints on geometry and precision.">
<polygon fill="white" stroke="#666666" points="449,-542 306,-542 306,-512 449,-512 449,-542"/>
<text text-anchor="start" x="314" y="-530" font-family="Helvetica,sans-Serif" font-size="10.00">s_check_inputs_geometry</text>
<text text-anchor="middle" x="377.5" y="-519" font-family="Helvetica,sans-Serif" font-size="10.00">_precision</text>
</a>
</g>
</g>
<!-- Node2&#45;&gt;Node13 -->
<g id="edge18_Node000002_Node000013" class="edge">
<title>Node2&#45;&gt;Node13</title>
<g id="a_edge18_Node000002_Node000013"><a xlink:title=" ">
<path fill="none" stroke="#63b8ff" d="M217.78,-382.85C226.39,-407.11 251.93,-470.17 295,-503 296.81,-504.38 298.7,-505.68 300.65,-506.91"/>
<polygon fill="#63b8ff" stroke="#63b8ff" points="299.1,-510.05 309.55,-511.82 302.49,-503.92 299.1,-510.05"/>
</a>
</g>
</g>
<!-- Node14 -->
<g id="Node000014" class="node">
<title>Node14</title>
<g id="a_Node000014"><a xlink:href="m__checker_8fpp_8f90.html#a81a6cf9985e236ecb2a9b24191d1dccc" target="_top" xlink:title="Checks constraints for GRCBC.">
<polygon fill="white" stroke="#666666" points="438.5,-493.5 316.5,-493.5 316.5,-474.5 438.5,-474.5 438.5,-493.5"/>
<text text-anchor="middle" x="377.5" y="-481.5" font-family="Helvetica,sans-Serif" font-size="10.00">s_check_inputs_grcbc</text>
</a>
</g>
</g>
<!-- Node2&#45;&gt;Node14 -->
<g id="edge20_Node000002_Node000014" class="edge">
<title>Node2&#45;&gt;Node14</title>
<g id="a_edge20_Node000002_Node000014"><a xlink:title=" ">
<path fill="none" stroke="#63b8ff" d="M219.94,-382.69C231.24,-401.88 259.23,-444.69 295,-466 298.71,-468.21 302.66,-470.15 306.75,-471.85"/>
<polygon fill="#63b8ff" stroke="#63b8ff" points="305.89,-475.26 316.48,-475.41 308.29,-468.69 305.89,-475.26"/>
</a>
</g>
</g>
<!-- Node15 -->
<g id="Node000015" class="node">
<title>Node15</title>
<g id="a_Node000015"><a xlink:href="m__checker_8fpp_8f90.html#a3faaf9823edfbc75c4dc5b7fc44606e2" target="_top" xlink:title="Checks constraints on hypoelasticity parameters.">
<polygon fill="white" stroke="#666666" points="460,-456.5 295,-456.5 295,-437.5 460,-437.5 460,-456.5"/>
<text text-anchor="middle" x="377.5" y="-444.5" font-family="Helvetica,sans-Serif" font-size="10.00">s_check_inputs_hypoelasticity</text>
</a>
</g>
</g>
<!-- Node2&#45;&gt;Node15 -->
<g id="edge22_Node000002_Node000015" class="edge">
<title>Node2&#45;&gt;Node15</title>
<g id="a_edge22_Node000002_Node000015"><a xlink:title=" ">
<path fill="none" stroke="#63b8ff" d="M225.38,-382.68C240.11,-395.27 267.71,-417.05 295,-429 299.69,-431.05 304.64,-432.88 309.69,-434.51"/>
<polygon fill="#63b8ff" stroke="#63b8ff" points="308.89,-437.93 319.47,-437.4 310.87,-431.21 308.89,-437.93"/>
</a>
</g>
</g>
<!-- Node16 -->
<g id="Node000016" class="node">
<title>Node16</title>
<g id="a_Node000016"><a xlink:href="m__checker_8fpp_8f90.html#ade4873d166d3432fadbdfeed8f9506dd" target="_top" xlink:title=" ">
<polygon fill="white" stroke="#666666" points="436.5,-419.5 318.5,-419.5 318.5,-400.5 436.5,-400.5 436.5,-419.5"/>
<text text-anchor="middle" x="377.5" y="-407.5" font-family="Helvetica,sans-Serif" font-size="10.00">s_check_inputs_mhd</text>
</a>
</g>
</g>
<!-- Node2&#45;&gt;Node16 -->
<g id="edge24_Node000002_Node000016" class="edge">
<title>Node2&#45;&gt;Node16</title>
<g id="a_edge24_Node000002_Node000016"><a xlink:title=" ">
<path fill="none" stroke="#63b8ff" d="M256.22,-382.53C277.11,-387.3 302.61,-393.12 324.74,-398.18"/>
<polygon fill="#63b8ff" stroke="#63b8ff" points="324.11,-401.63 334.64,-400.44 325.67,-394.8 324.11,-401.63"/>
</a>
</g>
</g>
<!-- Node17 -->
<g id="Node000017" class="node">
<title>Node17</title>
<g id="a_Node000017"><a xlink:href="m__checker_8fpp_8f90.html#a056bdbf07520073ed10595aca47b7669" target="_top" xlink:title="Checks miscellaneous constraints, including constraints on probe_wrt and integral_wrt.">
<polygon fill="white" stroke="#666666" points="437,-382.5 318,-382.5 318,-363.5 437,-363.5 437,-382.5"/>
<text text-anchor="middle" x="377.5" y="-370.5" font-family="Helvetica,sans-Serif" font-size="10.00">s_check_inputs_misc</text>
</a>
</g>
</g>
<!-- Node2&#45;&gt;Node17 -->
<g id="edge26_Node000002_Node000017" class="edge">
<title>Node2&#45;&gt;Node17</title>
<g id="a_edge26_Node000002_Node000017"><a xlink:title=" ">
<path fill="none" stroke="#63b8ff" d="M259.2,-373C274.24,-373 291.4,-373 307.85,-373"/>
<polygon fill="#63b8ff" stroke="#63b8ff" points="307.98,-376.5 317.98,-373 307.98,-369.5 307.98,-376.5"/>
</a>
</g>
</g>
<!-- Node18 -->
<g id="Node000018" class="node">
<title>Node18</title>
<g id="a_Node000018"><a xlink:href="m__checker_8fpp_8f90.html#a61286e89b33872b9abb5005a1117514f" target="_top" xlink:title="Checks constraints on parameters related to 6&#45;equation model.">
<polygon fill="white" stroke="#666666" points="455,-345.5 300,-345.5 300,-326.5 455,-326.5 455,-345.5"/>
<text text-anchor="middle" x="377.5" y="-333.5" font-family="Helvetica,sans-Serif" font-size="10.00">s_check_inputs_model_eqns</text>
</a>
</g>
</g>
<!-- Node2&#45;&gt;Node18 -->
<g id="edge28_Node000002_Node000018" class="edge">
<title>Node2&#45;&gt;Node18</title>
<g id="a_edge28_Node000002_Node000018"><a xlink:title=" ">
<path fill="none" stroke="#63b8ff" d="M254.6,-363.42C267.49,-360.37 281.84,-357.01 295,-354 304.03,-351.94 313.62,-349.78 322.94,-347.71"/>
<polygon fill="#63b8ff" stroke="#63b8ff" points="323.9,-351.09 332.91,-345.51 322.39,-344.25 323.9,-351.09"/>
</a>
</g>
</g>
<!-- Node19 -->
<g id="Node000019" class="node">
<title>Node19</title>
<g id="a_Node000019"><a xlink:href="m__checker_8fpp_8f90.html#a9102145eeb698e567d1df3cc502fb3ca" target="_top" xlink:title="Checks constraints on Riemann solver parameters.">
<polygon fill="white" stroke="#666666" points="446,-308 309,-308 309,-278 446,-278 446,-308"/>
<text text-anchor="start" x="317" y="-296" font-family="Helvetica,sans-Serif" font-size="10.00">s_check_inputs_riemann</text>
<text text-anchor="middle" x="377.5" y="-285" font-family="Helvetica,sans-Serif" font-size="10.00">_solver</text>
</a>
</g>
</g>
<!-- Node2&#45;&gt;Node19 -->
<g id="edge30_Node000002_Node000019" class="edge">
<title>Node2&#45;&gt;Node19</title>
<g id="a_edge30_Node000002_Node000019"><a xlink:title=" ">
<path fill="none" stroke="#63b8ff" d="M225.77,-363.39C240.7,-351.08 268.29,-329.81 295,-317 299,-315.08 303.18,-313.29 307.45,-311.6"/>
<polygon fill="#63b8ff" stroke="#63b8ff" points="308.73,-314.86 316.9,-308.11 306.3,-308.3 308.73,-314.86"/>
</a>
</g>
</g>
<!-- Node20 -->
<g id="Node000020" class="node">
<title>Node20</title>
<g id="a_Node000020"><a xlink:href="m__checker_8fpp_8f90.html#a1594c29ddde8d06f6d719d2640c4bda0" target="_top" xlink:title="Checks constraints on viscosity parameters (fluid_pp(i)Re(1:2)) of the stiffened gas equation of stat...">
<polygon fill="white" stroke="#666666" points="447,-665 308,-665 308,-635 447,-635 447,-665"/>
<text text-anchor="start" x="316" y="-653" font-family="Helvetica,sans-Serif" font-size="10.00">s_check_inputs_stiffened</text>
<text text-anchor="middle" x="377.5" y="-642" font-family="Helvetica,sans-Serif" font-size="10.00">_eos_viscosity</text>
</a>
</g>
</g>
<!-- Node2&#45;&gt;Node20 -->
<g id="edge32_Node000002_Node000020" class="edge">
<title>Node2&#45;&gt;Node20</title>
<g id="a_edge32_Node000002_Node000020"><a xlink:title=" ">
<path fill="none" stroke="#63b8ff" d="M214.53,-382.65C215.2,-419.82 222.69,-555.24 295,-626 296.42,-627.39 297.92,-628.71 299.49,-629.94"/>
<polygon fill="#63b8ff" stroke="#63b8ff" points="297.54,-632.85 307.79,-635.52 301.44,-627.04 297.54,-632.85"/>
</a>
</g>
</g>
<!-- Node21 -->
<g id="Node000021" class="node">
<title>Node21</title>
<g id="a_Node000021"><a xlink:href="m__checker_8fpp_8f90.html#a10a39588572b896b2434e139bb617024" target="_top" xlink:title="Checks constraints on time stepping parameters.">
<polygon fill="white" stroke="#666666" points="437,-260 318,-260 318,-230 437,-230 437,-260"/>
<text text-anchor="start" x="326" y="-248" font-family="Helvetica,sans-Serif" font-size="10.00">s_check_inputs_time</text>
<text text-anchor="middle" x="377.5" y="-237" font-family="Helvetica,sans-Serif" font-size="10.00">_stepping</text>
</a>
</g>
</g>
<!-- Node2&#45;&gt;Node21 -->
<g id="edge35_Node000002_Node000021" class="edge">
<title>Node2&#45;&gt;Node21</title>
<g id="a_edge35_Node000002_Node000021"><a xlink:title=" ">
<path fill="none" stroke="#63b8ff" d="M219.28,-363.33C229.93,-342.77 257.67,-294.5 295,-269 299.23,-266.11 303.81,-263.56 308.58,-261.32"/>
<polygon fill="#63b8ff" stroke="#63b8ff" points="310.07,-264.49 317.91,-257.36 307.33,-258.04 310.07,-264.49"/>
</a>
</g>
</g>
<!-- Node22 -->
<g id="Node000022" class="node">
<title>Node22</title>
<g id="a_Node000022"><a xlink:href="m__checker_8fpp_8f90.html#a23f98a426ce18528b3a31fc119dd4863" target="_top" xlink:title="Checks constraints on WENO scheme parameters.">
<polygon fill="white" stroke="#666666" points="438.5,-616.5 316.5,-616.5 316.5,-597.5 438.5,-597.5 438.5,-616.5"/>
<text text-anchor="middle" x="377.5" y="-604.5" font-family="Helvetica,sans-Serif" font-size="10.00">s_check_inputs_weno</text>
</a>
</g>
</g>
<!-- Node2&#45;&gt;Node22 -->
<g id="edge37_Node000002_Node000022" class="edge">
<title>Node2&#45;&gt;Node22</title>
<g id="a_edge37_Node000002_Node000022"><a xlink:title=" ">
<path fill="none" stroke="#63b8ff" d="M214.97,-382.54C217.19,-416.44 229.47,-532.02 295,-589 298.54,-592.08 302.49,-594.67 306.68,-596.84"/>
<polygon fill="#63b8ff" stroke="#63b8ff" points="305.64,-600.2 316.21,-600.96 308.42,-593.77 305.64,-600.2"/>
</a>
</g>
</g>
<!-- Node4 -->
<g id="Node000004" class="node">
<title>Node4</title>
<g id="a_Node000004"><a xlink:href="m__helper_8fpp_8f90.html#a8a0505b2bd4f3d8cb2bf3ce16cfe01e3" target="_top" xlink:title=" ">
<polygon fill="white" stroke="#666666" points="580,-659.5 507,-659.5 507,-640.5 580,-640.5 580,-659.5"/>
<text text-anchor="middle" x="543.5" y="-647.5" font-family="Helvetica,sans-Serif" font-size="10.00">s_int_to_str</text>
</a>
</g>
</g>
<!-- Node3&#45;&gt;Node4 -->
<g id="edge3_Node000003_Node000004" class="edge">
<title>Node3&#45;&gt;Node4</title>
<g id="a_edge3_Node000003_Node000004"><a xlink:title=" ">
<path fill="none" stroke="#63b8ff" d="M421.33,-683.47C433.83,-680.57 447.49,-677.28 460,-674 473.57,-670.45 488.3,-666.27 501.51,-662.4"/>
<polygon fill="#63b8ff" stroke="#63b8ff" points="502.67,-665.71 511.27,-659.52 500.69,-658.99 502.67,-665.71"/>
</a>
</g>
</g>
<!-- Node5 -->
<g id="Node000005" class="node">
<title>Node5</title>
<g id="a_Node000005"><a xlink:href="m__mpi__common_8fpp_8f90.html#a519ff3c575b59b7e6c42115b237a8a1b" target="_top" xlink:title=" ">
<polygon fill="white" stroke="#666666" points="591,-382.5 496,-382.5 496,-363.5 591,-363.5 591,-382.5"/>
<text text-anchor="middle" x="543.5" y="-370.5" font-family="Helvetica,sans-Serif" font-size="10.00">s_prohibit_abort</text>
</a>
</g>
</g>
<!-- Node3&#45;&gt;Node5 -->
<g id="edge4_Node000003_Node000005" class="edge">
<title>Node3&#45;&gt;Node5</title>
<g id="a_edge4_Node000003_Node000005"><a xlink:title=" ">
<path fill="none" stroke="#63b8ff" d="M446.49,-683.46C451.43,-680.94 456.02,-677.83 460,-674 501.45,-634.12 530.89,-453.35 539.73,-392.82"/>
<polygon fill="#63b8ff" stroke="#63b8ff" points="543.23,-393.08 541.18,-382.68 536.3,-392.09 543.23,-393.08"/>
</a>
</g>
</g>
<!-- Node6 -->
<g id="Node000006" class="node">
<title>Node6</title>
<g id="a_Node000006"><a xlink:href="m__mpi__common_8fpp_8f90.html#a1089c9f9b69c10c74d35a4189ec13c35" target="_top" xlink:title="The subroutine terminates the MPI execution environment.">
<polygon fill="white" stroke="#666666" points="704,-382.5 627,-382.5 627,-363.5 704,-363.5 704,-382.5"/>
<text text-anchor="middle" x="665.5" y="-370.5" font-family="Helvetica,sans-Serif" font-size="10.00">s_mpi_abort</text>
</a>
</g>
</g>
<!-- Node5&#45;&gt;Node6 -->
<g id="edge5_Node000005_Node000006" class="edge">
<title>Node5&#45;&gt;Node6</title>
<g id="a_edge5_Node000005_Node000006"><a xlink:title=" ">
<path fill="none" stroke="#63b8ff" d="M591.24,-373C599.66,-373 608.45,-373 616.89,-373"/>
<polygon fill="#63b8ff" stroke="#63b8ff" points="616.98,-376.5 626.98,-373 616.98,-369.5 616.98,-376.5"/>
</a>
</g>
</g>
<!-- Node7&#45;&gt;Node5 -->
<g id="edge7_Node000007_Node000005" class="edge">
<title>Node7&#45;&gt;Node5</title>
<g id="a_edge7_Node000007_Node000005"><a xlink:title=" ">
<path fill="none" stroke="#63b8ff" d="M443.14,-211.54C449.17,-214.02 454.92,-217.12 460,-221 504.84,-255.18 528.29,-320.99 537.6,-353.65"/>
<polygon fill="#63b8ff" stroke="#63b8ff" points="534.24,-354.62 540.23,-363.36 540.99,-352.79 534.24,-354.62"/>
</a>
</g>
</g>
<!-- Node8&#45;&gt;Node5 -->
<g id="edge9_Node000008_Node000005" class="edge">
<title>Node8&#45;&gt;Node5</title>
<g id="a_edge9_Node000008_Node000005"><a xlink:title=" ">
<path fill="none" stroke="#63b8ff" d="M432.38,-167.62C442.39,-171.13 452.15,-176.06 460,-183 512.48,-229.38 532.86,-315.17 539.61,-353.55"/>
<polygon fill="#63b8ff" stroke="#63b8ff" points="536.16,-354.15 541.22,-363.45 543.07,-353.02 536.16,-354.15"/>
</a>
</g>
</g>
<!-- Node9&#45;&gt;Node5 -->
<g id="edge11_Node000009_Node000005" class="edge">
<title>Node9&#45;&gt;Node5</title>
<g id="a_edge11_Node000009_Node000005"><a xlink:title=" ">
<path fill="none" stroke="#63b8ff" d="M437.82,-121.09C445.98,-124.48 453.7,-128.99 460,-135 523.6,-195.66 538.19,-307.75 541.52,-353.14"/>
<polygon fill="#63b8ff" stroke="#63b8ff" points="538.03,-353.41 542.15,-363.17 545.01,-352.97 538.03,-353.41"/>
</a>
</g>
</g>
<!-- Node10&#45;&gt;Node5 -->
<g id="edge13_Node000010_Node000005" class="edge">
<title>Node10&#45;&gt;Node5</title>
<g id="a_edge13_Node000010_Node000005"><a xlink:title=" ">
<path fill="none" stroke="#63b8ff" d="M444.59,-75.86C450.26,-78.84 455.53,-82.5 460,-87 535.04,-162.46 542.74,-301.58 542.88,-353.11"/>
<polygon fill="#63b8ff" stroke="#63b8ff" points="539.38,-353.21 542.81,-363.24 546.38,-353.26 539.38,-353.21"/>
</a>
</g>
</g>
<!-- Node11&#45;&gt;Node5 -->
<g id="edge15_Node000011_Node000005" class="edge">
<title>Node11&#45;&gt;Node5</title>
<g id="a_edge15_Node000011_Node000005"><a xlink:title=" ">
<path fill="none" stroke="#63b8ff" d="M444.77,-27.68C450.4,-30.7 455.62,-34.42 460,-39 504.31,-85.31 532.31,-288.71 540.2,-353.27"/>
<polygon fill="#63b8ff" stroke="#63b8ff" points="536.74,-353.81 541.41,-363.33 543.69,-352.98 536.74,-353.81"/>
</a>
</g>
</g>
<!-- Node12&#45;&gt;Node5 -->
<g id="edge17_Node000012_Node000005" class="edge">
<title>Node12&#45;&gt;Node5</title>
<g id="a_edge17_Node000012_Node000005"><a xlink:title=" ">
<path fill="none" stroke="#63b8ff" d="M444.22,-560.44C449.89,-557.95 455.27,-554.85 460,-551 511,-509.51 532,-429.39 539.24,-392.48"/>
<polygon fill="#63b8ff" stroke="#63b8ff" points="542.71,-392.97 541.06,-382.5 535.82,-391.71 542.71,-392.97"/>
</a>
</g>
</g>
<!-- Node13&#45;&gt;Node5 -->
<g id="edge19_Node000013_Node000005" class="edge">
<title>Node13&#45;&gt;Node5</title>
<g id="a_edge19_Node000013_Node000005"><a xlink:title=" ">
<path fill="none" stroke="#63b8ff" d="M445,-511.96C450.32,-509.43 455.41,-506.46 460,-503 498.61,-473.9 523.85,-421.02 535.33,-392.49"/>
<polygon fill="#63b8ff" stroke="#63b8ff" points="538.72,-393.44 539.06,-382.85 532.19,-390.91 538.72,-393.44"/>
</a>
</g>
</g>
<!-- Node14&#45;&gt;Node5 -->
<g id="edge21_Node000014_Node000005" class="edge">
<title>Node14&#45;&gt;Node5</title>
<g id="a_edge21_Node000014_Node000005"><a xlink:title=" ">
<path fill="none" stroke="#63b8ff" d="M438.9,-475.2C446.28,-472.83 453.5,-469.82 460,-466 491.61,-447.43 517.59,-412.56 531.5,-391.19"/>
<polygon fill="#63b8ff" stroke="#63b8ff" points="534.49,-393.02 536.86,-382.69 528.57,-389.28 534.49,-393.02"/>
</a>
</g>
</g>
<!-- Node15&#45;&gt;Node5 -->
<g id="edge23_Node000015_Node000005" class="edge">
<title>Node15&#45;&gt;Node5</title>
<g id="a_edge23_Node000015_Node000005"><a xlink:title=" ">
<path fill="none" stroke="#63b8ff" d="M435.06,-437.44C443.59,-435.16 452.15,-432.38 460,-429 483.47,-418.88 507.32,-401.81 523.29,-389.17"/>
<polygon fill="#63b8ff" stroke="#63b8ff" points="525.74,-391.69 531.3,-382.67 521.33,-386.25 525.74,-391.69"/>
</a>
</g>
</g>
<!-- Node16&#45;&gt;Node5 -->
<g id="edge25_Node000016_Node000005" class="edge">
<title>Node16&#45;&gt;Node5</title>
<g id="a_edge25_Node000016_Node000005"><a xlink:title=" ">
<path fill="none" stroke="#63b8ff" d="M420.73,-400.47C441.89,-395.7 467.69,-389.88 490.1,-384.82"/>
<polygon fill="#63b8ff" stroke="#63b8ff" points="491.14,-388.18 500.12,-382.56 489.6,-381.35 491.14,-388.18"/>
</a>
</g>
</g>
<!-- Node17&#45;&gt;Node5 -->
<g id="edge27_Node000017_Node000005" class="edge">
<title>Node17&#45;&gt;Node5</title>
<g id="a_edge27_Node000017_Node000005"><a xlink:title=" ">
<path fill="none" stroke="#63b8ff" d="M437.24,-373C453.08,-373 470.17,-373 485.89,-373"/>
<polygon fill="#63b8ff" stroke="#63b8ff" points="485.99,-376.5 495.99,-373 485.99,-369.5 485.99,-376.5"/>
</a>
</g>
</g>
<!-- Node18&#45;&gt;Node5 -->
<g id="edge29_Node000018_Node000005" class="edge">
<title>Node18&#45;&gt;Node5</title>
<g id="a_edge29_Node000018_Node000005"><a xlink:title=" ">
<path fill="none" stroke="#63b8ff" d="M422.08,-345.55C434.35,-348.26 447.7,-351.23 460,-354 470.21,-356.3 481.13,-358.8 491.57,-361.2"/>
<polygon fill="#63b8ff" stroke="#63b8ff" points="490.86,-364.62 501.39,-363.46 492.43,-357.8 490.86,-364.62"/>
</a>
</g>
</g>
<!-- Node19&#45;&gt;Node5 -->
<g id="edge31_Node000019_Node000005" class="edge">
<title>Node19&#45;&gt;Node5</title>
<g id="a_edge31_Node000019_Node000005"><a xlink:title=" ">
<path fill="none" stroke="#63b8ff" d="M437.63,-308.04C445.3,-310.68 452.93,-313.66 460,-317 482.98,-327.86 506.73,-344.68 522.82,-357.05"/>
<polygon fill="#63b8ff" stroke="#63b8ff" points="520.88,-359.98 530.91,-363.4 525.21,-354.48 520.88,-359.98"/>
</a>
</g>
</g>
<!-- Node20&#45;&gt;Node4 -->
<g id="edge33_Node000020_Node000004" class="edge">
<title>Node20&#45;&gt;Node4</title>
<g id="a_edge33_Node000020_Node000004"><a xlink:title=" ">
<path fill="none" stroke="#63b8ff" d="M447.1,-650C463.79,-650 481.24,-650 496.58,-650"/>
<polygon fill="#63b8ff" stroke="#63b8ff" points="496.83,-653.5 506.83,-650 496.83,-646.5 496.83,-653.5"/>
</a>
</g>
</g>
<!-- Node20&#45;&gt;Node5 -->
<g id="edge34_Node000020_Node000005" class="edge">
<title>Node20&#45;&gt;Node5</title>
<g id="a_edge34_Node000020_Node000005"><a xlink:title=" ">
<path fill="none" stroke="#63b8ff" d="M447.18,-635.49C451.84,-632.83 456.19,-629.7 460,-626 527.19,-560.72 539.7,-440.11 542,-392.79"/>
<polygon fill="#63b8ff" stroke="#63b8ff" points="545.5,-392.78 542.38,-382.65 538.51,-392.51 545.5,-392.78"/>
</a>
</g>
</g>
<!-- Node21&#45;&gt;Node5 -->
<g id="edge36_Node000021_Node000005" class="edge">
<title>Node21&#45;&gt;Node5</title>
<g id="a_edge36_Node000021_Node000005"><a xlink:title=" ">
<path fill="none" stroke="#63b8ff" d="M437.04,-257.44C445.12,-260.5 453.03,-264.3 460,-269 493.11,-291.32 519.19,-331.06 532.59,-354.42"/>
<polygon fill="#63b8ff" stroke="#63b8ff" points="529.62,-356.29 537.54,-363.33 535.74,-352.89 529.62,-356.29"/>
</a>
</g>
</g>
<!-- Node22&#45;&gt;Node4 -->
<g id="edge38_Node000022_Node000004" class="edge">
<title>Node22&#45;&gt;Node4</title>
<g id="a_edge38_Node000022_Node000004"><a xlink:title=" ">
<path fill="none" stroke="#63b8ff" d="M421.33,-616.53C433.83,-619.43 447.49,-622.72 460,-626 473.57,-629.55 488.3,-633.73 501.51,-637.6"/>
<polygon fill="#63b8ff" stroke="#63b8ff" points="500.69,-641.01 511.27,-640.48 502.67,-634.29 500.69,-641.01"/>
</a>
</g>
</g>
<!-- Node22&#45;&gt;Node5 -->
<g id="edge39_Node000022_Node000005" class="edge">
<title>Node22&#45;&gt;Node5</title>
<g id="a_edge39_Node000022_Node000005"><a xlink:title=" ">
<path fill="none" stroke="#63b8ff" d="M438.75,-600.91C446.5,-598.14 453.86,-594.3 460,-589 520.43,-536.89 536.75,-435.48 541.03,-392.74"/>
<polygon fill="#63b8ff" stroke="#63b8ff" points="544.54,-392.82 541.93,-382.55 537.57,-392.2 544.54,-392.82"/>
</a>
</g>
</g>
</g>
</svg>

<g id="navigator" transform="translate(0 0)" fill="#404254">
  <rect fill="#f2f5e9" fill-opacity="0.5" stroke="#606060" stroke-width=".5" x="0" y="0" width="60" height="60"/>
  <use id="zoomplus" xlink:href="#zoomPlus" x="17" y="9" onmousedown="handleZoom(evt,'in')"/>
  <use id="zoomminus" xlink:href="#zoomMin" x="42" y="9" onmousedown="handleZoom(evt,'out')"/>
  <use id="reset" xlink:href="#resetDef" x="30" y="36" onmousedown="handleReset()"/>
   <use id="arrowup" xlink:href="#arrowUp" x="0" y="0" onmousedown="handlePan(0,-1)"/>
  <use id="arrowright" xlink:href="#arrowRight" x="0" y="0" onmousedown="handlePan(1,0)"/>
  <use id="arrowdown" xlink:href="#arrowDown" x="0" y="0" onmousedown="handlePan(0,1)"/>
  <use id="arrowleft" xlink:href="#arrowLeft" x="0" y="0" onmousedown="handlePan(-1,0)"/>
</g>
<svg viewBox="0 0 15 15" width="100%" height="30px" preserveAspectRatio="xMaxYMin meet">
 <g id="arrow_out" transform="scale(0.3 0.3)">
  <a xlink:href="m__checker_8fpp_8f90_a975b2bfe62199545eeb2519e9afb1395_cgraph_org.svg" target="_base">
   <rect id="button" ry="5" rx="5" y="6" x="6" height="38" width="38"
        fill="#f2f5e9" fill-opacity="0.5" stroke="#606060" stroke-width="1.0"/>
   <path id="arrow"
     d="M 11.500037,31.436501 C 11.940474,20.09759 22.043105,11.32322 32.158766,21.979434 L 37.068811,17.246167 C 37.068811,17.246167 37.088388,32 37.088388,32 L 22.160133,31.978069 C 22.160133,31.978069 26.997745,27.140456 26.997745,27.140456 C 18.528582,18.264221 13.291696,25.230495 11.500037,31.436501 z"
     style="fill:#404040;"/>
  </a>
 </g>
</svg>

<style type='text/css'>
<![CDATA[
[data-mouse-over-selected='false'] { opacity: 0.7; }
[data-mouse-over-selected='true']  { opacity: 1.0; }
]]>
</style>
<script type="application/ecmascript"><![CDATA[
document.addEventListener('DOMContentLoaded', (event) => {
  highlightEdges();
  highlightAdjacentNodes();
});
]]></script>
</svg>
