<?xml version="1.0" encoding="UTF-8" standalone="no"?>
<!DOCTYPE svg PUBLIC "-//W3C//DTD SVG 1.1//EN"
 "http://www.w3.org/Graphics/SVG/1.1/DTD/svg11.dtd">
<!-- Generated by graphviz version 2.43.0 (0)
 -->
<!-- Title: s_check_inputs_weno Pages: 1 -->
<svg width="389pt" height="120pt"
 viewBox="0.00 0.00 389.00 120.00" xmlns="http://www.w3.org/2000/svg" xmlns:xlink="http://www.w3.org/1999/xlink">

<svg id="main" version="1.1" xmlns="http://www.w3.org/2000/svg" xmlns:xlink="http://www.w3.org/1999/xlink" xml:space="preserve">

<style type="text/css"><![CDATA[
.node, .edge {opacity: 0.7;}
.node.selected, .edge.selected {opacity: 1;}
.edge:hover path { stroke: red; }
.edge:hover polygon { stroke: red; fill: red; }
]]></style>
<script type="application/ecmascript" xlink:href="svg.min.js"/>
<svg id="graph" class="graph">
<g id="graph0" class="graph" transform="scale(1 1) rotate(0) translate(4 116)">
<title>s_check_inputs_weno</title>
<!-- Node1 -->
<g id="Node000001" class="node">
<title>Node1</title>
<g id="a_Node000001"><a xlink:title="Checks constraints on WENO scheme parameters.">
<polygon fill="#999999" stroke="#666666" points="122,-74 0,-74 0,-55 122,-55 122,-74"/>
<text text-anchor="middle" x="61" y="-62" font-family="Helvetica,sans-Serif" font-size="10.00">s_check_inputs_weno</text>
</a>
</g>
</g>
<!-- Node2 -->
<g id="Node000002" class="node">
<title>Node2</title>
<g id="a_Node000002"><a xlink:href="m__helper__basic_8fpp_8f90.html#a49aa1857cb519bdc6b35434fd1821cab" target="_top" xlink:title="This procedure checks if two floating point numbers of wp are within tolerance.">
<polygon fill="white" stroke="#666666" points="381,-112 289,-112 289,-93 381,-93 381,-112"/>
<text text-anchor="middle" x="335" y="-100" font-family="Helvetica,sans-Serif" font-size="10.00">f_approx_equal</text>
</a>
</g>
</g>
<!-- Node1&#45;&gt;Node2 -->
<g id="edge1_Node000001_Node000002" class="edge">
<title>Node1&#45;&gt;Node2</title>
<g id="a_edge1_Node000001_Node000002"><a xlink:title=" ">
<path fill="none" stroke="#63b8ff" d="M80.14,-74.08C98.99,-83.46 129.65,-97.09 158,-102.5 197.88,-110.11 243.78,-109.82 278.71,-107.78"/>
<polygon fill="#63b8ff" stroke="#63b8ff" points="278.96,-111.27 288.71,-107.13 278.51,-104.28 278.96,-111.27"/>
</a>
</g>
</g>
<!-- Node3 -->
<g id="Node000003" class="node">
<title>Node3</title>
<g id="a_Node000003"><a xlink:href="m__helper__basic_8fpp_8f90.html#af13561cd8191e20b0ee3bdf335944ce5" target="_top" xlink:title="Checks if a real(wp) variable is of default value.">
<polygon fill="white" stroke="#666666" points="242.5,-93 168.5,-93 168.5,-74 242.5,-74 242.5,-93"/>
<text text-anchor="middle" x="205.5" y="-81" font-family="Helvetica,sans-Serif" font-size="10.00">f_is_default</text>
</a>
</g>
</g>
<!-- Node1&#45;&gt;Node3 -->
<g id="edge2_Node000001_Node000003" class="edge">
<title>Node1&#45;&gt;Node3</title>
<g id="a_edge2_Node000001_Node000003"><a xlink:title=" ">
<path fill="none" stroke="#63b8ff" d="M122.02,-72.5C134.02,-74.1 146.45,-75.76 157.91,-77.29"/>
<polygon fill="#63b8ff" stroke="#63b8ff" points="157.75,-80.8 168.12,-78.65 158.67,-73.86 157.75,-80.8"/>
</a>
</g>
</g>
<!-- Node4 -->
<g id="Node000004" class="node">
<title>Node4</title>
<g id="a_Node000004"><a xlink:href="m__helper_8fpp_8f90.html#a61ed7167a8466d96b3403bf41febc469" target="_top" xlink:title=" ">
<polygon fill="white" stroke="#666666" points="242,-56 169,-56 169,-37 242,-37 242,-56"/>
<text text-anchor="middle" x="205.5" y="-44" font-family="Helvetica,sans-Serif" font-size="10.00">s_int_to_str</text>
</a>
</g>
</g>
<!-- Node1&#45;&gt;Node4 -->
<g id="edge4_Node000001_Node000004" class="edge">
<title>Node1&#45;&gt;Node4</title>
<g id="a_edge4_Node000001_Node000004"><a xlink:title=" ">
<path fill="none" stroke="#63b8ff" d="M122.02,-56.92C134.37,-55.36 147.19,-53.74 158.93,-52.26"/>
<polygon fill="#63b8ff" stroke="#63b8ff" points="159.45,-55.72 168.94,-50.99 158.58,-48.77 159.45,-55.72"/>
</a>
</g>
</g>
<!-- Node5 -->
<g id="Node000005" class="node">
<title>Node5</title>
<g id="a_Node000005"><a xlink:href="m__mpi__common_8fpp_8f90.html#a7a63ba325e6315d6d7dc45c614d65347" target="_top" xlink:title=" ">
<polygon fill="white" stroke="#666666" points="253,-19 158,-19 158,0 253,0 253,-19"/>
<text text-anchor="middle" x="205.5" y="-7" font-family="Helvetica,sans-Serif" font-size="10.00">s_prohibit_abort</text>
</a>
</g>
</g>
<!-- Node1&#45;&gt;Node5 -->
<g id="edge5_Node000001_Node000005" class="edge">
<title>Node1&#45;&gt;Node5</title>
<g id="a_edge5_Node000001_Node000005"><a xlink:title=" ">
<path fill="none" stroke="#63b8ff" d="M86.82,-54.92C109.87,-46.02 144.41,-32.69 170.11,-22.77"/>
<polygon fill="#63b8ff" stroke="#63b8ff" points="171.42,-26.02 179.48,-19.16 168.9,-19.49 171.42,-26.02"/>
</a>
</g>
</g>
<!-- Node3&#45;&gt;Node2 -->
<g id="edge3_Node000003_Node000002" class="edge">
<title>Node3&#45;&gt;Node2</title>
<g id="a_edge3_Node000003_Node000002"><a xlink:title=" ">
<path fill="none" stroke="#63b8ff" d="M242.7,-88.89C253.85,-90.56 266.41,-92.43 278.55,-94.24"/>
<polygon fill="#63b8ff" stroke="#63b8ff" points="278.21,-97.72 288.62,-95.74 279.24,-90.8 278.21,-97.72"/>
</a>
</g>
</g>
<!-- Node6 -->
<g id="Node000006" class="node">
<title>Node6</title>
<g id="a_Node000006"><a xlink:href="m__mpi__common_8fpp_8f90.html#adbcc47e90968ff0f14ccc2ca3c47586a" target="_top" xlink:title="The subroutine terminates the MPI execution environment.">
<polygon fill="white" stroke="#666666" points="373.5,-19 296.5,-19 296.5,0 373.5,0 373.5,-19"/>
<text text-anchor="middle" x="335" y="-7" font-family="Helvetica,sans-Serif" font-size="10.00">s_mpi_abort</text>
</a>
</g>
</g>
<!-- Node5&#45;&gt;Node6 -->
<g id="edge6_Node000005_Node000006" class="edge">
<title>Node5&#45;&gt;Node6</title>
<g id="a_edge6_Node000005_Node000006"><a xlink:title=" ">
<path fill="none" stroke="#63b8ff" d="M253.25,-9.5C264.02,-9.5 275.49,-9.5 286.31,-9.5"/>
<polygon fill="#63b8ff" stroke="#63b8ff" points="286.42,-13 296.42,-9.5 286.42,-6 286.42,-13"/>
</a>
</g>
</g>
</g>
</svg>
</svg>

<style type='text/css'>
<![CDATA[
[data-mouse-over-selected='false'] { opacity: 0.7; }
[data-mouse-over-selected='true']  { opacity: 1.0; }
]]>
</style>
<script type="application/ecmascript"><![CDATA[
document.addEventListener('DOMContentLoaded', (event) => {
  highlightEdges();
  highlightAdjacentNodes();
});
]]></script>
</svg>
