<?xml version="1.0" encoding="UTF-8" standalone="no"?>
<!DOCTYPE svg PUBLIC "-//W3C//DTD SVG 1.1//EN"
 "http://www.w3.org/Graphics/SVG/1.1/DTD/svg11.dtd">
<!-- Generated by graphviz version 2.43.0 (0)
 -->
<!-- Title: s_check_inputs Pages: 1 -->
<!--zoomable 759 -->

<svg id="main" version="1.1" xmlns="http://www.w3.org/2000/svg" xmlns:xlink="http://www.w3.org/1999/xlink" xml:space="preserve" onload="init(evt)">

<style type="text/css"><![CDATA[
.node, .edge {opacity: 0.7;}
.node.selected, .edge.selected {opacity: 1;}
.edge:hover path { stroke: red; }
.edge:hover polygon { stroke: red; fill: red; }
]]></style>

<defs>
  <circle id="rim" cx="0" cy="0" r="7"/>
  <circle id="rim2" cx="0" cy="0" r="3.5"/>
  <g id="zoomPlus">
    <use xlink:href="#rim" fill="#404040"><set attributeName="fill" to="#808080" begin="zoomplus.mouseover" end="zoomplus.mouseout"/></use>
    <path d="M-4,0h8M0,-4v8" fill="none" stroke="white" stroke-width="1.5" pointer-events="none"/>
  </g>
  <g id="zoomMin">
    <use xlink:href="#rim" fill="#404040"><set attributeName="fill" to="#808080" begin="zoomminus.mouseover" end="zoomminus.mouseout"/></use>
    <path d="M-4,0h8" fill="none" stroke="white" stroke-width="1.5" pointer-events="none"/>
  </g>
  <g id="arrowUp" transform="translate(30 24)">
    <use xlink:href="#rim"/>
    <path pointer-events="none" fill="none" stroke="white" stroke-width="1.5" d="M0,-3.0v7 M-2.5,-0.5L0,-3.0L2.5,-0.5"/>
  </g>
  <g id="arrowRight" transform="rotate(90) translate(36 -43)">
    <use xlink:href="#rim"/>
    <path pointer-events="none" fill="none" stroke="white" stroke-width="1.5" d="M0,-3.0v7 M-2.5,-0.5L0,-3.0L2.5,-0.5"/>
  </g>
  <g id="arrowDown" transform="rotate(180) translate(-30 -48)">
    <use xlink:href="#rim"/>
    <path pointer-events="none" fill="none" stroke="white" stroke-width="1.5" d="M0,-3.0v7 M-2.5,-0.5L0,-3.0L2.5,-0.5"/>
  </g>
  <g id="arrowLeft" transform="rotate(270) translate(-36 17)">
    <use xlink:href="#rim"/>
    <path pointer-events="none" fill="none" stroke="white" stroke-width="1.5" d="M0,-3.0v7 M-2.5,-0.5L0,-3.0L2.5,-0.5"/>
  </g>
  <g id="resetDef">
    <use xlink:href="#rim2" fill="#404040"><set attributeName="fill" to="#808080" begin="reset.mouseover" end="reset.mouseout"/></use>
  </g>
</defs>
<script type="application/ecmascript">
var viewWidth = 544;
var viewHeight = 759;
var sectionId = 'dynsection-1';
</script>
<script type="application/ecmascript" xlink:href="svg.min.js"/>
<svg id="graph" class="graph">
<g id="viewport">
<title>s_check_inputs</title>
<!-- Node1 -->
<g id="Node000001" class="node">
<title>Node1</title>
<g id="a_Node000001"><a xlink:title="Checks compatibility of parameters in the input file. Used by the simulation stage.">
<polygon fill="#999999" stroke="#666666" points="91,-401 0,-401 0,-382 91,-382 91,-401"/>
<text text-anchor="middle" x="45.5" y="-389" font-family="Helvetica,sans-Serif" font-size="10.00">s_check_inputs</text>
</a>
</g>
</g>
<!-- Node2 -->
<g id="Node000002" class="node">
<title>Node2</title>
<g id="a_Node000002"><a xlink:href="m__checker_8fpp_8f90.html#a277666bd74dad2ac2969d23cdd8d9ef4" target="_top" xlink:title="Checks constraints on acoustic_source parameters.">
<polygon fill="white" stroke="#666666" points="287.5,-751 131.5,-751 131.5,-732 287.5,-732 287.5,-751"/>
<text text-anchor="middle" x="209.5" y="-739" font-family="Helvetica,sans-Serif" font-size="10.00">s_check_inputs_acoustic_src</text>
</a>
</g>
</g>
<!-- Node1&#45;&gt;Node2 -->
<g id="edge1_Node000001_Node000002" class="edge">
<title>Node1&#45;&gt;Node2</title>
<g id="a_edge1_Node000001_Node000002"><a xlink:title=" ">
<path fill="none" stroke="#63b8ff" d="M47.49,-401.13C52.78,-450.56 79.21,-675.16 127,-722.5 128.43,-723.92 129.95,-725.24 131.54,-726.47"/>
<polygon fill="#63b8ff" stroke="#63b8ff" points="129.69,-729.44 140,-731.88 133.46,-723.55 129.69,-729.44"/>
</a>
</g>
</g>
<!-- Node6 -->
<g id="Node000006" class="node">
<title>Node6</title>
<g id="a_Node000006"><a xlink:href="m__checker_8fpp_8f90.html#afc12b4cfe03ec4a28bcddd4d1229a7de" target="_top" xlink:title="Checks constraints on adaptive time stepping parameters (adap_dt)">
<polygon fill="white" stroke="#666666" points="279,-249 140,-249 140,-230 279,-230 279,-249"/>
<text text-anchor="middle" x="209.5" y="-237" font-family="Helvetica,sans-Serif" font-size="10.00">s_check_inputs_adapt_dt</text>
</a>
</g>
</g>
<!-- Node1&#45;&gt;Node6 -->
<g id="edge5_Node000001_Node000006" class="edge">
<title>Node1&#45;&gt;Node6</title>
<g id="a_edge5_Node000001_Node000006"><a xlink:title=" ">
<path fill="none" stroke="#63b8ff" d="M49.36,-382C57.3,-357.38 82,-291.16 127,-258.5 129.56,-256.64 132.28,-254.96 135.11,-253.44"/>
<polygon fill="#63b8ff" stroke="#63b8ff" points="136.85,-256.49 144.45,-249.12 133.91,-250.14 136.85,-256.49"/>
</a>
</g>
</g>
<!-- Node7 -->
<g id="Node000007" class="node">
<title>Node7</title>
<g id="a_Node000007"><a xlink:href="m__checker_8fpp_8f90.html#a66b7a53f16419632e5ade19a013b1e8e" target="_top" xlink:title="Checks constraints on alternative sound speed parameters (alt_soundspeed)">
<polygon fill="white" stroke="#666666" points="264,-211.5 155,-211.5 155,-181.5 264,-181.5 264,-211.5"/>
<text text-anchor="start" x="163" y="-199.5" font-family="Helvetica,sans-Serif" font-size="10.00">s_check_inputs_alt</text>
<text text-anchor="middle" x="209.5" y="-188.5" font-family="Helvetica,sans-Serif" font-size="10.00">_soundspeed</text>
</a>
</g>
</g>
<!-- Node1&#45;&gt;Node7 -->
<g id="edge7_Node000001_Node000007" class="edge">
<title>Node1&#45;&gt;Node7</title>
<g id="a_edge7_Node000001_Node000007"><a xlink:title=" ">
<path fill="none" stroke="#63b8ff" d="M48.21,-381.68C53.83,-352.51 74.43,-265.56 127,-220.5 132.34,-215.92 138.52,-212.22 145.05,-209.22"/>
<polygon fill="#63b8ff" stroke="#63b8ff" points="146.81,-212.28 154.79,-205.31 144.2,-205.78 146.81,-212.28"/>
</a>
</g>
</g>
<!-- Node8 -->
<g id="Node000008" class="node">
<title>Node8</title>
<g id="a_Node000008"><a xlink:href="m__checker_8fpp_8f90.html#a30ce8ea652fd995d457e27820a6c1e51" target="_top" xlink:title="Checks constraints on body forces parameters (bf_x[y,z], etc.)">
<polygon fill="white" stroke="#666666" points="269.5,-163.5 149.5,-163.5 149.5,-133.5 269.5,-133.5 269.5,-163.5"/>
<text text-anchor="start" x="157.5" y="-151.5" font-family="Helvetica,sans-Serif" font-size="10.00">s_check_inputs_body</text>
<text text-anchor="middle" x="209.5" y="-140.5" font-family="Helvetica,sans-Serif" font-size="10.00">_forces</text>
</a>
</g>
</g>
<!-- Node1&#45;&gt;Node8 -->
<g id="edge9_Node000001_Node000008" class="edge">
<title>Node1&#45;&gt;Node8</title>
<g id="a_edge9_Node000001_Node000008"><a xlink:title=" ">
<path fill="none" stroke="#63b8ff" d="M47.07,-381.98C49.61,-348.16 62.83,-232.58 127,-172.5 130.87,-168.88 135.26,-165.8 139.95,-163.18"/>
<polygon fill="#63b8ff" stroke="#63b8ff" points="141.78,-166.18 149.28,-158.7 138.75,-159.87 141.78,-166.18"/>
</a>
</g>
</g>
<!-- Node9 -->
<g id="Node000009" class="node">
<title>Node9</title>
<g id="a_Node000009"><a xlink:href="m__checker_8fpp_8f90.html#a39cb77c9159f8f40899f5332580c1b19" target="_top" xlink:title="Checks constraints on bubble parameters.">
<polygon fill="white" stroke="#666666" points="276.5,-115.5 142.5,-115.5 142.5,-85.5 276.5,-85.5 276.5,-115.5"/>
<text text-anchor="start" x="150.5" y="-103.5" font-family="Helvetica,sans-Serif" font-size="10.00">s_check_inputs_bubbles</text>
<text text-anchor="middle" x="209.5" y="-92.5" font-family="Helvetica,sans-Serif" font-size="10.00">_euler</text>
</a>
</g>
</g>
<!-- Node1&#45;&gt;Node9 -->
<g id="edge11_Node000001_Node000009" class="edge">
<title>Node1&#45;&gt;Node9</title>
<g id="a_edge11_Node000001_Node000009"><a xlink:title=" ">
<path fill="none" stroke="#63b8ff" d="M46.35,-381.86C46.27,-343.45 51.27,-199.74 127,-124.5 129.11,-122.4 131.39,-120.49 133.81,-118.74"/>
<polygon fill="#63b8ff" stroke="#63b8ff" points="135.79,-121.63 142.47,-113.41 132.12,-115.67 135.79,-121.63"/>
</a>
</g>
</g>
<!-- Node10 -->
<g id="Node000010" class="node">
<title>Node10</title>
<g id="a_Node000010"><a xlink:href="m__checker_8fpp_8f90.html#a596473abebb6a7ef7e04828217955fa3" target="_top" xlink:title="Checks constraints on lagrangian bubble parameters.">
<polygon fill="white" stroke="#666666" points="276.5,-67.5 142.5,-67.5 142.5,-37.5 276.5,-37.5 276.5,-67.5"/>
<text text-anchor="start" x="150.5" y="-55.5" font-family="Helvetica,sans-Serif" font-size="10.00">s_check_inputs_bubbles</text>
<text text-anchor="middle" x="209.5" y="-44.5" font-family="Helvetica,sans-Serif" font-size="10.00">_lagrange</text>
</a>
</g>
</g>
<!-- Node1&#45;&gt;Node10 -->
<g id="edge13_Node000001_Node000010" class="edge">
<title>Node1&#45;&gt;Node10</title>
<g id="a_edge13_Node000001_Node000010"><a xlink:title=" ">
<path fill="none" stroke="#63b8ff" d="M47.69,-381.75C53.76,-333.69 82.62,-122.51 127,-76.5 129.06,-74.36 131.31,-72.41 133.69,-70.63"/>
<polygon fill="#63b8ff" stroke="#63b8ff" points="135.68,-73.51 142.27,-65.21 131.95,-67.59 135.68,-73.51"/>
</a>
</g>
</g>
<!-- Node11 -->
<g id="Node000011" class="node">
<title>Node11</title>
<g id="a_Node000011"><a xlink:href="m__checker_8fpp_8f90.html#ae4874ce2f3b8db0222ffb160eab08053" target="_top" xlink:title="Checks constraints on compiler options.">
<polygon fill="white" stroke="#666666" points="281.5,-19 137.5,-19 137.5,0 281.5,0 281.5,-19"/>
<text text-anchor="middle" x="209.5" y="-7" font-family="Helvetica,sans-Serif" font-size="10.00">s_check_inputs_compilers</text>
</a>
</g>
</g>
<!-- Node1&#45;&gt;Node11 -->
<g id="edge15_Node000001_Node000011" class="edge">
<title>Node1&#45;&gt;Node11</title>
<g id="a_edge15_Node000001_Node000011"><a xlink:title=" ">
<path fill="none" stroke="#63b8ff" d="M47.26,-381.99C51.62,-330.05 75.02,-81.05 127,-28.5 128.42,-27.07 129.92,-25.73 131.5,-24.49"/>
<polygon fill="#63b8ff" stroke="#63b8ff" points="133.43,-27.41 139.92,-19.03 129.62,-21.54 133.43,-27.41"/>
</a>
</g>
</g>
<!-- Node12 -->
<g id="Node000012" class="node">
<title>Node12</title>
<g id="a_Node000012"><a xlink:href="m__checker_8fpp_8f90.html#ae621a70b5ae0aaba07d5fc2b65569b79" target="_top" xlink:title="Checks constraints on continuum damage model parameters.">
<polygon fill="white" stroke="#666666" points="283.5,-627.5 135.5,-627.5 135.5,-597.5 283.5,-597.5 283.5,-627.5"/>
<text text-anchor="start" x="143.5" y="-615.5" font-family="Helvetica,sans-Serif" font-size="10.00">s_check_inputs_continuum</text>
<text text-anchor="middle" x="209.5" y="-604.5" font-family="Helvetica,sans-Serif" font-size="10.00">_damage</text>
</a>
</g>
</g>
<!-- Node1&#45;&gt;Node12 -->
<g id="edge17_Node000001_Node000012" class="edge">
<title>Node1&#45;&gt;Node12</title>
<g id="a_edge17_Node000001_Node000012"><a xlink:title=" ">
<path fill="none" stroke="#63b8ff" d="M47.55,-401.39C51.5,-433.45 68.33,-535.5 127,-588.5 128.32,-589.69 129.69,-590.82 131.11,-591.9"/>
<polygon fill="#63b8ff" stroke="#63b8ff" points="129.42,-594.97 139.72,-597.46 133.22,-589.09 129.42,-594.97"/>
</a>
</g>
</g>
<!-- Node13 -->
<g id="Node000013" class="node">
<title>Node13</title>
<g id="a_Node000013"><a xlink:href="m__checker_8fpp_8f90.html#ab88653c330502bd964579852c2b617cb" target="_top" xlink:title="Checks constraints on geometry and precision.">
<polygon fill="white" stroke="#666666" points="281,-579.5 138,-579.5 138,-549.5 281,-549.5 281,-579.5"/>
<text text-anchor="start" x="146" y="-567.5" font-family="Helvetica,sans-Serif" font-size="10.00">s_check_inputs_geometry</text>
<text text-anchor="middle" x="209.5" y="-556.5" font-family="Helvetica,sans-Serif" font-size="10.00">_precision</text>
</a>
</g>
</g>
<!-- Node1&#45;&gt;Node13 -->
<g id="edge19_Node000001_Node000013" class="edge">
<title>Node1&#45;&gt;Node13</title>
<g id="a_edge19_Node000001_Node000013"><a xlink:title=" ">
<path fill="none" stroke="#63b8ff" d="M48.92,-401.19C56.04,-427.7 79.48,-502 127,-540.5 128.59,-541.79 130.25,-543.01 131.96,-544.16"/>
<polygon fill="#63b8ff" stroke="#63b8ff" points="130.53,-547.38 140.93,-549.4 134.06,-541.33 130.53,-547.38"/>
</a>
</g>
</g>
<!-- Node14 -->
<g id="Node000014" class="node">
<title>Node14</title>
<g id="a_Node000014"><a xlink:href="m__checker_8fpp_8f90.html#ad288e55152660625eb8e78d770dc02d4" target="_top" xlink:title="Checks constraints for GRCBC.">
<polygon fill="white" stroke="#666666" points="270.5,-531 148.5,-531 148.5,-512 270.5,-512 270.5,-531"/>
<text text-anchor="middle" x="209.5" y="-519" font-family="Helvetica,sans-Serif" font-size="10.00">s_check_inputs_grcbc</text>
</a>
</g>
</g>
<!-- Node1&#45;&gt;Node14 -->
<g id="edge21_Node000001_Node000014" class="edge">
<title>Node1&#45;&gt;Node14</title>
<g id="a_edge21_Node000001_Node000014"><a xlink:title=" ">
<path fill="none" stroke="#63b8ff" d="M50.48,-401.12C60.1,-423.08 86.81,-477.02 127,-503.5 130.61,-505.88 134.48,-507.94 138.51,-509.74"/>
<polygon fill="#63b8ff" stroke="#63b8ff" points="137.54,-513.12 148.13,-513.46 140.07,-506.59 137.54,-513.12"/>
</a>
</g>
</g>
<!-- Node15 -->
<g id="Node000015" class="node">
<title>Node15</title>
<g id="a_Node000015"><a xlink:href="m__checker_8fpp_8f90.html#ae9124637732beba196c9149c8beeb388" target="_top" xlink:title="Checks constraints on hypoelasticity parameters.">
<polygon fill="white" stroke="#666666" points="292,-494 127,-494 127,-475 292,-475 292,-494"/>
<text text-anchor="middle" x="209.5" y="-482" font-family="Helvetica,sans-Serif" font-size="10.00">s_check_inputs_hypoelasticity</text>
</a>
</g>
</g>
<!-- Node1&#45;&gt;Node15 -->
<g id="edge23_Node000001_Node000015" class="edge">
<title>Node1&#45;&gt;Node15</title>
<g id="a_edge23_Node000001_Node000015"><a xlink:title=" ">
<path fill="none" stroke="#63b8ff" d="M53.79,-401.03C66.7,-417.18 95.21,-449.8 127,-466.5 130.68,-468.43 134.56,-470.16 138.55,-471.7"/>
<polygon fill="#63b8ff" stroke="#63b8ff" points="137.41,-475.01 148,-474.97 139.69,-468.39 137.41,-475.01"/>
</a>
</g>
</g>
<!-- Node16 -->
<g id="Node000016" class="node">
<title>Node16</title>
<g id="a_Node000016"><a xlink:href="m__checker_8fpp_8f90.html#a79c62b308753345df4dd138496633963" target="_top" xlink:title=" ">
<polygon fill="white" stroke="#666666" points="268.5,-457 150.5,-457 150.5,-438 268.5,-438 268.5,-457"/>
<text text-anchor="middle" x="209.5" y="-445" font-family="Helvetica,sans-Serif" font-size="10.00">s_check_inputs_mhd</text>
</a>
</g>
</g>
<!-- Node1&#45;&gt;Node16 -->
<g id="edge25_Node000001_Node000016" class="edge">
<title>Node1&#45;&gt;Node16</title>
<g id="a_edge25_Node000001_Node000016"><a xlink:title=" ">
<path fill="none" stroke="#63b8ff" d="M63.93,-401.13C79.92,-409.62 104.48,-421.81 127,-429.5 133.45,-431.7 140.28,-433.7 147.13,-435.5"/>
<polygon fill="#63b8ff" stroke="#63b8ff" points="146.6,-438.98 157.15,-437.99 148.29,-432.18 146.6,-438.98"/>
</a>
</g>
</g>
<!-- Node17 -->
<g id="Node000017" class="node">
<title>Node17</title>
<g id="a_Node000017"><a xlink:href="m__checker_8fpp_8f90.html#a25e833454a83af8ea11f4e98ceee9911" target="_top" xlink:title="Checks miscellaneous constraints, including constraints on probe_wrt and integral_wrt.">
<polygon fill="white" stroke="#666666" points="269,-420 150,-420 150,-401 269,-401 269,-420"/>
<text text-anchor="middle" x="209.5" y="-408" font-family="Helvetica,sans-Serif" font-size="10.00">s_check_inputs_misc</text>
</a>
</g>
</g>
<!-- Node1&#45;&gt;Node17 -->
<g id="edge27_Node000001_Node000017" class="edge">
<title>Node1&#45;&gt;Node17</title>
<g id="a_edge27_Node000001_Node000017"><a xlink:title=" ">
<path fill="none" stroke="#63b8ff" d="M91.2,-396.74C106.24,-398.51 123.4,-400.52 139.85,-402.45"/>
<polygon fill="#63b8ff" stroke="#63b8ff" points="139.64,-405.95 149.98,-403.64 140.46,-399 139.64,-405.95"/>
</a>
</g>
</g>
<!-- Node18 -->
<g id="Node000018" class="node">
<title>Node18</title>
<g id="a_Node000018"><a xlink:href="m__checker_8fpp_8f90.html#a4bab69ea54748f5a2da9d74c0741a257" target="_top" xlink:title="Checks constraints on parameters related to 6&#45;equation model.">
<polygon fill="white" stroke="#666666" points="287,-383 132,-383 132,-364 287,-364 287,-383"/>
<text text-anchor="middle" x="209.5" y="-371" font-family="Helvetica,sans-Serif" font-size="10.00">s_check_inputs_model_eqns</text>
</a>
</g>
</g>
<!-- Node1&#45;&gt;Node18 -->
<g id="edge29_Node000001_Node000018" class="edge">
<title>Node1&#45;&gt;Node18</title>
<g id="a_edge29_Node000001_Node000018"><a xlink:title=" ">
<path fill="none" stroke="#63b8ff" d="M91.2,-386.53C100.78,-385.47 111.21,-384.31 121.78,-383.14"/>
<polygon fill="#63b8ff" stroke="#63b8ff" points="122.37,-386.59 131.93,-382.01 121.6,-379.63 122.37,-386.59"/>
</a>
</g>
</g>
<!-- Node19 -->
<g id="Node000019" class="node">
<title>Node19</title>
<g id="a_Node000019"><a xlink:href="m__checker_8fpp_8f90.html#a900fec697f4130226f22e899b25911b9" target="_top" xlink:title="Checks constraints on Riemann solver parameters.">
<polygon fill="white" stroke="#666666" points="278,-345.5 141,-345.5 141,-315.5 278,-315.5 278,-345.5"/>
<text text-anchor="start" x="149" y="-333.5" font-family="Helvetica,sans-Serif" font-size="10.00">s_check_inputs_riemann</text>
<text text-anchor="middle" x="209.5" y="-322.5" font-family="Helvetica,sans-Serif" font-size="10.00">_solver</text>
</a>
</g>
</g>
<!-- Node1&#45;&gt;Node19 -->
<g id="edge31_Node000001_Node000019" class="edge">
<title>Node1&#45;&gt;Node19</title>
<g id="a_edge31_Node000001_Node000019"><a xlink:title=" ">
<path fill="none" stroke="#63b8ff" d="M65.36,-381.89C81.47,-373.91 105.4,-362.6 127,-354.5 132.4,-352.48 138.05,-350.51 143.74,-348.64"/>
<polygon fill="#63b8ff" stroke="#63b8ff" points="144.88,-351.95 153.34,-345.56 142.75,-345.28 144.88,-351.95"/>
</a>
</g>
</g>
<!-- Node20 -->
<g id="Node000020" class="node">
<title>Node20</title>
<g id="a_Node000020"><a xlink:href="m__checker_8fpp_8f90.html#a895d297702fdd27bbc61ea367afccd8a" target="_top" xlink:title="Checks constraints on viscosity parameters (fluid_pp(i)Re(1:2)) of the stiffened gas equation of stat...">
<polygon fill="white" stroke="#666666" points="279,-713.5 140,-713.5 140,-683.5 279,-683.5 279,-713.5"/>
<text text-anchor="start" x="148" y="-701.5" font-family="Helvetica,sans-Serif" font-size="10.00">s_check_inputs_stiffened</text>
<text text-anchor="middle" x="209.5" y="-690.5" font-family="Helvetica,sans-Serif" font-size="10.00">_eos_viscosity</text>
</a>
</g>
</g>
<!-- Node1&#45;&gt;Node20 -->
<g id="edge33_Node000001_Node000020" class="edge">
<title>Node1&#45;&gt;Node20</title>
<g id="a_edge33_Node000001_Node000020"><a xlink:title=" ">
<path fill="none" stroke="#63b8ff" d="M46.15,-401.15C45.27,-440.97 47.37,-594.13 127,-674.5 128.28,-675.8 129.64,-677.02 131.04,-678.19"/>
<polygon fill="#63b8ff" stroke="#63b8ff" points="129.45,-681.34 139.66,-684.15 133.43,-675.58 129.45,-681.34"/>
</a>
</g>
</g>
<!-- Node21 -->
<g id="Node000021" class="node">
<title>Node21</title>
<g id="a_Node000021"><a xlink:href="m__checker_8fpp_8f90.html#af9e9bcf0f20f7dfd14fd4d11f715c99c" target="_top" xlink:title="Checks constraints on time stepping parameters.">
<polygon fill="white" stroke="#666666" points="269,-297.5 150,-297.5 150,-267.5 269,-267.5 269,-297.5"/>
<text text-anchor="start" x="158" y="-285.5" font-family="Helvetica,sans-Serif" font-size="10.00">s_check_inputs_time</text>
<text text-anchor="middle" x="209.5" y="-274.5" font-family="Helvetica,sans-Serif" font-size="10.00">_stepping</text>
</a>
</g>
</g>
<!-- Node1&#45;&gt;Node21 -->
<g id="edge36_Node000001_Node000021" class="edge">
<title>Node1&#45;&gt;Node21</title>
<g id="a_edge36_Node000001_Node000021"><a xlink:title=" ">
<path fill="none" stroke="#63b8ff" d="M53.03,-381.76C65.38,-364.11 93.89,-326.77 127,-306.5 131.18,-303.94 135.65,-301.64 140.27,-299.57"/>
<polygon fill="#63b8ff" stroke="#63b8ff" points="141.95,-302.67 149.89,-295.66 139.31,-296.18 141.95,-302.67"/>
</a>
</g>
</g>
<!-- Node22 -->
<g id="Node000022" class="node">
<title>Node22</title>
<g id="a_Node000022"><a xlink:href="m__checker_8fpp_8f90.html#a6f54e54a0911ee88e570ffa0499d19b7" target="_top" xlink:title="Checks constraints on WENO scheme parameters.">
<polygon fill="white" stroke="#666666" points="270.5,-665 148.5,-665 148.5,-646 270.5,-646 270.5,-665"/>
<text text-anchor="middle" x="209.5" y="-653" font-family="Helvetica,sans-Serif" font-size="10.00">s_check_inputs_weno</text>
</a>
</g>
</g>
<!-- Node1&#45;&gt;Node22 -->
<g id="edge38_Node000001_Node000022" class="edge">
<title>Node1&#45;&gt;Node22</title>
<g id="a_edge38_Node000001_Node000022"><a xlink:title=" ">
<path fill="none" stroke="#63b8ff" d="M46.53,-401.23C47.18,-438.07 54.67,-570.3 127,-636.5 130.63,-639.82 134.72,-642.59 139.09,-644.91"/>
<polygon fill="#63b8ff" stroke="#63b8ff" points="137.84,-648.18 148.4,-649.04 140.68,-641.78 137.84,-648.18"/>
</a>
</g>
</g>
<!-- Node3 -->
<g id="Node000003" class="node">
<title>Node3</title>
<g id="a_Node000003"><a xlink:href="m__helper_8fpp_8f90.html#a61ed7167a8466d96b3403bf41febc469" target="_top" xlink:title=" ">
<polygon fill="white" stroke="#666666" points="412,-708 339,-708 339,-689 412,-689 412,-708"/>
<text text-anchor="middle" x="375.5" y="-696" font-family="Helvetica,sans-Serif" font-size="10.00">s_int_to_str</text>
</a>
</g>
</g>
<!-- Node2&#45;&gt;Node3 -->
<g id="edge2_Node000002_Node000003" class="edge">
<title>Node2&#45;&gt;Node3</title>
<g id="a_edge2_Node000002_Node000003"><a xlink:title=" ">
<path fill="none" stroke="#63b8ff" d="M253.33,-731.97C265.83,-729.07 279.49,-725.78 292,-722.5 305.57,-718.95 320.3,-714.77 333.51,-710.9"/>
<polygon fill="#63b8ff" stroke="#63b8ff" points="334.67,-714.21 343.27,-708.02 332.69,-707.49 334.67,-714.21"/>
</a>
</g>
</g>
<!-- Node4 -->
<g id="Node000004" class="node">
<title>Node4</title>
<g id="a_Node000004"><a xlink:href="m__mpi__common_8fpp_8f90.html#a7a63ba325e6315d6d7dc45c614d65347" target="_top" xlink:title=" ">
<polygon fill="white" stroke="#666666" points="423,-402 328,-402 328,-383 423,-383 423,-402"/>
<text text-anchor="middle" x="375.5" y="-390" font-family="Helvetica,sans-Serif" font-size="10.00">s_prohibit_abort</text>
</a>
</g>
</g>
<!-- Node2&#45;&gt;Node4 -->
<g id="edge3_Node000002_Node000004" class="edge">
<title>Node2&#45;&gt;Node4</title>
<g id="a_edge3_Node000002_Node000004"><a xlink:title=" ">
<path fill="none" stroke="#63b8ff" d="M278.97,-731.85C283.74,-729.35 288.17,-726.27 292,-722.5 337.17,-678.05 364.58,-476.2 372.27,-412.1"/>
<polygon fill="#63b8ff" stroke="#63b8ff" points="375.75,-412.45 373.44,-402.11 368.8,-411.63 375.75,-412.45"/>
</a>
</g>
</g>
<!-- Node5 -->
<g id="Node000005" class="node">
<title>Node5</title>
<g id="a_Node000005"><a xlink:href="m__mpi__common_8fpp_8f90.html#adbcc47e90968ff0f14ccc2ca3c47586a" target="_top" xlink:title="The subroutine terminates the MPI execution environment.">
<polygon fill="white" stroke="#666666" points="536,-402 459,-402 459,-383 536,-383 536,-402"/>
<text text-anchor="middle" x="497.5" y="-390" font-family="Helvetica,sans-Serif" font-size="10.00">s_mpi_abort</text>
</a>
</g>
</g>
<!-- Node4&#45;&gt;Node5 -->
<g id="edge4_Node000004_Node000005" class="edge">
<title>Node4&#45;&gt;Node5</title>
<g id="a_edge4_Node000004_Node000005"><a xlink:title=" ">
<path fill="none" stroke="#63b8ff" d="M423.24,-392.5C431.66,-392.5 440.45,-392.5 448.89,-392.5"/>
<polygon fill="#63b8ff" stroke="#63b8ff" points="448.98,-396 458.98,-392.5 448.98,-389 448.98,-396"/>
</a>
</g>
</g>
<!-- Node6&#45;&gt;Node4 -->
<g id="edge6_Node000006_Node000004" class="edge">
<title>Node6&#45;&gt;Node4</title>
<g id="a_edge6_Node000006_Node000004"><a xlink:title=" ">
<path fill="none" stroke="#63b8ff" d="M274.52,-249.16C280.74,-251.62 286.69,-254.68 292,-258.5 332.68,-287.79 357.42,-343.92 368.18,-373.38"/>
<polygon fill="#63b8ff" stroke="#63b8ff" points="364.91,-374.64 371.51,-382.92 371.52,-372.33 364.91,-374.64"/>
</a>
</g>
</g>
<!-- Node7&#45;&gt;Node4 -->
<g id="edge8_Node000007_Node000004" class="edge">
<title>Node7&#45;&gt;Node4</title>
<g id="a_edge8_Node000007_Node000004"><a xlink:title=" ">
<path fill="none" stroke="#63b8ff" d="M264.17,-205.35C274.2,-208.85 284.02,-213.71 292,-220.5 340.03,-261.36 362.25,-336.58 370.48,-372.45"/>
<polygon fill="#63b8ff" stroke="#63b8ff" points="367.15,-373.59 372.68,-382.62 373.99,-372.11 367.15,-373.59"/>
</a>
</g>
</g>
<!-- Node8&#45;&gt;Node4 -->
<g id="edge10_Node000008_Node000004" class="edge">
<title>Node8&#45;&gt;Node4</title>
<g id="a_edge10_Node000008_Node000004"><a xlink:title=" ">
<path fill="none" stroke="#63b8ff" d="M269.69,-158.73C277.86,-162.1 285.63,-166.57 292,-172.5 351.37,-227.72 368.28,-329.83 372.88,-372.71"/>
<polygon fill="#63b8ff" stroke="#63b8ff" points="369.42,-373.31 373.85,-382.94 376.39,-372.65 369.42,-373.31"/>
</a>
</g>
</g>
<!-- Node9&#45;&gt;Node4 -->
<g id="edge12_Node000009_Node000004" class="edge">
<title>Node9&#45;&gt;Node4</title>
<g id="a_edge12_Node000009_Node000004"><a xlink:title=" ">
<path fill="none" stroke="#63b8ff" d="M276.5,-113.44C282.19,-116.41 287.49,-120.04 292,-124.5 362.7,-194.34 373.1,-323.21 374.42,-372.56"/>
<polygon fill="#63b8ff" stroke="#63b8ff" points="370.92,-372.88 374.59,-382.82 377.92,-372.76 370.92,-372.88"/>
</a>
</g>
</g>
<!-- Node10&#45;&gt;Node4 -->
<g id="edge14_Node000010_Node000004" class="edge">
<title>Node10&#45;&gt;Node4</title>
<g id="a_edge14_Node000010_Node000004"><a xlink:title=" ">
<path fill="none" stroke="#63b8ff" d="M276.71,-65.24C282.35,-68.25 287.59,-71.95 292,-76.5 334.08,-119.9 363.3,-310.23 371.88,-372.62"/>
<polygon fill="#63b8ff" stroke="#63b8ff" points="368.44,-373.27 373.25,-382.72 375.38,-372.34 368.44,-373.27"/>
</a>
</g>
</g>
<!-- Node11&#45;&gt;Node4 -->
<g id="edge16_Node000011_Node000004" class="edge">
<title>Node11&#45;&gt;Node4</title>
<g id="a_edge16_Node000011_Node000004"><a xlink:title=" ">
<path fill="none" stroke="#63b8ff" d="M279.07,-19.05C283.81,-21.58 288.21,-24.69 292,-28.5 341.44,-78.25 366.26,-304.14 372.74,-372.71"/>
<polygon fill="#63b8ff" stroke="#63b8ff" points="369.29,-373.33 373.69,-382.96 376.26,-372.68 369.29,-373.33"/>
</a>
</g>
</g>
<!-- Node12&#45;&gt;Node4 -->
<g id="edge18_Node000012_Node000004" class="edge">
<title>Node12&#45;&gt;Node4</title>
<g id="a_edge18_Node000012_Node000004"><a xlink:title=" ">
<path fill="none" stroke="#63b8ff" d="M279.24,-597.41C283.83,-594.89 288.15,-591.94 292,-588.5 345.73,-540.48 365.49,-451.74 371.84,-412.29"/>
<polygon fill="#63b8ff" stroke="#63b8ff" points="375.31,-412.75 373.32,-402.34 368.39,-411.72 375.31,-412.75"/>
</a>
</g>
</g>
<!-- Node13&#45;&gt;Node4 -->
<g id="edge20_Node000013_Node000004" class="edge">
<title>Node13&#45;&gt;Node4</title>
<g id="a_edge20_Node000013_Node000004"><a xlink:title=" ">
<path fill="none" stroke="#63b8ff" d="M278.03,-549.34C283,-546.83 287.74,-543.91 292,-540.5 334.75,-506.33 358.94,-443.65 368.97,-411.95"/>
<polygon fill="#63b8ff" stroke="#63b8ff" points="372.39,-412.71 371.93,-402.13 365.69,-410.69 372.39,-412.71"/>
</a>
</g>
</g>
<!-- Node14&#45;&gt;Node4 -->
<g id="edge22_Node000014_Node000004" class="edge">
<title>Node14&#45;&gt;Node4</title>
<g id="a_edge22_Node000014_Node000004"><a xlink:title=" ">
<path fill="none" stroke="#63b8ff" d="M270.81,-513.37C278.28,-510.89 285.55,-507.67 292,-503.5 327.61,-480.45 353.36,-436.35 365.9,-411.23"/>
<polygon fill="#63b8ff" stroke="#63b8ff" points="369.14,-412.57 370.32,-402.04 362.83,-409.53 369.14,-412.57"/>
</a>
</g>
</g>
<!-- Node15&#45;&gt;Node4 -->
<g id="edge24_Node000015_Node000004" class="edge">
<title>Node15&#45;&gt;Node4</title>
<g id="a_edge24_Node000015_Node000004"><a xlink:title=" ">
<path fill="none" stroke="#63b8ff" d="M270.51,-474.98C277.95,-472.73 285.3,-469.94 292,-466.5 319.51,-452.38 344.99,-426.83 360.15,-409.76"/>
<polygon fill="#63b8ff" stroke="#63b8ff" points="362.84,-412 366.73,-402.15 357.54,-407.43 362.84,-412"/>
</a>
</g>
</g>
<!-- Node16&#45;&gt;Node4 -->
<g id="edge26_Node000016_Node000004" class="edge">
<title>Node16&#45;&gt;Node4</title>
<g id="a_edge26_Node000016_Node000004"><a xlink:title=" ">
<path fill="none" stroke="#63b8ff" d="M261.37,-437.95C271.61,-435.55 282.23,-432.73 292,-429.5 310.76,-423.29 331.02,-414.25 346.76,-406.65"/>
<polygon fill="#63b8ff" stroke="#63b8ff" points="348.5,-409.7 355.93,-402.15 345.41,-403.41 348.5,-409.7"/>
</a>
</g>
</g>
<!-- Node17&#45;&gt;Node4 -->
<g id="edge28_Node000017_Node000004" class="edge">
<title>Node17&#45;&gt;Node4</title>
<g id="a_edge28_Node000017_Node000004"><a xlink:title=" ">
<path fill="none" stroke="#63b8ff" d="M269.24,-404.05C285.08,-402.31 302.17,-400.44 317.89,-398.71"/>
<polygon fill="#63b8ff" stroke="#63b8ff" points="318.43,-402.18 327.99,-397.61 317.66,-395.22 318.43,-402.18"/>
</a>
</g>
</g>
<!-- Node18&#45;&gt;Node4 -->
<g id="edge30_Node000018_Node000004" class="edge">
<title>Node18&#45;&gt;Node4</title>
<g id="a_edge30_Node000018_Node000004"><a xlink:title=" ">
<path fill="none" stroke="#63b8ff" d="M287.22,-382.39C297.49,-383.58 307.87,-384.78 317.72,-385.92"/>
<polygon fill="#63b8ff" stroke="#63b8ff" points="317.42,-389.41 327.75,-387.08 318.22,-382.46 317.42,-389.41"/>
</a>
</g>
</g>
<!-- Node19&#45;&gt;Node4 -->
<g id="edge32_Node000019_Node000004" class="edge">
<title>Node19&#45;&gt;Node4</title>
<g id="a_edge32_Node000019_Node000004"><a xlink:title=" ">
<path fill="none" stroke="#63b8ff" d="M265.66,-345.56C274.54,-348.32 283.58,-351.34 292,-354.5 310.58,-361.47 330.84,-370.78 346.63,-378.43"/>
<polygon fill="#63b8ff" stroke="#63b8ff" points="345.31,-381.68 355.83,-382.95 348.39,-375.4 345.31,-381.68"/>
</a>
</g>
</g>
<!-- Node20&#45;&gt;Node3 -->
<g id="edge34_Node000020_Node000003" class="edge">
<title>Node20&#45;&gt;Node3</title>
<g id="a_edge34_Node000020_Node000003"><a xlink:title=" ">
<path fill="none" stroke="#63b8ff" d="M279.1,-698.5C295.79,-698.5 313.24,-698.5 328.58,-698.5"/>
<polygon fill="#63b8ff" stroke="#63b8ff" points="328.83,-702 338.83,-698.5 328.83,-695 328.83,-702"/>
</a>
</g>
</g>
<!-- Node20&#45;&gt;Node4 -->
<g id="edge35_Node000020_Node000004" class="edge">
<title>Node20&#45;&gt;Node4</title>
<g id="a_edge35_Node000020_Node000004"><a xlink:title=" ">
<path fill="none" stroke="#63b8ff" d="M279.31,-684.12C283.94,-681.43 288.25,-678.26 292,-674.5 366.06,-600.31 374.38,-463.52 374.78,-412.44"/>
<polygon fill="#63b8ff" stroke="#63b8ff" points="378.28,-412.12 374.76,-402.13 371.28,-412.14 378.28,-412.12"/>
</a>
</g>
</g>
<!-- Node21&#45;&gt;Node4 -->
<g id="edge37_Node000021_Node000004" class="edge">
<title>Node21&#45;&gt;Node4</title>
<g id="a_edge37_Node000021_Node000004"><a xlink:title=" ">
<path fill="none" stroke="#63b8ff" d="M269.08,-295.7C277.07,-298.65 284.94,-302.21 292,-306.5 321.3,-324.32 347.24,-355.11 361.89,-374.61"/>
<polygon fill="#63b8ff" stroke="#63b8ff" points="359.25,-376.92 367.97,-382.93 364.9,-372.79 359.25,-376.92"/>
</a>
</g>
</g>
<!-- Node22&#45;&gt;Node3 -->
<g id="edge39_Node000022_Node000003" class="edge">
<title>Node22&#45;&gt;Node3</title>
<g id="a_edge39_Node000022_Node000003"><a xlink:title=" ">
<path fill="none" stroke="#63b8ff" d="M253.33,-665.03C265.83,-667.93 279.49,-671.22 292,-674.5 305.57,-678.05 320.3,-682.23 333.51,-686.1"/>
<polygon fill="#63b8ff" stroke="#63b8ff" points="332.69,-689.51 343.27,-688.98 334.67,-682.79 332.69,-689.51"/>
</a>
</g>
</g>
<!-- Node22&#45;&gt;Node4 -->
<g id="edge40_Node000022_Node000004" class="edge">
<title>Node22&#45;&gt;Node4</title>
<g id="a_edge40_Node000022_Node000004"><a xlink:title=" ">
<path fill="none" stroke="#63b8ff" d="M270.56,-648.99C278.42,-646.09 285.87,-642.07 292,-636.5 358.86,-575.83 371.57,-459.1 373.96,-412.46"/>
<polygon fill="#63b8ff" stroke="#63b8ff" points="377.47,-412.33 374.37,-402.19 370.48,-412.05 377.47,-412.33"/>
</a>
</g>
</g>
</g>
</svg>

<g id="navigator" transform="translate(0 0)" fill="#404254">
  <rect fill="#f2f5e9" fill-opacity="0.5" stroke="#606060" stroke-width=".5" x="0" y="0" width="60" height="60"/>
  <use id="zoomplus" xlink:href="#zoomPlus" x="17" y="9" onmousedown="handleZoom(evt,'in')"/>
  <use id="zoomminus" xlink:href="#zoomMin" x="42" y="9" onmousedown="handleZoom(evt,'out')"/>
  <use id="reset" xlink:href="#resetDef" x="30" y="36" onmousedown="handleReset()"/>
   <use id="arrowup" xlink:href="#arrowUp" x="0" y="0" onmousedown="handlePan(0,-1)"/>
  <use id="arrowright" xlink:href="#arrowRight" x="0" y="0" onmousedown="handlePan(1,0)"/>
  <use id="arrowdown" xlink:href="#arrowDown" x="0" y="0" onmousedown="handlePan(0,1)"/>
  <use id="arrowleft" xlink:href="#arrowLeft" x="0" y="0" onmousedown="handlePan(-1,0)"/>
</g>
<svg viewBox="0 0 15 15" width="100%" height="30px" preserveAspectRatio="xMaxYMin meet">
 <g id="arrow_out" transform="scale(0.3 0.3)">
  <a xlink:href="m__checker_8fpp_8f90_a50c5aba681ca509c90f2cef3796ebdc9_cgraph_org.svg" target="_base">
   <rect id="button" ry="5" rx="5" y="6" x="6" height="38" width="38"
        fill="#f2f5e9" fill-opacity="0.5" stroke="#606060" stroke-width="1.0"/>
   <path id="arrow"
     d="M 11.500037,31.436501 C 11.940474,20.09759 22.043105,11.32322 32.158766,21.979434 L 37.068811,17.246167 C 37.068811,17.246167 37.088388,32 37.088388,32 L 22.160133,31.978069 C 22.160133,31.978069 26.997745,27.140456 26.997745,27.140456 C 18.528582,18.264221 13.291696,25.230495 11.500037,31.436501 z"
     style="fill:#404040;"/>
  </a>
 </g>
</svg>

<style type='text/css'>
<![CDATA[
[data-mouse-over-selected='false'] { opacity: 0.7; }
[data-mouse-over-selected='true']  { opacity: 1.0; }
]]>
</style>
<script type="application/ecmascript"><![CDATA[
document.addEventListener('DOMContentLoaded', (event) => {
  highlightEdges();
  highlightAdjacentNodes();
});
]]></script>
</svg>
