<?xml version="1.0" encoding="UTF-8" standalone="no"?>
<!DOCTYPE svg PUBLIC "-//W3C//DTD SVG 1.1//EN"
 "http://www.w3.org/Graphics/SVG/1.1/DTD/svg11.dtd">
<!-- Generated by graphviz version 2.43.0 (0)
 -->
<!-- Title: __m_compute_levelset_fpp_f90__ Pages: 1 -->
<svg width="325pt" height="247pt"
 viewBox="0.00 0.00 325.00 246.50" xmlns="http://www.w3.org/2000/svg" xmlns:xlink="http://www.w3.org/1999/xlink">
<g id="graph0" class="graph" transform="scale(1 1) rotate(0) translate(4 242.5)">
<title>__m_compute_levelset_fpp_f90__</title>
<!-- Node1 -->
<g id="Node000001" class="node">
<title>Node1</title>
<g id="a_Node000001"><a xlink:title=" ">
<polygon fill="#999999" stroke="#666666" points="129,-136.5 0,-136.5 0,-106.5 129,-106.5 129,-136.5"/>
<text text-anchor="start" x="8" y="-124.5" font-family="Helvetica,sans-Serif" font-size="10.00">__m_compute_levelset</text>
<text text-anchor="middle" x="64.5" y="-113.5" font-family="Helvetica,sans-Serif" font-size="10.00">_fpp_f90__</text>
</a>
</g>
</g>
<!-- Node2 -->
<g id="Node000002" class="node">
<title>Node2</title>
<g id="a_Node000002"><a xlink:href="m__compute__levelset_8fpp_8f90.html#a1ff8677016235ff99d390323857c19fb" target="_top" xlink:title=" ">
<polygon fill="white" stroke="#666666" points="301.5,-238.5 180.5,-238.5 180.5,-208.5 301.5,-208.5 301.5,-238.5"/>
<text text-anchor="start" x="188.5" y="-226.5" font-family="Helvetica,sans-Serif" font-size="10.00">s_compute_3d_airfoil</text>
<text text-anchor="middle" x="241" y="-215.5" font-family="Helvetica,sans-Serif" font-size="10.00">_levelset</text>
</a>
</g>
</g>
<!-- Node1&#45;&gt;Node2 -->
<g id="edge1_Node000001_Node000002" class="edge">
<title>Node1&#45;&gt;Node2</title>
<g id="a_edge1_Node000001_Node000002"><a xlink:title=" ">
<path fill="none" stroke="#63b8ff" d="M81.14,-136.69C99.75,-154.04 132.42,-182.23 165,-199.5 168.44,-201.32 172.03,-203.03 175.71,-204.64"/>
<polygon fill="#63b8ff" stroke="#63b8ff" points="174.41,-207.89 184.99,-208.41 177.05,-201.4 174.41,-207.89"/>
</a>
</g>
</g>
<!-- Node3 -->
<g id="Node000003" class="node">
<title>Node3</title>
<g id="a_Node000003"><a xlink:href="m__compute__levelset_8fpp_8f90.html#a4dd63309e73ebf54a6b342126ad6e483" target="_top" xlink:title=" ">
<polygon fill="white" stroke="#666666" points="315,-190 167,-190 167,-171 315,-171 315,-190"/>
<text text-anchor="middle" x="241" y="-178" font-family="Helvetica,sans-Serif" font-size="10.00">s_compute_airfoil_levelset</text>
</a>
</g>
</g>
<!-- Node1&#45;&gt;Node3 -->
<g id="edge2_Node000001_Node000003" class="edge">
<title>Node1&#45;&gt;Node3</title>
<g id="a_edge2_Node000001_Node000003"><a xlink:title=" ">
<path fill="none" stroke="#63b8ff" d="M98.64,-136.67C117.76,-145.04 142.43,-155.19 165,-162.5 171.5,-164.61 178.4,-166.59 185.27,-168.41"/>
<polygon fill="#63b8ff" stroke="#63b8ff" points="184.71,-171.88 195.27,-170.97 186.44,-165.1 184.71,-171.88"/>
</a>
</g>
</g>
<!-- Node4 -->
<g id="Node000004" class="node">
<title>Node4</title>
<g id="a_Node000004"><a xlink:href="m__compute__levelset_8fpp_8f90.html#a060f59a74d2babc3ed73313dcc5d71c9" target="_top" xlink:title="Initialize IBM module.">
<polygon fill="white" stroke="#666666" points="314,-153 168,-153 168,-134 314,-134 314,-153"/>
<text text-anchor="middle" x="241" y="-141" font-family="Helvetica,sans-Serif" font-size="10.00">s_compute_circle_levelset</text>
</a>
</g>
</g>
<!-- Node1&#45;&gt;Node4 -->
<g id="edge3_Node000001_Node000004" class="edge">
<title>Node1&#45;&gt;Node4</title>
<g id="a_edge3_Node000001_Node000004"><a xlink:title=" ">
<path fill="none" stroke="#63b8ff" d="M129.49,-129.57C138.63,-130.72 148.14,-131.92 157.58,-133.11"/>
<polygon fill="#63b8ff" stroke="#63b8ff" points="157.41,-136.61 167.76,-134.39 158.28,-129.67 157.41,-136.61"/>
</a>
</g>
</g>
<!-- Node5 -->
<g id="Node000005" class="node">
<title>Node5</title>
<g id="a_Node000005"><a xlink:href="m__compute__levelset_8fpp_8f90.html#a31fb2e177fbcd602a98db464fdd9b89e" target="_top" xlink:title=" ">
<polygon fill="white" stroke="#666666" points="298,-115.5 184,-115.5 184,-85.5 298,-85.5 298,-115.5"/>
<text text-anchor="start" x="192" y="-103.5" font-family="Helvetica,sans-Serif" font-size="10.00">s_compute_cylinder</text>
<text text-anchor="middle" x="241" y="-92.5" font-family="Helvetica,sans-Serif" font-size="10.00">_levelset</text>
</a>
</g>
</g>
<!-- Node1&#45;&gt;Node5 -->
<g id="edge4_Node000001_Node000005" class="edge">
<title>Node1&#45;&gt;Node5</title>
<g id="a_edge4_Node000001_Node000005"><a xlink:title=" ">
<path fill="none" stroke="#63b8ff" d="M129.49,-113.8C143.81,-112.08 159.04,-110.24 173.46,-108.51"/>
<polygon fill="#63b8ff" stroke="#63b8ff" points="174.29,-111.93 183.8,-107.26 173.45,-104.98 174.29,-111.93"/>
</a>
</g>
</g>
<!-- Node6 -->
<g id="Node000006" class="node">
<title>Node6</title>
<g id="a_Node000006"><a xlink:href="m__compute__levelset_8fpp_8f90.html#ae85abb116c0a730a0ce3081a2f05761d" target="_top" xlink:title="Initialize IBM module.">
<polygon fill="white" stroke="#666666" points="301.5,-67.5 180.5,-67.5 180.5,-37.5 301.5,-37.5 301.5,-67.5"/>
<text text-anchor="start" x="188.5" y="-55.5" font-family="Helvetica,sans-Serif" font-size="10.00">s_compute_rectangle</text>
<text text-anchor="middle" x="241" y="-44.5" font-family="Helvetica,sans-Serif" font-size="10.00">_levelset</text>
</a>
</g>
</g>
<!-- Node1&#45;&gt;Node6 -->
<g id="edge5_Node000001_Node000006" class="edge">
<title>Node1&#45;&gt;Node6</title>
<g id="a_edge5_Node000001_Node000006"><a xlink:title=" ">
<path fill="none" stroke="#63b8ff" d="M96.48,-106.38C115.92,-97.17 141.64,-85.48 165,-76.5 170.02,-74.57 175.28,-72.66 180.57,-70.82"/>
<polygon fill="#63b8ff" stroke="#63b8ff" points="181.76,-74.11 190.1,-67.58 179.5,-67.49 181.76,-74.11"/>
</a>
</g>
</g>
<!-- Node7 -->
<g id="Node000007" class="node">
<title>Node7</title>
<g id="a_Node000007"><a xlink:href="m__compute__levelset_8fpp_8f90.html#a7d56ae2993a959a227476a8c0d19e1d3" target="_top" xlink:title=" ">
<polygon fill="white" stroke="#666666" points="317,-19 165,-19 165,0 317,0 317,-19"/>
<text text-anchor="middle" x="241" y="-7" font-family="Helvetica,sans-Serif" font-size="10.00">s_compute_sphere_levelset</text>
</a>
</g>
</g>
<!-- Node1&#45;&gt;Node7 -->
<g id="edge6_Node000001_Node000007" class="edge">
<title>Node1&#45;&gt;Node7</title>
<g id="a_edge6_Node000001_Node000007"><a xlink:title=" ">
<path fill="none" stroke="#63b8ff" d="M77.29,-106.48C94.39,-85.76 128.06,-48.67 165,-28.5 169.2,-26.21 173.68,-24.18 178.29,-22.4"/>
<polygon fill="#63b8ff" stroke="#63b8ff" points="179.57,-25.66 187.87,-19.06 177.27,-19.05 179.57,-25.66"/>
</a>
</g>
</g>
</g>
</svg>
