<?xml version="1.0" encoding="UTF-8" standalone="no"?>
<!DOCTYPE svg PUBLIC "-//W3C//DTD SVG 1.1//EN"
 "http://www.w3.org/Graphics/SVG/1.1/DTD/svg11.dtd">
<!-- Generated by graphviz version 2.43.0 (0)
 -->
<!-- Title: s_check_inputs Pages: 1 -->
<!--zoomable 675 -->

<svg id="main" version="1.1" xmlns="http://www.w3.org/2000/svg" xmlns:xlink="http://www.w3.org/1999/xlink" xml:space="preserve" onload="init(evt)">

<style type="text/css"><![CDATA[
.node, .edge {opacity: 0.7;}
.node.selected, .edge.selected {opacity: 1;}
.edge:hover path { stroke: red; }
.edge:hover polygon { stroke: red; fill: red; }
]]></style>

<defs>
  <circle id="rim" cx="0" cy="0" r="7"/>
  <circle id="rim2" cx="0" cy="0" r="3.5"/>
  <g id="zoomPlus">
    <use xlink:href="#rim" fill="#404040"><set attributeName="fill" to="#808080" begin="zoomplus.mouseover" end="zoomplus.mouseout"/></use>
    <path d="M-4,0h8M0,-4v8" fill="none" stroke="white" stroke-width="1.5" pointer-events="none"/>
  </g>
  <g id="zoomMin">
    <use xlink:href="#rim" fill="#404040"><set attributeName="fill" to="#808080" begin="zoomminus.mouseover" end="zoomminus.mouseout"/></use>
    <path d="M-4,0h8" fill="none" stroke="white" stroke-width="1.5" pointer-events="none"/>
  </g>
  <g id="arrowUp" transform="translate(30 24)">
    <use xlink:href="#rim"/>
    <path pointer-events="none" fill="none" stroke="white" stroke-width="1.5" d="M0,-3.0v7 M-2.5,-0.5L0,-3.0L2.5,-0.5"/>
  </g>
  <g id="arrowRight" transform="rotate(90) translate(36 -43)">
    <use xlink:href="#rim"/>
    <path pointer-events="none" fill="none" stroke="white" stroke-width="1.5" d="M0,-3.0v7 M-2.5,-0.5L0,-3.0L2.5,-0.5"/>
  </g>
  <g id="arrowDown" transform="rotate(180) translate(-30 -48)">
    <use xlink:href="#rim"/>
    <path pointer-events="none" fill="none" stroke="white" stroke-width="1.5" d="M0,-3.0v7 M-2.5,-0.5L0,-3.0L2.5,-0.5"/>
  </g>
  <g id="arrowLeft" transform="rotate(270) translate(-36 17)">
    <use xlink:href="#rim"/>
    <path pointer-events="none" fill="none" stroke="white" stroke-width="1.5" d="M0,-3.0v7 M-2.5,-0.5L0,-3.0L2.5,-0.5"/>
  </g>
  <g id="resetDef">
    <use xlink:href="#rim2" fill="#404040"><set attributeName="fill" to="#808080" begin="reset.mouseover" end="reset.mouseout"/></use>
  </g>
</defs>
<script type="application/ecmascript">
var viewWidth = 544;
var viewHeight = 675;
var sectionId = 'dynsection-1';
</script>
<script type="application/ecmascript" xlink:href="svg.min.js"/>
<svg id="graph" class="graph">
<g id="viewport">
<title>s_check_inputs</title>
<!-- Node1 -->
<g id="Node000001" class="node">
<title>Node1</title>
<g id="a_Node000001"><a xlink:title="Checks compatibility of parameters in the input file. Used by the simulation stage.">
<polygon fill="#999999" stroke="#666666" points="91,-352.5 0,-352.5 0,-333.5 91,-333.5 91,-352.5"/>
<text text-anchor="middle" x="45.5" y="-340.5" font-family="Helvetica,sans-Serif" font-size="10.00">s_check_inputs</text>
</a>
</g>
</g>
<!-- Node2 -->
<g id="Node000002" class="node">
<title>Node2</title>
<g id="a_Node000002"><a xlink:href="m__checker_8fpp_8f90.html#abbe830eba7de81571f125d9edd621473" target="_top" xlink:title="Checks constraints on acoustic_source parameters.">
<polygon fill="white" stroke="#666666" points="287.5,-666.5 131.5,-666.5 131.5,-647.5 287.5,-647.5 287.5,-666.5"/>
<text text-anchor="middle" x="209.5" y="-654.5" font-family="Helvetica,sans-Serif" font-size="10.00">s_check_inputs_acoustic_src</text>
</a>
</g>
</g>
<!-- Node1&#45;&gt;Node2 -->
<g id="edge1_Node000001_Node000002" class="edge">
<title>Node1&#45;&gt;Node2</title>
<g id="a_edge1_Node000001_Node000002"><a xlink:title=" ">
<path fill="none" stroke="#63b8ff" d="M47.82,-352.8C54.27,-399.21 83.89,-596.47 127,-638 128.49,-639.44 130.07,-640.77 131.72,-642.01"/>
<polygon fill="#63b8ff" stroke="#63b8ff" points="130.16,-645.17 140.5,-647.46 133.85,-639.22 130.16,-645.17"/>
</a>
</g>
</g>
<!-- Node6 -->
<g id="Node000006" class="node">
<title>Node6</title>
<g id="a_Node000006"><a xlink:href="m__checker_8fpp_8f90.html#a53410d93fae624b09410a6037ab72ca4" target="_top" xlink:title="Checks constraints on adaptive time stepping parameters (adap_dt)">
<polygon fill="white" stroke="#666666" points="279,-163.5 140,-163.5 140,-144.5 279,-144.5 279,-163.5"/>
<text text-anchor="middle" x="209.5" y="-151.5" font-family="Helvetica,sans-Serif" font-size="10.00">s_check_inputs_adapt_dt</text>
</a>
</g>
</g>
<!-- Node1&#45;&gt;Node6 -->
<g id="edge5_Node000001_Node000006" class="edge">
<title>Node1&#45;&gt;Node6</title>
<g id="a_edge5_Node000001_Node000006"><a xlink:title=" ">
<path fill="none" stroke="#63b8ff" d="M48.12,-333.1C53.46,-303.7 73.37,-216.26 127,-173 129.08,-171.32 131.28,-169.79 133.57,-168.39"/>
<polygon fill="#63b8ff" stroke="#63b8ff" points="135.55,-171.31 142.82,-163.6 132.33,-165.09 135.55,-171.31"/>
</a>
</g>
</g>
<!-- Node7 -->
<g id="Node000007" class="node">
<title>Node7</title>
<g id="a_Node000007"><a xlink:href="m__checker_8fpp_8f90.html#a890e8e5dba0284794a9a7e25188dbd7f" target="_top" xlink:title="Checks constraints on alternative sound speed parameters (alt_soundspeed)">
<polygon fill="white" stroke="#666666" points="264,-126 155,-126 155,-96 264,-96 264,-126"/>
<text text-anchor="start" x="163" y="-114" font-family="Helvetica,sans-Serif" font-size="10.00">s_check_inputs_alt</text>
<text text-anchor="middle" x="209.5" y="-103" font-family="Helvetica,sans-Serif" font-size="10.00">_soundspeed</text>
</a>
</g>
</g>
<!-- Node1&#45;&gt;Node7 -->
<g id="edge7_Node000001_Node000007" class="edge">
<title>Node1&#45;&gt;Node7</title>
<g id="a_edge7_Node000001_Node000007"><a xlink:title=" ">
<path fill="none" stroke="#63b8ff" d="M47.32,-333.04C50.6,-299.77 65.74,-191.38 127,-135 132.37,-130.06 138.71,-126.13 145.45,-123"/>
<polygon fill="#63b8ff" stroke="#63b8ff" points="146.86,-126.21 154.82,-119.23 144.24,-119.72 146.86,-126.21"/>
</a>
</g>
</g>
<!-- Node8 -->
<g id="Node000008" class="node">
<title>Node8</title>
<g id="a_Node000008"><a xlink:href="m__checker_8fpp_8f90.html#a89185a899611c8b9c8a9fecd6cfe828a" target="_top" xlink:title="Checks constraints on body forces parameters (bf_x[y,z], etc.)">
<polygon fill="white" stroke="#666666" points="269.5,-78 149.5,-78 149.5,-48 269.5,-48 269.5,-78"/>
<text text-anchor="start" x="157.5" y="-66" font-family="Helvetica,sans-Serif" font-size="10.00">s_check_inputs_body</text>
<text text-anchor="middle" x="209.5" y="-55" font-family="Helvetica,sans-Serif" font-size="10.00">_forces</text>
</a>
</g>
</g>
<!-- Node1&#45;&gt;Node8 -->
<g id="edge9_Node000001_Node000008" class="edge">
<title>Node1&#45;&gt;Node8</title>
<g id="a_edge9_Node000001_Node000008"><a xlink:title=" ">
<path fill="none" stroke="#63b8ff" d="M46.49,-333.5C46.98,-296.26 53.86,-158.81 127,-87 130.95,-83.12 135.49,-79.87 140.36,-77.14"/>
<polygon fill="#63b8ff" stroke="#63b8ff" points="141.95,-80.26 149.44,-72.76 138.91,-73.95 141.95,-80.26"/>
</a>
</g>
</g>
<!-- Node9 -->
<g id="Node000009" class="node">
<title>Node9</title>
<g id="a_Node000009"><a xlink:href="m__checker_8fpp_8f90.html#a3e9776ba1676e10c025fc3a7325fdf11" target="_top" xlink:title="Checks constraints on bubble parameters.">
<polygon fill="white" stroke="#666666" points="276.5,-30 142.5,-30 142.5,0 276.5,0 276.5,-30"/>
<text text-anchor="start" x="150.5" y="-18" font-family="Helvetica,sans-Serif" font-size="10.00">s_check_inputs_bubbles</text>
<text text-anchor="middle" x="209.5" y="-7" font-family="Helvetica,sans-Serif" font-size="10.00">_euler</text>
</a>
</g>
</g>
<!-- Node1&#45;&gt;Node9 -->
<g id="edge11_Node000001_Node000009" class="edge">
<title>Node1&#45;&gt;Node9</title>
<g id="a_edge11_Node000001_Node000009"><a xlink:title=" ">
<path fill="none" stroke="#63b8ff" d="M47.79,-333.28C54.18,-286.29 83.98,-83.22 127,-39 129.07,-36.87 131.33,-34.92 133.71,-33.15"/>
<polygon fill="#63b8ff" stroke="#63b8ff" points="135.7,-36.04 142.31,-27.75 131.98,-30.11 135.7,-36.04"/>
</a>
</g>
</g>
<!-- Node10 -->
<g id="Node000010" class="node">
<title>Node10</title>
<g id="a_Node000010"><a xlink:href="m__checker_8fpp_8f90.html#a32439099aec521ca9e7a5de00bf53030" target="_top" xlink:title="Checks constraints on lagrangian bubble parameters.">
<polygon fill="white" stroke="#666666" points="276.5,-543 142.5,-543 142.5,-513 276.5,-513 276.5,-543"/>
<text text-anchor="start" x="150.5" y="-531" font-family="Helvetica,sans-Serif" font-size="10.00">s_check_inputs_bubbles</text>
<text text-anchor="middle" x="209.5" y="-520" font-family="Helvetica,sans-Serif" font-size="10.00">_lagrange</text>
</a>
</g>
</g>
<!-- Node1&#45;&gt;Node10 -->
<g id="edge13_Node000001_Node000010" class="edge">
<title>Node1&#45;&gt;Node10</title>
<g id="a_edge13_Node000001_Node000010"><a xlink:title=" ">
<path fill="none" stroke="#63b8ff" d="M48.49,-352.65C54.74,-380.53 76.67,-461.88 127,-504 129.03,-505.7 131.17,-507.28 133.41,-508.74"/>
<polygon fill="#63b8ff" stroke="#63b8ff" points="131.99,-511.96 142.42,-513.86 135.45,-505.88 131.99,-511.96"/>
</a>
</g>
</g>
<!-- Node11 -->
<g id="Node000011" class="node">
<title>Node11</title>
<g id="a_Node000011"><a xlink:href="m__checker_8fpp_8f90.html#a1ec74473406fc22a2f83913581b1d715" target="_top" xlink:title="Checks constraints on compiler options.">
<polygon fill="white" stroke="#666666" points="281.5,-494.5 137.5,-494.5 137.5,-475.5 281.5,-475.5 281.5,-494.5"/>
<text text-anchor="middle" x="209.5" y="-482.5" font-family="Helvetica,sans-Serif" font-size="10.00">s_check_inputs_compilers</text>
</a>
</g>
</g>
<!-- Node1&#45;&gt;Node11 -->
<g id="edge15_Node000001_Node000011" class="edge">
<title>Node1&#45;&gt;Node11</title>
<g id="a_edge15_Node000001_Node000011"><a xlink:title=" ">
<path fill="none" stroke="#63b8ff" d="M49.96,-352.82C58.8,-376.37 84.54,-436.31 127,-466 129.74,-467.91 132.64,-469.64 135.66,-471.19"/>
<polygon fill="#63b8ff" stroke="#63b8ff" points="134.45,-474.48 145.01,-475.35 137.29,-468.09 134.45,-474.48"/>
</a>
</g>
</g>
<!-- Node12 -->
<g id="Node000012" class="node">
<title>Node12</title>
<g id="a_Node000012"><a xlink:href="m__checker_8fpp_8f90.html#a97581e8fbf3e7e5851a080887b0f8fce" target="_top" xlink:title="Checks constraints on geometry and precision.">
<polygon fill="white" stroke="#666666" points="281,-457 138,-457 138,-427 281,-427 281,-457"/>
<text text-anchor="start" x="146" y="-445" font-family="Helvetica,sans-Serif" font-size="10.00">s_check_inputs_geometry</text>
<text text-anchor="middle" x="209.5" y="-434" font-family="Helvetica,sans-Serif" font-size="10.00">_precision</text>
</a>
</g>
</g>
<!-- Node1&#45;&gt;Node12 -->
<g id="edge17_Node000001_Node000012" class="edge">
<title>Node1&#45;&gt;Node12</title>
<g id="a_edge17_Node000001_Node000012"><a xlink:title=" ">
<path fill="none" stroke="#63b8ff" d="M54.13,-352.55C67.32,-368.44 95.97,-400.31 127,-418 130.2,-419.82 133.55,-421.52 136.99,-423.1"/>
<polygon fill="#63b8ff" stroke="#63b8ff" points="135.7,-426.35 146.27,-427 138.41,-419.9 135.7,-426.35"/>
</a>
</g>
</g>
<!-- Node13 -->
<g id="Node000013" class="node">
<title>Node13</title>
<g id="a_Node000013"><a xlink:href="m__checker_8fpp_8f90.html#a81a6cf9985e236ecb2a9b24191d1dccc" target="_top" xlink:title="Checks constraints for GRCBC.">
<polygon fill="white" stroke="#666666" points="270.5,-408.5 148.5,-408.5 148.5,-389.5 270.5,-389.5 270.5,-408.5"/>
<text text-anchor="middle" x="209.5" y="-396.5" font-family="Helvetica,sans-Serif" font-size="10.00">s_check_inputs_grcbc</text>
</a>
</g>
</g>
<!-- Node1&#45;&gt;Node13 -->
<g id="edge19_Node000001_Node000013" class="edge">
<title>Node1&#45;&gt;Node13</title>
<g id="a_edge19_Node000001_Node000013"><a xlink:title=" ">
<path fill="none" stroke="#63b8ff" d="M63.93,-352.63C79.92,-361.12 104.48,-373.31 127,-381 133.45,-383.2 140.28,-385.2 147.13,-387"/>
<polygon fill="#63b8ff" stroke="#63b8ff" points="146.6,-390.48 157.15,-389.49 148.29,-383.68 146.6,-390.48"/>
</a>
</g>
</g>
<!-- Node14 -->
<g id="Node000014" class="node">
<title>Node14</title>
<g id="a_Node000014"><a xlink:href="m__checker_8fpp_8f90.html#a3faaf9823edfbc75c4dc5b7fc44606e2" target="_top" xlink:title="Checks constraints on hypoelasticity parameters.">
<polygon fill="white" stroke="#666666" points="292,-371.5 127,-371.5 127,-352.5 292,-352.5 292,-371.5"/>
<text text-anchor="middle" x="209.5" y="-359.5" font-family="Helvetica,sans-Serif" font-size="10.00">s_check_inputs_hypoelasticity</text>
</a>
</g>
</g>
<!-- Node1&#45;&gt;Node14 -->
<g id="edge21_Node000001_Node000014" class="edge">
<title>Node1&#45;&gt;Node14</title>
<g id="a_edge21_Node000001_Node000014"><a xlink:title=" ">
<path fill="none" stroke="#63b8ff" d="M91.2,-348.24C99.36,-349.2 108.15,-350.23 117.11,-351.28"/>
<polygon fill="#63b8ff" stroke="#63b8ff" points="116.93,-354.78 127.27,-352.47 117.75,-347.83 116.93,-354.78"/>
</a>
</g>
</g>
<!-- Node15 -->
<g id="Node000015" class="node">
<title>Node15</title>
<g id="a_Node000015"><a xlink:href="m__checker_8fpp_8f90.html#a056bdbf07520073ed10595aca47b7669" target="_top" xlink:title="Checks miscellaneous constraints, including constraints on probe_wrt and integral_wrt.">
<polygon fill="white" stroke="#666666" points="269,-334.5 150,-334.5 150,-315.5 269,-315.5 269,-334.5"/>
<text text-anchor="middle" x="209.5" y="-322.5" font-family="Helvetica,sans-Serif" font-size="10.00">s_check_inputs_misc</text>
</a>
</g>
</g>
<!-- Node1&#45;&gt;Node15 -->
<g id="edge23_Node000001_Node000015" class="edge">
<title>Node1&#45;&gt;Node15</title>
<g id="a_edge23_Node000001_Node000015"><a xlink:title=" ">
<path fill="none" stroke="#63b8ff" d="M91.2,-338.03C106.24,-336.36 123.4,-334.46 139.85,-332.63"/>
<polygon fill="#63b8ff" stroke="#63b8ff" points="140.43,-336.08 149.98,-331.5 139.66,-329.13 140.43,-336.08"/>
</a>
</g>
</g>
<!-- Node16 -->
<g id="Node000016" class="node">
<title>Node16</title>
<g id="a_Node000016"><a xlink:href="m__checker_8fpp_8f90.html#a61286e89b33872b9abb5005a1117514f" target="_top" xlink:title="Checks constraints on parameters related to 6&#45;equation model.">
<polygon fill="white" stroke="#666666" points="287,-297.5 132,-297.5 132,-278.5 287,-278.5 287,-297.5"/>
<text text-anchor="middle" x="209.5" y="-285.5" font-family="Helvetica,sans-Serif" font-size="10.00">s_check_inputs_model_eqns</text>
</a>
</g>
</g>
<!-- Node1&#45;&gt;Node16 -->
<g id="edge25_Node000001_Node000016" class="edge">
<title>Node1&#45;&gt;Node16</title>
<g id="a_edge25_Node000001_Node000016"><a xlink:title=" ">
<path fill="none" stroke="#63b8ff" d="M64.27,-333.49C80.29,-325.25 104.69,-313.49 127,-306 133.46,-303.83 140.3,-301.85 147.16,-300.06"/>
<polygon fill="#63b8ff" stroke="#63b8ff" points="148.31,-303.38 157.18,-297.58 146.63,-296.59 148.31,-303.38"/>
</a>
</g>
</g>
<!-- Node17 -->
<g id="Node000017" class="node">
<title>Node17</title>
<g id="a_Node000017"><a xlink:href="m__checker_8fpp_8f90.html#a9102145eeb698e567d1df3cc502fb3ca" target="_top" xlink:title="Checks constraints on Riemann solver parameters.">
<polygon fill="white" stroke="#666666" points="278,-260 141,-260 141,-230 278,-230 278,-260"/>
<text text-anchor="start" x="149" y="-248" font-family="Helvetica,sans-Serif" font-size="10.00">s_check_inputs_riemann</text>
<text text-anchor="middle" x="209.5" y="-237" font-family="Helvetica,sans-Serif" font-size="10.00">_solver</text>
</a>
</g>
</g>
<!-- Node1&#45;&gt;Node17 -->
<g id="edge27_Node000001_Node000017" class="edge">
<title>Node1&#45;&gt;Node17</title>
<g id="a_edge27_Node000001_Node000017"><a xlink:title=" ">
<path fill="none" stroke="#63b8ff" d="M54.37,-333.33C67.7,-317.57 96.27,-286.39 127,-269 130.21,-267.19 133.56,-265.5 137.01,-263.93"/>
<polygon fill="#63b8ff" stroke="#63b8ff" points="138.42,-267.13 146.3,-260.04 135.72,-260.67 138.42,-267.13"/>
</a>
</g>
</g>
<!-- Node18 -->
<g id="Node000018" class="node">
<title>Node18</title>
<g id="a_Node000018"><a xlink:href="m__checker_8fpp_8f90.html#a1594c29ddde8d06f6d719d2640c4bda0" target="_top" xlink:title="Checks constraints on viscosity parameters (fluid_pp(i)Re(1:2)) of the stiffened gas equation of stat...">
<polygon fill="white" stroke="#666666" points="279,-629 140,-629 140,-599 279,-599 279,-629"/>
<text text-anchor="start" x="148" y="-617" font-family="Helvetica,sans-Serif" font-size="10.00">s_check_inputs_stiffened</text>
<text text-anchor="middle" x="209.5" y="-606" font-family="Helvetica,sans-Serif" font-size="10.00">_eos_viscosity</text>
</a>
</g>
</g>
<!-- Node1&#45;&gt;Node18 -->
<g id="edge29_Node000001_Node000018" class="edge">
<title>Node1&#45;&gt;Node18</title>
<g id="a_edge29_Node000001_Node000018"><a xlink:title=" ">
<path fill="none" stroke="#63b8ff" d="M46.62,-352.67C47.61,-389.34 56.16,-521.17 127,-590 128.43,-591.39 129.93,-592.7 131.5,-593.93"/>
<polygon fill="#63b8ff" stroke="#63b8ff" points="129.56,-596.84 139.82,-599.49 133.45,-591.02 129.56,-596.84"/>
</a>
</g>
</g>
<!-- Node19 -->
<g id="Node000019" class="node">
<title>Node19</title>
<g id="a_Node000019"><a xlink:href="m__checker_8fpp_8f90.html#a10a39588572b896b2434e139bb617024" target="_top" xlink:title="Checks constraints on time stepping parameters.">
<polygon fill="white" stroke="#666666" points="269,-212 150,-212 150,-182 269,-182 269,-212"/>
<text text-anchor="start" x="158" y="-200" font-family="Helvetica,sans-Serif" font-size="10.00">s_check_inputs_time</text>
<text text-anchor="middle" x="209.5" y="-189" font-family="Helvetica,sans-Serif" font-size="10.00">_stepping</text>
</a>
</g>
</g>
<!-- Node1&#45;&gt;Node19 -->
<g id="edge32_Node000001_Node000019" class="edge">
<title>Node1&#45;&gt;Node19</title>
<g id="a_edge32_Node000001_Node000019"><a xlink:title=" ">
<path fill="none" stroke="#63b8ff" d="M50.1,-333.42C59.23,-310.4 85.59,-251.64 127,-221 131.19,-217.9 135.78,-215.2 140.57,-212.84"/>
<polygon fill="#63b8ff" stroke="#63b8ff" points="142.23,-215.94 150,-208.73 139.43,-209.52 142.23,-215.94"/>
</a>
</g>
</g>
<!-- Node20 -->
<g id="Node000020" class="node">
<title>Node20</title>
<g id="a_Node000020"><a xlink:href="m__checker_8fpp_8f90.html#a23f98a426ce18528b3a31fc119dd4863" target="_top" xlink:title="Checks constraints on WENO scheme parameters.">
<polygon fill="white" stroke="#666666" points="270.5,-580.5 148.5,-580.5 148.5,-561.5 270.5,-561.5 270.5,-580.5"/>
<text text-anchor="middle" x="209.5" y="-568.5" font-family="Helvetica,sans-Serif" font-size="10.00">s_check_inputs_weno</text>
</a>
</g>
</g>
<!-- Node1&#45;&gt;Node20 -->
<g id="edge34_Node000001_Node000020" class="edge">
<title>Node1&#45;&gt;Node20</title>
<g id="a_edge34_Node000001_Node000020"><a xlink:title=" ">
<path fill="none" stroke="#63b8ff" d="M47.14,-352.68C49.89,-385.98 63.64,-496.87 127,-552 130.64,-555.17 134.72,-557.84 139.04,-560.08"/>
<polygon fill="#63b8ff" stroke="#63b8ff" points="137.67,-563.3 148.23,-564.11 140.48,-556.89 137.67,-563.3"/>
</a>
</g>
</g>
<!-- Node3 -->
<g id="Node000003" class="node">
<title>Node3</title>
<g id="a_Node000003"><a xlink:href="m__helper_8fpp_8f90.html#a8a0505b2bd4f3d8cb2bf3ce16cfe01e3" target="_top" xlink:title=" ">
<polygon fill="white" stroke="#666666" points="412,-623.5 339,-623.5 339,-604.5 412,-604.5 412,-623.5"/>
<text text-anchor="middle" x="375.5" y="-611.5" font-family="Helvetica,sans-Serif" font-size="10.00">s_int_to_str</text>
</a>
</g>
</g>
<!-- Node2&#45;&gt;Node3 -->
<g id="edge2_Node000002_Node000003" class="edge">
<title>Node2&#45;&gt;Node3</title>
<g id="a_edge2_Node000002_Node000003"><a xlink:title=" ">
<path fill="none" stroke="#63b8ff" d="M253.33,-647.47C265.83,-644.57 279.49,-641.28 292,-638 305.57,-634.45 320.3,-630.27 333.51,-626.4"/>
<polygon fill="#63b8ff" stroke="#63b8ff" points="334.67,-629.71 343.27,-623.52 332.69,-622.99 334.67,-629.71"/>
</a>
</g>
</g>
<!-- Node4 -->
<g id="Node000004" class="node">
<title>Node4</title>
<g id="a_Node000004"><a xlink:href="m__mpi__common_8fpp_8f90.html#a519ff3c575b59b7e6c42115b237a8a1b" target="_top" xlink:title=" ">
<polygon fill="white" stroke="#666666" points="423,-353.5 328,-353.5 328,-334.5 423,-334.5 423,-353.5"/>
<text text-anchor="middle" x="375.5" y="-341.5" font-family="Helvetica,sans-Serif" font-size="10.00">s_prohibit_abort</text>
</a>
</g>
</g>
<!-- Node2&#45;&gt;Node4 -->
<g id="edge3_Node000002_Node000004" class="edge">
<title>Node2&#45;&gt;Node4</title>
<g id="a_edge3_Node000002_Node000004"><a xlink:title=" ">
<path fill="none" stroke="#63b8ff" d="M278.47,-647.43C283.41,-644.92 288.01,-641.82 292,-638 371.42,-562.04 376.31,-416.33 375.3,-363.63"/>
<polygon fill="#63b8ff" stroke="#63b8ff" points="378.8,-363.49 375.01,-353.6 371.8,-363.69 378.8,-363.49"/>
</a>
</g>
</g>
<!-- Node5 -->
<g id="Node000005" class="node">
<title>Node5</title>
<g id="a_Node000005"><a xlink:href="m__mpi__common_8fpp_8f90.html#a1089c9f9b69c10c74d35a4189ec13c35" target="_top" xlink:title="The subroutine terminates the MPI execution environment.">
<polygon fill="white" stroke="#666666" points="536,-353.5 459,-353.5 459,-334.5 536,-334.5 536,-353.5"/>
<text text-anchor="middle" x="497.5" y="-341.5" font-family="Helvetica,sans-Serif" font-size="10.00">s_mpi_abort</text>
</a>
</g>
</g>
<!-- Node4&#45;&gt;Node5 -->
<g id="edge4_Node000004_Node000005" class="edge">
<title>Node4&#45;&gt;Node5</title>
<g id="a_edge4_Node000004_Node000005"><a xlink:title=" ">
<path fill="none" stroke="#63b8ff" d="M423.24,-344C431.66,-344 440.45,-344 448.89,-344"/>
<polygon fill="#63b8ff" stroke="#63b8ff" points="448.98,-347.5 458.98,-344 448.98,-340.5 448.98,-347.5"/>
</a>
</g>
</g>
<!-- Node6&#45;&gt;Node4 -->
<g id="edge6_Node000006_Node000004" class="edge">
<title>Node6&#45;&gt;Node4</title>
<g id="a_edge6_Node000006_Node000004"><a xlink:title=" ">
<path fill="none" stroke="#63b8ff" d="M276.15,-163.64C281.84,-166.11 287.24,-169.19 292,-173 341.22,-212.41 362.95,-288.41 370.79,-324.3"/>
<polygon fill="#63b8ff" stroke="#63b8ff" points="367.43,-325.36 372.86,-334.45 374.29,-323.95 367.43,-325.36"/>
</a>
</g>
</g>
<!-- Node7&#45;&gt;Node4 -->
<g id="edge8_Node000007_Node000004" class="edge">
<title>Node7&#45;&gt;Node4</title>
<g id="a_edge8_Node000007_Node000004"><a xlink:title=" ">
<path fill="none" stroke="#63b8ff" d="M264.14,-119.27C274.29,-122.8 284.16,-127.83 292,-135 348.84,-186.97 367.08,-283.09 372.45,-324.35"/>
<polygon fill="#63b8ff" stroke="#63b8ff" points="368.99,-324.93 373.64,-334.45 375.94,-324.11 368.99,-324.93"/>
</a>
</g>
</g>
<!-- Node8&#45;&gt;Node4 -->
<g id="edge10_Node000008_Node000004" class="edge">
<title>Node8&#45;&gt;Node4</title>
<g id="a_edge10_Node000008_Node000004"><a xlink:title=" ">
<path fill="none" stroke="#63b8ff" d="M269.53,-72.79C277.83,-76.22 285.67,-80.82 292,-87 360.16,-153.52 372.09,-276.41 374.12,-324.23"/>
<polygon fill="#63b8ff" stroke="#63b8ff" points="370.63,-324.57 374.44,-334.45 377.62,-324.35 370.63,-324.57"/>
</a>
</g>
</g>
<!-- Node9&#45;&gt;Node4 -->
<g id="edge12_Node000009_Node000004" class="edge">
<title>Node9&#45;&gt;Node4</title>
<g id="a_edge12_Node000009_Node000004"><a xlink:title=" ">
<path fill="none" stroke="#63b8ff" d="M276.66,-27.78C282.32,-30.78 287.57,-34.47 292,-39 371.68,-120.47 376.37,-270.58 375.3,-324.27"/>
<polygon fill="#63b8ff" stroke="#63b8ff" points="371.8,-324.36 375,-334.46 378.8,-324.57 371.8,-324.36"/>
</a>
</g>
</g>
<!-- Node10&#45;&gt;Node4 -->
<g id="edge14_Node000010_Node000004" class="edge">
<title>Node10&#45;&gt;Node4</title>
<g id="a_edge14_Node000010_Node000004"><a xlink:title=" ">
<path fill="none" stroke="#63b8ff" d="M276.53,-513.8C282.08,-511.09 287.34,-507.85 292,-504 337.46,-466.44 360.72,-397.34 369.81,-363.59"/>
<polygon fill="#63b8ff" stroke="#63b8ff" points="373.28,-364.15 372.37,-353.59 366.5,-362.42 373.28,-364.15"/>
</a>
</g>
</g>
<!-- Node11&#45;&gt;Node4 -->
<g id="edge16_Node000011_Node000004" class="edge">
<title>Node11&#45;&gt;Node4</title>
<g id="a_edge16_Node000011_Node000004"><a xlink:title=" ">
<path fill="none" stroke="#63b8ff" d="M273.52,-475.43C280.07,-472.96 286.37,-469.87 292,-466 329.75,-440.03 355.08,-390.63 366.87,-363.33"/>
<polygon fill="#63b8ff" stroke="#63b8ff" points="370.26,-364.32 370.85,-353.74 363.79,-361.64 370.26,-364.32"/>
</a>
</g>
</g>
<!-- Node12&#45;&gt;Node4 -->
<g id="edge18_Node000012_Node000004" class="edge">
<title>Node12&#45;&gt;Node4</title>
<g id="a_edge18_Node000012_Node000004"><a xlink:title=" ">
<path fill="none" stroke="#63b8ff" d="M272.66,-426.88C279.37,-424.32 285.95,-421.38 292,-418 318.86,-403.02 344.34,-377.9 359.69,-361.14"/>
<polygon fill="#63b8ff" stroke="#63b8ff" points="362.32,-363.45 366.38,-353.66 357.1,-358.78 362.32,-363.45"/>
</a>
</g>
</g>
<!-- Node13&#45;&gt;Node4 -->
<g id="edge20_Node000013_Node000004" class="edge">
<title>Node13&#45;&gt;Node4</title>
<g id="a_edge20_Node000013_Node000004"><a xlink:title=" ">
<path fill="none" stroke="#63b8ff" d="M261.37,-389.45C271.61,-387.05 282.23,-384.23 292,-381 310.76,-374.79 331.02,-365.75 346.76,-358.15"/>
<polygon fill="#63b8ff" stroke="#63b8ff" points="348.5,-361.2 355.93,-353.65 345.41,-354.91 348.5,-361.2"/>
</a>
</g>
</g>
<!-- Node14&#45;&gt;Node4 -->
<g id="edge22_Node000014_Node000004" class="edge">
<title>Node14&#45;&gt;Node4</title>
<g id="a_edge22_Node000014_Node000004"><a xlink:title=" ">
<path fill="none" stroke="#63b8ff" d="M292.02,-353.05C300.61,-352.11 309.21,-351.17 317.44,-350.26"/>
<polygon fill="#63b8ff" stroke="#63b8ff" points="318.08,-353.71 327.63,-349.14 317.31,-346.76 318.08,-353.71"/>
</a>
</g>
</g>
<!-- Node15&#45;&gt;Node4 -->
<g id="edge24_Node000015_Node000004" class="edge">
<title>Node15&#45;&gt;Node4</title>
<g id="a_edge24_Node000015_Node000004"><a xlink:title=" ">
<path fill="none" stroke="#63b8ff" d="M269.24,-331.81C285.08,-333.64 302.17,-335.62 317.89,-337.44"/>
<polygon fill="#63b8ff" stroke="#63b8ff" points="317.65,-340.94 327.99,-338.61 318.45,-333.98 317.65,-340.94"/>
</a>
</g>
</g>
<!-- Node16&#45;&gt;Node4 -->
<g id="edge26_Node000016_Node000004" class="edge">
<title>Node16&#45;&gt;Node4</title>
<g id="a_edge26_Node000016_Node000004"><a xlink:title=" ">
<path fill="none" stroke="#63b8ff" d="M261.83,-297.58C271.94,-299.95 282.39,-302.77 292,-306 311.06,-312.41 331.61,-321.87 347.42,-329.74"/>
<polygon fill="#63b8ff" stroke="#63b8ff" points="346.11,-333 356.61,-334.4 349.27,-326.75 346.11,-333"/>
</a>
</g>
</g>
<!-- Node17&#45;&gt;Node4 -->
<g id="edge28_Node000017_Node000004" class="edge">
<title>Node17&#45;&gt;Node4</title>
<g id="a_edge28_Node000017_Node000004"><a xlink:title=" ">
<path fill="none" stroke="#63b8ff" d="M272.68,-260.08C279.39,-262.64 285.96,-265.6 292,-269 319.12,-284.24 344.7,-309.9 359.99,-326.9"/>
<polygon fill="#63b8ff" stroke="#63b8ff" points="357.4,-329.25 366.63,-334.46 362.66,-324.63 357.4,-329.25"/>
</a>
</g>
</g>
<!-- Node18&#45;&gt;Node3 -->
<g id="edge30_Node000018_Node000003" class="edge">
<title>Node18&#45;&gt;Node3</title>
<g id="a_edge30_Node000018_Node000003"><a xlink:title=" ">
<path fill="none" stroke="#63b8ff" d="M279.1,-614C295.79,-614 313.24,-614 328.58,-614"/>
<polygon fill="#63b8ff" stroke="#63b8ff" points="328.83,-617.5 338.83,-614 328.83,-610.5 328.83,-617.5"/>
</a>
</g>
</g>
<!-- Node18&#45;&gt;Node4 -->
<g id="edge31_Node000018_Node000004" class="edge">
<title>Node18&#45;&gt;Node4</title>
<g id="a_edge31_Node000018_Node000004"><a xlink:title=" ">
<path fill="none" stroke="#63b8ff" d="M279.15,-599.45C283.82,-596.81 288.18,-593.68 292,-590 357.49,-526.9 371,-410.33 373.78,-363.87"/>
<polygon fill="#63b8ff" stroke="#63b8ff" points="377.29,-363.8 374.28,-353.64 370.29,-363.46 377.29,-363.8"/>
</a>
</g>
</g>
<!-- Node19&#45;&gt;Node4 -->
<g id="edge33_Node000019_Node000004" class="edge">
<title>Node19&#45;&gt;Node4</title>
<g id="a_edge33_Node000019_Node000004"><a xlink:title=" ">
<path fill="none" stroke="#63b8ff" d="M269.39,-208.94C277.42,-212.08 285.22,-216.03 292,-221 329.15,-248.27 354.72,-297.63 366.71,-324.8"/>
<polygon fill="#63b8ff" stroke="#63b8ff" points="363.63,-326.5 370.77,-334.34 370.08,-323.77 363.63,-326.5"/>
</a>
</g>
</g>
<!-- Node20&#45;&gt;Node3 -->
<g id="edge35_Node000020_Node000003" class="edge">
<title>Node20&#45;&gt;Node3</title>
<g id="a_edge35_Node000020_Node000003"><a xlink:title=" ">
<path fill="none" stroke="#63b8ff" d="M253.33,-580.53C265.83,-583.43 279.49,-586.72 292,-590 305.57,-593.55 320.3,-597.73 333.51,-601.6"/>
<polygon fill="#63b8ff" stroke="#63b8ff" points="332.69,-605.01 343.27,-604.48 334.67,-598.29 332.69,-605.01"/>
</a>
</g>
</g>
<!-- Node20&#45;&gt;Node4 -->
<g id="edge36_Node000020_Node000004" class="edge">
<title>Node20&#45;&gt;Node4</title>
<g id="a_edge36_Node000020_Node000004"><a xlink:title=" ">
<path fill="none" stroke="#63b8ff" d="M270.72,-564.05C278.47,-561.21 285.84,-557.31 292,-552 350.11,-501.94 367.66,-405.38 372.65,-363.82"/>
<polygon fill="#63b8ff" stroke="#63b8ff" points="376.15,-363.95 373.74,-353.64 369.19,-363.2 376.15,-363.95"/>
</a>
</g>
</g>
</g>
</svg>

<g id="navigator" transform="translate(0 0)" fill="#404254">
  <rect fill="#f2f5e9" fill-opacity="0.5" stroke="#606060" stroke-width=".5" x="0" y="0" width="60" height="60"/>
  <use id="zoomplus" xlink:href="#zoomPlus" x="17" y="9" onmousedown="handleZoom(evt,'in')"/>
  <use id="zoomminus" xlink:href="#zoomMin" x="42" y="9" onmousedown="handleZoom(evt,'out')"/>
  <use id="reset" xlink:href="#resetDef" x="30" y="36" onmousedown="handleReset()"/>
   <use id="arrowup" xlink:href="#arrowUp" x="0" y="0" onmousedown="handlePan(0,-1)"/>
  <use id="arrowright" xlink:href="#arrowRight" x="0" y="0" onmousedown="handlePan(1,0)"/>
  <use id="arrowdown" xlink:href="#arrowDown" x="0" y="0" onmousedown="handlePan(0,1)"/>
  <use id="arrowleft" xlink:href="#arrowLeft" x="0" y="0" onmousedown="handlePan(-1,0)"/>
</g>
<svg viewBox="0 0 15 15" width="100%" height="30px" preserveAspectRatio="xMaxYMin meet">
 <g id="arrow_out" transform="scale(0.3 0.3)">
  <a xlink:href="m__checker_8fpp_8f90_a66c49f3c83092720b368c30c6048538a_cgraph_org.svg" target="_base">
   <rect id="button" ry="5" rx="5" y="6" x="6" height="38" width="38"
        fill="#f2f5e9" fill-opacity="0.5" stroke="#606060" stroke-width="1.0"/>
   <path id="arrow"
     d="M 11.500037,31.436501 C 11.940474,20.09759 22.043105,11.32322 32.158766,21.979434 L 37.068811,17.246167 C 37.068811,17.246167 37.088388,32 37.088388,32 L 22.160133,31.978069 C 22.160133,31.978069 26.997745,27.140456 26.997745,27.140456 C 18.528582,18.264221 13.291696,25.230495 11.500037,31.436501 z"
     style="fill:#404040;"/>
  </a>
 </g>
</svg>

<style type='text/css'>
<![CDATA[
[data-mouse-over-selected='false'] { opacity: 0.7; }
[data-mouse-over-selected='true']  { opacity: 1.0; }
]]>
</style>
<script type="application/ecmascript"><![CDATA[
document.addEventListener('DOMContentLoaded', (event) => {
  highlightEdges();
  highlightAdjacentNodes();
});
]]></script>
</svg>
