<?xml version="1.0" encoding="UTF-8" standalone="no"?>
<!DOCTYPE svg PUBLIC "-//W3C//DTD SVG 1.1//EN"
 "http://www.w3.org/Graphics/SVG/1.1/DTD/svg11.dtd">
<!-- Generated by graphviz version 2.43.0 (0)
 -->
<!-- Title: s_associate_cbc_coefficients_pointers Pages: 1 -->
<!--zoomable 190 -->

<svg id="main" version="1.1" xmlns="http://www.w3.org/2000/svg" xmlns:xlink="http://www.w3.org/1999/xlink" xml:space="preserve" onload="init(evt)">

<style type="text/css"><![CDATA[
.node, .edge {opacity: 0.7;}
.node.selected, .edge.selected {opacity: 1;}
.edge:hover path { stroke: red; }
.edge:hover polygon { stroke: red; fill: red; }
]]></style>

<defs>
  <circle id="rim" cx="0" cy="0" r="7"/>
  <circle id="rim2" cx="0" cy="0" r="3.5"/>
  <g id="zoomPlus">
    <use xlink:href="#rim" fill="#404040"><set attributeName="fill" to="#808080" begin="zoomplus.mouseover" end="zoomplus.mouseout"/></use>
    <path d="M-4,0h8M0,-4v8" fill="none" stroke="white" stroke-width="1.5" pointer-events="none"/>
  </g>
  <g id="zoomMin">
    <use xlink:href="#rim" fill="#404040"><set attributeName="fill" to="#808080" begin="zoomminus.mouseover" end="zoomminus.mouseout"/></use>
    <path d="M-4,0h8" fill="none" stroke="white" stroke-width="1.5" pointer-events="none"/>
  </g>
  <g id="arrowUp" transform="translate(30 24)">
    <use xlink:href="#rim"/>
    <path pointer-events="none" fill="none" stroke="white" stroke-width="1.5" d="M0,-3.0v7 M-2.5,-0.5L0,-3.0L2.5,-0.5"/>
  </g>
  <g id="arrowRight" transform="rotate(90) translate(36 -43)">
    <use xlink:href="#rim"/>
    <path pointer-events="none" fill="none" stroke="white" stroke-width="1.5" d="M0,-3.0v7 M-2.5,-0.5L0,-3.0L2.5,-0.5"/>
  </g>
  <g id="arrowDown" transform="rotate(180) translate(-30 -48)">
    <use xlink:href="#rim"/>
    <path pointer-events="none" fill="none" stroke="white" stroke-width="1.5" d="M0,-3.0v7 M-2.5,-0.5L0,-3.0L2.5,-0.5"/>
  </g>
  <g id="arrowLeft" transform="rotate(270) translate(-36 17)">
    <use xlink:href="#rim"/>
    <path pointer-events="none" fill="none" stroke="white" stroke-width="1.5" d="M0,-3.0v7 M-2.5,-0.5L0,-3.0L2.5,-0.5"/>
  </g>
  <g id="resetDef">
    <use xlink:href="#rim2" fill="#404040"><set attributeName="fill" to="#808080" begin="reset.mouseover" end="reset.mouseout"/></use>
  </g>
</defs>
<script type="application/ecmascript">
var viewWidth = 1236;
var viewHeight = 190;
var sectionId = 'dynsection-2';
</script>
<script type="application/ecmascript" xlink:href="svg.min.js"/>
<svg id="graph" class="graph">
<g id="viewport">
<title>s_associate_cbc_coefficients_pointers</title>
<!-- Node1 -->
<g id="Node000001" class="node">
<title>Node1</title>
<g id="a_Node000001"><a xlink:title=" ">
<polygon fill="#999999" stroke="#666666" points="1228,-49 1071,-49 1071,-19 1228,-19 1228,-49"/>
<text text-anchor="start" x="1079" y="-37" font-family="Helvetica,sans-Serif" font-size="10.00">s_associate_cbc_coefficients</text>
<text text-anchor="middle" x="1149.5" y="-26" font-family="Helvetica,sans-Serif" font-size="10.00">_pointers</text>
</a>
</g>
</g>
<!-- Node2 -->
<g id="Node000002" class="node">
<title>Node2</title>
<g id="a_Node000002"><a xlink:href="m__cbc_8fpp_8f90.html#a9771aa6ccf00c0970db70784acd622b5" target="_top" xlink:title="The following is the implementation of the CBC based on the work of Thompson (1987,...">
<polygon fill="white" stroke="#666666" points="980.5,-62.5 936.5,-62.5 936.5,-43.5 980.5,-43.5 980.5,-62.5"/>
<text text-anchor="middle" x="958.5" y="-50.5" font-family="Helvetica,sans-Serif" font-size="10.00">s_cbc</text>
</a>
</g>
</g>
<!-- Node1&#45;&gt;Node2 -->
<g id="edge1_Node000001_Node000002" class="edge">
<title>Node1&#45;&gt;Node2</title>
<g id="a_edge1_Node000001_Node000002"><a xlink:title=" ">
<path fill="none" stroke="#63b8ff" d="M1060.75,-42.82C1030.94,-45.82 1000.23,-48.91 980.56,-50.88"/>
<polygon fill="#63b8ff" stroke="#63b8ff" points="1061.21,-46.29 1070.81,-41.81 1060.51,-39.33 1061.21,-46.29"/>
</a>
</g>
</g>
<!-- Node13 -->
<g id="Node000013" class="node">
<title>Node13</title>
<g id="a_Node000013"><a xlink:href="m__cbc_8fpp_8f90.html#a72c44fba4b33c0653e1ad21b9423b06a" target="_top" xlink:title="Compute CBC coefficients.">
<polygon fill="white" stroke="#666666" points="1035,-25.5 882,-25.5 882,-6.5 1035,-6.5 1035,-25.5"/>
<text text-anchor="middle" x="958.5" y="-13.5" font-family="Helvetica,sans-Serif" font-size="10.00">s_compute_cbc_coefficients</text>
</a>
</g>
</g>
<!-- Node1&#45;&gt;Node13 -->
<g id="edge15_Node000001_Node000013" class="edge">
<title>Node1&#45;&gt;Node13</title>
<g id="a_edge15_Node000001_Node000013"><a xlink:title=" ">
<path fill="none" stroke="#63b8ff" d="M1060.77,-25.65C1052.18,-24.83 1043.52,-24 1035.06,-23.2"/>
<polygon fill="#63b8ff" stroke="#63b8ff" points="1060.52,-29.14 1070.81,-26.6 1061.19,-22.17 1060.52,-29.14"/>
</a>
</g>
</g>
<!-- Node3 -->
<g id="Node000003" class="node">
<title>Node3</title>
<g id="a_Node000003"><a xlink:href="m__cbc_8fpp_8f90.html#a8aaac759a23fea3b31210aa89c940745" target="_top" xlink:title="The module features a large database of characteristic boundary conditions (CBC) for the Euler system...">
<polygon fill="white" stroke="#666666" points="677,-62.5 566,-62.5 566,-43.5 677,-43.5 677,-62.5"/>
<text text-anchor="middle" x="621.5" y="-50.5" font-family="Helvetica,sans-Serif" font-size="10.00">__m_cbc_fpp_f90__</text>
</a>
</g>
</g>
<!-- Node2&#45;&gt;Node3 -->
<g id="edge2_Node000002_Node000003" class="edge">
<title>Node2&#45;&gt;Node3</title>
<g id="a_edge2_Node000002_Node000003"><a xlink:title=" ">
<path fill="none" stroke="#63b8ff" d="M926.1,-53C869.13,-53 748.08,-53 677.25,-53"/>
<polygon fill="#63b8ff" stroke="#63b8ff" points="926.29,-56.5 936.29,-53 926.29,-49.5 926.29,-56.5"/>
</a>
</g>
</g>
<!-- Node4 -->
<g id="Node000004" class="node">
<title>Node4</title>
<g id="a_Node000004"><a xlink:href="m__rhs_8fpp_8f90.html#a376bc3b64f78384ac773235ee7fbdd98" target="_top" xlink:title=" ">
<polygon fill="white" stroke="#666666" points="841,-111 718,-111 718,-81 841,-81 841,-111"/>
<text text-anchor="start" x="726" y="-99" font-family="Helvetica,sans-Serif" font-size="10.00">s_compute_advection</text>
<text text-anchor="middle" x="779.5" y="-88" font-family="Helvetica,sans-Serif" font-size="10.00">_source_term</text>
</a>
</g>
</g>
<!-- Node2&#45;&gt;Node4 -->
<g id="edge3_Node000002_Node000004" class="edge">
<title>Node2&#45;&gt;Node4</title>
<g id="a_edge3_Node000002_Node000004"><a xlink:title=" ">
<path fill="none" stroke="#63b8ff" d="M926.37,-60.56C902.82,-66.28 869.76,-74.32 841.06,-81.29"/>
<polygon fill="#63b8ff" stroke="#63b8ff" points="927.26,-63.95 936.15,-58.19 925.61,-57.15 927.26,-63.95"/>
</a>
</g>
</g>
<!-- Node5 -->
<g id="Node000005" class="node">
<title>Node5</title>
<g id="a_Node000005"><a xlink:href="m__rhs_8fpp_8f90.html#a7bace127dc6fc78b5a53a7e8e7c58f17" target="_top" xlink:title=" ">
<polygon fill="white" stroke="#666666" points="666.5,-105.5 576.5,-105.5 576.5,-86.5 666.5,-86.5 666.5,-105.5"/>
<text text-anchor="middle" x="621.5" y="-93.5" font-family="Helvetica,sans-Serif" font-size="10.00">s_compute_rhs</text>
</a>
</g>
</g>
<!-- Node4&#45;&gt;Node5 -->
<g id="edge4_Node000004_Node000005" class="edge">
<title>Node4&#45;&gt;Node5</title>
<g id="a_edge4_Node000004_Node000005"><a xlink:title=" ">
<path fill="none" stroke="#63b8ff" d="M707.71,-96C693.82,-96 679.63,-96 666.91,-96"/>
<polygon fill="#63b8ff" stroke="#63b8ff" points="707.74,-99.5 717.74,-96 707.74,-92.5 707.74,-99.5"/>
</a>
</g>
</g>
<!-- Node6 -->
<g id="Node000006" class="node">
<title>Node6</title>
<g id="a_Node000006"><a xlink:href="m__rhs_8fpp_8f90.html#a87616394067f1273cd06c4d299d10add" target="_top" xlink:title=" ">
<polygon fill="white" stroke="#666666" points="529,-143.5 419,-143.5 419,-124.5 529,-124.5 529,-143.5"/>
<text text-anchor="middle" x="474" y="-131.5" font-family="Helvetica,sans-Serif" font-size="10.00">__m_rhs_fpp_f90__</text>
</a>
</g>
</g>
<!-- Node5&#45;&gt;Node6 -->
<g id="edge5_Node000005_Node000006" class="edge">
<title>Node5&#45;&gt;Node6</title>
<g id="a_edge5_Node000005_Node000006"><a xlink:title=" ">
<path fill="none" stroke="#63b8ff" d="M573.85,-108.18C553.65,-113.46 530.35,-119.54 511.45,-124.48"/>
<polygon fill="#63b8ff" stroke="#63b8ff" points="574.99,-111.5 583.78,-105.59 573.22,-104.73 574.99,-111.5"/>
</a>
</g>
</g>
<!-- Node7 -->
<g id="Node000007" class="node">
<title>Node7</title>
<g id="a_Node000007"><a xlink:href="m__time__steppers_8fpp_8f90.html#a95dcf858eaba9951c12d4590ec467f62" target="_top" xlink:title="1st order TVD RK time&#45;stepping algorithm">
<polygon fill="white" stroke="#666666" points="371.5,-105.5 262.5,-105.5 262.5,-86.5 371.5,-86.5 371.5,-105.5"/>
<text text-anchor="middle" x="317" y="-93.5" font-family="Helvetica,sans-Serif" font-size="10.00">s_1st_order_tvd_rk</text>
</a>
</g>
</g>
<!-- Node5&#45;&gt;Node7 -->
<g id="edge6_Node000005_Node000007" class="edge">
<title>Node5&#45;&gt;Node7</title>
<g id="a_edge6_Node000005_Node000007"><a xlink:title=" ">
<path fill="none" stroke="#63b8ff" d="M565.92,-96C510.85,-96 426.35,-96 371.62,-96"/>
<polygon fill="#63b8ff" stroke="#63b8ff" points="566.19,-99.5 576.19,-96 566.19,-92.5 566.19,-99.5"/>
</a>
</g>
</g>
<!-- Node10 -->
<g id="Node000010" class="node">
<title>Node10</title>
<g id="a_Node000010"><a xlink:href="m__time__steppers_8fpp_8f90.html#a30504937d9153ef9e5d9990a8894e89a" target="_top" xlink:title="2nd order TVD RK time&#45;stepping algorithm">
<polygon fill="white" stroke="#666666" points="530,-67.5 418,-67.5 418,-48.5 530,-48.5 530,-67.5"/>
<text text-anchor="middle" x="474" y="-55.5" font-family="Helvetica,sans-Serif" font-size="10.00">s_2nd_order_tvd_rk</text>
</a>
</g>
</g>
<!-- Node5&#45;&gt;Node10 -->
<g id="edge9_Node000005_Node000010" class="edge">
<title>Node5&#45;&gt;Node10</title>
<g id="a_edge9_Node000005_Node000010"><a xlink:title=" ">
<path fill="none" stroke="#63b8ff" d="M573.85,-83.82C553.65,-78.54 530.35,-72.46 511.45,-67.52"/>
<polygon fill="#63b8ff" stroke="#63b8ff" points="573.22,-87.27 583.78,-86.41 574.99,-80.5 573.22,-87.27"/>
</a>
</g>
</g>
<!-- Node11 -->
<g id="Node000011" class="node">
<title>Node11</title>
<g id="a_Node000011"><a xlink:href="m__time__steppers_8fpp_8f90.html#aa54ad1694d32cfe180d81112527699e4" target="_top" xlink:title="3rd order TVD RK time&#45;stepping algorithm">
<polygon fill="white" stroke="#666666" points="529,-180.5 419,-180.5 419,-161.5 529,-161.5 529,-180.5"/>
<text text-anchor="middle" x="474" y="-168.5" font-family="Helvetica,sans-Serif" font-size="10.00">s_3rd_order_tvd_rk</text>
</a>
</g>
</g>
<!-- Node5&#45;&gt;Node11 -->
<g id="edge11_Node000005_Node000011" class="edge">
<title>Node5&#45;&gt;Node11</title>
<g id="a_edge11_Node000005_Node000011"><a xlink:title=" ">
<path fill="none" stroke="#63b8ff" d="M599.11,-111.59C581.3,-124.05 554.9,-141.3 530,-153 523.27,-156.16 515.84,-159 508.67,-161.44"/>
<polygon fill="#63b8ff" stroke="#63b8ff" points="601.47,-114.21 607.59,-105.57 597.41,-108.51 601.47,-114.21"/>
</a>
</g>
</g>
<!-- Node8 -->
<g id="Node000008" class="node">
<title>Node8</title>
<g id="a_Node000008"><a xlink:href="namespacem__start__up.html#a0e9a0ef9de315450f9097edfa35265f5" target="_top" xlink:title=" ">
<polygon fill="white" stroke="#666666" points="216,-111 89,-111 89,-81 216,-81 216,-111"/>
<text text-anchor="start" x="97" y="-99" font-family="Helvetica,sans-Serif" font-size="10.00">m_start_up::s_perform</text>
<text text-anchor="middle" x="152.5" y="-88" font-family="Helvetica,sans-Serif" font-size="10.00">_time_step</text>
</a>
</g>
</g>
<!-- Node7&#45;&gt;Node8 -->
<g id="edge7_Node000007_Node000008" class="edge">
<title>Node7&#45;&gt;Node8</title>
<g id="a_edge7_Node000007_Node000008"><a xlink:title=" ">
<path fill="none" stroke="#63b8ff" d="M252.1,-96C240.27,-96 227.92,-96 216.12,-96"/>
<polygon fill="#63b8ff" stroke="#63b8ff" points="252.34,-99.5 262.34,-96 252.34,-92.5 252.34,-99.5"/>
</a>
</g>
</g>
<!-- Node9 -->
<g id="Node000009" class="node">
<title>Node9</title>
<g id="a_Node000009"><a xlink:href="p__main_8fpp_8f90.html#aeec10ee8e2940c953967da3e374e1579" target="_top" xlink:title="Quasi&#45;conservative, shock&#45; and interface&#45; capturing finite&#45;volume scheme for the multicomponent Navie...">
<polygon fill="white" stroke="#666666" points="53,-64.5 0,-64.5 0,-45.5 53,-45.5 53,-64.5"/>
<text text-anchor="middle" x="26.5" y="-52.5" font-family="Helvetica,sans-Serif" font-size="10.00">p_main</text>
</a>
</g>
</g>
<!-- Node8&#45;&gt;Node9 -->
<g id="edge8_Node000008_Node000009" class="edge">
<title>Node8&#45;&gt;Node9</title>
<g id="a_edge8_Node000008_Node000009"><a xlink:title=" ">
<path fill="none" stroke="#63b8ff" d="M96.27,-77.74C81.23,-72.77 65.66,-67.62 53.14,-63.48"/>
<polygon fill="#63b8ff" stroke="#63b8ff" points="95.44,-81.15 106.03,-80.97 97.64,-74.5 95.44,-81.15"/>
</a>
</g>
</g>
<!-- Node10&#45;&gt;Node8 -->
<g id="edge10_Node000010_Node000008" class="edge">
<title>Node10&#45;&gt;Node8</title>
<g id="a_edge10_Node000010_Node000008"><a xlink:title=" ">
<path fill="none" stroke="#63b8ff" d="M407.86,-61.8C363.74,-64.82 304.19,-69.74 252,-77 240.36,-78.62 228,-80.71 216.13,-82.9"/>
<polygon fill="#63b8ff" stroke="#63b8ff" points="408.13,-65.29 417.87,-61.13 407.66,-58.31 408.13,-65.29"/>
</a>
</g>
</g>
<!-- Node11&#45;&gt;Node8 -->
<g id="edge12_Node000011_Node000008" class="edge">
<title>Node11&#45;&gt;Node8</title>
<g id="a_edge12_Node000011_Node000008"><a xlink:title=" ">
<path fill="none" stroke="#63b8ff" d="M422.19,-159.07C366.33,-145.96 276.52,-124.88 216.29,-110.74"/>
<polygon fill="#63b8ff" stroke="#63b8ff" points="421.68,-162.55 432.21,-161.43 423.28,-155.73 421.68,-162.55"/>
</a>
</g>
</g>
<!-- Node12 -->
<g id="Node000012" class="node">
<title>Node12</title>
<g id="a_Node000012"><a xlink:href="m__time__steppers_8fpp_8f90.html#a5858523edfce42df32b2b0a8af54bc0e" target="_top" xlink:title="Strang splitting scheme with 3rd order TVD RK time&#45;stepping algorithm for the flux term and adaptive ...">
<polygon fill="white" stroke="#666666" points="368.5,-181.5 265.5,-181.5 265.5,-162.5 368.5,-162.5 368.5,-181.5"/>
<text text-anchor="middle" x="317" y="-169.5" font-family="Helvetica,sans-Serif" font-size="10.00">s_strang_splitting</text>
</a>
</g>
</g>
<!-- Node11&#45;&gt;Node12 -->
<g id="edge13_Node000011_Node000012" class="edge">
<title>Node11&#45;&gt;Node12</title>
<g id="a_edge13_Node000011_Node000012"><a xlink:title=" ">
<path fill="none" stroke="#63b8ff" d="M408.68,-171.41C395.29,-171.5 381.35,-171.59 368.54,-171.67"/>
<polygon fill="#63b8ff" stroke="#63b8ff" points="408.81,-174.91 418.79,-171.35 408.77,-167.91 408.81,-174.91"/>
</a>
</g>
</g>
<!-- Node12&#45;&gt;Node8 -->
<g id="edge14_Node000012_Node000008" class="edge">
<title>Node12&#45;&gt;Node8</title>
<g id="a_edge14_Node000012_Node000008"><a xlink:title=" ">
<path fill="none" stroke="#63b8ff" d="M278.89,-159C269.99,-155.63 260.59,-151.86 252,-148 226.95,-136.75 199.39,-121.98 179.8,-111.06"/>
<polygon fill="#63b8ff" stroke="#63b8ff" points="277.69,-162.28 288.28,-162.48 280.12,-155.72 277.69,-162.28"/>
</a>
</g>
</g>
<!-- Node14 -->
<g id="Node000014" class="node">
<title>Node14</title>
<g id="a_Node000014"><a xlink:href="m__cbc_8fpp_8f90.html#a93f9829e4327e1dbfde890d3eca73da8" target="_top" xlink:title="The computation of parameters, the allocation of memory, the association of pointers and/or the execu...">
<polygon fill="white" stroke="#666666" points="846,-24.5 713,-24.5 713,-5.5 846,-5.5 846,-24.5"/>
<text text-anchor="middle" x="779.5" y="-12.5" font-family="Helvetica,sans-Serif" font-size="10.00">s_initialize_cbc_module</text>
</a>
</g>
</g>
<!-- Node13&#45;&gt;Node14 -->
<g id="edge16_Node000013_Node000014" class="edge">
<title>Node13&#45;&gt;Node14</title>
<g id="a_edge16_Node000013_Node000014"><a xlink:title=" ">
<path fill="none" stroke="#63b8ff" d="M871.8,-15.52C863.14,-15.47 854.45,-15.42 846.06,-15.37"/>
<polygon fill="#63b8ff" stroke="#63b8ff" points="871.9,-19.02 881.92,-15.57 871.94,-12.02 871.9,-19.02"/>
</a>
</g>
</g>
<!-- Node14&#45;&gt;Node3 -->
<g id="edge17_Node000014_Node000003" class="edge">
<title>Node14&#45;&gt;Node3</title>
<g id="a_edge17_Node000014_Node000003"><a xlink:title=" ">
<path fill="none" stroke="#63b8ff" d="M729.37,-26.97C707.51,-32.29 682.12,-38.48 661.58,-43.48"/>
<polygon fill="#63b8ff" stroke="#63b8ff" points="730.25,-30.36 739.13,-24.59 728.59,-23.56 730.25,-30.36"/>
</a>
</g>
</g>
<!-- Node15 -->
<g id="Node000015" class="node">
<title>Node15</title>
<g id="a_Node000015"><a xlink:href="namespacem__start__up.html#a1fb7a3f9d412acd2a9cbcfe8b45006dd" target="_top" xlink:title=" ">
<polygon fill="white" stroke="#666666" points="382,-30 252,-30 252,0 382,0 382,-30"/>
<text text-anchor="start" x="260" y="-18" font-family="Helvetica,sans-Serif" font-size="10.00">m_start_up::s_initialize</text>
<text text-anchor="middle" x="317" y="-7" font-family="Helvetica,sans-Serif" font-size="10.00">_modules</text>
</a>
</g>
</g>
<!-- Node14&#45;&gt;Node15 -->
<g id="edge18_Node000014_Node000015" class="edge">
<title>Node14&#45;&gt;Node15</title>
<g id="a_edge18_Node000014_Node000015"><a xlink:title=" ">
<path fill="none" stroke="#63b8ff" d="M702.44,-15C612.93,-15 465.92,-15 382,-15"/>
<polygon fill="#63b8ff" stroke="#63b8ff" points="702.52,-18.5 712.52,-15 702.52,-11.5 702.52,-18.5"/>
</a>
</g>
</g>
<!-- Node15&#45;&gt;Node9 -->
<g id="edge19_Node000015_Node000009" class="edge">
<title>Node15&#45;&gt;Node9</title>
<g id="a_edge19_Node000015_Node000009"><a xlink:title=" ">
<path fill="none" stroke="#63b8ff" d="M241.84,-25.28C179.81,-33.88 94.93,-45.65 53.04,-51.46"/>
<polygon fill="#63b8ff" stroke="#63b8ff" points="242.55,-28.72 251.97,-23.88 241.59,-21.78 242.55,-28.72"/>
</a>
</g>
</g>
</g>
</svg>

<g id="navigator" transform="translate(0 0)" fill="#404254">
  <rect fill="#f2f5e9" fill-opacity="0.5" stroke="#606060" stroke-width=".5" x="0" y="0" width="60" height="60"/>
  <use id="zoomplus" xlink:href="#zoomPlus" x="17" y="9" onmousedown="handleZoom(evt,'in')"/>
  <use id="zoomminus" xlink:href="#zoomMin" x="42" y="9" onmousedown="handleZoom(evt,'out')"/>
  <use id="reset" xlink:href="#resetDef" x="30" y="36" onmousedown="handleReset()"/>
   <use id="arrowup" xlink:href="#arrowUp" x="0" y="0" onmousedown="handlePan(0,-1)"/>
  <use id="arrowright" xlink:href="#arrowRight" x="0" y="0" onmousedown="handlePan(1,0)"/>
  <use id="arrowdown" xlink:href="#arrowDown" x="0" y="0" onmousedown="handlePan(0,1)"/>
  <use id="arrowleft" xlink:href="#arrowLeft" x="0" y="0" onmousedown="handlePan(-1,0)"/>
</g>
<svg viewBox="0 0 15 15" width="100%" height="30px" preserveAspectRatio="xMaxYMin meet">
 <g id="arrow_out" transform="scale(0.3 0.3)">
  <a xlink:href="m__cbc_8fpp_8f90_a81f1e20487e1a09ae314610505070a7e_icgraph_org.svg" target="_base">
   <rect id="button" ry="5" rx="5" y="6" x="6" height="38" width="38"
        fill="#f2f5e9" fill-opacity="0.5" stroke="#606060" stroke-width="1.0"/>
   <path id="arrow"
     d="M 11.500037,31.436501 C 11.940474,20.09759 22.043105,11.32322 32.158766,21.979434 L 37.068811,17.246167 C 37.068811,17.246167 37.088388,32 37.088388,32 L 22.160133,31.978069 C 22.160133,31.978069 26.997745,27.140456 26.997745,27.140456 C 18.528582,18.264221 13.291696,25.230495 11.500037,31.436501 z"
     style="fill:#404040;"/>
  </a>
 </g>
</svg>

<style type='text/css'>
<![CDATA[
[data-mouse-over-selected='false'] { opacity: 0.7; }
[data-mouse-over-selected='true']  { opacity: 1.0; }
]]>
</style>
<script type="application/ecmascript"><![CDATA[
document.addEventListener('DOMContentLoaded', (event) => {
  highlightEdges();
  highlightAdjacentNodes();
});
]]></script>
</svg>
