<?xml version="1.0" encoding="UTF-8" standalone="no"?>
<!DOCTYPE svg PUBLIC "-//W3C//DTD SVG 1.1//EN"
 "http://www.w3.org/Graphics/SVG/1.1/DTD/svg11.dtd">
<!-- Generated by graphviz version 2.43.0 (0)
 -->
<!-- Title: s_write_parallel_data_files Pages: 1 -->
<svg width="597pt" height="94pt"
 viewBox="0.00 0.00 597.00 93.50" xmlns="http://www.w3.org/2000/svg" xmlns:xlink="http://www.w3.org/1999/xlink">
<g id="graph0" class="graph" transform="scale(1 1) rotate(0) translate(4 89.5)">
<title>s_write_parallel_data_files</title>
<!-- Node1 -->
<g id="Node000001" class="node">
<title>Node1</title>
<g id="a_Node000001"><a xlink:title="The goal of this subroutine is to output the grid and conservative variables data files for given tim...">
<polygon fill="#999999" stroke="#666666" points="589,-66.5 468,-66.5 468,-36.5 589,-36.5 589,-66.5"/>
<text text-anchor="start" x="476" y="-54.5" font-family="Helvetica,sans-Serif" font-size="10.00">s_write_parallel_data</text>
<text text-anchor="middle" x="528.5" y="-43.5" font-family="Helvetica,sans-Serif" font-size="10.00">_files</text>
</a>
</g>
</g>
<!-- Node2 -->
<g id="Node000002" class="node">
<title>Node2</title>
<g id="a_Node000002"><a xlink:href="m__data__output_8fpp_8f90.html#a979b8a2cf4215a8122fc461c0512dbba" target="_top" xlink:title=" ">
<polygon fill="white" stroke="#666666" points="292,-85.5 170,-85.5 170,-55.5 292,-55.5 292,-85.5"/>
<text text-anchor="start" x="178" y="-73.5" font-family="Helvetica,sans-Serif" font-size="10.00">__m_data_output_fpp</text>
<text text-anchor="middle" x="231" y="-62.5" font-family="Helvetica,sans-Serif" font-size="10.00">_f90__</text>
</a>
</g>
</g>
<!-- Node1&#45;&gt;Node2 -->
<g id="edge1_Node000001_Node000002" class="edge">
<title>Node1&#45;&gt;Node2</title>
<g id="a_edge1_Node000001_Node000002"><a xlink:title=" ">
<path fill="none" stroke="#63b8ff" d="M457.56,-56C407.26,-59.23 340.13,-63.55 292.22,-66.63"/>
<polygon fill="#63b8ff" stroke="#63b8ff" points="457.95,-59.48 467.7,-55.34 457.5,-52.49 457.95,-59.48"/>
</a>
</g>
</g>
<!-- Node3 -->
<g id="Node000003" class="node">
<title>Node3</title>
<g id="a_Node000003"><a xlink:href="m__data__output_8fpp_8f90.html#a2d8566ed05d923060e9914679222ebd1" target="_top" xlink:title="Write data files. Dispatch subroutine that replaces procedure pointer.">
<polygon fill="white" stroke="#666666" points="432,-42 328,-42 328,-23 432,-23 432,-42"/>
<text text-anchor="middle" x="380" y="-30" font-family="Helvetica,sans-Serif" font-size="10.00">s_write_data_files</text>
</a>
</g>
</g>
<!-- Node1&#45;&gt;Node3 -->
<g id="edge2_Node000001_Node000003" class="edge">
<title>Node1&#45;&gt;Node3</title>
<g id="a_edge2_Node000001_Node000003"><a xlink:title=" ">
<path fill="none" stroke="#63b8ff" d="M457.8,-42.46C449.13,-41.34 440.4,-40.2 432.08,-39.13"/>
<polygon fill="#63b8ff" stroke="#63b8ff" points="457.55,-45.96 467.91,-43.77 458.45,-39.01 457.55,-45.96"/>
</a>
</g>
</g>
<!-- Node3&#45;&gt;Node2 -->
<g id="edge3_Node000003_Node000002" class="edge">
<title>Node3&#45;&gt;Node2</title>
<g id="a_edge3_Node000003_Node000002"><a xlink:title=" ">
<path fill="none" stroke="#63b8ff" d="M332.04,-44.64C318.75,-48.07 304.12,-51.86 290.26,-55.44"/>
<polygon fill="#63b8ff" stroke="#63b8ff" points="333.1,-47.98 341.91,-42.09 331.35,-41.2 333.1,-47.98"/>
</a>
</g>
</g>
<!-- Node4 -->
<g id="Node000004" class="node">
<title>Node4</title>
<g id="a_Node000004"><a xlink:href="m__start__up_8fpp_8f90.html#aa8fd49046e6bcfcdb3caecfa89226725" target="_top" xlink:title=" ">
<polygon fill="white" stroke="#666666" points="269.5,-37 192.5,-37 192.5,-18 269.5,-18 269.5,-37"/>
<text text-anchor="middle" x="231" y="-25" font-family="Helvetica,sans-Serif" font-size="10.00">s_save_data</text>
</a>
</g>
</g>
<!-- Node3&#45;&gt;Node4 -->
<g id="edge4_Node000003_Node000004" class="edge">
<title>Node3&#45;&gt;Node4</title>
<g id="a_edge4_Node000003_Node000004"><a xlink:title=" ">
<path fill="none" stroke="#63b8ff" d="M318,-30.43C301.71,-29.87 284.58,-29.29 269.93,-28.79"/>
<polygon fill="#63b8ff" stroke="#63b8ff" points="317.89,-33.92 328,-30.77 318.12,-26.93 317.89,-33.92"/>
</a>
</g>
</g>
<!-- Node5 -->
<g id="Node000005" class="node">
<title>Node5</title>
<g id="a_Node000005"><a xlink:href="m__start__up_8fpp_8f90.html#ac09c216e540601049a819ae5b76091b5" target="_top" xlink:title=" ">
<polygon fill="white" stroke="#666666" points="134,-56 0,-56 0,-37 134,-37 134,-56"/>
<text text-anchor="middle" x="67" y="-44" font-family="Helvetica,sans-Serif" font-size="10.00">__m_start_up_fpp_f90__</text>
</a>
</g>
</g>
<!-- Node4&#45;&gt;Node5 -->
<g id="edge5_Node000004_Node000005" class="edge">
<title>Node4&#45;&gt;Node5</title>
<g id="a_edge5_Node000004_Node000005"><a xlink:title=" ">
<path fill="none" stroke="#63b8ff" d="M182.34,-33.09C167.29,-34.86 150.38,-36.84 134.27,-38.73"/>
<polygon fill="#63b8ff" stroke="#63b8ff" points="182.9,-36.55 192.43,-31.91 182.09,-29.6 182.9,-36.55"/>
</a>
</g>
</g>
<!-- Node6 -->
<g id="Node000006" class="node">
<title>Node6</title>
<g id="a_Node000006"><a xlink:href="p__main_8fpp_8f90.html#aeec10ee8e2940c953967da3e374e1579" target="_top" xlink:title="Quasi&#45;conservative, shock&#45; and interface&#45; capturing finite&#45;volume scheme for the multicomponent Navie...">
<polygon fill="white" stroke="#666666" points="93.5,-19 40.5,-19 40.5,0 93.5,0 93.5,-19"/>
<text text-anchor="middle" x="67" y="-7" font-family="Helvetica,sans-Serif" font-size="10.00">p_main</text>
</a>
</g>
</g>
<!-- Node4&#45;&gt;Node6 -->
<g id="edge6_Node000004_Node000006" class="edge">
<title>Node4&#45;&gt;Node6</title>
<g id="a_edge6_Node000004_Node000006"><a xlink:title=" ">
<path fill="none" stroke="#63b8ff" d="M182.11,-22.18C153.18,-18.96 117.45,-14.99 93.76,-12.36"/>
<polygon fill="#63b8ff" stroke="#63b8ff" points="182.1,-25.7 192.43,-23.33 182.87,-18.74 182.1,-25.7"/>
</a>
</g>
</g>
</g>
</svg>
