<?xml version="1.0" encoding="UTF-8" standalone="no"?>
<!DOCTYPE svg PUBLIC "-//W3C//DTD SVG 1.1//EN"
 "http://www.w3.org/Graphics/SVG/1.1/DTD/svg11.dtd">
<!-- Generated by graphviz version 2.43.0 (0)
 -->
<!-- Title: s_write_parallel_data_files Pages: 1 -->
<svg width="532pt" height="76pt"
 viewBox="0.00 0.00 532.00 75.50" xmlns="http://www.w3.org/2000/svg" xmlns:xlink="http://www.w3.org/1999/xlink">
<g id="graph0" class="graph" transform="scale(1 1) rotate(0) translate(4 71.5)">
<title>s_write_parallel_data_files</title>
<!-- Node1 -->
<g id="Node000001" class="node">
<title>Node1</title>
<g id="a_Node000001"><a xlink:title="The goal of this subroutine is to output the grid and conservative variables data files for given tim...">
<polygon fill="#999999" stroke="#666666" points="524,-48.5 403,-48.5 403,-18.5 524,-18.5 524,-48.5"/>
<text text-anchor="start" x="411" y="-36.5" font-family="Helvetica,sans-Serif" font-size="10.00">s_write_parallel_data</text>
<text text-anchor="middle" x="463.5" y="-25.5" font-family="Helvetica,sans-Serif" font-size="10.00">_files</text>
</a>
</g>
</g>
<!-- Node2 -->
<g id="Node000002" class="node">
<title>Node2</title>
<g id="a_Node000002"><a xlink:href="m__data__output_8fpp_8f90.html#a979b8a2cf4215a8122fc461c0512dbba" target="_top" xlink:title=" ">
<polygon fill="white" stroke="#666666" points="219,-67.5 97,-67.5 97,-37.5 219,-37.5 219,-67.5"/>
<text text-anchor="start" x="105" y="-55.5" font-family="Helvetica,sans-Serif" font-size="10.00">__m_data_output_fpp</text>
<text text-anchor="middle" x="158" y="-44.5" font-family="Helvetica,sans-Serif" font-size="10.00">_f90__</text>
</a>
</g>
</g>
<!-- Node1&#45;&gt;Node2 -->
<g id="edge1_Node000001_Node000002" class="edge">
<title>Node1&#45;&gt;Node2</title>
<g id="a_edge1_Node000001_Node000002"><a xlink:title=" ">
<path fill="none" stroke="#63b8ff" d="M392.68,-37.87C340.25,-41.15 269.19,-45.6 219.24,-48.73"/>
<polygon fill="#63b8ff" stroke="#63b8ff" points="393.14,-41.35 402.9,-37.23 392.7,-34.36 393.14,-41.35"/>
</a>
</g>
</g>
<!-- Node3 -->
<g id="Node000003" class="node">
<title>Node3</title>
<g id="a_Node000003"><a xlink:href="m__data__output_8fpp_8f90.html#a4c0ea032bb4a1cdc136c9ee0f599dc4e" target="_top" xlink:title="Write data files. Dispatch subroutine that replaces procedure pointer.">
<polygon fill="white" stroke="#666666" points="367,-24 263,-24 263,-5 367,-5 367,-24"/>
<text text-anchor="middle" x="315" y="-12" font-family="Helvetica,sans-Serif" font-size="10.00">s_write_data_files</text>
</a>
</g>
</g>
<!-- Node1&#45;&gt;Node3 -->
<g id="edge2_Node000001_Node000003" class="edge">
<title>Node1&#45;&gt;Node3</title>
<g id="a_edge2_Node000001_Node000003"><a xlink:title=" ">
<path fill="none" stroke="#63b8ff" d="M392.8,-24.46C384.13,-23.34 375.4,-22.2 367.08,-21.13"/>
<polygon fill="#63b8ff" stroke="#63b8ff" points="392.55,-27.96 402.91,-25.77 393.45,-21.01 392.55,-27.96"/>
</a>
</g>
</g>
<!-- Node3&#45;&gt;Node2 -->
<g id="edge3_Node000003_Node000002" class="edge">
<title>Node3&#45;&gt;Node2</title>
<g id="a_edge3_Node000003_Node000002"><a xlink:title=" ">
<path fill="none" stroke="#63b8ff" d="M265.09,-26.49C250.54,-30.06 234.42,-34.01 219.23,-37.73"/>
<polygon fill="#63b8ff" stroke="#63b8ff" points="266.01,-29.87 274.89,-24.09 264.34,-23.07 266.01,-29.87"/>
</a>
</g>
</g>
<!-- Node4 -->
<g id="Node000004" class="node">
<title>Node4</title>
<g id="a_Node000004"><a xlink:href="namespacem__start__up.html#a0865c4378f1fdf7a9053530fb25fadaa" target="_top" xlink:title=" ">
<polygon fill="white" stroke="#666666" points="227,-19 89,-19 89,0 227,0 227,-19"/>
<text text-anchor="middle" x="158" y="-7" font-family="Helvetica,sans-Serif" font-size="10.00">m_start_up::s_save_data</text>
</a>
</g>
</g>
<!-- Node3&#45;&gt;Node4 -->
<g id="edge4_Node000003_Node000004" class="edge">
<title>Node3&#45;&gt;Node4</title>
<g id="a_edge4_Node000003_Node000004"><a xlink:title=" ">
<path fill="none" stroke="#63b8ff" d="M252.77,-12.52C244.39,-12.25 235.76,-11.98 227.27,-11.7"/>
<polygon fill="#63b8ff" stroke="#63b8ff" points="252.71,-16.02 262.82,-12.85 252.94,-9.03 252.71,-16.02"/>
</a>
</g>
</g>
<!-- Node5 -->
<g id="Node000005" class="node">
<title>Node5</title>
<g id="a_Node000005"><a xlink:href="p__main_8fpp_8f90.html#aeec10ee8e2940c953967da3e374e1579" target="_top" xlink:title="Quasi&#45;conservative, shock&#45; and interface&#45; capturing finite&#45;volume scheme for the multicomponent Navie...">
<polygon fill="white" stroke="#666666" points="53,-19 0,-19 0,0 53,0 53,-19"/>
<text text-anchor="middle" x="26.5" y="-7" font-family="Helvetica,sans-Serif" font-size="10.00">p_main</text>
</a>
</g>
</g>
<!-- Node4&#45;&gt;Node5 -->
<g id="edge5_Node000004_Node000005" class="edge">
<title>Node4&#45;&gt;Node5</title>
<g id="a_edge5_Node000004_Node000005"><a xlink:title=" ">
<path fill="none" stroke="#63b8ff" d="M78.81,-9.5C69.67,-9.5 60.91,-9.5 53.29,-9.5"/>
<polygon fill="#63b8ff" stroke="#63b8ff" points="78.84,-13 88.84,-9.5 78.84,-6 78.84,-13"/>
</a>
</g>
</g>
</g>
</svg>
