<?xml version="1.0" encoding="UTF-8" standalone="no"?>
<!DOCTYPE svg PUBLIC "-//W3C//DTD SVG 1.1//EN"
 "http://www.w3.org/Graphics/SVG/1.1/DTD/svg11.dtd">
<!-- Generated by graphviz version 2.43.0 (0)
 -->
<!-- Title: s_initialize_data_output_module Pages: 1 -->
<svg width="711pt" height="394pt"
 viewBox="0.00 0.00 711.00 394.00" xmlns="http://www.w3.org/2000/svg" xmlns:xlink="http://www.w3.org/1999/xlink">
<g id="graph0" class="graph" transform="scale(1 1) rotate(0) translate(4 390)">
<title>s_initialize_data_output_module</title>
<!-- Node1 -->
<g id="Node000001" class="node">
<title>Node1</title>
<g id="a_Node000001"><a xlink:title="The computation of parameters, the allocation of memory, the association of pointers and/or the execu...">
<polygon fill="#999999" stroke="#666666" points="133,-285.5 0,-285.5 0,-255.5 133,-255.5 133,-285.5"/>
<text text-anchor="start" x="8" y="-273.5" font-family="Helvetica,sans-Serif" font-size="10.00">s_initialize_data_output</text>
<text text-anchor="middle" x="66.5" y="-262.5" font-family="Helvetica,sans-Serif" font-size="10.00">_module</text>
</a>
</g>
</g>
<!-- Node2 -->
<g id="Node000002" class="node">
<title>Node2</title>
<g id="a_Node000002"><a xlink:href="m__variables__conversion_8fpp_8f90.html#adec0ccf2a3298d2b375a9405a0fa7c1a" target="_top" xlink:title="This subroutine is designed for the gamma/pi_inf model and provided a set of either conservative or p...">
<polygon fill="white" stroke="#666666" points="307,-381.5 185,-381.5 185,-351.5 307,-351.5 307,-381.5"/>
<text text-anchor="start" x="193" y="-369.5" font-family="Helvetica,sans-Serif" font-size="10.00">s_convert_mixture_to</text>
<text text-anchor="middle" x="246" y="-358.5" font-family="Helvetica,sans-Serif" font-size="10.00">_mixture_variables</text>
</a>
</g>
</g>
<!-- Node1&#45;&gt;Node2 -->
<g id="edge1_Node000001_Node000002" class="edge">
<title>Node1&#45;&gt;Node2</title>
<g id="a_edge1_Node000001_Node000002"><a xlink:title=" ">
<path fill="none" stroke="#63b8ff" d="M85.11,-285.6C104.54,-301.61 137.27,-326.72 169,-342.5 172.76,-344.37 176.7,-346.14 180.73,-347.79"/>
<polygon fill="#63b8ff" stroke="#63b8ff" points="179.63,-351.12 190.21,-351.47 182.15,-344.59 179.63,-351.12"/>
</a>
</g>
</g>
<!-- Node3 -->
<g id="Node000003" class="node">
<title>Node3</title>
<g id="a_Node000003"><a xlink:href="m__variables__conversion_8fpp_8f90.html#ac9e3787fd3c00962752030f2c218c3fc" target="_top" xlink:title="This subroutine is designed for the volume fraction model and provided a set of either conservative o...">
<polygon fill="white" stroke="#666666" points="306.5,-333.5 185.5,-333.5 185.5,-303.5 306.5,-303.5 306.5,-333.5"/>
<text text-anchor="start" x="193.5" y="-321.5" font-family="Helvetica,sans-Serif" font-size="10.00">s_convert_species_to</text>
<text text-anchor="middle" x="246" y="-310.5" font-family="Helvetica,sans-Serif" font-size="10.00">_mixture_variables</text>
</a>
</g>
</g>
<!-- Node1&#45;&gt;Node3 -->
<g id="edge2_Node000001_Node000003" class="edge">
<title>Node1&#45;&gt;Node3</title>
<g id="a_edge2_Node000001_Node000003"><a xlink:title=" ">
<path fill="none" stroke="#63b8ff" d="M123.18,-285.56C141.1,-290.4 161.13,-295.82 179.68,-300.84"/>
<polygon fill="#63b8ff" stroke="#63b8ff" points="178.96,-304.27 189.52,-303.5 180.78,-297.51 178.96,-304.27"/>
</a>
</g>
</g>
<!-- Node4 -->
<g id="Node000004" class="node">
<title>Node4</title>
<g id="a_Node000004"><a xlink:href="m__variables__conversion_8fpp_8f90.html#a975c2bf46f73cd704b4503e833f5ec3c" target="_top" xlink:title="This procedure is used alongside with the gamma/pi_inf model to transfer the density,...">
<polygon fill="white" stroke="#666666" points="323,-285.5 169,-285.5 169,-255.5 323,-255.5 323,-285.5"/>
<text text-anchor="start" x="177" y="-273.5" font-family="Helvetica,sans-Serif" font-size="10.00">s_convert_species_to</text>
<text text-anchor="middle" x="246" y="-262.5" font-family="Helvetica,sans-Serif" font-size="10.00">_mixture_variables_bubbles</text>
</a>
</g>
</g>
<!-- Node1&#45;&gt;Node4 -->
<g id="edge3_Node000001_Node000004" class="edge">
<title>Node1&#45;&gt;Node4</title>
<g id="a_edge3_Node000001_Node000004"><a xlink:title=" ">
<path fill="none" stroke="#63b8ff" d="M133.09,-270.5C141.47,-270.5 150.14,-270.5 158.78,-270.5"/>
<polygon fill="#63b8ff" stroke="#63b8ff" points="158.89,-274 168.89,-270.5 158.89,-267 158.89,-274"/>
</a>
</g>
</g>
<!-- Node5 -->
<g id="Node000005" class="node">
<title>Node5</title>
<g id="a_Node000005"><a xlink:href="m__data__output_8fpp_8f90.html#a694588474e2bd0e0b68d5dcb12a2598c" target="_top" xlink:title="The goal of this subroutine is to output the grid and conservative variables data files for given tim...">
<polygon fill="white" stroke="#666666" points="306.5,-141.5 185.5,-141.5 185.5,-111.5 306.5,-111.5 306.5,-141.5"/>
<text text-anchor="start" x="193.5" y="-129.5" font-family="Helvetica,sans-Serif" font-size="10.00">s_write_parallel_data</text>
<text text-anchor="middle" x="246" y="-118.5" font-family="Helvetica,sans-Serif" font-size="10.00">_files</text>
</a>
</g>
</g>
<!-- Node1&#45;&gt;Node5 -->
<g id="edge4_Node000001_Node000005" class="edge">
<title>Node1&#45;&gt;Node5</title>
<g id="a_edge4_Node000001_Node000005"><a xlink:title=" ">
<path fill="none" stroke="#63b8ff" d="M86.16,-255.36C117.72,-229.76 181.75,-177.82 218.14,-148.29"/>
<polygon fill="#63b8ff" stroke="#63b8ff" points="220.76,-150.67 226.32,-141.65 216.35,-145.23 220.76,-150.67"/>
</a>
</g>
</g>
<!-- Node12 -->
<g id="Node000012" class="node">
<title>Node12</title>
<g id="a_Node000012"><a xlink:href="m__data__output_8fpp_8f90.html#a9bfd1f9d59388f2294e049bcabe09692" target="_top" xlink:title="The goal of this subroutine is to output the grid and conservative variables data files for given tim...">
<polygon fill="white" stroke="#666666" points="301.5,-237.5 190.5,-237.5 190.5,-207.5 301.5,-207.5 301.5,-237.5"/>
<text text-anchor="start" x="198.5" y="-225.5" font-family="Helvetica,sans-Serif" font-size="10.00">s_write_serial_data</text>
<text text-anchor="middle" x="246" y="-214.5" font-family="Helvetica,sans-Serif" font-size="10.00">_files</text>
</a>
</g>
</g>
<!-- Node1&#45;&gt;Node12 -->
<g id="edge11_Node000001_Node000012" class="edge">
<title>Node1&#45;&gt;Node12</title>
<g id="a_edge11_Node000001_Node000012"><a xlink:title=" ">
<path fill="none" stroke="#63b8ff" d="M123.18,-255.44C141.44,-250.5 161.89,-244.97 180.74,-239.88"/>
<polygon fill="#63b8ff" stroke="#63b8ff" points="181.7,-243.24 190.43,-237.26 179.87,-236.49 181.7,-243.24"/>
</a>
</g>
</g>
<!-- Node6 -->
<g id="Node000006" class="node">
<title>Node6</title>
<g id="a_Node000006"><a xlink:href="namespacem__delay__file__access.html#a2fdd67c672da87dc016f9262b75776a5" target="_top" xlink:title=" ">
<polygon fill="white" stroke="#666666" points="483.5,-141.5 366.5,-141.5 366.5,-111.5 483.5,-111.5 483.5,-141.5"/>
<text text-anchor="start" x="374.5" y="-129.5" font-family="Helvetica,sans-Serif" font-size="10.00">m_delay_file_access</text>
<text text-anchor="middle" x="425" y="-118.5" font-family="Helvetica,sans-Serif" font-size="10.00">::delayfileaccess</text>
</a>
</g>
</g>
<!-- Node5&#45;&gt;Node6 -->
<g id="edge5_Node000005_Node000006" class="edge">
<title>Node5&#45;&gt;Node6</title>
<g id="a_edge5_Node000005_Node000006"><a xlink:title=" ">
<path fill="none" stroke="#63b8ff" d="M306.92,-126.5C322.64,-126.5 339.7,-126.5 355.81,-126.5"/>
<polygon fill="#63b8ff" stroke="#63b8ff" points="356.23,-130 366.23,-126.5 356.23,-123 356.23,-130"/>
</a>
</g>
</g>
<!-- Node7 -->
<g id="Node000007" class="node">
<title>Node7</title>
<g id="a_Node000007"><a xlink:href="namespacem__compile__specific.html#aa7f14da74305c1d061ce326b16a3263e" target="_top" xlink:title="Inquires on the existence of a directory.">
<polygon fill="white" stroke="#666666" points="481.5,-237.5 368.5,-237.5 368.5,-207.5 481.5,-207.5 481.5,-237.5"/>
<text text-anchor="start" x="376.5" y="-225.5" font-family="Helvetica,sans-Serif" font-size="10.00">m_compile_specific</text>
<text text-anchor="middle" x="425" y="-214.5" font-family="Helvetica,sans-Serif" font-size="10.00">::my_inquire</text>
</a>
</g>
</g>
<!-- Node5&#45;&gt;Node7 -->
<g id="edge6_Node000005_Node000007" class="edge">
<title>Node5&#45;&gt;Node7</title>
<g id="a_edge6_Node000005_Node000007"><a xlink:title=" ">
<path fill="none" stroke="#63b8ff" d="M267.66,-141.74C289.54,-157.4 325.49,-181.79 359,-198.5 362.47,-200.23 366.1,-201.91 369.8,-203.52"/>
<polygon fill="#63b8ff" stroke="#63b8ff" points="368.47,-206.76 379.05,-207.36 371.16,-200.29 368.47,-206.76"/>
</a>
</g>
</g>
<!-- Node8 -->
<g id="Node000008" class="node">
<title>Node8</title>
<g id="a_Node000008"><a xlink:href="namespacem__compile__specific.html#a44b8e18a2c76367e7090649e62dd7d8c" target="_top" xlink:title="Creates a directory and all its parents if it does not exist.">
<polygon fill="white" stroke="#666666" points="481.5,-189.5 368.5,-189.5 368.5,-159.5 481.5,-159.5 481.5,-189.5"/>
<text text-anchor="start" x="376.5" y="-177.5" font-family="Helvetica,sans-Serif" font-size="10.00">m_compile_specific</text>
<text text-anchor="middle" x="425" y="-166.5" font-family="Helvetica,sans-Serif" font-size="10.00">::s_create_directory</text>
</a>
</g>
</g>
<!-- Node5&#45;&gt;Node8 -->
<g id="edge7_Node000005_Node000008" class="edge">
<title>Node5&#45;&gt;Node8</title>
<g id="a_edge7_Node000005_Node000008"><a xlink:title=" ">
<path fill="none" stroke="#63b8ff" d="M302.52,-141.56C320.39,-146.4 340.36,-151.82 358.87,-156.84"/>
<polygon fill="#63b8ff" stroke="#63b8ff" points="358.11,-160.26 368.68,-159.5 359.94,-153.5 358.11,-160.26"/>
</a>
</g>
</g>
<!-- Node9 -->
<g id="Node000009" class="node">
<title>Node9</title>
<g id="a_Node000009"><a xlink:href="m__mpi__common_8fpp_8f90.html#a61ffdfd9a712123c83b8ae8964e6427e" target="_top" xlink:title=" ">
<polygon fill="white" stroke="#666666" points="485,-93 365,-93 365,-74 485,-74 485,-93"/>
<text text-anchor="middle" x="425" y="-81" font-family="Helvetica,sans-Serif" font-size="10.00">s_initialize_mpi_data</text>
</a>
</g>
</g>
<!-- Node5&#45;&gt;Node9 -->
<g id="edge8_Node000005_Node000009" class="edge">
<title>Node5&#45;&gt;Node9</title>
<g id="a_edge8_Node000005_Node000009"><a xlink:title=" ">
<path fill="none" stroke="#63b8ff" d="M306.92,-111.94C328.99,-106.58 353.71,-100.58 374.73,-95.47"/>
<polygon fill="#63b8ff" stroke="#63b8ff" points="375.83,-98.8 384.72,-93.04 374.17,-92 375.83,-98.8"/>
</a>
</g>
</g>
<!-- Node10 -->
<g id="Node000010" class="node">
<title>Node10</title>
<g id="a_Node000010"><a xlink:href="m__helper_8fpp_8f90.html#a8a0505b2bd4f3d8cb2bf3ce16cfe01e3" target="_top" xlink:title=" ">
<polygon fill="white" stroke="#666666" points="461.5,-56 388.5,-56 388.5,-37 461.5,-37 461.5,-56"/>
<text text-anchor="middle" x="425" y="-44" font-family="Helvetica,sans-Serif" font-size="10.00">s_int_to_str</text>
</a>
</g>
</g>
<!-- Node5&#45;&gt;Node10 -->
<g id="edge9_Node000005_Node000010" class="edge">
<title>Node5&#45;&gt;Node10</title>
<g id="a_edge9_Node000005_Node000010"><a xlink:title=" ">
<path fill="none" stroke="#63b8ff" d="M270.65,-111.25C292.78,-97.51 327.11,-77.53 359,-64.5 365.26,-61.94 372.01,-59.62 378.7,-57.56"/>
<polygon fill="#63b8ff" stroke="#63b8ff" points="379.79,-60.89 388.41,-54.73 377.83,-54.17 379.79,-60.89"/>
</a>
</g>
</g>
<!-- Node11 -->
<g id="Node000011" class="node">
<title>Node11</title>
<g id="a_Node000011"><a xlink:href="m__mpi__common_8fpp_8f90.html#af4b834c000e6de71e6a00e1224599976" target="_top" xlink:title="Halts all processes until all have reached barrier.">
<polygon fill="white" stroke="#666666" points="466.5,-19 383.5,-19 383.5,0 466.5,0 466.5,-19"/>
<text text-anchor="middle" x="425" y="-7" font-family="Helvetica,sans-Serif" font-size="10.00">s_mpi_barrier</text>
</a>
</g>
</g>
<!-- Node5&#45;&gt;Node11 -->
<g id="edge10_Node000005_Node000011" class="edge">
<title>Node5&#45;&gt;Node11</title>
<g id="a_edge10_Node000005_Node000011"><a xlink:title=" ">
<path fill="none" stroke="#63b8ff" d="M259.9,-111.39C279.25,-89.67 317.94,-49.77 359,-27.5 363.58,-25.02 368.53,-22.85 373.58,-20.97"/>
<polygon fill="#63b8ff" stroke="#63b8ff" points="374.99,-24.19 383.36,-17.7 372.77,-17.55 374.99,-24.19"/>
</a>
</g>
</g>
<!-- Node12&#45;&gt;Node7 -->
<g id="edge12_Node000012_Node000007" class="edge">
<title>Node12&#45;&gt;Node7</title>
<g id="a_edge12_Node000012_Node000007"><a xlink:title=" ">
<path fill="none" stroke="#63b8ff" d="M301.55,-222.5C319.46,-222.5 339.56,-222.5 358.22,-222.5"/>
<polygon fill="#63b8ff" stroke="#63b8ff" points="358.41,-226 368.41,-222.5 358.41,-219 358.41,-226"/>
</a>
</g>
</g>
<!-- Node12&#45;&gt;Node8 -->
<g id="edge18_Node000012_Node000008" class="edge">
<title>Node12&#45;&gt;Node8</title>
<g id="a_edge18_Node000012_Node000008"><a xlink:title=" ">
<path fill="none" stroke="#63b8ff" d="M301.55,-207.71C319.63,-202.8 339.93,-197.3 358.73,-192.2"/>
<polygon fill="#63b8ff" stroke="#63b8ff" points="359.67,-195.57 368.41,-189.58 357.84,-188.82 359.67,-195.57"/>
</a>
</g>
</g>
<!-- Node13 -->
<g id="Node000013" class="node">
<title>Node13</title>
<g id="a_Node000013"><a xlink:href="m__variables__conversion_8fpp_8f90.html#a3480e5d3bc628f115c1952e68a0ae891" target="_top" xlink:title="The following procedure handles the conversion between the conservative variables and the primitive v...">
<polygon fill="white" stroke="#666666" points="491,-333.5 359,-333.5 359,-303.5 491,-303.5 491,-333.5"/>
<text text-anchor="start" x="367" y="-321.5" font-family="Helvetica,sans-Serif" font-size="10.00">s_convert_conservative</text>
<text text-anchor="middle" x="425" y="-310.5" font-family="Helvetica,sans-Serif" font-size="10.00">_to_primitive_variables</text>
</a>
</g>
</g>
<!-- Node12&#45;&gt;Node13 -->
<g id="edge13_Node000012_Node000013" class="edge">
<title>Node12&#45;&gt;Node13</title>
<g id="a_edge13_Node000012_Node000013"><a xlink:title=" ">
<path fill="none" stroke="#63b8ff" d="M301.71,-235.19C309.23,-238.22 316.57,-241.94 323,-246.5 344.76,-261.92 337.62,-278.56 359,-294.5 360.84,-295.87 362.77,-297.17 364.76,-298.41"/>
<polygon fill="#63b8ff" stroke="#63b8ff" points="363.38,-301.64 373.83,-303.39 366.75,-295.51 363.38,-301.64"/>
</a>
</g>
</g>
<!-- Node18 -->
<g id="Node000018" class="node">
<title>Node18</title>
<g id="a_Node000018"><a xlink:href="namespacem__compile__specific.html#a46d584d175683c9c0407cc07181d7bce" target="_top" xlink:title=" ">
<polygon fill="white" stroke="#666666" points="481.5,-285.5 368.5,-285.5 368.5,-255.5 481.5,-255.5 481.5,-285.5"/>
<text text-anchor="start" x="376.5" y="-273.5" font-family="Helvetica,sans-Serif" font-size="10.00">m_compile_specific</text>
<text text-anchor="middle" x="425" y="-262.5" font-family="Helvetica,sans-Serif" font-size="10.00">::s_delete_directory</text>
</a>
</g>
</g>
<!-- Node12&#45;&gt;Node18 -->
<g id="edge19_Node000012_Node000018" class="edge">
<title>Node12&#45;&gt;Node18</title>
<g id="a_edge19_Node000012_Node000018"><a xlink:title=" ">
<path fill="none" stroke="#63b8ff" d="M301.55,-237.29C319.63,-242.2 339.93,-247.7 358.73,-252.8"/>
<polygon fill="#63b8ff" stroke="#63b8ff" points="357.84,-256.18 368.41,-255.42 359.67,-249.43 357.84,-256.18"/>
</a>
</g>
</g>
<!-- Node14 -->
<g id="Node000014" class="node">
<title>Node14</title>
<g id="a_Node000014"><a xlink:href="m__helper_8fpp_8f90.html#a772c75c8b24c414cfaed17e2f8acc772" target="_top" xlink:title=" ">
<polygon fill="white" stroke="#666666" points="676,-386 554,-386 554,-367 676,-367 676,-386"/>
<text text-anchor="middle" x="615" y="-374" font-family="Helvetica,sans-Serif" font-size="10.00">s_comp_n_from_cons</text>
</a>
</g>
</g>
<!-- Node13&#45;&gt;Node14 -->
<g id="edge14_Node000013_Node000014" class="edge">
<title>Node13&#45;&gt;Node14</title>
<g id="a_edge14_Node000013_Node000014"><a xlink:title=" ">
<path fill="none" stroke="#63b8ff" d="M459.61,-333.51C479.02,-341.74 504.05,-351.64 527,-358.5 534.48,-360.74 542.41,-362.79 550.31,-364.65"/>
<polygon fill="#63b8ff" stroke="#63b8ff" points="549.74,-368.11 560.26,-366.9 551.28,-361.28 549.74,-368.11"/>
</a>
</g>
</g>
<!-- Node15 -->
<g id="Node000015" class="node">
<title>Node15</title>
<g id="a_Node000015"><a xlink:href="m__variables__conversion_8fpp_8f90.html#a56814a06b04c5e1d20f74af98405368a" target="_top" xlink:title="This procedure conditionally calculates the appropriate pressure.">
<polygon fill="white" stroke="#666666" points="673.5,-349 556.5,-349 556.5,-330 673.5,-330 673.5,-349"/>
<text text-anchor="middle" x="615" y="-337" font-family="Helvetica,sans-Serif" font-size="10.00">s_compute_pressure</text>
</a>
</g>
</g>
<!-- Node13&#45;&gt;Node15 -->
<g id="edge15_Node000013_Node000015" class="edge">
<title>Node13&#45;&gt;Node15</title>
<g id="a_edge15_Node000013_Node000015"><a xlink:title=" ">
<path fill="none" stroke="#63b8ff" d="M491.23,-325.79C509.04,-327.78 528.38,-329.94 546.33,-331.94"/>
<polygon fill="#63b8ff" stroke="#63b8ff" points="546.09,-335.44 556.42,-333.07 546.87,-328.48 546.09,-335.44"/>
</a>
</g>
</g>
<!-- Node16 -->
<g id="Node000016" class="node">
<title>Node16</title>
<g id="a_Node000016"><a xlink:href="m__variables__conversion_8fpp_8f90.html#ad0657ad9f2f6277b10693e899ff84b68" target="_top" xlink:title=" ">
<polygon fill="white" stroke="#666666" points="681,-311.5 549,-311.5 549,-281.5 681,-281.5 681,-311.5"/>
<text text-anchor="start" x="557" y="-299.5" font-family="Helvetica,sans-Serif" font-size="10.00">s_convert_species_to</text>
<text text-anchor="middle" x="615" y="-288.5" font-family="Helvetica,sans-Serif" font-size="10.00">_mixture_variables_acc</text>
</a>
</g>
</g>
<!-- Node13&#45;&gt;Node16 -->
<g id="edge16_Node000013_Node000016" class="edge">
<title>Node13&#45;&gt;Node16</title>
<g id="a_edge16_Node000013_Node000016"><a xlink:title=" ">
<path fill="none" stroke="#63b8ff" d="M491.23,-310.87C506.54,-309.08 522.98,-307.15 538.69,-305.31"/>
<polygon fill="#63b8ff" stroke="#63b8ff" points="539.36,-308.76 548.89,-304.12 538.55,-301.81 539.36,-308.76"/>
</a>
</g>
</g>
<!-- Node17 -->
<g id="Node000017" class="node">
<title>Node17</title>
<g id="a_Node000017"><a xlink:href="m__variables__conversion_8fpp_8f90.html#a18920a8493fb62dd7bba5eefab778b31" target="_top" xlink:title=" ">
<polygon fill="white" stroke="#666666" points="703,-263.5 527,-263.5 527,-233.5 703,-233.5 703,-263.5"/>
<text text-anchor="start" x="535" y="-251.5" font-family="Helvetica,sans-Serif" font-size="10.00">s_convert_species_to</text>
<text text-anchor="middle" x="615" y="-240.5" font-family="Helvetica,sans-Serif" font-size="10.00">_mixture_variables_bubbles_acc</text>
</a>
</g>
</g>
<!-- Node13&#45;&gt;Node17 -->
<g id="edge17_Node000013_Node000017" class="edge">
<title>Node13&#45;&gt;Node17</title>
<g id="a_edge17_Node000013_Node000017"><a xlink:title=" ">
<path fill="none" stroke="#63b8ff" d="M470.54,-303.37C477.48,-300.64 484.5,-297.65 491,-294.5 507.88,-286.32 509.79,-279.95 527,-272.5 531.64,-270.49 536.5,-268.6 541.44,-266.84"/>
<polygon fill="#63b8ff" stroke="#63b8ff" points="542.66,-270.12 551.02,-263.61 540.42,-263.49 542.66,-270.12"/>
</a>
</g>
</g>
</g>
</svg>
