<?xml version="1.0" encoding="UTF-8" standalone="no"?>
<!DOCTYPE svg PUBLIC "-//W3C//DTD SVG 1.1//EN"
 "http://www.w3.org/Graphics/SVG/1.1/DTD/svg11.dtd">
<!-- Generated by graphviz version 2.43.0 (0)
 -->
<!-- Title: __m_data_output_fpp_f90__ Pages: 1 -->
<!--zoomable 697 -->

<svg id="main" version="1.1" xmlns="http://www.w3.org/2000/svg" xmlns:xlink="http://www.w3.org/1999/xlink" xml:space="preserve" onload="init(evt)">

<style type="text/css"><![CDATA[
.node, .edge {opacity: 0.7;}
.node.selected, .edge.selected {opacity: 1;}
.edge:hover path { stroke: red; }
.edge:hover polygon { stroke: red; fill: red; }
]]></style>

<defs>
  <circle id="rim" cx="0" cy="0" r="7"/>
  <circle id="rim2" cx="0" cy="0" r="3.5"/>
  <g id="zoomPlus">
    <use xlink:href="#rim" fill="#404040"><set attributeName="fill" to="#808080" begin="zoomplus.mouseover" end="zoomplus.mouseout"/></use>
    <path d="M-4,0h8M0,-4v8" fill="none" stroke="white" stroke-width="1.5" pointer-events="none"/>
  </g>
  <g id="zoomMin">
    <use xlink:href="#rim" fill="#404040"><set attributeName="fill" to="#808080" begin="zoomminus.mouseover" end="zoomminus.mouseout"/></use>
    <path d="M-4,0h8" fill="none" stroke="white" stroke-width="1.5" pointer-events="none"/>
  </g>
  <g id="arrowUp" transform="translate(30 24)">
    <use xlink:href="#rim"/>
    <path pointer-events="none" fill="none" stroke="white" stroke-width="1.5" d="M0,-3.0v7 M-2.5,-0.5L0,-3.0L2.5,-0.5"/>
  </g>
  <g id="arrowRight" transform="rotate(90) translate(36 -43)">
    <use xlink:href="#rim"/>
    <path pointer-events="none" fill="none" stroke="white" stroke-width="1.5" d="M0,-3.0v7 M-2.5,-0.5L0,-3.0L2.5,-0.5"/>
  </g>
  <g id="arrowDown" transform="rotate(180) translate(-30 -48)">
    <use xlink:href="#rim"/>
    <path pointer-events="none" fill="none" stroke="white" stroke-width="1.5" d="M0,-3.0v7 M-2.5,-0.5L0,-3.0L2.5,-0.5"/>
  </g>
  <g id="arrowLeft" transform="rotate(270) translate(-36 17)">
    <use xlink:href="#rim"/>
    <path pointer-events="none" fill="none" stroke="white" stroke-width="1.5" d="M0,-3.0v7 M-2.5,-0.5L0,-3.0L2.5,-0.5"/>
  </g>
  <g id="resetDef">
    <use xlink:href="#rim2" fill="#404040"><set attributeName="fill" to="#808080" begin="reset.mouseover" end="reset.mouseout"/></use>
  </g>
</defs>
<script type="application/ecmascript">
var viewWidth = 947;
var viewHeight = 697;
var sectionId = 'dynsection-0';
</script>
<script type="application/ecmascript" xlink:href="svg.min.js"/>
<svg id="graph" class="graph">
<g id="viewport">
<title>__m_data_output_fpp_f90__</title>
<!-- Node1 -->
<g id="Node000001" class="node">
<title>Node1</title>
<g id="a_Node000001"><a xlink:title=" ">
<polygon fill="#999999" stroke="#666666" points="122,-504 0,-504 0,-474 122,-474 122,-504"/>
<text text-anchor="start" x="8" y="-492" font-family="Helvetica,sans-Serif" font-size="10.00">__m_data_output_fpp</text>
<text text-anchor="middle" x="61" y="-481" font-family="Helvetica,sans-Serif" font-size="10.00">_f90__</text>
</a>
</g>
</g>
<!-- Node2 -->
<g id="Node000002" class="node">
<title>Node2</title>
<g id="a_Node000002"><a xlink:href="m__data__output_8fpp_8f90.html#ab7b83633930398e804bffe97baa6b453" target="_top" xlink:title="Closes probe files.">
<polygon fill="white" stroke="#666666" points="305.5,-688.5 194.5,-688.5 194.5,-669.5 305.5,-669.5 305.5,-688.5"/>
<text text-anchor="middle" x="250" y="-676.5" font-family="Helvetica,sans-Serif" font-size="10.00">s_close_probe_files</text>
</a>
</g>
</g>
<!-- Node1&#45;&gt;Node2 -->
<g id="edge1_Node000001_Node000002" class="edge">
<title>Node1&#45;&gt;Node2</title>
<g id="a_edge1_Node000001_Node000002"><a xlink:title=" ">
<path fill="none" stroke="#63b8ff" d="M65.76,-504.06C75.06,-538.01 102.54,-620.69 158,-661 165.83,-666.69 175,-670.7 184.45,-673.51"/>
<polygon fill="#63b8ff" stroke="#63b8ff" points="183.81,-676.96 194.36,-676.02 185.52,-670.17 183.81,-676.96"/>
</a>
</g>
</g>
<!-- Node3 -->
<g id="Node000003" class="node">
<title>Node3</title>
<g id="a_Node000003"><a xlink:href="m__data__output_8fpp_8f90.html#a767a44787d5bc170c427c348f7f08594" target="_top" xlink:title="The goal of this subroutine is to write to the run&#45;time information file basic footer information app...">
<polygon fill="white" stroke="#666666" points="342,-651.5 158,-651.5 158,-632.5 342,-632.5 342,-651.5"/>
<text text-anchor="middle" x="250" y="-639.5" font-family="Helvetica,sans-Serif" font-size="10.00">s_close_run_time_information_file</text>
</a>
</g>
</g>
<!-- Node1&#45;&gt;Node3 -->
<g id="edge2_Node000001_Node000003" class="edge">
<title>Node1&#45;&gt;Node3</title>
<g id="a_edge2_Node000001_Node000003"><a xlink:title=" ">
<path fill="none" stroke="#63b8ff" d="M68.37,-504.31C80.98,-532.63 111.96,-593 158,-623 161.16,-625.06 164.5,-626.9 167.97,-628.55"/>
<polygon fill="#63b8ff" stroke="#63b8ff" points="166.8,-631.85 177.38,-632.47 169.49,-625.39 166.8,-631.85"/>
</a>
</g>
</g>
<!-- Node4 -->
<g id="Node000004" class="node">
<title>Node4</title>
<g id="a_Node000004"><a xlink:href="m__data__output_8fpp_8f90.html#a5c99917e47ac8f5de3d4d589427d4505" target="_top" xlink:title="Module deallocation and/or disassociation procedures.">
<polygon fill="white" stroke="#666666" points="313,-614 187,-614 187,-584 313,-584 313,-614"/>
<text text-anchor="start" x="195" y="-602" font-family="Helvetica,sans-Serif" font-size="10.00">s_finalize_data_output</text>
<text text-anchor="middle" x="250" y="-591" font-family="Helvetica,sans-Serif" font-size="10.00">_module</text>
</a>
</g>
</g>
<!-- Node1&#45;&gt;Node4 -->
<g id="edge3_Node000001_Node000004" class="edge">
<title>Node1&#45;&gt;Node4</title>
<g id="a_edge3_Node000001_Node000004"><a xlink:title=" ">
<path fill="none" stroke="#63b8ff" d="M74.69,-504.13C91.69,-523.44 123.72,-556.53 158,-575 163.99,-578.23 170.44,-581.04 177.05,-583.49"/>
<polygon fill="#63b8ff" stroke="#63b8ff" points="176.2,-586.9 186.79,-586.82 178.46,-580.27 176.2,-586.9"/>
</a>
</g>
</g>
<!-- Node5 -->
<g id="Node000005" class="node">
<title>Node5</title>
<g id="a_Node000005"><a xlink:href="m__data__output_8fpp_8f90.html#aed63ecd847eb3b59526ffb4099722532" target="_top" xlink:title="The computation of parameters, the allocation of memory, the association of pointers and/or the execu...">
<polygon fill="white" stroke="#666666" points="316.5,-566 183.5,-566 183.5,-536 316.5,-536 316.5,-566"/>
<text text-anchor="start" x="191.5" y="-554" font-family="Helvetica,sans-Serif" font-size="10.00">s_initialize_data_output</text>
<text text-anchor="middle" x="250" y="-543" font-family="Helvetica,sans-Serif" font-size="10.00">_module</text>
</a>
</g>
</g>
<!-- Node1&#45;&gt;Node5 -->
<g id="edge4_Node000001_Node000005" class="edge">
<title>Node1&#45;&gt;Node5</title>
<g id="a_edge4_Node000001_Node000005"><a xlink:title=" ">
<path fill="none" stroke="#63b8ff" d="M105.42,-504.16C121.86,-509.84 140.77,-516.29 158,-522 168.71,-525.55 180.16,-529.26 191.2,-532.8"/>
<polygon fill="#63b8ff" stroke="#63b8ff" points="190.17,-536.14 200.76,-535.85 192.3,-529.47 190.17,-536.14"/>
</a>
</g>
</g>
<!-- Node9 -->
<g id="Node000009" class="node">
<title>Node9</title>
<g id="a_Node000009"><a xlink:href="m__data__output_8fpp_8f90.html#a694588474e2bd0e0b68d5dcb12a2598c" target="_top" xlink:title="The goal of this subroutine is to output the grid and conservative variables data files for given tim...">
<polygon fill="white" stroke="#666666" points="520,-485 399,-485 399,-455 520,-455 520,-485"/>
<text text-anchor="start" x="407" y="-473" font-family="Helvetica,sans-Serif" font-size="10.00">s_write_parallel_data</text>
<text text-anchor="middle" x="459.5" y="-462" font-family="Helvetica,sans-Serif" font-size="10.00">_files</text>
</a>
</g>
</g>
<!-- Node1&#45;&gt;Node9 -->
<g id="edge26_Node000001_Node000009" class="edge">
<title>Node1&#45;&gt;Node9</title>
<g id="a_edge26_Node000001_Node000009"><a xlink:title=" ">
<path fill="none" stroke="#63b8ff" d="M122.22,-486.11C193.71,-482.69 312.73,-476.99 388.32,-473.36"/>
<polygon fill="#63b8ff" stroke="#63b8ff" points="388.87,-476.84 398.69,-472.87 388.53,-469.85 388.87,-476.84"/>
</a>
</g>
</g>
<!-- Node16 -->
<g id="Node000016" class="node">
<title>Node16</title>
<g id="a_Node000016"><a xlink:href="m__data__output_8fpp_8f90.html#a9bfd1f9d59388f2294e049bcabe09692" target="_top" xlink:title="The goal of this subroutine is to output the grid and conservative variables data files for given tim...">
<polygon fill="white" stroke="#666666" points="515,-533 404,-533 404,-503 515,-503 515,-533"/>
<text text-anchor="start" x="412" y="-521" font-family="Helvetica,sans-Serif" font-size="10.00">s_write_serial_data</text>
<text text-anchor="middle" x="459.5" y="-510" font-family="Helvetica,sans-Serif" font-size="10.00">_files</text>
</a>
</g>
</g>
<!-- Node1&#45;&gt;Node16 -->
<g id="edge42_Node000001_Node000016" class="edge">
<title>Node1&#45;&gt;Node16</title>
<g id="a_edge42_Node000001_Node000016"><a xlink:title=" ">
<path fill="none" stroke="#63b8ff" d="M122.22,-493.4C195.36,-498.75 318.27,-507.74 393.5,-513.25"/>
<polygon fill="#63b8ff" stroke="#63b8ff" points="393.56,-516.76 403.79,-514 394.07,-509.78 393.56,-516.76"/>
</a>
</g>
</g>
<!-- Node23 -->
<g id="Node000023" class="node">
<title>Node23</title>
<g id="a_Node000023"><a xlink:href="m__data__output_8fpp_8f90.html#a0bb480784dc0e6c5d4af256ea320133e" target="_top" xlink:title="This opens a formatted data file where the root processor can write out flow probe information.">
<polygon fill="white" stroke="#666666" points="305,-365.5 195,-365.5 195,-346.5 305,-346.5 305,-365.5"/>
<text text-anchor="middle" x="250" y="-353.5" font-family="Helvetica,sans-Serif" font-size="10.00">s_open_probe_files</text>
</a>
</g>
</g>
<!-- Node1&#45;&gt;Node23 -->
<g id="edge24_Node000001_Node000023" class="edge">
<title>Node1&#45;&gt;Node23</title>
<g id="a_edge24_Node000001_Node000023"><a xlink:title=" ">
<path fill="none" stroke="#63b8ff" d="M71.14,-473.77C86.2,-450.02 118.52,-404.38 158,-380 166.25,-374.9 175.57,-370.88 185.02,-367.7"/>
<polygon fill="#63b8ff" stroke="#63b8ff" points="186.33,-370.96 194.87,-364.69 184.29,-364.27 186.33,-370.96"/>
</a>
</g>
</g>
<!-- Node24 -->
<g id="Node000024" class="node">
<title>Node24</title>
<g id="a_Node000024"><a xlink:href="m__data__output_8fpp_8f90.html#a00fd7405d66289c5cbeced472d66d6ed" target="_top" xlink:title="The purpose of this subroutine is to open a new or pre&#45; existing run&#45;time information file and append...">
<polygon fill="white" stroke="#666666" points="341,-328.5 159,-328.5 159,-309.5 341,-309.5 341,-328.5"/>
<text text-anchor="middle" x="250" y="-316.5" font-family="Helvetica,sans-Serif" font-size="10.00">s_open_run_time_information_file</text>
</a>
</g>
</g>
<!-- Node1&#45;&gt;Node24 -->
<g id="edge25_Node000001_Node000024" class="edge">
<title>Node1&#45;&gt;Node24</title>
<g id="a_edge25_Node000001_Node000024"><a xlink:title=" ">
<path fill="none" stroke="#63b8ff" d="M67.04,-473.57C78.08,-442.32 107.56,-371.61 158,-337 160.15,-335.53 162.39,-334.16 164.7,-332.91"/>
<polygon fill="#63b8ff" stroke="#63b8ff" points="166.37,-335.99 173.94,-328.58 163.4,-329.66 166.37,-335.99"/>
</a>
</g>
</g>
<!-- Node25 -->
<g id="Node000025" class="node">
<title>Node25</title>
<g id="a_Node000025"><a xlink:href="m__data__output_8fpp_8f90.html#aefc508a7157b96fe6611e3874c97ee0b" target="_top" xlink:title="This writes a formatted data file for the flow probe information.">
<polygon fill="white" stroke="#666666" points="514.5,-304.5 404.5,-304.5 404.5,-285.5 514.5,-285.5 514.5,-304.5"/>
<text text-anchor="middle" x="459.5" y="-292.5" font-family="Helvetica,sans-Serif" font-size="10.00">s_write_probe_files</text>
</a>
</g>
</g>
<!-- Node1&#45;&gt;Node25 -->
<g id="edge27_Node000001_Node000025" class="edge">
<title>Node1&#45;&gt;Node25</title>
<g id="a_edge27_Node000001_Node000025"><a xlink:title=" ">
<path fill="none" stroke="#63b8ff" d="M122.04,-475.25C192.55,-458.48 304.63,-429.69 342,-408 385.6,-382.7 425.16,-337.57 445.03,-312.69"/>
<polygon fill="#63b8ff" stroke="#63b8ff" points="447.8,-314.83 451.21,-304.8 442.29,-310.51 447.8,-314.83"/>
</a>
</g>
</g>
<!-- Node30 -->
<g id="Node000030" class="node">
<title>Node30</title>
<g id="a_Node000030"><a xlink:href="m__data__output_8fpp_8f90.html#ac145ce5b1674f9df821653e1784a1bcf" target="_top" xlink:title="The goal of the procedure is to output to the run&#45;time information file the stability criteria extrem...">
<polygon fill="white" stroke="#666666" points="541,-163.5 378,-163.5 378,-144.5 541,-144.5 541,-163.5"/>
<text text-anchor="middle" x="459.5" y="-151.5" font-family="Helvetica,sans-Serif" font-size="10.00">s_write_run_time_information</text>
</a>
</g>
</g>
<!-- Node1&#45;&gt;Node30 -->
<g id="edge33_Node000001_Node000030" class="edge">
<title>Node1&#45;&gt;Node30</title>
<g id="a_edge33_Node000001_Node000030"><a xlink:title=" ">
<path fill="none" stroke="#63b8ff" d="M75.27,-473.74C92.41,-455.09 124.09,-424.04 158,-408 233.18,-372.44 278.43,-427.62 342,-374 377.47,-344.08 357.08,-317.42 378,-276 397.79,-236.81 427.61,-194.86 444.85,-171.79"/>
<polygon fill="#63b8ff" stroke="#63b8ff" points="447.77,-173.74 451,-163.65 442.18,-169.52 447.77,-173.74"/>
</a>
</g>
</g>
<!-- Node6 -->
<g id="Node000006" class="node">
<title>Node6</title>
<g id="a_Node000006"><a xlink:href="m__variables__conversion_8fpp_8f90.html#adec0ccf2a3298d2b375a9405a0fa7c1a" target="_top" xlink:title="This subroutine is designed for the gamma/pi_inf model and provided a set of either conservative or p...">
<polygon fill="white" stroke="#666666" points="520.5,-677 398.5,-677 398.5,-647 520.5,-647 520.5,-677"/>
<text text-anchor="start" x="406.5" y="-665" font-family="Helvetica,sans-Serif" font-size="10.00">s_convert_mixture_to</text>
<text text-anchor="middle" x="459.5" y="-654" font-family="Helvetica,sans-Serif" font-size="10.00">_mixture_variables</text>
</a>
</g>
</g>
<!-- Node5&#45;&gt;Node6 -->
<g id="edge5_Node000005_Node000006" class="edge">
<title>Node5&#45;&gt;Node6</title>
<g id="a_edge5_Node000005_Node000006"><a xlink:title=" ">
<path fill="none" stroke="#63b8ff" d="M316.61,-561.51C325.7,-564.84 334.48,-569.23 342,-575 367.58,-594.64 352.74,-617.96 378,-638 381.5,-640.78 385.32,-643.23 389.32,-645.41"/>
<polygon fill="#63b8ff" stroke="#63b8ff" points="387.81,-648.56 398.34,-649.72 390.83,-642.25 387.81,-648.56"/>
</a>
</g>
</g>
<!-- Node7 -->
<g id="Node000007" class="node">
<title>Node7</title>
<g id="a_Node000007"><a xlink:href="m__variables__conversion_8fpp_8f90.html#ac9e3787fd3c00962752030f2c218c3fc" target="_top" xlink:title="This subroutine is designed for the volume fraction model and provided a set of either conservative o...">
<polygon fill="white" stroke="#666666" points="520,-629 399,-629 399,-599 520,-599 520,-629"/>
<text text-anchor="start" x="407" y="-617" font-family="Helvetica,sans-Serif" font-size="10.00">s_convert_species_to</text>
<text text-anchor="middle" x="459.5" y="-606" font-family="Helvetica,sans-Serif" font-size="10.00">_mixture_variables</text>
</a>
</g>
</g>
<!-- Node5&#45;&gt;Node7 -->
<g id="edge6_Node000005_Node000007" class="edge">
<title>Node5&#45;&gt;Node7</title>
<g id="a_edge6_Node000005_Node000007"><a xlink:title=" ">
<path fill="none" stroke="#63b8ff" d="M312.53,-566C322.45,-568.77 332.56,-571.81 342,-575 358.42,-580.56 361.67,-584.18 378,-590 383.54,-591.98 389.34,-593.92 395.17,-595.81"/>
<polygon fill="#63b8ff" stroke="#63b8ff" points="394.39,-599.23 404.98,-598.9 396.5,-592.56 394.39,-599.23"/>
</a>
</g>
</g>
<!-- Node8 -->
<g id="Node000008" class="node">
<title>Node8</title>
<g id="a_Node000008"><a xlink:href="m__variables__conversion_8fpp_8f90.html#a975c2bf46f73cd704b4503e833f5ec3c" target="_top" xlink:title="This procedure is used alongside with the gamma/pi_inf model to transfer the density,...">
<polygon fill="white" stroke="#666666" points="536.5,-581 382.5,-581 382.5,-551 536.5,-551 536.5,-581"/>
<text text-anchor="start" x="390.5" y="-569" font-family="Helvetica,sans-Serif" font-size="10.00">s_convert_species_to</text>
<text text-anchor="middle" x="459.5" y="-558" font-family="Helvetica,sans-Serif" font-size="10.00">_mixture_variables_bubbles</text>
</a>
</g>
</g>
<!-- Node5&#45;&gt;Node8 -->
<g id="edge7_Node000005_Node000008" class="edge">
<title>Node5&#45;&gt;Node8</title>
<g id="a_edge7_Node000005_Node000008"><a xlink:title=" ">
<path fill="none" stroke="#63b8ff" d="M316.65,-555.75C334.29,-557.02 353.62,-558.42 372.19,-559.76"/>
<polygon fill="#63b8ff" stroke="#63b8ff" points="372.19,-563.27 382.41,-560.5 372.69,-556.29 372.19,-563.27"/>
</a>
</g>
</g>
<!-- Node5&#45;&gt;Node9 -->
<g id="edge8_Node000005_Node000009" class="edge">
<title>Node5&#45;&gt;Node9</title>
<g id="a_edge8_Node000005_Node000009"><a xlink:title=" ">
<path fill="none" stroke="#63b8ff" d="M281.58,-535.9C307.01,-523.68 344.36,-506.5 378,-494 383.43,-491.98 389.11,-490.01 394.84,-488.13"/>
<polygon fill="#63b8ff" stroke="#63b8ff" points="396.03,-491.42 404.48,-485.03 393.89,-484.75 396.03,-491.42"/>
</a>
</g>
</g>
<!-- Node5&#45;&gt;Node16 -->
<g id="edge15_Node000005_Node000016" class="edge">
<title>Node5&#45;&gt;Node16</title>
<g id="a_edge15_Node000005_Node000016"><a xlink:title=" ">
<path fill="none" stroke="#63b8ff" d="M316.65,-540.56C341.28,-536.64 369.24,-532.2 393.78,-528.29"/>
<polygon fill="#63b8ff" stroke="#63b8ff" points="394.38,-531.74 403.71,-526.71 393.28,-524.83 394.38,-531.74"/>
</a>
</g>
</g>
<!-- Node10 -->
<g id="Node000010" class="node">
<title>Node10</title>
<g id="a_Node000010"><a xlink:href="namespacem__delay__file__access.html#a2fdd67c672da87dc016f9262b75776a5" target="_top" xlink:title=" ">
<polygon fill="white" stroke="#666666" points="710.5,-485 593.5,-485 593.5,-455 710.5,-455 710.5,-485"/>
<text text-anchor="start" x="601.5" y="-473" font-family="Helvetica,sans-Serif" font-size="10.00">m_delay_file_access</text>
<text text-anchor="middle" x="652" y="-462" font-family="Helvetica,sans-Serif" font-size="10.00">::delayfileaccess</text>
</a>
</g>
</g>
<!-- Node9&#45;&gt;Node10 -->
<g id="edge9_Node000009_Node000010" class="edge">
<title>Node9&#45;&gt;Node10</title>
<g id="a_edge9_Node000009_Node000010"><a xlink:title=" ">
<path fill="none" stroke="#63b8ff" d="M520.25,-470C540.23,-470 562.64,-470 583.18,-470"/>
<polygon fill="#63b8ff" stroke="#63b8ff" points="583.41,-473.5 593.41,-470 583.41,-466.5 583.41,-473.5"/>
</a>
</g>
</g>
<!-- Node11 -->
<g id="Node000011" class="node">
<title>Node11</title>
<g id="a_Node000011"><a xlink:href="namespacem__compile__specific.html#aa7f14da74305c1d061ce326b16a3263e" target="_top" xlink:title="Inquires on the existence of a directory.">
<polygon fill="white" stroke="#666666" points="708.5,-533 595.5,-533 595.5,-503 708.5,-503 708.5,-533"/>
<text text-anchor="start" x="603.5" y="-521" font-family="Helvetica,sans-Serif" font-size="10.00">m_compile_specific</text>
<text text-anchor="middle" x="652" y="-510" font-family="Helvetica,sans-Serif" font-size="10.00">::my_inquire</text>
</a>
</g>
</g>
<!-- Node9&#45;&gt;Node11 -->
<g id="edge10_Node000009_Node000011" class="edge">
<title>Node9&#45;&gt;Node11</title>
<g id="a_edge10_Node000009_Node000011"><a xlink:title=" ">
<path fill="none" stroke="#63b8ff" d="M520.25,-485.06C540.98,-490.28 564.32,-496.16 585.48,-501.49"/>
<polygon fill="#63b8ff" stroke="#63b8ff" points="584.8,-504.93 595.35,-503.98 586.51,-498.14 584.8,-504.93"/>
</a>
</g>
</g>
<!-- Node12 -->
<g id="Node000012" class="node">
<title>Node12</title>
<g id="a_Node000012"><a xlink:href="namespacem__compile__specific.html#a44b8e18a2c76367e7090649e62dd7d8c" target="_top" xlink:title="Creates a directory and all its parents if it does not exist.">
<polygon fill="white" stroke="#666666" points="708.5,-581 595.5,-581 595.5,-551 708.5,-551 708.5,-581"/>
<text text-anchor="start" x="603.5" y="-569" font-family="Helvetica,sans-Serif" font-size="10.00">m_compile_specific</text>
<text text-anchor="middle" x="652" y="-558" font-family="Helvetica,sans-Serif" font-size="10.00">::s_create_directory</text>
</a>
</g>
</g>
<!-- Node9&#45;&gt;Node12 -->
<g id="edge11_Node000009_Node000012" class="edge">
<title>Node9&#45;&gt;Node12</title>
<g id="a_edge11_Node000009_Node000012"><a xlink:title=" ">
<path fill="none" stroke="#63b8ff" d="M520.11,-483C527.49,-485.96 534.66,-489.58 541,-494 562.88,-509.24 555.3,-526.5 577,-542 579.89,-544.06 582.97,-545.96 586.16,-547.7"/>
<polygon fill="#63b8ff" stroke="#63b8ff" points="584.9,-550.97 595.42,-552.18 587.95,-544.67 584.9,-550.97"/>
</a>
</g>
</g>
<!-- Node13 -->
<g id="Node000013" class="node">
<title>Node13</title>
<g id="a_Node000013"><a xlink:href="m__mpi__common_8fpp_8f90.html#a61ffdfd9a712123c83b8ae8964e6427e" target="_top" xlink:title=" ">
<polygon fill="white" stroke="#666666" points="712,-436.5 592,-436.5 592,-417.5 712,-417.5 712,-436.5"/>
<text text-anchor="middle" x="652" y="-424.5" font-family="Helvetica,sans-Serif" font-size="10.00">s_initialize_mpi_data</text>
</a>
</g>
</g>
<!-- Node9&#45;&gt;Node13 -->
<g id="edge12_Node000009_Node000013" class="edge">
<title>Node9&#45;&gt;Node13</title>
<g id="a_edge12_Node000009_Node000013"><a xlink:title=" ">
<path fill="none" stroke="#63b8ff" d="M520.25,-456.51C545.48,-450.82 574.57,-444.25 598.91,-438.76"/>
<polygon fill="#63b8ff" stroke="#63b8ff" points="599.69,-442.17 608.67,-436.55 598.14,-435.34 599.69,-442.17"/>
</a>
</g>
</g>
<!-- Node14 -->
<g id="Node000014" class="node">
<title>Node14</title>
<g id="a_Node000014"><a xlink:href="m__helper_8fpp_8f90.html#a8a0505b2bd4f3d8cb2bf3ce16cfe01e3" target="_top" xlink:title=" ">
<polygon fill="white" stroke="#666666" points="688.5,-399.5 615.5,-399.5 615.5,-380.5 688.5,-380.5 688.5,-399.5"/>
<text text-anchor="middle" x="652" y="-387.5" font-family="Helvetica,sans-Serif" font-size="10.00">s_int_to_str</text>
</a>
</g>
</g>
<!-- Node9&#45;&gt;Node14 -->
<g id="edge13_Node000009_Node000014" class="edge">
<title>Node9&#45;&gt;Node14</title>
<g id="a_edge13_Node000009_Node000014"><a xlink:title=" ">
<path fill="none" stroke="#63b8ff" d="M484.65,-454.83C507.64,-440.96 543.6,-420.72 577,-408 586.08,-404.54 596.04,-401.59 605.63,-399.13"/>
<polygon fill="#63b8ff" stroke="#63b8ff" points="606.55,-402.51 615.44,-396.75 604.9,-395.71 606.55,-402.51"/>
</a>
</g>
</g>
<!-- Node15 -->
<g id="Node000015" class="node">
<title>Node15</title>
<g id="a_Node000015"><a xlink:href="m__mpi__common_8fpp_8f90.html#af4b834c000e6de71e6a00e1224599976" target="_top" xlink:title="Halts all processes until all have reached barrier.">
<polygon fill="white" stroke="#666666" points="693.5,-249.5 610.5,-249.5 610.5,-230.5 693.5,-230.5 693.5,-249.5"/>
<text text-anchor="middle" x="652" y="-237.5" font-family="Helvetica,sans-Serif" font-size="10.00">s_mpi_barrier</text>
</a>
</g>
</g>
<!-- Node9&#45;&gt;Node15 -->
<g id="edge14_Node000009_Node000015" class="edge">
<title>Node9&#45;&gt;Node15</title>
<g id="a_edge14_Node000009_Node000015"><a xlink:title=" ">
<path fill="none" stroke="#63b8ff" d="M467.91,-454.89C490.71,-408.68 559.29,-271.56 577,-258 583.87,-252.74 592.05,-249 600.44,-246.33"/>
<polygon fill="#63b8ff" stroke="#63b8ff" points="601.56,-249.66 610.31,-243.68 599.74,-242.9 601.56,-249.66"/>
</a>
</g>
</g>
<!-- Node16&#45;&gt;Node11 -->
<g id="edge16_Node000016_Node000011" class="edge">
<title>Node16&#45;&gt;Node11</title>
<g id="a_edge16_Node000016_Node000011"><a xlink:title=" ">
<path fill="none" stroke="#63b8ff" d="M515.09,-518C536.92,-518 562.27,-518 585.11,-518"/>
<polygon fill="#63b8ff" stroke="#63b8ff" points="585.41,-521.5 595.41,-518 585.41,-514.5 585.41,-521.5"/>
</a>
</g>
</g>
<!-- Node16&#45;&gt;Node12 -->
<g id="edge22_Node000016_Node000012" class="edge">
<title>Node16&#45;&gt;Node12</title>
<g id="a_edge22_Node000016_Node000012"><a xlink:title=" ">
<path fill="none" stroke="#63b8ff" d="M515.09,-531.75C537.02,-537.28 562.49,-543.7 585.42,-549.48"/>
<polygon fill="#63b8ff" stroke="#63b8ff" points="584.86,-552.94 595.41,-551.99 586.57,-546.16 584.86,-552.94"/>
</a>
</g>
</g>
<!-- Node17 -->
<g id="Node000017" class="node">
<title>Node17</title>
<g id="a_Node000017"><a xlink:href="m__variables__conversion_8fpp_8f90.html#a24725c6eb206c9a62e2ec70bf368836d" target="_top" xlink:title="The following procedure handles the conversion between the conservative variables and the primitive v...">
<polygon fill="white" stroke="#666666" points="718,-629 586,-629 586,-599 718,-599 718,-629"/>
<text text-anchor="start" x="594" y="-617" font-family="Helvetica,sans-Serif" font-size="10.00">s_convert_conservative</text>
<text text-anchor="middle" x="652" y="-606" font-family="Helvetica,sans-Serif" font-size="10.00">_to_primitive_variables</text>
</a>
</g>
</g>
<!-- Node16&#45;&gt;Node17 -->
<g id="edge17_Node000016_Node000017" class="edge">
<title>Node16&#45;&gt;Node17</title>
<g id="a_edge17_Node000016_Node000017"><a xlink:title=" ">
<path fill="none" stroke="#63b8ff" d="M515.08,-529.09C524.2,-532.37 533.22,-536.58 541,-542 562.88,-557.24 555.3,-574.5 577,-590 579.12,-591.51 581.33,-592.93 583.62,-594.27"/>
<polygon fill="#63b8ff" stroke="#63b8ff" points="582.26,-597.5 592.75,-598.99 585.48,-591.29 582.26,-597.5"/>
</a>
</g>
</g>
<!-- Node22 -->
<g id="Node000022" class="node">
<title>Node22</title>
<g id="a_Node000022"><a xlink:href="namespacem__compile__specific.html#a46d584d175683c9c0407cc07181d7bce" target="_top" xlink:title=" ">
<polygon fill="white" stroke="#666666" points="708.5,-677 595.5,-677 595.5,-647 708.5,-647 708.5,-677"/>
<text text-anchor="start" x="603.5" y="-665" font-family="Helvetica,sans-Serif" font-size="10.00">m_compile_specific</text>
<text text-anchor="middle" x="652" y="-654" font-family="Helvetica,sans-Serif" font-size="10.00">::s_delete_directory</text>
</a>
</g>
</g>
<!-- Node16&#45;&gt;Node22 -->
<g id="edge23_Node000016_Node000022" class="edge">
<title>Node16&#45;&gt;Node22</title>
<g id="a_edge23_Node000016_Node000022"><a xlink:title=" ">
<path fill="none" stroke="#63b8ff" d="M515.25,-526.87C524.67,-530.37 533.75,-535.23 541,-542 574.31,-573.09 544.06,-606.51 577,-638 579.88,-640.76 583.09,-643.2 586.5,-645.35"/>
<polygon fill="#63b8ff" stroke="#63b8ff" points="584.88,-648.46 595.34,-650.17 588.23,-642.31 584.88,-648.46"/>
</a>
</g>
</g>
<!-- Node18 -->
<g id="Node000018" class="node">
<title>Node18</title>
<g id="a_Node000018"><a xlink:href="m__helper_8fpp_8f90.html#a772c75c8b24c414cfaed17e2f8acc772" target="_top" xlink:title=" ">
<polygon fill="white" stroke="#666666" points="912,-623.5 790,-623.5 790,-604.5 912,-604.5 912,-623.5"/>
<text text-anchor="middle" x="851" y="-611.5" font-family="Helvetica,sans-Serif" font-size="10.00">s_comp_n_from_cons</text>
</a>
</g>
</g>
<!-- Node17&#45;&gt;Node18 -->
<g id="edge18_Node000017_Node000018" class="edge">
<title>Node17&#45;&gt;Node18</title>
<g id="a_edge18_Node000017_Node000018"><a xlink:title=" ">
<path fill="none" stroke="#63b8ff" d="M718.05,-614C737.8,-614 759.59,-614 779.67,-614"/>
<polygon fill="#63b8ff" stroke="#63b8ff" points="779.68,-617.5 789.68,-614 779.68,-610.5 779.68,-617.5"/>
</a>
</g>
</g>
<!-- Node19 -->
<g id="Node000019" class="node">
<title>Node19</title>
<g id="a_Node000019"><a xlink:href="m__variables__conversion_8fpp_8f90.html#a499880c7d10e09533bf118eb52df0663" target="_top" xlink:title="This procedure conditionally calculates the appropriate pressure.">
<polygon fill="white" stroke="#666666" points="909.5,-473.5 792.5,-473.5 792.5,-454.5 909.5,-454.5 909.5,-473.5"/>
<text text-anchor="middle" x="851" y="-461.5" font-family="Helvetica,sans-Serif" font-size="10.00">s_compute_pressure</text>
</a>
</g>
</g>
<!-- Node17&#45;&gt;Node19 -->
<g id="edge19_Node000017_Node000019" class="edge">
<title>Node17&#45;&gt;Node19</title>
<g id="a_edge19_Node000017_Node000019"><a xlink:title=" ">
<path fill="none" stroke="#63b8ff" d="M709.26,-598.99C715.45,-596.4 721.49,-593.42 727,-590 774.37,-560.6 816.67,-509.14 837.09,-481.97"/>
<polygon fill="#63b8ff" stroke="#63b8ff" points="840.03,-483.88 843.15,-473.76 834.39,-479.73 840.03,-483.88"/>
</a>
</g>
</g>
<!-- Node20 -->
<g id="Node000020" class="node">
<title>Node20</title>
<g id="a_Node000020"><a xlink:href="m__variables__conversion_8fpp_8f90.html#ad0657ad9f2f6277b10693e899ff84b68" target="_top" xlink:title=" ">
<polygon fill="white" stroke="#666666" points="917,-399 785,-399 785,-369 917,-369 917,-399"/>
<text text-anchor="start" x="793" y="-387" font-family="Helvetica,sans-Serif" font-size="10.00">s_convert_species_to</text>
<text text-anchor="middle" x="851" y="-376" font-family="Helvetica,sans-Serif" font-size="10.00">_mixture_variables_acc</text>
</a>
</g>
</g>
<!-- Node17&#45;&gt;Node20 -->
<g id="edge20_Node000017_Node000020" class="edge">
<title>Node17&#45;&gt;Node20</title>
<g id="a_edge20_Node000017_Node000020"><a xlink:title=" ">
<path fill="none" stroke="#63b8ff" d="M716.02,-598.95C720.05,-596.42 723.78,-593.46 727,-590 772.27,-541.43 725.43,-499.75 763,-445 774.54,-428.19 792.33,-414.52 808.82,-404.42"/>
<polygon fill="#63b8ff" stroke="#63b8ff" points="810.94,-407.24 817.81,-399.18 807.41,-401.19 810.94,-407.24"/>
</a>
</g>
</g>
<!-- Node21 -->
<g id="Node000021" class="node">
<title>Node21</title>
<g id="a_Node000021"><a xlink:href="m__variables__conversion_8fpp_8f90.html#a18920a8493fb62dd7bba5eefab778b31" target="_top" xlink:title=" ">
<polygon fill="white" stroke="#666666" points="939,-276 763,-276 763,-246 939,-246 939,-276"/>
<text text-anchor="start" x="771" y="-264" font-family="Helvetica,sans-Serif" font-size="10.00">s_convert_species_to</text>
<text text-anchor="middle" x="851" y="-253" font-family="Helvetica,sans-Serif" font-size="10.00">_mixture_variables_bubbles_acc</text>
</a>
</g>
</g>
<!-- Node17&#45;&gt;Node21 -->
<g id="edge21_Node000017_Node000021" class="edge">
<title>Node17&#45;&gt;Node21</title>
<g id="a_edge21_Node000017_Node000021"><a xlink:title=" ">
<path fill="none" stroke="#63b8ff" d="M717.04,-598.81C720.73,-596.31 724.11,-593.39 727,-590 794.15,-511.28 719.11,-453.69 763,-360 777.31,-329.45 803.99,-301.26 824.05,-282.83"/>
<polygon fill="#63b8ff" stroke="#63b8ff" points="826.53,-285.31 831.64,-276.03 821.86,-280.1 826.53,-285.31"/>
</a>
</g>
</g>
<!-- Node25&#45;&gt;Node19 -->
<g id="edge28_Node000025_Node000019" class="edge">
<title>Node25&#45;&gt;Node19</title>
<g id="a_edge28_Node000025_Node000019"><a xlink:title=" ">
<path fill="none" stroke="#63b8ff" d="M489.1,-304.55C512.6,-312.29 546.82,-323.29 577,-332 643.18,-351.1 667.45,-336.37 727,-371 746.83,-382.53 745.24,-393.48 763,-408 782.18,-423.69 805.95,-438.73 823.8,-449.27"/>
<polygon fill="#63b8ff" stroke="#63b8ff" points="822.13,-452.34 832.54,-454.35 825.65,-446.29 822.13,-452.34"/>
</a>
</g>
</g>
<!-- Node26 -->
<g id="Node000026" class="node">
<title>Node26</title>
<g id="a_Node000026"><a xlink:href="m__variables__conversion_8fpp_8f90.html#a014ebbfa361f27aaeaee1f703d4053ef" target="_top" xlink:title=" ">
<polygon fill="white" stroke="#666666" points="711.5,-212 592.5,-212 592.5,-182 711.5,-182 711.5,-212"/>
<text text-anchor="start" x="600.5" y="-200" font-family="Helvetica,sans-Serif" font-size="10.00">s_compute_speed_of</text>
<text text-anchor="middle" x="652" y="-189" font-family="Helvetica,sans-Serif" font-size="10.00">_sound</text>
</a>
</g>
</g>
<!-- Node25&#45;&gt;Node26 -->
<g id="edge29_Node000025_Node000026" class="edge">
<title>Node25&#45;&gt;Node26</title>
<g id="a_edge29_Node000025_Node000026"><a xlink:title=" ">
<path fill="none" stroke="#63b8ff" d="M473.16,-285.44C493.91,-270.11 536.89,-239.87 577,-221 581.03,-219.11 585.24,-217.3 589.53,-215.59"/>
<polygon fill="#63b8ff" stroke="#63b8ff" points="590.88,-218.83 599,-212.02 588.41,-212.28 590.88,-218.83"/>
</a>
</g>
</g>
<!-- Node27 -->
<g id="Node000027" class="node">
<title>Node27</title>
<g id="a_Node000027"><a xlink:href="m__mpi__common_8fpp_8f90.html#ad9e1329e498b65ad4256658675d6f797" target="_top" xlink:title="The subroutine terminates the MPI execution environment.">
<polygon fill="white" stroke="#666666" points="690.5,-163.5 613.5,-163.5 613.5,-144.5 690.5,-144.5 690.5,-163.5"/>
<text text-anchor="middle" x="652" y="-151.5" font-family="Helvetica,sans-Serif" font-size="10.00">s_mpi_abort</text>
</a>
</g>
</g>
<!-- Node25&#45;&gt;Node27 -->
<g id="edge30_Node000025_Node000027" class="edge">
<title>Node25&#45;&gt;Node27</title>
<g id="a_edge30_Node000025_Node000027"><a xlink:title=" ">
<path fill="none" stroke="#63b8ff" d="M466.82,-285.34C482.5,-262.16 525.7,-203.05 577,-173 585.07,-168.27 594.31,-164.71 603.46,-162.03"/>
<polygon fill="#63b8ff" stroke="#63b8ff" points="604.5,-165.37 613.29,-159.45 602.73,-158.6 604.5,-165.37"/>
</a>
</g>
</g>
<!-- Node28 -->
<g id="Node000028" class="node">
<title>Node28</title>
<g id="a_Node000028"><a xlink:href="m__mpi__common_8fpp_8f90.html#ace30ab3097bad7059bd466d05e862ca4" target="_top" xlink:title="The following subroutine takes the input local variable from all processors and reduces to the maximu...">
<polygon fill="white" stroke="#666666" points="713.5,-323.5 590.5,-323.5 590.5,-304.5 713.5,-304.5 713.5,-323.5"/>
<text text-anchor="middle" x="652" y="-311.5" font-family="Helvetica,sans-Serif" font-size="10.00">s_mpi_allreduce_max</text>
</a>
</g>
</g>
<!-- Node25&#45;&gt;Node28 -->
<g id="edge31_Node000025_Node000028" class="edge">
<title>Node25&#45;&gt;Node28</title>
<g id="a_edge31_Node000025_Node000028"><a xlink:title=" ">
<path fill="none" stroke="#63b8ff" d="M514.58,-300.39C535,-302.43 558.54,-304.78 580.26,-306.94"/>
<polygon fill="#63b8ff" stroke="#63b8ff" points="580.12,-310.45 590.42,-307.96 580.81,-303.48 580.12,-310.45"/>
</a>
</g>
</g>
<!-- Node29 -->
<g id="Node000029" class="node">
<title>Node29</title>
<g id="a_Node000029"><a xlink:href="m__mpi__common_8fpp_8f90.html#a32d9758a664e7f6d46ae5a503c57ac1f" target="_top" xlink:title="The following subroutine takes the input local variable from all processors and reduces to the sum of...">
<polygon fill="white" stroke="#666666" points="713,-286.5 591,-286.5 591,-267.5 713,-267.5 713,-286.5"/>
<text text-anchor="middle" x="652" y="-274.5" font-family="Helvetica,sans-Serif" font-size="10.00">s_mpi_allreduce_sum</text>
</a>
</g>
</g>
<!-- Node25&#45;&gt;Node29 -->
<g id="edge32_Node000025_Node000029" class="edge">
<title>Node25&#45;&gt;Node29</title>
<g id="a_edge32_Node000025_Node000029"><a xlink:title=" ">
<path fill="none" stroke="#63b8ff" d="M514.58,-289.89C535.09,-287.95 558.76,-285.72 580.56,-283.66"/>
<polygon fill="#63b8ff" stroke="#63b8ff" points="581.13,-287.12 590.76,-282.69 580.47,-280.15 581.13,-287.12"/>
</a>
</g>
</g>
<!-- Node30&#45;&gt;Node15 -->
<g id="edge40_Node000030_Node000015" class="edge">
<title>Node30&#45;&gt;Node15</title>
<g id="a_edge40_Node000030_Node000015"><a xlink:title=" ">
<path fill="none" stroke="#63b8ff" d="M474.22,-163.54C495.38,-177.88 537.67,-204.99 577,-221 584.51,-224.06 592.66,-226.74 600.7,-229.05"/>
<polygon fill="#63b8ff" stroke="#63b8ff" points="599.85,-232.44 610.42,-231.68 601.68,-225.69 599.85,-232.44"/>
</a>
</g>
</g>
<!-- Node30&#45;&gt;Node26 -->
<g id="edge37_Node000030_Node000026" class="edge">
<title>Node30&#45;&gt;Node26</title>
<g id="a_edge37_Node000030_Node000026"><a xlink:title=" ">
<path fill="none" stroke="#63b8ff" d="M502.78,-163.54C526.11,-168.81 555.65,-175.48 582.21,-181.47"/>
<polygon fill="#63b8ff" stroke="#63b8ff" points="581.7,-184.95 592.22,-183.73 583.24,-178.12 581.7,-184.95"/>
</a>
</g>
</g>
<!-- Node30&#45;&gt;Node27 -->
<g id="edge39_Node000030_Node000027" class="edge">
<title>Node30&#45;&gt;Node27</title>
<g id="a_edge39_Node000030_Node000027"><a xlink:title=" ">
<path fill="none" stroke="#63b8ff" d="M541.01,-154C562.18,-154 584.33,-154 603.17,-154"/>
<polygon fill="#63b8ff" stroke="#63b8ff" points="603.27,-157.5 613.27,-154 603.27,-150.5 603.27,-157.5"/>
</a>
</g>
</g>
<!-- Node31 -->
<g id="Node000031" class="node">
<title>Node31</title>
<g id="a_Node000031"><a xlink:href="namespacem__sim__helpers.html#a728a849783a9c8a5a8f969daa627995b" target="_top" xlink:title="Computes enthalpy.">
<polygon fill="white" stroke="#666666" points="727,-126 577,-126 577,-96 727,-96 727,-126"/>
<text text-anchor="start" x="585" y="-114" font-family="Helvetica,sans-Serif" font-size="10.00">m_sim_helpers::s_compute</text>
<text text-anchor="middle" x="652" y="-103" font-family="Helvetica,sans-Serif" font-size="10.00">_enthalpy</text>
</a>
</g>
</g>
<!-- Node30&#45;&gt;Node31 -->
<g id="edge34_Node000030_Node000031" class="edge">
<title>Node30&#45;&gt;Node31</title>
<g id="a_edge34_Node000030_Node000031"><a xlink:title=" ">
<path fill="none" stroke="#63b8ff" d="M502.78,-144.46C523.88,-139.69 550.06,-133.78 574.52,-128.26"/>
<polygon fill="#63b8ff" stroke="#63b8ff" points="575.53,-131.62 584.52,-126.01 573.99,-124.79 575.53,-131.62"/>
</a>
</g>
</g>
<!-- Node32 -->
<g id="Node000032" class="node">
<title>Node32</title>
<g id="a_Node000032"><a xlink:href="namespacem__sim__helpers.html#ad7c9828a95b779c9c011d9d052df9eaa" target="_top" xlink:title="Computes stability criterion for a specified dt.">
<polygon fill="white" stroke="#666666" points="727,-78 577,-78 577,-48 727,-48 727,-78"/>
<text text-anchor="start" x="585" y="-66" font-family="Helvetica,sans-Serif" font-size="10.00">m_sim_helpers::s_compute</text>
<text text-anchor="middle" x="652" y="-55" font-family="Helvetica,sans-Serif" font-size="10.00">_stability_from_dt</text>
</a>
</g>
</g>
<!-- Node30&#45;&gt;Node32 -->
<g id="edge38_Node000030_Node000032" class="edge">
<title>Node30&#45;&gt;Node32</title>
<g id="a_edge38_Node000030_Node000032"><a xlink:title=" ">
<path fill="none" stroke="#63b8ff" d="M475.06,-144.3C496.61,-130.24 538.61,-104.04 577,-87 581.32,-85.08 585.85,-83.24 590.44,-81.48"/>
<polygon fill="#63b8ff" stroke="#63b8ff" points="591.73,-84.74 599.92,-78.02 589.33,-78.17 591.73,-84.74"/>
</a>
</g>
</g>
<!-- Node33 -->
<g id="Node000033" class="node">
<title>Node33</title>
<g id="a_Node000033"><a xlink:href="m__mpi__common_8fpp_8f90.html#a99e735e37227935a07a9dbcf948878f6" target="_top" xlink:title="The goal of this subroutine is to determine the global extrema of the stability criteria in the compu...">
<polygon fill="white" stroke="#666666" points="716.5,-30 587.5,-30 587.5,0 716.5,0 716.5,-30"/>
<text text-anchor="start" x="595.5" y="-18" font-family="Helvetica,sans-Serif" font-size="10.00">s_mpi_reduce_stability</text>
<text text-anchor="middle" x="652" y="-7" font-family="Helvetica,sans-Serif" font-size="10.00">_criteria_extrema</text>
</a>
</g>
</g>
<!-- Node30&#45;&gt;Node33 -->
<g id="edge41_Node000030_Node000033" class="edge">
<title>Node30&#45;&gt;Node33</title>
<g id="a_edge41_Node000030_Node000033"><a xlink:title=" ">
<path fill="none" stroke="#63b8ff" d="M467.56,-144.47C484.21,-122.65 528.19,-68.68 577,-39 579.77,-37.32 582.67,-35.74 585.65,-34.26"/>
<polygon fill="#63b8ff" stroke="#63b8ff" points="587.13,-37.43 594.8,-30.12 584.25,-31.05 587.13,-37.43"/>
</a>
</g>
</g>
<!-- Node31&#45;&gt;Node20 -->
<g id="edge35_Node000031_Node000020" class="edge">
<title>Node31&#45;&gt;Node20</title>
<g id="a_edge35_Node000031_Node000020"><a xlink:title=" ">
<path fill="none" stroke="#63b8ff" d="M716.05,-126.02C720.08,-128.56 723.79,-131.53 727,-135 773.55,-185.33 731.45,-224.13 763,-285 778.53,-314.95 805.02,-343.24 824.71,-361.84"/>
<polygon fill="#63b8ff" stroke="#63b8ff" points="822.42,-364.5 832.14,-368.72 827.18,-359.36 822.42,-364.5"/>
</a>
</g>
</g>
<!-- Node31&#45;&gt;Node21 -->
<g id="edge36_Node000031_Node000021" class="edge">
<title>Node31&#45;&gt;Node21</title>
<g id="a_edge36_Node000031_Node000021"><a xlink:title=" ">
<path fill="none" stroke="#63b8ff" d="M709.26,-126.01C715.45,-128.6 721.49,-131.58 727,-135 771.49,-162.61 811.51,-209.68 833.12,-237.81"/>
<polygon fill="#63b8ff" stroke="#63b8ff" points="830.4,-240.02 839.22,-245.89 835.99,-235.8 830.4,-240.02"/>
</a>
</g>
</g>
</g>
</svg>

<g id="navigator" transform="translate(0 0)" fill="#404254">
  <rect fill="#f2f5e9" fill-opacity="0.5" stroke="#606060" stroke-width=".5" x="0" y="0" width="60" height="60"/>
  <use id="zoomplus" xlink:href="#zoomPlus" x="17" y="9" onmousedown="handleZoom(evt,'in')"/>
  <use id="zoomminus" xlink:href="#zoomMin" x="42" y="9" onmousedown="handleZoom(evt,'out')"/>
  <use id="reset" xlink:href="#resetDef" x="30" y="36" onmousedown="handleReset()"/>
   <use id="arrowup" xlink:href="#arrowUp" x="0" y="0" onmousedown="handlePan(0,-1)"/>
  <use id="arrowright" xlink:href="#arrowRight" x="0" y="0" onmousedown="handlePan(1,0)"/>
  <use id="arrowdown" xlink:href="#arrowDown" x="0" y="0" onmousedown="handlePan(0,1)"/>
  <use id="arrowleft" xlink:href="#arrowLeft" x="0" y="0" onmousedown="handlePan(-1,0)"/>
</g>
<svg viewBox="0 0 15 15" width="100%" height="30px" preserveAspectRatio="xMaxYMin meet">
 <g id="arrow_out" transform="scale(0.3 0.3)">
  <a xlink:href="m__data__output_8fpp_8f90_a979b8a2cf4215a8122fc461c0512dbba_cgraph_org.svg" target="_base">
   <rect id="button" ry="5" rx="5" y="6" x="6" height="38" width="38"
        fill="#f2f5e9" fill-opacity="0.5" stroke="#606060" stroke-width="1.0"/>
   <path id="arrow"
     d="M 11.500037,31.436501 C 11.940474,20.09759 22.043105,11.32322 32.158766,21.979434 L 37.068811,17.246167 C 37.068811,17.246167 37.088388,32 37.088388,32 L 22.160133,31.978069 C 22.160133,31.978069 26.997745,27.140456 26.997745,27.140456 C 18.528582,18.264221 13.291696,25.230495 11.500037,31.436501 z"
     style="fill:#404040;"/>
  </a>
 </g>
</svg>

<style type='text/css'>
<![CDATA[
[data-mouse-over-selected='false'] { opacity: 0.7; }
[data-mouse-over-selected='true']  { opacity: 1.0; }
]]>
</style>
<script type="application/ecmascript"><![CDATA[
document.addEventListener('DOMContentLoaded', (event) => {
  highlightEdges();
  highlightAdjacentNodes();
});
]]></script>
</svg>
