<?xml version="1.0" encoding="UTF-8" standalone="no"?>
<!DOCTYPE svg PUBLIC "-//W3C//DTD SVG 1.1//EN"
 "http://www.w3.org/Graphics/SVG/1.1/DTD/svg11.dtd">
<!-- Generated by graphviz version 2.43.0 (0)
 -->
<!-- Title: s_write_serial_data_files Pages: 1 -->
<svg width="689pt" height="257pt"
 viewBox="0.00 0.00 689.00 256.50" xmlns="http://www.w3.org/2000/svg" xmlns:xlink="http://www.w3.org/1999/xlink">
<g id="graph0" class="graph" transform="scale(1 1) rotate(0) translate(4 252.5)">
<title>s_write_serial_data_files</title>
<!-- Node1 -->
<g id="Node000001" class="node">
<title>Node1</title>
<g id="a_Node000001"><a xlink:title="The goal of this subroutine is to output the grid and conservative variables data files for given tim...">
<polygon fill="#999999" stroke="#666666" points="111,-150 0,-150 0,-120 111,-120 111,-150"/>
<text text-anchor="start" x="8" y="-138" font-family="Helvetica,sans-Serif" font-size="10.00">s_write_serial_data</text>
<text text-anchor="middle" x="55.5" y="-127" font-family="Helvetica,sans-Serif" font-size="10.00">_files</text>
</a>
</g>
</g>
<!-- Node2 -->
<g id="Node000002" class="node">
<title>Node2</title>
<g id="a_Node000002"><a xlink:href="namespacem__compile__specific.html#aa7f14da74305c1d061ce326b16a3263e" target="_top" xlink:title="Inquires on the existence of a directory.">
<polygon fill="white" stroke="#666666" points="269.5,-222 156.5,-222 156.5,-192 269.5,-192 269.5,-222"/>
<text text-anchor="start" x="164.5" y="-210" font-family="Helvetica,sans-Serif" font-size="10.00">m_compile_specific</text>
<text text-anchor="middle" x="213" y="-199" font-family="Helvetica,sans-Serif" font-size="10.00">::my_inquire</text>
</a>
</g>
</g>
<!-- Node1&#45;&gt;Node2 -->
<g id="edge1_Node000001_Node000002" class="edge">
<title>Node1&#45;&gt;Node2</title>
<g id="a_edge1_Node000001_Node000002"><a xlink:title=" ">
<path fill="none" stroke="#63b8ff" d="M82.57,-150.02C100.4,-160 124.76,-173.05 147,-183 150.89,-184.74 154.95,-186.46 159.06,-188.13"/>
<polygon fill="#63b8ff" stroke="#63b8ff" points="158.08,-191.51 168.67,-191.92 160.65,-185 158.08,-191.51"/>
</a>
</g>
</g>
<!-- Node3 -->
<g id="Node000003" class="node">
<title>Node3</title>
<g id="a_Node000003"><a xlink:href="m__variables__conversion_8fpp_8f90.html#ac269816c5c0ef9758b03e89cf59d3c50" target="_top" xlink:title="The following procedure handles the conversion between the conservative variables and the primitive v...">
<polygon fill="white" stroke="#666666" points="279,-174 147,-174 147,-144 279,-144 279,-174"/>
<text text-anchor="start" x="155" y="-162" font-family="Helvetica,sans-Serif" font-size="10.00">s_convert_conservative</text>
<text text-anchor="middle" x="213" y="-151" font-family="Helvetica,sans-Serif" font-size="10.00">_to_primitive_variables</text>
</a>
</g>
</g>
<!-- Node1&#45;&gt;Node3 -->
<g id="edge2_Node000001_Node000003" class="edge">
<title>Node1&#45;&gt;Node3</title>
<g id="a_edge2_Node000001_Node000003"><a xlink:title=" ">
<path fill="none" stroke="#63b8ff" d="M111.32,-143.46C119.56,-144.73 128.17,-146.06 136.74,-147.38"/>
<polygon fill="#63b8ff" stroke="#63b8ff" points="136.33,-150.86 146.75,-148.93 137.4,-143.95 136.33,-150.86"/>
</a>
</g>
</g>
<!-- Node12 -->
<g id="Node000012" class="node">
<title>Node12</title>
<g id="a_Node000012"><a xlink:href="namespacem__compile__specific.html#a44b8e18a2c76367e7090649e62dd7d8c" target="_top" xlink:title="Creates a directory and all its parents if it does not exist.">
<polygon fill="white" stroke="#666666" points="269.5,-126 156.5,-126 156.5,-96 269.5,-96 269.5,-126"/>
<text text-anchor="start" x="164.5" y="-114" font-family="Helvetica,sans-Serif" font-size="10.00">m_compile_specific</text>
<text text-anchor="middle" x="213" y="-103" font-family="Helvetica,sans-Serif" font-size="10.00">::s_create_directory</text>
</a>
</g>
</g>
<!-- Node1&#45;&gt;Node12 -->
<g id="edge11_Node000001_Node000012" class="edge">
<title>Node1&#45;&gt;Node12</title>
<g id="a_edge11_Node000001_Node000012"><a xlink:title=" ">
<path fill="none" stroke="#63b8ff" d="M111.32,-126.54C122.62,-124.8 134.62,-122.94 146.26,-121.15"/>
<polygon fill="#63b8ff" stroke="#63b8ff" points="147.01,-124.57 156.36,-119.59 145.94,-117.65 147.01,-124.57"/>
</a>
</g>
</g>
<!-- Node13 -->
<g id="Node000013" class="node">
<title>Node13</title>
<g id="a_Node000013"><a xlink:href="namespacem__compile__specific.html#a46d584d175683c9c0407cc07181d7bce" target="_top" xlink:title=" ">
<polygon fill="white" stroke="#666666" points="269.5,-78 156.5,-78 156.5,-48 269.5,-48 269.5,-78"/>
<text text-anchor="start" x="164.5" y="-66" font-family="Helvetica,sans-Serif" font-size="10.00">m_compile_specific</text>
<text text-anchor="middle" x="213" y="-55" font-family="Helvetica,sans-Serif" font-size="10.00">::s_delete_directory</text>
</a>
</g>
</g>
<!-- Node1&#45;&gt;Node13 -->
<g id="edge12_Node000001_Node000013" class="edge">
<title>Node1&#45;&gt;Node13</title>
<g id="a_edge12_Node000001_Node000013"><a xlink:title=" ">
<path fill="none" stroke="#63b8ff" d="M82.57,-119.98C100.4,-110 124.76,-96.95 147,-87 150.89,-85.26 154.95,-83.54 159.06,-81.87"/>
<polygon fill="#63b8ff" stroke="#63b8ff" points="160.65,-85 168.67,-78.08 158.08,-78.49 160.65,-85"/>
</a>
</g>
</g>
<!-- Node4 -->
<g id="Node000004" class="node">
<title>Node4</title>
<g id="a_Node000004"><a xlink:href="m__helper_8fpp_8f90.html#a772c75c8b24c414cfaed17e2f8acc772" target="_top" xlink:title=" ">
<polygon fill="white" stroke="#666666" points="464,-248.5 342,-248.5 342,-229.5 464,-229.5 464,-248.5"/>
<text text-anchor="middle" x="403" y="-236.5" font-family="Helvetica,sans-Serif" font-size="10.00">s_comp_n_from_cons</text>
</a>
</g>
</g>
<!-- Node3&#45;&gt;Node4 -->
<g id="edge3_Node000003_Node000004" class="edge">
<title>Node3&#45;&gt;Node4</title>
<g id="a_edge3_Node000003_Node000004"><a xlink:title=" ">
<path fill="none" stroke="#63b8ff" d="M262.44,-174.02C268.22,-176.64 273.88,-179.62 279,-183 298.42,-195.81 294.68,-209.68 315,-221 320.27,-223.93 325.95,-226.39 331.81,-228.45"/>
<polygon fill="#63b8ff" stroke="#63b8ff" points="331.18,-231.92 341.77,-231.55 333.26,-225.24 331.18,-231.92"/>
</a>
</g>
</g>
<!-- Node5 -->
<g id="Node000005" class="node">
<title>Node5</title>
<g id="a_Node000005"><a xlink:href="m__variables__conversion_8fpp_8f90.html#a56814a06b04c5e1d20f74af98405368a" target="_top" xlink:title="This procedure conditionally calculates the appropriate pressure.">
<polygon fill="white" stroke="#666666" points="461.5,-211.5 344.5,-211.5 344.5,-192.5 461.5,-192.5 461.5,-211.5"/>
<text text-anchor="middle" x="403" y="-199.5" font-family="Helvetica,sans-Serif" font-size="10.00">s_compute_pressure</text>
</a>
</g>
</g>
<!-- Node3&#45;&gt;Node5 -->
<g id="edge4_Node000003_Node000005" class="edge">
<title>Node3&#45;&gt;Node5</title>
<g id="a_edge4_Node000003_Node000005"><a xlink:title=" ">
<path fill="none" stroke="#63b8ff" d="M276.46,-174.03C289.2,-177.04 302.52,-180.16 315,-183 325.62,-185.42 336.98,-187.95 347.87,-190.34"/>
<polygon fill="#63b8ff" stroke="#63b8ff" points="347.19,-193.77 357.71,-192.49 348.68,-186.93 347.19,-193.77"/>
</a>
</g>
</g>
<!-- Node6 -->
<g id="Node000006" class="node">
<title>Node6</title>
<g id="a_Node000006"><a xlink:href="m__variables__conversion_8fpp_8f90.html#ad0657ad9f2f6277b10693e899ff84b68" target="_top" xlink:title=" ">
<polygon fill="white" stroke="#666666" points="469,-174 337,-174 337,-144 469,-144 469,-174"/>
<text text-anchor="start" x="345" y="-162" font-family="Helvetica,sans-Serif" font-size="10.00">s_convert_species_to</text>
<text text-anchor="middle" x="403" y="-151" font-family="Helvetica,sans-Serif" font-size="10.00">_mixture_variables_acc</text>
</a>
</g>
</g>
<!-- Node3&#45;&gt;Node6 -->
<g id="edge5_Node000003_Node000006" class="edge">
<title>Node3&#45;&gt;Node6</title>
<g id="a_edge5_Node000003_Node000006"><a xlink:title=" ">
<path fill="none" stroke="#63b8ff" d="M279.23,-159C294.54,-159 310.98,-159 326.69,-159"/>
<polygon fill="#63b8ff" stroke="#63b8ff" points="326.89,-162.5 336.89,-159 326.89,-155.5 326.89,-162.5"/>
</a>
</g>
</g>
<!-- Node7 -->
<g id="Node000007" class="node">
<title>Node7</title>
<g id="a_Node000007"><a xlink:href="m__variables__conversion_8fpp_8f90.html#a18920a8493fb62dd7bba5eefab778b31" target="_top" xlink:title=" ">
<polygon fill="white" stroke="#666666" points="491,-126 315,-126 315,-96 491,-96 491,-126"/>
<text text-anchor="start" x="323" y="-114" font-family="Helvetica,sans-Serif" font-size="10.00">s_convert_species_to</text>
<text text-anchor="middle" x="403" y="-103" font-family="Helvetica,sans-Serif" font-size="10.00">_mixture_variables_bubbles_acc</text>
</a>
</g>
</g>
<!-- Node3&#45;&gt;Node7 -->
<g id="edge6_Node000003_Node000007" class="edge">
<title>Node3&#45;&gt;Node7</title>
<g id="a_edge6_Node000003_Node000007"><a xlink:title=" ">
<path fill="none" stroke="#63b8ff" d="M272.97,-143.94C292.13,-139.05 313.56,-133.58 333.36,-128.52"/>
<polygon fill="#63b8ff" stroke="#63b8ff" points="334.42,-131.87 343.24,-126 332.69,-125.09 334.42,-131.87"/>
</a>
</g>
</g>
<!-- Node8 -->
<g id="Node000008" class="node">
<title>Node8</title>
<g id="a_Node000008"><a xlink:href="m__variables__conversion_8fpp_8f90.html#ab8bdf7610d49d294015daa441faabc01" target="_top" xlink:title="Dispatch to the s_convert_mixture_to_mixture_variables and s_convert_species_to_mixture_variables sub...">
<polygon fill="white" stroke="#666666" points="464,-78 342,-78 342,-48 464,-48 464,-78"/>
<text text-anchor="start" x="350" y="-66" font-family="Helvetica,sans-Serif" font-size="10.00">s_convert_to_mixture</text>
<text text-anchor="middle" x="403" y="-55" font-family="Helvetica,sans-Serif" font-size="10.00">_variables</text>
</a>
</g>
</g>
<!-- Node3&#45;&gt;Node8 -->
<g id="edge7_Node000003_Node000008" class="edge">
<title>Node3&#45;&gt;Node8</title>
<g id="a_edge7_Node000003_Node000008"><a xlink:title=" ">
<path fill="none" stroke="#63b8ff" d="M264.17,-143.89C269.41,-141.33 274.47,-138.38 279,-135 300.38,-119.06 292.96,-102.02 315,-87 320.27,-83.41 326.06,-80.35 332.07,-77.75"/>
<polygon fill="#63b8ff" stroke="#63b8ff" points="333.61,-80.91 341.67,-74.03 331.08,-74.39 333.61,-80.91"/>
</a>
</g>
</g>
<!-- Node9 -->
<g id="Node000009" class="node">
<title>Node9</title>
<g id="a_Node000009"><a xlink:href="m__variables__conversion_8fpp_8f90.html#adec0ccf2a3298d2b375a9405a0fa7c1a" target="_top" xlink:title="This subroutine is designed for the gamma/pi_inf model and provided a set of either conservative or p...">
<polygon fill="white" stroke="#666666" points="665,-126 543,-126 543,-96 665,-96 665,-126"/>
<text text-anchor="start" x="551" y="-114" font-family="Helvetica,sans-Serif" font-size="10.00">s_convert_mixture_to</text>
<text text-anchor="middle" x="604" y="-103" font-family="Helvetica,sans-Serif" font-size="10.00">_mixture_variables</text>
</a>
</g>
</g>
<!-- Node8&#45;&gt;Node9 -->
<g id="edge8_Node000008_Node000009" class="edge">
<title>Node8&#45;&gt;Node9</title>
<g id="a_edge8_Node000008_Node000009"><a xlink:title=" ">
<path fill="none" stroke="#63b8ff" d="M464.25,-77.53C485.97,-82.77 510.67,-88.73 533.14,-94.15"/>
<polygon fill="#63b8ff" stroke="#63b8ff" points="532.42,-97.58 542.96,-96.52 534.06,-90.77 532.42,-97.58"/>
</a>
</g>
</g>
<!-- Node10 -->
<g id="Node000010" class="node">
<title>Node10</title>
<g id="a_Node000010"><a xlink:href="m__variables__conversion_8fpp_8f90.html#ac9e3787fd3c00962752030f2c218c3fc" target="_top" xlink:title="This subroutine is designed for the volume fraction model and provided a set of either conservative o...">
<polygon fill="white" stroke="#666666" points="664.5,-78 543.5,-78 543.5,-48 664.5,-48 664.5,-78"/>
<text text-anchor="start" x="551.5" y="-66" font-family="Helvetica,sans-Serif" font-size="10.00">s_convert_species_to</text>
<text text-anchor="middle" x="604" y="-55" font-family="Helvetica,sans-Serif" font-size="10.00">_mixture_variables</text>
</a>
</g>
</g>
<!-- Node8&#45;&gt;Node10 -->
<g id="edge9_Node000008_Node000010" class="edge">
<title>Node8&#45;&gt;Node10</title>
<g id="a_edge9_Node000008_Node000010"><a xlink:title=" ">
<path fill="none" stroke="#63b8ff" d="M464.25,-63C485.97,-63 510.67,-63 533.15,-63"/>
<polygon fill="#63b8ff" stroke="#63b8ff" points="533.3,-66.5 543.3,-63 533.3,-59.5 533.3,-66.5"/>
</a>
</g>
</g>
<!-- Node11 -->
<g id="Node000011" class="node">
<title>Node11</title>
<g id="a_Node000011"><a xlink:href="m__variables__conversion_8fpp_8f90.html#a975c2bf46f73cd704b4503e833f5ec3c" target="_top" xlink:title="This procedure is used alongside with the gamma/pi_inf model to transfer the density,...">
<polygon fill="white" stroke="#666666" points="681,-30 527,-30 527,0 681,0 681,-30"/>
<text text-anchor="start" x="535" y="-18" font-family="Helvetica,sans-Serif" font-size="10.00">s_convert_species_to</text>
<text text-anchor="middle" x="604" y="-7" font-family="Helvetica,sans-Serif" font-size="10.00">_mixture_variables_bubbles</text>
</a>
</g>
</g>
<!-- Node8&#45;&gt;Node11 -->
<g id="edge10_Node000008_Node000011" class="edge">
<title>Node8&#45;&gt;Node11</title>
<g id="a_edge10_Node000008_Node000011"><a xlink:title=" ">
<path fill="none" stroke="#63b8ff" d="M464.25,-48.47C485.18,-43.42 508.87,-37.7 530.68,-32.44"/>
<polygon fill="#63b8ff" stroke="#63b8ff" points="531.65,-35.81 540.55,-30.06 530,-29.01 531.65,-35.81"/>
</a>
</g>
</g>
</g>
</svg>
