<?xml version="1.0" encoding="UTF-8" standalone="no"?>
<!DOCTYPE svg PUBLIC "-//W3C//DTD SVG 1.1//EN"
 "http://www.w3.org/Graphics/SVG/1.1/DTD/svg11.dtd">
<!-- Generated by graphviz version 2.43.0 (0)
 -->
<!-- Title: __m_data_output_fpp_f90__ Pages: 1 -->
<svg width="1137pt" height="962pt"
 viewBox="0.00 0.00 1137.00 961.50" xmlns="http://www.w3.org/2000/svg" xmlns:xlink="http://www.w3.org/1999/xlink">
<g id="graph0" class="graph" transform="scale(1 1) rotate(0) translate(4 957.5)">
<title>__m_data_output_fpp_f90__</title>
<!-- Node1 -->
<g id="Node000001" class="node">
<title>Node1</title>
<g id="a_Node000001"><a xlink:title=" ">
<polygon fill="#999999" stroke="#666666" points="122,-695 0,-695 0,-665 122,-665 122,-695"/>
<text text-anchor="start" x="8" y="-683" font-family="Helvetica,sans-Serif" font-size="10.00">__m_data_output_fpp</text>
<text text-anchor="middle" x="61" y="-672" font-family="Helvetica,sans-Serif" font-size="10.00">_f90__</text>
</a>
</g>
</g>
<!-- Node2 -->
<g id="Node000002" class="node">
<title>Node2</title>
<g id="a_Node000002"><a xlink:href="m__data__output_8fpp_8f90.html#a92b2c6de4ff60c23ba6dba714e67cc42" target="_top" xlink:title="Closes communication files.">
<polygon fill="white" stroke="#666666" points="302,-953.5 198,-953.5 198,-934.5 302,-934.5 302,-953.5"/>
<text text-anchor="middle" x="250" y="-941.5" font-family="Helvetica,sans-Serif" font-size="10.00">s_close_com_files</text>
</a>
</g>
</g>
<!-- Node1&#45;&gt;Node2 -->
<g id="edge1_Node000001_Node000002" class="edge">
<title>Node1&#45;&gt;Node2</title>
<g id="a_edge1_Node000001_Node000002"><a xlink:title=" ">
<path fill="none" stroke="#63b8ff" d="M63.06,-695.3C66.95,-738.85 84.36,-864.35 158,-926 166.51,-933.12 177.03,-937.72 187.86,-940.62"/>
<polygon fill="#63b8ff" stroke="#63b8ff" points="187.33,-944.09 197.85,-942.85 188.85,-937.26 187.33,-944.09"/>
</a>
</g>
</g>
<!-- Node3 -->
<g id="Node000003" class="node">
<title>Node3</title>
<g id="a_Node000003"><a xlink:href="m__data__output_8fpp_8f90.html#ab21d0e2d610542ddedc8acdc130dcfbf" target="_top" xlink:title="Closes probe files.">
<polygon fill="white" stroke="#666666" points="305.5,-916.5 194.5,-916.5 194.5,-897.5 305.5,-897.5 305.5,-916.5"/>
<text text-anchor="middle" x="250" y="-904.5" font-family="Helvetica,sans-Serif" font-size="10.00">s_close_probe_files</text>
</a>
</g>
</g>
<!-- Node1&#45;&gt;Node3 -->
<g id="edge2_Node000001_Node000003" class="edge">
<title>Node1&#45;&gt;Node3</title>
<g id="a_edge2_Node000001_Node000003"><a xlink:title=" ">
<path fill="none" stroke="#63b8ff" d="M64.21,-695.26C70.72,-734.28 93.57,-838.19 158,-889 165.78,-895.13 175.07,-899.36 184.7,-902.24"/>
<polygon fill="#63b8ff" stroke="#63b8ff" points="183.85,-905.63 194.4,-904.69 185.56,-898.85 183.85,-905.63"/>
</a>
</g>
</g>
<!-- Node4 -->
<g id="Node000004" class="node">
<title>Node4</title>
<g id="a_Node000004"><a xlink:href="m__data__output_8fpp_8f90.html#a2f2958b928ff738eb255f61821df258e" target="_top" xlink:title="The goal of this subroutine is to write to the run&#45;time information file basic footer information app...">
<polygon fill="white" stroke="#666666" points="342,-879.5 158,-879.5 158,-860.5 342,-860.5 342,-879.5"/>
<text text-anchor="middle" x="250" y="-867.5" font-family="Helvetica,sans-Serif" font-size="10.00">s_close_run_time_information_file</text>
</a>
</g>
</g>
<!-- Node1&#45;&gt;Node4 -->
<g id="edge3_Node000001_Node000004" class="edge">
<title>Node1&#45;&gt;Node4</title>
<g id="a_edge3_Node000001_Node000004"><a xlink:title=" ">
<path fill="none" stroke="#63b8ff" d="M65.89,-695.19C75.38,-729.02 103.08,-810.74 158,-851 160.52,-852.85 163.18,-854.53 165.95,-856.05"/>
<polygon fill="#63b8ff" stroke="#63b8ff" points="164.56,-859.26 175.09,-860.4 167.56,-852.94 164.56,-859.26"/>
</a>
</g>
</g>
<!-- Node5 -->
<g id="Node000005" class="node">
<title>Node5</title>
<g id="a_Node000005"><a xlink:href="m__data__output_8fpp_8f90.html#a05b7c052fd896cc5d93a97033008ea0f" target="_top" xlink:title="Module deallocation and/or disassociation procedures.">
<polygon fill="white" stroke="#666666" points="313,-842 187,-842 187,-812 313,-812 313,-842"/>
<text text-anchor="start" x="195" y="-830" font-family="Helvetica,sans-Serif" font-size="10.00">s_finalize_data_output</text>
<text text-anchor="middle" x="250" y="-819" font-family="Helvetica,sans-Serif" font-size="10.00">_module</text>
</a>
</g>
</g>
<!-- Node1&#45;&gt;Node5 -->
<g id="edge4_Node000001_Node000005" class="edge">
<title>Node1&#45;&gt;Node5</title>
<g id="a_edge4_Node000001_Node000005"><a xlink:title=" ">
<path fill="none" stroke="#63b8ff" d="M69.5,-695.07C83.3,-721.21 115.26,-774.82 158,-803 164,-806.96 170.63,-810.26 177.49,-813.03"/>
<polygon fill="#63b8ff" stroke="#63b8ff" points="176.36,-816.34 186.95,-816.46 178.75,-809.76 176.36,-816.34"/>
</a>
</g>
</g>
<!-- Node6 -->
<g id="Node000006" class="node">
<title>Node6</title>
<g id="a_Node000006"><a xlink:href="m__data__output_8fpp_8f90.html#a96760f956949bfd8e826ce150b41c27d" target="_top" xlink:title="The computation of parameters, the allocation of memory, the association of pointers and/or the execu...">
<polygon fill="white" stroke="#666666" points="316.5,-794 183.5,-794 183.5,-764 316.5,-764 316.5,-794"/>
<text text-anchor="start" x="191.5" y="-782" font-family="Helvetica,sans-Serif" font-size="10.00">s_initialize_data_output</text>
<text text-anchor="middle" x="250" y="-771" font-family="Helvetica,sans-Serif" font-size="10.00">_module</text>
</a>
</g>
</g>
<!-- Node1&#45;&gt;Node6 -->
<g id="edge5_Node000001_Node000006" class="edge">
<title>Node1&#45;&gt;Node6</title>
<g id="a_edge5_Node000001_Node000006"><a xlink:title=" ">
<path fill="none" stroke="#63b8ff" d="M77.27,-695.2C95.15,-712.17 126.36,-739.3 158,-755 162.94,-757.45 168.16,-759.67 173.5,-761.68"/>
<polygon fill="#63b8ff" stroke="#63b8ff" points="172.61,-765.08 183.2,-765.08 174.92,-758.47 172.61,-765.08"/>
</a>
</g>
</g>
<!-- Node7 -->
<g id="Node000007" class="node">
<title>Node7</title>
<g id="a_Node000007"><a xlink:href="m__data__output_8fpp_8f90.html#a30bcb54b9ba0a921e7487aaf5d4e8ce5" target="_top" xlink:title="This opens a formatted data file where the root processor can write out the CoM information.">
<polygon fill="white" stroke="#666666" points="301.5,-745.5 198.5,-745.5 198.5,-726.5 301.5,-726.5 301.5,-745.5"/>
<text text-anchor="middle" x="250" y="-733.5" font-family="Helvetica,sans-Serif" font-size="10.00">s_open_com_files</text>
</a>
</g>
</g>
<!-- Node1&#45;&gt;Node7 -->
<g id="edge6_Node000001_Node000007" class="edge">
<title>Node1&#45;&gt;Node7</title>
<g id="a_edge6_Node000001_Node000007"><a xlink:title=" ">
<path fill="none" stroke="#63b8ff" d="M95.68,-695.07C113.86,-702.76 136.85,-711.78 158,-718 167.62,-720.83 177.94,-723.35 188.05,-725.54"/>
<polygon fill="#63b8ff" stroke="#63b8ff" points="187.56,-729.01 198.06,-727.62 188.98,-722.16 187.56,-729.01"/>
</a>
</g>
</g>
<!-- Node8 -->
<g id="Node000008" class="node">
<title>Node8</title>
<g id="a_Node000008"><a xlink:href="m__data__output_8fpp_8f90.html#ad76386c05cde7c0410475efac8e16755" target="_top" xlink:title="This opens a formatted data file where the root processor can write out flow probe information.">
<polygon fill="white" stroke="#666666" points="305,-708.5 195,-708.5 195,-689.5 305,-689.5 305,-708.5"/>
<text text-anchor="middle" x="250" y="-696.5" font-family="Helvetica,sans-Serif" font-size="10.00">s_open_probe_files</text>
</a>
</g>
</g>
<!-- Node1&#45;&gt;Node8 -->
<g id="edge7_Node000001_Node000008" class="edge">
<title>Node1&#45;&gt;Node8</title>
<g id="a_edge7_Node000001_Node000008"><a xlink:title=" ">
<path fill="none" stroke="#63b8ff" d="M122.2,-686.12C142.2,-688.15 164.54,-690.42 184.83,-692.48"/>
<polygon fill="#63b8ff" stroke="#63b8ff" points="184.62,-695.98 194.92,-693.51 185.33,-689.01 184.62,-695.98"/>
</a>
</g>
</g>
<!-- Node9 -->
<g id="Node000009" class="node">
<title>Node9</title>
<g id="a_Node000009"><a xlink:href="m__data__output_8fpp_8f90.html#ab16360567a101c0c164e569c79ce8c80" target="_top" xlink:title="The purpose of this subroutine is to open a new or pre&#45; existing run&#45;time information file and append...">
<polygon fill="white" stroke="#666666" points="341,-671.5 159,-671.5 159,-652.5 341,-652.5 341,-671.5"/>
<text text-anchor="middle" x="250" y="-659.5" font-family="Helvetica,sans-Serif" font-size="10.00">s_open_run_time_information_file</text>
</a>
</g>
</g>
<!-- Node1&#45;&gt;Node9 -->
<g id="edge8_Node000001_Node000009" class="edge">
<title>Node1&#45;&gt;Node9</title>
<g id="a_edge8_Node000001_Node000009"><a xlink:title=" ">
<path fill="none" stroke="#63b8ff" d="M122.2,-674.21C130.73,-673.38 139.69,-672.52 148.73,-671.65"/>
<polygon fill="#63b8ff" stroke="#63b8ff" points="149.34,-675.11 158.96,-670.67 148.67,-668.14 149.34,-675.11"/>
</a>
</g>
</g>
<!-- Node10 -->
<g id="Node000010" class="node">
<title>Node10</title>
<g id="a_Node000010"><a xlink:href="m__data__output_8fpp_8f90.html#aca7ca4b86ed9d7a2b42c8683835df353" target="_top" xlink:title="This writes a formatted data file where the root processor can write out the CoM information.">
<polygon fill="white" stroke="#666666" points="302,-634.5 198,-634.5 198,-615.5 302,-615.5 302,-634.5"/>
<text text-anchor="middle" x="250" y="-622.5" font-family="Helvetica,sans-Serif" font-size="10.00">s_write_com_files</text>
</a>
</g>
</g>
<!-- Node1&#45;&gt;Node10 -->
<g id="edge9_Node000001_Node000010" class="edge">
<title>Node1&#45;&gt;Node10</title>
<g id="a_edge9_Node000001_Node000010"><a xlink:title=" ">
<path fill="none" stroke="#63b8ff" d="M98.03,-665C115.85,-657.96 137.83,-649.85 158,-644 167.53,-641.24 177.74,-638.7 187.74,-636.45"/>
<polygon fill="#63b8ff" stroke="#63b8ff" points="188.62,-639.84 197.64,-634.29 187.13,-633 188.62,-639.84"/>
</a>
</g>
</g>
<!-- Node11 -->
<g id="Node000011" class="node">
<title>Node11</title>
<g id="a_Node000011"><a xlink:href="m__data__output_8fpp_8f90.html#a2d8566ed05d923060e9914679222ebd1" target="_top" xlink:title="Write data files. Dispatch subroutine that replaces procedure pointer.">
<polygon fill="white" stroke="#666666" points="302,-558.5 198,-558.5 198,-539.5 302,-539.5 302,-558.5"/>
<text text-anchor="middle" x="250" y="-546.5" font-family="Helvetica,sans-Serif" font-size="10.00">s_write_data_files</text>
</a>
</g>
</g>
<!-- Node1&#45;&gt;Node11 -->
<g id="edge10_Node000001_Node000011" class="edge">
<title>Node1&#45;&gt;Node11</title>
<g id="a_edge10_Node000001_Node000011"><a xlink:title=" ">
<path fill="none" stroke="#63b8ff" d="M71.46,-664.67C86.72,-641.26 119.03,-596.82 158,-573 167.18,-567.39 177.66,-563.08 188.16,-559.77"/>
<polygon fill="#63b8ff" stroke="#63b8ff" points="189.13,-563.13 197.77,-557 187.19,-556.4 189.13,-563.13"/>
</a>
</g>
</g>
<!-- Node12 -->
<g id="Node000012" class="node">
<title>Node12</title>
<g id="a_Node000012"><a xlink:href="m__data__output_8fpp_8f90.html#a92010ace6ee28e7e2ed5975b1de0780a" target="_top" xlink:title="The goal of this subroutine is to output the grid and conservative variables data files for given tim...">
<polygon fill="white" stroke="#666666" points="520,-607 399,-607 399,-577 520,-577 520,-607"/>
<text text-anchor="start" x="407" y="-595" font-family="Helvetica,sans-Serif" font-size="10.00">s_write_parallel_data</text>
<text text-anchor="middle" x="459.5" y="-584" font-family="Helvetica,sans-Serif" font-size="10.00">_files</text>
</a>
</g>
</g>
<!-- Node1&#45;&gt;Node12 -->
<g id="edge31_Node000001_Node000012" class="edge">
<title>Node1&#45;&gt;Node12</title>
<g id="a_edge31_Node000001_Node000012"><a xlink:title=" ">
<path fill="none" stroke="#63b8ff" d="M75.9,-664.95C93.2,-647.39 124.56,-619.21 158,-607 233.3,-579.51 326.3,-579.59 388.73,-584.06"/>
<polygon fill="#63b8ff" stroke="#63b8ff" points="388.62,-587.56 398.86,-584.85 389.16,-580.58 388.62,-587.56"/>
</a>
</g>
</g>
<!-- Node19 -->
<g id="Node000019" class="node">
<title>Node19</title>
<g id="a_Node000019"><a xlink:href="m__data__output_8fpp_8f90.html#a81cdc0dd327f2dd53343cad8d7f74ede" target="_top" xlink:title="The goal of this subroutine is to output the grid and conservative variables data files for given tim...">
<polygon fill="white" stroke="#666666" points="515,-551 404,-551 404,-521 515,-521 515,-551"/>
<text text-anchor="start" x="412" y="-539" font-family="Helvetica,sans-Serif" font-size="10.00">s_write_serial_data</text>
<text text-anchor="middle" x="459.5" y="-528" font-family="Helvetica,sans-Serif" font-size="10.00">_files</text>
</a>
</g>
</g>
<!-- Node1&#45;&gt;Node19 -->
<g id="edge49_Node000001_Node000019" class="edge">
<title>Node1&#45;&gt;Node19</title>
<g id="a_edge49_Node000001_Node000019"><a xlink:title=" ">
<path fill="none" stroke="#63b8ff" d="M66.28,-664.92C76.24,-633.05 104.3,-559.39 158,-530 233.39,-488.74 336.14,-503.05 399.85,-518.51"/>
<polygon fill="#63b8ff" stroke="#63b8ff" points="399.18,-521.95 409.73,-520.99 400.89,-515.16 399.18,-521.95"/>
</a>
</g>
</g>
<!-- Node30 -->
<g id="Node000030" class="node">
<title>Node30</title>
<g id="a_Node000030"><a xlink:href="m__data__output_8fpp_8f90.html#a0eb579b4fb6abd1205444045aff3e448" target="_top" xlink:title="This writes a formatted data file for the flow probe information.">
<polygon fill="white" stroke="#666666" points="514.5,-370.5 404.5,-370.5 404.5,-351.5 514.5,-351.5 514.5,-370.5"/>
<text text-anchor="middle" x="459.5" y="-358.5" font-family="Helvetica,sans-Serif" font-size="10.00">s_write_probe_files</text>
</a>
</g>
</g>
<!-- Node1&#45;&gt;Node30 -->
<g id="edge32_Node000001_Node000030" class="edge">
<title>Node1&#45;&gt;Node30</title>
<g id="a_edge32_Node000001_Node000030"><a xlink:title=" ">
<path fill="none" stroke="#63b8ff" d="M66.35,-664.82C76.78,-630.84 106.28,-547.85 158,-499 230.7,-430.34 343.58,-391.23 408.31,-373.24"/>
<polygon fill="#63b8ff" stroke="#63b8ff" points="409.54,-376.53 418.28,-370.53 407.71,-369.78 409.54,-376.53"/>
</a>
</g>
</g>
<!-- Node35 -->
<g id="Node000035" class="node">
<title>Node35</title>
<g id="a_Node000035"><a xlink:href="m__data__output_8fpp_8f90.html#a4f3dafb38455425825590217313d8ee3" target="_top" xlink:title="The goal of the procedure is to output to the run&#45;time information file the stability criteria extrem...">
<polygon fill="white" stroke="#666666" points="541,-192.5 378,-192.5 378,-173.5 541,-173.5 541,-192.5"/>
<text text-anchor="middle" x="459.5" y="-180.5" font-family="Helvetica,sans-Serif" font-size="10.00">s_write_run_time_information</text>
</a>
</g>
</g>
<!-- Node1&#45;&gt;Node35 -->
<g id="edge39_Node000001_Node000035" class="edge">
<title>Node1&#45;&gt;Node35</title>
<g id="a_edge39_Node000001_Node000035"><a xlink:title=" ">
<path fill="none" stroke="#63b8ff" d="M63.62,-664.95C69.16,-619.37 90.95,-480.49 158,-391 231.49,-292.92 365.17,-224.43 426.36,-196.71"/>
<polygon fill="#63b8ff" stroke="#63b8ff" points="427.83,-199.89 435.54,-192.62 424.98,-193.5 427.83,-199.89"/>
</a>
</g>
</g>
<!-- Node11&#45;&gt;Node12 -->
<g id="edge11_Node000011_Node000012" class="edge">
<title>Node11&#45;&gt;Node12</title>
<g id="a_edge11_Node000011_Node000012"><a xlink:title=" ">
<path fill="none" stroke="#63b8ff" d="M297.05,-558.54C323.98,-564.12 358.5,-571.28 388.71,-577.54"/>
<polygon fill="#63b8ff" stroke="#63b8ff" points="388.27,-581.02 398.77,-579.62 389.69,-574.17 388.27,-581.02"/>
</a>
</g>
</g>
<!-- Node11&#45;&gt;Node19 -->
<g id="edge18_Node000011_Node000019" class="edge">
<title>Node11&#45;&gt;Node19</title>
<g id="a_edge18_Node000011_Node000019"><a xlink:title=" ">
<path fill="none" stroke="#63b8ff" d="M302.03,-545.8C329.61,-544.07 363.97,-541.92 393.46,-540.07"/>
<polygon fill="#63b8ff" stroke="#63b8ff" points="393.91,-543.55 403.67,-539.44 393.47,-536.57 393.91,-543.55"/>
</a>
</g>
</g>
<!-- Node13 -->
<g id="Node000013" class="node">
<title>Node13</title>
<g id="a_Node000013"><a xlink:href="namespacem__delay__file__access.html#a9b90086a2cf6bbb569047c955d2e67fe" target="_top" xlink:title=" ">
<polygon fill="white" stroke="#666666" points="710.5,-762 593.5,-762 593.5,-732 710.5,-732 710.5,-762"/>
<text text-anchor="start" x="601.5" y="-750" font-family="Helvetica,sans-Serif" font-size="10.00">m_delay_file_access</text>
<text text-anchor="middle" x="652" y="-739" font-family="Helvetica,sans-Serif" font-size="10.00">::delayfileaccess</text>
</a>
</g>
</g>
<!-- Node12&#45;&gt;Node13 -->
<g id="edge12_Node000012_Node000013" class="edge">
<title>Node12&#45;&gt;Node13</title>
<g id="a_edge12_Node000012_Node000013"><a xlink:title=" ">
<path fill="none" stroke="#63b8ff" d="M470.08,-607.32C487.87,-634.53 528.59,-691.37 577,-723 579.44,-724.59 581.99,-726.09 584.62,-727.49"/>
<polygon fill="#63b8ff" stroke="#63b8ff" points="583.28,-730.73 593.81,-731.91 586.31,-724.42 583.28,-730.73"/>
</a>
</g>
</g>
<!-- Node14 -->
<g id="Node000014" class="node">
<title>Node14</title>
<g id="a_Node000014"><a xlink:href="namespacem__compile__specific.html#a9cf8c029e502931415929734c03f340d" target="_top" xlink:title="Inquires on the existence of a directory.">
<polygon fill="white" stroke="#666666" points="708.5,-591 595.5,-591 595.5,-561 708.5,-561 708.5,-591"/>
<text text-anchor="start" x="603.5" y="-579" font-family="Helvetica,sans-Serif" font-size="10.00">m_compile_specific</text>
<text text-anchor="middle" x="652" y="-568" font-family="Helvetica,sans-Serif" font-size="10.00">::my_inquire</text>
</a>
</g>
</g>
<!-- Node12&#45;&gt;Node14 -->
<g id="edge13_Node000012_Node000014" class="edge">
<title>Node12&#45;&gt;Node14</title>
<g id="a_edge13_Node000012_Node000014"><a xlink:title=" ">
<path fill="none" stroke="#63b8ff" d="M520.25,-586.98C540.88,-585.25 564.1,-583.3 585.19,-581.53"/>
<polygon fill="#63b8ff" stroke="#63b8ff" points="585.68,-585 595.35,-580.67 585.09,-578.02 585.68,-585"/>
</a>
</g>
</g>
<!-- Node15 -->
<g id="Node000015" class="node">
<title>Node15</title>
<g id="a_Node000015"><a xlink:href="namespacem__compile__specific.html#aa1b4e12a20e09147a215c3b5018484b0" target="_top" xlink:title="Creates a directory and all its parents if it does not exist.">
<polygon fill="white" stroke="#666666" points="708.5,-639 595.5,-639 595.5,-609 708.5,-609 708.5,-639"/>
<text text-anchor="start" x="603.5" y="-627" font-family="Helvetica,sans-Serif" font-size="10.00">m_compile_specific</text>
<text text-anchor="middle" x="652" y="-616" font-family="Helvetica,sans-Serif" font-size="10.00">::s_create_directory</text>
</a>
</g>
</g>
<!-- Node12&#45;&gt;Node15 -->
<g id="edge14_Node000012_Node000015" class="edge">
<title>Node12&#45;&gt;Node15</title>
<g id="a_edge14_Node000012_Node000015"><a xlink:title=" ">
<path fill="none" stroke="#63b8ff" d="M520.25,-602.04C540.98,-605.52 564.32,-609.44 585.48,-612.99"/>
<polygon fill="#63b8ff" stroke="#63b8ff" points="584.91,-616.45 595.35,-614.65 586.07,-609.54 584.91,-616.45"/>
</a>
</g>
</g>
<!-- Node16 -->
<g id="Node000016" class="node">
<title>Node16</title>
<g id="a_Node000016"><a xlink:href="m__mpi__common_8fpp_8f90.html#aff6f50a37632c54b36bc810df56db363" target="_top" xlink:title=" ">
<polygon fill="white" stroke="#666666" points="712,-713.5 592,-713.5 592,-694.5 712,-694.5 712,-713.5"/>
<text text-anchor="middle" x="652" y="-701.5" font-family="Helvetica,sans-Serif" font-size="10.00">s_initialize_mpi_data</text>
</a>
</g>
</g>
<!-- Node12&#45;&gt;Node16 -->
<g id="edge15_Node000012_Node000016" class="edge">
<title>Node12&#45;&gt;Node16</title>
<g id="a_edge15_Node000012_Node000016"><a xlink:title=" ">
<path fill="none" stroke="#63b8ff" d="M474.8,-607.16C495.4,-628.07 535.52,-665.51 577,-686 580.98,-687.96 585.18,-689.72 589.48,-691.29"/>
<polygon fill="#63b8ff" stroke="#63b8ff" points="588.42,-694.63 599.01,-694.45 590.62,-687.98 588.42,-694.63"/>
</a>
</g>
</g>
<!-- Node17 -->
<g id="Node000017" class="node">
<title>Node17</title>
<g id="a_Node000017"><a xlink:href="m__helper_8fpp_8f90.html#a61ed7167a8466d96b3403bf41febc469" target="_top" xlink:title=" ">
<polygon fill="white" stroke="#666666" points="688.5,-676.5 615.5,-676.5 615.5,-657.5 688.5,-657.5 688.5,-676.5"/>
<text text-anchor="middle" x="652" y="-664.5" font-family="Helvetica,sans-Serif" font-size="10.00">s_int_to_str</text>
</a>
</g>
</g>
<!-- Node12&#45;&gt;Node17 -->
<g id="edge16_Node000012_Node000017" class="edge">
<title>Node12&#45;&gt;Node17</title>
<g id="a_edge16_Node000012_Node000017"><a xlink:title=" ">
<path fill="none" stroke="#63b8ff" d="M488.08,-607.17C511.27,-619.45 545.59,-636.54 577,-648 586.06,-651.31 595.95,-654.27 605.46,-656.81"/>
<polygon fill="#63b8ff" stroke="#63b8ff" points="604.63,-660.21 615.19,-659.31 606.37,-653.43 604.63,-660.21"/>
</a>
</g>
</g>
<!-- Node18 -->
<g id="Node000018" class="node">
<title>Node18</title>
<g id="a_Node000018"><a xlink:href="m__mpi__common_8fpp_8f90.html#abf2b4ebce724f44c966c7f1b865ce619" target="_top" xlink:title="Halts all processes until all have reached barrier.">
<polygon fill="white" stroke="#666666" points="693.5,-333.5 610.5,-333.5 610.5,-314.5 693.5,-314.5 693.5,-333.5"/>
<text text-anchor="middle" x="652" y="-321.5" font-family="Helvetica,sans-Serif" font-size="10.00">s_mpi_barrier</text>
</a>
</g>
</g>
<!-- Node12&#45;&gt;Node18 -->
<g id="edge17_Node000012_Node000018" class="edge">
<title>Node12&#45;&gt;Node18</title>
<g id="a_edge17_Node000012_Node000018"><a xlink:title=" ">
<path fill="none" stroke="#63b8ff" d="M519.85,-576.81C527.91,-572.52 535.34,-567.03 541,-560 602.6,-483.52 510.21,-413.99 577,-342 583.27,-335.24 591.62,-330.82 600.45,-327.98"/>
<polygon fill="#63b8ff" stroke="#63b8ff" points="601.34,-331.37 610.15,-325.48 599.59,-324.59 601.34,-331.37"/>
</a>
</g>
</g>
<!-- Node19&#45;&gt;Node14 -->
<g id="edge19_Node000019_Node000014" class="edge">
<title>Node19&#45;&gt;Node14</title>
<g id="a_edge19_Node000019_Node000014"><a xlink:title=" ">
<path fill="none" stroke="#63b8ff" d="M515.09,-547.46C537.02,-552.07 562.49,-557.42 585.42,-562.23"/>
<polygon fill="#63b8ff" stroke="#63b8ff" points="584.9,-565.7 595.41,-564.33 586.34,-558.85 584.9,-565.7"/>
</a>
</g>
</g>
<!-- Node19&#45;&gt;Node15 -->
<g id="edge29_Node000019_Node000015" class="edge">
<title>Node19&#45;&gt;Node15</title>
<g id="a_edge29_Node000019_Node000015"><a xlink:title=" ">
<path fill="none" stroke="#63b8ff" d="M506.54,-551.11C518.18,-555.78 530.37,-561.45 541,-568 559.22,-579.23 558.42,-589.36 577,-600 580.02,-601.73 583.18,-603.36 586.43,-604.88"/>
<polygon fill="#63b8ff" stroke="#63b8ff" points="585.18,-608.15 595.75,-608.91 587.96,-601.73 585.18,-608.15"/>
</a>
</g>
</g>
<!-- Node20 -->
<g id="Node000020" class="node">
<title>Node20</title>
<g id="a_Node000020"><a xlink:href="m__variables__conversion_8fpp_8f90.html#aa60d444204129a7ea7db312e4435e64f" target="_top" xlink:title="The following procedure handles the conversion between the conservative variables and the primitive v...">
<polygon fill="white" stroke="#666666" points="718,-457 586,-457 586,-427 718,-427 718,-457"/>
<text text-anchor="start" x="594" y="-445" font-family="Helvetica,sans-Serif" font-size="10.00">s_convert_conservative</text>
<text text-anchor="middle" x="652" y="-434" font-family="Helvetica,sans-Serif" font-size="10.00">_to_primitive_variables</text>
</a>
</g>
</g>
<!-- Node19&#45;&gt;Node20 -->
<g id="edge20_Node000019_Node000020" class="edge">
<title>Node19&#45;&gt;Node20</title>
<g id="a_edge20_Node000019_Node000020"><a xlink:title=" ">
<path fill="none" stroke="#63b8ff" d="M491.11,-520.9C523.74,-504.79 575.54,-479.23 611.29,-461.59"/>
<polygon fill="#63b8ff" stroke="#63b8ff" points="613.05,-464.63 620.47,-457.07 609.95,-458.35 613.05,-464.63"/>
</a>
</g>
</g>
<!-- Node29 -->
<g id="Node000029" class="node">
<title>Node29</title>
<g id="a_Node000029"><a xlink:href="namespacem__compile__specific.html#a60af946dc5a6e9ece1327c7cb756c4a2" target="_top" xlink:title=" ">
<polygon fill="white" stroke="#666666" points="708.5,-543 595.5,-543 595.5,-513 708.5,-513 708.5,-543"/>
<text text-anchor="start" x="603.5" y="-531" font-family="Helvetica,sans-Serif" font-size="10.00">m_compile_specific</text>
<text text-anchor="middle" x="652" y="-520" font-family="Helvetica,sans-Serif" font-size="10.00">::s_delete_directory</text>
</a>
</g>
</g>
<!-- Node19&#45;&gt;Node29 -->
<g id="edge30_Node000019_Node000029" class="edge">
<title>Node19&#45;&gt;Node29</title>
<g id="a_edge30_Node000019_Node000029"><a xlink:title=" ">
<path fill="none" stroke="#63b8ff" d="M515.09,-533.71C536.92,-532.79 562.27,-531.73 585.11,-530.77"/>
<polygon fill="#63b8ff" stroke="#63b8ff" points="585.57,-534.25 595.41,-530.33 585.27,-527.26 585.57,-534.25"/>
</a>
</g>
</g>
<!-- Node21 -->
<g id="Node000021" class="node">
<title>Node21</title>
<g id="a_Node000021"><a xlink:href="m__helper_8fpp_8f90.html#ab7da8471e7f3806485eddbb315766fbe" target="_top" xlink:title=" ">
<polygon fill="white" stroke="#666666" points="912,-451.5 790,-451.5 790,-432.5 912,-432.5 912,-451.5"/>
<text text-anchor="middle" x="851" y="-439.5" font-family="Helvetica,sans-Serif" font-size="10.00">s_comp_n_from_cons</text>
</a>
</g>
</g>
<!-- Node20&#45;&gt;Node21 -->
<g id="edge21_Node000020_Node000021" class="edge">
<title>Node20&#45;&gt;Node21</title>
<g id="a_edge21_Node000020_Node000021"><a xlink:title=" ">
<path fill="none" stroke="#63b8ff" d="M718.05,-442C737.8,-442 759.59,-442 779.67,-442"/>
<polygon fill="#63b8ff" stroke="#63b8ff" points="779.68,-445.5 789.68,-442 779.68,-438.5 779.68,-445.5"/>
</a>
</g>
</g>
<!-- Node22 -->
<g id="Node000022" class="node">
<title>Node22</title>
<g id="a_Node000022"><a xlink:href="m__variables__conversion_8fpp_8f90.html#ad74ef9c6e5144ef4389c41fab6f94e31" target="_top" xlink:title="This procedure conditionally calculates the appropriate pressure.">
<polygon fill="white" stroke="#666666" points="909.5,-411.5 792.5,-411.5 792.5,-392.5 909.5,-392.5 909.5,-411.5"/>
<text text-anchor="middle" x="851" y="-399.5" font-family="Helvetica,sans-Serif" font-size="10.00">s_compute_pressure</text>
</a>
</g>
</g>
<!-- Node20&#45;&gt;Node22 -->
<g id="edge22_Node000020_Node000022" class="edge">
<title>Node20&#45;&gt;Node22</title>
<g id="a_edge22_Node000020_Node000022"><a xlink:title=" ">
<path fill="none" stroke="#63b8ff" d="M718.05,-428.79C742.37,-423.85 769.78,-418.29 793.29,-413.52"/>
<polygon fill="#63b8ff" stroke="#63b8ff" points="794,-416.94 803.1,-411.52 792.61,-410.08 794,-416.94"/>
</a>
</g>
</g>
<!-- Node23 -->
<g id="Node000023" class="node">
<title>Node23</title>
<g id="a_Node000023"><a xlink:href="m__variables__conversion_8fpp_8f90.html#aa5f8e931d984a9c40ab86bc4ae041a78" target="_top" xlink:title=" ">
<polygon fill="white" stroke="#666666" points="917,-301 785,-301 785,-271 917,-271 917,-301"/>
<text text-anchor="start" x="793" y="-289" font-family="Helvetica,sans-Serif" font-size="10.00">s_convert_species_to</text>
<text text-anchor="middle" x="851" y="-278" font-family="Helvetica,sans-Serif" font-size="10.00">_mixture_variables_acc</text>
</a>
</g>
</g>
<!-- Node20&#45;&gt;Node23 -->
<g id="edge23_Node000020_Node000023" class="edge">
<title>Node20&#45;&gt;Node23</title>
<g id="a_edge23_Node000020_Node000023"><a xlink:title=" ">
<path fill="none" stroke="#63b8ff" d="M672.25,-426.76C707.5,-398.84 782.51,-339.45 822.9,-307.46"/>
<polygon fill="#63b8ff" stroke="#63b8ff" points="825.3,-310.03 830.96,-301.07 820.95,-304.54 825.3,-310.03"/>
</a>
</g>
</g>
<!-- Node24 -->
<g id="Node000024" class="node">
<title>Node24</title>
<g id="a_Node000024"><a xlink:href="m__variables__conversion_8fpp_8f90.html#a3ded0267ada306e49f8ce81cac422acb" target="_top" xlink:title=" ">
<polygon fill="white" stroke="#666666" points="939,-107 763,-107 763,-77 939,-77 939,-107"/>
<text text-anchor="start" x="771" y="-95" font-family="Helvetica,sans-Serif" font-size="10.00">s_convert_species_to</text>
<text text-anchor="middle" x="851" y="-84" font-family="Helvetica,sans-Serif" font-size="10.00">_mixture_variables_bubbles_acc</text>
</a>
</g>
</g>
<!-- Node20&#45;&gt;Node24 -->
<g id="edge24_Node000020_Node000024" class="edge">
<title>Node20&#45;&gt;Node24</title>
<g id="a_edge24_Node000020_Node000024"><a xlink:title=" ">
<path fill="none" stroke="#63b8ff" d="M677.16,-426.83C693.4,-415.48 714.11,-398.59 727,-379 756.91,-333.55 742.53,-312.41 763,-262 784.91,-208.04 817.72,-148.09 836.15,-115.78"/>
<polygon fill="#63b8ff" stroke="#63b8ff" points="839.22,-117.46 841.16,-107.05 833.15,-113.98 839.22,-117.46"/>
</a>
</g>
</g>
<!-- Node25 -->
<g id="Node000025" class="node">
<title>Node25</title>
<g id="a_Node000025"><a xlink:href="m__variables__conversion_8fpp_8f90.html#ab8bdf7610d49d294015daa441faabc01" target="_top" xlink:title="Dispatch to the s_convert_mixture_to_mixture_variables and s_convert_species_to_mixture_variables sub...">
<polygon fill="white" stroke="#666666" points="912,-500 790,-500 790,-470 912,-470 912,-500"/>
<text text-anchor="start" x="798" y="-488" font-family="Helvetica,sans-Serif" font-size="10.00">s_convert_to_mixture</text>
<text text-anchor="middle" x="851" y="-477" font-family="Helvetica,sans-Serif" font-size="10.00">_variables</text>
</a>
</g>
</g>
<!-- Node20&#45;&gt;Node25 -->
<g id="edge25_Node000020_Node000025" class="edge">
<title>Node20&#45;&gt;Node25</title>
<g id="a_edge25_Node000020_Node000025"><a xlink:title=" ">
<path fill="none" stroke="#63b8ff" d="M718.05,-456.2C737.8,-460.51 759.59,-465.27 779.67,-469.65"/>
<polygon fill="#63b8ff" stroke="#63b8ff" points="779.17,-473.12 789.68,-471.83 780.66,-466.28 779.17,-473.12"/>
</a>
</g>
</g>
<!-- Node26 -->
<g id="Node000026" class="node">
<title>Node26</title>
<g id="a_Node000026"><a xlink:href="m__variables__conversion_8fpp_8f90.html#a3bd84edd74cf4362dae052ad315a8fb5" target="_top" xlink:title="This subroutine is designed for the gamma/pi_inf model and provided a set of either conservative or p...">
<polygon fill="white" stroke="#666666" points="1113,-548 991,-548 991,-518 1113,-518 1113,-548"/>
<text text-anchor="start" x="999" y="-536" font-family="Helvetica,sans-Serif" font-size="10.00">s_convert_mixture_to</text>
<text text-anchor="middle" x="1052" y="-525" font-family="Helvetica,sans-Serif" font-size="10.00">_mixture_variables</text>
</a>
</g>
</g>
<!-- Node25&#45;&gt;Node26 -->
<g id="edge26_Node000025_Node000026" class="edge">
<title>Node25&#45;&gt;Node26</title>
<g id="a_edge26_Node000025_Node000026"><a xlink:title=" ">
<path fill="none" stroke="#63b8ff" d="M912.25,-499.53C933.97,-504.77 958.67,-510.73 981.14,-516.15"/>
<polygon fill="#63b8ff" stroke="#63b8ff" points="980.42,-519.58 990.96,-518.52 982.06,-512.77 980.42,-519.58"/>
</a>
</g>
</g>
<!-- Node27 -->
<g id="Node000027" class="node">
<title>Node27</title>
<g id="a_Node000027"><a xlink:href="m__variables__conversion_8fpp_8f90.html#ac9e3787fd3c00962752030f2c218c3fc" target="_top" xlink:title="This subroutine is designed for the volume fraction model and provided a set of either conservative o...">
<polygon fill="white" stroke="#666666" points="1112.5,-500 991.5,-500 991.5,-470 1112.5,-470 1112.5,-500"/>
<text text-anchor="start" x="999.5" y="-488" font-family="Helvetica,sans-Serif" font-size="10.00">s_convert_species_to</text>
<text text-anchor="middle" x="1052" y="-477" font-family="Helvetica,sans-Serif" font-size="10.00">_mixture_variables</text>
</a>
</g>
</g>
<!-- Node25&#45;&gt;Node27 -->
<g id="edge27_Node000025_Node000027" class="edge">
<title>Node25&#45;&gt;Node27</title>
<g id="a_edge27_Node000025_Node000027"><a xlink:title=" ">
<path fill="none" stroke="#63b8ff" d="M912.25,-485C933.97,-485 958.67,-485 981.15,-485"/>
<polygon fill="#63b8ff" stroke="#63b8ff" points="981.3,-488.5 991.3,-485 981.3,-481.5 981.3,-488.5"/>
</a>
</g>
</g>
<!-- Node28 -->
<g id="Node000028" class="node">
<title>Node28</title>
<g id="a_Node000028"><a xlink:href="m__variables__conversion_8fpp_8f90.html#a4cf5a7b61d1b5ced4619c018ced0e654" target="_top" xlink:title="This procedure is used alongside with the gamma/pi_inf model to transfer the density,...">
<polygon fill="white" stroke="#666666" points="1129,-452 975,-452 975,-422 1129,-422 1129,-452"/>
<text text-anchor="start" x="983" y="-440" font-family="Helvetica,sans-Serif" font-size="10.00">s_convert_species_to</text>
<text text-anchor="middle" x="1052" y="-429" font-family="Helvetica,sans-Serif" font-size="10.00">_mixture_variables_bubbles</text>
</a>
</g>
</g>
<!-- Node25&#45;&gt;Node28 -->
<g id="edge28_Node000025_Node000028" class="edge">
<title>Node25&#45;&gt;Node28</title>
<g id="a_edge28_Node000025_Node000028"><a xlink:title=" ">
<path fill="none" stroke="#63b8ff" d="M912.25,-470.47C933.18,-465.42 956.87,-459.7 978.68,-454.44"/>
<polygon fill="#63b8ff" stroke="#63b8ff" points="979.65,-457.81 988.55,-452.06 978,-451.01 979.65,-457.81"/>
</a>
</g>
</g>
<!-- Node30&#45;&gt;Node22 -->
<g id="edge33_Node000030_Node000022" class="edge">
<title>Node30&#45;&gt;Node22</title>
<g id="a_edge33_Node000030_Node000022"><a xlink:title=" ">
<path fill="none" stroke="#63b8ff" d="M514.63,-370.16C534.23,-373.27 556.58,-376.56 577,-379 646.81,-387.32 727.01,-393.7 782.33,-397.61"/>
<polygon fill="#63b8ff" stroke="#63b8ff" points="782.14,-401.1 792.36,-398.31 782.63,-394.12 782.14,-401.1"/>
</a>
</g>
</g>
<!-- Node30&#45;&gt;Node25 -->
<g id="edge35_Node000030_Node000025" class="edge">
<title>Node30&#45;&gt;Node25</title>
<g id="a_edge35_Node000030_Node000025"><a xlink:title=" ">
<path fill="none" stroke="#63b8ff" d="M467.59,-370.82C483.96,-392.6 526.87,-444.72 577,-466 641.77,-493.5 722.97,-495.54 779.91,-492.37"/>
<polygon fill="#63b8ff" stroke="#63b8ff" points="780.14,-495.87 789.9,-491.75 779.7,-488.88 780.14,-495.87"/>
</a>
</g>
</g>
<!-- Node31 -->
<g id="Node000031" class="node">
<title>Node31</title>
<g id="a_Node000031"><a xlink:href="m__variables__conversion_8fpp_8f90.html#a51acc7500f24829b23b1280b91260929" target="_top" xlink:title=" ">
<polygon fill="white" stroke="#666666" points="711.5,-222 592.5,-222 592.5,-192 711.5,-192 711.5,-222"/>
<text text-anchor="start" x="600.5" y="-210" font-family="Helvetica,sans-Serif" font-size="10.00">s_compute_speed_of</text>
<text text-anchor="middle" x="652" y="-199" font-family="Helvetica,sans-Serif" font-size="10.00">_sound</text>
</a>
</g>
</g>
<!-- Node30&#45;&gt;Node31 -->
<g id="edge34_Node000030_Node000031" class="edge">
<title>Node30&#45;&gt;Node31</title>
<g id="a_edge34_Node000030_Node000031"><a xlink:title=" ">
<path fill="none" stroke="#63b8ff" d="M466.55,-351.26C481.97,-327.25 525.18,-264.72 577,-231 579.44,-229.41 582,-227.92 584.63,-226.52"/>
<polygon fill="#63b8ff" stroke="#63b8ff" points="586.32,-229.59 593.82,-222.11 583.29,-223.28 586.32,-229.59"/>
</a>
</g>
</g>
<!-- Node32 -->
<g id="Node000032" class="node">
<title>Node32</title>
<g id="a_Node000032"><a xlink:href="m__mpi__common_8fpp_8f90.html#adbcc47e90968ff0f14ccc2ca3c47586a" target="_top" xlink:title="The subroutine terminates the MPI execution environment.">
<polygon fill="white" stroke="#666666" points="690.5,-259.5 613.5,-259.5 613.5,-240.5 690.5,-240.5 690.5,-259.5"/>
<text text-anchor="middle" x="652" y="-247.5" font-family="Helvetica,sans-Serif" font-size="10.00">s_mpi_abort</text>
</a>
</g>
</g>
<!-- Node30&#45;&gt;Node32 -->
<g id="edge36_Node000030_Node000032" class="edge">
<title>Node30&#45;&gt;Node32</title>
<g id="a_edge36_Node000030_Node000032"><a xlink:title=" ">
<path fill="none" stroke="#63b8ff" d="M469.47,-351.46C487.81,-332.55 531.69,-290.23 577,-268 585.28,-263.94 594.54,-260.75 603.64,-258.27"/>
<polygon fill="#63b8ff" stroke="#63b8ff" points="604.53,-261.65 613.39,-255.84 602.84,-254.86 604.53,-261.65"/>
</a>
</g>
</g>
<!-- Node33 -->
<g id="Node000033" class="node">
<title>Node33</title>
<g id="a_Node000033"><a xlink:href="m__mpi__common_8fpp_8f90.html#ac7a601dc8cf73abc6bd46a467cbb8c67" target="_top" xlink:title="The following subroutine takes the input local variable from all processors and reduces to the maximu...">
<polygon fill="white" stroke="#666666" points="713.5,-296.5 590.5,-296.5 590.5,-277.5 713.5,-277.5 713.5,-296.5"/>
<text text-anchor="middle" x="652" y="-284.5" font-family="Helvetica,sans-Serif" font-size="10.00">s_mpi_allreduce_max</text>
</a>
</g>
</g>
<!-- Node30&#45;&gt;Node33 -->
<g id="edge37_Node000030_Node000033" class="edge">
<title>Node30&#45;&gt;Node33</title>
<g id="a_edge37_Node000030_Node000033"><a xlink:title=" ">
<path fill="none" stroke="#63b8ff" d="M477.38,-351.49C499.63,-339.29 540.23,-318.14 577,-305 582.88,-302.9 589.11,-300.96 595.37,-299.19"/>
<polygon fill="#63b8ff" stroke="#63b8ff" points="596.41,-302.54 605.16,-296.56 594.6,-295.77 596.41,-302.54"/>
</a>
</g>
</g>
<!-- Node34 -->
<g id="Node000034" class="node">
<title>Node34</title>
<g id="a_Node000034"><a xlink:href="m__mpi__common_8fpp_8f90.html#a24ed3fee63870f02c535e9a137e12291" target="_top" xlink:title="The following subroutine takes the input local variable from all processors and reduces to the sum of...">
<polygon fill="white" stroke="#666666" points="713,-370.5 591,-370.5 591,-351.5 713,-351.5 713,-370.5"/>
<text text-anchor="middle" x="652" y="-358.5" font-family="Helvetica,sans-Serif" font-size="10.00">s_mpi_allreduce_sum</text>
</a>
</g>
</g>
<!-- Node30&#45;&gt;Node34 -->
<g id="edge38_Node000030_Node000034" class="edge">
<title>Node30&#45;&gt;Node34</title>
<g id="a_edge38_Node000030_Node000034"><a xlink:title=" ">
<path fill="none" stroke="#63b8ff" d="M514.58,-361C535.09,-361 558.76,-361 580.56,-361"/>
<polygon fill="#63b8ff" stroke="#63b8ff" points="580.76,-364.5 590.76,-361 580.76,-357.5 580.76,-364.5"/>
</a>
</g>
</g>
<!-- Node35&#45;&gt;Node18 -->
<g id="edge47_Node000035_Node000018" class="edge">
<title>Node35&#45;&gt;Node18</title>
<g id="a_edge47_Node000035_Node000018"><a xlink:title=" ">
<path fill="none" stroke="#63b8ff" d="M466.82,-192.66C482.5,-215.84 525.7,-274.95 577,-305 584.16,-309.19 592.24,-312.47 600.36,-315.03"/>
<polygon fill="#63b8ff" stroke="#63b8ff" points="599.66,-318.47 610.23,-317.81 601.56,-311.73 599.66,-318.47"/>
</a>
</g>
</g>
<!-- Node35&#45;&gt;Node31 -->
<g id="edge44_Node000035_Node000031" class="edge">
<title>Node35&#45;&gt;Node31</title>
<g id="a_edge44_Node000035_Node000031"><a xlink:title=" ">
<path fill="none" stroke="#63b8ff" d="M536.06,-192.52C551.26,-194.43 567.15,-196.44 582.1,-198.32"/>
<polygon fill="#63b8ff" stroke="#63b8ff" points="581.92,-201.82 592.28,-199.6 582.8,-194.88 581.92,-201.82"/>
</a>
</g>
</g>
<!-- Node35&#45;&gt;Node32 -->
<g id="edge46_Node000035_Node000032" class="edge">
<title>Node35&#45;&gt;Node32</title>
<g id="a_edge46_Node000035_Node000032"><a xlink:title=" ">
<path fill="none" stroke="#63b8ff" d="M481.21,-192.57C504.25,-202.96 542.75,-219.61 577,-231 585.5,-233.83 594.67,-236.49 603.57,-238.87"/>
<polygon fill="#63b8ff" stroke="#63b8ff" points="602.88,-242.31 613.44,-241.44 604.64,-235.53 602.88,-242.31"/>
</a>
</g>
</g>
<!-- Node36 -->
<g id="Node000036" class="node">
<title>Node36</title>
<g id="a_Node000036"><a xlink:href="namespacem__helper__basic.html#a58590a12d49b9b884256a839f2be8610" target="_top" xlink:title="This procedure checks if two floating point numbers of wp are within tolerance.">
<polygon fill="white" stroke="#666666" points="723,-78 581,-78 581,-48 723,-48 723,-78"/>
<text text-anchor="start" x="589" y="-66" font-family="Helvetica,sans-Serif" font-size="10.00">m_helper_basic::f_approx</text>
<text text-anchor="middle" x="652" y="-55" font-family="Helvetica,sans-Serif" font-size="10.00">_equal</text>
</a>
</g>
</g>
<!-- Node35&#45;&gt;Node36 -->
<g id="edge40_Node000035_Node000036" class="edge">
<title>Node35&#45;&gt;Node36</title>
<g id="a_edge40_Node000035_Node000036"><a xlink:title=" ">
<path fill="none" stroke="#63b8ff" d="M469.56,-173.43C488.05,-154.41 532.19,-111.57 577,-87 580.27,-85.21 583.7,-83.52 587.21,-81.94"/>
<polygon fill="#63b8ff" stroke="#63b8ff" points="588.77,-85.08 596.65,-78 586.07,-78.62 588.77,-85.08"/>
</a>
</g>
</g>
<!-- Node37 -->
<g id="Node000037" class="node">
<title>Node37</title>
<g id="a_Node000037"><a xlink:href="namespacem__sim__helpers.html#ab1dee44a2a4520f7cae62477e63dbf51" target="_top" xlink:title="Computes enthalpy.">
<polygon fill="white" stroke="#666666" points="727,-30 577,-30 577,0 727,0 727,-30"/>
<text text-anchor="start" x="585" y="-18" font-family="Helvetica,sans-Serif" font-size="10.00">m_sim_helpers::s_compute</text>
<text text-anchor="middle" x="652" y="-7" font-family="Helvetica,sans-Serif" font-size="10.00">_enthalpy</text>
</a>
</g>
</g>
<!-- Node35&#45;&gt;Node37 -->
<g id="edge41_Node000035_Node000037" class="edge">
<title>Node35&#45;&gt;Node37</title>
<g id="a_edge41_Node000035_Node000037"><a xlink:title=" ">
<path fill="none" stroke="#63b8ff" d="M465.64,-173.34C479.83,-147.58 522.14,-76.7 577,-39 579.27,-37.44 581.65,-35.98 584.1,-34.6"/>
<polygon fill="#63b8ff" stroke="#63b8ff" points="585.89,-37.62 593.26,-30.02 582.75,-31.36 585.89,-37.62"/>
</a>
</g>
</g>
<!-- Node38 -->
<g id="Node000038" class="node">
<title>Node38</title>
<g id="a_Node000038"><a xlink:href="namespacem__sim__helpers.html#a81d6cbdf616d51d6e6ba9f0bce912a13" target="_top" xlink:title="Computes stability criterion for a specified dt.">
<polygon fill="white" stroke="#666666" points="727,-174 577,-174 577,-144 727,-144 727,-174"/>
<text text-anchor="start" x="585" y="-162" font-family="Helvetica,sans-Serif" font-size="10.00">m_sim_helpers::s_compute</text>
<text text-anchor="middle" x="652" y="-151" font-family="Helvetica,sans-Serif" font-size="10.00">_stability_from_dt</text>
</a>
</g>
</g>
<!-- Node35&#45;&gt;Node38 -->
<g id="edge45_Node000035_Node000038" class="edge">
<title>Node35&#45;&gt;Node38</title>
<g id="a_edge45_Node000035_Node000038"><a xlink:title=" ">
<path fill="none" stroke="#63b8ff" d="M536.06,-173.48C546.11,-172.21 556.47,-170.91 566.66,-169.63"/>
<polygon fill="#63b8ff" stroke="#63b8ff" points="567.29,-173.07 576.77,-168.35 566.41,-166.13 567.29,-173.07"/>
</a>
</g>
</g>
<!-- Node39 -->
<g id="Node000039" class="node">
<title>Node39</title>
<g id="a_Node000039"><a xlink:href="m__mpi__common_8fpp_8f90.html#a7000bf91b069c9b8064eeda7c8fdbafe" target="_top" xlink:title="The goal of this subroutine is to determine the global extrema of the stability criteria in the compu...">
<polygon fill="white" stroke="#666666" points="716.5,-126 587.5,-126 587.5,-96 716.5,-96 716.5,-126"/>
<text text-anchor="start" x="595.5" y="-114" font-family="Helvetica,sans-Serif" font-size="10.00">s_mpi_reduce_stability</text>
<text text-anchor="middle" x="652" y="-103" font-family="Helvetica,sans-Serif" font-size="10.00">_criteria_extrema</text>
</a>
</g>
</g>
<!-- Node35&#45;&gt;Node39 -->
<g id="edge48_Node000035_Node000039" class="edge">
<title>Node35&#45;&gt;Node39</title>
<g id="a_edge48_Node000035_Node000039"><a xlink:title=" ">
<path fill="none" stroke="#63b8ff" d="M482.2,-173.47C505.45,-163.4 543.53,-147.3 577,-135 582.15,-133.11 587.53,-131.21 592.93,-129.36"/>
<polygon fill="#63b8ff" stroke="#63b8ff" points="594.29,-132.6 602.65,-126.09 592.06,-125.96 594.29,-132.6"/>
</a>
</g>
</g>
<!-- Node37&#45;&gt;Node23 -->
<g id="edge42_Node000037_Node000023" class="edge">
<title>Node37&#45;&gt;Node23</title>
<g id="a_edge42_Node000037_Node000023"><a xlink:title=" ">
<path fill="none" stroke="#63b8ff" d="M714.22,-30.18C718.82,-32.68 723.15,-35.6 727,-39 755.31,-64.01 746.39,-82.07 763,-116 788.6,-168.31 820.03,-228.87 837.24,-261.74"/>
<polygon fill="#63b8ff" stroke="#63b8ff" points="834.15,-263.39 841.9,-270.62 840.35,-260.14 834.15,-263.39"/>
</a>
</g>
</g>
<!-- Node37&#45;&gt;Node24 -->
<g id="edge43_Node000037_Node000024" class="edge">
<title>Node37&#45;&gt;Node24</title>
<g id="a_edge43_Node000037_Node000024"><a xlink:title=" ">
<path fill="none" stroke="#63b8ff" d="M701.79,-30.11C710.24,-32.93 718.91,-35.95 727,-39 754.35,-49.3 784.49,-62.26 808.09,-72.79"/>
<polygon fill="#63b8ff" stroke="#63b8ff" points="806.89,-76.09 817.45,-76.99 809.76,-69.7 806.89,-76.09"/>
</a>
</g>
</g>
</g>
</svg>
