<?xml version="1.0" encoding="UTF-8" standalone="no"?>
<!DOCTYPE svg PUBLIC "-//W3C//DTD SVG 1.1//EN"
 "http://www.w3.org/Graphics/SVG/1.1/DTD/svg11.dtd">
<!-- Generated by graphviz version 2.43.0 (0)
 -->
<!-- Title: s_transcoeff Pages: 1 -->
<svg width="798pt" height="103pt"
 viewBox="0.00 0.00 798.00 103.00" xmlns="http://www.w3.org/2000/svg" xmlns:xlink="http://www.w3.org/1999/xlink">
<g id="graph0" class="graph" transform="scale(1 1) rotate(0) translate(4 99)">
<title>s_transcoeff</title>
<!-- Node1 -->
<g id="Node000001" class="node">
<title>Node1</title>
<g id="a_Node000001"><a xlink:title="Computes the transfer coefficient for the non&#45;polytropic bubble compression process.">
<polygon fill="#999999" stroke="#666666" points="790,-57 714,-57 714,-38 790,-38 790,-57"/>
<text text-anchor="middle" x="752" y="-45" font-family="Helvetica,sans-Serif" font-size="10.00">s_transcoeff</text>
</a>
</g>
</g>
<!-- Node2 -->
<g id="Node000002" class="node">
<title>Node2</title>
<g id="a_Node000002"><a xlink:href="m__helper_8fpp_8f90.html#ac1893d0dc10d4afa0f4b3f5c36b8fb8b" target="_top" xlink:title=" ">
<polygon fill="white" stroke="#666666" points="529,-57 404,-57 404,-38 529,-38 529,-57"/>
<text text-anchor="middle" x="466.5" y="-45" font-family="Helvetica,sans-Serif" font-size="10.00">__m_helper_fpp_f90__</text>
</a>
</g>
</g>
<!-- Node1&#45;&gt;Node2 -->
<g id="edge1_Node000001_Node000002" class="edge">
<title>Node1&#45;&gt;Node2</title>
<g id="a_edge1_Node000001_Node000002"><a xlink:title=" ">
<path fill="none" stroke="#63b8ff" d="M703.85,-47.5C656.02,-47.5 581.73,-47.5 529.23,-47.5"/>
<polygon fill="#63b8ff" stroke="#63b8ff" points="703.94,-51 713.94,-47.5 703.94,-44 703.94,-51"/>
</a>
</g>
</g>
<!-- Node3 -->
<g id="Node000003" class="node">
<title>Node3</title>
<g id="a_Node000003"><a xlink:href="m__bubbles__EL_8fpp_8f90.html#a6769890eec06c8b393425bd5c4b9b7e7" target="_top" xlink:title="The purpose of this procedure is to obtain the information of the bubbles when starting fresh.">
<polygon fill="white" stroke="#666666" points="666,-95 577,-95 577,-76 666,-76 666,-95"/>
<text text-anchor="middle" x="621.5" y="-83" font-family="Helvetica,sans-Serif" font-size="10.00">s_add_bubbles</text>
</a>
</g>
</g>
<!-- Node1&#45;&gt;Node3 -->
<g id="edge2_Node000001_Node000003" class="edge">
<title>Node1&#45;&gt;Node3</title>
<g id="a_edge2_Node000001_Node000003"><a xlink:title=" ">
<path fill="none" stroke="#63b8ff" d="M708.61,-60.04C691.13,-65.2 671.2,-71.1 654.92,-75.91"/>
<polygon fill="#63b8ff" stroke="#63b8ff" points="709.98,-63.28 718.57,-57.09 707.99,-56.57 709.98,-63.28"/>
</a>
</g>
</g>
<!-- Node8 -->
<g id="Node000008" class="node">
<title>Node8</title>
<g id="a_Node000008"><a xlink:href="m__helper_8fpp_8f90.html#ae6e719f709d847b8b1a1f8e8b483158f" target="_top" xlink:title="Initializes non&#45;polydisperse bubble modeling.">
<polygon fill="white" stroke="#666666" points="678,-19 565,-19 565,0 678,0 678,-19"/>
<text text-anchor="middle" x="621.5" y="-7" font-family="Helvetica,sans-Serif" font-size="10.00">s_initialize_nonpoly</text>
</a>
</g>
</g>
<!-- Node1&#45;&gt;Node8 -->
<g id="edge7_Node000001_Node000008" class="edge">
<title>Node1&#45;&gt;Node8</title>
<g id="a_edge7_Node000001_Node000008"><a xlink:title=" ">
<path fill="none" stroke="#63b8ff" d="M708.61,-34.96C691.13,-29.8 671.2,-23.9 654.92,-19.09"/>
<polygon fill="#63b8ff" stroke="#63b8ff" points="707.99,-38.43 718.57,-37.91 709.98,-31.72 707.99,-38.43"/>
</a>
</g>
</g>
<!-- Node4 -->
<g id="Node000004" class="node">
<title>Node4</title>
<g id="a_Node000004"><a xlink:href="m__bubbles__EL_8fpp_8f90.html#accadf2109d3c888568af8e2702a9dc91" target="_top" xlink:title="The purpose of this procedure is to obtain the initial bubbles&#39; information.">
<polygon fill="white" stroke="#666666" points="527.5,-94 405.5,-94 405.5,-75 527.5,-75 527.5,-94"/>
<text text-anchor="middle" x="466.5" y="-82" font-family="Helvetica,sans-Serif" font-size="10.00">s_read_input_bubbles</text>
</a>
</g>
</g>
<!-- Node3&#45;&gt;Node4 -->
<g id="edge3_Node000003_Node000004" class="edge">
<title>Node3&#45;&gt;Node4</title>
<g id="a_edge3_Node000003_Node000004"><a xlink:title=" ">
<path fill="none" stroke="#63b8ff" d="M566.36,-85.15C553.81,-85.06 540.38,-84.98 527.6,-84.89"/>
<polygon fill="#63b8ff" stroke="#63b8ff" points="566.63,-88.65 576.66,-85.21 566.68,-81.65 566.63,-88.65"/>
</a>
</g>
</g>
<!-- Node5 -->
<g id="Node000005" class="node">
<title>Node5</title>
<g id="a_Node000005"><a xlink:href="m__bubbles__EL_8fpp_8f90.html#a47b7d3db70cd13c27b94a3cbc0215410" target="_top" xlink:title="Initializes the lagrangian subgrid bubble solver.">
<polygon fill="white" stroke="#666666" points="368,-83.5 255,-83.5 255,-53.5 368,-53.5 368,-83.5"/>
<text text-anchor="start" x="263" y="-71.5" font-family="Helvetica,sans-Serif" font-size="10.00">s_initialize_bubbles</text>
<text text-anchor="middle" x="311.5" y="-60.5" font-family="Helvetica,sans-Serif" font-size="10.00">_el_module</text>
</a>
</g>
</g>
<!-- Node4&#45;&gt;Node5 -->
<g id="edge4_Node000004_Node000005" class="edge">
<title>Node4&#45;&gt;Node5</title>
<g id="a_edge4_Node000004_Node000005"><a xlink:title=" ">
<path fill="none" stroke="#63b8ff" d="M395.34,-77.16C386.3,-76.22 377.13,-75.26 368.36,-74.34"/>
<polygon fill="#63b8ff" stroke="#63b8ff" points="395.16,-80.66 405.47,-78.22 395.89,-73.7 395.16,-80.66"/>
</a>
</g>
</g>
<!-- Node6 -->
<g id="Node000006" class="node">
<title>Node6</title>
<g id="a_Node000006"><a xlink:href="namespacem__start__up.html#a14f564f341f1feca9308fe2579e5ced6" target="_top" xlink:title=" ">
<polygon fill="white" stroke="#666666" points="219,-45.5 89,-45.5 89,-15.5 219,-15.5 219,-45.5"/>
<text text-anchor="start" x="97" y="-33.5" font-family="Helvetica,sans-Serif" font-size="10.00">m_start_up::s_initialize</text>
<text text-anchor="middle" x="154" y="-22.5" font-family="Helvetica,sans-Serif" font-size="10.00">_modules</text>
</a>
</g>
</g>
<!-- Node5&#45;&gt;Node6 -->
<g id="edge5_Node000005_Node000006" class="edge">
<title>Node5&#45;&gt;Node6</title>
<g id="a_edge5_Node000005_Node000006"><a xlink:title=" ">
<path fill="none" stroke="#63b8ff" d="M244.79,-52.44C235.46,-50.16 225.89,-47.82 216.64,-45.56"/>
<polygon fill="#63b8ff" stroke="#63b8ff" points="244.26,-55.91 254.8,-54.89 245.92,-49.11 244.26,-55.91"/>
</a>
</g>
</g>
<!-- Node7 -->
<g id="Node000007" class="node">
<title>Node7</title>
<g id="a_Node000007"><a xlink:href="p__main_8fpp_8f90.html#aeec10ee8e2940c953967da3e374e1579" target="_top" xlink:title="Quasi&#45;conservative, shock&#45; and interface&#45; capturing finite&#45;volume scheme for the multicomponent Navie...">
<polygon fill="white" stroke="#666666" points="53,-40 0,-40 0,-21 53,-21 53,-40"/>
<text text-anchor="middle" x="26.5" y="-28" font-family="Helvetica,sans-Serif" font-size="10.00">p_main</text>
</a>
</g>
</g>
<!-- Node6&#45;&gt;Node7 -->
<g id="edge6_Node000006_Node000007" class="edge">
<title>Node6&#45;&gt;Node7</title>
<g id="a_edge6_Node000006_Node000007"><a xlink:title=" ">
<path fill="none" stroke="#63b8ff" d="M78.74,-30.5C69.58,-30.5 60.76,-30.5 53.09,-30.5"/>
<polygon fill="#63b8ff" stroke="#63b8ff" points="78.78,-34 88.78,-30.5 78.78,-27 78.78,-34"/>
</a>
</g>
</g>
<!-- Node8&#45;&gt;Node2 -->
<g id="edge8_Node000008_Node000002" class="edge">
<title>Node8&#45;&gt;Node2</title>
<g id="a_edge8_Node000008_Node000002"><a xlink:title=" ">
<path fill="none" stroke="#63b8ff" d="M572.02,-21.54C550.65,-26.85 525.89,-33 505.83,-37.98"/>
<polygon fill="#63b8ff" stroke="#63b8ff" points="573.03,-24.9 581.89,-19.09 571.34,-18.1 573.03,-24.9"/>
</a>
</g>
</g>
<!-- Node8&#45;&gt;Node6 -->
<g id="edge9_Node000008_Node000006" class="edge">
<title>Node8&#45;&gt;Node6</title>
<g id="a_edge9_Node000008_Node000006"><a xlink:title=" ">
<path fill="none" stroke="#63b8ff" d="M554.56,-12.47C465.45,-16.49 307.59,-23.62 219.32,-27.6"/>
<polygon fill="#63b8ff" stroke="#63b8ff" points="554.98,-15.96 564.81,-12.01 554.66,-8.97 554.98,-15.96"/>
</a>
</g>
</g>
</g>
</svg>
