<?xml version="1.0" encoding="UTF-8" standalone="no"?>
<!DOCTYPE svg PUBLIC "-//W3C//DTD SVG 1.1//EN"
 "http://www.w3.org/Graphics/SVG/1.1/DTD/svg11.dtd">
<!-- Generated by graphviz version 2.43.0 (0)
 -->
<!-- Title: s_int_to_str Pages: 1 -->
<svg width="666pt" height="222pt"
 viewBox="0.00 0.00 666.00 221.54" xmlns="http://www.w3.org/2000/svg" xmlns:xlink="http://www.w3.org/1999/xlink">
<g id="graph0" class="graph" transform="scale(1 1) rotate(0) translate(4 217.54)">
<title>s_int_to_str</title>
<!-- Node1 -->
<g id="Node000001" class="node">
<title>Node1</title>
<g id="a_Node000001"><a xlink:title=" ">
<polygon fill="#999999" stroke="#666666" points="658,-148.54 585,-148.54 585,-129.54 658,-129.54 658,-148.54"/>
<text text-anchor="middle" x="621.5" y="-136.54" font-family="Helvetica,sans-Serif" font-size="10.00">s_int_to_str</text>
</a>
</g>
</g>
<!-- Node2 -->
<g id="Node000002" class="node">
<title>Node2</title>
<g id="a_Node000002"><a xlink:href="m__helper_8fpp_8f90.html#ac1893d0dc10d4afa0f4b3f5c36b8fb8b" target="_top" xlink:title=" ">
<polygon fill="white" stroke="#666666" points="549,-213.54 424,-213.54 424,-194.54 549,-194.54 549,-213.54"/>
<text text-anchor="middle" x="486.5" y="-201.54" font-family="Helvetica,sans-Serif" font-size="10.00">__m_helper_fpp_f90__</text>
</a>
</g>
</g>
<!-- Node1&#45;&gt;Node2 -->
<g id="edge1_Node000001_Node000002" class="edge">
<title>Node1&#45;&gt;Node2</title>
<g id="a_edge1_Node000001_Node000002"><a xlink:title=" ">
<path fill="none" stroke="#63b8ff" d="M599.64,-154.62C585.83,-164.38 567,-176.66 549,-185.04 541.2,-188.67 532.53,-191.84 524.21,-194.49"/>
<polygon fill="#63b8ff" stroke="#63b8ff" points="601.88,-157.33 607.94,-148.64 597.78,-151.65 601.88,-157.33"/>
</a>
</g>
</g>
<!-- Node3 -->
<g id="Node000003" class="node">
<title>Node3</title>
<g id="a_Node000003"><a xlink:href="namespacem__checker.html#a91965851c33800f743ed0f6eb055f013" target="_top" xlink:title=" ">
<polygon fill="white" stroke="#666666" points="543.5,-176.04 429.5,-176.04 429.5,-146.04 543.5,-146.04 543.5,-176.04"/>
<text text-anchor="start" x="437.5" y="-164.04" font-family="Helvetica,sans-Serif" font-size="10.00">m_checker::s_check</text>
<text text-anchor="middle" x="486.5" y="-153.04" font-family="Helvetica,sans-Serif" font-size="10.00">_inputs</text>
</a>
</g>
</g>
<!-- Node1&#45;&gt;Node3 -->
<g id="edge2_Node000001_Node000003" class="edge">
<title>Node1&#45;&gt;Node3</title>
<g id="a_edge2_Node000001_Node000003"><a xlink:title=" ">
<path fill="none" stroke="#63b8ff" d="M574.7,-146.62C564.66,-148.28 553.93,-150.05 543.55,-151.77"/>
<polygon fill="#63b8ff" stroke="#63b8ff" points="575.56,-150.02 584.86,-144.94 574.42,-143.12 575.56,-150.02"/>
</a>
</g>
</g>
<!-- Node7 -->
<g id="Node000007" class="node">
<title>Node7</title>
<g id="a_Node000007"><a xlink:href="namespacem__start__up.html#a45c8fef6680263063a1c7d2fa1748013" target="_top" xlink:title=" ">
<polygon fill="white" stroke="#666666" points="377,-133.04 266,-133.04 266,-103.04 377,-103.04 377,-133.04"/>
<text text-anchor="start" x="274" y="-121.04" font-family="Helvetica,sans-Serif" font-size="10.00">m_start_up::s_read</text>
<text text-anchor="middle" x="321.5" y="-110.04" font-family="Helvetica,sans-Serif" font-size="10.00">_parallel_data_files</text>
</a>
</g>
</g>
<!-- Node1&#45;&gt;Node7 -->
<g id="edge6_Node000001_Node000007" class="edge">
<title>Node1&#45;&gt;Node7</title>
<g id="a_edge6_Node000001_Node000007"><a xlink:title=" ">
<path fill="none" stroke="#63b8ff" d="M574.69,-135.81C521.5,-132.06 433.84,-125.89 377.14,-121.89"/>
<polygon fill="#63b8ff" stroke="#63b8ff" points="574.63,-139.32 584.85,-136.53 575.12,-132.33 574.63,-139.32"/>
</a>
</g>
</g>
<!-- Node9 -->
<g id="Node000009" class="node">
<title>Node9</title>
<g id="a_Node000009"><a xlink:href="m__data__output_8fpp_8f90.html#a694588474e2bd0e0b68d5dcb12a2598c" target="_top" xlink:title="The goal of this subroutine is to output the grid and conservative variables data files for given tim...">
<polygon fill="white" stroke="#666666" points="547,-69.04 426,-69.04 426,-39.04 547,-39.04 547,-69.04"/>
<text text-anchor="start" x="434" y="-57.04" font-family="Helvetica,sans-Serif" font-size="10.00">s_write_parallel_data</text>
<text text-anchor="middle" x="486.5" y="-46.04" font-family="Helvetica,sans-Serif" font-size="10.00">_files</text>
</a>
</g>
</g>
<!-- Node1&#45;&gt;Node9 -->
<g id="edge9_Node000001_Node000009" class="edge">
<title>Node1&#45;&gt;Node9</title>
<g id="a_edge9_Node000001_Node000009"><a xlink:title=" ">
<path fill="none" stroke="#63b8ff" d="M596.94,-123.98C572.77,-108.54 535.38,-84.64 511.17,-69.17"/>
<polygon fill="#63b8ff" stroke="#63b8ff" points="595.19,-127.02 605.5,-129.46 598.96,-121.12 595.19,-127.02"/>
</a>
</g>
</g>
<!-- Node4 -->
<g id="Node000004" class="node">
<title>Node4</title>
<g id="a_Node000004"><a xlink:href="namespacem__start__up.html#aba056c17994ffb88cd1effa3adb95789" target="_top" xlink:title="The goal of this procedure is to verify that each of the user provided inputs is valid and that their...">
<polygon fill="white" stroke="#666666" points="379.5,-181.04 263.5,-181.04 263.5,-151.04 379.5,-151.04 379.5,-181.04"/>
<text text-anchor="start" x="271.5" y="-169.04" font-family="Helvetica,sans-Serif" font-size="10.00">m_start_up::s_check</text>
<text text-anchor="middle" x="321.5" y="-158.04" font-family="Helvetica,sans-Serif" font-size="10.00">_input_file</text>
</a>
</g>
</g>
<!-- Node3&#45;&gt;Node4 -->
<g id="edge3_Node000003_Node000004" class="edge">
<title>Node3&#45;&gt;Node4</title>
<g id="a_edge3_Node000003_Node000004"><a xlink:title=" ">
<path fill="none" stroke="#63b8ff" d="M419.04,-163.08C405.93,-163.48 392.29,-163.9 379.53,-164.29"/>
<polygon fill="#63b8ff" stroke="#63b8ff" points="419.52,-166.57 429.4,-162.76 419.3,-159.57 419.52,-166.57"/>
</a>
</g>
</g>
<!-- Node5 -->
<g id="Node000005" class="node">
<title>Node5</title>
<g id="a_Node000005"><a xlink:href="namespacem__start__up.html#a90f45019dd8a980f2ea3fe2c5b83df6c" target="_top" xlink:title=" ">
<polygon fill="white" stroke="#666666" points="219,-170.04 89,-170.04 89,-140.04 219,-140.04 219,-170.04"/>
<text text-anchor="start" x="97" y="-158.04" font-family="Helvetica,sans-Serif" font-size="10.00">m_start_up::s_initialize</text>
<text text-anchor="middle" x="154" y="-147.04" font-family="Helvetica,sans-Serif" font-size="10.00">_mpi_domain</text>
</a>
</g>
</g>
<!-- Node4&#45;&gt;Node5 -->
<g id="edge4_Node000004_Node000005" class="edge">
<title>Node4&#45;&gt;Node5</title>
<g id="a_edge4_Node000004_Node000005"><a xlink:title=" ">
<path fill="none" stroke="#63b8ff" d="M252.95,-161.55C241.77,-160.81 230.2,-160.04 219.11,-159.3"/>
<polygon fill="#63b8ff" stroke="#63b8ff" points="252.87,-165.05 263.08,-162.22 253.33,-158.07 252.87,-165.05"/>
</a>
</g>
</g>
<!-- Node6 -->
<g id="Node000006" class="node">
<title>Node6</title>
<g id="a_Node000006"><a xlink:href="p__main_8fpp_8f90.html#aeec10ee8e2940c953967da3e374e1579" target="_top" xlink:title="Quasi&#45;conservative, shock&#45; and interface&#45; capturing finite&#45;volume scheme for the multicomponent Navie...">
<polygon fill="white" stroke="#666666" points="53,-129.54 0,-129.54 0,-110.54 53,-110.54 53,-129.54"/>
<text text-anchor="middle" x="26.5" y="-117.54" font-family="Helvetica,sans-Serif" font-size="10.00">p_main</text>
</a>
</g>
</g>
<!-- Node5&#45;&gt;Node6 -->
<g id="edge5_Node000005_Node000006" class="edge">
<title>Node5&#45;&gt;Node6</title>
<g id="a_edge5_Node000005_Node000006"><a xlink:title=" ">
<path fill="none" stroke="#63b8ff" d="M89.27,-137.27C76.45,-133.69 63.69,-130.13 53.12,-127.19"/>
<polygon fill="#63b8ff" stroke="#63b8ff" points="88.48,-140.68 99.05,-139.99 90.36,-133.94 88.48,-140.68"/>
</a>
</g>
</g>
<!-- Node8 -->
<g id="Node000008" class="node">
<title>Node8</title>
<g id="a_Node000008"><a xlink:href="namespacem__start__up.html#a14f564f341f1feca9308fe2579e5ced6" target="_top" xlink:title=" ">
<polygon fill="white" stroke="#666666" points="219,-101.04 89,-101.04 89,-71.04 219,-71.04 219,-101.04"/>
<text text-anchor="start" x="97" y="-89.04" font-family="Helvetica,sans-Serif" font-size="10.00">m_start_up::s_initialize</text>
<text text-anchor="middle" x="154" y="-78.04" font-family="Helvetica,sans-Serif" font-size="10.00">_modules</text>
</a>
</g>
</g>
<!-- Node7&#45;&gt;Node8 -->
<g id="edge7_Node000007_Node000008" class="edge">
<title>Node7&#45;&gt;Node8</title>
<g id="a_edge7_Node000007_Node000008"><a xlink:title=" ">
<path fill="none" stroke="#63b8ff" d="M255.85,-105.54C243.77,-103.2 231.14,-100.76 219.07,-98.43"/>
<polygon fill="#63b8ff" stroke="#63b8ff" points="255.37,-109.01 265.85,-107.47 256.7,-102.14 255.37,-109.01"/>
</a>
</g>
</g>
<!-- Node8&#45;&gt;Node6 -->
<g id="edge8_Node000008_Node000006" class="edge">
<title>Node8&#45;&gt;Node6</title>
<g id="a_edge8_Node000008_Node000006"><a xlink:title=" ">
<path fill="none" stroke="#63b8ff" d="M87.74,-103.72C75.44,-107.05 63.28,-110.35 53.13,-113.1"/>
<polygon fill="#63b8ff" stroke="#63b8ff" points="88.85,-107.05 97.59,-101.05 87.02,-100.29 88.85,-107.05"/>
</a>
</g>
</g>
<!-- Node9&#45;&gt;Node8 -->
<g id="edge14_Node000009_Node000008" class="edge">
<title>Node9&#45;&gt;Node8</title>
<g id="a_edge14_Node000009_Node000008"><a xlink:title=" ">
<path fill="none" stroke="#63b8ff" d="M415.46,-60.82C357.41,-66.44 275.58,-74.37 219.2,-79.82"/>
<polygon fill="#63b8ff" stroke="#63b8ff" points="416.03,-64.28 425.65,-59.84 415.36,-57.32 416.03,-64.28"/>
</a>
</g>
</g>
<!-- Node10 -->
<g id="Node000010" class="node">
<title>Node10</title>
<g id="a_Node000010"><a xlink:href="m__data__output_8fpp_8f90.html#a979b8a2cf4215a8122fc461c0512dbba" target="_top" xlink:title=" ">
<polygon fill="white" stroke="#666666" points="215,-34.04 93,-34.04 93,-4.04 215,-4.04 215,-34.04"/>
<text text-anchor="start" x="101" y="-22.04" font-family="Helvetica,sans-Serif" font-size="10.00">__m_data_output_fpp</text>
<text text-anchor="middle" x="154" y="-11.04" font-family="Helvetica,sans-Serif" font-size="10.00">_f90__</text>
</a>
</g>
</g>
<!-- Node9&#45;&gt;Node10 -->
<g id="edge10_Node000009_Node000010" class="edge">
<title>Node9&#45;&gt;Node10</title>
<g id="a_edge10_Node000009_Node000010"><a xlink:title=" ">
<path fill="none" stroke="#63b8ff" d="M452.55,-34.02C434.25,-24.07 410.65,-13.12 388,-8.04 330.31,4.89 262.63,-0.51 215.13,-7.53"/>
<polygon fill="#63b8ff" stroke="#63b8ff" points="450.91,-37.11 461.34,-38.94 454.32,-31 450.91,-37.11"/>
</a>
</g>
</g>
<!-- Node11 -->
<g id="Node000011" class="node">
<title>Node11</title>
<g id="a_Node000011"><a xlink:href="m__data__output_8fpp_8f90.html#aed63ecd847eb3b59526ffb4099722532" target="_top" xlink:title="The computation of parameters, the allocation of memory, the association of pointers and/or the execu...">
<polygon fill="white" stroke="#666666" points="388,-47.04 255,-47.04 255,-17.04 388,-17.04 388,-47.04"/>
<text text-anchor="start" x="263" y="-35.04" font-family="Helvetica,sans-Serif" font-size="10.00">s_initialize_data_output</text>
<text text-anchor="middle" x="321.5" y="-24.04" font-family="Helvetica,sans-Serif" font-size="10.00">_module</text>
</a>
</g>
</g>
<!-- Node9&#45;&gt;Node11 -->
<g id="edge11_Node000009_Node000011" class="edge">
<title>Node9&#45;&gt;Node11</title>
<g id="a_edge11_Node000009_Node000011"><a xlink:title=" ">
<path fill="none" stroke="#63b8ff" d="M415.53,-44.6C406.41,-43.37 397.08,-42.11 388.03,-40.89"/>
<polygon fill="#63b8ff" stroke="#63b8ff" points="415.35,-48.1 425.73,-45.97 416.29,-41.17 415.35,-48.1"/>
</a>
</g>
</g>
<!-- Node11&#45;&gt;Node8 -->
<g id="edge13_Node000011_Node000008" class="edge">
<title>Node11&#45;&gt;Node8</title>
<g id="a_edge13_Node000011_Node000008"><a xlink:title=" ">
<path fill="none" stroke="#63b8ff" d="M264.78,-50.22C244.1,-56.97 220.88,-64.55 201.14,-70.99"/>
<polygon fill="#63b8ff" stroke="#63b8ff" points="265.98,-53.51 274.4,-47.08 263.81,-46.86 265.98,-53.51"/>
</a>
</g>
</g>
<!-- Node11&#45;&gt;Node10 -->
<g id="edge12_Node000011_Node000010" class="edge">
<title>Node11&#45;&gt;Node10</title>
<g id="a_edge12_Node000011_Node000010"><a xlink:title=" ">
<path fill="none" stroke="#63b8ff" d="M244.41,-26.06C234.55,-25.29 224.57,-24.51 215.02,-23.76"/>
<polygon fill="#63b8ff" stroke="#63b8ff" points="244.37,-29.57 254.61,-26.87 244.92,-22.59 244.37,-29.57"/>
</a>
</g>
</g>
</g>
</svg>
