<?xml version="1.0" encoding="UTF-8" standalone="no"?>
<!DOCTYPE svg PUBLIC "-//W3C//DTD SVG 1.1//EN"
 "http://www.w3.org/Graphics/SVG/1.1/DTD/svg11.dtd">
<!-- Generated by graphviz version 2.43.0 (0)
 -->
<!-- Title: f_xor Pages: 1 -->
<!--zoomable 254 -->

<svg id="main" version="1.1" xmlns="http://www.w3.org/2000/svg" xmlns:xlink="http://www.w3.org/1999/xlink" xml:space="preserve" onload="init(evt)">

<style type="text/css"><![CDATA[
.node, .edge {opacity: 0.7;}
.node.selected, .edge.selected {opacity: 1;}
.edge:hover path { stroke: red; }
.edge:hover polygon { stroke: red; fill: red; }
]]></style>

<defs>
  <circle id="rim" cx="0" cy="0" r="7"/>
  <circle id="rim2" cx="0" cy="0" r="3.5"/>
  <g id="zoomPlus">
    <use xlink:href="#rim" fill="#404040"><set attributeName="fill" to="#808080" begin="zoomplus.mouseover" end="zoomplus.mouseout"/></use>
    <path d="M-4,0h8M0,-4v8" fill="none" stroke="white" stroke-width="1.5" pointer-events="none"/>
  </g>
  <g id="zoomMin">
    <use xlink:href="#rim" fill="#404040"><set attributeName="fill" to="#808080" begin="zoomminus.mouseover" end="zoomminus.mouseout"/></use>
    <path d="M-4,0h8" fill="none" stroke="white" stroke-width="1.5" pointer-events="none"/>
  </g>
  <g id="arrowUp" transform="translate(30 24)">
    <use xlink:href="#rim"/>
    <path pointer-events="none" fill="none" stroke="white" stroke-width="1.5" d="M0,-3.0v7 M-2.5,-0.5L0,-3.0L2.5,-0.5"/>
  </g>
  <g id="arrowRight" transform="rotate(90) translate(36 -43)">
    <use xlink:href="#rim"/>
    <path pointer-events="none" fill="none" stroke="white" stroke-width="1.5" d="M0,-3.0v7 M-2.5,-0.5L0,-3.0L2.5,-0.5"/>
  </g>
  <g id="arrowDown" transform="rotate(180) translate(-30 -48)">
    <use xlink:href="#rim"/>
    <path pointer-events="none" fill="none" stroke="white" stroke-width="1.5" d="M0,-3.0v7 M-2.5,-0.5L0,-3.0L2.5,-0.5"/>
  </g>
  <g id="arrowLeft" transform="rotate(270) translate(-36 17)">
    <use xlink:href="#rim"/>
    <path pointer-events="none" fill="none" stroke="white" stroke-width="1.5" d="M0,-3.0v7 M-2.5,-0.5L0,-3.0L2.5,-0.5"/>
  </g>
  <g id="resetDef">
    <use xlink:href="#rim2" fill="#404040"><set attributeName="fill" to="#808080" begin="reset.mouseover" end="reset.mouseout"/></use>
  </g>
</defs>
<script type="application/ecmascript">
var viewWidth = 1286;
var viewHeight = 254;
var sectionId = 'dynsection-8';
</script>
<script type="application/ecmascript" xlink:href="svg.min.js"/>
<svg id="graph" class="graph">
<g id="viewport">
<title>f_xor</title>
<!-- Node1 -->
<g id="Node000001" class="node">
<title>Node1</title>
<g id="a_Node000001"><a xlink:title="This procedure performs xor on lhs and rhs.">
<polygon fill="#999999" stroke="#666666" points="1278,-181 1237,-181 1237,-162 1278,-162 1278,-181"/>
<text text-anchor="middle" x="1257.5" y="-169" font-family="Helvetica,sans-Serif" font-size="10.00">f_xor</text>
</a>
</g>
</g>
<!-- Node2 -->
<g id="Node000002" class="node">
<title>Node2</title>
<g id="a_Node000002"><a xlink:href="m__helper_8fpp_8f90.html#ac1893d0dc10d4afa0f4b3f5c36b8fb8b" target="_top" xlink:title=" ">
<polygon fill="white" stroke="#666666" points="1189,-218 1064,-218 1064,-199 1189,-199 1189,-218"/>
<text text-anchor="middle" x="1126.5" y="-206" font-family="Helvetica,sans-Serif" font-size="10.00">__m_helper_fpp_f90__</text>
</a>
</g>
</g>
<!-- Node1&#45;&gt;Node2 -->
<g id="edge1_Node000001_Node000002" class="edge">
<title>Node1&#45;&gt;Node2</title>
<g id="a_edge1_Node000001_Node000002"><a xlink:title=" ">
<path fill="none" stroke="#63b8ff" d="M1227.39,-182.01C1218.93,-184.92 1209.64,-187.97 1201,-190.5 1190.79,-193.49 1179.68,-196.39 1169.27,-198.96"/>
<polygon fill="#63b8ff" stroke="#63b8ff" points="1228.57,-185.31 1236.86,-178.7 1226.26,-178.7 1228.57,-185.31"/>
</a>
</g>
</g>
<!-- Node3 -->
<g id="Node000003" class="node">
<title>Node3</title>
<g id="a_Node000003"><a xlink:href="m__mpi__proxy_8fpp_8f90.html#afc71d28caae0f493daff12412a1b9898" target="_top" xlink:title=" ">
<polygon fill="white" stroke="#666666" points="1201,-181 1052,-181 1052,-162 1201,-162 1201,-181"/>
<text text-anchor="middle" x="1126.5" y="-169" font-family="Helvetica,sans-Serif" font-size="10.00">s_mpi_sendrecv_ib_buffers</text>
</a>
</g>
</g>
<!-- Node1&#45;&gt;Node3 -->
<g id="edge2_Node000001_Node000003" class="edge">
<title>Node1&#45;&gt;Node3</title>
<g id="a_edge2_Node000001_Node000003"><a xlink:title=" ">
<path fill="none" stroke="#63b8ff" d="M1226.64,-171.5C1218.88,-171.5 1210.17,-171.5 1201.21,-171.5"/>
<polygon fill="#63b8ff" stroke="#63b8ff" points="1226.91,-175 1236.91,-171.5 1226.91,-168 1226.91,-175"/>
</a>
</g>
</g>
<!-- Node9 -->
<g id="Node000009" class="node">
<title>Node9</title>
<g id="a_Node000009"><a xlink:href="m__mpi__common_8fpp_8f90.html#adca5044be1cccaebbd82a5dfa628b0b4" target="_top" xlink:title="The goal of this procedure is to populate the buffers of the cell&#45;average conservative variables by c...">
<polygon fill="white" stroke="#666666" points="1199.5,-134.5 1053.5,-134.5 1053.5,-104.5 1199.5,-104.5 1199.5,-134.5"/>
<text text-anchor="start" x="1061.5" y="-122.5" font-family="Helvetica,sans-Serif" font-size="10.00">s_mpi_sendrecv_variables</text>
<text text-anchor="middle" x="1126.5" y="-111.5" font-family="Helvetica,sans-Serif" font-size="10.00">_buffers</text>
</a>
</g>
</g>
<!-- Node1&#45;&gt;Node9 -->
<g id="edge8_Node000001_Node000009" class="edge">
<title>Node1&#45;&gt;Node9</title>
<g id="a_edge8_Node000001_Node000009"><a xlink:title=" ">
<path fill="none" stroke="#63b8ff" d="M1227.55,-159.83C1209.06,-152.38 1184.91,-142.64 1164.97,-134.6"/>
<polygon fill="#63b8ff" stroke="#63b8ff" points="1226.32,-163.11 1236.91,-163.6 1228.94,-156.62 1226.32,-163.11"/>
</a>
</g>
</g>
<!-- Node4 -->
<g id="Node000004" class="node">
<title>Node4</title>
<g id="a_Node000004"><a xlink:href="m__ibm_8fpp_8f90.html#a8cd9d1ea1953598bb5b630ba51e998dd" target="_top" xlink:title=" ">
<polygon fill="white" stroke="#666666" points="1016,-200 893,-200 893,-181 1016,-181 1016,-200"/>
<text text-anchor="middle" x="954.5" y="-188" font-family="Helvetica,sans-Serif" font-size="10.00">s_populate_ib_buffers</text>
</a>
</g>
</g>
<!-- Node3&#45;&gt;Node4 -->
<g id="edge3_Node000003_Node000004" class="edge">
<title>Node3&#45;&gt;Node4</title>
<g id="a_edge3_Node000003_Node000004"><a xlink:title=" ">
<path fill="none" stroke="#63b8ff" d="M1041.8,-180.85C1033.16,-181.82 1024.49,-182.79 1016.17,-183.72"/>
<polygon fill="#63b8ff" stroke="#63b8ff" points="1042.37,-184.31 1051.92,-179.72 1041.6,-177.36 1042.37,-184.31"/>
</a>
</g>
</g>
<!-- Node5 -->
<g id="Node000005" class="node">
<title>Node5</title>
<g id="a_Node000005"><a xlink:href="m__ibm_8fpp_8f90.html#a785766d9bbf5c71f0646c9b763364b17" target="_top" xlink:title="Initializes the values of various IBM variables, such as ghost points and image points.">
<polygon fill="white" stroke="#666666" points="828,-208 750,-208 750,-189 828,-189 828,-208"/>
<text text-anchor="middle" x="789" y="-196" font-family="Helvetica,sans-Serif" font-size="10.00">s_ibm_setup</text>
</a>
</g>
</g>
<!-- Node4&#45;&gt;Node5 -->
<g id="edge4_Node000004_Node000005" class="edge">
<title>Node4&#45;&gt;Node5</title>
<g id="a_edge4_Node000004_Node000005"><a xlink:title=" ">
<path fill="none" stroke="#63b8ff" d="M882.62,-193.97C863.9,-194.88 844.4,-195.84 828.15,-196.63"/>
<polygon fill="#63b8ff" stroke="#63b8ff" points="882.8,-197.46 892.62,-193.48 882.46,-190.47 882.8,-197.46"/>
</a>
</g>
</g>
<!-- Node6 -->
<g id="Node000006" class="node">
<title>Node6</title>
<g id="a_Node000006"><a xlink:href="m__ibm_8fpp_8f90.html#a14139c4e3e797db72a4838fd987fb8dd" target="_top" xlink:title=" ">
<polygon fill="white" stroke="#666666" points="682,-246 569,-246 569,-227 682,-227 682,-246"/>
<text text-anchor="middle" x="625.5" y="-234" font-family="Helvetica,sans-Serif" font-size="10.00">__m_ibm_fpp_f90__</text>
</a>
</g>
</g>
<!-- Node5&#45;&gt;Node6 -->
<g id="edge5_Node000005_Node000006" class="edge">
<title>Node5&#45;&gt;Node6</title>
<g id="a_edge5_Node000005_Node000006"><a xlink:title=" ">
<path fill="none" stroke="#63b8ff" d="M739.75,-209.85C716.58,-215.31 689.11,-221.77 667.04,-226.96"/>
<polygon fill="#63b8ff" stroke="#63b8ff" points="740.79,-213.2 749.73,-207.51 739.19,-206.39 740.79,-213.2"/>
</a>
</g>
</g>
<!-- Node7 -->
<g id="Node000007" class="node">
<title>Node7</title>
<g id="a_Node000007"><a xlink:href="namespacem__start__up.html#a1fb7a3f9d412acd2a9cbcfe8b45006dd" target="_top" xlink:title=" ">
<polygon fill="white" stroke="#666666" points="382,-197.5 252,-197.5 252,-167.5 382,-167.5 382,-197.5"/>
<text text-anchor="start" x="260" y="-185.5" font-family="Helvetica,sans-Serif" font-size="10.00">m_start_up::s_initialize</text>
<text text-anchor="middle" x="317" y="-174.5" font-family="Helvetica,sans-Serif" font-size="10.00">_modules</text>
</a>
</g>
</g>
<!-- Node5&#45;&gt;Node7 -->
<g id="edge6_Node000005_Node000007" class="edge">
<title>Node5&#45;&gt;Node7</title>
<g id="a_edge6_Node000005_Node000007"><a xlink:title=" ">
<path fill="none" stroke="#63b8ff" d="M739.77,-196.86C654.61,-193.96 477.58,-187.93 382.2,-184.69"/>
<polygon fill="#63b8ff" stroke="#63b8ff" points="739.82,-200.36 749.94,-197.2 740.06,-193.37 739.82,-200.36"/>
</a>
</g>
</g>
<!-- Node8 -->
<g id="Node000008" class="node">
<title>Node8</title>
<g id="a_Node000008"><a xlink:href="p__main_8fpp_8f90.html#aeec10ee8e2940c953967da3e374e1579" target="_top" xlink:title="Quasi&#45;conservative, shock&#45; and interface&#45; capturing finite&#45;volume scheme for the multicomponent Navie...">
<polygon fill="white" stroke="#666666" points="53,-116 0,-116 0,-97 53,-97 53,-116"/>
<text text-anchor="middle" x="26.5" y="-104" font-family="Helvetica,sans-Serif" font-size="10.00">p_main</text>
</a>
</g>
</g>
<!-- Node7&#45;&gt;Node8 -->
<g id="edge7_Node000007_Node000008" class="edge">
<title>Node7&#45;&gt;Node8</title>
<g id="a_edge7_Node000007_Node000008"><a xlink:title=" ">
<path fill="none" stroke="#63b8ff" d="M249.24,-164.91C186.85,-148.48 96.97,-124.8 53.28,-113.29"/>
<polygon fill="#63b8ff" stroke="#63b8ff" points="248.44,-168.32 259,-167.48 250.22,-161.55 248.44,-168.32"/>
</a>
</g>
</g>
<!-- Node10 -->
<g id="Node000010" class="node">
<title>Node10</title>
<g id="a_Node000010"><a xlink:href="m__boundary__common_8fpp_8f90.html#ae5e76db6a44ec3681f3fe1ed39d9ae05" target="_top" xlink:title=" ">
<polygon fill="white" stroke="#666666" points="1013,-134.5 896,-134.5 896,-104.5 1013,-104.5 1013,-134.5"/>
<text text-anchor="start" x="904" y="-122.5" font-family="Helvetica,sans-Serif" font-size="10.00">s_populate_capillary</text>
<text text-anchor="middle" x="954.5" y="-111.5" font-family="Helvetica,sans-Serif" font-size="10.00">_buffers</text>
</a>
</g>
</g>
<!-- Node9&#45;&gt;Node10 -->
<g id="edge9_Node000009_Node000010" class="edge">
<title>Node9&#45;&gt;Node10</title>
<g id="a_edge9_Node000009_Node000010"><a xlink:title=" ">
<path fill="none" stroke="#63b8ff" d="M1043.23,-119.5C1033.02,-119.5 1022.75,-119.5 1013.02,-119.5"/>
<polygon fill="#63b8ff" stroke="#63b8ff" points="1043.4,-123 1053.4,-119.5 1043.4,-116 1043.4,-123"/>
</a>
</g>
</g>
<!-- Node21 -->
<g id="Node000021" class="node">
<title>Node21</title>
<g id="a_Node000021"><a xlink:href="m__boundary__common_8fpp_8f90.html#a32f0e4db26cb1de5e18c705e8fca41f0" target="_top" xlink:title="The purpose of this procedure is to populate the buffers of the primitive variables,...">
<polygon fill="white" stroke="#666666" points="1014.5,-78.5 894.5,-78.5 894.5,-48.5 1014.5,-48.5 1014.5,-78.5"/>
<text text-anchor="start" x="902.5" y="-66.5" font-family="Helvetica,sans-Serif" font-size="10.00">s_populate_variables</text>
<text text-anchor="middle" x="954.5" y="-55.5" font-family="Helvetica,sans-Serif" font-size="10.00">_buffers</text>
</a>
</g>
</g>
<!-- Node9&#45;&gt;Node21 -->
<g id="edge24_Node000009_Node000021" class="edge">
<title>Node9&#45;&gt;Node21</title>
<g id="a_edge24_Node000009_Node000021"><a xlink:title=" ">
<path fill="none" stroke="#63b8ff" d="M1070.26,-101.3C1047.92,-93.94 1022.45,-85.55 1001.18,-78.55"/>
<polygon fill="#63b8ff" stroke="#63b8ff" points="1069.35,-104.69 1079.94,-104.49 1071.54,-98.04 1069.35,-104.69"/>
</a>
</g>
</g>
<!-- Node11 -->
<g id="Node000011" class="node">
<title>Node11</title>
<g id="a_Node000011"><a xlink:href="m__boundary__common_8fpp_8f90.html#a29323c7f76c504aefa670ebf315fad51" target="_top" xlink:title="The purpose of the module is to apply noncharacteristic and processor boundary condiitons.">
<polygon fill="white" stroke="#666666" points="857,-116.5 721,-116.5 721,-86.5 857,-86.5 857,-116.5"/>
<text text-anchor="start" x="729" y="-104.5" font-family="Helvetica,sans-Serif" font-size="10.00">__m_boundary_common</text>
<text text-anchor="middle" x="789" y="-93.5" font-family="Helvetica,sans-Serif" font-size="10.00">_fpp_f90__</text>
</a>
</g>
</g>
<!-- Node10&#45;&gt;Node11 -->
<g id="edge10_Node000010_Node000011" class="edge">
<title>Node10&#45;&gt;Node11</title>
<g id="a_edge10_Node000010_Node000011"><a xlink:title=" ">
<path fill="none" stroke="#63b8ff" d="M885.74,-112.04C876.31,-111 866.61,-109.93 857.19,-108.9"/>
<polygon fill="#63b8ff" stroke="#63b8ff" points="885.53,-115.54 895.86,-113.15 886.3,-108.58 885.53,-115.54"/>
</a>
</g>
</g>
<!-- Node12 -->
<g id="Node000012" class="node">
<title>Node12</title>
<g id="a_Node000012"><a xlink:href="m__surface__tension_8fpp_8f90.html#af8a8699d24224a16fb480c225db878d9" target="_top" xlink:title=" ">
<polygon fill="white" stroke="#666666" points="832.5,-154 745.5,-154 745.5,-135 832.5,-135 832.5,-154"/>
<text text-anchor="middle" x="789" y="-142" font-family="Helvetica,sans-Serif" font-size="10.00">s_get_capilary</text>
</a>
</g>
</g>
<!-- Node10&#45;&gt;Node12 -->
<g id="edge11_Node000010_Node000012" class="edge">
<title>Node10&#45;&gt;Node12</title>
<g id="a_edge11_Node000010_Node000012"><a xlink:title=" ">
<path fill="none" stroke="#63b8ff" d="M885.72,-129.86C867.79,-132.61 848.93,-135.49 832.74,-137.96"/>
<polygon fill="#63b8ff" stroke="#63b8ff" points="886.5,-133.29 895.86,-128.31 885.44,-126.37 886.5,-133.29"/>
</a>
</g>
</g>
<!-- Node13 -->
<g id="Node000013" class="node">
<title>Node13</title>
<g id="a_Node000013"><a xlink:href="m__surface__tension_8fpp_8f90.html#ab9b6955a7652c5a8bba2161da6c4cdd0" target="_top" xlink:title=" ">
<polygon fill="white" stroke="#666666" points="685,-159.5 566,-159.5 566,-129.5 685,-129.5 685,-159.5"/>
<text text-anchor="start" x="574" y="-147.5" font-family="Helvetica,sans-Serif" font-size="10.00">__m_surface_tension</text>
<text text-anchor="middle" x="625.5" y="-136.5" font-family="Helvetica,sans-Serif" font-size="10.00">_fpp_f90__</text>
</a>
</g>
</g>
<!-- Node12&#45;&gt;Node13 -->
<g id="edge12_Node000012_Node000013" class="edge">
<title>Node12&#45;&gt;Node13</title>
<g id="a_edge12_Node000012_Node000013"><a xlink:title=" ">
<path fill="none" stroke="#63b8ff" d="M734.92,-144.5C718.96,-144.5 701.36,-144.5 685.06,-144.5"/>
<polygon fill="#63b8ff" stroke="#63b8ff" points="735.15,-148 745.14,-144.5 735.14,-141 735.15,-148"/>
</a>
</g>
</g>
<!-- Node14 -->
<g id="Node000014" class="node">
<title>Node14</title>
<g id="a_Node000014"><a xlink:href="m__rhs_8fpp_8f90.html#a7bace127dc6fc78b5a53a7e8e7c58f17" target="_top" xlink:title=" ">
<polygon fill="white" stroke="#666666" points="670.5,-102 580.5,-102 580.5,-83 670.5,-83 670.5,-102"/>
<text text-anchor="middle" x="625.5" y="-90" font-family="Helvetica,sans-Serif" font-size="10.00">s_compute_rhs</text>
</a>
</g>
</g>
<!-- Node12&#45;&gt;Node14 -->
<g id="edge13_Node000012_Node000014" class="edge">
<title>Node12&#45;&gt;Node14</title>
<g id="a_edge13_Node000012_Node000014"><a xlink:title=" ">
<path fill="none" stroke="#63b8ff" d="M742.91,-132.11C735.56,-129.98 728.05,-127.73 721,-125.5 697.64,-118.12 671.34,-108.85 652.43,-102.02"/>
<polygon fill="#63b8ff" stroke="#63b8ff" points="742.18,-135.54 752.76,-134.93 744.11,-128.82 742.18,-135.54"/>
</a>
</g>
</g>
<!-- Node15 -->
<g id="Node000015" class="node">
<title>Node15</title>
<g id="a_Node000015"><a xlink:href="m__rhs_8fpp_8f90.html#a87616394067f1273cd06c4d299d10add" target="_top" xlink:title=" ">
<polygon fill="white" stroke="#666666" points="529,-170 419,-170 419,-151 529,-151 529,-170"/>
<text text-anchor="middle" x="474" y="-158" font-family="Helvetica,sans-Serif" font-size="10.00">__m_rhs_fpp_f90__</text>
</a>
</g>
</g>
<!-- Node14&#45;&gt;Node15 -->
<g id="edge14_Node000014_Node000015" class="edge">
<title>Node14&#45;&gt;Node15</title>
<g id="a_edge14_Node000014_Node000015"><a xlink:title=" ">
<path fill="none" stroke="#63b8ff" d="M595.15,-106.39C576.53,-115.14 551.92,-126.62 530,-136.5 519.27,-141.34 507.29,-146.58 497.27,-150.93"/>
<polygon fill="#63b8ff" stroke="#63b8ff" points="596.73,-109.51 604.29,-102.08 593.75,-103.18 596.73,-109.51"/>
</a>
</g>
</g>
<!-- Node16 -->
<g id="Node000016" class="node">
<title>Node16</title>
<g id="a_Node000016"><a xlink:href="m__time__steppers_8fpp_8f90.html#a95dcf858eaba9951c12d4590ec467f62" target="_top" xlink:title="1st order TVD RK time&#45;stepping algorithm">
<polygon fill="white" stroke="#666666" points="371.5,-133 262.5,-133 262.5,-114 371.5,-114 371.5,-133"/>
<text text-anchor="middle" x="317" y="-121" font-family="Helvetica,sans-Serif" font-size="10.00">s_1st_order_tvd_rk</text>
</a>
</g>
</g>
<!-- Node14&#45;&gt;Node16 -->
<g id="edge15_Node000014_Node000016" class="edge">
<title>Node14&#45;&gt;Node16</title>
<g id="a_edge15_Node000014_Node000016"><a xlink:title=" ">
<path fill="none" stroke="#63b8ff" d="M570.01,-99.05C556.91,-100.57 542.96,-102.13 530,-103.5 476.14,-109.17 414.5,-114.9 371.62,-118.77"/>
<polygon fill="#63b8ff" stroke="#63b8ff" points="570.77,-102.48 580.29,-97.85 569.95,-95.53 570.77,-102.48"/>
</a>
</g>
</g>
<!-- Node18 -->
<g id="Node000018" class="node">
<title>Node18</title>
<g id="a_Node000018"><a xlink:href="m__time__steppers_8fpp_8f90.html#a30504937d9153ef9e5d9990a8894e89a" target="_top" xlink:title="2nd order TVD RK time&#45;stepping algorithm">
<polygon fill="white" stroke="#666666" points="530,-94 418,-94 418,-75 530,-75 530,-94"/>
<text text-anchor="middle" x="474" y="-82" font-family="Helvetica,sans-Serif" font-size="10.00">s_2nd_order_tvd_rk</text>
</a>
</g>
</g>
<!-- Node14&#45;&gt;Node18 -->
<g id="edge18_Node000014_Node000018" class="edge">
<title>Node14&#45;&gt;Node18</title>
<g id="a_edge18_Node000014_Node000018"><a xlink:title=" ">
<path fill="none" stroke="#63b8ff" d="M570.22,-89.6C557.17,-88.9 543.23,-88.15 530.14,-87.45"/>
<polygon fill="#63b8ff" stroke="#63b8ff" points="570.28,-93.1 580.45,-90.14 570.66,-86.11 570.28,-93.1"/>
</a>
</g>
</g>
<!-- Node19 -->
<g id="Node000019" class="node">
<title>Node19</title>
<g id="a_Node000019"><a xlink:href="m__time__steppers_8fpp_8f90.html#aa54ad1694d32cfe180d81112527699e4" target="_top" xlink:title="3rd order TVD RK time&#45;stepping algorithm">
<polygon fill="white" stroke="#666666" points="529,-57 419,-57 419,-38 529,-38 529,-57"/>
<text text-anchor="middle" x="474" y="-45" font-family="Helvetica,sans-Serif" font-size="10.00">s_3rd_order_tvd_rk</text>
</a>
</g>
</g>
<!-- Node14&#45;&gt;Node19 -->
<g id="edge20_Node000014_Node000019" class="edge">
<title>Node14&#45;&gt;Node19</title>
<g id="a_edge20_Node000014_Node000019"><a xlink:title=" ">
<path fill="none" stroke="#63b8ff" d="M583.17,-80.06C559,-72.78 528.95,-63.74 506.66,-57.03"/>
<polygon fill="#63b8ff" stroke="#63b8ff" points="582.21,-83.43 592.79,-82.96 584.23,-76.72 582.21,-83.43"/>
</a>
</g>
</g>
<!-- Node17 -->
<g id="Node000017" class="node">
<title>Node17</title>
<g id="a_Node000017"><a xlink:href="namespacem__start__up.html#ae28835629de9baa7fd546672a0add0e5" target="_top" xlink:title=" ">
<polygon fill="white" stroke="#666666" points="216,-100.5 89,-100.5 89,-70.5 216,-70.5 216,-100.5"/>
<text text-anchor="start" x="97" y="-88.5" font-family="Helvetica,sans-Serif" font-size="10.00">m_start_up::s_perform</text>
<text text-anchor="middle" x="152.5" y="-77.5" font-family="Helvetica,sans-Serif" font-size="10.00">_time_step</text>
</a>
</g>
</g>
<!-- Node16&#45;&gt;Node17 -->
<g id="edge16_Node000016_Node000017" class="edge">
<title>Node16&#45;&gt;Node17</title>
<g id="a_edge16_Node000016_Node000017"><a xlink:title=" ">
<path fill="none" stroke="#63b8ff" d="M265.06,-111.59C249.51,-107.95 232.24,-103.91 216.02,-100.12"/>
<polygon fill="#63b8ff" stroke="#63b8ff" points="264.46,-115.04 274.99,-113.91 266.05,-108.23 264.46,-115.04"/>
</a>
</g>
</g>
<!-- Node17&#45;&gt;Node8 -->
<g id="edge17_Node000017_Node000008" class="edge">
<title>Node17&#45;&gt;Node8</title>
<g id="a_edge17_Node000017_Node000008"><a xlink:title=" ">
<path fill="none" stroke="#63b8ff" d="M78.77,-97.82C69.63,-99.37 60.81,-100.86 53.14,-102.16"/>
<polygon fill="#63b8ff" stroke="#63b8ff" points="79.5,-101.24 88.77,-96.12 78.33,-94.34 79.5,-101.24"/>
</a>
</g>
</g>
<!-- Node18&#45;&gt;Node17 -->
<g id="edge19_Node000018_Node000017" class="edge">
<title>Node18&#45;&gt;Node17</title>
<g id="a_edge19_Node000018_Node000017"><a xlink:title=" ">
<path fill="none" stroke="#63b8ff" d="M407.53,-84.7C351.46,-84.88 271.25,-85.13 216.04,-85.3"/>
<polygon fill="#63b8ff" stroke="#63b8ff" points="407.72,-88.2 417.71,-84.67 407.7,-81.2 407.72,-88.2"/>
</a>
</g>
</g>
<!-- Node19&#45;&gt;Node17 -->
<g id="edge21_Node000019_Node000017" class="edge">
<title>Node19&#45;&gt;Node17</title>
<g id="a_edge21_Node000019_Node000017"><a xlink:title=" ">
<path fill="none" stroke="#63b8ff" d="M408.63,-55.16C352.56,-61.82 271.77,-71.43 216.2,-78.04"/>
<polygon fill="#63b8ff" stroke="#63b8ff" points="409.28,-58.6 418.8,-53.95 408.46,-51.65 409.28,-58.6"/>
</a>
</g>
</g>
<!-- Node20 -->
<g id="Node000020" class="node">
<title>Node20</title>
<g id="a_Node000020"><a xlink:href="m__time__steppers_8fpp_8f90.html#a5858523edfce42df32b2b0a8af54bc0e" target="_top" xlink:title="Strang splitting scheme with 3rd order TVD RK time&#45;stepping algorithm for the flux term and adaptive ...">
<polygon fill="white" stroke="#666666" points="368.5,-19 265.5,-19 265.5,0 368.5,0 368.5,-19"/>
<text text-anchor="middle" x="317" y="-7" font-family="Helvetica,sans-Serif" font-size="10.00">s_strang_splitting</text>
</a>
</g>
</g>
<!-- Node19&#45;&gt;Node20 -->
<g id="edge22_Node000019_Node000020" class="edge">
<title>Node19&#45;&gt;Node20</title>
<g id="a_edge22_Node000019_Node000020"><a xlink:title=" ">
<path fill="none" stroke="#63b8ff" d="M423.89,-35.46C402.24,-30.15 377.15,-24 356.83,-19.02"/>
<polygon fill="#63b8ff" stroke="#63b8ff" points="423.34,-38.93 433.89,-37.91 425.01,-32.13 423.34,-38.93"/>
</a>
</g>
</g>
<!-- Node20&#45;&gt;Node17 -->
<g id="edge23_Node000020_Node000017" class="edge">
<title>Node20&#45;&gt;Node17</title>
<g id="a_edge23_Node000020_Node000017"><a xlink:title=" ">
<path fill="none" stroke="#63b8ff" d="M278.89,-22.5C269.99,-25.87 260.59,-29.64 252,-33.5 226.95,-44.75 199.39,-59.52 179.8,-70.44"/>
<polygon fill="#63b8ff" stroke="#63b8ff" points="280.12,-25.78 288.28,-19.02 277.69,-19.22 280.12,-25.78"/>
</a>
</g>
</g>
<!-- Node21&#45;&gt;Node11 -->
<g id="edge25_Node000021_Node000011" class="edge">
<title>Node21&#45;&gt;Node11</title>
<g id="a_edge25_Node000021_Node000011"><a xlink:title=" ">
<path fill="none" stroke="#63b8ff" d="M884.67,-79.5C874.76,-81.8 864.58,-84.17 854.75,-86.45"/>
<polygon fill="#63b8ff" stroke="#63b8ff" points="885.52,-82.89 894.47,-77.22 883.94,-76.07 885.52,-82.89"/>
</a>
</g>
</g>
<!-- Node21&#45;&gt;Node14 -->
<g id="edge28_Node000021_Node000014" class="edge">
<title>Node21&#45;&gt;Node14</title>
<g id="a_edge28_Node000021_Node000014"><a xlink:title=" ">
<path fill="none" stroke="#63b8ff" d="M883.9,-65.92C837.63,-67.97 775.56,-71.54 721,-77.5 704.49,-79.3 686.45,-81.99 670.61,-84.59"/>
<polygon fill="#63b8ff" stroke="#63b8ff" points="884.28,-69.41 894.12,-65.48 883.98,-62.41 884.28,-69.41"/>
</a>
</g>
</g>
<!-- Node22 -->
<g id="Node000022" class="node">
<title>Node22</title>
<g id="a_Node000022"><a xlink:href="m__time__steppers_8fpp_8f90.html#ac88fae0ccfd624140b3c9caf3c7f2dd0" target="_top" xlink:title="Bubble source part in Strang operator splitting scheme.">
<polygon fill="white" stroke="#666666" points="850.5,-25 727.5,-25 727.5,-6 850.5,-6 850.5,-25"/>
<text text-anchor="middle" x="789" y="-13" font-family="Helvetica,sans-Serif" font-size="10.00">s_adaptive_dt_bubble</text>
</a>
</g>
</g>
<!-- Node21&#45;&gt;Node22 -->
<g id="edge26_Node000021_Node000022" class="edge">
<title>Node21&#45;&gt;Node22</title>
<g id="a_edge26_Node000021_Node000022"><a xlink:title=" ">
<path fill="none" stroke="#63b8ff" d="M892.57,-45.61C868.83,-38.64 842.58,-30.94 822.58,-25.06"/>
<polygon fill="#63b8ff" stroke="#63b8ff" points="891.64,-48.99 902.22,-48.44 893.61,-42.27 891.64,-48.99"/>
</a>
</g>
</g>
<!-- Node22&#45;&gt;Node20 -->
<g id="edge27_Node000022_Node000020" class="edge">
<title>Node22&#45;&gt;Node20</title>
<g id="a_edge27_Node000022_Node000020"><a xlink:title=" ">
<path fill="none" stroke="#63b8ff" d="M716.86,-14.59C621.03,-13.37 452.82,-11.22 368.79,-10.15"/>
<polygon fill="#63b8ff" stroke="#63b8ff" points="716.99,-18.09 727.04,-14.72 717.08,-11.09 716.99,-18.09"/>
</a>
</g>
</g>
</g>
</svg>

<g id="navigator" transform="translate(0 0)" fill="#404254">
  <rect fill="#f2f5e9" fill-opacity="0.5" stroke="#606060" stroke-width=".5" x="0" y="0" width="60" height="60"/>
  <use id="zoomplus" xlink:href="#zoomPlus" x="17" y="9" onmousedown="handleZoom(evt,'in')"/>
  <use id="zoomminus" xlink:href="#zoomMin" x="42" y="9" onmousedown="handleZoom(evt,'out')"/>
  <use id="reset" xlink:href="#resetDef" x="30" y="36" onmousedown="handleReset()"/>
   <use id="arrowup" xlink:href="#arrowUp" x="0" y="0" onmousedown="handlePan(0,-1)"/>
  <use id="arrowright" xlink:href="#arrowRight" x="0" y="0" onmousedown="handlePan(1,0)"/>
  <use id="arrowdown" xlink:href="#arrowDown" x="0" y="0" onmousedown="handlePan(0,1)"/>
  <use id="arrowleft" xlink:href="#arrowLeft" x="0" y="0" onmousedown="handlePan(-1,0)"/>
</g>
<svg viewBox="0 0 15 15" width="100%" height="30px" preserveAspectRatio="xMaxYMin meet">
 <g id="arrow_out" transform="scale(0.3 0.3)">
  <a xlink:href="m__helper_8fpp_8f90_a3bf0ac9a78e2a4d169933fac708d1bec_icgraph_org.svg" target="_base">
   <rect id="button" ry="5" rx="5" y="6" x="6" height="38" width="38"
        fill="#f2f5e9" fill-opacity="0.5" stroke="#606060" stroke-width="1.0"/>
   <path id="arrow"
     d="M 11.500037,31.436501 C 11.940474,20.09759 22.043105,11.32322 32.158766,21.979434 L 37.068811,17.246167 C 37.068811,17.246167 37.088388,32 37.088388,32 L 22.160133,31.978069 C 22.160133,31.978069 26.997745,27.140456 26.997745,27.140456 C 18.528582,18.264221 13.291696,25.230495 11.500037,31.436501 z"
     style="fill:#404040;"/>
  </a>
 </g>
</svg>

<style type='text/css'>
<![CDATA[
[data-mouse-over-selected='false'] { opacity: 0.7; }
[data-mouse-over-selected='true']  { opacity: 1.0; }
]]>
</style>
<script type="application/ecmascript"><![CDATA[
document.addEventListener('DOMContentLoaded', (event) => {
  highlightEdges();
  highlightAdjacentNodes();
});
]]></script>
</svg>
