<?xml version="1.0" encoding="UTF-8" standalone="no"?>
<!DOCTYPE svg PUBLIC "-//W3C//DTD SVG 1.1//EN"
 "http://www.w3.org/Graphics/SVG/1.1/DTD/svg11.dtd">
<!-- Generated by graphviz version 2.43.0 (0)
 -->
<!-- Title: s_int_to_str Pages: 1 -->
<svg width="884pt" height="345pt"
 viewBox="0.00 0.00 884.00 345.00" xmlns="http://www.w3.org/2000/svg" xmlns:xlink="http://www.w3.org/1999/xlink">
<g id="graph0" class="graph" transform="scale(1 1) rotate(0) translate(4 341)">
<title>s_int_to_str</title>
<!-- Node1 -->
<g id="Node000001" class="node">
<title>Node1</title>
<g id="a_Node000001"><a xlink:title=" ">
<polygon fill="#999999" stroke="#666666" points="876,-195 803,-195 803,-176 876,-176 876,-195"/>
<text text-anchor="middle" x="839.5" y="-183" font-family="Helvetica,sans-Serif" font-size="10.00">s_int_to_str</text>
</a>
</g>
</g>
<!-- Node2 -->
<g id="Node000002" class="node">
<title>Node2</title>
<g id="a_Node000002"><a xlink:href="m__helper_8fpp_8f90.html#ac1893d0dc10d4afa0f4b3f5c36b8fb8b" target="_top" xlink:title=" ">
<polygon fill="white" stroke="#666666" points="749,-337 624,-337 624,-318 749,-318 749,-337"/>
<text text-anchor="middle" x="686.5" y="-325" font-family="Helvetica,sans-Serif" font-size="10.00">__m_helper_fpp_f90__</text>
</a>
</g>
</g>
<!-- Node1&#45;&gt;Node2 -->
<g id="edge1_Node000001_Node000002" class="edge">
<title>Node1&#45;&gt;Node2</title>
<g id="a_edge1_Node000001_Node000002"><a xlink:title=" ">
<path fill="none" stroke="#63b8ff" d="M832.87,-204.74C823.75,-232.39 803.02,-282.95 767,-309.5 761.65,-313.45 755.58,-316.55 749.24,-318.99"/>
<polygon fill="#63b8ff" stroke="#63b8ff" points="836.26,-205.64 835.9,-195.05 829.58,-203.55 836.26,-205.64"/>
</a>
</g>
</g>
<!-- Node3 -->
<g id="Node000003" class="node">
<title>Node3</title>
<g id="a_Node000003"><a xlink:href="m__checker_8fpp_8f90.html#abbe830eba7de81571f125d9edd621473" target="_top" xlink:title="Checks constraints on acoustic_source parameters.">
<polygon fill="white" stroke="#666666" points="764.5,-300 608.5,-300 608.5,-281 764.5,-281 764.5,-300"/>
<text text-anchor="middle" x="686.5" y="-288" font-family="Helvetica,sans-Serif" font-size="10.00">s_check_inputs_acoustic_src</text>
</a>
</g>
</g>
<!-- Node1&#45;&gt;Node3 -->
<g id="edge2_Node000001_Node000003" class="edge">
<title>Node1&#45;&gt;Node3</title>
<g id="a_edge2_Node000001_Node000003"><a xlink:title=" ">
<path fill="none" stroke="#63b8ff" d="M828.14,-203.97C816.05,-223.75 794.21,-254.59 767,-271.5 760.73,-275.39 753.73,-278.49 746.55,-280.95"/>
<polygon fill="#63b8ff" stroke="#63b8ff" points="831.21,-205.64 833.27,-195.25 825.18,-202.09 831.21,-205.64"/>
</a>
</g>
</g>
<!-- Node9 -->
<g id="Node000009" class="node">
<title>Node9</title>
<g id="a_Node000009"><a xlink:href="m__checker__common_8fpp_8f90.html#ae37785075c904635e02713670b0cfc46" target="_top" xlink:title="Checks constraints on the stiffened equation of state fluids parameters. Called by s_check_inputs_com...">
<polygon fill="white" stroke="#666666" points="767,-177 606,-177 606,-158 767,-158 767,-177"/>
<text text-anchor="middle" x="686.5" y="-165" font-family="Helvetica,sans-Serif" font-size="10.00">s_check_inputs_stiffened_eos</text>
</a>
</g>
</g>
<!-- Node1&#45;&gt;Node9 -->
<g id="edge8_Node000001_Node000009" class="edge">
<title>Node1&#45;&gt;Node9</title>
<g id="a_edge8_Node000001_Node000009"><a xlink:title=" ">
<path fill="none" stroke="#63b8ff" d="M792.72,-180.04C784.56,-179.07 775.86,-178.03 767.08,-176.99"/>
<polygon fill="#63b8ff" stroke="#63b8ff" points="792.37,-183.53 802.72,-181.23 793.2,-176.58 792.37,-183.53"/>
</a>
</g>
</g>
<!-- Node12 -->
<g id="Node000012" class="node">
<title>Node12</title>
<g id="a_Node000012"><a xlink:href="m__checker_8fpp_8f90.html#a1594c29ddde8d06f6d719d2640c4bda0" target="_top" xlink:title="Checks constraints on viscosity parameters (fluid_pp(i)Re(1:2)) of the stiffened gas equation of stat...">
<polygon fill="white" stroke="#666666" points="756,-262.5 617,-262.5 617,-232.5 756,-232.5 756,-262.5"/>
<text text-anchor="start" x="625" y="-250.5" font-family="Helvetica,sans-Serif" font-size="10.00">s_check_inputs_stiffened</text>
<text text-anchor="middle" x="686.5" y="-239.5" font-family="Helvetica,sans-Serif" font-size="10.00">_eos_viscosity</text>
</a>
</g>
</g>
<!-- Node1&#45;&gt;Node12 -->
<g id="edge12_Node000001_Node000012" class="edge">
<title>Node1&#45;&gt;Node12</title>
<g id="a_edge12_Node000001_Node000012"><a xlink:title=" ">
<path fill="none" stroke="#63b8ff" d="M814.03,-200.04C800.48,-207.69 783.16,-216.84 767,-223.5 759.14,-226.74 750.67,-229.76 742.31,-232.49"/>
<polygon fill="#63b8ff" stroke="#63b8ff" points="815.82,-203.04 822.75,-195.03 812.33,-196.97 815.82,-203.04"/>
</a>
</g>
</g>
<!-- Node13 -->
<g id="Node000013" class="node">
<title>Node13</title>
<g id="a_Node000013"><a xlink:href="m__checker_8fpp_8f90.html#a23f98a426ce18528b3a31fc119dd4863" target="_top" xlink:title="Checks constraints on WENO scheme parameters.">
<polygon fill="white" stroke="#666666" points="747.5,-214 625.5,-214 625.5,-195 747.5,-195 747.5,-214"/>
<text text-anchor="middle" x="686.5" y="-202" font-family="Helvetica,sans-Serif" font-size="10.00">s_check_inputs_weno</text>
</a>
</g>
</g>
<!-- Node1&#45;&gt;Node13 -->
<g id="edge14_Node000001_Node000013" class="edge">
<title>Node1&#45;&gt;Node13</title>
<g id="a_edge14_Node000001_Node000013"><a xlink:title=" ">
<path fill="none" stroke="#63b8ff" d="M792.69,-191.26C778.46,-193.05 762.57,-195.05 747.53,-196.95"/>
<polygon fill="#63b8ff" stroke="#63b8ff" points="793.23,-194.72 802.72,-190 792.36,-187.78 793.23,-194.72"/>
</a>
</g>
</g>
<!-- Node14 -->
<g id="Node000014" class="node">
<title>Node14</title>
<g id="a_Node000014"><a xlink:href="m__checker__common_8fpp_8f90.html#ac5ead5876fd9afbfaa1d2c233f13e716" target="_top" xlink:title=" ">
<polygon fill="white" stroke="#666666" points="742,-140 631,-140 631,-121 742,-121 742,-140"/>
<text text-anchor="middle" x="686.5" y="-128" font-family="Helvetica,sans-Serif" font-size="10.00">s_check_total_cells</text>
</a>
</g>
</g>
<!-- Node1&#45;&gt;Node14 -->
<g id="edge17_Node000001_Node000014" class="edge">
<title>Node1&#45;&gt;Node14</title>
<g id="a_edge17_Node000001_Node000014"><a xlink:title=" ">
<path fill="none" stroke="#63b8ff" d="M814.16,-170.93C800.65,-163.36 783.32,-154.46 767,-148.5 757.96,-145.2 748.11,-142.38 738.53,-140.02"/>
<polygon fill="#63b8ff" stroke="#63b8ff" points="812.43,-173.97 822.85,-175.91 815.91,-167.9 812.43,-173.97"/>
</a>
</g>
</g>
<!-- Node15 -->
<g id="Node000015" class="node">
<title>Node15</title>
<g id="a_Node000015"><a xlink:href="namespacem__start__up.html#a45c8fef6680263063a1c7d2fa1748013" target="_top" xlink:title=" ">
<polygon fill="white" stroke="#666666" points="742,-102.5 631,-102.5 631,-72.5 742,-72.5 742,-102.5"/>
<text text-anchor="start" x="639" y="-90.5" font-family="Helvetica,sans-Serif" font-size="10.00">m_start_up::s_read</text>
<text text-anchor="middle" x="686.5" y="-79.5" font-family="Helvetica,sans-Serif" font-size="10.00">_parallel_data_files</text>
</a>
</g>
</g>
<!-- Node1&#45;&gt;Node15 -->
<g id="edge19_Node000001_Node000015" class="edge">
<title>Node1&#45;&gt;Node15</title>
<g id="a_edge19_Node000001_Node000015"><a xlink:title=" ">
<path fill="none" stroke="#63b8ff" d="M825.42,-167.39C812.39,-150.61 790.93,-126.1 767,-111.5 759.37,-106.84 750.77,-103.04 742.12,-99.94"/>
<polygon fill="#63b8ff" stroke="#63b8ff" points="822.94,-169.92 831.75,-175.81 828.53,-165.71 822.94,-169.92"/>
</a>
</g>
</g>
<!-- Node18 -->
<g id="Node000018" class="node">
<title>Node18</title>
<g id="a_Node000018"><a xlink:href="m__data__output_8fpp_8f90.html#a694588474e2bd0e0b68d5dcb12a2598c" target="_top" xlink:title="The goal of this subroutine is to output the grid and conservative variables data files for given tim...">
<polygon fill="white" stroke="#666666" points="747,-54.5 626,-54.5 626,-24.5 747,-24.5 747,-54.5"/>
<text text-anchor="start" x="634" y="-42.5" font-family="Helvetica,sans-Serif" font-size="10.00">s_write_parallel_data</text>
<text text-anchor="middle" x="686.5" y="-31.5" font-family="Helvetica,sans-Serif" font-size="10.00">_files</text>
</a>
</g>
</g>
<!-- Node1&#45;&gt;Node18 -->
<g id="edge23_Node000001_Node000018" class="edge">
<title>Node1&#45;&gt;Node18</title>
<g id="a_edge23_Node000001_Node000018"><a xlink:title=" ">
<path fill="none" stroke="#63b8ff" d="M832.26,-166.14C822.59,-139.18 801.42,-90.59 767,-63.5 761.11,-58.86 754.33,-55.12 747.27,-52.1"/>
<polygon fill="#63b8ff" stroke="#63b8ff" points="829.07,-167.61 835.61,-175.94 835.69,-165.35 829.07,-167.61"/>
</a>
</g>
</g>
<!-- Node4 -->
<g id="Node000004" class="node">
<title>Node4</title>
<g id="a_Node000004"><a xlink:href="m__checker_8fpp_8f90.html#a66c49f3c83092720b368c30c6048538a" target="_top" xlink:title="Checks compatibility of parameters in the input file. Used by the simulation stage.">
<polygon fill="white" stroke="#666666" points="546,-253 455,-253 455,-234 546,-234 546,-253"/>
<text text-anchor="middle" x="500.5" y="-241" font-family="Helvetica,sans-Serif" font-size="10.00">s_check_inputs</text>
</a>
</g>
</g>
<!-- Node3&#45;&gt;Node4 -->
<g id="edge3_Node000003_Node000004" class="edge">
<title>Node3&#45;&gt;Node4</title>
<g id="a_edge3_Node000003_Node000004"><a xlink:title=" ">
<path fill="none" stroke="#63b8ff" d="M634.79,-278.6C625.21,-276.29 615.29,-273.85 606,-271.5 582.7,-265.59 556.57,-258.59 536.27,-253.07"/>
<polygon fill="#63b8ff" stroke="#63b8ff" points="634.05,-282.02 644.6,-280.95 635.69,-275.21 634.05,-282.02"/>
</a>
</g>
</g>
<!-- Node5 -->
<g id="Node000005" class="node">
<title>Node5</title>
<g id="a_Node000005"><a xlink:href="m__checker_8fpp_8f90.html#a975b2bfe62199545eeb2519e9afb1395" target="_top" xlink:title=" ">
<polygon fill="white" stroke="#666666" points="395,-253 263,-253 263,-234 395,-234 395,-253"/>
<text text-anchor="middle" x="329" y="-241" font-family="Helvetica,sans-Serif" font-size="10.00">__m_checker_fpp_f90__</text>
</a>
</g>
</g>
<!-- Node4&#45;&gt;Node5 -->
<g id="edge4_Node000004_Node000005" class="edge">
<title>Node4&#45;&gt;Node5</title>
<g id="a_edge4_Node000004_Node000005"><a xlink:title=" ">
<path fill="none" stroke="#63b8ff" d="M444.85,-243.5C429.05,-243.5 411.65,-243.5 395.28,-243.5"/>
<polygon fill="#63b8ff" stroke="#63b8ff" points="444.97,-247 454.97,-243.5 444.97,-240 444.97,-247"/>
</a>
</g>
</g>
<!-- Node6 -->
<g id="Node000006" class="node">
<title>Node6</title>
<g id="a_Node000006"><a xlink:href="namespacem__start__up.html#aba056c17994ffb88cd1effa3adb95789" target="_top" xlink:title="The goal of this procedure is to verify that each of the user provided inputs is valid and that their...">
<polygon fill="white" stroke="#666666" points="387,-209.5 271,-209.5 271,-179.5 387,-179.5 387,-209.5"/>
<text text-anchor="start" x="279" y="-197.5" font-family="Helvetica,sans-Serif" font-size="10.00">m_start_up::s_check</text>
<text text-anchor="middle" x="329" y="-186.5" font-family="Helvetica,sans-Serif" font-size="10.00">_input_file</text>
</a>
</g>
</g>
<!-- Node4&#45;&gt;Node6 -->
<g id="edge5_Node000004_Node000006" class="edge">
<title>Node4&#45;&gt;Node6</title>
<g id="a_edge5_Node000004_Node000006"><a xlink:title=" ">
<path fill="none" stroke="#63b8ff" d="M456.72,-231.13C434.03,-224.57 405.96,-216.46 382.02,-209.54"/>
<polygon fill="#63b8ff" stroke="#63b8ff" points="455.84,-234.52 466.42,-233.94 457.78,-227.8 455.84,-234.52"/>
</a>
</g>
</g>
<!-- Node7 -->
<g id="Node000007" class="node">
<title>Node7</title>
<g id="a_Node000007"><a xlink:href="namespacem__start__up.html#a90f45019dd8a980f2ea3fe2c5b83df6c" target="_top" xlink:title=" ">
<polygon fill="white" stroke="#666666" points="223,-174.5 93,-174.5 93,-144.5 223,-144.5 223,-174.5"/>
<text text-anchor="start" x="101" y="-162.5" font-family="Helvetica,sans-Serif" font-size="10.00">m_start_up::s_initialize</text>
<text text-anchor="middle" x="158" y="-151.5" font-family="Helvetica,sans-Serif" font-size="10.00">_mpi_domain</text>
</a>
</g>
</g>
<!-- Node6&#45;&gt;Node7 -->
<g id="edge6_Node000006_Node000007" class="edge">
<title>Node6&#45;&gt;Node7</title>
<g id="a_edge6_Node000006_Node000007"><a xlink:title=" ">
<path fill="none" stroke="#63b8ff" d="M260.93,-180.61C248.48,-178.03 235.5,-175.34 223.13,-172.78"/>
<polygon fill="#63b8ff" stroke="#63b8ff" points="260.28,-184.05 270.78,-182.65 261.7,-177.2 260.28,-184.05"/>
</a>
</g>
</g>
<!-- Node8 -->
<g id="Node000008" class="node">
<title>Node8</title>
<g id="a_Node000008"><a xlink:href="p__main_8fpp_8f90.html#aeec10ee8e2940c953967da3e374e1579" target="_top" xlink:title="Quasi&#45;conservative, shock&#45; and interface&#45; capturing finite&#45;volume scheme for the multicomponent Navie...">
<polygon fill="white" stroke="#666666" points="53,-100 0,-100 0,-81 53,-81 53,-100"/>
<text text-anchor="middle" x="26.5" y="-88" font-family="Helvetica,sans-Serif" font-size="10.00">p_main</text>
</a>
</g>
</g>
<!-- Node7&#45;&gt;Node8 -->
<g id="edge7_Node000007_Node000008" class="edge">
<title>Node7&#45;&gt;Node8</title>
<g id="a_edge7_Node000007_Node000008"><a xlink:title=" ">
<path fill="none" stroke="#63b8ff" d="M119.59,-139.57C95.24,-126.59 64.56,-110.25 45.49,-100.08"/>
<polygon fill="#63b8ff" stroke="#63b8ff" points="118.11,-142.74 128.58,-144.36 121.4,-136.57 118.11,-142.74"/>
</a>
</g>
</g>
<!-- Node10 -->
<g id="Node000010" class="node">
<title>Node10</title>
<g id="a_Node000010"><a xlink:href="m__checker__common_8fpp_8f90.html#ac1305563044bff409bb307d98e1dfe13" target="_top" xlink:title="Checks compatibility of parameters in the input file. Used by all three stages.">
<polygon fill="white" stroke="#666666" points="570,-177 431,-177 431,-158 570,-158 570,-177"/>
<text text-anchor="middle" x="500.5" y="-165" font-family="Helvetica,sans-Serif" font-size="10.00">s_check_inputs_common</text>
</a>
</g>
</g>
<!-- Node9&#45;&gt;Node10 -->
<g id="edge9_Node000009_Node000010" class="edge">
<title>Node9&#45;&gt;Node10</title>
<g id="a_edge9_Node000009_Node000010"><a xlink:title=" ">
<path fill="none" stroke="#63b8ff" d="M595.74,-167.5C587.08,-167.5 578.4,-167.5 570,-167.5"/>
<polygon fill="#63b8ff" stroke="#63b8ff" points="595.87,-171 605.87,-167.5 595.87,-164 595.87,-171"/>
</a>
</g>
</g>
<!-- Node10&#45;&gt;Node6 -->
<g id="edge11_Node000010_Node000006" class="edge">
<title>Node10&#45;&gt;Node6</title>
<g id="a_edge11_Node000010_Node000006"><a xlink:title=" ">
<path fill="none" stroke="#63b8ff" d="M429.6,-178.63C415.5,-180.88 400.83,-183.22 387.23,-185.38"/>
<polygon fill="#63b8ff" stroke="#63b8ff" points="430.42,-182.05 439.74,-177.02 429.31,-175.14 430.42,-182.05"/>
</a>
</g>
</g>
<!-- Node11 -->
<g id="Node000011" class="node">
<title>Node11</title>
<g id="a_Node000011"><a xlink:href="m__checker__common_8fpp_8f90.html#a3d7d0fa7763c21af55ac8bad130f285a" target="_top" xlink:title=" ">
<polygon fill="white" stroke="#666666" points="393,-161.5 265,-161.5 265,-131.5 393,-131.5 393,-161.5"/>
<text text-anchor="start" x="273" y="-149.5" font-family="Helvetica,sans-Serif" font-size="10.00">__m_checker_common</text>
<text text-anchor="middle" x="329" y="-138.5" font-family="Helvetica,sans-Serif" font-size="10.00">_fpp_f90__</text>
</a>
</g>
</g>
<!-- Node10&#45;&gt;Node11 -->
<g id="edge10_Node000010_Node000011" class="edge">
<title>Node10&#45;&gt;Node11</title>
<g id="a_edge10_Node000010_Node000011"><a xlink:title=" ">
<path fill="none" stroke="#63b8ff" d="M420.62,-157.73C411.41,-156.59 402.1,-155.43 393.15,-154.32"/>
<polygon fill="#63b8ff" stroke="#63b8ff" points="420.2,-161.2 430.56,-158.96 421.06,-154.26 420.2,-161.2"/>
</a>
</g>
</g>
<!-- Node12&#45;&gt;Node4 -->
<g id="edge13_Node000012_Node000004" class="edge">
<title>Node12&#45;&gt;Node4</title>
<g id="a_edge13_Node000012_Node000004"><a xlink:title=" ">
<path fill="none" stroke="#63b8ff" d="M606.87,-245.79C586.08,-245.34 564.35,-244.87 546.07,-244.47"/>
<polygon fill="#63b8ff" stroke="#63b8ff" points="606.91,-249.29 616.99,-246.01 607.06,-242.29 606.91,-249.29"/>
</a>
</g>
</g>
<!-- Node13&#45;&gt;Node4 -->
<g id="edge15_Node000013_Node000004" class="edge">
<title>Node13&#45;&gt;Node4</title>
<g id="a_edge15_Node000013_Node000004"><a xlink:title=" ">
<path fill="none" stroke="#63b8ff" d="M630.43,-216.17C603.47,-221.89 571.44,-228.68 546.05,-234.06"/>
<polygon fill="#63b8ff" stroke="#63b8ff" points="631.43,-219.54 640.49,-214.04 629.98,-212.69 631.43,-219.54"/>
</a>
</g>
</g>
<!-- Node13&#45;&gt;Node10 -->
<g id="edge16_Node000013_Node000010" class="edge">
<title>Node13&#45;&gt;Node10</title>
<g id="a_edge16_Node000013_Node000010"><a xlink:title=" ">
<path fill="none" stroke="#63b8ff" d="M628.23,-192.98C602.8,-187.87 573.23,-181.92 549.04,-177.06"/>
<polygon fill="#63b8ff" stroke="#63b8ff" points="627.62,-196.43 638.12,-194.97 629,-189.57 627.62,-196.43"/>
</a>
</g>
</g>
<!-- Node14&#45;&gt;Node10 -->
<g id="edge18_Node000014_Node000010" class="edge">
<title>Node14&#45;&gt;Node10</title>
<g id="a_edge18_Node000014_Node000010"><a xlink:title=" ">
<path fill="none" stroke="#63b8ff" d="M628.23,-142.02C602.8,-147.13 573.23,-153.08 549.04,-157.94"/>
<polygon fill="#63b8ff" stroke="#63b8ff" points="629,-145.43 638.12,-140.03 627.62,-138.57 629,-145.43"/>
</a>
</g>
</g>
<!-- Node16 -->
<g id="Node000016" class="node">
<title>Node16</title>
<g id="a_Node000016"><a xlink:href="namespacem__start__up.html#a1eab3dec3b4d7c3842efccf52d2d35f6" target="_top" xlink:title="Read data files. Dispatch subroutine that replaces procedure pointer.">
<polygon fill="white" stroke="#666666" points="555.5,-105.5 445.5,-105.5 445.5,-75.5 555.5,-75.5 555.5,-105.5"/>
<text text-anchor="start" x="453.5" y="-93.5" font-family="Helvetica,sans-Serif" font-size="10.00">m_start_up::s_read</text>
<text text-anchor="middle" x="500.5" y="-82.5" font-family="Helvetica,sans-Serif" font-size="10.00">_data_files</text>
</a>
</g>
</g>
<!-- Node15&#45;&gt;Node16 -->
<g id="edge20_Node000015_Node000016" class="edge">
<title>Node15&#45;&gt;Node16</title>
<g id="a_edge20_Node000015_Node000016"><a xlink:title=" ">
<path fill="none" stroke="#63b8ff" d="M620.57,-88.56C599.35,-88.9 576.02,-89.28 555.68,-89.62"/>
<polygon fill="#63b8ff" stroke="#63b8ff" points="620.85,-92.05 630.79,-88.39 620.74,-85.06 620.85,-92.05"/>
</a>
</g>
</g>
<!-- Node17 -->
<g id="Node000017" class="node">
<title>Node17</title>
<g id="a_Node000017"><a xlink:href="namespacem__start__up.html#a14f564f341f1feca9308fe2579e5ced6" target="_top" xlink:title=" ">
<polygon fill="white" stroke="#666666" points="223,-105.5 93,-105.5 93,-75.5 223,-75.5 223,-105.5"/>
<text text-anchor="start" x="101" y="-93.5" font-family="Helvetica,sans-Serif" font-size="10.00">m_start_up::s_initialize</text>
<text text-anchor="middle" x="158" y="-82.5" font-family="Helvetica,sans-Serif" font-size="10.00">_modules</text>
</a>
</g>
</g>
<!-- Node16&#45;&gt;Node17 -->
<g id="edge21_Node000016_Node000017" class="edge">
<title>Node16&#45;&gt;Node17</title>
<g id="a_edge21_Node000016_Node000017"><a xlink:title=" ">
<path fill="none" stroke="#63b8ff" d="M434.93,-90.5C374.14,-90.5 283.61,-90.5 223,-90.5"/>
<polygon fill="#63b8ff" stroke="#63b8ff" points="435.17,-94 445.17,-90.5 435.17,-87 435.17,-94"/>
</a>
</g>
</g>
<!-- Node17&#45;&gt;Node8 -->
<g id="edge22_Node000017_Node000008" class="edge">
<title>Node17&#45;&gt;Node8</title>
<g id="a_edge22_Node000017_Node000008"><a xlink:title=" ">
<path fill="none" stroke="#63b8ff" d="M82.52,-90.5C72.04,-90.5 61.91,-90.5 53.26,-90.5"/>
<polygon fill="#63b8ff" stroke="#63b8ff" points="82.63,-94 92.63,-90.5 82.63,-87 82.63,-94"/>
</a>
</g>
</g>
<!-- Node19 -->
<g id="Node000019" class="node">
<title>Node19</title>
<g id="a_Node000019"><a xlink:href="m__data__output_8fpp_8f90.html#a979b8a2cf4215a8122fc461c0512dbba" target="_top" xlink:title=" ">
<polygon fill="white" stroke="#666666" points="390,-62.5 268,-62.5 268,-32.5 390,-32.5 390,-62.5"/>
<text text-anchor="start" x="276" y="-50.5" font-family="Helvetica,sans-Serif" font-size="10.00">__m_data_output_fpp</text>
<text text-anchor="middle" x="329" y="-39.5" font-family="Helvetica,sans-Serif" font-size="10.00">_f90__</text>
</a>
</g>
</g>
<!-- Node18&#45;&gt;Node19 -->
<g id="edge24_Node000018_Node000019" class="edge">
<title>Node18&#45;&gt;Node19</title>
<g id="a_edge24_Node000018_Node000019"><a xlink:title=" ">
<path fill="none" stroke="#63b8ff" d="M615.74,-41.07C550.05,-42.55 452.69,-44.74 390.29,-46.14"/>
<polygon fill="#63b8ff" stroke="#63b8ff" points="616.08,-44.56 626,-40.84 615.92,-37.56 616.08,-44.56"/>
</a>
</g>
</g>
<!-- Node20 -->
<g id="Node000020" class="node">
<title>Node20</title>
<g id="a_Node000020"><a xlink:href="m__data__output_8fpp_8f90.html#a7bdde7678c4eb6a71541fd22c63a620a" target="_top" xlink:title="Write data files. Dispatch subroutine that replaces procedure pointer.">
<polygon fill="white" stroke="#666666" points="552.5,-19 448.5,-19 448.5,0 552.5,0 552.5,-19"/>
<text text-anchor="middle" x="500.5" y="-7" font-family="Helvetica,sans-Serif" font-size="10.00">s_write_data_files</text>
</a>
</g>
</g>
<!-- Node18&#45;&gt;Node20 -->
<g id="edge25_Node000018_Node000020" class="edge">
<title>Node18&#45;&gt;Node20</title>
<g id="a_edge25_Node000018_Node000020"><a xlink:title=" ">
<path fill="none" stroke="#63b8ff" d="M615.63,-28.11C594.68,-24.69 572.1,-21.01 552.6,-17.83"/>
<polygon fill="#63b8ff" stroke="#63b8ff" points="615.33,-31.6 625.76,-29.76 616.45,-24.7 615.33,-31.6"/>
</a>
</g>
</g>
<!-- Node20&#45;&gt;Node19 -->
<g id="edge26_Node000020_Node000019" class="edge">
<title>Node20&#45;&gt;Node19</title>
<g id="a_edge26_Node000020_Node000019"><a xlink:title=" ">
<path fill="none" stroke="#63b8ff" d="M446.72,-21.33C428.75,-25.36 408.54,-29.89 390.04,-34.04"/>
<polygon fill="#63b8ff" stroke="#63b8ff" points="447.74,-24.69 456.73,-19.09 446.2,-17.86 447.74,-24.69"/>
</a>
</g>
</g>
<!-- Node21 -->
<g id="Node000021" class="node">
<title>Node21</title>
<g id="a_Node000021"><a xlink:href="namespacem__start__up.html#a0865c4378f1fdf7a9053530fb25fadaa" target="_top" xlink:title=" ">
<polygon fill="white" stroke="#666666" points="227,-36 89,-36 89,-17 227,-17 227,-36"/>
<text text-anchor="middle" x="158" y="-24" font-family="Helvetica,sans-Serif" font-size="10.00">m_start_up::s_save_data</text>
</a>
</g>
</g>
<!-- Node20&#45;&gt;Node21 -->
<g id="edge27_Node000020_Node000021" class="edge">
<title>Node20&#45;&gt;Node21</title>
<g id="a_edge27_Node000020_Node000021"><a xlink:title=" ">
<path fill="none" stroke="#63b8ff" d="M438.16,-12.56C378.77,-15.53 288.89,-20.02 227.25,-23.09"/>
<polygon fill="#63b8ff" stroke="#63b8ff" points="438.34,-16.06 448.16,-12.06 437.99,-9.07 438.34,-16.06"/>
</a>
</g>
</g>
<!-- Node21&#45;&gt;Node8 -->
<g id="edge28_Node000021_Node000008" class="edge">
<title>Node21&#45;&gt;Node8</title>
<g id="a_edge28_Node000021_Node000008"><a xlink:title=" ">
<path fill="none" stroke="#63b8ff" d="M128.37,-40.65C103.66,-52.86 68.63,-70.17 47.02,-80.85"/>
<polygon fill="#63b8ff" stroke="#63b8ff" points="130.2,-43.65 137.61,-36.08 127.1,-37.37 130.2,-43.65"/>
</a>
</g>
</g>
</g>
</svg>
