<?xml version="1.0" encoding="UTF-8" standalone="no"?>
<!DOCTYPE svg PUBLIC "-//W3C//DTD SVG 1.1//EN"
 "http://www.w3.org/Graphics/SVG/1.1/DTD/svg11.dtd">
<!-- Generated by graphviz version 2.43.0 (0)
 -->
<!-- Title: s_find_num_ghost_points Pages: 1 -->
<svg width="584pt" height="82pt"
 viewBox="0.00 0.00 584.00 82.00" xmlns="http://www.w3.org/2000/svg" xmlns:xlink="http://www.w3.org/1999/xlink">
<g id="graph0" class="graph" transform="scale(1 1) rotate(0) translate(4 78)">
<title>s_find_num_ghost_points</title>
<!-- Node1 -->
<g id="Node000001" class="node">
<title>Node1</title>
<g id="a_Node000001"><a xlink:title="Function that finds the number of ghost points, used for allocating memory.">
<polygon fill="#999999" stroke="#666666" points="576,-56 436,-56 436,-37 576,-37 576,-56"/>
<text text-anchor="middle" x="506" y="-44" font-family="Helvetica,sans-Serif" font-size="10.00">s_find_num_ghost_points</text>
</a>
</g>
</g>
<!-- Node2 -->
<g id="Node000002" class="node">
<title>Node2</title>
<g id="a_Node000002"><a xlink:href="m__ibm_8fpp_8f90.html#a14139c4e3e797db72a4838fd987fb8dd" target="_top" xlink:title=" ">
<polygon fill="white" stroke="#666666" points="284.5,-74 171.5,-74 171.5,-55 284.5,-55 284.5,-74"/>
<text text-anchor="middle" x="228" y="-62" font-family="Helvetica,sans-Serif" font-size="10.00">__m_ibm_fpp_f90__</text>
</a>
</g>
</g>
<!-- Node1&#45;&gt;Node2 -->
<g id="edge1_Node000001_Node000002" class="edge">
<title>Node1&#45;&gt;Node2</title>
<g id="a_edge1_Node000001_Node000002"><a xlink:title=" ">
<path fill="none" stroke="#63b8ff" d="M425.68,-51.67C380.64,-54.61 325.35,-58.22 284.87,-60.86"/>
<polygon fill="#63b8ff" stroke="#63b8ff" points="425.96,-55.16 435.71,-51.02 425.5,-48.18 425.96,-55.16"/>
</a>
</g>
</g>
<!-- Node3 -->
<g id="Node000003" class="node">
<title>Node3</title>
<g id="a_Node000003"><a xlink:href="m__ibm_8fpp_8f90.html#a785766d9bbf5c71f0646c9b763364b17" target="_top" xlink:title="Initializes the values of various IBM variables, such as ghost points and image points.">
<polygon fill="white" stroke="#666666" points="400,-37 322,-37 322,-18 400,-18 400,-37"/>
<text text-anchor="middle" x="361" y="-25" font-family="Helvetica,sans-Serif" font-size="10.00">s_ibm_setup</text>
</a>
</g>
</g>
<!-- Node1&#45;&gt;Node3 -->
<g id="edge2_Node000001_Node000003" class="edge">
<title>Node1&#45;&gt;Node3</title>
<g id="a_edge2_Node000001_Node000003"><a xlink:title=" ">
<path fill="none" stroke="#63b8ff" d="M425.57,-35.95C416.72,-34.77 408.03,-33.62 400.07,-32.56"/>
<polygon fill="#63b8ff" stroke="#63b8ff" points="425.22,-39.43 435.59,-37.28 426.14,-32.49 425.22,-39.43"/>
</a>
</g>
</g>
<!-- Node3&#45;&gt;Node2 -->
<g id="edge3_Node000003_Node000002" class="edge">
<title>Node3&#45;&gt;Node2</title>
<g id="a_edge3_Node000003_Node000002"><a xlink:title=" ">
<path fill="none" stroke="#63b8ff" d="M316.36,-39.83C299.01,-44.73 279.35,-50.28 263.08,-54.88"/>
<polygon fill="#63b8ff" stroke="#63b8ff" points="317.59,-43.11 326.26,-37.03 315.69,-36.38 317.59,-43.11"/>
</a>
</g>
</g>
<!-- Node4 -->
<g id="Node000004" class="node">
<title>Node4</title>
<g id="a_Node000004"><a xlink:href="m__start__up_8fpp_8f90.html#adf1f9241f0635f38fe245fc5dfb9f12a" target="_top" xlink:title=" ">
<polygon fill="white" stroke="#666666" points="286,-37 170,-37 170,-18 286,-18 286,-37"/>
<text text-anchor="middle" x="228" y="-25" font-family="Helvetica,sans-Serif" font-size="10.00">s_initialize_modules</text>
</a>
</g>
</g>
<!-- Node3&#45;&gt;Node4 -->
<g id="edge4_Node000003_Node000004" class="edge">
<title>Node3&#45;&gt;Node4</title>
<g id="a_edge4_Node000003_Node000004"><a xlink:title=" ">
<path fill="none" stroke="#63b8ff" d="M311.51,-27.5C303.21,-27.5 294.53,-27.5 286.04,-27.5"/>
<polygon fill="#63b8ff" stroke="#63b8ff" points="311.76,-31 321.76,-27.5 311.76,-24 311.76,-31"/>
</a>
</g>
</g>
<!-- Node5 -->
<g id="Node000005" class="node">
<title>Node5</title>
<g id="a_Node000005"><a xlink:href="m__start__up_8fpp_8f90.html#ac09c216e540601049a819ae5b76091b5" target="_top" xlink:title=" ">
<polygon fill="white" stroke="#666666" points="134,-56 0,-56 0,-37 134,-37 134,-56"/>
<text text-anchor="middle" x="67" y="-44" font-family="Helvetica,sans-Serif" font-size="10.00">__m_start_up_fpp_f90__</text>
</a>
</g>
</g>
<!-- Node4&#45;&gt;Node5 -->
<g id="edge5_Node000004_Node000005" class="edge">
<title>Node4&#45;&gt;Node5</title>
<g id="a_edge5_Node000004_Node000005"><a xlink:title=" ">
<path fill="none" stroke="#63b8ff" d="M159.5,-35.57C151.14,-36.57 142.59,-37.59 134.24,-38.59"/>
<polygon fill="#63b8ff" stroke="#63b8ff" points="160.08,-39.02 169.6,-34.36 159.25,-32.07 160.08,-39.02"/>
</a>
</g>
</g>
<!-- Node6 -->
<g id="Node000006" class="node">
<title>Node6</title>
<g id="a_Node000006"><a xlink:href="p__main_8fpp_8f90.html#aeec10ee8e2940c953967da3e374e1579" target="_top" xlink:title="Quasi&#45;conservative, shock&#45; and interface&#45; capturing finite&#45;volume scheme for the multicomponent Navie...">
<polygon fill="white" stroke="#666666" points="93.5,-19 40.5,-19 40.5,0 93.5,0 93.5,-19"/>
<text text-anchor="middle" x="67" y="-7" font-family="Helvetica,sans-Serif" font-size="10.00">p_main</text>
</a>
</g>
</g>
<!-- Node4&#45;&gt;Node6 -->
<g id="edge6_Node000004_Node000006" class="edge">
<title>Node4&#45;&gt;Node6</title>
<g id="a_edge6_Node000004_Node000006"><a xlink:title=" ">
<path fill="none" stroke="#63b8ff" d="M159.41,-19.85C136.19,-17.22 111.59,-14.44 93.77,-12.42"/>
<polygon fill="#63b8ff" stroke="#63b8ff" points="159.27,-23.35 169.6,-21 160.05,-16.4 159.27,-23.35"/>
</a>
</g>
</g>
</g>
</svg>
