<?xml version="1.0" encoding="UTF-8" standalone="no"?>
<!DOCTYPE svg PUBLIC "-//W3C//DTD SVG 1.1//EN"
 "http://www.w3.org/Graphics/SVG/1.1/DTD/svg11.dtd">
<!-- Generated by graphviz version 2.43.0 (0)
 -->
<!-- Title: s_ibm_setup Pages: 1 -->
<svg width="271pt" height="187pt"
 viewBox="0.00 0.00 271.00 187.00" xmlns="http://www.w3.org/2000/svg" xmlns:xlink="http://www.w3.org/1999/xlink">

<svg id="main" version="1.1" xmlns="http://www.w3.org/2000/svg" xmlns:xlink="http://www.w3.org/1999/xlink" xml:space="preserve">

<style type="text/css"><![CDATA[
.node, .edge {opacity: 0.7;}
.node.selected, .edge.selected {opacity: 1;}
.edge:hover path { stroke: red; }
.edge:hover polygon { stroke: red; fill: red; }
]]></style>
<script type="application/ecmascript" xlink:href="svg.min.js"/>
<svg id="graph" class="graph">
<g id="graph0" class="graph" transform="scale(1 1) rotate(0) translate(4 183)">
<title>s_ibm_setup</title>
<!-- Node1 -->
<g id="Node000001" class="node">
<title>Node1</title>
<g id="a_Node000001"><a xlink:title="Initializes the values of various IBM variables, such as ghost points and image points.">
<polygon fill="#999999" stroke="#666666" points="78,-93 0,-93 0,-74 78,-74 78,-93"/>
<text text-anchor="middle" x="39" y="-81" font-family="Helvetica,sans-Serif" font-size="10.00">s_ibm_setup</text>
</a>
</g>
</g>
<!-- Node2 -->
<g id="Node000002" class="node">
<title>Node2</title>
<g id="a_Node000002"><a xlink:href="m__ibm_8fpp_8f90.html#ab10c046bf808fda8095608a5bbd7ea3a" target="_top" xlink:title="Function that computes the image points for each ghost point.">
<polygon fill="white" stroke="#666666" points="259,-179 118,-179 118,-160 259,-160 259,-179"/>
<text text-anchor="middle" x="188.5" y="-167" font-family="Helvetica,sans-Serif" font-size="10.00">s_compute_image_points</text>
</a>
</g>
</g>
<!-- Node1&#45;&gt;Node2 -->
<g id="edge1_Node000001_Node000002" class="edge">
<title>Node1&#45;&gt;Node2</title>
<g id="a_edge1_Node000001_Node000002"><a xlink:title=" ">
<path fill="none" stroke="#63b8ff" d="M48.02,-93.31C60.55,-107.98 86.23,-135.53 114,-150.5 118.27,-152.8 122.83,-154.84 127.52,-156.63"/>
<polygon fill="#63b8ff" stroke="#63b8ff" points="126.64,-160.03 137.24,-159.98 128.93,-153.41 126.64,-160.03"/>
</a>
</g>
</g>
<!-- Node3 -->
<g id="Node000003" class="node">
<title>Node3</title>
<g id="a_Node000003"><a xlink:href="m__ibm_8fpp_8f90.html#ae5e5dbd6e5fd9fce77633f4c556b642f" target="_top" xlink:title="Function that computes the interpolation coefficients of image points.">
<polygon fill="white" stroke="#666666" points="257,-141.5 120,-141.5 120,-111.5 257,-111.5 257,-141.5"/>
<text text-anchor="start" x="128" y="-129.5" font-family="Helvetica,sans-Serif" font-size="10.00">s_compute_interpolation</text>
<text text-anchor="middle" x="188.5" y="-118.5" font-family="Helvetica,sans-Serif" font-size="10.00">_coeffs</text>
</a>
</g>
</g>
<!-- Node1&#45;&gt;Node3 -->
<g id="edge2_Node000001_Node000003" class="edge">
<title>Node1&#45;&gt;Node3</title>
<g id="a_edge2_Node000001_Node000003"><a xlink:title=" ">
<path fill="none" stroke="#63b8ff" d="M72.74,-93.04C88.49,-97.64 107.91,-103.3 126.26,-108.65"/>
<polygon fill="#63b8ff" stroke="#63b8ff" points="125.44,-112.06 136.02,-111.49 127.4,-105.33 125.44,-112.06"/>
</a>
</g>
</g>
<!-- Node4 -->
<g id="Node000004" class="node">
<title>Node4</title>
<g id="a_Node000004"><a xlink:href="m__ibm_8fpp_8f90.html#a896584b6529220ac1efb9491c86ffa69" target="_top" xlink:title="Function that finds the ghost points.">
<polygon fill="white" stroke="#666666" points="245,-93 132,-93 132,-74 245,-74 245,-93"/>
<text text-anchor="middle" x="188.5" y="-81" font-family="Helvetica,sans-Serif" font-size="10.00">s_find_ghost_points</text>
</a>
</g>
</g>
<!-- Node1&#45;&gt;Node4 -->
<g id="edge3_Node000001_Node000004" class="edge">
<title>Node1&#45;&gt;Node4</title>
<g id="a_edge3_Node000001_Node000004"><a xlink:title=" ">
<path fill="none" stroke="#63b8ff" d="M78.37,-83.5C91.62,-83.5 106.86,-83.5 121.67,-83.5"/>
<polygon fill="#63b8ff" stroke="#63b8ff" points="121.82,-87 131.82,-83.5 121.82,-80 121.82,-87"/>
</a>
</g>
</g>
<!-- Node5 -->
<g id="Node000005" class="node">
<title>Node5</title>
<g id="a_Node000005"><a xlink:href="m__ibm_8fpp_8f90.html#a0dfaf84b4480d157bf038e9f47bd8418" target="_top" xlink:title="Function that finds the number of ghost points, used for allocating memory.">
<polygon fill="white" stroke="#666666" points="258.5,-56 118.5,-56 118.5,-37 258.5,-37 258.5,-56"/>
<text text-anchor="middle" x="188.5" y="-44" font-family="Helvetica,sans-Serif" font-size="10.00">s_find_num_ghost_points</text>
</a>
</g>
</g>
<!-- Node1&#45;&gt;Node5 -->
<g id="edge4_Node000001_Node000005" class="edge">
<title>Node1&#45;&gt;Node5</title>
<g id="a_edge4_Node000001_Node000005"><a xlink:title=" ">
<path fill="none" stroke="#63b8ff" d="M77.98,-73.97C96.75,-69.26 119.59,-63.53 139.55,-58.53"/>
<polygon fill="#63b8ff" stroke="#63b8ff" points="140.54,-61.89 149.39,-56.06 138.84,-55.1 140.54,-61.89"/>
</a>
</g>
</g>
<!-- Node6 -->
<g id="Node000006" class="node">
<title>Node6</title>
<g id="a_Node000006"><a xlink:href="m__mpi__proxy_8fpp_8f90.html#ab6a640edfad4140f4ea60b6f3daa156c" target="_top" xlink:title="The goal of this procedure is to populate the buffers of the cell&#45;average conservative variables by c...">
<polygon fill="white" stroke="#666666" points="263,-19 114,-19 114,0 263,0 263,-19"/>
<text text-anchor="middle" x="188.5" y="-7" font-family="Helvetica,sans-Serif" font-size="10.00">s_mpi_sendrecv_ib_buffers</text>
</a>
</g>
</g>
<!-- Node1&#45;&gt;Node6 -->
<g id="edge5_Node000001_Node000006" class="edge">
<title>Node1&#45;&gt;Node6</title>
<g id="a_edge5_Node000001_Node000006"><a xlink:title=" ">
<path fill="none" stroke="#63b8ff" d="M50.18,-73.88C63.72,-61.61 88.87,-40.52 114,-28.5 118.98,-26.12 124.3,-24.01 129.71,-22.14"/>
<polygon fill="#63b8ff" stroke="#63b8ff" points="131.02,-25.4 139.49,-19.05 128.9,-18.73 131.02,-25.4"/>
</a>
</g>
</g>
</g>
</svg>
</svg>

<style type='text/css'>
<![CDATA[
[data-mouse-over-selected='false'] { opacity: 0.7; }
[data-mouse-over-selected='true']  { opacity: 1.0; }
]]>
</style>
<script type="application/ecmascript"><![CDATA[
document.addEventListener('DOMContentLoaded', (event) => {
  highlightEdges();
  highlightAdjacentNodes();
});
]]></script>
</svg>
