<?xml version="1.0" encoding="UTF-8" standalone="no"?>
<!DOCTYPE svg PUBLIC "-//W3C//DTD SVG 1.1//EN"
 "http://www.w3.org/Graphics/SVG/1.1/DTD/svg11.dtd">
<!-- Generated by graphviz version 2.43.0 (0)
 -->
<!-- Title: __m_ibm_fpp_f90__ Pages: 1 -->
<!--zoomable 406 -->

<svg id="main" version="1.1" xmlns="http://www.w3.org/2000/svg" xmlns:xlink="http://www.w3.org/1999/xlink" xml:space="preserve" onload="init(evt)">

<style type="text/css"><![CDATA[
.node, .edge {opacity: 0.7;}
.node.selected, .edge.selected {opacity: 1;}
.edge:hover path { stroke: red; }
.edge:hover polygon { stroke: red; fill: red; }
]]></style>

<defs>
  <circle id="rim" cx="0" cy="0" r="7"/>
  <circle id="rim2" cx="0" cy="0" r="3.5"/>
  <g id="zoomPlus">
    <use xlink:href="#rim" fill="#404040"><set attributeName="fill" to="#808080" begin="zoomplus.mouseover" end="zoomplus.mouseout"/></use>
    <path d="M-4,0h8M0,-4v8" fill="none" stroke="white" stroke-width="1.5" pointer-events="none"/>
  </g>
  <g id="zoomMin">
    <use xlink:href="#rim" fill="#404040"><set attributeName="fill" to="#808080" begin="zoomminus.mouseover" end="zoomminus.mouseout"/></use>
    <path d="M-4,0h8" fill="none" stroke="white" stroke-width="1.5" pointer-events="none"/>
  </g>
  <g id="arrowUp" transform="translate(30 24)">
    <use xlink:href="#rim"/>
    <path pointer-events="none" fill="none" stroke="white" stroke-width="1.5" d="M0,-3.0v7 M-2.5,-0.5L0,-3.0L2.5,-0.5"/>
  </g>
  <g id="arrowRight" transform="rotate(90) translate(36 -43)">
    <use xlink:href="#rim"/>
    <path pointer-events="none" fill="none" stroke="white" stroke-width="1.5" d="M0,-3.0v7 M-2.5,-0.5L0,-3.0L2.5,-0.5"/>
  </g>
  <g id="arrowDown" transform="rotate(180) translate(-30 -48)">
    <use xlink:href="#rim"/>
    <path pointer-events="none" fill="none" stroke="white" stroke-width="1.5" d="M0,-3.0v7 M-2.5,-0.5L0,-3.0L2.5,-0.5"/>
  </g>
  <g id="arrowLeft" transform="rotate(270) translate(-36 17)">
    <use xlink:href="#rim"/>
    <path pointer-events="none" fill="none" stroke="white" stroke-width="1.5" d="M0,-3.0v7 M-2.5,-0.5L0,-3.0L2.5,-0.5"/>
  </g>
  <g id="resetDef">
    <use xlink:href="#rim2" fill="#404040"><set attributeName="fill" to="#808080" begin="reset.mouseover" end="reset.mouseout"/></use>
  </g>
</defs>
<script type="application/ecmascript">
var viewWidth = 692;
var viewHeight = 406;
var sectionId = 'dynsection-0';
</script>
<script type="application/ecmascript" xlink:href="svg.min.js"/>
<svg id="graph" class="graph">
<g id="viewport">
<title>__m_ibm_fpp_f90__</title>
<!-- Node1 -->
<g id="Node000001" class="node">
<title>Node1</title>
<g id="a_Node000001"><a xlink:title=" ">
<polygon fill="#999999" stroke="#666666" points="113,-216.5 0,-216.5 0,-197.5 113,-197.5 113,-216.5"/>
<text text-anchor="middle" x="56.5" y="-204.5" font-family="Helvetica,sans-Serif" font-size="10.00">__m_ibm_fpp_f90__</text>
</a>
</g>
</g>
<!-- Node2 -->
<g id="Node000002" class="node">
<title>Node2</title>
<g id="a_Node000002"><a xlink:href="m__ibm_8fpp_8f90.html#ab10c046bf808fda8095608a5bbd7ea3a" target="_top" xlink:title="Subroutine that computes that bubble wall pressure for Gilmore bubbles.">
<polygon fill="white" stroke="#666666" points="478.5,-397.5 337.5,-397.5 337.5,-378.5 478.5,-378.5 478.5,-397.5"/>
<text text-anchor="middle" x="408" y="-385.5" font-family="Helvetica,sans-Serif" font-size="10.00">s_compute_image_points</text>
</a>
</g>
</g>
<!-- Node1&#45;&gt;Node2 -->
<g id="edge1_Node000001_Node000002" class="edge">
<title>Node1&#45;&gt;Node2</title>
<g id="a_edge1_Node000001_Node000002"><a xlink:title=" ">
<path fill="none" stroke="#63b8ff" d="M60.49,-216.76C69.19,-243.4 97.25,-317.57 149,-351 201.67,-385.03 272.91,-393.06 327.19,-393.27"/>
<polygon fill="#63b8ff" stroke="#63b8ff" points="327.48,-396.76 337.46,-393.21 327.44,-389.76 327.48,-396.76"/>
</a>
</g>
</g>
<!-- Node3 -->
<g id="Node000003" class="node">
<title>Node3</title>
<g id="a_Node000003"><a xlink:href="m__ibm_8fpp_8f90.html#ae5e5dbd6e5fd9fce77633f4c556b642f" target="_top" xlink:title="Function that computes that bubble wall pressure for Gilmore bubbles.">
<polygon fill="white" stroke="#666666" points="476.5,-360 339.5,-360 339.5,-330 476.5,-330 476.5,-360"/>
<text text-anchor="start" x="347.5" y="-348" font-family="Helvetica,sans-Serif" font-size="10.00">s_compute_interpolation</text>
<text text-anchor="middle" x="408" y="-337" font-family="Helvetica,sans-Serif" font-size="10.00">_coeffs</text>
</a>
</g>
</g>
<!-- Node1&#45;&gt;Node3 -->
<g id="edge2_Node000001_Node000003" class="edge">
<title>Node1&#45;&gt;Node3</title>
<g id="a_edge2_Node000001_Node000003"><a xlink:title=" ">
<path fill="none" stroke="#63b8ff" d="M61.97,-216.84C72.98,-239.77 103.86,-296.71 149,-321 204.08,-350.63 275.44,-355.16 329.14,-353.11"/>
<polygon fill="#63b8ff" stroke="#63b8ff" points="329.47,-356.59 339.29,-352.63 329.14,-349.6 329.47,-356.59"/>
</a>
</g>
</g>
<!-- Node4 -->
<g id="Node000004" class="node">
<title>Node4</title>
<g id="a_Node000004"><a xlink:href="m__ibm_8fpp_8f90.html#ae04ac8b931829c6ea0845759e931fcd8" target="_top" xlink:title="Subroutine that computes that bubble wall pressure for Gilmore bubbles.">
<polygon fill="white" stroke="#666666" points="465,-274.5 351,-274.5 351,-255.5 465,-255.5 465,-274.5"/>
<text text-anchor="middle" x="408" y="-262.5" font-family="Helvetica,sans-Serif" font-size="10.00">s_compute_levelset</text>
</a>
</g>
</g>
<!-- Node1&#45;&gt;Node4 -->
<g id="edge3_Node000001_Node000004" class="edge">
<title>Node1&#45;&gt;Node4</title>
<g id="a_edge3_Node000001_Node000004"><a xlink:title=" ">
<path fill="none" stroke="#63b8ff" d="M91.62,-216.54C108.74,-221.08 129.86,-226.31 149,-230 213.7,-242.48 288.38,-252.1 340.69,-258.06"/>
<polygon fill="#63b8ff" stroke="#63b8ff" points="340.51,-261.57 350.84,-259.21 341.3,-254.61 340.51,-261.57"/>
</a>
</g>
</g>
<!-- Node11 -->
<g id="Node000011" class="node">
<title>Node11</title>
<g id="a_Node000011"><a xlink:href="m__ibm_8fpp_8f90.html#aeb09bc7ee7a99746175e016aef2cbbac" target="_top" xlink:title="Subroutine that computes that bubble wall pressure for Gilmore bubbles.">
<polygon fill="white" stroke="#666666" points="280.5,-159.5 152.5,-159.5 152.5,-140.5 280.5,-140.5 280.5,-159.5"/>
<text text-anchor="middle" x="216.5" y="-147.5" font-family="Helvetica,sans-Serif" font-size="10.00">s_finalize_ibm_module</text>
</a>
</g>
</g>
<!-- Node1&#45;&gt;Node11 -->
<g id="edge10_Node000001_Node000011" class="edge">
<title>Node1&#45;&gt;Node11</title>
<g id="a_edge10_Node000001_Node000011"><a xlink:title=" ">
<path fill="none" stroke="#63b8ff" d="M83.95,-197.46C110.04,-188.05 150.12,-173.59 179.19,-163.1"/>
<polygon fill="#63b8ff" stroke="#63b8ff" points="180.75,-166.26 188.97,-159.57 178.37,-159.67 180.75,-166.26"/>
</a>
</g>
</g>
<!-- Node12 -->
<g id="Node000012" class="node">
<title>Node12</title>
<g id="a_Node000012"><a xlink:href="m__ibm_8fpp_8f90.html#a896584b6529220ac1efb9491c86ffa69" target="_top" xlink:title=" ">
<polygon fill="white" stroke="#666666" points="464.5,-237.5 351.5,-237.5 351.5,-218.5 464.5,-218.5 464.5,-237.5"/>
<text text-anchor="middle" x="408" y="-225.5" font-family="Helvetica,sans-Serif" font-size="10.00">s_find_ghost_points</text>
</a>
</g>
</g>
<!-- Node1&#45;&gt;Node12 -->
<g id="edge11_Node000001_Node000012" class="edge">
<title>Node1&#45;&gt;Node12</title>
<g id="a_edge11_Node000001_Node000012"><a xlink:title=" ">
<path fill="none" stroke="#63b8ff" d="M113.27,-210.35C175.28,-214.08 275.37,-220.09 341.18,-224.04"/>
<polygon fill="#63b8ff" stroke="#63b8ff" points="341.24,-227.56 351.43,-224.66 341.66,-220.57 341.24,-227.56"/>
</a>
</g>
</g>
<!-- Node13 -->
<g id="Node000013" class="node">
<title>Node13</title>
<g id="a_Node000013"><a xlink:href="m__ibm_8fpp_8f90.html#a3b811d1e06ec46973d5abc8c3bed10cf" target="_top" xlink:title=" ">
<polygon fill="white" stroke="#666666" points="478,-200.5 338,-200.5 338,-181.5 478,-181.5 478,-200.5"/>
<text text-anchor="middle" x="408" y="-188.5" font-family="Helvetica,sans-Serif" font-size="10.00">s_find_num_ghost_points</text>
</a>
</g>
</g>
<!-- Node1&#45;&gt;Node13 -->
<g id="edge12_Node000001_Node000013" class="edge">
<title>Node1&#45;&gt;Node13</title>
<g id="a_edge12_Node000001_Node000013"><a xlink:title=" ">
<path fill="none" stroke="#63b8ff" d="M113.27,-204.45C171.16,-201.8 262.25,-197.63 327.64,-194.63"/>
<polygon fill="#63b8ff" stroke="#63b8ff" points="328.08,-198.12 337.91,-194.16 327.76,-191.12 328.08,-198.12"/>
</a>
</g>
</g>
<!-- Node14 -->
<g id="Node000014" class="node">
<title>Node14</title>
<g id="a_Node000014"><a xlink:href="m__ibm_8fpp_8f90.html#a0b20ed1582d1f5f4ae38eec9c90a1cd9" target="_top" xlink:title="Subroutine that updates the conservative variables at the ghost points.">
<polygon fill="white" stroke="#666666" points="274,-121.5 159,-121.5 159,-102.5 274,-102.5 274,-121.5"/>
<text text-anchor="middle" x="216.5" y="-109.5" font-family="Helvetica,sans-Serif" font-size="10.00">s_ibm_correct_state</text>
</a>
</g>
</g>
<!-- Node1&#45;&gt;Node14 -->
<g id="edge13_Node000001_Node000014" class="edge">
<title>Node1&#45;&gt;Node14</title>
<g id="a_edge13_Node000001_Node000014"><a xlink:title=" ">
<path fill="none" stroke="#63b8ff" d="M66.72,-197.27C82.26,-181.41 115.28,-149.96 149,-132 153.92,-129.38 159.24,-127.05 164.64,-125"/>
<polygon fill="#63b8ff" stroke="#63b8ff" points="166.11,-128.19 174.4,-121.59 163.8,-121.58 166.11,-128.19"/>
</a>
</g>
</g>
<!-- Node18 -->
<g id="Node000018" class="node">
<title>Node18</title>
<g id="a_Node000018"><a xlink:href="m__ibm_8fpp_8f90.html#a2013e83023a01da7ef83a6335e6c85a9" target="_top" xlink:title=" ">
<polygon fill="white" stroke="#666666" points="466,-30 350,-30 350,0 466,0 466,-30"/>
<text text-anchor="start" x="358" y="-18" font-family="Helvetica,sans-Serif" font-size="10.00">s_interpolate_image</text>
<text text-anchor="middle" x="408" y="-7" font-family="Helvetica,sans-Serif" font-size="10.00">_point</text>
</a>
</g>
</g>
<!-- Node1&#45;&gt;Node18 -->
<g id="edge26_Node000001_Node000018" class="edge">
<title>Node1&#45;&gt;Node18</title>
<g id="a_edge26_Node000001_Node000018"><a xlink:title=" ">
<path fill="none" stroke="#63b8ff" d="M62.5,-197.48C74.42,-175.71 106.72,-122.05 149,-94 201.04,-59.48 225.33,-76.4 284,-55 300.45,-49 303.51,-44.9 320,-39 326.44,-36.69 333.22,-34.48 340.03,-32.38"/>
<polygon fill="#63b8ff" stroke="#63b8ff" points="341.41,-35.62 349.99,-29.41 339.41,-28.92 341.41,-35.62"/>
</a>
</g>
</g>
<!-- Node19 -->
<g id="Node000019" class="node">
<title>Node19</title>
<g id="a_Node000019"><a xlink:href="m__ibm_8fpp_8f90.html#ada979b09d01452e081bd1ba25c977cdc" target="_top" xlink:title=" ">
<polygon fill="white" stroke="#666666" points="255.5,-311.5 177.5,-311.5 177.5,-292.5 255.5,-292.5 255.5,-311.5"/>
<text text-anchor="middle" x="216.5" y="-299.5" font-family="Helvetica,sans-Serif" font-size="10.00">s_ibm_setup</text>
</a>
</g>
</g>
<!-- Node1&#45;&gt;Node19 -->
<g id="edge18_Node000001_Node000019" class="edge">
<title>Node1&#45;&gt;Node19</title>
<g id="a_edge18_Node000001_Node000019"><a xlink:title=" ">
<path fill="none" stroke="#63b8ff" d="M67.71,-216.7C83.86,-231.6 116.76,-260.26 149,-278 156.57,-282.17 165.01,-285.86 173.27,-289.02"/>
<polygon fill="#63b8ff" stroke="#63b8ff" points="172.22,-292.36 182.82,-292.49 174.61,-285.78 172.22,-292.36"/>
</a>
</g>
</g>
<!-- Node21 -->
<g id="Node000021" class="node">
<title>Node21</title>
<g id="a_Node000021"><a xlink:href="m__ibm_8fpp_8f90.html#a8acc517630c2d133e6a9465509c97c85" target="_top" xlink:title="Initialize IBM module.">
<polygon fill="white" stroke="#666666" points="284,-45.5 149,-45.5 149,-26.5 284,-26.5 284,-45.5"/>
<text text-anchor="middle" x="216.5" y="-33.5" font-family="Helvetica,sans-Serif" font-size="10.00">s_initialize_ibm_module</text>
</a>
</g>
</g>
<!-- Node1&#45;&gt;Node21 -->
<g id="edge25_Node000001_Node000021" class="edge">
<title>Node1&#45;&gt;Node21</title>
<g id="a_edge25_Node000001_Node000021"><a xlink:title=" ">
<path fill="none" stroke="#63b8ff" d="M60.96,-197.21C70.66,-171.09 100.62,-99.14 149,-60 154.07,-55.9 159.91,-52.46 165.96,-49.6"/>
<polygon fill="#63b8ff" stroke="#63b8ff" points="167.73,-52.65 175.6,-45.55 165.02,-46.2 167.73,-52.65"/>
</a>
</g>
</g>
<!-- Node5 -->
<g id="Node000005" class="node">
<title>Node5</title>
<g id="a_Node000005"><a xlink:href="m__compute__levelset_8fpp_8f90.html#a1ff8677016235ff99d390323857c19fb" target="_top" xlink:title=" ">
<polygon fill="white" stroke="#666666" points="668.5,-381 547.5,-381 547.5,-351 668.5,-351 668.5,-381"/>
<text text-anchor="start" x="555.5" y="-369" font-family="Helvetica,sans-Serif" font-size="10.00">s_compute_3d_airfoil</text>
<text text-anchor="middle" x="608" y="-358" font-family="Helvetica,sans-Serif" font-size="10.00">_levelset</text>
</a>
</g>
</g>
<!-- Node4&#45;&gt;Node5 -->
<g id="edge4_Node000004_Node000005" class="edge">
<title>Node4&#45;&gt;Node5</title>
<g id="a_edge4_Node000004_Node000005"><a xlink:title=" ">
<path fill="none" stroke="#63b8ff" d="M465.14,-270.38C476.05,-273.26 486.91,-277.58 496,-284 520.78,-301.51 508.08,-323.34 532,-342 534.03,-343.58 536.16,-345.06 538.38,-346.44"/>
<polygon fill="#63b8ff" stroke="#63b8ff" points="536.81,-349.58 547.26,-351.31 540.18,-343.44 536.81,-349.58"/>
</a>
</g>
</g>
<!-- Node6 -->
<g id="Node000006" class="node">
<title>Node6</title>
<g id="a_Node000006"><a xlink:href="m__compute__levelset_8fpp_8f90.html#a4dd63309e73ebf54a6b342126ad6e483" target="_top" xlink:title=" ">
<polygon fill="white" stroke="#666666" points="682,-332.5 534,-332.5 534,-313.5 682,-313.5 682,-332.5"/>
<text text-anchor="middle" x="608" y="-320.5" font-family="Helvetica,sans-Serif" font-size="10.00">s_compute_airfoil_levelset</text>
</a>
</g>
</g>
<!-- Node4&#45;&gt;Node6 -->
<g id="edge5_Node000004_Node000006" class="edge">
<title>Node4&#45;&gt;Node6</title>
<g id="a_edge5_Node000004_Node000006"><a xlink:title=" ">
<path fill="none" stroke="#63b8ff" d="M465,-274.52C475.47,-277.05 486.2,-280.18 496,-284 513.26,-290.72 514.81,-298.1 532,-305 537.13,-307.06 542.55,-308.92 548.04,-310.6"/>
<polygon fill="#63b8ff" stroke="#63b8ff" points="547.36,-314.04 557.94,-313.41 549.28,-307.31 547.36,-314.04"/>
</a>
</g>
</g>
<!-- Node7 -->
<g id="Node000007" class="node">
<title>Node7</title>
<g id="a_Node000007"><a xlink:href="m__compute__levelset_8fpp_8f90.html#a060f59a74d2babc3ed73313dcc5d71c9" target="_top" xlink:title="Initialize IBM module.">
<polygon fill="white" stroke="#666666" points="681,-295.5 535,-295.5 535,-276.5 681,-276.5 681,-295.5"/>
<text text-anchor="middle" x="608" y="-283.5" font-family="Helvetica,sans-Serif" font-size="10.00">s_compute_circle_levelset</text>
</a>
</g>
</g>
<!-- Node4&#45;&gt;Node7 -->
<g id="edge6_Node000004_Node000007" class="edge">
<title>Node4&#45;&gt;Node7</title>
<g id="a_edge6_Node000004_Node000007"><a xlink:title=" ">
<path fill="none" stroke="#63b8ff" d="M465.21,-270.96C483.69,-272.92 504.64,-275.14 524.66,-277.27"/>
<polygon fill="#63b8ff" stroke="#63b8ff" points="524.39,-280.76 534.71,-278.33 525.13,-273.8 524.39,-280.76"/>
</a>
</g>
</g>
<!-- Node8 -->
<g id="Node000008" class="node">
<title>Node8</title>
<g id="a_Node000008"><a xlink:href="m__compute__levelset_8fpp_8f90.html#a31fb2e177fbcd602a98db464fdd9b89e" target="_top" xlink:title=" ">
<polygon fill="white" stroke="#666666" points="665,-258 551,-258 551,-228 665,-228 665,-258"/>
<text text-anchor="start" x="559" y="-246" font-family="Helvetica,sans-Serif" font-size="10.00">s_compute_cylinder</text>
<text text-anchor="middle" x="608" y="-235" font-family="Helvetica,sans-Serif" font-size="10.00">_levelset</text>
</a>
</g>
</g>
<!-- Node4&#45;&gt;Node8 -->
<g id="edge7_Node000004_Node000008" class="edge">
<title>Node4&#45;&gt;Node8</title>
<g id="a_edge7_Node000004_Node000008"><a xlink:title=" ">
<path fill="none" stroke="#63b8ff" d="M465.21,-258.75C488.82,-256.13 516.46,-253.06 541.03,-250.33"/>
<polygon fill="#63b8ff" stroke="#63b8ff" points="541.44,-253.81 550.99,-249.22 540.67,-246.85 541.44,-253.81"/>
</a>
</g>
</g>
<!-- Node9 -->
<g id="Node000009" class="node">
<title>Node9</title>
<g id="a_Node000009"><a xlink:href="m__compute__levelset_8fpp_8f90.html#ae85abb116c0a730a0ce3081a2f05761d" target="_top" xlink:title="Initialize IBM module.">
<polygon fill="white" stroke="#666666" points="668.5,-210 547.5,-210 547.5,-180 668.5,-180 668.5,-210"/>
<text text-anchor="start" x="555.5" y="-198" font-family="Helvetica,sans-Serif" font-size="10.00">s_compute_rectangle</text>
<text text-anchor="middle" x="608" y="-187" font-family="Helvetica,sans-Serif" font-size="10.00">_levelset</text>
</a>
</g>
</g>
<!-- Node4&#45;&gt;Node9 -->
<g id="edge8_Node000004_Node000009" class="edge">
<title>Node4&#45;&gt;Node9</title>
<g id="a_edge8_Node000004_Node000009"><a xlink:title=" ">
<path fill="none" stroke="#63b8ff" d="M465.44,-257.25C475.88,-254.73 486.48,-251.4 496,-247 514.4,-238.5 514.07,-228.46 532,-219 535.44,-217.19 539.04,-215.48 542.72,-213.88"/>
<polygon fill="#63b8ff" stroke="#63b8ff" points="544.05,-217.11 552.01,-210.11 541.42,-210.63 544.05,-217.11"/>
</a>
</g>
</g>
<!-- Node10 -->
<g id="Node000010" class="node">
<title>Node10</title>
<g id="a_Node000010"><a xlink:href="m__compute__levelset_8fpp_8f90.html#a7d56ae2993a959a227476a8c0d19e1d3" target="_top" xlink:title=" ">
<polygon fill="white" stroke="#666666" points="684,-161.5 532,-161.5 532,-142.5 684,-142.5 684,-161.5"/>
<text text-anchor="middle" x="608" y="-149.5" font-family="Helvetica,sans-Serif" font-size="10.00">s_compute_sphere_levelset</text>
</a>
</g>
</g>
<!-- Node4&#45;&gt;Node10 -->
<g id="edge9_Node000004_Node000010" class="edge">
<title>Node4&#45;&gt;Node10</title>
<g id="a_edge9_Node000004_Node000010"><a xlink:title=" ">
<path fill="none" stroke="#63b8ff" d="M465.24,-261.22C476.27,-258.41 487.15,-253.96 496,-247 525.38,-223.9 503.13,-194.74 532,-171 534.04,-169.32 536.21,-167.79 538.48,-166.39"/>
<polygon fill="#63b8ff" stroke="#63b8ff" points="540.39,-169.34 547.65,-161.62 537.16,-163.13 540.39,-169.34"/>
</a>
</g>
</g>
<!-- Node15 -->
<g id="Node000015" class="node">
<title>Node15</title>
<g id="a_Node000015"><a xlink:href="m__helper_8fpp_8f90.html#a308591c92e68d2500ea353807d1b388b" target="_top" xlink:title="Computes the bubble number density n from the primitive variables.">
<polygon fill="white" stroke="#666666" points="469,-163.5 347,-163.5 347,-144.5 469,-144.5 469,-163.5"/>
<text text-anchor="middle" x="408" y="-151.5" font-family="Helvetica,sans-Serif" font-size="10.00">s_comp_n_from_prim</text>
</a>
</g>
</g>
<!-- Node14&#45;&gt;Node15 -->
<g id="edge14_Node000014_Node000015" class="edge">
<title>Node14&#45;&gt;Node15</title>
<g id="a_edge14_Node000014_Node000015"><a xlink:title=" ">
<path fill="none" stroke="#63b8ff" d="M259.88,-121.57C278.34,-125.72 300.23,-130.62 320,-135 330.75,-137.38 342.25,-139.91 353.25,-142.31"/>
<polygon fill="#63b8ff" stroke="#63b8ff" points="352.66,-145.77 363.18,-144.48 354.15,-138.93 352.66,-145.77"/>
</a>
</g>
</g>
<!-- Node16 -->
<g id="Node000016" class="node">
<title>Node16</title>
<g id="a_Node000016"><a xlink:href="m__variables__conversion_8fpp_8f90.html#ad0657ad9f2f6277b10693e899ff84b68" target="_top" xlink:title=" ">
<polygon fill="white" stroke="#666666" points="474,-126 342,-126 342,-96 474,-96 474,-126"/>
<text text-anchor="start" x="350" y="-114" font-family="Helvetica,sans-Serif" font-size="10.00">s_convert_species_to</text>
<text text-anchor="middle" x="408" y="-103" font-family="Helvetica,sans-Serif" font-size="10.00">_mixture_variables_acc</text>
</a>
</g>
</g>
<!-- Node14&#45;&gt;Node16 -->
<g id="edge15_Node000014_Node000016" class="edge">
<title>Node14&#45;&gt;Node16</title>
<g id="a_edge15_Node000014_Node000016"><a xlink:title=" ">
<path fill="none" stroke="#63b8ff" d="M274.1,-111.7C292.13,-111.61 312.37,-111.5 331.51,-111.4"/>
<polygon fill="#63b8ff" stroke="#63b8ff" points="331.72,-114.9 341.71,-111.34 331.69,-107.9 331.72,-114.9"/>
</a>
</g>
</g>
<!-- Node17 -->
<g id="Node000017" class="node">
<title>Node17</title>
<g id="a_Node000017"><a xlink:href="m__variables__conversion_8fpp_8f90.html#a18920a8493fb62dd7bba5eefab778b31" target="_top" xlink:title=" ">
<polygon fill="white" stroke="#666666" points="496,-78 320,-78 320,-48 496,-48 496,-78"/>
<text text-anchor="start" x="328" y="-66" font-family="Helvetica,sans-Serif" font-size="10.00">s_convert_species_to</text>
<text text-anchor="middle" x="408" y="-55" font-family="Helvetica,sans-Serif" font-size="10.00">_mixture_variables_bubbles_acc</text>
</a>
</g>
</g>
<!-- Node14&#45;&gt;Node17 -->
<g id="edge16_Node000014_Node000017" class="edge">
<title>Node14&#45;&gt;Node17</title>
<g id="a_edge16_Node000014_Node000017"><a xlink:title=" ">
<path fill="none" stroke="#63b8ff" d="M254.49,-102.44C278.48,-96.23 310.46,-87.96 338.94,-80.6"/>
<polygon fill="#63b8ff" stroke="#63b8ff" points="340.04,-83.93 348.85,-78.04 338.29,-77.15 340.04,-83.93"/>
</a>
</g>
</g>
<!-- Node14&#45;&gt;Node18 -->
<g id="edge17_Node000014_Node000018" class="edge">
<title>Node14&#45;&gt;Node18</title>
<g id="a_edge17_Node000014_Node000018"><a xlink:title=" ">
<path fill="none" stroke="#63b8ff" d="M256.03,-102.41C265.74,-98.88 275.74,-94.17 284,-88 305.65,-71.82 297.74,-54.33 320,-39 326.12,-34.78 332.96,-31.31 340.04,-28.44"/>
<polygon fill="#63b8ff" stroke="#63b8ff" points="341.6,-31.6 349.81,-24.89 339.21,-25.02 341.6,-31.6"/>
</a>
</g>
</g>
<!-- Node19&#45;&gt;Node2 -->
<g id="edge19_Node000019_Node000002" class="edge">
<title>Node19&#45;&gt;Node2</title>
<g id="a_edge19_Node000019_Node000002"><a xlink:title=" ">
<path fill="none" stroke="#63b8ff" d="M229,-311.57C247.16,-326.18 284.12,-353.96 320,-369 326.13,-371.57 332.66,-373.81 339.27,-375.77"/>
<polygon fill="#63b8ff" stroke="#63b8ff" points="338.42,-379.16 348.99,-378.42 340.27,-372.41 338.42,-379.16"/>
</a>
</g>
</g>
<!-- Node19&#45;&gt;Node3 -->
<g id="edge20_Node000019_Node000003" class="edge">
<title>Node19&#45;&gt;Node3</title>
<g id="a_edge20_Node000019_Node000003"><a xlink:title=" ">
<path fill="none" stroke="#63b8ff" d="M255.85,-310.7C277.43,-315.6 305.14,-321.89 330.93,-327.74"/>
<polygon fill="#63b8ff" stroke="#63b8ff" points="330.17,-331.16 340.7,-329.96 331.72,-324.33 330.17,-331.16"/>
</a>
</g>
</g>
<!-- Node19&#45;&gt;Node4 -->
<g id="edge21_Node000019_Node000004" class="edge">
<title>Node19&#45;&gt;Node4</title>
<g id="a_edge21_Node000019_Node000004"><a xlink:title=" ">
<path fill="none" stroke="#63b8ff" d="M255.85,-294.51C282.37,-289.33 318.17,-282.34 348.27,-276.47"/>
<polygon fill="#63b8ff" stroke="#63b8ff" points="349.1,-279.87 358.24,-274.52 347.76,-273 349.1,-279.87"/>
</a>
</g>
</g>
<!-- Node19&#45;&gt;Node12 -->
<g id="edge22_Node000019_Node000012" class="edge">
<title>Node19&#45;&gt;Node12</title>
<g id="a_edge22_Node000019_Node000012"><a xlink:title=" ">
<path fill="none" stroke="#63b8ff" d="M232.17,-292.43C251.53,-280.21 287.04,-259.17 320,-247 327.06,-244.39 334.58,-242.09 342.13,-240.07"/>
<polygon fill="#63b8ff" stroke="#63b8ff" points="343.19,-243.41 352.03,-237.58 341.48,-236.62 343.19,-243.41"/>
</a>
</g>
</g>
<!-- Node19&#45;&gt;Node13 -->
<g id="edge23_Node000019_Node000013" class="edge">
<title>Node19&#45;&gt;Node13</title>
<g id="a_edge23_Node000019_Node000013"><a xlink:title=" ">
<path fill="none" stroke="#63b8ff" d="M225.12,-292.44C240.75,-273.51 278.5,-231.25 320,-210 324.61,-207.64 329.51,-205.57 334.53,-203.76"/>
<polygon fill="#63b8ff" stroke="#63b8ff" points="335.89,-207 344.32,-200.58 333.73,-200.34 335.89,-207"/>
</a>
</g>
</g>
<!-- Node20 -->
<g id="Node000020" class="node">
<title>Node20</title>
<g id="a_Node000020"><a xlink:href="m__mpi__proxy_8fpp_8f90.html#ab6a640edfad4140f4ea60b6f3daa156c" target="_top" xlink:title="The goal of this procedure is to populate the buffers of the cell&#45;average conservative variables by c...">
<polygon fill="white" stroke="#666666" points="482.5,-311.5 333.5,-311.5 333.5,-292.5 482.5,-292.5 482.5,-311.5"/>
<text text-anchor="middle" x="408" y="-299.5" font-family="Helvetica,sans-Serif" font-size="10.00">s_mpi_sendrecv_ib_buffers</text>
</a>
</g>
</g>
<!-- Node19&#45;&gt;Node20 -->
<g id="edge24_Node000019_Node000020" class="edge">
<title>Node19&#45;&gt;Node20</title>
<g id="a_edge24_Node000019_Node000020"><a xlink:title=" ">
<path fill="none" stroke="#63b8ff" d="M255.85,-302C275.34,-302 299.84,-302 323.41,-302"/>
<polygon fill="#63b8ff" stroke="#63b8ff" points="323.44,-305.5 333.44,-302 323.44,-298.5 323.44,-305.5"/>
</a>
</g>
</g>
</g>
</svg>

<g id="navigator" transform="translate(0 0)" fill="#404254">
  <rect fill="#f2f5e9" fill-opacity="0.5" stroke="#606060" stroke-width=".5" x="0" y="0" width="60" height="60"/>
  <use id="zoomplus" xlink:href="#zoomPlus" x="17" y="9" onmousedown="handleZoom(evt,'in')"/>
  <use id="zoomminus" xlink:href="#zoomMin" x="42" y="9" onmousedown="handleZoom(evt,'out')"/>
  <use id="reset" xlink:href="#resetDef" x="30" y="36" onmousedown="handleReset()"/>
   <use id="arrowup" xlink:href="#arrowUp" x="0" y="0" onmousedown="handlePan(0,-1)"/>
  <use id="arrowright" xlink:href="#arrowRight" x="0" y="0" onmousedown="handlePan(1,0)"/>
  <use id="arrowdown" xlink:href="#arrowDown" x="0" y="0" onmousedown="handlePan(0,1)"/>
  <use id="arrowleft" xlink:href="#arrowLeft" x="0" y="0" onmousedown="handlePan(-1,0)"/>
</g>
<svg viewBox="0 0 15 15" width="100%" height="30px" preserveAspectRatio="xMaxYMin meet">
 <g id="arrow_out" transform="scale(0.3 0.3)">
  <a xlink:href="m__ibm_8fpp_8f90_a14139c4e3e797db72a4838fd987fb8dd_cgraph_org.svg" target="_base">
   <rect id="button" ry="5" rx="5" y="6" x="6" height="38" width="38"
        fill="#f2f5e9" fill-opacity="0.5" stroke="#606060" stroke-width="1.0"/>
   <path id="arrow"
     d="M 11.500037,31.436501 C 11.940474,20.09759 22.043105,11.32322 32.158766,21.979434 L 37.068811,17.246167 C 37.068811,17.246167 37.088388,32 37.088388,32 L 22.160133,31.978069 C 22.160133,31.978069 26.997745,27.140456 26.997745,27.140456 C 18.528582,18.264221 13.291696,25.230495 11.500037,31.436501 z"
     style="fill:#404040;"/>
  </a>
 </g>
</svg>

<style type='text/css'>
<![CDATA[
[data-mouse-over-selected='false'] { opacity: 0.7; }
[data-mouse-over-selected='true']  { opacity: 1.0; }
]]>
</style>
<script type="application/ecmascript"><![CDATA[
document.addEventListener('DOMContentLoaded', (event) => {
  highlightEdges();
  highlightAdjacentNodes();
});
]]></script>
</svg>
