<?xml version="1.0" encoding="UTF-8" standalone="no"?>
<!DOCTYPE svg PUBLIC "-//W3C//DTD SVG 1.1//EN"
 "http://www.w3.org/Graphics/SVG/1.1/DTD/svg11.dtd">
<!-- Generated by graphviz version 2.43.0 (0)
 -->
<!-- Title: s_interpolate_image_point Pages: 1 -->
<svg width="898pt" height="178pt"
 viewBox="0.00 0.00 898.00 178.00" xmlns="http://www.w3.org/2000/svg" xmlns:xlink="http://www.w3.org/1999/xlink">
<g id="graph0" class="graph" transform="scale(1 1) rotate(0) translate(4 174)">
<title>s_interpolate_image_point</title>
<!-- Node1 -->
<g id="Node000001" class="node">
<title>Node1</title>
<g id="a_Node000001"><a xlink:title="Function that uses the interpolation coefficients and the current state at the cell centers in order ...">
<polygon fill="#999999" stroke="#666666" points="890,-156.5 774,-156.5 774,-126.5 890,-126.5 890,-156.5"/>
<text text-anchor="start" x="782" y="-144.5" font-family="Helvetica,sans-Serif" font-size="10.00">s_interpolate_image</text>
<text text-anchor="middle" x="832" y="-133.5" font-family="Helvetica,sans-Serif" font-size="10.00">_point</text>
</a>
</g>
</g>
<!-- Node2 -->
<g id="Node000002" class="node">
<title>Node2</title>
<g id="a_Node000002"><a xlink:href="m__ibm_8fpp_8f90.html#a14139c4e3e797db72a4838fd987fb8dd" target="_top" xlink:title=" ">
<polygon fill="white" stroke="#666666" points="587,-170 474,-170 474,-151 587,-151 587,-170"/>
<text text-anchor="middle" x="530.5" y="-158" font-family="Helvetica,sans-Serif" font-size="10.00">__m_ibm_fpp_f90__</text>
</a>
</g>
</g>
<!-- Node1&#45;&gt;Node2 -->
<g id="edge1_Node000001_Node000002" class="edge">
<title>Node1&#45;&gt;Node2</title>
<g id="a_edge1_Node000001_Node000002"><a xlink:title=" ">
<path fill="none" stroke="#63b8ff" d="M763.93,-145.76C710.66,-149.13 637.07,-153.8 587.06,-156.98"/>
<polygon fill="#63b8ff" stroke="#63b8ff" points="764.2,-149.24 773.96,-145.12 763.76,-142.26 764.2,-149.24"/>
</a>
</g>
</g>
<!-- Node3 -->
<g id="Node000003" class="node">
<title>Node3</title>
<g id="a_Node000003"><a xlink:href="m__ibm_8fpp_8f90.html#a76651f99bfc98a15dfb4ebb1a4ad1350" target="_top" xlink:title="Subroutine that updates the conservative variables at the ghost points.">
<polygon fill="white" stroke="#666666" points="738,-132 623,-132 623,-113 738,-113 738,-132"/>
<text text-anchor="middle" x="680.5" y="-120" font-family="Helvetica,sans-Serif" font-size="10.00">s_ibm_correct_state</text>
</a>
</g>
</g>
<!-- Node1&#45;&gt;Node3 -->
<g id="edge2_Node000001_Node000003" class="edge">
<title>Node1&#45;&gt;Node3</title>
<g id="a_edge2_Node000001_Node000003"><a xlink:title=" ">
<path fill="none" stroke="#63b8ff" d="M763.51,-132.92C755.15,-131.86 746.66,-130.78 738.47,-129.74"/>
<polygon fill="#63b8ff" stroke="#63b8ff" points="763.27,-136.42 773.63,-134.21 764.15,-129.48 763.27,-136.42"/>
</a>
</g>
</g>
<!-- Node3&#45;&gt;Node2 -->
<g id="edge3_Node000003_Node000002" class="edge">
<title>Node3&#45;&gt;Node2</title>
<g id="a_edge3_Node000003_Node000002"><a xlink:title=" ">
<path fill="none" stroke="#63b8ff" d="M632.33,-134.61C611.71,-139.9 587.89,-146.02 568.58,-150.98"/>
<polygon fill="#63b8ff" stroke="#63b8ff" points="633.34,-137.97 642.15,-132.09 631.6,-131.19 633.34,-137.97"/>
</a>
</g>
</g>
<!-- Node4 -->
<g id="Node000004" class="node">
<title>Node4</title>
<g id="a_Node000004"><a xlink:href="m__time__steppers_8fpp_8f90.html#a95dcf858eaba9951c12d4590ec467f62" target="_top" xlink:title="1st order TVD RK time&#45;stepping algorithm">
<polygon fill="white" stroke="#666666" points="436.5,-132 327.5,-132 327.5,-113 436.5,-113 436.5,-132"/>
<text text-anchor="middle" x="382" y="-120" font-family="Helvetica,sans-Serif" font-size="10.00">s_1st_order_tvd_rk</text>
</a>
</g>
</g>
<!-- Node3&#45;&gt;Node4 -->
<g id="edge4_Node000003_Node000004" class="edge">
<title>Node3&#45;&gt;Node4</title>
<g id="a_edge4_Node000003_Node000004"><a xlink:title=" ">
<path fill="none" stroke="#63b8ff" d="M612.66,-122.5C559.47,-122.5 486.02,-122.5 436.63,-122.5"/>
<polygon fill="#63b8ff" stroke="#63b8ff" points="612.68,-126 622.68,-122.5 612.68,-119 612.68,-126"/>
</a>
</g>
</g>
<!-- Node8 -->
<g id="Node000008" class="node">
<title>Node8</title>
<g id="a_Node000008"><a xlink:href="m__time__steppers_8fpp_8f90.html#a30504937d9153ef9e5d9990a8894e89a" target="_top" xlink:title="2nd order TVD RK time&#45;stepping algorithm">
<polygon fill="white" stroke="#666666" points="438,-95 326,-95 326,-76 438,-76 438,-95"/>
<text text-anchor="middle" x="382" y="-83" font-family="Helvetica,sans-Serif" font-size="10.00">s_2nd_order_tvd_rk</text>
</a>
</g>
</g>
<!-- Node3&#45;&gt;Node8 -->
<g id="edge8_Node000003_Node000008" class="edge">
<title>Node3&#45;&gt;Node8</title>
<g id="a_edge8_Node000003_Node000008"><a xlink:title=" ">
<path fill="none" stroke="#63b8ff" d="M612.43,-114.13C559.79,-107.56 487.41,-98.53 438.12,-92.38"/>
<polygon fill="#63b8ff" stroke="#63b8ff" points="612.33,-117.64 622.68,-115.41 613.19,-110.7 612.33,-117.64"/>
</a>
</g>
</g>
<!-- Node9 -->
<g id="Node000009" class="node">
<title>Node9</title>
<g id="a_Node000009"><a xlink:href="m__time__steppers_8fpp_8f90.html#aa54ad1694d32cfe180d81112527699e4" target="_top" xlink:title="3rd order TVD RK time&#45;stepping algorithm">
<polygon fill="white" stroke="#666666" points="585.5,-56 475.5,-56 475.5,-37 585.5,-37 585.5,-56"/>
<text text-anchor="middle" x="530.5" y="-44" font-family="Helvetica,sans-Serif" font-size="10.00">s_3rd_order_tvd_rk</text>
</a>
</g>
</g>
<!-- Node3&#45;&gt;Node9 -->
<g id="edge10_Node000003_Node000009" class="edge">
<title>Node3&#45;&gt;Node9</title>
<g id="a_edge10_Node000003_Node000009"><a xlink:title=" ">
<path fill="none" stroke="#63b8ff" d="M655.09,-107.86C636.65,-97.02 610.58,-82.19 587,-70.5 576.65,-65.37 564.95,-60.22 554.97,-56.01"/>
<polygon fill="#63b8ff" stroke="#63b8ff" points="653.34,-110.89 663.73,-112.97 656.9,-104.86 653.34,-110.89"/>
</a>
</g>
</g>
<!-- Node5 -->
<g id="Node000005" class="node">
<title>Node5</title>
<g id="a_Node000005"><a xlink:href="m__start__up_8fpp_8f90.html#a1f6993aab1d2776640192c044a461640" target="_top" xlink:title=" ">
<polygon fill="white" stroke="#666666" points="290,-76 170,-76 170,-57 290,-57 290,-76"/>
<text text-anchor="middle" x="230" y="-64" font-family="Helvetica,sans-Serif" font-size="10.00">s_perform_time_step</text>
</a>
</g>
</g>
<!-- Node4&#45;&gt;Node5 -->
<g id="edge5_Node000004_Node000005" class="edge">
<title>Node4&#45;&gt;Node5</title>
<g id="a_edge5_Node000004_Node000005"><a xlink:title=" ">
<path fill="none" stroke="#63b8ff" d="M341,-109.74C335.93,-108.03 330.83,-106.26 326,-104.5 301.12,-95.46 273.02,-84.07 253.88,-76.13"/>
<polygon fill="#63b8ff" stroke="#63b8ff" points="340.03,-113.11 350.62,-112.94 342.24,-106.47 340.03,-113.11"/>
</a>
</g>
</g>
<!-- Node6 -->
<g id="Node000006" class="node">
<title>Node6</title>
<g id="a_Node000006"><a xlink:href="m__start__up_8fpp_8f90.html#ac09c216e540601049a819ae5b76091b5" target="_top" xlink:title=" ">
<polygon fill="white" stroke="#666666" points="134,-95 0,-95 0,-76 134,-76 134,-95"/>
<text text-anchor="middle" x="67" y="-83" font-family="Helvetica,sans-Serif" font-size="10.00">__m_start_up_fpp_f90__</text>
</a>
</g>
</g>
<!-- Node5&#45;&gt;Node6 -->
<g id="edge6_Node000005_Node000006" class="edge">
<title>Node5&#45;&gt;Node6</title>
<g id="a_edge6_Node000005_Node000006"><a xlink:title=" ">
<path fill="none" stroke="#63b8ff" d="M159.99,-74.64C151.4,-75.66 142.64,-76.69 134.1,-77.7"/>
<polygon fill="#63b8ff" stroke="#63b8ff" points="160.44,-78.11 169.96,-73.47 159.62,-71.16 160.44,-78.11"/>
</a>
</g>
</g>
<!-- Node7 -->
<g id="Node000007" class="node">
<title>Node7</title>
<g id="a_Node000007"><a xlink:href="p__main_8fpp_8f90.html#aeec10ee8e2940c953967da3e374e1579" target="_top" xlink:title="Quasi&#45;conservative, shock&#45; and interface&#45; capturing finite&#45;volume scheme for the multicomponent Navie...">
<polygon fill="white" stroke="#666666" points="93.5,-58 40.5,-58 40.5,-39 93.5,-39 93.5,-58"/>
<text text-anchor="middle" x="67" y="-46" font-family="Helvetica,sans-Serif" font-size="10.00">p_main</text>
</a>
</g>
</g>
<!-- Node5&#45;&gt;Node7 -->
<g id="edge7_Node000005_Node000007" class="edge">
<title>Node5&#45;&gt;Node7</title>
<g id="a_edge7_Node000005_Node000007"><a xlink:title=" ">
<path fill="none" stroke="#63b8ff" d="M160.01,-58.79C136.53,-56.16 111.72,-53.39 93.78,-51.38"/>
<polygon fill="#63b8ff" stroke="#63b8ff" points="159.64,-62.27 169.96,-59.9 160.41,-55.31 159.64,-62.27"/>
</a>
</g>
</g>
<!-- Node8&#45;&gt;Node5 -->
<g id="edge9_Node000008_Node000005" class="edge">
<title>Node8&#45;&gt;Node5</title>
<g id="a_edge9_Node000008_Node000005"><a xlink:title=" ">
<path fill="none" stroke="#63b8ff" d="M315.98,-77.26C307.36,-76.17 298.55,-75.06 290.04,-73.98"/>
<polygon fill="#63b8ff" stroke="#63b8ff" points="315.64,-80.75 326,-78.53 316.52,-73.8 315.64,-80.75"/>
</a>
</g>
</g>
<!-- Node9&#45;&gt;Node5 -->
<g id="edge11_Node000009_Node000005" class="edge">
<title>Node9&#45;&gt;Node5</title>
<g id="a_edge11_Node000009_Node000005"><a xlink:title=" ">
<path fill="none" stroke="#63b8ff" d="M465.33,-50.8C413.32,-54.28 340.6,-59.16 290.02,-62.55"/>
<polygon fill="#63b8ff" stroke="#63b8ff" points="465.7,-54.28 475.44,-50.12 465.23,-47.3 465.7,-54.28"/>
</a>
</g>
</g>
<!-- Node10 -->
<g id="Node000010" class="node">
<title>Node10</title>
<g id="a_Node000010"><a xlink:href="m__time__steppers_8fpp_8f90.html#a5858523edfce42df32b2b0a8af54bc0e" target="_top" xlink:title="Strang splitting scheme with 3rd order TVD RK time&#45;stepping algorithm for the flux term and adaptive ...">
<polygon fill="white" stroke="#666666" points="433.5,-19 330.5,-19 330.5,0 433.5,0 433.5,-19"/>
<text text-anchor="middle" x="382" y="-7" font-family="Helvetica,sans-Serif" font-size="10.00">s_strang_splitting</text>
</a>
</g>
</g>
<!-- Node9&#45;&gt;Node10 -->
<g id="edge12_Node000009_Node000010" class="edge">
<title>Node9&#45;&gt;Node10</title>
<g id="a_edge12_Node000009_Node000010"><a xlink:title=" ">
<path fill="none" stroke="#63b8ff" d="M482.01,-34.51C462.2,-29.5 439.51,-23.77 420.85,-19.06"/>
<polygon fill="#63b8ff" stroke="#63b8ff" points="481.22,-37.92 491.77,-36.97 482.93,-31.13 481.22,-37.92"/>
</a>
</g>
</g>
<!-- Node10&#45;&gt;Node5 -->
<g id="edge13_Node000010_Node000005" class="edge">
<title>Node10&#45;&gt;Node5</title>
<g id="a_edge13_Node000010_Node000005"><a xlink:title=" ">
<path fill="none" stroke="#63b8ff" d="M346.26,-22.7C318.71,-33.17 280.88,-47.55 256.19,-56.93"/>
<polygon fill="#63b8ff" stroke="#63b8ff" points="347.79,-25.86 355.89,-19.04 345.3,-19.32 347.79,-25.86"/>
</a>
</g>
</g>
</g>
</svg>
