<?xml version="1.0" encoding="UTF-8" standalone="no"?>
<!DOCTYPE svg PUBLIC "-//W3C//DTD SVG 1.1//EN"
 "http://www.w3.org/Graphics/SVG/1.1/DTD/svg11.dtd">
<!-- Generated by graphviz version 2.43.0 (0)
 -->
<!-- Title: __m_ibm_fpp_f90__ Pages: 1 -->
<svg width="816pt" height="369pt"
 viewBox="0.00 0.00 816.00 368.50" xmlns="http://www.w3.org/2000/svg" xmlns:xlink="http://www.w3.org/1999/xlink">
<g id="graph0" class="graph" transform="scale(1 1) rotate(0) translate(4 364.5)">
<title>__m_ibm_fpp_f90__</title>
<!-- Node1 -->
<g id="Node000001" class="node">
<title>Node1</title>
<g id="a_Node000001"><a xlink:title=" ">
<polygon fill="#999999" stroke="#666666" points="113,-198.5 0,-198.5 0,-179.5 113,-179.5 113,-198.5"/>
<text text-anchor="middle" x="56.5" y="-186.5" font-family="Helvetica,sans-Serif" font-size="10.00">__m_ibm_fpp_f90__</text>
</a>
</g>
</g>
<!-- Node2 -->
<g id="Node000002" class="node">
<title>Node2</title>
<g id="a_Node000002"><a xlink:href="m__ibm_8fpp_8f90.html#afdefde7ed7a02d95cb04b774d4f6d148" target="_top" xlink:title="Function that computes the image points for each ghost point.">
<polygon fill="white" stroke="#666666" points="478.5,-360.5 337.5,-360.5 337.5,-341.5 478.5,-341.5 478.5,-360.5"/>
<text text-anchor="middle" x="408" y="-348.5" font-family="Helvetica,sans-Serif" font-size="10.00">s_compute_image_points</text>
</a>
</g>
</g>
<!-- Node1&#45;&gt;Node2 -->
<g id="edge1_Node000001_Node000002" class="edge">
<title>Node1&#45;&gt;Node2</title>
<g id="a_edge1_Node000001_Node000002"><a xlink:title=" ">
<path fill="none" stroke="#63b8ff" d="M61.53,-198.7C71.99,-222.54 102.45,-284.06 149,-312 202.55,-344.14 273.25,-352.98 327.09,-354.28"/>
<polygon fill="#63b8ff" stroke="#63b8ff" points="327.23,-357.79 337.28,-354.45 327.34,-350.79 327.23,-357.79"/>
</a>
</g>
</g>
<!-- Node4 -->
<g id="Node000004" class="node">
<title>Node4</title>
<g id="a_Node000004"><a xlink:href="m__ibm_8fpp_8f90.html#a66042b9836fcd2cd03f226fab7453b88" target="_top" xlink:title="Function that computes the interpolation coefficients of image points.">
<polygon fill="white" stroke="#666666" points="476.5,-323 339.5,-323 339.5,-293 476.5,-293 476.5,-323"/>
<text text-anchor="start" x="347.5" y="-311" font-family="Helvetica,sans-Serif" font-size="10.00">s_compute_interpolation</text>
<text text-anchor="middle" x="408" y="-300" font-family="Helvetica,sans-Serif" font-size="10.00">_coeffs</text>
</a>
</g>
</g>
<!-- Node1&#45;&gt;Node4 -->
<g id="edge3_Node000001_Node000004" class="edge">
<title>Node1&#45;&gt;Node4</title>
<g id="a_edge3_Node000001_Node000004"><a xlink:title=" ">
<path fill="none" stroke="#63b8ff" d="M63.36,-198.7C76.08,-218.73 108.35,-264.44 149,-284 205.17,-311.03 276.12,-315.83 329.4,-314.54"/>
<polygon fill="#63b8ff" stroke="#63b8ff" points="329.59,-318.04 339.47,-314.22 329.37,-311.04 329.59,-318.04"/>
</a>
</g>
</g>
<!-- Node5 -->
<g id="Node000005" class="node">
<title>Node5</title>
<g id="a_Node000005"><a xlink:href="m__ibm_8fpp_8f90.html#a8719aeab24673340469caef56f950df2" target="_top" xlink:title="Subroutine to deallocate memory reserved for the IBM module.">
<polygon fill="white" stroke="#666666" points="280.5,-160.5 152.5,-160.5 152.5,-141.5 280.5,-141.5 280.5,-160.5"/>
<text text-anchor="middle" x="216.5" y="-148.5" font-family="Helvetica,sans-Serif" font-size="10.00">s_finalize_ibm_module</text>
</a>
</g>
</g>
<!-- Node1&#45;&gt;Node5 -->
<g id="edge4_Node000001_Node000005" class="edge">
<title>Node1&#45;&gt;Node5</title>
<g id="a_edge4_Node000001_Node000005"><a xlink:title=" ">
<path fill="none" stroke="#63b8ff" d="M97.37,-179.41C118.22,-174.4 143.93,-168.21 166.04,-162.89"/>
<polygon fill="#63b8ff" stroke="#63b8ff" points="167.01,-166.26 175.92,-160.52 165.38,-159.46 167.01,-166.26"/>
</a>
</g>
</g>
<!-- Node6 -->
<g id="Node000006" class="node">
<title>Node6</title>
<g id="a_Node000006"><a xlink:href="m__ibm_8fpp_8f90.html#a39d6e07bdd98dcf3386b66b6949766e7" target="_top" xlink:title="Function that finds the ghost points.">
<polygon fill="white" stroke="#666666" points="464.5,-237.5 351.5,-237.5 351.5,-218.5 464.5,-218.5 464.5,-237.5"/>
<text text-anchor="middle" x="408" y="-225.5" font-family="Helvetica,sans-Serif" font-size="10.00">s_find_ghost_points</text>
</a>
</g>
</g>
<!-- Node1&#45;&gt;Node6 -->
<g id="edge5_Node000001_Node000006" class="edge">
<title>Node1&#45;&gt;Node6</title>
<g id="a_edge5_Node000001_Node000006"><a xlink:title=" ">
<path fill="none" stroke="#63b8ff" d="M113.08,-198.01C124.92,-199.78 137.36,-201.55 149,-203 214.2,-211.14 288.96,-218.13 341.16,-222.63"/>
<polygon fill="#63b8ff" stroke="#63b8ff" points="341.03,-226.13 351.29,-223.5 341.62,-219.16 341.03,-226.13"/>
</a>
</g>
</g>
<!-- Node7 -->
<g id="Node000007" class="node">
<title>Node7</title>
<g id="a_Node000007"><a xlink:href="m__ibm_8fpp_8f90.html#ae6341ae3ec16f2c3ec695c1db059efb2" target="_top" xlink:title="Function that finds the number of ghost points, used for allocating memory.">
<polygon fill="white" stroke="#666666" points="478,-200.5 338,-200.5 338,-181.5 478,-181.5 478,-200.5"/>
<text text-anchor="middle" x="408" y="-188.5" font-family="Helvetica,sans-Serif" font-size="10.00">s_find_num_ghost_points</text>
</a>
</g>
</g>
<!-- Node1&#45;&gt;Node7 -->
<g id="edge6_Node000001_Node000007" class="edge">
<title>Node1&#45;&gt;Node7</title>
<g id="a_edge6_Node000001_Node000007"><a xlink:title=" ">
<path fill="none" stroke="#63b8ff" d="M113.27,-189.32C171.16,-189.65 262.25,-190.17 327.64,-190.55"/>
<polygon fill="#63b8ff" stroke="#63b8ff" points="327.89,-194.05 337.91,-190.6 327.93,-187.05 327.89,-194.05"/>
</a>
</g>
</g>
<!-- Node8 -->
<g id="Node000008" class="node">
<title>Node8</title>
<g id="a_Node000008"><a xlink:href="m__ibm_8fpp_8f90.html#a76651f99bfc98a15dfb4ebb1a4ad1350" target="_top" xlink:title="Subroutine that updates the conservative variables at the ghost points.">
<polygon fill="white" stroke="#666666" points="274,-121.5 159,-121.5 159,-102.5 274,-102.5 274,-121.5"/>
<text text-anchor="middle" x="216.5" y="-109.5" font-family="Helvetica,sans-Serif" font-size="10.00">s_ibm_correct_state</text>
</a>
</g>
</g>
<!-- Node1&#45;&gt;Node8 -->
<g id="edge7_Node000001_Node000008" class="edge">
<title>Node1&#45;&gt;Node8</title>
<g id="a_edge7_Node000001_Node000008"><a xlink:title=" ">
<path fill="none" stroke="#63b8ff" d="M70.87,-179.37C88.2,-167.24 119.68,-146.36 149,-133 155.67,-129.96 162.89,-127.19 170.05,-124.72"/>
<polygon fill="#63b8ff" stroke="#63b8ff" points="171.29,-128 179.7,-121.55 169.1,-121.35 171.29,-128"/>
</a>
</g>
</g>
<!-- Node12 -->
<g id="Node000012" class="node">
<title>Node12</title>
<g id="a_Node000012"><a xlink:href="m__ibm_8fpp_8f90.html#a35d845ff62ca040bc52252344f339f71" target="_top" xlink:title="Function that uses the interpolation coefficients and the current state at the cell centers in order ...">
<polygon fill="white" stroke="#666666" points="466,-30 350,-30 350,0 466,0 466,-30"/>
<text text-anchor="start" x="358" y="-18" font-family="Helvetica,sans-Serif" font-size="10.00">s_interpolate_image</text>
<text text-anchor="middle" x="408" y="-7" font-family="Helvetica,sans-Serif" font-size="10.00">_point</text>
</a>
</g>
</g>
<!-- Node1&#45;&gt;Node12 -->
<g id="edge22_Node000001_Node000012" class="edge">
<title>Node1&#45;&gt;Node12</title>
<g id="a_edge22_Node000001_Node000012"><a xlink:title=" ">
<path fill="none" stroke="#63b8ff" d="M64.1,-179.32C77.69,-160.11 110.76,-117.06 149,-94 202.48,-61.75 225.33,-76.4 284,-55 300.45,-49 303.51,-44.9 320,-39 326.44,-36.69 333.22,-34.48 340.03,-32.38"/>
<polygon fill="#63b8ff" stroke="#63b8ff" points="341.41,-35.62 349.99,-29.41 339.41,-28.92 341.41,-35.62"/>
</a>
</g>
</g>
<!-- Node13 -->
<g id="Node000013" class="node">
<title>Node13</title>
<g id="a_Node000013"><a xlink:href="m__ibm_8fpp_8f90.html#a785766d9bbf5c71f0646c9b763364b17" target="_top" xlink:title="Initializes the values of various IBM variables, such as ghost points and image points.">
<polygon fill="white" stroke="#666666" points="255.5,-274.5 177.5,-274.5 177.5,-255.5 255.5,-255.5 255.5,-274.5"/>
<text text-anchor="middle" x="216.5" y="-262.5" font-family="Helvetica,sans-Serif" font-size="10.00">s_ibm_setup</text>
</a>
</g>
</g>
<!-- Node1&#45;&gt;Node13 -->
<g id="edge12_Node000001_Node000013" class="edge">
<title>Node1&#45;&gt;Node13</title>
<g id="a_edge12_Node000001_Node000013"><a xlink:title=" ">
<path fill="none" stroke="#63b8ff" d="M72.62,-198.66C90.43,-209.78 121.12,-228.16 149,-241 157.6,-244.96 167.05,-248.71 176.06,-252.02"/>
<polygon fill="#63b8ff" stroke="#63b8ff" points="175.01,-255.36 185.6,-255.43 177.36,-248.77 175.01,-255.36"/>
</a>
</g>
</g>
<!-- Node18 -->
<g id="Node000018" class="node">
<title>Node18</title>
<g id="a_Node000018"><a xlink:href="m__ibm_8fpp_8f90.html#a1b9d9fce949e23ae7dc7f45dcafcb085" target="_top" xlink:title="Allocates memory for the variables in the IBM module.">
<polygon fill="white" stroke="#666666" points="284,-45.5 149,-45.5 149,-26.5 284,-26.5 284,-45.5"/>
<text text-anchor="middle" x="216.5" y="-33.5" font-family="Helvetica,sans-Serif" font-size="10.00">s_initialize_ibm_module</text>
</a>
</g>
</g>
<!-- Node1&#45;&gt;Node18 -->
<g id="edge21_Node000001_Node000018" class="edge">
<title>Node1&#45;&gt;Node18</title>
<g id="a_edge21_Node000001_Node000018"><a xlink:title=" ">
<path fill="none" stroke="#63b8ff" d="M61.77,-179.39C72.78,-155.69 104.41,-93.9 149,-60 154.45,-55.86 160.68,-52.38 167.09,-49.48"/>
<polygon fill="#63b8ff" stroke="#63b8ff" points="168.61,-52.64 176.55,-45.62 165.97,-46.15 168.61,-52.64"/>
</a>
</g>
</g>
<!-- Node3 -->
<g id="Node000003" class="node">
<title>Node3</title>
<g id="a_Node000003"><a xlink:href="m__helper__basic_8fpp_8f90.html#a49aa1857cb519bdc6b35434fd1821cab" target="_top" xlink:title="This procedure checks if two floating point numbers of wp are within tolerance.">
<polygon fill="white" stroke="#666666" points="652.5,-360.5 560.5,-360.5 560.5,-341.5 652.5,-341.5 652.5,-360.5"/>
<text text-anchor="middle" x="606.5" y="-348.5" font-family="Helvetica,sans-Serif" font-size="10.00">f_approx_equal</text>
</a>
</g>
</g>
<!-- Node2&#45;&gt;Node3 -->
<g id="edge2_Node000002_Node000003" class="edge">
<title>Node2&#45;&gt;Node3</title>
<g id="a_edge2_Node000002_Node000003"><a xlink:title=" ">
<path fill="none" stroke="#63b8ff" d="M478.56,-351C502,-351 527.84,-351 550.05,-351"/>
<polygon fill="#63b8ff" stroke="#63b8ff" points="550.3,-354.5 560.3,-351 550.3,-347.5 550.3,-354.5"/>
</a>
</g>
</g>
<!-- Node9 -->
<g id="Node000009" class="node">
<title>Node9</title>
<g id="a_Node000009"><a xlink:href="m__helper_8fpp_8f90.html#a2536e07e927595e5ba80bcfa1e348b35" target="_top" xlink:title="Computes the bubble number density n from the primitive variables.">
<polygon fill="white" stroke="#666666" points="469,-163.5 347,-163.5 347,-144.5 469,-144.5 469,-163.5"/>
<text text-anchor="middle" x="408" y="-151.5" font-family="Helvetica,sans-Serif" font-size="10.00">s_comp_n_from_prim</text>
</a>
</g>
</g>
<!-- Node8&#45;&gt;Node9 -->
<g id="edge8_Node000008_Node000009" class="edge">
<title>Node8&#45;&gt;Node9</title>
<g id="a_edge8_Node000008_Node000009"><a xlink:title=" ">
<path fill="none" stroke="#63b8ff" d="M259.88,-121.57C278.34,-125.72 300.23,-130.62 320,-135 330.75,-137.38 342.25,-139.91 353.25,-142.31"/>
<polygon fill="#63b8ff" stroke="#63b8ff" points="352.66,-145.77 363.18,-144.48 354.15,-138.93 352.66,-145.77"/>
</a>
</g>
</g>
<!-- Node10 -->
<g id="Node000010" class="node">
<title>Node10</title>
<g id="a_Node000010"><a xlink:href="m__variables__conversion_8fpp_8f90.html#aa5f8e931d984a9c40ab86bc4ae041a78" target="_top" xlink:title=" ">
<polygon fill="white" stroke="#666666" points="474,-126 342,-126 342,-96 474,-96 474,-126"/>
<text text-anchor="start" x="350" y="-114" font-family="Helvetica,sans-Serif" font-size="10.00">s_convert_species_to</text>
<text text-anchor="middle" x="408" y="-103" font-family="Helvetica,sans-Serif" font-size="10.00">_mixture_variables_acc</text>
</a>
</g>
</g>
<!-- Node8&#45;&gt;Node10 -->
<g id="edge9_Node000008_Node000010" class="edge">
<title>Node8&#45;&gt;Node10</title>
<g id="a_edge9_Node000008_Node000010"><a xlink:title=" ">
<path fill="none" stroke="#63b8ff" d="M274.1,-111.7C292.13,-111.61 312.37,-111.5 331.51,-111.4"/>
<polygon fill="#63b8ff" stroke="#63b8ff" points="331.72,-114.9 341.71,-111.34 331.69,-107.9 331.72,-114.9"/>
</a>
</g>
</g>
<!-- Node11 -->
<g id="Node000011" class="node">
<title>Node11</title>
<g id="a_Node000011"><a xlink:href="m__variables__conversion_8fpp_8f90.html#a3ded0267ada306e49f8ce81cac422acb" target="_top" xlink:title=" ">
<polygon fill="white" stroke="#666666" points="496,-78 320,-78 320,-48 496,-48 496,-78"/>
<text text-anchor="start" x="328" y="-66" font-family="Helvetica,sans-Serif" font-size="10.00">s_convert_species_to</text>
<text text-anchor="middle" x="408" y="-55" font-family="Helvetica,sans-Serif" font-size="10.00">_mixture_variables_bubbles_acc</text>
</a>
</g>
</g>
<!-- Node8&#45;&gt;Node11 -->
<g id="edge10_Node000008_Node000011" class="edge">
<title>Node8&#45;&gt;Node11</title>
<g id="a_edge10_Node000008_Node000011"><a xlink:title=" ">
<path fill="none" stroke="#63b8ff" d="M254.49,-102.44C278.48,-96.23 310.46,-87.96 338.94,-80.6"/>
<polygon fill="#63b8ff" stroke="#63b8ff" points="340.04,-83.93 348.85,-78.04 338.29,-77.15 340.04,-83.93"/>
</a>
</g>
</g>
<!-- Node8&#45;&gt;Node12 -->
<g id="edge11_Node000008_Node000012" class="edge">
<title>Node8&#45;&gt;Node12</title>
<g id="a_edge11_Node000008_Node000012"><a xlink:title=" ">
<path fill="none" stroke="#63b8ff" d="M256.03,-102.41C265.74,-98.88 275.74,-94.17 284,-88 305.65,-71.82 297.74,-54.33 320,-39 326.12,-34.78 332.96,-31.31 340.04,-28.44"/>
<polygon fill="#63b8ff" stroke="#63b8ff" points="341.6,-31.6 349.81,-24.89 339.21,-25.02 341.6,-31.6"/>
</a>
</g>
</g>
<!-- Node13&#45;&gt;Node2 -->
<g id="edge13_Node000013_Node000002" class="edge">
<title>Node13&#45;&gt;Node2</title>
<g id="a_edge13_Node000013_Node000002"><a xlink:title=" ">
<path fill="none" stroke="#63b8ff" d="M229,-274.57C247.16,-289.18 284.12,-316.96 320,-332 326.13,-334.57 332.66,-336.81 339.27,-338.77"/>
<polygon fill="#63b8ff" stroke="#63b8ff" points="338.42,-342.16 348.99,-341.42 340.27,-335.41 338.42,-342.16"/>
</a>
</g>
</g>
<!-- Node13&#45;&gt;Node4 -->
<g id="edge14_Node000013_Node000004" class="edge">
<title>Node13&#45;&gt;Node4</title>
<g id="a_edge14_Node000013_Node000004"><a xlink:title=" ">
<path fill="none" stroke="#63b8ff" d="M255.85,-273.7C277.43,-278.6 305.14,-284.89 330.93,-290.74"/>
<polygon fill="#63b8ff" stroke="#63b8ff" points="330.17,-294.16 340.7,-292.96 331.72,-287.33 330.17,-294.16"/>
</a>
</g>
</g>
<!-- Node13&#45;&gt;Node6 -->
<g id="edge15_Node000013_Node000006" class="edge">
<title>Node13&#45;&gt;Node6</title>
<g id="a_edge15_Node000013_Node000006"><a xlink:title=" ">
<path fill="none" stroke="#63b8ff" d="M255.85,-257.51C282.37,-252.33 318.17,-245.34 348.27,-239.47"/>
<polygon fill="#63b8ff" stroke="#63b8ff" points="349.1,-242.87 358.24,-237.52 347.76,-236 349.1,-242.87"/>
</a>
</g>
</g>
<!-- Node13&#45;&gt;Node7 -->
<g id="edge16_Node000013_Node000007" class="edge">
<title>Node13&#45;&gt;Node7</title>
<g id="a_edge16_Node000013_Node000007"><a xlink:title=" ">
<path fill="none" stroke="#63b8ff" d="M232.17,-255.43C251.53,-243.21 287.04,-222.17 320,-210 327.06,-207.39 334.58,-205.09 342.13,-203.07"/>
<polygon fill="#63b8ff" stroke="#63b8ff" points="343.19,-206.41 352.03,-200.58 341.48,-199.62 343.19,-206.41"/>
</a>
</g>
</g>
<!-- Node14 -->
<g id="Node000014" class="node">
<title>Node14</title>
<g id="a_Node000014"><a xlink:href="m__ibm_8fpp_8f90.html#a8cd9d1ea1953598bb5b630ba51e998dd" target="_top" xlink:title=" ">
<polygon fill="white" stroke="#666666" points="469.5,-274.5 346.5,-274.5 346.5,-255.5 469.5,-255.5 469.5,-274.5"/>
<text text-anchor="middle" x="408" y="-262.5" font-family="Helvetica,sans-Serif" font-size="10.00">s_populate_ib_buffers</text>
</a>
</g>
</g>
<!-- Node13&#45;&gt;Node14 -->
<g id="edge17_Node000013_Node000014" class="edge">
<title>Node13&#45;&gt;Node14</title>
<g id="a_edge17_Node000013_Node000014"><a xlink:title=" ">
<path fill="none" stroke="#63b8ff" d="M255.85,-265C278.86,-265 308.86,-265 336.06,-265"/>
<polygon fill="#63b8ff" stroke="#63b8ff" points="336.32,-268.5 346.32,-265 336.32,-261.5 336.32,-268.5"/>
</a>
</g>
</g>
<!-- Node15 -->
<g id="Node000015" class="node">
<title>Node15</title>
<g id="a_Node000015"><a xlink:href="m__mpi__proxy_8fpp_8f90.html#afc71d28caae0f493daff12412a1b9898" target="_top" xlink:title=" ">
<polygon fill="white" stroke="#666666" points="681,-274.5 532,-274.5 532,-255.5 681,-255.5 681,-274.5"/>
<text text-anchor="middle" x="606.5" y="-262.5" font-family="Helvetica,sans-Serif" font-size="10.00">s_mpi_sendrecv_ib_buffers</text>
</a>
</g>
</g>
<!-- Node14&#45;&gt;Node15 -->
<g id="edge18_Node000014_Node000015" class="edge">
<title>Node14&#45;&gt;Node15</title>
<g id="a_edge18_Node000014_Node000015"><a xlink:title=" ">
<path fill="none" stroke="#63b8ff" d="M469.56,-265C486.06,-265 504.22,-265 521.76,-265"/>
<polygon fill="#63b8ff" stroke="#63b8ff" points="522,-268.5 532,-265 522,-261.5 522,-268.5"/>
</a>
</g>
</g>
<!-- Node16 -->
<g id="Node000016" class="node">
<title>Node16</title>
<g id="a_Node000016"><a xlink:href="m__helper_8fpp_8f90.html#a3772a85b78fdb5c5faf618951239db40" target="_top" xlink:title="This procedure converts logical to 1 or 0.">
<polygon fill="white" stroke="#666666" points="808,-293.5 717,-293.5 717,-274.5 808,-274.5 808,-293.5"/>
<text text-anchor="middle" x="762.5" y="-281.5" font-family="Helvetica,sans-Serif" font-size="10.00">f_logical_to_int</text>
</a>
</g>
</g>
<!-- Node15&#45;&gt;Node16 -->
<g id="edge19_Node000015_Node000016" class="edge">
<title>Node15&#45;&gt;Node16</title>
<g id="a_edge19_Node000015_Node000016"><a xlink:title=" ">
<path fill="none" stroke="#63b8ff" d="M681.34,-274.11C689.81,-275.16 698.33,-276.21 706.49,-277.21"/>
<polygon fill="#63b8ff" stroke="#63b8ff" points="706.24,-280.71 716.6,-278.46 707.1,-273.76 706.24,-280.71"/>
</a>
</g>
</g>
<!-- Node17 -->
<g id="Node000017" class="node">
<title>Node17</title>
<g id="a_Node000017"><a xlink:href="m__helper_8fpp_8f90.html#a3bf0ac9a78e2a4d169933fac708d1bec" target="_top" xlink:title="This procedure performs xor on lhs and rhs.">
<polygon fill="white" stroke="#666666" points="783,-256.5 742,-256.5 742,-237.5 783,-237.5 783,-256.5"/>
<text text-anchor="middle" x="762.5" y="-244.5" font-family="Helvetica,sans-Serif" font-size="10.00">f_xor</text>
</a>
</g>
</g>
<!-- Node15&#45;&gt;Node17 -->
<g id="edge20_Node000015_Node000017" class="edge">
<title>Node15&#45;&gt;Node17</title>
<g id="a_edge20_Node000015_Node000017"><a xlink:title=" ">
<path fill="none" stroke="#63b8ff" d="M681.34,-256.37C699.18,-254.28 717.25,-252.17 731.7,-250.48"/>
<polygon fill="#63b8ff" stroke="#63b8ff" points="732.46,-253.92 741.98,-249.28 731.65,-246.97 732.46,-253.92"/>
</a>
</g>
</g>
</g>
</svg>
