<?xml version="1.0" encoding="UTF-8" standalone="no"?>
<!DOCTYPE svg PUBLIC "-//W3C//DTD SVG 1.1//EN"
 "http://www.w3.org/Graphics/SVG/1.1/DTD/svg11.dtd">
<!-- Generated by graphviz version 2.43.0 (0)
 -->
<!-- Title: s_mpi_allreduce_sum Pages: 1 -->
<svg width="722pt" height="98pt"
 viewBox="0.00 0.00 722.00 97.50" xmlns="http://www.w3.org/2000/svg" xmlns:xlink="http://www.w3.org/1999/xlink">
<g id="graph0" class="graph" transform="scale(1 1) rotate(0) translate(4 93.5)">
<title>s_mpi_allreduce_sum</title>
<!-- Node1 -->
<g id="Node000001" class="node">
<title>Node1</title>
<g id="a_Node000001"><a xlink:title="The following subroutine takes the input local variable from all processors and reduces to the sum of...">
<polygon fill="#999999" stroke="#666666" points="714,-56.5 592,-56.5 592,-37.5 714,-37.5 714,-56.5"/>
<text text-anchor="middle" x="653" y="-44.5" font-family="Helvetica,sans-Serif" font-size="10.00">s_mpi_allreduce_sum</text>
</a>
</g>
</g>
<!-- Node2 -->
<g id="Node000002" class="node">
<title>Node2</title>
<g id="a_Node000002"><a xlink:href="namespacem__derived__variables.html#ac51a7dfab9a499e0b94524a65a833f65" target="_top" xlink:title="This subroutine is used together with the volume fraction model and when called upon,...">
<polygon fill="white" stroke="#666666" points="556,-84 410,-84 410,-54 556,-54 556,-84"/>
<text text-anchor="start" x="418" y="-72" font-family="Helvetica,sans-Serif" font-size="10.00">m_derived_variables</text>
<text text-anchor="middle" x="483" y="-61" font-family="Helvetica,sans-Serif" font-size="10.00">::s_derive_center_of_mass</text>
</a>
</g>
</g>
<!-- Node1&#45;&gt;Node2 -->
<g id="edge1_Node000001_Node000002" class="edge">
<title>Node1&#45;&gt;Node2</title>
<g id="a_edge1_Node000001_Node000002"><a xlink:title=" ">
<path fill="none" stroke="#63b8ff" d="M581.64,-56.21C573.19,-57.32 564.56,-58.45 556.09,-59.56"/>
<polygon fill="#63b8ff" stroke="#63b8ff" points="582.36,-59.65 591.82,-54.88 581.45,-52.71 582.36,-59.65"/>
</a>
</g>
</g>
<!-- Node6 -->
<g id="Node000006" class="node">
<title>Node6</title>
<g id="a_Node000006"><a xlink:href="m__data__output_8fpp_8f90.html#aefc508a7157b96fe6611e3874c97ee0b" target="_top" xlink:title="This writes a formatted data file for the flow probe information.">
<polygon fill="white" stroke="#666666" points="538,-35.5 428,-35.5 428,-16.5 538,-16.5 538,-35.5"/>
<text text-anchor="middle" x="483" y="-23.5" font-family="Helvetica,sans-Serif" font-size="10.00">s_write_probe_files</text>
</a>
</g>
</g>
<!-- Node1&#45;&gt;Node6 -->
<g id="edge5_Node000001_Node000006" class="edge">
<title>Node1&#45;&gt;Node6</title>
<g id="a_edge5_Node000001_Node000006"><a xlink:title=" ">
<path fill="none" stroke="#63b8ff" d="M581.84,-38.23C567.25,-36.41 552.08,-34.51 538.17,-32.77"/>
<polygon fill="#63b8ff" stroke="#63b8ff" points="581.47,-41.71 591.82,-39.48 582.33,-34.76 581.47,-41.71"/>
</a>
</g>
</g>
<!-- Node3 -->
<g id="Node000003" class="node">
<title>Node3</title>
<g id="a_Node000003"><a xlink:href="namespacem__derived__variables.html#a516a9808b3446b7b45029f6451d02b3f" target="_top" xlink:title="Writes coherent body information, communication files, and probes.">
<polygon fill="white" stroke="#666666" points="372.5,-89.5 253.5,-89.5 253.5,-48.5 372.5,-48.5 372.5,-89.5"/>
<text text-anchor="start" x="261.5" y="-77.5" font-family="Helvetica,sans-Serif" font-size="10.00">m_derived_variables</text>
<text text-anchor="start" x="261.5" y="-66.5" font-family="Helvetica,sans-Serif" font-size="10.00">::s_compute_derived</text>
<text text-anchor="middle" x="313" y="-55.5" font-family="Helvetica,sans-Serif" font-size="10.00">_variables</text>
</a>
</g>
</g>
<!-- Node2&#45;&gt;Node3 -->
<g id="edge2_Node000002_Node000003" class="edge">
<title>Node2&#45;&gt;Node3</title>
<g id="a_edge2_Node000002_Node000003"><a xlink:title=" ">
<path fill="none" stroke="#63b8ff" d="M399.58,-69C390.52,-69 381.44,-69 372.75,-69"/>
<polygon fill="#63b8ff" stroke="#63b8ff" points="399.78,-72.5 409.78,-69 399.78,-65.5 399.78,-72.5"/>
</a>
</g>
</g>
<!-- Node4 -->
<g id="Node000004" class="node">
<title>Node4</title>
<g id="a_Node000004"><a xlink:href="namespacem__start__up.html#aaaeff91a52af5b8f17ed9efed8ac17bd" target="_top" xlink:title=" ">
<polygon fill="white" stroke="#666666" points="216,-84 89,-84 89,-54 216,-54 216,-84"/>
<text text-anchor="start" x="97" y="-72" font-family="Helvetica,sans-Serif" font-size="10.00">m_start_up::s_perform</text>
<text text-anchor="middle" x="152.5" y="-61" font-family="Helvetica,sans-Serif" font-size="10.00">_time_step</text>
</a>
</g>
</g>
<!-- Node3&#45;&gt;Node4 -->
<g id="edge3_Node000003_Node000004" class="edge">
<title>Node3&#45;&gt;Node4</title>
<g id="a_edge3_Node000003_Node000004"><a xlink:title=" ">
<path fill="none" stroke="#63b8ff" d="M243.32,-69C234.27,-69 225.03,-69 216.08,-69"/>
<polygon fill="#63b8ff" stroke="#63b8ff" points="243.43,-72.5 253.43,-69 243.43,-65.5 243.43,-72.5"/>
</a>
</g>
</g>
<!-- Node5 -->
<g id="Node000005" class="node">
<title>Node5</title>
<g id="a_Node000005"><a xlink:href="p__main_8fpp_8f90.html#aeec10ee8e2940c953967da3e374e1579" target="_top" xlink:title="Quasi&#45;conservative, shock&#45; and interface&#45; capturing finite&#45;volume scheme for the multicomponent Navie...">
<polygon fill="white" stroke="#666666" points="53,-78.5 0,-78.5 0,-59.5 53,-59.5 53,-78.5"/>
<text text-anchor="middle" x="26.5" y="-66.5" font-family="Helvetica,sans-Serif" font-size="10.00">p_main</text>
</a>
</g>
</g>
<!-- Node4&#45;&gt;Node5 -->
<g id="edge4_Node000004_Node000005" class="edge">
<title>Node4&#45;&gt;Node5</title>
<g id="a_edge4_Node000004_Node000005"><a xlink:title=" ">
<path fill="none" stroke="#63b8ff" d="M78.77,-69C69.63,-69 60.81,-69 53.14,-69"/>
<polygon fill="#63b8ff" stroke="#63b8ff" points="78.77,-72.5 88.77,-69 78.77,-65.5 78.77,-72.5"/>
</a>
</g>
</g>
<!-- Node6&#45;&gt;Node3 -->
<g id="edge7_Node000006_Node000003" class="edge">
<title>Node6&#45;&gt;Node3</title>
<g id="a_edge7_Node000006_Node000003"><a xlink:title=" ">
<path fill="none" stroke="#63b8ff" d="M434.93,-38.05C415.6,-42.99 393.02,-48.78 372.63,-53.99"/>
<polygon fill="#63b8ff" stroke="#63b8ff" points="435.9,-41.41 444.72,-35.54 434.16,-34.63 435.9,-41.41"/>
</a>
</g>
</g>
<!-- Node7 -->
<g id="Node000007" class="node">
<title>Node7</title>
<g id="a_Node000007"><a xlink:href="m__data__output_8fpp_8f90.html#a979b8a2cf4215a8122fc461c0512dbba" target="_top" xlink:title=" ">
<polygon fill="white" stroke="#666666" points="374,-30 252,-30 252,0 374,0 374,-30"/>
<text text-anchor="start" x="260" y="-18" font-family="Helvetica,sans-Serif" font-size="10.00">__m_data_output_fpp</text>
<text text-anchor="middle" x="313" y="-7" font-family="Helvetica,sans-Serif" font-size="10.00">_f90__</text>
</a>
</g>
</g>
<!-- Node6&#45;&gt;Node7 -->
<g id="edge6_Node000006_Node000007" class="edge">
<title>Node6&#45;&gt;Node7</title>
<g id="a_edge6_Node000006_Node000007"><a xlink:title=" ">
<path fill="none" stroke="#63b8ff" d="M417.66,-21.79C403.35,-20.85 388.23,-19.86 374.09,-18.93"/>
<polygon fill="#63b8ff" stroke="#63b8ff" points="417.71,-25.3 427.92,-22.46 418.17,-18.31 417.71,-25.3"/>
</a>
</g>
</g>
</g>
</svg>
