<?xml version="1.0" encoding="UTF-8" standalone="no"?>
<!DOCTYPE svg PUBLIC "-//W3C//DTD SVG 1.1//EN"
 "http://www.w3.org/Graphics/SVG/1.1/DTD/svg11.dtd">
<!-- Generated by graphviz version 2.43.0 (0)
 -->
<!-- Title: s_mpi_allreduce_max Pages: 1 -->
<svg width="1088pt" height="249pt"
 viewBox="0.00 0.00 1088.00 248.50" xmlns="http://www.w3.org/2000/svg" xmlns:xlink="http://www.w3.org/1999/xlink">
<g id="graph0" class="graph" transform="scale(1 1) rotate(0) translate(4 244.5)">
<title>s_mpi_allreduce_max</title>
<!-- Node1 -->
<g id="Node000001" class="node">
<title>Node1</title>
<g id="a_Node000001"><a xlink:title="The following subroutine takes the input local variable from all processors and reduces to the maximu...">
<polygon fill="#999999" stroke="#666666" points="1080,-116.5 957,-116.5 957,-97.5 1080,-97.5 1080,-116.5"/>
<text text-anchor="middle" x="1018.5" y="-104.5" font-family="Helvetica,sans-Serif" font-size="10.00">s_mpi_allreduce_max</text>
</a>
</g>
</g>
<!-- Node2 -->
<g id="Node000002" class="node">
<title>Node2</title>
<g id="a_Node000002"><a xlink:href="m__data__output_8fpp_8f90.html#a0eb579b4fb6abd1205444045aff3e448" target="_top" xlink:title="This writes a formatted data file for the flow probe information.">
<polygon fill="white" stroke="#666666" points="921,-172.5 811,-172.5 811,-153.5 921,-153.5 921,-172.5"/>
<text text-anchor="middle" x="866" y="-160.5" font-family="Helvetica,sans-Serif" font-size="10.00">s_write_probe_files</text>
</a>
</g>
</g>
<!-- Node1&#45;&gt;Node2 -->
<g id="edge1_Node000001_Node000002" class="edge">
<title>Node1&#45;&gt;Node2</title>
<g id="a_edge1_Node000001_Node000002"><a xlink:title=" ">
<path fill="none" stroke="#63b8ff" d="M981.99,-120.21C954.52,-130.44 917.12,-144.35 892.53,-153.5"/>
<polygon fill="#63b8ff" stroke="#63b8ff" points="983.48,-123.39 991.63,-116.63 981.04,-116.83 983.48,-123.39"/>
</a>
</g>
</g>
<!-- Node8 -->
<g id="Node000008" class="node">
<title>Node8</title>
<g id="a_Node000008"><a xlink:href="m__bubbles__EL_8fpp_8f90.html#a82ac53d14e7909cec109938ddb1eeefb" target="_top" xlink:title="Subroutine that writes some useful statistics related to the volume fraction of the particles (void f...">
<polygon fill="white" stroke="#666666" points="918,-95.5 814,-95.5 814,-76.5 918,-76.5 918,-95.5"/>
<text text-anchor="middle" x="866" y="-83.5" font-family="Helvetica,sans-Serif" font-size="10.00">s_write_void_evol</text>
</a>
</g>
</g>
<!-- Node1&#45;&gt;Node8 -->
<g id="edge7_Node000001_Node000008" class="edge">
<title>Node1&#45;&gt;Node8</title>
<g id="a_edge7_Node000001_Node000008"><a xlink:title=" ">
<path fill="none" stroke="#63b8ff" d="M946.79,-97.13C937.2,-95.8 927.51,-94.44 918.35,-93.17"/>
<polygon fill="#63b8ff" stroke="#63b8ff" points="946.33,-100.6 956.72,-98.52 947.3,-93.67 946.33,-100.6"/>
</a>
</g>
</g>
<!-- Node3 -->
<g id="Node000003" class="node">
<title>Node3</title>
<g id="a_Node000003"><a xlink:href="m__data__output_8fpp_8f90.html#a979b8a2cf4215a8122fc461c0512dbba" target="_top" xlink:title=" ">
<polygon fill="white" stroke="#666666" points="763.5,-178 641.5,-178 641.5,-148 763.5,-148 763.5,-178"/>
<text text-anchor="start" x="649.5" y="-166" font-family="Helvetica,sans-Serif" font-size="10.00">__m_data_output_fpp</text>
<text text-anchor="middle" x="702.5" y="-155" font-family="Helvetica,sans-Serif" font-size="10.00">_f90__</text>
</a>
</g>
</g>
<!-- Node2&#45;&gt;Node3 -->
<g id="edge2_Node000002_Node000003" class="edge">
<title>Node2&#45;&gt;Node3</title>
<g id="a_edge2_Node000002_Node000003"><a xlink:title=" ">
<path fill="none" stroke="#63b8ff" d="M800.68,-163C788.48,-163 775.76,-163 763.7,-163"/>
<polygon fill="#63b8ff" stroke="#63b8ff" points="800.77,-166.5 810.77,-163 800.77,-159.5 800.77,-166.5"/>
</a>
</g>
</g>
<!-- Node4 -->
<g id="Node000004" class="node">
<title>Node4</title>
<g id="a_Node000004"><a xlink:href="namespacem__derived__variables.html#a516a9808b3446b7b45029f6451d02b3f" target="_top" xlink:title="Writes coherent body information, communication files, and probes.">
<polygon fill="white" stroke="#666666" points="445,-240.5 326,-240.5 326,-199.5 445,-199.5 445,-240.5"/>
<text text-anchor="start" x="334" y="-228.5" font-family="Helvetica,sans-Serif" font-size="10.00">m_derived_variables</text>
<text text-anchor="start" x="334" y="-217.5" font-family="Helvetica,sans-Serif" font-size="10.00">::s_compute_derived</text>
<text text-anchor="middle" x="385.5" y="-206.5" font-family="Helvetica,sans-Serif" font-size="10.00">_variables</text>
</a>
</g>
</g>
<!-- Node2&#45;&gt;Node4 -->
<g id="edge3_Node000002_Node000004" class="edge">
<title>Node2&#45;&gt;Node4</title>
<g id="a_edge3_Node000002_Node000004"><a xlink:title=" ">
<path fill="none" stroke="#63b8ff" d="M824.73,-175.36C809.31,-179.66 791.47,-184.13 775,-187 659.14,-207.21 521.59,-215.19 445.16,-218.23"/>
<polygon fill="#63b8ff" stroke="#63b8ff" points="825.82,-178.69 834.47,-172.57 823.9,-171.96 825.82,-178.69"/>
</a>
</g>
</g>
<!-- Node5 -->
<g id="Node000005" class="node">
<title>Node5</title>
<g id="a_Node000005"><a xlink:href="m__start__up_8fpp_8f90.html#a1f6993aab1d2776640192c044a461640" target="_top" xlink:title=" ">
<polygon fill="white" stroke="#666666" points="290,-123.5 170,-123.5 170,-104.5 290,-104.5 290,-123.5"/>
<text text-anchor="middle" x="230" y="-111.5" font-family="Helvetica,sans-Serif" font-size="10.00">s_perform_time_step</text>
</a>
</g>
</g>
<!-- Node4&#45;&gt;Node5 -->
<g id="edge4_Node000004_Node000005" class="edge">
<title>Node4&#45;&gt;Node5</title>
<g id="a_edge4_Node000004_Node000005"><a xlink:title=" ">
<path fill="none" stroke="#63b8ff" d="M340.2,-194.15C335.36,-191.14 330.55,-188.05 326,-185 295.21,-164.36 260.75,-137.65 243.01,-123.6"/>
<polygon fill="#63b8ff" stroke="#63b8ff" points="338.52,-197.23 348.87,-199.48 342.18,-191.26 338.52,-197.23"/>
</a>
</g>
</g>
<!-- Node6 -->
<g id="Node000006" class="node">
<title>Node6</title>
<g id="a_Node000006"><a xlink:href="m__start__up_8fpp_8f90.html#ac09c216e540601049a819ae5b76091b5" target="_top" xlink:title=" ">
<polygon fill="white" stroke="#666666" points="134,-123.5 0,-123.5 0,-104.5 134,-104.5 134,-123.5"/>
<text text-anchor="middle" x="67" y="-111.5" font-family="Helvetica,sans-Serif" font-size="10.00">__m_start_up_fpp_f90__</text>
</a>
</g>
</g>
<!-- Node5&#45;&gt;Node6 -->
<g id="edge5_Node000005_Node000006" class="edge">
<title>Node5&#45;&gt;Node6</title>
<g id="a_edge5_Node000005_Node000006"><a xlink:title=" ">
<path fill="none" stroke="#63b8ff" d="M159.71,-114C151.21,-114 142.55,-114 134.1,-114"/>
<polygon fill="#63b8ff" stroke="#63b8ff" points="159.96,-117.5 169.96,-114 159.96,-110.5 159.96,-117.5"/>
</a>
</g>
</g>
<!-- Node7 -->
<g id="Node000007" class="node">
<title>Node7</title>
<g id="a_Node000007"><a xlink:href="p__main_8fpp_8f90.html#aeec10ee8e2940c953967da3e374e1579" target="_top" xlink:title="Quasi&#45;conservative, shock&#45; and interface&#45; capturing finite&#45;volume scheme for the multicomponent Navie...">
<polygon fill="white" stroke="#666666" points="93.5,-86.5 40.5,-86.5 40.5,-67.5 93.5,-67.5 93.5,-86.5"/>
<text text-anchor="middle" x="67" y="-74.5" font-family="Helvetica,sans-Serif" font-size="10.00">p_main</text>
</a>
</g>
</g>
<!-- Node5&#45;&gt;Node7 -->
<g id="edge6_Node000005_Node000007" class="edge">
<title>Node5&#45;&gt;Node7</title>
<g id="a_edge6_Node000005_Node000007"><a xlink:title=" ">
<path fill="none" stroke="#63b8ff" d="M177.51,-102.17C149.56,-95.74 116.21,-88.08 93.72,-82.91"/>
<polygon fill="#63b8ff" stroke="#63b8ff" points="177.01,-105.64 187.54,-104.47 178.58,-98.82 177.01,-105.64"/>
</a>
</g>
</g>
<!-- Node9 -->
<g id="Node000009" class="node">
<title>Node9</title>
<g id="a_Node000009"><a xlink:href="m__time__steppers_8fpp_8f90.html#ac88fae0ccfd624140b3c9caf3c7f2dd0" target="_top" xlink:title="Bubble source part in Strang operator splitting scheme.">
<polygon fill="white" stroke="#666666" points="764,-76.5 641,-76.5 641,-57.5 764,-57.5 764,-76.5"/>
<text text-anchor="middle" x="702.5" y="-64.5" font-family="Helvetica,sans-Serif" font-size="10.00">s_adaptive_dt_bubble</text>
</a>
</g>
</g>
<!-- Node8&#45;&gt;Node9 -->
<g id="edge8_Node000008_Node000009" class="edge">
<title>Node8&#45;&gt;Node9</title>
<g id="a_edge8_Node000008_Node000009"><a xlink:title=" ">
<path fill="none" stroke="#63b8ff" d="M803.69,-78.79C790.74,-77.26 777.08,-75.66 764.15,-74.14"/>
<polygon fill="#63b8ff" stroke="#63b8ff" points="803.56,-82.3 813.9,-79.99 804.38,-75.34 803.56,-82.3"/>
</a>
</g>
</g>
<!-- Node11 -->
<g id="Node000011" class="node">
<title>Node11</title>
<g id="a_Node000011"><a xlink:href="m__bubbles__EL_8fpp_8f90.html#ae9c61f97e265490256edc6fbb5ff18ba" target="_top" xlink:title="The purpose of this procedure is to obtain the initial bubbles&#39; information.">
<polygon fill="white" stroke="#666666" points="763.5,-36.5 641.5,-36.5 641.5,-17.5 763.5,-17.5 763.5,-36.5"/>
<text text-anchor="middle" x="702.5" y="-24.5" font-family="Helvetica,sans-Serif" font-size="10.00">s_read_input_bubbles</text>
</a>
</g>
</g>
<!-- Node8&#45;&gt;Node11 -->
<g id="edge11_Node000008_Node000011" class="edge">
<title>Node8&#45;&gt;Node11</title>
<g id="a_edge11_Node000008_Node000011"><a xlink:title=" ">
<path fill="none" stroke="#63b8ff" d="M834.61,-72.15C817.32,-64.53 795.16,-55.19 775,-48 763.42,-43.87 750.59,-39.91 739.03,-36.57"/>
<polygon fill="#63b8ff" stroke="#63b8ff" points="833.61,-75.54 844.17,-76.41 836.46,-69.14 833.61,-75.54"/>
</a>
</g>
</g>
<!-- Node14 -->
<g id="Node000014" class="node">
<title>Node14</title>
<g id="a_Node000014"><a xlink:href="m__bubbles__EL_8fpp_8f90.html#a5c26596cc654d6a04247a85756b7a929" target="_top" xlink:title="This subroutine updates the Lagrange variables using the tvd RK time steppers. The time derivative of...">
<polygon fill="white" stroke="#666666" points="775,-113.5 630,-113.5 630,-94.5 775,-94.5 775,-113.5"/>
<text text-anchor="middle" x="702.5" y="-101.5" font-family="Helvetica,sans-Serif" font-size="10.00">s_update_lagrange_tdv_rk</text>
</a>
</g>
</g>
<!-- Node8&#45;&gt;Node14 -->
<g id="edge16_Node000008_Node000014" class="edge">
<title>Node8&#45;&gt;Node14</title>
<g id="a_edge16_Node000008_Node000014"><a xlink:title=" ">
<path fill="none" stroke="#63b8ff" d="M803.91,-92.81C794.54,-93.85 784.79,-94.94 775.22,-96.01"/>
<polygon fill="#63b8ff" stroke="#63b8ff" points="804.35,-96.28 813.9,-91.7 803.57,-89.32 804.35,-96.28"/>
</a>
</g>
</g>
<!-- Node10 -->
<g id="Node000010" class="node">
<title>Node10</title>
<g id="a_Node000010"><a xlink:href="m__time__steppers_8fpp_8f90.html#a5858523edfce42df32b2b0a8af54bc0e" target="_top" xlink:title="Strang splitting scheme with 3rd order TVD RK time&#45;stepping algorithm for the flux term and adaptive ...">
<polygon fill="white" stroke="#666666" points="437,-66.5 334,-66.5 334,-47.5 437,-47.5 437,-66.5"/>
<text text-anchor="middle" x="385.5" y="-54.5" font-family="Helvetica,sans-Serif" font-size="10.00">s_strang_splitting</text>
</a>
</g>
</g>
<!-- Node9&#45;&gt;Node10 -->
<g id="edge9_Node000009_Node000010" class="edge">
<title>Node9&#45;&gt;Node10</title>
<g id="a_edge9_Node000009_Node000010"><a xlink:title=" ">
<path fill="none" stroke="#63b8ff" d="M630.43,-64.74C571.62,-62.88 489.51,-60.27 437.18,-58.61"/>
<polygon fill="#63b8ff" stroke="#63b8ff" points="630.66,-68.25 640.76,-65.07 630.88,-61.26 630.66,-68.25"/>
</a>
</g>
</g>
<!-- Node10&#45;&gt;Node5 -->
<g id="edge10_Node000010_Node000005" class="edge">
<title>Node10&#45;&gt;Node5</title>
<g id="a_edge10_Node000010_Node000005"><a xlink:title=" ">
<path fill="none" stroke="#63b8ff" d="M351.58,-70.53C329.25,-79.65 301.73,-90.76 290,-95 280.99,-98.26 271.12,-101.55 262.07,-104.45"/>
<polygon fill="#63b8ff" stroke="#63b8ff" points="353.15,-73.66 361.08,-66.64 350.5,-67.19 353.15,-73.66"/>
</a>
</g>
</g>
<!-- Node12 -->
<g id="Node000012" class="node">
<title>Node12</title>
<g id="a_Node000012"><a xlink:href="m__bubbles__EL_8fpp_8f90.html#ae479bfa2d92038a5c675209a17224a05" target="_top" xlink:title="Initializes the lagrangian subgrid bubble solver.">
<polygon fill="white" stroke="#666666" points="594,-30 481,-30 481,0 594,0 594,-30"/>
<text text-anchor="start" x="489" y="-18" font-family="Helvetica,sans-Serif" font-size="10.00">s_initialize_bubbles</text>
<text text-anchor="middle" x="537.5" y="-7" font-family="Helvetica,sans-Serif" font-size="10.00">_el_module</text>
</a>
</g>
</g>
<!-- Node11&#45;&gt;Node12 -->
<g id="edge12_Node000011_Node000012" class="edge">
<title>Node11&#45;&gt;Node12</title>
<g id="a_edge12_Node000011_Node000012"><a xlink:title=" ">
<path fill="none" stroke="#63b8ff" d="M631.02,-21.81C618.69,-20.9 606.02,-19.97 594.17,-19.1"/>
<polygon fill="#63b8ff" stroke="#63b8ff" points="631.04,-25.32 641.27,-22.57 631.55,-18.34 631.04,-25.32"/>
</a>
</g>
</g>
<!-- Node13 -->
<g id="Node000013" class="node">
<title>Node13</title>
<g id="a_Node000013"><a xlink:href="m__start__up_8fpp_8f90.html#adf1f9241f0635f38fe245fc5dfb9f12a" target="_top" xlink:title=" ">
<polygon fill="white" stroke="#666666" points="288,-86.5 172,-86.5 172,-67.5 288,-67.5 288,-86.5"/>
<text text-anchor="middle" x="230" y="-74.5" font-family="Helvetica,sans-Serif" font-size="10.00">s_initialize_modules</text>
</a>
</g>
</g>
<!-- Node12&#45;&gt;Node13 -->
<g id="edge13_Node000012_Node000013" class="edge">
<title>Node12&#45;&gt;Node13</title>
<g id="a_edge13_Node000012_Node000013"><a xlink:title=" ">
<path fill="none" stroke="#63b8ff" d="M470.7,-17.45C428.76,-20.16 373.56,-25.9 326,-38 298.53,-44.99 268.53,-58.34 249.75,-67.46"/>
<polygon fill="#63b8ff" stroke="#63b8ff" points="471.02,-20.93 480.79,-16.83 470.59,-13.95 471.02,-20.93"/>
</a>
</g>
</g>
<!-- Node13&#45;&gt;Node6 -->
<g id="edge14_Node000013_Node000006" class="edge">
<title>Node13&#45;&gt;Node6</title>
<g id="a_edge14_Node000013_Node000006"><a xlink:title=" ">
<path fill="none" stroke="#63b8ff" d="M177.7,-88.79C155.73,-93.84 130.39,-99.66 109.6,-104.44"/>
<polygon fill="#63b8ff" stroke="#63b8ff" points="178.58,-92.18 187.54,-86.53 177.01,-85.36 178.58,-92.18"/>
</a>
</g>
</g>
<!-- Node13&#45;&gt;Node7 -->
<g id="edge15_Node000013_Node000007" class="edge">
<title>Node13&#45;&gt;Node7</title>
<g id="a_edge15_Node000013_Node000007"><a xlink:title=" ">
<path fill="none" stroke="#63b8ff" d="M161.6,-77C137.55,-77 111.9,-77 93.54,-77"/>
<polygon fill="#63b8ff" stroke="#63b8ff" points="161.78,-80.5 171.78,-77 161.78,-73.5 161.78,-80.5"/>
</a>
</g>
</g>
<!-- Node15 -->
<g id="Node000015" class="node">
<title>Node15</title>
<g id="a_Node000015"><a xlink:href="m__time__steppers_8fpp_8f90.html#a95dcf858eaba9951c12d4590ec467f62" target="_top" xlink:title="1st order TVD RK time&#45;stepping algorithm">
<polygon fill="white" stroke="#666666" points="592,-142.5 483,-142.5 483,-123.5 592,-123.5 592,-142.5"/>
<text text-anchor="middle" x="537.5" y="-130.5" font-family="Helvetica,sans-Serif" font-size="10.00">s_1st_order_tvd_rk</text>
</a>
</g>
</g>
<!-- Node14&#45;&gt;Node15 -->
<g id="edge17_Node000014_Node000015" class="edge">
<title>Node14&#45;&gt;Node15</title>
<g id="a_edge17_Node000014_Node000015"><a xlink:title=" ">
<path fill="none" stroke="#63b8ff" d="M637.42,-115.4C622.38,-118.08 606.51,-120.9 591.99,-123.48"/>
<polygon fill="#63b8ff" stroke="#63b8ff" points="638.44,-118.77 647.68,-113.58 637.22,-111.88 638.44,-118.77"/>
</a>
</g>
</g>
<!-- Node16 -->
<g id="Node000016" class="node">
<title>Node16</title>
<g id="a_Node000016"><a xlink:href="m__time__steppers_8fpp_8f90.html#a30504937d9153ef9e5d9990a8894e89a" target="_top" xlink:title="2nd order TVD RK time&#45;stepping algorithm">
<polygon fill="white" stroke="#666666" points="593.5,-180.5 481.5,-180.5 481.5,-161.5 593.5,-161.5 593.5,-180.5"/>
<text text-anchor="middle" x="537.5" y="-168.5" font-family="Helvetica,sans-Serif" font-size="10.00">s_2nd_order_tvd_rk</text>
</a>
</g>
</g>
<!-- Node14&#45;&gt;Node16 -->
<g id="edge19_Node000014_Node000016" class="edge">
<title>Node14&#45;&gt;Node16</title>
<g id="a_edge19_Node000014_Node000016"><a xlink:title=" ">
<path fill="none" stroke="#63b8ff" d="M671.43,-117.79C650,-127.45 620.42,-140.48 594,-151 584.96,-154.6 574.99,-158.28 566.02,-161.49"/>
<polygon fill="#63b8ff" stroke="#63b8ff" points="673,-120.92 680.66,-113.6 670.11,-114.54 673,-120.92"/>
</a>
</g>
</g>
<!-- Node17 -->
<g id="Node000017" class="node">
<title>Node17</title>
<g id="a_Node000017"><a xlink:href="m__time__steppers_8fpp_8f90.html#aa54ad1694d32cfe180d81112527699e4" target="_top" xlink:title="3rd order TVD RK time&#45;stepping algorithm">
<polygon fill="white" stroke="#666666" points="592.5,-105.5 482.5,-105.5 482.5,-86.5 592.5,-86.5 592.5,-105.5"/>
<text text-anchor="middle" x="537.5" y="-93.5" font-family="Helvetica,sans-Serif" font-size="10.00">s_3rd_order_tvd_rk</text>
</a>
</g>
</g>
<!-- Node14&#45;&gt;Node17 -->
<g id="edge21_Node000014_Node000017" class="edge">
<title>Node14&#45;&gt;Node17</title>
<g id="a_edge21_Node000014_Node000017"><a xlink:title=" ">
<path fill="none" stroke="#63b8ff" d="M619.41,-99.97C610.44,-99.53 601.47,-99.09 592.95,-98.67"/>
<polygon fill="#63b8ff" stroke="#63b8ff" points="619.37,-103.47 629.53,-100.47 619.71,-96.48 619.37,-103.47"/>
</a>
</g>
</g>
<!-- Node15&#45;&gt;Node5 -->
<g id="edge18_Node000015_Node000005" class="edge">
<title>Node15&#45;&gt;Node5</title>
<g id="a_edge18_Node000015_Node000005"><a xlink:title=" ">
<path fill="none" stroke="#63b8ff" d="M472.84,-129.04C419.09,-125.7 342.71,-120.95 290.25,-117.68"/>
<polygon fill="#63b8ff" stroke="#63b8ff" points="472.74,-132.54 482.94,-129.67 473.17,-125.55 472.74,-132.54"/>
</a>
</g>
</g>
<!-- Node16&#45;&gt;Node5 -->
<g id="edge20_Node000016_Node000005" class="edge">
<title>Node16&#45;&gt;Node5</title>
<g id="a_edge20_Node000016_Node000005"><a xlink:title=" ">
<path fill="none" stroke="#63b8ff" d="M471.26,-162.35C429.54,-156.43 374.38,-147.88 326,-138 305.83,-133.88 283.51,-128.29 265.57,-123.55"/>
<polygon fill="#63b8ff" stroke="#63b8ff" points="470.9,-165.83 481.29,-163.76 471.88,-158.9 470.9,-165.83"/>
</a>
</g>
</g>
<!-- Node17&#45;&gt;Node5 -->
<g id="edge22_Node000017_Node000005" class="edge">
<title>Node17&#45;&gt;Node5</title>
<g id="a_edge22_Node000017_Node000005"><a xlink:title=" ">
<path fill="none" stroke="#63b8ff" d="M472.14,-99.79C418.42,-102.96 342.47,-107.43 290.24,-110.51"/>
<polygon fill="#63b8ff" stroke="#63b8ff" points="472.46,-103.28 482.23,-99.2 472.05,-96.29 472.46,-103.28"/>
</a>
</g>
</g>
<!-- Node17&#45;&gt;Node10 -->
<g id="edge23_Node000017_Node000010" class="edge">
<title>Node17&#45;&gt;Node10</title>
<g id="a_edge23_Node000017_Node000010"><a xlink:title=" ">
<path fill="none" stroke="#63b8ff" d="M489.89,-83.88C468.37,-78.29 443.2,-71.74 423.07,-66.51"/>
<polygon fill="#63b8ff" stroke="#63b8ff" points="489.25,-87.33 499.81,-86.46 491.01,-80.56 489.25,-87.33"/>
</a>
</g>
</g>
</g>
</svg>
