<?xml version="1.0" encoding="UTF-8" standalone="no"?>
<!DOCTYPE svg PUBLIC "-//W3C//DTD SVG 1.1//EN"
 "http://www.w3.org/Graphics/SVG/1.1/DTD/svg11.dtd">
<!-- Generated by graphviz version 2.43.0 (0)
 -->
<!-- Title: s_monopole_calculations Pages: 1 -->
<svg width="234pt" height="100pt"
 viewBox="0.00 0.00 234.00 100.00" xmlns="http://www.w3.org/2000/svg" xmlns:xlink="http://www.w3.org/1999/xlink">

<svg id="main" version="1.1" xmlns="http://www.w3.org/2000/svg" xmlns:xlink="http://www.w3.org/1999/xlink" xml:space="preserve" onload="init(evt)">
<style type="text/css"><![CDATA[
.node, .edge {opacity: 0.7;}
.node.selected, .edge.selected {opacity: 1;}
.edge:hover path { stroke: red; }
.edge:hover polygon { stroke: red; fill: red; }
]]></style>
<script type="application/ecmascript" xlink:href="svg.min.js"/>
<svg id="graph" class="graph">
<g id="graph0" class="graph" transform="scale(1 1) rotate(0) translate(4 96)">
<title>s_monopole_calculations</title>
<!-- Node1 -->
<g id="Node000001" class="node">
<title>Node1</title>
<g id="a_Node000001"><a xlink:title=" ">
<polygon fill="#999999" stroke="#666666" points="140,-46 0,-46 0,-27 140,-27 140,-46"/>
<text text-anchor="middle" x="70" y="-34" font-family="Helvetica,sans-Serif" font-size="10.00">s_monopole_calculations</text>
</a>
</g>
</g>
<!-- Node2 -->
<g id="Node000002" class="node">
<title>Node2</title>
<g id="a_Node000002"><a xlink:href="m__monopole_8fpp_8f90.html#a637dfebe1f92df6be2fd5e0d7285201e" target="_top" xlink:title="This function give the spatial support of the acoustic source.">
<polygon fill="white" stroke="#666666" points="226,-74 176,-74 176,-55 226,-55 226,-74"/>
<text text-anchor="middle" x="201" y="-62" font-family="Helvetica,sans-Serif" font-size="10.00">f_delta</text>
</a>
</g>
</g>
<!-- Node1&#45;&gt;Node2 -->
<g id="edge1_Node000001_Node000002" class="edge">
<title>Node1&#45;&gt;Node2</title>
<g id="a_edge1_Node000001_Node000002"><a xlink:title=" ">
<path fill="none" stroke="#63b8ff" d="M115.03,-46.06C131.52,-49.64 150,-53.65 165.5,-57.01"/>
<polygon fill="#63b8ff" stroke="#63b8ff" points="165.18,-60.52 175.69,-59.22 166.66,-53.68 165.18,-60.52"/>
</a>
</g>
</g>
<!-- Node3 -->
<g id="Node000003" class="node">
<title>Node3</title>
<g id="a_Node000003"><a xlink:href="m__monopole_8fpp_8f90.html#aaa2bade9b9b7f87c8ada93bd470c98f5" target="_top" xlink:title="This function gives the temporally varying amplitude of the pulse.">
<polygon fill="white" stroke="#666666" points="217,-19 185,-19 185,0 217,0 217,-19"/>
<text text-anchor="middle" x="201" y="-7" font-family="Helvetica,sans-Serif" font-size="10.00">f_g</text>
</a>
</g>
</g>
<!-- Node1&#45;&gt;Node3 -->
<g id="edge3_Node000001_Node000003" class="edge">
<title>Node1&#45;&gt;Node3</title>
<g id="a_edge3_Node000001_Node000003"><a xlink:title=" ">
<path fill="none" stroke="#63b8ff" d="M116.48,-26.98C136.12,-22.87 158.34,-18.22 174.92,-14.75"/>
<polygon fill="#63b8ff" stroke="#63b8ff" points="175.85,-18.13 184.92,-12.66 174.41,-11.28 175.85,-18.13"/>
</a>
</g>
</g>
<!-- Node2&#45;&gt;Node2 -->
<g id="edge2_Node000002_Node000002" class="edge">
<title>Node2&#45;&gt;Node2</title>
<g id="a_edge2_Node000002_Node000002"><a xlink:title=" ">
<path fill="none" stroke="#63b8ff" d="M180.96,-74.08C171.22,-82.73 177.89,-92 201,-92 215.8,-92 223.86,-88.2 225.18,-83.19"/>
<polygon fill="#63b8ff" stroke="#63b8ff" points="228.36,-81.73 221.04,-74.08 221.99,-84.63 228.36,-81.73"/>
</a>
</g>
</g>
<!-- Node3&#45;&gt;Node3 -->
<g id="edge4_Node000003_Node000003" class="edge">
<title>Node3&#45;&gt;Node3</title>
<g id="a_edge4_Node000003_Node000003"><a xlink:title=" ">
<path fill="none" stroke="#63b8ff" d="M184.77,-16.27C169.95,-25.59 175.36,-37 201,-37 220.23,-37 228.08,-30.58 224.55,-23.44"/>
<polygon fill="#63b8ff" stroke="#63b8ff" points="226.82,-20.76 217.23,-16.27 221.93,-25.76 226.82,-20.76"/>
</a>
</g>
</g>
</g>
</svg>
</svg>

<style type='text/css'>
<![CDATA[
[data-mouse-over-selected='false'] { opacity: 0.7; }
[data-mouse-over-selected='true']  { opacity: 1.0; }
]]>
</style>
<script type="application/ecmascript"><![CDATA[
document.addEventListener('DOMContentLoaded', (event) => {
  highlightEdges();
  highlightAdjacentNodes();
});
]]></script>
</svg>
