<?xml version="1.0" encoding="UTF-8" standalone="no"?>
<!DOCTYPE svg PUBLIC "-//W3C//DTD SVG 1.1//EN"
 "http://www.w3.org/Graphics/SVG/1.1/DTD/svg11.dtd">
<!-- Generated by graphviz version 2.43.0 (0)
 -->
<!-- Title: s_mpi_sendrecv_variables_buffers Pages: 1 -->
<svg width="1187pt" height="179pt"
 viewBox="0.00 0.00 1187.00 179.00" xmlns="http://www.w3.org/2000/svg" xmlns:xlink="http://www.w3.org/1999/xlink">
<g id="graph0" class="graph" transform="scale(1 1) rotate(0) translate(4 175)">
<title>s_mpi_sendrecv_variables_buffers</title>
<!-- Node1 -->
<g id="Node000001" class="node">
<title>Node1</title>
<g id="a_Node000001"><a xlink:title="The goal of this procedure is to populate the buffers of the cell&#45;average conservative variables by c...">
<polygon fill="#999999" stroke="#666666" points="1179,-86.5 1033,-86.5 1033,-56.5 1179,-56.5 1179,-86.5"/>
<text text-anchor="start" x="1041" y="-74.5" font-family="Helvetica,sans-Serif" font-size="10.00">s_mpi_sendrecv_variables</text>
<text text-anchor="middle" x="1106" y="-63.5" font-family="Helvetica,sans-Serif" font-size="10.00">_buffers</text>
</a>
</g>
</g>
<!-- Node2 -->
<g id="Node000002" class="node">
<title>Node2</title>
<g id="a_Node000002"><a xlink:href="m__boundary__common_8fpp_8f90.html#ae5e76db6a44ec3681f3fe1ed39d9ae05" target="_top" xlink:title=" ">
<polygon fill="white" stroke="#666666" points="995.5,-110.5 878.5,-110.5 878.5,-80.5 995.5,-80.5 995.5,-110.5"/>
<text text-anchor="start" x="886.5" y="-98.5" font-family="Helvetica,sans-Serif" font-size="10.00">s_populate_capillary</text>
<text text-anchor="middle" x="937" y="-87.5" font-family="Helvetica,sans-Serif" font-size="10.00">_buffers</text>
</a>
</g>
</g>
<!-- Node1&#45;&gt;Node2 -->
<g id="edge1_Node000001_Node000002" class="edge">
<title>Node1&#45;&gt;Node2</title>
<g id="a_edge1_Node000001_Node000002"><a xlink:title=" ">
<path fill="none" stroke="#63b8ff" d="M1022.77,-83.32C1013.57,-84.64 1004.34,-85.97 995.55,-87.23"/>
<polygon fill="#63b8ff" stroke="#63b8ff" points="1023.32,-86.77 1032.72,-81.89 1022.33,-79.85 1023.32,-86.77"/>
</a>
</g>
</g>
<!-- Node14 -->
<g id="Node000014" class="node">
<title>Node14</title>
<g id="a_Node000014"><a xlink:href="m__boundary__common_8fpp_8f90.html#a32f0e4db26cb1de5e18c705e8fca41f0" target="_top" xlink:title="The purpose of this procedure is to populate the buffers of the primitive variables,...">
<polygon fill="white" stroke="#666666" points="997,-62.5 877,-62.5 877,-32.5 997,-32.5 997,-62.5"/>
<text text-anchor="start" x="885" y="-50.5" font-family="Helvetica,sans-Serif" font-size="10.00">s_populate_variables</text>
<text text-anchor="middle" x="937" y="-39.5" font-family="Helvetica,sans-Serif" font-size="10.00">_buffers</text>
</a>
</g>
</g>
<!-- Node1&#45;&gt;Node14 -->
<g id="edge16_Node000001_Node000014" class="edge">
<title>Node1&#45;&gt;Node14</title>
<g id="a_edge16_Node000001_Node000014"><a xlink:title=" ">
<path fill="none" stroke="#63b8ff" d="M1022.63,-59.66C1014.01,-58.42 1005.37,-57.18 997.08,-55.99"/>
<polygon fill="#63b8ff" stroke="#63b8ff" points="1022.33,-63.15 1032.72,-61.11 1023.32,-56.23 1022.33,-63.15"/>
</a>
</g>
</g>
<!-- Node3 -->
<g id="Node000003" class="node">
<title>Node3</title>
<g id="a_Node000003"><a xlink:href="m__boundary__common_8fpp_8f90.html#a29323c7f76c504aefa670ebf315fad51" target="_top" xlink:title="The purpose of the module is to apply noncharacteristic and processor boundary condiitons.">
<polygon fill="white" stroke="#666666" points="841,-105.5 705,-105.5 705,-75.5 841,-75.5 841,-105.5"/>
<text text-anchor="start" x="713" y="-93.5" font-family="Helvetica,sans-Serif" font-size="10.00">__m_boundary_common</text>
<text text-anchor="middle" x="773" y="-82.5" font-family="Helvetica,sans-Serif" font-size="10.00">_fpp_f90__</text>
</a>
</g>
</g>
<!-- Node2&#45;&gt;Node3 -->
<g id="edge2_Node000002_Node000003" class="edge">
<title>Node2&#45;&gt;Node3</title>
<g id="a_edge2_Node000002_Node000003"><a xlink:title=" ">
<path fill="none" stroke="#63b8ff" d="M868.36,-93.41C859.33,-93.13 850.08,-92.85 841.07,-92.57"/>
<polygon fill="#63b8ff" stroke="#63b8ff" points="868.33,-96.91 878.43,-93.72 868.54,-89.92 868.33,-96.91"/>
</a>
</g>
</g>
<!-- Node4 -->
<g id="Node000004" class="node">
<title>Node4</title>
<g id="a_Node000004"><a xlink:href="m__surface__tension_8fpp_8f90.html#af8a8699d24224a16fb480c225db878d9" target="_top" xlink:title=" ">
<polygon fill="white" stroke="#666666" points="816.5,-143 729.5,-143 729.5,-124 816.5,-124 816.5,-143"/>
<text text-anchor="middle" x="773" y="-131" font-family="Helvetica,sans-Serif" font-size="10.00">s_get_capilary</text>
</a>
</g>
</g>
<!-- Node2&#45;&gt;Node4 -->
<g id="edge3_Node000002_Node000004" class="edge">
<title>Node2&#45;&gt;Node4</title>
<g id="a_edge3_Node000002_Node000004"><a xlink:title=" ">
<path fill="none" stroke="#63b8ff" d="M868.65,-111.3C850.29,-115.6 830.97,-120.14 814.61,-123.98"/>
<polygon fill="#63b8ff" stroke="#63b8ff" points="869.49,-114.7 878.43,-109 867.89,-107.88 869.49,-114.7"/>
</a>
</g>
</g>
<!-- Node5 -->
<g id="Node000005" class="node">
<title>Node5</title>
<g id="a_Node000005"><a xlink:href="m__surface__tension_8fpp_8f90.html#ab9b6955a7652c5a8bba2161da6c4cdd0" target="_top" xlink:title=" ">
<polygon fill="white" stroke="#666666" points="667,-148.5 548,-148.5 548,-118.5 667,-118.5 667,-148.5"/>
<text text-anchor="start" x="556" y="-136.5" font-family="Helvetica,sans-Serif" font-size="10.00">__m_surface_tension</text>
<text text-anchor="middle" x="607.5" y="-125.5" font-family="Helvetica,sans-Serif" font-size="10.00">_fpp_f90__</text>
</a>
</g>
</g>
<!-- Node4&#45;&gt;Node5 -->
<g id="edge4_Node000004_Node000005" class="edge">
<title>Node4&#45;&gt;Node5</title>
<g id="a_edge4_Node000004_Node000005"><a xlink:title=" ">
<path fill="none" stroke="#63b8ff" d="M719.36,-133.5C702.7,-133.5 684.18,-133.5 667.13,-133.5"/>
<polygon fill="#63b8ff" stroke="#63b8ff" points="719.47,-137 729.47,-133.5 719.47,-130 719.47,-137"/>
</a>
</g>
</g>
<!-- Node6 -->
<g id="Node000006" class="node">
<title>Node6</title>
<g id="a_Node000006"><a xlink:href="m__rhs_8fpp_8f90.html#a7bace127dc6fc78b5a53a7e8e7c58f17" target="_top" xlink:title=" ">
<polygon fill="white" stroke="#666666" points="652.5,-97 562.5,-97 562.5,-78 652.5,-78 652.5,-97"/>
<text text-anchor="middle" x="607.5" y="-85" font-family="Helvetica,sans-Serif" font-size="10.00">s_compute_rhs</text>
</a>
</g>
</g>
<!-- Node4&#45;&gt;Node6 -->
<g id="edge5_Node000004_Node000006" class="edge">
<title>Node4&#45;&gt;Node6</title>
<g id="a_edge5_Node000004_Node000006"><a xlink:title=" ">
<path fill="none" stroke="#63b8ff" d="M728.17,-121.17C701.22,-113.59 667.21,-104.02 642.33,-97.02"/>
<polygon fill="#63b8ff" stroke="#63b8ff" points="727.55,-124.63 738.12,-123.97 729.44,-117.89 727.55,-124.63"/>
</a>
</g>
</g>
<!-- Node7 -->
<g id="Node000007" class="node">
<title>Node7</title>
<g id="a_Node000007"><a xlink:href="m__rhs_8fpp_8f90.html#a87616394067f1273cd06c4d299d10add" target="_top" xlink:title=" ">
<polygon fill="white" stroke="#666666" points="510,-171 400,-171 400,-152 510,-152 510,-171"/>
<text text-anchor="middle" x="455" y="-159" font-family="Helvetica,sans-Serif" font-size="10.00">__m_rhs_fpp_f90__</text>
</a>
</g>
</g>
<!-- Node6&#45;&gt;Node7 -->
<g id="edge6_Node000006_Node000007" class="edge">
<title>Node6&#45;&gt;Node7</title>
<g id="a_edge6_Node000006_Node000007"><a xlink:title=" ">
<path fill="none" stroke="#63b8ff" d="M565.1,-100.59C558.56,-103.21 551.98,-106.19 546,-109.5 528.26,-119.31 527.39,-127.08 510,-137.5 500.85,-142.98 490.22,-147.97 480.82,-151.96"/>
<polygon fill="#63b8ff" stroke="#63b8ff" points="566.47,-103.81 574.59,-97.01 564,-97.26 566.47,-103.81"/>
</a>
</g>
</g>
<!-- Node8 -->
<g id="Node000008" class="node">
<title>Node8</title>
<g id="a_Node000008"><a xlink:href="m__time__steppers_8fpp_8f90.html#a95dcf858eaba9951c12d4590ec467f62" target="_top" xlink:title="1st order TVD RK time&#45;stepping algorithm">
<polygon fill="white" stroke="#666666" points="362.5,-132 253.5,-132 253.5,-113 362.5,-113 362.5,-132"/>
<text text-anchor="middle" x="308" y="-120" font-family="Helvetica,sans-Serif" font-size="10.00">s_1st_order_tvd_rk</text>
</a>
</g>
</g>
<!-- Node6&#45;&gt;Node8 -->
<g id="edge7_Node000006_Node000008" class="edge">
<title>Node6&#45;&gt;Node8</title>
<g id="a_edge7_Node000006_Node000008"><a xlink:title=" ">
<path fill="none" stroke="#63b8ff" d="M552.07,-95.07C538.35,-96.92 523.64,-98.84 510,-100.5 460.17,-106.58 403.29,-112.73 362.79,-116.98"/>
<polygon fill="#63b8ff" stroke="#63b8ff" points="552.89,-98.49 562.33,-93.69 551.95,-91.56 552.89,-98.49"/>
</a>
</g>
</g>
<!-- Node11 -->
<g id="Node000011" class="node">
<title>Node11</title>
<g id="a_Node000011"><a xlink:href="m__time__steppers_8fpp_8f90.html#a30504937d9153ef9e5d9990a8894e89a" target="_top" xlink:title="2nd order TVD RK time&#45;stepping algorithm">
<polygon fill="white" stroke="#666666" points="364,-95 252,-95 252,-76 364,-76 364,-95"/>
<text text-anchor="middle" x="308" y="-83" font-family="Helvetica,sans-Serif" font-size="10.00">s_2nd_order_tvd_rk</text>
</a>
</g>
</g>
<!-- Node6&#45;&gt;Node11 -->
<g id="edge10_Node000006_Node000011" class="edge">
<title>Node6&#45;&gt;Node11</title>
<g id="a_edge10_Node000006_Node000011"><a xlink:title=" ">
<path fill="none" stroke="#63b8ff" d="M551.99,-87.13C498.6,-86.77 417.69,-86.23 364.1,-85.87"/>
<polygon fill="#63b8ff" stroke="#63b8ff" points="552.26,-90.64 562.28,-87.2 552.31,-83.64 552.26,-90.64"/>
</a>
</g>
</g>
<!-- Node12 -->
<g id="Node000012" class="node">
<title>Node12</title>
<g id="a_Node000012"><a xlink:href="m__time__steppers_8fpp_8f90.html#aa54ad1694d32cfe180d81112527699e4" target="_top" xlink:title="3rd order TVD RK time&#45;stepping algorithm">
<polygon fill="white" stroke="#666666" points="510,-57 400,-57 400,-38 510,-38 510,-57"/>
<text text-anchor="middle" x="455" y="-45" font-family="Helvetica,sans-Serif" font-size="10.00">s_3rd_order_tvd_rk</text>
</a>
</g>
</g>
<!-- Node6&#45;&gt;Node12 -->
<g id="edge12_Node000006_Node000012" class="edge">
<title>Node6&#45;&gt;Node12</title>
<g id="a_edge12_Node000006_Node000012"><a xlink:title=" ">
<path fill="none" stroke="#63b8ff" d="M560.61,-75.3C538.49,-69.42 512.36,-62.48 491.75,-57"/>
<polygon fill="#63b8ff" stroke="#63b8ff" points="559.89,-78.73 570.45,-77.92 561.69,-71.97 559.89,-78.73"/>
</a>
</g>
</g>
<!-- Node9 -->
<g id="Node000009" class="node">
<title>Node9</title>
<g id="a_Node000009"><a xlink:href="namespacem__start__up.html#ae28835629de9baa7fd546672a0add0e5" target="_top" xlink:title=" ">
<polygon fill="white" stroke="#666666" points="216,-81.5 89,-81.5 89,-51.5 216,-51.5 216,-81.5"/>
<text text-anchor="start" x="97" y="-69.5" font-family="Helvetica,sans-Serif" font-size="10.00">m_start_up::s_perform</text>
<text text-anchor="middle" x="152.5" y="-58.5" font-family="Helvetica,sans-Serif" font-size="10.00">_time_step</text>
</a>
</g>
</g>
<!-- Node8&#45;&gt;Node9 -->
<g id="edge8_Node000008_Node000009" class="edge">
<title>Node8&#45;&gt;Node9</title>
<g id="a_edge8_Node000008_Node000009"><a xlink:title=" ">
<path fill="none" stroke="#63b8ff" d="M269.36,-109.65C263.54,-107.62 257.6,-105.52 252,-103.5 232.41,-96.44 210.73,-88.33 192.71,-81.5"/>
<polygon fill="#63b8ff" stroke="#63b8ff" points="268.37,-113.01 278.97,-112.98 270.67,-106.4 268.37,-113.01"/>
</a>
</g>
</g>
<!-- Node10 -->
<g id="Node000010" class="node">
<title>Node10</title>
<g id="a_Node000010"><a xlink:href="p__main_8fpp_8f90.html#aeec10ee8e2940c953967da3e374e1579" target="_top" xlink:title="Quasi&#45;conservative, shock&#45; and interface&#45; capturing finite&#45;volume scheme for the multicomponent Navie...">
<polygon fill="white" stroke="#666666" points="53,-76 0,-76 0,-57 53,-57 53,-76"/>
<text text-anchor="middle" x="26.5" y="-64" font-family="Helvetica,sans-Serif" font-size="10.00">p_main</text>
</a>
</g>
</g>
<!-- Node9&#45;&gt;Node10 -->
<g id="edge9_Node000009_Node000010" class="edge">
<title>Node9&#45;&gt;Node10</title>
<g id="a_edge9_Node000009_Node000010"><a xlink:title=" ">
<path fill="none" stroke="#63b8ff" d="M78.77,-66.5C69.63,-66.5 60.81,-66.5 53.14,-66.5"/>
<polygon fill="#63b8ff" stroke="#63b8ff" points="78.77,-70 88.77,-66.5 78.77,-63 78.77,-70"/>
</a>
</g>
</g>
<!-- Node11&#45;&gt;Node9 -->
<g id="edge11_Node000011_Node000009" class="edge">
<title>Node11&#45;&gt;Node9</title>
<g id="a_edge11_Node000011_Node000009"><a xlink:title=" ">
<path fill="none" stroke="#63b8ff" d="M241.46,-77.39C233.06,-76.35 224.48,-75.29 216.13,-74.25"/>
<polygon fill="#63b8ff" stroke="#63b8ff" points="241.23,-80.89 251.58,-78.64 242.09,-73.94 241.23,-80.89"/>
</a>
</g>
</g>
<!-- Node12&#45;&gt;Node9 -->
<g id="edge13_Node000012_Node000009" class="edge">
<title>Node12&#45;&gt;Node9</title>
<g id="a_edge13_Node000012_Node000009"><a xlink:title=" ">
<path fill="none" stroke="#63b8ff" d="M389.64,-51.57C338.38,-54.81 267.05,-59.32 216.23,-62.53"/>
<polygon fill="#63b8ff" stroke="#63b8ff" points="390.17,-55.04 399.93,-50.92 389.73,-48.06 390.17,-55.04"/>
</a>
</g>
</g>
<!-- Node13 -->
<g id="Node000013" class="node">
<title>Node13</title>
<g id="a_Node000013"><a xlink:href="m__time__steppers_8fpp_8f90.html#a5858523edfce42df32b2b0a8af54bc0e" target="_top" xlink:title="Strang splitting scheme with 3rd order TVD RK time&#45;stepping algorithm for the flux term and adaptive ...">
<polygon fill="white" stroke="#666666" points="359.5,-19 256.5,-19 256.5,0 359.5,0 359.5,-19"/>
<text text-anchor="middle" x="308" y="-7" font-family="Helvetica,sans-Serif" font-size="10.00">s_strang_splitting</text>
</a>
</g>
</g>
<!-- Node12&#45;&gt;Node13 -->
<g id="edge14_Node000012_Node000013" class="edge">
<title>Node12&#45;&gt;Node13</title>
<g id="a_edge14_Node000012_Node000013"><a xlink:title=" ">
<path fill="none" stroke="#63b8ff" d="M407.51,-35.32C387.38,-30.04 364.16,-23.96 345.33,-19.02"/>
<polygon fill="#63b8ff" stroke="#63b8ff" points="406.85,-38.76 417.41,-37.91 408.62,-31.99 406.85,-38.76"/>
</a>
</g>
</g>
<!-- Node13&#45;&gt;Node9 -->
<g id="edge15_Node000013_Node000009" class="edge">
<title>Node13&#45;&gt;Node9</title>
<g id="a_edge15_Node000013_Node000009"><a xlink:title=" ">
<path fill="none" stroke="#63b8ff" d="M271.85,-22.55C248.67,-31.16 218.23,-42.46 194.02,-51.45"/>
<polygon fill="#63b8ff" stroke="#63b8ff" points="273.15,-25.8 281.31,-19.04 270.71,-19.24 273.15,-25.8"/>
</a>
</g>
</g>
<!-- Node14&#45;&gt;Node3 -->
<g id="edge17_Node000014_Node000003" class="edge">
<title>Node14&#45;&gt;Node3</title>
<g id="a_edge17_Node000014_Node000003"><a xlink:title=" ">
<path fill="none" stroke="#63b8ff" d="M869.58,-65.13C856.65,-68.56 843.2,-72.13 830.63,-75.47"/>
<polygon fill="#63b8ff" stroke="#63b8ff" points="870.57,-68.49 879.34,-62.54 868.78,-61.72 870.57,-68.49"/>
</a>
</g>
</g>
<!-- Node14&#45;&gt;Node6 -->
<g id="edge20_Node000014_Node000006" class="edge">
<title>Node14&#45;&gt;Node6</title>
<g id="a_edge20_Node000014_Node000006"><a xlink:title=" ">
<path fill="none" stroke="#63b8ff" d="M866.72,-50.8C820.7,-53.58 759.02,-58.44 705,-66.5 685.67,-69.39 664.42,-73.87 646.79,-77.95"/>
<polygon fill="#63b8ff" stroke="#63b8ff" points="867.11,-54.28 876.89,-50.21 866.7,-47.3 867.11,-54.28"/>
</a>
</g>
</g>
<!-- Node15 -->
<g id="Node000015" class="node">
<title>Node15</title>
<g id="a_Node000015"><a xlink:href="m__time__steppers_8fpp_8f90.html#ac88fae0ccfd624140b3c9caf3c7f2dd0" target="_top" xlink:title="Bubble source part in Strang operator splitting scheme.">
<polygon fill="white" stroke="#666666" points="669,-19 546,-19 546,0 669,0 669,-19"/>
<text text-anchor="middle" x="607.5" y="-7" font-family="Helvetica,sans-Serif" font-size="10.00">s_adaptive_dt_bubble</text>
</a>
</g>
</g>
<!-- Node14&#45;&gt;Node15 -->
<g id="edge18_Node000014_Node000015" class="edge">
<title>Node14&#45;&gt;Node15</title>
<g id="a_edge18_Node000014_Node000015"><a xlink:title=" ">
<path fill="none" stroke="#63b8ff" d="M866.68,-36.93C858.04,-35.72 849.32,-34.54 841,-33.5 782.82,-26.21 716.24,-19.51 669.28,-15.05"/>
<polygon fill="#63b8ff" stroke="#63b8ff" points="866.37,-40.42 876.76,-38.36 867.36,-33.49 866.37,-40.42"/>
</a>
</g>
</g>
<!-- Node15&#45;&gt;Node13 -->
<g id="edge19_Node000015_Node000013" class="edge">
<title>Node15&#45;&gt;Node13</title>
<g id="a_edge19_Node000015_Node000013"><a xlink:title=" ">
<path fill="none" stroke="#63b8ff" d="M535.71,-9.5C481.49,-9.5 408.01,-9.5 359.59,-9.5"/>
<polygon fill="#63b8ff" stroke="#63b8ff" points="535.94,-13 545.94,-9.5 535.94,-6 535.94,-13"/>
</a>
</g>
</g>
</g>
</svg>
