<?xml version="1.0" encoding="UTF-8" standalone="no"?>
<!DOCTYPE svg PUBLIC "-//W3C//DTD SVG 1.1//EN"
 "http://www.w3.org/Graphics/SVG/1.1/DTD/svg11.dtd">
<!-- Generated by graphviz version 2.43.0 (0)
 -->
<!-- Title: s_mpi_allreduce_sum Pages: 1 -->
<svg width="1113pt" height="276pt"
 viewBox="0.00 0.00 1113.00 276.00" xmlns="http://www.w3.org/2000/svg" xmlns:xlink="http://www.w3.org/1999/xlink">
<g id="graph0" class="graph" transform="scale(1 1) rotate(0) translate(4 272)">
<title>s_mpi_allreduce_sum</title>
<!-- Node1 -->
<g id="Node000001" class="node">
<title>Node1</title>
<g id="a_Node000001"><a xlink:title="The following subroutine takes the input local variable from all processors and reduces to the sum of...">
<polygon fill="#999999" stroke="#666666" points="1105,-172.5 983,-172.5 983,-153.5 1105,-153.5 1105,-172.5"/>
<text text-anchor="middle" x="1044" y="-160.5" font-family="Helvetica,sans-Serif" font-size="10.00">s_mpi_allreduce_sum</text>
</a>
</g>
</g>
<!-- Node2 -->
<g id="Node000002" class="node">
<title>Node2</title>
<g id="a_Node000002"><a xlink:href="namespacem__derived__variables.html#a3eb66e46af47e787f79a01e2236779b0" target="_top" xlink:title="This subroutine is used together with the volume fraction model and when called upon,...">
<polygon fill="white" stroke="#666666" points="947,-178 801,-178 801,-148 947,-148 947,-178"/>
<text text-anchor="start" x="809" y="-166" font-family="Helvetica,sans-Serif" font-size="10.00">m_derived_variables</text>
<text text-anchor="middle" x="874" y="-155" font-family="Helvetica,sans-Serif" font-size="10.00">::s_derive_center_of_mass</text>
</a>
</g>
</g>
<!-- Node1&#45;&gt;Node2 -->
<g id="edge1_Node000001_Node000002" class="edge">
<title>Node1&#45;&gt;Node2</title>
<g id="a_edge1_Node000001_Node000002"><a xlink:title=" ">
<path fill="none" stroke="#63b8ff" d="M972.64,-163C964.19,-163 955.56,-163 947.09,-163"/>
<polygon fill="#63b8ff" stroke="#63b8ff" points="972.82,-166.5 982.82,-163 972.82,-159.5 972.82,-166.5"/>
</a>
</g>
</g>
<!-- Node7 -->
<g id="Node000007" class="node">
<title>Node7</title>
<g id="a_Node000007"><a xlink:href="m__data__output_8fpp_8f90.html#a0eb579b4fb6abd1205444045aff3e448" target="_top" xlink:title="This writes a formatted data file for the flow probe information.">
<polygon fill="white" stroke="#666666" points="929,-215.5 819,-215.5 819,-196.5 929,-196.5 929,-215.5"/>
<text text-anchor="middle" x="874" y="-203.5" font-family="Helvetica,sans-Serif" font-size="10.00">s_write_probe_files</text>
</a>
</g>
</g>
<!-- Node1&#45;&gt;Node7 -->
<g id="edge6_Node000001_Node000007" class="edge">
<title>Node1&#45;&gt;Node7</title>
<g id="a_edge6_Node000001_Node000007"><a xlink:title=" ">
<path fill="none" stroke="#63b8ff" d="M995.9,-175.06C969.42,-181.83 936.84,-190.17 912.18,-196.48"/>
<polygon fill="#63b8ff" stroke="#63b8ff" points="996.9,-178.41 1005.72,-172.54 995.16,-171.63 996.9,-178.41"/>
</a>
</g>
</g>
<!-- Node9 -->
<g id="Node000009" class="node">
<title>Node9</title>
<g id="a_Node000009"><a xlink:href="m__bubbles__EL_8fpp_8f90.html#a82ac53d14e7909cec109938ddb1eeefb" target="_top" xlink:title="Subroutine that writes some useful statistics related to the volume fraction of the particles (void f...">
<polygon fill="white" stroke="#666666" points="926,-122.5 822,-122.5 822,-103.5 926,-103.5 926,-122.5"/>
<text text-anchor="middle" x="874" y="-110.5" font-family="Helvetica,sans-Serif" font-size="10.00">s_write_void_evol</text>
</a>
</g>
</g>
<!-- Node1&#45;&gt;Node9 -->
<g id="edge9_Node000001_Node000009" class="edge">
<title>Node1&#45;&gt;Node9</title>
<g id="a_edge9_Node000001_Node000009"><a xlink:title=" ">
<path fill="none" stroke="#63b8ff" d="M1001.13,-150.54C972.04,-141.88 933.86,-130.52 907.16,-122.57"/>
<polygon fill="#63b8ff" stroke="#63b8ff" points="1000.42,-153.98 1011.01,-153.48 1002.42,-147.27 1000.42,-153.98"/>
</a>
</g>
</g>
<!-- Node3 -->
<g id="Node000003" class="node">
<title>Node3</title>
<g id="a_Node000003"><a xlink:href="namespacem__derived__variables.html#a516a9808b3446b7b45029f6451d02b3f" target="_top" xlink:title="Writes coherent body information, communication files, and probes.">
<polygon fill="white" stroke="#666666" points="752,-219.5 633,-219.5 633,-178.5 752,-178.5 752,-219.5"/>
<text text-anchor="start" x="641" y="-207.5" font-family="Helvetica,sans-Serif" font-size="10.00">m_derived_variables</text>
<text text-anchor="start" x="641" y="-196.5" font-family="Helvetica,sans-Serif" font-size="10.00">::s_compute_derived</text>
<text text-anchor="middle" x="692.5" y="-185.5" font-family="Helvetica,sans-Serif" font-size="10.00">_variables</text>
</a>
</g>
</g>
<!-- Node2&#45;&gt;Node3 -->
<g id="edge2_Node000002_Node000003" class="edge">
<title>Node2&#45;&gt;Node3</title>
<g id="a_edge2_Node000002_Node000003"><a xlink:title=" ">
<path fill="none" stroke="#63b8ff" d="M790.83,-179.48C777.76,-182.1 764.48,-184.76 752.1,-187.25"/>
<polygon fill="#63b8ff" stroke="#63b8ff" points="791.65,-182.89 800.77,-177.49 790.27,-176.02 791.65,-182.89"/>
</a>
</g>
</g>
<!-- Node4 -->
<g id="Node000004" class="node">
<title>Node4</title>
<g id="a_Node000004"><a xlink:href="m__start__up_8fpp_8f90.html#a1f6993aab1d2776640192c044a461640" target="_top" xlink:title=" ">
<polygon fill="white" stroke="#666666" points="290,-124.5 170,-124.5 170,-105.5 290,-105.5 290,-124.5"/>
<text text-anchor="middle" x="230" y="-112.5" font-family="Helvetica,sans-Serif" font-size="10.00">s_perform_time_step</text>
</a>
</g>
</g>
<!-- Node3&#45;&gt;Node4 -->
<g id="edge3_Node000003_Node000004" class="edge">
<title>Node3&#45;&gt;Node4</title>
<g id="a_edge3_Node000003_Node000004"><a xlink:title=" ">
<path fill="none" stroke="#63b8ff" d="M622.46,-209.96C547.14,-219.06 424.22,-225.46 326,-190 288.45,-176.44 254.31,-141.7 239.2,-124.68"/>
<polygon fill="#63b8ff" stroke="#63b8ff" points="623.28,-213.38 632.76,-208.66 622.4,-206.44 623.28,-213.38"/>
</a>
</g>
</g>
<!-- Node5 -->
<g id="Node000005" class="node">
<title>Node5</title>
<g id="a_Node000005"><a xlink:href="m__start__up_8fpp_8f90.html#ac09c216e540601049a819ae5b76091b5" target="_top" xlink:title=" ">
<polygon fill="white" stroke="#666666" points="134,-124.5 0,-124.5 0,-105.5 134,-105.5 134,-124.5"/>
<text text-anchor="middle" x="67" y="-112.5" font-family="Helvetica,sans-Serif" font-size="10.00">__m_start_up_fpp_f90__</text>
</a>
</g>
</g>
<!-- Node4&#45;&gt;Node5 -->
<g id="edge4_Node000004_Node000005" class="edge">
<title>Node4&#45;&gt;Node5</title>
<g id="a_edge4_Node000004_Node000005"><a xlink:title=" ">
<path fill="none" stroke="#63b8ff" d="M159.71,-115C151.21,-115 142.55,-115 134.1,-115"/>
<polygon fill="#63b8ff" stroke="#63b8ff" points="159.96,-118.5 169.96,-115 159.96,-111.5 159.96,-118.5"/>
</a>
</g>
</g>
<!-- Node6 -->
<g id="Node000006" class="node">
<title>Node6</title>
<g id="a_Node000006"><a xlink:href="p__main_8fpp_8f90.html#aeec10ee8e2940c953967da3e374e1579" target="_top" xlink:title="Quasi&#45;conservative, shock&#45; and interface&#45; capturing finite&#45;volume scheme for the multicomponent Navie...">
<polygon fill="white" stroke="#666666" points="93.5,-87.5 40.5,-87.5 40.5,-68.5 93.5,-68.5 93.5,-87.5"/>
<text text-anchor="middle" x="67" y="-75.5" font-family="Helvetica,sans-Serif" font-size="10.00">p_main</text>
</a>
</g>
</g>
<!-- Node4&#45;&gt;Node6 -->
<g id="edge5_Node000004_Node000006" class="edge">
<title>Node4&#45;&gt;Node6</title>
<g id="a_edge5_Node000004_Node000006"><a xlink:title=" ">
<path fill="none" stroke="#63b8ff" d="M177.51,-103.17C149.56,-96.74 116.21,-89.08 93.72,-83.91"/>
<polygon fill="#63b8ff" stroke="#63b8ff" points="177.01,-106.64 187.54,-105.47 178.58,-99.82 177.01,-106.64"/>
</a>
</g>
</g>
<!-- Node7&#45;&gt;Node3 -->
<g id="edge8_Node000007_Node000003" class="edge">
<title>Node7&#45;&gt;Node3</title>
<g id="a_edge8_Node000007_Node000003"><a xlink:title=" ">
<path fill="none" stroke="#63b8ff" d="M808.59,-203.49C790.13,-202.77 770.11,-201.99 752.03,-201.28"/>
<polygon fill="#63b8ff" stroke="#63b8ff" points="808.53,-206.99 818.66,-203.88 808.8,-199.99 808.53,-206.99"/>
</a>
</g>
</g>
<!-- Node8 -->
<g id="Node000008" class="node">
<title>Node8</title>
<g id="a_Node000008"><a xlink:href="m__data__output_8fpp_8f90.html#a979b8a2cf4215a8122fc461c0512dbba" target="_top" xlink:title=" ">
<polygon fill="white" stroke="#666666" points="753.5,-268 631.5,-268 631.5,-238 753.5,-238 753.5,-268"/>
<text text-anchor="start" x="639.5" y="-256" font-family="Helvetica,sans-Serif" font-size="10.00">__m_data_output_fpp</text>
<text text-anchor="middle" x="692.5" y="-245" font-family="Helvetica,sans-Serif" font-size="10.00">_f90__</text>
</a>
</g>
</g>
<!-- Node7&#45;&gt;Node8 -->
<g id="edge7_Node000007_Node000008" class="edge">
<title>Node7&#45;&gt;Node8</title>
<g id="a_edge7_Node000007_Node000008"><a xlink:title=" ">
<path fill="none" stroke="#63b8ff" d="M826.78,-218.1C803.66,-224.15 775.47,-231.54 750.97,-237.95"/>
<polygon fill="#63b8ff" stroke="#63b8ff" points="827.89,-221.43 836.68,-215.51 826.12,-214.66 827.89,-221.43"/>
</a>
</g>
</g>
<!-- Node10 -->
<g id="Node000010" class="node">
<title>Node10</title>
<g id="a_Node000010"><a xlink:href="m__time__steppers_8fpp_8f90.html#ac88fae0ccfd624140b3c9caf3c7f2dd0" target="_top" xlink:title="Bubble source part in Strang operator splitting scheme.">
<polygon fill="white" stroke="#666666" points="754,-153.5 631,-153.5 631,-134.5 754,-134.5 754,-153.5"/>
<text text-anchor="middle" x="692.5" y="-141.5" font-family="Helvetica,sans-Serif" font-size="10.00">s_adaptive_dt_bubble</text>
</a>
</g>
</g>
<!-- Node9&#45;&gt;Node10 -->
<g id="edge10_Node000009_Node000010" class="edge">
<title>Node9&#45;&gt;Node10</title>
<g id="a_edge10_Node000009_Node000010"><a xlink:title=" ">
<path fill="none" stroke="#63b8ff" d="M811.45,-123.63C791.09,-127.15 768.57,-131.04 748.71,-134.47"/>
<polygon fill="#63b8ff" stroke="#63b8ff" points="812.3,-127.03 821.56,-121.88 811.11,-120.14 812.3,-127.03"/>
</a>
</g>
</g>
<!-- Node12 -->
<g id="Node000012" class="node">
<title>Node12</title>
<g id="a_Node000012"><a xlink:href="m__bubbles__EL_8fpp_8f90.html#ae9c61f97e265490256edc6fbb5ff18ba" target="_top" xlink:title="The purpose of this procedure is to obtain the initial bubbles&#39; information.">
<polygon fill="white" stroke="#666666" points="753.5,-49.5 631.5,-49.5 631.5,-30.5 753.5,-30.5 753.5,-49.5"/>
<text text-anchor="middle" x="692.5" y="-37.5" font-family="Helvetica,sans-Serif" font-size="10.00">s_read_input_bubbles</text>
</a>
</g>
</g>
<!-- Node9&#45;&gt;Node12 -->
<g id="edge13_Node000009_Node000012" class="edge">
<title>Node9&#45;&gt;Node12</title>
<g id="a_edge13_Node000009_Node000012"><a xlink:title=" ">
<path fill="none" stroke="#63b8ff" d="M840.05,-99.6C804.39,-85.1 748.42,-62.34 716.97,-49.55"/>
<polygon fill="#63b8ff" stroke="#63b8ff" points="838.95,-102.93 849.53,-103.46 841.59,-96.45 838.95,-102.93"/>
</a>
</g>
</g>
<!-- Node15 -->
<g id="Node000015" class="node">
<title>Node15</title>
<g id="a_Node000015"><a xlink:href="m__bubbles__EL_8fpp_8f90.html#a5c26596cc654d6a04247a85756b7a929" target="_top" xlink:title="This subroutine updates the Lagrange variables using the tvd RK time steppers. The time derivative of...">
<polygon fill="white" stroke="#666666" points="765,-108.5 620,-108.5 620,-89.5 765,-89.5 765,-108.5"/>
<text text-anchor="middle" x="692.5" y="-96.5" font-family="Helvetica,sans-Serif" font-size="10.00">s_update_lagrange_tdv_rk</text>
</a>
</g>
</g>
<!-- Node9&#45;&gt;Node15 -->
<g id="edge18_Node000009_Node000015" class="edge">
<title>Node9&#45;&gt;Node15</title>
<g id="a_edge18_Node000009_Node000015"><a xlink:title=" ">
<path fill="none" stroke="#63b8ff" d="M811.42,-108.2C796.48,-107.03 780.37,-105.78 765.01,-104.58"/>
<polygon fill="#63b8ff" stroke="#63b8ff" points="811.32,-111.7 821.56,-108.99 811.86,-104.72 811.32,-111.7"/>
</a>
</g>
</g>
<!-- Node11 -->
<g id="Node000011" class="node">
<title>Node11</title>
<g id="a_Node000011"><a xlink:href="m__time__steppers_8fpp_8f90.html#a5858523edfce42df32b2b0a8af54bc0e" target="_top" xlink:title="Strang splitting scheme with 3rd order TVD RK time&#45;stepping algorithm for the flux term and adaptive ...">
<polygon fill="white" stroke="#666666" points="432,-181.5 329,-181.5 329,-162.5 432,-162.5 432,-181.5"/>
<text text-anchor="middle" x="380.5" y="-169.5" font-family="Helvetica,sans-Serif" font-size="10.00">s_strang_splitting</text>
</a>
</g>
</g>
<!-- Node10&#45;&gt;Node11 -->
<g id="edge11_Node000010_Node000011" class="edge">
<title>Node10&#45;&gt;Node11</title>
<g id="a_edge11_Node000010_Node000011"><a xlink:title=" ">
<path fill="none" stroke="#63b8ff" d="M620.88,-150.38C563.33,-155.58 483.45,-162.79 432.12,-167.43"/>
<polygon fill="#63b8ff" stroke="#63b8ff" points="621.35,-153.85 630.99,-149.47 620.72,-146.88 621.35,-153.85"/>
</a>
</g>
</g>
<!-- Node11&#45;&gt;Node4 -->
<g id="edge12_Node000011_Node000004" class="edge">
<title>Node11&#45;&gt;Node4</title>
<g id="a_edge12_Node000011_Node000004"><a xlink:title=" ">
<path fill="none" stroke="#63b8ff" d="M345.1,-158.8C317.84,-148.33 280.38,-133.95 255.94,-124.57"/>
<polygon fill="#63b8ff" stroke="#63b8ff" points="344.05,-162.14 354.64,-162.46 346.56,-155.61 344.05,-162.14"/>
</a>
</g>
</g>
<!-- Node13 -->
<g id="Node000013" class="node">
<title>Node13</title>
<g id="a_Node000013"><a xlink:href="m__bubbles__EL_8fpp_8f90.html#ae479bfa2d92038a5c675209a17224a05" target="_top" xlink:title="Initializes the lagrangian subgrid bubble solver.">
<polygon fill="white" stroke="#666666" points="584,-30 471,-30 471,0 584,0 584,-30"/>
<text text-anchor="start" x="479" y="-18" font-family="Helvetica,sans-Serif" font-size="10.00">s_initialize_bubbles</text>
<text text-anchor="middle" x="527.5" y="-7" font-family="Helvetica,sans-Serif" font-size="10.00">_el_module</text>
</a>
</g>
</g>
<!-- Node12&#45;&gt;Node13 -->
<g id="edge14_Node000012_Node000013" class="edge">
<title>Node12&#45;&gt;Node13</title>
<g id="a_edge14_Node000012_Node000013"><a xlink:title=" ">
<path fill="none" stroke="#63b8ff" d="M621.02,-29.19C608.69,-27.3 596.02,-25.36 584.17,-23.54"/>
<polygon fill="#63b8ff" stroke="#63b8ff" points="620.85,-32.71 631.27,-30.76 621.91,-25.79 620.85,-32.71"/>
</a>
</g>
</g>
<!-- Node14 -->
<g id="Node000014" class="node">
<title>Node14</title>
<g id="a_Node000014"><a xlink:href="m__start__up_8fpp_8f90.html#adf1f9241f0635f38fe245fc5dfb9f12a" target="_top" xlink:title=" ">
<polygon fill="white" stroke="#666666" points="288,-87.5 172,-87.5 172,-68.5 288,-68.5 288,-87.5"/>
<text text-anchor="middle" x="230" y="-75.5" font-family="Helvetica,sans-Serif" font-size="10.00">s_initialize_modules</text>
</a>
</g>
</g>
<!-- Node13&#45;&gt;Node14 -->
<g id="edge15_Node000013_Node000014" class="edge">
<title>Node13&#45;&gt;Node14</title>
<g id="a_edge15_Node000013_Node000014"><a xlink:title=" ">
<path fill="none" stroke="#63b8ff" d="M460.71,-28.01C421.54,-35.86 370.87,-46.22 326,-56 307.97,-59.93 288.07,-64.5 271.16,-68.46"/>
<polygon fill="#63b8ff" stroke="#63b8ff" points="461.55,-31.41 470.67,-26.01 460.18,-24.54 461.55,-31.41"/>
</a>
</g>
</g>
<!-- Node14&#45;&gt;Node5 -->
<g id="edge16_Node000014_Node000005" class="edge">
<title>Node14&#45;&gt;Node5</title>
<g id="a_edge16_Node000014_Node000005"><a xlink:title=" ">
<path fill="none" stroke="#63b8ff" d="M177.7,-89.79C155.73,-94.84 130.39,-100.66 109.6,-105.44"/>
<polygon fill="#63b8ff" stroke="#63b8ff" points="178.58,-93.18 187.54,-87.53 177.01,-86.36 178.58,-93.18"/>
</a>
</g>
</g>
<!-- Node14&#45;&gt;Node6 -->
<g id="edge17_Node000014_Node000006" class="edge">
<title>Node14&#45;&gt;Node6</title>
<g id="a_edge17_Node000014_Node000006"><a xlink:title=" ">
<path fill="none" stroke="#63b8ff" d="M161.6,-78C137.55,-78 111.9,-78 93.54,-78"/>
<polygon fill="#63b8ff" stroke="#63b8ff" points="161.78,-81.5 171.78,-78 161.78,-74.5 161.78,-81.5"/>
</a>
</g>
</g>
<!-- Node16 -->
<g id="Node000016" class="node">
<title>Node16</title>
<g id="a_Node000016"><a xlink:href="m__time__steppers_8fpp_8f90.html#a95dcf858eaba9951c12d4590ec467f62" target="_top" xlink:title="1st order TVD RK time&#45;stepping algorithm">
<polygon fill="white" stroke="#666666" points="435,-105.5 326,-105.5 326,-86.5 435,-86.5 435,-105.5"/>
<text text-anchor="middle" x="380.5" y="-93.5" font-family="Helvetica,sans-Serif" font-size="10.00">s_1st_order_tvd_rk</text>
</a>
</g>
</g>
<!-- Node15&#45;&gt;Node16 -->
<g id="edge19_Node000015_Node000016" class="edge">
<title>Node15&#45;&gt;Node16</title>
<g id="a_edge19_Node000015_Node000016"><a xlink:title=" ">
<path fill="none" stroke="#63b8ff" d="M609.88,-98.21C554.7,-97.68 483.38,-96.99 435.24,-96.52"/>
<polygon fill="#63b8ff" stroke="#63b8ff" points="609.96,-101.71 619.99,-98.31 610.02,-94.71 609.96,-101.71"/>
</a>
</g>
</g>
<!-- Node17 -->
<g id="Node000017" class="node">
<title>Node17</title>
<g id="a_Node000017"><a xlink:href="m__time__steppers_8fpp_8f90.html#a30504937d9153ef9e5d9990a8894e89a" target="_top" xlink:title="2nd order TVD RK time&#45;stepping algorithm">
<polygon fill="white" stroke="#666666" points="583.5,-67.5 471.5,-67.5 471.5,-48.5 583.5,-48.5 583.5,-67.5"/>
<text text-anchor="middle" x="527.5" y="-55.5" font-family="Helvetica,sans-Serif" font-size="10.00">s_2nd_order_tvd_rk</text>
</a>
</g>
</g>
<!-- Node15&#45;&gt;Node17 -->
<g id="edge21_Node000015_Node000017" class="edge">
<title>Node15&#45;&gt;Node17</title>
<g id="a_edge21_Node000015_Node000017"><a xlink:title=" ">
<path fill="none" stroke="#63b8ff" d="M643.82,-87.01C619.15,-80.8 589.46,-73.33 566.38,-67.53"/>
<polygon fill="#63b8ff" stroke="#63b8ff" points="643.14,-90.45 653.69,-89.49 644.85,-83.66 643.14,-90.45"/>
</a>
</g>
</g>
<!-- Node18 -->
<g id="Node000018" class="node">
<title>Node18</title>
<g id="a_Node000018"><a xlink:href="m__time__steppers_8fpp_8f90.html#aa54ad1694d32cfe180d81112527699e4" target="_top" xlink:title="3rd order TVD RK time&#45;stepping algorithm">
<polygon fill="white" stroke="#666666" points="582.5,-143.5 472.5,-143.5 472.5,-124.5 582.5,-124.5 582.5,-143.5"/>
<text text-anchor="middle" x="527.5" y="-131.5" font-family="Helvetica,sans-Serif" font-size="10.00">s_3rd_order_tvd_rk</text>
</a>
</g>
</g>
<!-- Node15&#45;&gt;Node18 -->
<g id="edge23_Node000015_Node000018" class="edge">
<title>Node15&#45;&gt;Node18</title>
<g id="a_edge23_Node000015_Node000018"><a xlink:title=" ">
<path fill="none" stroke="#63b8ff" d="M636.99,-110.7C616.19,-115.17 592.75,-120.21 572.99,-124.45"/>
<polygon fill="#63b8ff" stroke="#63b8ff" points="637.92,-114.09 646.96,-108.56 636.45,-107.24 637.92,-114.09"/>
</a>
</g>
</g>
<!-- Node16&#45;&gt;Node4 -->
<g id="edge20_Node000016_Node000004" class="edge">
<title>Node16&#45;&gt;Node4</title>
<g id="a_edge20_Node000016_Node000004"><a xlink:title=" ">
<path fill="none" stroke="#63b8ff" d="M315.93,-104.13C307.34,-105.23 298.57,-106.36 290.06,-107.44"/>
<polygon fill="#63b8ff" stroke="#63b8ff" points="316.41,-107.6 325.89,-102.86 315.52,-100.66 316.41,-107.6"/>
</a>
</g>
</g>
<!-- Node17&#45;&gt;Node4 -->
<g id="edge22_Node000017_Node000004" class="edge">
<title>Node17&#45;&gt;Node4</title>
<g id="a_edge22_Node000017_Node000004"><a xlink:title=" ">
<path fill="none" stroke="#63b8ff" d="M461.25,-57.79C421.43,-59.23 369.92,-63.89 326,-77 308.66,-82.17 306.67,-88.98 290,-96 281.77,-99.47 272.67,-102.68 264.14,-105.45"/>
<polygon fill="#63b8ff" stroke="#63b8ff" points="461.48,-61.29 471.37,-57.49 461.27,-54.29 461.48,-61.29"/>
</a>
</g>
</g>
<!-- Node18&#45;&gt;Node4 -->
<g id="edge24_Node000018_Node000004" class="edge">
<title>Node18&#45;&gt;Node4</title>
<g id="a_edge24_Node000018_Node000004"><a xlink:title=" ">
<path fill="none" stroke="#63b8ff" d="M462.02,-129.85C410.86,-126.56 339.91,-122 290.18,-118.81"/>
<polygon fill="#63b8ff" stroke="#63b8ff" points="462.1,-133.37 472.3,-130.52 462.55,-126.38 462.1,-133.37"/>
</a>
</g>
</g>
<!-- Node18&#45;&gt;Node11 -->
<g id="edge25_Node000018_Node000011" class="edge">
<title>Node18&#45;&gt;Node11</title>
<g id="a_edge25_Node000018_Node000011"><a xlink:title=" ">
<path fill="none" stroke="#63b8ff" d="M480.01,-146.18C459.88,-151.46 436.66,-157.54 417.83,-162.48"/>
<polygon fill="#63b8ff" stroke="#63b8ff" points="481.12,-149.51 489.91,-143.59 479.35,-142.74 481.12,-149.51"/>
</a>
</g>
</g>
</g>
</svg>
