<?xml version="1.0" encoding="UTF-8" standalone="no"?>
<!DOCTYPE svg PUBLIC "-//W3C//DTD SVG 1.1//EN"
 "http://www.w3.org/Graphics/SVG/1.1/DTD/svg11.dtd">
<!-- Generated by graphviz version 2.43.0 (0)
 -->
<!-- Title: s_initialize_pressure_relaxation_module Pages: 1 -->
<svg width="621pt" height="112pt"
 viewBox="0.00 0.00 621.00 111.50" xmlns="http://www.w3.org/2000/svg" xmlns:xlink="http://www.w3.org/1999/xlink">
<g id="graph0" class="graph" transform="scale(1 1) rotate(0) translate(4 107.5)">
<title>s_initialize_pressure_relaxation_module</title>
<!-- Node1 -->
<g id="Node000001" class="node">
<title>Node1</title>
<g id="a_Node000001"><a xlink:title="Initialize the pressure relaxation module.">
<polygon fill="#999999" stroke="#666666" points="613,-81.5 497,-81.5 497,-51.5 613,-51.5 613,-81.5"/>
<text text-anchor="start" x="505" y="-69.5" font-family="Helvetica,sans-Serif" font-size="10.00">s_initialize_pressure</text>
<text text-anchor="middle" x="555" y="-58.5" font-family="Helvetica,sans-Serif" font-size="10.00">_relaxation_module</text>
</a>
</g>
</g>
<!-- Node2 -->
<g id="Node000002" class="node">
<title>Node2</title>
<g id="a_Node000002"><a xlink:href="m__pressure__relaxation_8fpp_8f90.html#a2a32c4f5a75fa16fe59cf2280f81d0cc" target="_top" xlink:title=" ">
<polygon fill="white" stroke="#666666" points="461,-103.5 322,-103.5 322,-73.5 461,-73.5 461,-103.5"/>
<text text-anchor="start" x="330" y="-91.5" font-family="Helvetica,sans-Serif" font-size="10.00">__m_pressure_relaxation</text>
<text text-anchor="middle" x="391.5" y="-80.5" font-family="Helvetica,sans-Serif" font-size="10.00">_fpp_f90__</text>
</a>
</g>
</g>
<!-- Node1&#45;&gt;Node2 -->
<g id="edge1_Node000001_Node000002" class="edge">
<title>Node1&#45;&gt;Node2</title>
<g id="a_edge1_Node000001_Node000002"><a xlink:title=" ">
<path fill="none" stroke="#63b8ff" d="M486.47,-75.7C478.06,-76.84 469.46,-78.02 461.04,-79.16"/>
<polygon fill="#63b8ff" stroke="#63b8ff" points="487.17,-79.14 496.61,-74.32 486.23,-72.2 487.17,-79.14"/>
</a>
</g>
</g>
<!-- Node3 -->
<g id="Node000003" class="node">
<title>Node3</title>
<g id="a_Node000003"><a xlink:href="m__rhs_8fpp_8f90.html#aed20e76f096227c0d2f92e7fd9c174ba" target="_top" xlink:title="The computation of parameters, the allocation of memory, the association of pointers and/or the execu...">
<polygon fill="white" stroke="#666666" points="457,-55 326,-55 326,-36 457,-36 457,-55"/>
<text text-anchor="middle" x="391.5" y="-43" font-family="Helvetica,sans-Serif" font-size="10.00">s_initialize_rhs_module</text>
</a>
</g>
</g>
<!-- Node1&#45;&gt;Node3 -->
<g id="edge2_Node000001_Node000003" class="edge">
<title>Node1&#45;&gt;Node3</title>
<g id="a_edge2_Node000001_Node000003"><a xlink:title=" ">
<path fill="none" stroke="#63b8ff" d="M486.57,-57.73C476.83,-56.47 466.82,-55.16 457.13,-53.9"/>
<polygon fill="#63b8ff" stroke="#63b8ff" points="486.24,-61.22 496.61,-59.04 487.14,-54.28 486.24,-61.22"/>
</a>
</g>
</g>
<!-- Node4 -->
<g id="Node000004" class="node">
<title>Node4</title>
<g id="a_Node000004"><a xlink:href="m__rhs_8fpp_8f90.html#a87616394067f1273cd06c4d299d10add" target="_top" xlink:title=" ">
<polygon fill="white" stroke="#666666" points="283,-74 173,-74 173,-55 283,-55 283,-74"/>
<text text-anchor="middle" x="228" y="-62" font-family="Helvetica,sans-Serif" font-size="10.00">__m_rhs_fpp_f90__</text>
</a>
</g>
</g>
<!-- Node3&#45;&gt;Node4 -->
<g id="edge3_Node000003_Node000004" class="edge">
<title>Node3&#45;&gt;Node4</title>
<g id="a_edge3_Node000003_Node000004"><a xlink:title=" ">
<path fill="none" stroke="#63b8ff" d="M315.72,-54.3C304.73,-55.59 293.6,-56.9 283.14,-58.13"/>
<polygon fill="#63b8ff" stroke="#63b8ff" points="316.22,-57.76 325.74,-53.12 315.4,-50.81 316.22,-57.76"/>
</a>
</g>
</g>
<!-- Node5 -->
<g id="Node000005" class="node">
<title>Node5</title>
<g id="a_Node000005"><a xlink:href="m__start__up_8fpp_8f90.html#adf1f9241f0635f38fe245fc5dfb9f12a" target="_top" xlink:title=" ">
<polygon fill="white" stroke="#666666" points="286,-37 170,-37 170,-18 286,-18 286,-37"/>
<text text-anchor="middle" x="228" y="-25" font-family="Helvetica,sans-Serif" font-size="10.00">s_initialize_modules</text>
</a>
</g>
</g>
<!-- Node3&#45;&gt;Node5 -->
<g id="edge4_Node000003_Node000005" class="edge">
<title>Node3&#45;&gt;Node5</title>
<g id="a_edge4_Node000003_Node000005"><a xlink:title=" ">
<path fill="none" stroke="#63b8ff" d="M315.54,-37.15C305.68,-36.05 295.71,-34.94 286.21,-33.88"/>
<polygon fill="#63b8ff" stroke="#63b8ff" points="315.42,-40.65 325.74,-38.28 316.19,-33.7 315.42,-40.65"/>
</a>
</g>
</g>
<!-- Node6 -->
<g id="Node000006" class="node">
<title>Node6</title>
<g id="a_Node000006"><a xlink:href="m__start__up_8fpp_8f90.html#ac09c216e540601049a819ae5b76091b5" target="_top" xlink:title=" ">
<polygon fill="white" stroke="#666666" points="134,-56 0,-56 0,-37 134,-37 134,-56"/>
<text text-anchor="middle" x="67" y="-44" font-family="Helvetica,sans-Serif" font-size="10.00">__m_start_up_fpp_f90__</text>
</a>
</g>
</g>
<!-- Node5&#45;&gt;Node6 -->
<g id="edge5_Node000005_Node000006" class="edge">
<title>Node5&#45;&gt;Node6</title>
<g id="a_edge5_Node000005_Node000006"><a xlink:title=" ">
<path fill="none" stroke="#63b8ff" d="M159.5,-35.57C151.14,-36.57 142.59,-37.59 134.24,-38.59"/>
<polygon fill="#63b8ff" stroke="#63b8ff" points="160.08,-39.02 169.6,-34.36 159.25,-32.07 160.08,-39.02"/>
</a>
</g>
</g>
<!-- Node7 -->
<g id="Node000007" class="node">
<title>Node7</title>
<g id="a_Node000007"><a xlink:href="p__main_8fpp_8f90.html#aeec10ee8e2940c953967da3e374e1579" target="_top" xlink:title="Quasi&#45;conservative, shock&#45; and interface&#45; capturing finite&#45;volume scheme for the multicomponent Navie...">
<polygon fill="white" stroke="#666666" points="93.5,-19 40.5,-19 40.5,0 93.5,0 93.5,-19"/>
<text text-anchor="middle" x="67" y="-7" font-family="Helvetica,sans-Serif" font-size="10.00">p_main</text>
</a>
</g>
</g>
<!-- Node5&#45;&gt;Node7 -->
<g id="edge6_Node000005_Node000007" class="edge">
<title>Node5&#45;&gt;Node7</title>
<g id="a_edge6_Node000005_Node000007"><a xlink:title=" ">
<path fill="none" stroke="#63b8ff" d="M159.41,-19.85C136.19,-17.22 111.59,-14.44 93.77,-12.42"/>
<polygon fill="#63b8ff" stroke="#63b8ff" points="159.27,-23.35 169.6,-21 160.05,-16.4 159.27,-23.35"/>
</a>
</g>
</g>
</g>
</svg>
