<?xml version="1.0" encoding="UTF-8" standalone="no"?>
<!DOCTYPE svg PUBLIC "-//W3C//DTD SVG 1.1//EN"
 "http://www.w3.org/Graphics/SVG/1.1/DTD/svg11.dtd">
<!-- Generated by graphviz version 2.43.0 (0)
 -->
<!-- Title: s_finalize_pressure_relaxation_module Pages: 1 -->
<svg width="544pt" height="102pt"
 viewBox="0.00 0.00 544.00 102.00" xmlns="http://www.w3.org/2000/svg" xmlns:xlink="http://www.w3.org/1999/xlink">
<g id="graph0" class="graph" transform="scale(1 1) rotate(0) translate(4 98)">
<title>s_finalize_pressure_relaxation_module</title>
<!-- Node1 -->
<g id="Node000001" class="node">
<title>Node1</title>
<g id="a_Node000001"><a xlink:title="Finalize the pressure relaxation module.">
<polygon fill="#999999" stroke="#666666" points="536,-72 423,-72 423,-42 536,-42 536,-72"/>
<text text-anchor="start" x="431" y="-60" font-family="Helvetica,sans-Serif" font-size="10.00">s_finalize_pressure</text>
<text text-anchor="middle" x="479.5" y="-49" font-family="Helvetica,sans-Serif" font-size="10.00">_relaxation_module</text>
</a>
</g>
</g>
<!-- Node2 -->
<g id="Node000002" class="node">
<title>Node2</title>
<g id="a_Node000002"><a xlink:href="m__pressure__relaxation_8fpp_8f90.html#a2a32c4f5a75fa16fe59cf2280f81d0cc" target="_top" xlink:title=" ">
<polygon fill="white" stroke="#666666" points="387,-94 248,-94 248,-64 387,-64 387,-94"/>
<text text-anchor="start" x="256" y="-82" font-family="Helvetica,sans-Serif" font-size="10.00">__m_pressure_relaxation</text>
<text text-anchor="middle" x="317.5" y="-71" font-family="Helvetica,sans-Serif" font-size="10.00">_fpp_f90__</text>
</a>
</g>
</g>
<!-- Node1&#45;&gt;Node2 -->
<g id="edge1_Node000001_Node000002" class="edge">
<title>Node1&#45;&gt;Node2</title>
<g id="a_edge1_Node000001_Node000002"><a xlink:title=" ">
<path fill="none" stroke="#63b8ff" d="M412.81,-66.03C404.35,-67.2 395.67,-68.39 387.17,-69.56"/>
<polygon fill="#63b8ff" stroke="#63b8ff" points="413.56,-69.46 422.99,-64.63 412.61,-62.53 413.56,-69.46"/>
</a>
</g>
</g>
<!-- Node3 -->
<g id="Node000003" class="node">
<title>Node3</title>
<g id="a_Node000003"><a xlink:href="m__rhs_8fpp_8f90.html#aca22ae3820bba1d1665f4ef81b69680e" target="_top" xlink:title="Module deallocation and/or disassociation procedures.">
<polygon fill="white" stroke="#666666" points="380,-45.5 255,-45.5 255,-26.5 380,-26.5 380,-45.5"/>
<text text-anchor="middle" x="317.5" y="-33.5" font-family="Helvetica,sans-Serif" font-size="10.00">s_finalize_rhs_module</text>
</a>
</g>
</g>
<!-- Node1&#45;&gt;Node3 -->
<g id="edge2_Node000001_Node000003" class="edge">
<title>Node1&#45;&gt;Node3</title>
<g id="a_edge2_Node000001_Node000003"><a xlink:title=" ">
<path fill="none" stroke="#63b8ff" d="M412.79,-48.38C402.02,-46.96 390.88,-45.5 380.21,-44.1"/>
<polygon fill="#63b8ff" stroke="#63b8ff" points="412.62,-51.88 422.99,-49.71 413.53,-44.94 412.62,-51.88"/>
</a>
</g>
</g>
<!-- Node4 -->
<g id="Node000004" class="node">
<title>Node4</title>
<g id="a_Node000004"><a xlink:href="m__rhs_8fpp_8f90.html#a87616394067f1273cd06c4d299d10add" target="_top" xlink:title=" ">
<polygon fill="white" stroke="#666666" points="205.5,-67.5 95.5,-67.5 95.5,-48.5 205.5,-48.5 205.5,-67.5"/>
<text text-anchor="middle" x="150.5" y="-55.5" font-family="Helvetica,sans-Serif" font-size="10.00">__m_rhs_fpp_f90__</text>
</a>
</g>
</g>
<!-- Node3&#45;&gt;Node4 -->
<g id="edge3_Node000003_Node000004" class="edge">
<title>Node3&#45;&gt;Node4</title>
<g id="a_edge3_Node000003_Node000004"><a xlink:title=" ">
<path fill="none" stroke="#63b8ff" d="M244.67,-45.58C231.57,-47.32 218.1,-49.12 205.63,-50.78"/>
<polygon fill="#63b8ff" stroke="#63b8ff" points="245.14,-49.05 254.59,-44.25 244.22,-42.11 245.14,-49.05"/>
</a>
</g>
</g>
<!-- Node5 -->
<g id="Node000005" class="node">
<title>Node5</title>
<g id="a_Node000005"><a xlink:href="namespacem__start__up.html#aca13f477717fbe9c77304a91bc9d8cc9" target="_top" xlink:title=" ">
<polygon fill="white" stroke="#666666" points="212,-30 89,-30 89,0 212,0 212,-30"/>
<text text-anchor="start" x="97" y="-18" font-family="Helvetica,sans-Serif" font-size="10.00">m_start_up::s_finalize</text>
<text text-anchor="middle" x="150.5" y="-7" font-family="Helvetica,sans-Serif" font-size="10.00">_modules</text>
</a>
</g>
</g>
<!-- Node3&#45;&gt;Node5 -->
<g id="edge4_Node000003_Node000005" class="edge">
<title>Node3&#45;&gt;Node5</title>
<g id="a_edge4_Node000003_Node000005"><a xlink:title=" ">
<path fill="none" stroke="#63b8ff" d="M244.37,-26.82C233.61,-25.45 222.61,-24.05 212.11,-22.71"/>
<polygon fill="#63b8ff" stroke="#63b8ff" points="244.23,-30.33 254.59,-28.12 245.11,-23.39 244.23,-30.33"/>
</a>
</g>
</g>
<!-- Node6 -->
<g id="Node000006" class="node">
<title>Node6</title>
<g id="a_Node000006"><a xlink:href="p__main_8fpp_8f90.html#aeec10ee8e2940c953967da3e374e1579" target="_top" xlink:title="Quasi&#45;conservative, shock&#45; and interface&#45; capturing finite&#45;volume scheme for the multicomponent Navie...">
<polygon fill="white" stroke="#666666" points="53,-24.5 0,-24.5 0,-5.5 53,-5.5 53,-24.5"/>
<text text-anchor="middle" x="26.5" y="-12.5" font-family="Helvetica,sans-Serif" font-size="10.00">p_main</text>
</a>
</g>
</g>
<!-- Node5&#45;&gt;Node6 -->
<g id="edge5_Node000005_Node000006" class="edge">
<title>Node5&#45;&gt;Node6</title>
<g id="a_edge5_Node000005_Node000006"><a xlink:title=" ">
<path fill="none" stroke="#63b8ff" d="M78.59,-15C69.58,-15 60.86,-15 53.25,-15"/>
<polygon fill="#63b8ff" stroke="#63b8ff" points="78.86,-18.5 88.86,-15 78.86,-11.5 78.86,-18.5"/>
</a>
</g>
</g>
</g>
</svg>
