<?xml version="1.0" encoding="UTF-8" standalone="no"?>
<!DOCTYPE svg PUBLIC "-//W3C//DTD SVG 1.1//EN"
 "http://www.w3.org/Graphics/SVG/1.1/DTD/svg11.dtd">
<!-- Generated by graphviz version 2.43.0 (0)
 -->
<!-- Title: s_compute_jacobian_matrix Pages: 1 -->
<svg width="810pt" height="94pt"
 viewBox="0.00 0.00 810.00 93.50" xmlns="http://www.w3.org/2000/svg" xmlns:xlink="http://www.w3.org/1999/xlink">
<g id="graph0" class="graph" transform="scale(1 1) rotate(0) translate(4 89.5)">
<title>s_compute_jacobian_matrix</title>
<!-- Node1 -->
<g id="Node000001" class="node">
<title>Node1</title>
<g id="a_Node000001"><a xlink:title="This auxiliary subroutine calculates the 2 x 2 Jacobian and, its inverse and transpose to be used in ...">
<polygon fill="#999999" stroke="#666666" points="802,-63.5 686,-63.5 686,-33.5 802,-33.5 802,-63.5"/>
<text text-anchor="start" x="694" y="-51.5" font-family="Helvetica,sans-Serif" font-size="10.00">s_compute_jacobian</text>
<text text-anchor="middle" x="744" y="-40.5" font-family="Helvetica,sans-Serif" font-size="10.00">_matrix</text>
</a>
</g>
</g>
<!-- Node2 -->
<g id="Node000002" class="node">
<title>Node2</title>
<g id="a_Node000002"><a xlink:href="m__phase__change_8fpp_8f90.html#acaea3e6b49f88feb41739a4bc87b6740" target="_top" xlink:title="This auxiliary subroutine is created to activate the pTg&#45;equilibrium for N fluids under pT and 2 flui...">
<polygon fill="white" stroke="#666666" points="650,-58 502,-58 502,-39 650,-39 650,-58"/>
<text text-anchor="middle" x="576" y="-46" font-family="Helvetica,sans-Serif" font-size="10.00">s_infinite_ptg_relaxation_k</text>
</a>
</g>
</g>
<!-- Node1&#45;&gt;Node2 -->
<g id="edge1_Node000001_Node000002" class="edge">
<title>Node1&#45;&gt;Node2</title>
<g id="a_edge1_Node000001_Node000002"><a xlink:title=" ">
<path fill="none" stroke="#63b8ff" d="M675.71,-48.5C667.26,-48.5 658.59,-48.5 650.06,-48.5"/>
<polygon fill="#63b8ff" stroke="#63b8ff" points="675.87,-52 685.87,-48.5 675.87,-45 675.87,-52"/>
</a>
</g>
</g>
<!-- Node3 -->
<g id="Node000003" class="node">
<title>Node3</title>
<g id="a_Node000003"><a xlink:href="m__phase__change_8fpp_8f90.html#aca8a633466e657c41bf1fbb131d7e9ea" target="_top" xlink:title="This subroutine is created to activate either the pT&#45; (N fluids) or the pTg&#45;equilibrium (2 fluids for...">
<polygon fill="white" stroke="#666666" points="466,-58 339,-58 339,-39 466,-39 466,-58"/>
<text text-anchor="middle" x="402.5" y="-46" font-family="Helvetica,sans-Serif" font-size="10.00">s_infinite_relaxation_k</text>
</a>
</g>
</g>
<!-- Node2&#45;&gt;Node3 -->
<g id="edge2_Node000002_Node000003" class="edge">
<title>Node2&#45;&gt;Node3</title>
<g id="a_edge2_Node000002_Node000003"><a xlink:title=" ">
<path fill="none" stroke="#63b8ff" d="M491.73,-48.5C483.14,-48.5 474.52,-48.5 466.22,-48.5"/>
<polygon fill="#63b8ff" stroke="#63b8ff" points="491.77,-52 501.77,-48.5 491.77,-45 491.77,-52"/>
</a>
</g>
</g>
<!-- Node4 -->
<g id="Node000004" class="node">
<title>Node4</title>
<g id="a_Node000004"><a xlink:href="m__phase__change_8fpp_8f90.html#ae587a492aa621ac7170d6b53d585d5d4" target="_top" xlink:title="energies (6&#45;eqn to 4&#45;eqn) equilibrium through an infinitely fast (algebraic) procedure.">
<polygon fill="white" stroke="#666666" points="303,-85.5 170,-85.5 170,-55.5 303,-55.5 303,-85.5"/>
<text text-anchor="start" x="178" y="-73.5" font-family="Helvetica,sans-Serif" font-size="10.00">__m_phase_change_fpp</text>
<text text-anchor="middle" x="236.5" y="-62.5" font-family="Helvetica,sans-Serif" font-size="10.00">_f90__</text>
</a>
</g>
</g>
<!-- Node3&#45;&gt;Node4 -->
<g id="edge3_Node000003_Node000004" class="edge">
<title>Node3&#45;&gt;Node4</title>
<g id="a_edge3_Node000003_Node000004"><a xlink:title=" ">
<path fill="none" stroke="#63b8ff" d="M328.43,-58.3C320.04,-59.43 311.54,-60.57 303.26,-61.68"/>
<polygon fill="#63b8ff" stroke="#63b8ff" points="329.12,-61.74 338.56,-56.94 328.19,-54.8 329.12,-61.74"/>
</a>
</g>
</g>
<!-- Node5 -->
<g id="Node000005" class="node">
<title>Node5</title>
<g id="a_Node000005"><a xlink:href="m__start__up_8fpp_8f90.html#a1f6993aab1d2776640192c044a461640" target="_top" xlink:title=" ">
<polygon fill="white" stroke="#666666" points="296.5,-37 176.5,-37 176.5,-18 296.5,-18 296.5,-37"/>
<text text-anchor="middle" x="236.5" y="-25" font-family="Helvetica,sans-Serif" font-size="10.00">s_perform_time_step</text>
</a>
</g>
</g>
<!-- Node3&#45;&gt;Node5 -->
<g id="edge4_Node000003_Node000005" class="edge">
<title>Node3&#45;&gt;Node5</title>
<g id="a_edge4_Node000003_Node000005"><a xlink:title=" ">
<path fill="none" stroke="#63b8ff" d="M328.48,-39.15C317.87,-37.79 307.06,-36.41 296.77,-35.09"/>
<polygon fill="#63b8ff" stroke="#63b8ff" points="328.2,-42.64 338.56,-40.44 329.09,-35.7 328.2,-42.64"/>
</a>
</g>
</g>
<!-- Node6 -->
<g id="Node000006" class="node">
<title>Node6</title>
<g id="a_Node000006"><a xlink:href="m__start__up_8fpp_8f90.html#ac09c216e540601049a819ae5b76091b5" target="_top" xlink:title=" ">
<polygon fill="white" stroke="#666666" points="134,-56 0,-56 0,-37 134,-37 134,-56"/>
<text text-anchor="middle" x="67" y="-44" font-family="Helvetica,sans-Serif" font-size="10.00">__m_start_up_fpp_f90__</text>
</a>
</g>
</g>
<!-- Node5&#45;&gt;Node6 -->
<g id="edge5_Node000005_Node000006" class="edge">
<title>Node5&#45;&gt;Node6</title>
<g id="a_edge5_Node000005_Node000006"><a xlink:title=" ">
<path fill="none" stroke="#63b8ff" d="M166.38,-35.34C155.75,-36.55 144.79,-37.79 134.23,-38.99"/>
<polygon fill="#63b8ff" stroke="#63b8ff" points="166.9,-38.8 176.45,-34.2 166.11,-31.85 166.9,-38.8"/>
</a>
</g>
</g>
<!-- Node7 -->
<g id="Node000007" class="node">
<title>Node7</title>
<g id="a_Node000007"><a xlink:href="p__main_8fpp_8f90.html#aeec10ee8e2940c953967da3e374e1579" target="_top" xlink:title="Quasi&#45;conservative, shock&#45; and interface&#45; capturing finite&#45;volume scheme for the multicomponent Navie...">
<polygon fill="white" stroke="#666666" points="93.5,-19 40.5,-19 40.5,0 93.5,0 93.5,-19"/>
<text text-anchor="middle" x="67" y="-7" font-family="Helvetica,sans-Serif" font-size="10.00">p_main</text>
</a>
</g>
</g>
<!-- Node5&#45;&gt;Node7 -->
<g id="edge6_Node000005_Node000007" class="edge">
<title>Node5&#45;&gt;Node7</title>
<g id="a_edge6_Node000005_Node000007"><a xlink:title=" ">
<path fill="none" stroke="#63b8ff" d="M166.37,-20.07C140.74,-17.32 113.24,-14.36 93.85,-12.28"/>
<polygon fill="#63b8ff" stroke="#63b8ff" points="166.13,-23.57 176.45,-21.15 166.88,-16.61 166.13,-23.57"/>
</a>
</g>
</g>
</g>
</svg>
