<?xml version="1.0" encoding="UTF-8" standalone="no"?>
<!DOCTYPE svg PUBLIC "-//W3C//DTD SVG 1.1//EN"
 "http://www.w3.org/Graphics/SVG/1.1/DTD/svg11.dtd">
<!-- Generated by graphviz version 2.43.0 (0)
 -->
<!-- Title: __m_phase_change_fpp_f90__ Pages: 1 -->
<svg width="831pt" height="124pt"
 viewBox="0.00 0.00 831.00 124.00" xmlns="http://www.w3.org/2000/svg" xmlns:xlink="http://www.w3.org/1999/xlink">
<g id="graph0" class="graph" transform="scale(1 1) rotate(0) translate(4 120)">
<title>__m_phase_change_fpp_f90__</title>
<!-- Node1 -->
<g id="Node000001" class="node">
<title>Node1</title>
<g id="a_Node000001"><a xlink:title=" ">
<polygon fill="#999999" stroke="#666666" points="133,-73 0,-73 0,-43 133,-43 133,-73"/>
<text text-anchor="start" x="8" y="-61" font-family="Helvetica,sans-Serif" font-size="10.00">__m_phase_change_fpp</text>
<text text-anchor="middle" x="66.5" y="-50" font-family="Helvetica,sans-Serif" font-size="10.00">_f90__</text>
</a>
</g>
</g>
<!-- Node2 -->
<g id="Node000002" class="node">
<title>Node2</title>
<g id="a_Node000002"><a xlink:href="m__phase__change_8fpp_8f90.html#a36f5dcc40afc3ddaecfaedaef61b5021" target="_top" xlink:title="This subroutine finalizes the phase change module.">
<polygon fill="white" stroke="#666666" points="297,-116 180,-116 180,-86 297,-86 297,-116"/>
<text text-anchor="start" x="188" y="-104" font-family="Helvetica,sans-Serif" font-size="10.00">s_finalize_relaxation</text>
<text text-anchor="middle" x="238.5" y="-93" font-family="Helvetica,sans-Serif" font-size="10.00">_solver_module</text>
</a>
</g>
</g>
<!-- Node1&#45;&gt;Node2 -->
<g id="edge1_Node000001_Node000002" class="edge">
<title>Node1&#45;&gt;Node2</title>
<g id="a_edge1_Node000001_Node000002"><a xlink:title=" ">
<path fill="none" stroke="#63b8ff" d="M126.96,-73.04C140.88,-76.56 155.82,-80.34 170.06,-83.94"/>
<polygon fill="#63b8ff" stroke="#63b8ff" points="169.24,-87.34 179.79,-86.4 170.96,-80.56 169.24,-87.34"/>
</a>
</g>
</g>
<!-- Node3 -->
<g id="Node000003" class="node">
<title>Node3</title>
<g id="a_Node000003"><a xlink:href="m__phase__change_8fpp_8f90.html#ab0612220c96671498ca9877e1c00a639" target="_top" xlink:title="This subroutine is created to activate either the pT&#45; (N fluids) or the pTg&#45;equilibrium (2 fluids for...">
<polygon fill="white" stroke="#666666" points="471,-64.5 344,-64.5 344,-45.5 471,-45.5 471,-64.5"/>
<text text-anchor="middle" x="407.5" y="-52.5" font-family="Helvetica,sans-Serif" font-size="10.00">s_infinite_relaxation_k</text>
</a>
</g>
</g>
<!-- Node1&#45;&gt;Node3 -->
<g id="edge2_Node000001_Node000003" class="edge">
<title>Node1&#45;&gt;Node3</title>
<g id="a_edge2_Node000001_Node000003"><a xlink:title=" ">
<path fill="none" stroke="#63b8ff" d="M133.26,-57.42C190.78,-56.91 274.19,-56.17 333.7,-55.64"/>
<polygon fill="#63b8ff" stroke="#63b8ff" points="333.81,-59.14 343.78,-55.56 333.75,-52.14 333.81,-59.14"/>
</a>
</g>
</g>
<!-- Node9 -->
<g id="Node000009" class="node">
<title>Node9</title>
<g id="a_Node000009"><a xlink:href="m__phase__change_8fpp_8f90.html#a14fb0d0271f50c4373b2f17b8e88a770" target="_top" xlink:title="The purpose of this subroutine is to initialize the phase change module by setting the parameters nee...">
<polygon fill="white" stroke="#666666" points="308,-30 169,-30 169,0 308,0 308,-30"/>
<text text-anchor="start" x="177" y="-18" font-family="Helvetica,sans-Serif" font-size="10.00">s_initialize_phasechange</text>
<text text-anchor="middle" x="238.5" y="-7" font-family="Helvetica,sans-Serif" font-size="10.00">_module</text>
</a>
</g>
</g>
<!-- Node1&#45;&gt;Node9 -->
<g id="edge8_Node000001_Node000009" class="edge">
<title>Node1&#45;&gt;Node9</title>
<g id="a_edge8_Node000001_Node000009"><a xlink:title=" ">
<path fill="none" stroke="#63b8ff" d="M126.96,-42.96C140.29,-39.59 154.54,-35.98 168.23,-32.52"/>
<polygon fill="#63b8ff" stroke="#63b8ff" points="169.24,-35.88 178.08,-30.03 167.52,-29.09 169.24,-35.88"/>
</a>
</g>
</g>
<!-- Node4 -->
<g id="Node000004" class="node">
<title>Node4</title>
<g id="a_Node000004"><a xlink:href="m__phase__change_8fpp_8f90.html#ad652f4225e50ad62205200e60dc7425f" target="_top" xlink:title="This auxiliary subroutine is created to activate the pT&#45;equilibrium for N fluids.">
<polygon fill="white" stroke="#666666" points="652,-101.5 510,-101.5 510,-82.5 652,-82.5 652,-101.5"/>
<text text-anchor="middle" x="581" y="-89.5" font-family="Helvetica,sans-Serif" font-size="10.00">s_infinite_pt_relaxation_k</text>
</a>
</g>
</g>
<!-- Node3&#45;&gt;Node4 -->
<g id="edge3_Node000003_Node000004" class="edge">
<title>Node3&#45;&gt;Node4</title>
<g id="a_edge3_Node000003_Node000004"><a xlink:title=" ">
<path fill="none" stroke="#63b8ff" d="M452.67,-64.53C474.98,-69.34 502.26,-75.23 525.83,-80.31"/>
<polygon fill="#63b8ff" stroke="#63b8ff" points="525.17,-83.75 535.69,-82.44 526.65,-76.91 525.17,-83.75"/>
</a>
</g>
</g>
<!-- Node5 -->
<g id="Node000005" class="node">
<title>Node5</title>
<g id="a_Node000005"><a xlink:href="m__phase__change_8fpp_8f90.html#acdc2376a76e6e6e8cfb6f4ed9907d9de" target="_top" xlink:title="This auxiliary subroutine is created to activate the pTg&#45;equilibrium for N fluids under pT and 2 flui...">
<polygon fill="white" stroke="#666666" points="655,-64.5 507,-64.5 507,-45.5 655,-45.5 655,-64.5"/>
<text text-anchor="middle" x="581" y="-52.5" font-family="Helvetica,sans-Serif" font-size="10.00">s_infinite_ptg_relaxation_k</text>
</a>
</g>
</g>
<!-- Node3&#45;&gt;Node5 -->
<g id="edge4_Node000003_Node000005" class="edge">
<title>Node3&#45;&gt;Node5</title>
<g id="a_edge4_Node000003_Node000005"><a xlink:title=" ">
<path fill="none" stroke="#63b8ff" d="M471.39,-55C479.7,-55 488.32,-55 496.91,-55"/>
<polygon fill="#63b8ff" stroke="#63b8ff" points="496.96,-58.5 506.96,-55 496.96,-51.5 496.96,-58.5"/>
</a>
</g>
</g>
<!-- Node8 -->
<g id="Node000008" class="node">
<title>Node8</title>
<g id="a_Node000008"><a xlink:href="m__phase__change_8fpp_8f90.html#a8d29934dda273de9a032c4797605be3f" target="_top" xlink:title="This auxiliary subroutine finds the Saturation temperature for a given saturation pressure through a ...">
<polygon fill="white" stroke="#666666" points="604,-27.5 558,-27.5 558,-8.5 604,-8.5 604,-27.5"/>
<text text-anchor="middle" x="581" y="-15.5" font-family="Helvetica,sans-Serif" font-size="10.00">s_tsat</text>
</a>
</g>
</g>
<!-- Node3&#45;&gt;Node8 -->
<g id="edge7_Node000003_Node000008" class="edge">
<title>Node3&#45;&gt;Node8</title>
<g id="a_edge7_Node000003_Node000008"><a xlink:title=" ">
<path fill="none" stroke="#63b8ff" d="M452.67,-45.47C482.45,-39.04 521.08,-30.71 547.94,-24.92"/>
<polygon fill="#63b8ff" stroke="#63b8ff" points="548.93,-28.28 557.97,-22.75 547.46,-21.44 548.93,-28.28"/>
</a>
</g>
</g>
<!-- Node6 -->
<g id="Node000006" class="node">
<title>Node6</title>
<g id="a_Node000006"><a xlink:href="m__phase__change_8fpp_8f90.html#a1cd33c317cc8ace82ccc1c33a53644cc" target="_top" xlink:title="This auxiliary subroutine calculates the 2 x 2 Jacobian and, its inverse and transpose to be used in ...">
<polygon fill="white" stroke="#666666" points="815,-92 699,-92 699,-62 815,-62 815,-92"/>
<text text-anchor="start" x="707" y="-80" font-family="Helvetica,sans-Serif" font-size="10.00">s_compute_jacobian</text>
<text text-anchor="middle" x="757" y="-69" font-family="Helvetica,sans-Serif" font-size="10.00">_matrix</text>
</a>
</g>
</g>
<!-- Node5&#45;&gt;Node6 -->
<g id="edge5_Node000005_Node000006" class="edge">
<title>Node5&#45;&gt;Node6</title>
<g id="a_edge5_Node000005_Node000006"><a xlink:title=" ">
<path fill="none" stroke="#63b8ff" d="M655.04,-64.23C666.21,-65.65 677.71,-67.1 688.76,-68.5"/>
<polygon fill="#63b8ff" stroke="#63b8ff" points="688.39,-71.98 698.75,-69.76 689.27,-65.03 688.39,-71.98"/>
</a>
</g>
</g>
<!-- Node7 -->
<g id="Node000007" class="node">
<title>Node7</title>
<g id="a_Node000007"><a xlink:href="m__phase__change_8fpp_8f90.html#abdbfe3d69ae51ba911409597a6870620" target="_top" xlink:title="This auxiliary subroutine computes the residue of the pTg&#45;equilibrium procedure.">
<polygon fill="white" stroke="#666666" points="823,-43.5 691,-43.5 691,-24.5 823,-24.5 823,-43.5"/>
<text text-anchor="middle" x="757" y="-31.5" font-family="Helvetica,sans-Serif" font-size="10.00">s_compute_ptg_residue</text>
</a>
</g>
</g>
<!-- Node5&#45;&gt;Node7 -->
<g id="edge6_Node000005_Node000007" class="edge">
<title>Node5&#45;&gt;Node7</title>
<g id="a_edge6_Node000005_Node000007"><a xlink:title=" ">
<path fill="none" stroke="#63b8ff" d="M655.04,-46.19C663.59,-45.15 672.33,-44.1 680.92,-43.06"/>
<polygon fill="#63b8ff" stroke="#63b8ff" points="681.39,-46.53 690.9,-41.86 680.55,-39.58 681.39,-46.53"/>
</a>
</g>
</g>
<!-- Node9&#45;&gt;Node3 -->
<g id="edge9_Node000009_Node000003" class="edge">
<title>Node9&#45;&gt;Node3</title>
<g id="a_edge9_Node000009_Node000003"><a xlink:title=" ">
<path fill="none" stroke="#63b8ff" d="M302.16,-30.01C320.26,-34.34 339.76,-39.02 356.95,-43.13"/>
<polygon fill="#63b8ff" stroke="#63b8ff" points="356.24,-46.56 366.78,-45.49 357.87,-39.75 356.24,-46.56"/>
</a>
</g>
</g>
<!-- Node10 -->
<g id="Node000010" class="node">
<title>Node10</title>
<g id="a_Node000010"><a xlink:href="m__mpi__common_8fpp_8f90.html#ad9e1329e498b65ad4256658675d6f797" target="_top" xlink:title="The subroutine terminates the MPI execution environment.">
<polygon fill="white" stroke="#666666" points="446,-24.5 369,-24.5 369,-5.5 446,-5.5 446,-24.5"/>
<text text-anchor="middle" x="407.5" y="-12.5" font-family="Helvetica,sans-Serif" font-size="10.00">s_mpi_abort</text>
</a>
</g>
</g>
<!-- Node9&#45;&gt;Node10 -->
<g id="edge10_Node000009_Node000010" class="edge">
<title>Node9&#45;&gt;Node10</title>
<g id="a_edge10_Node000009_Node000010"><a xlink:title=" ">
<path fill="none" stroke="#63b8ff" d="M308.39,-15C325.18,-15 342.78,-15 358.37,-15"/>
<polygon fill="#63b8ff" stroke="#63b8ff" points="358.8,-18.5 368.8,-15 358.8,-11.5 358.8,-18.5"/>
</a>
</g>
</g>
</g>
</svg>
