<?xml version="1.0" encoding="UTF-8" standalone="no"?>
<!DOCTYPE svg PUBLIC "-//W3C//DTD SVG 1.1//EN"
 "http://www.w3.org/Graphics/SVG/1.1/DTD/svg11.dtd">
<!-- Generated by graphviz version 2.43.0 (0)
 -->
<!-- Title: __m_qbmm_fpp_f90__ Pages: 1 -->
<!--zoomable 212 -->

<svg id="main" version="1.1" xmlns="http://www.w3.org/2000/svg" xmlns:xlink="http://www.w3.org/1999/xlink" xml:space="preserve" onload="init(evt)">
<style type="text/css"><![CDATA[
.node, .edge {opacity: 0.7;}
.node.selected, .edge.selected {opacity: 1;}
.edge:hover path { stroke: red; }
.edge:hover polygon { stroke: red; fill: red; }
]]></style>

<defs>
  <circle id="rim" cx="0" cy="0" r="7"/>
  <circle id="rim2" cx="0" cy="0" r="3.5"/>
  <g id="zoomPlus">
    <use xlink:href="#rim" fill="#404040"><set attributeName="fill" to="#808080" begin="zoomplus.mouseover" end="zoomplus.mouseout"/></use>
    <path d="M-4,0h8M0,-4v8" fill="none" stroke="white" stroke-width="1.5" pointer-events="none"/>
  </g>
  <g id="zoomMin">
    <use xlink:href="#rim" fill="#404040"><set attributeName="fill" to="#808080" begin="zoomminus.mouseover" end="zoomminus.mouseout"/></use>
    <path d="M-4,0h8" fill="none" stroke="white" stroke-width="1.5" pointer-events="none"/>
  </g>
  <g id="arrowUp" transform="translate(30 24)">
    <use xlink:href="#rim"/>
    <path pointer-events="none" fill="none" stroke="white" stroke-width="1.5" d="M0,-3.0v7 M-2.5,-0.5L0,-3.0L2.5,-0.5"/>
  </g>
  <g id="arrowRight" transform="rotate(90) translate(36 -43)">
    <use xlink:href="#rim"/>
    <path pointer-events="none" fill="none" stroke="white" stroke-width="1.5" d="M0,-3.0v7 M-2.5,-0.5L0,-3.0L2.5,-0.5"/>
  </g>
  <g id="arrowDown" transform="rotate(180) translate(-30 -48)">
    <use xlink:href="#rim"/>
    <path pointer-events="none" fill="none" stroke="white" stroke-width="1.5" d="M0,-3.0v7 M-2.5,-0.5L0,-3.0L2.5,-0.5"/>
  </g>
  <g id="arrowLeft" transform="rotate(270) translate(-36 17)">
    <use xlink:href="#rim"/>
    <path pointer-events="none" fill="none" stroke="white" stroke-width="1.5" d="M0,-3.0v7 M-2.5,-0.5L0,-3.0L2.5,-0.5"/>
  </g>
  <g id="resetDef">
    <use xlink:href="#rim2" fill="#404040"><set attributeName="fill" to="#808080" begin="reset.mouseover" end="reset.mouseout"/></use>
  </g>
</defs>
<script type="application/ecmascript">
var viewWidth = 556;
var viewHeight = 212;
var sectionId = 'dynsection-0';
</script>
<script type="application/ecmascript" xlink:href="svg.min.js"/>
<svg id="graph" class="graph">
<g id="viewport">
<title>__m_qbmm_fpp_f90__</title>
<!-- Node1 -->
<g id="Node000001" class="node">
<title>Node1</title>
<g id="a_Node000001"><a xlink:title=" ">
<polygon fill="#999999" stroke="#666666" points="126,-147 0,-147 0,-128 126,-128 126,-147"/>
<text text-anchor="middle" x="63" y="-135" font-family="Helvetica,sans-Serif" font-size="10.00">__m_qbmm_fpp_f90__</text>
</a>
</g>
</g>
<!-- Node2 -->
<g id="Node000002" class="node">
<title>Node2</title>
<g id="a_Node000002"><a xlink:href="m__qbmm_8fpp_8f90.html#a5e8f8b30325d688111d1ec1cd8c9680d" target="_top" xlink:title=" ">
<polygon fill="white" stroke="#666666" points="419,-204 368,-204 368,-185 419,-185 419,-204"/>
<text text-anchor="middle" x="393.5" y="-192" font-family="Helvetica,sans-Serif" font-size="10.00">s_coeff</text>
</a>
</g>
</g>
<!-- Node1&#45;&gt;Node2 -->
<g id="edge1_Node000001_Node000002" class="edge">
<title>Node1&#45;&gt;Node2</title>
<g id="a_edge1_Node000001_Node000002"><a xlink:title=" ">
<path fill="none" stroke="#63b8ff" d="M83.74,-147.1C103.16,-156.08 133.9,-169.04 162,-175.5 230.11,-191.17 312.15,-194.31 357.7,-194.72"/>
<polygon fill="#63b8ff" stroke="#63b8ff" points="357.9,-198.22 367.92,-194.77 357.94,-191.22 357.9,-198.22"/>
</a>
</g>
</g>
<!-- Node3 -->
<g id="Node000003" class="node">
<title>Node3</title>
<g id="a_Node000003"><a xlink:href="m__qbmm_8fpp_8f90.html#a76636f7da72646919d564340441e9696" target="_top" xlink:title=" ">
<polygon fill="white" stroke="#666666" points="299.5,-166 172.5,-166 172.5,-147 299.5,-147 299.5,-166"/>
<text text-anchor="middle" x="236" y="-154" font-family="Helvetica,sans-Serif" font-size="10.00">s_compute_qbmm_rhs</text>
</a>
</g>
</g>
<!-- Node1&#45;&gt;Node3 -->
<g id="edge2_Node000001_Node000003" class="edge">
<title>Node1&#45;&gt;Node3</title>
<g id="a_edge2_Node000001_Node000003"><a xlink:title=" ">
<path fill="none" stroke="#63b8ff" d="M126.22,-144.41C137.93,-145.71 150.28,-147.09 162.28,-148.42"/>
<polygon fill="#63b8ff" stroke="#63b8ff" points="161.93,-151.9 172.25,-149.53 162.7,-144.95 161.93,-151.9"/>
</a>
</g>
</g>
<!-- Node4 -->
<g id="Node000004" class="node">
<title>Node4</title>
<g id="a_Node000004"><a xlink:href="m__qbmm_8fpp_8f90.html#a0dc6ff2e426e8bd4e05ef938a87e28fa" target="_top" xlink:title=" ">
<polygon fill="white" stroke="#666666" points="310,-129 162,-129 162,-110 310,-110 310,-129"/>
<text text-anchor="middle" x="236" y="-117" font-family="Helvetica,sans-Serif" font-size="10.00">s_initialize_qbmm_module</text>
</a>
</g>
</g>
<!-- Node1&#45;&gt;Node4 -->
<g id="edge3_Node000001_Node000004" class="edge">
<title>Node1&#45;&gt;Node4</title>
<g id="a_edge3_Node000001_Node000004"><a xlink:title=" ">
<path fill="none" stroke="#63b8ff" d="M126.22,-130.95C134.52,-130.08 143.15,-129.17 151.74,-128.26"/>
<polygon fill="#63b8ff" stroke="#63b8ff" points="152.21,-131.73 161.79,-127.21 151.48,-124.77 152.21,-131.73"/>
</a>
</g>
</g>
<!-- Node5 -->
<g id="Node000005" class="node">
<title>Node5</title>
<g id="a_Node000005"><a xlink:href="m__qbmm_8fpp_8f90.html#a07d4ab28f830cfd5b555868bbf8a17fe" target="_top" xlink:title=" ">
<polygon fill="white" stroke="#666666" points="272.5,-92 199.5,-92 199.5,-73 272.5,-73 272.5,-92"/>
<text text-anchor="middle" x="236" y="-80" font-family="Helvetica,sans-Serif" font-size="10.00">s_mom_inv</text>
</a>
</g>
</g>
<!-- Node1&#45;&gt;Node5 -->
<g id="edge4_Node000001_Node000005" class="edge">
<title>Node1&#45;&gt;Node5</title>
<g id="a_edge4_Node000001_Node000005"><a xlink:title=" ">
<path fill="none" stroke="#63b8ff" d="M87.94,-127.96C107.64,-120.29 136.4,-109.51 162,-101.5 170.81,-98.74 180.31,-96.06 189.44,-93.63"/>
<polygon fill="#63b8ff" stroke="#63b8ff" points="190.37,-97 199.16,-91.09 188.6,-90.23 190.37,-97"/>
</a>
</g>
</g>
<!-- Node5&#45;&gt;Node2 -->
<g id="edge11_Node000005_Node000002" class="edge">
<title>Node5&#45;&gt;Node2</title>
<g id="a_edge11_Node000005_Node000002"><a xlink:title=" ">
<path fill="none" stroke="#63b8ff" d="M272.5,-85.51C285.44,-88.12 299.46,-92.87 310,-101.5 338.29,-124.68 319.31,-150.49 346,-175.5 349.63,-178.9 353.94,-181.73 358.46,-184.07"/>
<polygon fill="#63b8ff" stroke="#63b8ff" points="357.31,-187.38 367.87,-188.22 360.14,-180.98 357.31,-187.38"/>
</a>
</g>
</g>
<!-- Node6 -->
<g id="Node000006" class="node">
<title>Node6</title>
<g id="a_Node000006"><a xlink:href="m__qbmm_8fpp_8f90.html#a74e7ce86214df481371f693002986023" target="_top" xlink:title=" ">
<polygon fill="white" stroke="#666666" points="418.5,-148 368.5,-148 368.5,-129 418.5,-129 418.5,-148"/>
<text text-anchor="middle" x="393.5" y="-136" font-family="Helvetica,sans-Serif" font-size="10.00">f_quad</text>
</a>
</g>
</g>
<!-- Node5&#45;&gt;Node6 -->
<g id="edge5_Node000005_Node000006" class="edge">
<title>Node5&#45;&gt;Node6</title>
<g id="a_edge5_Node000005_Node000006"><a xlink:title=" ">
<path fill="none" stroke="#63b8ff" d="M272.8,-90.07C284.81,-93.06 298.16,-96.9 310,-101.5 326.87,-108.04 329.54,-113 346,-120.5 350.1,-122.37 354.45,-124.22 358.79,-125.98"/>
<polygon fill="#63b8ff" stroke="#63b8ff" points="357.56,-129.26 368.14,-129.68 360.13,-122.75 357.56,-129.26"/>
</a>
</g>
</g>
<!-- Node7 -->
<g id="Node000007" class="node">
<title>Node7</title>
<g id="a_Node000007"><a xlink:href="m__qbmm_8fpp_8f90.html#add8fc901ab3865292669cbb997aaf2b2" target="_top" xlink:title=" ">
<polygon fill="white" stroke="#666666" points="424.5,-93 362.5,-93 362.5,-74 424.5,-74 424.5,-93"/>
<text text-anchor="middle" x="393.5" y="-81" font-family="Helvetica,sans-Serif" font-size="10.00">f_quad2d</text>
</a>
</g>
</g>
<!-- Node5&#45;&gt;Node7 -->
<g id="edge7_Node000005_Node000007" class="edge">
<title>Node5&#45;&gt;Node7</title>
<g id="a_edge7_Node000005_Node000007"><a xlink:title=" ">
<path fill="none" stroke="#63b8ff" d="M272.67,-82.73C296.45,-82.88 327.73,-83.08 352.37,-83.24"/>
<polygon fill="#63b8ff" stroke="#63b8ff" points="352.46,-86.74 362.48,-83.31 352.51,-79.74 352.46,-86.74"/>
</a>
</g>
</g>
<!-- Node8 -->
<g id="Node000008" class="node">
<title>Node8</title>
<g id="a_Node000008"><a xlink:href="m__qbmm_8fpp_8f90.html#a57a24e4f3d6a9db5b1aaa3100b7ef46d" target="_top" xlink:title=" ">
<polygon fill="white" stroke="#666666" points="431.5,-56 355.5,-56 355.5,-37 431.5,-37 431.5,-56"/>
<text text-anchor="middle" x="393.5" y="-44" font-family="Helvetica,sans-Serif" font-size="10.00">s_chyqmom</text>
</a>
</g>
</g>
<!-- Node5&#45;&gt;Node8 -->
<g id="edge9_Node000005_Node000008" class="edge">
<title>Node5&#45;&gt;Node8</title>
<g id="a_edge9_Node000005_Node000008"><a xlink:title=" ">
<path fill="none" stroke="#63b8ff" d="M272.67,-74.24C294.23,-69.25 321.97,-62.83 345.32,-57.42"/>
<polygon fill="#63b8ff" stroke="#63b8ff" points="346.42,-60.76 355.37,-55.1 344.84,-53.94 346.42,-60.76"/>
</a>
</g>
</g>
<!-- Node10 -->
<g id="Node000010" class="node">
<title>Node10</title>
<g id="a_Node000010"><a xlink:href="m__qbmm_8fpp_8f90.html#aab31fde8338242a0eac719456000030d" target="_top" xlink:title=" ">
<polygon fill="white" stroke="#666666" points="441,-19 346,-19 346,0 441,0 441,-19"/>
<text text-anchor="middle" x="393.5" y="-7" font-family="Helvetica,sans-Serif" font-size="10.00">s_coeff_nonpoly</text>
</a>
</g>
</g>
<!-- Node5&#45;&gt;Node10 -->
<g id="edge12_Node000005_Node000010" class="edge">
<title>Node5&#45;&gt;Node10</title>
<g id="a_edge12_Node000005_Node000010"><a xlink:title=" ">
<path fill="none" stroke="#63b8ff" d="M255.32,-72.92C276.82,-61.79 313.66,-43.09 346,-28.5 350.14,-26.63 354.51,-24.74 358.86,-22.91"/>
<polygon fill="#63b8ff" stroke="#63b8ff" points="360.32,-26.09 368.22,-19.03 357.65,-19.62 360.32,-26.09"/>
</a>
</g>
</g>
<!-- Node6&#45;&gt;Node6 -->
<g id="edge6_Node000006_Node000006" class="edge">
<title>Node6&#45;&gt;Node6</title>
<g id="a_edge6_Node000006_Node000006"><a xlink:title=" ">
<path fill="none" stroke="#63b8ff" d="M375.31,-148.08C366.46,-156.73 372.53,-166 393.5,-166 406.61,-166 413.89,-162.38 415.35,-157.55"/>
<polygon fill="#63b8ff" stroke="#63b8ff" points="418.56,-156.15 411.69,-148.08 412.03,-158.67 418.56,-156.15"/>
</a>
</g>
</g>
<!-- Node7&#45;&gt;Node7 -->
<g id="edge8_Node000007_Node000007" class="edge">
<title>Node7&#45;&gt;Node7</title>
<g id="a_edge8_Node000007_Node000007"><a xlink:title=" ">
<path fill="none" stroke="#63b8ff" d="M375.31,-93.08C366.46,-101.73 372.53,-111 393.5,-111 406.61,-111 413.89,-107.38 415.35,-102.55"/>
<polygon fill="#63b8ff" stroke="#63b8ff" points="418.56,-101.15 411.69,-93.08 412.03,-103.67 418.56,-101.15"/>
</a>
</g>
</g>
<!-- Node9 -->
<g id="Node000009" class="node">
<title>Node9</title>
<g id="a_Node000009"><a xlink:href="m__qbmm_8fpp_8f90.html#a9f04f02028dbe154a03418ecca95fc97" target="_top" xlink:title=" ">
<polygon fill="white" stroke="#666666" points="548,-56 477,-56 477,-37 548,-37 548,-56"/>
<text text-anchor="middle" x="512.5" y="-44" font-family="Helvetica,sans-Serif" font-size="10.00">s_hyqmom</text>
</a>
</g>
</g>
<!-- Node8&#45;&gt;Node9 -->
<g id="edge10_Node000008_Node000009" class="edge">
<title>Node8&#45;&gt;Node9</title>
<g id="a_edge10_Node000008_Node000009"><a xlink:title=" ">
<path fill="none" stroke="#63b8ff" d="M431.52,-46.5C442.59,-46.5 454.85,-46.5 466.39,-46.5"/>
<polygon fill="#63b8ff" stroke="#63b8ff" points="466.71,-50 476.71,-46.5 466.71,-43 466.71,-50"/>
</a>
</g>
</g>
</g>
</svg>

<g id="navigator" transform="translate(0 0)" fill="#404254">
  <rect fill="#f2f5e9" fill-opacity="0.5" stroke="#606060" stroke-width=".5" x="0" y="0" width="60" height="60"/>
  <use id="zoomplus" xlink:href="#zoomPlus" x="17" y="9" onmousedown="handleZoom(evt,'in')"/>
  <use id="zoomminus" xlink:href="#zoomMin" x="42" y="9" onmousedown="handleZoom(evt,'out')"/>
  <use id="reset" xlink:href="#resetDef" x="30" y="36" onmousedown="handleReset()"/>
   <use id="arrowup" xlink:href="#arrowUp" x="0" y="0" onmousedown="handlePan(0,-1)"/>
  <use id="arrowright" xlink:href="#arrowRight" x="0" y="0" onmousedown="handlePan(1,0)"/>
  <use id="arrowdown" xlink:href="#arrowDown" x="0" y="0" onmousedown="handlePan(0,1)"/>
  <use id="arrowleft" xlink:href="#arrowLeft" x="0" y="0" onmousedown="handlePan(-1,0)"/>
</g>
<svg viewBox="0 0 15 15" width="100%" height="30px" preserveAspectRatio="xMaxYMin meet">
 <g id="arrow_out" transform="scale(0.3 0.3)">
  <a xlink:href="m__qbmm_8fpp_8f90_a8709b41fb0b88fca7d5d5622b6f8096c_cgraph_org.svg" target="_base">
   <rect id="button" ry="5" rx="5" y="6" x="6" height="38" width="38"
        fill="#f2f5e9" fill-opacity="0.5" stroke="#606060" stroke-width="1.0"/>
   <path id="arrow"
     d="M 11.500037,31.436501 C 11.940474,20.09759 22.043105,11.32322 32.158766,21.979434 L 37.068811,17.246167 C 37.068811,17.246167 37.088388,32 37.088388,32 L 22.160133,31.978069 C 22.160133,31.978069 26.997745,27.140456 26.997745,27.140456 C 18.528582,18.264221 13.291696,25.230495 11.500037,31.436501 z"
     style="fill:#404040;"/>
  </a>
 </g>
</svg>

<style type='text/css'>
<![CDATA[
[data-mouse-over-selected='false'] { opacity: 0.7; }
[data-mouse-over-selected='true']  { opacity: 1.0; }
]]>
</style>
<script type="application/ecmascript"><![CDATA[
document.addEventListener('DOMContentLoaded', (event) => {
  highlightEdges();
  highlightAdjacentNodes();
});
]]></script>
</svg>
