<?xml version="1.0" encoding="UTF-8" standalone="no"?>
<!DOCTYPE svg PUBLIC "-//W3C//DTD SVG 1.1//EN"
 "http://www.w3.org/Graphics/SVG/1.1/DTD/svg11.dtd">
<!-- Generated by graphviz version 2.43.0 (0)
 -->
<!-- Title: __m_qbmm_fpp_f90__ Pages: 1 -->
<svg width="818pt" height="226pt"
 viewBox="0.00 0.00 818.00 226.48" xmlns="http://www.w3.org/2000/svg" xmlns:xlink="http://www.w3.org/1999/xlink">
<g id="graph0" class="graph" transform="scale(1 1) rotate(0) translate(4 222.48)">
<title>__m_qbmm_fpp_f90__</title>
<!-- Node1 -->
<g id="Node000001" class="node">
<title>Node1</title>
<g id="a_Node000001"><a xlink:title=" ">
<polygon fill="#999999" stroke="#666666" points="126,-125.38 0,-125.38 0,-106.38 126,-106.38 126,-125.38"/>
<text text-anchor="middle" x="63" y="-113.38" font-family="Helvetica,sans-Serif" font-size="10.00">__m_qbmm_fpp_f90__</text>
</a>
</g>
</g>
<!-- Node2 -->
<g id="Node000002" class="node">
<title>Node2</title>
<g id="a_Node000002"><a xlink:href="m__qbmm_8fpp_8f90.html#a7ce23edc398f55d0f2386c22ddfc5b4c" target="_top" xlink:title=" ">
<polygon fill="white" stroke="#666666" points="550,-111.38 499,-111.38 499,-92.38 550,-92.38 550,-111.38"/>
<text text-anchor="middle" x="524.5" y="-99.38" font-family="Helvetica,sans-Serif" font-size="10.00">s_coeff</text>
</a>
</g>
</g>
<!-- Node1&#45;&gt;Node2 -->
<g id="edge1_Node000001_Node000002" class="edge">
<title>Node1&#45;&gt;Node2</title>
<g id="a_edge1_Node000001_Node000002"><a xlink:title=" ">
<path fill="none" stroke="#63b8ff" d="M82.47,-106.24C126.56,-83.84 242.04,-28.74 346,-9.88 387.54,-2.35 402.45,7.33 441,-9.88 474.62,-24.89 500.24,-61.12 513.47,-83.37"/>
<polygon fill="#63b8ff" stroke="#63b8ff" points="510.53,-85.27 518.52,-92.22 516.61,-81.8 510.53,-85.27"/>
</a>
</g>
</g>
<!-- Node5 -->
<g id="Node000005" class="node">
<title>Node5</title>
<g id="a_Node000005"><a xlink:href="m__qbmm_8fpp_8f90.html#a11bd7e5b666fa4697cb480ccc67d7245" target="_top" xlink:title=" ">
<polygon fill="white" stroke="#666666" points="299.5,-144.38 172.5,-144.38 172.5,-125.38 299.5,-125.38 299.5,-144.38"/>
<text text-anchor="middle" x="236" y="-132.38" font-family="Helvetica,sans-Serif" font-size="10.00">s_compute_qbmm_rhs</text>
</a>
</g>
</g>
<!-- Node1&#45;&gt;Node5 -->
<g id="edge4_Node000001_Node000005" class="edge">
<title>Node1&#45;&gt;Node5</title>
<g id="a_edge4_Node000001_Node000005"><a xlink:title=" ">
<path fill="none" stroke="#63b8ff" d="M126.22,-122.8C137.93,-124.1 150.28,-125.47 162.28,-126.8"/>
<polygon fill="#63b8ff" stroke="#63b8ff" points="161.93,-130.29 172.25,-127.91 162.7,-123.33 161.93,-130.29"/>
</a>
</g>
</g>
<!-- Node6 -->
<g id="Node000006" class="node">
<title>Node6</title>
<g id="a_Node000006"><a xlink:href="m__qbmm_8fpp_8f90.html#a466bcc585827465a6231d66c0b661f53" target="_top" xlink:title=" ">
<polygon fill="white" stroke="#666666" points="310,-209.38 162,-209.38 162,-190.38 310,-190.38 310,-209.38"/>
<text text-anchor="middle" x="236" y="-197.38" font-family="Helvetica,sans-Serif" font-size="10.00">s_initialize_qbmm_module</text>
</a>
</g>
</g>
<!-- Node1&#45;&gt;Node6 -->
<g id="edge5_Node000001_Node000006" class="edge">
<title>Node1&#45;&gt;Node6</title>
<g id="a_edge5_Node000001_Node000006"><a xlink:title=" ">
<path fill="none" stroke="#63b8ff" d="M83.62,-125.52C113.77,-140.33 171.65,-168.77 206.45,-185.86"/>
<polygon fill="#63b8ff" stroke="#63b8ff" points="205.09,-189.09 215.61,-190.36 208.18,-182.81 205.09,-189.09"/>
</a>
</g>
</g>
<!-- Node7 -->
<g id="Node000007" class="node">
<title>Node7</title>
<g id="a_Node000007"><a xlink:href="m__qbmm_8fpp_8f90.html#a05c60cf307f72cbb3a1facd5532da64e" target="_top" xlink:title=" ">
<polygon fill="white" stroke="#666666" points="272.5,-107.38 199.5,-107.38 199.5,-88.38 272.5,-88.38 272.5,-107.38"/>
<text text-anchor="middle" x="236" y="-95.38" font-family="Helvetica,sans-Serif" font-size="10.00">s_mom_inv</text>
</a>
</g>
</g>
<!-- Node1&#45;&gt;Node7 -->
<g id="edge7_Node000001_Node000007" class="edge">
<title>Node1&#45;&gt;Node7</title>
<g id="a_edge7_Node000001_Node000007"><a xlink:title=" ">
<path fill="none" stroke="#63b8ff" d="M126.22,-109.34C147.1,-107.14 169.99,-104.73 189.37,-102.69"/>
<polygon fill="#63b8ff" stroke="#63b8ff" points="189.86,-106.16 199.44,-101.63 189.13,-99.19 189.86,-106.16"/>
</a>
</g>
</g>
<!-- Node3 -->
<g id="Node000003" class="node">
<title>Node3</title>
<g id="a_Node000003"><a xlink:href="m__helper__basic_8fpp_8f90.html#af13561cd8191e20b0ee3bdf335944ce5" target="_top" xlink:title="Checks if a real(wp) variable is of default value.">
<polygon fill="white" stroke="#666666" points="682,-148.38 608,-148.38 608,-129.38 682,-129.38 682,-148.38"/>
<text text-anchor="middle" x="645" y="-136.38" font-family="Helvetica,sans-Serif" font-size="10.00">f_is_default</text>
</a>
</g>
</g>
<!-- Node2&#45;&gt;Node3 -->
<g id="edge2_Node000002_Node000003" class="edge">
<title>Node2&#45;&gt;Node3</title>
<g id="a_edge2_Node000002_Node000003"><a xlink:title=" ">
<path fill="none" stroke="#63b8ff" d="M550.05,-109.55C565.5,-114.37 585.8,-120.71 603.57,-126.26"/>
<polygon fill="#63b8ff" stroke="#63b8ff" points="602.55,-129.61 613.14,-129.25 604.64,-122.93 602.55,-129.61"/>
</a>
</g>
</g>
<!-- Node4 -->
<g id="Node000004" class="node">
<title>Node4</title>
<g id="a_Node000004"><a xlink:href="m__helper__basic_8fpp_8f90.html#a49aa1857cb519bdc6b35434fd1821cab" target="_top" xlink:title="This procedure checks if two floating point numbers of wp are within tolerance.">
<polygon fill="white" stroke="#666666" points="810,-148.38 718,-148.38 718,-129.38 810,-129.38 810,-148.38"/>
<text text-anchor="middle" x="764" y="-136.38" font-family="Helvetica,sans-Serif" font-size="10.00">f_approx_equal</text>
</a>
</g>
</g>
<!-- Node3&#45;&gt;Node4 -->
<g id="edge3_Node000003_Node000004" class="edge">
<title>Node3&#45;&gt;Node4</title>
<g id="a_edge3_Node000003_Node000004"><a xlink:title=" ">
<path fill="none" stroke="#63b8ff" d="M682.06,-138.88C690.17,-138.88 698.95,-138.88 707.64,-138.88"/>
<polygon fill="#63b8ff" stroke="#63b8ff" points="707.76,-142.38 717.76,-138.88 707.76,-135.38 707.76,-142.38"/>
</a>
</g>
</g>
<!-- Node6&#45;&gt;Node3 -->
<g id="edge6_Node000006_Node000003" class="edge">
<title>Node6&#45;&gt;Node3</title>
<g id="a_edge6_Node000006_Node000003"><a xlink:title=" ">
<path fill="none" stroke="#63b8ff" d="M291.64,-209.42C359.53,-218.96 477.89,-227.96 572,-194.88 594.23,-187.07 614.94,-169.42 628.39,-156.01"/>
<polygon fill="#63b8ff" stroke="#63b8ff" points="631.01,-158.34 635.43,-148.71 625.97,-153.48 631.01,-158.34"/>
</a>
</g>
</g>
<!-- Node8 -->
<g id="Node000008" class="node">
<title>Node8</title>
<g id="a_Node000008"><a xlink:href="m__qbmm_8fpp_8f90.html#a0a0f4e8d600c30fed9a1fa79e98d49e6" target="_top" xlink:title=" ">
<polygon fill="white" stroke="#666666" points="418.5,-93.38 368.5,-93.38 368.5,-74.38 418.5,-74.38 418.5,-93.38"/>
<text text-anchor="middle" x="393.5" y="-81.38" font-family="Helvetica,sans-Serif" font-size="10.00">f_quad</text>
</a>
</g>
</g>
<!-- Node7&#45;&gt;Node8 -->
<g id="edge8_Node000007_Node000008" class="edge">
<title>Node7&#45;&gt;Node8</title>
<g id="a_edge8_Node000007_Node000008"><a xlink:title=" ">
<path fill="none" stroke="#63b8ff" d="M272.67,-94.67C298.25,-92.37 332.52,-89.28 357.86,-87"/>
<polygon fill="#63b8ff" stroke="#63b8ff" points="358.48,-90.46 368.12,-86.08 357.85,-83.49 358.48,-90.46"/>
</a>
</g>
</g>
<!-- Node9 -->
<g id="Node000009" class="node">
<title>Node9</title>
<g id="a_Node000009"><a xlink:href="m__qbmm_8fpp_8f90.html#aad2a5ca31c0da02c94c38981ea6d4ad7" target="_top" xlink:title=" ">
<polygon fill="white" stroke="#666666" points="424.5,-38.38 362.5,-38.38 362.5,-19.38 424.5,-19.38 424.5,-38.38"/>
<text text-anchor="middle" x="393.5" y="-26.38" font-family="Helvetica,sans-Serif" font-size="10.00">f_quad2d</text>
</a>
</g>
</g>
<!-- Node7&#45;&gt;Node9 -->
<g id="edge10_Node000007_Node000009" class="edge">
<title>Node7&#45;&gt;Node9</title>
<g id="a_edge10_Node000007_Node000009"><a xlink:title=" ">
<path fill="none" stroke="#63b8ff" d="M258.62,-88.29C285.43,-76.4 331.3,-56.04 361.76,-42.53"/>
<polygon fill="#63b8ff" stroke="#63b8ff" points="363.34,-45.65 371.06,-38.4 360.5,-39.25 363.34,-45.65"/>
</a>
</g>
</g>
<!-- Node10 -->
<g id="Node000010" class="node">
<title>Node10</title>
<g id="a_Node000010"><a xlink:href="m__qbmm_8fpp_8f90.html#a0b9d9ff40ef29984a44a7812a3d37e59" target="_top" xlink:title=" ">
<polygon fill="white" stroke="#666666" points="431.5,-185.38 355.5,-185.38 355.5,-166.38 431.5,-166.38 431.5,-185.38"/>
<text text-anchor="middle" x="393.5" y="-173.38" font-family="Helvetica,sans-Serif" font-size="10.00">s_chyqmom</text>
</a>
</g>
</g>
<!-- Node7&#45;&gt;Node10 -->
<g id="edge12_Node000007_Node000010" class="edge">
<title>Node7&#45;&gt;Node10</title>
<g id="a_edge12_Node000007_Node000010"><a xlink:title=" ">
<path fill="none" stroke="#63b8ff" d="M272.53,-102.09C285.04,-104.71 298.77,-108.97 310,-115.88 330.93,-128.78 325.93,-143.68 346,-157.88 347.89,-159.23 349.9,-160.48 351.98,-161.66"/>
<polygon fill="#63b8ff" stroke="#63b8ff" points="350.87,-165.02 361.39,-166.31 353.97,-158.74 350.87,-165.02"/>
</a>
</g>
</g>
<!-- Node12 -->
<g id="Node000012" class="node">
<title>Node12</title>
<g id="a_Node000012"><a xlink:href="m__qbmm_8fpp_8f90.html#a57b251e89f00799ed8c7f1de6a0af5db" target="_top" xlink:title=" ">
<polygon fill="white" stroke="#666666" points="441,-148.38 346,-148.38 346,-129.38 441,-129.38 441,-148.38"/>
<text text-anchor="middle" x="393.5" y="-136.38" font-family="Helvetica,sans-Serif" font-size="10.00">s_coeff_selector</text>
</a>
</g>
</g>
<!-- Node7&#45;&gt;Node12 -->
<g id="edge14_Node000007_Node000012" class="edge">
<title>Node7&#45;&gt;Node12</title>
<g id="a_edge14_Node000007_Node000012"><a xlink:title=" ">
<path fill="none" stroke="#63b8ff" d="M272.7,-106.46C284.58,-109.37 297.88,-112.7 310,-115.88 322.82,-119.25 336.72,-123.06 349.39,-126.6"/>
<polygon fill="#63b8ff" stroke="#63b8ff" points="348.67,-130.04 359.24,-129.37 350.56,-123.3 348.67,-130.04"/>
</a>
</g>
</g>
<!-- Node8&#45;&gt;Node8 -->
<g id="edge9_Node000008_Node000008" class="edge">
<title>Node8&#45;&gt;Node8</title>
<g id="a_edge9_Node000008_Node000008"><a xlink:title=" ">
<path fill="none" stroke="#63b8ff" d="M373.46,-93.47C363.72,-102.12 370.39,-111.38 393.5,-111.38 408.3,-111.38 416.36,-107.58 417.68,-102.57"/>
<polygon fill="#63b8ff" stroke="#63b8ff" points="420.86,-101.12 413.54,-93.47 414.49,-104.02 420.86,-101.12"/>
</a>
</g>
</g>
<!-- Node9&#45;&gt;Node9 -->
<g id="edge11_Node000009_Node000009" class="edge">
<title>Node9&#45;&gt;Node9</title>
<g id="a_edge11_Node000009_Node000009"><a xlink:title=" ">
<path fill="none" stroke="#63b8ff" d="M373.46,-38.47C363.72,-47.12 370.39,-56.38 393.5,-56.38 408.3,-56.38 416.36,-52.58 417.68,-47.57"/>
<polygon fill="#63b8ff" stroke="#63b8ff" points="420.86,-46.12 413.54,-38.47 414.49,-49.02 420.86,-46.12"/>
</a>
</g>
</g>
<!-- Node11 -->
<g id="Node000011" class="node">
<title>Node11</title>
<g id="a_Node000011"><a xlink:href="m__qbmm_8fpp_8f90.html#adf515384cad7a90db1db603c8cb290a7" target="_top" xlink:title=" ">
<polygon fill="white" stroke="#666666" points="560,-185.38 489,-185.38 489,-166.38 560,-166.38 560,-185.38"/>
<text text-anchor="middle" x="524.5" y="-173.38" font-family="Helvetica,sans-Serif" font-size="10.00">s_hyqmom</text>
</a>
</g>
</g>
<!-- Node10&#45;&gt;Node11 -->
<g id="edge13_Node000010_Node000011" class="edge">
<title>Node10&#45;&gt;Node11</title>
<g id="a_edge13_Node000010_Node000011"><a xlink:title=" ">
<path fill="none" stroke="#63b8ff" d="M431.81,-175.88C446.44,-175.88 463.36,-175.88 478.65,-175.88"/>
<polygon fill="#63b8ff" stroke="#63b8ff" points="478.92,-179.38 488.92,-175.88 478.92,-172.38 478.92,-179.38"/>
</a>
</g>
</g>
<!-- Node12&#45;&gt;Node2 -->
<g id="edge15_Node000012_Node000002" class="edge">
<title>Node12&#45;&gt;Node2</title>
<g id="a_edge15_Node000012_Node000002"><a xlink:title=" ">
<path fill="none" stroke="#63b8ff" d="M427.72,-129.36C446.58,-123.95 470.14,-117.19 489.18,-111.73"/>
<polygon fill="#63b8ff" stroke="#63b8ff" points="490.3,-115.05 498.95,-108.93 488.37,-108.32 490.3,-115.05"/>
</a>
</g>
</g>
<!-- Node13 -->
<g id="Node000013" class="node">
<title>Node13</title>
<g id="a_Node000013"><a xlink:href="m__qbmm_8fpp_8f90.html#a2e0bada0818ddd3288293caa7beed079" target="_top" xlink:title=" ">
<polygon fill="white" stroke="#666666" points="572,-148.38 477,-148.38 477,-129.38 572,-129.38 572,-148.38"/>
<text text-anchor="middle" x="524.5" y="-136.38" font-family="Helvetica,sans-Serif" font-size="10.00">s_coeff_nonpoly</text>
</a>
</g>
</g>
<!-- Node12&#45;&gt;Node13 -->
<g id="edge16_Node000012_Node000013" class="edge">
<title>Node12&#45;&gt;Node13</title>
<g id="a_edge16_Node000012_Node000013"><a xlink:title=" ">
<path fill="none" stroke="#63b8ff" d="M441.07,-138.88C449.48,-138.88 458.32,-138.88 466.97,-138.88"/>
<polygon fill="#63b8ff" stroke="#63b8ff" points="467,-142.38 477,-138.88 467,-135.38 467,-142.38"/>
</a>
</g>
</g>
<!-- Node13&#45;&gt;Node3 -->
<g id="edge17_Node000013_Node000003" class="edge">
<title>Node13&#45;&gt;Node3</title>
<g id="a_edge17_Node000013_Node000003"><a xlink:title=" ">
<path fill="none" stroke="#63b8ff" d="M572.33,-138.88C580.61,-138.88 589.23,-138.88 597.5,-138.88"/>
<polygon fill="#63b8ff" stroke="#63b8ff" points="597.74,-142.38 607.74,-138.88 597.74,-135.38 597.74,-142.38"/>
</a>
</g>
</g>
</g>
</svg>
