<?xml version="1.0" encoding="UTF-8" standalone="no"?>
<!DOCTYPE svg PUBLIC "-//W3C//DTD SVG 1.1//EN"
 "http://www.w3.org/Graphics/SVG/1.1/DTD/svg11.dtd">
<!-- Generated by graphviz version 2.43.0 (0)
 -->
<!-- Title: __m_rhs_fpp_f90__ Pages: 1 -->
<svg width="976pt" height="1289pt"
 viewBox="0.00 0.00 976.00 1288.50" xmlns="http://www.w3.org/2000/svg" xmlns:xlink="http://www.w3.org/1999/xlink">
<g id="graph0" class="graph" transform="scale(1 1) rotate(0) translate(4 1284.5)">
<title>__m_rhs_fpp_f90__</title>
<!-- Node1 -->
<g id="Node000001" class="node">
<title>Node1</title>
<g id="a_Node000001"><a xlink:title=" ">
<polygon fill="#999999" stroke="#666666" points="110,-343.5 0,-343.5 0,-324.5 110,-324.5 110,-343.5"/>
<text text-anchor="middle" x="55" y="-331.5" font-family="Helvetica,sans-Serif" font-size="10.00">__m_rhs_fpp_f90__</text>
</a>
</g>
</g>
<!-- Node2 -->
<g id="Node000002" class="node">
<title>Node2</title>
<g id="a_Node000002"><a xlink:href="m__rhs_8fpp_8f90.html#a8522bdf311a42fe6ff7f2b433656573f" target="_top" xlink:title=" ">
<polygon fill="white" stroke="#666666" points="256.5,-633.5 166.5,-633.5 166.5,-614.5 256.5,-614.5 256.5,-633.5"/>
<text text-anchor="middle" x="211.5" y="-621.5" font-family="Helvetica,sans-Serif" font-size="10.00">s_compute_rhs</text>
</a>
</g>
</g>
<!-- Node1&#45;&gt;Node2 -->
<g id="edge1_Node000001_Node000002" class="edge">
<title>Node1&#45;&gt;Node2</title>
<g id="a_edge1_Node000001_Node000002"><a xlink:title=" ">
<path fill="none" stroke="#63b8ff" d="M61.14,-343.65C83.27,-385.19 170.66,-549.22 200.47,-605.18"/>
<polygon fill="#63b8ff" stroke="#63b8ff" points="197.55,-607.13 205.34,-614.31 203.73,-603.84 197.55,-607.13"/>
</a>
</g>
</g>
<!-- Node39 -->
<g id="Node000039" class="node">
<title>Node39</title>
<g id="a_Node000039"><a xlink:href="m__rhs_8fpp_8f90.html#ae26471c3379c2d6797c51f2c973e963c" target="_top" xlink:title="Module deallocation and/or disassociation procedures.">
<polygon fill="white" stroke="#666666" points="274,-343.5 149,-343.5 149,-324.5 274,-324.5 274,-343.5"/>
<text text-anchor="middle" x="211.5" y="-331.5" font-family="Helvetica,sans-Serif" font-size="10.00">s_finalize_rhs_module</text>
</a>
</g>
</g>
<!-- Node1&#45;&gt;Node39 -->
<g id="edge53_Node000001_Node000039" class="edge">
<title>Node1&#45;&gt;Node39</title>
<g id="a_edge53_Node000001_Node000039"><a xlink:title=" ">
<path fill="none" stroke="#63b8ff" d="M110.04,-334C119.34,-334 129.13,-334 138.81,-334"/>
<polygon fill="#63b8ff" stroke="#63b8ff" points="138.83,-337.5 148.83,-334 138.83,-330.5 138.83,-337.5"/>
</a>
</g>
</g>
<!-- Node40 -->
<g id="Node000040" class="node">
<title>Node40</title>
<g id="a_Node000040"><a xlink:href="m__rhs_8fpp_8f90.html#ae28e169ac4d1272cc2a8e73be34b8ccb" target="_top" xlink:title="The computation of parameters, the allocation of memory, the association of pointers and/or the execu...">
<polygon fill="white" stroke="#666666" points="277,-96.5 146,-96.5 146,-77.5 277,-77.5 277,-96.5"/>
<text text-anchor="middle" x="211.5" y="-84.5" font-family="Helvetica,sans-Serif" font-size="10.00">s_initialize_rhs_module</text>
</a>
</g>
</g>
<!-- Node1&#45;&gt;Node40 -->
<g id="edge54_Node000001_Node000040" class="edge">
<title>Node1&#45;&gt;Node40</title>
<g id="a_edge54_Node000001_Node000040"><a xlink:title=" ">
<path fill="none" stroke="#63b8ff" d="M62.06,-324.32C85.23,-287.27 168.48,-154.18 199.1,-105.23"/>
<polygon fill="#63b8ff" stroke="#63b8ff" points="202.15,-106.95 204.49,-96.62 196.21,-103.24 202.15,-106.95"/>
</a>
</g>
</g>
<!-- Node3 -->
<g id="Node000003" class="node">
<title>Node3</title>
<g id="a_Node000003"><a xlink:href="m__bubbles_8fpp_8f90.html#a13d7f514861d6b4004211c6f0bdb58fc" target="_top" xlink:title="The purpose of this procedure is to compute the source terms that are needed for the bubble modeling.">
<polygon fill="white" stroke="#666666" points="466,-670.5 320,-670.5 320,-651.5 466,-651.5 466,-670.5"/>
<text text-anchor="middle" x="393" y="-658.5" font-family="Helvetica,sans-Serif" font-size="10.00">s_compute_bubble_source</text>
</a>
</g>
</g>
<!-- Node2&#45;&gt;Node3 -->
<g id="edge2_Node000002_Node000003" class="edge">
<title>Node2&#45;&gt;Node3</title>
<g id="a_edge2_Node000002_Node000003"><a xlink:title=" ">
<path fill="none" stroke="#63b8ff" d="M256.87,-633.15C280.7,-638.06 310.32,-644.16 335.75,-649.41"/>
<polygon fill="#63b8ff" stroke="#63b8ff" points="335.14,-652.85 345.64,-651.44 336.55,-646 335.14,-652.85"/>
</a>
</g>
</g>
<!-- Node16 -->
<g id="Node000016" class="node">
<title>Node16</title>
<g id="a_Node000016"><a xlink:href="m__hypoelastic_8fpp_8f90.html#aea16ad050a56ec1f6d8f7db69665d01e" target="_top" xlink:title="The purpose of this procedure is to compute the source terms that are needed for the elastic stress e...">
<polygon fill="white" stroke="#666666" points="469,-633.5 317,-633.5 317,-614.5 469,-614.5 469,-633.5"/>
<text text-anchor="middle" x="393" y="-621.5" font-family="Helvetica,sans-Serif" font-size="10.00">s_compute_hypoelastic_rhs</text>
</a>
</g>
</g>
<!-- Node2&#45;&gt;Node16 -->
<g id="edge26_Node000002_Node000016" class="edge">
<title>Node2&#45;&gt;Node16</title>
<g id="a_edge26_Node000002_Node000016"><a xlink:title=" ">
<path fill="none" stroke="#63b8ff" d="M256.87,-624C271.97,-624 289.4,-624 306.61,-624"/>
<polygon fill="#63b8ff" stroke="#63b8ff" points="306.7,-627.5 316.7,-624 306.7,-620.5 306.7,-627.5"/>
</a>
</g>
</g>
<!-- Node17 -->
<g id="Node000017" class="node">
<title>Node17</title>
<g id="a_Node000017"><a xlink:href="m__viscous_8fpp_8f90.html#a1110efee754c653e3a435b16a660a4d7" target="_top" xlink:title="The purpose of this subroutine is to compute the viscous.">
<polygon fill="white" stroke="#666666" points="466,-596 320,-596 320,-566 466,-566 466,-596"/>
<text text-anchor="start" x="328" y="-584" font-family="Helvetica,sans-Serif" font-size="10.00">s_compute_viscous_stress</text>
<text text-anchor="middle" x="393" y="-573" font-family="Helvetica,sans-Serif" font-size="10.00">_tensor</text>
</a>
</g>
</g>
<!-- Node2&#45;&gt;Node17 -->
<g id="edge27_Node000002_Node000017" class="edge">
<title>Node2&#45;&gt;Node17</title>
<g id="a_edge27_Node000002_Node000017"><a xlink:title=" ">
<path fill="none" stroke="#63b8ff" d="M252.34,-614.46C272.13,-609.72 296.67,-603.84 319.63,-598.34"/>
<polygon fill="#63b8ff" stroke="#63b8ff" points="320.45,-601.74 329.36,-596.01 318.82,-594.93 320.45,-601.74"/>
</a>
</g>
</g>
<!-- Node18 -->
<g id="Node000018" class="node">
<title>Node18</title>
<g id="a_Node000018"><a xlink:href="m__variables__conversion_8fpp_8f90.html#a24725c6eb206c9a62e2ec70bf368836d" target="_top" xlink:title="The following procedure handles the conversion between the conservative variables and the primitive v...">
<polygon fill="white" stroke="#666666" points="459,-303 327,-303 327,-273 459,-273 459,-303"/>
<text text-anchor="start" x="335" y="-291" font-family="Helvetica,sans-Serif" font-size="10.00">s_convert_conservative</text>
<text text-anchor="middle" x="393" y="-280" font-family="Helvetica,sans-Serif" font-size="10.00">_to_primitive_variables</text>
</a>
</g>
</g>
<!-- Node2&#45;&gt;Node18 -->
<g id="edge28_Node000002_Node000018" class="edge">
<title>Node2&#45;&gt;Node18</title>
<g id="a_edge28_Node000002_Node000018"><a xlink:title=" ">
<path fill="none" stroke="#63b8ff" d="M217.68,-614.31C241.73,-569.28 342.89,-379.92 379.07,-312.2"/>
<polygon fill="#63b8ff" stroke="#63b8ff" points="382.29,-313.6 383.92,-303.13 376.12,-310.3 382.29,-313.6"/>
</a>
</g>
</g>
<!-- Node23 -->
<g id="Node000023" class="node">
<title>Node23</title>
<g id="a_Node000023"><a xlink:href="m__viscous_8fpp_8f90.html#a0f828f5ebe7c76e07c69a5d13ea74803" target="_top" xlink:title="Computes viscous terms.">
<polygon fill="white" stroke="#666666" points="435.5,-163.5 350.5,-163.5 350.5,-144.5 435.5,-144.5 435.5,-163.5"/>
<text text-anchor="middle" x="393" y="-151.5" font-family="Helvetica,sans-Serif" font-size="10.00">s_get_viscous</text>
</a>
</g>
</g>
<!-- Node2&#45;&gt;Node23 -->
<g id="edge33_Node000002_Node000023" class="edge">
<title>Node2&#45;&gt;Node23</title>
<g id="a_edge33_Node000002_Node000023"><a xlink:title=" ">
<path fill="none" stroke="#63b8ff" d="M214.69,-614.42C226.28,-564.14 280.99,-330.69 313,-264 330.17,-228.23 359.03,-191.82 376.71,-171.16"/>
<polygon fill="#63b8ff" stroke="#63b8ff" points="379.4,-173.4 383.32,-163.56 374.12,-168.81 379.4,-173.4"/>
</a>
</g>
</g>
<!-- Node30 -->
<g id="Node000030" class="node">
<title>Node30</title>
<g id="a_Node000030"><a xlink:href="m__qbmm_8fpp_8f90.html#a07d4ab28f830cfd5b555868bbf8a17fe" target="_top" xlink:title=" ">
<polygon fill="white" stroke="#666666" points="429.5,-1151.5 356.5,-1151.5 356.5,-1132.5 429.5,-1132.5 429.5,-1151.5"/>
<text text-anchor="middle" x="393" y="-1139.5" font-family="Helvetica,sans-Serif" font-size="10.00">s_mom_inv</text>
</a>
</g>
</g>
<!-- Node2&#45;&gt;Node30 -->
<g id="edge40_Node000002_Node000030" class="edge">
<title>Node2&#45;&gt;Node30</title>
<g id="a_edge40_Node000002_Node000030"><a xlink:title=" ">
<path fill="none" stroke="#63b8ff" d="M214.11,-633.67C221.63,-677.54 255.31,-861.85 313,-1003 331.71,-1048.77 362.63,-1098.14 379.71,-1123.94"/>
<polygon fill="#63b8ff" stroke="#63b8ff" points="376.86,-1125.97 385.33,-1132.33 382.67,-1122.08 376.86,-1125.97"/>
</a>
</g>
</g>
<!-- Node37 -->
<g id="Node000037" class="node">
<title>Node37</title>
<g id="a_Node000037"><a xlink:href="m__rhs_8fpp_8f90.html#a26833f559de36f1d15b4f6b3d28cfc79" target="_top" xlink:title="The purpose of this subroutine is to WENO&#45;reconstruct the left and the right cell&#45;boundary values,...">
<polygon fill="white" stroke="#666666" points="445.5,-994 340.5,-994 340.5,-964 445.5,-964 445.5,-994"/>
<text text-anchor="start" x="348.5" y="-982" font-family="Helvetica,sans-Serif" font-size="10.00">s_reconstruct_cell</text>
<text text-anchor="middle" x="393" y="-971" font-family="Helvetica,sans-Serif" font-size="10.00">_boundary_values</text>
</a>
</g>
</g>
<!-- Node2&#45;&gt;Node37 -->
<g id="edge49_Node000002_Node000037" class="edge">
<title>Node2&#45;&gt;Node37</title>
<g id="a_edge49_Node000002_Node000037"><a xlink:title=" ">
<path fill="none" stroke="#63b8ff" d="M217.49,-633.87C241.34,-681.03 344.05,-884.16 379.73,-954.73"/>
<polygon fill="#63b8ff" stroke="#63b8ff" points="376.67,-956.43 384.3,-963.78 382.91,-953.28 376.67,-956.43"/>
</a>
</g>
</g>
<!-- Node38 -->
<g id="Node000038" class="node">
<title>Node38</title>
<g id="a_Node000038"><a xlink:href="m__viscous_8fpp_8f90.html#a7a5f067c7a738f8814f5cee205d2892d" target="_top" xlink:title=" ">
<polygon fill="white" stroke="#666666" points="473,-789 313,-789 313,-759 473,-759 473,-789"/>
<text text-anchor="start" x="321" y="-777" font-family="Helvetica,sans-Serif" font-size="10.00">s_reconstruct_cell</text>
<text text-anchor="middle" x="393" y="-766" font-family="Helvetica,sans-Serif" font-size="10.00">_boundary_values_visc_deriv</text>
</a>
</g>
</g>
<!-- Node2&#45;&gt;Node38 -->
<g id="edge51_Node000002_Node000038" class="edge">
<title>Node2&#45;&gt;Node38</title>
<g id="a_edge51_Node000002_Node000038"><a xlink:title=" ">
<path fill="none" stroke="#63b8ff" d="M224,-633.61C252.39,-657.34 326.36,-719.15 366.01,-752.28"/>
<polygon fill="#63b8ff" stroke="#63b8ff" points="364,-755.17 373.92,-758.89 368.49,-749.79 364,-755.17"/>
</a>
</g>
</g>
<!-- Node4 -->
<g id="Node000004" class="node">
<title>Node4</title>
<g id="a_Node000004"><a xlink:href="m__bubbles_8fpp_8f90.html#a8018aeac239907c1ee784788f9c81673" target="_top" xlink:title="Function that computes the time derivative of the internal bubble pressure.">
<polygon fill="white" stroke="#666666" points="634,-597.5 560,-597.5 560,-578.5 634,-578.5 634,-597.5"/>
<text text-anchor="middle" x="597" y="-585.5" font-family="Helvetica,sans-Serif" font-size="10.00">f_bpres_dot</text>
</a>
</g>
</g>
<!-- Node3&#45;&gt;Node4 -->
<g id="edge3_Node000003_Node000004" class="edge">
<title>Node3&#45;&gt;Node4</title>
<g id="a_edge3_Node000003_Node000004"><a xlink:title=" ">
<path fill="none" stroke="#63b8ff" d="M444.25,-651.46C453.91,-649.09 463.86,-646.27 473,-643 489.84,-636.97 492.76,-632.5 509,-625 526.64,-616.85 546.58,-608.32 562.91,-601.51"/>
<polygon fill="#63b8ff" stroke="#63b8ff" points="564.67,-604.57 572.57,-597.51 561.99,-598.1 564.67,-604.57"/>
</a>
</g>
</g>
<!-- Node5 -->
<g id="Node000005" class="node">
<title>Node5</title>
<g id="a_Node000005"><a xlink:href="m__bubbles_8fpp_8f90.html#a92173957cdea7588a1d2ae5a8097dd0b" target="_top" xlink:title="Function that computes the sound speed for the bubble.">
<polygon fill="white" stroke="#666666" points="621,-542.5 573,-542.5 573,-523.5 621,-523.5 621,-542.5"/>
<text text-anchor="middle" x="597" y="-530.5" font-family="Helvetica,sans-Serif" font-size="10.00">f_cgas</text>
</a>
</g>
</g>
<!-- Node3&#45;&gt;Node5 -->
<g id="edge5_Node000003_Node000005" class="edge">
<title>Node3&#45;&gt;Node5</title>
<g id="a_edge5_Node000003_Node000005"><a xlink:title=" ">
<path fill="none" stroke="#63b8ff" d="M458.78,-651.45C463.87,-649.18 468.69,-646.4 473,-643 501.39,-620.58 482.71,-594.85 509,-570 523.95,-555.86 545.13,-546.7 562.85,-541.02"/>
<polygon fill="#63b8ff" stroke="#63b8ff" points="564.21,-544.27 572.81,-538.08 562.22,-537.56 564.21,-544.27"/>
</a>
</g>
</g>
<!-- Node6 -->
<g id="Node000006" class="node">
<title>Node6</title>
<g id="a_Node000006"><a xlink:href="m__bubbles_8fpp_8f90.html#a5a0193f314079c7e9d923b9374eb20e3" target="_top" xlink:title="Function that computes that bubble wall pressure for Gilmore bubbles.">
<polygon fill="white" stroke="#666666" points="622.5,-487.5 571.5,-487.5 571.5,-468.5 622.5,-468.5 622.5,-487.5"/>
<text text-anchor="middle" x="597" y="-475.5" font-family="Helvetica,sans-Serif" font-size="10.00">f_cpbw</text>
</a>
</g>
</g>
<!-- Node3&#45;&gt;Node6 -->
<g id="edge7_Node000003_Node000006" class="edge">
<title>Node3&#45;&gt;Node6</title>
<g id="a_edge7_Node000003_Node000006"><a xlink:title=" ">
<path fill="none" stroke="#63b8ff" d="M461.37,-651.3C465.6,-649.03 469.53,-646.3 473,-643 515.82,-602.27 469.97,-559.37 509,-515 522.47,-499.68 543.37,-490.52 561.31,-485.14"/>
<polygon fill="#63b8ff" stroke="#63b8ff" points="562.44,-488.46 571.18,-482.46 560.61,-481.7 562.44,-488.46"/>
</a>
</g>
</g>
<!-- Node7 -->
<g id="Node000007" class="node">
<title>Node7</title>
<g id="a_Node000007"><a xlink:href="m__bubbles_8fpp_8f90.html#ab5cad916879a4c85674fcadd46ac3acd" target="_top" xlink:title="Function that computes the bubble wall pressure for Keller–Miksis bubbles.">
<polygon fill="white" stroke="#666666" points="633,-432.5 561,-432.5 561,-413.5 633,-413.5 633,-432.5"/>
<text text-anchor="middle" x="597" y="-420.5" font-family="Helvetica,sans-Serif" font-size="10.00">f_cpbw_km</text>
</a>
</g>
</g>
<!-- Node3&#45;&gt;Node7 -->
<g id="edge9_Node000003_Node000007" class="edge">
<title>Node3&#45;&gt;Node7</title>
<g id="a_edge9_Node000003_Node000007"><a xlink:title=" ">
<path fill="none" stroke="#63b8ff" d="M462.04,-651.4C466.05,-649.1 469.77,-646.33 473,-643 530.73,-583.52 456.78,-524.38 509,-460 519.52,-447.03 535.41,-438.53 550.75,-432.99"/>
<polygon fill="#63b8ff" stroke="#63b8ff" points="552.26,-436.18 560.69,-429.76 550.1,-429.52 552.26,-436.18"/>
</a>
</g>
</g>
<!-- Node8 -->
<g id="Node000008" class="node">
<title>Node8</title>
<g id="a_Node000008"><a xlink:href="m__bubbles_8fpp_8f90.html#a5ba0b7cce948abfecaebce809ed4b632" target="_top" xlink:title="Function that computes the time derivative of the driving pressure.">
<polygon fill="white" stroke="#666666" points="629.5,-377.5 564.5,-377.5 564.5,-358.5 629.5,-358.5 629.5,-377.5"/>
<text text-anchor="middle" x="597" y="-365.5" font-family="Helvetica,sans-Serif" font-size="10.00">f_cpinfdot</text>
</a>
</g>
</g>
<!-- Node3&#45;&gt;Node8 -->
<g id="edge11_Node000003_Node000008" class="edge">
<title>Node3&#45;&gt;Node8</title>
<g id="a_edge11_Node000003_Node000008"><a xlink:title=" ">
<path fill="none" stroke="#63b8ff" d="M462.57,-651.35C466.41,-649.05 469.94,-646.3 473,-643 545.8,-564.61 443.46,-489.55 509,-405 520.18,-390.58 538.06,-381.7 554.71,-376.28"/>
<polygon fill="#63b8ff" stroke="#63b8ff" points="555.7,-379.64 564.31,-373.47 553.73,-372.92 555.7,-379.64"/>
</a>
</g>
</g>
<!-- Node9 -->
<g id="Node000009" class="node">
<title>Node9</title>
<g id="a_Node000009"><a xlink:href="m__bubbles_8fpp_8f90.html#a5cd28691438ce1e5e59e56e03f81082a" target="_top" xlink:title="Function that computes the bubble enthalpy.">
<polygon fill="white" stroke="#666666" points="613,-964.5 581,-964.5 581,-945.5 613,-945.5 613,-964.5"/>
<text text-anchor="middle" x="597" y="-952.5" font-family="Helvetica,sans-Serif" font-size="10.00">f_h</text>
</a>
</g>
</g>
<!-- Node3&#45;&gt;Node9 -->
<g id="edge13_Node000003_Node000009" class="edge">
<title>Node3&#45;&gt;Node9</title>
<g id="a_edge13_Node000003_Node000009"><a xlink:title=" ">
<path fill="none" stroke="#63b8ff" d="M405.82,-670.56C423.46,-685.52 456.37,-716.27 473,-750 510.43,-825.91 449.57,-876.74 509,-937 524.9,-953.12 551.18,-956.67 570.7,-956.77"/>
<polygon fill="#63b8ff" stroke="#63b8ff" points="570.83,-960.27 580.74,-956.52 570.66,-953.27 570.83,-960.27"/>
</a>
</g>
</g>
<!-- Node10 -->
<g id="Node000010" class="node">
<title>Node10</title>
<g id="a_Node000010"><a xlink:href="m__bubbles_8fpp_8f90.html#a8677e47b010a7a8e38e25c25f30fe0f0" target="_top" xlink:title="Function that computes the time derivative of the enthalpy.">
<polygon fill="white" stroke="#666666" points="620.5,-909.5 573.5,-909.5 573.5,-890.5 620.5,-890.5 620.5,-909.5"/>
<text text-anchor="middle" x="597" y="-897.5" font-family="Helvetica,sans-Serif" font-size="10.00">f_hdot</text>
</a>
</g>
</g>
<!-- Node3&#45;&gt;Node10 -->
<g id="edge15_Node000003_Node000010" class="edge">
<title>Node3&#45;&gt;Node10</title>
<g id="a_edge15_Node000003_Node000010"><a xlink:title=" ">
<path fill="none" stroke="#63b8ff" d="M405.5,-670.72C422.72,-685.9 455.1,-716.93 473,-750 501.95,-803.48 464.68,-840.36 509,-882 523.38,-895.51 545.1,-900.01 563.25,-901.14"/>
<polygon fill="#63b8ff" stroke="#63b8ff" points="563.33,-904.64 573.43,-901.45 563.55,-897.64 563.33,-904.64"/>
</a>
</g>
</g>
<!-- Node11 -->
<g id="Node000011" class="node">
<title>Node11</title>
<g id="a_Node000011"><a xlink:href="m__bubbles_8fpp_8f90.html#a45660b9763222bf51cebff21377443b3" target="_top" xlink:title="Function that computes the bubble radial acceleration.">
<polygon fill="white" stroke="#666666" points="622.5,-854.5 571.5,-854.5 571.5,-835.5 622.5,-835.5 622.5,-854.5"/>
<text text-anchor="middle" x="597" y="-842.5" font-family="Helvetica,sans-Serif" font-size="10.00">f_rddot</text>
</a>
</g>
</g>
<!-- Node3&#45;&gt;Node11 -->
<g id="edge17_Node000003_Node000011" class="edge">
<title>Node3&#45;&gt;Node11</title>
<g id="a_edge17_Node000003_Node000011"><a xlink:title=" ">
<path fill="none" stroke="#63b8ff" d="M404.28,-670.62C420.44,-686.16 452.11,-718.24 473,-750 493.75,-781.57 479.36,-803.58 509,-827 523.63,-838.56 543.85,-843.22 561.11,-844.91"/>
<polygon fill="#63b8ff" stroke="#63b8ff" points="561.19,-848.43 571.4,-845.62 561.67,-841.44 561.19,-848.43"/>
</a>
</g>
</g>
<!-- Node12 -->
<g id="Node000012" class="node">
<title>Node12</title>
<g id="a_Node000012"><a xlink:href="m__bubbles_8fpp_8f90.html#a6c94745d6e1c569d57616a5e472ae2cd" target="_top" xlink:title="Function that computes the bubble radial acceleration for Keller–Miksis bubbles.">
<polygon fill="white" stroke="#666666" points="633,-799.5 561,-799.5 561,-780.5 633,-780.5 633,-799.5"/>
<text text-anchor="middle" x="597" y="-787.5" font-family="Helvetica,sans-Serif" font-size="10.00">f_rddot_km</text>
</a>
</g>
</g>
<!-- Node3&#45;&gt;Node12 -->
<g id="edge19_Node000003_Node000012" class="edge">
<title>Node3&#45;&gt;Node12</title>
<g id="a_edge19_Node000003_Node000012"><a xlink:title=" ">
<path fill="none" stroke="#63b8ff" d="M400.81,-670.56C416.91,-692.38 459.68,-745.96 509,-772 521.73,-778.72 536.74,-782.94 550.68,-785.58"/>
<polygon fill="#63b8ff" stroke="#63b8ff" points="550.16,-789.04 560.6,-787.23 551.31,-782.13 550.16,-789.04"/>
</a>
</g>
</g>
<!-- Node13 -->
<g id="Node000013" class="node">
<title>Node13</title>
<g id="a_Node000013"><a xlink:href="m__bubbles_8fpp_8f90.html#ad8bb547b5b33724b2d0affee7746a306" target="_top" xlink:title="Function that computes the bubble radial acceleration for Rayleigh&#45;Plesset bubbles.">
<polygon fill="white" stroke="#666666" points="630,-744.5 564,-744.5 564,-725.5 630,-725.5 630,-744.5"/>
<text text-anchor="middle" x="597" y="-732.5" font-family="Helvetica,sans-Serif" font-size="10.00">f_rddot_rp</text>
</a>
</g>
</g>
<!-- Node3&#45;&gt;Node13 -->
<g id="edge21_Node000003_Node000013" class="edge">
<title>Node3&#45;&gt;Node13</title>
<g id="a_edge21_Node000003_Node000013"><a xlink:title=" ">
<path fill="none" stroke="#63b8ff" d="M410.21,-670.5C431.98,-682.9 472.22,-704.46 509,-717 523.21,-721.85 539.2,-725.61 553.56,-728.41"/>
<polygon fill="#63b8ff" stroke="#63b8ff" points="553.2,-731.91 563.67,-730.29 554.48,-725.02 553.2,-731.91"/>
</a>
</g>
</g>
<!-- Node14 -->
<g id="Node000014" class="node">
<title>Node14</title>
<g id="a_Node000014"><a xlink:href="m__bubbles_8fpp_8f90.html#a5af4ca8a74ce2461012304ed54f52d73" target="_top" xlink:title="Function that computes the vapour flux.">
<polygon fill="white" stroke="#666666" points="622,-689.5 572,-689.5 572,-670.5 622,-670.5 622,-689.5"/>
<text text-anchor="middle" x="597" y="-677.5" font-family="Helvetica,sans-Serif" font-size="10.00">f_vflux</text>
</a>
</g>
</g>
<!-- Node3&#45;&gt;Node14 -->
<g id="edge23_Node000003_Node000014" class="edge">
<title>Node3&#45;&gt;Node14</title>
<g id="a_edge23_Node000003_Node000014"><a xlink:title=" ">
<path fill="none" stroke="#63b8ff" d="M466.07,-667.78C498.54,-670.83 535.35,-674.3 561.49,-676.75"/>
<polygon fill="#63b8ff" stroke="#63b8ff" points="561.36,-680.26 571.64,-677.71 562.01,-673.29 561.36,-680.26"/>
</a>
</g>
</g>
<!-- Node15 -->
<g id="Node000015" class="node">
<title>Node15</title>
<g id="a_Node000015"><a xlink:href="m__bubbles_8fpp_8f90.html#a8a11f32e3e991cbcfa764074a62f2492" target="_top" xlink:title="Subroutine that computes bubble wall properties for vapor bubbles.">
<polygon fill="white" stroke="#666666" points="638.5,-652.5 555.5,-652.5 555.5,-633.5 638.5,-633.5 638.5,-652.5"/>
<text text-anchor="middle" x="597" y="-640.5" font-family="Helvetica,sans-Serif" font-size="10.00">s_bwproperty</text>
</a>
</g>
</g>
<!-- Node3&#45;&gt;Node15 -->
<g id="edge25_Node000003_Node000015" class="edge">
<title>Node3&#45;&gt;Node15</title>
<g id="a_edge25_Node000003_Node000015"><a xlink:title=" ">
<path fill="none" stroke="#63b8ff" d="M466.07,-654.58C492.23,-652.25 521.21,-649.66 545.15,-647.53"/>
<polygon fill="#63b8ff" stroke="#63b8ff" points="545.77,-650.99 555.42,-646.62 545.15,-644.02 545.77,-650.99"/>
</a>
</g>
</g>
<!-- Node4&#45;&gt;Node4 -->
<g id="edge4_Node000004_Node000004" class="edge">
<title>Node4&#45;&gt;Node4</title>
<g id="a_edge4_Node000004_Node000004"><a xlink:title=" ">
<path fill="none" stroke="#63b8ff" d="M572.65,-597.58C560.8,-606.23 568.92,-615.5 597,-615.5 615.43,-615.5 625.26,-611.51 626.49,-606.32"/>
<polygon fill="#63b8ff" stroke="#63b8ff" points="629.44,-604.43 621.35,-597.58 623.41,-607.98 629.44,-604.43"/>
</a>
</g>
</g>
<!-- Node5&#45;&gt;Node5 -->
<g id="edge6_Node000005_Node000005" class="edge">
<title>Node5&#45;&gt;Node5</title>
<g id="a_edge6_Node000005_Node000005"><a xlink:title=" ">
<path fill="none" stroke="#63b8ff" d="M572.65,-542.58C560.8,-551.23 568.92,-560.5 597,-560.5 615.43,-560.5 625.26,-556.51 626.49,-551.32"/>
<polygon fill="#63b8ff" stroke="#63b8ff" points="629.44,-549.43 621.35,-542.58 623.41,-552.98 629.44,-549.43"/>
</a>
</g>
</g>
<!-- Node6&#45;&gt;Node6 -->
<g id="edge8_Node000006_Node000006" class="edge">
<title>Node6&#45;&gt;Node6</title>
<g id="a_edge8_Node000006_Node000006"><a xlink:title=" ">
<path fill="none" stroke="#63b8ff" d="M572.65,-487.58C560.8,-496.23 568.92,-505.5 597,-505.5 615.43,-505.5 625.26,-501.51 626.49,-496.32"/>
<polygon fill="#63b8ff" stroke="#63b8ff" points="629.44,-494.43 621.35,-487.58 623.41,-497.98 629.44,-494.43"/>
</a>
</g>
</g>
<!-- Node7&#45;&gt;Node7 -->
<g id="edge10_Node000007_Node000007" class="edge">
<title>Node7&#45;&gt;Node7</title>
<g id="a_edge10_Node000007_Node000007"><a xlink:title=" ">
<path fill="none" stroke="#63b8ff" d="M572.65,-432.58C560.8,-441.23 568.92,-450.5 597,-450.5 615.43,-450.5 625.26,-446.51 626.49,-441.32"/>
<polygon fill="#63b8ff" stroke="#63b8ff" points="629.44,-439.43 621.35,-432.58 623.41,-442.98 629.44,-439.43"/>
</a>
</g>
</g>
<!-- Node8&#45;&gt;Node8 -->
<g id="edge12_Node000008_Node000008" class="edge">
<title>Node8&#45;&gt;Node8</title>
<g id="a_edge12_Node000008_Node000008"><a xlink:title=" ">
<path fill="none" stroke="#63b8ff" d="M572.65,-377.58C560.8,-386.23 568.92,-395.5 597,-395.5 615.43,-395.5 625.26,-391.51 626.49,-386.32"/>
<polygon fill="#63b8ff" stroke="#63b8ff" points="629.44,-384.43 621.35,-377.58 623.41,-387.98 629.44,-384.43"/>
</a>
</g>
</g>
<!-- Node9&#45;&gt;Node9 -->
<g id="edge14_Node000009_Node000009" class="edge">
<title>Node9&#45;&gt;Node9</title>
<g id="a_edge14_Node000009_Node000009"><a xlink:title=" ">
<path fill="none" stroke="#63b8ff" d="M580.75,-960.13C558.56,-969.69 563.98,-982.5 597,-982.5 624.34,-982.5 632.76,-973.71 622.24,-965.27"/>
<polygon fill="#63b8ff" stroke="#63b8ff" points="623.67,-962.05 613.25,-960.13 620.2,-968.13 623.67,-962.05"/>
</a>
</g>
</g>
<!-- Node10&#45;&gt;Node10 -->
<g id="edge16_Node000010_Node000010" class="edge">
<title>Node10&#45;&gt;Node10</title>
<g id="a_edge16_Node000010_Node000010"><a xlink:title=" ">
<path fill="none" stroke="#63b8ff" d="M573.46,-909.01C560.45,-917.82 568.3,-927.5 597,-927.5 616.73,-927.5 626.61,-922.93 626.62,-917.2"/>
<polygon fill="#63b8ff" stroke="#63b8ff" points="629.31,-914.96 620.54,-909.01 623.69,-919.13 629.31,-914.96"/>
</a>
</g>
</g>
<!-- Node11&#45;&gt;Node11 -->
<g id="edge18_Node000011_Node000011" class="edge">
<title>Node11&#45;&gt;Node11</title>
<g id="a_edge18_Node000011_Node000011"><a xlink:title=" ">
<path fill="none" stroke="#63b8ff" d="M572.65,-854.58C560.8,-863.23 568.92,-872.5 597,-872.5 615.43,-872.5 625.26,-868.51 626.49,-863.32"/>
<polygon fill="#63b8ff" stroke="#63b8ff" points="629.44,-861.43 621.35,-854.58 623.41,-864.98 629.44,-861.43"/>
</a>
</g>
</g>
<!-- Node12&#45;&gt;Node12 -->
<g id="edge20_Node000012_Node000012" class="edge">
<title>Node12&#45;&gt;Node12</title>
<g id="a_edge20_Node000012_Node000012"><a xlink:title=" ">
<path fill="none" stroke="#63b8ff" d="M572.65,-799.58C560.8,-808.23 568.92,-817.5 597,-817.5 615.43,-817.5 625.26,-813.51 626.49,-808.32"/>
<polygon fill="#63b8ff" stroke="#63b8ff" points="629.44,-806.43 621.35,-799.58 623.41,-809.98 629.44,-806.43"/>
</a>
</g>
</g>
<!-- Node13&#45;&gt;Node13 -->
<g id="edge22_Node000013_Node000013" class="edge">
<title>Node13&#45;&gt;Node13</title>
<g id="a_edge22_Node000013_Node000013"><a xlink:title=" ">
<path fill="none" stroke="#63b8ff" d="M572.65,-744.58C560.8,-753.23 568.92,-762.5 597,-762.5 615.43,-762.5 625.26,-758.51 626.49,-753.32"/>
<polygon fill="#63b8ff" stroke="#63b8ff" points="629.44,-751.43 621.35,-744.58 623.41,-754.98 629.44,-751.43"/>
</a>
</g>
</g>
<!-- Node14&#45;&gt;Node14 -->
<g id="edge24_Node000014_Node000014" class="edge">
<title>Node14&#45;&gt;Node14</title>
<g id="a_edge24_Node000014_Node000014"><a xlink:title=" ">
<path fill="none" stroke="#63b8ff" d="M572.65,-689.58C560.8,-698.23 568.92,-707.5 597,-707.5 615.43,-707.5 625.26,-703.51 626.49,-698.32"/>
<polygon fill="#63b8ff" stroke="#63b8ff" points="629.44,-696.43 621.35,-689.58 623.41,-699.98 629.44,-696.43"/>
</a>
</g>
</g>
<!-- Node19 -->
<g id="Node000019" class="node">
<title>Node19</title>
<g id="a_Node000019"><a xlink:href="m__helper_8fpp_8f90.html#a772c75c8b24c414cfaed17e2f8acc772" target="_top" xlink:title=" ">
<polygon fill="white" stroke="#666666" points="658,-206.5 536,-206.5 536,-187.5 658,-187.5 658,-206.5"/>
<text text-anchor="middle" x="597" y="-194.5" font-family="Helvetica,sans-Serif" font-size="10.00">s_comp_n_from_cons</text>
</a>
</g>
</g>
<!-- Node18&#45;&gt;Node19 -->
<g id="edge29_Node000018_Node000019" class="edge">
<title>Node18&#45;&gt;Node19</title>
<g id="a_edge29_Node000018_Node000019"><a xlink:title=" ">
<path fill="none" stroke="#63b8ff" d="M413.62,-272.74C435.64,-256.34 473.01,-230.68 509,-216 515.25,-213.45 521.9,-211.22 528.63,-209.27"/>
<polygon fill="#63b8ff" stroke="#63b8ff" points="529.77,-212.59 538.52,-206.61 527.95,-205.83 529.77,-212.59"/>
</a>
</g>
</g>
<!-- Node20 -->
<g id="Node000020" class="node">
<title>Node20</title>
<g id="a_Node000020"><a xlink:href="m__variables__conversion_8fpp_8f90.html#ad31047dc31e7ee8fc14d8717c4d0c334" target="_top" xlink:title="This procedure conditionally calculates the appropriate pressure.">
<polygon fill="white" stroke="#666666" points="655.5,-340.5 538.5,-340.5 538.5,-321.5 655.5,-321.5 655.5,-340.5"/>
<text text-anchor="middle" x="597" y="-328.5" font-family="Helvetica,sans-Serif" font-size="10.00">s_compute_pressure</text>
</a>
</g>
</g>
<!-- Node18&#45;&gt;Node20 -->
<g id="edge30_Node000018_Node000020" class="edge">
<title>Node18&#45;&gt;Node20</title>
<g id="a_edge30_Node000018_Node000020"><a xlink:title=" ">
<path fill="none" stroke="#63b8ff" d="M459.03,-301.84C485.6,-307.5 516,-313.97 541.39,-319.38"/>
<polygon fill="#63b8ff" stroke="#63b8ff" points="540.71,-322.81 551.22,-321.47 542.17,-315.96 540.71,-322.81"/>
</a>
</g>
</g>
<!-- Node21 -->
<g id="Node000021" class="node">
<title>Node21</title>
<g id="a_Node000021"><a xlink:href="m__variables__conversion_8fpp_8f90.html#a429dacb6b48479f387786642eb79900d" target="_top" xlink:title=" ">
<polygon fill="white" stroke="#666666" points="663,-303 531,-303 531,-273 663,-273 663,-303"/>
<text text-anchor="start" x="539" y="-291" font-family="Helvetica,sans-Serif" font-size="10.00">s_convert_species_to</text>
<text text-anchor="middle" x="597" y="-280" font-family="Helvetica,sans-Serif" font-size="10.00">_mixture_variables_acc</text>
</a>
</g>
</g>
<!-- Node18&#45;&gt;Node21 -->
<g id="edge31_Node000018_Node000021" class="edge">
<title>Node18&#45;&gt;Node21</title>
<g id="a_edge31_Node000018_Node000021"><a xlink:title=" ">
<path fill="none" stroke="#63b8ff" d="M459.03,-288C478.66,-288 500.38,-288 520.63,-288"/>
<polygon fill="#63b8ff" stroke="#63b8ff" points="520.75,-291.5 530.75,-288 520.75,-284.5 520.75,-291.5"/>
</a>
</g>
</g>
<!-- Node22 -->
<g id="Node000022" class="node">
<title>Node22</title>
<g id="a_Node000022"><a xlink:href="m__variables__conversion_8fpp_8f90.html#ab5ef0fb6705f3250d70ca1d9d750952c" target="_top" xlink:title=" ">
<polygon fill="white" stroke="#666666" points="685,-255 509,-255 509,-225 685,-225 685,-255"/>
<text text-anchor="start" x="517" y="-243" font-family="Helvetica,sans-Serif" font-size="10.00">s_convert_species_to</text>
<text text-anchor="middle" x="597" y="-232" font-family="Helvetica,sans-Serif" font-size="10.00">_mixture_variables_bubbles_acc</text>
</a>
</g>
</g>
<!-- Node18&#45;&gt;Node22 -->
<g id="edge32_Node000018_Node000022" class="edge">
<title>Node18&#45;&gt;Node22</title>
<g id="a_edge32_Node000018_Node000022"><a xlink:title=" ">
<path fill="none" stroke="#63b8ff" d="M457.36,-272.94C478.23,-267.99 501.6,-262.43 523.12,-257.32"/>
<polygon fill="#63b8ff" stroke="#63b8ff" points="523.95,-260.72 532.86,-255 522.33,-253.91 523.95,-260.72"/>
</a>
</g>
</g>
<!-- Node24 -->
<g id="Node000024" class="node">
<title>Node24</title>
<g id="a_Node000024"><a xlink:href="m__viscous_8fpp_8f90.html#aade42711c6dfbbd3bd3b47358ac2bd91" target="_top" xlink:title="The purpose of this subroutine is to employ the inputted left and right cell&#45;boundary integral&#45;averag...">
<polygon fill="white" stroke="#666666" points="671,-121 523,-121 523,-91 671,-91 671,-121"/>
<text text-anchor="start" x="531" y="-109" font-family="Helvetica,sans-Serif" font-size="10.00">s_apply_scalar_divergence</text>
<text text-anchor="middle" x="597" y="-98" font-family="Helvetica,sans-Serif" font-size="10.00">_theorem</text>
</a>
</g>
</g>
<!-- Node23&#45;&gt;Node24 -->
<g id="edge34_Node000023_Node000024" class="edge">
<title>Node23&#45;&gt;Node24</title>
<g id="a_edge34_Node000023_Node000024"><a xlink:title=" ">
<path fill="none" stroke="#63b8ff" d="M434.39,-144.4C459.63,-138.4 492.88,-130.5 522.66,-123.43"/>
<polygon fill="#63b8ff" stroke="#63b8ff" points="523.69,-126.78 532.61,-121.06 522.07,-119.97 523.69,-126.78"/>
</a>
</g>
</g>
<!-- Node25 -->
<g id="Node000025" class="node">
<title>Node25</title>
<g id="a_Node000025"><a xlink:href="m__viscous_8fpp_8f90.html#add30c5e0cfe85ee14359bb4e02c713c3" target="_top" xlink:title="Computes the scalar gradient fields via finite differences.">
<polygon fill="white" stroke="#666666" points="662.5,-72.5 531.5,-72.5 531.5,-53.5 662.5,-53.5 662.5,-72.5"/>
<text text-anchor="middle" x="597" y="-60.5" font-family="Helvetica,sans-Serif" font-size="10.00">s_compute_fd_gradient</text>
</a>
</g>
</g>
<!-- Node23&#45;&gt;Node25 -->
<g id="edge35_Node000023_Node000025" class="edge">
<title>Node23&#45;&gt;Node25</title>
<g id="a_edge35_Node000023_Node000025"><a xlink:title=" ">
<path fill="none" stroke="#63b8ff" d="M435.77,-149.87C448.55,-147.11 462.09,-142.54 473,-135 496.42,-118.8 485.41,-97.95 509,-82 513.03,-79.27 517.38,-76.93 521.92,-74.92"/>
<polygon fill="#63b8ff" stroke="#63b8ff" points="523.38,-78.11 531.45,-71.24 520.86,-71.58 523.38,-78.11"/>
</a>
</g>
</g>
<!-- Node26 -->
<g id="Node000026" class="node">
<title>Node26</title>
<g id="a_Node000026"><a xlink:href="m__viscous_8fpp_8f90.html#afb2cea3f273b947ff0fefe977e829244" target="_top" xlink:title=" ">
<polygon fill="white" stroke="#666666" points="662,-169 532,-169 532,-139 662,-139 662,-169"/>
<text text-anchor="start" x="540" y="-157" font-family="Helvetica,sans-Serif" font-size="10.00">s_reconstruct_cell</text>
<text text-anchor="middle" x="597" y="-146" font-family="Helvetica,sans-Serif" font-size="10.00">_boundary_values_visc</text>
</a>
</g>
</g>
<!-- Node23&#45;&gt;Node26 -->
<g id="edge36_Node000023_Node000026" class="edge">
<title>Node23&#45;&gt;Node26</title>
<g id="a_edge36_Node000023_Node000026"><a xlink:title=" ">
<path fill="none" stroke="#63b8ff" d="M435.85,-154C460.66,-154 492.82,-154 521.81,-154"/>
<polygon fill="#63b8ff" stroke="#63b8ff" points="521.91,-157.5 531.91,-154 521.91,-150.5 521.91,-157.5"/>
</a>
</g>
</g>
<!-- Node27 -->
<g id="Node000027" class="node">
<title>Node27</title>
<g id="a_Node000027"><a xlink:href="m__weno_8fpp_8f90.html#a8495f5eb3dca2bbde1088b568cf13288" target="_top" xlink:title=" ">
<polygon fill="white" stroke="#666666" points="783,-1020.5 730,-1020.5 730,-1001.5 783,-1001.5 783,-1020.5"/>
<text text-anchor="middle" x="756.5" y="-1008.5" font-family="Helvetica,sans-Serif" font-size="10.00">s_weno</text>
</a>
</g>
</g>
<!-- Node26&#45;&gt;Node27 -->
<g id="edge37_Node000026_Node000027" class="edge">
<title>Node26&#45;&gt;Node27</title>
<g id="a_edge37_Node000026_Node000027"><a xlink:title=" ">
<path fill="none" stroke="#63b8ff" d="M662.34,-161.94C671.02,-165.61 678.99,-170.77 685,-178 738.62,-242.56 752.9,-870.46 755.16,-991.03"/>
<polygon fill="#63b8ff" stroke="#63b8ff" points="751.66,-991.42 755.34,-1001.35 758.66,-991.29 751.66,-991.42"/>
</a>
</g>
</g>
<!-- Node28 -->
<g id="Node000028" class="node">
<title>Node28</title>
<g id="a_Node000028"><a xlink:href="m__weno_8fpp_8f90.html#abc4801fbf3acfd4db40d1ad294aa3e46" target="_top" xlink:title="The computation of parameters, the allocation of memory, the association of pointers and/or the execu...">
<polygon fill="white" stroke="#666666" points="948.5,-1039.5 847.5,-1039.5 847.5,-1020.5 948.5,-1020.5 948.5,-1039.5"/>
<text text-anchor="middle" x="898" y="-1027.5" font-family="Helvetica,sans-Serif" font-size="10.00">s_initialize_weno</text>
</a>
</g>
</g>
<!-- Node27&#45;&gt;Node28 -->
<g id="edge38_Node000027_Node000028" class="edge">
<title>Node27&#45;&gt;Node28</title>
<g id="a_edge38_Node000027_Node000028"><a xlink:title=" ">
<path fill="none" stroke="#63b8ff" d="M783.09,-1014.48C798.29,-1016.56 818.24,-1019.27 837.2,-1021.86"/>
<polygon fill="#63b8ff" stroke="#63b8ff" points="836.91,-1025.35 847.29,-1023.23 837.85,-1018.41 836.91,-1025.35"/>
</a>
</g>
</g>
<!-- Node29 -->
<g id="Node000029" class="node">
<title>Node29</title>
<g id="a_Node000029"><a xlink:href="m__weno_8fpp_8f90.html#ac6752752f34719dae452d0fe42e21682" target="_top" xlink:title="The goal of this subroutine is to ensure that the WENO reconstruction is monotonic....">
<polygon fill="white" stroke="#666666" points="968,-1002.5 828,-1002.5 828,-983.5 968,-983.5 968,-1002.5"/>
<text text-anchor="middle" x="898" y="-990.5" font-family="Helvetica,sans-Serif" font-size="10.00">s_preserve_monotonicity</text>
</a>
</g>
</g>
<!-- Node27&#45;&gt;Node29 -->
<g id="edge39_Node000027_Node000029" class="edge">
<title>Node27&#45;&gt;Node29</title>
<g id="a_edge39_Node000027_Node000029"><a xlink:title=" ">
<path fill="none" stroke="#63b8ff" d="M783.09,-1007.7C793.14,-1006.4 805.28,-1004.84 817.82,-1003.22"/>
<polygon fill="#63b8ff" stroke="#63b8ff" points="818.48,-1006.66 827.95,-1001.91 817.58,-999.72 818.48,-1006.66"/>
</a>
</g>
</g>
<!-- Node31 -->
<g id="Node000031" class="node">
<title>Node31</title>
<g id="a_Node000031"><a xlink:href="m__qbmm_8fpp_8f90.html#a74e7ce86214df481371f693002986023" target="_top" xlink:title=" ">
<polygon fill="white" stroke="#666666" points="622,-1225.5 572,-1225.5 572,-1206.5 622,-1206.5 622,-1225.5"/>
<text text-anchor="middle" x="597" y="-1213.5" font-family="Helvetica,sans-Serif" font-size="10.00">f_quad</text>
</a>
</g>
</g>
<!-- Node30&#45;&gt;Node31 -->
<g id="edge41_Node000030_Node000031" class="edge">
<title>Node30&#45;&gt;Node31</title>
<g id="a_edge41_Node000030_Node000031"><a xlink:title=" ">
<path fill="none" stroke="#63b8ff" d="M410.21,-1151.5C431.98,-1163.9 472.22,-1185.46 509,-1198 526.01,-1203.8 545.55,-1208.05 561.8,-1210.95"/>
<polygon fill="#63b8ff" stroke="#63b8ff" points="561.5,-1214.45 571.94,-1212.68 562.67,-1207.55 561.5,-1214.45"/>
</a>
</g>
</g>
<!-- Node32 -->
<g id="Node000032" class="node">
<title>Node32</title>
<g id="a_Node000032"><a xlink:href="m__qbmm_8fpp_8f90.html#add8fc901ab3865292669cbb997aaf2b2" target="_top" xlink:title=" ">
<polygon fill="white" stroke="#666666" points="628,-1170.5 566,-1170.5 566,-1151.5 628,-1151.5 628,-1170.5"/>
<text text-anchor="middle" x="597" y="-1158.5" font-family="Helvetica,sans-Serif" font-size="10.00">f_quad2d</text>
</a>
</g>
</g>
<!-- Node30&#45;&gt;Node32 -->
<g id="edge43_Node000030_Node000032" class="edge">
<title>Node30&#45;&gt;Node32</title>
<g id="a_edge43_Node000030_Node000032"><a xlink:title=" ">
<path fill="none" stroke="#63b8ff" d="M429.65,-1145.35C464.9,-1148.67 518.78,-1153.74 555.6,-1157.2"/>
<polygon fill="#63b8ff" stroke="#63b8ff" points="555.69,-1160.72 565.97,-1158.18 556.34,-1153.75 555.69,-1160.72"/>
</a>
</g>
</g>
<!-- Node33 -->
<g id="Node000033" class="node">
<title>Node33</title>
<g id="a_Node000033"><a xlink:href="m__qbmm_8fpp_8f90.html#a57a24e4f3d6a9db5b1aaa3100b7ef46d" target="_top" xlink:title=" ">
<polygon fill="white" stroke="#666666" points="635,-1133.5 559,-1133.5 559,-1114.5 635,-1114.5 635,-1133.5"/>
<text text-anchor="middle" x="597" y="-1121.5" font-family="Helvetica,sans-Serif" font-size="10.00">s_chyqmom</text>
</a>
</g>
</g>
<!-- Node30&#45;&gt;Node33 -->
<g id="edge45_Node000030_Node000033" class="edge">
<title>Node30&#45;&gt;Node33</title>
<g id="a_edge45_Node000030_Node000033"><a xlink:title=" ">
<path fill="none" stroke="#63b8ff" d="M429.65,-1138.82C462.64,-1135.88 511.92,-1131.49 548.29,-1128.25"/>
<polygon fill="#63b8ff" stroke="#63b8ff" points="549.01,-1131.7 558.66,-1127.33 548.38,-1124.73 549.01,-1131.7"/>
</a>
</g>
</g>
<!-- Node35 -->
<g id="Node000035" class="node">
<title>Node35</title>
<g id="a_Node000035"><a xlink:href="m__qbmm_8fpp_8f90.html#a5e8f8b30325d688111d1ec1cd8c9680d" target="_top" xlink:title=" ">
<polygon fill="white" stroke="#666666" points="622.5,-1096.5 571.5,-1096.5 571.5,-1077.5 622.5,-1077.5 622.5,-1096.5"/>
<text text-anchor="middle" x="597" y="-1084.5" font-family="Helvetica,sans-Serif" font-size="10.00">s_coeff</text>
</a>
</g>
</g>
<!-- Node30&#45;&gt;Node35 -->
<g id="edge47_Node000030_Node000035" class="edge">
<title>Node30&#45;&gt;Node35</title>
<g id="a_edge47_Node000030_Node000035"><a xlink:title=" ">
<path fill="none" stroke="#63b8ff" d="M422.15,-1132.42C445.31,-1124.73 479.07,-1113.94 509,-1106 526.16,-1101.45 545.43,-1097.16 561.47,-1093.81"/>
<polygon fill="#63b8ff" stroke="#63b8ff" points="562.4,-1097.19 571.49,-1091.75 560.99,-1090.34 562.4,-1097.19"/>
</a>
</g>
</g>
<!-- Node36 -->
<g id="Node000036" class="node">
<title>Node36</title>
<g id="a_Node000036"><a xlink:href="m__qbmm_8fpp_8f90.html#aab31fde8338242a0eac719456000030d" target="_top" xlink:title=" ">
<polygon fill="white" stroke="#666666" points="644.5,-1280.5 549.5,-1280.5 549.5,-1261.5 644.5,-1261.5 644.5,-1280.5"/>
<text text-anchor="middle" x="597" y="-1268.5" font-family="Helvetica,sans-Serif" font-size="10.00">s_coeff_nonpoly</text>
</a>
</g>
</g>
<!-- Node30&#45;&gt;Node36 -->
<g id="edge48_Node000030_Node000036" class="edge">
<title>Node30&#45;&gt;Node36</title>
<g id="a_edge48_Node000030_Node000036"><a xlink:title=" ">
<path fill="none" stroke="#63b8ff" d="M400.81,-1151.56C416.91,-1173.38 459.68,-1226.96 509,-1253 518.3,-1257.91 528.82,-1261.48 539.25,-1264.08"/>
<polygon fill="#63b8ff" stroke="#63b8ff" points="538.66,-1267.54 549.18,-1266.29 540.18,-1260.7 538.66,-1267.54"/>
</a>
</g>
</g>
<!-- Node31&#45;&gt;Node31 -->
<g id="edge42_Node000031_Node000031" class="edge">
<title>Node31&#45;&gt;Node31</title>
<g id="a_edge42_Node000031_Node000031"><a xlink:title=" ">
<path fill="none" stroke="#63b8ff" d="M572.65,-1225.58C560.8,-1234.23 568.92,-1243.5 597,-1243.5 615.43,-1243.5 625.26,-1239.51 626.49,-1234.32"/>
<polygon fill="#63b8ff" stroke="#63b8ff" points="629.44,-1232.43 621.35,-1225.58 623.41,-1235.98 629.44,-1232.43"/>
</a>
</g>
</g>
<!-- Node32&#45;&gt;Node32 -->
<g id="edge44_Node000032_Node000032" class="edge">
<title>Node32&#45;&gt;Node32</title>
<g id="a_edge44_Node000032_Node000032"><a xlink:title=" ">
<path fill="none" stroke="#63b8ff" d="M572.65,-1170.58C560.8,-1179.23 568.92,-1188.5 597,-1188.5 615.43,-1188.5 625.26,-1184.51 626.49,-1179.32"/>
<polygon fill="#63b8ff" stroke="#63b8ff" points="629.44,-1177.43 621.35,-1170.58 623.41,-1180.98 629.44,-1177.43"/>
</a>
</g>
</g>
<!-- Node34 -->
<g id="Node000034" class="node">
<title>Node34</title>
<g id="a_Node000034"><a xlink:href="m__qbmm_8fpp_8f90.html#a9f04f02028dbe154a03418ecca95fc97" target="_top" xlink:title=" ">
<polygon fill="white" stroke="#666666" points="792,-1133.5 721,-1133.5 721,-1114.5 792,-1114.5 792,-1133.5"/>
<text text-anchor="middle" x="756.5" y="-1121.5" font-family="Helvetica,sans-Serif" font-size="10.00">s_hyqmom</text>
</a>
</g>
</g>
<!-- Node33&#45;&gt;Node34 -->
<g id="edge46_Node000033_Node000034" class="edge">
<title>Node33&#45;&gt;Node34</title>
<g id="a_edge46_Node000033_Node000034"><a xlink:title=" ">
<path fill="none" stroke="#63b8ff" d="M635.33,-1124C657.91,-1124 686.85,-1124 710.67,-1124"/>
<polygon fill="#63b8ff" stroke="#63b8ff" points="710.87,-1127.5 720.87,-1124 710.87,-1120.5 710.87,-1127.5"/>
</a>
</g>
</g>
<!-- Node37&#45;&gt;Node27 -->
<g id="edge50_Node000037_Node000027" class="edge">
<title>Node37&#45;&gt;Node27</title>
<g id="a_edge50_Node000037_Node000027"><a xlink:title=" ">
<path fill="none" stroke="#63b8ff" d="M422.84,-994.12C445.56,-1005.13 478.38,-1019.1 509,-1025 585.81,-1039.79 607.15,-1032.65 685,-1025 696.5,-1023.87 708.92,-1021.72 720.07,-1019.44"/>
<polygon fill="#63b8ff" stroke="#63b8ff" points="720.85,-1022.86 729.9,-1017.34 719.39,-1016.01 720.85,-1022.86"/>
</a>
</g>
</g>
<!-- Node38&#45;&gt;Node27 -->
<g id="edge52_Node000038_Node000027" class="edge">
<title>Node38&#45;&gt;Node27</title>
<g id="a_edge52_Node000038_Node000027"><a xlink:title=" ">
<path fill="none" stroke="#63b8ff" d="M399.79,-789.22C417.36,-834.57 471.18,-967.16 509,-992 573.44,-1034.33 668.81,-1026.61 719.98,-1018.24"/>
<polygon fill="#63b8ff" stroke="#63b8ff" points="720.65,-1021.67 729.9,-1016.51 719.45,-1014.78 720.65,-1021.67"/>
</a>
</g>
</g>
<!-- Node41 -->
<g id="Node000041" class="node">
<title>Node41</title>
<g id="a_Node000041"><a xlink:href="m__variables__conversion_8fpp_8f90.html#a23d455cd803d423a9c329a36303c8e59" target="_top" xlink:title="This subroutine is designed for the gamma/pi_inf model and provided a set of either conservative or p...">
<polygon fill="white" stroke="#666666" points="454,-30 332,-30 332,0 454,0 454,-30"/>
<text text-anchor="start" x="340" y="-18" font-family="Helvetica,sans-Serif" font-size="10.00">s_convert_mixture_to</text>
<text text-anchor="middle" x="393" y="-7" font-family="Helvetica,sans-Serif" font-size="10.00">_mixture_variables</text>
</a>
</g>
</g>
<!-- Node40&#45;&gt;Node41 -->
<g id="edge55_Node000040_Node000041" class="edge">
<title>Node40&#45;&gt;Node41</title>
<g id="a_edge55_Node000040_Node000041"><a xlink:title=" ">
<path fill="none" stroke="#63b8ff" d="M230.29,-77.49C250.11,-67.15 283.26,-50.54 313,-39 318.09,-37.02 323.42,-35.1 328.8,-33.26"/>
<polygon fill="#63b8ff" stroke="#63b8ff" points="330.11,-36.52 338.51,-30.05 327.91,-29.87 330.11,-36.52"/>
</a>
</g>
</g>
<!-- Node42 -->
<g id="Node000042" class="node">
<title>Node42</title>
<g id="a_Node000042"><a xlink:href="m__variables__conversion_8fpp_8f90.html#a6584e5eab51d43b8fcb934fbf815732f" target="_top" xlink:title="This subroutine is designed for the volume fraction model and provided a set of either conservative o...">
<polygon fill="white" stroke="#666666" points="453.5,-126 332.5,-126 332.5,-96 453.5,-96 453.5,-126"/>
<text text-anchor="start" x="340.5" y="-114" font-family="Helvetica,sans-Serif" font-size="10.00">s_convert_species_to</text>
<text text-anchor="middle" x="393" y="-103" font-family="Helvetica,sans-Serif" font-size="10.00">_mixture_variables</text>
</a>
</g>
</g>
<!-- Node40&#45;&gt;Node42 -->
<g id="edge56_Node000040_Node000042" class="edge">
<title>Node40&#45;&gt;Node42</title>
<g id="a_edge56_Node000040_Node000042"><a xlink:title=" ">
<path fill="none" stroke="#63b8ff" d="M277.05,-95.63C291.67,-97.59 307.26,-99.67 322.08,-101.65"/>
<polygon fill="#63b8ff" stroke="#63b8ff" points="321.83,-105.15 332.21,-103.01 322.76,-98.21 321.83,-105.15"/>
</a>
</g>
</g>
<!-- Node43 -->
<g id="Node000043" class="node">
<title>Node43</title>
<g id="a_Node000043"><a xlink:href="m__variables__conversion_8fpp_8f90.html#a518985449876e8bf5a1f426b74790665" target="_top" xlink:title="This procedure is used alongside with the gamma/pi_inf model to transfer the density,...">
<polygon fill="white" stroke="#666666" points="470,-78 316,-78 316,-48 470,-48 470,-78"/>
<text text-anchor="start" x="324" y="-66" font-family="Helvetica,sans-Serif" font-size="10.00">s_convert_species_to</text>
<text text-anchor="middle" x="393" y="-55" font-family="Helvetica,sans-Serif" font-size="10.00">_mixture_variables_bubbles</text>
</a>
</g>
</g>
<!-- Node40&#45;&gt;Node43 -->
<g id="edge57_Node000040_Node000043" class="edge">
<title>Node40&#45;&gt;Node43</title>
<g id="a_edge57_Node000040_Node000043"><a xlink:title=" ">
<path fill="none" stroke="#63b8ff" d="M277.05,-78.37C286.37,-77.12 296.09,-75.82 305.76,-74.53"/>
<polygon fill="#63b8ff" stroke="#63b8ff" points="306.35,-77.98 315.79,-73.19 305.42,-71.05 306.35,-77.98"/>
</a>
</g>
</g>
</g>
</svg>
