<?xml version="1.0" encoding="UTF-8" standalone="no"?>
<!DOCTYPE svg PUBLIC "-//W3C//DTD SVG 1.1//EN"
 "http://www.w3.org/Graphics/SVG/1.1/DTD/svg11.dtd">
<!-- Generated by graphviz version 2.43.0 (0)
 -->
<!-- Title: s_hllc_riemann_solver Pages: 1 -->
<svg width="677pt" height="372pt"
 viewBox="0.00 0.00 677.00 372.37" xmlns="http://www.w3.org/2000/svg" xmlns:xlink="http://www.w3.org/1999/xlink">
<g id="graph0" class="graph" transform="scale(1 1) rotate(0) translate(4 368.37)">
<title>s_hllc_riemann_solver</title>
<!-- Node1 -->
<g id="Node000001" class="node">
<title>Node1</title>
<g id="a_Node000001"><a xlink:title="This procedure is the implementation of the Harten, Lax, van Leer, and contact (HLLC) approximate Rie...">
<polygon fill="#999999" stroke="#666666" points="125,-184.5 0,-184.5 0,-165.5 125,-165.5 125,-184.5"/>
<text text-anchor="middle" x="62.5" y="-172.5" font-family="Helvetica,sans-Serif" font-size="10.00">s_hllc_riemann_solver</text>
</a>
</g>
</g>
<!-- Node2 -->
<g id="Node000002" class="node">
<title>Node2</title>
<g id="a_Node000002"><a xlink:href="m__helper__basic_8fpp_8f90.html#a49aa1857cb519bdc6b35434fd1821cab" target="_top" xlink:title="This procedure checks if two floating point numbers of wp are within tolerance.">
<polygon fill="white" stroke="#666666" points="646,-325.5 554,-325.5 554,-306.5 646,-306.5 646,-325.5"/>
<text text-anchor="middle" x="600" y="-313.5" font-family="Helvetica,sans-Serif" font-size="10.00">f_approx_equal</text>
</a>
</g>
</g>
<!-- Node1&#45;&gt;Node2 -->
<g id="edge1_Node000001_Node000002" class="edge">
<title>Node1&#45;&gt;Node2</title>
<g id="a_edge1_Node000001_Node000002"><a xlink:title=" ">
<path fill="none" stroke="#63b8ff" d="M66.26,-184.78C74.79,-212.88 103.67,-293.89 161,-325 292.9,-396.58 481.67,-352.47 561.29,-328.49"/>
<polygon fill="#63b8ff" stroke="#63b8ff" points="562.37,-331.82 570.9,-325.53 560.31,-325.13 562.37,-331.82"/>
</a>
</g>
</g>
<!-- Node3 -->
<g id="Node000003" class="node">
<title>Node3</title>
<g id="a_Node000003"><a xlink:href="m__bubbles_8fpp_8f90.html#a30dca898ade85c5f9dd77f22371a00da" target="_top" xlink:title="Function that computes the bubble wall pressure for Keller–Miksis bubbles.">
<polygon fill="white" stroke="#666666" points="283.5,-297.5 211.5,-297.5 211.5,-278.5 283.5,-278.5 283.5,-297.5"/>
<text text-anchor="middle" x="247.5" y="-285.5" font-family="Helvetica,sans-Serif" font-size="10.00">f_cpbw_km</text>
</a>
</g>
</g>
<!-- Node1&#45;&gt;Node3 -->
<g id="edge2_Node000001_Node000003" class="edge">
<title>Node1&#45;&gt;Node3</title>
<g id="a_edge2_Node000001_Node000003"><a xlink:title=" ">
<path fill="none" stroke="#63b8ff" d="M70.59,-184.77C85.18,-204.12 120.61,-247.3 161,-269 173.28,-275.59 187.72,-279.9 201.21,-282.71"/>
<polygon fill="#63b8ff" stroke="#63b8ff" points="200.81,-286.2 211.28,-284.59 202.09,-279.32 200.81,-286.2"/>
</a>
</g>
</g>
<!-- Node5 -->
<g id="Node000005" class="node">
<title>Node5</title>
<g id="a_Node000005"><a xlink:href="m__surface__tension_8fpp_8f90.html#afe20c75e746a69035beb7d93ff074d02" target="_top" xlink:title=" ">
<polygon fill="white" stroke="#666666" points="304.5,-260 190.5,-260 190.5,-230 304.5,-230 304.5,-260"/>
<text text-anchor="start" x="198.5" y="-248" font-family="Helvetica,sans-Serif" font-size="10.00">s_compute_capilary</text>
<text text-anchor="middle" x="247.5" y="-237" font-family="Helvetica,sans-Serif" font-size="10.00">_source_flux</text>
</a>
</g>
</g>
<!-- Node1&#45;&gt;Node5 -->
<g id="edge6_Node000001_Node000005" class="edge">
<title>Node1&#45;&gt;Node5</title>
<g id="a_edge6_Node000001_Node000005"><a xlink:title=" ">
<path fill="none" stroke="#63b8ff" d="M81.44,-184.58C100.71,-194.6 132.42,-210.33 161,-221 167.31,-223.35 173.95,-225.6 180.63,-227.72"/>
<polygon fill="#63b8ff" stroke="#63b8ff" points="179.83,-231.13 190.42,-230.71 181.88,-224.44 179.83,-231.13"/>
</a>
</g>
</g>
<!-- Node6 -->
<g id="Node000006" class="node">
<title>Node6</title>
<g id="a_Node000006"><a xlink:href="m__variables__conversion_8fpp_8f90.html#a51acc7500f24829b23b1280b91260929" target="_top" xlink:title=" ">
<polygon fill="white" stroke="#666666" points="307,-212 188,-212 188,-182 307,-182 307,-212"/>
<text text-anchor="start" x="196" y="-200" font-family="Helvetica,sans-Serif" font-size="10.00">s_compute_speed_of</text>
<text text-anchor="middle" x="247.5" y="-189" font-family="Helvetica,sans-Serif" font-size="10.00">_sound</text>
</a>
</g>
</g>
<!-- Node1&#45;&gt;Node6 -->
<g id="edge7_Node000001_Node000006" class="edge">
<title>Node1&#45;&gt;Node6</title>
<g id="a_edge7_Node000001_Node000006"><a xlink:title=" ">
<path fill="none" stroke="#63b8ff" d="M125.2,-182.42C142.11,-184.45 160.55,-186.67 177.83,-188.74"/>
<polygon fill="#63b8ff" stroke="#63b8ff" points="177.51,-192.23 187.85,-189.95 178.34,-185.28 177.51,-192.23"/>
</a>
</g>
</g>
<!-- Node7 -->
<g id="Node000007" class="node">
<title>Node7</title>
<g id="a_Node000007"><a xlink:href="m__riemann__solvers_8fpp_8f90.html#a64c7a8b13bc1cf31428c4e52ee247a00" target="_top" xlink:title="Dispatch to the subroutines that are utilized to compute the viscous source fluxes for either Cartesi...">
<polygon fill="white" stroke="#666666" points="334,-163.5 161,-163.5 161,-144.5 334,-144.5 334,-163.5"/>
<text text-anchor="middle" x="247.5" y="-151.5" font-family="Helvetica,sans-Serif" font-size="10.00">s_compute_viscous_source_flux</text>
</a>
</g>
</g>
<!-- Node1&#45;&gt;Node7 -->
<g id="edge8_Node000001_Node000007" class="edge">
<title>Node1&#45;&gt;Node7</title>
<g id="a_edge8_Node000001_Node000007"><a xlink:title=" ">
<path fill="none" stroke="#63b8ff" d="M125.2,-167.92C134.36,-166.87 143.98,-165.76 153.61,-164.66"/>
<polygon fill="#63b8ff" stroke="#63b8ff" points="154.1,-168.13 163.64,-163.51 153.3,-161.17 154.1,-168.13"/>
</a>
</g>
</g>
<!-- Node12 -->
<g id="Node000012" class="node">
<title>Node12</title>
<g id="a_Node000012"><a xlink:href="m__riemann__solvers_8fpp_8f90.html#aa88fb248825b436826b2835bcd8150b8" target="_top" xlink:title="Deallocation and/or disassociation procedures that are needed to finalize the selected Riemann proble...">
<polygon fill="white" stroke="#666666" points="301.5,-126 193.5,-126 193.5,-96 301.5,-96 301.5,-126"/>
<text text-anchor="start" x="201.5" y="-114" font-family="Helvetica,sans-Serif" font-size="10.00">s_finalize_riemann</text>
<text text-anchor="middle" x="247.5" y="-103" font-family="Helvetica,sans-Serif" font-size="10.00">_solver</text>
</a>
</g>
</g>
<!-- Node1&#45;&gt;Node12 -->
<g id="edge13_Node000001_Node000012" class="edge">
<title>Node1&#45;&gt;Node12</title>
<g id="a_edge13_Node000001_Node000012"><a xlink:title=" ">
<path fill="none" stroke="#63b8ff" d="M84.91,-165.38C104.49,-156.78 134.36,-144.17 161,-135 168.28,-132.5 175.97,-130.05 183.63,-127.75"/>
<polygon fill="#63b8ff" stroke="#63b8ff" points="184.69,-131.09 193.3,-124.9 182.72,-124.37 184.69,-131.09"/>
</a>
</g>
</g>
<!-- Node13 -->
<g id="Node000013" class="node">
<title>Node13</title>
<g id="a_Node000013"><a xlink:href="m__riemann__solvers_8fpp_8f90.html#afeb130b6995f0d1188772d276b505f0c" target="_top" xlink:title="The computation of parameters, the allocation of memory, the association of pointers and/or the execu...">
<polygon fill="white" stroke="#666666" points="305,-78 190,-78 190,-48 305,-48 305,-78"/>
<text text-anchor="start" x="198" y="-66" font-family="Helvetica,sans-Serif" font-size="10.00">s_initialize_riemann</text>
<text text-anchor="middle" x="247.5" y="-55" font-family="Helvetica,sans-Serif" font-size="10.00">_solver</text>
</a>
</g>
</g>
<!-- Node1&#45;&gt;Node13 -->
<g id="edge14_Node000001_Node000013" class="edge">
<title>Node1&#45;&gt;Node13</title>
<g id="a_edge14_Node000001_Node000013"><a xlink:title=" ">
<path fill="none" stroke="#63b8ff" d="M71.31,-165.5C86.62,-147.48 122.46,-108.25 161,-87 166.99,-83.7 173.46,-80.82 180.08,-78.32"/>
<polygon fill="#63b8ff" stroke="#63b8ff" points="181.55,-81.51 189.84,-74.92 179.25,-74.9 181.55,-81.51"/>
</a>
</g>
</g>
<!-- Node14 -->
<g id="Node000014" class="node">
<title>Node14</title>
<g id="a_Node000014"><a xlink:href="m__riemann__solvers_8fpp_8f90.html#aa699303fa4a58f862023e6f684b91db6" target="_top" xlink:title="The purpose of this subroutine is to populate the buffers of the left and right Riemann states variab...">
<polygon fill="white" stroke="#666666" points="318,-30 177,-30 177,0 318,0 318,-30"/>
<text text-anchor="start" x="185" y="-18" font-family="Helvetica,sans-Serif" font-size="10.00">s_populate_riemann</text>
<text text-anchor="middle" x="247.5" y="-7" font-family="Helvetica,sans-Serif" font-size="10.00">_states_variables_buffers</text>
</a>
</g>
</g>
<!-- Node1&#45;&gt;Node14 -->
<g id="edge15_Node000001_Node000014" class="edge">
<title>Node1&#45;&gt;Node14</title>
<g id="a_edge15_Node000001_Node000014"><a xlink:title=" ">
<path fill="none" stroke="#63b8ff" d="M67.6,-165.39C78.72,-140.48 111.99,-73.34 161,-39 163.15,-37.49 165.4,-36.08 167.72,-34.75"/>
<polygon fill="#63b8ff" stroke="#63b8ff" points="169.63,-37.71 176.96,-30.06 166.46,-31.46 169.63,-37.71"/>
</a>
</g>
</g>
<!-- Node3&#45;&gt;Node3 -->
<g id="edge3_Node000003_Node000003" class="edge">
<title>Node3&#45;&gt;Node3</title>
<g id="a_edge3_Node000003_Node000003"><a xlink:title=" ">
<path fill="none" stroke="#63b8ff" d="M219.14,-297.58C205.34,-306.23 214.8,-315.5 247.5,-315.5 269.98,-315.5 281.48,-311.12 281.98,-305.57"/>
<polygon fill="#63b8ff" stroke="#63b8ff" points="284.72,-303.39 275.86,-297.58 279.16,-307.65 284.72,-303.39"/>
</a>
</g>
</g>
<!-- Node4 -->
<g id="Node000004" class="node">
<title>Node4</title>
<g id="a_Node000004"><a xlink:href="m__helper__basic_8fpp_8f90.html#af13561cd8191e20b0ee3bdf335944ce5" target="_top" xlink:title="Checks if a real(wp) variable is of default value.">
<polygon fill="white" stroke="#666666" points="469.5,-306.5 395.5,-306.5 395.5,-287.5 469.5,-287.5 469.5,-306.5"/>
<text text-anchor="middle" x="432.5" y="-294.5" font-family="Helvetica,sans-Serif" font-size="10.00">f_is_default</text>
</a>
</g>
</g>
<!-- Node3&#45;&gt;Node4 -->
<g id="edge4_Node000003_Node000004" class="edge">
<title>Node3&#45;&gt;Node4</title>
<g id="a_edge4_Node000003_Node000004"><a xlink:title=" ">
<path fill="none" stroke="#63b8ff" d="M283.78,-289.74C312.62,-291.15 353.61,-293.17 385.1,-294.72"/>
<polygon fill="#63b8ff" stroke="#63b8ff" points="385.23,-298.23 395.39,-295.22 385.57,-291.24 385.23,-298.23"/>
</a>
</g>
</g>
<!-- Node4&#45;&gt;Node2 -->
<g id="edge5_Node000004_Node000002" class="edge">
<title>Node4&#45;&gt;Node2</title>
<g id="a_edge5_Node000004_Node000002"><a xlink:title=" ">
<path fill="none" stroke="#63b8ff" d="M469.82,-301.17C491.47,-303.65 519.38,-306.86 543.72,-309.65"/>
<polygon fill="#63b8ff" stroke="#63b8ff" points="543.57,-313.16 553.9,-310.82 544.37,-306.2 543.57,-313.16"/>
</a>
</g>
</g>
<!-- Node8 -->
<g id="Node000008" class="node">
<title>Node8</title>
<g id="a_Node000008"><a xlink:href="m__riemann__solvers_8fpp_8f90.html#ab2bef622fe66235469090f4efcc1f6ff" target="_top" xlink:title="Computes Cartesian viscous source flux contributions for momentum and energy. Calculates averaged vel...">
<polygon fill="white" stroke="#666666" points="492.5,-193 372.5,-193 372.5,-163 492.5,-163 492.5,-193"/>
<text text-anchor="start" x="380.5" y="-181" font-family="Helvetica,sans-Serif" font-size="10.00">s_compute_cartesian</text>
<text text-anchor="middle" x="432.5" y="-170" font-family="Helvetica,sans-Serif" font-size="10.00">_viscous_source_flux</text>
</a>
</g>
</g>
<!-- Node7&#45;&gt;Node8 -->
<g id="edge9_Node000007_Node000008" class="edge">
<title>Node7&#45;&gt;Node8</title>
<g id="a_edge9_Node000007_Node000008"><a xlink:title=" ">
<path fill="none" stroke="#63b8ff" d="M321.09,-163.52C334.61,-165.29 348.7,-167.14 362.12,-168.9"/>
<polygon fill="#63b8ff" stroke="#63b8ff" points="361.86,-172.4 372.23,-170.23 362.77,-165.46 361.86,-172.4"/>
</a>
</g>
</g>
<!-- Node11 -->
<g id="Node000011" class="node">
<title>Node11</title>
<g id="a_Node000011"><a xlink:href="m__riemann__solvers_8fpp_8f90.html#a4be521cf9e87c37c1198c46d58ebd1e8" target="_top" xlink:title="Computes cylindrical viscous source flux contributions for momentum and energy. Calculates Cartesian ...">
<polygon fill="white" stroke="#666666" points="495,-145 370,-145 370,-115 495,-115 495,-145"/>
<text text-anchor="start" x="378" y="-133" font-family="Helvetica,sans-Serif" font-size="10.00">s_compute_cylindrical</text>
<text text-anchor="middle" x="432.5" y="-122" font-family="Helvetica,sans-Serif" font-size="10.00">_viscous_source_flux</text>
</a>
</g>
</g>
<!-- Node7&#45;&gt;Node11 -->
<g id="edge12_Node000007_Node000011" class="edge">
<title>Node7&#45;&gt;Node11</title>
<g id="a_edge12_Node000007_Node000011"><a xlink:title=" ">
<path fill="none" stroke="#63b8ff" d="M321.09,-144.48C333.85,-142.81 347.11,-141.07 359.84,-139.4"/>
<polygon fill="#63b8ff" stroke="#63b8ff" points="360.46,-142.85 369.92,-138.08 359.55,-135.91 360.46,-142.85"/>
</a>
</g>
</g>
<!-- Node9 -->
<g id="Node000009" class="node">
<title>Node9</title>
<g id="a_Node000009"><a xlink:href="m__riemann__solvers_8fpp_8f90.html#a6739d8d8accbea7f0027ca51ad05cbca" target="_top" xlink:title="Calculates bulk stress tensor components (diagonal only). tau_ii_bulk = (div_v) / Re_bulk....">
<polygon fill="white" stroke="#666666" points="666,-217 534,-217 534,-187 666,-187 666,-217"/>
<text text-anchor="start" x="542" y="-205" font-family="Helvetica,sans-Serif" font-size="10.00">s_calculate_bulk_stress</text>
<text text-anchor="middle" x="600" y="-194" font-family="Helvetica,sans-Serif" font-size="10.00">_tensor</text>
</a>
</g>
</g>
<!-- Node8&#45;&gt;Node9 -->
<g id="edge10_Node000008_Node000009" class="edge">
<title>Node8&#45;&gt;Node9</title>
<g id="a_edge10_Node000008_Node000009"><a xlink:title=" ">
<path fill="none" stroke="#63b8ff" d="M492.78,-186.6C502.9,-188.06 513.54,-189.61 524,-191.12"/>
<polygon fill="#63b8ff" stroke="#63b8ff" points="523.56,-194.6 533.96,-192.57 524.57,-187.67 523.56,-194.6"/>
</a>
</g>
</g>
<!-- Node10 -->
<g id="Node000010" class="node">
<title>Node10</title>
<g id="a_Node000010"><a xlink:href="m__riemann__solvers_8fpp_8f90.html#ab6ef5facc96f50d5e28d435124c27236" target="_top" xlink:title="Calculates shear stress tensor components. tau_ij_shear = ( (dui/dxj + duj/dxi) &#45; (2/3)*(div_v)*delta...">
<polygon fill="white" stroke="#666666" points="669,-169 531,-169 531,-139 669,-139 669,-169"/>
<text text-anchor="start" x="539" y="-157" font-family="Helvetica,sans-Serif" font-size="10.00">s_calculate_shear_stress</text>
<text text-anchor="middle" x="600" y="-146" font-family="Helvetica,sans-Serif" font-size="10.00">_tensor</text>
</a>
</g>
</g>
<!-- Node8&#45;&gt;Node10 -->
<g id="edge11_Node000008_Node000010" class="edge">
<title>Node8&#45;&gt;Node10</title>
<g id="a_edge11_Node000008_Node000010"><a xlink:title=" ">
<path fill="none" stroke="#63b8ff" d="M492.78,-169.4C501.84,-168.09 511.31,-166.72 520.7,-165.35"/>
<polygon fill="#63b8ff" stroke="#63b8ff" points="521.44,-168.78 530.84,-163.88 520.44,-161.86 521.44,-168.78"/>
</a>
</g>
</g>
</g>
</svg>
