<?xml version="1.0" encoding="UTF-8" standalone="no"?>
<!DOCTYPE svg PUBLIC "-//W3C//DTD SVG 1.1//EN"
 "http://www.w3.org/Graphics/SVG/1.1/DTD/svg11.dtd">
<!-- Generated by graphviz version 2.43.0 (0)
 -->
<!-- Title: s_compute_rhs Pages: 1 -->
<!--zoomable 1234 -->

<svg id="main" version="1.1" xmlns="http://www.w3.org/2000/svg" xmlns:xlink="http://www.w3.org/1999/xlink" xml:space="preserve" onload="init(evt)">
<style type="text/css"><![CDATA[
.node, .edge {opacity: 0.7;}
.node.selected, .edge.selected {opacity: 1;}
.edge:hover path { stroke: red; }
.edge:hover polygon { stroke: red; fill: red; }
]]></style>

<defs>
  <circle id="rim" cx="0" cy="0" r="7"/>
  <circle id="rim2" cx="0" cy="0" r="3.5"/>
  <g id="zoomPlus">
    <use xlink:href="#rim" fill="#404040"><set attributeName="fill" to="#808080" begin="zoomplus.mouseover" end="zoomplus.mouseout"/></use>
    <path d="M-4,0h8M0,-4v8" fill="none" stroke="white" stroke-width="1.5" pointer-events="none"/>
  </g>
  <g id="zoomMin">
    <use xlink:href="#rim" fill="#404040"><set attributeName="fill" to="#808080" begin="zoomminus.mouseover" end="zoomminus.mouseout"/></use>
    <path d="M-4,0h8" fill="none" stroke="white" stroke-width="1.5" pointer-events="none"/>
  </g>
  <g id="arrowUp" transform="translate(30 24)">
    <use xlink:href="#rim"/>
    <path pointer-events="none" fill="none" stroke="white" stroke-width="1.5" d="M0,-3.0v7 M-2.5,-0.5L0,-3.0L2.5,-0.5"/>
  </g>
  <g id="arrowRight" transform="rotate(90) translate(36 -43)">
    <use xlink:href="#rim"/>
    <path pointer-events="none" fill="none" stroke="white" stroke-width="1.5" d="M0,-3.0v7 M-2.5,-0.5L0,-3.0L2.5,-0.5"/>
  </g>
  <g id="arrowDown" transform="rotate(180) translate(-30 -48)">
    <use xlink:href="#rim"/>
    <path pointer-events="none" fill="none" stroke="white" stroke-width="1.5" d="M0,-3.0v7 M-2.5,-0.5L0,-3.0L2.5,-0.5"/>
  </g>
  <g id="arrowLeft" transform="rotate(270) translate(-36 17)">
    <use xlink:href="#rim"/>
    <path pointer-events="none" fill="none" stroke="white" stroke-width="1.5" d="M0,-3.0v7 M-2.5,-0.5L0,-3.0L2.5,-0.5"/>
  </g>
  <g id="resetDef">
    <use xlink:href="#rim2" fill="#404040"><set attributeName="fill" to="#808080" begin="reset.mouseover" end="reset.mouseout"/></use>
  </g>
</defs>
<script type="application/ecmascript">
var viewWidth = 789;
var viewHeight = 1234;
var sectionId = 'dynsection-1';
</script>
<script type="application/ecmascript" xlink:href="svg.min.js"/>
<svg id="graph" class="graph">
<g id="viewport">
<title>s_compute_rhs</title>
<!-- Node1 -->
<g id="Node000001" class="node">
<title>Node1</title>
<g id="a_Node000001"><a xlink:title=" ">
<polygon fill="#999999" stroke="#666666" points="90,-431 0,-431 0,-412 90,-412 90,-431"/>
<text text-anchor="middle" x="45" y="-419" font-family="Helvetica,sans-Serif" font-size="10.00">s_compute_rhs</text>
</a>
</g>
</g>
<!-- Node2 -->
<g id="Node000002" class="node">
<title>Node2</title>
<g id="a_Node000002"><a xlink:href="m__bubbles_8fpp_8f90.html#a13d7f514861d6b4004211c6f0bdb58fc" target="_top" xlink:title="The purpose of this procedure is to compute the source terms that are needed for the bubble modeling.">
<polygon fill="white" stroke="#666666" points="279,-878 133,-878 133,-859 279,-859 279,-878"/>
<text text-anchor="middle" x="206" y="-866" font-family="Helvetica,sans-Serif" font-size="10.00">s_compute_bubble_source</text>
</a>
</g>
</g>
<!-- Node1&#45;&gt;Node2 -->
<g id="edge1_Node000001_Node000002" class="edge">
<title>Node1&#45;&gt;Node2</title>
<g id="a_edge1_Node000001_Node000002"><a xlink:title=" ">
<path fill="none" stroke="#63b8ff" d="M49.47,-431.25C69.51,-487.59 170.55,-771.64 198.07,-849.01"/>
<polygon fill="#63b8ff" stroke="#63b8ff" points="194.93,-850.63 201.58,-858.88 201.52,-848.28 194.93,-850.63"/>
</a>
</g>
</g>
<!-- Node15 -->
<g id="Node000015" class="node">
<title>Node15</title>
<g id="a_Node000015"><a xlink:href="m__hypoelastic_8fpp_8f90.html#aea16ad050a56ec1f6d8f7db69665d01e" target="_top" xlink:title="The purpose of this procedure is to compute the source terms that are needed for the elastic stress e...">
<polygon fill="white" stroke="#666666" points="282,-547 130,-547 130,-528 282,-528 282,-547"/>
<text text-anchor="middle" x="206" y="-535" font-family="Helvetica,sans-Serif" font-size="10.00">s_compute_hypoelastic_rhs</text>
</a>
</g>
</g>
<!-- Node1&#45;&gt;Node15 -->
<g id="edge25_Node000001_Node000015" class="edge">
<title>Node1&#45;&gt;Node15</title>
<g id="a_edge25_Node000001_Node000015"><a xlink:title=" ">
<path fill="none" stroke="#63b8ff" d="M51.14,-431.25C62.1,-451.01 89.72,-495.82 126,-518.5 129.4,-520.63 133.02,-522.51 136.77,-524.19"/>
<polygon fill="#63b8ff" stroke="#63b8ff" points="135.72,-527.54 146.3,-527.94 138.28,-521.02 135.72,-527.54"/>
</a>
</g>
</g>
<!-- Node16 -->
<g id="Node000016" class="node">
<title>Node16</title>
<g id="a_Node000016"><a xlink:href="m__viscous_8fpp_8f90.html#a1110efee754c653e3a435b16a660a4d7" target="_top" xlink:title="The purpose of this subroutine is to compute the viscous.">
<polygon fill="white" stroke="#666666" points="279,-509.5 133,-509.5 133,-479.5 279,-479.5 279,-509.5"/>
<text text-anchor="start" x="141" y="-497.5" font-family="Helvetica,sans-Serif" font-size="10.00">s_compute_viscous_stress</text>
<text text-anchor="middle" x="206" y="-486.5" font-family="Helvetica,sans-Serif" font-size="10.00">_tensor</text>
</a>
</g>
</g>
<!-- Node1&#45;&gt;Node16 -->
<g id="edge26_Node000001_Node000016" class="edge">
<title>Node1&#45;&gt;Node16</title>
<g id="a_edge26_Node000001_Node000016"><a xlink:title=" ">
<path fill="none" stroke="#63b8ff" d="M59.29,-431.11C74.7,-441.9 101.19,-459.35 126,-470.5 130.35,-472.45 134.9,-474.3 139.53,-476.05"/>
<polygon fill="#63b8ff" stroke="#63b8ff" points="138.5,-479.4 149.09,-479.47 140.86,-472.8 138.5,-479.4"/>
</a>
</g>
</g>
<!-- Node17 -->
<g id="Node000017" class="node">
<title>Node17</title>
<g id="a_Node000017"><a xlink:href="m__variables__conversion_8fpp_8f90.html#a24725c6eb206c9a62e2ec70bf368836d" target="_top" xlink:title="The following procedure handles the conversion between the conservative variables and the primitive v...">
<polygon fill="white" stroke="#666666" points="272,-461.5 140,-461.5 140,-431.5 272,-431.5 272,-461.5"/>
<text text-anchor="start" x="148" y="-449.5" font-family="Helvetica,sans-Serif" font-size="10.00">s_convert_conservative</text>
<text text-anchor="middle" x="206" y="-438.5" font-family="Helvetica,sans-Serif" font-size="10.00">_to_primitive_variables</text>
</a>
</g>
</g>
<!-- Node1&#45;&gt;Node17 -->
<g id="edge27_Node000001_Node000017" class="edge">
<title>Node1&#45;&gt;Node17</title>
<g id="a_edge27_Node000001_Node000017"><a xlink:title=" ">
<path fill="none" stroke="#63b8ff" d="M90.29,-428.46C102.52,-430.39 116.14,-432.53 129.6,-434.65"/>
<polygon fill="#63b8ff" stroke="#63b8ff" points="129.42,-438.16 139.84,-436.26 130.51,-431.24 129.42,-438.16"/>
</a>
</g>
</g>
<!-- Node22 -->
<g id="Node000022" class="node">
<title>Node22</title>
<g id="a_Node000022"><a xlink:href="m__viscous_8fpp_8f90.html#a0f828f5ebe7c76e07c69a5d13ea74803" target="_top" xlink:title="Computes viscous terms.">
<polygon fill="white" stroke="#666666" points="248.5,-386 163.5,-386 163.5,-367 248.5,-367 248.5,-386"/>
<text text-anchor="middle" x="206" y="-374" font-family="Helvetica,sans-Serif" font-size="10.00">s_get_viscous</text>
</a>
</g>
</g>
<!-- Node1&#45;&gt;Node22 -->
<g id="edge32_Node000001_Node000022" class="edge">
<title>Node1&#45;&gt;Node22</title>
<g id="a_edge32_Node000001_Node000022"><a xlink:title=" ">
<path fill="none" stroke="#63b8ff" d="M79.72,-411.96C103.54,-405.21 135.68,-396.12 161.44,-388.83"/>
<polygon fill="#63b8ff" stroke="#63b8ff" points="162.66,-392.12 171.33,-386.03 160.75,-385.39 162.66,-392.12"/>
</a>
</g>
</g>
<!-- Node29 -->
<g id="Node000029" class="node">
<title>Node29</title>
<g id="a_Node000029"><a xlink:href="m__qbmm_8fpp_8f90.html#a07d4ab28f830cfd5b555868bbf8a17fe" target="_top" xlink:title=" ">
<polygon fill="white" stroke="#666666" points="242.5,-112 169.5,-112 169.5,-93 242.5,-93 242.5,-112"/>
<text text-anchor="middle" x="206" y="-100" font-family="Helvetica,sans-Serif" font-size="10.00">s_mom_inv</text>
</a>
</g>
</g>
<!-- Node1&#45;&gt;Node29 -->
<g id="edge39_Node000001_Node000029" class="edge">
<title>Node1&#45;&gt;Node29</title>
<g id="a_edge39_Node000001_Node000029"><a xlink:title=" ">
<path fill="none" stroke="#63b8ff" d="M48.88,-411.69C57.97,-381.44 87.7,-287.25 126,-215.5 145.12,-179.68 173.59,-141.72 190.62,-120.18"/>
<polygon fill="#63b8ff" stroke="#63b8ff" points="193.44,-122.25 196.95,-112.26 187.97,-117.88 193.44,-122.25"/>
</a>
</g>
</g>
<!-- Node36 -->
<g id="Node000036" class="node">
<title>Node36</title>
<g id="a_Node000036"><a xlink:href="m__rhs_8fpp_8f90.html#a26833f559de36f1d15b4f6b3d28cfc79" target="_top" xlink:title="The purpose of this subroutine is to WENO&#45;reconstruct the left and the right cell&#45;boundary values,...">
<polygon fill="white" stroke="#666666" points="258.5,-318.5 153.5,-318.5 153.5,-288.5 258.5,-288.5 258.5,-318.5"/>
<text text-anchor="start" x="161.5" y="-306.5" font-family="Helvetica,sans-Serif" font-size="10.00">s_reconstruct_cell</text>
<text text-anchor="middle" x="206" y="-295.5" font-family="Helvetica,sans-Serif" font-size="10.00">_boundary_values</text>
</a>
</g>
</g>
<!-- Node1&#45;&gt;Node36 -->
<g id="edge48_Node000001_Node000036" class="edge">
<title>Node1&#45;&gt;Node36</title>
<g id="a_edge48_Node000001_Node000036"><a xlink:title=" ">
<path fill="none" stroke="#63b8ff" d="M57.76,-411.89C73.21,-399.34 101.28,-376.81 126,-358.5 141.72,-346.86 159.57,-334.37 174.33,-324.23"/>
<polygon fill="#63b8ff" stroke="#63b8ff" points="176.34,-327.1 182.62,-318.57 172.39,-321.32 176.34,-327.1"/>
</a>
</g>
</g>
<!-- Node37 -->
<g id="Node000037" class="node">
<title>Node37</title>
<g id="a_Node000037"><a xlink:href="m__viscous_8fpp_8f90.html#a7a5f067c7a738f8814f5cee205d2892d" target="_top" xlink:title=" ">
<polygon fill="white" stroke="#666666" points="286,-254.5 126,-254.5 126,-224.5 286,-224.5 286,-254.5"/>
<text text-anchor="start" x="134" y="-242.5" font-family="Helvetica,sans-Serif" font-size="10.00">s_reconstruct_cell</text>
<text text-anchor="middle" x="206" y="-231.5" font-family="Helvetica,sans-Serif" font-size="10.00">_boundary_values_visc_deriv</text>
</a>
</g>
</g>
<!-- Node1&#45;&gt;Node37 -->
<g id="edge50_Node000001_Node000037" class="edge">
<title>Node1&#45;&gt;Node37</title>
<g id="a_edge50_Node000001_Node000037"><a xlink:title=" ">
<path fill="none" stroke="#63b8ff" d="M49.14,-411.98C57.74,-387.19 83.88,-319.79 126,-279.5 134.42,-271.45 144.78,-264.65 155.19,-259.08"/>
<polygon fill="#63b8ff" stroke="#63b8ff" points="156.95,-262.12 164.31,-254.5 153.8,-255.87 156.95,-262.12"/>
</a>
</g>
</g>
<!-- Node3 -->
<g id="Node000003" class="node">
<title>Node3</title>
<g id="a_Node000003"><a xlink:href="m__bubbles_8fpp_8f90.html#a8018aeac239907c1ee784788f9c81673" target="_top" xlink:title="Function that computes the time derivative of the internal bubble pressure.">
<polygon fill="white" stroke="#666666" points="447,-1208 373,-1208 373,-1189 447,-1189 447,-1208"/>
<text text-anchor="middle" x="410" y="-1196" font-family="Helvetica,sans-Serif" font-size="10.00">f_bpres_dot</text>
</a>
</g>
</g>
<!-- Node2&#45;&gt;Node3 -->
<g id="edge2_Node000002_Node000003" class="edge">
<title>Node2&#45;&gt;Node3</title>
<g id="a_edge2_Node000002_Node000003"><a xlink:title=" ">
<path fill="none" stroke="#63b8ff" d="M207.36,-878.24C209.52,-921.32 224.22,-1096.32 322,-1180.5 333.19,-1190.14 348.18,-1195.08 362.57,-1197.5"/>
<polygon fill="#63b8ff" stroke="#63b8ff" points="362.5,-1201.02 372.87,-1198.84 363.41,-1194.08 362.5,-1201.02"/>
</a>
</g>
</g>
<!-- Node4 -->
<g id="Node000004" class="node">
<title>Node4</title>
<g id="a_Node000004"><a xlink:href="m__bubbles_8fpp_8f90.html#a92173957cdea7588a1d2ae5a8097dd0b" target="_top" xlink:title="Function that computes the sound speed for the bubble.">
<polygon fill="white" stroke="#666666" points="434,-1153 386,-1153 386,-1134 434,-1134 434,-1153"/>
<text text-anchor="middle" x="410" y="-1141" font-family="Helvetica,sans-Serif" font-size="10.00">f_cgas</text>
</a>
</g>
</g>
<!-- Node2&#45;&gt;Node4 -->
<g id="edge4_Node000002_Node000004" class="edge">
<title>Node2&#45;&gt;Node4</title>
<g id="a_edge4_Node000002_Node000004"><a xlink:title=" ">
<path fill="none" stroke="#63b8ff" d="M208.17,-878.06C213.38,-916.11 237.99,-1057.98 322,-1125.5 336.93,-1137.5 357.86,-1142.1 375.44,-1143.64"/>
<polygon fill="#63b8ff" stroke="#63b8ff" points="375.69,-1147.16 385.88,-1144.25 376.1,-1140.18 375.69,-1147.16"/>
</a>
</g>
</g>
<!-- Node5 -->
<g id="Node000005" class="node">
<title>Node5</title>
<g id="a_Node000005"><a xlink:href="m__bubbles_8fpp_8f90.html#a5a0193f314079c7e9d923b9374eb20e3" target="_top" xlink:title="Function that computes that bubble wall pressure for Gilmore bubbles.">
<polygon fill="white" stroke="#666666" points="435.5,-1098 384.5,-1098 384.5,-1079 435.5,-1079 435.5,-1098"/>
<text text-anchor="middle" x="410" y="-1086" font-family="Helvetica,sans-Serif" font-size="10.00">f_cpbw</text>
</a>
</g>
</g>
<!-- Node2&#45;&gt;Node5 -->
<g id="edge6_Node000002_Node000005" class="edge">
<title>Node2&#45;&gt;Node5</title>
<g id="a_edge6_Node000002_Node000005"><a xlink:title=" ">
<path fill="none" stroke="#63b8ff" d="M209.5,-878.46C218.41,-911.68 251.82,-1019.48 322,-1070.5 336.98,-1081.39 357.05,-1086.03 374.14,-1087.88"/>
<polygon fill="#63b8ff" stroke="#63b8ff" points="374.07,-1091.38 384.32,-1088.7 374.63,-1084.4 374.07,-1091.38"/>
</a>
</g>
</g>
<!-- Node6 -->
<g id="Node000006" class="node">
<title>Node6</title>
<g id="a_Node000006"><a xlink:href="m__bubbles_8fpp_8f90.html#ab5cad916879a4c85674fcadd46ac3acd" target="_top" xlink:title="Function that computes the bubble wall pressure for Keller–Miksis bubbles.">
<polygon fill="white" stroke="#666666" points="446,-1043 374,-1043 374,-1024 446,-1024 446,-1043"/>
<text text-anchor="middle" x="410" y="-1031" font-family="Helvetica,sans-Serif" font-size="10.00">f_cpbw_km</text>
</a>
</g>
</g>
<!-- Node2&#45;&gt;Node6 -->
<g id="edge8_Node000002_Node000006" class="edge">
<title>Node2&#45;&gt;Node6</title>
<g id="a_edge8_Node000002_Node000006"><a xlink:title=" ">
<path fill="none" stroke="#63b8ff" d="M211.57,-878.32C224.61,-905.13 264.74,-979.96 322,-1015.5 334.44,-1023.22 349.63,-1027.69 363.8,-1030.26"/>
<polygon fill="#63b8ff" stroke="#63b8ff" points="363.48,-1033.75 373.89,-1031.81 364.54,-1026.83 363.48,-1033.75"/>
</a>
</g>
</g>
<!-- Node7 -->
<g id="Node000007" class="node">
<title>Node7</title>
<g id="a_Node000007"><a xlink:href="m__bubbles_8fpp_8f90.html#a5ba0b7cce948abfecaebce809ed4b632" target="_top" xlink:title="Function that computes the time derivative of the driving pressure.">
<polygon fill="white" stroke="#666666" points="442.5,-988 377.5,-988 377.5,-969 442.5,-969 442.5,-988"/>
<text text-anchor="middle" x="410" y="-976" font-family="Helvetica,sans-Serif" font-size="10.00">f_cpinfdot</text>
</a>
</g>
</g>
<!-- Node2&#45;&gt;Node7 -->
<g id="edge10_Node000002_Node000007" class="edge">
<title>Node2&#45;&gt;Node7</title>
<g id="a_edge10_Node000002_Node000007"><a xlink:title=" ">
<path fill="none" stroke="#63b8ff" d="M215.79,-878.07C233.77,-897.01 276.88,-939.29 322,-960.5 336.06,-967.11 352.53,-971.31 367.34,-973.96"/>
<polygon fill="#63b8ff" stroke="#63b8ff" points="366.84,-977.43 377.27,-975.57 367.95,-970.52 366.84,-977.43"/>
</a>
</g>
</g>
<!-- Node8 -->
<g id="Node000008" class="node">
<title>Node8</title>
<g id="a_Node000008"><a xlink:href="m__bubbles_8fpp_8f90.html#a5cd28691438ce1e5e59e56e03f81082a" target="_top" xlink:title="Function that computes the bubble enthalpy.">
<polygon fill="white" stroke="#666666" points="426,-933 394,-933 394,-914 426,-914 426,-933"/>
<text text-anchor="middle" x="410" y="-921" font-family="Helvetica,sans-Serif" font-size="10.00">f_h</text>
</a>
</g>
</g>
<!-- Node2&#45;&gt;Node8 -->
<g id="edge12_Node000002_Node000008" class="edge">
<title>Node2&#45;&gt;Node8</title>
<g id="a_edge12_Node000002_Node000008"><a xlink:title=" ">
<path fill="none" stroke="#63b8ff" d="M234.17,-878.15C257.33,-886.16 291.58,-897.48 322,-905.5 342.63,-910.94 366.36,-915.75 383.82,-919.03"/>
<polygon fill="#63b8ff" stroke="#63b8ff" points="383.33,-922.5 393.8,-920.87 384.6,-915.61 383.33,-922.5"/>
</a>
</g>
</g>
<!-- Node9 -->
<g id="Node000009" class="node">
<title>Node9</title>
<g id="a_Node000009"><a xlink:href="m__bubbles_8fpp_8f90.html#a8677e47b010a7a8e38e25c25f30fe0f0" target="_top" xlink:title="Function that computes the time derivative of the enthalpy.">
<polygon fill="white" stroke="#666666" points="433.5,-878 386.5,-878 386.5,-859 433.5,-859 433.5,-878"/>
<text text-anchor="middle" x="410" y="-866" font-family="Helvetica,sans-Serif" font-size="10.00">f_hdot</text>
</a>
</g>
</g>
<!-- Node2&#45;&gt;Node9 -->
<g id="edge14_Node000002_Node000009" class="edge">
<title>Node2&#45;&gt;Node9</title>
<g id="a_edge14_Node000002_Node000009"><a xlink:title=" ">
<path fill="none" stroke="#63b8ff" d="M279.07,-868.5C312.13,-868.5 349.71,-868.5 375.92,-868.5"/>
<polygon fill="#63b8ff" stroke="#63b8ff" points="376.06,-872 386.06,-868.5 376.06,-865 376.06,-872"/>
</a>
</g>
</g>
<!-- Node10 -->
<g id="Node000010" class="node">
<title>Node10</title>
<g id="a_Node000010"><a xlink:href="m__bubbles_8fpp_8f90.html#a45660b9763222bf51cebff21377443b3" target="_top" xlink:title="Function that computes the bubble radial acceleration.">
<polygon fill="white" stroke="#666666" points="435.5,-823 384.5,-823 384.5,-804 435.5,-804 435.5,-823"/>
<text text-anchor="middle" x="410" y="-811" font-family="Helvetica,sans-Serif" font-size="10.00">f_rddot</text>
</a>
</g>
</g>
<!-- Node2&#45;&gt;Node10 -->
<g id="edge16_Node000002_Node000010" class="edge">
<title>Node2&#45;&gt;Node10</title>
<g id="a_edge16_Node000002_Node000010"><a xlink:title=" ">
<path fill="none" stroke="#63b8ff" d="M242.19,-858.92C279.38,-848.79 337.67,-832.92 374.58,-822.87"/>
<polygon fill="#63b8ff" stroke="#63b8ff" points="375.65,-826.21 384.38,-820.2 373.81,-819.45 375.65,-826.21"/>
</a>
</g>
</g>
<!-- Node11 -->
<g id="Node000011" class="node">
<title>Node11</title>
<g id="a_Node000011"><a xlink:href="m__bubbles_8fpp_8f90.html#a6c94745d6e1c569d57616a5e472ae2cd" target="_top" xlink:title="Function that computes the bubble radial acceleration for Keller–Miksis bubbles.">
<polygon fill="white" stroke="#666666" points="446,-768 374,-768 374,-749 446,-749 446,-768"/>
<text text-anchor="middle" x="410" y="-756" font-family="Helvetica,sans-Serif" font-size="10.00">f_rddot_km</text>
</a>
</g>
</g>
<!-- Node2&#45;&gt;Node11 -->
<g id="edge18_Node000002_Node000011" class="edge">
<title>Node2&#45;&gt;Node11</title>
<g id="a_edge18_Node000002_Node000011"><a xlink:title=" ">
<path fill="none" stroke="#63b8ff" d="M220.38,-858.99C241.39,-844.28 283.69,-815.63 322,-795.5 338.6,-786.77 357.72,-778.47 373.8,-771.94"/>
<polygon fill="#63b8ff" stroke="#63b8ff" points="375.38,-775.08 383.37,-768.12 372.78,-768.58 375.38,-775.08"/>
</a>
</g>
</g>
<!-- Node12 -->
<g id="Node000012" class="node">
<title>Node12</title>
<g id="a_Node000012"><a xlink:href="m__bubbles_8fpp_8f90.html#ad8bb547b5b33724b2d0affee7746a306" target="_top" xlink:title="Function that computes the bubble radial acceleration for Rayleigh&#45;Plesset bubbles.">
<polygon fill="white" stroke="#666666" points="443,-713 377,-713 377,-694 443,-694 443,-713"/>
<text text-anchor="middle" x="410" y="-701" font-family="Helvetica,sans-Serif" font-size="10.00">f_rddot_rp</text>
</a>
</g>
</g>
<!-- Node2&#45;&gt;Node12 -->
<g id="edge20_Node000002_Node000012" class="edge">
<title>Node2&#45;&gt;Node12</title>
<g id="a_edge20_Node000002_Node000012"><a xlink:title=" ">
<path fill="none" stroke="#63b8ff" d="M213.4,-858.85C229.26,-835.59 272.66,-775.76 322,-740.5 335.8,-730.64 352.64,-722.71 367.82,-716.76"/>
<polygon fill="#63b8ff" stroke="#63b8ff" points="369.36,-719.92 377.5,-713.13 366.91,-713.36 369.36,-719.92"/>
</a>
</g>
</g>
<!-- Node13 -->
<g id="Node000013" class="node">
<title>Node13</title>
<g id="a_Node000013"><a xlink:href="m__bubbles_8fpp_8f90.html#a5af4ca8a74ce2461012304ed54f52d73" target="_top" xlink:title="Function that computes the vapour flux.">
<polygon fill="white" stroke="#666666" points="435,-658 385,-658 385,-639 435,-639 435,-658"/>
<text text-anchor="middle" x="410" y="-646" font-family="Helvetica,sans-Serif" font-size="10.00">f_vflux</text>
</a>
</g>
</g>
<!-- Node2&#45;&gt;Node13 -->
<g id="edge22_Node000002_Node000013" class="edge">
<title>Node2&#45;&gt;Node13</title>
<g id="a_edge22_Node000002_Node000013"><a xlink:title=" ">
<path fill="none" stroke="#63b8ff" d="M210.66,-858.71C222.32,-828.74 261.46,-737.11 322,-685.5 337.24,-672.5 357.73,-663.49 374.99,-657.62"/>
<polygon fill="#63b8ff" stroke="#63b8ff" points="376.25,-660.89 384.72,-654.51 374.13,-654.22 376.25,-660.89"/>
</a>
</g>
</g>
<!-- Node14 -->
<g id="Node000014" class="node">
<title>Node14</title>
<g id="a_Node000014"><a xlink:href="m__bubbles_8fpp_8f90.html#a8a11f32e3e991cbcfa764074a62f2492" target="_top" xlink:title="Subroutine that computes bubble wall properties for vapor bubbles.">
<polygon fill="white" stroke="#666666" points="451.5,-621 368.5,-621 368.5,-602 451.5,-602 451.5,-621"/>
<text text-anchor="middle" x="410" y="-609" font-family="Helvetica,sans-Serif" font-size="10.00">s_bwproperty</text>
</a>
</g>
</g>
<!-- Node2&#45;&gt;Node14 -->
<g id="edge24_Node000002_Node000014" class="edge">
<title>Node2&#45;&gt;Node14</title>
<g id="a_edge24_Node000002_Node000014"><a xlink:title=" ">
<path fill="none" stroke="#63b8ff" d="M208.57,-858.92C215.03,-822.67 243.09,-692.74 322,-630.5 332.25,-622.42 345.2,-617.6 357.96,-614.77"/>
<polygon fill="#63b8ff" stroke="#63b8ff" points="358.89,-618.16 368.09,-612.91 357.62,-611.27 358.89,-618.16"/>
</a>
</g>
</g>
<!-- Node3&#45;&gt;Node3 -->
<g id="edge3_Node000003_Node000003" class="edge">
<title>Node3&#45;&gt;Node3</title>
<g id="a_edge3_Node000003_Node000003"><a xlink:title=" ">
<path fill="none" stroke="#63b8ff" d="M385.65,-1208.08C373.8,-1216.73 381.92,-1226 410,-1226 428.43,-1226 438.26,-1222.01 439.49,-1216.82"/>
<polygon fill="#63b8ff" stroke="#63b8ff" points="442.44,-1214.93 434.35,-1208.08 436.41,-1218.48 442.44,-1214.93"/>
</a>
</g>
</g>
<!-- Node4&#45;&gt;Node4 -->
<g id="edge5_Node000004_Node000004" class="edge">
<title>Node4&#45;&gt;Node4</title>
<g id="a_edge5_Node000004_Node000004"><a xlink:title=" ">
<path fill="none" stroke="#63b8ff" d="M385.65,-1153.08C373.8,-1161.73 381.92,-1171 410,-1171 428.43,-1171 438.26,-1167.01 439.49,-1161.82"/>
<polygon fill="#63b8ff" stroke="#63b8ff" points="442.44,-1159.93 434.35,-1153.08 436.41,-1163.48 442.44,-1159.93"/>
</a>
</g>
</g>
<!-- Node5&#45;&gt;Node5 -->
<g id="edge7_Node000005_Node000005" class="edge">
<title>Node5&#45;&gt;Node5</title>
<g id="a_edge7_Node000005_Node000005"><a xlink:title=" ">
<path fill="none" stroke="#63b8ff" d="M385.65,-1098.08C373.8,-1106.73 381.92,-1116 410,-1116 428.43,-1116 438.26,-1112.01 439.49,-1106.82"/>
<polygon fill="#63b8ff" stroke="#63b8ff" points="442.44,-1104.93 434.35,-1098.08 436.41,-1108.48 442.44,-1104.93"/>
</a>
</g>
</g>
<!-- Node6&#45;&gt;Node6 -->
<g id="edge9_Node000006_Node000006" class="edge">
<title>Node6&#45;&gt;Node6</title>
<g id="a_edge9_Node000006_Node000006"><a xlink:title=" ">
<path fill="none" stroke="#63b8ff" d="M385.65,-1043.08C373.8,-1051.73 381.92,-1061 410,-1061 428.43,-1061 438.26,-1057.01 439.49,-1051.82"/>
<polygon fill="#63b8ff" stroke="#63b8ff" points="442.44,-1049.93 434.35,-1043.08 436.41,-1053.48 442.44,-1049.93"/>
</a>
</g>
</g>
<!-- Node7&#45;&gt;Node7 -->
<g id="edge11_Node000007_Node000007" class="edge">
<title>Node7&#45;&gt;Node7</title>
<g id="a_edge11_Node000007_Node000007"><a xlink:title=" ">
<path fill="none" stroke="#63b8ff" d="M385.65,-988.08C373.8,-996.73 381.92,-1006 410,-1006 428.43,-1006 438.26,-1002.01 439.49,-996.82"/>
<polygon fill="#63b8ff" stroke="#63b8ff" points="442.44,-994.93 434.35,-988.08 436.41,-998.48 442.44,-994.93"/>
</a>
</g>
</g>
<!-- Node8&#45;&gt;Node8 -->
<g id="edge13_Node000008_Node000008" class="edge">
<title>Node8&#45;&gt;Node8</title>
<g id="a_edge13_Node000008_Node000008"><a xlink:title=" ">
<path fill="none" stroke="#63b8ff" d="M393.75,-928.63C371.56,-938.19 376.98,-951 410,-951 437.34,-951 445.76,-942.21 435.24,-933.77"/>
<polygon fill="#63b8ff" stroke="#63b8ff" points="436.67,-930.55 426.25,-928.63 433.2,-936.63 436.67,-930.55"/>
</a>
</g>
</g>
<!-- Node9&#45;&gt;Node9 -->
<g id="edge15_Node000009_Node000009" class="edge">
<title>Node9&#45;&gt;Node9</title>
<g id="a_edge15_Node000009_Node000009"><a xlink:title=" ">
<path fill="none" stroke="#63b8ff" d="M386.46,-877.51C373.45,-886.32 381.3,-896 410,-896 429.73,-896 439.61,-891.43 439.62,-885.7"/>
<polygon fill="#63b8ff" stroke="#63b8ff" points="442.31,-883.46 433.54,-877.51 436.69,-887.63 442.31,-883.46"/>
</a>
</g>
</g>
<!-- Node10&#45;&gt;Node10 -->
<g id="edge17_Node000010_Node000010" class="edge">
<title>Node10&#45;&gt;Node10</title>
<g id="a_edge17_Node000010_Node000010"><a xlink:title=" ">
<path fill="none" stroke="#63b8ff" d="M385.65,-823.08C373.8,-831.73 381.92,-841 410,-841 428.43,-841 438.26,-837.01 439.49,-831.82"/>
<polygon fill="#63b8ff" stroke="#63b8ff" points="442.44,-829.93 434.35,-823.08 436.41,-833.48 442.44,-829.93"/>
</a>
</g>
</g>
<!-- Node11&#45;&gt;Node11 -->
<g id="edge19_Node000011_Node000011" class="edge">
<title>Node11&#45;&gt;Node11</title>
<g id="a_edge19_Node000011_Node000011"><a xlink:title=" ">
<path fill="none" stroke="#63b8ff" d="M385.65,-768.08C373.8,-776.73 381.92,-786 410,-786 428.43,-786 438.26,-782.01 439.49,-776.82"/>
<polygon fill="#63b8ff" stroke="#63b8ff" points="442.44,-774.93 434.35,-768.08 436.41,-778.48 442.44,-774.93"/>
</a>
</g>
</g>
<!-- Node12&#45;&gt;Node12 -->
<g id="edge21_Node000012_Node000012" class="edge">
<title>Node12&#45;&gt;Node12</title>
<g id="a_edge21_Node000012_Node000012"><a xlink:title=" ">
<path fill="none" stroke="#63b8ff" d="M385.65,-713.08C373.8,-721.73 381.92,-731 410,-731 428.43,-731 438.26,-727.01 439.49,-721.82"/>
<polygon fill="#63b8ff" stroke="#63b8ff" points="442.44,-719.93 434.35,-713.08 436.41,-723.48 442.44,-719.93"/>
</a>
</g>
</g>
<!-- Node13&#45;&gt;Node13 -->
<g id="edge23_Node000013_Node000013" class="edge">
<title>Node13&#45;&gt;Node13</title>
<g id="a_edge23_Node000013_Node000013"><a xlink:title=" ">
<path fill="none" stroke="#63b8ff" d="M385.65,-658.08C373.8,-666.73 381.92,-676 410,-676 428.43,-676 438.26,-672.01 439.49,-666.82"/>
<polygon fill="#63b8ff" stroke="#63b8ff" points="442.44,-664.93 434.35,-658.08 436.41,-668.48 442.44,-664.93"/>
</a>
</g>
</g>
<!-- Node18 -->
<g id="Node000018" class="node">
<title>Node18</title>
<g id="a_Node000018"><a xlink:href="m__helper_8fpp_8f90.html#a772c75c8b24c414cfaed17e2f8acc772" target="_top" xlink:title=" ">
<polygon fill="white" stroke="#666666" points="471,-584 349,-584 349,-565 471,-565 471,-584"/>
<text text-anchor="middle" x="410" y="-572" font-family="Helvetica,sans-Serif" font-size="10.00">s_comp_n_from_cons</text>
</a>
</g>
</g>
<!-- Node17&#45;&gt;Node18 -->
<g id="edge28_Node000017_Node000018" class="edge">
<title>Node17&#45;&gt;Node18</title>
<g id="a_edge28_Node000017_Node000018"><a xlink:title=" ">
<path fill="none" stroke="#63b8ff" d="M272.12,-460.92C277.13,-463.59 281.85,-466.75 286,-470.5 316.75,-498.28 290.02,-530.15 322,-556.5 327.2,-560.78 333.16,-564.13 339.46,-566.73"/>
<polygon fill="#63b8ff" stroke="#63b8ff" points="338.3,-570.04 348.9,-570.04 340.62,-563.43 338.3,-570.04"/>
</a>
</g>
</g>
<!-- Node19 -->
<g id="Node000019" class="node">
<title>Node19</title>
<g id="a_Node000019"><a xlink:href="m__variables__conversion_8fpp_8f90.html#ac61bd62d4ea1652a4feb24d42eb3c3b1" target="_top" xlink:title="This procedure conditionally calculates the appropriate pressure.">
<polygon fill="white" stroke="#666666" points="468.5,-547 351.5,-547 351.5,-528 468.5,-528 468.5,-547"/>
<text text-anchor="middle" x="410" y="-535" font-family="Helvetica,sans-Serif" font-size="10.00">s_compute_pressure</text>
</a>
</g>
</g>
<!-- Node17&#45;&gt;Node19 -->
<g id="edge29_Node000017_Node000019" class="edge">
<title>Node17&#45;&gt;Node19</title>
<g id="a_edge29_Node000017_Node000019"><a xlink:title=" ">
<path fill="none" stroke="#63b8ff" d="M269.98,-461.53C275.63,-464.08 281.07,-467.05 286,-470.5 307.84,-485.8 299.57,-504.08 322,-518.5 328.08,-522.41 334.84,-525.52 341.83,-528"/>
<polygon fill="#63b8ff" stroke="#63b8ff" points="340.87,-531.37 351.46,-531 342.96,-524.69 340.87,-531.37"/>
</a>
</g>
</g>
<!-- Node20 -->
<g id="Node000020" class="node">
<title>Node20</title>
<g id="a_Node000020"><a xlink:href="m__variables__conversion_8fpp_8f90.html#ad0657ad9f2f6277b10693e899ff84b68" target="_top" xlink:title=" ">
<polygon fill="white" stroke="#666666" points="476,-509.5 344,-509.5 344,-479.5 476,-479.5 476,-509.5"/>
<text text-anchor="start" x="352" y="-497.5" font-family="Helvetica,sans-Serif" font-size="10.00">s_convert_species_to</text>
<text text-anchor="middle" x="410" y="-486.5" font-family="Helvetica,sans-Serif" font-size="10.00">_mixture_variables_acc</text>
</a>
</g>
</g>
<!-- Node17&#45;&gt;Node20 -->
<g id="edge30_Node000017_Node000020" class="edge">
<title>Node17&#45;&gt;Node20</title>
<g id="a_edge30_Node000017_Node000020"><a xlink:title=" ">
<path fill="none" stroke="#63b8ff" d="M270.36,-461.56C291.23,-466.51 314.6,-472.07 336.12,-477.18"/>
<polygon fill="#63b8ff" stroke="#63b8ff" points="335.33,-480.59 345.86,-479.5 336.95,-473.78 335.33,-480.59"/>
</a>
</g>
</g>
<!-- Node21 -->
<g id="Node000021" class="node">
<title>Node21</title>
<g id="a_Node000021"><a xlink:href="m__variables__conversion_8fpp_8f90.html#a18920a8493fb62dd7bba5eefab778b31" target="_top" xlink:title=" ">
<polygon fill="white" stroke="#666666" points="498,-461.5 322,-461.5 322,-431.5 498,-431.5 498,-461.5"/>
<text text-anchor="start" x="330" y="-449.5" font-family="Helvetica,sans-Serif" font-size="10.00">s_convert_species_to</text>
<text text-anchor="middle" x="410" y="-438.5" font-family="Helvetica,sans-Serif" font-size="10.00">_mixture_variables_bubbles_acc</text>
</a>
</g>
</g>
<!-- Node17&#45;&gt;Node21 -->
<g id="edge31_Node000017_Node000021" class="edge">
<title>Node17&#45;&gt;Node21</title>
<g id="a_edge31_Node000017_Node000021"><a xlink:title=" ">
<path fill="none" stroke="#63b8ff" d="M272.03,-446.5C284.71,-446.5 298.26,-446.5 311.73,-446.5"/>
<polygon fill="#63b8ff" stroke="#63b8ff" points="311.99,-450 321.99,-446.5 311.99,-443 311.99,-450"/>
</a>
</g>
</g>
<!-- Node23 -->
<g id="Node000023" class="node">
<title>Node23</title>
<g id="a_Node000023"><a xlink:href="m__viscous_8fpp_8f90.html#aade42711c6dfbbd3bd3b47358ac2bd91" target="_top" xlink:title="The purpose of this subroutine is to employ the inputted left and right cell&#45;boundary integral&#45;averag...">
<polygon fill="white" stroke="#666666" points="484,-413.5 336,-413.5 336,-383.5 484,-383.5 484,-413.5"/>
<text text-anchor="start" x="344" y="-401.5" font-family="Helvetica,sans-Serif" font-size="10.00">s_apply_scalar_divergence</text>
<text text-anchor="middle" x="410" y="-390.5" font-family="Helvetica,sans-Serif" font-size="10.00">_theorem</text>
</a>
</g>
</g>
<!-- Node22&#45;&gt;Node23 -->
<g id="edge33_Node000022_Node000023" class="edge">
<title>Node22&#45;&gt;Node23</title>
<g id="a_edge33_Node000022_Node000023"><a xlink:title=" ">
<path fill="none" stroke="#63b8ff" d="M248.85,-381.06C271.09,-383.48 299.23,-386.55 325.7,-389.43"/>
<polygon fill="#63b8ff" stroke="#63b8ff" points="325.43,-392.92 335.75,-390.52 326.18,-385.96 325.43,-392.92"/>
</a>
</g>
</g>
<!-- Node24 -->
<g id="Node000024" class="node">
<title>Node24</title>
<g id="a_Node000024"><a xlink:href="m__viscous_8fpp_8f90.html#add30c5e0cfe85ee14359bb4e02c713c3" target="_top" xlink:title="Computes the scalar gradient fields via finite differences.">
<polygon fill="white" stroke="#666666" points="475.5,-365 344.5,-365 344.5,-346 475.5,-346 475.5,-365"/>
<text text-anchor="middle" x="410" y="-353" font-family="Helvetica,sans-Serif" font-size="10.00">s_compute_fd_gradient</text>
</a>
</g>
</g>
<!-- Node22&#45;&gt;Node24 -->
<g id="edge34_Node000022_Node000024" class="edge">
<title>Node22&#45;&gt;Node24</title>
<g id="a_edge34_Node000022_Node000024"><a xlink:title=" ">
<path fill="none" stroke="#63b8ff" d="M248.85,-372.15C273.46,-369.59 305.29,-366.28 334.08,-363.29"/>
<polygon fill="#63b8ff" stroke="#63b8ff" points="334.54,-366.76 344.13,-362.24 333.82,-359.8 334.54,-366.76"/>
</a>
</g>
</g>
<!-- Node25 -->
<g id="Node000025" class="node">
<title>Node25</title>
<g id="a_Node000025"><a xlink:href="m__viscous_8fpp_8f90.html#afb2cea3f273b947ff0fefe977e829244" target="_top" xlink:title=" ">
<polygon fill="white" stroke="#666666" points="475,-327.5 345,-327.5 345,-297.5 475,-297.5 475,-327.5"/>
<text text-anchor="start" x="353" y="-315.5" font-family="Helvetica,sans-Serif" font-size="10.00">s_reconstruct_cell</text>
<text text-anchor="middle" x="410" y="-304.5" font-family="Helvetica,sans-Serif" font-size="10.00">_boundary_values_visc</text>
</a>
</g>
</g>
<!-- Node22&#45;&gt;Node25 -->
<g id="edge35_Node000022_Node000025" class="edge">
<title>Node22&#45;&gt;Node25</title>
<g id="a_edge35_Node000022_Node000025"><a xlink:title=" ">
<path fill="none" stroke="#63b8ff" d="M233.84,-367C257.07,-358.87 291.62,-347.01 322,-337.5 329.49,-335.16 337.36,-332.78 345.19,-330.46"/>
<polygon fill="#63b8ff" stroke="#63b8ff" points="346.43,-333.75 355.05,-327.58 344.47,-327.03 346.43,-333.75"/>
</a>
</g>
</g>
<!-- Node26 -->
<g id="Node000026" class="node">
<title>Node26</title>
<g id="a_Node000026"><a xlink:href="m__weno_8fpp_8f90.html#a8495f5eb3dca2bbde1088b568cf13288" target="_top" xlink:title=" ">
<polygon fill="white" stroke="#666666" points="596,-279 543,-279 543,-260 596,-260 596,-279"/>
<text text-anchor="middle" x="569.5" y="-267" font-family="Helvetica,sans-Serif" font-size="10.00">s_weno</text>
</a>
</g>
</g>
<!-- Node25&#45;&gt;Node26 -->
<g id="edge36_Node000025_Node000026" class="edge">
<title>Node25&#45;&gt;Node26</title>
<g id="a_edge36_Node000025_Node000026"><a xlink:title=" ">
<path fill="none" stroke="#63b8ff" d="M466.09,-297.46C488.29,-291.4 513.27,-284.58 533,-279.19"/>
<polygon fill="#63b8ff" stroke="#63b8ff" points="534.07,-282.53 542.79,-276.52 532.23,-275.78 534.07,-282.53"/>
</a>
</g>
</g>
<!-- Node27 -->
<g id="Node000027" class="node">
<title>Node27</title>
<g id="a_Node000027"><a xlink:href="m__weno_8fpp_8f90.html#abc4801fbf3acfd4db40d1ad294aa3e46" target="_top" xlink:title="The computation of parameters, the allocation of memory, the association of pointers and/or the execu...">
<polygon fill="white" stroke="#666666" points="761.5,-297 660.5,-297 660.5,-278 761.5,-278 761.5,-297"/>
<text text-anchor="middle" x="711" y="-285" font-family="Helvetica,sans-Serif" font-size="10.00">s_initialize_weno</text>
</a>
</g>
</g>
<!-- Node26&#45;&gt;Node27 -->
<g id="edge37_Node000026_Node000027" class="edge">
<title>Node26&#45;&gt;Node27</title>
<g id="a_edge37_Node000026_Node000027"><a xlink:title=" ">
<path fill="none" stroke="#63b8ff" d="M596.09,-272.8C611.29,-274.76 631.24,-277.34 650.2,-279.78"/>
<polygon fill="#63b8ff" stroke="#63b8ff" points="649.92,-283.28 660.29,-281.09 650.82,-276.33 649.92,-283.28"/>
</a>
</g>
</g>
<!-- Node28 -->
<g id="Node000028" class="node">
<title>Node28</title>
<g id="a_Node000028"><a xlink:href="m__weno_8fpp_8f90.html#ac6752752f34719dae452d0fe42e21682" target="_top" xlink:title="The goal of this subroutine is to ensure that the WENO reconstruction is monotonic....">
<polygon fill="white" stroke="#666666" points="781,-260 641,-260 641,-241 781,-241 781,-260"/>
<text text-anchor="middle" x="711" y="-248" font-family="Helvetica,sans-Serif" font-size="10.00">s_preserve_monotonicity</text>
</a>
</g>
</g>
<!-- Node26&#45;&gt;Node28 -->
<g id="edge38_Node000026_Node000028" class="edge">
<title>Node26&#45;&gt;Node28</title>
<g id="a_edge38_Node000026_Node000028"><a xlink:title=" ">
<path fill="none" stroke="#63b8ff" d="M596.09,-266.02C606.14,-264.65 618.28,-262.99 630.82,-261.28"/>
<polygon fill="#63b8ff" stroke="#63b8ff" points="631.51,-264.72 640.95,-259.91 630.57,-257.79 631.51,-264.72"/>
</a>
</g>
</g>
<!-- Node30 -->
<g id="Node000030" class="node">
<title>Node30</title>
<g id="a_Node000030"><a xlink:href="m__qbmm_8fpp_8f90.html#a74e7ce86214df481371f693002986023" target="_top" xlink:title=" ">
<polygon fill="white" stroke="#666666" points="435,-185 385,-185 385,-166 435,-166 435,-185"/>
<text text-anchor="middle" x="410" y="-173" font-family="Helvetica,sans-Serif" font-size="10.00">f_quad</text>
</a>
</g>
</g>
<!-- Node29&#45;&gt;Node30 -->
<g id="edge40_Node000029_Node000030" class="edge">
<title>Node29&#45;&gt;Node30</title>
<g id="a_edge40_Node000029_Node000030"><a xlink:title=" ">
<path fill="none" stroke="#63b8ff" d="M223.61,-112.03C245.5,-124.21 285.51,-145.2 322,-157.5 339.03,-163.24 358.57,-167.48 374.82,-170.4"/>
<polygon fill="#63b8ff" stroke="#63b8ff" points="374.51,-173.9 384.96,-172.13 375.69,-167 374.51,-173.9"/>
</a>
</g>
</g>
<!-- Node31 -->
<g id="Node000031" class="node">
<title>Node31</title>
<g id="a_Node000031"><a xlink:href="m__qbmm_8fpp_8f90.html#add8fc901ab3865292669cbb997aaf2b2" target="_top" xlink:title=" ">
<polygon fill="white" stroke="#666666" points="441,-130 379,-130 379,-111 441,-111 441,-130"/>
<text text-anchor="middle" x="410" y="-118" font-family="Helvetica,sans-Serif" font-size="10.00">f_quad2d</text>
</a>
</g>
</g>
<!-- Node29&#45;&gt;Node31 -->
<g id="edge42_Node000029_Node000031" class="edge">
<title>Node29&#45;&gt;Node31</title>
<g id="a_edge42_Node000029_Node000031"><a xlink:title=" ">
<path fill="none" stroke="#63b8ff" d="M242.65,-105.68C277.9,-108.82 331.78,-113.62 368.6,-116.9"/>
<polygon fill="#63b8ff" stroke="#63b8ff" points="368.7,-120.42 378.97,-117.82 369.32,-113.45 368.7,-120.42"/>
</a>
</g>
</g>
<!-- Node32 -->
<g id="Node000032" class="node">
<title>Node32</title>
<g id="a_Node000032"><a xlink:href="m__qbmm_8fpp_8f90.html#a57a24e4f3d6a9db5b1aaa3100b7ef46d" target="_top" xlink:title=" ">
<polygon fill="white" stroke="#666666" points="448,-93 372,-93 372,-74 448,-74 448,-93"/>
<text text-anchor="middle" x="410" y="-81" font-family="Helvetica,sans-Serif" font-size="10.00">s_chyqmom</text>
</a>
</g>
</g>
<!-- Node29&#45;&gt;Node32 -->
<g id="edge44_Node000029_Node000032" class="edge">
<title>Node29&#45;&gt;Node32</title>
<g id="a_edge44_Node000029_Node000032"><a xlink:title=" ">
<path fill="none" stroke="#63b8ff" d="M242.65,-99.15C275.64,-96.04 324.92,-91.41 361.29,-87.99"/>
<polygon fill="#63b8ff" stroke="#63b8ff" points="362.03,-91.43 371.66,-87.01 361.37,-84.46 362.03,-91.43"/>
</a>
</g>
</g>
<!-- Node34 -->
<g id="Node000034" class="node">
<title>Node34</title>
<g id="a_Node000034"><a xlink:href="m__qbmm_8fpp_8f90.html#a5e8f8b30325d688111d1ec1cd8c9680d" target="_top" xlink:title=" ">
<polygon fill="white" stroke="#666666" points="435.5,-56 384.5,-56 384.5,-37 435.5,-37 435.5,-56"/>
<text text-anchor="middle" x="410" y="-44" font-family="Helvetica,sans-Serif" font-size="10.00">s_coeff</text>
</a>
</g>
</g>
<!-- Node29&#45;&gt;Node34 -->
<g id="edge46_Node000029_Node000034" class="edge">
<title>Node29&#45;&gt;Node34</title>
<g id="a_edge46_Node000029_Node000034"><a xlink:title=" ">
<path fill="none" stroke="#63b8ff" d="M234.2,-92.93C257.36,-84.98 291.62,-73.68 322,-65.5 339.14,-60.88 358.41,-56.58 374.45,-53.25"/>
<polygon fill="#63b8ff" stroke="#63b8ff" points="375.38,-56.63 384.47,-51.2 373.97,-49.77 375.38,-56.63"/>
</a>
</g>
</g>
<!-- Node35 -->
<g id="Node000035" class="node">
<title>Node35</title>
<g id="a_Node000035"><a xlink:href="m__qbmm_8fpp_8f90.html#aab31fde8338242a0eac719456000030d" target="_top" xlink:title=" ">
<polygon fill="white" stroke="#666666" points="457.5,-19 362.5,-19 362.5,0 457.5,0 457.5,-19"/>
<text text-anchor="middle" x="410" y="-7" font-family="Helvetica,sans-Serif" font-size="10.00">s_coeff_nonpoly</text>
</a>
</g>
</g>
<!-- Node29&#45;&gt;Node35 -->
<g id="edge47_Node000029_Node000035" class="edge">
<title>Node29&#45;&gt;Node35</title>
<g id="a_edge47_Node000029_Node000035"><a xlink:title=" ">
<path fill="none" stroke="#63b8ff" d="M218.62,-92.98C238.53,-77.16 280.99,-45.52 322,-28.5 331.63,-24.5 342.23,-21.29 352.61,-18.73"/>
<polygon fill="#63b8ff" stroke="#63b8ff" points="353.49,-22.12 362.46,-16.47 351.93,-15.3 353.49,-22.12"/>
</a>
</g>
</g>
<!-- Node30&#45;&gt;Node30 -->
<g id="edge41_Node000030_Node000030" class="edge">
<title>Node30&#45;&gt;Node30</title>
<g id="a_edge41_Node000030_Node000030"><a xlink:title=" ">
<path fill="none" stroke="#63b8ff" d="M385.65,-185.08C373.8,-193.73 381.92,-203 410,-203 428.43,-203 438.26,-199.01 439.49,-193.82"/>
<polygon fill="#63b8ff" stroke="#63b8ff" points="442.44,-191.93 434.35,-185.08 436.41,-195.48 442.44,-191.93"/>
</a>
</g>
</g>
<!-- Node31&#45;&gt;Node31 -->
<g id="edge43_Node000031_Node000031" class="edge">
<title>Node31&#45;&gt;Node31</title>
<g id="a_edge43_Node000031_Node000031"><a xlink:title=" ">
<path fill="none" stroke="#63b8ff" d="M385.65,-130.08C373.8,-138.73 381.92,-148 410,-148 428.43,-148 438.26,-144.01 439.49,-138.82"/>
<polygon fill="#63b8ff" stroke="#63b8ff" points="442.44,-136.93 434.35,-130.08 436.41,-140.48 442.44,-136.93"/>
</a>
</g>
</g>
<!-- Node33 -->
<g id="Node000033" class="node">
<title>Node33</title>
<g id="a_Node000033"><a xlink:href="m__qbmm_8fpp_8f90.html#a9f04f02028dbe154a03418ecca95fc97" target="_top" xlink:title=" ">
<polygon fill="white" stroke="#666666" points="605,-93 534,-93 534,-74 605,-74 605,-93"/>
<text text-anchor="middle" x="569.5" y="-81" font-family="Helvetica,sans-Serif" font-size="10.00">s_hyqmom</text>
</a>
</g>
</g>
<!-- Node32&#45;&gt;Node33 -->
<g id="edge45_Node000032_Node000033" class="edge">
<title>Node32&#45;&gt;Node33</title>
<g id="a_edge45_Node000032_Node000033"><a xlink:title=" ">
<path fill="none" stroke="#63b8ff" d="M448.33,-83.5C470.91,-83.5 499.85,-83.5 523.67,-83.5"/>
<polygon fill="#63b8ff" stroke="#63b8ff" points="523.87,-87 533.87,-83.5 523.87,-80 523.87,-87"/>
</a>
</g>
</g>
<!-- Node36&#45;&gt;Node26 -->
<g id="edge49_Node000036_Node000026" class="edge">
<title>Node36&#45;&gt;Node26</title>
<g id="a_edge49_Node000036_Node000026"><a xlink:title=" ">
<path fill="none" stroke="#63b8ff" d="M258.74,-296.16C278.51,-293.51 301.27,-290.65 322,-288.5 396.82,-280.74 484.72,-274.7 532.72,-271.66"/>
<polygon fill="#63b8ff" stroke="#63b8ff" points="533.15,-275.14 542.91,-271.03 532.71,-268.16 533.15,-275.14"/>
</a>
</g>
</g>
<!-- Node37&#45;&gt;Node26 -->
<g id="edge51_Node000037_Node000026" class="edge">
<title>Node37&#45;&gt;Node26</title>
<g id="a_edge51_Node000037_Node000026"><a xlink:title=" ">
<path fill="none" stroke="#63b8ff" d="M286.01,-240.83C344.69,-242.55 426.59,-246.49 498,-255.5 509.47,-256.95 521.87,-259.18 533.03,-261.44"/>
<polygon fill="#63b8ff" stroke="#63b8ff" points="532.35,-264.88 542.86,-263.5 533.79,-258.02 532.35,-264.88"/>
</a>
</g>
</g>
</g>
</svg>

<g id="navigator" transform="translate(0 0)" fill="#404254">
  <rect fill="#f2f5e9" fill-opacity="0.5" stroke="#606060" stroke-width=".5" x="0" y="0" width="60" height="60"/>
  <use id="zoomplus" xlink:href="#zoomPlus" x="17" y="9" onmousedown="handleZoom(evt,'in')"/>
  <use id="zoomminus" xlink:href="#zoomMin" x="42" y="9" onmousedown="handleZoom(evt,'out')"/>
  <use id="reset" xlink:href="#resetDef" x="30" y="36" onmousedown="handleReset()"/>
   <use id="arrowup" xlink:href="#arrowUp" x="0" y="0" onmousedown="handlePan(0,-1)"/>
  <use id="arrowright" xlink:href="#arrowRight" x="0" y="0" onmousedown="handlePan(1,0)"/>
  <use id="arrowdown" xlink:href="#arrowDown" x="0" y="0" onmousedown="handlePan(0,1)"/>
  <use id="arrowleft" xlink:href="#arrowLeft" x="0" y="0" onmousedown="handlePan(-1,0)"/>
</g>
<svg viewBox="0 0 15 15" width="100%" height="30px" preserveAspectRatio="xMaxYMin meet">
 <g id="arrow_out" transform="scale(0.3 0.3)">
  <a xlink:href="m__rhs_8fpp_8f90_a8522bdf311a42fe6ff7f2b433656573f_cgraph_org.svg" target="_base">
   <rect id="button" ry="5" rx="5" y="6" x="6" height="38" width="38"
        fill="#f2f5e9" fill-opacity="0.5" stroke="#606060" stroke-width="1.0"/>
   <path id="arrow"
     d="M 11.500037,31.436501 C 11.940474,20.09759 22.043105,11.32322 32.158766,21.979434 L 37.068811,17.246167 C 37.068811,17.246167 37.088388,32 37.088388,32 L 22.160133,31.978069 C 22.160133,31.978069 26.997745,27.140456 26.997745,27.140456 C 18.528582,18.264221 13.291696,25.230495 11.500037,31.436501 z"
     style="fill:#404040;"/>
  </a>
 </g>
</svg>

<style type='text/css'>
<![CDATA[
[data-mouse-over-selected='false'] { opacity: 0.7; }
[data-mouse-over-selected='true']  { opacity: 1.0; }
]]>
</style>
<script type="application/ecmascript"><![CDATA[
document.addEventListener('DOMContentLoaded', (event) => {
  highlightEdges();
  highlightAdjacentNodes();
});
]]></script>
</svg>
