<?xml version="1.0" encoding="UTF-8" standalone="no"?>
<!DOCTYPE svg PUBLIC "-//W3C//DTD SVG 1.1//EN"
 "http://www.w3.org/Graphics/SVG/1.1/DTD/svg11.dtd">
<!-- Generated by graphviz version 2.43.0 (0)
 -->
<!-- Title: s_initialize_rhs_module Pages: 1 -->
<svg width="506pt" height="318pt"
 viewBox="0.00 0.00 506.00 317.50" xmlns="http://www.w3.org/2000/svg" xmlns:xlink="http://www.w3.org/1999/xlink">
<g id="graph0" class="graph" transform="scale(1 1) rotate(0) translate(4 313.5)">
<title>s_initialize_rhs_module</title>
<!-- Node1 -->
<g id="Node000001" class="node">
<title>Node1</title>
<g id="a_Node000001"><a xlink:title="The computation of parameters, the allocation of memory, the association of pointers and/or the execu...">
<polygon fill="#999999" stroke="#666666" points="131,-208 0,-208 0,-189 131,-189 131,-208"/>
<text text-anchor="middle" x="65.5" y="-196" font-family="Helvetica,sans-Serif" font-size="10.00">s_initialize_rhs_module</text>
</a>
</g>
</g>
<!-- Node2 -->
<g id="Node000002" class="node">
<title>Node2</title>
<g id="a_Node000002"><a xlink:href="m__variables__conversion_8fpp_8f90.html#adec0ccf2a3298d2b375a9405a0fa7c1a" target="_top" xlink:title="This subroutine is designed for the gamma/pi_inf model and provided a set of either conservative or p...">
<polygon fill="white" stroke="#666666" points="305,-309.5 183,-309.5 183,-279.5 305,-279.5 305,-309.5"/>
<text text-anchor="start" x="191" y="-297.5" font-family="Helvetica,sans-Serif" font-size="10.00">s_convert_mixture_to</text>
<text text-anchor="middle" x="244" y="-286.5" font-family="Helvetica,sans-Serif" font-size="10.00">_mixture_variables</text>
</a>
</g>
</g>
<!-- Node1&#45;&gt;Node2 -->
<g id="edge1_Node000001_Node000002" class="edge">
<title>Node1&#45;&gt;Node2</title>
<g id="a_edge1_Node000001_Node000002"><a xlink:title=" ">
<path fill="none" stroke="#63b8ff" d="M77.5,-208.19C95.21,-223.37 131.68,-252.83 167,-270.5 170.76,-272.38 174.7,-274.15 178.72,-275.81"/>
<polygon fill="#63b8ff" stroke="#63b8ff" points="177.61,-279.14 188.2,-279.5 180.14,-272.61 177.61,-279.14"/>
</a>
</g>
</g>
<!-- Node3 -->
<g id="Node000003" class="node">
<title>Node3</title>
<g id="a_Node000003"><a xlink:href="m__variables__conversion_8fpp_8f90.html#ac9e3787fd3c00962752030f2c218c3fc" target="_top" xlink:title="This subroutine is designed for the volume fraction model and provided a set of either conservative o...">
<polygon fill="white" stroke="#666666" points="304.5,-261.5 183.5,-261.5 183.5,-231.5 304.5,-231.5 304.5,-261.5"/>
<text text-anchor="start" x="191.5" y="-249.5" font-family="Helvetica,sans-Serif" font-size="10.00">s_convert_species_to</text>
<text text-anchor="middle" x="244" y="-238.5" font-family="Helvetica,sans-Serif" font-size="10.00">_mixture_variables</text>
</a>
</g>
</g>
<!-- Node1&#45;&gt;Node3 -->
<g id="edge2_Node000001_Node000003" class="edge">
<title>Node1&#45;&gt;Node3</title>
<g id="a_edge2_Node000001_Node000003"><a xlink:title=" ">
<path fill="none" stroke="#63b8ff" d="M101.79,-208.1C123.56,-214.02 152.14,-221.79 177.9,-228.8"/>
<polygon fill="#63b8ff" stroke="#63b8ff" points="177.04,-232.19 187.61,-231.44 178.88,-225.44 177.04,-232.19"/>
</a>
</g>
</g>
<!-- Node4 -->
<g id="Node000004" class="node">
<title>Node4</title>
<g id="a_Node000004"><a xlink:href="m__variables__conversion_8fpp_8f90.html#a975c2bf46f73cd704b4503e833f5ec3c" target="_top" xlink:title="This procedure is used alongside with the gamma/pi_inf model to transfer the density,...">
<polygon fill="white" stroke="#666666" points="321,-213.5 167,-213.5 167,-183.5 321,-183.5 321,-213.5"/>
<text text-anchor="start" x="175" y="-201.5" font-family="Helvetica,sans-Serif" font-size="10.00">s_convert_species_to</text>
<text text-anchor="middle" x="244" y="-190.5" font-family="Helvetica,sans-Serif" font-size="10.00">_mixture_variables_bubbles</text>
</a>
</g>
</g>
<!-- Node1&#45;&gt;Node4 -->
<g id="edge3_Node000001_Node000004" class="edge">
<title>Node1&#45;&gt;Node4</title>
<g id="a_edge3_Node000001_Node000004"><a xlink:title=" ">
<path fill="none" stroke="#63b8ff" d="M131.22,-198.5C139.56,-198.5 148.21,-198.5 156.83,-198.5"/>
<polygon fill="#63b8ff" stroke="#63b8ff" points="156.92,-202 166.92,-198.5 156.92,-195 156.92,-202"/>
</a>
</g>
</g>
<!-- Node5 -->
<g id="Node000005" class="node">
<title>Node5</title>
<g id="a_Node000005"><a xlink:href="m__riemann__solvers_8fpp_8f90.html#a7201ee610e9eb4d4777e257035d04705" target="_top" xlink:title=" ">
<polygon fill="white" stroke="#666666" points="304,-165 184,-165 184,-146 304,-146 304,-165"/>
<text text-anchor="middle" x="244" y="-153" font-family="Helvetica,sans-Serif" font-size="10.00">s_hll_riemann_solver</text>
</a>
</g>
</g>
<!-- Node1&#45;&gt;Node5 -->
<g id="edge4_Node000001_Node000005" class="edge">
<title>Node1&#45;&gt;Node5</title>
<g id="a_edge4_Node000001_Node000005"><a xlink:title=" ">
<path fill="none" stroke="#63b8ff" d="M105.67,-188.96C131.72,-182.61 166.14,-174.23 194,-167.44"/>
<polygon fill="#63b8ff" stroke="#63b8ff" points="195.05,-170.78 203.94,-165.02 193.39,-163.98 195.05,-170.78"/>
</a>
</g>
</g>
<!-- Node10 -->
<g id="Node000010" class="node">
<title>Node10</title>
<g id="a_Node000010"><a xlink:href="m__riemann__solvers_8fpp_8f90.html#a93cfb6ebfb98fccd81cd589ce122b7fd" target="_top" xlink:title="This procedure is the implementation of the Harten, Lax, van Leer, and contact (HLLC) approximate Rie...">
<polygon fill="white" stroke="#666666" points="306.5,-128 181.5,-128 181.5,-109 306.5,-109 306.5,-128"/>
<text text-anchor="middle" x="244" y="-116" font-family="Helvetica,sans-Serif" font-size="10.00">s_hllc_riemann_solver</text>
</a>
</g>
</g>
<!-- Node1&#45;&gt;Node10 -->
<g id="edge9_Node000001_Node000010" class="edge">
<title>Node1&#45;&gt;Node10</title>
<g id="a_edge9_Node000001_Node000010"><a xlink:title=" ">
<path fill="none" stroke="#63b8ff" d="M79.47,-188.86C97.98,-175.52 133.47,-151.49 167,-137.5 172.85,-135.06 179.09,-132.88 185.38,-130.94"/>
<polygon fill="#63b8ff" stroke="#63b8ff" points="186.61,-134.23 195.26,-128.1 184.68,-127.5 186.61,-134.23"/>
</a>
</g>
</g>
<!-- Node6 -->
<g id="Node000006" class="node">
<title>Node6</title>
<g id="a_Node000006"><a xlink:href="m__cbc_8fpp_8f90.html#a29014c6ce75edc1b102b057644ebd9ee" target="_top" xlink:title=" ">
<polygon fill="white" stroke="#666666" points="487,-181.5 368,-181.5 368,-151.5 487,-151.5 487,-181.5"/>
<text text-anchor="start" x="376" y="-169.5" font-family="Helvetica,sans-Serif" font-size="10.00">s_compute_speed_of</text>
<text text-anchor="middle" x="427.5" y="-158.5" font-family="Helvetica,sans-Serif" font-size="10.00">_sound</text>
</a>
</g>
</g>
<!-- Node5&#45;&gt;Node6 -->
<g id="edge5_Node000005_Node000006" class="edge">
<title>Node5&#45;&gt;Node6</title>
<g id="a_edge5_Node000005_Node000006"><a xlink:title=" ">
<path fill="none" stroke="#63b8ff" d="M304.18,-159.09C321.21,-160.12 339.95,-161.25 357.52,-162.32"/>
<polygon fill="#63b8ff" stroke="#63b8ff" points="357.52,-165.83 367.71,-162.94 357.94,-158.84 357.52,-165.83"/>
</a>
</g>
</g>
<!-- Node7 -->
<g id="Node000007" class="node">
<title>Node7</title>
<g id="a_Node000007"><a xlink:href="m__riemann__solvers_8fpp_8f90.html#a8ac28f70381f12ad4d2ba1f71d68dc15" target="_top" xlink:title="Deallocation and/or disassociation procedures that are needed to finalize the selected Riemann proble...">
<polygon fill="white" stroke="#666666" points="481.5,-133.5 373.5,-133.5 373.5,-103.5 481.5,-103.5 481.5,-133.5"/>
<text text-anchor="start" x="381.5" y="-121.5" font-family="Helvetica,sans-Serif" font-size="10.00">s_finalize_riemann</text>
<text text-anchor="middle" x="427.5" y="-110.5" font-family="Helvetica,sans-Serif" font-size="10.00">_solver</text>
</a>
</g>
</g>
<!-- Node5&#45;&gt;Node7 -->
<g id="edge6_Node000005_Node000007" class="edge">
<title>Node5&#45;&gt;Node7</title>
<g id="a_edge6_Node000005_Node000007"><a xlink:title=" ">
<path fill="none" stroke="#63b8ff" d="M291.74,-145.97C313.52,-141.53 339.77,-136.18 363.29,-131.39"/>
<polygon fill="#63b8ff" stroke="#63b8ff" points="364.08,-134.8 373.18,-129.37 362.68,-127.94 364.08,-134.8"/>
</a>
</g>
</g>
<!-- Node8 -->
<g id="Node000008" class="node">
<title>Node8</title>
<g id="a_Node000008"><a xlink:href="m__riemann__solvers_8fpp_8f90.html#ad70e635bb415e54ec06aa5bd629b2805" target="_top" xlink:title="The computation of parameters, the allocation of memory, the association of pointers and/or the execu...">
<polygon fill="white" stroke="#666666" points="485,-85.5 370,-85.5 370,-55.5 485,-55.5 485,-85.5"/>
<text text-anchor="start" x="378" y="-73.5" font-family="Helvetica,sans-Serif" font-size="10.00">s_initialize_riemann</text>
<text text-anchor="middle" x="427.5" y="-62.5" font-family="Helvetica,sans-Serif" font-size="10.00">_solver</text>
</a>
</g>
</g>
<!-- Node5&#45;&gt;Node8 -->
<g id="edge7_Node000005_Node000008" class="edge">
<title>Node5&#45;&gt;Node8</title>
<g id="a_edge7_Node000005_Node000008"><a xlink:title=" ">
<path fill="none" stroke="#63b8ff" d="M303.02,-145.93C309.33,-143.69 315.46,-140.92 321,-137.5 342.21,-124.41 336.47,-108.64 357,-94.5 359.24,-92.96 361.59,-91.51 364.01,-90.14"/>
<polygon fill="#63b8ff" stroke="#63b8ff" points="365.71,-93.2 373.05,-85.57 362.54,-86.96 365.71,-93.2"/>
</a>
</g>
</g>
<!-- Node9 -->
<g id="Node000009" class="node">
<title>Node9</title>
<g id="a_Node000009"><a xlink:href="m__riemann__solvers_8fpp_8f90.html#ab484a7fa9cc9aa9f9509d487819f7b82" target="_top" xlink:title="The purpose of this subroutine is to populate the buffers of the left and right Riemann states variab...">
<polygon fill="white" stroke="#666666" points="498,-229.5 357,-229.5 357,-199.5 498,-199.5 498,-229.5"/>
<text text-anchor="start" x="365" y="-217.5" font-family="Helvetica,sans-Serif" font-size="10.00">s_populate_riemann</text>
<text text-anchor="middle" x="427.5" y="-206.5" font-family="Helvetica,sans-Serif" font-size="10.00">_states_variables_buffers</text>
</a>
</g>
</g>
<!-- Node5&#45;&gt;Node9 -->
<g id="edge8_Node000005_Node000009" class="edge">
<title>Node5&#45;&gt;Node9</title>
<g id="a_edge8_Node000005_Node000009"><a xlink:title=" ">
<path fill="none" stroke="#63b8ff" d="M288.79,-165.07C299.43,-167.77 310.71,-170.96 321,-174.5 337.56,-180.2 340.71,-184.08 357,-190.5 361.7,-192.35 366.62,-194.21 371.56,-196.02"/>
<polygon fill="#63b8ff" stroke="#63b8ff" points="370.46,-199.34 381.06,-199.44 372.83,-192.76 370.46,-199.34"/>
</a>
</g>
</g>
<!-- Node10&#45;&gt;Node6 -->
<g id="edge12_Node000010_Node000006" class="edge">
<title>Node10&#45;&gt;Node6</title>
<g id="a_edge12_Node000010_Node000006"><a xlink:title=" ">
<path fill="none" stroke="#63b8ff" d="M284.1,-128.09C295.97,-131.05 309.03,-134.36 321,-137.5 334.53,-141.05 349,-144.96 362.76,-148.72"/>
<polygon fill="#63b8ff" stroke="#63b8ff" points="362.05,-152.16 372.62,-151.43 363.91,-145.41 362.05,-152.16"/>
</a>
</g>
</g>
<!-- Node10&#45;&gt;Node7 -->
<g id="edge13_Node000010_Node000007" class="edge">
<title>Node10&#45;&gt;Node7</title>
<g id="a_edge13_Node000010_Node000007"><a xlink:title=" ">
<path fill="none" stroke="#63b8ff" d="M306.7,-118.5C325,-118.5 345.05,-118.5 363.43,-118.5"/>
<polygon fill="#63b8ff" stroke="#63b8ff" points="363.45,-122 373.45,-118.5 363.45,-115 363.45,-122"/>
</a>
</g>
</g>
<!-- Node10&#45;&gt;Node8 -->
<g id="edge14_Node000010_Node000008" class="edge">
<title>Node10&#45;&gt;Node8</title>
<g id="a_edge14_Node000010_Node000008"><a xlink:title=" ">
<path fill="none" stroke="#63b8ff" d="M281.29,-108.9C303.77,-102.96 333.31,-95.14 359.88,-88.12"/>
<polygon fill="#63b8ff" stroke="#63b8ff" points="361.12,-91.41 369.9,-85.47 359.33,-84.64 361.12,-91.41"/>
</a>
</g>
</g>
<!-- Node10&#45;&gt;Node9 -->
<g id="edge15_Node000010_Node000009" class="edge">
<title>Node10&#45;&gt;Node9</title>
<g id="a_edge15_Node000010_Node000009"><a xlink:title=" ">
<path fill="none" stroke="#63b8ff" d="M302.6,-128.05C309.13,-130.51 315.42,-133.61 321,-137.5 344.35,-153.8 334.39,-173.19 357,-190.5 358.81,-191.89 360.71,-193.2 362.67,-194.43"/>
<polygon fill="#63b8ff" stroke="#63b8ff" points="361.19,-197.61 371.63,-199.41 364.59,-191.49 361.19,-197.61"/>
</a>
</g>
</g>
<!-- Node11 -->
<g id="Node000011" class="node">
<title>Node11</title>
<g id="a_Node000011"><a xlink:href="m__bubbles_8fpp_8f90.html#ab5cad916879a4c85674fcadd46ac3acd" target="_top" xlink:title="Function that computes the bubble wall pressure for Keller–Miksis bubbles.">
<polygon fill="white" stroke="#666666" points="463.5,-19 391.5,-19 391.5,0 463.5,0 463.5,-19"/>
<text text-anchor="middle" x="427.5" y="-7" font-family="Helvetica,sans-Serif" font-size="10.00">f_cpbw_km</text>
</a>
</g>
</g>
<!-- Node10&#45;&gt;Node11 -->
<g id="edge10_Node000010_Node000011" class="edge">
<title>Node10&#45;&gt;Node11</title>
<g id="a_edge10_Node000010_Node000011"><a xlink:title=" ">
<path fill="none" stroke="#63b8ff" d="M259.26,-108.79C280.32,-94.59 321.11,-67.54 357,-46.5 370.34,-38.68 385.47,-30.54 398.2,-23.9"/>
<polygon fill="#63b8ff" stroke="#63b8ff" points="400.12,-26.84 407.39,-19.14 396.9,-20.63 400.12,-26.84"/>
</a>
</g>
</g>
<!-- Node11&#45;&gt;Node11 -->
<g id="edge11_Node000011_Node000011" class="edge">
<title>Node11&#45;&gt;Node11</title>
<g id="a_edge11_Node000011_Node000011"><a xlink:title=" ">
<path fill="none" stroke="#63b8ff" d="M399.45,-19.08C385.8,-27.73 395.15,-37 427.5,-37 449.74,-37 461.11,-32.62 461.61,-27.07"/>
<polygon fill="#63b8ff" stroke="#63b8ff" points="464.38,-24.94 455.55,-19.08 458.8,-29.17 464.38,-24.94"/>
</a>
</g>
</g>
</g>
</svg>
