<?xml version="1.0" encoding="UTF-8" standalone="no"?>
<!DOCTYPE svg PUBLIC "-//W3C//DTD SVG 1.1//EN"
 "http://www.w3.org/Graphics/SVG/1.1/DTD/svg11.dtd">
<!-- Generated by graphviz version 2.43.0 (0)
 -->
<!-- Title: __m_riemann_solvers_fpp_f90__ Pages: 1 -->
<svg width="988pt" height="410pt"
 viewBox="0.00 0.00 988.00 410.00" xmlns="http://www.w3.org/2000/svg" xmlns:xlink="http://www.w3.org/1999/xlink">
<g id="graph0" class="graph" transform="scale(1 1) rotate(0) translate(4 406)">
<title>__m_riemann_solvers_fpp_f90__</title>
<!-- Node1 -->
<g id="Node000001" class="node">
<title>Node1</title>
<g id="a_Node000001"><a xlink:title="This module features a database of approximate and exact Riemann problem solvers for the Navier&#45;Stoke...">
<polygon fill="#999999" stroke="#666666" points="123,-254 0,-254 0,-224 123,-224 123,-254"/>
<text text-anchor="start" x="8" y="-242" font-family="Helvetica,sans-Serif" font-size="10.00">__m_riemann_solvers</text>
<text text-anchor="middle" x="61.5" y="-231" font-family="Helvetica,sans-Serif" font-size="10.00">_fpp_f90__</text>
</a>
</g>
</g>
<!-- Node2 -->
<g id="Node000002" class="node">
<title>Node2</title>
<g id="a_Node000002"><a xlink:href="m__riemann__solvers_8fpp_8f90.html#a620f5b4404c945de20f72a9f7b29725b" target="_top" xlink:title="Module deallocation and/or disassociation procedures.">
<polygon fill="white" stroke="#666666" points="270.5,-354 162.5,-354 162.5,-324 270.5,-324 270.5,-354"/>
<text text-anchor="start" x="170.5" y="-342" font-family="Helvetica,sans-Serif" font-size="10.00">s_finalize_riemann</text>
<text text-anchor="middle" x="216.5" y="-331" font-family="Helvetica,sans-Serif" font-size="10.00">_solvers_module</text>
</a>
</g>
</g>
<!-- Node1&#45;&gt;Node2 -->
<g id="edge1_Node000001_Node000002" class="edge">
<title>Node1&#45;&gt;Node2</title>
<g id="a_edge1_Node000001_Node000002"><a xlink:title=" ">
<path fill="none" stroke="#63b8ff" d="M81.1,-254.08C100.08,-269.13 130.7,-292.48 159,-310 164.04,-313.12 169.47,-316.21 174.88,-319.15"/>
<polygon fill="#63b8ff" stroke="#63b8ff" points="173.44,-322.35 183.92,-323.92 176.71,-316.16 173.44,-322.35"/>
</a>
</g>
</g>
<!-- Node3 -->
<g id="Node000003" class="node">
<title>Node3</title>
<g id="a_Node000003"><a xlink:href="m__riemann__solvers_8fpp_8f90.html#a7201ee610e9eb4d4777e257035d04705" target="_top" xlink:title=" ">
<polygon fill="white" stroke="#666666" points="433,-257.5 313,-257.5 313,-238.5 433,-238.5 433,-257.5"/>
<text text-anchor="middle" x="373" y="-245.5" font-family="Helvetica,sans-Serif" font-size="10.00">s_hll_riemann_solver</text>
</a>
</g>
</g>
<!-- Node1&#45;&gt;Node3 -->
<g id="edge2_Node000001_Node000003" class="edge">
<title>Node1&#45;&gt;Node3</title>
<g id="a_edge2_Node000001_Node000003"><a xlink:title=" ">
<path fill="none" stroke="#63b8ff" d="M123.16,-237.53C165.46,-236.86 223.2,-236.67 274,-239 283.37,-239.43 293.24,-240.09 302.95,-240.86"/>
<polygon fill="#63b8ff" stroke="#63b8ff" points="302.73,-244.35 312.98,-241.7 303.31,-237.38 302.73,-244.35"/>
</a>
</g>
</g>
<!-- Node15 -->
<g id="Node000015" class="node">
<title>Node15</title>
<g id="a_Node000015"><a xlink:href="m__riemann__solvers_8fpp_8f90.html#a93cfb6ebfb98fccd81cd589ce122b7fd" target="_top" xlink:title="This procedure is the implementation of the Harten, Lax, van Leer, and contact (HLLC) approximate Rie...">
<polygon fill="white" stroke="#666666" points="435.5,-200.5 310.5,-200.5 310.5,-181.5 435.5,-181.5 435.5,-200.5"/>
<text text-anchor="middle" x="373" y="-188.5" font-family="Helvetica,sans-Serif" font-size="10.00">s_hllc_riemann_solver</text>
</a>
</g>
</g>
<!-- Node1&#45;&gt;Node15 -->
<g id="edge14_Node000001_Node000015" class="edge">
<title>Node1&#45;&gt;Node15</title>
<g id="a_edge14_Node000001_Node000015"><a xlink:title=" ">
<path fill="none" stroke="#63b8ff" d="M123.28,-229.57C174.13,-221.69 246.78,-210.42 300.44,-202.1"/>
<polygon fill="#63b8ff" stroke="#63b8ff" points="301.22,-205.52 310.57,-200.53 300.15,-198.6 301.22,-205.52"/>
</a>
</g>
</g>
<!-- Node20 -->
<g id="Node000020" class="node">
<title>Node20</title>
<g id="a_Node000020"><a xlink:href="m__riemann__solvers_8fpp_8f90.html#a38575cab36f643a51b9895b2fd18e4a0" target="_top" xlink:title="HLLD Riemann solver resolves 5 of the 7 waves of MHD equations: 1 entropy wave, 2 Alfvén waves,...">
<polygon fill="white" stroke="#666666" points="436,-300.5 310,-300.5 310,-281.5 436,-281.5 436,-300.5"/>
<text text-anchor="middle" x="373" y="-288.5" font-family="Helvetica,sans-Serif" font-size="10.00">s_hlld_riemann_solver</text>
</a>
</g>
</g>
<!-- Node1&#45;&gt;Node20 -->
<g id="edge26_Node000001_Node000020" class="edge">
<title>Node1&#45;&gt;Node20</title>
<g id="a_edge26_Node000001_Node000020"><a xlink:title=" ">
<path fill="none" stroke="#63b8ff" d="M94.81,-254.15C113.21,-262.07 136.93,-271.11 159,-276 205.14,-286.23 258.15,-289.99 299.74,-291.19"/>
<polygon fill="#63b8ff" stroke="#63b8ff" points="299.71,-294.69 309.79,-291.44 299.88,-287.69 299.71,-294.69"/>
</a>
</g>
</g>
<!-- Node21 -->
<g id="Node000021" class="node">
<title>Node21</title>
<g id="a_Node000021"><a xlink:href="m__riemann__solvers_8fpp_8f90.html#a05dd11f1e0ea237bc04a5dee836cca18" target="_top" xlink:title="The computation of parameters, the allocation of memory, the association of pointers and/or the execu...">
<polygon fill="white" stroke="#666666" points="274,-154 159,-154 159,-124 274,-124 274,-154"/>
<text text-anchor="start" x="167" y="-142" font-family="Helvetica,sans-Serif" font-size="10.00">s_initialize_riemann</text>
<text text-anchor="middle" x="216.5" y="-131" font-family="Helvetica,sans-Serif" font-size="10.00">_solvers_module</text>
</a>
</g>
</g>
<!-- Node1&#45;&gt;Node21 -->
<g id="edge32_Node000001_Node000021" class="edge">
<title>Node1&#45;&gt;Node21</title>
<g id="a_edge32_Node000001_Node000021"><a xlink:title=" ">
<path fill="none" stroke="#63b8ff" d="M81.1,-223.92C100.08,-208.87 130.7,-185.52 159,-168 164.04,-164.88 169.47,-161.79 174.88,-158.85"/>
<polygon fill="#63b8ff" stroke="#63b8ff" points="176.71,-161.84 183.92,-154.08 173.44,-155.65 176.71,-161.84"/>
</a>
</g>
</g>
<!-- Node22 -->
<g id="Node000022" class="node">
<title>Node22</title>
<g id="a_Node000022"><a xlink:href="m__riemann__solvers_8fpp_8f90.html#adf2f2ec005812bb3f0151dcab73a8a47" target="_top" xlink:title="Dispatch to the subroutines that are utilized to compute the Riemann problem solution....">
<polygon fill="white" stroke="#666666" points="268,-267.5 165,-267.5 165,-248.5 268,-248.5 268,-267.5"/>
<text text-anchor="middle" x="216.5" y="-255.5" font-family="Helvetica,sans-Serif" font-size="10.00">s_riemann_solver</text>
</a>
</g>
</g>
<!-- Node1&#45;&gt;Node22 -->
<g id="edge33_Node000001_Node000022" class="edge">
<title>Node1&#45;&gt;Node22</title>
<g id="a_edge33_Node000001_Node000022"><a xlink:title=" ">
<path fill="none" stroke="#63b8ff" d="M123.41,-246.56C133.66,-247.84 144.3,-249.16 154.55,-250.43"/>
<polygon fill="#63b8ff" stroke="#63b8ff" points="154.29,-253.93 164.64,-251.68 155.15,-246.98 154.29,-253.93"/>
</a>
</g>
</g>
<!-- Node4 -->
<g id="Node000004" class="node">
<title>Node4</title>
<g id="a_Node000004"><a xlink:href="m__variables__conversion_8fpp_8f90.html#af5fe21ccecd6ffb913ce62cdbbb7b0f0" target="_top" xlink:title=" ">
<polygon fill="white" stroke="#666666" points="642.5,-402 474.5,-402 474.5,-372 642.5,-372 642.5,-402"/>
<text text-anchor="start" x="482.5" y="-390" font-family="Helvetica,sans-Serif" font-size="10.00">s_compute_fast_magnetosonic</text>
<text text-anchor="middle" x="558.5" y="-379" font-family="Helvetica,sans-Serif" font-size="10.00">_speed</text>
</a>
</g>
</g>
<!-- Node3&#45;&gt;Node4 -->
<g id="edge3_Node000003_Node000004" class="edge">
<title>Node3&#45;&gt;Node4</title>
<g id="a_edge3_Node000003_Node000004"><a xlink:title=" ">
<path fill="none" stroke="#63b8ff" d="M413.3,-257.61C421.57,-261.07 429.69,-265.74 436,-272 466.87,-302.64 439.7,-333.87 472,-363 473.3,-364.17 474.65,-365.29 476.05,-366.35"/>
<polygon fill="#63b8ff" stroke="#63b8ff" points="474.21,-369.32 484.5,-371.85 478.03,-363.46 474.21,-369.32"/>
</a>
</g>
</g>
<!-- Node6 -->
<g id="Node000006" class="node">
<title>Node6</title>
<g id="a_Node000006"><a xlink:href="m__variables__conversion_8fpp_8f90.html#a51acc7500f24829b23b1280b91260929" target="_top" xlink:title=" ">
<polygon fill="white" stroke="#666666" points="618,-258 499,-258 499,-228 618,-228 618,-258"/>
<text text-anchor="start" x="507" y="-246" font-family="Helvetica,sans-Serif" font-size="10.00">s_compute_speed_of</text>
<text text-anchor="middle" x="558.5" y="-235" font-family="Helvetica,sans-Serif" font-size="10.00">_sound</text>
</a>
</g>
</g>
<!-- Node3&#45;&gt;Node6 -->
<g id="edge5_Node000003_Node000006" class="edge">
<title>Node3&#45;&gt;Node6</title>
<g id="a_edge5_Node000003_Node000006"><a xlink:title=" ">
<path fill="none" stroke="#63b8ff" d="M433.07,-246.39C450.84,-245.91 470.49,-245.37 488.82,-244.87"/>
<polygon fill="#63b8ff" stroke="#63b8ff" points="488.95,-248.37 498.85,-244.6 488.76,-241.37 488.95,-248.37"/>
</a>
</g>
</g>
<!-- Node7 -->
<g id="Node000007" class="node">
<title>Node7</title>
<g id="a_Node000007"><a xlink:href="m__riemann__solvers_8fpp_8f90.html#a64c7a8b13bc1cf31428c4e52ee247a00" target="_top" xlink:title="Dispatch to the subroutines that are utilized to compute the viscous source fluxes for either Cartesi...">
<polygon fill="white" stroke="#666666" points="645,-161.5 472,-161.5 472,-142.5 645,-142.5 645,-161.5"/>
<text text-anchor="middle" x="558.5" y="-149.5" font-family="Helvetica,sans-Serif" font-size="10.00">s_compute_viscous_source_flux</text>
</a>
</g>
</g>
<!-- Node3&#45;&gt;Node7 -->
<g id="edge6_Node000003_Node000007" class="edge">
<title>Node3&#45;&gt;Node7</title>
<g id="a_edge6_Node000003_Node000007"><a xlink:title=" ">
<path fill="none" stroke="#63b8ff" d="M391.63,-238.5C404.49,-231.2 422.04,-220.45 436,-209 453.99,-194.25 451.76,-182.47 472,-171 475.98,-168.75 480.2,-166.76 484.55,-165.01"/>
<polygon fill="#63b8ff" stroke="#63b8ff" points="486.02,-168.2 494.26,-161.54 483.66,-161.61 486.02,-168.2"/>
</a>
</g>
</g>
<!-- Node12 -->
<g id="Node000012" class="node">
<title>Node12</title>
<g id="a_Node000012"><a xlink:href="m__riemann__solvers_8fpp_8f90.html#aa88fb248825b436826b2835bcd8150b8" target="_top" xlink:title="Deallocation and/or disassociation procedures that are needed to finalize the selected Riemann proble...">
<polygon fill="white" stroke="#666666" points="612.5,-210 504.5,-210 504.5,-180 612.5,-180 612.5,-210"/>
<text text-anchor="start" x="512.5" y="-198" font-family="Helvetica,sans-Serif" font-size="10.00">s_finalize_riemann</text>
<text text-anchor="middle" x="558.5" y="-187" font-family="Helvetica,sans-Serif" font-size="10.00">_solver</text>
</a>
</g>
</g>
<!-- Node3&#45;&gt;Node12 -->
<g id="edge11_Node000003_Node000012" class="edge">
<title>Node3&#45;&gt;Node12</title>
<g id="a_edge11_Node000003_Node000012"><a xlink:title=" ">
<path fill="none" stroke="#63b8ff" d="M405.74,-238.48C424.91,-232.77 449.84,-225.39 472,-219 479.21,-216.92 486.77,-214.77 494.28,-212.64"/>
<polygon fill="#63b8ff" stroke="#63b8ff" points="495.43,-215.95 504.1,-209.86 493.53,-209.21 495.43,-215.95"/>
</a>
</g>
</g>
<!-- Node13 -->
<g id="Node000013" class="node">
<title>Node13</title>
<g id="a_Node000013"><a xlink:href="m__riemann__solvers_8fpp_8f90.html#afeb130b6995f0d1188772d276b505f0c" target="_top" xlink:title="The computation of parameters, the allocation of memory, the association of pointers and/or the execu...">
<polygon fill="white" stroke="#666666" points="616,-354 501,-354 501,-324 616,-324 616,-354"/>
<text text-anchor="start" x="509" y="-342" font-family="Helvetica,sans-Serif" font-size="10.00">s_initialize_riemann</text>
<text text-anchor="middle" x="558.5" y="-331" font-family="Helvetica,sans-Serif" font-size="10.00">_solver</text>
</a>
</g>
</g>
<!-- Node3&#45;&gt;Node13 -->
<g id="edge12_Node000003_Node000013" class="edge">
<title>Node3&#45;&gt;Node13</title>
<g id="a_edge12_Node000003_Node000013"><a xlink:title=" ">
<path fill="none" stroke="#63b8ff" d="M407.75,-257.56C417.38,-261.19 427.55,-265.95 436,-272 456.26,-286.51 451.07,-301.47 472,-315 477.83,-318.77 484.25,-321.95 490.88,-324.64"/>
<polygon fill="#63b8ff" stroke="#63b8ff" points="490.1,-328.08 500.69,-328.24 492.51,-321.51 490.1,-328.08"/>
</a>
</g>
</g>
<!-- Node14 -->
<g id="Node000014" class="node">
<title>Node14</title>
<g id="a_Node000014"><a xlink:href="m__riemann__solvers_8fpp_8f90.html#aa699303fa4a58f862023e6f684b91db6" target="_top" xlink:title="The purpose of this subroutine is to populate the buffers of the left and right Riemann states variab...">
<polygon fill="white" stroke="#666666" points="629,-306 488,-306 488,-276 629,-276 629,-306"/>
<text text-anchor="start" x="496" y="-294" font-family="Helvetica,sans-Serif" font-size="10.00">s_populate_riemann</text>
<text text-anchor="middle" x="558.5" y="-283" font-family="Helvetica,sans-Serif" font-size="10.00">_states_variables_buffers</text>
</a>
</g>
</g>
<!-- Node3&#45;&gt;Node14 -->
<g id="edge13_Node000003_Node000014" class="edge">
<title>Node3&#45;&gt;Node14</title>
<g id="a_edge13_Node000003_Node000014"><a xlink:title=" ">
<path fill="none" stroke="#63b8ff" d="M414.72,-257.54C434.96,-262.28 460.05,-268.16 483.52,-273.66"/>
<polygon fill="#63b8ff" stroke="#63b8ff" points="482.93,-277.12 493.46,-275.99 484.52,-270.3 482.93,-277.12"/>
</a>
</g>
</g>
<!-- Node5 -->
<g id="Node000005" class="node">
<title>Node5</title>
<g id="a_Node000005"><a xlink:href="m__mpi__common_8fpp_8f90.html#adbcc47e90968ff0f14ccc2ca3c47586a" target="_top" xlink:title="The subroutine terminates the MPI execution environment.">
<polygon fill="white" stroke="#666666" points="782,-396.5 705,-396.5 705,-377.5 782,-377.5 782,-396.5"/>
<text text-anchor="middle" x="743.5" y="-384.5" font-family="Helvetica,sans-Serif" font-size="10.00">s_mpi_abort</text>
</a>
</g>
</g>
<!-- Node4&#45;&gt;Node5 -->
<g id="edge4_Node000004_Node000005" class="edge">
<title>Node4&#45;&gt;Node5</title>
<g id="a_edge4_Node000004_Node000005"><a xlink:title=" ">
<path fill="none" stroke="#63b8ff" d="M642.7,-387C660.51,-387 678.75,-387 694.68,-387"/>
<polygon fill="#63b8ff" stroke="#63b8ff" points="694.79,-390.5 704.79,-387 694.79,-383.5 694.79,-390.5"/>
</a>
</g>
</g>
<!-- Node8 -->
<g id="Node000008" class="node">
<title>Node8</title>
<g id="a_Node000008"><a xlink:href="m__riemann__solvers_8fpp_8f90.html#ab2bef622fe66235469090f4efcc1f6ff" target="_top" xlink:title="Computes Cartesian viscous source flux contributions for momentum and energy. Calculates averaged vel...">
<polygon fill="white" stroke="#666666" points="803.5,-220 683.5,-220 683.5,-190 803.5,-190 803.5,-220"/>
<text text-anchor="start" x="691.5" y="-208" font-family="Helvetica,sans-Serif" font-size="10.00">s_compute_cartesian</text>
<text text-anchor="middle" x="743.5" y="-197" font-family="Helvetica,sans-Serif" font-size="10.00">_viscous_source_flux</text>
</a>
</g>
</g>
<!-- Node7&#45;&gt;Node8 -->
<g id="edge7_Node000007_Node000008" class="edge">
<title>Node7&#45;&gt;Node8</title>
<g id="a_edge7_Node000007_Node000008"><a xlink:title=" ">
<path fill="none" stroke="#63b8ff" d="M607.23,-161.57C619.61,-164.34 632.86,-167.55 645,-171 660.7,-175.47 677.57,-181.06 692.78,-186.41"/>
<polygon fill="#63b8ff" stroke="#63b8ff" points="691.92,-189.81 702.52,-189.87 694.27,-183.22 691.92,-189.81"/>
</a>
</g>
</g>
<!-- Node11 -->
<g id="Node000011" class="node">
<title>Node11</title>
<g id="a_Node000011"><a xlink:href="m__riemann__solvers_8fpp_8f90.html#a4be521cf9e87c37c1198c46d58ebd1e8" target="_top" xlink:title="Computes cylindrical viscous source flux contributions for momentum and energy. Calculates Cartesian ...">
<polygon fill="white" stroke="#666666" points="806,-172 681,-172 681,-142 806,-142 806,-172"/>
<text text-anchor="start" x="689" y="-160" font-family="Helvetica,sans-Serif" font-size="10.00">s_compute_cylindrical</text>
<text text-anchor="middle" x="743.5" y="-149" font-family="Helvetica,sans-Serif" font-size="10.00">_viscous_source_flux</text>
</a>
</g>
</g>
<!-- Node7&#45;&gt;Node11 -->
<g id="edge10_Node000007_Node000011" class="edge">
<title>Node7&#45;&gt;Node11</title>
<g id="a_edge10_Node000007_Node000011"><a xlink:title=" ">
<path fill="none" stroke="#63b8ff" d="M645.11,-154.34C653.7,-154.57 662.37,-154.81 670.8,-155.04"/>
<polygon fill="#63b8ff" stroke="#63b8ff" points="670.86,-158.54 680.95,-155.32 671.05,-151.55 670.86,-158.54"/>
</a>
</g>
</g>
<!-- Node9 -->
<g id="Node000009" class="node">
<title>Node9</title>
<g id="a_Node000009"><a xlink:href="m__riemann__solvers_8fpp_8f90.html#a6739d8d8accbea7f0027ca51ad05cbca" target="_top" xlink:title="Calculates bulk stress tensor components (diagonal only). tau_ii_bulk = (div_v) / Re_bulk....">
<polygon fill="white" stroke="#666666" points="977,-229 845,-229 845,-199 977,-199 977,-229"/>
<text text-anchor="start" x="853" y="-217" font-family="Helvetica,sans-Serif" font-size="10.00">s_calculate_bulk_stress</text>
<text text-anchor="middle" x="911" y="-206" font-family="Helvetica,sans-Serif" font-size="10.00">_tensor</text>
</a>
</g>
</g>
<!-- Node8&#45;&gt;Node9 -->
<g id="edge8_Node000008_Node000009" class="edge">
<title>Node8&#45;&gt;Node9</title>
<g id="a_edge8_Node000008_Node000009"><a xlink:title=" ">
<path fill="none" stroke="#63b8ff" d="M803.78,-208.22C813.8,-208.77 824.32,-209.34 834.68,-209.9"/>
<polygon fill="#63b8ff" stroke="#63b8ff" points="834.79,-213.41 844.96,-210.46 835.17,-206.43 834.79,-213.41"/>
</a>
</g>
</g>
<!-- Node10 -->
<g id="Node000010" class="node">
<title>Node10</title>
<g id="a_Node000010"><a xlink:href="m__riemann__solvers_8fpp_8f90.html#ab6ef5facc96f50d5e28d435124c27236" target="_top" xlink:title="Calculates shear stress tensor components. tau_ij_shear = ( (dui/dxj + duj/dxi) &#45; (2/3)*(div_v)*delta...">
<polygon fill="white" stroke="#666666" points="980,-181 842,-181 842,-151 980,-151 980,-181"/>
<text text-anchor="start" x="850" y="-169" font-family="Helvetica,sans-Serif" font-size="10.00">s_calculate_shear_stress</text>
<text text-anchor="middle" x="911" y="-158" font-family="Helvetica,sans-Serif" font-size="10.00">_tensor</text>
</a>
</g>
</g>
<!-- Node8&#45;&gt;Node10 -->
<g id="edge9_Node000008_Node000010" class="edge">
<title>Node8&#45;&gt;Node10</title>
<g id="a_edge9_Node000008_Node000010"><a xlink:title=" ">
<path fill="none" stroke="#63b8ff" d="M803.78,-191.03C814.29,-188.55 825.35,-185.95 836.2,-183.39"/>
<polygon fill="#63b8ff" stroke="#63b8ff" points="837.16,-186.76 846.09,-181.06 835.55,-179.95 837.16,-186.76"/>
</a>
</g>
</g>
<!-- Node15&#45;&gt;Node6 -->
<g id="edge21_Node000015_Node000006" class="edge">
<title>Node15&#45;&gt;Node6</title>
<g id="a_edge21_Node000015_Node000006"><a xlink:title=" ">
<path fill="none" stroke="#63b8ff" d="M407.55,-200.63C426.47,-206.05 450.55,-212.92 472,-219 479.04,-220.99 486.4,-223.07 493.73,-225.14"/>
<polygon fill="#63b8ff" stroke="#63b8ff" points="493.1,-228.59 503.67,-227.93 494.99,-221.85 493.1,-228.59"/>
</a>
</g>
</g>
<!-- Node15&#45;&gt;Node7 -->
<g id="edge22_Node000015_Node000007" class="edge">
<title>Node15&#45;&gt;Node7</title>
<g id="a_edge22_Node000015_Node000007"><a xlink:title=" ">
<path fill="none" stroke="#63b8ff" d="M418.89,-181.46C444.2,-176.08 476.01,-169.32 502.77,-163.63"/>
<polygon fill="#63b8ff" stroke="#63b8ff" points="503.7,-167.01 512.76,-161.51 502.25,-160.16 503.7,-167.01"/>
</a>
</g>
</g>
<!-- Node15&#45;&gt;Node12 -->
<g id="edge23_Node000015_Node000012" class="edge">
<title>Node15&#45;&gt;Node12</title>
<g id="a_edge23_Node000015_Node000012"><a xlink:title=" ">
<path fill="none" stroke="#63b8ff" d="M435.61,-192.34C454.5,-192.75 475.3,-193.21 494.3,-193.62"/>
<polygon fill="#63b8ff" stroke="#63b8ff" points="494.26,-197.12 504.34,-193.84 494.42,-190.12 494.26,-197.12"/>
</a>
</g>
</g>
<!-- Node15&#45;&gt;Node13 -->
<g id="edge24_Node000015_Node000013" class="edge">
<title>Node15&#45;&gt;Node13</title>
<g id="a_edge24_Node000015_Node000013"><a xlink:title=" ">
<path fill="none" stroke="#63b8ff" d="M396.81,-200.65C409.74,-207.08 425.4,-216.64 436,-229 462.97,-260.46 440.96,-287.55 472,-315 477.64,-319.98 484.23,-323.94 491.22,-327.08"/>
<polygon fill="#63b8ff" stroke="#63b8ff" points="490.34,-330.5 500.93,-330.87 492.89,-323.98 490.34,-330.5"/>
</a>
</g>
</g>
<!-- Node15&#45;&gt;Node14 -->
<g id="edge25_Node000015_Node000014" class="edge">
<title>Node15&#45;&gt;Node14</title>
<g id="a_edge25_Node000015_Node000014"><a xlink:title=" ">
<path fill="none" stroke="#63b8ff" d="M392.47,-200.63C405.26,-207.7 422.37,-217.95 436,-229 454.07,-243.65 452.08,-254.98 472,-267 474.84,-268.71 477.8,-270.31 480.85,-271.79"/>
<polygon fill="#63b8ff" stroke="#63b8ff" points="479.65,-275.09 490.21,-275.92 482.48,-268.68 479.65,-275.09"/>
</a>
</g>
</g>
<!-- Node16 -->
<g id="Node000016" class="node">
<title>Node16</title>
<g id="a_Node000016"><a xlink:href="m__helper__basic_8fpp_8f90.html#a49aa1857cb519bdc6b35434fd1821cab" target="_top" xlink:title="This procedure checks if two floating point numbers of wp are within tolerance.">
<polygon fill="white" stroke="#666666" points="957,-113.5 865,-113.5 865,-94.5 957,-94.5 957,-113.5"/>
<text text-anchor="middle" x="911" y="-101.5" font-family="Helvetica,sans-Serif" font-size="10.00">f_approx_equal</text>
</a>
</g>
</g>
<!-- Node15&#45;&gt;Node16 -->
<g id="edge15_Node000015_Node000016" class="edge">
<title>Node15&#45;&gt;Node16</title>
<g id="a_edge15_Node000015_Node000016"><a xlink:title=" ">
<path fill="none" stroke="#63b8ff" d="M385.79,-181.48C403.37,-167.92 438.01,-143.53 472,-133 604.6,-91.94 770.25,-94.63 854.79,-99.6"/>
<polygon fill="#63b8ff" stroke="#63b8ff" points="854.74,-103.1 864.94,-100.23 855.17,-96.11 854.74,-103.1"/>
</a>
</g>
</g>
<!-- Node17 -->
<g id="Node000017" class="node">
<title>Node17</title>
<g id="a_Node000017"><a xlink:href="m__bubbles_8fpp_8f90.html#a30dca898ade85c5f9dd77f22371a00da" target="_top" xlink:title="Function that computes the bubble wall pressure for Keller–Miksis bubbles.">
<polygon fill="white" stroke="#666666" points="594.5,-67.5 522.5,-67.5 522.5,-48.5 594.5,-48.5 594.5,-67.5"/>
<text text-anchor="middle" x="558.5" y="-55.5" font-family="Helvetica,sans-Serif" font-size="10.00">f_cpbw_km</text>
</a>
</g>
</g>
<!-- Node15&#45;&gt;Node17 -->
<g id="edge16_Node000015_Node000017" class="edge">
<title>Node15&#45;&gt;Node17</title>
<g id="a_edge16_Node000015_Node000017"><a xlink:title=" ">
<path fill="none" stroke="#63b8ff" d="M382.68,-181.24C398.89,-163.42 435.46,-125.13 472,-100 488.17,-88.88 507.73,-79.04 524.06,-71.68"/>
<polygon fill="#63b8ff" stroke="#63b8ff" points="525.5,-74.88 533.25,-67.65 522.68,-68.47 525.5,-74.88"/>
</a>
</g>
</g>
<!-- Node19 -->
<g id="Node000019" class="node">
<title>Node19</title>
<g id="a_Node000019"><a xlink:href="m__surface__tension_8fpp_8f90.html#afe20c75e746a69035beb7d93ff074d02" target="_top" xlink:title=" ">
<polygon fill="white" stroke="#666666" points="615.5,-30 501.5,-30 501.5,0 615.5,0 615.5,-30"/>
<text text-anchor="start" x="509.5" y="-18" font-family="Helvetica,sans-Serif" font-size="10.00">s_compute_capilary</text>
<text text-anchor="middle" x="558.5" y="-7" font-family="Helvetica,sans-Serif" font-size="10.00">_source_flux</text>
</a>
</g>
</g>
<!-- Node15&#45;&gt;Node19 -->
<g id="edge20_Node000015_Node000019" class="edge">
<title>Node15&#45;&gt;Node19</title>
<g id="a_edge20_Node000015_Node000019"><a xlink:title=" ">
<path fill="none" stroke="#63b8ff" d="M377.36,-181.45C387.3,-154.62 419.2,-77.97 472,-39 477.97,-34.59 484.72,-31 491.74,-28.06"/>
<polygon fill="#63b8ff" stroke="#63b8ff" points="493.28,-31.22 501.43,-24.45 490.84,-24.66 493.28,-31.22"/>
</a>
</g>
</g>
<!-- Node17&#45;&gt;Node17 -->
<g id="edge17_Node000017_Node000017" class="edge">
<title>Node17&#45;&gt;Node17</title>
<g id="a_edge17_Node000017_Node000017"><a xlink:title=" ">
<path fill="none" stroke="#63b8ff" d="M530.14,-67.58C516.34,-76.23 525.8,-85.5 558.5,-85.5 580.98,-85.5 592.48,-81.12 592.98,-75.57"/>
<polygon fill="#63b8ff" stroke="#63b8ff" points="595.72,-73.39 586.86,-67.58 590.16,-77.65 595.72,-73.39"/>
</a>
</g>
</g>
<!-- Node18 -->
<g id="Node000018" class="node">
<title>Node18</title>
<g id="a_Node000018"><a xlink:href="m__helper__basic_8fpp_8f90.html#af13561cd8191e20b0ee3bdf335944ce5" target="_top" xlink:title="Checks if a real(wp) variable is of default value.">
<polygon fill="white" stroke="#666666" points="780.5,-76.5 706.5,-76.5 706.5,-57.5 780.5,-57.5 780.5,-76.5"/>
<text text-anchor="middle" x="743.5" y="-64.5" font-family="Helvetica,sans-Serif" font-size="10.00">f_is_default</text>
</a>
</g>
</g>
<!-- Node17&#45;&gt;Node18 -->
<g id="edge18_Node000017_Node000018" class="edge">
<title>Node17&#45;&gt;Node18</title>
<g id="a_edge18_Node000017_Node000018"><a xlink:title=" ">
<path fill="none" stroke="#63b8ff" d="M594.78,-59.74C623.62,-61.15 664.61,-63.17 696.1,-64.72"/>
<polygon fill="#63b8ff" stroke="#63b8ff" points="696.23,-68.23 706.39,-65.22 696.57,-61.24 696.23,-68.23"/>
</a>
</g>
</g>
<!-- Node18&#45;&gt;Node16 -->
<g id="edge19_Node000018_Node000016" class="edge">
<title>Node18&#45;&gt;Node16</title>
<g id="a_edge19_Node000018_Node000016"><a xlink:title=" ">
<path fill="none" stroke="#63b8ff" d="M780.82,-75.12C803.23,-80.13 832.36,-86.64 857.29,-92.22"/>
<polygon fill="#63b8ff" stroke="#63b8ff" points="856.8,-95.69 867.32,-94.46 858.33,-88.86 856.8,-95.69"/>
</a>
</g>
</g>
<!-- Node20&#45;&gt;Node4 -->
<g id="edge27_Node000020_Node000004" class="edge">
<title>Node20&#45;&gt;Node4</title>
<g id="a_edge27_Node000020_Node000004"><a xlink:title=" ">
<path fill="none" stroke="#63b8ff" d="M384.33,-300.59C401.35,-315.9 436.89,-345.88 472,-363 476.01,-364.95 480.2,-366.77 484.48,-368.46"/>
<polygon fill="#63b8ff" stroke="#63b8ff" points="483.38,-371.78 493.97,-371.95 485.79,-365.21 483.38,-371.78"/>
</a>
</g>
</g>
<!-- Node20&#45;&gt;Node6 -->
<g id="edge28_Node000020_Node000006" class="edge">
<title>Node20&#45;&gt;Node6</title>
<g id="a_edge28_Node000020_Node000006"><a xlink:title=" ">
<path fill="none" stroke="#63b8ff" d="M410.69,-281.4C433.42,-275.46 463.3,-267.64 490.17,-260.61"/>
<polygon fill="#63b8ff" stroke="#63b8ff" points="491.13,-263.98 499.92,-258.06 489.36,-257.21 491.13,-263.98"/>
</a>
</g>
</g>
<!-- Node20&#45;&gt;Node12 -->
<g id="edge29_Node000020_Node000012" class="edge">
<title>Node20&#45;&gt;Node12</title>
<g id="a_edge29_Node000020_Node000012"><a xlink:title=" ">
<path fill="none" stroke="#63b8ff" d="M406.95,-281.45C416.88,-277.62 427.41,-272.53 436,-266 456.94,-250.07 450.22,-233.76 472,-219 478.81,-214.39 486.49,-210.66 494.38,-207.64"/>
<polygon fill="#63b8ff" stroke="#63b8ff" points="495.76,-210.87 504.07,-204.3 493.48,-204.25 495.76,-210.87"/>
</a>
</g>
</g>
<!-- Node20&#45;&gt;Node13 -->
<g id="edge30_Node000020_Node000013" class="edge">
<title>Node20&#45;&gt;Node13</title>
<g id="a_edge30_Node000020_Node000013"><a xlink:title=" ">
<path fill="none" stroke="#63b8ff" d="M410.69,-300.6C433.7,-306.62 464.04,-314.55 491.16,-321.65"/>
<polygon fill="#63b8ff" stroke="#63b8ff" points="490.43,-325.07 500.99,-324.22 492.2,-318.3 490.43,-325.07"/>
</a>
</g>
</g>
<!-- Node20&#45;&gt;Node14 -->
<g id="edge31_Node000020_Node000014" class="edge">
<title>Node20&#45;&gt;Node14</title>
<g id="a_edge31_Node000020_Node000014"><a xlink:title=" ">
<path fill="none" stroke="#63b8ff" d="M436.12,-291C449.51,-291 463.84,-291 477.79,-291"/>
<polygon fill="#63b8ff" stroke="#63b8ff" points="477.86,-294.5 487.86,-291 477.86,-287.5 477.86,-294.5"/>
</a>
</g>
</g>
<!-- Node22&#45;&gt;Node3 -->
<g id="edge34_Node000022_Node000003" class="edge">
<title>Node22&#45;&gt;Node3</title>
<g id="a_edge34_Node000022_Node000003"><a xlink:title=" ">
<path fill="none" stroke="#63b8ff" d="M268.09,-254.73C279.18,-254.01 291.12,-253.24 302.8,-252.48"/>
<polygon fill="#63b8ff" stroke="#63b8ff" points="303.22,-255.96 312.97,-251.82 302.77,-248.97 303.22,-255.96"/>
</a>
</g>
</g>
<!-- Node22&#45;&gt;Node15 -->
<g id="edge35_Node000022_Node000015" class="edge">
<title>Node22&#45;&gt;Node15</title>
<g id="a_edge35_Node000022_Node000015"><a xlink:title=" ">
<path fill="none" stroke="#63b8ff" d="M239.64,-248.4C266.14,-236.91 310.7,-217.58 340.71,-204.57"/>
<polygon fill="#63b8ff" stroke="#63b8ff" points="342.12,-207.77 349.9,-200.58 339.34,-201.35 342.12,-207.77"/>
</a>
</g>
</g>
<!-- Node22&#45;&gt;Node20 -->
<g id="edge36_Node000022_Node000020" class="edge">
<title>Node22&#45;&gt;Node20</title>
<g id="a_edge36_Node000022_Node000020"><a xlink:title=" ">
<path fill="none" stroke="#63b8ff" d="M262.19,-267.54C279.48,-271.24 299.44,-275.5 317.56,-279.37"/>
<polygon fill="#63b8ff" stroke="#63b8ff" points="316.9,-282.81 327.41,-281.48 318.36,-275.96 316.9,-282.81"/>
</a>
</g>
</g>
</g>
</svg>
