<?xml version="1.0" encoding="UTF-8" standalone="no"?>
<!DOCTYPE svg PUBLIC "-//W3C//DTD SVG 1.1//EN"
 "http://www.w3.org/Graphics/SVG/1.1/DTD/svg11.dtd">
<!-- Generated by graphviz version 2.43.0 (0)
 -->
<!-- Title: s_read_data_files Pages: 1 -->
<svg width="591pt" height="361pt"
 viewBox="0.00 0.00 591.00 360.50" xmlns="http://www.w3.org/2000/svg" xmlns:xlink="http://www.w3.org/1999/xlink">
<g id="graph0" class="graph" transform="scale(1 1) rotate(0) translate(4 356.5)">
<title>s_read_data_files</title>
<!-- Node1 -->
<g id="Node000001" class="node">
<title>Node1</title>
<g id="a_Node000001"><a xlink:title="Read data files. Dispatch subroutine that replaces procedure pointer.">
<polygon fill="#999999" stroke="#666666" points="101,-174.5 0,-174.5 0,-155.5 101,-155.5 101,-174.5"/>
<text text-anchor="middle" x="50.5" y="-162.5" font-family="Helvetica,sans-Serif" font-size="10.00">s_read_data_files</text>
</a>
</g>
</g>
<!-- Node2 -->
<g id="Node000002" class="node">
<title>Node2</title>
<g id="a_Node000002"><a xlink:href="m__start__up_8fpp_8f90.html#a5211947eab21c9a83686c895eb54c77d" target="_top" xlink:title=" ">
<polygon fill="white" stroke="#666666" points="255,-240 137,-240 137,-210 255,-210 255,-240"/>
<text text-anchor="start" x="145" y="-228" font-family="Helvetica,sans-Serif" font-size="10.00">s_read_parallel_data</text>
<text text-anchor="middle" x="196" y="-217" font-family="Helvetica,sans-Serif" font-size="10.00">_files</text>
</a>
</g>
</g>
<!-- Node1&#45;&gt;Node2 -->
<g id="edge1_Node000001_Node000002" class="edge">
<title>Node1&#45;&gt;Node2</title>
<g id="a_edge1_Node000001_Node000002"><a xlink:title=" ">
<path fill="none" stroke="#63b8ff" d="M74.24,-174.51C94.42,-182.95 124.51,-195.53 149.61,-206.02"/>
<polygon fill="#63b8ff" stroke="#63b8ff" points="148.37,-209.3 158.95,-209.93 151.08,-202.84 148.37,-209.3"/>
</a>
</g>
</g>
<!-- Node10 -->
<g id="Node000010" class="node">
<title>Node10</title>
<g id="a_Node000010"><a xlink:href="m__start__up_8fpp_8f90.html#a7cb33d8a47c0181bc158c4785f63acf5" target="_top" xlink:title=" ">
<polygon fill="white" stroke="#666666" points="250,-121 142,-121 142,-91 250,-91 250,-121"/>
<text text-anchor="start" x="150" y="-109" font-family="Helvetica,sans-Serif" font-size="10.00">s_read_serial_data</text>
<text text-anchor="middle" x="196" y="-98" font-family="Helvetica,sans-Serif" font-size="10.00">_files</text>
</a>
</g>
</g>
<!-- Node1&#45;&gt;Node10 -->
<g id="edge11_Node000001_Node000010" class="edge">
<title>Node1&#45;&gt;Node10</title>
<g id="a_edge11_Node000001_Node000010"><a xlink:title=" ">
<path fill="none" stroke="#63b8ff" d="M74.88,-155.39C94.86,-147.17 124.21,-135.11 148.9,-124.96"/>
<polygon fill="#63b8ff" stroke="#63b8ff" points="150.53,-128.07 158.45,-121.03 147.87,-121.59 150.53,-128.07"/>
</a>
</g>
</g>
<!-- Node3 -->
<g id="Node000003" class="node">
<title>Node3</title>
<g id="a_Node000003"><a xlink:href="m__boundary__common_8fpp_8f90.html#a308b06531f570d883d107e71b3b77c8f" target="_top" xlink:title=" ">
<polygon fill="white" stroke="#666666" points="433,-153.5 291,-153.5 291,-134.5 433,-134.5 433,-153.5"/>
<text text-anchor="middle" x="362" y="-141.5" font-family="Helvetica,sans-Serif" font-size="10.00">s_assign_default_bc_type</text>
</a>
</g>
</g>
<!-- Node2&#45;&gt;Node3 -->
<g id="edge2_Node000002_Node000003" class="edge">
<title>Node2&#45;&gt;Node3</title>
<g id="a_edge2_Node000002_Node000003"><a xlink:title=" ">
<path fill="none" stroke="#63b8ff" d="M219.04,-209.77C237.63,-197.39 265.24,-180.05 291,-168 299.81,-163.88 309.53,-160.09 318.85,-156.81"/>
<polygon fill="#63b8ff" stroke="#63b8ff" points="320.03,-160.11 328.37,-153.58 317.77,-153.48 320.03,-160.11"/>
</a>
</g>
</g>
<!-- Node4 -->
<g id="Node000004" class="node">
<title>Node4</title>
<g id="a_Node000004"><a xlink:href="m__mpi__common_8fpp_8f90.html#aff6f50a37632c54b36bc810df56db363" target="_top" xlink:title=" ">
<polygon fill="white" stroke="#666666" points="422,-352.5 302,-352.5 302,-333.5 422,-333.5 422,-352.5"/>
<text text-anchor="middle" x="362" y="-340.5" font-family="Helvetica,sans-Serif" font-size="10.00">s_initialize_mpi_data</text>
</a>
</g>
</g>
<!-- Node2&#45;&gt;Node4 -->
<g id="edge3_Node000002_Node000004" class="edge">
<title>Node2&#45;&gt;Node4</title>
<g id="a_edge3_Node000002_Node000004"><a xlink:title=" ">
<path fill="none" stroke="#63b8ff" d="M206.92,-240.07C222.26,-262.15 253.88,-303.05 291,-325 293.86,-326.69 296.88,-328.23 300,-329.62"/>
<polygon fill="#63b8ff" stroke="#63b8ff" points="298.97,-332.98 309.56,-333.38 301.53,-326.46 298.97,-332.98"/>
</a>
</g>
</g>
<!-- Node5 -->
<g id="Node000005" class="node">
<title>Node5</title>
<g id="a_Node000005"><a xlink:href="m__helper_8fpp_8f90.html#a61ed7167a8466d96b3403bf41febc469" target="_top" xlink:title=" ">
<polygon fill="white" stroke="#666666" points="398.5,-315.5 325.5,-315.5 325.5,-296.5 398.5,-296.5 398.5,-315.5"/>
<text text-anchor="middle" x="362" y="-303.5" font-family="Helvetica,sans-Serif" font-size="10.00">s_int_to_str</text>
</a>
</g>
</g>
<!-- Node2&#45;&gt;Node5 -->
<g id="edge4_Node000002_Node000005" class="edge">
<title>Node2&#45;&gt;Node5</title>
<g id="a_edge4_Node000002_Node000005"><a xlink:title=" ">
<path fill="none" stroke="#63b8ff" d="M219.04,-240.23C237.63,-252.61 265.24,-269.95 291,-282 299.81,-286.12 309.53,-289.91 318.85,-293.19"/>
<polygon fill="#63b8ff" stroke="#63b8ff" points="317.77,-296.52 328.37,-296.42 320.03,-289.89 317.77,-296.52"/>
</a>
</g>
</g>
<!-- Node6 -->
<g id="Node000006" class="node">
<title>Node6</title>
<g id="a_Node000006"><a xlink:href="m__mpi__common_8fpp_8f90.html#adbcc47e90968ff0f14ccc2ca3c47586a" target="_top" xlink:title="The subroutine terminates the MPI execution environment.">
<polygon fill="white" stroke="#666666" points="564.5,-153.5 487.5,-153.5 487.5,-134.5 564.5,-134.5 564.5,-153.5"/>
<text text-anchor="middle" x="526" y="-141.5" font-family="Helvetica,sans-Serif" font-size="10.00">s_mpi_abort</text>
</a>
</g>
</g>
<!-- Node2&#45;&gt;Node6 -->
<g id="edge5_Node000002_Node000006" class="edge">
<title>Node2&#45;&gt;Node6</title>
<g id="a_edge5_Node000002_Node000006"><a xlink:title=" ">
<path fill="none" stroke="#63b8ff" d="M255.14,-210.05C267,-207.03 279.4,-203.89 291,-201 355.44,-184.92 430,-166.85 477.32,-155.45"/>
<polygon fill="#63b8ff" stroke="#63b8ff" points="478.37,-158.8 487.28,-153.05 476.74,-151.99 478.37,-158.8"/>
</a>
</g>
</g>
<!-- Node7 -->
<g id="Node000007" class="node">
<title>Node7</title>
<g id="a_Node000007"><a xlink:href="m__mpi__common_8fpp_8f90.html#abf2b4ebce724f44c966c7f1b865ce619" target="_top" xlink:title="Halts all processes until all have reached barrier.">
<polygon fill="white" stroke="#666666" points="567.5,-274.5 484.5,-274.5 484.5,-255.5 567.5,-255.5 567.5,-274.5"/>
<text text-anchor="middle" x="526" y="-262.5" font-family="Helvetica,sans-Serif" font-size="10.00">s_mpi_barrier</text>
</a>
</g>
</g>
<!-- Node2&#45;&gt;Node7 -->
<g id="edge6_Node000002_Node000007" class="edge">
<title>Node2&#45;&gt;Node7</title>
<g id="a_edge6_Node000002_Node000007"><a xlink:title=" ">
<path fill="none" stroke="#63b8ff" d="M248.85,-240.03C262.46,-243.48 277.2,-246.78 291,-249 353.55,-259.04 426.5,-262.79 474.11,-264.18"/>
<polygon fill="#63b8ff" stroke="#63b8ff" points="474.07,-267.68 484.16,-264.45 474.26,-260.68 474.07,-267.68"/>
</a>
</g>
</g>
<!-- Node8 -->
<g id="Node000008" class="node">
<title>Node8</title>
<g id="a_Node000008"><a xlink:href="m__boundary__common_8fpp_8f90.html#a2ad576cc45b1391ba36cad21020f1139" target="_top" xlink:title=" ">
<polygon fill="white" stroke="#666666" points="433,-240 291,-240 291,-210 433,-210 433,-240"/>
<text text-anchor="start" x="299" y="-228" font-family="Helvetica,sans-Serif" font-size="10.00">s_read_parallel_boundary</text>
<text text-anchor="middle" x="362" y="-217" font-family="Helvetica,sans-Serif" font-size="10.00">_condition_files</text>
</a>
</g>
</g>
<!-- Node2&#45;&gt;Node8 -->
<g id="edge7_Node000002_Node000008" class="edge">
<title>Node2&#45;&gt;Node8</title>
<g id="a_edge7_Node000002_Node000008"><a xlink:title=" ">
<path fill="none" stroke="#63b8ff" d="M255.28,-225C263.55,-225 272.18,-225 280.78,-225"/>
<polygon fill="#63b8ff" stroke="#63b8ff" points="280.83,-228.5 290.83,-225 280.83,-221.5 280.83,-228.5"/>
</a>
</g>
</g>
<!-- Node8&#45;&gt;Node6 -->
<g id="edge9_Node000008_Node000006" class="edge">
<title>Node8&#45;&gt;Node6</title>
<g id="a_edge9_Node000008_Node000006"><a xlink:title=" ">
<path fill="none" stroke="#63b8ff" d="M401.89,-209.88C412.12,-205.63 423.07,-200.84 433,-196 456.56,-184.51 482.48,-169.65 500.78,-158.76"/>
<polygon fill="#63b8ff" stroke="#63b8ff" points="502.58,-161.76 509.36,-153.62 498.98,-155.76 502.58,-161.76"/>
</a>
</g>
</g>
<!-- Node8&#45;&gt;Node7 -->
<g id="edge10_Node000008_Node000007" class="edge">
<title>Node8&#45;&gt;Node7</title>
<g id="a_edge10_Node000008_Node000007"><a xlink:title=" ">
<path fill="none" stroke="#63b8ff" d="M423.78,-240.01C441.18,-244.3 459.91,-248.93 476.47,-253.02"/>
<polygon fill="#63b8ff" stroke="#63b8ff" points="475.92,-256.49 486.47,-255.49 477.6,-249.69 475.92,-256.49"/>
</a>
</g>
</g>
<!-- Node9 -->
<g id="Node000009" class="node">
<title>Node9</title>
<g id="a_Node000009"><a xlink:href="m__boundary__common_8fpp_8f90.html#a2a2935ab487f4c076cd0822fbd57fbce" target="_top" xlink:title=" ">
<polygon fill="white" stroke="#666666" points="583,-234.5 469,-234.5 469,-215.5 583,-215.5 583,-234.5"/>
<text text-anchor="middle" x="526" y="-222.5" font-family="Helvetica,sans-Serif" font-size="10.00">s_create_mpi_types</text>
</a>
</g>
</g>
<!-- Node8&#45;&gt;Node9 -->
<g id="edge8_Node000008_Node000009" class="edge">
<title>Node8&#45;&gt;Node9</title>
<g id="a_edge8_Node000008_Node000009"><a xlink:title=" ">
<path fill="none" stroke="#63b8ff" d="M433.11,-225C441.62,-225 450.3,-225 458.75,-225"/>
<polygon fill="#63b8ff" stroke="#63b8ff" points="458.93,-228.5 468.93,-225 458.93,-221.5 458.93,-228.5"/>
</a>
</g>
</g>
<!-- Node10&#45;&gt;Node3 -->
<g id="edge13_Node000010_Node000003" class="edge">
<title>Node10&#45;&gt;Node3</title>
<g id="a_edge13_Node000010_Node000003"><a xlink:title=" ">
<path fill="none" stroke="#63b8ff" d="M250.25,-118.34C269.43,-122.78 291.02,-127.79 310.01,-132.19"/>
<polygon fill="#63b8ff" stroke="#63b8ff" points="309.44,-135.64 319.97,-134.49 311.02,-128.83 309.44,-135.64"/>
</a>
</g>
</g>
<!-- Node10&#45;&gt;Node6 -->
<g id="edge14_Node000010_Node000006" class="edge">
<title>Node10&#45;&gt;Node6</title>
<g id="a_edge14_Node000010_Node000006"><a xlink:title=" ">
<path fill="none" stroke="#63b8ff" d="M250.14,-108.85C298.09,-111.81 370.49,-117.26 433,-126 447.4,-128.01 462.95,-130.81 477.09,-133.6"/>
<polygon fill="#63b8ff" stroke="#63b8ff" points="476.61,-137.08 487.11,-135.62 478,-130.22 476.61,-137.08"/>
</a>
</g>
</g>
<!-- Node11 -->
<g id="Node000011" class="node">
<title>Node11</title>
<g id="a_Node000011"><a xlink:href="namespacem__compile__specific.html#a9cf8c029e502931415929734c03f340d" target="_top" xlink:title="Inquires on the existence of a directory.">
<polygon fill="white" stroke="#666666" points="418.5,-78 305.5,-78 305.5,-48 418.5,-48 418.5,-78"/>
<text text-anchor="start" x="313.5" y="-66" font-family="Helvetica,sans-Serif" font-size="10.00">m_compile_specific</text>
<text text-anchor="middle" x="362" y="-55" font-family="Helvetica,sans-Serif" font-size="10.00">::my_inquire</text>
</a>
</g>
</g>
<!-- Node10&#45;&gt;Node11 -->
<g id="edge12_Node000010_Node000011" class="edge">
<title>Node10&#45;&gt;Node11</title>
<g id="a_edge12_Node000010_Node000011"><a xlink:title=" ">
<path fill="none" stroke="#63b8ff" d="M250.25,-92.04C264.75,-88.24 280.62,-84.07 295.71,-80.12"/>
<polygon fill="#63b8ff" stroke="#63b8ff" points="296.7,-83.48 305.49,-77.56 294.92,-76.71 296.7,-83.48"/>
</a>
</g>
</g>
<!-- Node12 -->
<g id="Node000012" class="node">
<title>Node12</title>
<g id="a_Node000012"><a xlink:href="m__boundary__common_8fpp_8f90.html#ad6ba3efd073151fc1f23a294c0328098" target="_top" xlink:title=" ">
<polygon fill="white" stroke="#666666" points="428,-30 296,-30 296,0 428,0 428,-30"/>
<text text-anchor="start" x="304" y="-18" font-family="Helvetica,sans-Serif" font-size="10.00">s_read_serial_boundary</text>
<text text-anchor="middle" x="362" y="-7" font-family="Helvetica,sans-Serif" font-size="10.00">_condition_files</text>
</a>
</g>
</g>
<!-- Node10&#45;&gt;Node12 -->
<g id="edge15_Node000010_Node000012" class="edge">
<title>Node10&#45;&gt;Node12</title>
<g id="a_edge15_Node000010_Node000012"><a xlink:title=" ">
<path fill="none" stroke="#63b8ff" d="M214.71,-90.98C232.89,-76.17 262.48,-53.66 291,-39 294.5,-37.2 298.16,-35.49 301.9,-33.87"/>
<polygon fill="#63b8ff" stroke="#63b8ff" points="303.36,-37.05 311.3,-30.04 300.72,-30.57 303.36,-37.05"/>
</a>
</g>
</g>
<!-- Node12&#45;&gt;Node6 -->
<g id="edge16_Node000012_Node000006" class="edge">
<title>Node12&#45;&gt;Node6</title>
<g id="a_edge16_Node000012_Node000006"><a xlink:title=" ">
<path fill="none" stroke="#63b8ff" d="M416.76,-30.14C422.45,-32.7 427.99,-35.64 433,-39 468.03,-62.49 497.95,-102.57 513.52,-125.82"/>
<polygon fill="#63b8ff" stroke="#63b8ff" points="510.71,-127.93 519.11,-134.39 516.57,-124.1 510.71,-127.93"/>
</a>
</g>
</g>
</g>
</svg>
