<?xml version="1.0" encoding="UTF-8" standalone="no"?>
<!DOCTYPE svg PUBLIC "-//W3C//DTD SVG 1.1//EN"
 "http://www.w3.org/Graphics/SVG/1.1/DTD/svg11.dtd">
<!-- Generated by graphviz version 2.43.0 (0)
 -->
<!-- Title: s_compute_stability_from_dt Pages: 1 -->
<svg width="421pt" height="59pt"
 viewBox="0.00 0.00 421.00 59.00" xmlns="http://www.w3.org/2000/svg" xmlns:xlink="http://www.w3.org/1999/xlink">

<svg id="main" version="1.1" xmlns="http://www.w3.org/2000/svg" xmlns:xlink="http://www.w3.org/1999/xlink" xml:space="preserve">

<style type="text/css"><![CDATA[
.node, .edge {opacity: 0.7;}
.node.selected, .edge.selected {opacity: 1;}
.edge:hover path { stroke: red; }
.edge:hover polygon { stroke: red; fill: red; }
]]></style>
<script type="application/ecmascript" xlink:href="svg.min.js"/>
<svg id="graph" class="graph">
<g id="graph0" class="graph" transform="scale(1 1) rotate(0) translate(4 55)">
<title>s_compute_stability_from_dt</title>
<!-- Node1 -->
<g id="Node000001" class="node">
<title>Node1</title>
<g id="a_Node000001"><a xlink:title="Computes stability criterion for a specified dt.">
<polygon fill="#999999" stroke="#666666" points="115,-51 0,-51 0,-21 115,-21 115,-51"/>
<text text-anchor="start" x="8" y="-39" font-family="Helvetica,sans-Serif" font-size="10.00">s_compute_stability</text>
<text text-anchor="middle" x="57.5" y="-28" font-family="Helvetica,sans-Serif" font-size="10.00">_from_dt</text>
</a>
</g>
</g>
<!-- Node2 -->
<g id="Node000002" class="node">
<title>Node2</title>
<g id="a_Node000002"><a xlink:href="m__sim__helpers_8fpp_8f90.html#a85d9ab52b677e69f818a8eb34a0b94c3" target="_top" xlink:title="Computes the modified dtheta for Fourier filtering in azimuthal direction.">
<polygon fill="white" stroke="#666666" points="413,-51 305,-51 305,-21 413,-21 413,-51"/>
<text text-anchor="start" x="313" y="-39" font-family="Helvetica,sans-Serif" font-size="10.00">f_compute_filtered</text>
<text text-anchor="middle" x="359" y="-28" font-family="Helvetica,sans-Serif" font-size="10.00">_dtheta</text>
</a>
</g>
</g>
<!-- Node1&#45;&gt;Node2 -->
<g id="edge1_Node000001_Node000002" class="edge">
<title>Node1&#45;&gt;Node2</title>
<g id="a_edge1_Node000001_Node000002"><a xlink:title=" ">
<path fill="none" stroke="#63b8ff" d="M115.24,-38.13C127.06,-38.49 139.43,-38.81 151,-39 203.44,-39.85 216.56,-39.88 269,-39 277.33,-38.86 286.1,-38.65 294.76,-38.39"/>
<polygon fill="#63b8ff" stroke="#63b8ff" points="294.94,-41.89 304.83,-38.09 294.72,-34.89 294.94,-41.89"/>
</a>
</g>
</g>
<!-- Node3 -->
<g id="Node000003" class="node">
<title>Node3</title>
<g id="a_Node000003"><a xlink:href="m__sim__helpers_8fpp_8f90.html#a6e7c785e93324cc98cb53998a1ea7c16" target="_top" xlink:title="Computes inviscid CFL terms for multi&#45;dimensional cases (2D/3D only)">
<polygon fill="white" stroke="#666666" points="269,-30 151,-30 151,0 269,0 269,-30"/>
<text text-anchor="start" x="159" y="-18" font-family="Helvetica,sans-Serif" font-size="10.00">f_compute_multidim</text>
<text text-anchor="middle" x="210" y="-7" font-family="Helvetica,sans-Serif" font-size="10.00">_cfl_terms</text>
</a>
</g>
</g>
<!-- Node1&#45;&gt;Node3 -->
<g id="edge2_Node000001_Node000003" class="edge">
<title>Node1&#45;&gt;Node3</title>
<g id="a_edge2_Node000001_Node000003"><a xlink:title=" ">
<path fill="none" stroke="#63b8ff" d="M115.4,-28.06C123.71,-26.9 132.35,-25.7 140.86,-24.51"/>
<polygon fill="#63b8ff" stroke="#63b8ff" points="141.35,-27.97 150.77,-23.13 140.38,-21.04 141.35,-27.97"/>
</a>
</g>
</g>
<!-- Node3&#45;&gt;Node2 -->
<g id="edge3_Node000003_Node000002" class="edge">
<title>Node3&#45;&gt;Node2</title>
<g id="a_edge3_Node000003_Node000002"><a xlink:title=" ">
<path fill="none" stroke="#63b8ff" d="M269.1,-23.3C277.43,-24.49 286.03,-25.72 294.46,-26.92"/>
<polygon fill="#63b8ff" stroke="#63b8ff" points="294.23,-30.43 304.62,-28.37 295.22,-23.5 294.23,-30.43"/>
</a>
</g>
</g>
</g>
</svg>
</svg>

<style type='text/css'>
<![CDATA[
[data-mouse-over-selected='false'] { opacity: 0.7; }
[data-mouse-over-selected='true']  { opacity: 1.0; }
]]>
</style>
<script type="application/ecmascript"><![CDATA[
document.addEventListener('DOMContentLoaded', (event) => {
  highlightEdges();
  highlightAdjacentNodes();
});
]]></script>
</svg>
