<?xml version="1.0" encoding="UTF-8" standalone="no"?>
<!DOCTYPE svg PUBLIC "-//W3C//DTD SVG 1.1//EN"
 "http://www.w3.org/Graphics/SVG/1.1/DTD/svg11.dtd">
<!-- Generated by graphviz version 2.43.0 (0)
 -->
<!-- Title: __m_surface_tension_fpp_f90__ Pages: 1 -->
<svg width="465pt" height="172pt"
 viewBox="0.00 0.00 465.00 172.00" xmlns="http://www.w3.org/2000/svg" xmlns:xlink="http://www.w3.org/1999/xlink">
<g id="graph0" class="graph" transform="scale(1 1) rotate(0) translate(4 168)">
<title>__m_surface_tension_fpp_f90__</title>
<!-- Node1 -->
<g id="Node000001" class="node">
<title>Node1</title>
<g id="a_Node000001"><a xlink:title=" ">
<polygon fill="#999999" stroke="#666666" points="119,-94 0,-94 0,-64 119,-64 119,-94"/>
<text text-anchor="start" x="8" y="-82" font-family="Helvetica,sans-Serif" font-size="10.00">__m_surface_tension</text>
<text text-anchor="middle" x="59.5" y="-71" font-family="Helvetica,sans-Serif" font-size="10.00">_fpp_f90__</text>
</a>
</g>
</g>
<!-- Node2 -->
<g id="Node000002" class="node">
<title>Node2</title>
<g id="a_Node000002"><a xlink:href="m__surface__tension_8fpp_8f90.html#a71f43b74cd88b060da109d83606d0875" target="_top" xlink:title=" ">
<polygon fill="white" stroke="#666666" points="269,-164 155,-164 155,-134 269,-134 269,-164"/>
<text text-anchor="start" x="163" y="-152" font-family="Helvetica,sans-Serif" font-size="10.00">s_compute_capilary</text>
<text text-anchor="middle" x="212" y="-141" font-family="Helvetica,sans-Serif" font-size="10.00">_source_flux</text>
</a>
</g>
</g>
<!-- Node1&#45;&gt;Node2 -->
<g id="edge1_Node000001_Node000002" class="edge">
<title>Node1&#45;&gt;Node2</title>
<g id="a_edge1_Node000001_Node000002"><a xlink:title=" ">
<path fill="none" stroke="#63b8ff" d="M90.54,-94.08C109.03,-103.25 133.26,-115.06 155,-125 158.42,-126.57 161.98,-128.16 165.56,-129.75"/>
<polygon fill="#63b8ff" stroke="#63b8ff" points="164.47,-133.09 175.04,-133.89 167.28,-126.68 164.47,-133.09"/>
</a>
</g>
</g>
<!-- Node3 -->
<g id="Node000003" class="node">
<title>Node3</title>
<g id="a_Node000003"><a xlink:href="m__surface__tension_8fpp_8f90.html#adb36c1a5dfc55d96a283bc740e70207b" target="_top" xlink:title=" ">
<polygon fill="white" stroke="#666666" points="264,-116 160,-116 160,-86 264,-86 264,-116"/>
<text text-anchor="start" x="168" y="-104" font-family="Helvetica,sans-Serif" font-size="10.00">s_finalize_surface</text>
<text text-anchor="middle" x="212" y="-93" font-family="Helvetica,sans-Serif" font-size="10.00">_tension_module</text>
</a>
</g>
</g>
<!-- Node1&#45;&gt;Node3 -->
<g id="edge2_Node000001_Node000003" class="edge">
<title>Node1&#45;&gt;Node3</title>
<g id="a_edge2_Node000001_Node000003"><a xlink:title=" ">
<path fill="none" stroke="#63b8ff" d="M119.12,-87.57C129.15,-89.03 139.59,-90.56 149.68,-92.04"/>
<polygon fill="#63b8ff" stroke="#63b8ff" points="149.24,-95.51 159.64,-93.49 150.25,-88.58 149.24,-95.51"/>
</a>
</g>
</g>
<!-- Node4 -->
<g id="Node000004" class="node">
<title>Node4</title>
<g id="a_Node000004"><a xlink:href="m__surface__tension_8fpp_8f90.html#a5535d72a0f1459ff46e7eb6699d24551" target="_top" xlink:title=" ">
<polygon fill="white" stroke="#666666" points="255.5,-67.5 168.5,-67.5 168.5,-48.5 255.5,-48.5 255.5,-67.5"/>
<text text-anchor="middle" x="212" y="-55.5" font-family="Helvetica,sans-Serif" font-size="10.00">s_get_capilary</text>
</a>
</g>
</g>
<!-- Node1&#45;&gt;Node4 -->
<g id="edge3_Node000001_Node000004" class="edge">
<title>Node1&#45;&gt;Node4</title>
<g id="a_edge3_Node000001_Node000004"><a xlink:title=" ">
<path fill="none" stroke="#63b8ff" d="M119.12,-70.82C132.01,-69.02 145.59,-67.13 158.24,-65.36"/>
<polygon fill="#63b8ff" stroke="#63b8ff" points="158.73,-68.83 168.15,-63.98 157.76,-61.89 158.73,-68.83"/>
</a>
</g>
</g>
<!-- Node6 -->
<g id="Node000006" class="node">
<title>Node6</title>
<g id="a_Node000006"><a xlink:href="m__surface__tension_8fpp_8f90.html#abe4f70c53e4bc2be834c500643a50758" target="_top" xlink:title=" ">
<polygon fill="white" stroke="#666666" points="267,-30 157,-30 157,0 267,0 267,-30"/>
<text text-anchor="start" x="165" y="-18" font-family="Helvetica,sans-Serif" font-size="10.00">s_initialize_surface</text>
<text text-anchor="middle" x="212" y="-7" font-family="Helvetica,sans-Serif" font-size="10.00">_tension_module</text>
</a>
</g>
</g>
<!-- Node1&#45;&gt;Node6 -->
<g id="edge5_Node000001_Node000006" class="edge">
<title>Node1&#45;&gt;Node6</title>
<g id="a_edge5_Node000001_Node000006"><a xlink:title=" ">
<path fill="none" stroke="#63b8ff" d="M95.79,-63.99C116.84,-55.04 143.78,-43.58 166.32,-34"/>
<polygon fill="#63b8ff" stroke="#63b8ff" points="167.84,-37.16 175.68,-30.02 165.1,-30.71 167.84,-37.16"/>
</a>
</g>
</g>
<!-- Node5 -->
<g id="Node000005" class="node">
<title>Node5</title>
<g id="a_Node000005"><a xlink:href="m__surface__tension_8fpp_8f90.html#a6fd699311e0bc8b666bca1968cfb426c" target="_top" xlink:title=" ">
<polygon fill="white" stroke="#666666" points="457,-73 305,-73 305,-43 457,-43 457,-73"/>
<text text-anchor="start" x="313" y="-61" font-family="Helvetica,sans-Serif" font-size="10.00">s_reconstruct_cell</text>
<text text-anchor="middle" x="381" y="-50" font-family="Helvetica,sans-Serif" font-size="10.00">_boundary_values_capillary</text>
</a>
</g>
</g>
<!-- Node4&#45;&gt;Node5 -->
<g id="edge4_Node000004_Node000005" class="edge">
<title>Node4&#45;&gt;Node5</title>
<g id="a_edge4_Node000004_Node000005"><a xlink:title=" ">
<path fill="none" stroke="#63b8ff" d="M255.57,-58C267.51,-58 280.93,-58 294.42,-58"/>
<polygon fill="#63b8ff" stroke="#63b8ff" points="294.73,-61.5 304.73,-58 294.73,-54.5 294.73,-61.5"/>
</a>
</g>
</g>
</g>
</svg>
