<?xml version="1.0" encoding="UTF-8" standalone="no"?>
<!DOCTYPE svg PUBLIC "-//W3C//DTD SVG 1.1//EN"
 "http://www.w3.org/Graphics/SVG/1.1/DTD/svg11.dtd">
<!-- Generated by graphviz version 2.43.0 (0)
 -->
<!-- Title: s_get_capilary Pages: 1 -->
<!--zoomable 211 -->

<svg id="main" version="1.1" xmlns="http://www.w3.org/2000/svg" xmlns:xlink="http://www.w3.org/1999/xlink" xml:space="preserve" onload="init(evt)">

<style type="text/css"><![CDATA[
.node, .edge {opacity: 0.7;}
.node.selected, .edge.selected {opacity: 1;}
.edge:hover path { stroke: red; }
.edge:hover polygon { stroke: red; fill: red; }
]]></style>

<defs>
  <circle id="rim" cx="0" cy="0" r="7"/>
  <circle id="rim2" cx="0" cy="0" r="3.5"/>
  <g id="zoomPlus">
    <use xlink:href="#rim" fill="#404040"><set attributeName="fill" to="#808080" begin="zoomplus.mouseover" end="zoomplus.mouseout"/></use>
    <path d="M-4,0h8M0,-4v8" fill="none" stroke="white" stroke-width="1.5" pointer-events="none"/>
  </g>
  <g id="zoomMin">
    <use xlink:href="#rim" fill="#404040"><set attributeName="fill" to="#808080" begin="zoomminus.mouseover" end="zoomminus.mouseout"/></use>
    <path d="M-4,0h8" fill="none" stroke="white" stroke-width="1.5" pointer-events="none"/>
  </g>
  <g id="arrowUp" transform="translate(30 24)">
    <use xlink:href="#rim"/>
    <path pointer-events="none" fill="none" stroke="white" stroke-width="1.5" d="M0,-3.0v7 M-2.5,-0.5L0,-3.0L2.5,-0.5"/>
  </g>
  <g id="arrowRight" transform="rotate(90) translate(36 -43)">
    <use xlink:href="#rim"/>
    <path pointer-events="none" fill="none" stroke="white" stroke-width="1.5" d="M0,-3.0v7 M-2.5,-0.5L0,-3.0L2.5,-0.5"/>
  </g>
  <g id="arrowDown" transform="rotate(180) translate(-30 -48)">
    <use xlink:href="#rim"/>
    <path pointer-events="none" fill="none" stroke="white" stroke-width="1.5" d="M0,-3.0v7 M-2.5,-0.5L0,-3.0L2.5,-0.5"/>
  </g>
  <g id="arrowLeft" transform="rotate(270) translate(-36 17)">
    <use xlink:href="#rim"/>
    <path pointer-events="none" fill="none" stroke="white" stroke-width="1.5" d="M0,-3.0v7 M-2.5,-0.5L0,-3.0L2.5,-0.5"/>
  </g>
  <g id="resetDef">
    <use xlink:href="#rim2" fill="#404040"><set attributeName="fill" to="#808080" begin="reset.mouseover" end="reset.mouseout"/></use>
  </g>
</defs>
<script type="application/ecmascript">
var viewWidth = 633;
var viewHeight = 211;
var sectionId = 'dynsection-3';
</script>
<script type="application/ecmascript" xlink:href="svg.min.js"/>
<svg id="graph" class="graph">
<g id="viewport">
<title>s_get_capilary</title>
<!-- Node1 -->
<g id="Node000001" class="node">
<title>Node1</title>
<g id="a_Node000001"><a xlink:title=" ">
<polygon fill="#999999" stroke="#666666" points="87,-111 0,-111 0,-92 87,-92 87,-111"/>
<text text-anchor="middle" x="43.5" y="-99" font-family="Helvetica,sans-Serif" font-size="10.00">s_get_capilary</text>
</a>
</g>
</g>
<!-- Node2 -->
<g id="Node000002" class="node">
<title>Node2</title>
<g id="a_Node000002"><a xlink:href="m__boundary__common_8fpp_8f90.html#abac98cb1ba72738667eb39e1b48f8c0f" target="_top" xlink:title=" ">
<polygon fill="white" stroke="#666666" points="257.5,-140.5 140.5,-140.5 140.5,-110.5 257.5,-110.5 257.5,-140.5"/>
<text text-anchor="start" x="148.5" y="-128.5" font-family="Helvetica,sans-Serif" font-size="10.00">s_populate_capillary</text>
<text text-anchor="middle" x="199" y="-117.5" font-family="Helvetica,sans-Serif" font-size="10.00">_buffers</text>
</a>
</g>
</g>
<!-- Node1&#45;&gt;Node2 -->
<g id="edge1_Node000001_Node000002" class="edge">
<title>Node1&#45;&gt;Node2</title>
<g id="a_edge1_Node000001_Node000002"><a xlink:title=" ">
<path fill="none" stroke="#63b8ff" d="M87.26,-108.19C100.59,-110.27 115.64,-112.62 130.25,-114.91"/>
<polygon fill="#63b8ff" stroke="#63b8ff" points="129.85,-118.39 140.27,-116.47 130.93,-111.47 129.85,-118.39"/>
</a>
</g>
</g>
<!-- Node11 -->
<g id="Node000011" class="node">
<title>Node11</title>
<g id="a_Node000011"><a xlink:href="m__surface__tension_8fpp_8f90.html#a6fd699311e0bc8b666bca1968cfb426c" target="_top" xlink:title=" ">
<polygon fill="white" stroke="#666666" points="275,-92.5 123,-92.5 123,-62.5 275,-62.5 275,-92.5"/>
<text text-anchor="start" x="131" y="-80.5" font-family="Helvetica,sans-Serif" font-size="10.00">s_reconstruct_cell</text>
<text text-anchor="middle" x="199" y="-69.5" font-family="Helvetica,sans-Serif" font-size="10.00">_boundary_values_capillary</text>
</a>
</g>
</g>
<!-- Node1&#45;&gt;Node11 -->
<g id="edge10_Node000001_Node000011" class="edge">
<title>Node1&#45;&gt;Node11</title>
<g id="a_edge10_Node000001_Node000011"><a xlink:title=" ">
<path fill="none" stroke="#63b8ff" d="M87.26,-94.81C95.31,-93.55 104,-92.2 112.83,-90.82"/>
<polygon fill="#63b8ff" stroke="#63b8ff" points="113.5,-94.25 122.84,-89.25 112.42,-87.34 113.5,-94.25"/>
</a>
</g>
</g>
<!-- Node3 -->
<g id="Node000003" class="node">
<title>Node3</title>
<g id="a_Node000003"><a xlink:href="m__boundary__common_8fpp_8f90.html#a3e6c80d1ca680d0fba5273e0df10b189" target="_top" xlink:title=" ">
<polygon fill="white" stroke="#666666" points="448.5,-202.5 320.5,-202.5 320.5,-172.5 448.5,-172.5 448.5,-202.5"/>
<text text-anchor="start" x="328.5" y="-190.5" font-family="Helvetica,sans-Serif" font-size="10.00">s_color_function_ghost</text>
<text text-anchor="middle" x="384.5" y="-179.5" font-family="Helvetica,sans-Serif" font-size="10.00">_cell_extrapolation</text>
</a>
</g>
</g>
<!-- Node2&#45;&gt;Node3 -->
<g id="edge2_Node000002_Node000003" class="edge">
<title>Node2&#45;&gt;Node3</title>
<g id="a_edge2_Node000002_Node000003"><a xlink:title=" ">
<path fill="none" stroke="#63b8ff" d="M243.72,-140.58C264.15,-147.6 288.8,-156.03 311,-163.5 316.55,-165.37 322.35,-167.31 328.14,-169.24"/>
<polygon fill="#63b8ff" stroke="#63b8ff" points="327.25,-172.63 337.84,-172.46 329.46,-165.99 327.25,-172.63"/>
</a>
</g>
</g>
<!-- Node4 -->
<g id="Node000004" class="node">
<title>Node4</title>
<g id="a_Node000004"><a xlink:href="m__boundary__common_8fpp_8f90.html#a36f3fe086f363c39b5284d0536610f40" target="_top" xlink:title=" ">
<polygon fill="white" stroke="#666666" points="454.5,-154 314.5,-154 314.5,-135 454.5,-135 454.5,-154"/>
<text text-anchor="middle" x="384.5" y="-142" font-family="Helvetica,sans-Serif" font-size="10.00">s_color_function_periodic</text>
</a>
</g>
</g>
<!-- Node2&#45;&gt;Node4 -->
<g id="edge3_Node000002_Node000004" class="edge">
<title>Node2&#45;&gt;Node4</title>
<g id="a_edge3_Node000002_Node000004"><a xlink:title=" ">
<path fill="none" stroke="#63b8ff" d="M257.56,-131.46C272.3,-132.99 288.42,-134.66 304.05,-136.27"/>
<polygon fill="#63b8ff" stroke="#63b8ff" points="303.93,-139.78 314.24,-137.33 304.65,-132.82 303.93,-139.78"/>
</a>
</g>
</g>
<!-- Node5 -->
<g id="Node000005" class="node">
<title>Node5</title>
<g id="a_Node000005"><a xlink:href="m__boundary__common_8fpp_8f90.html#af56277e40d4a12d97ea27422253b06ee" target="_top" xlink:title=" ">
<polygon fill="white" stroke="#666666" points="458,-117 311,-117 311,-98 458,-98 458,-117"/>
<text text-anchor="middle" x="384.5" y="-105" font-family="Helvetica,sans-Serif" font-size="10.00">s_color_function_reflective</text>
</a>
</g>
</g>
<!-- Node2&#45;&gt;Node5 -->
<g id="edge4_Node000002_Node000005" class="edge">
<title>Node2&#45;&gt;Node5</title>
<g id="a_edge4_Node000002_Node000005"><a xlink:title=" ">
<path fill="none" stroke="#63b8ff" d="M257.56,-119.85C271.31,-118.51 286.25,-117.04 300.88,-115.6"/>
<polygon fill="#63b8ff" stroke="#63b8ff" points="301.33,-119.08 310.94,-114.62 300.65,-112.11 301.33,-119.08"/>
</a>
</g>
</g>
<!-- Node6 -->
<g id="Node000006" class="node">
<title>Node6</title>
<g id="a_Node000006"><a xlink:href="m__mpi__common_8fpp_8f90.html#a767ff1f924147e7f0230c8a47f56b6c9" target="_top" xlink:title=" ">
<polygon fill="white" stroke="#666666" points="454.5,-79.5 314.5,-79.5 314.5,-49.5 454.5,-49.5 454.5,-79.5"/>
<text text-anchor="start" x="322.5" y="-67.5" font-family="Helvetica,sans-Serif" font-size="10.00">s_mpi_sendrecv_capilary</text>
<text text-anchor="middle" x="384.5" y="-56.5" font-family="Helvetica,sans-Serif" font-size="10.00">_variables_buffers</text>
</a>
</g>
</g>
<!-- Node2&#45;&gt;Node6 -->
<g id="edge5_Node000002_Node000006" class="edge">
<title>Node2&#45;&gt;Node6</title>
<g id="a_edge5_Node000002_Node000006"><a xlink:title=" ">
<path fill="none" stroke="#63b8ff" d="M247.65,-110.4C256.74,-107.48 266.17,-104.42 275,-101.5 293.1,-95.52 312.84,-88.84 330.46,-82.81"/>
<polygon fill="#63b8ff" stroke="#63b8ff" points="331.68,-86.09 340.01,-79.54 329.41,-79.47 331.68,-86.09"/>
</a>
</g>
</g>
<!-- Node7 -->
<g id="Node000007" class="node">
<title>Node7</title>
<g id="a_Node000007"><a xlink:href="m__helper_8fpp_8f90.html#aaa9cc8944c8dfe3f302e106b0eb3efee" target="_top" xlink:title=" ">
<polygon fill="white" stroke="#666666" points="605,-130 514,-130 514,-111 605,-111 605,-130"/>
<text text-anchor="middle" x="559.5" y="-118" font-family="Helvetica,sans-Serif" font-size="10.00">f_logical_to_int</text>
</a>
</g>
</g>
<!-- Node6&#45;&gt;Node7 -->
<g id="edge6_Node000006_Node000007" class="edge">
<title>Node6&#45;&gt;Node7</title>
<g id="a_edge6_Node000006_Node000007"><a xlink:title=" ">
<path fill="none" stroke="#63b8ff" d="M429.63,-79.6C439,-82.84 448.83,-86.27 458,-89.5 474.04,-95.16 477.8,-97.32 494,-102.5 500.03,-104.43 506.42,-106.35 512.73,-108.18"/>
<polygon fill="#63b8ff" stroke="#63b8ff" points="511.96,-111.6 522.54,-110.97 513.88,-104.87 511.96,-111.6"/>
</a>
</g>
</g>
<!-- Node8 -->
<g id="Node000008" class="node">
<title>Node8</title>
<g id="a_Node000008"><a xlink:href="m__helper_8fpp_8f90.html#abd1074cc9307589b2d34db68c67afb7f" target="_top" xlink:title=" ">
<polygon fill="white" stroke="#666666" points="580,-93 539,-93 539,-74 580,-74 580,-93"/>
<text text-anchor="middle" x="559.5" y="-81" font-family="Helvetica,sans-Serif" font-size="10.00">f_xor</text>
</a>
</g>
</g>
<!-- Node6&#45;&gt;Node8 -->
<g id="edge7_Node000006_Node000008" class="edge">
<title>Node6&#45;&gt;Node8</title>
<g id="a_edge7_Node000006_Node000008"><a xlink:title=" ">
<path fill="none" stroke="#63b8ff" d="M454.87,-72.12C480.53,-74.94 508.28,-77.98 528.6,-80.22"/>
<polygon fill="#63b8ff" stroke="#63b8ff" points="528.46,-83.72 538.78,-81.33 529.23,-76.76 528.46,-83.72"/>
</a>
</g>
</g>
<!-- Node9 -->
<g id="Node000009" class="node">
<title>Node9</title>
<g id="a_Node000009"><a xlink:href="namespacem__nvtx.html#acb0ad47c439f074b02a3cfc88817b9c7" target="_top" xlink:title=" ">
<polygon fill="white" stroke="#666666" points="622.5,-56 496.5,-56 496.5,-37 622.5,-37 622.5,-56"/>
<text text-anchor="middle" x="559.5" y="-44" font-family="Helvetica,sans-Serif" font-size="10.00">m_nvtx::nvtxendrange</text>
</a>
</g>
</g>
<!-- Node6&#45;&gt;Node9 -->
<g id="edge8_Node000006_Node000009" class="edge">
<title>Node6&#45;&gt;Node9</title>
<g id="a_edge8_Node000006_Node000009"><a xlink:title=" ">
<path fill="none" stroke="#63b8ff" d="M454.87,-57.28C465.16,-56.21 475.79,-55.11 486.15,-54.03"/>
<polygon fill="#63b8ff" stroke="#63b8ff" points="486.8,-57.48 496.38,-52.96 486.07,-50.52 486.8,-57.48"/>
</a>
</g>
</g>
<!-- Node10 -->
<g id="Node000010" class="node">
<title>Node10</title>
<g id="a_Node000010"><a xlink:href="namespacem__nvtx.html#a9b922c5d5c93c41e0abcd4cf8c382861" target="_top" xlink:title=" ">
<polygon fill="white" stroke="#666666" points="625,-19 494,-19 494,0 625,0 625,-19"/>
<text text-anchor="middle" x="559.5" y="-7" font-family="Helvetica,sans-Serif" font-size="10.00">m_nvtx::nvtxstartrange</text>
</a>
</g>
</g>
<!-- Node6&#45;&gt;Node10 -->
<g id="edge9_Node000006_Node000010" class="edge">
<title>Node6&#45;&gt;Node10</title>
<g id="a_edge9_Node000006_Node000010"><a xlink:title=" ">
<path fill="none" stroke="#63b8ff" d="M427.83,-49.44C447.81,-42.5 472.04,-34.3 494,-27.5 500.12,-25.6 506.6,-23.69 512.99,-21.85"/>
<polygon fill="#63b8ff" stroke="#63b8ff" points="514.24,-25.14 522.91,-19.04 512.33,-18.4 514.24,-25.14"/>
</a>
</g>
</g>
</g>
</svg>

<g id="navigator" transform="translate(0 0)" fill="#404254">
  <rect fill="#f2f5e9" fill-opacity="0.5" stroke="#606060" stroke-width=".5" x="0" y="0" width="60" height="60"/>
  <use id="zoomplus" xlink:href="#zoomPlus" x="17" y="9" onmousedown="handleZoom(evt,'in')"/>
  <use id="zoomminus" xlink:href="#zoomMin" x="42" y="9" onmousedown="handleZoom(evt,'out')"/>
  <use id="reset" xlink:href="#resetDef" x="30" y="36" onmousedown="handleReset()"/>
   <use id="arrowup" xlink:href="#arrowUp" x="0" y="0" onmousedown="handlePan(0,-1)"/>
  <use id="arrowright" xlink:href="#arrowRight" x="0" y="0" onmousedown="handlePan(1,0)"/>
  <use id="arrowdown" xlink:href="#arrowDown" x="0" y="0" onmousedown="handlePan(0,1)"/>
  <use id="arrowleft" xlink:href="#arrowLeft" x="0" y="0" onmousedown="handlePan(-1,0)"/>
</g>
<svg viewBox="0 0 15 15" width="100%" height="30px" preserveAspectRatio="xMaxYMin meet">
 <g id="arrow_out" transform="scale(0.3 0.3)">
  <a xlink:href="m__surface__tension_8fpp_8f90_ae987e69e014c7ed4334ffe020a6b6e60_cgraph_org.svg" target="_base">
   <rect id="button" ry="5" rx="5" y="6" x="6" height="38" width="38"
        fill="#f2f5e9" fill-opacity="0.5" stroke="#606060" stroke-width="1.0"/>
   <path id="arrow"
     d="M 11.500037,31.436501 C 11.940474,20.09759 22.043105,11.32322 32.158766,21.979434 L 37.068811,17.246167 C 37.068811,17.246167 37.088388,32 37.088388,32 L 22.160133,31.978069 C 22.160133,31.978069 26.997745,27.140456 26.997745,27.140456 C 18.528582,18.264221 13.291696,25.230495 11.500037,31.436501 z"
     style="fill:#404040;"/>
  </a>
 </g>
</svg>

<style type='text/css'>
<![CDATA[
[data-mouse-over-selected='false'] { opacity: 0.7; }
[data-mouse-over-selected='true']  { opacity: 1.0; }
]]>
</style>
<script type="application/ecmascript"><![CDATA[
document.addEventListener('DOMContentLoaded', (event) => {
  highlightEdges();
  highlightAdjacentNodes();
});
]]></script>
</svg>
