<?xml version="1.0" encoding="UTF-8" standalone="no"?>
<!DOCTYPE svg PUBLIC "-//W3C//DTD SVG 1.1//EN"
 "http://www.w3.org/Graphics/SVG/1.1/DTD/svg11.dtd">
<!-- Generated by graphviz version 2.43.0 (0)
 -->
<!-- Title: s_compute_capilary_source_flux Pages: 1 -->
<svg width="1127pt" height="194pt"
 viewBox="0.00 0.00 1127.00 193.50" xmlns="http://www.w3.org/2000/svg" xmlns:xlink="http://www.w3.org/1999/xlink">
<g id="graph0" class="graph" transform="scale(1 1) rotate(0) translate(4 189.5)">
<title>s_compute_capilary_source_flux</title>
<!-- Node1 -->
<g id="Node000001" class="node">
<title>Node1</title>
<g id="a_Node000001"><a xlink:title=" ">
<polygon fill="#999999" stroke="#666666" points="1119,-163.5 1005,-163.5 1005,-133.5 1119,-133.5 1119,-163.5"/>
<text text-anchor="start" x="1013" y="-151.5" font-family="Helvetica,sans-Serif" font-size="10.00">s_compute_capilary</text>
<text text-anchor="middle" x="1062" y="-140.5" font-family="Helvetica,sans-Serif" font-size="10.00">_source_flux</text>
</a>
</g>
</g>
<!-- Node2 -->
<g id="Node000002" class="node">
<title>Node2</title>
<g id="a_Node000002"><a xlink:href="m__surface__tension_8fpp_8f90.html#ab9b6955a7652c5a8bba2161da6c4cdd0" target="_top" xlink:title=" ">
<polygon fill="white" stroke="#666666" points="966,-185.5 847,-185.5 847,-155.5 966,-155.5 966,-185.5"/>
<text text-anchor="start" x="855" y="-173.5" font-family="Helvetica,sans-Serif" font-size="10.00">__m_surface_tension</text>
<text text-anchor="middle" x="906.5" y="-162.5" font-family="Helvetica,sans-Serif" font-size="10.00">_fpp_f90__</text>
</a>
</g>
</g>
<!-- Node1&#45;&gt;Node2 -->
<g id="edge1_Node000001_Node000002" class="edge">
<title>Node1&#45;&gt;Node2</title>
<g id="a_edge1_Node000001_Node000002"><a xlink:title=" ">
<path fill="none" stroke="#63b8ff" d="M994.55,-158.02C985.08,-159.38 975.4,-160.77 966.1,-162.1"/>
<polygon fill="#63b8ff" stroke="#63b8ff" points="995.31,-161.45 1004.71,-156.57 994.32,-154.52 995.31,-161.45"/>
</a>
</g>
</g>
<!-- Node3 -->
<g id="Node000003" class="node">
<title>Node3</title>
<g id="a_Node000003"><a xlink:href="m__riemann__solvers_8fpp_8f90.html#a93cfb6ebfb98fccd81cd589ce122b7fd" target="_top" xlink:title="This procedure is the implementation of the Harten, Lax, van Leer, and contact (HLLC) approximate Rie...">
<polygon fill="white" stroke="#666666" points="969,-137 844,-137 844,-118 969,-118 969,-137"/>
<text text-anchor="middle" x="906.5" y="-125" font-family="Helvetica,sans-Serif" font-size="10.00">s_hllc_riemann_solver</text>
</a>
</g>
</g>
<!-- Node1&#45;&gt;Node3 -->
<g id="edge2_Node000001_Node000003" class="edge">
<title>Node1&#45;&gt;Node3</title>
<g id="a_edge2_Node000001_Node000003"><a xlink:title=" ">
<path fill="none" stroke="#63b8ff" d="M994.56,-139.41C986.14,-138.26 977.55,-137.08 969.21,-135.94"/>
<polygon fill="#63b8ff" stroke="#63b8ff" points="994.33,-142.91 1004.71,-140.8 995.28,-135.98 994.33,-142.91"/>
</a>
</g>
</g>
<!-- Node4 -->
<g id="Node000004" class="node">
<title>Node4</title>
<g id="a_Node000004"><a xlink:href="m__riemann__solvers_8fpp_8f90.html#a8307be81e3cdbdafbf8e65f19b31fc30" target="_top" xlink:title="This module features a database of approximate and exact Riemann problem solvers for the Navier&#45;Stoke...">
<polygon fill="white" stroke="#666666" points="669,-161.5 546,-161.5 546,-131.5 669,-131.5 669,-161.5"/>
<text text-anchor="start" x="554" y="-149.5" font-family="Helvetica,sans-Serif" font-size="10.00">__m_riemann_solvers</text>
<text text-anchor="middle" x="607.5" y="-138.5" font-family="Helvetica,sans-Serif" font-size="10.00">_fpp_f90__</text>
</a>
</g>
</g>
<!-- Node3&#45;&gt;Node4 -->
<g id="edge3_Node000003_Node000004" class="edge">
<title>Node3&#45;&gt;Node4</title>
<g id="a_edge3_Node000003_Node000004"><a xlink:title=" ">
<path fill="none" stroke="#63b8ff" d="M833.8,-132.09C783.47,-135.31 716.9,-139.57 669.2,-142.62"/>
<polygon fill="#63b8ff" stroke="#63b8ff" points="834.21,-135.57 843.96,-131.44 833.76,-128.58 834.21,-135.57"/>
</a>
</g>
</g>
<!-- Node5 -->
<g id="Node000005" class="node">
<title>Node5</title>
<g id="a_Node000005"><a xlink:href="m__riemann__solvers_8fpp_8f90.html#adf2f2ec005812bb3f0151dcab73a8a47" target="_top" xlink:title="Dispatch to the subroutines that are utilized to compute the Riemann problem solution....">
<polygon fill="white" stroke="#666666" points="808,-118 705,-118 705,-99 808,-99 808,-118"/>
<text text-anchor="middle" x="756.5" y="-106" font-family="Helvetica,sans-Serif" font-size="10.00">s_riemann_solver</text>
</a>
</g>
</g>
<!-- Node3&#45;&gt;Node5 -->
<g id="edge4_Node000003_Node000005" class="edge">
<title>Node3&#45;&gt;Node5</title>
<g id="a_edge4_Node000003_Node000005"><a xlink:title=" ">
<path fill="none" stroke="#63b8ff" d="M833.63,-118.27C825.1,-117.18 816.54,-116.08 808.39,-115.03"/>
<polygon fill="#63b8ff" stroke="#63b8ff" points="833.23,-121.75 843.59,-119.55 834.12,-114.81 833.23,-121.75"/>
</a>
</g>
</g>
<!-- Node5&#45;&gt;Node4 -->
<g id="edge5_Node000005_Node000004" class="edge">
<title>Node5&#45;&gt;Node4</title>
<g id="a_edge5_Node000005_Node000004"><a xlink:title=" ">
<path fill="none" stroke="#63b8ff" d="M708.54,-120.64C695.25,-124.07 680.62,-127.86 666.76,-131.44"/>
<polygon fill="#63b8ff" stroke="#63b8ff" points="709.6,-123.98 718.41,-118.09 707.85,-117.2 709.6,-123.98"/>
</a>
</g>
</g>
<!-- Node6 -->
<g id="Node000006" class="node">
<title>Node6</title>
<g id="a_Node000006"><a xlink:href="m__rhs_8fpp_8f90.html#a7bace127dc6fc78b5a53a7e8e7c58f17" target="_top" xlink:title=" ">
<polygon fill="white" stroke="#666666" points="652.5,-113 562.5,-113 562.5,-94 652.5,-94 652.5,-113"/>
<text text-anchor="middle" x="607.5" y="-101" font-family="Helvetica,sans-Serif" font-size="10.00">s_compute_rhs</text>
</a>
</g>
</g>
<!-- Node5&#45;&gt;Node6 -->
<g id="edge6_Node000005_Node000006" class="edge">
<title>Node5&#45;&gt;Node6</title>
<g id="a_edge6_Node000005_Node000006"><a xlink:title=" ">
<path fill="none" stroke="#63b8ff" d="M694.81,-106.44C680.73,-105.96 666.01,-105.46 652.8,-105.01"/>
<polygon fill="#63b8ff" stroke="#63b8ff" points="694.8,-109.94 704.91,-106.78 695.04,-102.94 694.8,-109.94"/>
</a>
</g>
</g>
<!-- Node7 -->
<g id="Node000007" class="node">
<title>Node7</title>
<g id="a_Node000007"><a xlink:href="m__rhs_8fpp_8f90.html#a87616394067f1273cd06c4d299d10add" target="_top" xlink:title=" ">
<polygon fill="white" stroke="#666666" points="510,-170 400,-170 400,-151 510,-151 510,-170"/>
<text text-anchor="middle" x="455" y="-158" font-family="Helvetica,sans-Serif" font-size="10.00">__m_rhs_fpp_f90__</text>
</a>
</g>
</g>
<!-- Node6&#45;&gt;Node7 -->
<g id="edge7_Node000006_Node000007" class="edge">
<title>Node6&#45;&gt;Node7</title>
<g id="a_edge7_Node000006_Node000007"><a xlink:title=" ">
<path fill="none" stroke="#63b8ff" d="M564.37,-116.16C558.18,-118.19 551.9,-120.33 546,-122.5 522.12,-131.27 495.32,-142.81 477.23,-150.86"/>
<polygon fill="#63b8ff" stroke="#63b8ff" points="565.51,-119.47 573.97,-113.09 563.38,-112.81 565.51,-119.47"/>
</a>
</g>
</g>
<!-- Node8 -->
<g id="Node000008" class="node">
<title>Node8</title>
<g id="a_Node000008"><a xlink:href="m__time__steppers_8fpp_8f90.html#a95dcf858eaba9951c12d4590ec467f62" target="_top" xlink:title="1st order TVD RK time&#45;stepping algorithm">
<polygon fill="white" stroke="#666666" points="362.5,-132 253.5,-132 253.5,-113 362.5,-113 362.5,-132"/>
<text text-anchor="middle" x="308" y="-120" font-family="Helvetica,sans-Serif" font-size="10.00">s_1st_order_tvd_rk</text>
</a>
</g>
</g>
<!-- Node6&#45;&gt;Node8 -->
<g id="edge8_Node000006_Node000008" class="edge">
<title>Node6&#45;&gt;Node8</title>
<g id="a_edge8_Node000006_Node000008"><a xlink:title=" ">
<path fill="none" stroke="#63b8ff" d="M552.23,-106.97C498.32,-110.41 416.18,-115.66 362.53,-119.08"/>
<polygon fill="#63b8ff" stroke="#63b8ff" points="552.53,-110.45 562.28,-106.32 552.08,-103.47 552.53,-110.45"/>
</a>
</g>
</g>
<!-- Node11 -->
<g id="Node000011" class="node">
<title>Node11</title>
<g id="a_Node000011"><a xlink:href="m__time__steppers_8fpp_8f90.html#a30504937d9153ef9e5d9990a8894e89a" target="_top" xlink:title="2nd order TVD RK time&#45;stepping algorithm">
<polygon fill="white" stroke="#666666" points="364,-95 252,-95 252,-76 364,-76 364,-95"/>
<text text-anchor="middle" x="308" y="-83" font-family="Helvetica,sans-Serif" font-size="10.00">s_2nd_order_tvd_rk</text>
</a>
</g>
</g>
<!-- Node6&#45;&gt;Node11 -->
<g id="edge11_Node000006_Node000011" class="edge">
<title>Node6&#45;&gt;Node11</title>
<g id="a_edge11_Node000006_Node000011"><a xlink:title=" ">
<path fill="none" stroke="#63b8ff" d="M551.99,-100.2C498.6,-96.97 417.69,-92.08 364.1,-88.83"/>
<polygon fill="#63b8ff" stroke="#63b8ff" points="552.09,-103.71 562.28,-100.82 552.51,-96.73 552.09,-103.71"/>
</a>
</g>
</g>
<!-- Node12 -->
<g id="Node000012" class="node">
<title>Node12</title>
<g id="a_Node000012"><a xlink:href="m__time__steppers_8fpp_8f90.html#aa54ad1694d32cfe180d81112527699e4" target="_top" xlink:title="3rd order TVD RK time&#45;stepping algorithm">
<polygon fill="white" stroke="#666666" points="510,-56 400,-56 400,-37 510,-37 510,-56"/>
<text text-anchor="middle" x="455" y="-44" font-family="Helvetica,sans-Serif" font-size="10.00">s_3rd_order_tvd_rk</text>
</a>
</g>
</g>
<!-- Node6&#45;&gt;Node12 -->
<g id="edge13_Node000006_Node000012" class="edge">
<title>Node6&#45;&gt;Node12</title>
<g id="a_edge13_Node000006_Node000012"><a xlink:title=" ">
<path fill="none" stroke="#63b8ff" d="M571.64,-90.3C544.01,-79.83 506.04,-65.45 481.27,-56.07"/>
<polygon fill="#63b8ff" stroke="#63b8ff" points="570.72,-93.69 581.31,-93.96 573.2,-87.14 570.72,-93.69"/>
</a>
</g>
</g>
<!-- Node9 -->
<g id="Node000009" class="node">
<title>Node9</title>
<g id="a_Node000009"><a xlink:href="namespacem__start__up.html#ae28835629de9baa7fd546672a0add0e5" target="_top" xlink:title=" ">
<polygon fill="white" stroke="#666666" points="216,-81.5 89,-81.5 89,-51.5 216,-51.5 216,-81.5"/>
<text text-anchor="start" x="97" y="-69.5" font-family="Helvetica,sans-Serif" font-size="10.00">m_start_up::s_perform</text>
<text text-anchor="middle" x="152.5" y="-58.5" font-family="Helvetica,sans-Serif" font-size="10.00">_time_step</text>
</a>
</g>
</g>
<!-- Node8&#45;&gt;Node9 -->
<g id="edge9_Node000008_Node000009" class="edge">
<title>Node8&#45;&gt;Node9</title>
<g id="a_edge9_Node000008_Node000009"><a xlink:title=" ">
<path fill="none" stroke="#63b8ff" d="M267.2,-109.75C262.07,-108.02 256.9,-106.25 252,-104.5 231.8,-97.3 209.49,-88.75 191.22,-81.58"/>
<polygon fill="#63b8ff" stroke="#63b8ff" points="266.34,-113.15 276.93,-112.97 268.54,-106.5 266.34,-113.15"/>
</a>
</g>
</g>
<!-- Node10 -->
<g id="Node000010" class="node">
<title>Node10</title>
<g id="a_Node000010"><a xlink:href="p__main_8fpp_8f90.html#aeec10ee8e2940c953967da3e374e1579" target="_top" xlink:title="Quasi&#45;conservative, shock&#45; and interface&#45; capturing finite&#45;volume scheme for the multicomponent Navie...">
<polygon fill="white" stroke="#666666" points="53,-76 0,-76 0,-57 53,-57 53,-76"/>
<text text-anchor="middle" x="26.5" y="-64" font-family="Helvetica,sans-Serif" font-size="10.00">p_main</text>
</a>
</g>
</g>
<!-- Node9&#45;&gt;Node10 -->
<g id="edge10_Node000009_Node000010" class="edge">
<title>Node9&#45;&gt;Node10</title>
<g id="a_edge10_Node000009_Node000010"><a xlink:title=" ">
<path fill="none" stroke="#63b8ff" d="M78.77,-66.5C69.63,-66.5 60.81,-66.5 53.14,-66.5"/>
<polygon fill="#63b8ff" stroke="#63b8ff" points="78.77,-70 88.77,-66.5 78.77,-63 78.77,-70"/>
</a>
</g>
</g>
<!-- Node11&#45;&gt;Node9 -->
<g id="edge12_Node000011_Node000009" class="edge">
<title>Node11&#45;&gt;Node9</title>
<g id="a_edge12_Node000011_Node000009"><a xlink:title=" ">
<path fill="none" stroke="#63b8ff" d="M241.46,-77.39C233.06,-76.35 224.48,-75.29 216.13,-74.25"/>
<polygon fill="#63b8ff" stroke="#63b8ff" points="241.23,-80.89 251.58,-78.64 242.09,-73.94 241.23,-80.89"/>
</a>
</g>
</g>
<!-- Node12&#45;&gt;Node9 -->
<g id="edge14_Node000012_Node000009" class="edge">
<title>Node12&#45;&gt;Node9</title>
<g id="a_edge14_Node000012_Node000009"><a xlink:title=" ">
<path fill="none" stroke="#63b8ff" d="M389.64,-50.78C338.38,-54.2 267.05,-58.94 216.23,-62.32"/>
<polygon fill="#63b8ff" stroke="#63b8ff" points="390.18,-54.26 399.93,-50.1 389.72,-47.27 390.18,-54.26"/>
</a>
</g>
</g>
<!-- Node13 -->
<g id="Node000013" class="node">
<title>Node13</title>
<g id="a_Node000013"><a xlink:href="m__time__steppers_8fpp_8f90.html#a5858523edfce42df32b2b0a8af54bc0e" target="_top" xlink:title="Strang splitting scheme with 3rd order TVD RK time&#45;stepping algorithm for the flux term and adaptive ...">
<polygon fill="white" stroke="#666666" points="359.5,-19 256.5,-19 256.5,0 359.5,0 359.5,-19"/>
<text text-anchor="middle" x="308" y="-7" font-family="Helvetica,sans-Serif" font-size="10.00">s_strang_splitting</text>
</a>
</g>
</g>
<!-- Node12&#45;&gt;Node13 -->
<g id="edge15_Node000012_Node000013" class="edge">
<title>Node12&#45;&gt;Node13</title>
<g id="a_edge15_Node000012_Node000013"><a xlink:title=" ">
<path fill="none" stroke="#63b8ff" d="M406.73,-34.44C387.19,-29.45 364.85,-23.75 346.47,-19.06"/>
<polygon fill="#63b8ff" stroke="#63b8ff" points="406.1,-37.89 416.66,-36.97 407.83,-31.11 406.1,-37.89"/>
</a>
</g>
</g>
<!-- Node13&#45;&gt;Node9 -->
<g id="edge16_Node000013_Node000009" class="edge">
<title>Node13&#45;&gt;Node9</title>
<g id="a_edge16_Node000013_Node000009"><a xlink:title=" ">
<path fill="none" stroke="#63b8ff" d="M271.85,-22.55C248.67,-31.16 218.23,-42.46 194.02,-51.45"/>
<polygon fill="#63b8ff" stroke="#63b8ff" points="273.15,-25.8 281.31,-19.04 270.71,-19.24 273.15,-25.8"/>
</a>
</g>
</g>
</g>
</svg>
