<?xml version="1.0" encoding="UTF-8" standalone="no"?>
<!DOCTYPE svg PUBLIC "-//W3C//DTD SVG 1.1//EN"
 "http://www.w3.org/Graphics/SVG/1.1/DTD/svg11.dtd">
<!-- Generated by graphviz version 2.43.0 (0)
 -->
<!-- Title: s_reconstruct_cell_boundary_values_capillary Pages: 1 -->
<svg width="995pt" height="199pt"
 viewBox="0.00 0.00 995.00 198.71" xmlns="http://www.w3.org/2000/svg" xmlns:xlink="http://www.w3.org/1999/xlink">
<g id="graph0" class="graph" transform="scale(1 1) rotate(0) translate(4 194.71)">
<title>s_reconstruct_cell_boundary_values_capillary</title>
<!-- Node1 -->
<g id="Node000001" class="node">
<title>Node1</title>
<g id="a_Node000001"><a xlink:title=" ">
<polygon fill="#999999" stroke="#666666" points="987,-141.21 835,-141.21 835,-111.21 987,-111.21 987,-141.21"/>
<text text-anchor="start" x="843" y="-129.21" font-family="Helvetica,sans-Serif" font-size="10.00">s_reconstruct_cell</text>
<text text-anchor="middle" x="911" y="-118.21" font-family="Helvetica,sans-Serif" font-size="10.00">_boundary_values_capillary</text>
</a>
</g>
</g>
<!-- Node2 -->
<g id="Node000002" class="node">
<title>Node2</title>
<g id="a_Node000002"><a xlink:href="m__surface__tension_8fpp_8f90.html#a5535d72a0f1459ff46e7eb6699d24551" target="_top" xlink:title=" ">
<polygon fill="white" stroke="#666666" points="799,-135.71 712,-135.71 712,-116.71 799,-116.71 799,-135.71"/>
<text text-anchor="middle" x="755.5" y="-123.71" font-family="Helvetica,sans-Serif" font-size="10.00">s_get_capilary</text>
</a>
</g>
</g>
<!-- Node1&#45;&gt;Node2 -->
<g id="edge1_Node000001_Node000002" class="edge">
<title>Node1&#45;&gt;Node2</title>
<g id="a_edge1_Node000001_Node000002"><a xlink:title=" ">
<path fill="none" stroke="#63b8ff" d="M824.38,-126.21C815.71,-126.21 807.2,-126.21 799.28,-126.21"/>
<polygon fill="#63b8ff" stroke="#63b8ff" points="824.6,-129.71 834.6,-126.21 824.6,-122.71 824.6,-129.71"/>
</a>
</g>
</g>
<!-- Node3 -->
<g id="Node000003" class="node">
<title>Node3</title>
<g id="a_Node000003"><a xlink:href="m__surface__tension_8fpp_8f90.html#ab9b6955a7652c5a8bba2161da6c4cdd0" target="_top" xlink:title=" ">
<polygon fill="white" stroke="#666666" points="676,-163.21 557,-163.21 557,-133.21 676,-133.21 676,-163.21"/>
<text text-anchor="start" x="565" y="-151.21" font-family="Helvetica,sans-Serif" font-size="10.00">__m_surface_tension</text>
<text text-anchor="middle" x="616.5" y="-140.21" font-family="Helvetica,sans-Serif" font-size="10.00">_fpp_f90__</text>
</a>
</g>
</g>
<!-- Node2&#45;&gt;Node3 -->
<g id="edge2_Node000002_Node000003" class="edge">
<title>Node2&#45;&gt;Node3</title>
<g id="a_edge2_Node000002_Node000003"><a xlink:title=" ">
<path fill="none" stroke="#63b8ff" d="M701.85,-134.67C693.45,-136.02 684.71,-137.42 676.17,-138.79"/>
<polygon fill="#63b8ff" stroke="#63b8ff" points="702.58,-138.09 711.9,-133.05 701.47,-131.18 702.58,-138.09"/>
</a>
</g>
</g>
<!-- Node4 -->
<g id="Node000004" class="node">
<title>Node4</title>
<g id="a_Node000004"><a xlink:href="m__rhs_8fpp_8f90.html#af47a5f1dac8fc4eec10fb0d56ff5fff1" target="_top" xlink:title=" ">
<polygon fill="white" stroke="#666666" points="661.5,-114.71 571.5,-114.71 571.5,-95.71 661.5,-95.71 661.5,-114.71"/>
<text text-anchor="middle" x="616.5" y="-102.71" font-family="Helvetica,sans-Serif" font-size="10.00">s_compute_rhs</text>
</a>
</g>
</g>
<!-- Node2&#45;&gt;Node4 -->
<g id="edge3_Node000002_Node000004" class="edge">
<title>Node2&#45;&gt;Node4</title>
<g id="a_edge3_Node000002_Node000004"><a xlink:title=" ">
<path fill="none" stroke="#63b8ff" d="M702,-118.17C688.79,-116.14 674.74,-113.99 661.97,-112.03"/>
<polygon fill="#63b8ff" stroke="#63b8ff" points="701.49,-121.63 711.9,-119.68 702.55,-114.71 701.49,-121.63"/>
</a>
</g>
</g>
<!-- Node5 -->
<g id="Node000005" class="node">
<title>Node5</title>
<g id="a_Node000005"><a xlink:href="m__rhs_8fpp_8f90.html#a87616394067f1273cd06c4d299d10add" target="_top" xlink:title=" ">
<polygon fill="white" stroke="#666666" points="515.5,-190.71 405.5,-190.71 405.5,-171.71 515.5,-171.71 515.5,-190.71"/>
<text text-anchor="middle" x="460.5" y="-178.71" font-family="Helvetica,sans-Serif" font-size="10.00">__m_rhs_fpp_f90__</text>
</a>
</g>
</g>
<!-- Node4&#45;&gt;Node5 -->
<g id="edge4_Node000004_Node000005" class="edge">
<title>Node4&#45;&gt;Node5</title>
<g id="a_edge4_Node000004_Node000005"><a xlink:title=" ">
<path fill="none" stroke="#63b8ff" d="M568.53,-118.45C564.53,-120.18 560.63,-122.09 557,-124.21 538.25,-135.15 539.36,-145.63 521,-157.21 511.86,-162.98 501.11,-167.82 491.27,-171.61"/>
<polygon fill="#63b8ff" stroke="#63b8ff" points="569.92,-121.67 577.96,-114.76 567.37,-115.15 569.92,-121.67"/>
</a>
</g>
</g>
<!-- Node6 -->
<g id="Node000006" class="node">
<title>Node6</title>
<g id="a_Node000006"><a xlink:href="m__time__steppers_8fpp_8f90.html#af409df8df1b374744d8c379e7e7dba0b" target="_top" xlink:title="1st order TVD RK time&#45;stepping algorithm">
<polygon fill="white" stroke="#666666" points="362.5,-152.71 253.5,-152.71 253.5,-133.71 362.5,-133.71 362.5,-152.71"/>
<text text-anchor="middle" x="308" y="-140.71" font-family="Helvetica,sans-Serif" font-size="10.00">s_1st_order_tvd_rk</text>
</a>
</g>
</g>
<!-- Node4&#45;&gt;Node6 -->
<g id="edge5_Node000004_Node000006" class="edge">
<title>Node4&#45;&gt;Node6</title>
<g id="a_edge5_Node000004_Node000006"><a xlink:title=" ">
<path fill="none" stroke="#63b8ff" d="M561.42,-113.55C548.21,-115.5 534.11,-117.5 521,-119.21 467.19,-126.24 405.54,-133.09 362.65,-137.65"/>
<polygon fill="#63b8ff" stroke="#63b8ff" points="561.94,-117.01 571.31,-112.08 560.91,-110.09 561.94,-117.01"/>
</a>
</g>
</g>
<!-- Node9 -->
<g id="Node000009" class="node">
<title>Node9</title>
<g id="a_Node000009"><a xlink:href="m__time__steppers_8fpp_8f90.html#a2847bfea6f3dc3fdae115a99009f7245" target="_top" xlink:title="2nd order TVD RK time&#45;stepping algorithm">
<polygon fill="white" stroke="#666666" points="364,-115.71 252,-115.71 252,-96.71 364,-96.71 364,-115.71"/>
<text text-anchor="middle" x="308" y="-103.71" font-family="Helvetica,sans-Serif" font-size="10.00">s_2nd_order_tvd_rk</text>
</a>
</g>
</g>
<!-- Node4&#45;&gt;Node9 -->
<g id="edge8_Node000004_Node000009" class="edge">
<title>Node4&#45;&gt;Node9</title>
<g id="a_edge8_Node000004_Node000009"><a xlink:title=" ">
<path fill="none" stroke="#63b8ff" d="M560.92,-105.39C505.4,-105.57 419.83,-105.85 364.12,-106.03"/>
<polygon fill="#63b8ff" stroke="#63b8ff" points="561.27,-108.89 571.26,-105.36 561.25,-101.89 561.27,-108.89"/>
</a>
</g>
</g>
<!-- Node10 -->
<g id="Node000010" class="node">
<title>Node10</title>
<g id="a_Node000010"><a xlink:href="m__time__steppers_8fpp_8f90.html#ad642c094881f0cffbb6158f9fa079a86" target="_top" xlink:title="3rd order TVD RK time&#45;stepping algorithm">
<polygon fill="white" stroke="#666666" points="515.5,-76.71 405.5,-76.71 405.5,-57.71 515.5,-57.71 515.5,-76.71"/>
<text text-anchor="middle" x="460.5" y="-64.71" font-family="Helvetica,sans-Serif" font-size="10.00">s_3rd_order_tvd_rk</text>
</a>
</g>
</g>
<!-- Node4&#45;&gt;Node10 -->
<g id="edge10_Node000004_Node000010" class="edge">
<title>Node4&#45;&gt;Node10</title>
<g id="a_edge10_Node000004_Node000010"><a xlink:title=" ">
<path fill="none" stroke="#63b8ff" d="M566.71,-93.17C545.19,-87.86 520.27,-81.71 500.08,-76.73"/>
<polygon fill="#63b8ff" stroke="#63b8ff" points="566.09,-96.63 576.64,-95.62 567.77,-89.83 566.09,-96.63"/>
</a>
</g>
</g>
<!-- Node12 -->
<g id="Node000012" class="node">
<title>Node12</title>
<g id="a_Node000012"><a xlink:href="m__time__steppers_8fpp_8f90.html#aca171c932551af4579eecbfc6b9a8c6a" target="_top" xlink:title="(Adaptive) 4th/5th order Runge—Kutta–Cash–Karp (RKCK) time&#45;stepping algorithm (Cash J....">
<polygon fill="white" stroke="#666666" points="521,-20.71 400,-20.71 400,-1.71 521,-1.71 521,-20.71"/>
<text text-anchor="middle" x="460.5" y="-8.71" font-family="Helvetica,sans-Serif" font-size="10.00">s_4th_5th_order_rkck</text>
</a>
</g>
</g>
<!-- Node4&#45;&gt;Node12 -->
<g id="edge14_Node000004_Node000012" class="edge">
<title>Node4&#45;&gt;Node12</title>
<g id="a_edge14_Node000004_Node000012"><a xlink:title=" ">
<path fill="none" stroke="#63b8ff" d="M591.15,-90.35C559.21,-70.85 504.05,-37.18 477.16,-20.77"/>
<polygon fill="#63b8ff" stroke="#63b8ff" points="589.53,-93.46 599.89,-95.68 593.17,-87.48 589.53,-93.46"/>
</a>
</g>
</g>
<!-- Node7 -->
<g id="Node000007" class="node">
<title>Node7</title>
<g id="a_Node000007"><a xlink:href="namespacem__start__up.html#aaaeff91a52af5b8f17ed9efed8ac17bd" target="_top" xlink:title=" ">
<polygon fill="white" stroke="#666666" points="216,-83.21 89,-83.21 89,-53.21 216,-53.21 216,-83.21"/>
<text text-anchor="start" x="97" y="-71.21" font-family="Helvetica,sans-Serif" font-size="10.00">m_start_up::s_perform</text>
<text text-anchor="middle" x="152.5" y="-60.21" font-family="Helvetica,sans-Serif" font-size="10.00">_time_step</text>
</a>
</g>
</g>
<!-- Node6&#45;&gt;Node7 -->
<g id="edge6_Node000006_Node000007" class="edge">
<title>Node6&#45;&gt;Node7</title>
<g id="a_edge6_Node000006_Node000007"><a xlink:title=" ">
<path fill="none" stroke="#63b8ff" d="M264.25,-130.2C260.07,-128.64 255.92,-126.97 252,-125.21 224.94,-113.12 195.78,-95.63 176.26,-83.22"/>
<polygon fill="#63b8ff" stroke="#63b8ff" points="263.41,-133.61 274,-133.65 265.74,-127.02 263.41,-133.61"/>
</a>
</g>
</g>
<!-- Node8 -->
<g id="Node000008" class="node">
<title>Node8</title>
<g id="a_Node000008"><a xlink:href="p__main_8fpp_8f90.html#aeec10ee8e2940c953967da3e374e1579" target="_top" xlink:title="Quasi&#45;conservative, shock&#45; and interface&#45; capturing finite&#45;volume scheme for the multicomponent Navie...">
<polygon fill="white" stroke="#666666" points="53,-77.71 0,-77.71 0,-58.71 53,-58.71 53,-77.71"/>
<text text-anchor="middle" x="26.5" y="-65.71" font-family="Helvetica,sans-Serif" font-size="10.00">p_main</text>
</a>
</g>
</g>
<!-- Node7&#45;&gt;Node8 -->
<g id="edge7_Node000007_Node000008" class="edge">
<title>Node7&#45;&gt;Node8</title>
<g id="a_edge7_Node000007_Node000008"><a xlink:title=" ">
<path fill="none" stroke="#63b8ff" d="M78.77,-68.21C69.63,-68.21 60.81,-68.21 53.14,-68.21"/>
<polygon fill="#63b8ff" stroke="#63b8ff" points="78.77,-71.71 88.77,-68.21 78.77,-64.71 78.77,-71.71"/>
</a>
</g>
</g>
<!-- Node9&#45;&gt;Node7 -->
<g id="edge9_Node000009_Node000007" class="edge">
<title>Node9&#45;&gt;Node7</title>
<g id="a_edge9_Node000009_Node000007"><a xlink:title=" ">
<path fill="none" stroke="#63b8ff" d="M258.37,-94.17C244.39,-90.71 228.96,-86.89 214.33,-83.27"/>
<polygon fill="#63b8ff" stroke="#63b8ff" points="257.72,-97.62 268.27,-96.62 259.4,-90.82 257.72,-97.62"/>
</a>
</g>
</g>
<!-- Node10&#45;&gt;Node7 -->
<g id="edge11_Node000010_Node000007" class="edge">
<title>Node10&#45;&gt;Node7</title>
<g id="a_edge11_Node000010_Node000007"><a xlink:title=" ">
<path fill="none" stroke="#63b8ff" d="M395.26,-67.42C342.58,-67.59 268.45,-67.84 216.2,-68.01"/>
<polygon fill="#63b8ff" stroke="#63b8ff" points="395.51,-70.92 405.5,-67.39 395.49,-63.92 395.51,-70.92"/>
</a>
</g>
</g>
<!-- Node11 -->
<g id="Node000011" class="node">
<title>Node11</title>
<g id="a_Node000011"><a xlink:href="m__time__steppers_8fpp_8f90.html#a5858523edfce42df32b2b0a8af54bc0e" target="_top" xlink:title="Strang splitting scheme with 3rd order TVD RK time&#45;stepping algorithm for the flux term and adaptive ...">
<polygon fill="white" stroke="#666666" points="359.5,-39.71 256.5,-39.71 256.5,-20.71 359.5,-20.71 359.5,-39.71"/>
<text text-anchor="middle" x="308" y="-27.71" font-family="Helvetica,sans-Serif" font-size="10.00">s_strang_splitting</text>
</a>
</g>
</g>
<!-- Node10&#45;&gt;Node11 -->
<g id="edge12_Node000010_Node000011" class="edge">
<title>Node10&#45;&gt;Node11</title>
<g id="a_edge12_Node000010_Node000011"><a xlink:title=" ">
<path fill="none" stroke="#63b8ff" d="M410.99,-55.29C390.58,-50.27 367.14,-44.51 347.89,-39.77"/>
<polygon fill="#63b8ff" stroke="#63b8ff" points="410.2,-58.7 420.74,-57.68 411.87,-51.9 410.2,-58.7"/>
</a>
</g>
</g>
<!-- Node11&#45;&gt;Node7 -->
<g id="edge13_Node000011_Node000007" class="edge">
<title>Node11&#45;&gt;Node7</title>
<g id="a_edge13_Node000011_Node000007"><a xlink:title=" ">
<path fill="none" stroke="#63b8ff" d="M258.37,-42.25C244.39,-45.71 228.96,-49.53 214.33,-53.15"/>
<polygon fill="#63b8ff" stroke="#63b8ff" points="259.4,-45.6 268.27,-39.8 257.72,-38.81 259.4,-45.6"/>
</a>
</g>
</g>
<!-- Node12&#45;&gt;Node7 -->
<g id="edge15_Node000012_Node000007" class="edge">
<title>Node12&#45;&gt;Node7</title>
<g id="a_edge15_Node000012_Node000007"><a xlink:title=" ">
<path fill="none" stroke="#63b8ff" d="M389.72,-2.29C348.9,0.74 296.74,0.8 252,-11.21 221.85,-19.31 191.4,-39.12 172.5,-53.11"/>
<polygon fill="#63b8ff" stroke="#63b8ff" points="389.6,-5.79 399.85,-3.12 390.17,1.19 389.6,-5.79"/>
</a>
</g>
</g>
</g>
</svg>
