<?xml version="1.0" encoding="UTF-8" standalone="no"?>
<!DOCTYPE svg PUBLIC "-//W3C//DTD SVG 1.1//EN"
 "http://www.w3.org/Graphics/SVG/1.1/DTD/svg11.dtd">
<!-- Generated by graphviz version 2.43.0 (0)
 -->
<!-- Title: s_adaptive_dt_bubble Pages: 1 -->
<svg width="809pt" height="606pt"
 viewBox="0.00 0.00 809.00 605.50" xmlns="http://www.w3.org/2000/svg" xmlns:xlink="http://www.w3.org/1999/xlink">
<g id="graph0" class="graph" transform="scale(1 1) rotate(0) translate(4 601.5)">
<title>s_adaptive_dt_bubble</title>
<!-- Node1 -->
<g id="Node000001" class="node">
<title>Node1</title>
<g id="a_Node000001"><a xlink:title="Bubble source part in Strang operator splitting scheme.">
<polygon fill="#999999" stroke="#666666" points="123,-359.5 0,-359.5 0,-340.5 123,-340.5 123,-359.5"/>
<text text-anchor="middle" x="61.5" y="-347.5" font-family="Helvetica,sans-Serif" font-size="10.00">s_adaptive_dt_bubble</text>
</a>
</g>
</g>
<!-- Node2 -->
<g id="Node000002" class="node">
<title>Node2</title>
<g id="a_Node000002"><a xlink:href="m__bubbles__EE_8fpp_8f90.html#a668db2fdc71cac27f74719126d35e236" target="_top" xlink:title=" ">
<polygon fill="white" stroke="#666666" points="288,-402.5 162,-402.5 162,-383.5 288,-383.5 288,-402.5"/>
<text text-anchor="middle" x="225" y="-390.5" font-family="Helvetica,sans-Serif" font-size="10.00">s_comp_alpha_from_n</text>
</a>
</g>
</g>
<!-- Node1&#45;&gt;Node2 -->
<g id="edge1_Node000001_Node000002" class="edge">
<title>Node1&#45;&gt;Node2</title>
<g id="a_edge1_Node000001_Node000002"><a xlink:title=" ">
<path fill="none" stroke="#63b8ff" d="M98.34,-359.54C121.97,-365.83 153.12,-374.13 178.49,-380.88"/>
<polygon fill="#63b8ff" stroke="#63b8ff" points="177.69,-384.29 188.26,-383.48 179.5,-377.53 177.69,-384.29"/>
</a>
</g>
</g>
<!-- Node3 -->
<g id="Node000003" class="node">
<title>Node3</title>
<g id="a_Node000003"><a xlink:href="m__bubbles__EE_8fpp_8f90.html#a661591fb6b056fbef9867502c2627264" target="_top" xlink:title="The purpose of this procedure is to compute the source terms that are needed for the bubble modeling.">
<polygon fill="white" stroke="#666666" points="287.5,-365 162.5,-365 162.5,-335 287.5,-335 287.5,-365"/>
<text text-anchor="start" x="170.5" y="-353" font-family="Helvetica,sans-Serif" font-size="10.00">s_compute_bubble_ee</text>
<text text-anchor="middle" x="225" y="-342" font-family="Helvetica,sans-Serif" font-size="10.00">_source</text>
</a>
</g>
</g>
<!-- Node1&#45;&gt;Node3 -->
<g id="edge2_Node000001_Node000003" class="edge">
<title>Node1&#45;&gt;Node3</title>
<g id="a_edge2_Node000001_Node000003"><a xlink:title=" ">
<path fill="none" stroke="#63b8ff" d="M123.1,-350C132.6,-350 142.49,-350 152.21,-350"/>
<polygon fill="#63b8ff" stroke="#63b8ff" points="152.26,-353.5 162.26,-350 152.26,-346.5 152.26,-353.5"/>
</a>
</g>
</g>
<!-- Node19 -->
<g id="Node000019" class="node">
<title>Node19</title>
<g id="a_Node000019"><a xlink:href="m__variables__conversion_8fpp_8f90.html#ac269816c5c0ef9758b03e89cf59d3c50" target="_top" xlink:title="The following procedure handles the conversion between the conservative variables and the primitive v...">
<polygon fill="white" stroke="#666666" points="291,-196 159,-196 159,-166 291,-166 291,-196"/>
<text text-anchor="start" x="167" y="-184" font-family="Helvetica,sans-Serif" font-size="10.00">s_convert_conservative</text>
<text text-anchor="middle" x="225" y="-173" font-family="Helvetica,sans-Serif" font-size="10.00">_to_primitive_variables</text>
</a>
</g>
</g>
<!-- Node1&#45;&gt;Node19 -->
<g id="edge32_Node000001_Node000019" class="edge">
<title>Node1&#45;&gt;Node19</title>
<g id="a_edge32_Node000001_Node000019"><a xlink:title=" ">
<path fill="none" stroke="#63b8ff" d="M71.65,-340.43C96.69,-314.22 166.88,-240.77 202.57,-203.42"/>
<polygon fill="#63b8ff" stroke="#63b8ff" points="205.26,-205.68 209.64,-196.03 200.2,-200.84 205.26,-205.68"/>
</a>
</g>
</g>
<!-- Node4 -->
<g id="Node000004" class="node">
<title>Node4</title>
<g id="a_Node000004"><a xlink:href="m__bubbles_8fpp_8f90.html#a9424c35de6d8426f58213f77f2286108" target="_top" xlink:title="Function that computes the time derivative of the internal bubble pressure.">
<polygon fill="white" stroke="#666666" points="452,-490.5 378,-490.5 378,-471.5 452,-471.5 452,-490.5"/>
<text text-anchor="middle" x="415" y="-478.5" font-family="Helvetica,sans-Serif" font-size="10.00">f_bpres_dot</text>
</a>
</g>
</g>
<!-- Node3&#45;&gt;Node4 -->
<g id="edge3_Node000003_Node000004" class="edge">
<title>Node3&#45;&gt;Node4</title>
<g id="a_edge3_Node000003_Node000004"><a xlink:title=" ">
<path fill="none" stroke="#63b8ff" d="M277.34,-365.12C282.3,-367.89 286.98,-371.16 291,-375 319.79,-402.48 296.9,-430.96 327,-457 338.36,-466.83 353.42,-472.66 367.8,-476.11"/>
<polygon fill="#63b8ff" stroke="#63b8ff" points="367.1,-479.54 377.6,-478.14 368.52,-472.69 367.1,-479.54"/>
</a>
</g>
</g>
<!-- Node5 -->
<g id="Node000005" class="node">
<title>Node5</title>
<g id="a_Node000005"><a xlink:href="m__bubbles__EE_8fpp_8f90.html#a3e1372a97974d8db14459b39c530832d" target="_top" xlink:title="Function that computes the bubble radial acceleration based on bubble models.">
<polygon fill="white" stroke="#666666" points="641.5,-359.5 590.5,-359.5 590.5,-340.5 641.5,-340.5 641.5,-359.5"/>
<text text-anchor="middle" x="616" y="-347.5" font-family="Helvetica,sans-Serif" font-size="10.00">f_rddot</text>
</a>
</g>
</g>
<!-- Node3&#45;&gt;Node5 -->
<g id="edge5_Node000003_Node000005" class="edge">
<title>Node3&#45;&gt;Node5</title>
<g id="a_edge5_Node000003_Node000005"><a xlink:title=" ">
<path fill="none" stroke="#63b8ff" d="M274.52,-365.06C280.35,-367.89 286,-371.18 291,-375 312.48,-391.4 302.89,-411.8 327,-424 396.79,-459.33 428.09,-446.51 503,-424 540.27,-412.8 576.57,-384.72 597.31,-366.55"/>
<polygon fill="#63b8ff" stroke="#63b8ff" points="599.87,-368.97 604.96,-359.68 595.18,-363.76 599.87,-368.97"/>
</a>
</g>
</g>
<!-- Node15 -->
<g id="Node000015" class="node">
<title>Node15</title>
<g id="a_Node000015"><a xlink:href="m__bubbles_8fpp_8f90.html#a851239f7357e8af588e7ecb0d6a4cbed" target="_top" xlink:title="Function that computes the vapour flux.">
<polygon fill="white" stroke="#666666" points="440,-396.5 390,-396.5 390,-377.5 440,-377.5 440,-396.5"/>
<text text-anchor="middle" x="415" y="-384.5" font-family="Helvetica,sans-Serif" font-size="10.00">f_vflux</text>
</a>
</g>
</g>
<!-- Node3&#45;&gt;Node15 -->
<g id="edge25_Node000003_Node000015" class="edge">
<title>Node3&#45;&gt;Node15</title>
<g id="a_edge25_Node000003_Node000015"><a xlink:title=" ">
<path fill="none" stroke="#63b8ff" d="M287.56,-362.12C318.24,-368.15 354.18,-375.23 379.88,-380.29"/>
<polygon fill="#63b8ff" stroke="#63b8ff" points="379.4,-383.76 389.89,-382.25 380.75,-376.89 379.4,-383.76"/>
</a>
</g>
</g>
<!-- Node16 -->
<g id="Node000016" class="node">
<title>Node16</title>
<g id="a_Node000016"><a xlink:href="m__bubbles__EE_8fpp_8f90.html#aa6a7a8d0688764fb4299cec97a29959b" target="_top" xlink:title="Integrate bubble variables over the given time step size, h.">
<polygon fill="white" stroke="#666666" points="471,-359.5 359,-359.5 359,-340.5 471,-340.5 471,-359.5"/>
<text text-anchor="middle" x="415" y="-347.5" font-family="Helvetica,sans-Serif" font-size="10.00">s_advance_substep</text>
</a>
</g>
</g>
<!-- Node3&#45;&gt;Node16 -->
<g id="edge27_Node000003_Node000016" class="edge">
<title>Node3&#45;&gt;Node16</title>
<g id="a_edge27_Node000003_Node000016"><a xlink:title=" ">
<path fill="none" stroke="#63b8ff" d="M287.56,-350C307.16,-350 328.92,-350 348.77,-350"/>
<polygon fill="#63b8ff" stroke="#63b8ff" points="348.96,-353.5 358.96,-350 348.96,-346.5 348.96,-353.5"/>
</a>
</g>
</g>
<!-- Node17 -->
<g id="Node000017" class="node">
<title>Node17</title>
<g id="a_Node000017"><a xlink:href="m__bubbles_8fpp_8f90.html#a8a11f32e3e991cbcfa764074a62f2492" target="_top" xlink:title="Subroutine that computes bubble wall properties for vapor bubbles.">
<polygon fill="white" stroke="#666666" points="456.5,-322.5 373.5,-322.5 373.5,-303.5 456.5,-303.5 456.5,-322.5"/>
<text text-anchor="middle" x="415" y="-310.5" font-family="Helvetica,sans-Serif" font-size="10.00">s_bwproperty</text>
</a>
</g>
</g>
<!-- Node3&#45;&gt;Node17 -->
<g id="edge29_Node000003_Node000017" class="edge">
<title>Node3&#45;&gt;Node17</title>
<g id="a_edge29_Node000003_Node000017"><a xlink:title=" ">
<path fill="none" stroke="#63b8ff" d="M287.56,-337.88C312.09,-333.06 339.99,-327.57 363.32,-322.97"/>
<polygon fill="#63b8ff" stroke="#63b8ff" points="364.22,-326.36 373.36,-321 362.87,-319.5 364.22,-326.36"/>
</a>
</g>
</g>
<!-- Node18 -->
<g id="Node000018" class="node">
<title>Node18</title>
<g id="a_Node000018"><a xlink:href="m__bubbles__EE_8fpp_8f90.html#a702b8f5e21b2df53b6793548d8b989e0" target="_top" xlink:title="Choose the initial time step size for the adaptive time stepping routine (See Heirer,...">
<polygon fill="white" stroke="#666666" points="471.5,-285.5 358.5,-285.5 358.5,-266.5 471.5,-266.5 471.5,-285.5"/>
<text text-anchor="middle" x="415" y="-273.5" font-family="Helvetica,sans-Serif" font-size="10.00">s_initialize_adap_dt</text>
</a>
</g>
</g>
<!-- Node3&#45;&gt;Node18 -->
<g id="edge30_Node000003_Node000018" class="edge">
<title>Node3&#45;&gt;Node18</title>
<g id="a_edge30_Node000003_Node000018"><a xlink:title=" ">
<path fill="none" stroke="#63b8ff" d="M249.17,-334.9C269.09,-322.55 298.94,-305.46 327,-295 334.05,-292.37 341.57,-290.06 349.11,-288.03"/>
<polygon fill="#63b8ff" stroke="#63b8ff" points="350.18,-291.37 359.02,-285.53 348.46,-284.58 350.18,-291.37"/>
</a>
</g>
</g>
<!-- Node4&#45;&gt;Node4 -->
<g id="edge4_Node000004_Node000004" class="edge">
<title>Node4&#45;&gt;Node4</title>
<g id="a_edge4_Node000004_Node000004"><a xlink:title=" ">
<path fill="none" stroke="#63b8ff" d="M385.72,-490.58C371.47,-499.23 381.23,-508.5 415,-508.5 438.22,-508.5 450.09,-504.12 450.61,-498.57"/>
<polygon fill="#63b8ff" stroke="#63b8ff" points="453.23,-496.25 444.28,-490.58 447.75,-500.6 453.23,-496.25"/>
</a>
</g>
</g>
<!-- Node5&#45;&gt;Node5 -->
<g id="edge18_Node000005_Node000005" class="edge">
<title>Node5&#45;&gt;Node5</title>
<g id="a_edge18_Node000005_Node000005"><a xlink:title=" ">
<path fill="none" stroke="#63b8ff" d="M593.19,-359.58C582.09,-368.23 589.7,-377.5 616,-377.5 632.85,-377.5 642.03,-373.7 643.53,-368.69"/>
<polygon fill="#63b8ff" stroke="#63b8ff" points="646.52,-366.85 638.81,-359.58 640.3,-370.07 646.52,-366.85"/>
</a>
</g>
</g>
<!-- Node6 -->
<g id="Node000006" class="node">
<title>Node6</title>
<g id="a_Node000006"><a xlink:href="m__bubbles_8fpp_8f90.html#ab0ac0947d48440f35574b246710fc2c4" target="_top" xlink:title="Function that computes the sound speed for the bubble.">
<polygon fill="white" stroke="#666666" points="789,-579.5 741,-579.5 741,-560.5 789,-560.5 789,-579.5"/>
<text text-anchor="middle" x="765" y="-567.5" font-family="Helvetica,sans-Serif" font-size="10.00">f_cgas</text>
</a>
</g>
</g>
<!-- Node5&#45;&gt;Node6 -->
<g id="edge6_Node000005_Node000006" class="edge">
<title>Node5&#45;&gt;Node6</title>
<g id="a_edge6_Node000005_Node000006"><a xlink:title=" ">
<path fill="none" stroke="#63b8ff" d="M620.08,-359.7C630.52,-391.25 667.38,-492.28 729,-552 730.07,-553.04 731.22,-554.03 732.42,-554.98"/>
<polygon fill="#63b8ff" stroke="#63b8ff" points="730.59,-557.97 740.86,-560.57 734.45,-552.13 730.59,-557.97"/>
</a>
</g>
</g>
<!-- Node7 -->
<g id="Node000007" class="node">
<title>Node7</title>
<g id="a_Node000007"><a xlink:href="m__bubbles_8fpp_8f90.html#af98280f380da0387ba9ec1f48eb4cec3" target="_top" xlink:title="Function that computes that bubble wall pressure for Gilmore bubbles.">
<polygon fill="white" stroke="#666666" points="790.5,-524.5 739.5,-524.5 739.5,-505.5 790.5,-505.5 790.5,-524.5"/>
<text text-anchor="middle" x="765" y="-512.5" font-family="Helvetica,sans-Serif" font-size="10.00">f_cpbw</text>
</a>
</g>
</g>
<!-- Node5&#45;&gt;Node7 -->
<g id="edge8_Node000005_Node000007" class="edge">
<title>Node5&#45;&gt;Node7</title>
<g id="a_edge8_Node000005_Node000007"><a xlink:title=" ">
<path fill="none" stroke="#63b8ff" d="M622.35,-359.77C636.69,-385.23 678.34,-454.55 729,-497 730.18,-497.99 731.42,-498.94 732.7,-499.86"/>
<polygon fill="#63b8ff" stroke="#63b8ff" points="731.25,-503.07 741.59,-505.37 734.94,-497.12 731.25,-503.07"/>
</a>
</g>
</g>
<!-- Node8 -->
<g id="Node000008" class="node">
<title>Node8</title>
<g id="a_Node000008"><a xlink:href="m__bubbles_8fpp_8f90.html#a2bbc9a7f555b4d1fedc9c62eb1000491" target="_top" xlink:title="Function that computes the bubble wall pressure for Keller–Miksis bubbles.">
<polygon fill="white" stroke="#666666" points="801,-469.5 729,-469.5 729,-450.5 801,-450.5 801,-469.5"/>
<text text-anchor="middle" x="765" y="-457.5" font-family="Helvetica,sans-Serif" font-size="10.00">f_cpbw_km</text>
</a>
</g>
</g>
<!-- Node5&#45;&gt;Node8 -->
<g id="edge10_Node000005_Node000008" class="edge">
<title>Node5&#45;&gt;Node8</title>
<g id="a_edge10_Node000005_Node000008"><a xlink:title=" ">
<path fill="none" stroke="#63b8ff" d="M627.23,-359.68C646.26,-377.38 688.83,-415.61 729,-442 730.86,-443.22 732.8,-444.42 734.79,-445.59"/>
<polygon fill="#63b8ff" stroke="#63b8ff" points="733.15,-448.67 743.6,-450.43 736.52,-442.54 733.15,-448.67"/>
</a>
</g>
</g>
<!-- Node9 -->
<g id="Node000009" class="node">
<title>Node9</title>
<g id="a_Node000009"><a xlink:href="m__bubbles_8fpp_8f90.html#adb6eece8a8e4634f8e0ef654d103e659" target="_top" xlink:title="Function that computes the time derivative of the driving pressure.">
<polygon fill="white" stroke="#666666" points="797.5,-414.5 732.5,-414.5 732.5,-395.5 797.5,-395.5 797.5,-414.5"/>
<text text-anchor="middle" x="765" y="-402.5" font-family="Helvetica,sans-Serif" font-size="10.00">f_cpinfdot</text>
</a>
</g>
</g>
<!-- Node5&#45;&gt;Node9 -->
<g id="edge12_Node000005_Node000009" class="edge">
<title>Node5&#45;&gt;Node9</title>
<g id="a_edge12_Node000005_Node000009"><a xlink:title=" ">
<path fill="none" stroke="#63b8ff" d="M641.6,-359.21C665.48,-368.14 701.96,-381.79 728.88,-391.86"/>
<polygon fill="#63b8ff" stroke="#63b8ff" points="727.73,-395.17 738.33,-395.39 730.19,-388.61 727.73,-395.17"/>
</a>
</g>
</g>
<!-- Node10 -->
<g id="Node000010" class="node">
<title>Node10</title>
<g id="a_Node000010"><a xlink:href="m__bubbles_8fpp_8f90.html#a15f61d914c989ed4d7d1144dd9679254" target="_top" xlink:title="Function that computes the bubble enthalpy.">
<polygon fill="white" stroke="#666666" points="781,-359.5 749,-359.5 749,-340.5 781,-340.5 781,-359.5"/>
<text text-anchor="middle" x="765" y="-347.5" font-family="Helvetica,sans-Serif" font-size="10.00">f_h</text>
</a>
</g>
</g>
<!-- Node5&#45;&gt;Node10 -->
<g id="edge14_Node000005_Node000010" class="edge">
<title>Node5&#45;&gt;Node10</title>
<g id="a_edge14_Node000005_Node000010"><a xlink:title=" ">
<path fill="none" stroke="#63b8ff" d="M641.6,-350C668.47,-350 711.29,-350 738.5,-350"/>
<polygon fill="#63b8ff" stroke="#63b8ff" points="738.78,-353.5 748.78,-350 738.78,-346.5 738.78,-353.5"/>
</a>
</g>
</g>
<!-- Node11 -->
<g id="Node000011" class="node">
<title>Node11</title>
<g id="a_Node000011"><a xlink:href="m__bubbles_8fpp_8f90.html#a5c800bcc29be182ff4b82b32ebe385a0" target="_top" xlink:title="Function that computes the time derivative of the enthalpy.">
<polygon fill="white" stroke="#666666" points="788.5,-304.5 741.5,-304.5 741.5,-285.5 788.5,-285.5 788.5,-304.5"/>
<text text-anchor="middle" x="765" y="-292.5" font-family="Helvetica,sans-Serif" font-size="10.00">f_hdot</text>
</a>
</g>
</g>
<!-- Node5&#45;&gt;Node11 -->
<g id="edge16_Node000005_Node000011" class="edge">
<title>Node5&#45;&gt;Node11</title>
<g id="a_edge16_Node000005_Node000011"><a xlink:title=" ">
<path fill="none" stroke="#63b8ff" d="M641.6,-340.79C666.35,-331.53 704.64,-317.21 731.8,-307.05"/>
<polygon fill="#63b8ff" stroke="#63b8ff" points="733.11,-310.29 741.25,-303.51 730.66,-303.74 733.11,-310.29"/>
</a>
</g>
</g>
<!-- Node12 -->
<g id="Node000012" class="node">
<title>Node12</title>
<g id="a_Node000012"><a xlink:href="m__bubbles_8fpp_8f90.html#a57f445c9fe39d49a07aa5ef23de29eef" target="_top" xlink:title="Function that computes the bubble radial acceleration.">
<polygon fill="white" stroke="#666666" points="796,-249.5 734,-249.5 734,-230.5 796,-230.5 796,-249.5"/>
<text text-anchor="middle" x="765" y="-237.5" font-family="Helvetica,sans-Serif" font-size="10.00">f_rddot_g</text>
</a>
</g>
</g>
<!-- Node5&#45;&gt;Node12 -->
<g id="edge19_Node000005_Node000012" class="edge">
<title>Node5&#45;&gt;Node12</title>
<g id="a_edge19_Node000005_Node000012"><a xlink:title=" ">
<path fill="none" stroke="#63b8ff" d="M629.79,-340.43C655.09,-321.5 711.77,-279.08 742.76,-255.89"/>
<polygon fill="#63b8ff" stroke="#63b8ff" points="745.23,-258.42 751.14,-249.63 741.03,-252.81 745.23,-258.42"/>
</a>
</g>
</g>
<!-- Node13 -->
<g id="Node000013" class="node">
<title>Node13</title>
<g id="a_Node000013"><a xlink:href="m__bubbles_8fpp_8f90.html#ab2626844d2d33110f39cb680d2bf113e" target="_top" xlink:title="Function that computes the bubble radial acceleration for Keller–Miksis bubbles.">
<polygon fill="white" stroke="#666666" points="801,-194.5 729,-194.5 729,-175.5 801,-175.5 801,-194.5"/>
<text text-anchor="middle" x="765" y="-182.5" font-family="Helvetica,sans-Serif" font-size="10.00">f_rddot_km</text>
</a>
</g>
</g>
<!-- Node5&#45;&gt;Node13 -->
<g id="edge21_Node000005_Node000013" class="edge">
<title>Node5&#45;&gt;Node13</title>
<g id="a_edge21_Node000005_Node000013"><a xlink:title=" ">
<path fill="none" stroke="#63b8ff" d="M625.3,-340.25C643.71,-318.7 689.46,-265.46 729,-222 735.03,-215.38 741.76,-208.21 747.7,-201.96"/>
<polygon fill="#63b8ff" stroke="#63b8ff" points="750.31,-204.29 754.68,-194.64 745.25,-199.46 750.31,-204.29"/>
</a>
</g>
</g>
<!-- Node14 -->
<g id="Node000014" class="node">
<title>Node14</title>
<g id="a_Node000014"><a xlink:href="m__bubbles_8fpp_8f90.html#a9cca2f30ab2f04b334e219081b0fcb70" target="_top" xlink:title="Function that computes the bubble radial acceleration for Rayleigh&#45;Plesset bubbles.">
<polygon fill="white" stroke="#666666" points="798,-139.5 732,-139.5 732,-120.5 798,-120.5 798,-139.5"/>
<text text-anchor="middle" x="765" y="-127.5" font-family="Helvetica,sans-Serif" font-size="10.00">f_rddot_rp</text>
</a>
</g>
</g>
<!-- Node5&#45;&gt;Node14 -->
<g id="edge23_Node000005_Node000014" class="edge">
<title>Node5&#45;&gt;Node14</title>
<g id="a_edge23_Node000005_Node000014"><a xlink:title=" ">
<path fill="none" stroke="#63b8ff" d="M621.94,-340.41C636.54,-312.46 681.45,-229.11 729,-167 734.37,-159.99 740.87,-152.82 746.81,-146.68"/>
<polygon fill="#63b8ff" stroke="#63b8ff" points="749.33,-149.11 753.9,-139.55 744.37,-144.17 749.33,-149.11"/>
</a>
</g>
</g>
<!-- Node6&#45;&gt;Node6 -->
<g id="edge7_Node000006_Node000006" class="edge">
<title>Node6&#45;&gt;Node6</title>
<g id="a_edge7_Node000006_Node000006"><a xlink:title=" ">
<path fill="none" stroke="#63b8ff" d="M742.19,-579.58C731.09,-588.23 738.7,-597.5 765,-597.5 781.85,-597.5 791.03,-593.7 792.53,-588.69"/>
<polygon fill="#63b8ff" stroke="#63b8ff" points="795.52,-586.85 787.81,-579.58 789.3,-590.07 795.52,-586.85"/>
</a>
</g>
</g>
<!-- Node7&#45;&gt;Node7 -->
<g id="edge9_Node000007_Node000007" class="edge">
<title>Node7&#45;&gt;Node7</title>
<g id="a_edge9_Node000007_Node000007"><a xlink:title=" ">
<path fill="none" stroke="#63b8ff" d="M742.19,-524.58C731.09,-533.23 738.7,-542.5 765,-542.5 781.85,-542.5 791.03,-538.7 792.53,-533.69"/>
<polygon fill="#63b8ff" stroke="#63b8ff" points="795.52,-531.85 787.81,-524.58 789.3,-535.07 795.52,-531.85"/>
</a>
</g>
</g>
<!-- Node8&#45;&gt;Node8 -->
<g id="edge11_Node000008_Node000008" class="edge">
<title>Node8&#45;&gt;Node8</title>
<g id="a_edge11_Node000008_Node000008"><a xlink:title=" ">
<path fill="none" stroke="#63b8ff" d="M742.19,-469.58C731.09,-478.23 738.7,-487.5 765,-487.5 781.85,-487.5 791.03,-483.7 792.53,-478.69"/>
<polygon fill="#63b8ff" stroke="#63b8ff" points="795.52,-476.85 787.81,-469.58 789.3,-480.07 795.52,-476.85"/>
</a>
</g>
</g>
<!-- Node9&#45;&gt;Node9 -->
<g id="edge13_Node000009_Node000009" class="edge">
<title>Node9&#45;&gt;Node9</title>
<g id="a_edge13_Node000009_Node000009"><a xlink:title=" ">
<path fill="none" stroke="#63b8ff" d="M742.19,-414.58C731.09,-423.23 738.7,-432.5 765,-432.5 781.85,-432.5 791.03,-428.7 792.53,-423.69"/>
<polygon fill="#63b8ff" stroke="#63b8ff" points="795.52,-421.85 787.81,-414.58 789.3,-425.07 795.52,-421.85"/>
</a>
</g>
</g>
<!-- Node10&#45;&gt;Node10 -->
<g id="edge15_Node000010_Node000010" class="edge">
<title>Node10&#45;&gt;Node10</title>
<g id="a_edge15_Node000010_Node000010"><a xlink:title=" ">
<path fill="none" stroke="#63b8ff" d="M748.92,-355.53C729.14,-365.05 734.5,-377.5 765,-377.5 789.78,-377.5 797.96,-369.28 789.55,-361.09"/>
<polygon fill="#63b8ff" stroke="#63b8ff" points="791.36,-358.09 781.08,-355.53 787.52,-363.95 791.36,-358.09"/>
</a>
</g>
</g>
<!-- Node11&#45;&gt;Node11 -->
<g id="edge17_Node000011_Node000011" class="edge">
<title>Node11&#45;&gt;Node11</title>
<g id="a_edge17_Node000011_Node000011"><a xlink:title=" ">
<path fill="none" stroke="#63b8ff" d="M742.19,-304.58C731.09,-313.23 738.7,-322.5 765,-322.5 781.85,-322.5 791.03,-318.7 792.53,-313.69"/>
<polygon fill="#63b8ff" stroke="#63b8ff" points="795.52,-311.85 787.81,-304.58 789.3,-315.07 795.52,-311.85"/>
</a>
</g>
</g>
<!-- Node12&#45;&gt;Node12 -->
<g id="edge20_Node000012_Node000012" class="edge">
<title>Node12&#45;&gt;Node12</title>
<g id="a_edge20_Node000012_Node000012"><a xlink:title=" ">
<path fill="none" stroke="#63b8ff" d="M742.19,-249.58C731.09,-258.23 738.7,-267.5 765,-267.5 781.85,-267.5 791.03,-263.7 792.53,-258.69"/>
<polygon fill="#63b8ff" stroke="#63b8ff" points="795.52,-256.85 787.81,-249.58 789.3,-260.07 795.52,-256.85"/>
</a>
</g>
</g>
<!-- Node13&#45;&gt;Node13 -->
<g id="edge22_Node000013_Node000013" class="edge">
<title>Node13&#45;&gt;Node13</title>
<g id="a_edge22_Node000013_Node000013"><a xlink:title=" ">
<path fill="none" stroke="#63b8ff" d="M742.19,-194.58C731.09,-203.23 738.7,-212.5 765,-212.5 781.85,-212.5 791.03,-208.7 792.53,-203.69"/>
<polygon fill="#63b8ff" stroke="#63b8ff" points="795.52,-201.85 787.81,-194.58 789.3,-205.07 795.52,-201.85"/>
</a>
</g>
</g>
<!-- Node14&#45;&gt;Node14 -->
<g id="edge24_Node000014_Node000014" class="edge">
<title>Node14&#45;&gt;Node14</title>
<g id="a_edge24_Node000014_Node000014"><a xlink:title=" ">
<path fill="none" stroke="#63b8ff" d="M742.19,-139.58C731.09,-148.23 738.7,-157.5 765,-157.5 781.85,-157.5 791.03,-153.7 792.53,-148.69"/>
<polygon fill="#63b8ff" stroke="#63b8ff" points="795.52,-146.85 787.81,-139.58 789.3,-150.07 795.52,-146.85"/>
</a>
</g>
</g>
<!-- Node15&#45;&gt;Node15 -->
<g id="edge26_Node000015_Node000015" class="edge">
<title>Node15&#45;&gt;Node15</title>
<g id="a_edge26_Node000015_Node000015"><a xlink:title=" ">
<path fill="none" stroke="#63b8ff" d="M389.73,-394.46C370.02,-403.64 378.45,-414.5 415,-414.5 444.13,-414.5 455.39,-407.61 448.8,-400.16"/>
<polygon fill="#63b8ff" stroke="#63b8ff" points="450.53,-397.11 440.27,-394.46 446.64,-402.93 450.53,-397.11"/>
</a>
</g>
</g>
<!-- Node16&#45;&gt;Node5 -->
<g id="edge28_Node000016_Node000005" class="edge">
<title>Node16&#45;&gt;Node5</title>
<g id="a_edge28_Node000016_Node000005"><a xlink:title=" ">
<path fill="none" stroke="#63b8ff" d="M471.17,-350C506.15,-350 550.33,-350 580.43,-350"/>
<polygon fill="#63b8ff" stroke="#63b8ff" points="580.45,-353.5 590.45,-350 580.45,-346.5 580.45,-353.5"/>
</a>
</g>
</g>
<!-- Node18&#45;&gt;Node5 -->
<g id="edge31_Node000018_Node000005" class="edge">
<title>Node18&#45;&gt;Node5</title>
<g id="a_edge31_Node000018_Node000005"><a xlink:title=" ">
<path fill="none" stroke="#63b8ff" d="M469.48,-285.55C480.69,-288.14 492.34,-291.28 503,-295 533.96,-305.8 567.47,-323.06 589.68,-335.36"/>
<polygon fill="#63b8ff" stroke="#63b8ff" points="588.04,-338.45 598.47,-340.3 591.47,-332.35 588.04,-338.45"/>
</a>
</g>
</g>
<!-- Node20 -->
<g id="Node000020" class="node">
<title>Node20</title>
<g id="a_Node000020"><a xlink:href="m__helper_8fpp_8f90.html#a772c75c8b24c414cfaed17e2f8acc772" target="_top" xlink:title=" ">
<polygon fill="white" stroke="#666666" points="476,-248.5 354,-248.5 354,-229.5 476,-229.5 476,-248.5"/>
<text text-anchor="middle" x="415" y="-236.5" font-family="Helvetica,sans-Serif" font-size="10.00">s_comp_n_from_cons</text>
</a>
</g>
</g>
<!-- Node19&#45;&gt;Node20 -->
<g id="edge33_Node000019_Node000020" class="edge">
<title>Node19&#45;&gt;Node20</title>
<g id="a_edge33_Node000019_Node000020"><a xlink:title=" ">
<path fill="none" stroke="#63b8ff" d="M259.61,-196.01C279.02,-204.24 304.05,-214.14 327,-221 334.48,-223.24 342.41,-225.29 350.31,-227.15"/>
<polygon fill="#63b8ff" stroke="#63b8ff" points="349.74,-230.61 360.26,-229.4 351.28,-223.78 349.74,-230.61"/>
</a>
</g>
</g>
<!-- Node21 -->
<g id="Node000021" class="node">
<title>Node21</title>
<g id="a_Node000021"><a xlink:href="m__variables__conversion_8fpp_8f90.html#ad74ef9c6e5144ef4389c41fab6f94e31" target="_top" xlink:title="This procedure conditionally calculates the appropriate pressure.">
<polygon fill="white" stroke="#666666" points="473.5,-211.5 356.5,-211.5 356.5,-192.5 473.5,-192.5 473.5,-211.5"/>
<text text-anchor="middle" x="415" y="-199.5" font-family="Helvetica,sans-Serif" font-size="10.00">s_compute_pressure</text>
</a>
</g>
</g>
<!-- Node19&#45;&gt;Node21 -->
<g id="edge34_Node000019_Node000021" class="edge">
<title>Node19&#45;&gt;Node21</title>
<g id="a_edge34_Node000019_Node000021"><a xlink:title=" ">
<path fill="none" stroke="#63b8ff" d="M291.23,-188.29C309.04,-190.28 328.38,-192.44 346.33,-194.44"/>
<polygon fill="#63b8ff" stroke="#63b8ff" points="346.09,-197.94 356.42,-195.57 346.87,-190.98 346.09,-197.94"/>
</a>
</g>
</g>
<!-- Node22 -->
<g id="Node000022" class="node">
<title>Node22</title>
<g id="a_Node000022"><a xlink:href="m__variables__conversion_8fpp_8f90.html#ad0657ad9f2f6277b10693e899ff84b68" target="_top" xlink:title=" ">
<polygon fill="white" stroke="#666666" points="481,-174 349,-174 349,-144 481,-144 481,-174"/>
<text text-anchor="start" x="357" y="-162" font-family="Helvetica,sans-Serif" font-size="10.00">s_convert_species_to</text>
<text text-anchor="middle" x="415" y="-151" font-family="Helvetica,sans-Serif" font-size="10.00">_mixture_variables_acc</text>
</a>
</g>
</g>
<!-- Node19&#45;&gt;Node22 -->
<g id="edge35_Node000019_Node000022" class="edge">
<title>Node19&#45;&gt;Node22</title>
<g id="a_edge35_Node000019_Node000022"><a xlink:title=" ">
<path fill="none" stroke="#63b8ff" d="M291.23,-173.37C306.54,-171.58 322.98,-169.65 338.69,-167.81"/>
<polygon fill="#63b8ff" stroke="#63b8ff" points="339.36,-171.26 348.89,-166.62 338.55,-164.31 339.36,-171.26"/>
</a>
</g>
</g>
<!-- Node23 -->
<g id="Node000023" class="node">
<title>Node23</title>
<g id="a_Node000023"><a xlink:href="m__variables__conversion_8fpp_8f90.html#a18920a8493fb62dd7bba5eefab778b31" target="_top" xlink:title=" ">
<polygon fill="white" stroke="#666666" points="503,-126 327,-126 327,-96 503,-96 503,-126"/>
<text text-anchor="start" x="335" y="-114" font-family="Helvetica,sans-Serif" font-size="10.00">s_convert_species_to</text>
<text text-anchor="middle" x="415" y="-103" font-family="Helvetica,sans-Serif" font-size="10.00">_mixture_variables_bubbles_acc</text>
</a>
</g>
</g>
<!-- Node19&#45;&gt;Node23 -->
<g id="edge36_Node000019_Node000023" class="edge">
<title>Node19&#45;&gt;Node23</title>
<g id="a_edge36_Node000019_Node000023"><a xlink:title=" ">
<path fill="none" stroke="#63b8ff" d="M255.98,-165.83C275.8,-156.18 302.55,-143.88 327,-135 332.8,-132.89 338.87,-130.87 345,-128.95"/>
<polygon fill="#63b8ff" stroke="#63b8ff" points="346.09,-132.28 354.64,-126.02 344.05,-125.58 346.09,-132.28"/>
</a>
</g>
</g>
<!-- Node24 -->
<g id="Node000024" class="node">
<title>Node24</title>
<g id="a_Node000024"><a xlink:href="m__variables__conversion_8fpp_8f90.html#ab8bdf7610d49d294015daa441faabc01" target="_top" xlink:title="Dispatch to the s_convert_mixture_to_mixture_variables and s_convert_species_to_mixture_variables sub...">
<polygon fill="white" stroke="#666666" points="476,-78 354,-78 354,-48 476,-48 476,-78"/>
<text text-anchor="start" x="362" y="-66" font-family="Helvetica,sans-Serif" font-size="10.00">s_convert_to_mixture</text>
<text text-anchor="middle" x="415" y="-55" font-family="Helvetica,sans-Serif" font-size="10.00">_variables</text>
</a>
</g>
</g>
<!-- Node19&#45;&gt;Node24 -->
<g id="edge37_Node000019_Node000024" class="edge">
<title>Node19&#45;&gt;Node24</title>
<g id="a_edge37_Node000019_Node000024"><a xlink:title=" ">
<path fill="none" stroke="#63b8ff" d="M238.05,-165.93C255.49,-145.11 289.77,-107.79 327,-87 332.48,-83.94 338.37,-81.25 344.41,-78.89"/>
<polygon fill="#63b8ff" stroke="#63b8ff" points="345.76,-82.13 353.99,-75.45 343.4,-75.54 345.76,-82.13"/>
</a>
</g>
</g>
<!-- Node25 -->
<g id="Node000025" class="node">
<title>Node25</title>
<g id="a_Node000025"><a xlink:href="m__variables__conversion_8fpp_8f90.html#adec0ccf2a3298d2b375a9405a0fa7c1a" target="_top" xlink:title="This subroutine is designed for the gamma/pi_inf model and provided a set of either conservative or p...">
<polygon fill="white" stroke="#666666" points="677,-126 555,-126 555,-96 677,-96 677,-126"/>
<text text-anchor="start" x="563" y="-114" font-family="Helvetica,sans-Serif" font-size="10.00">s_convert_mixture_to</text>
<text text-anchor="middle" x="616" y="-103" font-family="Helvetica,sans-Serif" font-size="10.00">_mixture_variables</text>
</a>
</g>
</g>
<!-- Node24&#45;&gt;Node25 -->
<g id="edge38_Node000024_Node000025" class="edge">
<title>Node24&#45;&gt;Node25</title>
<g id="a_edge38_Node000024_Node000025"><a xlink:title=" ">
<path fill="none" stroke="#63b8ff" d="M476.25,-77.53C497.97,-82.77 522.67,-88.73 545.14,-94.15"/>
<polygon fill="#63b8ff" stroke="#63b8ff" points="544.42,-97.58 554.96,-96.52 546.06,-90.77 544.42,-97.58"/>
</a>
</g>
</g>
<!-- Node26 -->
<g id="Node000026" class="node">
<title>Node26</title>
<g id="a_Node000026"><a xlink:href="m__variables__conversion_8fpp_8f90.html#ac9e3787fd3c00962752030f2c218c3fc" target="_top" xlink:title="This subroutine is designed for the volume fraction model and provided a set of either conservative o...">
<polygon fill="white" stroke="#666666" points="676.5,-78 555.5,-78 555.5,-48 676.5,-48 676.5,-78"/>
<text text-anchor="start" x="563.5" y="-66" font-family="Helvetica,sans-Serif" font-size="10.00">s_convert_species_to</text>
<text text-anchor="middle" x="616" y="-55" font-family="Helvetica,sans-Serif" font-size="10.00">_mixture_variables</text>
</a>
</g>
</g>
<!-- Node24&#45;&gt;Node26 -->
<g id="edge39_Node000024_Node000026" class="edge">
<title>Node24&#45;&gt;Node26</title>
<g id="a_edge39_Node000024_Node000026"><a xlink:title=" ">
<path fill="none" stroke="#63b8ff" d="M476.25,-63C497.97,-63 522.67,-63 545.15,-63"/>
<polygon fill="#63b8ff" stroke="#63b8ff" points="545.3,-66.5 555.3,-63 545.3,-59.5 545.3,-66.5"/>
</a>
</g>
</g>
<!-- Node27 -->
<g id="Node000027" class="node">
<title>Node27</title>
<g id="a_Node000027"><a xlink:href="m__variables__conversion_8fpp_8f90.html#a975c2bf46f73cd704b4503e833f5ec3c" target="_top" xlink:title="This procedure is used alongside with the gamma/pi_inf model to transfer the density,...">
<polygon fill="white" stroke="#666666" points="693,-30 539,-30 539,0 693,0 693,-30"/>
<text text-anchor="start" x="547" y="-18" font-family="Helvetica,sans-Serif" font-size="10.00">s_convert_species_to</text>
<text text-anchor="middle" x="616" y="-7" font-family="Helvetica,sans-Serif" font-size="10.00">_mixture_variables_bubbles</text>
</a>
</g>
</g>
<!-- Node24&#45;&gt;Node27 -->
<g id="edge40_Node000024_Node000027" class="edge">
<title>Node24&#45;&gt;Node27</title>
<g id="a_edge40_Node000024_Node000027"><a xlink:title=" ">
<path fill="none" stroke="#63b8ff" d="M476.25,-48.47C497.18,-43.42 520.87,-37.7 542.68,-32.44"/>
<polygon fill="#63b8ff" stroke="#63b8ff" points="543.65,-35.81 552.55,-30.06 542,-29.01 543.65,-35.81"/>
</a>
</g>
</g>
</g>
</svg>
