<?xml version="1.0" encoding="UTF-8" standalone="no"?>
<!DOCTYPE svg PUBLIC "-//W3C//DTD SVG 1.1//EN"
 "http://www.w3.org/Graphics/SVG/1.1/DTD/svg11.dtd">
<!-- Generated by graphviz version 2.43.0 (0)
 -->
<!-- Title: s_adaptive_dt_bubble Pages: 1 -->
<!--zoomable 606 -->

<svg id="main" version="1.1" xmlns="http://www.w3.org/2000/svg" xmlns:xlink="http://www.w3.org/1999/xlink" xml:space="preserve" onload="init(evt)">

<style type="text/css"><![CDATA[
.node, .edge {opacity: 0.7;}
.node.selected, .edge.selected {opacity: 1;}
.edge:hover path { stroke: red; }
.edge:hover polygon { stroke: red; fill: red; }
]]></style>

<defs>
  <circle id="rim" cx="0" cy="0" r="7"/>
  <circle id="rim2" cx="0" cy="0" r="3.5"/>
  <g id="zoomPlus">
    <use xlink:href="#rim" fill="#404040"><set attributeName="fill" to="#808080" begin="zoomplus.mouseover" end="zoomplus.mouseout"/></use>
    <path d="M-4,0h8M0,-4v8" fill="none" stroke="white" stroke-width="1.5" pointer-events="none"/>
  </g>
  <g id="zoomMin">
    <use xlink:href="#rim" fill="#404040"><set attributeName="fill" to="#808080" begin="zoomminus.mouseover" end="zoomminus.mouseout"/></use>
    <path d="M-4,0h8" fill="none" stroke="white" stroke-width="1.5" pointer-events="none"/>
  </g>
  <g id="arrowUp" transform="translate(30 24)">
    <use xlink:href="#rim"/>
    <path pointer-events="none" fill="none" stroke="white" stroke-width="1.5" d="M0,-3.0v7 M-2.5,-0.5L0,-3.0L2.5,-0.5"/>
  </g>
  <g id="arrowRight" transform="rotate(90) translate(36 -43)">
    <use xlink:href="#rim"/>
    <path pointer-events="none" fill="none" stroke="white" stroke-width="1.5" d="M0,-3.0v7 M-2.5,-0.5L0,-3.0L2.5,-0.5"/>
  </g>
  <g id="arrowDown" transform="rotate(180) translate(-30 -48)">
    <use xlink:href="#rim"/>
    <path pointer-events="none" fill="none" stroke="white" stroke-width="1.5" d="M0,-3.0v7 M-2.5,-0.5L0,-3.0L2.5,-0.5"/>
  </g>
  <g id="arrowLeft" transform="rotate(270) translate(-36 17)">
    <use xlink:href="#rim"/>
    <path pointer-events="none" fill="none" stroke="white" stroke-width="1.5" d="M0,-3.0v7 M-2.5,-0.5L0,-3.0L2.5,-0.5"/>
  </g>
  <g id="resetDef">
    <use xlink:href="#rim2" fill="#404040"><set attributeName="fill" to="#808080" begin="reset.mouseover" end="reset.mouseout"/></use>
  </g>
</defs>
<script type="application/ecmascript">
var viewWidth = 823;
var viewHeight = 606;
var sectionId = 'dynsection-6';
</script>
<script type="application/ecmascript" xlink:href="svg.min.js"/>
<svg id="graph" class="graph">
<g id="viewport">
<title>s_adaptive_dt_bubble</title>
<!-- Node1 -->
<g id="Node000001" class="node">
<title>Node1</title>
<g id="a_Node000001"><a xlink:title="Bubble source part in Strang operator splitting scheme.">
<polygon fill="#999999" stroke="#666666" points="123,-359.5 0,-359.5 0,-340.5 123,-340.5 123,-359.5"/>
<text text-anchor="middle" x="61.5" y="-347.5" font-family="Helvetica,sans-Serif" font-size="10.00">s_adaptive_dt_bubble</text>
</a>
</g>
</g>
<!-- Node2 -->
<g id="Node000002" class="node">
<title>Node2</title>
<g id="a_Node000002"><a xlink:href="m__bubbles_8fpp_8f90.html#ab7d5e3873ddb5da9b668c7a34538d4e0" target="_top" xlink:title=" ">
<polygon fill="white" stroke="#666666" points="295,-396.5 169,-396.5 169,-377.5 295,-377.5 295,-396.5"/>
<text text-anchor="middle" x="232" y="-384.5" font-family="Helvetica,sans-Serif" font-size="10.00">s_comp_alpha_from_n</text>
</a>
</g>
</g>
<!-- Node1&#45;&gt;Node2 -->
<g id="edge1_Node000001_Node000002" class="edge">
<title>Node1&#45;&gt;Node2</title>
<g id="a_edge1_Node000001_Node000002"><a xlink:title=" ">
<path fill="none" stroke="#63b8ff" d="M105.89,-359.53C127.72,-364.32 154.38,-370.18 177.47,-375.25"/>
<polygon fill="#63b8ff" stroke="#63b8ff" points="176.94,-378.71 187.46,-377.44 178.44,-371.88 176.94,-378.71"/>
</a>
</g>
</g>
<!-- Node3 -->
<g id="Node000003" class="node">
<title>Node3</title>
<g id="a_Node000003"><a xlink:href="m__bubbles_8fpp_8f90.html#a872de9f3a8b5de0a08fa1c08fd7332c9" target="_top" xlink:title="The purpose of this procedure is to compute the source terms that are needed for the bubble modeling.">
<polygon fill="white" stroke="#666666" points="305,-359.5 159,-359.5 159,-340.5 305,-340.5 305,-359.5"/>
<text text-anchor="middle" x="232" y="-347.5" font-family="Helvetica,sans-Serif" font-size="10.00">s_compute_bubble_source</text>
</a>
</g>
</g>
<!-- Node1&#45;&gt;Node3 -->
<g id="edge2_Node000001_Node000003" class="edge">
<title>Node1&#45;&gt;Node3</title>
<g id="a_edge2_Node000001_Node000003"><a xlink:title=" ">
<path fill="none" stroke="#63b8ff" d="M123.33,-350C131.6,-350 140.19,-350 148.76,-350"/>
<polygon fill="#63b8ff" stroke="#63b8ff" points="148.78,-353.5 158.78,-350 148.78,-346.5 148.78,-353.5"/>
</a>
</g>
</g>
<!-- Node19 -->
<g id="Node000019" class="node">
<title>Node19</title>
<g id="a_Node000019"><a xlink:href="m__variables__conversion_8fpp_8f90.html#ac269816c5c0ef9758b03e89cf59d3c50" target="_top" xlink:title="The following procedure handles the conversion between the conservative variables and the primitive v...">
<polygon fill="white" stroke="#666666" points="298,-196 166,-196 166,-166 298,-166 298,-196"/>
<text text-anchor="start" x="174" y="-184" font-family="Helvetica,sans-Serif" font-size="10.00">s_convert_conservative</text>
<text text-anchor="middle" x="232" y="-173" font-family="Helvetica,sans-Serif" font-size="10.00">_to_primitive_variables</text>
</a>
</g>
</g>
<!-- Node1&#45;&gt;Node19 -->
<g id="edge32_Node000001_Node000019" class="edge">
<title>Node1&#45;&gt;Node19</title>
<g id="a_edge32_Node000001_Node000019"><a xlink:title=" ">
<path fill="none" stroke="#63b8ff" d="M72.04,-340.43C98.17,-314.22 171.4,-240.77 208.65,-203.42"/>
<polygon fill="#63b8ff" stroke="#63b8ff" points="211.43,-205.58 216.02,-196.03 206.48,-200.64 211.43,-205.58"/>
</a>
</g>
</g>
<!-- Node4 -->
<g id="Node000004" class="node">
<title>Node4</title>
<g id="a_Node000004"><a xlink:href="m__bubbles_8fpp_8f90.html#ada752c329221f07a6111ef048d539310" target="_top" xlink:title="Function that computes the time derivative of the internal bubble pressure.">
<polygon fill="white" stroke="#666666" points="466,-490.5 392,-490.5 392,-471.5 466,-471.5 466,-490.5"/>
<text text-anchor="middle" x="429" y="-478.5" font-family="Helvetica,sans-Serif" font-size="10.00">f_bpres_dot</text>
</a>
</g>
</g>
<!-- Node3&#45;&gt;Node4 -->
<g id="edge3_Node000003_Node000004" class="edge">
<title>Node3&#45;&gt;Node4</title>
<g id="a_edge3_Node000003_Node000004"><a xlink:title=" ">
<path fill="none" stroke="#63b8ff" d="M290.2,-359.63C295.57,-362.09 300.63,-365.16 305,-369 336.76,-396.87 309.39,-428.95 341,-457 352.33,-467.06 367.51,-472.94 382.02,-476.37"/>
<polygon fill="#63b8ff" stroke="#63b8ff" points="381.41,-479.81 391.9,-478.37 382.8,-472.95 381.41,-479.81"/>
</a>
</g>
</g>
<!-- Node5 -->
<g id="Node000005" class="node">
<title>Node5</title>
<g id="a_Node000005"><a xlink:href="m__bubbles_8fpp_8f90.html#a205b2c0ce1db47f68fcd0c8f4be94663" target="_top" xlink:title="Function that computes the bubble radial acceleration based on bubble models.">
<polygon fill="white" stroke="#666666" points="655.5,-359.5 604.5,-359.5 604.5,-340.5 655.5,-340.5 655.5,-359.5"/>
<text text-anchor="middle" x="630" y="-347.5" font-family="Helvetica,sans-Serif" font-size="10.00">f_rddot</text>
</a>
</g>
</g>
<!-- Node3&#45;&gt;Node5 -->
<g id="edge5_Node000003_Node000005" class="edge">
<title>Node3&#45;&gt;Node5</title>
<g id="a_edge5_Node000003_Node000005"><a xlink:title=" ">
<path fill="none" stroke="#63b8ff" d="M287.28,-359.62C293.58,-362.07 299.65,-365.14 305,-369 328.7,-386.08 315.3,-410.11 341,-424 409.81,-461.2 442.09,-446.51 517,-424 554.27,-412.8 590.57,-384.72 611.31,-366.55"/>
<polygon fill="#63b8ff" stroke="#63b8ff" points="613.87,-368.97 618.96,-359.68 609.18,-363.76 613.87,-368.97"/>
</a>
</g>
</g>
<!-- Node15 -->
<g id="Node000015" class="node">
<title>Node15</title>
<g id="a_Node000015"><a xlink:href="m__bubbles_8fpp_8f90.html#a6237e254d6bab008b30584b3eb958138" target="_top" xlink:title="Function that computes the vapour flux.">
<polygon fill="white" stroke="#666666" points="454,-396.5 404,-396.5 404,-377.5 454,-377.5 454,-396.5"/>
<text text-anchor="middle" x="429" y="-384.5" font-family="Helvetica,sans-Serif" font-size="10.00">f_vflux</text>
</a>
</g>
</g>
<!-- Node3&#45;&gt;Node15 -->
<g id="edge25_Node000003_Node000015" class="edge">
<title>Node3&#45;&gt;Node15</title>
<g id="a_edge25_Node000003_Node000015"><a xlink:title=" ">
<path fill="none" stroke="#63b8ff" d="M283.22,-359.53C317.84,-366.1 362.96,-374.66 393.56,-380.47"/>
<polygon fill="#63b8ff" stroke="#63b8ff" points="393.26,-383.97 403.74,-382.4 394.57,-377.09 393.26,-383.97"/>
</a>
</g>
</g>
<!-- Node16 -->
<g id="Node000016" class="node">
<title>Node16</title>
<g id="a_Node000016"><a xlink:href="m__bubbles_8fpp_8f90.html#a6be5e899bc2c59aa1aa94ec130c683b9" target="_top" xlink:title="Integrate bubble variables over the given time step size, h.">
<polygon fill="white" stroke="#666666" points="485,-359.5 373,-359.5 373,-340.5 485,-340.5 485,-359.5"/>
<text text-anchor="middle" x="429" y="-347.5" font-family="Helvetica,sans-Serif" font-size="10.00">s_advance_substep</text>
</a>
</g>
</g>
<!-- Node3&#45;&gt;Node16 -->
<g id="edge27_Node000003_Node000016" class="edge">
<title>Node3&#45;&gt;Node16</title>
<g id="a_edge27_Node000003_Node000016"><a xlink:title=" ">
<path fill="none" stroke="#63b8ff" d="M305.06,-350C323.91,-350 344.14,-350 362.62,-350"/>
<polygon fill="#63b8ff" stroke="#63b8ff" points="362.7,-353.5 372.7,-350 362.7,-346.5 362.7,-353.5"/>
</a>
</g>
</g>
<!-- Node17 -->
<g id="Node000017" class="node">
<title>Node17</title>
<g id="a_Node000017"><a xlink:href="m__bubbles_8fpp_8f90.html#a8a11f32e3e991cbcfa764074a62f2492" target="_top" xlink:title="Subroutine that computes bubble wall properties for vapor bubbles.">
<polygon fill="white" stroke="#666666" points="470.5,-322.5 387.5,-322.5 387.5,-303.5 470.5,-303.5 470.5,-322.5"/>
<text text-anchor="middle" x="429" y="-310.5" font-family="Helvetica,sans-Serif" font-size="10.00">s_bwproperty</text>
</a>
</g>
</g>
<!-- Node3&#45;&gt;Node17 -->
<g id="edge29_Node000003_Node000017" class="edge">
<title>Node3&#45;&gt;Node17</title>
<g id="a_edge29_Node000003_Node000017"><a xlink:title=" ">
<path fill="none" stroke="#63b8ff" d="M283.22,-340.47C312.19,-334.97 348.51,-328.08 377.52,-322.58"/>
<polygon fill="#63b8ff" stroke="#63b8ff" points="378.28,-326 387.46,-320.69 376.98,-319.12 378.28,-326"/>
</a>
</g>
</g>
<!-- Node18 -->
<g id="Node000018" class="node">
<title>Node18</title>
<g id="a_Node000018"><a xlink:href="m__bubbles_8fpp_8f90.html#a68b1aa526222d54e3114b902ba11fbc4" target="_top" xlink:title="Choose the initial time step size for the adaptive time stepping routine (See Heirer,...">
<polygon fill="white" stroke="#666666" points="485.5,-285.5 372.5,-285.5 372.5,-266.5 485.5,-266.5 485.5,-285.5"/>
<text text-anchor="middle" x="429" y="-273.5" font-family="Helvetica,sans-Serif" font-size="10.00">s_initialize_adap_dt</text>
</a>
</g>
</g>
<!-- Node3&#45;&gt;Node18 -->
<g id="edge30_Node000003_Node000018" class="edge">
<title>Node3&#45;&gt;Node18</title>
<g id="a_edge30_Node000003_Node000018"><a xlink:title=" ">
<path fill="none" stroke="#63b8ff" d="M248.53,-340.48C269.02,-328.3 306.52,-307.31 341,-295 348.37,-292.37 356.23,-290.03 364.09,-287.98"/>
<polygon fill="#63b8ff" stroke="#63b8ff" points="365.15,-291.33 374.02,-285.53 363.47,-284.53 365.15,-291.33"/>
</a>
</g>
</g>
<!-- Node4&#45;&gt;Node4 -->
<g id="edge4_Node000004_Node000004" class="edge">
<title>Node4&#45;&gt;Node4</title>
<g id="a_edge4_Node000004_Node000004"><a xlink:title=" ">
<path fill="none" stroke="#63b8ff" d="M398.79,-490.58C384.09,-499.23 394.16,-508.5 429,-508.5 453.49,-508.5 465.74,-503.92 465.75,-498.19"/>
<polygon fill="#63b8ff" stroke="#63b8ff" points="468.38,-495.88 459.21,-490.58 463.07,-500.45 468.38,-495.88"/>
</a>
</g>
</g>
<!-- Node5&#45;&gt;Node5 -->
<g id="edge18_Node000005_Node000005" class="edge">
<title>Node5&#45;&gt;Node5</title>
<g id="a_edge18_Node000005_Node000005"><a xlink:title=" ">
<path fill="none" stroke="#63b8ff" d="M607.19,-359.58C596.09,-368.23 603.7,-377.5 630,-377.5 646.85,-377.5 656.03,-373.7 657.53,-368.69"/>
<polygon fill="#63b8ff" stroke="#63b8ff" points="660.52,-366.85 652.81,-359.58 654.3,-370.07 660.52,-366.85"/>
</a>
</g>
</g>
<!-- Node6 -->
<g id="Node000006" class="node">
<title>Node6</title>
<g id="a_Node000006"><a xlink:href="m__bubbles_8fpp_8f90.html#ab0ac0947d48440f35574b246710fc2c4" target="_top" xlink:title="Function that computes the sound speed for the bubble.">
<polygon fill="white" stroke="#666666" points="803,-579.5 755,-579.5 755,-560.5 803,-560.5 803,-579.5"/>
<text text-anchor="middle" x="779" y="-567.5" font-family="Helvetica,sans-Serif" font-size="10.00">f_cgas</text>
</a>
</g>
</g>
<!-- Node5&#45;&gt;Node6 -->
<g id="edge6_Node000005_Node000006" class="edge">
<title>Node5&#45;&gt;Node6</title>
<g id="a_edge6_Node000005_Node000006"><a xlink:title=" ">
<path fill="none" stroke="#63b8ff" d="M634.08,-359.7C644.52,-391.25 681.38,-492.28 743,-552 744.07,-553.04 745.22,-554.03 746.42,-554.98"/>
<polygon fill="#63b8ff" stroke="#63b8ff" points="744.59,-557.97 754.86,-560.57 748.45,-552.13 744.59,-557.97"/>
</a>
</g>
</g>
<!-- Node7 -->
<g id="Node000007" class="node">
<title>Node7</title>
<g id="a_Node000007"><a xlink:href="m__bubbles_8fpp_8f90.html#af98280f380da0387ba9ec1f48eb4cec3" target="_top" xlink:title="Function that computes that bubble wall pressure for Gilmore bubbles.">
<polygon fill="white" stroke="#666666" points="804.5,-524.5 753.5,-524.5 753.5,-505.5 804.5,-505.5 804.5,-524.5"/>
<text text-anchor="middle" x="779" y="-512.5" font-family="Helvetica,sans-Serif" font-size="10.00">f_cpbw</text>
</a>
</g>
</g>
<!-- Node5&#45;&gt;Node7 -->
<g id="edge8_Node000005_Node000007" class="edge">
<title>Node5&#45;&gt;Node7</title>
<g id="a_edge8_Node000005_Node000007"><a xlink:title=" ">
<path fill="none" stroke="#63b8ff" d="M636.35,-359.77C650.69,-385.23 692.34,-454.55 743,-497 744.18,-497.99 745.42,-498.94 746.7,-499.86"/>
<polygon fill="#63b8ff" stroke="#63b8ff" points="745.25,-503.07 755.59,-505.37 748.94,-497.12 745.25,-503.07"/>
</a>
</g>
</g>
<!-- Node8 -->
<g id="Node000008" class="node">
<title>Node8</title>
<g id="a_Node000008"><a xlink:href="m__bubbles_8fpp_8f90.html#a2bbc9a7f555b4d1fedc9c62eb1000491" target="_top" xlink:title="Function that computes the bubble wall pressure for Keller–Miksis bubbles.">
<polygon fill="white" stroke="#666666" points="815,-469.5 743,-469.5 743,-450.5 815,-450.5 815,-469.5"/>
<text text-anchor="middle" x="779" y="-457.5" font-family="Helvetica,sans-Serif" font-size="10.00">f_cpbw_km</text>
</a>
</g>
</g>
<!-- Node5&#45;&gt;Node8 -->
<g id="edge10_Node000005_Node000008" class="edge">
<title>Node5&#45;&gt;Node8</title>
<g id="a_edge10_Node000005_Node000008"><a xlink:title=" ">
<path fill="none" stroke="#63b8ff" d="M641.23,-359.68C660.26,-377.38 702.83,-415.61 743,-442 744.86,-443.22 746.8,-444.42 748.79,-445.59"/>
<polygon fill="#63b8ff" stroke="#63b8ff" points="747.15,-448.67 757.6,-450.43 750.52,-442.54 747.15,-448.67"/>
</a>
</g>
</g>
<!-- Node9 -->
<g id="Node000009" class="node">
<title>Node9</title>
<g id="a_Node000009"><a xlink:href="m__bubbles_8fpp_8f90.html#adb6eece8a8e4634f8e0ef654d103e659" target="_top" xlink:title="Function that computes the time derivative of the driving pressure.">
<polygon fill="white" stroke="#666666" points="811.5,-414.5 746.5,-414.5 746.5,-395.5 811.5,-395.5 811.5,-414.5"/>
<text text-anchor="middle" x="779" y="-402.5" font-family="Helvetica,sans-Serif" font-size="10.00">f_cpinfdot</text>
</a>
</g>
</g>
<!-- Node5&#45;&gt;Node9 -->
<g id="edge12_Node000005_Node000009" class="edge">
<title>Node5&#45;&gt;Node9</title>
<g id="a_edge12_Node000005_Node000009"><a xlink:title=" ">
<path fill="none" stroke="#63b8ff" d="M655.6,-359.21C679.48,-368.14 715.96,-381.79 742.88,-391.86"/>
<polygon fill="#63b8ff" stroke="#63b8ff" points="741.73,-395.17 752.33,-395.39 744.19,-388.61 741.73,-395.17"/>
</a>
</g>
</g>
<!-- Node10 -->
<g id="Node000010" class="node">
<title>Node10</title>
<g id="a_Node000010"><a xlink:href="m__bubbles_8fpp_8f90.html#a15f61d914c989ed4d7d1144dd9679254" target="_top" xlink:title="Function that computes the bubble enthalpy.">
<polygon fill="white" stroke="#666666" points="795,-359.5 763,-359.5 763,-340.5 795,-340.5 795,-359.5"/>
<text text-anchor="middle" x="779" y="-347.5" font-family="Helvetica,sans-Serif" font-size="10.00">f_h</text>
</a>
</g>
</g>
<!-- Node5&#45;&gt;Node10 -->
<g id="edge14_Node000005_Node000010" class="edge">
<title>Node5&#45;&gt;Node10</title>
<g id="a_edge14_Node000005_Node000010"><a xlink:title=" ">
<path fill="none" stroke="#63b8ff" d="M655.6,-350C682.47,-350 725.29,-350 752.5,-350"/>
<polygon fill="#63b8ff" stroke="#63b8ff" points="752.78,-353.5 762.78,-350 752.78,-346.5 752.78,-353.5"/>
</a>
</g>
</g>
<!-- Node11 -->
<g id="Node000011" class="node">
<title>Node11</title>
<g id="a_Node000011"><a xlink:href="m__bubbles_8fpp_8f90.html#a5c800bcc29be182ff4b82b32ebe385a0" target="_top" xlink:title="Function that computes the time derivative of the enthalpy.">
<polygon fill="white" stroke="#666666" points="802.5,-304.5 755.5,-304.5 755.5,-285.5 802.5,-285.5 802.5,-304.5"/>
<text text-anchor="middle" x="779" y="-292.5" font-family="Helvetica,sans-Serif" font-size="10.00">f_hdot</text>
</a>
</g>
</g>
<!-- Node5&#45;&gt;Node11 -->
<g id="edge16_Node000005_Node000011" class="edge">
<title>Node5&#45;&gt;Node11</title>
<g id="a_edge16_Node000005_Node000011"><a xlink:title=" ">
<path fill="none" stroke="#63b8ff" d="M655.6,-340.79C680.35,-331.53 718.64,-317.21 745.8,-307.05"/>
<polygon fill="#63b8ff" stroke="#63b8ff" points="747.11,-310.29 755.25,-303.51 744.66,-303.74 747.11,-310.29"/>
</a>
</g>
</g>
<!-- Node12 -->
<g id="Node000012" class="node">
<title>Node12</title>
<g id="a_Node000012"><a xlink:href="m__bubbles_8fpp_8f90.html#a57f445c9fe39d49a07aa5ef23de29eef" target="_top" xlink:title="Function that computes the bubble radial acceleration.">
<polygon fill="white" stroke="#666666" points="810,-249.5 748,-249.5 748,-230.5 810,-230.5 810,-249.5"/>
<text text-anchor="middle" x="779" y="-237.5" font-family="Helvetica,sans-Serif" font-size="10.00">f_rddot_g</text>
</a>
</g>
</g>
<!-- Node5&#45;&gt;Node12 -->
<g id="edge19_Node000005_Node000012" class="edge">
<title>Node5&#45;&gt;Node12</title>
<g id="a_edge19_Node000005_Node000012"><a xlink:title=" ">
<path fill="none" stroke="#63b8ff" d="M643.79,-340.43C669.09,-321.5 725.77,-279.08 756.76,-255.89"/>
<polygon fill="#63b8ff" stroke="#63b8ff" points="759.23,-258.42 765.14,-249.63 755.03,-252.81 759.23,-258.42"/>
</a>
</g>
</g>
<!-- Node13 -->
<g id="Node000013" class="node">
<title>Node13</title>
<g id="a_Node000013"><a xlink:href="m__bubbles_8fpp_8f90.html#ab2626844d2d33110f39cb680d2bf113e" target="_top" xlink:title="Function that computes the bubble radial acceleration for Keller–Miksis bubbles.">
<polygon fill="white" stroke="#666666" points="815,-194.5 743,-194.5 743,-175.5 815,-175.5 815,-194.5"/>
<text text-anchor="middle" x="779" y="-182.5" font-family="Helvetica,sans-Serif" font-size="10.00">f_rddot_km</text>
</a>
</g>
</g>
<!-- Node5&#45;&gt;Node13 -->
<g id="edge21_Node000005_Node000013" class="edge">
<title>Node5&#45;&gt;Node13</title>
<g id="a_edge21_Node000005_Node000013"><a xlink:title=" ">
<path fill="none" stroke="#63b8ff" d="M639.3,-340.25C657.71,-318.7 703.46,-265.46 743,-222 749.03,-215.38 755.76,-208.21 761.7,-201.96"/>
<polygon fill="#63b8ff" stroke="#63b8ff" points="764.31,-204.29 768.68,-194.64 759.25,-199.46 764.31,-204.29"/>
</a>
</g>
</g>
<!-- Node14 -->
<g id="Node000014" class="node">
<title>Node14</title>
<g id="a_Node000014"><a xlink:href="m__bubbles_8fpp_8f90.html#a9cca2f30ab2f04b334e219081b0fcb70" target="_top" xlink:title="Function that computes the bubble radial acceleration for Rayleigh&#45;Plesset bubbles.">
<polygon fill="white" stroke="#666666" points="812,-139.5 746,-139.5 746,-120.5 812,-120.5 812,-139.5"/>
<text text-anchor="middle" x="779" y="-127.5" font-family="Helvetica,sans-Serif" font-size="10.00">f_rddot_rp</text>
</a>
</g>
</g>
<!-- Node5&#45;&gt;Node14 -->
<g id="edge23_Node000005_Node000014" class="edge">
<title>Node5&#45;&gt;Node14</title>
<g id="a_edge23_Node000005_Node000014"><a xlink:title=" ">
<path fill="none" stroke="#63b8ff" d="M635.94,-340.41C650.54,-312.46 695.45,-229.11 743,-167 748.37,-159.99 754.87,-152.82 760.81,-146.68"/>
<polygon fill="#63b8ff" stroke="#63b8ff" points="763.33,-149.11 767.9,-139.55 758.37,-144.17 763.33,-149.11"/>
</a>
</g>
</g>
<!-- Node6&#45;&gt;Node6 -->
<g id="edge7_Node000006_Node000006" class="edge">
<title>Node6&#45;&gt;Node6</title>
<g id="a_edge7_Node000006_Node000006"><a xlink:title=" ">
<path fill="none" stroke="#63b8ff" d="M756.19,-579.58C745.09,-588.23 752.7,-597.5 779,-597.5 795.85,-597.5 805.03,-593.7 806.53,-588.69"/>
<polygon fill="#63b8ff" stroke="#63b8ff" points="809.52,-586.85 801.81,-579.58 803.3,-590.07 809.52,-586.85"/>
</a>
</g>
</g>
<!-- Node7&#45;&gt;Node7 -->
<g id="edge9_Node000007_Node000007" class="edge">
<title>Node7&#45;&gt;Node7</title>
<g id="a_edge9_Node000007_Node000007"><a xlink:title=" ">
<path fill="none" stroke="#63b8ff" d="M756.19,-524.58C745.09,-533.23 752.7,-542.5 779,-542.5 795.85,-542.5 805.03,-538.7 806.53,-533.69"/>
<polygon fill="#63b8ff" stroke="#63b8ff" points="809.52,-531.85 801.81,-524.58 803.3,-535.07 809.52,-531.85"/>
</a>
</g>
</g>
<!-- Node8&#45;&gt;Node8 -->
<g id="edge11_Node000008_Node000008" class="edge">
<title>Node8&#45;&gt;Node8</title>
<g id="a_edge11_Node000008_Node000008"><a xlink:title=" ">
<path fill="none" stroke="#63b8ff" d="M756.19,-469.58C745.09,-478.23 752.7,-487.5 779,-487.5 795.85,-487.5 805.03,-483.7 806.53,-478.69"/>
<polygon fill="#63b8ff" stroke="#63b8ff" points="809.52,-476.85 801.81,-469.58 803.3,-480.07 809.52,-476.85"/>
</a>
</g>
</g>
<!-- Node9&#45;&gt;Node9 -->
<g id="edge13_Node000009_Node000009" class="edge">
<title>Node9&#45;&gt;Node9</title>
<g id="a_edge13_Node000009_Node000009"><a xlink:title=" ">
<path fill="none" stroke="#63b8ff" d="M756.19,-414.58C745.09,-423.23 752.7,-432.5 779,-432.5 795.85,-432.5 805.03,-428.7 806.53,-423.69"/>
<polygon fill="#63b8ff" stroke="#63b8ff" points="809.52,-421.85 801.81,-414.58 803.3,-425.07 809.52,-421.85"/>
</a>
</g>
</g>
<!-- Node10&#45;&gt;Node10 -->
<g id="edge15_Node000010_Node000010" class="edge">
<title>Node10&#45;&gt;Node10</title>
<g id="a_edge15_Node000010_Node000010"><a xlink:title=" ">
<path fill="none" stroke="#63b8ff" d="M762.92,-355.53C743.14,-365.05 748.5,-377.5 779,-377.5 803.78,-377.5 811.96,-369.28 803.55,-361.09"/>
<polygon fill="#63b8ff" stroke="#63b8ff" points="805.36,-358.09 795.08,-355.53 801.52,-363.95 805.36,-358.09"/>
</a>
</g>
</g>
<!-- Node11&#45;&gt;Node11 -->
<g id="edge17_Node000011_Node000011" class="edge">
<title>Node11&#45;&gt;Node11</title>
<g id="a_edge17_Node000011_Node000011"><a xlink:title=" ">
<path fill="none" stroke="#63b8ff" d="M756.19,-304.58C745.09,-313.23 752.7,-322.5 779,-322.5 795.85,-322.5 805.03,-318.7 806.53,-313.69"/>
<polygon fill="#63b8ff" stroke="#63b8ff" points="809.52,-311.85 801.81,-304.58 803.3,-315.07 809.52,-311.85"/>
</a>
</g>
</g>
<!-- Node12&#45;&gt;Node12 -->
<g id="edge20_Node000012_Node000012" class="edge">
<title>Node12&#45;&gt;Node12</title>
<g id="a_edge20_Node000012_Node000012"><a xlink:title=" ">
<path fill="none" stroke="#63b8ff" d="M756.19,-249.58C745.09,-258.23 752.7,-267.5 779,-267.5 795.85,-267.5 805.03,-263.7 806.53,-258.69"/>
<polygon fill="#63b8ff" stroke="#63b8ff" points="809.52,-256.85 801.81,-249.58 803.3,-260.07 809.52,-256.85"/>
</a>
</g>
</g>
<!-- Node13&#45;&gt;Node13 -->
<g id="edge22_Node000013_Node000013" class="edge">
<title>Node13&#45;&gt;Node13</title>
<g id="a_edge22_Node000013_Node000013"><a xlink:title=" ">
<path fill="none" stroke="#63b8ff" d="M756.19,-194.58C745.09,-203.23 752.7,-212.5 779,-212.5 795.85,-212.5 805.03,-208.7 806.53,-203.69"/>
<polygon fill="#63b8ff" stroke="#63b8ff" points="809.52,-201.85 801.81,-194.58 803.3,-205.07 809.52,-201.85"/>
</a>
</g>
</g>
<!-- Node14&#45;&gt;Node14 -->
<g id="edge24_Node000014_Node000014" class="edge">
<title>Node14&#45;&gt;Node14</title>
<g id="a_edge24_Node000014_Node000014"><a xlink:title=" ">
<path fill="none" stroke="#63b8ff" d="M756.19,-139.58C745.09,-148.23 752.7,-157.5 779,-157.5 795.85,-157.5 805.03,-153.7 806.53,-148.69"/>
<polygon fill="#63b8ff" stroke="#63b8ff" points="809.52,-146.85 801.81,-139.58 803.3,-150.07 809.52,-146.85"/>
</a>
</g>
</g>
<!-- Node15&#45;&gt;Node15 -->
<g id="edge26_Node000015_Node000015" class="edge">
<title>Node15&#45;&gt;Node15</title>
<g id="a_edge26_Node000015_Node000015"><a xlink:title=" ">
<path fill="none" stroke="#63b8ff" d="M403.88,-394.04C382.34,-403.31 390.72,-414.5 429,-414.5 460.4,-414.5 471.68,-406.97 462.83,-399.15"/>
<polygon fill="#63b8ff" stroke="#63b8ff" points="464.52,-396.08 454.12,-394.04 460.98,-402.12 464.52,-396.08"/>
</a>
</g>
</g>
<!-- Node16&#45;&gt;Node5 -->
<g id="edge28_Node000016_Node000005" class="edge">
<title>Node16&#45;&gt;Node5</title>
<g id="a_edge28_Node000016_Node000005"><a xlink:title=" ">
<path fill="none" stroke="#63b8ff" d="M485.17,-350C520.15,-350 564.33,-350 594.43,-350"/>
<polygon fill="#63b8ff" stroke="#63b8ff" points="594.45,-353.5 604.45,-350 594.45,-346.5 594.45,-353.5"/>
</a>
</g>
</g>
<!-- Node18&#45;&gt;Node5 -->
<g id="edge31_Node000018_Node000005" class="edge">
<title>Node18&#45;&gt;Node5</title>
<g id="a_edge31_Node000018_Node000005"><a xlink:title=" ">
<path fill="none" stroke="#63b8ff" d="M483.48,-285.55C494.69,-288.14 506.34,-291.28 517,-295 547.96,-305.8 581.47,-323.06 603.68,-335.36"/>
<polygon fill="#63b8ff" stroke="#63b8ff" points="602.04,-338.45 612.47,-340.3 605.47,-332.35 602.04,-338.45"/>
</a>
</g>
</g>
<!-- Node20 -->
<g id="Node000020" class="node">
<title>Node20</title>
<g id="a_Node000020"><a xlink:href="m__helper_8fpp_8f90.html#a772c75c8b24c414cfaed17e2f8acc772" target="_top" xlink:title=" ">
<polygon fill="white" stroke="#666666" points="490,-248.5 368,-248.5 368,-229.5 490,-229.5 490,-248.5"/>
<text text-anchor="middle" x="429" y="-236.5" font-family="Helvetica,sans-Serif" font-size="10.00">s_comp_n_from_cons</text>
</a>
</g>
</g>
<!-- Node19&#45;&gt;Node20 -->
<g id="edge33_Node000019_Node000020" class="edge">
<title>Node19&#45;&gt;Node20</title>
<g id="a_edge33_Node000019_Node000020"><a xlink:title=" ">
<path fill="none" stroke="#63b8ff" d="M269.53,-196.09C290.24,-204.25 316.78,-214.05 341,-221 348.8,-223.24 357.07,-225.32 365.28,-227.21"/>
<polygon fill="#63b8ff" stroke="#63b8ff" points="364.72,-230.67 375.24,-229.41 366.24,-223.83 364.72,-230.67"/>
</a>
</g>
</g>
<!-- Node21 -->
<g id="Node000021" class="node">
<title>Node21</title>
<g id="a_Node000021"><a xlink:href="m__variables__conversion_8fpp_8f90.html#a56814a06b04c5e1d20f74af98405368a" target="_top" xlink:title="This procedure conditionally calculates the appropriate pressure.">
<polygon fill="white" stroke="#666666" points="487.5,-211.5 370.5,-211.5 370.5,-192.5 487.5,-192.5 487.5,-211.5"/>
<text text-anchor="middle" x="429" y="-199.5" font-family="Helvetica,sans-Serif" font-size="10.00">s_compute_pressure</text>
</a>
</g>
</g>
<!-- Node19&#45;&gt;Node21 -->
<g id="edge34_Node000019_Node000021" class="edge">
<title>Node19&#45;&gt;Node21</title>
<g id="a_edge34_Node000019_Node000021"><a xlink:title=" ">
<path fill="none" stroke="#63b8ff" d="M298.2,-188.02C318.19,-190.17 340.21,-192.55 360.36,-194.72"/>
<polygon fill="#63b8ff" stroke="#63b8ff" points="360.07,-198.2 370.39,-195.8 360.82,-191.24 360.07,-198.2"/>
</a>
</g>
</g>
<!-- Node22 -->
<g id="Node000022" class="node">
<title>Node22</title>
<g id="a_Node000022"><a xlink:href="m__variables__conversion_8fpp_8f90.html#ad0657ad9f2f6277b10693e899ff84b68" target="_top" xlink:title=" ">
<polygon fill="white" stroke="#666666" points="495,-174 363,-174 363,-144 495,-144 495,-174"/>
<text text-anchor="start" x="371" y="-162" font-family="Helvetica,sans-Serif" font-size="10.00">s_convert_species_to</text>
<text text-anchor="middle" x="429" y="-151" font-family="Helvetica,sans-Serif" font-size="10.00">_mixture_variables_acc</text>
</a>
</g>
</g>
<!-- Node19&#45;&gt;Node22 -->
<g id="edge35_Node000019_Node000022" class="edge">
<title>Node19&#45;&gt;Node22</title>
<g id="a_edge35_Node000019_Node000022"><a xlink:title=" ">
<path fill="none" stroke="#63b8ff" d="M298.2,-173.64C315.68,-171.67 334.73,-169.52 352.71,-167.49"/>
<polygon fill="#63b8ff" stroke="#63b8ff" points="353.31,-170.95 362.86,-166.35 352.53,-163.99 353.31,-170.95"/>
</a>
</g>
</g>
<!-- Node23 -->
<g id="Node000023" class="node">
<title>Node23</title>
<g id="a_Node000023"><a xlink:href="m__variables__conversion_8fpp_8f90.html#a18920a8493fb62dd7bba5eefab778b31" target="_top" xlink:title=" ">
<polygon fill="white" stroke="#666666" points="517,-126 341,-126 341,-96 517,-96 517,-126"/>
<text text-anchor="start" x="349" y="-114" font-family="Helvetica,sans-Serif" font-size="10.00">s_convert_species_to</text>
<text text-anchor="middle" x="429" y="-103" font-family="Helvetica,sans-Serif" font-size="10.00">_mixture_variables_bubbles_acc</text>
</a>
</g>
</g>
<!-- Node19&#45;&gt;Node23 -->
<g id="edge36_Node000019_Node000023" class="edge">
<title>Node19&#45;&gt;Node23</title>
<g id="a_edge36_Node000019_Node000023"><a xlink:title=" ">
<path fill="none" stroke="#63b8ff" d="M265.17,-165.96C286.41,-156.37 315.02,-144.07 341,-135 346.92,-132.93 353.12,-130.92 359.36,-129.01"/>
<polygon fill="#63b8ff" stroke="#63b8ff" points="360.59,-132.29 369.17,-126.08 358.59,-125.59 360.59,-132.29"/>
</a>
</g>
</g>
<!-- Node24 -->
<g id="Node000024" class="node">
<title>Node24</title>
<g id="a_Node000024"><a xlink:href="m__variables__conversion_8fpp_8f90.html#ab8bdf7610d49d294015daa441faabc01" target="_top" xlink:title="Dispatch to the s_convert_mixture_to_mixture_variables and s_convert_species_to_mixture_variables sub...">
<polygon fill="white" stroke="#666666" points="490,-78 368,-78 368,-48 490,-48 490,-78"/>
<text text-anchor="start" x="376" y="-66" font-family="Helvetica,sans-Serif" font-size="10.00">s_convert_to_mixture</text>
<text text-anchor="middle" x="429" y="-55" font-family="Helvetica,sans-Serif" font-size="10.00">_variables</text>
</a>
</g>
</g>
<!-- Node19&#45;&gt;Node24 -->
<g id="edge37_Node000019_Node000024" class="edge">
<title>Node19&#45;&gt;Node24</title>
<g id="a_edge37_Node000019_Node000024"><a xlink:title=" ">
<path fill="none" stroke="#63b8ff" d="M246.11,-165.97C265.03,-145.2 302.02,-107.93 341,-87 346.44,-84.08 352.26,-81.49 358.22,-79.2"/>
<polygon fill="#63b8ff" stroke="#63b8ff" points="359.41,-82.49 367.66,-75.84 357.07,-75.9 359.41,-82.49"/>
</a>
</g>
</g>
<!-- Node25 -->
<g id="Node000025" class="node">
<title>Node25</title>
<g id="a_Node000025"><a xlink:href="m__variables__conversion_8fpp_8f90.html#adec0ccf2a3298d2b375a9405a0fa7c1a" target="_top" xlink:title="This subroutine is designed for the gamma/pi_inf model and provided a set of either conservative or p...">
<polygon fill="white" stroke="#666666" points="691,-126 569,-126 569,-96 691,-96 691,-126"/>
<text text-anchor="start" x="577" y="-114" font-family="Helvetica,sans-Serif" font-size="10.00">s_convert_mixture_to</text>
<text text-anchor="middle" x="630" y="-103" font-family="Helvetica,sans-Serif" font-size="10.00">_mixture_variables</text>
</a>
</g>
</g>
<!-- Node24&#45;&gt;Node25 -->
<g id="edge38_Node000024_Node000025" class="edge">
<title>Node24&#45;&gt;Node25</title>
<g id="a_edge38_Node000024_Node000025"><a xlink:title=" ">
<path fill="none" stroke="#63b8ff" d="M490.25,-77.53C511.97,-82.77 536.67,-88.73 559.14,-94.15"/>
<polygon fill="#63b8ff" stroke="#63b8ff" points="558.42,-97.58 568.96,-96.52 560.06,-90.77 558.42,-97.58"/>
</a>
</g>
</g>
<!-- Node26 -->
<g id="Node000026" class="node">
<title>Node26</title>
<g id="a_Node000026"><a xlink:href="m__variables__conversion_8fpp_8f90.html#ac9e3787fd3c00962752030f2c218c3fc" target="_top" xlink:title="This subroutine is designed for the volume fraction model and provided a set of either conservative o...">
<polygon fill="white" stroke="#666666" points="690.5,-78 569.5,-78 569.5,-48 690.5,-48 690.5,-78"/>
<text text-anchor="start" x="577.5" y="-66" font-family="Helvetica,sans-Serif" font-size="10.00">s_convert_species_to</text>
<text text-anchor="middle" x="630" y="-55" font-family="Helvetica,sans-Serif" font-size="10.00">_mixture_variables</text>
</a>
</g>
</g>
<!-- Node24&#45;&gt;Node26 -->
<g id="edge39_Node000024_Node000026" class="edge">
<title>Node24&#45;&gt;Node26</title>
<g id="a_edge39_Node000024_Node000026"><a xlink:title=" ">
<path fill="none" stroke="#63b8ff" d="M490.25,-63C511.97,-63 536.67,-63 559.15,-63"/>
<polygon fill="#63b8ff" stroke="#63b8ff" points="559.3,-66.5 569.3,-63 559.3,-59.5 559.3,-66.5"/>
</a>
</g>
</g>
<!-- Node27 -->
<g id="Node000027" class="node">
<title>Node27</title>
<g id="a_Node000027"><a xlink:href="m__variables__conversion_8fpp_8f90.html#a975c2bf46f73cd704b4503e833f5ec3c" target="_top" xlink:title="This procedure is used alongside with the gamma/pi_inf model to transfer the density,...">
<polygon fill="white" stroke="#666666" points="707,-30 553,-30 553,0 707,0 707,-30"/>
<text text-anchor="start" x="561" y="-18" font-family="Helvetica,sans-Serif" font-size="10.00">s_convert_species_to</text>
<text text-anchor="middle" x="630" y="-7" font-family="Helvetica,sans-Serif" font-size="10.00">_mixture_variables_bubbles</text>
</a>
</g>
</g>
<!-- Node24&#45;&gt;Node27 -->
<g id="edge40_Node000024_Node000027" class="edge">
<title>Node24&#45;&gt;Node27</title>
<g id="a_edge40_Node000024_Node000027"><a xlink:title=" ">
<path fill="none" stroke="#63b8ff" d="M490.25,-48.47C511.18,-43.42 534.87,-37.7 556.68,-32.44"/>
<polygon fill="#63b8ff" stroke="#63b8ff" points="557.65,-35.81 566.55,-30.06 556,-29.01 557.65,-35.81"/>
</a>
</g>
</g>
</g>
</svg>

<g id="navigator" transform="translate(0 0)" fill="#404254">
  <rect fill="#f2f5e9" fill-opacity="0.5" stroke="#606060" stroke-width=".5" x="0" y="0" width="60" height="60"/>
  <use id="zoomplus" xlink:href="#zoomPlus" x="17" y="9" onmousedown="handleZoom(evt,'in')"/>
  <use id="zoomminus" xlink:href="#zoomMin" x="42" y="9" onmousedown="handleZoom(evt,'out')"/>
  <use id="reset" xlink:href="#resetDef" x="30" y="36" onmousedown="handleReset()"/>
   <use id="arrowup" xlink:href="#arrowUp" x="0" y="0" onmousedown="handlePan(0,-1)"/>
  <use id="arrowright" xlink:href="#arrowRight" x="0" y="0" onmousedown="handlePan(1,0)"/>
  <use id="arrowdown" xlink:href="#arrowDown" x="0" y="0" onmousedown="handlePan(0,1)"/>
  <use id="arrowleft" xlink:href="#arrowLeft" x="0" y="0" onmousedown="handlePan(-1,0)"/>
</g>
<svg viewBox="0 0 15 15" width="100%" height="30px" preserveAspectRatio="xMaxYMin meet">
 <g id="arrow_out" transform="scale(0.3 0.3)">
  <a xlink:href="m__time__steppers_8fpp_8f90_a7d3b794980e24632e81102bb05044392_cgraph_org.svg" target="_base">
   <rect id="button" ry="5" rx="5" y="6" x="6" height="38" width="38"
        fill="#f2f5e9" fill-opacity="0.5" stroke="#606060" stroke-width="1.0"/>
   <path id="arrow"
     d="M 11.500037,31.436501 C 11.940474,20.09759 22.043105,11.32322 32.158766,21.979434 L 37.068811,17.246167 C 37.068811,17.246167 37.088388,32 37.088388,32 L 22.160133,31.978069 C 22.160133,31.978069 26.997745,27.140456 26.997745,27.140456 C 18.528582,18.264221 13.291696,25.230495 11.500037,31.436501 z"
     style="fill:#404040;"/>
  </a>
 </g>
</svg>

<style type='text/css'>
<![CDATA[
[data-mouse-over-selected='false'] { opacity: 0.7; }
[data-mouse-over-selected='true']  { opacity: 1.0; }
]]>
</style>
<script type="application/ecmascript"><![CDATA[
document.addEventListener('DOMContentLoaded', (event) => {
  highlightEdges();
  highlightAdjacentNodes();
});
]]></script>
</svg>
