<?xml version="1.0" encoding="UTF-8" standalone="no"?>
<!DOCTYPE svg PUBLIC "-//W3C//DTD SVG 1.1//EN"
 "http://www.w3.org/Graphics/SVG/1.1/DTD/svg11.dtd">
<!-- Generated by graphviz version 2.43.0 (0)
 -->
<!-- Title: s_adaptive_dt_bubble Pages: 1 -->
<svg width="633pt" height="528pt"
 viewBox="0.00 0.00 633.00 527.50" xmlns="http://www.w3.org/2000/svg" xmlns:xlink="http://www.w3.org/1999/xlink">
<g id="graph0" class="graph" transform="scale(1 1) rotate(0) translate(4 523.5)">
<title>s_adaptive_dt_bubble</title>
<!-- Node1 -->
<g id="Node000001" class="node">
<title>Node1</title>
<g id="a_Node000001"><a xlink:title="Bubble source part in Strang operator splitting scheme.">
<polygon fill="#999999" stroke="#666666" points="123,-170.5 0,-170.5 0,-151.5 123,-151.5 123,-170.5"/>
<text text-anchor="middle" x="61.5" y="-158.5" font-family="Helvetica,sans-Serif" font-size="10.00">s_adaptive_dt_bubble</text>
</a>
</g>
</g>
<!-- Node2 -->
<g id="Node000002" class="node">
<title>Node2</title>
<g id="a_Node000002"><a xlink:href="m__bubbles_8fpp_8f90.html#a872de9f3a8b5de0a08fa1c08fd7332c9" target="_top" xlink:title="The purpose of this procedure is to compute the source terms that are needed for the bubble modeling.">
<polygon fill="white" stroke="#666666" points="305,-226.5 159,-226.5 159,-207.5 305,-207.5 305,-226.5"/>
<text text-anchor="middle" x="232" y="-214.5" font-family="Helvetica,sans-Serif" font-size="10.00">s_compute_bubble_source</text>
</a>
</g>
</g>
<!-- Node1&#45;&gt;Node2 -->
<g id="edge1_Node000001_Node000002" class="edge">
<title>Node1&#45;&gt;Node2</title>
<g id="a_edge1_Node000001_Node000002"><a xlink:title=" ">
<path fill="none" stroke="#63b8ff" d="M91.47,-170.63C119.49,-179.94 162.11,-194.1 192.87,-204.33"/>
<polygon fill="#63b8ff" stroke="#63b8ff" points="191.82,-207.67 202.41,-207.5 194.03,-201.02 191.82,-207.67"/>
</a>
</g>
</g>
<!-- Node16 -->
<g id="Node000016" class="node">
<title>Node16</title>
<g id="a_Node000016"><a xlink:href="m__variables__conversion_8fpp_8f90.html#a24725c6eb206c9a62e2ec70bf368836d" target="_top" xlink:title="The following procedure handles the conversion between the conservative variables and the primitive v...">
<polygon fill="white" stroke="#666666" points="298,-121 166,-121 166,-91 298,-91 298,-121"/>
<text text-anchor="start" x="174" y="-109" font-family="Helvetica,sans-Serif" font-size="10.00">s_convert_conservative</text>
<text text-anchor="middle" x="232" y="-98" font-family="Helvetica,sans-Serif" font-size="10.00">_to_primitive_variables</text>
</a>
</g>
</g>
<!-- Node1&#45;&gt;Node16 -->
<g id="edge27_Node000001_Node000016" class="edge">
<title>Node1&#45;&gt;Node16</title>
<g id="a_edge27_Node000001_Node000016"><a xlink:title=" ">
<path fill="none" stroke="#63b8ff" d="M91.85,-151.42C114.79,-143.93 147.35,-133.3 175.21,-124.21"/>
<polygon fill="#63b8ff" stroke="#63b8ff" points="176.42,-127.5 184.85,-121.07 174.25,-120.84 176.42,-127.5"/>
</a>
</g>
</g>
<!-- Node3 -->
<g id="Node000003" class="node">
<title>Node3</title>
<g id="a_Node000003"><a xlink:href="m__bubbles_8fpp_8f90.html#a8018aeac239907c1ee784788f9c81673" target="_top" xlink:title="Function that computes the time derivative of the internal bubble pressure.">
<polygon fill="white" stroke="#666666" points="466,-336.5 392,-336.5 392,-317.5 466,-317.5 466,-336.5"/>
<text text-anchor="middle" x="429" y="-324.5" font-family="Helvetica,sans-Serif" font-size="10.00">f_bpres_dot</text>
</a>
</g>
</g>
<!-- Node2&#45;&gt;Node3 -->
<g id="edge2_Node000002_Node000003" class="edge">
<title>Node2&#45;&gt;Node3</title>
<g id="a_edge2_Node000002_Node000003"><a xlink:title=" ">
<path fill="none" stroke="#63b8ff" d="M241.12,-226.59C257.77,-245.57 297.85,-287.9 341,-309 353.59,-315.16 368.2,-319.21 381.81,-321.88"/>
<polygon fill="#63b8ff" stroke="#63b8ff" points="381.52,-325.38 391.97,-323.66 382.73,-318.48 381.52,-325.38"/>
</a>
</g>
</g>
<!-- Node4 -->
<g id="Node000004" class="node">
<title>Node4</title>
<g id="a_Node000004"><a xlink:href="m__bubbles_8fpp_8f90.html#a83a3d658a10fa30f1ea2676cf110e451" target="_top" xlink:title="Function that computes the bubble radial acceleration based on bubble models.">
<polygon fill="white" stroke="#666666" points="454.5,-281.5 403.5,-281.5 403.5,-262.5 454.5,-262.5 454.5,-281.5"/>
<text text-anchor="middle" x="429" y="-269.5" font-family="Helvetica,sans-Serif" font-size="10.00">f_rddot</text>
</a>
</g>
</g>
<!-- Node2&#45;&gt;Node4 -->
<g id="edge4_Node000002_Node000004" class="edge">
<title>Node2&#45;&gt;Node4</title>
<g id="a_edge4_Node000002_Node000004"><a xlink:title=" ">
<path fill="none" stroke="#63b8ff" d="M258.03,-226.58C279.75,-234.65 312.13,-246.1 341,-254 358.09,-258.67 377.35,-262.78 393.4,-265.88"/>
<polygon fill="#63b8ff" stroke="#63b8ff" points="392.95,-269.36 403.43,-267.77 394.25,-262.48 392.95,-269.36"/>
</a>
</g>
</g>
<!-- Node14 -->
<g id="Node000014" class="node">
<title>Node14</title>
<g id="a_Node000014"><a xlink:href="m__bubbles_8fpp_8f90.html#a5af4ca8a74ce2461012304ed54f52d73" target="_top" xlink:title="Function that computes the vapour flux.">
<polygon fill="white" stroke="#666666" points="454,-226.5 404,-226.5 404,-207.5 454,-207.5 454,-226.5"/>
<text text-anchor="middle" x="429" y="-214.5" font-family="Helvetica,sans-Serif" font-size="10.00">f_vflux</text>
</a>
</g>
</g>
<!-- Node2&#45;&gt;Node14 -->
<g id="edge24_Node000002_Node000014" class="edge">
<title>Node2&#45;&gt;Node14</title>
<g id="a_edge24_Node000002_Node000014"><a xlink:title=" ">
<path fill="none" stroke="#63b8ff" d="M305.06,-217C335.3,-217 369.05,-217 393.53,-217"/>
<polygon fill="#63b8ff" stroke="#63b8ff" points="393.75,-220.5 403.75,-217 393.75,-213.5 393.75,-220.5"/>
</a>
</g>
</g>
<!-- Node15 -->
<g id="Node000015" class="node">
<title>Node15</title>
<g id="a_Node000015"><a xlink:href="m__bubbles_8fpp_8f90.html#a8a11f32e3e991cbcfa764074a62f2492" target="_top" xlink:title="Subroutine that computes bubble wall properties for vapor bubbles.">
<polygon fill="white" stroke="#666666" points="470.5,-189.5 387.5,-189.5 387.5,-170.5 470.5,-170.5 470.5,-189.5"/>
<text text-anchor="middle" x="429" y="-177.5" font-family="Helvetica,sans-Serif" font-size="10.00">s_bwproperty</text>
</a>
</g>
</g>
<!-- Node2&#45;&gt;Node15 -->
<g id="edge26_Node000002_Node000015" class="edge">
<title>Node2&#45;&gt;Node15</title>
<g id="a_edge26_Node000002_Node000015"><a xlink:title=" ">
<path fill="none" stroke="#63b8ff" d="M283.22,-207.47C312.19,-201.97 348.51,-195.08 377.52,-189.58"/>
<polygon fill="#63b8ff" stroke="#63b8ff" points="378.28,-193 387.46,-187.69 376.98,-186.12 378.28,-193"/>
</a>
</g>
</g>
<!-- Node3&#45;&gt;Node3 -->
<g id="edge3_Node000003_Node000003" class="edge">
<title>Node3&#45;&gt;Node3</title>
<g id="a_edge3_Node000003_Node000003"><a xlink:title=" ">
<path fill="none" stroke="#63b8ff" d="M404.34,-336.58C392.34,-345.23 400.56,-354.5 429,-354.5 447.66,-354.5 457.62,-350.51 458.87,-345.32"/>
<polygon fill="#63b8ff" stroke="#63b8ff" points="461.79,-343.38 453.66,-336.58 455.77,-346.97 461.79,-343.38"/>
</a>
</g>
</g>
<!-- Node4&#45;&gt;Node4 -->
<g id="edge17_Node000004_Node000004" class="edge">
<title>Node4&#45;&gt;Node4</title>
<g id="a_edge17_Node000004_Node000004"><a xlink:title=" ">
<path fill="none" stroke="#63b8ff" d="M404.34,-281.58C392.34,-290.23 400.56,-299.5 429,-299.5 447.66,-299.5 457.62,-295.51 458.87,-290.32"/>
<polygon fill="#63b8ff" stroke="#63b8ff" points="461.79,-288.38 453.66,-281.58 455.77,-291.97 461.79,-288.38"/>
</a>
</g>
</g>
<!-- Node5 -->
<g id="Node000005" class="node">
<title>Node5</title>
<g id="a_Node000005"><a xlink:href="m__bubbles_8fpp_8f90.html#a92173957cdea7588a1d2ae5a8097dd0b" target="_top" xlink:title="Function that computes the sound speed for the bubble.">
<polygon fill="white" stroke="#666666" points="613,-501.5 565,-501.5 565,-482.5 613,-482.5 613,-501.5"/>
<text text-anchor="middle" x="589" y="-489.5" font-family="Helvetica,sans-Serif" font-size="10.00">f_cgas</text>
</a>
</g>
</g>
<!-- Node4&#45;&gt;Node5 -->
<g id="edge5_Node000004_Node000005" class="edge">
<title>Node4&#45;&gt;Node5</title>
<g id="a_edge5_Node000004_Node000005"><a xlink:title=" ">
<path fill="none" stroke="#63b8ff" d="M454.72,-276.12C474.49,-280.72 501.4,-290.17 517,-309 564.88,-366.8 507.26,-414.49 553,-474 554.06,-475.38 555.25,-476.66 556.55,-477.85"/>
<polygon fill="#63b8ff" stroke="#63b8ff" points="554.58,-480.75 564.75,-483.72 558.66,-475.06 554.58,-480.75"/>
</a>
</g>
</g>
<!-- Node6 -->
<g id="Node000006" class="node">
<title>Node6</title>
<g id="a_Node000006"><a xlink:href="m__bubbles_8fpp_8f90.html#a5a0193f314079c7e9d923b9374eb20e3" target="_top" xlink:title="Function that computes that bubble wall pressure for Gilmore bubbles.">
<polygon fill="white" stroke="#666666" points="614.5,-446.5 563.5,-446.5 563.5,-427.5 614.5,-427.5 614.5,-446.5"/>
<text text-anchor="middle" x="589" y="-434.5" font-family="Helvetica,sans-Serif" font-size="10.00">f_cpbw</text>
</a>
</g>
</g>
<!-- Node4&#45;&gt;Node6 -->
<g id="edge7_Node000004_Node000006" class="edge">
<title>Node4&#45;&gt;Node6</title>
<g id="a_edge7_Node000004_Node000006"><a xlink:title=" ">
<path fill="none" stroke="#63b8ff" d="M454.62,-276.64C474.06,-281.53 500.58,-291.1 517,-309 551.78,-346.9 519.62,-379.86 553,-419 553.71,-419.83 554.47,-420.63 555.26,-421.4"/>
<polygon fill="#63b8ff" stroke="#63b8ff" points="553.17,-424.2 563.26,-427.43 557.38,-418.61 553.17,-424.2"/>
</a>
</g>
</g>
<!-- Node7 -->
<g id="Node000007" class="node">
<title>Node7</title>
<g id="a_Node000007"><a xlink:href="m__bubbles_8fpp_8f90.html#ab5cad916879a4c85674fcadd46ac3acd" target="_top" xlink:title="Function that computes the bubble wall pressure for Keller–Miksis bubbles.">
<polygon fill="white" stroke="#666666" points="625,-391.5 553,-391.5 553,-372.5 625,-372.5 625,-391.5"/>
<text text-anchor="middle" x="589" y="-379.5" font-family="Helvetica,sans-Serif" font-size="10.00">f_cpbw_km</text>
</a>
</g>
</g>
<!-- Node4&#45;&gt;Node7 -->
<g id="edge9_Node000004_Node000007" class="edge">
<title>Node4&#45;&gt;Node7</title>
<g id="a_edge9_Node000004_Node000007"><a xlink:title=" ">
<path fill="none" stroke="#63b8ff" d="M454.59,-278.22C473.26,-283.89 498.75,-293.73 517,-309 539.41,-327.75 531.29,-344.45 553,-364 554.11,-365 555.29,-365.96 556.51,-366.88"/>
<polygon fill="#63b8ff" stroke="#63b8ff" points="554.74,-369.91 565.05,-372.37 558.53,-364.02 554.74,-369.91"/>
</a>
</g>
</g>
<!-- Node8 -->
<g id="Node000008" class="node">
<title>Node8</title>
<g id="a_Node000008"><a xlink:href="m__bubbles_8fpp_8f90.html#a5ba0b7cce948abfecaebce809ed4b632" target="_top" xlink:title="Function that computes the time derivative of the driving pressure.">
<polygon fill="white" stroke="#666666" points="621.5,-336.5 556.5,-336.5 556.5,-317.5 621.5,-317.5 621.5,-336.5"/>
<text text-anchor="middle" x="589" y="-324.5" font-family="Helvetica,sans-Serif" font-size="10.00">f_cpinfdot</text>
</a>
</g>
</g>
<!-- Node4&#45;&gt;Node8 -->
<g id="edge11_Node000004_Node000008" class="edge">
<title>Node4&#45;&gt;Node8</title>
<g id="a_edge11_Node000004_Node000008"><a xlink:title=" ">
<path fill="none" stroke="#63b8ff" d="M454.69,-280.59C480.5,-289.58 521.3,-303.78 550.97,-314.11"/>
<polygon fill="#63b8ff" stroke="#63b8ff" points="549.97,-317.47 560.57,-317.45 552.28,-310.86 549.97,-317.47"/>
</a>
</g>
</g>
<!-- Node9 -->
<g id="Node000009" class="node">
<title>Node9</title>
<g id="a_Node000009"><a xlink:href="m__bubbles_8fpp_8f90.html#a5cd28691438ce1e5e59e56e03f81082a" target="_top" xlink:title="Function that computes the bubble enthalpy.">
<polygon fill="white" stroke="#666666" points="605,-281.5 573,-281.5 573,-262.5 605,-262.5 605,-281.5"/>
<text text-anchor="middle" x="589" y="-269.5" font-family="Helvetica,sans-Serif" font-size="10.00">f_h</text>
</a>
</g>
</g>
<!-- Node4&#45;&gt;Node9 -->
<g id="edge13_Node000004_Node000009" class="edge">
<title>Node4&#45;&gt;Node9</title>
<g id="a_edge13_Node000004_Node000009"><a xlink:title=" ">
<path fill="none" stroke="#63b8ff" d="M454.69,-272C484.09,-272 532.93,-272 562.63,-272"/>
<polygon fill="#63b8ff" stroke="#63b8ff" points="562.99,-275.5 572.99,-272 562.99,-268.5 562.99,-275.5"/>
</a>
</g>
</g>
<!-- Node10 -->
<g id="Node000010" class="node">
<title>Node10</title>
<g id="a_Node000010"><a xlink:href="m__bubbles_8fpp_8f90.html#a8677e47b010a7a8e38e25c25f30fe0f0" target="_top" xlink:title="Function that computes the time derivative of the enthalpy.">
<polygon fill="white" stroke="#666666" points="612.5,-226.5 565.5,-226.5 565.5,-207.5 612.5,-207.5 612.5,-226.5"/>
<text text-anchor="middle" x="589" y="-214.5" font-family="Helvetica,sans-Serif" font-size="10.00">f_hdot</text>
</a>
</g>
</g>
<!-- Node4&#45;&gt;Node10 -->
<g id="edge15_Node000004_Node000010" class="edge">
<title>Node4&#45;&gt;Node10</title>
<g id="a_edge15_Node000004_Node000010"><a xlink:title=" ">
<path fill="none" stroke="#63b8ff" d="M454.87,-268.73C472.55,-265.95 496.66,-261.25 517,-254 533.23,-248.22 550.38,-239.37 563.76,-231.77"/>
<polygon fill="#63b8ff" stroke="#63b8ff" points="565.89,-234.58 572.77,-226.52 562.37,-228.53 565.89,-234.58"/>
</a>
</g>
</g>
<!-- Node11 -->
<g id="Node000011" class="node">
<title>Node11</title>
<g id="a_Node000011"><a xlink:href="m__bubbles_8fpp_8f90.html#a1d5426908fc62e135de2e554b061f9cc" target="_top" xlink:title="Function that computes the bubble radial acceleration.">
<polygon fill="white" stroke="#666666" points="620,-171.5 558,-171.5 558,-152.5 620,-152.5 620,-171.5"/>
<text text-anchor="middle" x="589" y="-159.5" font-family="Helvetica,sans-Serif" font-size="10.00">f_rddot_g</text>
</a>
</g>
</g>
<!-- Node4&#45;&gt;Node11 -->
<g id="edge18_Node000004_Node000011" class="edge">
<title>Node4&#45;&gt;Node11</title>
<g id="a_edge18_Node000004_Node000011"><a xlink:title=" ">
<path fill="none" stroke="#63b8ff" d="M454.84,-271.86C473.41,-270.63 498.64,-266.5 517,-254 541.15,-237.56 534.89,-221.92 553,-199 558.47,-192.07 565,-184.92 570.93,-178.77"/>
<polygon fill="#63b8ff" stroke="#63b8ff" points="573.46,-181.19 577.99,-171.62 568.47,-176.28 573.46,-181.19"/>
</a>
</g>
</g>
<!-- Node12 -->
<g id="Node000012" class="node">
<title>Node12</title>
<g id="a_Node000012"><a xlink:href="m__bubbles_8fpp_8f90.html#a6c94745d6e1c569d57616a5e472ae2cd" target="_top" xlink:title="Function that computes the bubble radial acceleration for Keller–Miksis bubbles.">
<polygon fill="white" stroke="#666666" points="625,-116.5 553,-116.5 553,-97.5 625,-97.5 625,-116.5"/>
<text text-anchor="middle" x="589" y="-104.5" font-family="Helvetica,sans-Serif" font-size="10.00">f_rddot_km</text>
</a>
</g>
</g>
<!-- Node4&#45;&gt;Node12 -->
<g id="edge20_Node000004_Node000012" class="edge">
<title>Node4&#45;&gt;Node12</title>
<g id="a_edge20_Node000004_Node000012"><a xlink:title=" ">
<path fill="none" stroke="#63b8ff" d="M454.69,-273.21C473.92,-272.8 500.09,-269.11 517,-254 555.36,-219.72 526.69,-188.2 553,-144 557.29,-136.79 563.21,-129.84 568.96,-123.95"/>
<polygon fill="#63b8ff" stroke="#63b8ff" points="571.76,-126.12 576.53,-116.65 566.9,-121.08 571.76,-126.12"/>
</a>
</g>
</g>
<!-- Node13 -->
<g id="Node000013" class="node">
<title>Node13</title>
<g id="a_Node000013"><a xlink:href="m__bubbles_8fpp_8f90.html#ad8bb547b5b33724b2d0affee7746a306" target="_top" xlink:title="Function that computes the bubble radial acceleration for Rayleigh&#45;Plesset bubbles.">
<polygon fill="white" stroke="#666666" points="622,-61.5 556,-61.5 556,-42.5 622,-42.5 622,-61.5"/>
<text text-anchor="middle" x="589" y="-49.5" font-family="Helvetica,sans-Serif" font-size="10.00">f_rddot_rp</text>
</a>
</g>
</g>
<!-- Node4&#45;&gt;Node13 -->
<g id="edge22_Node000004_Node000013" class="edge">
<title>Node4&#45;&gt;Node13</title>
<g id="a_edge22_Node000004_Node000013"><a xlink:title=" ">
<path fill="none" stroke="#63b8ff" d="M454.72,-273.66C474.23,-273.56 500.77,-270.05 517,-254 570.36,-201.21 517.93,-155.36 553,-89 556.86,-81.69 562.57,-74.78 568.27,-68.96"/>
<polygon fill="#63b8ff" stroke="#63b8ff" points="571.01,-71.19 575.84,-61.76 566.18,-66.11 571.01,-71.19"/>
</a>
</g>
</g>
<!-- Node5&#45;&gt;Node5 -->
<g id="edge6_Node000005_Node000005" class="edge">
<title>Node5&#45;&gt;Node5</title>
<g id="a_edge6_Node000005_Node000005"><a xlink:title=" ">
<path fill="none" stroke="#63b8ff" d="M564.74,-501.3C552.16,-510.03 560.25,-519.5 589,-519.5 608.32,-519.5 618.3,-515.22 618.96,-509.77"/>
<polygon fill="#63b8ff" stroke="#63b8ff" points="621.75,-507.64 613.26,-501.3 615.94,-511.55 621.75,-507.64"/>
</a>
</g>
</g>
<!-- Node6&#45;&gt;Node6 -->
<g id="edge8_Node000006_Node000006" class="edge">
<title>Node6&#45;&gt;Node6</title>
<g id="a_edge8_Node000006_Node000006"><a xlink:title=" ">
<path fill="none" stroke="#63b8ff" d="M564.34,-446.58C552.34,-455.23 560.56,-464.5 589,-464.5 607.66,-464.5 617.62,-460.51 618.87,-455.32"/>
<polygon fill="#63b8ff" stroke="#63b8ff" points="621.79,-453.38 613.66,-446.58 615.77,-456.97 621.79,-453.38"/>
</a>
</g>
</g>
<!-- Node7&#45;&gt;Node7 -->
<g id="edge10_Node000007_Node000007" class="edge">
<title>Node7&#45;&gt;Node7</title>
<g id="a_edge10_Node000007_Node000007"><a xlink:title=" ">
<path fill="none" stroke="#63b8ff" d="M564.34,-391.58C552.34,-400.23 560.56,-409.5 589,-409.5 607.66,-409.5 617.62,-405.51 618.87,-400.32"/>
<polygon fill="#63b8ff" stroke="#63b8ff" points="621.79,-398.38 613.66,-391.58 615.77,-401.97 621.79,-398.38"/>
</a>
</g>
</g>
<!-- Node8&#45;&gt;Node8 -->
<g id="edge12_Node000008_Node000008" class="edge">
<title>Node8&#45;&gt;Node8</title>
<g id="a_edge12_Node000008_Node000008"><a xlink:title=" ">
<path fill="none" stroke="#63b8ff" d="M564.34,-336.58C552.34,-345.23 560.56,-354.5 589,-354.5 607.66,-354.5 617.62,-350.51 618.87,-345.32"/>
<polygon fill="#63b8ff" stroke="#63b8ff" points="621.79,-343.38 613.66,-336.58 615.77,-346.97 621.79,-343.38"/>
</a>
</g>
</g>
<!-- Node9&#45;&gt;Node9 -->
<g id="edge14_Node000009_Node000009" class="edge">
<title>Node9&#45;&gt;Node9</title>
<g id="a_edge14_Node000009_Node000009"><a xlink:title=" ">
<path fill="none" stroke="#63b8ff" d="M572.86,-277C550.03,-286.57 555.41,-299.5 589,-299.5 617.08,-299.5 625.45,-290.46 614.1,-281.91"/>
<polygon fill="#63b8ff" stroke="#63b8ff" points="615.59,-278.73 605.14,-277 612.23,-284.87 615.59,-278.73"/>
</a>
</g>
</g>
<!-- Node10&#45;&gt;Node10 -->
<g id="edge16_Node000010_Node000010" class="edge">
<title>Node10&#45;&gt;Node10</title>
<g id="a_edge16_Node000010_Node000010"><a xlink:title=" ">
<path fill="none" stroke="#63b8ff" d="M565.16,-226.01C551.99,-234.82 559.94,-244.5 589,-244.5 608.98,-244.5 618.98,-239.93 619,-234.2"/>
<polygon fill="#63b8ff" stroke="#63b8ff" points="621.65,-231.9 612.84,-226.01 616.05,-236.11 621.65,-231.9"/>
</a>
</g>
</g>
<!-- Node11&#45;&gt;Node11 -->
<g id="edge19_Node000011_Node000011" class="edge">
<title>Node11&#45;&gt;Node11</title>
<g id="a_edge19_Node000011_Node000011"><a xlink:title=" ">
<path fill="none" stroke="#63b8ff" d="M564.34,-171.58C552.34,-180.23 560.56,-189.5 589,-189.5 607.66,-189.5 617.62,-185.51 618.87,-180.32"/>
<polygon fill="#63b8ff" stroke="#63b8ff" points="621.79,-178.38 613.66,-171.58 615.77,-181.97 621.79,-178.38"/>
</a>
</g>
</g>
<!-- Node12&#45;&gt;Node12 -->
<g id="edge21_Node000012_Node000012" class="edge">
<title>Node12&#45;&gt;Node12</title>
<g id="a_edge21_Node000012_Node000012"><a xlink:title=" ">
<path fill="none" stroke="#63b8ff" d="M564.34,-116.58C552.34,-125.23 560.56,-134.5 589,-134.5 607.66,-134.5 617.62,-130.51 618.87,-125.32"/>
<polygon fill="#63b8ff" stroke="#63b8ff" points="621.79,-123.38 613.66,-116.58 615.77,-126.97 621.79,-123.38"/>
</a>
</g>
</g>
<!-- Node13&#45;&gt;Node13 -->
<g id="edge23_Node000013_Node000013" class="edge">
<title>Node13&#45;&gt;Node13</title>
<g id="a_edge23_Node000013_Node000013"><a xlink:title=" ">
<path fill="none" stroke="#63b8ff" d="M564.34,-61.58C552.34,-70.23 560.56,-79.5 589,-79.5 607.66,-79.5 617.62,-75.51 618.87,-70.32"/>
<polygon fill="#63b8ff" stroke="#63b8ff" points="621.79,-68.38 613.66,-61.58 615.77,-71.97 621.79,-68.38"/>
</a>
</g>
</g>
<!-- Node14&#45;&gt;Node14 -->
<g id="edge25_Node000014_Node000014" class="edge">
<title>Node14&#45;&gt;Node14</title>
<g id="a_edge25_Node000014_Node000014"><a xlink:title=" ">
<path fill="none" stroke="#63b8ff" d="M404.34,-226.58C392.34,-235.23 400.56,-244.5 429,-244.5 447.66,-244.5 457.62,-240.51 458.87,-235.32"/>
<polygon fill="#63b8ff" stroke="#63b8ff" points="461.79,-233.38 453.66,-226.58 455.77,-236.97 461.79,-233.38"/>
</a>
</g>
</g>
<!-- Node17 -->
<g id="Node000017" class="node">
<title>Node17</title>
<g id="a_Node000017"><a xlink:href="m__helper_8fpp_8f90.html#a772c75c8b24c414cfaed17e2f8acc772" target="_top" xlink:title=" ">
<polygon fill="white" stroke="#666666" points="490,-152.5 368,-152.5 368,-133.5 490,-133.5 490,-152.5"/>
<text text-anchor="middle" x="429" y="-140.5" font-family="Helvetica,sans-Serif" font-size="10.00">s_comp_n_from_cons</text>
</a>
</g>
</g>
<!-- Node16&#45;&gt;Node17 -->
<g id="edge28_Node000016_Node000017" class="edge">
<title>Node16&#45;&gt;Node17</title>
<g id="a_edge28_Node000016_Node000017"><a xlink:title=" ">
<path fill="none" stroke="#63b8ff" d="M298.2,-118.37C320.67,-122.63 345.72,-127.39 367.77,-131.57"/>
<polygon fill="#63b8ff" stroke="#63b8ff" points="367.19,-135.02 377.67,-133.45 368.5,-128.15 367.19,-135.02"/>
</a>
</g>
</g>
<!-- Node18 -->
<g id="Node000018" class="node">
<title>Node18</title>
<g id="a_Node000018"><a xlink:href="m__variables__conversion_8fpp_8f90.html#ac61bd62d4ea1652a4feb24d42eb3c3b1" target="_top" xlink:title="This procedure conditionally calculates the appropriate pressure.">
<polygon fill="white" stroke="#666666" points="487.5,-115.5 370.5,-115.5 370.5,-96.5 487.5,-96.5 487.5,-115.5"/>
<text text-anchor="middle" x="429" y="-103.5" font-family="Helvetica,sans-Serif" font-size="10.00">s_compute_pressure</text>
</a>
</g>
</g>
<!-- Node16&#45;&gt;Node18 -->
<g id="edge29_Node000016_Node000018" class="edge">
<title>Node16&#45;&gt;Node18</title>
<g id="a_edge29_Node000016_Node000018"><a xlink:title=" ">
<path fill="none" stroke="#63b8ff" d="M298.2,-106C318.19,-106 340.21,-106 360.36,-106"/>
<polygon fill="#63b8ff" stroke="#63b8ff" points="360.39,-109.5 370.39,-106 360.39,-102.5 360.39,-109.5"/>
</a>
</g>
</g>
<!-- Node19 -->
<g id="Node000019" class="node">
<title>Node19</title>
<g id="a_Node000019"><a xlink:href="m__variables__conversion_8fpp_8f90.html#ad0657ad9f2f6277b10693e899ff84b68" target="_top" xlink:title=" ">
<polygon fill="white" stroke="#666666" points="495,-78 363,-78 363,-48 495,-48 495,-78"/>
<text text-anchor="start" x="371" y="-66" font-family="Helvetica,sans-Serif" font-size="10.00">s_convert_species_to</text>
<text text-anchor="middle" x="429" y="-55" font-family="Helvetica,sans-Serif" font-size="10.00">_mixture_variables_acc</text>
</a>
</g>
</g>
<!-- Node16&#45;&gt;Node19 -->
<g id="edge30_Node000016_Node000019" class="edge">
<title>Node16&#45;&gt;Node19</title>
<g id="a_edge30_Node000016_Node000019"><a xlink:title=" ">
<path fill="none" stroke="#63b8ff" d="M298.2,-91.62C315.77,-87.75 334.9,-83.53 352.96,-79.55"/>
<polygon fill="#63b8ff" stroke="#63b8ff" points="353.85,-82.94 362.86,-77.36 352.34,-76.1 353.85,-82.94"/>
</a>
</g>
</g>
<!-- Node20 -->
<g id="Node000020" class="node">
<title>Node20</title>
<g id="a_Node000020"><a xlink:href="m__variables__conversion_8fpp_8f90.html#a18920a8493fb62dd7bba5eefab778b31" target="_top" xlink:title=" ">
<polygon fill="white" stroke="#666666" points="517,-30 341,-30 341,0 517,0 517,-30"/>
<text text-anchor="start" x="349" y="-18" font-family="Helvetica,sans-Serif" font-size="10.00">s_convert_species_to</text>
<text text-anchor="middle" x="429" y="-7" font-family="Helvetica,sans-Serif" font-size="10.00">_mixture_variables_bubbles_acc</text>
</a>
</g>
</g>
<!-- Node16&#45;&gt;Node20 -->
<g id="edge31_Node000016_Node000020" class="edge">
<title>Node16&#45;&gt;Node20</title>
<g id="a_edge31_Node000016_Node000020"><a xlink:title=" ">
<path fill="none" stroke="#63b8ff" d="M253.53,-90.77C274.55,-75.78 308.65,-53.14 341,-39 345.64,-36.97 350.49,-35.07 355.43,-33.31"/>
<polygon fill="#63b8ff" stroke="#63b8ff" points="356.65,-36.59 365,-30.06 354.4,-29.96 356.65,-36.59"/>
</a>
</g>
</g>
</g>
</svg>
