<?xml version="1.0" encoding="UTF-8" standalone="no"?>
<!DOCTYPE svg PUBLIC "-//W3C//DTD SVG 1.1//EN"
 "http://www.w3.org/Graphics/SVG/1.1/DTD/svg11.dtd">
<!-- Generated by graphviz version 2.43.0 (0)
 -->
<!-- Title: s_convert_to_mixture_variables Pages: 1 -->
<!--zoomable 439 -->

<svg id="main" version="1.1" xmlns="http://www.w3.org/2000/svg" xmlns:xlink="http://www.w3.org/1999/xlink" xml:space="preserve" onload="init(evt)">

<style type="text/css"><![CDATA[
.node, .edge {opacity: 0.7;}
.node.selected, .edge.selected {opacity: 1;}
.edge:hover path { stroke: red; }
.edge:hover polygon { stroke: red; fill: red; }
]]></style>

<defs>
  <circle id="rim" cx="0" cy="0" r="7"/>
  <circle id="rim2" cx="0" cy="0" r="3.5"/>
  <g id="zoomPlus">
    <use xlink:href="#rim" fill="#404040"><set attributeName="fill" to="#808080" begin="zoomplus.mouseover" end="zoomplus.mouseout"/></use>
    <path d="M-4,0h8M0,-4v8" fill="none" stroke="white" stroke-width="1.5" pointer-events="none"/>
  </g>
  <g id="zoomMin">
    <use xlink:href="#rim" fill="#404040"><set attributeName="fill" to="#808080" begin="zoomminus.mouseover" end="zoomminus.mouseout"/></use>
    <path d="M-4,0h8" fill="none" stroke="white" stroke-width="1.5" pointer-events="none"/>
  </g>
  <g id="arrowUp" transform="translate(30 24)">
    <use xlink:href="#rim"/>
    <path pointer-events="none" fill="none" stroke="white" stroke-width="1.5" d="M0,-3.0v7 M-2.5,-0.5L0,-3.0L2.5,-0.5"/>
  </g>
  <g id="arrowRight" transform="rotate(90) translate(36 -43)">
    <use xlink:href="#rim"/>
    <path pointer-events="none" fill="none" stroke="white" stroke-width="1.5" d="M0,-3.0v7 M-2.5,-0.5L0,-3.0L2.5,-0.5"/>
  </g>
  <g id="arrowDown" transform="rotate(180) translate(-30 -48)">
    <use xlink:href="#rim"/>
    <path pointer-events="none" fill="none" stroke="white" stroke-width="1.5" d="M0,-3.0v7 M-2.5,-0.5L0,-3.0L2.5,-0.5"/>
  </g>
  <g id="arrowLeft" transform="rotate(270) translate(-36 17)">
    <use xlink:href="#rim"/>
    <path pointer-events="none" fill="none" stroke="white" stroke-width="1.5" d="M0,-3.0v7 M-2.5,-0.5L0,-3.0L2.5,-0.5"/>
  </g>
  <g id="resetDef">
    <use xlink:href="#rim2" fill="#404040"><set attributeName="fill" to="#808080" begin="reset.mouseover" end="reset.mouseout"/></use>
  </g>
</defs>
<script type="application/ecmascript">
var viewWidth = 1131;
var viewHeight = 439;
var sectionId = 'dynsection-17';
</script>
<script type="application/ecmascript" xlink:href="svg.min.js"/>
<svg id="graph" class="graph">
<g id="viewport">
<title>s_convert_to_mixture_variables</title>
<!-- Node1 -->
<g id="Node000001" class="node">
<title>Node1</title>
<g id="a_Node000001"><a xlink:title="Dispatch to the s_convert_mixture_to_mixture_variables and s_convert_species_to_mixture_variables sub...">
<polygon fill="#999999" stroke="#666666" points="1123,-216.79 1001,-216.79 1001,-186.79 1123,-186.79 1123,-216.79"/>
<text text-anchor="start" x="1009" y="-204.79" font-family="Helvetica,sans-Serif" font-size="10.00">s_convert_to_mixture</text>
<text text-anchor="middle" x="1062" y="-193.79" font-family="Helvetica,sans-Serif" font-size="10.00">_variables</text>
</a>
</g>
</g>
<!-- Node2 -->
<g id="Node000002" class="node">
<title>Node2</title>
<g id="a_Node000002"><a xlink:href="m__variables__conversion_8fpp_8f90.html#a347ac5f0eb3158bfb1edcad667b6025c" target="_top" xlink:title=" ">
<polygon fill="white" stroke="#666666" points="779,-375.79 633,-375.79 633,-345.79 779,-345.79 779,-375.79"/>
<text text-anchor="start" x="641" y="-363.79" font-family="Helvetica,sans-Serif" font-size="10.00">__m_variables_conversion</text>
<text text-anchor="middle" x="706" y="-352.79" font-family="Helvetica,sans-Serif" font-size="10.00">_fpp_f90__</text>
</a>
</g>
</g>
<!-- Node1&#45;&gt;Node2 -->
<g id="edge1_Node000001_Node000002" class="edge">
<title>Node1&#45;&gt;Node2</title>
<g id="a_edge1_Node000001_Node000002"><a xlink:title=" ">
<path fill="none" stroke="#63b8ff" d="M1050.4,-226.54C1035.93,-256.98 1006.92,-307.6 965,-331.79 908.59,-364.34 833.66,-369.38 779.09,-367.6"/>
<polygon fill="#63b8ff" stroke="#63b8ff" points="1053.76,-227.6 1054.75,-217.05 1047.4,-224.68 1053.76,-227.6"/>
</a>
</g>
</g>
<!-- Node3 -->
<g id="Node000003" class="node">
<title>Node3</title>
<g id="a_Node000003"><a xlink:href="m__bubbles__EL_8fpp_8f90.html#a6f850343922afe652e16dc6b434acc23" target="_top" xlink:title="The purpose of this procedure is to obtain the information of the bubbles when starting fresh.">
<polygon fill="white" stroke="#666666" points="934.5,-107.29 845.5,-107.29 845.5,-88.29 934.5,-88.29 934.5,-107.29"/>
<text text-anchor="middle" x="890" y="-95.29" font-family="Helvetica,sans-Serif" font-size="10.00">s_add_bubbles</text>
</a>
</g>
</g>
<!-- Node1&#45;&gt;Node3 -->
<g id="edge2_Node000001_Node000003" class="edge">
<title>Node1&#45;&gt;Node3</title>
<g id="a_edge2_Node000001_Node000003"><a xlink:title=" ">
<path fill="none" stroke="#63b8ff" d="M1036.16,-180.09C1017.47,-164.48 990.75,-143.65 965,-128.79 950.28,-120.29 932.79,-112.85 918.5,-107.39"/>
<polygon fill="#63b8ff" stroke="#63b8ff" points="1034.01,-182.85 1043.9,-186.64 1038.53,-177.51 1034.01,-182.85"/>
</a>
</g>
</g>
<!-- Node9 -->
<g id="Node000009" class="node">
<title>Node9</title>
<g id="a_Node000009"><a xlink:href="m__variables__conversion_8fpp_8f90.html#aa60d444204129a7ea7db312e4435e64f" target="_top" xlink:title="The following procedure handles the conversion between the conservative variables and the primitive v...">
<polygon fill="white" stroke="#666666" points="956,-261.79 824,-261.79 824,-231.79 956,-231.79 956,-261.79"/>
<text text-anchor="start" x="832" y="-249.79" font-family="Helvetica,sans-Serif" font-size="10.00">s_convert_conservative</text>
<text text-anchor="middle" x="890" y="-238.79" font-family="Helvetica,sans-Serif" font-size="10.00">_to_primitive_variables</text>
</a>
</g>
</g>
<!-- Node1&#45;&gt;Node9 -->
<g id="edge8_Node000001_Node000009" class="edge">
<title>Node1&#45;&gt;Node9</title>
<g id="a_edge8_Node000001_Node000009"><a xlink:title=" ">
<path fill="none" stroke="#63b8ff" d="M994.04,-219.51C978.78,-223.55 962.72,-227.8 947.93,-231.72"/>
<polygon fill="#63b8ff" stroke="#63b8ff" points="995.15,-222.84 1003.92,-216.9 993.36,-216.07 995.15,-222.84"/>
</a>
</g>
</g>
<!-- Node23 -->
<g id="Node000023" class="node">
<title>Node23</title>
<g id="a_Node000023"><a xlink:href="m__variables__conversion_8fpp_8f90.html#a230210edf077e619ecf798be553d5023" target="_top" xlink:title="The following procedure handles the conversion between the primitive variables and the conservative v...">
<polygon fill="white" stroke="#666666" points="965,-322.79 815,-322.79 815,-292.79 965,-292.79 965,-322.79"/>
<text text-anchor="start" x="823" y="-310.79" font-family="Helvetica,sans-Serif" font-size="10.00">s_convert_primitive</text>
<text text-anchor="middle" x="890" y="-299.79" font-family="Helvetica,sans-Serif" font-size="10.00">_to_conservative_variables</text>
</a>
</g>
</g>
<!-- Node1&#45;&gt;Node23 -->
<g id="edge33_Node000001_Node000023" class="edge">
<title>Node1&#45;&gt;Node23</title>
<g id="a_edge33_Node000001_Node000023"><a xlink:title=" ">
<path fill="none" stroke="#63b8ff" d="M1033.66,-223.22C1014.88,-237.5 989.07,-256.25 965,-270.79 951.97,-278.66 937.04,-286.36 924.02,-292.67"/>
<polygon fill="#63b8ff" stroke="#63b8ff" points="1035.96,-225.87 1041.77,-217.01 1031.7,-220.32 1035.96,-225.87"/>
</a>
</g>
</g>
<!-- Node24 -->
<g id="Node000024" class="node">
<title>Node24</title>
<g id="a_Node000024"><a xlink:href="m__start__up_8fpp_8f90.html#aa6529a04f6acb14992b560ae7bbaeb03" target="_top" xlink:title="The purpose of this procedure is to initialize the values of the internal&#45;energy equations of each ph...">
<polygon fill="white" stroke="#666666" points="443,-30.79 331,-30.79 331,-0.79 443,-0.79 443,-30.79"/>
<text text-anchor="start" x="339" y="-18.79" font-family="Helvetica,sans-Serif" font-size="10.00">s_initialize_internal</text>
<text text-anchor="middle" x="387" y="-7.79" font-family="Helvetica,sans-Serif" font-size="10.00">_energy_equations</text>
</a>
</g>
</g>
<!-- Node1&#45;&gt;Node24 -->
<g id="edge35_Node000001_Node000024" class="edge">
<title>Node1&#45;&gt;Node24</title>
<g id="a_edge35_Node000001_Node000024"><a xlink:title=" ">
<path fill="none" stroke="#63b8ff" d="M1049.58,-177.42C1034.6,-148.48 1005.39,-101.3 965,-78.79 794.23,16.38 550.93,3.49 443.09,-8.34"/>
<polygon fill="#63b8ff" stroke="#63b8ff" points="1046.51,-179.1 1054.11,-186.47 1052.77,-175.96 1046.51,-179.1"/>
</a>
</g>
</g>
<!-- Node25 -->
<g id="Node000025" class="node">
<title>Node25</title>
<g id="a_Node000025"><a xlink:href="m__data__output_8fpp_8f90.html#a0eb579b4fb6abd1205444045aff3e448" target="_top" xlink:title="This writes a formatted data file for the flow probe information.">
<polygon fill="white" stroke="#666666" points="595.5,-136.29 485.5,-136.29 485.5,-117.29 595.5,-117.29 595.5,-136.29"/>
<text text-anchor="middle" x="540.5" y="-124.29" font-family="Helvetica,sans-Serif" font-size="10.00">s_write_probe_files</text>
</a>
</g>
</g>
<!-- Node1&#45;&gt;Node25 -->
<g id="edge38_Node000001_Node000025" class="edge">
<title>Node1&#45;&gt;Node25</title>
<g id="a_edge38_Node000001_Node000025"><a xlink:title=" ">
<path fill="none" stroke="#63b8ff" d="M990.72,-191.64C885.74,-176.48 690.21,-148.26 595.58,-134.59"/>
<polygon fill="#63b8ff" stroke="#63b8ff" points="990.5,-195.15 1000.9,-193.11 991.5,-188.22 990.5,-195.15"/>
</a>
</g>
</g>
<!-- Node4 -->
<g id="Node000004" class="node">
<title>Node4</title>
<g id="a_Node000004"><a xlink:href="m__bubbles__EL_8fpp_8f90.html#ae9c61f97e265490256edc6fbb5ff18ba" target="_top" xlink:title="The purpose of this procedure is to obtain the initial bubbles&#39; information.">
<polygon fill="white" stroke="#666666" points="767,-100.29 645,-100.29 645,-81.29 767,-81.29 767,-100.29"/>
<text text-anchor="middle" x="706" y="-88.29" font-family="Helvetica,sans-Serif" font-size="10.00">s_read_input_bubbles</text>
</a>
</g>
</g>
<!-- Node3&#45;&gt;Node4 -->
<g id="edge3_Node000003_Node000004" class="edge">
<title>Node3&#45;&gt;Node4</title>
<g id="a_edge3_Node000003_Node000004"><a xlink:title=" ">
<path fill="none" stroke="#63b8ff" d="M835.19,-95.72C813.79,-94.89 789.08,-93.94 767.1,-93.1"/>
<polygon fill="#63b8ff" stroke="#63b8ff" points="835.28,-99.22 845.41,-96.11 835.55,-92.23 835.28,-99.22"/>
</a>
</g>
</g>
<!-- Node5 -->
<g id="Node000005" class="node">
<title>Node5</title>
<g id="a_Node000005"><a xlink:href="m__bubbles__EL_8fpp_8f90.html#ae479bfa2d92038a5c675209a17224a05" target="_top" xlink:title="Initializes the lagrangian subgrid bubble solver.">
<polygon fill="white" stroke="#666666" points="597,-92.79 484,-92.79 484,-62.79 597,-62.79 597,-92.79"/>
<text text-anchor="start" x="492" y="-80.79" font-family="Helvetica,sans-Serif" font-size="10.00">s_initialize_bubbles</text>
<text text-anchor="middle" x="540.5" y="-69.79" font-family="Helvetica,sans-Serif" font-size="10.00">_el_module</text>
</a>
</g>
</g>
<!-- Node4&#45;&gt;Node5 -->
<g id="edge4_Node000004_Node000005" class="edge">
<title>Node4&#45;&gt;Node5</title>
<g id="a_edge4_Node000004_Node000005"><a xlink:title=" ">
<path fill="none" stroke="#63b8ff" d="M634.24,-85.16C621.8,-84.17 609.02,-83.16 597.07,-82.21"/>
<polygon fill="#63b8ff" stroke="#63b8ff" points="634.34,-88.68 644.58,-85.98 634.89,-81.7 634.34,-88.68"/>
</a>
</g>
</g>
<!-- Node6 -->
<g id="Node000006" class="node">
<title>Node6</title>
<g id="a_Node000006"><a xlink:href="m__start__up_8fpp_8f90.html#adf1f9241f0635f38fe245fc5dfb9f12a" target="_top" xlink:title=" ">
<polygon fill="white" stroke="#666666" points="288,-95.29 172,-95.29 172,-76.29 288,-76.29 288,-95.29"/>
<text text-anchor="middle" x="230" y="-83.29" font-family="Helvetica,sans-Serif" font-size="10.00">s_initialize_modules</text>
</a>
</g>
</g>
<!-- Node5&#45;&gt;Node6 -->
<g id="edge5_Node000005_Node000006" class="edge">
<title>Node5&#45;&gt;Node6</title>
<g id="a_edge5_Node000005_Node000006"><a xlink:title=" ">
<path fill="none" stroke="#63b8ff" d="M473.58,-76.36C431.37,-75.8 375.44,-75.71 326,-77.79 313.76,-78.3 300.66,-79.19 288.22,-80.19"/>
<polygon fill="#63b8ff" stroke="#63b8ff" points="473.68,-79.86 483.73,-76.51 473.78,-72.86 473.68,-79.86"/>
</a>
</g>
</g>
<!-- Node7 -->
<g id="Node000007" class="node">
<title>Node7</title>
<g id="a_Node000007"><a xlink:href="m__start__up_8fpp_8f90.html#ac09c216e540601049a819ae5b76091b5" target="_top" xlink:title=" ">
<polygon fill="white" stroke="#666666" points="134,-149.29 0,-149.29 0,-130.29 134,-130.29 134,-149.29"/>
<text text-anchor="middle" x="67" y="-137.29" font-family="Helvetica,sans-Serif" font-size="10.00">__m_start_up_fpp_f90__</text>
</a>
</g>
</g>
<!-- Node6&#45;&gt;Node7 -->
<g id="edge6_Node000006_Node000007" class="edge">
<title>Node6&#45;&gt;Node7</title>
<g id="a_edge6_Node000006_Node000007"><a xlink:title=" ">
<path fill="none" stroke="#63b8ff" d="M190.8,-98.6C161.83,-108.32 122.64,-121.46 96.4,-130.26"/>
<polygon fill="#63b8ff" stroke="#63b8ff" points="192.22,-101.82 200.59,-95.32 189.99,-95.18 192.22,-101.82"/>
</a>
</g>
</g>
<!-- Node8 -->
<g id="Node000008" class="node">
<title>Node8</title>
<g id="a_Node000008"><a xlink:href="p__main_8fpp_8f90.html#aeec10ee8e2940c953967da3e374e1579" target="_top" xlink:title="Quasi&#45;conservative, shock&#45; and interface&#45; capturing finite&#45;volume scheme for the multicomponent Navie...">
<polygon fill="white" stroke="#666666" points="93.5,-186.29 40.5,-186.29 40.5,-167.29 93.5,-167.29 93.5,-186.29"/>
<text text-anchor="middle" x="67" y="-174.29" font-family="Helvetica,sans-Serif" font-size="10.00">p_main</text>
</a>
</g>
</g>
<!-- Node6&#45;&gt;Node8 -->
<g id="edge7_Node000006_Node000008" class="edge">
<title>Node6&#45;&gt;Node8</title>
<g id="a_edge7_Node000006_Node000008"><a xlink:title=" ">
<path fill="none" stroke="#63b8ff" d="M211.58,-102.18C193.47,-118.41 163.68,-142.92 134,-157.79 121.31,-164.14 106.16,-168.7 93.57,-171.75"/>
<polygon fill="#63b8ff" stroke="#63b8ff" points="214.01,-104.7 219.03,-95.37 209.29,-99.53 214.01,-104.7"/>
</a>
</g>
</g>
<!-- Node9&#45;&gt;Node2 -->
<g id="edge9_Node000009_Node000002" class="edge">
<title>Node9&#45;&gt;Node2</title>
<g id="a_edge9_Node000009_Node000002"><a xlink:title=" ">
<path fill="none" stroke="#63b8ff" d="M840.75,-266.41C831.66,-271.32 822.62,-277.12 815,-283.79 793.57,-302.54 801.7,-319.6 779,-336.79 774.48,-340.21 769.45,-343.15 764.21,-345.69"/>
<polygon fill="#63b8ff" stroke="#63b8ff" points="842.48,-269.46 849.81,-261.8 839.31,-263.22 842.48,-269.46"/>
</a>
</g>
</g>
<!-- Node10 -->
<g id="Node000010" class="node">
<title>Node10</title>
<g id="a_Node000010"><a xlink:href="m__time__steppers_8fpp_8f90.html#ac88fae0ccfd624140b3c9caf3c7f2dd0" target="_top" xlink:title="Bubble source part in Strang operator splitting scheme.">
<polygon fill="white" stroke="#666666" points="767.5,-327.29 644.5,-327.29 644.5,-308.29 767.5,-308.29 767.5,-327.29"/>
<text text-anchor="middle" x="706" y="-315.29" font-family="Helvetica,sans-Serif" font-size="10.00">s_adaptive_dt_bubble</text>
</a>
</g>
</g>
<!-- Node9&#45;&gt;Node10 -->
<g id="edge10_Node000009_Node000010" class="edge">
<title>Node9&#45;&gt;Node10</title>
<g id="a_edge10_Node000009_Node000010"><a xlink:title=" ">
<path fill="none" stroke="#63b8ff" d="M850.21,-266.51C824.47,-279.4 792.94,-294.75 779,-299.79 770.15,-302.99 760.5,-305.82 751.22,-308.25"/>
<polygon fill="#63b8ff" stroke="#63b8ff" points="852.03,-269.51 859.39,-261.9 848.89,-263.26 852.03,-269.51"/>
</a>
</g>
</g>
<!-- Node13 -->
<g id="Node000013" class="node">
<title>Node13</title>
<g id="a_Node000013"><a xlink:href="m__time__steppers_8fpp_8f90.html#a7ad85772dc3154399535f2f164c2ce2b" target="_top" xlink:title=" ">
<polygon fill="white" stroke="#666666" points="748.5,-253.29 663.5,-253.29 663.5,-234.29 748.5,-234.29 748.5,-253.29"/>
<text text-anchor="middle" x="706" y="-241.29" font-family="Helvetica,sans-Serif" font-size="10.00">s_compute_dt</text>
</a>
</g>
</g>
<!-- Node9&#45;&gt;Node13 -->
<g id="edge15_Node000009_Node000013" class="edge">
<title>Node9&#45;&gt;Node13</title>
<g id="a_edge15_Node000009_Node000013"><a xlink:title=" ">
<path fill="none" stroke="#63b8ff" d="M813.68,-245.55C791.39,-245.18 767.81,-244.79 748.51,-244.47"/>
<polygon fill="#63b8ff" stroke="#63b8ff" points="813.75,-249.05 823.81,-245.71 813.87,-242.05 813.75,-249.05"/>
</a>
</g>
</g>
<!-- Node14 -->
<g id="Node000014" class="node">
<title>Node14</title>
<g id="a_Node000014"><a xlink:href="m__rhs_8fpp_8f90.html#a7bace127dc6fc78b5a53a7e8e7c58f17" target="_top" xlink:title=" ">
<polygon fill="white" stroke="#666666" points="751,-290.29 661,-290.29 661,-271.29 751,-271.29 751,-290.29"/>
<text text-anchor="middle" x="706" y="-278.29" font-family="Helvetica,sans-Serif" font-size="10.00">s_compute_rhs</text>
</a>
</g>
</g>
<!-- Node9&#45;&gt;Node14 -->
<g id="edge17_Node000009_Node000014" class="edge">
<title>Node9&#45;&gt;Node14</title>
<g id="a_edge17_Node000009_Node000014"><a xlink:title=" ">
<path fill="none" stroke="#63b8ff" d="M813.81,-260.83C792.53,-264.81 770.06,-269.01 751.25,-272.52"/>
<polygon fill="#63b8ff" stroke="#63b8ff" points="814.62,-264.24 823.81,-258.97 813.34,-257.36 814.62,-264.24"/>
</a>
</g>
</g>
<!-- Node19 -->
<g id="Node000019" class="node">
<title>Node19</title>
<g id="a_Node000019"><a xlink:href="m__data__output_8fpp_8f90.html#a81cdc0dd327f2dd53343cad8d7f74ede" target="_top" xlink:title="The goal of this subroutine is to output the grid and conservative variables data files for given tim...">
<polygon fill="white" stroke="#666666" points="761.5,-215.79 650.5,-215.79 650.5,-185.79 761.5,-185.79 761.5,-215.79"/>
<text text-anchor="start" x="658.5" y="-203.79" font-family="Helvetica,sans-Serif" font-size="10.00">s_write_serial_data</text>
<text text-anchor="middle" x="706" y="-192.79" font-family="Helvetica,sans-Serif" font-size="10.00">_files</text>
</a>
</g>
</g>
<!-- Node9&#45;&gt;Node19 -->
<g id="edge26_Node000009_Node000019" class="edge">
<title>Node9&#45;&gt;Node19</title>
<g id="a_edge26_Node000009_Node000019"><a xlink:title=" ">
<path fill="none" stroke="#63b8ff" d="M819.55,-229.23C800.43,-224.4 779.97,-219.23 761.8,-214.64"/>
<polygon fill="#63b8ff" stroke="#63b8ff" points="818.85,-232.67 829.41,-231.73 820.57,-225.88 818.85,-232.67"/>
</a>
</g>
</g>
<!-- Node11 -->
<g id="Node000011" class="node">
<title>Node11</title>
<g id="a_Node000011"><a xlink:href="m__time__steppers_8fpp_8f90.html#a5858523edfce42df32b2b0a8af54bc0e" target="_top" xlink:title="Strang splitting scheme with 3rd order TVD RK time&#45;stepping algorithm for the flux term and adaptive ...">
<polygon fill="white" stroke="#666666" points="438.5,-404.29 335.5,-404.29 335.5,-385.29 438.5,-385.29 438.5,-404.29"/>
<text text-anchor="middle" x="387" y="-392.29" font-family="Helvetica,sans-Serif" font-size="10.00">s_strang_splitting</text>
</a>
</g>
</g>
<!-- Node10&#45;&gt;Node11 -->
<g id="edge11_Node000010_Node000011" class="edge">
<title>Node10&#45;&gt;Node11</title>
<g id="a_edge11_Node000010_Node000011"><a xlink:title=" ">
<path fill="none" stroke="#63b8ff" d="M639.51,-332.13C637.23,-333.54 635.04,-335.09 633,-336.79 604.25,-360.67 628.58,-392.8 597,-412.79 537.61,-450.37 448.98,-421.06 408.95,-404.35"/>
<polygon fill="#63b8ff" stroke="#63b8ff" points="641.47,-335.05 648.73,-327.34 638.25,-328.84 641.47,-335.05"/>
</a>
</g>
</g>
<!-- Node12 -->
<g id="Node000012" class="node">
<title>Node12</title>
<g id="a_Node000012"><a xlink:href="m__start__up_8fpp_8f90.html#a1f6993aab1d2776640192c044a461640" target="_top" xlink:title=" ">
<polygon fill="white" stroke="#666666" points="290,-271.29 170,-271.29 170,-252.29 290,-252.29 290,-271.29"/>
<text text-anchor="middle" x="230" y="-259.29" font-family="Helvetica,sans-Serif" font-size="10.00">s_perform_time_step</text>
</a>
</g>
</g>
<!-- Node11&#45;&gt;Node12 -->
<g id="edge12_Node000011_Node000012" class="edge">
<title>Node11&#45;&gt;Node12</title>
<g id="a_edge12_Node000011_Node000012"><a xlink:title=" ">
<path fill="none" stroke="#63b8ff" d="M344.57,-381.24C338.08,-378.28 331.66,-374.8 326,-370.79 285.26,-341.88 250.45,-292.05 236.97,-271.29"/>
<polygon fill="#63b8ff" stroke="#63b8ff" points="343.47,-384.57 354.04,-385.21 346.17,-378.12 343.47,-384.57"/>
</a>
</g>
</g>
<!-- Node12&#45;&gt;Node7 -->
<g id="edge13_Node000012_Node000007" class="edge">
<title>Node12&#45;&gt;Node7</title>
<g id="a_edge13_Node000012_Node000007"><a xlink:title=" ">
<path fill="none" stroke="#63b8ff" d="M213.65,-244.49C188.05,-215.7 138.91,-160.79 134,-157.79 128.43,-154.38 122.2,-151.61 115.86,-149.35"/>
<polygon fill="#63b8ff" stroke="#63b8ff" points="211.23,-247.03 220.48,-252.18 216.46,-242.38 211.23,-247.03"/>
</a>
</g>
</g>
<!-- Node12&#45;&gt;Node8 -->
<g id="edge14_Node000012_Node000008" class="edge">
<title>Node12&#45;&gt;Node8</title>
<g id="a_edge14_Node000012_Node000008"><a xlink:title=" ">
<path fill="none" stroke="#63b8ff" d="M201.79,-247.42C168.94,-230.08 114.59,-201.39 86.34,-186.47"/>
<polygon fill="#63b8ff" stroke="#63b8ff" points="200.37,-250.63 210.84,-252.2 203.64,-244.44 200.37,-250.63"/>
</a>
</g>
</g>
<!-- Node13&#45;&gt;Node12 -->
<g id="edge16_Node000013_Node000012" class="edge">
<title>Node13&#45;&gt;Node12</title>
<g id="a_edge16_Node000013_Node000012"><a xlink:title=" ">
<path fill="none" stroke="#63b8ff" d="M653.26,-245.75C564.54,-249.12 383.91,-255.98 290.27,-259.54"/>
<polygon fill="#63b8ff" stroke="#63b8ff" points="653.49,-249.25 663.35,-245.37 653.23,-242.25 653.49,-249.25"/>
</a>
</g>
</g>
<!-- Node15 -->
<g id="Node000015" class="node">
<title>Node15</title>
<g id="a_Node000015"><a xlink:href="m__rhs_8fpp_8f90.html#a87616394067f1273cd06c4d299d10add" target="_top" xlink:title=" ">
<polygon fill="white" stroke="#666666" points="595.5,-366.29 485.5,-366.29 485.5,-347.29 595.5,-347.29 595.5,-366.29"/>
<text text-anchor="middle" x="540.5" y="-354.29" font-family="Helvetica,sans-Serif" font-size="10.00">__m_rhs_fpp_f90__</text>
</a>
</g>
</g>
<!-- Node14&#45;&gt;Node15 -->
<g id="edge18_Node000014_Node000015" class="edge">
<title>Node14&#45;&gt;Node15</title>
<g id="a_edge18_Node000014_Node000015"><a xlink:title=" ">
<path fill="none" stroke="#63b8ff" d="M650.89,-291.98C644.68,-294.16 638.58,-296.74 633,-299.79 613.95,-310.19 615.21,-320.98 597,-332.79 588.19,-338.5 577.79,-343.41 568.4,-347.27"/>
<polygon fill="#63b8ff" stroke="#63b8ff" points="652.2,-295.24 660.68,-288.88 650.09,-288.56 652.2,-295.24"/>
</a>
</g>
</g>
<!-- Node16 -->
<g id="Node000016" class="node">
<title>Node16</title>
<g id="a_Node000016"><a xlink:href="m__time__steppers_8fpp_8f90.html#a95dcf858eaba9951c12d4590ec467f62" target="_top" xlink:title="1st order TVD RK time&#45;stepping algorithm">
<polygon fill="white" stroke="#666666" points="441.5,-328.29 332.5,-328.29 332.5,-309.29 441.5,-309.29 441.5,-328.29"/>
<text text-anchor="middle" x="387" y="-316.29" font-family="Helvetica,sans-Serif" font-size="10.00">s_1st_order_tvd_rk</text>
</a>
</g>
</g>
<!-- Node14&#45;&gt;Node16 -->
<g id="edge19_Node000014_Node000016" class="edge">
<title>Node14&#45;&gt;Node16</title>
<g id="a_edge19_Node000014_Node000016"><a xlink:title=" ">
<path fill="none" stroke="#63b8ff" d="M651.09,-291.18C633.86,-294.26 614.67,-297.43 597,-299.79 544.45,-306.79 484.12,-311.97 441.83,-315.14"/>
<polygon fill="#63b8ff" stroke="#63b8ff" points="651.78,-294.62 660.99,-289.39 650.53,-287.73 651.78,-294.62"/>
</a>
</g>
</g>
<!-- Node17 -->
<g id="Node000017" class="node">
<title>Node17</title>
<g id="a_Node000017"><a xlink:href="m__time__steppers_8fpp_8f90.html#a30504937d9153ef9e5d9990a8894e89a" target="_top" xlink:title="2nd order TVD RK time&#45;stepping algorithm">
<polygon fill="white" stroke="#666666" points="596.5,-290.29 484.5,-290.29 484.5,-271.29 596.5,-271.29 596.5,-290.29"/>
<text text-anchor="middle" x="540.5" y="-278.29" font-family="Helvetica,sans-Serif" font-size="10.00">s_2nd_order_tvd_rk</text>
</a>
</g>
</g>
<!-- Node14&#45;&gt;Node17 -->
<g id="edge21_Node000014_Node000017" class="edge">
<title>Node14&#45;&gt;Node17</title>
<g id="a_edge21_Node000014_Node000017"><a xlink:title=" ">
<path fill="none" stroke="#63b8ff" d="M650.75,-280.79C633.35,-280.79 614.06,-280.79 596.6,-280.79"/>
<polygon fill="#63b8ff" stroke="#63b8ff" points="650.75,-284.29 660.75,-280.79 650.75,-277.29 650.75,-284.29"/>
</a>
</g>
</g>
<!-- Node18 -->
<g id="Node000018" class="node">
<title>Node18</title>
<g id="a_Node000018"><a xlink:href="m__time__steppers_8fpp_8f90.html#aa54ad1694d32cfe180d81112527699e4" target="_top" xlink:title="3rd order TVD RK time&#45;stepping algorithm">
<polygon fill="white" stroke="#666666" points="595.5,-403.29 485.5,-403.29 485.5,-384.29 595.5,-384.29 595.5,-403.29"/>
<text text-anchor="middle" x="540.5" y="-391.29" font-family="Helvetica,sans-Serif" font-size="10.00">s_3rd_order_tvd_rk</text>
</a>
</g>
</g>
<!-- Node14&#45;&gt;Node18 -->
<g id="edge23_Node000014_Node000018" class="edge">
<title>Node14&#45;&gt;Node18</title>
<g id="a_edge23_Node000014_Node000018"><a xlink:title=" ">
<path fill="none" stroke="#63b8ff" d="M651.2,-289.31C644.62,-291.93 638.34,-295.35 633,-299.79 604.25,-323.67 625.07,-351.11 597,-375.79 593.12,-379.2 588.58,-381.96 583.8,-384.21"/>
<polygon fill="#63b8ff" stroke="#63b8ff" points="652.62,-292.52 660.98,-286.01 650.39,-285.89 652.62,-292.52"/>
</a>
</g>
</g>
<!-- Node16&#45;&gt;Node12 -->
<g id="edge20_Node000016_Node000012" class="edge">
<title>Node16&#45;&gt;Node12</title>
<g id="a_edge20_Node000016_Node000012"><a xlink:title=" ">
<path fill="none" stroke="#63b8ff" d="M350.47,-305.72C321.98,-295.24 282.65,-280.78 257.03,-271.36"/>
<polygon fill="#63b8ff" stroke="#63b8ff" points="349.46,-309.08 360.06,-309.25 351.88,-302.51 349.46,-309.08"/>
</a>
</g>
</g>
<!-- Node17&#45;&gt;Node12 -->
<g id="edge22_Node000017_Node000012" class="edge">
<title>Node17&#45;&gt;Node12</title>
<g id="a_edge22_Node000017_Node000012"><a xlink:title=" ">
<path fill="none" stroke="#63b8ff" d="M474.11,-276.76C419.66,-273.41 342.78,-268.67 290.14,-265.43"/>
<polygon fill="#63b8ff" stroke="#63b8ff" points="474.15,-280.27 484.35,-277.39 474.58,-273.28 474.15,-280.27"/>
</a>
</g>
</g>
<!-- Node18&#45;&gt;Node11 -->
<g id="edge25_Node000018_Node000011" class="edge">
<title>Node18&#45;&gt;Node11</title>
<g id="a_edge25_Node000018_Node000011"><a xlink:title=" ">
<path fill="none" stroke="#63b8ff" d="M475.11,-394.21C462.91,-394.29 450.3,-394.38 438.6,-394.45"/>
<polygon fill="#63b8ff" stroke="#63b8ff" points="475.26,-397.71 485.23,-394.15 475.21,-390.71 475.26,-397.71"/>
</a>
</g>
</g>
<!-- Node18&#45;&gt;Node12 -->
<g id="edge24_Node000018_Node000012" class="edge">
<title>Node18&#45;&gt;Node12</title>
<g id="a_edge24_Node000018_Node000012"><a xlink:title=" ">
<path fill="none" stroke="#63b8ff" d="M484.15,-382.02C430.56,-370.13 353.5,-351.61 326,-337.79 290.71,-320.05 256.28,-287.68 240.29,-271.51"/>
<polygon fill="#63b8ff" stroke="#63b8ff" points="483.68,-385.5 494.2,-384.23 485.19,-378.66 483.68,-385.5"/>
</a>
</g>
</g>
<!-- Node20 -->
<g id="Node000020" class="node">
<title>Node20</title>
<g id="a_Node000020"><a xlink:href="m__data__output_8fpp_8f90.html#a979b8a2cf4215a8122fc461c0512dbba" target="_top" xlink:title=" ">
<polygon fill="white" stroke="#666666" points="448,-176.79 326,-176.79 326,-146.79 448,-146.79 448,-176.79"/>
<text text-anchor="start" x="334" y="-164.79" font-family="Helvetica,sans-Serif" font-size="10.00">__m_data_output_fpp</text>
<text text-anchor="middle" x="387" y="-153.79" font-family="Helvetica,sans-Serif" font-size="10.00">_f90__</text>
</a>
</g>
</g>
<!-- Node19&#45;&gt;Node20 -->
<g id="edge27_Node000019_Node000020" class="edge">
<title>Node19&#45;&gt;Node20</title>
<g id="a_edge27_Node000019_Node000020"><a xlink:title=" ">
<path fill="none" stroke="#63b8ff" d="M640.22,-190.04C626,-187.83 611.01,-185.63 597,-183.79 546.9,-177.21 489.83,-171.31 448.01,-167.28"/>
<polygon fill="#63b8ff" stroke="#63b8ff" points="639.99,-193.54 650.41,-191.64 641.08,-186.63 639.99,-193.54"/>
</a>
</g>
</g>
<!-- Node21 -->
<g id="Node000021" class="node">
<title>Node21</title>
<g id="a_Node000021"><a xlink:href="m__data__output_8fpp_8f90.html#a2d8566ed05d923060e9914679222ebd1" target="_top" xlink:title="Write data files. Dispatch subroutine that replaces procedure pointer.">
<polygon fill="white" stroke="#666666" points="592.5,-212.29 488.5,-212.29 488.5,-193.29 592.5,-193.29 592.5,-212.29"/>
<text text-anchor="middle" x="540.5" y="-200.29" font-family="Helvetica,sans-Serif" font-size="10.00">s_write_data_files</text>
</a>
</g>
</g>
<!-- Node19&#45;&gt;Node21 -->
<g id="edge28_Node000019_Node000021" class="edge">
<title>Node19&#45;&gt;Node21</title>
<g id="a_edge28_Node000019_Node000021"><a xlink:title=" ">
<path fill="none" stroke="#63b8ff" d="M639.92,-201.58C624.21,-201.78 607.64,-201.98 592.66,-202.16"/>
<polygon fill="#63b8ff" stroke="#63b8ff" points="640.15,-205.08 650.1,-201.46 640.06,-198.08 640.15,-205.08"/>
</a>
</g>
</g>
<!-- Node21&#45;&gt;Node20 -->
<g id="edge29_Node000021_Node000020" class="edge">
<title>Node21&#45;&gt;Node20</title>
<g id="a_edge29_Node000021_Node000020"><a xlink:title=" ">
<path fill="none" stroke="#63b8ff" d="M494.27,-190.55C478.39,-186.25 460.36,-181.37 443.71,-176.87"/>
<polygon fill="#63b8ff" stroke="#63b8ff" points="493.79,-194.04 504.36,-193.28 495.62,-187.29 493.79,-194.04"/>
</a>
</g>
</g>
<!-- Node22 -->
<g id="Node000022" class="node">
<title>Node22</title>
<g id="a_Node000022"><a xlink:href="m__start__up_8fpp_8f90.html#aa8fd49046e6bcfcdb3caecfa89226725" target="_top" xlink:title=" ">
<polygon fill="white" stroke="#666666" points="268.5,-186.29 191.5,-186.29 191.5,-167.29 268.5,-167.29 268.5,-186.29"/>
<text text-anchor="middle" x="230" y="-174.29" font-family="Helvetica,sans-Serif" font-size="10.00">s_save_data</text>
</a>
</g>
</g>
<!-- Node21&#45;&gt;Node22 -->
<g id="edge30_Node000021_Node000022" class="edge">
<title>Node21&#45;&gt;Node22</title>
<g id="a_edge30_Node000021_Node000022"><a xlink:title=" ">
<path fill="none" stroke="#63b8ff" d="M477.92,-198.13C435.26,-194.84 377.16,-190.25 326,-185.79 307.19,-184.15 286.29,-182.18 268.9,-180.51"/>
<polygon fill="#63b8ff" stroke="#63b8ff" points="477.91,-201.64 488.15,-198.92 478.44,-194.66 477.91,-201.64"/>
</a>
</g>
</g>
<!-- Node22&#45;&gt;Node7 -->
<g id="edge31_Node000022_Node000007" class="edge">
<title>Node22&#45;&gt;Node7</title>
<g id="a_edge31_Node000022_Node000007"><a xlink:title=" ">
<path fill="none" stroke="#63b8ff" d="M181.42,-165.85C158.58,-160.6 131.46,-154.37 109.47,-149.32"/>
<polygon fill="#63b8ff" stroke="#63b8ff" points="180.72,-169.28 191.25,-168.11 182.29,-162.46 180.72,-169.28"/>
</a>
</g>
</g>
<!-- Node22&#45;&gt;Node8 -->
<g id="edge32_Node000022_Node000008" class="edge">
<title>Node22&#45;&gt;Node8</title>
<g id="a_edge32_Node000022_Node000008"><a xlink:title=" ">
<path fill="none" stroke="#63b8ff" d="M181.07,-176.79C152.52,-176.79 117.41,-176.79 93.96,-176.79"/>
<polygon fill="#63b8ff" stroke="#63b8ff" points="181.25,-180.29 191.25,-176.79 181.25,-173.29 181.25,-180.29"/>
</a>
</g>
</g>
<!-- Node23&#45;&gt;Node2 -->
<g id="edge34_Node000023_Node000002" class="edge">
<title>Node23&#45;&gt;Node2</title>
<g id="a_edge34_Node000023_Node000002"><a xlink:title=" ">
<path fill="none" stroke="#63b8ff" d="M827.61,-325.67C805.26,-332.17 780.23,-339.46 758.8,-345.7"/>
<polygon fill="#63b8ff" stroke="#63b8ff" points="828.71,-328.99 837.33,-322.83 826.75,-322.27 828.71,-328.99"/>
</a>
</g>
</g>
<!-- Node24&#45;&gt;Node6 -->
<g id="edge37_Node000024_Node000006" class="edge">
<title>Node24&#45;&gt;Node6</title>
<g id="a_edge37_Node000024_Node000006"><a xlink:title=" ">
<path fill="none" stroke="#63b8ff" d="M343.68,-35.34C326.98,-43.02 307.61,-51.87 290,-59.79 277.75,-65.29 264.02,-71.35 252.89,-76.23"/>
<polygon fill="#63b8ff" stroke="#63b8ff" points="345.55,-38.34 353.18,-30.98 342.63,-31.98 345.55,-38.34"/>
</a>
</g>
</g>
<!-- Node24&#45;&gt;Node7 -->
<g id="edge36_Node000024_Node000007" class="edge">
<title>Node24&#45;&gt;Node7</title>
<g id="a_edge36_Node000024_Node000007"><a xlink:title=" ">
<path fill="none" stroke="#63b8ff" d="M320.82,-24.4C276.8,-31.82 218.17,-44.9 170,-66.79 133.12,-83.54 95.99,-114.49 78.44,-130.16"/>
<polygon fill="#63b8ff" stroke="#63b8ff" points="321.52,-27.83 330.83,-22.76 320.39,-20.92 321.52,-27.83"/>
</a>
</g>
</g>
<!-- Node25&#45;&gt;Node20 -->
<g id="edge39_Node000025_Node000020" class="edge">
<title>Node25&#45;&gt;Node20</title>
<g id="a_edge39_Node000025_Node000020"><a xlink:title=" ">
<path fill="none" stroke="#63b8ff" d="M488.06,-138.67C475.21,-141.64 461.32,-144.85 448.09,-147.9"/>
<polygon fill="#63b8ff" stroke="#63b8ff" points="489.15,-142.01 498.1,-136.35 487.57,-135.19 489.15,-142.01"/>
</a>
</g>
</g>
<!-- Node26 -->
<g id="Node000026" class="node">
<title>Node26</title>
<g id="a_Node000026"><a xlink:href="namespacem__derived__variables.html#a516a9808b3446b7b45029f6451d02b3f" target="_top" xlink:title="Writes coherent body information, communication files, and probes.">
<polygon fill="white" stroke="#666666" points="446.5,-128.29 327.5,-128.29 327.5,-87.29 446.5,-87.29 446.5,-128.29"/>
<text text-anchor="start" x="335.5" y="-116.29" font-family="Helvetica,sans-Serif" font-size="10.00">m_derived_variables</text>
<text text-anchor="start" x="335.5" y="-105.29" font-family="Helvetica,sans-Serif" font-size="10.00">::s_compute_derived</text>
<text text-anchor="middle" x="387" y="-94.29" font-family="Helvetica,sans-Serif" font-size="10.00">_variables</text>
</a>
</g>
</g>
<!-- Node25&#45;&gt;Node26 -->
<g id="edge40_Node000025_Node000026" class="edge">
<title>Node25&#45;&gt;Node26</title>
<g id="a_edge40_Node000025_Node000026"><a xlink:title=" ">
<path fill="none" stroke="#63b8ff" d="M475.07,-118.71C465.58,-117.52 455.86,-116.3 446.5,-115.12"/>
<polygon fill="#63b8ff" stroke="#63b8ff" points="474.88,-122.21 485.23,-119.98 475.75,-115.26 474.88,-122.21"/>
</a>
</g>
</g>
<!-- Node26&#45;&gt;Node12 -->
<g id="edge41_Node000026_Node000012" class="edge">
<title>Node26&#45;&gt;Node12</title>
<g id="a_edge41_Node000026_Node000012"><a xlink:title=" ">
<path fill="none" stroke="#63b8ff" d="M330.07,-134.35C328.67,-135.46 327.31,-136.61 326,-137.79 303.78,-157.89 307.96,-170.8 290,-194.79 273.84,-216.38 252.39,-239.57 240.31,-252.21"/>
<polygon fill="#63b8ff" stroke="#63b8ff" points="332.39,-137 338.52,-128.36 328.34,-131.28 332.39,-137"/>
</a>
</g>
</g>
</g>
</svg>

<g id="navigator" transform="translate(0 0)" fill="#404254">
  <rect fill="#f2f5e9" fill-opacity="0.5" stroke="#606060" stroke-width=".5" x="0" y="0" width="60" height="60"/>
  <use id="zoomplus" xlink:href="#zoomPlus" x="17" y="9" onmousedown="handleZoom(evt,'in')"/>
  <use id="zoomminus" xlink:href="#zoomMin" x="42" y="9" onmousedown="handleZoom(evt,'out')"/>
  <use id="reset" xlink:href="#resetDef" x="30" y="36" onmousedown="handleReset()"/>
   <use id="arrowup" xlink:href="#arrowUp" x="0" y="0" onmousedown="handlePan(0,-1)"/>
  <use id="arrowright" xlink:href="#arrowRight" x="0" y="0" onmousedown="handlePan(1,0)"/>
  <use id="arrowdown" xlink:href="#arrowDown" x="0" y="0" onmousedown="handlePan(0,1)"/>
  <use id="arrowleft" xlink:href="#arrowLeft" x="0" y="0" onmousedown="handlePan(-1,0)"/>
</g>
<svg viewBox="0 0 15 15" width="100%" height="30px" preserveAspectRatio="xMaxYMin meet">
 <g id="arrow_out" transform="scale(0.3 0.3)">
  <a xlink:href="m__variables__conversion_8fpp_8f90_ab8bdf7610d49d294015daa441faabc01_icgraph_org.svg" target="_base">
   <rect id="button" ry="5" rx="5" y="6" x="6" height="38" width="38"
        fill="#f2f5e9" fill-opacity="0.5" stroke="#606060" stroke-width="1.0"/>
   <path id="arrow"
     d="M 11.500037,31.436501 C 11.940474,20.09759 22.043105,11.32322 32.158766,21.979434 L 37.068811,17.246167 C 37.068811,17.246167 37.088388,32 37.088388,32 L 22.160133,31.978069 C 22.160133,31.978069 26.997745,27.140456 26.997745,27.140456 C 18.528582,18.264221 13.291696,25.230495 11.500037,31.436501 z"
     style="fill:#404040;"/>
  </a>
 </g>
</svg>

<style type='text/css'>
<![CDATA[
[data-mouse-over-selected='false'] { opacity: 0.7; }
[data-mouse-over-selected='true']  { opacity: 1.0; }
]]>
</style>
<script type="application/ecmascript"><![CDATA[
document.addEventListener('DOMContentLoaded', (event) => {
  highlightEdges();
  highlightAdjacentNodes();
});
]]></script>
</svg>
