<?xml version="1.0" encoding="UTF-8" standalone="no"?>
<!DOCTYPE svg PUBLIC "-//W3C//DTD SVG 1.1//EN"
 "http://www.w3.org/Graphics/SVG/1.1/DTD/svg11.dtd">
<!-- Generated by graphviz version 2.43.0 (0)
 -->
<!-- Title: s_compute_fast_magnetosonic_speed Pages: 1 -->
<svg width="1276pt" height="178pt"
 viewBox="0.00 0.00 1276.00 178.00" xmlns="http://www.w3.org/2000/svg" xmlns:xlink="http://www.w3.org/1999/xlink">
<g id="graph0" class="graph" transform="scale(1 1) rotate(0) translate(4 174)">
<title>s_compute_fast_magnetosonic_speed</title>
<!-- Node1 -->
<g id="Node000001" class="node">
<title>Node1</title>
<g id="a_Node000001"><a xlink:title=" ">
<polygon fill="#999999" stroke="#666666" points="1268,-112.5 1100,-112.5 1100,-82.5 1268,-82.5 1268,-112.5"/>
<text text-anchor="start" x="1108" y="-100.5" font-family="Helvetica,sans-Serif" font-size="10.00">s_compute_fast_magnetosonic</text>
<text text-anchor="middle" x="1184" y="-89.5" font-family="Helvetica,sans-Serif" font-size="10.00">_speed</text>
</a>
</g>
</g>
<!-- Node2 -->
<g id="Node000002" class="node">
<title>Node2</title>
<g id="a_Node000002"><a xlink:href="m__variables__conversion_8fpp_8f90.html#a347ac5f0eb3158bfb1edcad667b6025c" target="_top" xlink:title=" ">
<polygon fill="white" stroke="#666666" points="1064,-155.5 918,-155.5 918,-125.5 1064,-125.5 1064,-155.5"/>
<text text-anchor="start" x="926" y="-143.5" font-family="Helvetica,sans-Serif" font-size="10.00">__m_variables_conversion</text>
<text text-anchor="middle" x="991" y="-132.5" font-family="Helvetica,sans-Serif" font-size="10.00">_fpp_f90__</text>
</a>
</g>
</g>
<!-- Node1&#45;&gt;Node2 -->
<g id="edge1_Node000001_Node000002" class="edge">
<title>Node1&#45;&gt;Node2</title>
<g id="a_edge1_Node000001_Node000002"><a xlink:title=" ">
<path fill="none" stroke="#63b8ff" d="M1106.03,-114.83C1090.37,-118.35 1074.03,-122.03 1058.76,-125.47"/>
<polygon fill="#63b8ff" stroke="#63b8ff" points="1107.21,-118.15 1116.2,-112.54 1105.67,-111.32 1107.21,-118.15"/>
</a>
</g>
</g>
<!-- Node3 -->
<g id="Node000003" class="node">
<title>Node3</title>
<g id="a_Node000003"><a xlink:href="m__riemann__solvers_8fpp_8f90.html#a7201ee610e9eb4d4777e257035d04705" target="_top" xlink:title=" ">
<polygon fill="white" stroke="#666666" points="1051,-107 931,-107 931,-88 1051,-88 1051,-107"/>
<text text-anchor="middle" x="991" y="-95" font-family="Helvetica,sans-Serif" font-size="10.00">s_hll_riemann_solver</text>
</a>
</g>
</g>
<!-- Node1&#45;&gt;Node3 -->
<g id="edge2_Node000001_Node000003" class="edge">
<title>Node1&#45;&gt;Node3</title>
<g id="a_edge2_Node000001_Node000003"><a xlink:title=" ">
<path fill="none" stroke="#63b8ff" d="M1089.75,-97.5C1076.6,-97.5 1063.39,-97.5 1051.12,-97.5"/>
<polygon fill="#63b8ff" stroke="#63b8ff" points="1089.78,-101 1099.78,-97.5 1089.78,-94 1089.78,-101"/>
</a>
</g>
</g>
<!-- Node15 -->
<g id="Node000015" class="node">
<title>Node15</title>
<g id="a_Node000015"><a xlink:href="m__riemann__solvers_8fpp_8f90.html#a38575cab36f643a51b9895b2fd18e4a0" target="_top" xlink:title="HLLD Riemann solver resolves 5 of the 7 waves of MHD equations: 1 entropy wave, 2 Alfvén waves,...">
<polygon fill="white" stroke="#666666" points="1054,-70 928,-70 928,-51 1054,-51 1054,-70"/>
<text text-anchor="middle" x="991" y="-58" font-family="Helvetica,sans-Serif" font-size="10.00">s_hlld_riemann_solver</text>
</a>
</g>
</g>
<!-- Node1&#45;&gt;Node15 -->
<g id="edge18_Node000001_Node000015" class="edge">
<title>Node1&#45;&gt;Node15</title>
<g id="a_edge18_Node000001_Node000015"><a xlink:title=" ">
<path fill="none" stroke="#63b8ff" d="M1095.33,-80.52C1076.71,-76.91 1057.69,-73.22 1041.13,-70.02"/>
<polygon fill="#63b8ff" stroke="#63b8ff" points="1094.83,-83.98 1105.31,-82.45 1096.16,-77.11 1094.83,-83.98"/>
</a>
</g>
</g>
<!-- Node4 -->
<g id="Node000004" class="node">
<title>Node4</title>
<g id="a_Node000004"><a xlink:href="m__riemann__solvers_8fpp_8f90.html#a8307be81e3cdbdafbf8e65f19b31fc30" target="_top" xlink:title="This module features a database of approximate and exact Riemann problem solvers for the Navier&#45;Stoke...">
<polygon fill="white" stroke="#666666" points="743,-75.5 620,-75.5 620,-45.5 743,-45.5 743,-75.5"/>
<text text-anchor="start" x="628" y="-63.5" font-family="Helvetica,sans-Serif" font-size="10.00">__m_riemann_solvers</text>
<text text-anchor="middle" x="681.5" y="-52.5" font-family="Helvetica,sans-Serif" font-size="10.00">_fpp_f90__</text>
</a>
</g>
</g>
<!-- Node3&#45;&gt;Node4 -->
<g id="edge3_Node000003_Node000004" class="edge">
<title>Node3&#45;&gt;Node4</title>
<g id="a_edge3_Node000003_Node000004"><a xlink:title=" ">
<path fill="none" stroke="#63b8ff" d="M920.78,-104.45C879.3,-106.98 825.71,-107.37 779,-98.5 772.7,-97.3 743.51,-85.67 718.87,-75.58"/>
<polygon fill="#63b8ff" stroke="#63b8ff" points="921.04,-107.94 930.78,-103.79 920.57,-100.96 921.04,-107.94"/>
</a>
</g>
</g>
<!-- Node5 -->
<g id="Node000005" class="node">
<title>Node5</title>
<g id="a_Node000005"><a xlink:href="m__riemann__solvers_8fpp_8f90.html#adf2f2ec005812bb3f0151dcab73a8a47" target="_top" xlink:title="Dispatch to the subroutines that are utilized to compute the Riemann problem solution....">
<polygon fill="white" stroke="#666666" points="882,-89 779,-89 779,-70 882,-70 882,-89"/>
<text text-anchor="middle" x="830.5" y="-77" font-family="Helvetica,sans-Serif" font-size="10.00">s_riemann_solver</text>
</a>
</g>
</g>
<!-- Node3&#45;&gt;Node5 -->
<g id="edge4_Node000003_Node000005" class="edge">
<title>Node3&#45;&gt;Node5</title>
<g id="a_edge4_Node000003_Node000005"><a xlink:title=" ">
<path fill="none" stroke="#63b8ff" d="M920.71,-89.63C907.78,-88.16 894.49,-86.65 882.24,-85.26"/>
<polygon fill="#63b8ff" stroke="#63b8ff" points="920.65,-93.15 930.98,-90.8 921.44,-86.19 920.65,-93.15"/>
</a>
</g>
</g>
<!-- Node5&#45;&gt;Node4 -->
<g id="edge5_Node000005_Node000004" class="edge">
<title>Node5&#45;&gt;Node4</title>
<g id="a_edge5_Node000005_Node000004"><a xlink:title=" ">
<path fill="none" stroke="#63b8ff" d="M768.72,-71.64C760.25,-70.55 751.54,-69.42 743.07,-68.33"/>
<polygon fill="#63b8ff" stroke="#63b8ff" points="768.54,-75.15 778.91,-72.96 769.44,-68.21 768.54,-75.15"/>
</a>
</g>
</g>
<!-- Node6 -->
<g id="Node000006" class="node">
<title>Node6</title>
<g id="a_Node000006"><a xlink:href="m__rhs_8fpp_8f90.html#a7bace127dc6fc78b5a53a7e8e7c58f17" target="_top" xlink:title=" ">
<polygon fill="white" stroke="#666666" points="726.5,-113 636.5,-113 636.5,-94 726.5,-94 726.5,-113"/>
<text text-anchor="middle" x="681.5" y="-101" font-family="Helvetica,sans-Serif" font-size="10.00">s_compute_rhs</text>
</a>
</g>
</g>
<!-- Node5&#45;&gt;Node6 -->
<g id="edge6_Node000005_Node000006" class="edge">
<title>Node5&#45;&gt;Node6</title>
<g id="a_edge6_Node000005_Node000006"><a xlink:title=" ">
<path fill="none" stroke="#63b8ff" d="M768.81,-89.41C754.73,-91.71 740.01,-94.11 726.8,-96.27"/>
<polygon fill="#63b8ff" stroke="#63b8ff" points="769.61,-92.83 778.91,-87.76 768.48,-85.92 769.61,-92.83"/>
</a>
</g>
</g>
<!-- Node7 -->
<g id="Node000007" class="node">
<title>Node7</title>
<g id="a_Node000007"><a xlink:href="m__rhs_8fpp_8f90.html#a87616394067f1273cd06c4d299d10add" target="_top" xlink:title=" ">
<polygon fill="white" stroke="#666666" points="584,-170 474,-170 474,-151 584,-151 584,-170"/>
<text text-anchor="middle" x="529" y="-158" font-family="Helvetica,sans-Serif" font-size="10.00">__m_rhs_fpp_f90__</text>
</a>
</g>
</g>
<!-- Node6&#45;&gt;Node7 -->
<g id="edge7_Node000006_Node000007" class="edge">
<title>Node6&#45;&gt;Node7</title>
<g id="a_edge7_Node000006_Node000007"><a xlink:title=" ">
<path fill="none" stroke="#63b8ff" d="M645.64,-116.7C618.01,-127.17 580.04,-141.55 555.27,-150.93"/>
<polygon fill="#63b8ff" stroke="#63b8ff" points="647.2,-119.86 655.31,-113.04 644.72,-113.31 647.2,-119.86"/>
</a>
</g>
</g>
<!-- Node8 -->
<g id="Node000008" class="node">
<title>Node8</title>
<g id="a_Node000008"><a xlink:href="m__time__steppers_8fpp_8f90.html#a95dcf858eaba9951c12d4590ec467f62" target="_top" xlink:title="1st order TVD RK time&#45;stepping algorithm">
<polygon fill="white" stroke="#666666" points="436.5,-132 327.5,-132 327.5,-113 436.5,-113 436.5,-132"/>
<text text-anchor="middle" x="382" y="-120" font-family="Helvetica,sans-Serif" font-size="10.00">s_1st_order_tvd_rk</text>
</a>
</g>
</g>
<!-- Node6&#45;&gt;Node8 -->
<g id="edge8_Node000006_Node000008" class="edge">
<title>Node6&#45;&gt;Node8</title>
<g id="a_edge8_Node000006_Node000008"><a xlink:title=" ">
<path fill="none" stroke="#63b8ff" d="M626.23,-106.97C572.32,-110.41 490.18,-115.66 436.53,-119.08"/>
<polygon fill="#63b8ff" stroke="#63b8ff" points="626.53,-110.45 636.28,-106.32 626.08,-103.47 626.53,-110.45"/>
</a>
</g>
</g>
<!-- Node12 -->
<g id="Node000012" class="node">
<title>Node12</title>
<g id="a_Node000012"><a xlink:href="m__time__steppers_8fpp_8f90.html#a30504937d9153ef9e5d9990a8894e89a" target="_top" xlink:title="2nd order TVD RK time&#45;stepping algorithm">
<polygon fill="white" stroke="#666666" points="438,-95 326,-95 326,-76 438,-76 438,-95"/>
<text text-anchor="middle" x="382" y="-83" font-family="Helvetica,sans-Serif" font-size="10.00">s_2nd_order_tvd_rk</text>
</a>
</g>
</g>
<!-- Node6&#45;&gt;Node12 -->
<g id="edge12_Node000006_Node000012" class="edge">
<title>Node6&#45;&gt;Node12</title>
<g id="a_edge12_Node000006_Node000012"><a xlink:title=" ">
<path fill="none" stroke="#63b8ff" d="M625.99,-100.2C572.6,-96.97 491.69,-92.08 438.1,-88.83"/>
<polygon fill="#63b8ff" stroke="#63b8ff" points="626.09,-103.71 636.28,-100.82 626.51,-96.73 626.09,-103.71"/>
</a>
</g>
</g>
<!-- Node13 -->
<g id="Node000013" class="node">
<title>Node13</title>
<g id="a_Node000013"><a xlink:href="m__time__steppers_8fpp_8f90.html#aa54ad1694d32cfe180d81112527699e4" target="_top" xlink:title="3rd order TVD RK time&#45;stepping algorithm">
<polygon fill="white" stroke="#666666" points="584,-56 474,-56 474,-37 584,-37 584,-56"/>
<text text-anchor="middle" x="529" y="-44" font-family="Helvetica,sans-Serif" font-size="10.00">s_3rd_order_tvd_rk</text>
</a>
</g>
</g>
<!-- Node6&#45;&gt;Node13 -->
<g id="edge14_Node000006_Node000013" class="edge">
<title>Node6&#45;&gt;Node13</title>
<g id="a_edge14_Node000006_Node000013"><a xlink:title=" ">
<path fill="none" stroke="#63b8ff" d="M638.37,-90.84C632.18,-88.81 625.9,-86.67 620,-84.5 596.12,-75.73 569.32,-64.19 551.23,-56.14"/>
<polygon fill="#63b8ff" stroke="#63b8ff" points="637.38,-94.19 647.97,-93.91 639.51,-87.53 637.38,-94.19"/>
</a>
</g>
</g>
<!-- Node9 -->
<g id="Node000009" class="node">
<title>Node9</title>
<g id="a_Node000009"><a xlink:href="m__start__up_8fpp_8f90.html#a1f6993aab1d2776640192c044a461640" target="_top" xlink:title=" ">
<polygon fill="white" stroke="#666666" points="290,-76 170,-76 170,-57 290,-57 290,-76"/>
<text text-anchor="middle" x="230" y="-64" font-family="Helvetica,sans-Serif" font-size="10.00">s_perform_time_step</text>
</a>
</g>
</g>
<!-- Node8&#45;&gt;Node9 -->
<g id="edge9_Node000008_Node000009" class="edge">
<title>Node8&#45;&gt;Node9</title>
<g id="a_edge9_Node000008_Node000009"><a xlink:title=" ">
<path fill="none" stroke="#63b8ff" d="M341,-109.74C335.93,-108.03 330.83,-106.26 326,-104.5 301.12,-95.46 273.02,-84.07 253.88,-76.13"/>
<polygon fill="#63b8ff" stroke="#63b8ff" points="340.03,-113.11 350.62,-112.94 342.24,-106.47 340.03,-113.11"/>
</a>
</g>
</g>
<!-- Node10 -->
<g id="Node000010" class="node">
<title>Node10</title>
<g id="a_Node000010"><a xlink:href="m__start__up_8fpp_8f90.html#ac09c216e540601049a819ae5b76091b5" target="_top" xlink:title=" ">
<polygon fill="white" stroke="#666666" points="134,-95 0,-95 0,-76 134,-76 134,-95"/>
<text text-anchor="middle" x="67" y="-83" font-family="Helvetica,sans-Serif" font-size="10.00">__m_start_up_fpp_f90__</text>
</a>
</g>
</g>
<!-- Node9&#45;&gt;Node10 -->
<g id="edge10_Node000009_Node000010" class="edge">
<title>Node9&#45;&gt;Node10</title>
<g id="a_edge10_Node000009_Node000010"><a xlink:title=" ">
<path fill="none" stroke="#63b8ff" d="M159.99,-74.64C151.4,-75.66 142.64,-76.69 134.1,-77.7"/>
<polygon fill="#63b8ff" stroke="#63b8ff" points="160.44,-78.11 169.96,-73.47 159.62,-71.16 160.44,-78.11"/>
</a>
</g>
</g>
<!-- Node11 -->
<g id="Node000011" class="node">
<title>Node11</title>
<g id="a_Node000011"><a xlink:href="p__main_8fpp_8f90.html#aeec10ee8e2940c953967da3e374e1579" target="_top" xlink:title="Quasi&#45;conservative, shock&#45; and interface&#45; capturing finite&#45;volume scheme for the multicomponent Navie...">
<polygon fill="white" stroke="#666666" points="93.5,-58 40.5,-58 40.5,-39 93.5,-39 93.5,-58"/>
<text text-anchor="middle" x="67" y="-46" font-family="Helvetica,sans-Serif" font-size="10.00">p_main</text>
</a>
</g>
</g>
<!-- Node9&#45;&gt;Node11 -->
<g id="edge11_Node000009_Node000011" class="edge">
<title>Node9&#45;&gt;Node11</title>
<g id="a_edge11_Node000009_Node000011"><a xlink:title=" ">
<path fill="none" stroke="#63b8ff" d="M160.01,-58.79C136.53,-56.16 111.72,-53.39 93.78,-51.38"/>
<polygon fill="#63b8ff" stroke="#63b8ff" points="159.64,-62.27 169.96,-59.9 160.41,-55.31 159.64,-62.27"/>
</a>
</g>
</g>
<!-- Node12&#45;&gt;Node9 -->
<g id="edge13_Node000012_Node000009" class="edge">
<title>Node12&#45;&gt;Node9</title>
<g id="a_edge13_Node000012_Node000009"><a xlink:title=" ">
<path fill="none" stroke="#63b8ff" d="M315.98,-77.26C307.36,-76.17 298.55,-75.06 290.04,-73.98"/>
<polygon fill="#63b8ff" stroke="#63b8ff" points="315.64,-80.75 326,-78.53 316.52,-73.8 315.64,-80.75"/>
</a>
</g>
</g>
<!-- Node13&#45;&gt;Node9 -->
<g id="edge15_Node000013_Node000009" class="edge">
<title>Node13&#45;&gt;Node9</title>
<g id="a_edge15_Node000013_Node000009"><a xlink:title=" ">
<path fill="none" stroke="#63b8ff" d="M463.83,-50.82C412.23,-54.3 340.31,-59.14 290.1,-62.52"/>
<polygon fill="#63b8ff" stroke="#63b8ff" points="464.13,-54.31 473.87,-50.15 463.66,-47.32 464.13,-54.31"/>
</a>
</g>
</g>
<!-- Node14 -->
<g id="Node000014" class="node">
<title>Node14</title>
<g id="a_Node000014"><a xlink:href="m__time__steppers_8fpp_8f90.html#a5858523edfce42df32b2b0a8af54bc0e" target="_top" xlink:title="Strang splitting scheme with 3rd order TVD RK time&#45;stepping algorithm for the flux term and adaptive ...">
<polygon fill="white" stroke="#666666" points="433.5,-19 330.5,-19 330.5,0 433.5,0 433.5,-19"/>
<text text-anchor="middle" x="382" y="-7" font-family="Helvetica,sans-Serif" font-size="10.00">s_strang_splitting</text>
</a>
</g>
</g>
<!-- Node13&#45;&gt;Node14 -->
<g id="edge16_Node000013_Node000014" class="edge">
<title>Node13&#45;&gt;Node14</title>
<g id="a_edge16_Node000013_Node000014"><a xlink:title=" ">
<path fill="none" stroke="#63b8ff" d="M480.73,-34.44C461.19,-29.45 438.85,-23.75 420.47,-19.06"/>
<polygon fill="#63b8ff" stroke="#63b8ff" points="480.1,-37.89 490.66,-36.97 481.83,-31.11 480.1,-37.89"/>
</a>
</g>
</g>
<!-- Node14&#45;&gt;Node9 -->
<g id="edge17_Node000014_Node000009" class="edge">
<title>Node14&#45;&gt;Node9</title>
<g id="a_edge17_Node000014_Node000009"><a xlink:title=" ">
<path fill="none" stroke="#63b8ff" d="M346.26,-22.7C318.71,-33.17 280.88,-47.55 256.19,-56.93"/>
<polygon fill="#63b8ff" stroke="#63b8ff" points="347.79,-25.86 355.89,-19.04 345.3,-19.32 347.79,-25.86"/>
</a>
</g>
</g>
<!-- Node15&#45;&gt;Node4 -->
<g id="edge19_Node000015_Node000004" class="edge">
<title>Node15&#45;&gt;Node4</title>
<g id="a_edge19_Node000015_Node000004"><a xlink:title=" ">
<path fill="none" stroke="#63b8ff" d="M917.74,-60.5C864.61,-60.5 793.21,-60.5 743.06,-60.5"/>
<polygon fill="#63b8ff" stroke="#63b8ff" points="917.77,-64 927.77,-60.5 917.77,-57 917.77,-64"/>
</a>
</g>
</g>
<!-- Node15&#45;&gt;Node5 -->
<g id="edge20_Node000015_Node000005" class="edge">
<title>Node15&#45;&gt;Node5</title>
<g id="a_edge20_Node000015_Node000005"><a xlink:title=" ">
<path fill="none" stroke="#63b8ff" d="M917.75,-69.16C905.68,-70.61 893.4,-72.08 882.02,-73.44"/>
<polygon fill="#63b8ff" stroke="#63b8ff" points="918.3,-72.62 927.81,-67.95 917.47,-65.67 918.3,-72.62"/>
</a>
</g>
</g>
</g>
</svg>
