<?xml version="1.0" encoding="UTF-8" standalone="no"?>
<!DOCTYPE svg PUBLIC "-//W3C//DTD SVG 1.1//EN"
 "http://www.w3.org/Graphics/SVG/1.1/DTD/svg11.dtd">
<!-- Generated by graphviz version 2.43.0 (0)
 -->
<!-- Title: s_convert_species_to_mixture_variables_bubbles_acc Pages: 1 -->
<svg width="1423pt" height="370pt"
 viewBox="0.00 0.00 1423.00 369.59" xmlns="http://www.w3.org/2000/svg" xmlns:xlink="http://www.w3.org/1999/xlink">
<g id="graph0" class="graph" transform="scale(1 1) rotate(0) translate(4 365.59)">
<title>s_convert_species_to_mixture_variables_bubbles_acc</title>
<!-- Node1 -->
<g id="Node000001" class="node">
<title>Node1</title>
<g id="a_Node000001"><a xlink:title=" ">
<polygon fill="#999999" stroke="#666666" points="1415,-240.5 1239,-240.5 1239,-210.5 1415,-210.5 1415,-240.5"/>
<text text-anchor="start" x="1247" y="-228.5" font-family="Helvetica,sans-Serif" font-size="10.00">s_convert_species_to</text>
<text text-anchor="middle" x="1327" y="-217.5" font-family="Helvetica,sans-Serif" font-size="10.00">_mixture_variables_bubbles_acc</text>
</a>
</g>
</g>
<!-- Node2 -->
<g id="Node000002" class="node">
<title>Node2</title>
<g id="a_Node000002"><a xlink:href="m__variables__conversion_8fpp_8f90.html#a347ac5f0eb3158bfb1edcad667b6025c" target="_top" xlink:title=" ">
<polygon fill="white" stroke="#666666" points="797.5,-345.5 651.5,-345.5 651.5,-315.5 797.5,-315.5 797.5,-345.5"/>
<text text-anchor="start" x="659.5" y="-333.5" font-family="Helvetica,sans-Serif" font-size="10.00">__m_variables_conversion</text>
<text text-anchor="middle" x="724.5" y="-322.5" font-family="Helvetica,sans-Serif" font-size="10.00">_fpp_f90__</text>
</a>
</g>
</g>
<!-- Node1&#45;&gt;Node2 -->
<g id="edge1_Node000001_Node000002" class="edge">
<title>Node1&#45;&gt;Node2</title>
<g id="a_edge1_Node000001_Node000002"><a xlink:title=" ">
<path fill="none" stroke="#63b8ff" d="M1303.02,-247.75C1279.88,-268.55 1242.1,-298.33 1203,-311.5 1065.61,-357.79 893.29,-349.74 797.75,-339.96"/>
<polygon fill="#63b8ff" stroke="#63b8ff" points="1305.58,-250.15 1310.58,-240.81 1300.84,-245 1305.58,-250.15"/>
</a>
</g>
</g>
<!-- Node3 -->
<g id="Node000003" class="node">
<title>Node3</title>
<g id="a_Node000003"><a xlink:href="m__cbc_8fpp_8f90.html#a9771aa6ccf00c0970db70784acd622b5" target="_top" xlink:title="The following is the implementation of the CBC based on the work of Thompson (1987,...">
<polygon fill="white" stroke="#666666" points="1054,-216 1010,-216 1010,-197 1054,-197 1054,-216"/>
<text text-anchor="middle" x="1032" y="-204" font-family="Helvetica,sans-Serif" font-size="10.00">s_cbc</text>
</a>
</g>
</g>
<!-- Node1&#45;&gt;Node3 -->
<g id="edge2_Node000001_Node000003" class="edge">
<title>Node1&#45;&gt;Node3</title>
<g id="a_edge2_Node000001_Node000003"><a xlink:title=" ">
<path fill="none" stroke="#63b8ff" d="M1228.6,-219.18C1166.22,-215.14 1090.41,-210.22 1054.22,-207.88"/>
<polygon fill="#63b8ff" stroke="#63b8ff" points="1228.68,-222.7 1238.88,-219.85 1229.13,-215.71 1228.68,-222.7"/>
</a>
</g>
</g>
<!-- Node15 -->
<g id="Node000015" class="node">
<title>Node15</title>
<g id="a_Node000015"><a xlink:href="m__sim__helpers_8fpp_8f90.html#a3d01683090f9942e019f624aa58d01e5" target="_top" xlink:title="Computes enthalpy.">
<polygon fill="white" stroke="#666666" points="967,-130 849,-130 849,-111 967,-111 967,-130"/>
<text text-anchor="middle" x="908" y="-118" font-family="Helvetica,sans-Serif" font-size="10.00">s_compute_enthalpy</text>
</a>
</g>
</g>
<!-- Node1&#45;&gt;Node15 -->
<g id="edge17_Node000001_Node000015" class="edge">
<title>Node1&#45;&gt;Node15</title>
<g id="a_edge17_Node000001_Node000015"><a xlink:title=" ">
<path fill="none" stroke="#63b8ff" d="M1256.53,-208.01C1167.69,-185.64 1016.96,-147.69 946.9,-130.04"/>
<polygon fill="#63b8ff" stroke="#63b8ff" points="1255.7,-211.41 1266.25,-210.46 1257.41,-204.62 1255.7,-211.41"/>
</a>
</g>
</g>
<!-- Node20 -->
<g id="Node000020" class="node">
<title>Node20</title>
<g id="a_Node000020"><a xlink:href="m__variables__conversion_8fpp_8f90.html#aa60d444204129a7ea7db312e4435e64f" target="_top" xlink:title="The following procedure handles the conversion between the conservative variables and the primitive v...">
<polygon fill="white" stroke="#666666" points="974,-264.5 842,-264.5 842,-234.5 974,-234.5 974,-264.5"/>
<text text-anchor="start" x="850" y="-252.5" font-family="Helvetica,sans-Serif" font-size="10.00">s_convert_conservative</text>
<text text-anchor="middle" x="908" y="-241.5" font-family="Helvetica,sans-Serif" font-size="10.00">_to_primitive_variables</text>
</a>
</g>
</g>
<!-- Node1&#45;&gt;Node20 -->
<g id="edge26_Node000001_Node000020" class="edge">
<title>Node1&#45;&gt;Node20</title>
<g id="a_edge26_Node000001_Node000020"><a xlink:title=" ">
<path fill="none" stroke="#63b8ff" d="M1228.47,-231.11C1150.17,-235.62 1042.39,-241.82 974.21,-245.75"/>
<polygon fill="#63b8ff" stroke="#63b8ff" points="1229.05,-234.59 1238.84,-230.52 1228.65,-227.6 1229.05,-234.59"/>
</a>
</g>
</g>
<!-- Node25 -->
<g id="Node000025" class="node">
<title>Node25</title>
<g id="a_Node000025"><a xlink:href="m__variables__conversion_8fpp_8f90.html#a372d7e72401e01311cda4b4b0b8c3d29" target="_top" xlink:title="The following subroutine handles the conversion between the primitive variables and the Eulerian flux...">
<polygon fill="white" stroke="#666666" points="1203,-302.5 1090,-302.5 1090,-272.5 1203,-272.5 1203,-302.5"/>
<text text-anchor="start" x="1098" y="-290.5" font-family="Helvetica,sans-Serif" font-size="10.00">s_convert_primitive</text>
<text text-anchor="middle" x="1146.5" y="-279.5" font-family="Helvetica,sans-Serif" font-size="10.00">_to_flux_variables</text>
</a>
</g>
</g>
<!-- Node1&#45;&gt;Node25 -->
<g id="edge39_Node000001_Node000025" class="edge">
<title>Node1&#45;&gt;Node25</title>
<g id="a_edge39_Node000001_Node000025"><a xlink:title=" ">
<path fill="none" stroke="#63b8ff" d="M1273.03,-243.9C1246.86,-252.99 1215.67,-263.82 1190.93,-272.41"/>
<polygon fill="#63b8ff" stroke="#63b8ff" points="1274.49,-247.1 1282.79,-240.51 1272.2,-240.48 1274.49,-247.1"/>
</a>
</g>
</g>
<!-- Node26 -->
<g id="Node000026" class="node">
<title>Node26</title>
<g id="a_Node000026"><a xlink:href="m__ibm_8fpp_8f90.html#a76651f99bfc98a15dfb4ebb1a4ad1350" target="_top" xlink:title="Subroutine that updates the conservative variables at the ghost points.">
<polygon fill="white" stroke="#666666" points="782,-50 667,-50 667,-31 782,-31 782,-50"/>
<text text-anchor="middle" x="724.5" y="-38" font-family="Helvetica,sans-Serif" font-size="10.00">s_ibm_correct_state</text>
</a>
</g>
</g>
<!-- Node1&#45;&gt;Node26 -->
<g id="edge42_Node000001_Node000026" class="edge">
<title>Node1&#45;&gt;Node26</title>
<g id="a_edge42_Node000001_Node000026"><a xlink:title=" ">
<path fill="none" stroke="#63b8ff" d="M1291.56,-205.35C1267.39,-191.84 1233.98,-174.4 1203,-162.5 1054.24,-105.34 869.19,-66.78 779.4,-50.01"/>
<polygon fill="#63b8ff" stroke="#63b8ff" points="1289.92,-208.44 1300.35,-210.32 1293.37,-202.35 1289.92,-208.44"/>
</a>
</g>
</g>
<!-- Node4 -->
<g id="Node000004" class="node">
<title>Node4</title>
<g id="a_Node000004"><a xlink:href="m__cbc_8fpp_8f90.html#a8aaac759a23fea3b31210aa89c940745" target="_top" xlink:title="The module features a large database of characteristic boundary conditions (CBC) for the Euler system...">
<polygon fill="white" stroke="#666666" points="963.5,-216 852.5,-216 852.5,-197 963.5,-197 963.5,-216"/>
<text text-anchor="middle" x="908" y="-204" font-family="Helvetica,sans-Serif" font-size="10.00">__m_cbc_fpp_f90__</text>
</a>
</g>
</g>
<!-- Node3&#45;&gt;Node4 -->
<g id="edge3_Node000003_Node000004" class="edge">
<title>Node3&#45;&gt;Node4</title>
<g id="a_edge3_Node000003_Node000004"><a xlink:title=" ">
<path fill="none" stroke="#63b8ff" d="M999.42,-206.5C988.46,-206.5 975.83,-206.5 963.55,-206.5"/>
<polygon fill="#63b8ff" stroke="#63b8ff" points="999.75,-210 1009.75,-206.5 999.75,-203 999.75,-210"/>
</a>
</g>
</g>
<!-- Node5 -->
<g id="Node000005" class="node">
<title>Node5</title>
<g id="a_Node000005"><a xlink:href="m__rhs_8fpp_8f90.html#a376bc3b64f78384ac773235ee7fbdd98" target="_top" xlink:title=" ">
<polygon fill="white" stroke="#666666" points="969.5,-178.5 846.5,-178.5 846.5,-148.5 969.5,-148.5 969.5,-178.5"/>
<text text-anchor="start" x="854.5" y="-166.5" font-family="Helvetica,sans-Serif" font-size="10.00">s_compute_advection</text>
<text text-anchor="middle" x="908" y="-155.5" font-family="Helvetica,sans-Serif" font-size="10.00">_source_term</text>
</a>
</g>
</g>
<!-- Node3&#45;&gt;Node5 -->
<g id="edge4_Node000003_Node000005" class="edge">
<title>Node3&#45;&gt;Node5</title>
<g id="a_edge4_Node000003_Node000005"><a xlink:title=" ">
<path fill="none" stroke="#63b8ff" d="M1000.14,-195.62C985.47,-190.45 967.68,-184.18 951.72,-178.56"/>
<polygon fill="#63b8ff" stroke="#63b8ff" points="999.15,-198.99 1009.75,-199.01 1001.48,-192.38 999.15,-198.99"/>
</a>
</g>
</g>
<!-- Node6 -->
<g id="Node000006" class="node">
<title>Node6</title>
<g id="a_Node000006"><a xlink:href="m__rhs_8fpp_8f90.html#a7bace127dc6fc78b5a53a7e8e7c58f17" target="_top" xlink:title=" ">
<polygon fill="white" stroke="#666666" points="769.5,-173 679.5,-173 679.5,-154 769.5,-154 769.5,-173"/>
<text text-anchor="middle" x="724.5" y="-161" font-family="Helvetica,sans-Serif" font-size="10.00">s_compute_rhs</text>
</a>
</g>
</g>
<!-- Node5&#45;&gt;Node6 -->
<g id="edge5_Node000005_Node000006" class="edge">
<title>Node5&#45;&gt;Node6</title>
<g id="a_edge5_Node000005_Node000006"><a xlink:title=" ">
<path fill="none" stroke="#63b8ff" d="M836.17,-163.5C813.8,-163.5 789.73,-163.5 769.77,-163.5"/>
<polygon fill="#63b8ff" stroke="#63b8ff" points="836.31,-167 846.31,-163.5 836.31,-160 836.31,-167"/>
</a>
</g>
</g>
<!-- Node7 -->
<g id="Node000007" class="node">
<title>Node7</title>
<g id="a_Node000007"><a xlink:href="m__rhs_8fpp_8f90.html#a87616394067f1273cd06c4d299d10add" target="_top" xlink:title=" ">
<polygon fill="white" stroke="#666666" points="600.5,-206 490.5,-206 490.5,-187 600.5,-187 600.5,-206"/>
<text text-anchor="middle" x="545.5" y="-194" font-family="Helvetica,sans-Serif" font-size="10.00">__m_rhs_fpp_f90__</text>
</a>
</g>
</g>
<!-- Node6&#45;&gt;Node7 -->
<g id="edge6_Node000006_Node000007" class="edge">
<title>Node6&#45;&gt;Node7</title>
<g id="a_edge6_Node000006_Node000007"><a xlink:title=" ">
<path fill="none" stroke="#63b8ff" d="M669.42,-173.58C646.6,-177.84 620.16,-182.77 597.66,-186.96"/>
<polygon fill="#63b8ff" stroke="#63b8ff" points="670.1,-177.02 679.29,-171.74 668.82,-170.13 670.1,-177.02"/>
</a>
</g>
</g>
<!-- Node8 -->
<g id="Node000008" class="node">
<title>Node8</title>
<g id="a_Node000008"><a xlink:href="m__time__steppers_8fpp_8f90.html#a95dcf858eaba9951c12d4590ec467f62" target="_top" xlink:title="1st order TVD RK time&#45;stepping algorithm">
<polygon fill="white" stroke="#666666" points="600,-93 491,-93 491,-74 600,-74 600,-93"/>
<text text-anchor="middle" x="545.5" y="-81" font-family="Helvetica,sans-Serif" font-size="10.00">s_1st_order_tvd_rk</text>
</a>
</g>
</g>
<!-- Node6&#45;&gt;Node8 -->
<g id="edge7_Node000006_Node000008" class="edge">
<title>Node6&#45;&gt;Node8</title>
<g id="a_edge7_Node000006_Node000008"><a xlink:title=" ">
<path fill="none" stroke="#63b8ff" d="M669.35,-155.78C660.14,-153.08 650.99,-149.43 643,-144.5 621.79,-131.41 627.83,-115.19 607,-101.5 601.78,-98.07 595.89,-95.27 589.88,-93"/>
<polygon fill="#63b8ff" stroke="#63b8ff" points="668.75,-159.24 679.31,-158.36 670.51,-152.46 668.75,-159.24"/>
</a>
</g>
</g>
<!-- Node12 -->
<g id="Node000012" class="node">
<title>Node12</title>
<g id="a_Node000012"><a xlink:href="m__time__steppers_8fpp_8f90.html#a30504937d9153ef9e5d9990a8894e89a" target="_top" xlink:title="2nd order TVD RK time&#45;stepping algorithm">
<polygon fill="white" stroke="#666666" points="601.5,-56 489.5,-56 489.5,-37 601.5,-37 601.5,-56"/>
<text text-anchor="middle" x="545.5" y="-44" font-family="Helvetica,sans-Serif" font-size="10.00">s_2nd_order_tvd_rk</text>
</a>
</g>
</g>
<!-- Node6&#45;&gt;Node12 -->
<g id="edge11_Node000006_Node000012" class="edge">
<title>Node6&#45;&gt;Node12</title>
<g id="a_edge11_Node000006_Node000012"><a xlink:title=" ">
<path fill="none" stroke="#63b8ff" d="M669.33,-157.9C659.82,-155 650.56,-150.74 643,-144.5 612.93,-119.69 636.35,-90.17 607,-64.5 603.12,-61.11 598.63,-58.36 593.88,-56.12"/>
<polygon fill="#63b8ff" stroke="#63b8ff" points="668.71,-161.35 679.26,-160.45 670.45,-154.57 668.71,-161.35"/>
</a>
</g>
</g>
<!-- Node13 -->
<g id="Node000013" class="node">
<title>Node13</title>
<g id="a_Node000013"><a xlink:href="m__time__steppers_8fpp_8f90.html#aa54ad1694d32cfe180d81112527699e4" target="_top" xlink:title="3rd order TVD RK time&#45;stepping algorithm">
<polygon fill="white" stroke="#666666" points="600.5,-130 490.5,-130 490.5,-111 600.5,-111 600.5,-130"/>
<text text-anchor="middle" x="545.5" y="-118" font-family="Helvetica,sans-Serif" font-size="10.00">s_3rd_order_tvd_rk</text>
</a>
</g>
</g>
<!-- Node6&#45;&gt;Node13 -->
<g id="edge13_Node000006_Node000013" class="edge">
<title>Node6&#45;&gt;Node13</title>
<g id="a_edge13_Node000006_Node000013"><a xlink:title=" ">
<path fill="none" stroke="#63b8ff" d="M672.5,-151.56C662.7,-149.24 652.53,-146.81 643,-144.5 623.71,-139.82 602.27,-134.51 584.52,-130.07"/>
<polygon fill="#63b8ff" stroke="#63b8ff" points="671.99,-155.04 682.52,-153.93 673.6,-148.22 671.99,-155.04"/>
</a>
</g>
</g>
<!-- Node9 -->
<g id="Node000009" class="node">
<title>Node9</title>
<g id="a_Node000009"><a xlink:href="m__start__up_8fpp_8f90.html#a1f6993aab1d2776640192c044a461640" target="_top" xlink:title=" ">
<polygon fill="white" stroke="#666666" points="290,-151 170,-151 170,-132 290,-132 290,-151"/>
<text text-anchor="middle" x="230" y="-139" font-family="Helvetica,sans-Serif" font-size="10.00">s_perform_time_step</text>
</a>
</g>
</g>
<!-- Node8&#45;&gt;Node9 -->
<g id="edge8_Node000008_Node000009" class="edge">
<title>Node8&#45;&gt;Node9</title>
<g id="a_edge8_Node000008_Node000009"><a xlink:title=" ">
<path fill="none" stroke="#63b8ff" d="M482.03,-94.83C438.32,-102.78 378.58,-113.71 326,-123.5 311.48,-126.21 295.71,-129.18 281.28,-131.91"/>
<polygon fill="#63b8ff" stroke="#63b8ff" points="482.73,-98.26 491.95,-93.03 481.48,-91.37 482.73,-98.26"/>
</a>
</g>
</g>
<!-- Node10 -->
<g id="Node000010" class="node">
<title>Node10</title>
<g id="a_Node000010"><a xlink:href="m__start__up_8fpp_8f90.html#ac09c216e540601049a819ae5b76091b5" target="_top" xlink:title=" ">
<polygon fill="white" stroke="#666666" points="134,-188 0,-188 0,-169 134,-169 134,-188"/>
<text text-anchor="middle" x="67" y="-176" font-family="Helvetica,sans-Serif" font-size="10.00">__m_start_up_fpp_f90__</text>
</a>
</g>
</g>
<!-- Node9&#45;&gt;Node10 -->
<g id="edge9_Node000009_Node000010" class="edge">
<title>Node9&#45;&gt;Node10</title>
<g id="a_edge9_Node000009_Node000010"><a xlink:title=" ">
<path fill="none" stroke="#63b8ff" d="M177.7,-153.29C155.73,-158.34 130.39,-164.16 109.6,-168.94"/>
<polygon fill="#63b8ff" stroke="#63b8ff" points="178.58,-156.68 187.54,-151.03 177.01,-149.86 178.58,-156.68"/>
</a>
</g>
</g>
<!-- Node11 -->
<g id="Node000011" class="node">
<title>Node11</title>
<g id="a_Node000011"><a xlink:href="p__main_8fpp_8f90.html#aeec10ee8e2940c953967da3e374e1579" target="_top" xlink:title="Quasi&#45;conservative, shock&#45; and interface&#45; capturing finite&#45;volume scheme for the multicomponent Navie...">
<polygon fill="white" stroke="#666666" points="93.5,-151 40.5,-151 40.5,-132 93.5,-132 93.5,-151"/>
<text text-anchor="middle" x="67" y="-139" font-family="Helvetica,sans-Serif" font-size="10.00">p_main</text>
</a>
</g>
</g>
<!-- Node9&#45;&gt;Node11 -->
<g id="edge10_Node000009_Node000011" class="edge">
<title>Node9&#45;&gt;Node11</title>
<g id="a_edge10_Node000009_Node000011"><a xlink:title=" ">
<path fill="none" stroke="#63b8ff" d="M159.69,-141.5C136.31,-141.5 111.64,-141.5 93.78,-141.5"/>
<polygon fill="#63b8ff" stroke="#63b8ff" points="159.96,-145 169.96,-141.5 159.96,-138 159.96,-145"/>
</a>
</g>
</g>
<!-- Node12&#45;&gt;Node9 -->
<g id="edge12_Node000012_Node000009" class="edge">
<title>Node12&#45;&gt;Node9</title>
<g id="a_edge12_Node000012_Node000009"><a xlink:title=" ">
<path fill="none" stroke="#63b8ff" d="M482.03,-58.05C437.84,-67.02 377.52,-80.89 326,-98.5 298.59,-107.87 268.33,-122.32 249.5,-131.85"/>
<polygon fill="#63b8ff" stroke="#63b8ff" points="482.93,-61.44 492.05,-56.04 481.56,-54.58 482.93,-61.44"/>
</a>
</g>
</g>
<!-- Node13&#45;&gt;Node9 -->
<g id="edge14_Node000013_Node000009" class="edge">
<title>Node13&#45;&gt;Node9</title>
<g id="a_edge14_Node000013_Node000009"><a xlink:title=" ">
<path fill="none" stroke="#63b8ff" d="M480.13,-124.81C424.37,-128.55 344.37,-133.91 290.18,-137.54"/>
<polygon fill="#63b8ff" stroke="#63b8ff" points="480.51,-128.29 490.25,-124.13 480.04,-121.31 480.51,-128.29"/>
</a>
</g>
</g>
<!-- Node14 -->
<g id="Node000014" class="node">
<title>Node14</title>
<g id="a_Node000014"><a xlink:href="m__time__steppers_8fpp_8f90.html#a5858523edfce42df32b2b0a8af54bc0e" target="_top" xlink:title="Strang splitting scheme with 3rd order TVD RK time&#45;stepping algorithm for the flux term and adaptive ...">
<polygon fill="white" stroke="#666666" points="438.5,-170 335.5,-170 335.5,-151 438.5,-151 438.5,-170"/>
<text text-anchor="middle" x="387" y="-158" font-family="Helvetica,sans-Serif" font-size="10.00">s_strang_splitting</text>
</a>
</g>
</g>
<!-- Node13&#45;&gt;Node14 -->
<g id="edge15_Node000013_Node000014" class="edge">
<title>Node13&#45;&gt;Node14</title>
<g id="a_edge15_Node000013_Node000014"><a xlink:title=" ">
<path fill="none" stroke="#63b8ff" d="M497.09,-132.62C474.03,-138.51 446.71,-145.49 425.18,-151"/>
<polygon fill="#63b8ff" stroke="#63b8ff" points="498.19,-135.95 507.01,-130.08 496.46,-129.17 498.19,-135.95"/>
</a>
</g>
</g>
<!-- Node14&#45;&gt;Node9 -->
<g id="edge16_Node000014_Node000009" class="edge">
<title>Node14&#45;&gt;Node9</title>
<g id="a_edge16_Node000014_Node000009"><a xlink:title=" ">
<path fill="none" stroke="#63b8ff" d="M325.28,-153.06C313.75,-151.64 301.7,-150.17 290.22,-148.76"/>
<polygon fill="#63b8ff" stroke="#63b8ff" points="324.9,-156.54 335.25,-154.28 325.75,-149.59 324.9,-156.54"/>
</a>
</g>
</g>
<!-- Node16 -->
<g id="Node000016" class="node">
<title>Node16</title>
<g id="a_Node000016"><a xlink:href="m__sim__helpers_8fpp_8f90.html#a4c8dc51be9fa0431c5e8550cd44bc583" target="_top" xlink:title=" ">
<polygon fill="white" stroke="#666666" points="785.5,-98.5 663.5,-98.5 663.5,-68.5 785.5,-68.5 785.5,-98.5"/>
<text text-anchor="start" x="671.5" y="-86.5" font-family="Helvetica,sans-Serif" font-size="10.00">__m_sim_helpers_fpp</text>
<text text-anchor="middle" x="724.5" y="-75.5" font-family="Helvetica,sans-Serif" font-size="10.00">_f90__</text>
</a>
</g>
</g>
<!-- Node15&#45;&gt;Node16 -->
<g id="edge18_Node000015_Node000016" class="edge">
<title>Node15&#45;&gt;Node16</title>
<g id="a_edge18_Node000015_Node000016"><a xlink:title=" ">
<path fill="none" stroke="#63b8ff" d="M850.42,-108.97C829.89,-104.78 806.63,-100.04 785.8,-95.79"/>
<polygon fill="#63b8ff" stroke="#63b8ff" points="849.76,-112.4 860.26,-110.97 851.16,-105.54 849.76,-112.4"/>
</a>
</g>
</g>
<!-- Node17 -->
<g id="Node000017" class="node">
<title>Node17</title>
<g id="a_Node000017"><a xlink:href="m__time__steppers_8fpp_8f90.html#a7ad85772dc3154399535f2f164c2ce2b" target="_top" xlink:title=" ">
<polygon fill="white" stroke="#666666" points="767,-211 682,-211 682,-192 767,-192 767,-211"/>
<text text-anchor="middle" x="724.5" y="-199" font-family="Helvetica,sans-Serif" font-size="10.00">s_compute_dt</text>
</a>
</g>
</g>
<!-- Node15&#45;&gt;Node17 -->
<g id="edge19_Node000015_Node000017" class="edge">
<title>Node15&#45;&gt;Node17</title>
<g id="a_edge19_Node000015_Node000017"><a xlink:title=" ">
<path fill="none" stroke="#63b8ff" d="M852.5,-133.79C848.84,-135.48 845.3,-137.37 842,-139.5 821.35,-152.83 826.92,-168.59 806,-181.5 794.36,-188.68 780.27,-193.29 767.16,-196.24"/>
<polygon fill="#63b8ff" stroke="#63b8ff" points="853.86,-137.02 861.8,-130.01 851.22,-130.53 853.86,-137.02"/>
</a>
</g>
</g>
<!-- Node18 -->
<g id="Node000018" class="node">
<title>Node18</title>
<g id="a_Node000018"><a xlink:href="m__data__output_8fpp_8f90.html#a4f3dafb38455425825590217313d8ee3" target="_top" xlink:title="The goal of the procedure is to output to the run&#45;time information file the stability criteria extrem...">
<polygon fill="white" stroke="#666666" points="806,-136 643,-136 643,-117 806,-117 806,-136"/>
<text text-anchor="middle" x="724.5" y="-124" font-family="Helvetica,sans-Serif" font-size="10.00">s_write_run_time_information</text>
</a>
</g>
</g>
<!-- Node15&#45;&gt;Node18 -->
<g id="edge21_Node000015_Node000018" class="edge">
<title>Node15&#45;&gt;Node18</title>
<g id="a_edge21_Node000015_Node000018"><a xlink:title=" ">
<path fill="none" stroke="#63b8ff" d="M838.78,-122.76C828.14,-123.11 817.06,-123.47 806.17,-123.83"/>
<polygon fill="#63b8ff" stroke="#63b8ff" points="838.94,-126.25 848.82,-122.42 838.71,-119.26 838.94,-126.25"/>
</a>
</g>
</g>
<!-- Node17&#45;&gt;Node9 -->
<g id="edge20_Node000017_Node000009" class="edge">
<title>Node17&#45;&gt;Node9</title>
<g id="a_edge20_Node000017_Node000009"><a xlink:title=" ">
<path fill="none" stroke="#63b8ff" d="M698.21,-216.23C675.28,-228.69 640.09,-245.57 607,-252.5 553.49,-263.7 537.36,-264.38 484,-252.5 408.31,-235.65 395.42,-213.05 326,-178.5 309.8,-170.44 306.73,-166.39 290,-159.5 282.47,-156.4 274.22,-153.55 266.33,-151.08"/>
<polygon fill="#63b8ff" stroke="#63b8ff" points="700.21,-219.13 707.25,-211.21 696.81,-213.01 700.21,-219.13"/>
</a>
</g>
</g>
<!-- Node18&#45;&gt;Node8 -->
<g id="edge23_Node000018_Node000008" class="edge">
<title>Node18&#45;&gt;Node8</title>
<g id="a_edge23_Node000018_Node000008"><a xlink:title=" ">
<path fill="none" stroke="#63b8ff" d="M672.5,-114.56C662.7,-112.24 652.53,-109.81 643,-107.5 623.71,-102.82 602.27,-97.51 584.52,-93.07"/>
<polygon fill="#63b8ff" stroke="#63b8ff" points="671.99,-118.04 682.52,-116.93 673.6,-111.22 671.99,-118.04"/>
</a>
</g>
</g>
<!-- Node18&#45;&gt;Node12 -->
<g id="edge24_Node000018_Node000012" class="edge">
<title>Node18&#45;&gt;Node12</title>
<g id="a_edge24_Node000018_Node000012"><a xlink:title=" ">
<path fill="none" stroke="#63b8ff" d="M653.78,-113.14C650.03,-111.47 646.41,-109.6 643,-107.5 621.79,-94.41 627.83,-78.19 607,-64.5 601.78,-61.07 595.89,-58.27 589.88,-56"/>
<polygon fill="#63b8ff" stroke="#63b8ff" points="652.71,-116.48 663.3,-116.86 655.26,-109.96 652.71,-116.48"/>
</a>
</g>
</g>
<!-- Node18&#45;&gt;Node13 -->
<g id="edge25_Node000018_Node000013" class="edge">
<title>Node18&#45;&gt;Node13</title>
<g id="a_edge25_Node000018_Node000013"><a xlink:title=" ">
<path fill="none" stroke="#63b8ff" d="M632.68,-123.42C621.68,-123.05 610.74,-122.68 600.52,-122.33"/>
<polygon fill="#63b8ff" stroke="#63b8ff" points="632.66,-126.92 642.77,-123.76 632.89,-119.93 632.66,-126.92"/>
</a>
</g>
</g>
<!-- Node19 -->
<g id="Node000019" class="node">
<title>Node19</title>
<g id="a_Node000019"><a xlink:href="m__data__output_8fpp_8f90.html#a979b8a2cf4215a8122fc461c0512dbba" target="_top" xlink:title=" ">
<polygon fill="white" stroke="#666666" points="448,-326.5 326,-326.5 326,-296.5 448,-296.5 448,-326.5"/>
<text text-anchor="start" x="334" y="-314.5" font-family="Helvetica,sans-Serif" font-size="10.00">__m_data_output_fpp</text>
<text text-anchor="middle" x="387" y="-303.5" font-family="Helvetica,sans-Serif" font-size="10.00">_f90__</text>
</a>
</g>
</g>
<!-- Node18&#45;&gt;Node19 -->
<g id="edge22_Node000018_Node000019" class="edge">
<title>Node18&#45;&gt;Node19</title>
<g id="a_edge22_Node000018_Node000019"><a xlink:title=" ">
<path fill="none" stroke="#63b8ff" d="M641.28,-137.54C582.59,-146.62 509.68,-160.69 484,-177.5 438.02,-207.59 407.01,-267.92 394.38,-296.2"/>
<polygon fill="#63b8ff" stroke="#63b8ff" points="641.95,-140.98 651.31,-136.02 640.9,-134.06 641.95,-140.98"/>
</a>
</g>
</g>
<!-- Node20&#45;&gt;Node2 -->
<g id="edge27_Node000020_Node000002" class="edge">
<title>Node20&#45;&gt;Node2</title>
<g id="a_edge27_Node000020_Node000002"><a xlink:title=" ">
<path fill="none" stroke="#63b8ff" d="M859.63,-269.01C853.58,-271.97 847.56,-275.16 842,-278.5 824.62,-288.93 824.02,-297.22 806,-306.5 799.52,-309.84 792.5,-312.79 785.39,-315.37"/>
<polygon fill="#63b8ff" stroke="#63b8ff" points="861.54,-271.98 869.1,-264.56 858.56,-265.65 861.54,-271.98"/>
</a>
</g>
</g>
<!-- Node20&#45;&gt;Node6 -->
<g id="edge31_Node000020_Node000006" class="edge">
<title>Node20&#45;&gt;Node6</title>
<g id="a_edge31_Node000020_Node000006"><a xlink:title=" ">
<path fill="none" stroke="#63b8ff" d="M850.42,-229.79C847.49,-228.15 844.67,-226.38 842,-224.5 821.91,-210.32 827,-195.29 806,-182.5 795.08,-175.85 782.03,-171.53 769.64,-168.72"/>
<polygon fill="#63b8ff" stroke="#63b8ff" points="848.92,-232.96 859.42,-234.4 852.11,-226.73 848.92,-232.96"/>
</a>
</g>
</g>
<!-- Node20&#45;&gt;Node17 -->
<g id="edge30_Node000020_Node000017" class="edge">
<title>Node20&#45;&gt;Node17</title>
<g id="a_edge30_Node000020_Node000017"><a xlink:title=" ">
<path fill="none" stroke="#63b8ff" d="M840.06,-231.8C813.53,-224.78 784.07,-216.99 761.67,-211.06"/>
<polygon fill="#63b8ff" stroke="#63b8ff" points="839.51,-235.27 850.07,-234.44 841.3,-228.5 839.51,-235.27"/>
</a>
</g>
</g>
<!-- Node21 -->
<g id="Node000021" class="node">
<title>Node21</title>
<g id="a_Node000021"><a xlink:href="m__time__steppers_8fpp_8f90.html#ac88fae0ccfd624140b3c9caf3c7f2dd0" target="_top" xlink:title="Bubble source part in Strang operator splitting scheme.">
<polygon fill="white" stroke="#666666" points="607,-243 484,-243 484,-224 607,-224 607,-243"/>
<text text-anchor="middle" x="545.5" y="-231" font-family="Helvetica,sans-Serif" font-size="10.00">s_adaptive_dt_bubble</text>
</a>
</g>
</g>
<!-- Node20&#45;&gt;Node21 -->
<g id="edge28_Node000020_Node000021" class="edge">
<title>Node20&#45;&gt;Node21</title>
<g id="a_edge28_Node000020_Node000021"><a xlink:title=" ">
<path fill="none" stroke="#63b8ff" d="M831.69,-246.16C765.01,-243.2 668.93,-238.93 607.1,-236.19"/>
<polygon fill="#63b8ff" stroke="#63b8ff" points="831.57,-249.66 841.72,-246.6 831.88,-242.66 831.57,-249.66"/>
</a>
</g>
</g>
<!-- Node22 -->
<g id="Node000022" class="node">
<title>Node22</title>
<g id="a_Node000022"><a xlink:href="m__data__output_8fpp_8f90.html#a81cdc0dd327f2dd53343cad8d7f74ede" target="_top" xlink:title="The goal of this subroutine is to output the grid and conservative variables data files for given tim...">
<polygon fill="white" stroke="#666666" points="780,-297.5 669,-297.5 669,-267.5 780,-267.5 780,-297.5"/>
<text text-anchor="start" x="677" y="-285.5" font-family="Helvetica,sans-Serif" font-size="10.00">s_write_serial_data</text>
<text text-anchor="middle" x="724.5" y="-274.5" font-family="Helvetica,sans-Serif" font-size="10.00">_files</text>
</a>
</g>
</g>
<!-- Node20&#45;&gt;Node22 -->
<g id="edge32_Node000020_Node000022" class="edge">
<title>Node20&#45;&gt;Node22</title>
<g id="a_edge32_Node000020_Node000022"><a xlink:title=" ">
<path fill="none" stroke="#63b8ff" d="M831.89,-263.16C814.56,-266.31 796.45,-269.6 780.18,-272.56"/>
<polygon fill="#63b8ff" stroke="#63b8ff" points="832.77,-266.55 841.99,-261.32 831.52,-259.67 832.77,-266.55"/>
</a>
</g>
</g>
<!-- Node21&#45;&gt;Node14 -->
<g id="edge29_Node000021_Node000014" class="edge">
<title>Node21&#45;&gt;Node14</title>
<g id="a_edge29_Node000021_Node000014"><a xlink:title=" ">
<path fill="none" stroke="#63b8ff" d="M500.04,-220.71C494.57,-218.79 489.12,-216.71 484,-214.5 453.99,-201.52 421.24,-181.78 402.8,-170.11"/>
<polygon fill="#63b8ff" stroke="#63b8ff" points="499.22,-224.12 509.81,-223.97 501.43,-217.48 499.22,-224.12"/>
</a>
</g>
</g>
<!-- Node22&#45;&gt;Node19 -->
<g id="edge33_Node000022_Node000019" class="edge">
<title>Node22&#45;&gt;Node19</title>
<g id="a_edge33_Node000022_Node000019"><a xlink:title=" ">
<path fill="none" stroke="#63b8ff" d="M658.58,-288.11C597.66,-293.38 507.28,-301.19 448.01,-306.31"/>
<polygon fill="#63b8ff" stroke="#63b8ff" points="659.19,-291.57 668.85,-287.22 658.59,-284.6 659.19,-291.57"/>
</a>
</g>
</g>
<!-- Node23 -->
<g id="Node000023" class="node">
<title>Node23</title>
<g id="a_Node000023"><a xlink:href="m__data__output_8fpp_8f90.html#a2d8566ed05d923060e9914679222ebd1" target="_top" xlink:title="Write data files. Dispatch subroutine that replaces procedure pointer.">
<polygon fill="white" stroke="#666666" points="597.5,-357 493.5,-357 493.5,-338 597.5,-338 597.5,-357"/>
<text text-anchor="middle" x="545.5" y="-345" font-family="Helvetica,sans-Serif" font-size="10.00">s_write_data_files</text>
</a>
</g>
</g>
<!-- Node22&#45;&gt;Node23 -->
<g id="edge34_Node000022_Node000023" class="edge">
<title>Node22&#45;&gt;Node23</title>
<g id="a_edge34_Node000022_Node000023"><a xlink:title=" ">
<path fill="none" stroke="#63b8ff" d="M659.11,-300.74C653.62,-302.59 648.19,-304.51 643,-306.5 626.47,-312.82 623.23,-316.46 607,-323.5 595.49,-328.49 582.59,-333.67 571.67,-337.93"/>
<polygon fill="#63b8ff" stroke="#63b8ff" points="660.57,-303.95 669,-297.53 658.4,-297.29 660.57,-303.95"/>
</a>
</g>
</g>
<!-- Node23&#45;&gt;Node19 -->
<g id="edge35_Node000023_Node000019" class="edge">
<title>Node23&#45;&gt;Node19</title>
<g id="a_edge35_Node000023_Node000019"><a xlink:title=" ">
<path fill="none" stroke="#63b8ff" d="M492.86,-335.62C478.59,-332.34 462.99,-328.75 448.29,-325.37"/>
<polygon fill="#63b8ff" stroke="#63b8ff" points="492.44,-339.12 502.97,-337.95 494.01,-332.29 492.44,-339.12"/>
</a>
</g>
</g>
<!-- Node24 -->
<g id="Node000024" class="node">
<title>Node24</title>
<g id="a_Node000024"><a xlink:href="m__start__up_8fpp_8f90.html#aa8fd49046e6bcfcdb3caecfa89226725" target="_top" xlink:title=" ">
<polygon fill="white" stroke="#666666" points="268.5,-188 191.5,-188 191.5,-169 268.5,-169 268.5,-188"/>
<text text-anchor="middle" x="230" y="-176" font-family="Helvetica,sans-Serif" font-size="10.00">s_save_data</text>
</a>
</g>
</g>
<!-- Node23&#45;&gt;Node24 -->
<g id="edge36_Node000023_Node000024" class="edge">
<title>Node23&#45;&gt;Node24</title>
<g id="a_edge36_Node000023_Node000024"><a xlink:title=" ">
<path fill="none" stroke="#63b8ff" d="M486.51,-358.33C439.82,-363.93 374.25,-364.47 326,-335.5 268.37,-300.9 241.2,-216.68 233.43,-188.14"/>
<polygon fill="#63b8ff" stroke="#63b8ff" points="487.01,-361.8 496.47,-357.03 486.1,-354.86 487.01,-361.8"/>
</a>
</g>
</g>
<!-- Node24&#45;&gt;Node10 -->
<g id="edge37_Node000024_Node000010" class="edge">
<title>Node24&#45;&gt;Node10</title>
<g id="a_edge37_Node000024_Node000010"><a xlink:title=" ">
<path fill="none" stroke="#63b8ff" d="M180.91,-178.5C166.24,-178.5 149.85,-178.5 134.2,-178.5"/>
<polygon fill="#63b8ff" stroke="#63b8ff" points="181.25,-182 191.25,-178.5 181.25,-175 181.25,-182"/>
</a>
</g>
</g>
<!-- Node24&#45;&gt;Node11 -->
<g id="edge38_Node000024_Node000011" class="edge">
<title>Node24&#45;&gt;Node11</title>
<g id="a_edge38_Node000024_Node000011"><a xlink:title=" ">
<path fill="none" stroke="#63b8ff" d="M181.44,-167.57C152.83,-161 117.51,-152.88 93.96,-147.47"/>
<polygon fill="#63b8ff" stroke="#63b8ff" points="180.72,-171 191.25,-169.83 182.29,-164.17 180.72,-171"/>
</a>
</g>
</g>
<!-- Node25&#45;&gt;Node2 -->
<g id="edge40_Node000025_Node000002" class="edge">
<title>Node25&#45;&gt;Node2</title>
<g id="a_edge40_Node000025_Node000002"><a xlink:title=" ">
<path fill="none" stroke="#63b8ff" d="M1079.46,-293.34C1017.95,-298.9 923.71,-307.69 842,-316.5 827.62,-318.05 812.26,-319.82 797.56,-321.56"/>
<polygon fill="#63b8ff" stroke="#63b8ff" points="1080.15,-296.8 1089.8,-292.41 1079.53,-289.82 1080.15,-296.8"/>
</a>
</g>
</g>
<!-- Node25&#45;&gt;Node3 -->
<g id="edge41_Node000025_Node000003" class="edge">
<title>Node25&#45;&gt;Node3</title>
<g id="a_edge41_Node000025_Node000003"><a xlink:title=" ">
<path fill="none" stroke="#63b8ff" d="M1116.37,-266.52C1093.79,-250.27 1063.54,-228.49 1046.38,-216.13"/>
<polygon fill="#63b8ff" stroke="#63b8ff" points="1114.44,-269.45 1124.6,-272.45 1118.53,-263.77 1114.44,-269.45"/>
</a>
</g>
</g>
<!-- Node26&#45;&gt;Node8 -->
<g id="edge44_Node000026_Node000008" class="edge">
<title>Node26&#45;&gt;Node8</title>
<g id="a_edge44_Node000026_Node000008"><a xlink:title=" ">
<path fill="none" stroke="#63b8ff" d="M672.5,-52.44C662.7,-54.76 652.53,-57.19 643,-59.5 623.71,-64.18 602.27,-69.49 584.52,-73.93"/>
<polygon fill="#63b8ff" stroke="#63b8ff" points="673.6,-55.78 682.52,-50.07 671.99,-48.96 673.6,-55.78"/>
</a>
</g>
</g>
<!-- Node26&#45;&gt;Node12 -->
<g id="edge45_Node000026_Node000012" class="edge">
<title>Node26&#45;&gt;Node12</title>
<g id="a_edge45_Node000026_Node000012"><a xlink:title=" ">
<path fill="none" stroke="#63b8ff" d="M656.34,-42.78C638.25,-43.39 618.9,-44.05 601.56,-44.63"/>
<polygon fill="#63b8ff" stroke="#63b8ff" points="656.65,-46.27 666.52,-42.43 656.41,-39.27 656.65,-46.27"/>
</a>
</g>
</g>
<!-- Node26&#45;&gt;Node13 -->
<g id="edge46_Node000026_Node000013" class="edge">
<title>Node26&#45;&gt;Node13</title>
<g id="a_edge46_Node000026_Node000013"><a xlink:title=" ">
<path fill="none" stroke="#63b8ff" d="M657.09,-52.53C652.17,-54.51 647.41,-56.81 643,-59.5 622,-72.29 627.52,-87.96 607,-101.5 601.21,-105.32 594.61,-108.41 587.94,-110.9"/>
<polygon fill="#63b8ff" stroke="#63b8ff" points="658.46,-55.76 666.71,-49.11 656.12,-49.16 658.46,-55.76"/>
</a>
</g>
</g>
<!-- Node27 -->
<g id="Node000027" class="node">
<title>Node27</title>
<g id="a_Node000027"><a xlink:href="m__ibm_8fpp_8f90.html#a14139c4e3e797db72a4838fd987fb8dd" target="_top" xlink:title=" ">
<polygon fill="white" stroke="#666666" points="602,-19 489,-19 489,0 602,0 602,-19"/>
<text text-anchor="middle" x="545.5" y="-7" font-family="Helvetica,sans-Serif" font-size="10.00">__m_ibm_fpp_f90__</text>
</a>
</g>
</g>
<!-- Node26&#45;&gt;Node27 -->
<g id="edge43_Node000026_Node000027" class="edge">
<title>Node26&#45;&gt;Node27</title>
<g id="a_edge43_Node000026_Node000027"><a xlink:title=" ">
<path fill="none" stroke="#63b8ff" d="M658.86,-29.18C639.82,-25.84 619.19,-22.23 600.87,-19.02"/>
<polygon fill="#63b8ff" stroke="#63b8ff" points="658.5,-32.67 668.95,-30.95 659.7,-25.77 658.5,-32.67"/>
</a>
</g>
</g>
</g>
</svg>
