<?xml version="1.0" encoding="UTF-8" standalone="no"?>
<!DOCTYPE svg PUBLIC "-//W3C//DTD SVG 1.1//EN"
 "http://www.w3.org/Graphics/SVG/1.1/DTD/svg11.dtd">
<!-- Generated by graphviz version 2.43.0 (0)
 -->
<!-- Title: s_convert_species_to_mixture_variables_bubbles_acc Pages: 1 -->
<!--zoomable 289 -->

<svg id="main" version="1.1" xmlns="http://www.w3.org/2000/svg" xmlns:xlink="http://www.w3.org/1999/xlink" xml:space="preserve" onload="init(evt)">
<style type="text/css"><![CDATA[
.node, .edge {opacity: 0.7;}
.node.selected, .edge.selected {opacity: 1;}
.edge:hover path { stroke: red; }
.edge:hover polygon { stroke: red; fill: red; }
]]></style>

<defs>
  <circle id="rim" cx="0" cy="0" r="7"/>
  <circle id="rim2" cx="0" cy="0" r="3.5"/>
  <g id="zoomPlus">
    <use xlink:href="#rim" fill="#404040"><set attributeName="fill" to="#808080" begin="zoomplus.mouseover" end="zoomplus.mouseout"/></use>
    <path d="M-4,0h8M0,-4v8" fill="none" stroke="white" stroke-width="1.5" pointer-events="none"/>
  </g>
  <g id="zoomMin">
    <use xlink:href="#rim" fill="#404040"><set attributeName="fill" to="#808080" begin="zoomminus.mouseover" end="zoomminus.mouseout"/></use>
    <path d="M-4,0h8" fill="none" stroke="white" stroke-width="1.5" pointer-events="none"/>
  </g>
  <g id="arrowUp" transform="translate(30 24)">
    <use xlink:href="#rim"/>
    <path pointer-events="none" fill="none" stroke="white" stroke-width="1.5" d="M0,-3.0v7 M-2.5,-0.5L0,-3.0L2.5,-0.5"/>
  </g>
  <g id="arrowRight" transform="rotate(90) translate(36 -43)">
    <use xlink:href="#rim"/>
    <path pointer-events="none" fill="none" stroke="white" stroke-width="1.5" d="M0,-3.0v7 M-2.5,-0.5L0,-3.0L2.5,-0.5"/>
  </g>
  <g id="arrowDown" transform="rotate(180) translate(-30 -48)">
    <use xlink:href="#rim"/>
    <path pointer-events="none" fill="none" stroke="white" stroke-width="1.5" d="M0,-3.0v7 M-2.5,-0.5L0,-3.0L2.5,-0.5"/>
  </g>
  <g id="arrowLeft" transform="rotate(270) translate(-36 17)">
    <use xlink:href="#rim"/>
    <path pointer-events="none" fill="none" stroke="white" stroke-width="1.5" d="M0,-3.0v7 M-2.5,-0.5L0,-3.0L2.5,-0.5"/>
  </g>
  <g id="resetDef">
    <use xlink:href="#rim2" fill="#404040"><set attributeName="fill" to="#808080" begin="reset.mouseover" end="reset.mouseout"/></use>
  </g>
</defs>
<script type="application/ecmascript">
var viewWidth = 1151;
var viewHeight = 289;
var sectionId = 'dynsection-12';
</script>
<script type="application/ecmascript" xlink:href="svg.min.js"/>
<svg id="graph" class="graph">
<g id="viewport">
<title>s_convert_species_to_mixture_variables_bubbles_acc</title>
<!-- Node1 -->
<g id="Node000001" class="node">
<title>Node1</title>
<g id="a_Node000001"><a xlink:title=" ">
<polygon fill="#999999" stroke="#666666" points="1143,-157.5 967,-157.5 967,-127.5 1143,-127.5 1143,-157.5"/>
<text text-anchor="start" x="975" y="-145.5" font-family="Helvetica,sans-Serif" font-size="10.00">s_convert_species_to</text>
<text text-anchor="middle" x="1055" y="-134.5" font-family="Helvetica,sans-Serif" font-size="10.00">_mixture_variables_bubbles_acc</text>
</a>
</g>
</g>
<!-- Node2 -->
<g id="Node000002" class="node">
<title>Node2</title>
<g id="a_Node000002"><a xlink:href="m__variables__conversion_8fpp_8f90.html#a347ac5f0eb3158bfb1edcad667b6025c" target="_top" xlink:title=" ">
<polygon fill="white" stroke="#666666" points="763,-265.5 617,-265.5 617,-235.5 763,-235.5 763,-265.5"/>
<text text-anchor="start" x="625" y="-253.5" font-family="Helvetica,sans-Serif" font-size="10.00">__m_variables_conversion</text>
<text text-anchor="middle" x="690" y="-242.5" font-family="Helvetica,sans-Serif" font-size="10.00">_fpp_f90__</text>
</a>
</g>
</g>
<!-- Node1&#45;&gt;Node2 -->
<g id="edge1_Node000001_Node000002" class="edge">
<title>Node1&#45;&gt;Node2</title>
<g id="a_edge1_Node000001_Node000002"><a xlink:title=" ">
<path fill="none" stroke="#63b8ff" d="M1033.2,-164.83C1010.52,-187.48 971.97,-221.29 931,-236.5 877.2,-256.47 811.95,-259.03 763.08,-257.11"/>
<polygon fill="#63b8ff" stroke="#63b8ff" points="1035.76,-167.21 1040.26,-157.62 1030.76,-162.31 1035.76,-167.21"/>
</a>
</g>
</g>
<!-- Node3 -->
<g id="Node000003" class="node">
<title>Node3</title>
<g id="a_Node000003"><a xlink:href="m__cbc_8fpp_8f90.html#a9771aa6ccf00c0970db70784acd622b5" target="_top" xlink:title="The following is the implementation of the CBC based on the work of Thompson (1987,...">
<polygon fill="white" stroke="#666666" points="712,-169 668,-169 668,-150 712,-150 712,-169"/>
<text text-anchor="middle" x="690" y="-157" font-family="Helvetica,sans-Serif" font-size="10.00">s_cbc</text>
</a>
</g>
</g>
<!-- Node1&#45;&gt;Node3 -->
<g id="edge2_Node000001_Node000003" class="edge">
<title>Node1&#45;&gt;Node3</title>
<g id="a_edge2_Node000001_Node000003"><a xlink:title=" ">
<path fill="none" stroke="#63b8ff" d="M956.8,-137.42C909.16,-136.03 850.98,-135.96 799,-140.5 768.65,-143.15 734.05,-149.91 712.37,-154.61"/>
<polygon fill="#63b8ff" stroke="#63b8ff" points="956.69,-140.92 966.8,-137.73 956.91,-133.92 956.69,-140.92"/>
</a>
</g>
</g>
<!-- Node12 -->
<g id="Node000012" class="node">
<title>Node12</title>
<g id="a_Node000012"><a xlink:href="m__variables__conversion_8fpp_8f90.html#a24725c6eb206c9a62e2ec70bf368836d" target="_top" xlink:title="The following procedure handles the conversion between the conservative variables and the primitive v...">
<polygon fill="white" stroke="#666666" points="931,-179.5 799,-179.5 799,-149.5 931,-149.5 931,-179.5"/>
<text text-anchor="start" x="807" y="-167.5" font-family="Helvetica,sans-Serif" font-size="10.00">s_convert_conservative</text>
<text text-anchor="middle" x="865" y="-156.5" font-family="Helvetica,sans-Serif" font-size="10.00">_to_primitive_variables</text>
</a>
</g>
</g>
<!-- Node1&#45;&gt;Node12 -->
<g id="edge13_Node000001_Node000012" class="edge">
<title>Node1&#45;&gt;Node12</title>
<g id="a_edge13_Node000001_Node000012"><a xlink:title=" ">
<path fill="none" stroke="#63b8ff" d="M956.73,-153.88C948.09,-154.89 939.48,-155.9 931.2,-156.87"/>
<polygon fill="#63b8ff" stroke="#63b8ff" points="957.35,-157.33 966.88,-152.69 956.54,-150.38 957.35,-157.33"/>
</a>
</g>
</g>
<!-- Node17 -->
<g id="Node000017" class="node">
<title>Node17</title>
<g id="a_Node000017"><a xlink:href="m__variables__conversion_8fpp_8f90.html#a372d7e72401e01311cda4b4b0b8c3d29" target="_top" xlink:title="The following subroutine handles the conversion between the primitive variables and the Eulerian flux...">
<polygon fill="white" stroke="#666666" points="921.5,-227.5 808.5,-227.5 808.5,-197.5 921.5,-197.5 921.5,-227.5"/>
<text text-anchor="start" x="816.5" y="-215.5" font-family="Helvetica,sans-Serif" font-size="10.00">s_convert_primitive</text>
<text text-anchor="middle" x="865" y="-204.5" font-family="Helvetica,sans-Serif" font-size="10.00">_to_flux_variables</text>
</a>
</g>
</g>
<!-- Node1&#45;&gt;Node17 -->
<g id="edge23_Node000001_Node000017" class="edge">
<title>Node1&#45;&gt;Node17</title>
<g id="a_edge23_Node000001_Node000017"><a xlink:title=" ">
<path fill="none" stroke="#63b8ff" d="M1004.23,-161.17C981.85,-169.55 955.11,-179.54 931,-188.5 923.22,-191.39 914.91,-194.47 906.92,-197.42"/>
<polygon fill="#63b8ff" stroke="#63b8ff" points="1005.72,-164.35 1013.85,-157.56 1003.26,-157.79 1005.72,-164.35"/>
</a>
</g>
</g>
<!-- Node18 -->
<g id="Node000018" class="node">
<title>Node18</title>
<g id="a_Node000018"><a xlink:href="m__ibm_8fpp_8f90.html#a0b20ed1582d1f5f4ae38eec9c90a1cd9" target="_top" xlink:title="Subroutine that updates the conservative variables at the ghost points.">
<polygon fill="white" stroke="#666666" points="557,-56 442,-56 442,-37 557,-37 557,-56"/>
<text text-anchor="middle" x="499.5" y="-44" font-family="Helvetica,sans-Serif" font-size="10.00">s_ibm_correct_state</text>
</a>
</g>
</g>
<!-- Node1&#45;&gt;Node18 -->
<g id="edge26_Node000001_Node000018" class="edge">
<title>Node1&#45;&gt;Node18</title>
<g id="a_edge26_Node000001_Node000018"><a xlink:title=" ">
<path fill="none" stroke="#63b8ff" d="M987.08,-125.06C968.95,-120.64 949.28,-116.12 931,-112.5 797.87,-86.11 639.78,-64.28 557.19,-53.59"/>
<polygon fill="#63b8ff" stroke="#63b8ff" points="986.42,-128.5 996.97,-127.49 988.1,-121.7 986.42,-128.5"/>
</a>
</g>
</g>
<!-- Node20 -->
<g id="Node000020" class="node">
<title>Node20</title>
<g id="a_Node000020"><a xlink:href="m__data__output_8fpp_8f90.html#ac145ce5b1674f9df821653e1784a1bcf" target="_top" xlink:title="The goal of the procedure is to output to the run&#45;time information file the stability criteria extrem...">
<polygon fill="white" stroke="#666666" points="581,-93 418,-93 418,-74 581,-74 581,-93"/>
<text text-anchor="middle" x="499.5" y="-81" font-family="Helvetica,sans-Serif" font-size="10.00">s_write_run_time_information</text>
</a>
</g>
</g>
<!-- Node1&#45;&gt;Node20 -->
<g id="edge31_Node000001_Node000020" class="edge">
<title>Node1&#45;&gt;Node20</title>
<g id="a_edge31_Node000001_Node000020"><a xlink:title=" ">
<path fill="none" stroke="#63b8ff" d="M956.78,-132.14C850.12,-120.77 680.86,-102.73 581.24,-92.11"/>
<polygon fill="#63b8ff" stroke="#63b8ff" points="956.59,-135.64 966.91,-133.22 957.33,-128.68 956.59,-135.64"/>
</a>
</g>
</g>
<!-- Node4 -->
<g id="Node000004" class="node">
<title>Node4</title>
<g id="a_Node000004"><a xlink:href="m__cbc_8fpp_8f90.html#a8aaac759a23fea3b31210aa89c940745" target="_top" xlink:title="The module features a large database of characteristic boundary conditions (CBC) for the Euler system...">
<polygon fill="white" stroke="#666666" points="555,-168 444,-168 444,-149 555,-149 555,-168"/>
<text text-anchor="middle" x="499.5" y="-156" font-family="Helvetica,sans-Serif" font-size="10.00">__m_cbc_fpp_f90__</text>
</a>
</g>
</g>
<!-- Node3&#45;&gt;Node4 -->
<g id="edge3_Node000003_Node000004" class="edge">
<title>Node3&#45;&gt;Node4</title>
<g id="a_edge3_Node000003_Node000004"><a xlink:title=" ">
<path fill="none" stroke="#63b8ff" d="M657.43,-159.33C629.64,-159.19 588.55,-158.97 555.39,-158.79"/>
<polygon fill="#63b8ff" stroke="#63b8ff" points="657.72,-162.83 667.74,-159.39 657.76,-155.83 657.72,-162.83"/>
</a>
</g>
</g>
<!-- Node5 -->
<g id="Node000005" class="node">
<title>Node5</title>
<g id="a_Node000005"><a xlink:href="m__rhs_8fpp_8f90.html#a8522bdf311a42fe6ff7f2b433656573f" target="_top" xlink:title=" ">
<polygon fill="white" stroke="#666666" points="544.5,-130 454.5,-130 454.5,-111 544.5,-111 544.5,-130"/>
<text text-anchor="middle" x="499.5" y="-118" font-family="Helvetica,sans-Serif" font-size="10.00">s_compute_rhs</text>
</a>
</g>
</g>
<!-- Node3&#45;&gt;Node5 -->
<g id="edge4_Node000003_Node000005" class="edge">
<title>Node3&#45;&gt;Node5</title>
<g id="a_edge4_Node000003_Node000005"><a xlink:title=" ">
<path fill="none" stroke="#63b8ff" d="M657.58,-153C626.77,-146.62 579.51,-136.85 544.87,-129.68"/>
<polygon fill="#63b8ff" stroke="#63b8ff" points="657.24,-156.5 667.74,-155.1 658.66,-149.65 657.24,-156.5"/>
</a>
</g>
</g>
<!-- Node6 -->
<g id="Node000006" class="node">
<title>Node6</title>
<g id="a_Node000006"><a xlink:href="m__rhs_8fpp_8f90.html#a87616394067f1273cd06c4d299d10add" target="_top" xlink:title=" ">
<polygon fill="white" stroke="#666666" points="372,-167 262,-167 262,-148 372,-148 372,-167"/>
<text text-anchor="middle" x="317" y="-155" font-family="Helvetica,sans-Serif" font-size="10.00">__m_rhs_fpp_f90__</text>
</a>
</g>
</g>
<!-- Node5&#45;&gt;Node6 -->
<g id="edge5_Node000005_Node000006" class="edge">
<title>Node5&#45;&gt;Node6</title>
<g id="a_edge5_Node000005_Node000006"><a xlink:title=" ">
<path fill="none" stroke="#63b8ff" d="M444.48,-131.57C419.02,-136.79 388.96,-142.95 364.54,-147.96"/>
<polygon fill="#63b8ff" stroke="#63b8ff" points="445.25,-134.99 454.34,-129.55 443.85,-128.13 445.25,-134.99"/>
</a>
</g>
</g>
<!-- Node7 -->
<g id="Node000007" class="node">
<title>Node7</title>
<g id="a_Node000007"><a xlink:href="m__time__steppers_8fpp_8f90.html#af409df8df1b374744d8c379e7e7dba0b" target="_top" xlink:title="1st order TVD RK time&#45;stepping algorithm">
<polygon fill="white" stroke="#666666" points="371.5,-56 262.5,-56 262.5,-37 371.5,-37 371.5,-56"/>
<text text-anchor="middle" x="317" y="-44" font-family="Helvetica,sans-Serif" font-size="10.00">s_1st_order_tvd_rk</text>
</a>
</g>
</g>
<!-- Node5&#45;&gt;Node7 -->
<g id="edge6_Node000005_Node000007" class="edge">
<title>Node5&#45;&gt;Node7</title>
<g id="a_edge6_Node000005_Node000007"><a xlink:title=" ">
<path fill="none" stroke="#63b8ff" d="M444.34,-112.19C435.2,-109.55 426.07,-106.07 418,-101.5 398.04,-90.19 401.72,-76.23 382,-64.5 376.25,-61.08 369.81,-58.28 363.31,-56"/>
<polygon fill="#63b8ff" stroke="#63b8ff" points="443.64,-115.63 454.2,-114.74 445.4,-108.85 443.64,-115.63"/>
</a>
</g>
</g>
<!-- Node10 -->
<g id="Node000010" class="node">
<title>Node10</title>
<g id="a_Node000010"><a xlink:href="m__time__steppers_8fpp_8f90.html#a2847bfea6f3dc3fdae115a99009f7245" target="_top" xlink:title="2nd order TVD RK time&#45;stepping algorithm">
<polygon fill="white" stroke="#666666" points="373,-130 261,-130 261,-111 373,-111 373,-130"/>
<text text-anchor="middle" x="317" y="-118" font-family="Helvetica,sans-Serif" font-size="10.00">s_2nd_order_tvd_rk</text>
</a>
</g>
</g>
<!-- Node5&#45;&gt;Node10 -->
<g id="edge9_Node000005_Node000010" class="edge">
<title>Node5&#45;&gt;Node10</title>
<g id="a_edge9_Node000005_Node000010"><a xlink:title=" ">
<path fill="none" stroke="#63b8ff" d="M444.27,-120.5C421.74,-120.5 395.62,-120.5 373.01,-120.5"/>
<polygon fill="#63b8ff" stroke="#63b8ff" points="444.34,-124 454.34,-120.5 444.34,-117 444.34,-124"/>
</a>
</g>
</g>
<!-- Node11 -->
<g id="Node000011" class="node">
<title>Node11</title>
<g id="a_Node000011"><a xlink:href="m__time__steppers_8fpp_8f90.html#ad642c094881f0cffbb6158f9fa079a86" target="_top" xlink:title="3rd order TVD RK time&#45;stepping algorithm">
<polygon fill="white" stroke="#666666" points="372,-93 262,-93 262,-74 372,-74 372,-93"/>
<text text-anchor="middle" x="317" y="-81" font-family="Helvetica,sans-Serif" font-size="10.00">s_3rd_order_tvd_rk</text>
</a>
</g>
</g>
<!-- Node5&#45;&gt;Node11 -->
<g id="edge11_Node000005_Node000011" class="edge">
<title>Node5&#45;&gt;Node11</title>
<g id="a_edge11_Node000005_Node000011"><a xlink:title=" ">
<path fill="none" stroke="#63b8ff" d="M444.48,-109.43C419.02,-104.21 388.96,-98.05 364.54,-93.04"/>
<polygon fill="#63b8ff" stroke="#63b8ff" points="443.85,-112.87 454.34,-111.45 445.25,-106.01 443.85,-112.87"/>
</a>
</g>
</g>
<!-- Node8 -->
<g id="Node000008" class="node">
<title>Node8</title>
<g id="a_Node000008"><a xlink:href="namespacem__start__up.html#aaaeff91a52af5b8f17ed9efed8ac17bd" target="_top" xlink:title=" ">
<polygon fill="white" stroke="#666666" points="216,-116.5 89,-116.5 89,-86.5 216,-86.5 216,-116.5"/>
<text text-anchor="start" x="97" y="-104.5" font-family="Helvetica,sans-Serif" font-size="10.00">m_start_up::s_perform</text>
<text text-anchor="middle" x="152.5" y="-93.5" font-family="Helvetica,sans-Serif" font-size="10.00">_time_step</text>
</a>
</g>
</g>
<!-- Node7&#45;&gt;Node8 -->
<g id="edge7_Node000007_Node000008" class="edge">
<title>Node7&#45;&gt;Node8</title>
<g id="a_edge7_Node000007_Node000008"><a xlink:title=" ">
<path fill="none" stroke="#63b8ff" d="M270.34,-58.83C264.15,-60.65 257.9,-62.57 252,-64.5 231.86,-71.1 209.75,-79.32 191.59,-86.33"/>
<polygon fill="#63b8ff" stroke="#63b8ff" points="271.32,-62.19 279.96,-56.06 269.38,-55.46 271.32,-62.19"/>
</a>
</g>
</g>
<!-- Node9 -->
<g id="Node000009" class="node">
<title>Node9</title>
<g id="a_Node000009"><a xlink:href="p__main_8fpp_8f90.html#aeec10ee8e2940c953967da3e374e1579" target="_top" xlink:title="Quasi&#45;conservative, shock&#45; and interface&#45; capturing finite&#45;volume scheme for the multicomponent Navie...">
<polygon fill="white" stroke="#666666" points="53,-132 0,-132 0,-113 53,-113 53,-132"/>
<text text-anchor="middle" x="26.5" y="-120" font-family="Helvetica,sans-Serif" font-size="10.00">p_main</text>
</a>
</g>
</g>
<!-- Node8&#45;&gt;Node9 -->
<g id="edge8_Node000008_Node000009" class="edge">
<title>Node8&#45;&gt;Node9</title>
<g id="a_edge8_Node000008_Node000009"><a xlink:title=" ">
<path fill="none" stroke="#63b8ff" d="M78.77,-113.82C69.63,-115.37 60.81,-116.86 53.14,-118.16"/>
<polygon fill="#63b8ff" stroke="#63b8ff" points="79.5,-117.24 88.77,-112.12 78.33,-110.34 79.5,-117.24"/>
</a>
</g>
</g>
<!-- Node10&#45;&gt;Node8 -->
<g id="edge10_Node000010_Node000008" class="edge">
<title>Node10&#45;&gt;Node8</title>
<g id="a_edge10_Node000010_Node000008"><a xlink:title=" ">
<path fill="none" stroke="#63b8ff" d="M250.99,-112.9C239.46,-111.55 227.47,-110.15 216.01,-108.81"/>
<polygon fill="#63b8ff" stroke="#63b8ff" points="250.65,-116.38 260.98,-114.07 251.46,-109.43 250.65,-116.38"/>
</a>
</g>
</g>
<!-- Node11&#45;&gt;Node8 -->
<g id="edge12_Node000011_Node000008" class="edge">
<title>Node11&#45;&gt;Node8</title>
<g id="a_edge12_Node000011_Node000008"><a xlink:title=" ">
<path fill="none" stroke="#63b8ff" d="M251.73,-90.62C240,-91.92 227.77,-93.27 216.09,-94.57"/>
<polygon fill="#63b8ff" stroke="#63b8ff" points="252.34,-94.07 261.89,-89.49 251.57,-87.12 252.34,-94.07"/>
</a>
</g>
</g>
<!-- Node12&#45;&gt;Node2 -->
<g id="edge14_Node000012_Node000002" class="edge">
<title>Node12&#45;&gt;Node2</title>
<g id="a_edge14_Node000012_Node000002"><a xlink:title=" ">
<path fill="none" stroke="#63b8ff" d="M806.51,-184.01C803.92,-185.42 801.4,-186.92 799,-188.5 779.58,-201.31 782.62,-214 763,-226.5 757.67,-229.9 751.8,-232.86 745.79,-235.44"/>
<polygon fill="#63b8ff" stroke="#63b8ff" points="808.16,-187.1 815.56,-179.52 805.05,-180.83 808.16,-187.1"/>
</a>
</g>
</g>
<!-- Node12&#45;&gt;Node5 -->
<g id="edge15_Node000012_Node000005" class="edge">
<title>Node12&#45;&gt;Node5</title>
<g id="a_edge15_Node000012_Node000005"><a xlink:title=" ">
<path fill="none" stroke="#63b8ff" d="M797.7,-147.18C786.19,-144.62 774.29,-142.26 763,-140.5 686.91,-128.64 597.26,-123.73 544.87,-121.75"/>
<polygon fill="#63b8ff" stroke="#63b8ff" points="797.16,-150.65 807.69,-149.47 798.72,-143.82 797.16,-150.65"/>
</a>
</g>
</g>
<!-- Node13 -->
<g id="Node000013" class="node">
<title>Node13</title>
<g id="a_Node000013"><a xlink:href="m__data__output_8fpp_8f90.html#a9bfd1f9d59388f2294e049bcabe09692" target="_top" xlink:title="The goal of this subroutine is to output the grid and conservative variables data files for given tim...">
<polygon fill="white" stroke="#666666" points="745.5,-217.5 634.5,-217.5 634.5,-187.5 745.5,-187.5 745.5,-217.5"/>
<text text-anchor="start" x="642.5" y="-205.5" font-family="Helvetica,sans-Serif" font-size="10.00">s_write_serial_data</text>
<text text-anchor="middle" x="690" y="-194.5" font-family="Helvetica,sans-Serif" font-size="10.00">_files</text>
</a>
</g>
</g>
<!-- Node12&#45;&gt;Node13 -->
<g id="edge16_Node000012_Node000013" class="edge">
<title>Node12&#45;&gt;Node13</title>
<g id="a_edge16_Node000012_Node000013"><a xlink:title=" ">
<path fill="none" stroke="#63b8ff" d="M788.69,-181.04C774.26,-184.21 759.41,-187.47 745.77,-190.47"/>
<polygon fill="#63b8ff" stroke="#63b8ff" points="789.58,-184.43 798.6,-178.87 788.08,-177.59 789.58,-184.43"/>
</a>
</g>
</g>
<!-- Node14 -->
<g id="Node000014" class="node">
<title>Node14</title>
<g id="a_Node000014"><a xlink:href="m__data__output_8fpp_8f90.html#a979b8a2cf4215a8122fc461c0512dbba" target="_top" xlink:title=" ">
<polygon fill="white" stroke="#666666" points="378,-215.5 256,-215.5 256,-185.5 378,-185.5 378,-215.5"/>
<text text-anchor="start" x="264" y="-203.5" font-family="Helvetica,sans-Serif" font-size="10.00">__m_data_output_fpp</text>
<text text-anchor="middle" x="317" y="-192.5" font-family="Helvetica,sans-Serif" font-size="10.00">_f90__</text>
</a>
</g>
</g>
<!-- Node13&#45;&gt;Node14 -->
<g id="edge17_Node000013_Node000014" class="edge">
<title>Node13&#45;&gt;Node14</title>
<g id="a_edge17_Node000013_Node000014"><a xlink:title=" ">
<path fill="none" stroke="#63b8ff" d="M623.9,-202.15C554.54,-201.78 445.63,-201.19 378.2,-200.82"/>
<polygon fill="#63b8ff" stroke="#63b8ff" points="624.24,-205.65 634.26,-202.2 624.28,-198.65 624.24,-205.65"/>
</a>
</g>
</g>
<!-- Node15 -->
<g id="Node000015" class="node">
<title>Node15</title>
<g id="a_Node000015"><a xlink:href="m__data__output_8fpp_8f90.html#a23f7e1c827800797a2fe2a1ea76ca16c" target="_top" xlink:title="The computation of parameters, the allocation of memory, the association of pointers and/or the execu...">
<polygon fill="white" stroke="#666666" points="566,-254.5 433,-254.5 433,-224.5 566,-224.5 566,-254.5"/>
<text text-anchor="start" x="441" y="-242.5" font-family="Helvetica,sans-Serif" font-size="10.00">s_initialize_data_output</text>
<text text-anchor="middle" x="499.5" y="-231.5" font-family="Helvetica,sans-Serif" font-size="10.00">_module</text>
</a>
</g>
</g>
<!-- Node13&#45;&gt;Node15 -->
<g id="edge18_Node000013_Node000015" class="edge">
<title>Node13&#45;&gt;Node15</title>
<g id="a_edge18_Node000013_Node000015"><a xlink:title=" ">
<path fill="none" stroke="#63b8ff" d="M624.53,-215.16C605.72,-218.85 585.14,-222.89 566.25,-226.59"/>
<polygon fill="#63b8ff" stroke="#63b8ff" points="625.34,-218.56 634.48,-213.2 623.99,-211.69 625.34,-218.56"/>
</a>
</g>
</g>
<!-- Node16 -->
<g id="Node000016" class="node">
<title>Node16</title>
<g id="a_Node000016"><a xlink:href="namespacem__start__up.html#a3745654d013067a8c4fd89f50598674c" target="_top" xlink:title=" ">
<polygon fill="white" stroke="#666666" points="382,-263.5 252,-263.5 252,-233.5 382,-233.5 382,-263.5"/>
<text text-anchor="start" x="260" y="-251.5" font-family="Helvetica,sans-Serif" font-size="10.00">m_start_up::s_initialize</text>
<text text-anchor="middle" x="317" y="-240.5" font-family="Helvetica,sans-Serif" font-size="10.00">_modules</text>
</a>
</g>
</g>
<!-- Node13&#45;&gt;Node16 -->
<g id="edge22_Node000013_Node000016" class="edge">
<title>Node13&#45;&gt;Node16</title>
<g id="a_edge22_Node000013_Node000016"><a xlink:title=" ">
<path fill="none" stroke="#63b8ff" d="M625.11,-221.9C622.31,-223.34 619.59,-224.87 617,-226.5 597.57,-238.7 602.14,-254.57 581,-263.5 510.85,-293.12 420.7,-277.87 366.24,-263.58"/>
<polygon fill="#63b8ff" stroke="#63b8ff" points="626.68,-225.03 634.25,-217.63 623.71,-218.69 626.68,-225.03"/>
</a>
</g>
</g>
<!-- Node15&#45;&gt;Node14 -->
<g id="edge19_Node000015_Node000014" class="edge">
<title>Node15&#45;&gt;Node14</title>
<g id="a_edge19_Node000015_Node000014"><a xlink:title=" ">
<path fill="none" stroke="#63b8ff" d="M422.66,-223.11C407.83,-219.91 392.47,-216.59 378.23,-213.51"/>
<polygon fill="#63b8ff" stroke="#63b8ff" points="422.31,-226.62 432.82,-225.31 423.79,-219.78 422.31,-226.62"/>
</a>
</g>
</g>
<!-- Node15&#45;&gt;Node16 -->
<g id="edge20_Node000015_Node000016" class="edge">
<title>Node15&#45;&gt;Node16</title>
<g id="a_edge20_Node000015_Node000016"><a xlink:title=" ">
<path fill="none" stroke="#63b8ff" d="M422.62,-243.28C409.15,-243.96 395.23,-244.65 382.12,-245.3"/>
<polygon fill="#63b8ff" stroke="#63b8ff" points="423.01,-246.77 432.82,-242.77 422.66,-239.78 423.01,-246.77"/>
</a>
</g>
</g>
<!-- Node16&#45;&gt;Node9 -->
<g id="edge21_Node000016_Node000009" class="edge">
<title>Node16&#45;&gt;Node9</title>
<g id="a_edge21_Node000016_Node000009"><a xlink:title=" ">
<path fill="none" stroke="#63b8ff" d="M264.93,-229.7C260.54,-227.98 256.18,-226.23 252,-224.5 175.47,-192.81 86.37,-150.75 47.42,-132.1"/>
<polygon fill="#63b8ff" stroke="#63b8ff" points="263.94,-233.07 274.53,-233.42 266.46,-226.54 263.94,-233.07"/>
</a>
</g>
</g>
<!-- Node17&#45;&gt;Node2 -->
<g id="edge24_Node000017_Node000002" class="edge">
<title>Node17&#45;&gt;Node2</title>
<g id="a_edge24_Node000017_Node000002"><a xlink:title=" ">
<path fill="none" stroke="#63b8ff" d="M798.25,-226.94C785.51,-229.74 772.13,-232.68 759.31,-235.5"/>
<polygon fill="#63b8ff" stroke="#63b8ff" points="799.29,-230.3 808.31,-224.73 797.79,-223.46 799.29,-230.3"/>
</a>
</g>
</g>
<!-- Node17&#45;&gt;Node3 -->
<g id="edge25_Node000017_Node000003" class="edge">
<title>Node17&#45;&gt;Node3</title>
<g id="a_edge25_Node000017_Node000003"><a xlink:title=" ">
<path fill="none" stroke="#63b8ff" d="M811.93,-194.23C796.27,-188.94 779,-183.3 763,-178.5 746.04,-173.41 726.61,-168.33 712.21,-164.7"/>
<polygon fill="#63b8ff" stroke="#63b8ff" points="810.85,-197.56 821.45,-197.47 813.11,-190.94 810.85,-197.56"/>
</a>
</g>
</g>
<!-- Node18&#45;&gt;Node7 -->
<g id="edge28_Node000018_Node000007" class="edge">
<title>Node18&#45;&gt;Node7</title>
<g id="a_edge28_Node000018_Node000007"><a xlink:title=" ">
<path fill="none" stroke="#63b8ff" d="M431.7,-46.5C411.91,-46.5 390.49,-46.5 371.64,-46.5"/>
<polygon fill="#63b8ff" stroke="#63b8ff" points="431.88,-50 441.88,-46.5 431.88,-43 431.88,-50"/>
</a>
</g>
</g>
<!-- Node18&#45;&gt;Node10 -->
<g id="edge29_Node000018_Node000010" class="edge">
<title>Node18&#45;&gt;Node10</title>
<g id="a_edge29_Node000018_Node000010"><a xlink:title=" ">
<path fill="none" stroke="#63b8ff" d="M432.28,-57.97C427.31,-59.83 422.49,-61.99 418,-64.5 397.97,-75.69 401.63,-89.63 382,-101.5 375.65,-105.34 368.48,-108.44 361.29,-110.95"/>
<polygon fill="#63b8ff" stroke="#63b8ff" points="433.57,-61.23 441.96,-54.75 431.37,-54.58 433.57,-61.23"/>
</a>
</g>
</g>
<!-- Node18&#45;&gt;Node11 -->
<g id="edge30_Node000018_Node000011" class="edge">
<title>Node18&#45;&gt;Node11</title>
<g id="a_edge30_Node000018_Node000011"><a xlink:title=" ">
<path fill="none" stroke="#63b8ff" d="M441.99,-58.08C417.12,-63.18 388.26,-69.1 364.64,-73.94"/>
<polygon fill="#63b8ff" stroke="#63b8ff" points="442.92,-61.47 452.02,-56.03 441.52,-54.61 442.92,-61.47"/>
</a>
</g>
</g>
<!-- Node19 -->
<g id="Node000019" class="node">
<title>Node19</title>
<g id="a_Node000019"><a xlink:href="m__ibm_8fpp_8f90.html#a14139c4e3e797db72a4838fd987fb8dd" target="_top" xlink:title=" ">
<polygon fill="white" stroke="#666666" points="373.5,-19 260.5,-19 260.5,0 373.5,0 373.5,-19"/>
<text text-anchor="middle" x="317" y="-7" font-family="Helvetica,sans-Serif" font-size="10.00">__m_ibm_fpp_f90__</text>
</a>
</g>
</g>
<!-- Node18&#45;&gt;Node19 -->
<g id="edge27_Node000018_Node000019" class="edge">
<title>Node18&#45;&gt;Node19</title>
<g id="a_edge27_Node000018_Node000019"><a xlink:title=" ">
<path fill="none" stroke="#63b8ff" d="M441.99,-34.92C417.12,-29.82 388.26,-23.9 364.64,-19.06"/>
<polygon fill="#63b8ff" stroke="#63b8ff" points="441.52,-38.39 452.02,-36.97 442.92,-31.53 441.52,-38.39"/>
</a>
</g>
</g>
<!-- Node20&#45;&gt;Node7 -->
<g id="edge33_Node000020_Node000007" class="edge">
<title>Node20&#45;&gt;Node7</title>
<g id="a_edge33_Node000020_Node000007"><a xlink:title=" ">
<path fill="none" stroke="#63b8ff" d="M441.99,-71.92C417.12,-66.82 388.26,-60.9 364.64,-56.06"/>
<polygon fill="#63b8ff" stroke="#63b8ff" points="441.52,-75.39 452.02,-73.97 442.92,-68.53 441.52,-75.39"/>
</a>
</g>
</g>
<!-- Node20&#45;&gt;Node10 -->
<g id="edge34_Node000020_Node000010" class="edge">
<title>Node20&#45;&gt;Node10</title>
<g id="a_edge34_Node000020_Node000010"><a xlink:title=" ">
<path fill="none" stroke="#63b8ff" d="M441.99,-95.08C417.12,-100.18 388.26,-106.1 364.64,-110.94"/>
<polygon fill="#63b8ff" stroke="#63b8ff" points="442.92,-98.47 452.02,-93.03 441.52,-91.61 442.92,-98.47"/>
</a>
</g>
</g>
<!-- Node20&#45;&gt;Node11 -->
<g id="edge35_Node000020_Node000011" class="edge">
<title>Node20&#45;&gt;Node11</title>
<g id="a_edge35_Node000020_Node000011"><a xlink:title=" ">
<path fill="none" stroke="#63b8ff" d="M407.55,-83.5C395.39,-83.5 383.25,-83.5 372.01,-83.5"/>
<polygon fill="#63b8ff" stroke="#63b8ff" points="407.75,-87 417.75,-83.5 407.75,-80 407.75,-87"/>
</a>
</g>
</g>
<!-- Node20&#45;&gt;Node14 -->
<g id="edge32_Node000020_Node000014" class="edge">
<title>Node20&#45;&gt;Node14</title>
<g id="a_edge32_Node000020_Node000014"><a xlink:title=" ">
<path fill="none" stroke="#63b8ff" d="M423,-97.95C421.27,-99.05 419.6,-100.23 418,-101.5 389.31,-124.18 408.88,-150.7 382,-175.5 377.79,-179.38 372.91,-182.69 367.76,-185.5"/>
<polygon fill="#63b8ff" stroke="#63b8ff" points="424.92,-100.9 432.08,-93.09 421.61,-94.73 424.92,-100.9"/>
</a>
</g>
</g>
</g>
</svg>

<g id="navigator" transform="translate(0 0)" fill="#404254">
  <rect fill="#f2f5e9" fill-opacity="0.5" stroke="#606060" stroke-width=".5" x="0" y="0" width="60" height="60"/>
  <use id="zoomplus" xlink:href="#zoomPlus" x="17" y="9" onmousedown="handleZoom(evt,'in')"/>
  <use id="zoomminus" xlink:href="#zoomMin" x="42" y="9" onmousedown="handleZoom(evt,'out')"/>
  <use id="reset" xlink:href="#resetDef" x="30" y="36" onmousedown="handleReset()"/>
   <use id="arrowup" xlink:href="#arrowUp" x="0" y="0" onmousedown="handlePan(0,-1)"/>
  <use id="arrowright" xlink:href="#arrowRight" x="0" y="0" onmousedown="handlePan(1,0)"/>
  <use id="arrowdown" xlink:href="#arrowDown" x="0" y="0" onmousedown="handlePan(0,1)"/>
  <use id="arrowleft" xlink:href="#arrowLeft" x="0" y="0" onmousedown="handlePan(-1,0)"/>
</g>
<svg viewBox="0 0 15 15" width="100%" height="30px" preserveAspectRatio="xMaxYMin meet">
 <g id="arrow_out" transform="scale(0.3 0.3)">
  <a xlink:href="m__variables__conversion_8fpp_8f90_a18920a8493fb62dd7bba5eefab778b31_icgraph_org.svg" target="_base">
   <rect id="button" ry="5" rx="5" y="6" x="6" height="38" width="38"
        fill="#f2f5e9" fill-opacity="0.5" stroke="#606060" stroke-width="1.0"/>
   <path id="arrow"
     d="M 11.500037,31.436501 C 11.940474,20.09759 22.043105,11.32322 32.158766,21.979434 L 37.068811,17.246167 C 37.068811,17.246167 37.088388,32 37.088388,32 L 22.160133,31.978069 C 22.160133,31.978069 26.997745,27.140456 26.997745,27.140456 C 18.528582,18.264221 13.291696,25.230495 11.500037,31.436501 z"
     style="fill:#404040;"/>
  </a>
 </g>
</svg>

<style type='text/css'>
<![CDATA[
[data-mouse-over-selected='false'] { opacity: 0.7; }
[data-mouse-over-selected='true']  { opacity: 1.0; }
]]>
</style>
<script type="application/ecmascript"><![CDATA[
document.addEventListener('DOMContentLoaded', (event) => {
  highlightEdges();
  highlightAdjacentNodes();
});
]]></script>
</svg>
