<?xml version="1.0" encoding="UTF-8" standalone="no"?>
<!DOCTYPE svg PUBLIC "-//W3C//DTD SVG 1.1//EN"
 "http://www.w3.org/Graphics/SVG/1.1/DTD/svg11.dtd">
<!-- Generated by graphviz version 2.43.0 (0)
 -->
<!-- Title: __m_variables_conversion_fpp_f90__ Pages: 1 -->
<!--zoomable 688 -->

<svg id="main" version="1.1" xmlns="http://www.w3.org/2000/svg" xmlns:xlink="http://www.w3.org/1999/xlink" xml:space="preserve" onload="init(evt)">

<style type="text/css"><![CDATA[
.node, .edge {opacity: 0.7;}
.node.selected, .edge.selected {opacity: 1;}
.edge:hover path { stroke: red; }
.edge:hover polygon { stroke: red; fill: red; }
]]></style>

<defs>
  <circle id="rim" cx="0" cy="0" r="7"/>
  <circle id="rim2" cx="0" cy="0" r="3.5"/>
  <g id="zoomPlus">
    <use xlink:href="#rim" fill="#404040"><set attributeName="fill" to="#808080" begin="zoomplus.mouseover" end="zoomplus.mouseout"/></use>
    <path d="M-4,0h8M0,-4v8" fill="none" stroke="white" stroke-width="1.5" pointer-events="none"/>
  </g>
  <g id="zoomMin">
    <use xlink:href="#rim" fill="#404040"><set attributeName="fill" to="#808080" begin="zoomminus.mouseover" end="zoomminus.mouseout"/></use>
    <path d="M-4,0h8" fill="none" stroke="white" stroke-width="1.5" pointer-events="none"/>
  </g>
  <g id="arrowUp" transform="translate(30 24)">
    <use xlink:href="#rim"/>
    <path pointer-events="none" fill="none" stroke="white" stroke-width="1.5" d="M0,-3.0v7 M-2.5,-0.5L0,-3.0L2.5,-0.5"/>
  </g>
  <g id="arrowRight" transform="rotate(90) translate(36 -43)">
    <use xlink:href="#rim"/>
    <path pointer-events="none" fill="none" stroke="white" stroke-width="1.5" d="M0,-3.0v7 M-2.5,-0.5L0,-3.0L2.5,-0.5"/>
  </g>
  <g id="arrowDown" transform="rotate(180) translate(-30 -48)">
    <use xlink:href="#rim"/>
    <path pointer-events="none" fill="none" stroke="white" stroke-width="1.5" d="M0,-3.0v7 M-2.5,-0.5L0,-3.0L2.5,-0.5"/>
  </g>
  <g id="arrowLeft" transform="rotate(270) translate(-36 17)">
    <use xlink:href="#rim"/>
    <path pointer-events="none" fill="none" stroke="white" stroke-width="1.5" d="M0,-3.0v7 M-2.5,-0.5L0,-3.0L2.5,-0.5"/>
  </g>
  <g id="resetDef">
    <use xlink:href="#rim2" fill="#404040"><set attributeName="fill" to="#808080" begin="reset.mouseover" end="reset.mouseout"/></use>
  </g>
</defs>
<script type="application/ecmascript">
var viewWidth = 760;
var viewHeight = 688;
var sectionId = 'dynsection-0';
</script>
<script type="application/ecmascript" xlink:href="svg.min.js"/>
<svg id="graph" class="graph">
<g id="viewport">
<title>__m_variables_conversion_fpp_f90__</title>
<!-- Node1 -->
<g id="Node000001" class="node">
<title>Node1</title>
<g id="a_Node000001"><a xlink:title=" ">
<polygon fill="#999999" stroke="#666666" points="146,-351 0,-351 0,-321 146,-321 146,-351"/>
<text text-anchor="start" x="8" y="-339" font-family="Helvetica,sans-Serif" font-size="10.00">__m_variables_conversion</text>
<text text-anchor="middle" x="73" y="-328" font-family="Helvetica,sans-Serif" font-size="10.00">_fpp_f90__</text>
</a>
</g>
</g>
<!-- Node2 -->
<g id="Node000002" class="node">
<title>Node2</title>
<g id="a_Node000002"><a xlink:href="m__variables__conversion_8fpp_8f90.html#af5fe21ccecd6ffb913ce62cdbbb7b0f0" target="_top" xlink:title=" ">
<polygon fill="white" stroke="#666666" points="350,-621 182,-621 182,-591 350,-591 350,-621"/>
<text text-anchor="start" x="190" y="-609" font-family="Helvetica,sans-Serif" font-size="10.00">s_compute_fast_magnetosonic</text>
<text text-anchor="middle" x="266" y="-598" font-family="Helvetica,sans-Serif" font-size="10.00">_speed</text>
</a>
</g>
</g>
<!-- Node1&#45;&gt;Node2 -->
<g id="edge1_Node000001_Node000002" class="edge">
<title>Node1&#45;&gt;Node2</title>
<g id="a_edge1_Node000001_Node000002"><a xlink:title=" ">
<path fill="none" stroke="#63b8ff" d="M76.12,-351.03C82.97,-393.86 108.49,-517.62 182,-582 183.36,-583.19 184.77,-584.32 186.23,-585.39"/>
<polygon fill="#63b8ff" stroke="#63b8ff" points="184.73,-588.59 195.06,-590.96 188.47,-582.66 184.73,-588.59"/>
</a>
</g>
</g>
<!-- Node4 -->
<g id="Node000004" class="node">
<title>Node4</title>
<g id="a_Node000004"><a xlink:href="m__variables__conversion_8fpp_8f90.html#ad74ef9c6e5144ef4389c41fab6f94e31" target="_top" xlink:title="This procedure conditionally calculates the appropriate pressure.">
<polygon fill="white" stroke="#666666" points="532.5,-407.5 415.5,-407.5 415.5,-388.5 532.5,-388.5 532.5,-407.5"/>
<text text-anchor="middle" x="474" y="-395.5" font-family="Helvetica,sans-Serif" font-size="10.00">s_compute_pressure</text>
</a>
</g>
</g>
<!-- Node1&#45;&gt;Node4 -->
<g id="edge3_Node000001_Node000004" class="edge">
<title>Node1&#45;&gt;Node4</title>
<g id="a_edge3_Node000001_Node000004"><a xlink:title=" ">
<path fill="none" stroke="#63b8ff" d="M101.96,-351.11C123.24,-361.81 153.62,-375.39 182,-382 257,-399.47 345.68,-401.82 405.26,-400.86"/>
<polygon fill="#63b8ff" stroke="#63b8ff" points="405.37,-404.35 415.3,-400.66 405.23,-397.36 405.37,-404.35"/>
</a>
</g>
</g>
<!-- Node5 -->
<g id="Node000005" class="node">
<title>Node5</title>
<g id="a_Node000005"><a xlink:href="m__variables__conversion_8fpp_8f90.html#a51acc7500f24829b23b1280b91260929" target="_top" xlink:title=" ">
<polygon fill="white" stroke="#666666" points="325.5,-201 206.5,-201 206.5,-171 325.5,-171 325.5,-201"/>
<text text-anchor="start" x="214.5" y="-189" font-family="Helvetica,sans-Serif" font-size="10.00">s_compute_speed_of</text>
<text text-anchor="middle" x="266" y="-178" font-family="Helvetica,sans-Serif" font-size="10.00">_sound</text>
</a>
</g>
</g>
<!-- Node1&#45;&gt;Node5 -->
<g id="edge4_Node000001_Node000005" class="edge">
<title>Node1&#45;&gt;Node5</title>
<g id="a_edge4_Node000001_Node000005"><a xlink:title=" ">
<path fill="none" stroke="#63b8ff" d="M83.77,-320.74C100.77,-295.33 138.22,-244.26 182,-215 187.54,-211.3 193.61,-208.01 199.86,-205.11"/>
<polygon fill="#63b8ff" stroke="#63b8ff" points="201.31,-208.3 209.11,-201.13 198.54,-201.87 201.31,-208.3"/>
</a>
</g>
</g>
<!-- Node6 -->
<g id="Node000006" class="node">
<title>Node6</title>
<g id="a_Node000006"><a xlink:href="m__variables__conversion_8fpp_8f90.html#ac269816c5c0ef9758b03e89cf59d3c50" target="_top" xlink:title="The following procedure handles the conversion between the conservative variables and the primitive v...">
<polygon fill="white" stroke="#666666" points="332,-373 200,-373 200,-343 332,-343 332,-373"/>
<text text-anchor="start" x="208" y="-361" font-family="Helvetica,sans-Serif" font-size="10.00">s_convert_conservative</text>
<text text-anchor="middle" x="266" y="-350" font-family="Helvetica,sans-Serif" font-size="10.00">_to_primitive_variables</text>
</a>
</g>
</g>
<!-- Node1&#45;&gt;Node6 -->
<g id="edge5_Node000001_Node000006" class="edge">
<title>Node1&#45;&gt;Node6</title>
<g id="a_edge5_Node000001_Node000006"><a xlink:title=" ">
<path fill="none" stroke="#63b8ff" d="M146.21,-344.32C160.41,-345.95 175.33,-347.67 189.63,-349.32"/>
<polygon fill="#63b8ff" stroke="#63b8ff" points="189.57,-352.84 199.91,-350.5 190.38,-345.88 189.57,-352.84"/>
</a>
</g>
</g>
<!-- Node8 -->
<g id="Node000008" class="node">
<title>Node8</title>
<g id="a_Node000008"><a xlink:href="m__variables__conversion_8fpp_8f90.html#a7e916812d559521b02482716753a50d6" target="_top" xlink:title=" ">
<polygon fill="white" stroke="#666666" points="540,-330 408,-330 408,-300 540,-300 540,-330"/>
<text text-anchor="start" x="416" y="-318" font-family="Helvetica,sans-Serif" font-size="10.00">s_convert_species_to</text>
<text text-anchor="middle" x="474" y="-307" font-family="Helvetica,sans-Serif" font-size="10.00">_mixture_variables_acc</text>
</a>
</g>
</g>
<!-- Node1&#45;&gt;Node8 -->
<g id="edge23_Node000001_Node000008" class="edge">
<title>Node1&#45;&gt;Node8</title>
<g id="a_edge23_Node000001_Node000008"><a xlink:title=" ">
<path fill="none" stroke="#63b8ff" d="M146.26,-332.2C217.32,-328.46 325.35,-322.77 397.51,-318.97"/>
<polygon fill="#63b8ff" stroke="#63b8ff" points="398.09,-322.45 407.89,-318.43 397.72,-315.46 398.09,-322.45"/>
</a>
</g>
</g>
<!-- Node9 -->
<g id="Node000009" class="node">
<title>Node9</title>
<g id="a_Node000009"><a xlink:href="m__variables__conversion_8fpp_8f90.html#aa21e44424e17b99b4e36c3eb59cdcd15" target="_top" xlink:title=" ">
<polygon fill="white" stroke="#666666" points="562,-282 386,-282 386,-252 562,-252 562,-282"/>
<text text-anchor="start" x="394" y="-270" font-family="Helvetica,sans-Serif" font-size="10.00">s_convert_species_to</text>
<text text-anchor="middle" x="474" y="-259" font-family="Helvetica,sans-Serif" font-size="10.00">_mixture_variables_bubbles_acc</text>
</a>
</g>
</g>
<!-- Node1&#45;&gt;Node9 -->
<g id="edge25_Node000001_Node000009" class="edge">
<title>Node1&#45;&gt;Node9</title>
<g id="a_edge25_Node000001_Node000009"><a xlink:title=" ">
<path fill="none" stroke="#63b8ff" d="M86.36,-320.84C104.66,-299.75 141.21,-262.51 182,-248 258.36,-220.83 353.01,-235.07 413.22,-249.56"/>
<polygon fill="#63b8ff" stroke="#63b8ff" points="412.4,-252.96 422.95,-251.97 414.09,-246.16 412.4,-252.96"/>
</a>
</g>
</g>
<!-- Node10 -->
<g id="Node000010" class="node">
<title>Node10</title>
<g id="a_Node000010"><a xlink:href="m__variables__conversion_8fpp_8f90.html#ab8bdf7610d49d294015daa441faabc01" target="_top" xlink:title="Dispatch to the s_convert_mixture_to_mixture_variables and s_convert_species_to_mixture_variables sub...">
<polygon fill="white" stroke="#666666" points="535,-535 413,-535 413,-505 535,-505 535,-535"/>
<text text-anchor="start" x="421" y="-523" font-family="Helvetica,sans-Serif" font-size="10.00">s_convert_to_mixture</text>
<text text-anchor="middle" x="474" y="-512" font-family="Helvetica,sans-Serif" font-size="10.00">_variables</text>
</a>
</g>
</g>
<!-- Node1&#45;&gt;Node10 -->
<g id="edge26_Node000001_Node000010" class="edge">
<title>Node1&#45;&gt;Node10</title>
<g id="a_edge26_Node000001_Node000010"><a xlink:title=" ">
<path fill="none" stroke="#63b8ff" d="M79.49,-351.2C92.02,-383.38 126,-458.13 182,-491 249.19,-530.44 340.39,-533.02 402.68,-528.75"/>
<polygon fill="#63b8ff" stroke="#63b8ff" points="403.09,-532.23 412.8,-527.98 402.56,-525.25 403.09,-532.23"/>
</a>
</g>
</g>
<!-- Node11 -->
<g id="Node000011" class="node">
<title>Node11</title>
<g id="a_Node000011"><a xlink:href="m__variables__conversion_8fpp_8f90.html#adec0ccf2a3298d2b375a9405a0fa7c1a" target="_top" xlink:title="This subroutine is designed for the gamma/pi_inf model and provided a set of either conservative or p...">
<polygon fill="white" stroke="#666666" points="736,-619 614,-619 614,-589 736,-589 736,-619"/>
<text text-anchor="start" x="622" y="-607" font-family="Helvetica,sans-Serif" font-size="10.00">s_convert_mixture_to</text>
<text text-anchor="middle" x="675" y="-596" font-family="Helvetica,sans-Serif" font-size="10.00">_mixture_variables</text>
</a>
</g>
</g>
<!-- Node1&#45;&gt;Node11 -->
<g id="edge14_Node000001_Node000011" class="edge">
<title>Node1&#45;&gt;Node11</title>
<g id="a_edge14_Node000001_Node000011"><a xlink:title=" ">
<path fill="none" stroke="#63b8ff" d="M74.05,-351.06C75.12,-401.2 86.13,-563.09 182,-630 320.36,-726.58 537.63,-658.87 630.04,-622.73"/>
<polygon fill="#63b8ff" stroke="#63b8ff" points="631.38,-625.96 639.38,-619.02 628.79,-619.46 631.38,-625.96"/>
</a>
</g>
</g>
<!-- Node12 -->
<g id="Node000012" class="node">
<title>Node12</title>
<g id="a_Node000012"><a xlink:href="m__variables__conversion_8fpp_8f90.html#ac9e3787fd3c00962752030f2c218c3fc" target="_top" xlink:title="This subroutine is designed for the volume fraction model and provided a set of either conservative o...">
<polygon fill="white" stroke="#666666" points="735.5,-526 614.5,-526 614.5,-496 735.5,-496 735.5,-526"/>
<text text-anchor="start" x="622.5" y="-514" font-family="Helvetica,sans-Serif" font-size="10.00">s_convert_species_to</text>
<text text-anchor="middle" x="675" y="-503" font-family="Helvetica,sans-Serif" font-size="10.00">_mixture_variables</text>
</a>
</g>
</g>
<!-- Node1&#45;&gt;Node12 -->
<g id="edge22_Node000001_Node000012" class="edge">
<title>Node1&#45;&gt;Node12</title>
<g id="a_edge22_Node000001_Node000012"><a xlink:title=" ">
<path fill="none" stroke="#63b8ff" d="M85.31,-351.34C103.1,-374.19 139.94,-416.65 182,-437 200.83,-446.11 472.85,-483.8 604.12,-501.6"/>
<polygon fill="#63b8ff" stroke="#63b8ff" points="603.71,-505.08 614.09,-502.95 604.65,-498.14 603.71,-505.08"/>
</a>
</g>
</g>
<!-- Node13 -->
<g id="Node000013" class="node">
<title>Node13</title>
<g id="a_Node000013"><a xlink:href="m__variables__conversion_8fpp_8f90.html#a975c2bf46f73cd704b4503e833f5ec3c" target="_top" xlink:title="This procedure is used alongside with the gamma/pi_inf model to transfer the density,...">
<polygon fill="white" stroke="#666666" points="752,-470 598,-470 598,-440 752,-440 752,-470"/>
<text text-anchor="start" x="606" y="-458" font-family="Helvetica,sans-Serif" font-size="10.00">s_convert_species_to</text>
<text text-anchor="middle" x="675" y="-447" font-family="Helvetica,sans-Serif" font-size="10.00">_mixture_variables_bubbles</text>
</a>
</g>
</g>
<!-- Node1&#45;&gt;Node13 -->
<g id="edge24_Node000001_Node000013" class="edge">
<title>Node1&#45;&gt;Node13</title>
<g id="a_edge24_Node000001_Node000013"><a xlink:title=" ">
<path fill="none" stroke="#63b8ff" d="M91.73,-351.09C112.06,-367.45 147.12,-392.86 182,-405 318.21,-452.4 487.5,-459.12 587.82,-458.14"/>
<polygon fill="#63b8ff" stroke="#63b8ff" points="587.95,-461.64 597.9,-458.02 587.86,-454.64 587.95,-461.64"/>
</a>
</g>
</g>
<!-- Node14 -->
<g id="Node000014" class="node">
<title>Node14</title>
<g id="a_Node000014"><a xlink:href="m__variables__conversion_8fpp_8f90.html#a230210edf077e619ecf798be553d5023" target="_top" xlink:title="The following procedure handles the conversion between the primitive variables and the conservative v...">
<polygon fill="white" stroke="#666666" points="341,-573 191,-573 191,-543 341,-543 341,-573"/>
<text text-anchor="start" x="199" y="-561" font-family="Helvetica,sans-Serif" font-size="10.00">s_convert_primitive</text>
<text text-anchor="middle" x="266" y="-550" font-family="Helvetica,sans-Serif" font-size="10.00">_to_conservative_variables</text>
</a>
</g>
</g>
<!-- Node1&#45;&gt;Node14 -->
<g id="edge15_Node000001_Node000014" class="edge">
<title>Node1&#45;&gt;Node14</title>
<g id="a_edge15_Node000001_Node000014"><a xlink:title=" ">
<path fill="none" stroke="#63b8ff" d="M78.38,-351.21C89.53,-387.34 122.45,-479.01 182,-529 186.16,-532.5 190.78,-535.58 195.63,-538.3"/>
<polygon fill="#63b8ff" stroke="#63b8ff" points="194.09,-541.44 204.59,-542.81 197.24,-535.19 194.09,-541.44"/>
</a>
</g>
</g>
<!-- Node16 -->
<g id="Node000016" class="node">
<title>Node16</title>
<g id="a_Node000016"><a xlink:href="m__variables__conversion_8fpp_8f90.html#a372d7e72401e01311cda4b4b0b8c3d29" target="_top" xlink:title="The following subroutine handles the conversion between the primitive variables and the Eulerian flux...">
<polygon fill="white" stroke="#666666" points="322.5,-287 209.5,-287 209.5,-257 322.5,-257 322.5,-287"/>
<text text-anchor="start" x="217.5" y="-275" font-family="Helvetica,sans-Serif" font-size="10.00">s_convert_primitive</text>
<text text-anchor="middle" x="266" y="-264" font-family="Helvetica,sans-Serif" font-size="10.00">_to_flux_variables</text>
</a>
</g>
</g>
<!-- Node1&#45;&gt;Node16 -->
<g id="edge19_Node000001_Node000016" class="edge">
<title>Node1&#45;&gt;Node16</title>
<g id="a_edge19_Node000001_Node000016"><a xlink:title=" ">
<path fill="none" stroke="#63b8ff" d="M118.78,-320.99C146.22,-311.8 181.53,-299.97 210.58,-290.24"/>
<polygon fill="#63b8ff" stroke="#63b8ff" points="211.8,-293.52 220.17,-287.02 209.58,-286.88 211.8,-293.52"/>
</a>
</g>
</g>
<!-- Node17 -->
<g id="Node000017" class="node">
<title>Node17</title>
<g id="a_Node000017"><a xlink:href="m__variables__conversion_8fpp_8f90.html#a5e828ed14f4e7f92c7405f47f4733d40" target="_top" xlink:title=" ">
<polygon fill="white" stroke="#666666" points="324.5,-153 207.5,-153 207.5,-123 324.5,-123 324.5,-153"/>
<text text-anchor="start" x="215.5" y="-141" font-family="Helvetica,sans-Serif" font-size="10.00">s_finalize_variables</text>
<text text-anchor="middle" x="266" y="-130" font-family="Helvetica,sans-Serif" font-size="10.00">_conversion_module</text>
</a>
</g>
</g>
<!-- Node1&#45;&gt;Node17 -->
<g id="edge27_Node000001_Node000017" class="edge">
<title>Node1&#45;&gt;Node17</title>
<g id="a_edge27_Node000001_Node000017"><a xlink:title=" ">
<path fill="none" stroke="#63b8ff" d="M79.11,-320.83C91.29,-286.99 125.32,-204.94 182,-162 186.83,-158.34 192.19,-155.24 197.81,-152.62"/>
<polygon fill="#63b8ff" stroke="#63b8ff" points="199.55,-155.68 207.45,-148.62 196.87,-149.22 199.55,-155.68"/>
</a>
</g>
</g>
<!-- Node18 -->
<g id="Node000018" class="node">
<title>Node18</title>
<g id="a_Node000018"><a xlink:href="m__variables__conversion_8fpp_8f90.html#a94152c40f6a9e3ffc551ffc854bf5741" target="_top" xlink:title=" ">
<polygon fill="white" stroke="#666666" points="311,-104.5 221,-104.5 221,-85.5 311,-85.5 311,-104.5"/>
<text text-anchor="middle" x="266" y="-92.5" font-family="Helvetica,sans-Serif" font-size="10.00">s_initialize_mv</text>
</a>
</g>
</g>
<!-- Node1&#45;&gt;Node18 -->
<g id="edge28_Node000001_Node000018" class="edge">
<title>Node1&#45;&gt;Node18</title>
<g id="a_edge28_Node000001_Node000018"><a xlink:title=" ">
<path fill="none" stroke="#63b8ff" d="M76.72,-320.78C84.8,-280.28 112.54,-169.2 182,-114 190.33,-107.38 200.54,-102.98 210.91,-100.07"/>
<polygon fill="#63b8ff" stroke="#63b8ff" points="211.93,-103.43 220.85,-97.72 210.32,-96.62 211.93,-103.43"/>
</a>
</g>
</g>
<!-- Node19 -->
<g id="Node000019" class="node">
<title>Node19</title>
<g id="a_Node000019"><a xlink:href="m__variables__conversion_8fpp_8f90.html#a988ba37a018909e700eaeeb5e2b4ffbd" target="_top" xlink:title=" ">
<polygon fill="white" stroke="#666666" points="309,-67.5 223,-67.5 223,-48.5 309,-48.5 309,-67.5"/>
<text text-anchor="middle" x="266" y="-55.5" font-family="Helvetica,sans-Serif" font-size="10.00">s_initialize_pb</text>
</a>
</g>
</g>
<!-- Node1&#45;&gt;Node19 -->
<g id="edge29_Node000001_Node000019" class="edge">
<title>Node1&#45;&gt;Node19</title>
<g id="a_edge29_Node000001_Node000019"><a xlink:title=" ">
<path fill="none" stroke="#63b8ff" d="M75.5,-320.85C80.79,-275.86 102.81,-142.07 182,-76 190.67,-68.77 201.58,-64.25 212.61,-61.47"/>
<polygon fill="#63b8ff" stroke="#63b8ff" points="213.63,-64.84 222.71,-59.38 212.21,-57.98 213.63,-64.84"/>
</a>
</g>
</g>
<!-- Node20 -->
<g id="Node000020" class="node">
<title>Node20</title>
<g id="a_Node000020"><a xlink:href="m__variables__conversion_8fpp_8f90.html#a54dd1ee82b542a26f83cb5a1e7f58610" target="_top" xlink:title="The computation of parameters, the allocation of memory, the association of pointers and/or the execu...">
<polygon fill="white" stroke="#666666" points="325.5,-30 206.5,-30 206.5,0 325.5,0 325.5,-30"/>
<text text-anchor="start" x="214.5" y="-18" font-family="Helvetica,sans-Serif" font-size="10.00">s_initialize_variables</text>
<text text-anchor="middle" x="266" y="-7" font-family="Helvetica,sans-Serif" font-size="10.00">_conversion_module</text>
</a>
</g>
</g>
<!-- Node1&#45;&gt;Node20 -->
<g id="edge30_Node000001_Node000020" class="edge">
<title>Node1&#45;&gt;Node20</title>
<g id="a_edge30_Node000001_Node000020"><a xlink:title=" ">
<path fill="none" stroke="#63b8ff" d="M74.87,-320.78C78.47,-272.13 96.43,-119 182,-39 186.42,-34.87 191.51,-31.44 196.95,-28.6"/>
<polygon fill="#63b8ff" stroke="#63b8ff" points="198.7,-31.65 206.38,-24.35 195.82,-25.27 198.7,-31.65"/>
</a>
</g>
</g>
<!-- Node3 -->
<g id="Node000003" class="node">
<title>Node3</title>
<g id="a_Node000003"><a xlink:href="m__mpi__common_8fpp_8f90.html#adbcc47e90968ff0f14ccc2ca3c47586a" target="_top" xlink:title="The subroutine terminates the MPI execution environment.">
<polygon fill="white" stroke="#666666" points="512.5,-612.5 435.5,-612.5 435.5,-593.5 512.5,-593.5 512.5,-612.5"/>
<text text-anchor="middle" x="474" y="-600.5" font-family="Helvetica,sans-Serif" font-size="10.00">s_mpi_abort</text>
</a>
</g>
</g>
<!-- Node2&#45;&gt;Node3 -->
<g id="edge2_Node000002_Node000003" class="edge">
<title>Node2&#45;&gt;Node3</title>
<g id="a_edge2_Node000002_Node000003"><a xlink:title=" ">
<path fill="none" stroke="#63b8ff" d="M350.19,-604.79C375.74,-604.42 402.97,-604.02 425.29,-603.69"/>
<polygon fill="#63b8ff" stroke="#63b8ff" points="425.55,-607.19 435.49,-603.55 425.44,-600.19 425.55,-607.19"/>
</a>
</g>
</g>
<!-- Node6&#45;&gt;Node4 -->
<g id="edge7_Node000006_Node000004" class="edge">
<title>Node6&#45;&gt;Node4</title>
<g id="a_edge7_Node000006_Node000004"><a xlink:title=" ">
<path fill="none" stroke="#63b8ff" d="M332.18,-370.66C358.4,-375.75 388.42,-381.58 413.99,-386.54"/>
<polygon fill="#63b8ff" stroke="#63b8ff" points="413.44,-390 423.92,-388.47 414.77,-383.13 413.44,-390"/>
</a>
</g>
</g>
<!-- Node7 -->
<g id="Node000007" class="node">
<title>Node7</title>
<g id="a_Node000007"><a xlink:href="m__helper_8fpp_8f90.html#ab7da8471e7f3806485eddbb315766fbe" target="_top" xlink:title=" ">
<polygon fill="white" stroke="#666666" points="535,-367.5 413,-367.5 413,-348.5 535,-348.5 535,-367.5"/>
<text text-anchor="middle" x="474" y="-355.5" font-family="Helvetica,sans-Serif" font-size="10.00">s_comp_n_from_cons</text>
</a>
</g>
</g>
<!-- Node6&#45;&gt;Node7 -->
<g id="edge6_Node000006_Node000007" class="edge">
<title>Node6&#45;&gt;Node7</title>
<g id="a_edge6_Node000006_Node000007"><a xlink:title=" ">
<path fill="none" stroke="#63b8ff" d="M332.18,-358C354.57,-358 379.72,-358 402.51,-358"/>
<polygon fill="#63b8ff" stroke="#63b8ff" points="402.79,-361.5 412.79,-358 402.79,-354.5 402.79,-361.5"/>
</a>
</g>
</g>
<!-- Node6&#45;&gt;Node8 -->
<g id="edge8_Node000006_Node000008" class="edge">
<title>Node6&#45;&gt;Node8</title>
<g id="a_edge8_Node000006_Node000008"><a xlink:title=" ">
<path fill="none" stroke="#63b8ff" d="M332.18,-344.39C353.04,-340.04 376.3,-335.18 397.82,-330.69"/>
<polygon fill="#63b8ff" stroke="#63b8ff" points="398.82,-334.06 407.89,-328.59 397.39,-327.21 398.82,-334.06"/>
</a>
</g>
</g>
<!-- Node6&#45;&gt;Node9 -->
<g id="edge9_Node000006_Node000009" class="edge">
<title>Node6&#45;&gt;Node9</title>
<g id="a_edge9_Node000006_Node000009"><a xlink:title=" ">
<path fill="none" stroke="#63b8ff" d="M289.86,-342.9C313.21,-328.01 350.93,-305.46 386,-291 390.98,-288.95 396.19,-287.01 401.48,-285.2"/>
<polygon fill="#63b8ff" stroke="#63b8ff" points="402.64,-288.51 411.06,-282.08 400.46,-281.85 402.64,-288.51"/>
</a>
</g>
</g>
<!-- Node6&#45;&gt;Node10 -->
<g id="edge10_Node000006_Node000010" class="edge">
<title>Node6&#45;&gt;Node10</title>
<g id="a_edge10_Node000006_Node000010"><a xlink:title=" ">
<path fill="none" stroke="#63b8ff" d="M286.38,-373.24C323.28,-402.26 403.71,-465.51 445.91,-498.7"/>
<polygon fill="#63b8ff" stroke="#63b8ff" points="443.8,-501.49 453.82,-504.92 448.12,-495.99 443.8,-501.49"/>
</a>
</g>
</g>
<!-- Node10&#45;&gt;Node11 -->
<g id="edge11_Node000010_Node000011" class="edge">
<title>Node10&#45;&gt;Node11</title>
<g id="a_edge11_Node000010_Node000011"><a xlink:title=" ">
<path fill="none" stroke="#63b8ff" d="M533.59,-535.05C543.2,-538.02 552.96,-541.36 562,-545 589.12,-555.91 618.29,-571.4 640.06,-583.78"/>
<polygon fill="#63b8ff" stroke="#63b8ff" points="638.5,-586.92 648.91,-588.87 641.99,-580.85 638.5,-586.92"/>
</a>
</g>
</g>
<!-- Node10&#45;&gt;Node12 -->
<g id="edge12_Node000010_Node000012" class="edge">
<title>Node10&#45;&gt;Node12</title>
<g id="a_edge12_Node000010_Node000012"><a xlink:title=" ">
<path fill="none" stroke="#63b8ff" d="M535.25,-517.28C556.97,-516.29 581.67,-515.18 604.15,-514.16"/>
<polygon fill="#63b8ff" stroke="#63b8ff" points="604.47,-517.65 614.3,-513.7 604.15,-510.66 604.47,-517.65"/>
</a>
</g>
</g>
<!-- Node10&#45;&gt;Node13 -->
<g id="edge13_Node000010_Node000013" class="edge">
<title>Node10&#45;&gt;Node13</title>
<g id="a_edge13_Node000010_Node000013"><a xlink:title=" ">
<path fill="none" stroke="#63b8ff" d="M521.15,-504.92C550.06,-495.48 587.49,-483.26 618.08,-473.27"/>
<polygon fill="#63b8ff" stroke="#63b8ff" points="619.33,-476.54 627.75,-470.11 617.16,-469.88 619.33,-476.54"/>
</a>
</g>
</g>
<!-- Node14&#45;&gt;Node3 -->
<g id="edge18_Node000014_Node000003" class="edge">
<title>Node14&#45;&gt;Node3</title>
<g id="a_edge18_Node000014_Node000003"><a xlink:title=" ">
<path fill="none" stroke="#63b8ff" d="M335.88,-573.05C365.34,-579.48 398.99,-586.83 425.58,-592.64"/>
<polygon fill="#63b8ff" stroke="#63b8ff" points="424.89,-596.07 435.41,-594.79 426.38,-589.23 424.89,-596.07"/>
</a>
</g>
</g>
<!-- Node14&#45;&gt;Node10 -->
<g id="edge17_Node000014_Node000010" class="edge">
<title>Node14&#45;&gt;Node10</title>
<g id="a_edge17_Node000014_Node000010"><a xlink:title=" ">
<path fill="none" stroke="#63b8ff" d="M341.08,-544.33C361.21,-540.62 382.94,-536.61 402.85,-532.94"/>
<polygon fill="#63b8ff" stroke="#63b8ff" points="403.57,-536.37 412.77,-531.11 402.3,-529.48 403.57,-536.37"/>
</a>
</g>
</g>
<!-- Node15 -->
<g id="Node000015" class="node">
<title>Node15</title>
<g id="a_Node000015"><a xlink:href="m__helper_8fpp_8f90.html#a2536e07e927595e5ba80bcfa1e348b35" target="_top" xlink:title="Computes the bubble number density n from the primitive variables.">
<polygon fill="white" stroke="#666666" points="535,-572.5 413,-572.5 413,-553.5 535,-553.5 535,-572.5"/>
<text text-anchor="middle" x="474" y="-560.5" font-family="Helvetica,sans-Serif" font-size="10.00">s_comp_n_from_prim</text>
</a>
</g>
</g>
<!-- Node14&#45;&gt;Node15 -->
<g id="edge16_Node000014_Node000015" class="edge">
<title>Node14&#45;&gt;Node15</title>
<g id="a_edge16_Node000014_Node000015"><a xlink:title=" ">
<path fill="none" stroke="#63b8ff" d="M341.08,-559.8C361.12,-560.28 382.75,-560.81 402.58,-561.29"/>
<polygon fill="#63b8ff" stroke="#63b8ff" points="402.68,-564.79 412.77,-561.54 402.85,-557.8 402.68,-564.79"/>
</a>
</g>
</g>
<!-- Node16&#45;&gt;Node8 -->
<g id="edge20_Node000016_Node000008" class="edge">
<title>Node16&#45;&gt;Node8</title>
<g id="a_edge20_Node000016_Node000008"><a xlink:title=" ">
<path fill="none" stroke="#63b8ff" d="M322.75,-283.64C345.79,-288.45 372.85,-294.1 397.62,-299.27"/>
<polygon fill="#63b8ff" stroke="#63b8ff" points="397.21,-302.75 407.71,-301.37 398.64,-295.9 397.21,-302.75"/>
</a>
</g>
</g>
<!-- Node16&#45;&gt;Node9 -->
<g id="edge21_Node000016_Node000009" class="edge">
<title>Node16&#45;&gt;Node9</title>
<g id="a_edge21_Node000016_Node000009"><a xlink:title=" ">
<path fill="none" stroke="#63b8ff" d="M322.75,-270.65C339.13,-270.25 357.56,-269.8 375.74,-269.36"/>
<polygon fill="#63b8ff" stroke="#63b8ff" points="375.9,-272.86 385.81,-269.12 375.73,-265.86 375.9,-272.86"/>
</a>
</g>
</g>
</g>
</svg>

<g id="navigator" transform="translate(0 0)" fill="#404254">
  <rect fill="#f2f5e9" fill-opacity="0.5" stroke="#606060" stroke-width=".5" x="0" y="0" width="60" height="60"/>
  <use id="zoomplus" xlink:href="#zoomPlus" x="17" y="9" onmousedown="handleZoom(evt,'in')"/>
  <use id="zoomminus" xlink:href="#zoomMin" x="42" y="9" onmousedown="handleZoom(evt,'out')"/>
  <use id="reset" xlink:href="#resetDef" x="30" y="36" onmousedown="handleReset()"/>
   <use id="arrowup" xlink:href="#arrowUp" x="0" y="0" onmousedown="handlePan(0,-1)"/>
  <use id="arrowright" xlink:href="#arrowRight" x="0" y="0" onmousedown="handlePan(1,0)"/>
  <use id="arrowdown" xlink:href="#arrowDown" x="0" y="0" onmousedown="handlePan(0,1)"/>
  <use id="arrowleft" xlink:href="#arrowLeft" x="0" y="0" onmousedown="handlePan(-1,0)"/>
</g>
<svg viewBox="0 0 15 15" width="100%" height="30px" preserveAspectRatio="xMaxYMin meet">
 <g id="arrow_out" transform="scale(0.3 0.3)">
  <a xlink:href="m__variables__conversion_8fpp_8f90_a347ac5f0eb3158bfb1edcad667b6025c_cgraph_org.svg" target="_base">
   <rect id="button" ry="5" rx="5" y="6" x="6" height="38" width="38"
        fill="#f2f5e9" fill-opacity="0.5" stroke="#606060" stroke-width="1.0"/>
   <path id="arrow"
     d="M 11.500037,31.436501 C 11.940474,20.09759 22.043105,11.32322 32.158766,21.979434 L 37.068811,17.246167 C 37.068811,17.246167 37.088388,32 37.088388,32 L 22.160133,31.978069 C 22.160133,31.978069 26.997745,27.140456 26.997745,27.140456 C 18.528582,18.264221 13.291696,25.230495 11.500037,31.436501 z"
     style="fill:#404040;"/>
  </a>
 </g>
</svg>

<style type='text/css'>
<![CDATA[
[data-mouse-over-selected='false'] { opacity: 0.7; }
[data-mouse-over-selected='true']  { opacity: 1.0; }
]]>
</style>
<script type="application/ecmascript"><![CDATA[
document.addEventListener('DOMContentLoaded', (event) => {
  highlightEdges();
  highlightAdjacentNodes();
});
]]></script>
</svg>
