<?xml version="1.0" encoding="UTF-8" standalone="no"?>
<!DOCTYPE svg PUBLIC "-//W3C//DTD SVG 1.1//EN"
 "http://www.w3.org/Graphics/SVG/1.1/DTD/svg11.dtd">
<!-- Generated by graphviz version 2.43.0 (0)
 -->
<!-- Title: s_apply_scalar_divergence_theorem Pages: 1 -->
<!--zoomable 199 -->

<svg id="main" version="1.1" xmlns="http://www.w3.org/2000/svg" xmlns:xlink="http://www.w3.org/1999/xlink" xml:space="preserve" onload="init(evt)">

<style type="text/css"><![CDATA[
.node, .edge {opacity: 0.7;}
.node.selected, .edge.selected {opacity: 1;}
.edge:hover path { stroke: red; }
.edge:hover polygon { stroke: red; fill: red; }
]]></style>

<defs>
  <circle id="rim" cx="0" cy="0" r="7"/>
  <circle id="rim2" cx="0" cy="0" r="3.5"/>
  <g id="zoomPlus">
    <use xlink:href="#rim" fill="#404040"><set attributeName="fill" to="#808080" begin="zoomplus.mouseover" end="zoomplus.mouseout"/></use>
    <path d="M-4,0h8M0,-4v8" fill="none" stroke="white" stroke-width="1.5" pointer-events="none"/>
  </g>
  <g id="zoomMin">
    <use xlink:href="#rim" fill="#404040"><set attributeName="fill" to="#808080" begin="zoomminus.mouseover" end="zoomminus.mouseout"/></use>
    <path d="M-4,0h8" fill="none" stroke="white" stroke-width="1.5" pointer-events="none"/>
  </g>
  <g id="arrowUp" transform="translate(30 24)">
    <use xlink:href="#rim"/>
    <path pointer-events="none" fill="none" stroke="white" stroke-width="1.5" d="M0,-3.0v7 M-2.5,-0.5L0,-3.0L2.5,-0.5"/>
  </g>
  <g id="arrowRight" transform="rotate(90) translate(36 -43)">
    <use xlink:href="#rim"/>
    <path pointer-events="none" fill="none" stroke="white" stroke-width="1.5" d="M0,-3.0v7 M-2.5,-0.5L0,-3.0L2.5,-0.5"/>
  </g>
  <g id="arrowDown" transform="rotate(180) translate(-30 -48)">
    <use xlink:href="#rim"/>
    <path pointer-events="none" fill="none" stroke="white" stroke-width="1.5" d="M0,-3.0v7 M-2.5,-0.5L0,-3.0L2.5,-0.5"/>
  </g>
  <g id="arrowLeft" transform="rotate(270) translate(-36 17)">
    <use xlink:href="#rim"/>
    <path pointer-events="none" fill="none" stroke="white" stroke-width="1.5" d="M0,-3.0v7 M-2.5,-0.5L0,-3.0L2.5,-0.5"/>
  </g>
  <g id="resetDef">
    <use xlink:href="#rim2" fill="#404040"><set attributeName="fill" to="#808080" begin="reset.mouseover" end="reset.mouseout"/></use>
  </g>
</defs>
<script type="application/ecmascript">
var viewWidth = 1001;
var viewHeight = 199;
var sectionId = 'dynsection-1';
</script>
<script type="application/ecmascript" xlink:href="svg.min.js"/>
<svg id="graph" class="graph">
<g id="viewport">
<title>s_apply_scalar_divergence_theorem</title>
<!-- Node1 -->
<g id="Node000001" class="node">
<title>Node1</title>
<g id="a_Node000001"><a xlink:title="The purpose of this subroutine is to employ the inputted left and right cell&#45;boundary integral&#45;averag...">
<polygon fill="#999999" stroke="#666666" points="993,-138.21 845,-138.21 845,-108.21 993,-108.21 993,-138.21"/>
<text text-anchor="start" x="853" y="-126.21" font-family="Helvetica,sans-Serif" font-size="10.00">s_apply_scalar_divergence</text>
<text text-anchor="middle" x="919" y="-115.21" font-family="Helvetica,sans-Serif" font-size="10.00">_theorem</text>
</a>
</g>
</g>
<!-- Node2 -->
<g id="Node000002" class="node">
<title>Node2</title>
<g id="a_Node000002"><a xlink:href="m__viscous_8fpp_8f90.html#a0f828f5ebe7c76e07c69a5d13ea74803" target="_top" xlink:title="Computes viscous terms.">
<polygon fill="white" stroke="#666666" points="809,-132.71 724,-132.71 724,-113.71 809,-113.71 809,-132.71"/>
<text text-anchor="middle" x="766.5" y="-120.71" font-family="Helvetica,sans-Serif" font-size="10.00">s_get_viscous</text>
</a>
</g>
</g>
<!-- Node1&#45;&gt;Node2 -->
<g id="edge1_Node000001_Node000002" class="edge">
<title>Node1&#45;&gt;Node2</title>
<g id="a_edge1_Node000001_Node000002"><a xlink:title=" ">
<path fill="none" stroke="#63b8ff" d="M834.89,-123.21C826,-123.21 817.27,-123.21 809.18,-123.21"/>
<polygon fill="#63b8ff" stroke="#63b8ff" points="834.95,-126.71 844.95,-123.21 834.95,-119.71 834.95,-126.71"/>
</a>
</g>
</g>
<!-- Node3 -->
<g id="Node000003" class="node">
<title>Node3</title>
<g id="a_Node000003"><a xlink:href="m__viscous_8fpp_8f90.html#a24875bab9826f15c6be48956a235472d" target="_top" xlink:title=" ">
<polygon fill="white" stroke="#666666" points="688,-151.71 557,-151.71 557,-132.71 688,-132.71 688,-151.71"/>
<text text-anchor="middle" x="622.5" y="-139.71" font-family="Helvetica,sans-Serif" font-size="10.00">__m_viscous_fpp_f90__</text>
</a>
</g>
</g>
<!-- Node2&#45;&gt;Node3 -->
<g id="edge2_Node000002_Node000003" class="edge">
<title>Node2&#45;&gt;Node3</title>
<g id="a_edge2_Node000002_Node000003"><a xlink:title=" ">
<path fill="none" stroke="#63b8ff" d="M713.49,-130.17C705.27,-131.27 696.68,-132.42 688.22,-133.55"/>
<polygon fill="#63b8ff" stroke="#63b8ff" points="714.22,-133.61 723.66,-128.81 713.29,-126.67 714.22,-133.61"/>
</a>
</g>
</g>
<!-- Node4 -->
<g id="Node000004" class="node">
<title>Node4</title>
<g id="a_Node000004"><a xlink:href="m__rhs_8fpp_8f90.html#a50aa5455db99885d7ced0100cf083459" target="_top" xlink:title=" ">
<polygon fill="white" stroke="#666666" points="667.5,-114.71 577.5,-114.71 577.5,-95.71 667.5,-95.71 667.5,-114.71"/>
<text text-anchor="middle" x="622.5" y="-102.71" font-family="Helvetica,sans-Serif" font-size="10.00">s_compute_rhs</text>
</a>
</g>
</g>
<!-- Node2&#45;&gt;Node4 -->
<g id="edge3_Node000002_Node000004" class="edge">
<title>Node2&#45;&gt;Node4</title>
<g id="a_edge3_Node000002_Node000004"><a xlink:title=" ">
<path fill="none" stroke="#63b8ff" d="M713.45,-116.62C698.37,-114.7 682.05,-112.63 667.51,-110.79"/>
<polygon fill="#63b8ff" stroke="#63b8ff" points="713.3,-120.12 723.66,-117.91 714.18,-113.18 713.3,-120.12"/>
</a>
</g>
</g>
<!-- Node5 -->
<g id="Node000005" class="node">
<title>Node5</title>
<g id="a_Node000005"><a xlink:href="m__rhs_8fpp_8f90.html#a87616394067f1273cd06c4d299d10add" target="_top" xlink:title=" ">
<polygon fill="white" stroke="#666666" points="515.5,-190.71 405.5,-190.71 405.5,-171.71 515.5,-171.71 515.5,-190.71"/>
<text text-anchor="middle" x="460.5" y="-178.71" font-family="Helvetica,sans-Serif" font-size="10.00">__m_rhs_fpp_f90__</text>
</a>
</g>
</g>
<!-- Node4&#45;&gt;Node5 -->
<g id="edge4_Node000004_Node000005" class="edge">
<title>Node4&#45;&gt;Node5</title>
<g id="a_edge4_Node000004_Node000005"><a xlink:title=" ">
<path fill="none" stroke="#63b8ff" d="M569.3,-118.31C565.03,-120.06 560.88,-122.02 557,-124.21 538.1,-134.89 539.36,-145.63 521,-157.21 511.86,-162.98 501.11,-167.82 491.27,-171.61"/>
<polygon fill="#63b8ff" stroke="#63b8ff" points="570.58,-121.57 578.74,-114.81 568.14,-115.01 570.58,-121.57"/>
</a>
</g>
</g>
<!-- Node6 -->
<g id="Node000006" class="node">
<title>Node6</title>
<g id="a_Node000006"><a xlink:href="m__time__steppers_8fpp_8f90.html#af409df8df1b374744d8c379e7e7dba0b" target="_top" xlink:title="1st order TVD RK time&#45;stepping algorithm">
<polygon fill="white" stroke="#666666" points="362.5,-152.71 253.5,-152.71 253.5,-133.71 362.5,-133.71 362.5,-152.71"/>
<text text-anchor="middle" x="308" y="-140.71" font-family="Helvetica,sans-Serif" font-size="10.00">s_1st_order_tvd_rk</text>
</a>
</g>
</g>
<!-- Node4&#45;&gt;Node6 -->
<g id="edge5_Node000004_Node000006" class="edge">
<title>Node4&#45;&gt;Node6</title>
<g id="a_edge5_Node000004_Node000006"><a xlink:title=" ">
<path fill="none" stroke="#63b8ff" d="M566.93,-113.07C552.04,-115.15 535.91,-117.33 521,-119.21 467.16,-126.01 405.52,-132.89 362.63,-137.53"/>
<polygon fill="#63b8ff" stroke="#63b8ff" points="567.59,-116.52 577.01,-111.66 566.62,-109.58 567.59,-116.52"/>
</a>
</g>
</g>
<!-- Node9 -->
<g id="Node000009" class="node">
<title>Node9</title>
<g id="a_Node000009"><a xlink:href="m__time__steppers_8fpp_8f90.html#a2847bfea6f3dc3fdae115a99009f7245" target="_top" xlink:title="2nd order TVD RK time&#45;stepping algorithm">
<polygon fill="white" stroke="#666666" points="364,-115.71 252,-115.71 252,-96.71 364,-96.71 364,-115.71"/>
<text text-anchor="middle" x="308" y="-103.71" font-family="Helvetica,sans-Serif" font-size="10.00">s_2nd_order_tvd_rk</text>
</a>
</g>
</g>
<!-- Node4&#45;&gt;Node9 -->
<g id="edge8_Node000004_Node000009" class="edge">
<title>Node4&#45;&gt;Node9</title>
<g id="a_edge8_Node000004_Node000009"><a xlink:title=" ">
<path fill="none" stroke="#63b8ff" d="M567.15,-105.39C510.27,-105.57 421.41,-105.85 364.21,-106.04"/>
<polygon fill="#63b8ff" stroke="#63b8ff" points="567.4,-108.89 577.39,-105.35 567.38,-101.89 567.4,-108.89"/>
</a>
</g>
</g>
<!-- Node10 -->
<g id="Node000010" class="node">
<title>Node10</title>
<g id="a_Node000010"><a xlink:href="m__time__steppers_8fpp_8f90.html#ad642c094881f0cffbb6158f9fa079a86" target="_top" xlink:title="3rd order TVD RK time&#45;stepping algorithm">
<polygon fill="white" stroke="#666666" points="515.5,-76.71 405.5,-76.71 405.5,-57.71 515.5,-57.71 515.5,-76.71"/>
<text text-anchor="middle" x="460.5" y="-64.71" font-family="Helvetica,sans-Serif" font-size="10.00">s_3rd_order_tvd_rk</text>
</a>
</g>
</g>
<!-- Node4&#45;&gt;Node10 -->
<g id="edge10_Node000004_Node000010" class="edge">
<title>Node4&#45;&gt;Node10</title>
<g id="a_edge10_Node000004_Node000010"><a xlink:title=" ">
<path fill="none" stroke="#63b8ff" d="M571.11,-93.24C548.69,-87.92 522.65,-81.74 501.58,-76.73"/>
<polygon fill="#63b8ff" stroke="#63b8ff" points="570.59,-96.72 581.13,-95.62 572.2,-89.91 570.59,-96.72"/>
</a>
</g>
</g>
<!-- Node12 -->
<g id="Node000012" class="node">
<title>Node12</title>
<g id="a_Node000012"><a xlink:href="m__time__steppers_8fpp_8f90.html#aca171c932551af4579eecbfc6b9a8c6a" target="_top" xlink:title="(Adaptive) 4th/5th order Runge—Kutta–Cash–Karp (RKCK) time&#45;stepping algorithm (Cash J....">
<polygon fill="white" stroke="#666666" points="521,-20.71 400,-20.71 400,-1.71 521,-1.71 521,-20.71"/>
<text text-anchor="middle" x="460.5" y="-8.71" font-family="Helvetica,sans-Serif" font-size="10.00">s_4th_5th_order_rkck</text>
</a>
</g>
</g>
<!-- Node4&#45;&gt;Node12 -->
<g id="edge14_Node000004_Node000012" class="edge">
<title>Node4&#45;&gt;Node12</title>
<g id="a_edge14_Node000004_Node000012"><a xlink:title=" ">
<path fill="none" stroke="#63b8ff" d="M596.63,-90.6C563.5,-71.14 505.83,-37.25 477.77,-20.77"/>
<polygon fill="#63b8ff" stroke="#63b8ff" points="594.88,-93.63 605.28,-95.68 598.43,-87.6 594.88,-93.63"/>
</a>
</g>
</g>
<!-- Node7 -->
<g id="Node000007" class="node">
<title>Node7</title>
<g id="a_Node000007"><a xlink:href="namespacem__start__up.html#aaaeff91a52af5b8f17ed9efed8ac17bd" target="_top" xlink:title=" ">
<polygon fill="white" stroke="#666666" points="216,-83.21 89,-83.21 89,-53.21 216,-53.21 216,-83.21"/>
<text text-anchor="start" x="97" y="-71.21" font-family="Helvetica,sans-Serif" font-size="10.00">m_start_up::s_perform</text>
<text text-anchor="middle" x="152.5" y="-60.21" font-family="Helvetica,sans-Serif" font-size="10.00">_time_step</text>
</a>
</g>
</g>
<!-- Node6&#45;&gt;Node7 -->
<g id="edge6_Node000006_Node000007" class="edge">
<title>Node6&#45;&gt;Node7</title>
<g id="a_edge6_Node000006_Node000007"><a xlink:title=" ">
<path fill="none" stroke="#63b8ff" d="M264.25,-130.2C260.07,-128.64 255.92,-126.97 252,-125.21 224.94,-113.12 195.78,-95.63 176.26,-83.22"/>
<polygon fill="#63b8ff" stroke="#63b8ff" points="263.41,-133.61 274,-133.65 265.74,-127.02 263.41,-133.61"/>
</a>
</g>
</g>
<!-- Node8 -->
<g id="Node000008" class="node">
<title>Node8</title>
<g id="a_Node000008"><a xlink:href="p__main_8fpp_8f90.html#aeec10ee8e2940c953967da3e374e1579" target="_top" xlink:title="Quasi&#45;conservative, shock&#45; and interface&#45; capturing finite&#45;volume scheme for the multicomponent Navie...">
<polygon fill="white" stroke="#666666" points="53,-77.71 0,-77.71 0,-58.71 53,-58.71 53,-77.71"/>
<text text-anchor="middle" x="26.5" y="-65.71" font-family="Helvetica,sans-Serif" font-size="10.00">p_main</text>
</a>
</g>
</g>
<!-- Node7&#45;&gt;Node8 -->
<g id="edge7_Node000007_Node000008" class="edge">
<title>Node7&#45;&gt;Node8</title>
<g id="a_edge7_Node000007_Node000008"><a xlink:title=" ">
<path fill="none" stroke="#63b8ff" d="M78.77,-68.21C69.63,-68.21 60.81,-68.21 53.14,-68.21"/>
<polygon fill="#63b8ff" stroke="#63b8ff" points="78.77,-71.71 88.77,-68.21 78.77,-64.71 78.77,-71.71"/>
</a>
</g>
</g>
<!-- Node9&#45;&gt;Node7 -->
<g id="edge9_Node000009_Node000007" class="edge">
<title>Node9&#45;&gt;Node7</title>
<g id="a_edge9_Node000009_Node000007"><a xlink:title=" ">
<path fill="none" stroke="#63b8ff" d="M258.37,-94.17C244.39,-90.71 228.96,-86.89 214.33,-83.27"/>
<polygon fill="#63b8ff" stroke="#63b8ff" points="257.72,-97.62 268.27,-96.62 259.4,-90.82 257.72,-97.62"/>
</a>
</g>
</g>
<!-- Node10&#45;&gt;Node7 -->
<g id="edge11_Node000010_Node000007" class="edge">
<title>Node10&#45;&gt;Node7</title>
<g id="a_edge11_Node000010_Node000007"><a xlink:title=" ">
<path fill="none" stroke="#63b8ff" d="M395.26,-67.42C342.58,-67.59 268.45,-67.84 216.2,-68.01"/>
<polygon fill="#63b8ff" stroke="#63b8ff" points="395.51,-70.92 405.5,-67.39 395.49,-63.92 395.51,-70.92"/>
</a>
</g>
</g>
<!-- Node11 -->
<g id="Node000011" class="node">
<title>Node11</title>
<g id="a_Node000011"><a xlink:href="m__time__steppers_8fpp_8f90.html#a5858523edfce42df32b2b0a8af54bc0e" target="_top" xlink:title="Strang splitting scheme with 3rd order TVD RK time&#45;stepping algorithm for the flux term and adaptive ...">
<polygon fill="white" stroke="#666666" points="359.5,-39.71 256.5,-39.71 256.5,-20.71 359.5,-20.71 359.5,-39.71"/>
<text text-anchor="middle" x="308" y="-27.71" font-family="Helvetica,sans-Serif" font-size="10.00">s_strang_splitting</text>
</a>
</g>
</g>
<!-- Node10&#45;&gt;Node11 -->
<g id="edge12_Node000010_Node000011" class="edge">
<title>Node10&#45;&gt;Node11</title>
<g id="a_edge12_Node000010_Node000011"><a xlink:title=" ">
<path fill="none" stroke="#63b8ff" d="M410.99,-55.29C390.58,-50.27 367.14,-44.51 347.89,-39.77"/>
<polygon fill="#63b8ff" stroke="#63b8ff" points="410.2,-58.7 420.74,-57.68 411.87,-51.9 410.2,-58.7"/>
</a>
</g>
</g>
<!-- Node11&#45;&gt;Node7 -->
<g id="edge13_Node000011_Node000007" class="edge">
<title>Node11&#45;&gt;Node7</title>
<g id="a_edge13_Node000011_Node000007"><a xlink:title=" ">
<path fill="none" stroke="#63b8ff" d="M258.37,-42.25C244.39,-45.71 228.96,-49.53 214.33,-53.15"/>
<polygon fill="#63b8ff" stroke="#63b8ff" points="259.4,-45.6 268.27,-39.8 257.72,-38.81 259.4,-45.6"/>
</a>
</g>
</g>
<!-- Node12&#45;&gt;Node7 -->
<g id="edge15_Node000012_Node000007" class="edge">
<title>Node12&#45;&gt;Node7</title>
<g id="a_edge15_Node000012_Node000007"><a xlink:title=" ">
<path fill="none" stroke="#63b8ff" d="M389.72,-2.29C348.9,0.74 296.74,0.8 252,-11.21 221.85,-19.31 191.4,-39.12 172.5,-53.11"/>
<polygon fill="#63b8ff" stroke="#63b8ff" points="389.6,-5.79 399.85,-3.12 390.17,1.19 389.6,-5.79"/>
</a>
</g>
</g>
</g>
</svg>

<g id="navigator" transform="translate(0 0)" fill="#404254">
  <rect fill="#f2f5e9" fill-opacity="0.5" stroke="#606060" stroke-width=".5" x="0" y="0" width="60" height="60"/>
  <use id="zoomplus" xlink:href="#zoomPlus" x="17" y="9" onmousedown="handleZoom(evt,'in')"/>
  <use id="zoomminus" xlink:href="#zoomMin" x="42" y="9" onmousedown="handleZoom(evt,'out')"/>
  <use id="reset" xlink:href="#resetDef" x="30" y="36" onmousedown="handleReset()"/>
   <use id="arrowup" xlink:href="#arrowUp" x="0" y="0" onmousedown="handlePan(0,-1)"/>
  <use id="arrowright" xlink:href="#arrowRight" x="0" y="0" onmousedown="handlePan(1,0)"/>
  <use id="arrowdown" xlink:href="#arrowDown" x="0" y="0" onmousedown="handlePan(0,1)"/>
  <use id="arrowleft" xlink:href="#arrowLeft" x="0" y="0" onmousedown="handlePan(-1,0)"/>
</g>
<svg viewBox="0 0 15 15" width="100%" height="30px" preserveAspectRatio="xMaxYMin meet">
 <g id="arrow_out" transform="scale(0.3 0.3)">
  <a xlink:href="m__viscous_8fpp_8f90_ae2966546d42fee2a396845dfbe295bbc_icgraph_org.svg" target="_base">
   <rect id="button" ry="5" rx="5" y="6" x="6" height="38" width="38"
        fill="#f2f5e9" fill-opacity="0.5" stroke="#606060" stroke-width="1.0"/>
   <path id="arrow"
     d="M 11.500037,31.436501 C 11.940474,20.09759 22.043105,11.32322 32.158766,21.979434 L 37.068811,17.246167 C 37.068811,17.246167 37.088388,32 37.088388,32 L 22.160133,31.978069 C 22.160133,31.978069 26.997745,27.140456 26.997745,27.140456 C 18.528582,18.264221 13.291696,25.230495 11.500037,31.436501 z"
     style="fill:#404040;"/>
  </a>
 </g>
</svg>

<style type='text/css'>
<![CDATA[
[data-mouse-over-selected='false'] { opacity: 0.7; }
[data-mouse-over-selected='true']  { opacity: 1.0; }
]]>
</style>
<script type="application/ecmascript"><![CDATA[
document.addEventListener('DOMContentLoaded', (event) => {
  highlightEdges();
  highlightAdjacentNodes();
});
]]></script>
</svg>
