<?xml version="1.0" encoding="UTF-8" standalone="no"?>
<!DOCTYPE svg PUBLIC "-//W3C//DTD SVG 1.1//EN"
 "http://www.w3.org/Graphics/SVG/1.1/DTD/svg11.dtd">
<!-- Generated by graphviz version 2.43.0 (0)
 -->
<!-- Title: s_compute_speed_of_sound Pages: 1 -->
<!--zoomable 354 -->

<svg id="main" version="1.1" xmlns="http://www.w3.org/2000/svg" xmlns:xlink="http://www.w3.org/1999/xlink" xml:space="preserve" onload="init(evt)">

<style type="text/css"><![CDATA[
.node, .edge {opacity: 0.7;}
.node.selected, .edge.selected {opacity: 1;}
.edge:hover path { stroke: red; }
.edge:hover polygon { stroke: red; fill: red; }
]]></style>

<defs>
  <circle id="rim" cx="0" cy="0" r="7"/>
  <circle id="rim2" cx="0" cy="0" r="3.5"/>
  <g id="zoomPlus">
    <use xlink:href="#rim" fill="#404040"><set attributeName="fill" to="#808080" begin="zoomplus.mouseover" end="zoomplus.mouseout"/></use>
    <path d="M-4,0h8M0,-4v8" fill="none" stroke="white" stroke-width="1.5" pointer-events="none"/>
  </g>
  <g id="zoomMin">
    <use xlink:href="#rim" fill="#404040"><set attributeName="fill" to="#808080" begin="zoomminus.mouseover" end="zoomminus.mouseout"/></use>
    <path d="M-4,0h8" fill="none" stroke="white" stroke-width="1.5" pointer-events="none"/>
  </g>
  <g id="arrowUp" transform="translate(30 24)">
    <use xlink:href="#rim"/>
    <path pointer-events="none" fill="none" stroke="white" stroke-width="1.5" d="M0,-3.0v7 M-2.5,-0.5L0,-3.0L2.5,-0.5"/>
  </g>
  <g id="arrowRight" transform="rotate(90) translate(36 -43)">
    <use xlink:href="#rim"/>
    <path pointer-events="none" fill="none" stroke="white" stroke-width="1.5" d="M0,-3.0v7 M-2.5,-0.5L0,-3.0L2.5,-0.5"/>
  </g>
  <g id="arrowDown" transform="rotate(180) translate(-30 -48)">
    <use xlink:href="#rim"/>
    <path pointer-events="none" fill="none" stroke="white" stroke-width="1.5" d="M0,-3.0v7 M-2.5,-0.5L0,-3.0L2.5,-0.5"/>
  </g>
  <g id="arrowLeft" transform="rotate(270) translate(-36 17)">
    <use xlink:href="#rim"/>
    <path pointer-events="none" fill="none" stroke="white" stroke-width="1.5" d="M0,-3.0v7 M-2.5,-0.5L0,-3.0L2.5,-0.5"/>
  </g>
  <g id="resetDef">
    <use xlink:href="#rim2" fill="#404040"><set attributeName="fill" to="#808080" begin="reset.mouseover" end="reset.mouseout"/></use>
  </g>
</defs>
<script type="application/ecmascript">
var viewWidth = 1306;
var viewHeight = 354;
var sectionId = 'dynsection-4';
</script>
<script type="application/ecmascript" xlink:href="svg.min.js"/>
<svg id="graph" class="graph">
<g id="viewport">
<title>s_compute_speed_of_sound</title>
<!-- Node1 -->
<g id="Node000001" class="node">
<title>Node1</title>
<g id="a_Node000001"><a xlink:title=" ">
<polygon fill="#999999" stroke="#666666" points="1298,-169.5 1179,-169.5 1179,-139.5 1298,-139.5 1298,-169.5"/>
<text text-anchor="start" x="1187" y="-157.5" font-family="Helvetica,sans-Serif" font-size="10.00">s_compute_speed_of</text>
<text text-anchor="middle" x="1238.5" y="-146.5" font-family="Helvetica,sans-Serif" font-size="10.00">_sound</text>
</a>
</g>
</g>
<!-- Node2 -->
<g id="Node000002" class="node">
<title>Node2</title>
<g id="a_Node000002"><a xlink:href="m__variables__conversion_8fpp_8f90.html#a347ac5f0eb3158bfb1edcad667b6025c" target="_top" xlink:title=" ">
<polygon fill="white" stroke="#666666" points="1143,-325.5 997,-325.5 997,-295.5 1143,-295.5 1143,-325.5"/>
<text text-anchor="start" x="1005" y="-313.5" font-family="Helvetica,sans-Serif" font-size="10.00">__m_variables_conversion</text>
<text text-anchor="middle" x="1070" y="-302.5" font-family="Helvetica,sans-Serif" font-size="10.00">_fpp_f90__</text>
</a>
</g>
</g>
<!-- Node1&#45;&gt;Node2 -->
<g id="edge1_Node000001_Node000002" class="edge">
<title>Node1&#45;&gt;Node2</title>
<g id="a_edge1_Node000001_Node000002"><a xlink:title=" ">
<path fill="none" stroke="#63b8ff" d="M1226.15,-178.72C1211.12,-208.26 1181.92,-257.79 1143,-286.5 1138.33,-289.94 1133.15,-292.91 1127.75,-295.46"/>
<polygon fill="#63b8ff" stroke="#63b8ff" points="1229.4,-180.04 1230.69,-169.53 1223.12,-176.94 1229.4,-180.04"/>
</a>
</g>
</g>
<!-- Node3 -->
<g id="Node000003" class="node">
<title>Node3</title>
<g id="a_Node000003"><a xlink:href="m__cbc_8fpp_8f90.html#a9771aa6ccf00c0970db70784acd622b5" target="_top" xlink:title="The following is the implementation of the CBC based on the work of Thompson (1987,...">
<polygon fill="white" stroke="#666666" points="1092,-277 1048,-277 1048,-258 1092,-258 1092,-277"/>
<text text-anchor="middle" x="1070" y="-265" font-family="Helvetica,sans-Serif" font-size="10.00">s_cbc</text>
</a>
</g>
</g>
<!-- Node1&#45;&gt;Node3 -->
<g id="edge2_Node000001_Node000003" class="edge">
<title>Node1&#45;&gt;Node3</title>
<g id="a_edge2_Node000001_Node000003"><a xlink:title=" ">
<path fill="none" stroke="#63b8ff" d="M1213.22,-176.31C1194.72,-192.35 1168.22,-214.12 1143,-230.5 1126.62,-241.14 1106.8,-251.13 1092.1,-258.05"/>
<polygon fill="#63b8ff" stroke="#63b8ff" points="1215.66,-178.83 1220.88,-169.6 1211.05,-173.56 1215.66,-178.83"/>
</a>
</g>
</g>
<!-- Node15 -->
<g id="Node000015" class="node">
<title>Node15</title>
<g id="a_Node000015"><a xlink:href="m__time__steppers_8fpp_8f90.html#a7ad85772dc3154399535f2f164c2ce2b" target="_top" xlink:title=" ">
<polygon fill="white" stroke="#666666" points="428,-19 343,-19 343,0 428,0 428,-19"/>
<text text-anchor="middle" x="385.5" y="-7" font-family="Helvetica,sans-Serif" font-size="10.00">s_compute_dt</text>
</a>
</g>
</g>
<!-- Node1&#45;&gt;Node15 -->
<g id="edge17_Node000001_Node000015" class="edge">
<title>Node1&#45;&gt;Node15</title>
<g id="a_edge17_Node000001_Node000015"><a xlink:title=" ">
<path fill="none" stroke="#63b8ff" d="M1218.89,-131.54C1201.41,-111.54 1173.43,-83.33 1143,-67.5 1045.13,-16.59 1010.82,-14.5 900.5,-14.5 900.5,-14.5 900.5,-14.5 719.5,-14.5 614.56,-14.5 491.04,-11.99 428.03,-10.52"/>
<polygon fill="#63b8ff" stroke="#63b8ff" points="1216.35,-133.96 1225.5,-139.29 1221.67,-129.41 1216.35,-133.96"/>
</a>
</g>
</g>
<!-- Node16 -->
<g id="Node000016" class="node">
<title>Node16</title>
<g id="a_Node000016"><a xlink:href="m__riemann__solvers_8fpp_8f90.html#a7201ee610e9eb4d4777e257035d04705" target="_top" xlink:title=" ">
<polygon fill="white" stroke="#666666" points="1130,-146 1010,-146 1010,-127 1130,-127 1130,-146"/>
<text text-anchor="middle" x="1070" y="-134" font-family="Helvetica,sans-Serif" font-size="10.00">s_hll_riemann_solver</text>
</a>
</g>
</g>
<!-- Node1&#45;&gt;Node16 -->
<g id="edge19_Node000001_Node000016" class="edge">
<title>Node1&#45;&gt;Node16</title>
<g id="a_edge19_Node000001_Node000016"><a xlink:title=" ">
<path fill="none" stroke="#63b8ff" d="M1168.64,-147.06C1155.81,-145.67 1142.51,-144.23 1130.01,-142.88"/>
<polygon fill="#63b8ff" stroke="#63b8ff" points="1168.48,-150.56 1178.8,-148.15 1169.23,-143.6 1168.48,-150.56"/>
</a>
</g>
</g>
<!-- Node19 -->
<g id="Node000019" class="node">
<title>Node19</title>
<g id="a_Node000019"><a xlink:href="m__riemann__solvers_8fpp_8f90.html#a93cfb6ebfb98fccd81cd589ce122b7fd" target="_top" xlink:title="This procedure is the implementation of the Harten, Lax, van Leer, and contact (HLLC) approximate Rie...">
<polygon fill="white" stroke="#666666" points="1132.5,-183 1007.5,-183 1007.5,-164 1132.5,-164 1132.5,-183"/>
<text text-anchor="middle" x="1070" y="-171" font-family="Helvetica,sans-Serif" font-size="10.00">s_hllc_riemann_solver</text>
</a>
</g>
</g>
<!-- Node1&#45;&gt;Node19 -->
<g id="edge24_Node000001_Node000019" class="edge">
<title>Node1&#45;&gt;Node19</title>
<g id="a_edge24_Node000001_Node000019"><a xlink:title=" ">
<path fill="none" stroke="#63b8ff" d="M1168.82,-162.34C1156.8,-163.71 1144.37,-165.13 1132.55,-166.48"/>
<polygon fill="#63b8ff" stroke="#63b8ff" points="1169.26,-165.81 1178.8,-161.2 1168.47,-158.86 1169.26,-165.81"/>
</a>
</g>
</g>
<!-- Node20 -->
<g id="Node000020" class="node">
<title>Node20</title>
<g id="a_Node000020"><a xlink:href="m__riemann__solvers_8fpp_8f90.html#a38575cab36f643a51b9895b2fd18e4a0" target="_top" xlink:title="HLLD Riemann solver resolves 5 of the 7 waves of MHD equations: 1 entropy wave, 2 Alfvén waves,...">
<polygon fill="white" stroke="#666666" points="1133,-221 1007,-221 1007,-202 1133,-202 1133,-221"/>
<text text-anchor="middle" x="1070" y="-209" font-family="Helvetica,sans-Serif" font-size="10.00">s_hlld_riemann_solver</text>
</a>
</g>
</g>
<!-- Node1&#45;&gt;Node20 -->
<g id="edge27_Node000001_Node000020" class="edge">
<title>Node1&#45;&gt;Node20</title>
<g id="a_edge27_Node000001_Node000020"><a xlink:title=" ">
<path fill="none" stroke="#63b8ff" d="M1192.13,-173.35C1176.67,-179.48 1159.19,-186.1 1143,-191.5 1131.8,-195.24 1119.47,-198.84 1108.22,-201.94"/>
<polygon fill="#63b8ff" stroke="#63b8ff" points="1193.49,-176.58 1201.47,-169.61 1190.88,-170.08 1193.49,-176.58"/>
</a>
</g>
</g>
<!-- Node21 -->
<g id="Node000021" class="node">
<title>Node21</title>
<g id="a_Node000021"><a xlink:href="m__data__output_8fpp_8f90.html#a0eb579b4fb6abd1205444045aff3e448" target="_top" xlink:title="This writes a formatted data file for the flow probe information.">
<polygon fill="white" stroke="#666666" points="775.5,-69 665.5,-69 665.5,-50 775.5,-50 775.5,-69"/>
<text text-anchor="middle" x="720.5" y="-57" font-family="Helvetica,sans-Serif" font-size="10.00">s_write_probe_files</text>
</a>
</g>
</g>
<!-- Node1&#45;&gt;Node21 -->
<g id="edge30_Node000001_Node000021" class="edge">
<title>Node1&#45;&gt;Node21</title>
<g id="a_edge30_Node000001_Node000021"><a xlink:title=" ">
<path fill="none" stroke="#63b8ff" d="M1207.72,-133.58C1189.81,-122.11 1166.07,-108.77 1143,-101.5 1015.87,-61.45 857.47,-57.06 775.81,-57.91"/>
<polygon fill="#63b8ff" stroke="#63b8ff" points="1206.24,-136.8 1216.52,-139.37 1210.09,-130.95 1206.24,-136.8"/>
</a>
</g>
</g>
<!-- Node24 -->
<g id="Node000024" class="node">
<title>Node24</title>
<g id="a_Node000024"><a xlink:href="m__data__output_8fpp_8f90.html#a4f3dafb38455425825590217313d8ee3" target="_top" xlink:title="The goal of the procedure is to output to the run&#45;time information file the stability criteria extrem...">
<polygon fill="white" stroke="#666666" points="802,-141 639,-141 639,-122 802,-122 802,-141"/>
<text text-anchor="middle" x="720.5" y="-129" font-family="Helvetica,sans-Serif" font-size="10.00">s_write_run_time_information</text>
</a>
</g>
</g>
<!-- Node1&#45;&gt;Node24 -->
<g id="edge34_Node000001_Node000024" class="edge">
<title>Node1&#45;&gt;Node24</title>
<g id="a_edge34_Node000001_Node000024"><a xlink:title=" ">
<path fill="none" stroke="#63b8ff" d="M1197.94,-135.21C1181.38,-128.15 1161.67,-121.02 1143,-117.5 1013.86,-93.12 858.59,-109.81 777.33,-121.97"/>
<polygon fill="#63b8ff" stroke="#63b8ff" points="1196.73,-138.5 1207.29,-139.33 1199.55,-132.09 1196.73,-138.5"/>
</a>
</g>
</g>
<!-- Node4 -->
<g id="Node000004" class="node">
<title>Node4</title>
<g id="a_Node000004"><a xlink:href="m__cbc_8fpp_8f90.html#a8aaac759a23fea3b31210aa89c940745" target="_top" xlink:title="The module features a large database of characteristic boundary conditions (CBC) for the Euler system...">
<polygon fill="white" stroke="#666666" points="955,-297 844,-297 844,-278 955,-278 955,-297"/>
<text text-anchor="middle" x="899.5" y="-285" font-family="Helvetica,sans-Serif" font-size="10.00">__m_cbc_fpp_f90__</text>
</a>
</g>
</g>
<!-- Node3&#45;&gt;Node4 -->
<g id="edge3_Node000003_Node000004" class="edge">
<title>Node3&#45;&gt;Node4</title>
<g id="a_edge3_Node000003_Node000004"><a xlink:title=" ">
<path fill="none" stroke="#63b8ff" d="M1037.72,-271.21C1014.62,-273.95 982.57,-277.76 955.26,-281"/>
<polygon fill="#63b8ff" stroke="#63b8ff" points="1038.14,-274.69 1047.66,-270.03 1037.32,-267.74 1038.14,-274.69"/>
</a>
</g>
</g>
<!-- Node5 -->
<g id="Node000005" class="node">
<title>Node5</title>
<g id="a_Node000005"><a xlink:href="m__rhs_8fpp_8f90.html#a376bc3b64f78384ac773235ee7fbdd98" target="_top" xlink:title=" ">
<polygon fill="white" stroke="#666666" points="961,-345.5 838,-345.5 838,-315.5 961,-315.5 961,-345.5"/>
<text text-anchor="start" x="846" y="-333.5" font-family="Helvetica,sans-Serif" font-size="10.00">s_compute_advection</text>
<text text-anchor="middle" x="899.5" y="-322.5" font-family="Helvetica,sans-Serif" font-size="10.00">_source_term</text>
</a>
</g>
</g>
<!-- Node3&#45;&gt;Node5 -->
<g id="edge4_Node000003_Node000005" class="edge">
<title>Node3&#45;&gt;Node5</title>
<g id="a_edge4_Node000003_Node000005"><a xlink:title=" ">
<path fill="none" stroke="#63b8ff" d="M1037.94,-273.91C1025.04,-277.02 1010.06,-281.25 997,-286.5 980.02,-293.33 977.54,-298.66 961,-306.5 954.46,-309.6 947.42,-312.64 940.52,-315.47"/>
<polygon fill="#63b8ff" stroke="#63b8ff" points="1038.8,-277.3 1047.76,-271.64 1037.23,-270.48 1038.8,-277.3"/>
</a>
</g>
</g>
<!-- Node6 -->
<g id="Node000006" class="node">
<title>Node6</title>
<g id="a_Node000006"><a xlink:href="m__rhs_8fpp_8f90.html#a7bace127dc6fc78b5a53a7e8e7c58f17" target="_top" xlink:title=" ">
<polygon fill="white" stroke="#666666" points="765.5,-227 675.5,-227 675.5,-208 765.5,-208 765.5,-227"/>
<text text-anchor="middle" x="720.5" y="-215" font-family="Helvetica,sans-Serif" font-size="10.00">s_compute_rhs</text>
</a>
</g>
</g>
<!-- Node5&#45;&gt;Node6 -->
<g id="edge5_Node000005_Node000006" class="edge">
<title>Node5&#45;&gt;Node6</title>
<g id="a_edge5_Node000005_Node000006"><a xlink:title=" ">
<path fill="none" stroke="#63b8ff" d="M846.88,-311.16C843.83,-309.67 840.85,-308.11 838,-306.5 795.69,-282.56 751.66,-244.8 732.04,-227.17"/>
<polygon fill="#63b8ff" stroke="#63b8ff" points="845.6,-314.42 856.15,-315.43 848.53,-308.07 845.6,-314.42"/>
</a>
</g>
</g>
<!-- Node7 -->
<g id="Node000007" class="node">
<title>Node7</title>
<g id="a_Node000007"><a xlink:href="m__rhs_8fpp_8f90.html#a87616394067f1273cd06c4d299d10add" target="_top" xlink:title=" ">
<polygon fill="white" stroke="#666666" points="597,-264 487,-264 487,-245 597,-245 597,-264"/>
<text text-anchor="middle" x="542" y="-252" font-family="Helvetica,sans-Serif" font-size="10.00">__m_rhs_fpp_f90__</text>
</a>
</g>
</g>
<!-- Node6&#45;&gt;Node7 -->
<g id="edge6_Node000006_Node000007" class="edge">
<title>Node6&#45;&gt;Node7</title>
<g id="a_edge6_Node000006_Node000007"><a xlink:title=" ">
<path fill="none" stroke="#63b8ff" d="M665.48,-228.82C640.8,-234 611.9,-240.06 588.36,-244.99"/>
<polygon fill="#63b8ff" stroke="#63b8ff" points="666.35,-232.22 675.42,-226.74 664.91,-225.37 666.35,-232.22"/>
</a>
</g>
</g>
<!-- Node8 -->
<g id="Node000008" class="node">
<title>Node8</title>
<g id="a_Node000008"><a xlink:href="m__time__steppers_8fpp_8f90.html#a95dcf858eaba9951c12d4590ec467f62" target="_top" xlink:title="1st order TVD RK time&#45;stepping algorithm">
<polygon fill="white" stroke="#666666" points="596.5,-227 487.5,-227 487.5,-208 596.5,-208 596.5,-227"/>
<text text-anchor="middle" x="542" y="-215" font-family="Helvetica,sans-Serif" font-size="10.00">s_1st_order_tvd_rk</text>
</a>
</g>
</g>
<!-- Node6&#45;&gt;Node8 -->
<g id="edge7_Node000006_Node000008" class="edge">
<title>Node6&#45;&gt;Node8</title>
<g id="a_edge7_Node000006_Node000008"><a xlink:title=" ">
<path fill="none" stroke="#63b8ff" d="M665.32,-217.5C643.48,-217.5 618.36,-217.5 596.59,-217.5"/>
<polygon fill="#63b8ff" stroke="#63b8ff" points="665.42,-221 675.42,-217.5 665.42,-214 665.42,-221"/>
</a>
</g>
</g>
<!-- Node12 -->
<g id="Node000012" class="node">
<title>Node12</title>
<g id="a_Node000012"><a xlink:href="m__time__steppers_8fpp_8f90.html#a30504937d9153ef9e5d9990a8894e89a" target="_top" xlink:title="2nd order TVD RK time&#45;stepping algorithm">
<polygon fill="white" stroke="#666666" points="598,-190 486,-190 486,-171 598,-171 598,-190"/>
<text text-anchor="middle" x="542" y="-178" font-family="Helvetica,sans-Serif" font-size="10.00">s_2nd_order_tvd_rk</text>
</a>
</g>
</g>
<!-- Node6&#45;&gt;Node12 -->
<g id="edge11_Node000006_Node000012" class="edge">
<title>Node6&#45;&gt;Node12</title>
<g id="a_edge11_Node000006_Node000012"><a xlink:title=" ">
<path fill="none" stroke="#63b8ff" d="M665.48,-206.18C640.8,-201 611.9,-194.94 588.36,-190.01"/>
<polygon fill="#63b8ff" stroke="#63b8ff" points="664.91,-209.63 675.42,-208.26 666.35,-202.78 664.91,-209.63"/>
</a>
</g>
</g>
<!-- Node13 -->
<g id="Node000013" class="node">
<title>Node13</title>
<g id="a_Node000013"><a xlink:href="m__time__steppers_8fpp_8f90.html#aa54ad1694d32cfe180d81112527699e4" target="_top" xlink:title="3rd order TVD RK time&#45;stepping algorithm">
<polygon fill="white" stroke="#666666" points="597,-153 487,-153 487,-134 597,-134 597,-153"/>
<text text-anchor="middle" x="542" y="-141" font-family="Helvetica,sans-Serif" font-size="10.00">s_3rd_order_tvd_rk</text>
</a>
</g>
</g>
<!-- Node6&#45;&gt;Node13 -->
<g id="edge13_Node000006_Node000013" class="edge">
<title>Node6&#45;&gt;Node13</title>
<g id="a_edge13_Node000006_Node000013"><a xlink:title=" ">
<path fill="none" stroke="#63b8ff" d="M665.34,-209.19C656.2,-206.55 647.07,-203.07 639,-198.5 619.04,-187.19 622.62,-173.4 603,-161.5 597.42,-158.12 591.16,-155.33 584.85,-153.05"/>
<polygon fill="#63b8ff" stroke="#63b8ff" points="664.64,-212.63 675.2,-211.74 666.4,-205.85 664.64,-212.63"/>
</a>
</g>
</g>
<!-- Node9 -->
<g id="Node000009" class="node">
<title>Node9</title>
<g id="a_Node000009"><a xlink:href="m__start__up_8fpp_8f90.html#a1f6993aab1d2776640192c044a461640" target="_top" xlink:title=" ">
<polygon fill="white" stroke="#666666" points="290,-134 170,-134 170,-115 290,-115 290,-134"/>
<text text-anchor="middle" x="230" y="-122" font-family="Helvetica,sans-Serif" font-size="10.00">s_perform_time_step</text>
</a>
</g>
</g>
<!-- Node8&#45;&gt;Node9 -->
<g id="edge8_Node000008_Node000009" class="edge">
<title>Node8&#45;&gt;Node9</title>
<g id="a_edge8_Node000008_Node000009"><a xlink:title=" ">
<path fill="none" stroke="#63b8ff" d="M477.23,-208.64C433.82,-201.53 375.48,-189.84 326,-172.5 296.88,-162.29 265.32,-144.98 246.9,-134.17"/>
<polygon fill="#63b8ff" stroke="#63b8ff" points="476.95,-212.14 487.38,-210.27 478.05,-205.23 476.95,-212.14"/>
</a>
</g>
</g>
<!-- Node10 -->
<g id="Node000010" class="node">
<title>Node10</title>
<g id="a_Node000010"><a xlink:href="m__start__up_8fpp_8f90.html#ac09c216e540601049a819ae5b76091b5" target="_top" xlink:title=" ">
<polygon fill="white" stroke="#666666" points="134,-153 0,-153 0,-134 134,-134 134,-153"/>
<text text-anchor="middle" x="67" y="-141" font-family="Helvetica,sans-Serif" font-size="10.00">__m_start_up_fpp_f90__</text>
</a>
</g>
</g>
<!-- Node9&#45;&gt;Node10 -->
<g id="edge9_Node000009_Node000010" class="edge">
<title>Node9&#45;&gt;Node10</title>
<g id="a_edge9_Node000009_Node000010"><a xlink:title=" ">
<path fill="none" stroke="#63b8ff" d="M159.99,-132.64C151.4,-133.66 142.64,-134.69 134.1,-135.7"/>
<polygon fill="#63b8ff" stroke="#63b8ff" points="160.44,-136.11 169.96,-131.47 159.62,-129.16 160.44,-136.11"/>
</a>
</g>
</g>
<!-- Node11 -->
<g id="Node000011" class="node">
<title>Node11</title>
<g id="a_Node000011"><a xlink:href="p__main_8fpp_8f90.html#aeec10ee8e2940c953967da3e374e1579" target="_top" xlink:title="Quasi&#45;conservative, shock&#45; and interface&#45; capturing finite&#45;volume scheme for the multicomponent Navie...">
<polygon fill="white" stroke="#666666" points="93.5,-116 40.5,-116 40.5,-97 93.5,-97 93.5,-116"/>
<text text-anchor="middle" x="67" y="-104" font-family="Helvetica,sans-Serif" font-size="10.00">p_main</text>
</a>
</g>
</g>
<!-- Node9&#45;&gt;Node11 -->
<g id="edge10_Node000009_Node000011" class="edge">
<title>Node9&#45;&gt;Node11</title>
<g id="a_edge10_Node000009_Node000011"><a xlink:title=" ">
<path fill="none" stroke="#63b8ff" d="M160.01,-116.79C136.53,-114.16 111.72,-111.39 93.78,-109.38"/>
<polygon fill="#63b8ff" stroke="#63b8ff" points="159.64,-120.27 169.96,-117.9 160.41,-113.31 159.64,-120.27"/>
</a>
</g>
</g>
<!-- Node12&#45;&gt;Node9 -->
<g id="edge12_Node000012_Node000009" class="edge">
<title>Node12&#45;&gt;Node9</title>
<g id="a_edge12_Node000012_Node000009"><a xlink:title=" ">
<path fill="none" stroke="#63b8ff" d="M475.95,-172.54C433.15,-166.87 376.02,-158.51 326,-148.5 305.82,-144.46 283.49,-138.88 265.55,-134.11"/>
<polygon fill="#63b8ff" stroke="#63b8ff" points="475.58,-176.02 485.95,-173.84 476.49,-169.08 475.58,-176.02"/>
</a>
</g>
</g>
<!-- Node13&#45;&gt;Node9 -->
<g id="edge14_Node000013_Node000009" class="edge">
<title>Node13&#45;&gt;Node9</title>
<g id="a_edge14_Node000013_Node000009"><a xlink:title=" ">
<path fill="none" stroke="#63b8ff" d="M476.33,-139.54C421.43,-136.17 343.29,-131.38 290.05,-128.12"/>
<polygon fill="#63b8ff" stroke="#63b8ff" points="476.45,-143.05 486.65,-140.17 476.88,-136.06 476.45,-143.05"/>
</a>
</g>
</g>
<!-- Node14 -->
<g id="Node000014" class="node">
<title>Node14</title>
<g id="a_Node000014"><a xlink:href="m__time__steppers_8fpp_8f90.html#a5858523edfce42df32b2b0a8af54bc0e" target="_top" xlink:title="Strang splitting scheme with 3rd order TVD RK time&#45;stepping algorithm for the flux term and adaptive ...">
<polygon fill="white" stroke="#666666" points="437,-115 334,-115 334,-96 437,-96 437,-115"/>
<text text-anchor="middle" x="385.5" y="-103" font-family="Helvetica,sans-Serif" font-size="10.00">s_strang_splitting</text>
</a>
</g>
</g>
<!-- Node13&#45;&gt;Node14 -->
<g id="edge15_Node000013_Node000014" class="edge">
<title>Node13&#45;&gt;Node14</title>
<g id="a_edge15_Node000013_Node000014"><a xlink:title=" ">
<path fill="none" stroke="#63b8ff" d="M492.05,-131.46C470.46,-126.15 445.46,-120 425.21,-115.02"/>
<polygon fill="#63b8ff" stroke="#63b8ff" points="491.47,-134.92 502.01,-133.91 493.14,-128.12 491.47,-134.92"/>
</a>
</g>
</g>
<!-- Node14&#45;&gt;Node9 -->
<g id="edge16_Node000014_Node000009" class="edge">
<title>Node14&#45;&gt;Node9</title>
<g id="a_edge16_Node000014_Node000009"><a xlink:title=" ">
<path fill="none" stroke="#63b8ff" d="M323.8,-113.01C312.73,-114.38 301.18,-115.81 290.15,-117.18"/>
<polygon fill="#63b8ff" stroke="#63b8ff" points="324.32,-116.48 333.81,-111.77 323.46,-109.53 324.32,-116.48"/>
</a>
</g>
</g>
<!-- Node15&#45;&gt;Node9 -->
<g id="edge18_Node000015_Node000009" class="edge">
<title>Node15&#45;&gt;Node9</title>
<g id="a_edge18_Node000015_Node000009"><a xlink:title=" ">
<path fill="none" stroke="#63b8ff" d="M334.74,-22.87C331.71,-24.27 328.77,-25.81 326,-27.5 286.54,-51.54 251.82,-95.63 237.71,-114.97"/>
<polygon fill="#63b8ff" stroke="#63b8ff" points="336.1,-26.09 344.02,-19.05 333.44,-19.62 336.1,-26.09"/>
</a>
</g>
</g>
<!-- Node17 -->
<g id="Node000017" class="node">
<title>Node17</title>
<g id="a_Node000017"><a xlink:href="m__riemann__solvers_8fpp_8f90.html#a8307be81e3cdbdafbf8e65f19b31fc30" target="_top" xlink:title="This module features a database of approximate and exact Riemann problem solvers for the Navier&#45;Stoke...">
<polygon fill="white" stroke="#666666" points="782,-189.5 659,-189.5 659,-159.5 782,-159.5 782,-189.5"/>
<text text-anchor="start" x="667" y="-177.5" font-family="Helvetica,sans-Serif" font-size="10.00">__m_riemann_solvers</text>
<text text-anchor="middle" x="720.5" y="-166.5" font-family="Helvetica,sans-Serif" font-size="10.00">_fpp_f90__</text>
</a>
</g>
</g>
<!-- Node16&#45;&gt;Node17 -->
<g id="edge20_Node000016_Node000017" class="edge">
<title>Node16&#45;&gt;Node17</title>
<g id="a_edge20_Node000016_Node000017"><a xlink:title=" ">
<path fill="none" stroke="#63b8ff" d="M999.71,-144.08C936.09,-151.03 842.76,-161.24 782.06,-167.88"/>
<polygon fill="#63b8ff" stroke="#63b8ff" points="1000.1,-147.56 1009.66,-142.99 999.34,-140.6 1000.1,-147.56"/>
</a>
</g>
</g>
<!-- Node18 -->
<g id="Node000018" class="node">
<title>Node18</title>
<g id="a_Node000018"><a xlink:href="m__riemann__solvers_8fpp_8f90.html#adf2f2ec005812bb3f0151dcab73a8a47" target="_top" xlink:title="Dispatch to the subroutines that are utilized to compute the Riemann problem solution....">
<polygon fill="white" stroke="#666666" points="951,-221 848,-221 848,-202 951,-202 951,-221"/>
<text text-anchor="middle" x="899.5" y="-209" font-family="Helvetica,sans-Serif" font-size="10.00">s_riemann_solver</text>
</a>
</g>
</g>
<!-- Node16&#45;&gt;Node18 -->
<g id="edge21_Node000016_Node000018" class="edge">
<title>Node16&#45;&gt;Node18</title>
<g id="a_edge21_Node000016_Node000018"><a xlink:title=" ">
<path fill="none" stroke="#63b8ff" d="M1012.63,-148.92C1007.28,-150.59 1001.99,-152.45 997,-154.5 965.5,-167.42 931.97,-189.31 913.91,-201.87"/>
<polygon fill="#63b8ff" stroke="#63b8ff" points="1013.66,-152.26 1022.27,-146.09 1011.69,-145.54 1013.66,-152.26"/>
</a>
</g>
</g>
<!-- Node18&#45;&gt;Node6 -->
<g id="edge23_Node000018_Node000006" class="edge">
<title>Node18&#45;&gt;Node6</title>
<g id="a_edge23_Node000018_Node000006"><a xlink:title=" ">
<path fill="none" stroke="#63b8ff" d="M837.5,-213.57C813.87,-214.37 787.34,-215.27 765.61,-216"/>
<polygon fill="#63b8ff" stroke="#63b8ff" points="837.9,-217.06 847.78,-213.22 837.67,-210.06 837.9,-217.06"/>
</a>
</g>
</g>
<!-- Node18&#45;&gt;Node17 -->
<g id="edge22_Node000018_Node000017" class="edge">
<title>Node18&#45;&gt;Node17</title>
<g id="a_edge22_Node000018_Node000017"><a xlink:title=" ">
<path fill="none" stroke="#63b8ff" d="M843.07,-199.91C823.76,-195.88 802,-191.33 782.28,-187.2"/>
<polygon fill="#63b8ff" stroke="#63b8ff" points="842.41,-203.35 852.92,-201.97 843.85,-196.5 842.41,-203.35"/>
</a>
</g>
</g>
<!-- Node19&#45;&gt;Node17 -->
<g id="edge25_Node000019_Node000017" class="edge">
<title>Node19&#45;&gt;Node17</title>
<g id="a_edge25_Node000019_Node000017"><a xlink:title=" ">
<path fill="none" stroke="#63b8ff" d="M996.93,-173.71C933.41,-173.89 841.89,-174.15 782.07,-174.33"/>
<polygon fill="#63b8ff" stroke="#63b8ff" points="997.28,-177.21 1007.27,-173.68 997.26,-170.21 997.28,-177.21"/>
</a>
</g>
</g>
<!-- Node19&#45;&gt;Node18 -->
<g id="edge26_Node000019_Node000018" class="edge">
<title>Node19&#45;&gt;Node18</title>
<g id="a_edge26_Node000019_Node000018"><a xlink:title=" ">
<path fill="none" stroke="#63b8ff" d="M1016.57,-185.32C992.81,-190.68 965.1,-196.93 942.71,-201.98"/>
<polygon fill="#63b8ff" stroke="#63b8ff" points="1017.5,-188.7 1026.48,-183.09 1015.96,-181.87 1017.5,-188.7"/>
</a>
</g>
</g>
<!-- Node20&#45;&gt;Node17 -->
<g id="edge28_Node000020_Node000017" class="edge">
<title>Node20&#45;&gt;Node17</title>
<g id="a_edge28_Node000020_Node000017"><a xlink:title=" ">
<path fill="none" stroke="#63b8ff" d="M1032.27,-224.04C985.51,-237.9 903,-255.21 838,-230.5 817.99,-222.89 820.7,-208.92 802,-198.5 795.76,-195.02 788.95,-192 782.04,-189.38"/>
<polygon fill="#63b8ff" stroke="#63b8ff" points="1033.43,-227.35 1041.97,-221.06 1031.38,-220.65 1033.43,-227.35"/>
</a>
</g>
</g>
<!-- Node20&#45;&gt;Node18 -->
<g id="edge29_Node000020_Node000018" class="edge">
<title>Node20&#45;&gt;Node18</title>
<g id="a_edge29_Node000020_Node000018"><a xlink:title=" ">
<path fill="none" stroke="#63b8ff" d="M996.32,-211.5C981.12,-211.5 965.41,-211.5 951.22,-211.5"/>
<polygon fill="#63b8ff" stroke="#63b8ff" points="996.74,-215 1006.74,-211.5 996.74,-208 996.74,-215"/>
</a>
</g>
</g>
<!-- Node22 -->
<g id="Node000022" class="node">
<title>Node22</title>
<g id="a_Node000022"><a xlink:href="m__data__output_8fpp_8f90.html#a979b8a2cf4215a8122fc461c0512dbba" target="_top" xlink:title=" ">
<polygon fill="white" stroke="#666666" points="603,-115.5 481,-115.5 481,-85.5 603,-85.5 603,-115.5"/>
<text text-anchor="start" x="489" y="-103.5" font-family="Helvetica,sans-Serif" font-size="10.00">__m_data_output_fpp</text>
<text text-anchor="middle" x="542" y="-92.5" font-family="Helvetica,sans-Serif" font-size="10.00">_f90__</text>
</a>
</g>
</g>
<!-- Node21&#45;&gt;Node22 -->
<g id="edge31_Node000021_Node000022" class="edge">
<title>Node21&#45;&gt;Node22</title>
<g id="a_edge31_Node000021_Node000022"><a xlink:title=" ">
<path fill="none" stroke="#63b8ff" d="M668.79,-71.28C648.3,-76.04 624.48,-81.57 603.12,-86.53"/>
<polygon fill="#63b8ff" stroke="#63b8ff" points="669.62,-74.68 678.56,-69.01 668.03,-67.86 669.62,-74.68"/>
</a>
</g>
</g>
<!-- Node23 -->
<g id="Node000023" class="node">
<title>Node23</title>
<g id="a_Node000023"><a xlink:href="namespacem__derived__variables.html#a516a9808b3446b7b45029f6451d02b3f" target="_top" xlink:title="Writes coherent body information, communication files, and probes.">
<polygon fill="white" stroke="#666666" points="445,-78 326,-78 326,-37 445,-37 445,-78"/>
<text text-anchor="start" x="334" y="-66" font-family="Helvetica,sans-Serif" font-size="10.00">m_derived_variables</text>
<text text-anchor="start" x="334" y="-55" font-family="Helvetica,sans-Serif" font-size="10.00">::s_compute_derived</text>
<text text-anchor="middle" x="385.5" y="-44" font-family="Helvetica,sans-Serif" font-size="10.00">_variables</text>
</a>
</g>
</g>
<!-- Node21&#45;&gt;Node23 -->
<g id="edge32_Node000021_Node000023" class="edge">
<title>Node21&#45;&gt;Node23</title>
<g id="a_edge32_Node000021_Node000023"><a xlink:title=" ">
<path fill="none" stroke="#63b8ff" d="M655.02,-59.11C594.26,-58.75 504.01,-58.21 445.21,-57.85"/>
<polygon fill="#63b8ff" stroke="#63b8ff" points="655.24,-62.61 665.26,-59.17 655.28,-55.61 655.24,-62.61"/>
</a>
</g>
</g>
<!-- Node23&#45;&gt;Node9 -->
<g id="edge33_Node000023_Node000009" class="edge">
<title>Node23&#45;&gt;Node9</title>
<g id="a_edge33_Node000023_Node000009"><a xlink:title=" ">
<path fill="none" stroke="#63b8ff" d="M327.8,-82.25C301.85,-93.58 272.61,-106.34 253.12,-114.85"/>
<polygon fill="#63b8ff" stroke="#63b8ff" points="329.43,-85.36 337.19,-78.15 326.63,-78.94 329.43,-85.36"/>
</a>
</g>
</g>
<!-- Node24&#45;&gt;Node8 -->
<g id="edge36_Node000024_Node000008" class="edge">
<title>Node24&#45;&gt;Node8</title>
<g id="a_edge36_Node000024_Node000008"><a xlink:title=" ">
<path fill="none" stroke="#63b8ff" d="M648.9,-144.99C645.45,-146.63 642.13,-148.45 639,-150.5 616.69,-165.1 624.75,-183.07 603,-198.5 597.56,-202.36 591.31,-205.45 584.94,-207.93"/>
<polygon fill="#63b8ff" stroke="#63b8ff" points="650.36,-148.18 658.27,-141.12 647.69,-141.71 650.36,-148.18"/>
</a>
</g>
</g>
<!-- Node24&#45;&gt;Node12 -->
<g id="edge37_Node000024_Node000012" class="edge">
<title>Node24&#45;&gt;Node12</title>
<g id="a_edge37_Node000024_Node000012"><a xlink:title=" ">
<path fill="none" stroke="#63b8ff" d="M666.49,-143.45C657.29,-145.68 647.85,-148.08 639,-150.5 632.52,-152.28 599.09,-162.77 573.49,-170.85"/>
<polygon fill="#63b8ff" stroke="#63b8ff" points="667.41,-146.82 676.33,-141.09 665.79,-140.02 667.41,-146.82"/>
</a>
</g>
</g>
<!-- Node24&#45;&gt;Node13 -->
<g id="edge38_Node000024_Node000013" class="edge">
<title>Node24&#45;&gt;Node13</title>
<g id="a_edge38_Node000024_Node000013"><a xlink:title=" ">
<path fill="none" stroke="#63b8ff" d="M629,-137.65C618.11,-138.39 607.26,-139.13 597.12,-139.82"/>
<polygon fill="#63b8ff" stroke="#63b8ff" points="629.26,-141.14 639,-136.97 628.78,-134.16 629.26,-141.14"/>
</a>
</g>
</g>
<!-- Node24&#45;&gt;Node22 -->
<g id="edge35_Node000024_Node000022" class="edge">
<title>Node24&#45;&gt;Node22</title>
<g id="a_edge35_Node000024_Node000022"><a xlink:title=" ">
<path fill="none" stroke="#63b8ff" d="M655.24,-120.21C638.2,-117.22 619.87,-114 603.06,-111.05"/>
<polygon fill="#63b8ff" stroke="#63b8ff" points="654.65,-123.66 665.1,-121.95 655.86,-116.77 654.65,-123.66"/>
</a>
</g>
</g>
</g>
</svg>

<g id="navigator" transform="translate(0 0)" fill="#404254">
  <rect fill="#f2f5e9" fill-opacity="0.5" stroke="#606060" stroke-width=".5" x="0" y="0" width="60" height="60"/>
  <use id="zoomplus" xlink:href="#zoomPlus" x="17" y="9" onmousedown="handleZoom(evt,'in')"/>
  <use id="zoomminus" xlink:href="#zoomMin" x="42" y="9" onmousedown="handleZoom(evt,'out')"/>
  <use id="reset" xlink:href="#resetDef" x="30" y="36" onmousedown="handleReset()"/>
   <use id="arrowup" xlink:href="#arrowUp" x="0" y="0" onmousedown="handlePan(0,-1)"/>
  <use id="arrowright" xlink:href="#arrowRight" x="0" y="0" onmousedown="handlePan(1,0)"/>
  <use id="arrowdown" xlink:href="#arrowDown" x="0" y="0" onmousedown="handlePan(0,1)"/>
  <use id="arrowleft" xlink:href="#arrowLeft" x="0" y="0" onmousedown="handlePan(-1,0)"/>
</g>
<svg viewBox="0 0 15 15" width="100%" height="30px" preserveAspectRatio="xMaxYMin meet">
 <g id="arrow_out" transform="scale(0.3 0.3)">
  <a xlink:href="m__variables__conversion_8fpp_8f90_a51acc7500f24829b23b1280b91260929_icgraph_org.svg" target="_base">
   <rect id="button" ry="5" rx="5" y="6" x="6" height="38" width="38"
        fill="#f2f5e9" fill-opacity="0.5" stroke="#606060" stroke-width="1.0"/>
   <path id="arrow"
     d="M 11.500037,31.436501 C 11.940474,20.09759 22.043105,11.32322 32.158766,21.979434 L 37.068811,17.246167 C 37.068811,17.246167 37.088388,32 37.088388,32 L 22.160133,31.978069 C 22.160133,31.978069 26.997745,27.140456 26.997745,27.140456 C 18.528582,18.264221 13.291696,25.230495 11.500037,31.436501 z"
     style="fill:#404040;"/>
  </a>
 </g>
</svg>

<style type='text/css'>
<![CDATA[
[data-mouse-over-selected='false'] { opacity: 0.7; }
[data-mouse-over-selected='true']  { opacity: 1.0; }
]]>
</style>
<script type="application/ecmascript"><![CDATA[
document.addEventListener('DOMContentLoaded', (event) => {
  highlightEdges();
  highlightAdjacentNodes();
});
]]></script>
</svg>
