<?xml version="1.0" encoding="UTF-8" standalone="no"?>
<!DOCTYPE svg PUBLIC "-//W3C//DTD SVG 1.1//EN"
 "http://www.w3.org/Graphics/SVG/1.1/DTD/svg11.dtd">
<!-- Generated by graphviz version 2.43.0 (0)
 -->
<!-- Title: s_preserve_monotonicity Pages: 1 -->
<!--zoomable 197 -->

<svg id="main" version="1.1" xmlns="http://www.w3.org/2000/svg" xmlns:xlink="http://www.w3.org/1999/xlink" xml:space="preserve" onload="init(evt)">

<style type="text/css"><![CDATA[
.node, .edge {opacity: 0.7;}
.node.selected, .edge.selected {opacity: 1;}
.edge:hover path { stroke: red; }
.edge:hover polygon { stroke: red; fill: red; }
]]></style>

<defs>
  <circle id="rim" cx="0" cy="0" r="7"/>
  <circle id="rim2" cx="0" cy="0" r="3.5"/>
  <g id="zoomPlus">
    <use xlink:href="#rim" fill="#404040"><set attributeName="fill" to="#808080" begin="zoomplus.mouseover" end="zoomplus.mouseout"/></use>
    <path d="M-4,0h8M0,-4v8" fill="none" stroke="white" stroke-width="1.5" pointer-events="none"/>
  </g>
  <g id="zoomMin">
    <use xlink:href="#rim" fill="#404040"><set attributeName="fill" to="#808080" begin="zoomminus.mouseover" end="zoomminus.mouseout"/></use>
    <path d="M-4,0h8" fill="none" stroke="white" stroke-width="1.5" pointer-events="none"/>
  </g>
  <g id="arrowUp" transform="translate(30 24)">
    <use xlink:href="#rim"/>
    <path pointer-events="none" fill="none" stroke="white" stroke-width="1.5" d="M0,-3.0v7 M-2.5,-0.5L0,-3.0L2.5,-0.5"/>
  </g>
  <g id="arrowRight" transform="rotate(90) translate(36 -43)">
    <use xlink:href="#rim"/>
    <path pointer-events="none" fill="none" stroke="white" stroke-width="1.5" d="M0,-3.0v7 M-2.5,-0.5L0,-3.0L2.5,-0.5"/>
  </g>
  <g id="arrowDown" transform="rotate(180) translate(-30 -48)">
    <use xlink:href="#rim"/>
    <path pointer-events="none" fill="none" stroke="white" stroke-width="1.5" d="M0,-3.0v7 M-2.5,-0.5L0,-3.0L2.5,-0.5"/>
  </g>
  <g id="arrowLeft" transform="rotate(270) translate(-36 17)">
    <use xlink:href="#rim"/>
    <path pointer-events="none" fill="none" stroke="white" stroke-width="1.5" d="M0,-3.0v7 M-2.5,-0.5L0,-3.0L2.5,-0.5"/>
  </g>
  <g id="resetDef">
    <use xlink:href="#rim2" fill="#404040"><set attributeName="fill" to="#808080" begin="reset.mouseover" end="reset.mouseout"/></use>
  </g>
</defs>
<script type="application/ecmascript">
var viewWidth = 1312;
var viewHeight = 197;
var sectionId = 'dynsection-6';
</script>
<script type="application/ecmascript" xlink:href="svg.min.js"/>
<svg id="graph" class="graph">
<g id="viewport">
<title>s_preserve_monotonicity</title>
<!-- Node1 -->
<g id="Node000001" class="node">
<title>Node1</title>
<g id="a_Node000001"><a xlink:title="The goal of this subroutine is to ensure that the WENO reconstruction is monotonic....">
<polygon fill="#999999" stroke="#666666" points="1304,-132 1164,-132 1164,-113 1304,-113 1304,-132"/>
<text text-anchor="middle" x="1234" y="-120" font-family="Helvetica,sans-Serif" font-size="10.00">s_preserve_monotonicity</text>
</a>
</g>
</g>
<!-- Node2 -->
<g id="Node000002" class="node">
<title>Node2</title>
<g id="a_Node000002"><a xlink:href="m__weno_8fpp_8f90.html#a0c79c6347a719cfadea72a4e0dd83591" target="_top" xlink:title=" ">
<polygon fill="white" stroke="#666666" points="1128,-132 1075,-132 1075,-113 1128,-113 1128,-132"/>
<text text-anchor="middle" x="1101.5" y="-120" font-family="Helvetica,sans-Serif" font-size="10.00">s_weno</text>
</a>
</g>
</g>
<!-- Node1&#45;&gt;Node2 -->
<g id="edge1_Node000001_Node000002" class="edge">
<title>Node1&#45;&gt;Node2</title>
<g id="a_edge1_Node000001_Node000002"><a xlink:title=" ">
<path fill="none" stroke="#63b8ff" d="M1153.78,-122.5C1144.53,-122.5 1135.67,-122.5 1128,-122.5"/>
<polygon fill="#63b8ff" stroke="#63b8ff" points="1153.93,-126 1163.93,-122.5 1153.93,-119 1153.93,-126"/>
</a>
</g>
</g>
<!-- Node3 -->
<g id="Node000003" class="node">
<title>Node3</title>
<g id="a_Node000003"><a xlink:href="m__weno_8fpp_8f90.html#a8b89d4ee512abb6265f7209e3b8fadce" target="_top" xlink:title=" ">
<polygon fill="white" stroke="#666666" points="1034.5,-189 913.5,-189 913.5,-170 1034.5,-170 1034.5,-189"/>
<text text-anchor="middle" x="974" y="-177" font-family="Helvetica,sans-Serif" font-size="10.00">__m_weno_fpp_f90__</text>
</a>
</g>
</g>
<!-- Node2&#45;&gt;Node3 -->
<g id="edge2_Node000002_Node000003" class="edge">
<title>Node2&#45;&gt;Node3</title>
<g id="a_edge2_Node000002_Node000003"><a xlink:title=" ">
<path fill="none" stroke="#63b8ff" d="M1075.1,-137.12C1064.16,-143.15 1051.12,-150.01 1039,-155.5 1027.44,-160.74 1014.36,-165.8 1003.05,-169.9"/>
<polygon fill="#63b8ff" stroke="#63b8ff" points="1077.08,-140.02 1084.1,-132.08 1073.66,-133.91 1077.08,-140.02"/>
</a>
</g>
</g>
<!-- Node4 -->
<g id="Node000004" class="node">
<title>Node4</title>
<g id="a_Node000004"><a xlink:href="m__rhs_8fpp_8f90.html#a26833f559de36f1d15b4f6b3d28cfc79" target="_top" xlink:title="The purpose of this subroutine is to WENO&#45;reconstruct the left and the right cell&#45;boundary values,...">
<polygon fill="white" stroke="#666666" points="845.5,-166.5 740.5,-166.5 740.5,-136.5 845.5,-136.5 845.5,-166.5"/>
<text text-anchor="start" x="748.5" y="-154.5" font-family="Helvetica,sans-Serif" font-size="10.00">s_reconstruct_cell</text>
<text text-anchor="middle" x="793" y="-143.5" font-family="Helvetica,sans-Serif" font-size="10.00">_boundary_values</text>
</a>
</g>
</g>
<!-- Node2&#45;&gt;Node4 -->
<g id="edge3_Node000002_Node000004" class="edge">
<title>Node2&#45;&gt;Node4</title>
<g id="a_edge3_Node000002_Node000004"><a xlink:title=" ">
<path fill="none" stroke="#63b8ff" d="M1064.76,-125.88C1010.73,-130.99 907.94,-140.72 845.73,-146.61"/>
<polygon fill="#63b8ff" stroke="#63b8ff" points="1065.27,-129.35 1074.9,-124.92 1064.61,-122.38 1065.27,-129.35"/>
</a>
</g>
</g>
<!-- Node13 -->
<g id="Node000013" class="node">
<title>Node13</title>
<g id="a_Node000013"><a xlink:href="m__viscous_8fpp_8f90.html#afb2cea3f273b947ff0fefe977e829244" target="_top" xlink:title=" ">
<polygon fill="white" stroke="#666666" points="1039,-75.5 909,-75.5 909,-45.5 1039,-45.5 1039,-75.5"/>
<text text-anchor="start" x="917" y="-63.5" font-family="Helvetica,sans-Serif" font-size="10.00">s_reconstruct_cell</text>
<text text-anchor="middle" x="974" y="-52.5" font-family="Helvetica,sans-Serif" font-size="10.00">_boundary_values_visc</text>
</a>
</g>
</g>
<!-- Node2&#45;&gt;Node13 -->
<g id="edge15_Node000002_Node000013" class="edge">
<title>Node2&#45;&gt;Node13</title>
<g id="a_edge15_Node000002_Node000013"><a xlink:title=" ">
<path fill="none" stroke="#63b8ff" d="M1074.45,-108.02C1063.58,-102.11 1050.76,-95.31 1039,-89.5 1029.49,-84.8 1019.05,-79.94 1009.41,-75.58"/>
<polygon fill="#63b8ff" stroke="#63b8ff" points="1072.98,-111.21 1083.43,-112.94 1076.34,-105.07 1072.98,-111.21"/>
</a>
</g>
</g>
<!-- Node16 -->
<g id="Node000016" class="node">
<title>Node16</title>
<g id="a_Node000016"><a xlink:href="m__viscous_8fpp_8f90.html#a7a5f067c7a738f8814f5cee205d2892d" target="_top" xlink:title=" ">
<polygon fill="white" stroke="#666666" points="873,-118.5 713,-118.5 713,-88.5 873,-88.5 873,-118.5"/>
<text text-anchor="start" x="721" y="-106.5" font-family="Helvetica,sans-Serif" font-size="10.00">s_reconstruct_cell</text>
<text text-anchor="middle" x="793" y="-95.5" font-family="Helvetica,sans-Serif" font-size="10.00">_boundary_values_visc_deriv</text>
</a>
</g>
</g>
<!-- Node2&#45;&gt;Node16 -->
<g id="edge19_Node000002_Node000016" class="edge">
<title>Node2&#45;&gt;Node16</title>
<g id="a_edge19_Node000002_Node000016"><a xlink:title=" ">
<path fill="none" stroke="#63b8ff" d="M1064.67,-120.28C1017.95,-117.38 934.92,-112.24 873.1,-108.4"/>
<polygon fill="#63b8ff" stroke="#63b8ff" points="1064.7,-123.79 1074.9,-120.91 1065.13,-116.8 1064.7,-123.79"/>
</a>
</g>
</g>
<!-- Node5 -->
<g id="Node000005" class="node">
<title>Node5</title>
<g id="a_Node000005"><a xlink:href="m__rhs_8fpp_8f90.html#af47a5f1dac8fc4eec10fb0d56ff5fff1" target="_top" xlink:title=" ">
<polygon fill="white" stroke="#666666" points="656.5,-113 566.5,-113 566.5,-94 656.5,-94 656.5,-113"/>
<text text-anchor="middle" x="611.5" y="-101" font-family="Helvetica,sans-Serif" font-size="10.00">s_compute_rhs</text>
</a>
</g>
</g>
<!-- Node4&#45;&gt;Node5 -->
<g id="edge4_Node000004_Node000005" class="edge">
<title>Node4&#45;&gt;Node5</title>
<g id="a_edge4_Node000004_Node000005"><a xlink:title=" ">
<path fill="none" stroke="#63b8ff" d="M730.18,-134.97C702.77,-127.64 671.51,-119.28 648.1,-113.02"/>
<polygon fill="#63b8ff" stroke="#63b8ff" points="729.52,-138.41 740.08,-137.62 731.32,-131.65 729.52,-138.41"/>
</a>
</g>
</g>
<!-- Node6 -->
<g id="Node000006" class="node">
<title>Node6</title>
<g id="a_Node000006"><a xlink:href="m__rhs_8fpp_8f90.html#a87616394067f1273cd06c4d299d10add" target="_top" xlink:title=" ">
<polygon fill="white" stroke="#666666" points="510,-170 400,-170 400,-151 510,-151 510,-170"/>
<text text-anchor="middle" x="455" y="-158" font-family="Helvetica,sans-Serif" font-size="10.00">__m_rhs_fpp_f90__</text>
</a>
</g>
</g>
<!-- Node5&#45;&gt;Node6 -->
<g id="edge5_Node000005_Node000006" class="edge">
<title>Node5&#45;&gt;Node6</title>
<g id="a_edge5_Node000005_Node000006"><a xlink:title=" ">
<path fill="none" stroke="#63b8ff" d="M575.09,-116.57C546.69,-127.04 507.49,-141.51 481.94,-150.93"/>
<polygon fill="#63b8ff" stroke="#63b8ff" points="576.47,-119.79 584.64,-113.04 574.05,-113.22 576.47,-119.79"/>
</a>
</g>
</g>
<!-- Node7 -->
<g id="Node000007" class="node">
<title>Node7</title>
<g id="a_Node000007"><a xlink:href="m__time__steppers_8fpp_8f90.html#af409df8df1b374744d8c379e7e7dba0b" target="_top" xlink:title="1st order TVD RK time&#45;stepping algorithm">
<polygon fill="white" stroke="#666666" points="362.5,-132 253.5,-132 253.5,-113 362.5,-113 362.5,-132"/>
<text text-anchor="middle" x="308" y="-120" font-family="Helvetica,sans-Serif" font-size="10.00">s_1st_order_tvd_rk</text>
</a>
</g>
</g>
<!-- Node5&#45;&gt;Node7 -->
<g id="edge6_Node000005_Node000007" class="edge">
<title>Node5&#45;&gt;Node7</title>
<g id="a_edge6_Node000005_Node000007"><a xlink:title=" ">
<path fill="none" stroke="#63b8ff" d="M556.12,-106.93C501.32,-110.38 417.27,-115.68 362.71,-119.12"/>
<polygon fill="#63b8ff" stroke="#63b8ff" points="556.58,-110.41 566.34,-106.28 556.14,-103.42 556.58,-110.41"/>
</a>
</g>
</g>
<!-- Node10 -->
<g id="Node000010" class="node">
<title>Node10</title>
<g id="a_Node000010"><a xlink:href="m__time__steppers_8fpp_8f90.html#a2847bfea6f3dc3fdae115a99009f7245" target="_top" xlink:title="2nd order TVD RK time&#45;stepping algorithm">
<polygon fill="white" stroke="#666666" points="364,-95 252,-95 252,-76 364,-76 364,-95"/>
<text text-anchor="middle" x="308" y="-83" font-family="Helvetica,sans-Serif" font-size="10.00">s_2nd_order_tvd_rk</text>
</a>
</g>
</g>
<!-- Node5&#45;&gt;Node10 -->
<g id="edge9_Node000005_Node000010" class="edge">
<title>Node5&#45;&gt;Node10</title>
<g id="a_edge9_Node000005_Node000010"><a xlink:title=" ">
<path fill="none" stroke="#63b8ff" d="M556.2,-100.26C501.84,-97.01 418.65,-92.05 364.03,-88.79"/>
<polygon fill="#63b8ff" stroke="#63b8ff" points="556.15,-103.76 566.34,-100.86 556.56,-96.77 556.15,-103.76"/>
</a>
</g>
</g>
<!-- Node11 -->
<g id="Node000011" class="node">
<title>Node11</title>
<g id="a_Node000011"><a xlink:href="m__time__steppers_8fpp_8f90.html#ad642c094881f0cffbb6158f9fa079a86" target="_top" xlink:title="3rd order TVD RK time&#45;stepping algorithm">
<polygon fill="white" stroke="#666666" points="510,-56 400,-56 400,-37 510,-37 510,-56"/>
<text text-anchor="middle" x="455" y="-44" font-family="Helvetica,sans-Serif" font-size="10.00">s_3rd_order_tvd_rk</text>
</a>
</g>
</g>
<!-- Node5&#45;&gt;Node11 -->
<g id="edge11_Node000005_Node000011" class="edge">
<title>Node5&#45;&gt;Node11</title>
<g id="a_edge11_Node000005_Node000011"><a xlink:title=" ">
<path fill="none" stroke="#63b8ff" d="M571.78,-90.59C563.26,-87.67 554.31,-84.53 546,-81.5 523.48,-73.28 498.03,-63.33 479.96,-56.14"/>
<polygon fill="#63b8ff" stroke="#63b8ff" points="570.92,-93.99 581.51,-93.9 573.17,-87.37 570.92,-93.99"/>
</a>
</g>
</g>
<!-- Node8 -->
<g id="Node000008" class="node">
<title>Node8</title>
<g id="a_Node000008"><a xlink:href="namespacem__start__up.html#aaaeff91a52af5b8f17ed9efed8ac17bd" target="_top" xlink:title=" ">
<polygon fill="white" stroke="#666666" points="216,-81.5 89,-81.5 89,-51.5 216,-51.5 216,-81.5"/>
<text text-anchor="start" x="97" y="-69.5" font-family="Helvetica,sans-Serif" font-size="10.00">m_start_up::s_perform</text>
<text text-anchor="middle" x="152.5" y="-58.5" font-family="Helvetica,sans-Serif" font-size="10.00">_time_step</text>
</a>
</g>
</g>
<!-- Node7&#45;&gt;Node8 -->
<g id="edge7_Node000007_Node000008" class="edge">
<title>Node7&#45;&gt;Node8</title>
<g id="a_edge7_Node000007_Node000008"><a xlink:title=" ">
<path fill="none" stroke="#63b8ff" d="M267.2,-109.75C262.07,-108.02 256.9,-106.25 252,-104.5 231.8,-97.3 209.49,-88.75 191.22,-81.58"/>
<polygon fill="#63b8ff" stroke="#63b8ff" points="266.34,-113.15 276.93,-112.97 268.54,-106.5 266.34,-113.15"/>
</a>
</g>
</g>
<!-- Node9 -->
<g id="Node000009" class="node">
<title>Node9</title>
<g id="a_Node000009"><a xlink:href="p__main_8fpp_8f90.html#aeec10ee8e2940c953967da3e374e1579" target="_top" xlink:title="Quasi&#45;conservative, shock&#45; and interface&#45; capturing finite&#45;volume scheme for the multicomponent Navie...">
<polygon fill="white" stroke="#666666" points="53,-76 0,-76 0,-57 53,-57 53,-76"/>
<text text-anchor="middle" x="26.5" y="-64" font-family="Helvetica,sans-Serif" font-size="10.00">p_main</text>
</a>
</g>
</g>
<!-- Node8&#45;&gt;Node9 -->
<g id="edge8_Node000008_Node000009" class="edge">
<title>Node8&#45;&gt;Node9</title>
<g id="a_edge8_Node000008_Node000009"><a xlink:title=" ">
<path fill="none" stroke="#63b8ff" d="M78.77,-66.5C69.63,-66.5 60.81,-66.5 53.14,-66.5"/>
<polygon fill="#63b8ff" stroke="#63b8ff" points="78.77,-70 88.77,-66.5 78.77,-63 78.77,-70"/>
</a>
</g>
</g>
<!-- Node10&#45;&gt;Node8 -->
<g id="edge10_Node000010_Node000008" class="edge">
<title>Node10&#45;&gt;Node8</title>
<g id="a_edge10_Node000010_Node000008"><a xlink:title=" ">
<path fill="none" stroke="#63b8ff" d="M241.46,-77.39C233.06,-76.35 224.48,-75.29 216.13,-74.25"/>
<polygon fill="#63b8ff" stroke="#63b8ff" points="241.23,-80.89 251.58,-78.64 242.09,-73.94 241.23,-80.89"/>
</a>
</g>
</g>
<!-- Node11&#45;&gt;Node8 -->
<g id="edge12_Node000011_Node000008" class="edge">
<title>Node11&#45;&gt;Node8</title>
<g id="a_edge12_Node000011_Node000008"><a xlink:title=" ">
<path fill="none" stroke="#63b8ff" d="M389.64,-50.78C338.38,-54.2 267.05,-58.94 216.23,-62.32"/>
<polygon fill="#63b8ff" stroke="#63b8ff" points="390.18,-54.26 399.93,-50.1 389.72,-47.27 390.18,-54.26"/>
</a>
</g>
</g>
<!-- Node12 -->
<g id="Node000012" class="node">
<title>Node12</title>
<g id="a_Node000012"><a xlink:href="m__time__steppers_8fpp_8f90.html#a5858523edfce42df32b2b0a8af54bc0e" target="_top" xlink:title="Strang splitting scheme with 3rd order TVD RK time&#45;stepping algorithm for the flux term and adaptive ...">
<polygon fill="white" stroke="#666666" points="359.5,-19 256.5,-19 256.5,0 359.5,0 359.5,-19"/>
<text text-anchor="middle" x="308" y="-7" font-family="Helvetica,sans-Serif" font-size="10.00">s_strang_splitting</text>
</a>
</g>
</g>
<!-- Node11&#45;&gt;Node12 -->
<g id="edge13_Node000011_Node000012" class="edge">
<title>Node11&#45;&gt;Node12</title>
<g id="a_edge13_Node000011_Node000012"><a xlink:title=" ">
<path fill="none" stroke="#63b8ff" d="M406.73,-34.44C387.19,-29.45 364.85,-23.75 346.47,-19.06"/>
<polygon fill="#63b8ff" stroke="#63b8ff" points="406.1,-37.89 416.66,-36.97 407.83,-31.11 406.1,-37.89"/>
</a>
</g>
</g>
<!-- Node12&#45;&gt;Node8 -->
<g id="edge14_Node000012_Node000008" class="edge">
<title>Node12&#45;&gt;Node8</title>
<g id="a_edge14_Node000012_Node000008"><a xlink:title=" ">
<path fill="none" stroke="#63b8ff" d="M271.85,-22.55C248.67,-31.16 218.23,-42.46 194.02,-51.45"/>
<polygon fill="#63b8ff" stroke="#63b8ff" points="273.15,-25.8 281.31,-19.04 270.71,-19.24 273.15,-25.8"/>
</a>
</g>
</g>
<!-- Node14 -->
<g id="Node000014" class="node">
<title>Node14</title>
<g id="a_Node000014"><a xlink:href="m__viscous_8fpp_8f90.html#a0f828f5ebe7c76e07c69a5d13ea74803" target="_top" xlink:title="Computes viscous terms.">
<polygon fill="white" stroke="#666666" points="835.5,-70 750.5,-70 750.5,-51 835.5,-51 835.5,-70"/>
<text text-anchor="middle" x="793" y="-58" font-family="Helvetica,sans-Serif" font-size="10.00">s_get_viscous</text>
</a>
</g>
</g>
<!-- Node13&#45;&gt;Node14 -->
<g id="edge16_Node000013_Node000014" class="edge">
<title>Node13&#45;&gt;Node14</title>
<g id="a_edge16_Node000013_Node000014"><a xlink:title=" ">
<path fill="none" stroke="#63b8ff" d="M898.75,-60.5C877.19,-60.5 854.41,-60.5 835.63,-60.5"/>
<polygon fill="#63b8ff" stroke="#63b8ff" points="898.88,-64 908.88,-60.5 898.88,-57 898.88,-64"/>
</a>
</g>
</g>
<!-- Node14&#45;&gt;Node5 -->
<g id="edge18_Node000014_Node000005" class="edge">
<title>Node14&#45;&gt;Node5</title>
<g id="a_edge18_Node000014_Node000005"><a xlink:title=" ">
<path fill="none" stroke="#63b8ff" d="M742.42,-72.38C714,-79.19 678.81,-87.62 652.23,-93.98"/>
<polygon fill="#63b8ff" stroke="#63b8ff" points="743.25,-75.78 752.16,-70.04 741.62,-68.97 743.25,-75.78"/>
</a>
</g>
</g>
<!-- Node15 -->
<g id="Node000015" class="node">
<title>Node15</title>
<g id="a_Node000015"><a xlink:href="m__viscous_8fpp_8f90.html#a24875bab9826f15c6be48956a235472d" target="_top" xlink:title=" ">
<polygon fill="white" stroke="#666666" points="677,-73 546,-73 546,-54 677,-54 677,-73"/>
<text text-anchor="middle" x="611.5" y="-61" font-family="Helvetica,sans-Serif" font-size="10.00">__m_viscous_fpp_f90__</text>
</a>
</g>
</g>
<!-- Node14&#45;&gt;Node15 -->
<g id="edge17_Node000014_Node000015" class="edge">
<title>Node14&#45;&gt;Node15</title>
<g id="a_edge17_Node000014_Node000015"><a xlink:title=" ">
<path fill="none" stroke="#63b8ff" d="M740.36,-61.36C720.63,-61.69 697.9,-62.07 677.11,-62.42"/>
<polygon fill="#63b8ff" stroke="#63b8ff" points="740.43,-64.86 750.37,-61.2 740.31,-57.86 740.43,-64.86"/>
</a>
</g>
</g>
<!-- Node16&#45;&gt;Node5 -->
<g id="edge21_Node000016_Node000005" class="edge">
<title>Node16&#45;&gt;Node5</title>
<g id="a_edge21_Node000016_Node000005"><a xlink:title=" ">
<path fill="none" stroke="#63b8ff" d="M702.38,-103.5C686.56,-103.5 670.75,-103.5 656.89,-103.5"/>
<polygon fill="#63b8ff" stroke="#63b8ff" points="702.75,-107 712.75,-103.5 702.75,-100 702.75,-107"/>
</a>
</g>
</g>
<!-- Node16&#45;&gt;Node15 -->
<g id="edge20_Node000016_Node000015" class="edge">
<title>Node16&#45;&gt;Node15</title>
<g id="a_edge20_Node000016_Node000015"><a xlink:title=" ">
<path fill="none" stroke="#63b8ff" d="M714.72,-86.28C694.31,-81.73 673.03,-76.99 655.2,-73.01"/>
<polygon fill="#63b8ff" stroke="#63b8ff" points="714.13,-89.73 724.65,-88.49 715.65,-82.9 714.13,-89.73"/>
</a>
</g>
</g>
</g>
</svg>

<g id="navigator" transform="translate(0 0)" fill="#404254">
  <rect fill="#f2f5e9" fill-opacity="0.5" stroke="#606060" stroke-width=".5" x="0" y="0" width="60" height="60"/>
  <use id="zoomplus" xlink:href="#zoomPlus" x="17" y="9" onmousedown="handleZoom(evt,'in')"/>
  <use id="zoomminus" xlink:href="#zoomMin" x="42" y="9" onmousedown="handleZoom(evt,'out')"/>
  <use id="reset" xlink:href="#resetDef" x="30" y="36" onmousedown="handleReset()"/>
   <use id="arrowup" xlink:href="#arrowUp" x="0" y="0" onmousedown="handlePan(0,-1)"/>
  <use id="arrowright" xlink:href="#arrowRight" x="0" y="0" onmousedown="handlePan(1,0)"/>
  <use id="arrowdown" xlink:href="#arrowDown" x="0" y="0" onmousedown="handlePan(0,1)"/>
  <use id="arrowleft" xlink:href="#arrowLeft" x="0" y="0" onmousedown="handlePan(-1,0)"/>
</g>
<svg viewBox="0 0 15 15" width="100%" height="30px" preserveAspectRatio="xMaxYMin meet">
 <g id="arrow_out" transform="scale(0.3 0.3)">
  <a xlink:href="m__weno_8fpp_8f90_ac6752752f34719dae452d0fe42e21682_icgraph_org.svg" target="_base">
   <rect id="button" ry="5" rx="5" y="6" x="6" height="38" width="38"
        fill="#f2f5e9" fill-opacity="0.5" stroke="#606060" stroke-width="1.0"/>
   <path id="arrow"
     d="M 11.500037,31.436501 C 11.940474,20.09759 22.043105,11.32322 32.158766,21.979434 L 37.068811,17.246167 C 37.068811,17.246167 37.088388,32 37.088388,32 L 22.160133,31.978069 C 22.160133,31.978069 26.997745,27.140456 26.997745,27.140456 C 18.528582,18.264221 13.291696,25.230495 11.500037,31.436501 z"
     style="fill:#404040;"/>
  </a>
 </g>
</svg>

<style type='text/css'>
<![CDATA[
[data-mouse-over-selected='false'] { opacity: 0.7; }
[data-mouse-over-selected='true']  { opacity: 1.0; }
]]>
</style>
<script type="application/ecmascript"><![CDATA[
document.addEventListener('DOMContentLoaded', (event) => {
  highlightEdges();
  highlightAdjacentNodes();
});
]]></script>
</svg>
