<?xml version="1.0" encoding="UTF-8" standalone="no"?>
<!DOCTYPE svg PUBLIC "-//W3C//DTD SVG 1.1//EN"
 "http://www.w3.org/Graphics/SVG/1.1/DTD/svg11.dtd">
<!-- Generated by graphviz version 2.43.0 (0)
 -->
<!-- Title: m_start_up::s_finalize_modules Pages: 1 -->
<!--zoomable 1126 -->

<svg id="main" version="1.1" xmlns="http://www.w3.org/2000/svg" xmlns:xlink="http://www.w3.org/1999/xlink" xml:space="preserve" onload="init(evt)">

<style type="text/css"><![CDATA[
.node, .edge {opacity: 0.7;}
.node.selected, .edge.selected {opacity: 1;}
.edge:hover path { stroke: red; }
.edge:hover polygon { stroke: red; fill: red; }
]]></style>

<defs>
  <circle id="rim" cx="0" cy="0" r="7"/>
  <circle id="rim2" cx="0" cy="0" r="3.5"/>
  <g id="zoomPlus">
    <use xlink:href="#rim" fill="#404040"><set attributeName="fill" to="#808080" begin="zoomplus.mouseover" end="zoomplus.mouseout"/></use>
    <path d="M-4,0h8M0,-4v8" fill="none" stroke="white" stroke-width="1.5" pointer-events="none"/>
  </g>
  <g id="zoomMin">
    <use xlink:href="#rim" fill="#404040"><set attributeName="fill" to="#808080" begin="zoomminus.mouseover" end="zoomminus.mouseout"/></use>
    <path d="M-4,0h8" fill="none" stroke="white" stroke-width="1.5" pointer-events="none"/>
  </g>
  <g id="arrowUp" transform="translate(30 24)">
    <use xlink:href="#rim"/>
    <path pointer-events="none" fill="none" stroke="white" stroke-width="1.5" d="M0,-3.0v7 M-2.5,-0.5L0,-3.0L2.5,-0.5"/>
  </g>
  <g id="arrowRight" transform="rotate(90) translate(36 -43)">
    <use xlink:href="#rim"/>
    <path pointer-events="none" fill="none" stroke="white" stroke-width="1.5" d="M0,-3.0v7 M-2.5,-0.5L0,-3.0L2.5,-0.5"/>
  </g>
  <g id="arrowDown" transform="rotate(180) translate(-30 -48)">
    <use xlink:href="#rim"/>
    <path pointer-events="none" fill="none" stroke="white" stroke-width="1.5" d="M0,-3.0v7 M-2.5,-0.5L0,-3.0L2.5,-0.5"/>
  </g>
  <g id="arrowLeft" transform="rotate(270) translate(-36 17)">
    <use xlink:href="#rim"/>
    <path pointer-events="none" fill="none" stroke="white" stroke-width="1.5" d="M0,-3.0v7 M-2.5,-0.5L0,-3.0L2.5,-0.5"/>
  </g>
  <g id="resetDef">
    <use xlink:href="#rim2" fill="#404040"><set attributeName="fill" to="#808080" begin="reset.mouseover" end="reset.mouseout"/></use>
  </g>
</defs>
<script type="application/ecmascript">
var viewWidth = 520;
var viewHeight = 1126;
var sectionId = 'dynsection-2';
</script>
<script type="application/ecmascript" xlink:href="svg.min.js"/>
<svg id="graph" class="graph">
<g id="viewport">
<title>m_start_up::s_finalize_modules</title>
<!-- Node1 -->
<g id="Node000001" class="node">
<title>Node1</title>
<g id="a_Node000001"><a xlink:title=" ">
<polygon fill="#999999" stroke="#666666" points="123,-579 0,-579 0,-549 123,-549 123,-579"/>
<text text-anchor="start" x="8" y="-567" font-family="Helvetica,sans-Serif" font-size="10.00">m_start_up::s_finalize</text>
<text text-anchor="middle" x="61.5" y="-556" font-family="Helvetica,sans-Serif" font-size="10.00">_modules</text>
</a>
</g>
</g>
<!-- Node2 -->
<g id="Node000002" class="node">
<title>Node2</title>
<g id="a_Node000002"><a xlink:href="namespacem__body__forces.html#adf9ca798003a8cc4fb2c278fd9756ce0" target="_top" xlink:title=" ">
<polygon fill="white" stroke="#666666" points="307,-1118 164,-1118 164,-1088 307,-1088 307,-1118"/>
<text text-anchor="start" x="172" y="-1106" font-family="Helvetica,sans-Serif" font-size="10.00">m_body_forces::s_finalize</text>
<text text-anchor="middle" x="235.5" y="-1095" font-family="Helvetica,sans-Serif" font-size="10.00">_body_forces_module</text>
</a>
</g>
</g>
<!-- Node1&#45;&gt;Node2 -->
<g id="edge1_Node000001_Node000002" class="edge">
<title>Node1&#45;&gt;Node2</title>
<g id="a_edge1_Node000001_Node000002"><a xlink:title=" ">
<path fill="none" stroke="#63b8ff" d="M63.29,-579.1C67.58,-655.79 90.53,-1001.58 159,-1079 159.75,-1079.85 160.53,-1080.67 161.34,-1081.46"/>
<polygon fill="#63b8ff" stroke="#63b8ff" points="159.29,-1084.31 169.29,-1087.83 163.67,-1078.85 159.29,-1084.31"/>
</a>
</g>
</g>
<!-- Node3 -->
<g id="Node000003" class="node">
<title>Node3</title>
<g id="a_Node000003"><a xlink:href="namespacem__boundary__common.html#a69dbc2d02c7be259c30ea62e603f9f4b" target="_top" xlink:title=" ">
<polygon fill="white" stroke="#666666" points="301,-1069.5 170,-1069.5 170,-1028.5 301,-1028.5 301,-1069.5"/>
<text text-anchor="start" x="178" y="-1057.5" font-family="Helvetica,sans-Serif" font-size="10.00">m_boundary_common::</text>
<text text-anchor="start" x="178" y="-1046.5" font-family="Helvetica,sans-Serif" font-size="10.00">s_finalize_boundary</text>
<text text-anchor="middle" x="235.5" y="-1035.5" font-family="Helvetica,sans-Serif" font-size="10.00">_common_module</text>
</a>
</g>
</g>
<!-- Node1&#45;&gt;Node3 -->
<g id="edge2_Node000001_Node000003" class="edge">
<title>Node1&#45;&gt;Node3</title>
<g id="a_edge2_Node000001_Node000003"><a xlink:title=" ">
<path fill="none" stroke="#63b8ff" d="M63.83,-579.35C70.27,-650.71 100.42,-949.56 159,-1019 159.99,-1020.18 161.04,-1021.31 162.14,-1022.4"/>
<polygon fill="#63b8ff" stroke="#63b8ff" points="160.05,-1025.22 169.96,-1028.96 164.55,-1019.86 160.05,-1025.22"/>
</a>
</g>
</g>
<!-- Node4 -->
<g id="Node000004" class="node">
<title>Node4</title>
<g id="a_Node000004"><a xlink:href="namespacem__cbc.html#aae4c997bc61332ed3b4bd983f1e1294c" target="_top" xlink:title="Module deallocation and/or disassociation procedures.">
<polygon fill="white" stroke="#666666" points="296.5,-1010 174.5,-1010 174.5,-980 296.5,-980 296.5,-1010"/>
<text text-anchor="start" x="182.5" y="-998" font-family="Helvetica,sans-Serif" font-size="10.00">m_cbc::s_finalize_cbc</text>
<text text-anchor="middle" x="235.5" y="-987" font-family="Helvetica,sans-Serif" font-size="10.00">_module</text>
</a>
</g>
</g>
<!-- Node1&#45;&gt;Node4 -->
<g id="edge3_Node000001_Node000004" class="edge">
<title>Node1&#45;&gt;Node4</title>
<g id="a_edge3_Node000001_Node000004"><a xlink:title=" ">
<path fill="none" stroke="#63b8ff" d="M64.1,-579.14C71.43,-645.67 103.81,-911.51 159,-971 161.06,-973.22 163.33,-975.24 165.75,-977.07"/>
<polygon fill="#63b8ff" stroke="#63b8ff" points="164.17,-980.21 174.49,-982.61 167.91,-974.3 164.17,-980.21"/>
</a>
</g>
</g>
<!-- Node6 -->
<g id="Node000006" class="node">
<title>Node6</title>
<g id="a_Node000006"><a xlink:href="namespacem__data__output.html#a81d3138233e0f1a797c930dbf9543d71" target="_top" xlink:title="Module deallocation and/or disassociation procedures.">
<polygon fill="white" stroke="#666666" points="306.5,-962 164.5,-962 164.5,-932 306.5,-932 306.5,-962"/>
<text text-anchor="start" x="172.5" y="-950" font-family="Helvetica,sans-Serif" font-size="10.00">m_data_output::s_finalize</text>
<text text-anchor="middle" x="235.5" y="-939" font-family="Helvetica,sans-Serif" font-size="10.00">_data_output_module</text>
</a>
</g>
</g>
<!-- Node1&#45;&gt;Node6 -->
<g id="edge5_Node000001_Node000006" class="edge">
<title>Node1&#45;&gt;Node6</title>
<g id="a_edge5_Node000001_Node000006"><a xlink:title=" ">
<path fill="none" stroke="#63b8ff" d="M61.81,-579.03C60.17,-633.34 62.01,-821.53 159,-923 159.91,-923.95 160.85,-924.86 161.83,-925.74"/>
<polygon fill="#63b8ff" stroke="#63b8ff" points="159.82,-928.61 169.93,-931.78 164.01,-923 159.82,-928.61"/>
</a>
</g>
</g>
<!-- Node7 -->
<g id="Node000007" class="node">
<title>Node7</title>
<g id="a_Node000007"><a xlink:href="namespacem__derived__variables.html#ad5dfada9c933c6a4d3f9b41a8b7a98f9" target="_top" xlink:title="Deallocation procedures for the module.">
<polygon fill="white" stroke="#666666" points="295,-913.5 176,-913.5 176,-872.5 295,-872.5 295,-913.5"/>
<text text-anchor="start" x="184" y="-901.5" font-family="Helvetica,sans-Serif" font-size="10.00">m_derived_variables</text>
<text text-anchor="start" x="184" y="-890.5" font-family="Helvetica,sans-Serif" font-size="10.00">::s_finalize_derived</text>
<text text-anchor="middle" x="235.5" y="-879.5" font-family="Helvetica,sans-Serif" font-size="10.00">_variables_module</text>
</a>
</g>
</g>
<!-- Node1&#45;&gt;Node7 -->
<g id="edge6_Node000001_Node000007" class="edge">
<title>Node1&#45;&gt;Node7</title>
<g id="a_edge6_Node000001_Node000007"><a xlink:title=" ">
<path fill="none" stroke="#63b8ff" d="M62.96,-579.04C65.23,-627.17 78.73,-779.14 159,-864 161.56,-866.71 164.41,-869.17 167.45,-871.4"/>
<polygon fill="#63b8ff" stroke="#63b8ff" points="165.58,-874.36 175.89,-876.79 169.34,-868.46 165.58,-874.36"/>
</a>
</g>
</g>
<!-- Node8 -->
<g id="Node000008" class="node">
<title>Node8</title>
<g id="a_Node000008"><a xlink:href="namespacem__global__parameters.html#a16ad4c64940e4b092652f3c1c6df76c7" target="_top" xlink:title="Module deallocation and/or disassociation procedures.">
<polygon fill="white" stroke="#666666" points="297,-854.5 174,-854.5 174,-813.5 297,-813.5 297,-854.5"/>
<text text-anchor="start" x="182" y="-842.5" font-family="Helvetica,sans-Serif" font-size="10.00">m_global_parameters</text>
<text text-anchor="start" x="182" y="-831.5" font-family="Helvetica,sans-Serif" font-size="10.00">::s_finalize_global</text>
<text text-anchor="middle" x="235.5" y="-820.5" font-family="Helvetica,sans-Serif" font-size="10.00">_parameters_module</text>
</a>
</g>
</g>
<!-- Node1&#45;&gt;Node8 -->
<g id="edge7_Node000001_Node000008" class="edge">
<title>Node1&#45;&gt;Node8</title>
<g id="a_edge7_Node000001_Node000008"><a xlink:title=" ">
<path fill="none" stroke="#63b8ff" d="M64.43,-579.2C70.48,-620.84 92.81,-738.08 159,-804 161.06,-806.05 163.28,-807.97 165.62,-809.76"/>
<polygon fill="#63b8ff" stroke="#63b8ff" points="163.72,-812.7 173.97,-815.36 167.62,-806.89 163.72,-812.7"/>
</a>
</g>
</g>
<!-- Node9 -->
<g id="Node000009" class="node">
<title>Node9</title>
<g id="a_Node000009"><a xlink:href="namespacem__hyperelastic.html#a3cc4a7148de7e55c4d895a49e1564339" target="_top" xlink:title=" ">
<polygon fill="white" stroke="#666666" points="307,-795 164,-795 164,-765 307,-765 307,-795"/>
<text text-anchor="start" x="172" y="-783" font-family="Helvetica,sans-Serif" font-size="10.00">m_hyperelastic::s_finalize</text>
<text text-anchor="middle" x="235.5" y="-772" font-family="Helvetica,sans-Serif" font-size="10.00">_hyperelastic_module</text>
</a>
</g>
</g>
<!-- Node1&#45;&gt;Node9 -->
<g id="edge8_Node000001_Node000009" class="edge">
<title>Node1&#45;&gt;Node9</title>
<g id="a_edge8_Node000001_Node000009"><a xlink:title=" ">
<path fill="none" stroke="#63b8ff" d="M65.85,-579.23C74.6,-615.37 101.53,-706.96 159,-756 160.37,-757.17 161.79,-758.28 163.26,-759.33"/>
<polygon fill="#63b8ff" stroke="#63b8ff" points="161.8,-762.54 172.15,-764.81 165.47,-756.58 161.8,-762.54"/>
</a>
</g>
</g>
<!-- Node10 -->
<g id="Node000010" class="node">
<title>Node10</title>
<g id="a_Node000010"><a xlink:href="namespacem__hypoelastic.html#af55a4cd98f2c7efebc4d7d6730ca8aa5" target="_top" xlink:title=" ">
<polygon fill="white" stroke="#666666" points="305.5,-747 165.5,-747 165.5,-717 305.5,-717 305.5,-747"/>
<text text-anchor="start" x="173.5" y="-735" font-family="Helvetica,sans-Serif" font-size="10.00">m_hypoelastic::s_finalize</text>
<text text-anchor="middle" x="235.5" y="-724" font-family="Helvetica,sans-Serif" font-size="10.00">_hypoelastic_module</text>
</a>
</g>
</g>
<!-- Node1&#45;&gt;Node10 -->
<g id="edge9_Node000001_Node000010" class="edge">
<title>Node1&#45;&gt;Node10</title>
<g id="a_edge9_Node000001_Node000010"><a xlink:title=" ">
<path fill="none" stroke="#63b8ff" d="M68.52,-579.08C80.97,-608.32 112.31,-672.94 159,-708 160.88,-709.41 162.84,-710.74 164.87,-711.99"/>
<polygon fill="#63b8ff" stroke="#63b8ff" points="163.65,-715.31 174.11,-717 166.99,-709.16 163.65,-715.31"/>
</a>
</g>
</g>
<!-- Node11 -->
<g id="Node000011" class="node">
<title>Node11</title>
<g id="a_Node000011"><a xlink:href="namespacem__igr.html#a94a20e8b3b9baf56c5b890258c851513" target="_top" xlink:title=" ">
<polygon fill="white" stroke="#666666" points="292.5,-699 178.5,-699 178.5,-669 292.5,-669 292.5,-699"/>
<text text-anchor="start" x="186.5" y="-687" font-family="Helvetica,sans-Serif" font-size="10.00">m_igr::s_finalize_igr</text>
<text text-anchor="middle" x="235.5" y="-676" font-family="Helvetica,sans-Serif" font-size="10.00">_module</text>
</a>
</g>
</g>
<!-- Node1&#45;&gt;Node11 -->
<g id="edge10_Node000001_Node000011" class="edge">
<title>Node1&#45;&gt;Node11</title>
<g id="a_edge10_Node000001_Node000011"><a xlink:title=" ">
<path fill="none" stroke="#63b8ff" d="M73.9,-579.23C90.43,-600.29 123.04,-638.18 159,-660 162.19,-661.93 165.54,-663.73 169,-665.39"/>
<polygon fill="#63b8ff" stroke="#63b8ff" points="167.77,-668.67 178.33,-669.48 170.58,-662.26 167.77,-668.67"/>
</a>
</g>
</g>
<!-- Node12 -->
<g id="Node000012" class="node">
<title>Node12</title>
<g id="a_Node000012"><a xlink:href="namespacem__bubbles__el.html#ade4e00f6ff205074c51fac9ee67b5fc1" target="_top" xlink:title="The purpose of this subroutine is to deallocate variables.">
<polygon fill="white" stroke="#666666" points="303.5,-651 167.5,-651 167.5,-621 303.5,-621 303.5,-651"/>
<text text-anchor="start" x="175.5" y="-639" font-family="Helvetica,sans-Serif" font-size="10.00">m_bubbles_el::s_finalize</text>
<text text-anchor="middle" x="235.5" y="-628" font-family="Helvetica,sans-Serif" font-size="10.00">_lagrangian_solver</text>
</a>
</g>
</g>
<!-- Node1&#45;&gt;Node12 -->
<g id="edge11_Node000001_Node000012" class="edge">
<title>Node1&#45;&gt;Node12</title>
<g id="a_edge11_Node000001_Node000012"><a xlink:title=" ">
<path fill="none" stroke="#63b8ff" d="M89.85,-579.02C108.89,-589.12 135.07,-602.31 159,-612 163.74,-613.92 168.69,-615.79 173.7,-617.58"/>
<polygon fill="#63b8ff" stroke="#63b8ff" points="172.76,-620.95 183.35,-620.92 175.05,-614.34 172.76,-620.95"/>
</a>
</g>
</g>
<!-- Node13 -->
<g id="Node000013" class="node">
<title>Node13</title>
<g id="a_Node000013"><a xlink:href="namespacem__mhd.html#a0ac0931efb86c1853b8b707a355e2d7e" target="_top" xlink:title=" ">
<polygon fill="white" stroke="#666666" points="301.5,-603 169.5,-603 169.5,-573 301.5,-573 301.5,-603"/>
<text text-anchor="start" x="177.5" y="-591" font-family="Helvetica,sans-Serif" font-size="10.00">m_mhd::s_finalize_mhd</text>
<text text-anchor="middle" x="235.5" y="-580" font-family="Helvetica,sans-Serif" font-size="10.00">_powell_module</text>
</a>
</g>
</g>
<!-- Node1&#45;&gt;Node13 -->
<g id="edge12_Node000001_Node000013" class="edge">
<title>Node1&#45;&gt;Node13</title>
<g id="a_edge12_Node000001_Node000013"><a xlink:title=" ">
<path fill="none" stroke="#63b8ff" d="M123.14,-572.46C134.85,-574.1 147.25,-575.83 159.36,-577.52"/>
<polygon fill="#63b8ff" stroke="#63b8ff" points="159.06,-581.01 169.44,-578.92 160.02,-574.07 159.06,-581.01"/>
</a>
</g>
</g>
<!-- Node14 -->
<g id="Node000014" class="node">
<title>Node14</title>
<g id="a_Node000014"><a xlink:href="namespacem__mpi__common.html#ab9e557649b1fca986ee793073abae4d4" target="_top" xlink:title="Module deallocation and/or disassociation procedures.">
<polygon fill="white" stroke="#666666" points="310.5,-555 160.5,-555 160.5,-525 310.5,-525 310.5,-555"/>
<text text-anchor="start" x="168.5" y="-543" font-family="Helvetica,sans-Serif" font-size="10.00">m_mpi_common::s_finalize</text>
<text text-anchor="middle" x="235.5" y="-532" font-family="Helvetica,sans-Serif" font-size="10.00">_mpi_common_module</text>
</a>
</g>
</g>
<!-- Node1&#45;&gt;Node14 -->
<g id="edge13_Node000001_Node000014" class="edge">
<title>Node1&#45;&gt;Node14</title>
<g id="a_edge13_Node000001_Node000014"><a xlink:title=" ">
<path fill="none" stroke="#63b8ff" d="M123.14,-555.54C131.95,-554.31 141.15,-553.03 150.31,-551.75"/>
<polygon fill="#63b8ff" stroke="#63b8ff" points="150.81,-555.21 160.23,-550.36 149.85,-548.28 150.81,-555.21"/>
</a>
</g>
</g>
<!-- Node15 -->
<g id="Node000015" class="node">
<title>Node15</title>
<g id="a_Node000015"><a xlink:href="namespacem__mpi__proxy.html#ac984c84fe4140876d6600250af9807da" target="_top" xlink:title=" ">
<polygon fill="white" stroke="#666666" points="302.5,-507 168.5,-507 168.5,-477 302.5,-477 302.5,-507"/>
<text text-anchor="start" x="176.5" y="-495" font-family="Helvetica,sans-Serif" font-size="10.00">m_mpi_proxy::s_finalize</text>
<text text-anchor="middle" x="235.5" y="-484" font-family="Helvetica,sans-Serif" font-size="10.00">_mpi_proxy_module</text>
</a>
</g>
</g>
<!-- Node1&#45;&gt;Node15 -->
<g id="edge14_Node000001_Node000015" class="edge">
<title>Node1&#45;&gt;Node15</title>
<g id="a_edge14_Node000001_Node000015"><a xlink:title=" ">
<path fill="none" stroke="#63b8ff" d="M89.85,-548.98C108.89,-538.88 135.07,-525.69 159,-516 163.74,-514.08 168.69,-512.21 173.7,-510.42"/>
<polygon fill="#63b8ff" stroke="#63b8ff" points="175.05,-513.66 183.35,-507.08 172.76,-507.05 175.05,-513.66"/>
</a>
</g>
</g>
<!-- Node16 -->
<g id="Node000016" class="node">
<title>Node16</title>
<g id="a_Node000016"><a xlink:href="namespacem__phase__change.html#a14dd0bb1de0c3205491af730be9405f9" target="_top" xlink:title="This subroutine finalizes the phase change module.">
<polygon fill="white" stroke="#666666" points="312,-459 159,-459 159,-429 312,-429 312,-459"/>
<text text-anchor="start" x="167" y="-447" font-family="Helvetica,sans-Serif" font-size="10.00">m_phase_change::s_finalize</text>
<text text-anchor="middle" x="235.5" y="-436" font-family="Helvetica,sans-Serif" font-size="10.00">_relaxation_solver_module</text>
</a>
</g>
</g>
<!-- Node1&#45;&gt;Node16 -->
<g id="edge15_Node000001_Node000016" class="edge">
<title>Node1&#45;&gt;Node16</title>
<g id="a_edge15_Node000001_Node000016"><a xlink:title=" ">
<path fill="none" stroke="#63b8ff" d="M73.9,-548.77C90.43,-527.71 123.04,-489.82 159,-468 161.82,-466.29 164.78,-464.69 167.82,-463.19"/>
<polygon fill="#63b8ff" stroke="#63b8ff" points="169.46,-466.29 177.15,-459 166.59,-459.9 169.46,-466.29"/>
</a>
</g>
</g>
<!-- Node17 -->
<g id="Node000017" class="node">
<title>Node17</title>
<g id="a_Node000017"><a xlink:href="namespacem__rhs.html#aeefd0e45989eb229ad465d3f56cda6f9" target="_top" xlink:title="Module deallocation and/or disassociation procedures.">
<polygon fill="white" stroke="#666666" points="295,-411 176,-411 176,-381 295,-381 295,-411"/>
<text text-anchor="start" x="184" y="-399" font-family="Helvetica,sans-Serif" font-size="10.00">m_rhs::s_finalize_rhs</text>
<text text-anchor="middle" x="235.5" y="-388" font-family="Helvetica,sans-Serif" font-size="10.00">_module</text>
</a>
</g>
</g>
<!-- Node1&#45;&gt;Node17 -->
<g id="edge16_Node000001_Node000017" class="edge">
<title>Node1&#45;&gt;Node17</title>
<g id="a_edge16_Node000001_Node000017"><a xlink:title=" ">
<path fill="none" stroke="#63b8ff" d="M68.52,-548.92C80.97,-519.68 112.31,-455.06 159,-420 161.45,-418.16 164.05,-416.46 166.74,-414.88"/>
<polygon fill="#63b8ff" stroke="#63b8ff" points="168.37,-417.98 175.65,-410.28 165.16,-411.76 168.37,-417.98"/>
</a>
</g>
</g>
<!-- Node18 -->
<g id="Node000018" class="node">
<title>Node18</title>
<g id="a_Node000018"><a xlink:href="namespacem__riemann__solvers.html#a6649906000f121d43833493a8536987a" target="_top" xlink:title="Module deallocation and/or disassociation procedures.">
<polygon fill="white" stroke="#666666" points="310,-362.5 161,-362.5 161,-321.5 310,-321.5 310,-362.5"/>
<text text-anchor="start" x="169" y="-350.5" font-family="Helvetica,sans-Serif" font-size="10.00">m_riemann_solvers::</text>
<text text-anchor="start" x="169" y="-339.5" font-family="Helvetica,sans-Serif" font-size="10.00">s_finalize_riemann_solvers</text>
<text text-anchor="middle" x="235.5" y="-328.5" font-family="Helvetica,sans-Serif" font-size="10.00">_module</text>
</a>
</g>
</g>
<!-- Node1&#45;&gt;Node18 -->
<g id="edge17_Node000001_Node000018" class="edge">
<title>Node1&#45;&gt;Node18</title>
<g id="a_edge17_Node000001_Node000018"><a xlink:title=" ">
<path fill="none" stroke="#63b8ff" d="M66.15,-548.77C75.47,-513.02 103.43,-422.91 159,-372 160.32,-370.79 161.7,-369.62 163.12,-368.5"/>
<polygon fill="#63b8ff" stroke="#63b8ff" points="165.49,-371.13 171.72,-362.56 161.51,-365.37 165.49,-371.13"/>
</a>
</g>
</g>
<!-- Node19 -->
<g id="Node000019" class="node">
<title>Node19</title>
<g id="a_Node000019"><a xlink:href="namespacem__surface__tension.html#acfee64be67c2ca10b9e1ed0e759ed517" target="_top" xlink:title=" ">
<polygon fill="white" stroke="#666666" points="308,-303.5 163,-303.5 163,-262.5 308,-262.5 308,-303.5"/>
<text text-anchor="start" x="171" y="-291.5" font-family="Helvetica,sans-Serif" font-size="10.00">m_surface_tension::</text>
<text text-anchor="start" x="171" y="-280.5" font-family="Helvetica,sans-Serif" font-size="10.00">s_finalize_surface_tension</text>
<text text-anchor="middle" x="235.5" y="-269.5" font-family="Helvetica,sans-Serif" font-size="10.00">_module</text>
</a>
</g>
</g>
<!-- Node1&#45;&gt;Node19 -->
<g id="edge18_Node000001_Node000019" class="edge">
<title>Node1&#45;&gt;Node19</title>
<g id="a_edge18_Node000001_Node000019"><a xlink:title=" ">
<path fill="none" stroke="#63b8ff" d="M64.13,-548.74C69.49,-505.77 90.39,-382.38 159,-313 160.08,-311.9 161.21,-310.85 162.38,-309.82"/>
<polygon fill="#63b8ff" stroke="#63b8ff" points="164.73,-312.44 170.61,-303.62 160.52,-306.85 164.73,-312.44"/>
</a>
</g>
</g>
<!-- Node20 -->
<g id="Node000020" class="node">
<title>Node20</title>
<g id="a_Node000020"><a xlink:href="namespacem__time__steppers.html#aa8e209d6747df776d818d3d4320ccf4d" target="_top" xlink:title="Module deallocation and/or disassociation procedures.">
<polygon fill="white" stroke="#666666" points="301.5,-244.5 169.5,-244.5 169.5,-203.5 301.5,-203.5 301.5,-244.5"/>
<text text-anchor="start" x="177.5" y="-232.5" font-family="Helvetica,sans-Serif" font-size="10.00">m_time_steppers::s</text>
<text text-anchor="start" x="177.5" y="-221.5" font-family="Helvetica,sans-Serif" font-size="10.00">_finalize_time_steppers</text>
<text text-anchor="middle" x="235.5" y="-210.5" font-family="Helvetica,sans-Serif" font-size="10.00">_module</text>
</a>
</g>
</g>
<!-- Node1&#45;&gt;Node20 -->
<g id="edge19_Node000001_Node000020" class="edge">
<title>Node1&#45;&gt;Node20</title>
<g id="a_edge19_Node000001_Node000020"><a xlink:title=" ">
<path fill="none" stroke="#63b8ff" d="M62.82,-548.85C64.67,-499.66 77.03,-342.49 159,-254 159.92,-253.01 160.87,-252.05 161.86,-251.13"/>
<polygon fill="#63b8ff" stroke="#63b8ff" points="164.37,-253.6 169.99,-244.62 160,-248.13 164.37,-253.6"/>
</a>
</g>
</g>
<!-- Node21 -->
<g id="Node000021" class="node">
<title>Node21</title>
<g id="a_Node000021"><a xlink:href="namespacem__variables__conversion.html#aceaf9a1f34881d42e50dca63cbde506b" target="_top" xlink:title=" ">
<polygon fill="white" stroke="#666666" points="303,-185.5 168,-185.5 168,-144.5 303,-144.5 303,-185.5"/>
<text text-anchor="start" x="176" y="-173.5" font-family="Helvetica,sans-Serif" font-size="10.00">m_variables_conversion</text>
<text text-anchor="start" x="176" y="-162.5" font-family="Helvetica,sans-Serif" font-size="10.00">::s_finalize_variables</text>
<text text-anchor="middle" x="235.5" y="-151.5" font-family="Helvetica,sans-Serif" font-size="10.00">_conversion_module</text>
</a>
</g>
</g>
<!-- Node1&#45;&gt;Node21 -->
<g id="edge20_Node000001_Node000021" class="edge">
<title>Node1&#45;&gt;Node21</title>
<g id="a_edge20_Node000001_Node000021"><a xlink:title=" ">
<path fill="none" stroke="#63b8ff" d="M61.92,-548.79C60.64,-493.81 63.58,-302.88 159,-195 159.87,-194.02 160.77,-193.07 161.71,-192.15"/>
<polygon fill="#63b8ff" stroke="#63b8ff" points="164.02,-194.79 169.46,-185.7 159.54,-189.41 164.02,-194.79"/>
</a>
</g>
</g>
<!-- Node22 -->
<g id="Node000022" class="node">
<title>Node22</title>
<g id="a_Node000022"><a xlink:href="namespacem__viscous.html#aa3ef25c06b9615bed453231e9c9d69e9" target="_top" xlink:title=" ">
<polygon fill="white" stroke="#666666" points="295.5,-126 175.5,-126 175.5,-96 295.5,-96 295.5,-126"/>
<text text-anchor="start" x="183.5" y="-114" font-family="Helvetica,sans-Serif" font-size="10.00">m_viscous::s_finalize</text>
<text text-anchor="middle" x="235.5" y="-103" font-family="Helvetica,sans-Serif" font-size="10.00">_viscous_module</text>
</a>
</g>
</g>
<!-- Node1&#45;&gt;Node22 -->
<g id="edge21_Node000001_Node000022" class="edge">
<title>Node1&#45;&gt;Node22</title>
<g id="a_edge21_Node000001_Node000022"><a xlink:title=" ">
<path fill="none" stroke="#63b8ff" d="M63.96,-548.57C70.79,-479.49 101.7,-199.21 159,-136 161.27,-133.49 163.8,-131.24 166.52,-129.21"/>
<polygon fill="#63b8ff" stroke="#63b8ff" points="168.55,-132.06 175.15,-123.77 164.82,-126.14 168.55,-132.06"/>
</a>
</g>
</g>
<!-- Node23 -->
<g id="Node000023" class="node">
<title>Node23</title>
<g id="a_Node000023"><a xlink:href="namespacem__weno.html#afc23d265ba703e5a92adb409b67c22b3" target="_top" xlink:title="Module deallocation and/or disassociation procedures.">
<polygon fill="white" stroke="#666666" points="290.5,-78 180.5,-78 180.5,-48 290.5,-48 290.5,-78"/>
<text text-anchor="start" x="188.5" y="-66" font-family="Helvetica,sans-Serif" font-size="10.00">m_weno::s_finalize</text>
<text text-anchor="middle" x="235.5" y="-55" font-family="Helvetica,sans-Serif" font-size="10.00">_weno_module</text>
</a>
</g>
</g>
<!-- Node1&#45;&gt;Node23 -->
<g id="edge22_Node000001_Node000023" class="edge">
<title>Node1&#45;&gt;Node23</title>
<g id="a_edge22_Node000001_Node000023"><a xlink:title=" ">
<path fill="none" stroke="#63b8ff" d="M63.54,-548.81C68.85,-475.41 95.24,-158.06 159,-87 162.53,-83.07 166.69,-79.78 171.23,-77.02"/>
<polygon fill="#63b8ff" stroke="#63b8ff" points="173.03,-80.03 180.33,-72.36 169.84,-73.8 173.03,-80.03"/>
</a>
</g>
</g>
<!-- Node24 -->
<g id="Node000024" class="node">
<title>Node24</title>
<g id="a_Node000024"><a xlink:href="namespacem__mpi__common.html#a50d271a607262a2f55d7a00f7e692e38" target="_top" xlink:title="The subroutine finalizes the MPI execution environment.">
<polygon fill="white" stroke="#666666" points="302.5,-30 168.5,-30 168.5,0 302.5,0 302.5,-30"/>
<text text-anchor="start" x="176.5" y="-18" font-family="Helvetica,sans-Serif" font-size="10.00">m_mpi_common::s_mpi</text>
<text text-anchor="middle" x="235.5" y="-7" font-family="Helvetica,sans-Serif" font-size="10.00">_finalize</text>
</a>
</g>
</g>
<!-- Node1&#45;&gt;Node24 -->
<g id="edge23_Node000001_Node000024" class="edge">
<title>Node1&#45;&gt;Node24</title>
<g id="a_edge23_Node000001_Node000024"><a xlink:title=" ">
<path fill="none" stroke="#63b8ff" d="M63.23,-548.87C67.27,-471.22 89.3,-118.08 159,-39 159.75,-38.15 160.53,-37.33 161.34,-36.53"/>
<polygon fill="#63b8ff" stroke="#63b8ff" points="163.67,-39.15 169.27,-30.15 159.29,-33.69 163.67,-39.15"/>
</a>
</g>
</g>
<!-- Node5 -->
<g id="Node000005" class="node">
<title>Node5</title>
<g id="a_Node000005"><a xlink:href="namespacem__cbc.html#a38160b454562d74625f00b98cd204841" target="_top" xlink:title=" ">
<polygon fill="white" stroke="#666666" points="512,-1004.5 348,-1004.5 348,-985.5 512,-985.5 512,-1004.5"/>
<text text-anchor="middle" x="430" y="-992.5" font-family="Helvetica,sans-Serif" font-size="10.00">m_cbc::s_any_cbc_boundaries</text>
</a>
</g>
</g>
<!-- Node4&#45;&gt;Node5 -->
<g id="edge4_Node000004_Node000005" class="edge">
<title>Node4&#45;&gt;Node5</title>
<g id="a_edge4_Node000004_Node000005"><a xlink:title=" ">
<path fill="none" stroke="#63b8ff" d="M296.62,-995C309.67,-995 323.75,-995 337.7,-995"/>
<polygon fill="#63b8ff" stroke="#63b8ff" points="337.81,-998.5 347.81,-995 337.81,-991.5 337.81,-998.5"/>
</a>
</g>
</g>
</g>
</svg>

<g id="navigator" transform="translate(0 0)" fill="#404254">
  <rect fill="#f2f5e9" fill-opacity="0.5" stroke="#606060" stroke-width=".5" x="0" y="0" width="60" height="60"/>
  <use id="zoomplus" xlink:href="#zoomPlus" x="17" y="9" onmousedown="handleZoom(evt,'in')"/>
  <use id="zoomminus" xlink:href="#zoomMin" x="42" y="9" onmousedown="handleZoom(evt,'out')"/>
  <use id="reset" xlink:href="#resetDef" x="30" y="36" onmousedown="handleReset()"/>
   <use id="arrowup" xlink:href="#arrowUp" x="0" y="0" onmousedown="handlePan(0,-1)"/>
  <use id="arrowright" xlink:href="#arrowRight" x="0" y="0" onmousedown="handlePan(1,0)"/>
  <use id="arrowdown" xlink:href="#arrowDown" x="0" y="0" onmousedown="handlePan(0,1)"/>
  <use id="arrowleft" xlink:href="#arrowLeft" x="0" y="0" onmousedown="handlePan(-1,0)"/>
</g>
<svg viewBox="0 0 15 15" width="100%" height="30px" preserveAspectRatio="xMaxYMin meet">
 <g id="arrow_out" transform="scale(0.3 0.3)">
  <a xlink:href="namespacem__start__up_aca13f477717fbe9c77304a91bc9d8cc9_cgraph_org.svg" target="_base">
   <rect id="button" ry="5" rx="5" y="6" x="6" height="38" width="38"
        fill="#f2f5e9" fill-opacity="0.5" stroke="#606060" stroke-width="1.0"/>
   <path id="arrow"
     d="M 11.500037,31.436501 C 11.940474,20.09759 22.043105,11.32322 32.158766,21.979434 L 37.068811,17.246167 C 37.068811,17.246167 37.088388,32 37.088388,32 L 22.160133,31.978069 C 22.160133,31.978069 26.997745,27.140456 26.997745,27.140456 C 18.528582,18.264221 13.291696,25.230495 11.500037,31.436501 z"
     style="fill:#404040;"/>
  </a>
 </g>
</svg>

<style type='text/css'>
<![CDATA[
[data-mouse-over-selected='false'] { opacity: 0.7; }
[data-mouse-over-selected='true']  { opacity: 1.0; }
]]>
</style>
<script type="application/ecmascript"><![CDATA[
document.addEventListener('DOMContentLoaded', (event) => {
  highlightEdges();
  highlightAdjacentNodes();
});
]]></script>
</svg>
