<?xml version="1.0" encoding="UTF-8" standalone="no"?>
<!DOCTYPE svg PUBLIC "-//W3C//DTD SVG 1.1//EN"
 "http://www.w3.org/Graphics/SVG/1.1/DTD/svg11.dtd">
<!-- Generated by graphviz version 2.43.0 (0)
 -->
<!-- Title: m_start_up::s_finalize_modules Pages: 1 -->
<svg width="546pt" height="958pt"
 viewBox="0.00 0.00 546.00 957.50" xmlns="http://www.w3.org/2000/svg" xmlns:xlink="http://www.w3.org/1999/xlink">
<g id="graph0" class="graph" transform="scale(1 1) rotate(0) translate(4 953.5)">
<title>m_start_up::s_finalize_modules</title>
<!-- Node1 -->
<g id="Node000001" class="node">
<title>Node1</title>
<g id="a_Node000001"><a xlink:title=" ">
<polygon fill="#999999" stroke="#666666" points="123,-478.5 0,-478.5 0,-448.5 123,-448.5 123,-478.5"/>
<text text-anchor="start" x="8" y="-466.5" font-family="Helvetica,sans-Serif" font-size="10.00">m_start_up::s_finalize</text>
<text text-anchor="middle" x="61.5" y="-455.5" font-family="Helvetica,sans-Serif" font-size="10.00">_modules</text>
</a>
</g>
</g>
<!-- Node2 -->
<g id="Node000002" class="node">
<title>Node2</title>
<g id="a_Node000002"><a xlink:href="m__body__forces_8fpp_8f90.html#a1fbf0b4afab69c36f7054630a44d8085" target="_top" xlink:title=" ">
<polygon fill="white" stroke="#666666" points="302,-949.5 175,-949.5 175,-919.5 302,-919.5 302,-949.5"/>
<text text-anchor="start" x="183" y="-937.5" font-family="Helvetica,sans-Serif" font-size="10.00">s_finalize_body_forces</text>
<text text-anchor="middle" x="238.5" y="-926.5" font-family="Helvetica,sans-Serif" font-size="10.00">_module</text>
</a>
</g>
</g>
<!-- Node1&#45;&gt;Node2 -->
<g id="edge1_Node000001_Node000002" class="edge">
<title>Node1&#45;&gt;Node2</title>
<g id="a_edge1_Node000001_Node000002"><a xlink:title=" ">
<path fill="none" stroke="#63b8ff" d="M63.74,-478.68C69.82,-549.28 98.55,-844.75 159,-910.5 161.08,-912.76 163.37,-914.81 165.81,-916.67"/>
<polygon fill="#63b8ff" stroke="#63b8ff" points="164.33,-919.88 174.65,-922.29 168.08,-913.97 164.33,-919.88"/>
</a>
</g>
</g>
<!-- Node3 -->
<g id="Node000003" class="node">
<title>Node3</title>
<g id="a_Node000003"><a xlink:href="m__boundary__common_8fpp_8f90.html#aef75321f090b6f95897d0fb0134b7cd5" target="_top" xlink:title=" ">
<polygon fill="white" stroke="#666666" points="295,-901.5 182,-901.5 182,-871.5 295,-871.5 295,-901.5"/>
<text text-anchor="start" x="190" y="-889.5" font-family="Helvetica,sans-Serif" font-size="10.00">s_finalize_boundary</text>
<text text-anchor="middle" x="238.5" y="-878.5" font-family="Helvetica,sans-Serif" font-size="10.00">_common_module</text>
</a>
</g>
</g>
<!-- Node1&#45;&gt;Node3 -->
<g id="edge2_Node000001_Node000003" class="edge">
<title>Node1&#45;&gt;Node3</title>
<g id="a_edge2_Node000001_Node000003"><a xlink:title=" ">
<path fill="none" stroke="#63b8ff" d="M64.18,-478.8C71.73,-544.83 104.5,-804.67 159,-862.5 162.91,-866.65 167.51,-870.09 172.5,-872.94"/>
<polygon fill="#63b8ff" stroke="#63b8ff" points="171.3,-876.24 181.82,-877.45 174.35,-869.94 171.3,-876.24"/>
</a>
</g>
</g>
<!-- Node4 -->
<g id="Node000004" class="node">
<title>Node4</title>
<g id="a_Node000004"><a xlink:href="m__cbc_8fpp_8f90.html#ac8679181a07d098cf600b99a2d616359" target="_top" xlink:title="Module deallocation and/or disassociation procedures.">
<polygon fill="white" stroke="#666666" points="301.5,-853 175.5,-853 175.5,-834 301.5,-834 301.5,-853"/>
<text text-anchor="middle" x="238.5" y="-841" font-family="Helvetica,sans-Serif" font-size="10.00">s_finalize_cbc_module</text>
</a>
</g>
</g>
<!-- Node1&#45;&gt;Node4 -->
<g id="edge3_Node000001_Node000004" class="edge">
<title>Node1&#45;&gt;Node4</title>
<g id="a_edge3_Node000001_Node000004"><a xlink:title=" ">
<path fill="none" stroke="#63b8ff" d="M64.48,-478.67C72.9,-540.71 107.6,-774.3 159,-824.5 161.28,-826.73 163.78,-828.71 166.44,-830.48"/>
<polygon fill="#63b8ff" stroke="#63b8ff" points="164.94,-833.65 175.39,-835.39 168.31,-827.51 164.94,-833.65"/>
</a>
</g>
</g>
<!-- Node6 -->
<g id="Node000006" class="node">
<title>Node6</title>
<g id="a_Node000006"><a xlink:href="m__data__output_8fpp_8f90.html#a05b7c052fd896cc5d93a97033008ea0f" target="_top" xlink:title="Module deallocation and/or disassociation procedures.">
<polygon fill="white" stroke="#666666" points="301.5,-815.5 175.5,-815.5 175.5,-785.5 301.5,-785.5 301.5,-815.5"/>
<text text-anchor="start" x="183.5" y="-803.5" font-family="Helvetica,sans-Serif" font-size="10.00">s_finalize_data_output</text>
<text text-anchor="middle" x="238.5" y="-792.5" font-family="Helvetica,sans-Serif" font-size="10.00">_module</text>
</a>
</g>
</g>
<!-- Node1&#45;&gt;Node6 -->
<g id="edge5_Node000001_Node000006" class="edge">
<title>Node1&#45;&gt;Node6</title>
<g id="a_edge5_Node000001_Node000006"><a xlink:title=" ">
<path fill="none" stroke="#63b8ff" d="M62.48,-478.72C63.25,-528.82 72.65,-690.35 159,-776.5 161.37,-778.87 163.97,-781 166.73,-782.92"/>
<polygon fill="#63b8ff" stroke="#63b8ff" points="165.06,-786 175.45,-788.09 168.63,-779.98 165.06,-786"/>
</a>
</g>
</g>
<!-- Node7 -->
<g id="Node000007" class="node">
<title>Node7</title>
<g id="a_Node000007"><a xlink:href="namespacem__derived__variables.html#ad5dfada9c933c6a4d3f9b41a8b7a98f9" target="_top" xlink:title="Deallocation procedures for the module.">
<polygon fill="white" stroke="#666666" points="298,-767 179,-767 179,-726 298,-726 298,-767"/>
<text text-anchor="start" x="187" y="-755" font-family="Helvetica,sans-Serif" font-size="10.00">m_derived_variables</text>
<text text-anchor="start" x="187" y="-744" font-family="Helvetica,sans-Serif" font-size="10.00">::s_finalize_derived</text>
<text text-anchor="middle" x="238.5" y="-733" font-family="Helvetica,sans-Serif" font-size="10.00">_variables_module</text>
</a>
</g>
</g>
<!-- Node1&#45;&gt;Node7 -->
<g id="edge6_Node000001_Node000007" class="edge">
<title>Node1&#45;&gt;Node7</title>
<g id="a_edge6_Node000001_Node000007"><a xlink:title=" ">
<path fill="none" stroke="#63b8ff" d="M63.95,-478.71C68.87,-522.12 88.8,-647.94 159,-717.5 162.28,-720.75 165.96,-723.64 169.88,-726.21"/>
<polygon fill="#63b8ff" stroke="#63b8ff" points="168.4,-729.4 178.81,-731.34 171.88,-723.33 168.4,-729.4"/>
</a>
</g>
</g>
<!-- Node10 -->
<g id="Node000010" class="node">
<title>Node10</title>
<g id="a_Node000010"><a xlink:href="m__fftw_8fpp_8f90.html#ad40d57ae7af142da4316c92e7bff41a8" target="_top" xlink:title="The purpose of this subroutine is to destroy the fftw plan that will be used in the forward and backw...">
<polygon fill="white" stroke="#666666" points="302.5,-708 174.5,-708 174.5,-689 302.5,-689 302.5,-708"/>
<text text-anchor="middle" x="238.5" y="-696" font-family="Helvetica,sans-Serif" font-size="10.00">s_finalize_fftw_module</text>
</a>
</g>
</g>
<!-- Node1&#45;&gt;Node10 -->
<g id="edge9_Node000001_Node000010" class="edge">
<title>Node1&#45;&gt;Node10</title>
<g id="a_edge9_Node000001_Node000010"><a xlink:title=" ">
<path fill="none" stroke="#63b8ff" d="M64.62,-478.52C71,-517.98 93.81,-625.25 159,-679.5 161.03,-681.19 163.18,-682.73 165.43,-684.14"/>
<polygon fill="#63b8ff" stroke="#63b8ff" points="164.05,-687.37 174.53,-688.94 167.32,-681.17 164.05,-687.37"/>
</a>
</g>
</g>
<!-- Node11 -->
<g id="Node000011" class="node">
<title>Node11</title>
<g id="a_Node000011"><a xlink:href="m__global__parameters_8fpp_8f90.html#af0e611ab428938d52255de2e1c2db63b" target="_top" xlink:title="Module deallocation and/or disassociation procedures.">
<polygon fill="white" stroke="#666666" points="318,-670.5 159,-670.5 159,-640.5 318,-640.5 318,-670.5"/>
<text text-anchor="start" x="167" y="-658.5" font-family="Helvetica,sans-Serif" font-size="10.00">s_finalize_global_parameters</text>
<text text-anchor="middle" x="238.5" y="-647.5" font-family="Helvetica,sans-Serif" font-size="10.00">_module</text>
</a>
</g>
</g>
<!-- Node1&#45;&gt;Node11 -->
<g id="edge10_Node000001_Node000011" class="edge">
<title>Node1&#45;&gt;Node11</title>
<g id="a_edge10_Node000001_Node000011"><a xlink:title=" ">
<path fill="none" stroke="#63b8ff" d="M66.94,-478.57C77.38,-511.4 106.66,-589.77 159,-631.5 160.77,-632.91 162.61,-634.23 164.53,-635.48"/>
<polygon fill="#63b8ff" stroke="#63b8ff" points="162.86,-638.56 173.28,-640.47 166.32,-632.48 162.86,-638.56"/>
</a>
</g>
</g>
<!-- Node12 -->
<g id="Node000012" class="node">
<title>Node12</title>
<g id="a_Node000012"><a xlink:href="m__hyperelastic_8fpp_8f90.html#a14ba22b856c7b3f84488dfd31f7fc875" target="_top" xlink:title=" ">
<polygon fill="white" stroke="#666666" points="302.5,-622.5 174.5,-622.5 174.5,-592.5 302.5,-592.5 302.5,-622.5"/>
<text text-anchor="start" x="182.5" y="-610.5" font-family="Helvetica,sans-Serif" font-size="10.00">s_finalize_hyperelastic</text>
<text text-anchor="middle" x="238.5" y="-599.5" font-family="Helvetica,sans-Serif" font-size="10.00">_module</text>
</a>
</g>
</g>
<!-- Node1&#45;&gt;Node12 -->
<g id="edge11_Node000001_Node000012" class="edge">
<title>Node1&#45;&gt;Node12</title>
<g id="a_edge11_Node000001_Node000012"><a xlink:title=" ">
<path fill="none" stroke="#63b8ff" d="M70.73,-478.85C85.19,-504.36 117.6,-555.47 159,-583.5 161.38,-585.11 163.87,-586.62 166.44,-588.02"/>
<polygon fill="#63b8ff" stroke="#63b8ff" points="164.92,-591.18 175.44,-592.44 168,-584.89 164.92,-591.18"/>
</a>
</g>
</g>
<!-- Node13 -->
<g id="Node000013" class="node">
<title>Node13</title>
<g id="a_Node000013"><a xlink:href="m__hypoelastic_8fpp_8f90.html#aec6333ac63b93aea03602270da56b5d0" target="_top" xlink:title=" ">
<polygon fill="white" stroke="#666666" points="300.5,-574.5 176.5,-574.5 176.5,-544.5 300.5,-544.5 300.5,-574.5"/>
<text text-anchor="start" x="184.5" y="-562.5" font-family="Helvetica,sans-Serif" font-size="10.00">s_finalize_hypoelastic</text>
<text text-anchor="middle" x="238.5" y="-551.5" font-family="Helvetica,sans-Serif" font-size="10.00">_module</text>
</a>
</g>
</g>
<!-- Node1&#45;&gt;Node13 -->
<g id="edge12_Node000001_Node000013" class="edge">
<title>Node1&#45;&gt;Node13</title>
<g id="a_edge12_Node000001_Node000013"><a xlink:title=" ">
<path fill="none" stroke="#63b8ff" d="M79.08,-478.71C97.42,-494.82 128.42,-520.01 159,-535.5 162.72,-537.38 166.61,-539.15 170.59,-540.8"/>
<polygon fill="#63b8ff" stroke="#63b8ff" points="169.41,-544.1 179.99,-544.45 171.94,-537.57 169.41,-544.1"/>
</a>
</g>
</g>
<!-- Node14 -->
<g id="Node000014" class="node">
<title>Node14</title>
<g id="a_Node000014"><a xlink:href="m__bubbles__EL_8fpp_8f90.html#a73042e8c58d92943b1c313271b2945d9" target="_top" xlink:title="The purpose of this subroutine is to deallocate variables.">
<polygon fill="white" stroke="#666666" points="298,-526.5 179,-526.5 179,-496.5 298,-496.5 298,-526.5"/>
<text text-anchor="start" x="187" y="-514.5" font-family="Helvetica,sans-Serif" font-size="10.00">s_finalize_lagrangian</text>
<text text-anchor="middle" x="238.5" y="-503.5" font-family="Helvetica,sans-Serif" font-size="10.00">_solver</text>
</a>
</g>
</g>
<!-- Node1&#45;&gt;Node14 -->
<g id="edge13_Node000001_Node000014" class="edge">
<title>Node1&#45;&gt;Node14</title>
<g id="a_edge13_Node000001_Node000014"><a xlink:title=" ">
<path fill="none" stroke="#63b8ff" d="M117.39,-478.56C135.06,-483.4 154.81,-488.82 173.1,-493.84"/>
<polygon fill="#63b8ff" stroke="#63b8ff" points="172.23,-497.23 182.8,-496.5 174.09,-490.48 172.23,-497.23"/>
</a>
</g>
</g>
<!-- Node15 -->
<g id="Node000015" class="node">
<title>Node15</title>
<g id="a_Node000015"><a xlink:href="m__mhd_8fpp_8f90.html#af5f6711527de27ad4f59740e74f8d283" target="_top" xlink:title=" ">
<polygon fill="white" stroke="#666666" points="302,-478.5 175,-478.5 175,-448.5 302,-448.5 302,-478.5"/>
<text text-anchor="start" x="183" y="-466.5" font-family="Helvetica,sans-Serif" font-size="10.00">s_finalize_mhd_powell</text>
<text text-anchor="middle" x="238.5" y="-455.5" font-family="Helvetica,sans-Serif" font-size="10.00">_module</text>
</a>
</g>
</g>
<!-- Node1&#45;&gt;Node15 -->
<g id="edge14_Node000001_Node000015" class="edge">
<title>Node1&#45;&gt;Node15</title>
<g id="a_edge14_Node000001_Node000015"><a xlink:title=" ">
<path fill="none" stroke="#63b8ff" d="M123.22,-463.5C136.51,-463.5 150.72,-463.5 164.44,-463.5"/>
<polygon fill="#63b8ff" stroke="#63b8ff" points="164.81,-467 174.81,-463.5 164.81,-460 164.81,-467"/>
</a>
</g>
</g>
<!-- Node16 -->
<g id="Node000016" class="node">
<title>Node16</title>
<g id="a_Node000016"><a xlink:href="m__mpi__common_8fpp_8f90.html#ada1c0e0d70bc0b0057e4ff2a29ddbf80" target="_top" xlink:title="Module deallocation and/or disassociation procedures.">
<polygon fill="white" stroke="#666666" points="305.5,-430.5 171.5,-430.5 171.5,-400.5 305.5,-400.5 305.5,-430.5"/>
<text text-anchor="start" x="179.5" y="-418.5" font-family="Helvetica,sans-Serif" font-size="10.00">s_finalize_mpi_common</text>
<text text-anchor="middle" x="238.5" y="-407.5" font-family="Helvetica,sans-Serif" font-size="10.00">_module</text>
</a>
</g>
</g>
<!-- Node1&#45;&gt;Node16 -->
<g id="edge15_Node000001_Node000016" class="edge">
<title>Node1&#45;&gt;Node16</title>
<g id="a_edge15_Node000001_Node000016"><a xlink:title=" ">
<path fill="none" stroke="#63b8ff" d="M117.39,-448.44C135.06,-443.6 154.81,-438.18 173.1,-433.16"/>
<polygon fill="#63b8ff" stroke="#63b8ff" points="174.09,-436.52 182.8,-430.5 172.23,-429.77 174.09,-436.52"/>
</a>
</g>
</g>
<!-- Node17 -->
<g id="Node000017" class="node">
<title>Node17</title>
<g id="a_Node000017"><a xlink:href="m__phase__change_8fpp_8f90.html#a833d9d23f8f2aa20520a8bd8ba86eefe" target="_top" xlink:title="This subroutine finalizes the phase change module.">
<polygon fill="white" stroke="#666666" points="297,-382.5 180,-382.5 180,-352.5 297,-352.5 297,-382.5"/>
<text text-anchor="start" x="188" y="-370.5" font-family="Helvetica,sans-Serif" font-size="10.00">s_finalize_relaxation</text>
<text text-anchor="middle" x="238.5" y="-359.5" font-family="Helvetica,sans-Serif" font-size="10.00">_solver_module</text>
</a>
</g>
</g>
<!-- Node1&#45;&gt;Node17 -->
<g id="edge16_Node000001_Node000017" class="edge">
<title>Node1&#45;&gt;Node17</title>
<g id="a_edge16_Node000001_Node000017"><a xlink:title=" ">
<path fill="none" stroke="#63b8ff" d="M79.08,-448.29C97.42,-432.18 128.42,-406.99 159,-391.5 162.72,-389.62 166.61,-387.85 170.59,-386.2"/>
<polygon fill="#63b8ff" stroke="#63b8ff" points="171.94,-389.43 179.99,-382.55 169.41,-382.9 171.94,-389.43"/>
</a>
</g>
</g>
<!-- Node18 -->
<g id="Node000018" class="node">
<title>Node18</title>
<g id="a_Node000018"><a xlink:href="m__rhs_8fpp_8f90.html#aca22ae3820bba1d1665f4ef81b69680e" target="_top" xlink:title="Module deallocation and/or disassociation procedures.">
<polygon fill="white" stroke="#666666" points="301,-334 176,-334 176,-315 301,-315 301,-334"/>
<text text-anchor="middle" x="238.5" y="-322" font-family="Helvetica,sans-Serif" font-size="10.00">s_finalize_rhs_module</text>
</a>
</g>
</g>
<!-- Node1&#45;&gt;Node18 -->
<g id="edge17_Node000001_Node000018" class="edge">
<title>Node1&#45;&gt;Node18</title>
<g id="a_edge17_Node000001_Node000018"><a xlink:title=" ">
<path fill="none" stroke="#63b8ff" d="M70.33,-448.3C84.41,-422.52 116.56,-370.43 159,-343.5 162.37,-341.36 165.95,-339.47 169.67,-337.78"/>
<polygon fill="#63b8ff" stroke="#63b8ff" points="171.13,-340.97 179.13,-334.02 168.54,-334.47 171.13,-340.97"/>
</a>
</g>
</g>
<!-- Node19 -->
<g id="Node000019" class="node">
<title>Node19</title>
<g id="a_Node000019"><a xlink:href="m__riemann__solvers_8fpp_8f90.html#a620f5b4404c945de20f72a9f7b29725b" target="_top" xlink:title="Module deallocation and/or disassociation procedures.">
<polygon fill="white" stroke="#666666" points="292.5,-296.5 184.5,-296.5 184.5,-266.5 292.5,-266.5 292.5,-296.5"/>
<text text-anchor="start" x="192.5" y="-284.5" font-family="Helvetica,sans-Serif" font-size="10.00">s_finalize_riemann</text>
<text text-anchor="middle" x="238.5" y="-273.5" font-family="Helvetica,sans-Serif" font-size="10.00">_solvers_module</text>
</a>
</g>
</g>
<!-- Node1&#45;&gt;Node19 -->
<g id="edge18_Node000001_Node000019" class="edge">
<title>Node1&#45;&gt;Node19</title>
<g id="a_edge18_Node000001_Node000019"><a xlink:title=" ">
<path fill="none" stroke="#63b8ff" d="M67.78,-448.04C79.28,-416.65 109.61,-345.15 159,-306.5 163.76,-302.77 169.09,-299.6 174.67,-296.89"/>
<polygon fill="#63b8ff" stroke="#63b8ff" points="176.45,-299.93 184.25,-292.76 173.68,-293.5 176.45,-299.93"/>
</a>
</g>
</g>
<!-- Node20 -->
<g id="Node000020" class="node">
<title>Node20</title>
<g id="a_Node000020"><a xlink:href="m__surface__tension_8fpp_8f90.html#abf3311cd1175fe504f14a9a138e685f6" target="_top" xlink:title=" ">
<polygon fill="white" stroke="#666666" points="290.5,-248.5 186.5,-248.5 186.5,-218.5 290.5,-218.5 290.5,-248.5"/>
<text text-anchor="start" x="194.5" y="-236.5" font-family="Helvetica,sans-Serif" font-size="10.00">s_finalize_surface</text>
<text text-anchor="middle" x="238.5" y="-225.5" font-family="Helvetica,sans-Serif" font-size="10.00">_tension_module</text>
</a>
</g>
</g>
<!-- Node1&#45;&gt;Node20 -->
<g id="edge19_Node000001_Node000020" class="edge">
<title>Node1&#45;&gt;Node20</title>
<g id="a_edge19_Node000001_Node000020"><a xlink:title=" ">
<path fill="none" stroke="#63b8ff" d="M65.24,-448.27C72.88,-410.25 98,-310.43 159,-257.5 164.21,-252.98 170.25,-249.31 176.62,-246.34"/>
<polygon fill="#63b8ff" stroke="#63b8ff" points="178.21,-249.47 186.15,-242.45 175.57,-242.99 178.21,-249.47"/>
</a>
</g>
</g>
<!-- Node21 -->
<g id="Node000021" class="node">
<title>Node21</title>
<g id="a_Node000021"><a xlink:href="m__time__steppers_8fpp_8f90.html#ab6e5e6bce774c64083aacb7ab67dc52b" target="_top" xlink:title="Module deallocation and/or disassociation procedures.">
<polygon fill="white" stroke="#666666" points="307,-200.5 170,-200.5 170,-170.5 307,-170.5 307,-200.5"/>
<text text-anchor="start" x="178" y="-188.5" font-family="Helvetica,sans-Serif" font-size="10.00">s_finalize_time_steppers</text>
<text text-anchor="middle" x="238.5" y="-177.5" font-family="Helvetica,sans-Serif" font-size="10.00">_module</text>
</a>
</g>
</g>
<!-- Node1&#45;&gt;Node21 -->
<g id="edge20_Node000001_Node000021" class="edge">
<title>Node1&#45;&gt;Node21</title>
<g id="a_edge20_Node000001_Node000021"><a xlink:title=" ">
<path fill="none" stroke="#63b8ff" d="M63.72,-448.4C68.07,-404.74 86.67,-277.18 159,-209.5 160.14,-208.43 161.32,-207.42 162.55,-206.44"/>
<polygon fill="#63b8ff" stroke="#63b8ff" points="164.8,-209.15 171.14,-200.66 160.89,-203.34 164.8,-209.15"/>
</a>
</g>
</g>
<!-- Node23 -->
<g id="Node000023" class="node">
<title>Node23</title>
<g id="a_Node000023"><a xlink:href="m__variables__conversion_8fpp_8f90.html#a5e828ed14f4e7f92c7405f47f4733d40" target="_top" xlink:title=" ">
<polygon fill="white" stroke="#666666" points="297,-152.5 180,-152.5 180,-122.5 297,-122.5 297,-152.5"/>
<text text-anchor="start" x="188" y="-140.5" font-family="Helvetica,sans-Serif" font-size="10.00">s_finalize_variables</text>
<text text-anchor="middle" x="238.5" y="-129.5" font-family="Helvetica,sans-Serif" font-size="10.00">_conversion_module</text>
</a>
</g>
</g>
<!-- Node1&#45;&gt;Node23 -->
<g id="edge22_Node000001_Node000023" class="edge">
<title>Node1&#45;&gt;Node23</title>
<g id="a_edge22_Node000001_Node000023"><a xlink:title=" ">
<path fill="none" stroke="#63b8ff" d="M62.67,-448.46C64.07,-399.69 75.19,-244.26 159,-161.5 162.49,-158.05 166.47,-155.1 170.73,-152.56"/>
<polygon fill="#63b8ff" stroke="#63b8ff" points="172.49,-155.59 179.82,-147.94 169.32,-149.35 172.49,-155.59"/>
</a>
</g>
</g>
<!-- Node24 -->
<g id="Node000024" class="node">
<title>Node24</title>
<g id="a_Node000024"><a xlink:href="m__viscous_8fpp_8f90.html#a5f14ef767f07c2fa2e8808f76cd44ff8" target="_top" xlink:title=" ">
<polygon fill="white" stroke="#666666" points="290.5,-104.5 186.5,-104.5 186.5,-74.5 290.5,-74.5 290.5,-104.5"/>
<text text-anchor="start" x="194.5" y="-92.5" font-family="Helvetica,sans-Serif" font-size="10.00">s_finalize_viscous</text>
<text text-anchor="middle" x="238.5" y="-81.5" font-family="Helvetica,sans-Serif" font-size="10.00">_module</text>
</a>
</g>
</g>
<!-- Node1&#45;&gt;Node24 -->
<g id="edge23_Node000001_Node000024" class="edge">
<title>Node1&#45;&gt;Node24</title>
<g id="a_edge23_Node000001_Node000024"><a xlink:title=" ">
<path fill="none" stroke="#63b8ff" d="M61.9,-448.43C60.61,-394.86 63.63,-211.55 159,-113.5 164.12,-108.23 170.37,-104.11 177.07,-100.89"/>
<polygon fill="#63b8ff" stroke="#63b8ff" points="178.53,-104.08 186.44,-97.04 175.86,-97.61 178.53,-104.08"/>
</a>
</g>
</g>
<!-- Node25 -->
<g id="Node000025" class="node">
<title>Node25</title>
<g id="a_Node000025"><a xlink:href="m__weno_8fpp_8f90.html#af48902c4de4b76e975fbdcffc596a267" target="_top" xlink:title="Module deallocation and/or disassociation procedures.">
<polygon fill="white" stroke="#666666" points="306.5,-56 170.5,-56 170.5,-37 306.5,-37 306.5,-56"/>
<text text-anchor="middle" x="238.5" y="-44" font-family="Helvetica,sans-Serif" font-size="10.00">s_finalize_weno_module</text>
</a>
</g>
</g>
<!-- Node1&#45;&gt;Node25 -->
<g id="edge24_Node000001_Node000025" class="edge">
<title>Node1&#45;&gt;Node25</title>
<g id="a_edge24_Node000001_Node000025"><a xlink:title=" ">
<path fill="none" stroke="#63b8ff" d="M64.1,-448.16C71.32,-381.95 102.93,-121.55 159,-65.5 160.3,-64.21 161.66,-62.99 163.09,-61.86"/>
<polygon fill="#63b8ff" stroke="#63b8ff" points="165.38,-64.55 171.87,-56.17 161.58,-58.67 165.38,-64.55"/>
</a>
</g>
</g>
<!-- Node26 -->
<g id="Node000026" class="node">
<title>Node26</title>
<g id="a_Node000026"><a xlink:href="m__mpi__common_8fpp_8f90.html#a61167ac96b381a36a7187b19072b1f38" target="_top" xlink:title="The subroutine finalizes the MPI execution environment.">
<polygon fill="white" stroke="#666666" points="281.5,-19 195.5,-19 195.5,0 281.5,0 281.5,-19"/>
<text text-anchor="middle" x="238.5" y="-7" font-family="Helvetica,sans-Serif" font-size="10.00">s_mpi_finalize</text>
</a>
</g>
</g>
<!-- Node1&#45;&gt;Node26 -->
<g id="edge25_Node000001_Node000026" class="edge">
<title>Node1&#45;&gt;Node26</title>
<g id="a_edge25_Node000001_Node000026"><a xlink:title=" ">
<path fill="none" stroke="#63b8ff" d="M63.74,-448.13C69.7,-378.01 97.7,-89.27 159,-27.5 166.17,-20.28 175.6,-15.71 185.43,-12.87"/>
<polygon fill="#63b8ff" stroke="#63b8ff" points="186.38,-16.24 195.33,-10.57 184.79,-9.42 186.38,-16.24"/>
</a>
</g>
</g>
<!-- Node5 -->
<g id="Node000005" class="node">
<title>Node5</title>
<g id="a_Node000005"><a xlink:href="m__cbc_8fpp_8f90.html#a30c4040c641dbf415536cca445178e84" target="_top" xlink:title=" ">
<polygon fill="white" stroke="#666666" points="509,-853 383,-853 383,-834 509,-834 509,-853"/>
<text text-anchor="middle" x="446" y="-841" font-family="Helvetica,sans-Serif" font-size="10.00">s_any_cbc_boundaries</text>
</a>
</g>
</g>
<!-- Node4&#45;&gt;Node5 -->
<g id="edge4_Node000004_Node000005" class="edge">
<title>Node4&#45;&gt;Node5</title>
<g id="a_edge4_Node000004_Node000005"><a xlink:title=" ">
<path fill="none" stroke="#63b8ff" d="M301.71,-843.5C324.15,-843.5 349.65,-843.5 372.86,-843.5"/>
<polygon fill="#63b8ff" stroke="#63b8ff" points="373,-847 383,-843.5 373,-840 373,-847"/>
</a>
</g>
</g>
<!-- Node8 -->
<g id="Node000008" class="node">
<title>Node8</title>
<g id="a_Node000008"><a xlink:href="m__data__output_8fpp_8f90.html#a92b2c6de4ff60c23ba6dba714e67cc42" target="_top" xlink:title="Closes communication files.">
<polygon fill="white" stroke="#666666" points="498,-774 394,-774 394,-755 498,-755 498,-774"/>
<text text-anchor="middle" x="446" y="-762" font-family="Helvetica,sans-Serif" font-size="10.00">s_close_com_files</text>
</a>
</g>
</g>
<!-- Node7&#45;&gt;Node8 -->
<g id="edge7_Node000007_Node000008" class="edge">
<title>Node7&#45;&gt;Node8</title>
<g id="a_edge7_Node000007_Node000008"><a xlink:title=" ">
<path fill="none" stroke="#63b8ff" d="M298.11,-751.63C324.94,-753.98 356.72,-756.77 383.84,-759.14"/>
<polygon fill="#63b8ff" stroke="#63b8ff" points="383.73,-762.65 393.99,-760.03 384.34,-755.67 383.73,-762.65"/>
</a>
</g>
</g>
<!-- Node9 -->
<g id="Node000009" class="node">
<title>Node9</title>
<g id="a_Node000009"><a xlink:href="m__data__output_8fpp_8f90.html#ab21d0e2d610542ddedc8acdc130dcfbf" target="_top" xlink:title="Closes probe files.">
<polygon fill="white" stroke="#666666" points="501.5,-737 390.5,-737 390.5,-718 501.5,-718 501.5,-737"/>
<text text-anchor="middle" x="446" y="-725" font-family="Helvetica,sans-Serif" font-size="10.00">s_close_probe_files</text>
</a>
</g>
</g>
<!-- Node7&#45;&gt;Node9 -->
<g id="edge8_Node000007_Node000009" class="edge">
<title>Node7&#45;&gt;Node9</title>
<g id="a_edge8_Node000007_Node000009"><a xlink:title=" ">
<path fill="none" stroke="#63b8ff" d="M298.11,-741.08C323.67,-738.72 353.72,-735.94 379.96,-733.51"/>
<polygon fill="#63b8ff" stroke="#63b8ff" points="380.55,-736.97 390.19,-732.57 379.91,-730 380.55,-736.97"/>
</a>
</g>
</g>
<!-- Node22 -->
<g id="Node000022" class="node">
<title>Node22</title>
<g id="a_Node000022"><a xlink:href="m__data__output_8fpp_8f90.html#a2f2958b928ff738eb255f61821df258e" target="_top" xlink:title="The goal of this subroutine is to write to the run&#45;time information file basic footer information app...">
<polygon fill="white" stroke="#666666" points="538,-195 354,-195 354,-176 538,-176 538,-195"/>
<text text-anchor="middle" x="446" y="-183" font-family="Helvetica,sans-Serif" font-size="10.00">s_close_run_time_information_file</text>
</a>
</g>
</g>
<!-- Node21&#45;&gt;Node22 -->
<g id="edge21_Node000021_Node000022" class="edge">
<title>Node21&#45;&gt;Node22</title>
<g id="a_edge21_Node000021_Node000022"><a xlink:title=" ">
<path fill="none" stroke="#63b8ff" d="M307.07,-185.5C318.77,-185.5 331.16,-185.5 343.53,-185.5"/>
<polygon fill="#63b8ff" stroke="#63b8ff" points="343.89,-189 353.89,-185.5 343.89,-182 343.89,-189"/>
</a>
</g>
</g>
</g>
</svg>
