<?xml version="1.0" encoding="UTF-8" standalone="no"?>
<!DOCTYPE svg PUBLIC "-//W3C//DTD SVG 1.1//EN"
 "http://www.w3.org/Graphics/SVG/1.1/DTD/svg11.dtd">
<!-- Generated by graphviz version 2.43.0 (0)
 -->
<!-- Title: m_helper_basic::f_is_default Pages: 1 -->
<svg width="929pt" height="401pt"
 viewBox="0.00 0.00 929.00 401.00" xmlns="http://www.w3.org/2000/svg" xmlns:xlink="http://www.w3.org/1999/xlink">
<g id="graph0" class="graph" transform="scale(1 1) rotate(0) translate(4 397)">
<title>m_helper_basic::f_is_default</title>
<!-- Node1 -->
<g id="Node000001" class="node">
<title>Node1</title>
<g id="a_Node000001"><a xlink:title="Checks if a real(wp) variable is of default value.">
<polygon fill="#999999" stroke="#666666" points="921,-210 805,-210 805,-180 921,-180 921,-210"/>
<text text-anchor="start" x="813" y="-198" font-family="Helvetica,sans-Serif" font-size="10.00">m_helper_basic::f_is</text>
<text text-anchor="middle" x="863" y="-187" font-family="Helvetica,sans-Serif" font-size="10.00">_default</text>
</a>
</g>
</g>
<!-- Node2 -->
<g id="Node000002" class="node">
<title>Node2</title>
<g id="a_Node000002"><a xlink:href="namespacem__helper__basic.html#a2a51671bfbfddf6ecabbc9593be49e1d" target="_top" xlink:title="Checks if ALL elements of a real(wp) array are of default value.">
<polygon fill="white" stroke="#666666" points="749.5,-393 629.5,-393 629.5,-363 749.5,-363 749.5,-393"/>
<text text-anchor="start" x="637.5" y="-381" font-family="Helvetica,sans-Serif" font-size="10.00">m_helper_basic::f_all</text>
<text text-anchor="middle" x="689.5" y="-370" font-family="Helvetica,sans-Serif" font-size="10.00">_default</text>
</a>
</g>
</g>
<!-- Node1&#45;&gt;Node2 -->
<g id="edge1_Node000001_Node000002" class="edge">
<title>Node1&#45;&gt;Node2</title>
<g id="a_edge1_Node000001_Node000002"><a xlink:title=" ">
<path fill="none" stroke="#63b8ff" d="M854.07,-219.69C841.57,-254.69 813.97,-318.43 769,-354 763.19,-358.6 756.5,-362.32 749.53,-365.33"/>
<polygon fill="#63b8ff" stroke="#63b8ff" points="857.38,-220.81 857.33,-210.22 850.77,-218.53 857.38,-220.81"/>
</a>
</g>
</g>
<!-- Node3 -->
<g id="Node000003" class="node">
<title>Node3</title>
<g id="a_Node000003"><a xlink:href="namespacem__bubbles.html#a81ceea09547775d9e7e50dbd6bf7386f" target="_top" xlink:title="Keller&#45;Miksis bubble wall pressure.">
<polygon fill="white" stroke="#666666" points="755,-271.5 624,-271.5 624,-252.5 755,-252.5 755,-271.5"/>
<text text-anchor="middle" x="689.5" y="-259.5" font-family="Helvetica,sans-Serif" font-size="10.00">m_bubbles::f_cpbw_km</text>
</a>
</g>
</g>
<!-- Node1&#45;&gt;Node3 -->
<g id="edge2_Node000001_Node000003" class="edge">
<title>Node1&#45;&gt;Node3</title>
<g id="a_edge2_Node000001_Node000003"><a xlink:title=" ">
<path fill="none" stroke="#63b8ff" d="M827.63,-215.25C810.46,-224.7 789.11,-235.5 769,-243 759.15,-246.67 748.33,-249.83 737.96,-252.45"/>
<polygon fill="#63b8ff" stroke="#63b8ff" points="829.69,-218.1 836.7,-210.16 826.27,-212 829.69,-218.1"/>
</a>
</g>
</g>
<!-- Node10 -->
<g id="Node000010" class="node">
<title>Node10</title>
<g id="a_Node000010"><a xlink:href="namespacem__bubbles.html#a83c550e90a8910cec7e95683ebd1ef35" target="_top" xlink:title="Keller&#45;Miksis bubble radial acceleration.">
<polygon fill="white" stroke="#666666" points="755,-326.5 624,-326.5 624,-307.5 755,-307.5 755,-326.5"/>
<text text-anchor="middle" x="689.5" y="-314.5" font-family="Helvetica,sans-Serif" font-size="10.00">m_bubbles::f_rddot_km</text>
</a>
</g>
</g>
<!-- Node1&#45;&gt;Node10 -->
<g id="edge12_Node000001_Node000010" class="edge">
<title>Node1&#45;&gt;Node10</title>
<g id="a_edge12_Node000001_Node000010"><a xlink:title=" ">
<path fill="none" stroke="#63b8ff" d="M847.34,-218.58C831.15,-242.58 802.85,-279.02 769,-299 763.22,-302.41 756.85,-305.18 750.31,-307.42"/>
<polygon fill="#63b8ff" stroke="#63b8ff" points="850.38,-220.33 852.94,-210.05 844.52,-216.49 850.38,-220.33"/>
</a>
</g>
</g>
<!-- Node11 -->
<g id="Node000011" class="node">
<title>Node11</title>
<g id="a_Node000011"><a xlink:href="namespacem__checker.html#a90a9d8f1dff4e785640769a2170e24b0" target="_top" xlink:title="Checks that each active synthetic&#45;turbulence forcing zone has a fully specified position and a positi...">
<polygon fill="white" stroke="#666666" points="769,-234 610,-234 610,-204 769,-204 769,-234"/>
<text text-anchor="start" x="618" y="-222" font-family="Helvetica,sans-Serif" font-size="10.00">m_checker::s_check</text>
<text text-anchor="middle" x="689.5" y="-211" font-family="Helvetica,sans-Serif" font-size="10.00">_inputs_synthetic_turbulence</text>
</a>
</g>
</g>
<!-- Node1&#45;&gt;Node11 -->
<g id="edge15_Node000001_Node000011" class="edge">
<title>Node1&#45;&gt;Node11</title>
<g id="a_edge15_Node000001_Node000011"><a xlink:title=" ">
<path fill="none" stroke="#63b8ff" d="M794.75,-204.41C786.32,-205.59 777.63,-206.81 769.04,-208.01"/>
<polygon fill="#63b8ff" stroke="#63b8ff" points="795.47,-207.84 804.89,-202.99 794.5,-200.91 795.47,-207.84"/>
</a>
</g>
</g>
<!-- Node16 -->
<g id="Node000016" class="node">
<title>Node16</title>
<g id="a_Node000016"><a xlink:href="namespacem__acoustic__src.html#ab35bc877e24a62748ab7df0548ebd08d" target="_top" xlink:title="Initialize the acoustic source module.">
<polygon fill="white" stroke="#666666" points="764.5,-186 614.5,-186 614.5,-156 764.5,-156 764.5,-186"/>
<text text-anchor="start" x="622.5" y="-174" font-family="Helvetica,sans-Serif" font-size="10.00">m_acoustic_src::s_initialize</text>
<text text-anchor="middle" x="689.5" y="-163" font-family="Helvetica,sans-Serif" font-size="10.00">_acoustic_src</text>
</a>
</g>
</g>
<!-- Node1&#45;&gt;Node16 -->
<g id="edge20_Node000001_Node000016" class="edge">
<title>Node1&#45;&gt;Node16</title>
<g id="a_edge20_Node000001_Node000016"><a xlink:title=" ">
<path fill="none" stroke="#63b8ff" d="M794.77,-185.59C784.92,-184.21 774.73,-182.79 764.75,-181.39"/>
<polygon fill="#63b8ff" stroke="#63b8ff" points="794.5,-189.09 804.89,-187.01 795.47,-182.16 794.5,-189.09"/>
</a>
</g>
</g>
<!-- Node18 -->
<g id="Node000018" class="node">
<title>Node18</title>
<g id="a_Node000018"><a xlink:href="namespacem__global__parameters.html#a7d78db66d7d2bd3001d7a7ef981b0d87" target="_top" xlink:title="Initialize the global parameters module.">
<polygon fill="white" stroke="#666666" points="751,-137.5 628,-137.5 628,-96.5 751,-96.5 751,-137.5"/>
<text text-anchor="start" x="636" y="-125.5" font-family="Helvetica,sans-Serif" font-size="10.00">m_global_parameters</text>
<text text-anchor="start" x="636" y="-114.5" font-family="Helvetica,sans-Serif" font-size="10.00">::s_initialize_global</text>
<text text-anchor="middle" x="689.5" y="-103.5" font-family="Helvetica,sans-Serif" font-size="10.00">_parameters_module</text>
</a>
</g>
</g>
<!-- Node1&#45;&gt;Node18 -->
<g id="edge23_Node000001_Node000018" class="edge">
<title>Node1&#45;&gt;Node18</title>
<g id="a_edge23_Node000001_Node000018"><a xlink:title=" ">
<path fill="none" stroke="#63b8ff" d="M825.69,-175.06C808.69,-166.04 788.03,-155.52 769,-147 761.81,-143.78 754.16,-140.59 746.56,-137.55"/>
<polygon fill="#63b8ff" stroke="#63b8ff" points="824.25,-178.27 834.72,-179.9 827.56,-172.1 824.25,-178.27"/>
</a>
</g>
</g>
<!-- Node19 -->
<g id="Node000019" class="node">
<title>Node19</title>
<g id="a_Node000019"><a xlink:href="namespacem__qbmm.html#aeefcb72401bfdb35dcdd81104e647a15" target="_top" xlink:title="Initialize the QBMM module.">
<polygon fill="white" stroke="#666666" points="750.5,-78 628.5,-78 628.5,-48 750.5,-48 750.5,-78"/>
<text text-anchor="start" x="636.5" y="-66" font-family="Helvetica,sans-Serif" font-size="10.00">m_qbmm::s_initialize</text>
<text text-anchor="middle" x="689.5" y="-55" font-family="Helvetica,sans-Serif" font-size="10.00">_qbmm_module</text>
</a>
</g>
</g>
<!-- Node1&#45;&gt;Node19 -->
<g id="edge25_Node000001_Node000019" class="edge">
<title>Node1&#45;&gt;Node19</title>
<g id="a_edge25_Node000001_Node000019"><a xlink:title=" ">
<path fill="none" stroke="#63b8ff" d="M847.15,-171.3C830.8,-147.06 802.37,-109.95 769,-88 763.14,-84.15 756.65,-80.86 749.99,-78.05"/>
<polygon fill="#63b8ff" stroke="#63b8ff" points="844.39,-173.47 852.81,-179.9 850.23,-169.62 844.39,-173.47"/>
</a>
</g>
</g>
<!-- Node20 -->
<g id="Node000020" class="node">
<title>Node20</title>
<g id="a_Node000020"><a xlink:href="namespacem__compute__levelset.html#adadad13569efd08e6caa0cb5b7157942" target="_top" xlink:title="The STL patch is a 2/3D geometry that is imported from an STL file.">
<polygon fill="white" stroke="#666666" points="749,-30 630,-30 630,0 749,0 749,-30"/>
<text text-anchor="start" x="638" y="-18" font-family="Helvetica,sans-Serif" font-size="10.00">m_compute_levelset</text>
<text text-anchor="middle" x="689.5" y="-7" font-family="Helvetica,sans-Serif" font-size="10.00">::s_model_levelset</text>
</a>
</g>
</g>
<!-- Node1&#45;&gt;Node20 -->
<g id="edge27_Node000001_Node000020" class="edge">
<title>Node1&#45;&gt;Node20</title>
<g id="a_edge27_Node000001_Node000020"><a xlink:title=" ">
<path fill="none" stroke="#63b8ff" d="M853.58,-169.8C840.76,-135.26 813.07,-73.56 769,-39 763.06,-34.34 756.21,-30.58 749.09,-27.55"/>
<polygon fill="#63b8ff" stroke="#63b8ff" points="850.42,-171.36 857.08,-179.59 857.01,-169 850.42,-171.36"/>
</a>
</g>
</g>
<!-- Node3&#45;&gt;Node3 -->
<g id="edge3_Node000003_Node000003" class="edge">
<title>Node3&#45;&gt;Node3</title>
<g id="a_edge3_Node000003_Node000003"><a xlink:title=" ">
<path fill="none" stroke="#63b8ff" d="M721.69,-279.95C720.77,-285.32 710.04,-289.5 689.5,-289.5 658.93,-289.5 650.09,-280.23 662.99,-271.58"/>
<polygon fill="#63b8ff" stroke="#63b8ff" points="724.52,-277.89 716.01,-271.58 718.73,-281.82 724.52,-277.89"/>
</a>
</g>
</g>
<!-- Node4 -->
<g id="Node000004" class="node">
<title>Node4</title>
<g id="a_Node000004"><a xlink:href="namespacem__bubbles.html#a5df386bacf57fa1f7799b9aad47a4f94" target="_top" xlink:title="Compute the bubble radial acceleration based on the selected bubble model.">
<polygon fill="white" stroke="#666666" points="563.5,-324.5 453.5,-324.5 453.5,-305.5 563.5,-305.5 563.5,-324.5"/>
<text text-anchor="middle" x="508.5" y="-312.5" font-family="Helvetica,sans-Serif" font-size="10.00">m_bubbles::f_rddot</text>
</a>
</g>
</g>
<!-- Node3&#45;&gt;Node4 -->
<g id="edge4_Node000003_Node000004" class="edge">
<title>Node3&#45;&gt;Node4</title>
<g id="a_edge4_Node000003_Node000004"><a xlink:title=" ">
<path fill="none" stroke="#63b8ff" d="M646.12,-274.55C614.12,-284.02 570.87,-296.83 541.67,-305.47"/>
<polygon fill="#63b8ff" stroke="#63b8ff" points="647.49,-277.79 656.08,-271.6 645.5,-271.08 647.49,-277.79"/>
</a>
</g>
</g>
<!-- Node8 -->
<g id="Node000008" class="node">
<title>Node8</title>
<g id="a_Node000008"><a xlink:href="namespacem__riemann__solver__hllc.html#a1aa7ec60f1cdf82447547835d45e1021" target="_top" xlink:title="HLLC Riemann solver with contact restoration, Toro et al. Shock Waves (1994).">
<polygon fill="white" stroke="#666666" points="574,-277 443,-277 443,-247 574,-247 574,-277"/>
<text text-anchor="start" x="451" y="-265" font-family="Helvetica,sans-Serif" font-size="10.00">m_riemann_solver_hllc</text>
<text text-anchor="middle" x="508.5" y="-254" font-family="Helvetica,sans-Serif" font-size="10.00">::s_hllc_riemann_solver</text>
</a>
</g>
</g>
<!-- Node3&#45;&gt;Node8 -->
<g id="edge10_Node000003_Node000008" class="edge">
<title>Node3&#45;&gt;Node8</title>
<g id="a_edge10_Node000003_Node000008"><a xlink:title=" ">
<path fill="none" stroke="#63b8ff" d="M613.86,-262C600.63,-262 586.95,-262 574.03,-262"/>
<polygon fill="#63b8ff" stroke="#63b8ff" points="613.88,-265.5 623.88,-262 613.88,-258.5 613.88,-265.5"/>
</a>
</g>
</g>
<!-- Node4&#45;&gt;Node4 -->
<g id="edge5_Node000004_Node000004" class="edge">
<title>Node4&#45;&gt;Node4</title>
<g id="a_edge5_Node000004_Node000004"><a xlink:title=" ">
<path fill="none" stroke="#63b8ff" d="M539.11,-333.32C537.83,-338.51 527.63,-342.5 508.5,-342.5 479.35,-342.5 470.93,-333.23 483.22,-324.58"/>
<polygon fill="#63b8ff" stroke="#63b8ff" points="541.98,-331.29 533.78,-324.58 536,-334.94 541.98,-331.29"/>
</a>
</g>
</g>
<!-- Node5 -->
<g id="Node000005" class="node">
<title>Node5</title>
<g id="a_Node000005"><a xlink:href="namespacem__bubbles.html#ada2623f1499c4719141069dcd4f5c5d1" target="_top" xlink:title="Integrate bubble variables over the given time step size, h, using a third&#45;order accurate embedded Ru...">
<polygon fill="white" stroke="#666666" points="407,-376 279,-376 279,-346 407,-346 407,-376"/>
<text text-anchor="start" x="287" y="-364" font-family="Helvetica,sans-Serif" font-size="10.00">m_bubbles::s_advance</text>
<text text-anchor="middle" x="343" y="-353" font-family="Helvetica,sans-Serif" font-size="10.00">_substep</text>
</a>
</g>
</g>
<!-- Node4&#45;&gt;Node5 -->
<g id="edge6_Node000004_Node000005" class="edge">
<title>Node4&#45;&gt;Node5</title>
<g id="a_edge6_Node000004_Node000005"><a xlink:title=" ">
<path fill="none" stroke="#63b8ff" d="M463.96,-327.25C443.53,-333 419.01,-339.9 397.47,-345.96"/>
<polygon fill="#63b8ff" stroke="#63b8ff" points="464.94,-330.61 473.62,-324.53 463.05,-323.87 464.94,-330.61"/>
</a>
</g>
</g>
<!-- Node7 -->
<g id="Node000007" class="node">
<title>Node7</title>
<g id="a_Node000007"><a xlink:href="namespacem__bubbles.html#a4b48725a84a60c73af7e378ffc3d3438" target="_top" xlink:title="Choose the initial time step size for the adaptive time stepping routine (See Heirer,...">
<polygon fill="white" stroke="#666666" points="400,-328 286,-328 286,-298 400,-298 400,-328"/>
<text text-anchor="start" x="294" y="-316" font-family="Helvetica,sans-Serif" font-size="10.00">m_bubbles::s_initial</text>
<text text-anchor="middle" x="343" y="-305" font-family="Helvetica,sans-Serif" font-size="10.00">_substep_h</text>
</a>
</g>
</g>
<!-- Node4&#45;&gt;Node7 -->
<g id="edge8_Node000004_Node000007" class="edge">
<title>Node4&#45;&gt;Node7</title>
<g id="a_edge8_Node000004_Node000007"><a xlink:title=" ">
<path fill="none" stroke="#63b8ff" d="M442.92,-314.21C428.78,-314.04 413.93,-313.86 400.16,-313.69"/>
<polygon fill="#63b8ff" stroke="#63b8ff" points="443.01,-317.71 453.06,-314.33 443.1,-310.71 443.01,-317.71"/>
</a>
</g>
</g>
<!-- Node6 -->
<g id="Node000006" class="node">
<title>Node6</title>
<g id="a_Node000006"><a xlink:href="namespacem__bubbles.html#a4a3c0d979bd3ead42ccd87bcad359ada" target="_top" xlink:title="Adaptive time stepping routine for subgrid bubbles (See Heirer, E. Hairer S.P.Norsett G....">
<polygon fill="white" stroke="#666666" points="243,-346.5 89,-346.5 89,-327.5 243,-327.5 243,-346.5"/>
<text text-anchor="middle" x="166" y="-334.5" font-family="Helvetica,sans-Serif" font-size="10.00">m_bubbles::s_advance_step</text>
</a>
</g>
</g>
<!-- Node5&#45;&gt;Node6 -->
<g id="edge7_Node000005_Node000006" class="edge">
<title>Node5&#45;&gt;Node6</title>
<g id="a_edge7_Node000005_Node000006"><a xlink:title=" ">
<path fill="none" stroke="#63b8ff" d="M268.66,-350.94C257.94,-349.47 246.94,-347.96 236.31,-346.5"/>
<polygon fill="#63b8ff" stroke="#63b8ff" points="268.44,-354.44 278.82,-352.34 269.39,-347.51 268.44,-354.44"/>
</a>
</g>
</g>
<!-- Node7&#45;&gt;Node6 -->
<g id="edge9_Node000007_Node000006" class="edge">
<title>Node7&#45;&gt;Node6</title>
<g id="a_edge9_Node000007_Node000006"><a xlink:title=" ">
<path fill="none" stroke="#63b8ff" d="M275.56,-322.11C262.75,-323.87 249.31,-325.71 236.41,-327.48"/>
<polygon fill="#63b8ff" stroke="#63b8ff" points="276.23,-325.55 285.67,-320.73 275.28,-318.62 276.23,-325.55"/>
</a>
</g>
</g>
<!-- Node9 -->
<g id="Node000009" class="node">
<title>Node9</title>
<g id="a_Node000009"><a xlink:href="namespacem__riemann__solvers.html#a8d00c5352ee6b6f1628cde6d34ad5e08" target="_top" xlink:title="Dispatch to the subroutines that are utilized to compute the Riemann problem solution....">
<polygon fill="white" stroke="#666666" points="402.5,-277 283.5,-277 283.5,-247 402.5,-247 402.5,-277"/>
<text text-anchor="start" x="291.5" y="-265" font-family="Helvetica,sans-Serif" font-size="10.00">m_riemann_solvers::</text>
<text text-anchor="middle" x="343" y="-254" font-family="Helvetica,sans-Serif" font-size="10.00">s_riemann_solver</text>
</a>
</g>
</g>
<!-- Node8&#45;&gt;Node9 -->
<g id="edge11_Node000008_Node000009" class="edge">
<title>Node8&#45;&gt;Node9</title>
<g id="a_edge11_Node000008_Node000009"><a xlink:title=" ">
<path fill="none" stroke="#63b8ff" d="M432.81,-262C422.67,-262 412.38,-262 402.58,-262"/>
<polygon fill="#63b8ff" stroke="#63b8ff" points="432.88,-265.5 442.88,-262 432.88,-258.5 432.88,-265.5"/>
</a>
</g>
</g>
<!-- Node10&#45;&gt;Node4 -->
<g id="edge13_Node000010_Node000004" class="edge">
<title>Node10&#45;&gt;Node4</title>
<g id="a_edge13_Node000010_Node000004"><a xlink:title=" ">
<path fill="none" stroke="#63b8ff" d="M613.57,-316.16C596.84,-315.98 579.41,-315.78 563.71,-315.61"/>
<polygon fill="#63b8ff" stroke="#63b8ff" points="613.84,-319.67 623.88,-316.28 613.92,-312.67 613.84,-319.67"/>
</a>
</g>
</g>
<!-- Node10&#45;&gt;Node10 -->
<g id="edge14_Node000010_Node000010" class="edge">
<title>Node10&#45;&gt;Node10</title>
<g id="a_edge14_Node000010_Node000010"><a xlink:title=" ">
<path fill="none" stroke="#63b8ff" d="M721.69,-334.95C720.77,-340.32 710.04,-344.5 689.5,-344.5 658.93,-344.5 650.09,-335.23 662.99,-326.58"/>
<polygon fill="#63b8ff" stroke="#63b8ff" points="724.52,-332.89 716.01,-326.58 718.73,-336.82 724.52,-332.89"/>
</a>
</g>
</g>
<!-- Node12 -->
<g id="Node000012" class="node">
<title>Node12</title>
<g id="a_Node000012"><a xlink:href="namespacem__checker.html#a214e05cb46bc7c3e0dbe55fdc433c072" target="_top" xlink:title="Checks compatibility of parameters in the input file. Used by the simulation stage.">
<polygon fill="white" stroke="#666666" points="565.5,-205 451.5,-205 451.5,-175 565.5,-175 565.5,-205"/>
<text text-anchor="start" x="459.5" y="-193" font-family="Helvetica,sans-Serif" font-size="10.00">m_checker::s_check</text>
<text text-anchor="middle" x="508.5" y="-182" font-family="Helvetica,sans-Serif" font-size="10.00">_inputs</text>
</a>
</g>
</g>
<!-- Node11&#45;&gt;Node12 -->
<g id="edge16_Node000011_Node000012" class="edge">
<title>Node11&#45;&gt;Node12</title>
<g id="a_edge16_Node000011_Node000012"><a xlink:title=" ">
<path fill="none" stroke="#63b8ff" d="M599.79,-204.63C588.16,-202.74 576.51,-200.86 565.64,-199.09"/>
<polygon fill="#63b8ff" stroke="#63b8ff" points="599.56,-208.14 609.99,-206.28 600.68,-201.23 599.56,-208.14"/>
</a>
</g>
</g>
<!-- Node13 -->
<g id="Node000013" class="node">
<title>Node13</title>
<g id="a_Node000013"><a xlink:href="namespacem__start__up.html#ad26e747c87bb6bcf4c9d6baa21d044c1" target="_top" xlink:title="Validate that all user&#45;provided inputs form a consistent simulation configuration.">
<polygon fill="white" stroke="#666666" points="401,-190 285,-190 285,-160 401,-160 401,-190"/>
<text text-anchor="start" x="293" y="-178" font-family="Helvetica,sans-Serif" font-size="10.00">m_start_up::s_check</text>
<text text-anchor="middle" x="343" y="-167" font-family="Helvetica,sans-Serif" font-size="10.00">_input_file</text>
</a>
</g>
</g>
<!-- Node12&#45;&gt;Node13 -->
<g id="edge17_Node000012_Node000013" class="edge">
<title>Node12&#45;&gt;Node13</title>
<g id="a_edge17_Node000012_Node000013"><a xlink:title=" ">
<path fill="none" stroke="#63b8ff" d="M441.22,-183.92C427.96,-182.7 414.13,-181.43 401.2,-180.25"/>
<polygon fill="#63b8ff" stroke="#63b8ff" points="440.95,-187.41 451.23,-184.84 441.59,-180.44 440.95,-187.41"/>
</a>
</g>
</g>
<!-- Node14 -->
<g id="Node000014" class="node">
<title>Node14</title>
<g id="a_Node000014"><a xlink:href="namespacem__start__up.html#ab64542f13c680e17ce8879c77c65c0e0" target="_top" xlink:title="Set up the MPI execution environment, bind GPUs, and decompose the computational domain.">
<polygon fill="white" stroke="#666666" points="231,-186 101,-186 101,-156 231,-156 231,-186"/>
<text text-anchor="start" x="109" y="-174" font-family="Helvetica,sans-Serif" font-size="10.00">m_start_up::s_initialize</text>
<text text-anchor="middle" x="166" y="-163" font-family="Helvetica,sans-Serif" font-size="10.00">_mpi_domain</text>
</a>
</g>
</g>
<!-- Node13&#45;&gt;Node14 -->
<g id="edge18_Node000013_Node000014" class="edge">
<title>Node13&#45;&gt;Node14</title>
<g id="a_edge18_Node000013_Node000014"><a xlink:title=" ">
<path fill="none" stroke="#63b8ff" d="M274.47,-173.46C260.22,-173.13 245.22,-172.79 231.09,-172.46"/>
<polygon fill="#63b8ff" stroke="#63b8ff" points="274.62,-176.96 284.7,-173.69 274.78,-169.96 274.62,-176.96"/>
</a>
</g>
</g>
<!-- Node15 -->
<g id="Node000015" class="node">
<title>Node15</title>
<g id="a_Node000015"><a xlink:href="p__main_8fpp_8f90.html#aeec10ee8e2940c953967da3e374e1579" target="_top" xlink:title="Quasi&#45;conservative, shock&#45; and interface&#45; capturing finite&#45;volume scheme for the multicomponent Navie...">
<polygon fill="white" stroke="#666666" points="53,-151.5 0,-151.5 0,-132.5 53,-132.5 53,-151.5"/>
<text text-anchor="middle" x="26.5" y="-139.5" font-family="Helvetica,sans-Serif" font-size="10.00">p_main</text>
</a>
</g>
</g>
<!-- Node14&#45;&gt;Node15 -->
<g id="edge19_Node000014_Node000015" class="edge">
<title>Node14&#45;&gt;Node15</title>
<g id="a_edge19_Node000014_Node000015"><a xlink:title=" ">
<path fill="none" stroke="#63b8ff" d="M90.84,-155.36C77.35,-152.51 64.15,-149.73 53.31,-147.44"/>
<polygon fill="#63b8ff" stroke="#63b8ff" points="90.17,-158.79 100.68,-157.43 91.62,-151.95 90.17,-158.79"/>
</a>
</g>
</g>
<!-- Node17 -->
<g id="Node000017" class="node">
<title>Node17</title>
<g id="a_Node000017"><a xlink:href="namespacem__start__up.html#a1fb7a3f9d412acd2a9cbcfe8b45006dd" target="_top" xlink:title="Initialize all simulation sub&#45;modules in the required dependency order.">
<polygon fill="white" stroke="#666666" points="573.5,-134 443.5,-134 443.5,-104 573.5,-104 573.5,-134"/>
<text text-anchor="start" x="451.5" y="-122" font-family="Helvetica,sans-Serif" font-size="10.00">m_start_up::s_initialize</text>
<text text-anchor="middle" x="508.5" y="-111" font-family="Helvetica,sans-Serif" font-size="10.00">_modules</text>
</a>
</g>
</g>
<!-- Node16&#45;&gt;Node17 -->
<g id="edge21_Node000016_Node000017" class="edge">
<title>Node16&#45;&gt;Node17</title>
<g id="a_edge21_Node000016_Node000017"><a xlink:title=" ">
<path fill="none" stroke="#63b8ff" d="M627.05,-153.15C605.59,-146.92 581.74,-139.99 561.16,-134.01"/>
<polygon fill="#63b8ff" stroke="#63b8ff" points="626.15,-156.53 636.73,-155.96 628.1,-149.81 626.15,-156.53"/>
</a>
</g>
</g>
<!-- Node17&#45;&gt;Node15 -->
<g id="edge22_Node000017_Node000015" class="edge">
<title>Node17&#45;&gt;Node15</title>
<g id="a_edge22_Node000017_Node000015"><a xlink:title=" ">
<path fill="none" stroke="#63b8ff" d="M433.26,-122.56C323.62,-127.81 123.73,-137.39 53.07,-140.77"/>
<polygon fill="#63b8ff" stroke="#63b8ff" points="433.44,-126.05 443.26,-122.08 433.11,-119.06 433.44,-126.05"/>
</a>
</g>
</g>
<!-- Node18&#45;&gt;Node17 -->
<g id="edge24_Node000018_Node000017" class="edge">
<title>Node18&#45;&gt;Node17</title>
<g id="a_edge24_Node000018_Node000017"><a xlink:title=" ">
<path fill="none" stroke="#63b8ff" d="M617.51,-117.79C603.05,-117.95 587.92,-118.12 573.71,-118.28"/>
<polygon fill="#63b8ff" stroke="#63b8ff" points="617.94,-121.29 627.9,-117.68 617.86,-114.29 617.94,-121.29"/>
</a>
</g>
</g>
<!-- Node19&#45;&gt;Node17 -->
<g id="edge26_Node000019_Node000017" class="edge">
<title>Node19&#45;&gt;Node17</title>
<g id="a_edge26_Node000019_Node000017"><a xlink:title=" ">
<path fill="none" stroke="#63b8ff" d="M630.96,-81C607.29,-88.41 580.19,-96.88 557.6,-103.95"/>
<polygon fill="#63b8ff" stroke="#63b8ff" points="632.03,-84.33 640.53,-78.01 629.94,-77.65 632.03,-84.33"/>
</a>
</g>
</g>
<!-- Node21 -->
<g id="Node000021" class="node">
<title>Node21</title>
<g id="a_Node000021"><a xlink:href="namespacem__compute__levelset.html#a0e6b4900aa4a5fb7b36c59907f76bf54" target="_top" xlink:title="Dispatch level&#45;set distance and normal computations for all ghost points based on patch geometry type...">
<polygon fill="white" stroke="#666666" points="568,-30 449,-30 449,0 568,0 568,-30"/>
<text text-anchor="start" x="457" y="-18" font-family="Helvetica,sans-Serif" font-size="10.00">m_compute_levelset</text>
<text text-anchor="middle" x="508.5" y="-7" font-family="Helvetica,sans-Serif" font-size="10.00">::s_apply_levelset</text>
</a>
</g>
</g>
<!-- Node20&#45;&gt;Node21 -->
<g id="edge28_Node000020_Node000021" class="edge">
<title>Node20&#45;&gt;Node21</title>
<g id="a_edge28_Node000020_Node000021"><a xlink:title=" ">
<path fill="none" stroke="#63b8ff" d="M619.51,-15C602.59,-15 584.63,-15 568.24,-15"/>
<polygon fill="#63b8ff" stroke="#63b8ff" points="619.89,-18.5 629.89,-15 619.89,-11.5 619.89,-18.5"/>
</a>
</g>
</g>
</g>
</svg>
