<?xml version="1.0" encoding="UTF-8" standalone="no"?>
<!DOCTYPE svg PUBLIC "-//W3C//DTD SVG 1.1//EN"
 "http://www.w3.org/Graphics/SVG/1.1/DTD/svg11.dtd">
<!-- Generated by graphviz version 2.43.0 (0)
 -->
<!-- Title: m_ibm::s_ibm_setup Pages: 1 -->
<!--zoomable 326 -->

<svg id="main" version="1.1" xmlns="http://www.w3.org/2000/svg" xmlns:xlink="http://www.w3.org/1999/xlink" xml:space="preserve" onload="init(evt)">

<style type="text/css"><![CDATA[
.node, .edge {opacity: 0.7;}
.node.selected, .edge.selected {opacity: 1;}
.edge:hover path { stroke: red; }
.edge:hover polygon { stroke: red; fill: red; }
]]></style>

<defs>
  <circle id="rim" cx="0" cy="0" r="7"/>
  <circle id="rim2" cx="0" cy="0" r="3.5"/>
  <g id="zoomPlus">
    <use xlink:href="#rim" fill="#404040"><set attributeName="fill" to="#808080" begin="zoomplus.mouseover" end="zoomplus.mouseout"/></use>
    <path d="M-4,0h8M0,-4v8" fill="none" stroke="white" stroke-width="1.5" pointer-events="none"/>
  </g>
  <g id="zoomMin">
    <use xlink:href="#rim" fill="#404040"><set attributeName="fill" to="#808080" begin="zoomminus.mouseover" end="zoomminus.mouseout"/></use>
    <path d="M-4,0h8" fill="none" stroke="white" stroke-width="1.5" pointer-events="none"/>
  </g>
  <g id="arrowUp" transform="translate(30 24)">
    <use xlink:href="#rim"/>
    <path pointer-events="none" fill="none" stroke="white" stroke-width="1.5" d="M0,-3.0v7 M-2.5,-0.5L0,-3.0L2.5,-0.5"/>
  </g>
  <g id="arrowRight" transform="rotate(90) translate(36 -43)">
    <use xlink:href="#rim"/>
    <path pointer-events="none" fill="none" stroke="white" stroke-width="1.5" d="M0,-3.0v7 M-2.5,-0.5L0,-3.0L2.5,-0.5"/>
  </g>
  <g id="arrowDown" transform="rotate(180) translate(-30 -48)">
    <use xlink:href="#rim"/>
    <path pointer-events="none" fill="none" stroke="white" stroke-width="1.5" d="M0,-3.0v7 M-2.5,-0.5L0,-3.0L2.5,-0.5"/>
  </g>
  <g id="arrowLeft" transform="rotate(270) translate(-36 17)">
    <use xlink:href="#rim"/>
    <path pointer-events="none" fill="none" stroke="white" stroke-width="1.5" d="M0,-3.0v7 M-2.5,-0.5L0,-3.0L2.5,-0.5"/>
  </g>
  <g id="resetDef">
    <use xlink:href="#rim2" fill="#404040"><set attributeName="fill" to="#808080" begin="reset.mouseover" end="reset.mouseout"/></use>
  </g>
</defs>
<script type="application/ecmascript">
var viewWidth = 550;
var viewHeight = 326;
var sectionId = 'dynsection-13';
</script>
<script type="application/ecmascript" xlink:href="svg.min.js"/>
<svg id="graph" class="graph">
<g id="viewport">
<title>m_ibm::s_ibm_setup</title>
<!-- Node1 -->
<g id="Node000001" class="node">
<title>Node1</title>
<g id="a_Node000001"><a xlink:title="Initializes the values of various IBM variables, such as ghost points and image points.">
<polygon fill="#999999" stroke="#666666" points="118,-168.5 0,-168.5 0,-149.5 118,-149.5 118,-168.5"/>
<text text-anchor="middle" x="59" y="-156.5" font-family="Helvetica,sans-Serif" font-size="10.00">m_ibm::s_ibm_setup</text>
</a>
</g>
</g>
<!-- Node2 -->
<g id="Node000002" class="node">
<title>Node2</title>
<g id="a_Node000002"><a xlink:href="namespacem__ibm.html#a95803cab792b57cbc7f1cf8232f1b2fd" target="_top" xlink:title="Computes the center of mass for IB patch types where we are unable to determine their center of mass ...">
<polygon fill="white" stroke="#666666" points="320,-318 165,-318 165,-288 320,-288 320,-318"/>
<text text-anchor="start" x="173" y="-306" font-family="Helvetica,sans-Serif" font-size="10.00">m_ibm::s_compute_centroid</text>
<text text-anchor="middle" x="242.5" y="-295" font-family="Helvetica,sans-Serif" font-size="10.00">_offset</text>
</a>
</g>
</g>
<!-- Node1&#45;&gt;Node2 -->
<g id="edge1_Node000001_Node000002" class="edge">
<title>Node1&#45;&gt;Node2</title>
<g id="a_edge1_Node000001_Node000002"><a xlink:title=" ">
<path fill="none" stroke="#63b8ff" d="M64.84,-168.81C76.7,-191.79 109.49,-249.39 154,-279 156.4,-280.59 158.9,-282.08 161.48,-283.48"/>
<polygon fill="#63b8ff" stroke="#63b8ff" points="159.97,-286.64 170.5,-287.84 163.02,-280.33 159.97,-286.64"/>
</a>
</g>
</g>
<!-- Node3 -->
<g id="Node000003" class="node">
<title>Node3</title>
<g id="a_Node000003"><a xlink:href="namespacem__ibm.html#ae9c18401f891392312ed68285d035d9c" target="_top" xlink:title="Compute the image points for each ghost point.">
<polygon fill="white" stroke="#666666" points="315.5,-270 169.5,-270 169.5,-240 315.5,-240 315.5,-270"/>
<text text-anchor="start" x="177.5" y="-258" font-family="Helvetica,sans-Serif" font-size="10.00">m_ibm::s_compute_image</text>
<text text-anchor="middle" x="242.5" y="-247" font-family="Helvetica,sans-Serif" font-size="10.00">_points</text>
</a>
</g>
</g>
<!-- Node1&#45;&gt;Node3 -->
<g id="edge2_Node000001_Node000003" class="edge">
<title>Node1&#45;&gt;Node3</title>
<g id="a_edge2_Node000001_Node000003"><a xlink:title=" ">
<path fill="none" stroke="#63b8ff" d="M69.82,-168.64C86.01,-184.02 119.93,-214.09 154,-231 157.81,-232.89 161.79,-234.65 165.86,-236.28"/>
<polygon fill="#63b8ff" stroke="#63b8ff" points="164.9,-239.66 175.49,-239.87 167.34,-233.1 164.9,-239.66"/>
</a>
</g>
</g>
<!-- Node4 -->
<g id="Node000004" class="node">
<title>Node4</title>
<g id="a_Node000004"><a xlink:href="namespacem__ibm.html#a2f678e57ffbd9f2e83e9d6eeb0be871e" target="_top" xlink:title="Compute the interpolation coefficients for image points.">
<polygon fill="white" stroke="#666666" points="331,-222 154,-222 154,-192 331,-192 331,-222"/>
<text text-anchor="start" x="162" y="-210" font-family="Helvetica,sans-Serif" font-size="10.00">m_ibm::s_compute_interpolation</text>
<text text-anchor="middle" x="242.5" y="-199" font-family="Helvetica,sans-Serif" font-size="10.00">_coeffs</text>
</a>
</g>
</g>
<!-- Node1&#45;&gt;Node4 -->
<g id="edge3_Node000001_Node000004" class="edge">
<title>Node1&#45;&gt;Node4</title>
<g id="a_edge3_Node000001_Node000004"><a xlink:title=" ">
<path fill="none" stroke="#63b8ff" d="M96.29,-168.6C118.68,-174.52 148.07,-182.29 174.56,-189.3"/>
<polygon fill="#63b8ff" stroke="#63b8ff" points="173.98,-192.76 184.54,-191.94 175.77,-186 173.98,-192.76"/>
</a>
</g>
</g>
<!-- Node5 -->
<g id="Node000005" class="node">
<title>Node5</title>
<g id="a_Node000005"><a xlink:href="namespacem__ibm.html#a7407218e38d7e17ed9b55e767d50f259" target="_top" xlink:title="Computes the moment of inertia for an immersed boundary.">
<polygon fill="white" stroke="#666666" points="320.5,-174 164.5,-174 164.5,-144 320.5,-144 320.5,-174"/>
<text text-anchor="start" x="172.5" y="-162" font-family="Helvetica,sans-Serif" font-size="10.00">m_ibm::s_compute_moment</text>
<text text-anchor="middle" x="242.5" y="-151" font-family="Helvetica,sans-Serif" font-size="10.00">_of_inertia</text>
</a>
</g>
</g>
<!-- Node1&#45;&gt;Node5 -->
<g id="edge4_Node000001_Node000005" class="edge">
<title>Node1&#45;&gt;Node5</title>
<g id="a_edge4_Node000001_Node000005"><a xlink:title=" ">
<path fill="none" stroke="#63b8ff" d="M118.18,-159C129.68,-159 141.99,-159 154.21,-159"/>
<polygon fill="#63b8ff" stroke="#63b8ff" points="154.44,-162.5 164.44,-159 154.44,-155.5 154.44,-162.5"/>
</a>
</g>
</g>
<!-- Node6 -->
<g id="Node000006" class="node">
<title>Node6</title>
<g id="a_Node000006"><a xlink:href="namespacem__ibm.html#a6dcae8cfb6770ce400259f332d744db9" target="_top" xlink:title="Locate all ghost points in the domain.">
<polygon fill="white" stroke="#666666" points="301,-126 184,-126 184,-96 301,-96 301,-126"/>
<text text-anchor="start" x="192" y="-114" font-family="Helvetica,sans-Serif" font-size="10.00">m_ibm::s_find_ghost</text>
<text text-anchor="middle" x="242.5" y="-103" font-family="Helvetica,sans-Serif" font-size="10.00">_points</text>
</a>
</g>
</g>
<!-- Node1&#45;&gt;Node6 -->
<g id="edge5_Node000001_Node000006" class="edge">
<title>Node1&#45;&gt;Node6</title>
<g id="a_edge5_Node000001_Node000006"><a xlink:title=" ">
<path fill="none" stroke="#63b8ff" d="M96.29,-149.4C118.68,-143.48 148.07,-135.71 174.56,-128.7"/>
<polygon fill="#63b8ff" stroke="#63b8ff" points="175.77,-132 184.54,-126.06 173.98,-125.24 175.77,-132"/>
</a>
</g>
</g>
<!-- Node8 -->
<g id="Node000008" class="node">
<title>Node8</title>
<g id="a_Node000008"><a xlink:href="namespacem__ibm.html#aeb26be92f351079390f574fa020a6140" target="_top" xlink:title="Count the number of ghost points for memory allocation.">
<polygon fill="white" stroke="#666666" points="314.5,-78 170.5,-78 170.5,-48 314.5,-48 314.5,-78"/>
<text text-anchor="start" x="178.5" y="-66" font-family="Helvetica,sans-Serif" font-size="10.00">m_ibm::s_find_num_ghost</text>
<text text-anchor="middle" x="242.5" y="-55" font-family="Helvetica,sans-Serif" font-size="10.00">_points</text>
</a>
</g>
</g>
<!-- Node1&#45;&gt;Node8 -->
<g id="edge7_Node000001_Node000008" class="edge">
<title>Node1&#45;&gt;Node8</title>
<g id="a_edge7_Node000001_Node000008"><a xlink:title=" ">
<path fill="none" stroke="#63b8ff" d="M69.82,-149.36C86.01,-133.98 119.93,-103.91 154,-87 157.81,-85.11 161.79,-83.35 165.86,-81.72"/>
<polygon fill="#63b8ff" stroke="#63b8ff" points="167.34,-84.9 175.49,-78.13 164.9,-78.34 167.34,-84.9"/>
</a>
</g>
</g>
<!-- Node9 -->
<g id="Node000009" class="node">
<title>Node9</title>
<g id="a_Node000009"><a xlink:href="namespacem__ibm.html#a1f7d09eb6dba3c194e7bfe8a76c5885f" target="_top" xlink:title=" ">
<polygon fill="white" stroke="#666666" points="300,-30 185,-30 185,0 300,0 300,-30"/>
<text text-anchor="start" x="193" y="-18" font-family="Helvetica,sans-Serif" font-size="10.00">m_ibm::s_update_ib</text>
<text text-anchor="middle" x="242.5" y="-7" font-family="Helvetica,sans-Serif" font-size="10.00">_lookup</text>
</a>
</g>
</g>
<!-- Node1&#45;&gt;Node9 -->
<g id="edge8_Node000001_Node000009" class="edge">
<title>Node1&#45;&gt;Node9</title>
<g id="a_edge8_Node000001_Node000009"><a xlink:title=" ">
<path fill="none" stroke="#63b8ff" d="M64.84,-149.19C76.7,-126.21 109.49,-68.61 154,-39 160.46,-34.71 167.66,-31.18 175.09,-28.27"/>
<polygon fill="#63b8ff" stroke="#63b8ff" points="176.32,-31.55 184.59,-24.93 173.99,-24.95 176.32,-31.55"/>
</a>
</g>
</g>
<!-- Node7 -->
<g id="Node000007" class="node">
<title>Node7</title>
<g id="a_Node000007"><a xlink:href="namespacem__ibm.html#a79c10dd1225a0f5cd73c8e26ca754016" target="_top" xlink:title=" ">
<polygon fill="white" stroke="#666666" points="542,-120.5 367,-120.5 367,-101.5 542,-101.5 542,-120.5"/>
<text text-anchor="middle" x="454.5" y="-108.5" font-family="Helvetica,sans-Serif" font-size="10.00">m_ibm::s_get_neighborhood_idx</text>
</a>
</g>
</g>
<!-- Node6&#45;&gt;Node7 -->
<g id="edge6_Node000006_Node000007" class="edge">
<title>Node6&#45;&gt;Node7</title>
<g id="a_edge6_Node000006_Node000007"><a xlink:title=" ">
<path fill="none" stroke="#63b8ff" d="M301.16,-111C318.35,-111 337.68,-111 356.65,-111"/>
<polygon fill="#63b8ff" stroke="#63b8ff" points="356.83,-114.5 366.83,-111 356.83,-107.5 356.83,-114.5"/>
</a>
</g>
</g>
</g>
</svg>

<g id="navigator" transform="translate(0 0)" fill="#404254">
  <rect fill="#f2f5e9" fill-opacity="0.5" stroke="#606060" stroke-width=".5" x="0" y="0" width="60" height="60"/>
  <use id="zoomplus" xlink:href="#zoomPlus" x="17" y="9" onmousedown="handleZoom(evt,'in')"/>
  <use id="zoomminus" xlink:href="#zoomMin" x="42" y="9" onmousedown="handleZoom(evt,'out')"/>
  <use id="reset" xlink:href="#resetDef" x="30" y="36" onmousedown="handleReset()"/>
   <use id="arrowup" xlink:href="#arrowUp" x="0" y="0" onmousedown="handlePan(0,-1)"/>
  <use id="arrowright" xlink:href="#arrowRight" x="0" y="0" onmousedown="handlePan(1,0)"/>
  <use id="arrowdown" xlink:href="#arrowDown" x="0" y="0" onmousedown="handlePan(0,1)"/>
  <use id="arrowleft" xlink:href="#arrowLeft" x="0" y="0" onmousedown="handlePan(-1,0)"/>
</g>
<svg viewBox="0 0 15 15" width="100%" height="30px" preserveAspectRatio="xMaxYMin meet">
 <g id="arrow_out" transform="scale(0.3 0.3)">
  <a xlink:href="namespacem__ibm_a14f4b0cb1d4933c3e8e0a30f301da3ad_cgraph_org.svg" target="_base">
   <rect id="button" ry="5" rx="5" y="6" x="6" height="38" width="38"
        fill="#f2f5e9" fill-opacity="0.5" stroke="#606060" stroke-width="1.0"/>
   <path id="arrow"
     d="M 11.500037,31.436501 C 11.940474,20.09759 22.043105,11.32322 32.158766,21.979434 L 37.068811,17.246167 C 37.068811,17.246167 37.088388,32 37.088388,32 L 22.160133,31.978069 C 22.160133,31.978069 26.997745,27.140456 26.997745,27.140456 C 18.528582,18.264221 13.291696,25.230495 11.500037,31.436501 z"
     style="fill:#404040;"/>
  </a>
 </g>
</svg>

<style type='text/css'>
<![CDATA[
[data-mouse-over-selected='false'] { opacity: 0.7; }
[data-mouse-over-selected='true']  { opacity: 1.0; }
]]>
</style>
<script type="application/ecmascript"><![CDATA[
document.addEventListener('DOMContentLoaded', (event) => {
  highlightEdges();
  highlightAdjacentNodes();
});
]]></script>
</svg>
