<?xml version="1.0" encoding="UTF-8" standalone="no"?>
<!DOCTYPE svg PUBLIC "-//W3C//DTD SVG 1.1//EN"
 "http://www.w3.org/Graphics/SVG/1.1/DTD/svg11.dtd">
<!-- Generated by graphviz version 2.40.1 (20161225.0304)
 -->
<!-- Title: m_time_steppers::s_finalize_time_steppers_module Pages: 1 -->
<svg width="211pt" height="44pt"
 viewBox="0.00 0.00 211.00 44.00" xmlns="http://www.w3.org/2000/svg" xmlns:xlink="http://www.w3.org/1999/xlink">
<g id="graph0" class="graph" transform="scale(1 1) rotate(0) translate(4 40)">
<title>m_time_steppers::s_finalize_time_steppers_module</title>
<polygon fill="#ffffff" stroke="transparent" points="-4,4 -4,-40 207,-40 207,4 -4,4"/>
<!-- Node310 -->
<g id="node1" class="node">
<title>Node310</title>
<polygon fill="#bfbfbf" stroke="#000000" points="0,-.5 0,-35.5 80,-35.5 80,-.5 0,-.5"/>
<text text-anchor="start" x="8" y="-25.1" font-family="Helvetica,sans-Serif" font-size="8.00" fill="#000000">m_time_steppers::s</text>
<text text-anchor="start" x="8" y="-16.1" font-family="Helvetica,sans-Serif" font-size="8.00" fill="#000000">_finalize_time_steppers</text>
<text text-anchor="middle" x="40" y="-7.1" font-family="Helvetica,sans-Serif" font-size="8.00" fill="#000000">_module</text>
</g>
<!-- Node311 -->
<g id="node2" class="node">
<title>Node311</title>
<g id="a_node2"><a xlink:href="namespacem__data__output.html#a390239a7390ec5d07e31298573bf09bf" target="_top" xlink:title="The goal of this subroutine is to write to the run&#45;time information file basic footer information app...">
<polygon fill="#ffffff" stroke="#000000" points="116,-5 116,-31 203,-31 203,-5 116,-5"/>
<text text-anchor="start" x="124" y="-20.6" font-family="Helvetica,sans-Serif" font-size="8.00" fill="#000000">m_data_output::s_close</text>
<text text-anchor="middle" x="159.5" y="-11.6" font-family="Helvetica,sans-Serif" font-size="8.00" fill="#000000">_run_time_information_file</text>
</a>
</g>
</g>
<!-- Node310&#45;&gt;Node311 -->
<g id="edge1" class="edge">
<title>Node310&#45;&gt;Node311</title>
<path fill="none" stroke="#191970" d="M80.1242,-18C88.4091,-18 97.2603,-18 105.9357,-18"/>
<polygon fill="#191970" stroke="#191970" points="105.9946,-21.5001 115.9946,-18 105.9946,-14.5001 105.9946,-21.5001"/>
</g>
</g>
</svg>
