<?xml version="1.0" encoding="UTF-8" standalone="no"?>
<!DOCTYPE svg PUBLIC "-//W3C//DTD SVG 1.1//EN"
 "http://www.w3.org/Graphics/SVG/1.1/DTD/svg11.dtd">
<!-- Generated by graphviz version 2.43.0 (0)
 -->
<!-- Title: m_start_up::s_save_data Pages: 1 -->
<!--zoomable 652 -->

<svg id="main" version="1.1" xmlns="http://www.w3.org/2000/svg" xmlns:xlink="http://www.w3.org/1999/xlink" xml:space="preserve" onload="init(evt)">

<style type="text/css"><![CDATA[
.node, .edge {opacity: 0.7;}
.node.selected, .edge.selected {opacity: 1;}
.edge:hover path { stroke: red; }
.edge:hover polygon { stroke: red; fill: red; }
]]></style>

<defs>
  <circle id="rim" cx="0" cy="0" r="7"/>
  <circle id="rim2" cx="0" cy="0" r="3.5"/>
  <g id="zoomPlus">
    <use xlink:href="#rim" fill="#404040"><set attributeName="fill" to="#808080" begin="zoomplus.mouseover" end="zoomplus.mouseout"/></use>
    <path d="M-4,0h8M0,-4v8" fill="none" stroke="white" stroke-width="1.5" pointer-events="none"/>
  </g>
  <g id="zoomMin">
    <use xlink:href="#rim" fill="#404040"><set attributeName="fill" to="#808080" begin="zoomminus.mouseover" end="zoomminus.mouseout"/></use>
    <path d="M-4,0h8" fill="none" stroke="white" stroke-width="1.5" pointer-events="none"/>
  </g>
  <g id="arrowUp" transform="translate(30 24)">
    <use xlink:href="#rim"/>
    <path pointer-events="none" fill="none" stroke="white" stroke-width="1.5" d="M0,-3.0v7 M-2.5,-0.5L0,-3.0L2.5,-0.5"/>
  </g>
  <g id="arrowRight" transform="rotate(90) translate(36 -43)">
    <use xlink:href="#rim"/>
    <path pointer-events="none" fill="none" stroke="white" stroke-width="1.5" d="M0,-3.0v7 M-2.5,-0.5L0,-3.0L2.5,-0.5"/>
  </g>
  <g id="arrowDown" transform="rotate(180) translate(-30 -48)">
    <use xlink:href="#rim"/>
    <path pointer-events="none" fill="none" stroke="white" stroke-width="1.5" d="M0,-3.0v7 M-2.5,-0.5L0,-3.0L2.5,-0.5"/>
  </g>
  <g id="arrowLeft" transform="rotate(270) translate(-36 17)">
    <use xlink:href="#rim"/>
    <path pointer-events="none" fill="none" stroke="white" stroke-width="1.5" d="M0,-3.0v7 M-2.5,-0.5L0,-3.0L2.5,-0.5"/>
  </g>
  <g id="resetDef">
    <use xlink:href="#rim2" fill="#404040"><set attributeName="fill" to="#808080" begin="reset.mouseover" end="reset.mouseout"/></use>
  </g>
</defs>
<script type="application/ecmascript">
var viewWidth = 1226;
var viewHeight = 652;
var sectionId = 'dynsection-23';
</script>
<script type="application/ecmascript" xlink:href="svg.min.js"/>
<svg id="graph" class="graph">
<g id="viewport">
<title>m_start_up::s_save_data</title>
<!-- Node1 -->
<g id="Node000001" class="node">
<title>Node1</title>
<g id="a_Node000001"><a xlink:title="Save conservative variable data to disk at the current time step.">
<polygon fill="#999999" stroke="#666666" points="138,-309.5 0,-309.5 0,-290.5 138,-290.5 138,-309.5"/>
<text text-anchor="middle" x="69" y="-297.5" font-family="Helvetica,sans-Serif" font-size="10.00">m_start_up::s_save_data</text>
</a>
</g>
</g>
<!-- Node2 -->
<g id="Node000002" class="node">
<title>Node2</title>
<g id="a_Node000002"><a xlink:href="namespacem__nvtx.html#acb0ad47c439f074b02a3cfc88817b9c7" target="_top" xlink:title="Pop the current NVTX range to end the GPU profiling region.">
<polygon fill="white" stroke="#666666" points="304,-510.5 178,-510.5 178,-491.5 304,-491.5 304,-510.5"/>
<text text-anchor="middle" x="241" y="-498.5" font-family="Helvetica,sans-Serif" font-size="10.00">m_nvtx::nvtxendrange</text>
</a>
</g>
</g>
<!-- Node1&#45;&gt;Node2 -->
<g id="edge1_Node000001_Node000002" class="edge">
<title>Node1&#45;&gt;Node2</title>
<g id="a_edge1_Node000001_Node000002"><a xlink:title=" ">
<path fill="none" stroke="#63b8ff" d="M72.61,-309.71C81.35,-340.28 112.52,-435.27 174,-483 175.79,-484.39 177.68,-485.67 179.65,-486.86"/>
<polygon fill="#63b8ff" stroke="#63b8ff" points="178.17,-490.03 188.67,-491.44 181.34,-483.79 178.17,-490.03"/>
</a>
</g>
</g>
<!-- Node3 -->
<g id="Node000003" class="node">
<title>Node3</title>
<g id="a_Node000003"><a xlink:href="namespacem__nvtx.html#a9b922c5d5c93c41e0abcd4cf8c382861" target="_top" xlink:title="Push a named NVTX range for GPU profiling, optionally with a color based on the given identifier.">
<polygon fill="white" stroke="#666666" points="306.5,-473.5 175.5,-473.5 175.5,-454.5 306.5,-454.5 306.5,-473.5"/>
<text text-anchor="middle" x="241" y="-461.5" font-family="Helvetica,sans-Serif" font-size="10.00">m_nvtx::nvtxstartrange</text>
</a>
</g>
</g>
<!-- Node1&#45;&gt;Node3 -->
<g id="edge2_Node000001_Node000003" class="edge">
<title>Node1&#45;&gt;Node3</title>
<g id="a_edge2_Node000001_Node000003"><a xlink:title=" ">
<path fill="none" stroke="#63b8ff" d="M74.21,-309.84C85.94,-336.04 121.6,-408.03 174,-445 176.73,-446.92 179.65,-448.66 182.69,-450.21"/>
<polygon fill="#63b8ff" stroke="#63b8ff" points="181.52,-453.52 192.08,-454.38 184.36,-447.13 181.52,-453.52"/>
</a>
</g>
</g>
<!-- Node4 -->
<g id="Node000004" class="node">
<title>Node4</title>
<g id="a_Node000004"><a xlink:href="namespacem__mpi__common.html#a04cfc0bdb377a0ce2f9fd478e4bb3807" target="_top" xlink:title="The subroutine terminates the MPI execution environment.">
<polygon fill="white" stroke="#666666" points="308,-436 174,-436 174,-406 308,-406 308,-436"/>
<text text-anchor="start" x="182" y="-424" font-family="Helvetica,sans-Serif" font-size="10.00">m_mpi_common::s_mpi</text>
<text text-anchor="middle" x="241" y="-413" font-family="Helvetica,sans-Serif" font-size="10.00">_abort</text>
</a>
</g>
</g>
<!-- Node1&#45;&gt;Node4 -->
<g id="edge3_Node000001_Node000004" class="edge">
<title>Node1&#45;&gt;Node4</title>
<g id="a_edge3_Node000001_Node000004"><a xlink:title=" ">
<path fill="none" stroke="#63b8ff" d="M77.91,-309.61C94.09,-328.73 132.95,-371.85 174,-397 176.62,-398.6 179.36,-400.13 182.18,-401.56"/>
<polygon fill="#63b8ff" stroke="#63b8ff" points="180.82,-404.79 191.36,-405.88 183.8,-398.46 180.82,-404.79"/>
</a>
</g>
</g>
<!-- Node5 -->
<g id="Node000005" class="node">
<title>Node5</title>
<g id="a_Node000005"><a xlink:href="namespacem__boundary__common.html#a759354204f31b7b1ecce6258ffec6a5c" target="_top" xlink:title="Populate the buffers of the primitive variables based on the selected boundary conditions.">
<polygon fill="white" stroke="#666666" points="306.5,-387.5 175.5,-387.5 175.5,-346.5 306.5,-346.5 306.5,-387.5"/>
<text text-anchor="start" x="183.5" y="-375.5" font-family="Helvetica,sans-Serif" font-size="10.00">m_boundary_common::</text>
<text text-anchor="start" x="183.5" y="-364.5" font-family="Helvetica,sans-Serif" font-size="10.00">s_populate_variables</text>
<text text-anchor="middle" x="241" y="-353.5" font-family="Helvetica,sans-Serif" font-size="10.00">_buffers</text>
</a>
</g>
</g>
<!-- Node1&#45;&gt;Node5 -->
<g id="edge4_Node000001_Node000005" class="edge">
<title>Node1&#45;&gt;Node5</title>
<g id="a_edge4_Node000001_Node000005"><a xlink:title=" ">
<path fill="none" stroke="#63b8ff" d="M94.36,-309.6C116.13,-318.18 148.99,-331.13 177.99,-342.56"/>
<polygon fill="#63b8ff" stroke="#63b8ff" points="177.06,-345.96 187.65,-346.37 179.63,-339.45 177.06,-345.96"/>
</a>
</g>
</g>
<!-- Node14 -->
<g id="Node000014" class="node">
<title>Node14</title>
<g id="a_Node000014"><a xlink:href="namespacem__data__output.html#a9eea8de093f055adb3b786bff3cab2d8" target="_top" xlink:title="Write data files. Dispatch subroutine that replaces procedure pointer.">
<polygon fill="white" stroke="#666666" points="306.5,-270 175.5,-270 175.5,-240 306.5,-240 306.5,-270"/>
<text text-anchor="start" x="183.5" y="-258" font-family="Helvetica,sans-Serif" font-size="10.00">m_data_output::s_write</text>
<text text-anchor="middle" x="241" y="-247" font-family="Helvetica,sans-Serif" font-size="10.00">_data_files</text>
</a>
</g>
</g>
<!-- Node1&#45;&gt;Node14 -->
<g id="edge14_Node000001_Node000014" class="edge">
<title>Node1&#45;&gt;Node14</title>
<g id="a_edge14_Node000001_Node000014"><a xlink:title=" ">
<path fill="none" stroke="#63b8ff" d="M106.05,-290.46C125.67,-285.26 150.56,-278.68 173.55,-272.59"/>
<polygon fill="#63b8ff" stroke="#63b8ff" points="174.49,-275.96 183.26,-270.02 172.7,-269.2 174.49,-275.96"/>
</a>
</g>
</g>
<!-- Node32 -->
<g id="Node000032" class="node">
<title>Node32</title>
<g id="a_Node000032"><a xlink:href="namespacem__data__output.html#ad7b2f63ea430ad1518152658c5488dcf" target="_top" xlink:title="Writes IB state records to restart_data/ib_state.dat. Must be called only on rank 0.">
<polygon fill="white" stroke="#666666" points="306.5,-204 175.5,-204 175.5,-174 306.5,-174 306.5,-204"/>
<text text-anchor="start" x="183.5" y="-192" font-family="Helvetica,sans-Serif" font-size="10.00">m_data_output::s_write</text>
<text text-anchor="middle" x="241" y="-181" font-family="Helvetica,sans-Serif" font-size="10.00">_ib_state_file</text>
</a>
</g>
</g>
<!-- Node1&#45;&gt;Node32 -->
<g id="edge35_Node000001_Node000032" class="edge">
<title>Node1&#45;&gt;Node32</title>
<g id="a_edge35_Node000001_Node000032"><a xlink:title=" ">
<path fill="none" stroke="#63b8ff" d="M84.41,-290.31C104.44,-276.88 141.84,-251.9 174,-231 184.85,-223.95 196.78,-216.32 207.46,-209.53"/>
<polygon fill="#63b8ff" stroke="#63b8ff" points="209.53,-212.37 216.1,-204.05 205.78,-206.45 209.53,-212.37"/>
</a>
</g>
</g>
<!-- Node35 -->
<g id="Node000035" class="node">
<title>Node35</title>
<g id="a_Node000035"><a xlink:href="namespacem__bubbles__el.html#a00f224f76db49025f0c974450db5fb2f" target="_top" xlink:title="Write the maximum and minimum radius statistics for each bubble.">
<polygon fill="white" stroke="#666666" points="303.5,-156 178.5,-156 178.5,-126 303.5,-126 303.5,-156"/>
<text text-anchor="start" x="186.5" y="-144" font-family="Helvetica,sans-Serif" font-size="10.00">m_bubbles_el::s_write</text>
<text text-anchor="middle" x="241" y="-133" font-family="Helvetica,sans-Serif" font-size="10.00">_lag_bubble_stats</text>
</a>
</g>
</g>
<!-- Node1&#45;&gt;Node35 -->
<g id="edge40_Node000001_Node000035" class="edge">
<title>Node1&#45;&gt;Node35</title>
<g id="a_edge40_Node000001_Node000035"><a xlink:title=" ">
<path fill="none" stroke="#63b8ff" d="M74.91,-290.32C87.81,-265.84 125.05,-200.81 174,-165 175.88,-163.63 177.84,-162.32 179.87,-161.09"/>
<polygon fill="#63b8ff" stroke="#63b8ff" points="181.97,-163.94 189.11,-156.1 178.64,-157.78 181.97,-163.94"/>
</a>
</g>
</g>
<!-- Node36 -->
<g id="Node000036" class="node">
<title>Node36</title>
<g id="a_Node000036"><a xlink:href="namespacem__bubbles__el.html#a380e92c53e3fc9298b7443a4fe7ac7af" target="_top" xlink:title="Write restart files for the Lagrangian bubble solver.">
<polygon fill="white" stroke="#666666" points="303.5,-72 178.5,-72 178.5,-42 303.5,-42 303.5,-72"/>
<text text-anchor="start" x="186.5" y="-60" font-family="Helvetica,sans-Serif" font-size="10.00">m_bubbles_el::s_write</text>
<text text-anchor="middle" x="241" y="-49" font-family="Helvetica,sans-Serif" font-size="10.00">_restart_lag_bubbles</text>
</a>
</g>
</g>
<!-- Node1&#45;&gt;Node36 -->
<g id="edge41_Node000001_Node000036" class="edge">
<title>Node1&#45;&gt;Node36</title>
<g id="a_edge41_Node000001_Node000036"><a xlink:title=" ">
<path fill="none" stroke="#63b8ff" d="M74.22,-290.2C86.79,-261.68 126.05,-176.92 174,-117 185.19,-103.02 199.74,-89.42 212.33,-78.72"/>
<polygon fill="#63b8ff" stroke="#63b8ff" points="214.81,-81.21 220.27,-72.12 210.34,-75.82 214.81,-81.21"/>
</a>
</g>
</g>
<!-- Node6 -->
<g id="Node000006" class="node">
<title>Node6</title>
<g id="a_Node000006"><a xlink:href="namespacem__boundary__common.html#a2fe3d0adef0faf65f6410f293d32bb42" target="_top" xlink:title="Apply axis boundary conditions for cylindrical coordinates by reflecting values across the axis with ...">
<polygon fill="white" stroke="#666666" points="475,-452 344,-452 344,-422 475,-422 475,-452"/>
<text text-anchor="start" x="352" y="-440" font-family="Helvetica,sans-Serif" font-size="10.00">m_boundary_common::</text>
<text text-anchor="middle" x="409.5" y="-429" font-family="Helvetica,sans-Serif" font-size="10.00">s_axis</text>
</a>
</g>
</g>
<!-- Node5&#45;&gt;Node6 -->
<g id="edge5_Node000005_Node000006" class="edge">
<title>Node5&#45;&gt;Node6</title>
<g id="a_edge5_Node000005_Node000006"><a xlink:title=" ">
<path fill="none" stroke="#63b8ff" d="M287.28,-387.59C311.75,-398.68 338.14,-410.59 344,-413 348.22,-414.73 352.61,-416.48 357.03,-418.21"/>
<polygon fill="#63b8ff" stroke="#63b8ff" points="356.11,-421.6 366.7,-421.92 358.62,-415.07 356.11,-421.6"/>
</a>
</g>
</g>
<!-- Node7 -->
<g id="Node000007" class="node">
<title>Node7</title>
<g id="a_Node000007"><a xlink:href="namespacem__boundary__common.html#a868f1a4cb136b1e10ff0266614eae5b8" target="_top" xlink:title="Apply Dirichlet boundary conditions by prescribing ghost cell values from stored boundary buffers.">
<polygon fill="white" stroke="#666666" points="475,-404 344,-404 344,-374 475,-374 475,-404"/>
<text text-anchor="start" x="352" y="-392" font-family="Helvetica,sans-Serif" font-size="10.00">m_boundary_common::</text>
<text text-anchor="middle" x="409.5" y="-381" font-family="Helvetica,sans-Serif" font-size="10.00">s_dirichlet</text>
</a>
</g>
</g>
<!-- Node5&#45;&gt;Node7 -->
<g id="edge6_Node000005_Node000007" class="edge">
<title>Node5&#45;&gt;Node7</title>
<g id="a_edge6_Node000005_Node000007"><a xlink:title=" ">
<path fill="none" stroke="#63b8ff" d="M306.85,-375.57C315.67,-376.73 324.79,-377.94 333.77,-379.13"/>
<polygon fill="#63b8ff" stroke="#63b8ff" points="333.45,-382.61 343.83,-380.45 334.37,-375.67 333.45,-382.61"/>
</a>
</g>
</g>
<!-- Node8 -->
<g id="Node000008" class="node">
<title>Node8</title>
<g id="a_Node000008"><a xlink:href="namespacem__boundary__common.html#a8aaafb76d038c4e6c8ae6272efa774ad" target="_top" xlink:title="Fill ghost cells by copying the nearest boundary cell value along the specified direction.">
<polygon fill="white" stroke="#666666" points="668.5,-465 521.5,-465 521.5,-435 668.5,-435 668.5,-465"/>
<text text-anchor="start" x="529.5" y="-453" font-family="Helvetica,sans-Serif" font-size="10.00">m_boundary_common::</text>
<text text-anchor="middle" x="595" y="-442" font-family="Helvetica,sans-Serif" font-size="10.00">s_ghost_cell_extrapolation</text>
</a>
</g>
</g>
<!-- Node5&#45;&gt;Node8 -->
<g id="edge8_Node000005_Node000008" class="edge">
<title>Node5&#45;&gt;Node8</title>
<g id="a_edge8_Node000005_Node000008"><a xlink:title=" ">
<path fill="none" stroke="#63b8ff" d="M306.7,-349.79C356.08,-340.42 424.06,-335.91 475,-365 502.34,-380.61 486.12,-406.71 511,-426 512.78,-427.38 514.64,-428.68 516.56,-429.91"/>
<polygon fill="#63b8ff" stroke="#63b8ff" points="514.9,-432.99 525.33,-434.83 518.32,-426.88 514.9,-432.99"/>
</a>
</g>
</g>
<!-- Node9 -->
<g id="Node000009" class="node">
<title>Node9</title>
<g id="a_Node000009"><a xlink:href="namespacem__boundary__common.html#ac94c00d60da5c8365f14f1b035566c21" target="_top" xlink:title="Apply no&#45;slip wall boundary conditions by reflecting and negating all velocity components at the wall...">
<polygon fill="white" stroke="#666666" points="475,-318 344,-318 344,-288 475,-288 475,-318"/>
<text text-anchor="start" x="352" y="-306" font-family="Helvetica,sans-Serif" font-size="10.00">m_boundary_common::</text>
<text text-anchor="middle" x="409.5" y="-295" font-family="Helvetica,sans-Serif" font-size="10.00">s_no_slip_wall</text>
</a>
</g>
</g>
<!-- Node5&#45;&gt;Node9 -->
<g id="edge9_Node000005_Node000009" class="edge">
<title>Node5&#45;&gt;Node9</title>
<g id="a_edge9_Node000005_Node000009"><a xlink:title=" ">
<path fill="none" stroke="#63b8ff" d="M295.6,-346.4C316.19,-338.48 339.56,-329.5 359.67,-321.77"/>
<polygon fill="#63b8ff" stroke="#63b8ff" points="361.18,-324.94 369.26,-318.08 358.67,-318.4 361.18,-324.94"/>
</a>
</g>
</g>
<!-- Node10 -->
<g id="Node000010" class="node">
<title>Node10</title>
<g id="a_Node000010"><a xlink:href="namespacem__boundary__common.html#a4d160d849a7ea4ce6a8cac2c478e5b9c" target="_top" xlink:title="Apply periodic boundary conditions by copying values from the opposite domain boundary.">
<polygon fill="white" stroke="#666666" points="475,-644 344,-644 344,-614 475,-614 475,-644"/>
<text text-anchor="start" x="352" y="-632" font-family="Helvetica,sans-Serif" font-size="10.00">m_boundary_common::</text>
<text text-anchor="middle" x="409.5" y="-621" font-family="Helvetica,sans-Serif" font-size="10.00">s_periodic</text>
</a>
</g>
</g>
<!-- Node5&#45;&gt;Node10 -->
<g id="edge10_Node000005_Node000010" class="edge">
<title>Node5&#45;&gt;Node10</title>
<g id="a_edge10_Node000005_Node000010"><a xlink:title=" ">
<path fill="none" stroke="#63b8ff" d="M298.61,-387.68C302.12,-390.42 305.31,-393.51 308,-397 365.36,-471.24 284.07,-532.82 344,-605 344.62,-605.74 345.26,-606.46 345.93,-607.16"/>
<polygon fill="#63b8ff" stroke="#63b8ff" points="343.95,-610.07 353.85,-613.83 348.45,-604.71 343.95,-610.07"/>
</a>
</g>
</g>
<!-- Node11 -->
<g id="Node000011" class="node">
<title>Node11</title>
<g id="a_Node000011"><a xlink:href="namespacem__boundary__common.html#ac55853dffb7e074e8f645ff0a63e7e38" target="_top" xlink:title="Extrapolate QBMM bubble pressure and mass&#45;vapor variables into ghost cells by copying boundary values...">
<polygon fill="white" stroke="#666666" points="475,-596 344,-596 344,-566 475,-566 475,-596"/>
<text text-anchor="start" x="352" y="-584" font-family="Helvetica,sans-Serif" font-size="10.00">m_boundary_common::</text>
<text text-anchor="middle" x="409.5" y="-573" font-family="Helvetica,sans-Serif" font-size="10.00">s_qbmm_extrapolation</text>
</a>
</g>
</g>
<!-- Node5&#45;&gt;Node11 -->
<g id="edge11_Node000005_Node000011" class="edge">
<title>Node5&#45;&gt;Node11</title>
<g id="a_edge11_Node000005_Node000011"><a xlink:title=" ">
<path fill="none" stroke="#63b8ff" d="M298.12,-387.6C301.78,-390.36 305.14,-393.48 308,-397 353.99,-453.55 296.05,-502.1 344,-557 344.75,-557.85 345.53,-558.68 346.34,-559.47"/>
<polygon fill="#63b8ff" stroke="#63b8ff" points="344.34,-562.36 354.34,-565.87 348.71,-556.89 344.34,-562.36"/>
</a>
</g>
</g>
<!-- Node12 -->
<g id="Node000012" class="node">
<title>Node12</title>
<g id="a_Node000012"><a xlink:href="namespacem__boundary__common.html#aafa9626b0837c3fc44bec98866283f1d" target="_top" xlink:title="Apply slip wall boundary conditions by extrapolating scalars and reflecting the wall&#45;normal velocity ...">
<polygon fill="white" stroke="#666666" points="475,-548 344,-548 344,-518 475,-518 475,-548"/>
<text text-anchor="start" x="352" y="-536" font-family="Helvetica,sans-Serif" font-size="10.00">m_boundary_common::</text>
<text text-anchor="middle" x="409.5" y="-525" font-family="Helvetica,sans-Serif" font-size="10.00">s_slip_wall</text>
</a>
</g>
</g>
<!-- Node5&#45;&gt;Node12 -->
<g id="edge12_Node000005_Node000012" class="edge">
<title>Node5&#45;&gt;Node12</title>
<g id="a_edge12_Node000005_Node000012"><a xlink:title=" ">
<path fill="none" stroke="#63b8ff" d="M297.46,-387.67C301.32,-390.42 304.9,-393.52 308,-397 342.77,-436.05 307.87,-471.2 344,-509 344.93,-509.97 345.9,-510.9 346.91,-511.8"/>
<polygon fill="#63b8ff" stroke="#63b8ff" points="345.15,-514.85 355.28,-517.95 349.3,-509.21 345.15,-514.85"/>
</a>
</g>
</g>
<!-- Node13 -->
<g id="Node000013" class="node">
<title>Node13</title>
<g id="a_Node000013"><a xlink:href="namespacem__boundary__common.html#a117fa18d768baf2b0edd4e8887a923d5" target="_top" xlink:title="Apply reflective (symmetry) boundary conditions by mirroring primitive variables and flipping the nor...">
<polygon fill="white" stroke="#666666" points="475,-500 344,-500 344,-470 475,-470 475,-500"/>
<text text-anchor="start" x="352" y="-488" font-family="Helvetica,sans-Serif" font-size="10.00">m_boundary_common::</text>
<text text-anchor="middle" x="409.5" y="-477" font-family="Helvetica,sans-Serif" font-size="10.00">s_symmetry</text>
</a>
</g>
</g>
<!-- Node5&#45;&gt;Node13 -->
<g id="edge13_Node000005_Node000013" class="edge">
<title>Node5&#45;&gt;Node13</title>
<g id="a_edge13_Node000005_Node000013"><a xlink:title=" ">
<path fill="none" stroke="#63b8ff" d="M295.42,-387.55C299.92,-390.37 304.2,-393.51 308,-397 332.04,-419.07 319.19,-439.79 344,-461 345.5,-462.28 347.07,-463.5 348.7,-464.65"/>
<polygon fill="#63b8ff" stroke="#63b8ff" points="346.93,-467.67 357.28,-469.91 350.59,-461.7 346.93,-467.67"/>
</a>
</g>
</g>
<!-- Node7&#45;&gt;Node8 -->
<g id="edge7_Node000007_Node000008" class="edge">
<title>Node7&#45;&gt;Node8</title>
<g id="a_edge7_Node000007_Node000008"><a xlink:title=" ">
<path fill="none" stroke="#63b8ff" d="M450.99,-404.06C476.18,-413.4 504.91,-424 511,-426 517.08,-428 523.44,-429.99 529.81,-431.93"/>
<polygon fill="#63b8ff" stroke="#63b8ff" points="529.22,-435.41 539.81,-434.93 531.23,-428.71 529.22,-435.41"/>
</a>
</g>
</g>
<!-- Node15 -->
<g id="Node000015" class="node">
<title>Node15</title>
<g id="a_Node000015"><a xlink:href="namespacem__data__output.html#a70eef01cb0dda6dd292ddc4b63544be5" target="_top" xlink:title="Write grid and conservative variable data files in parallel via MPI I/O.">
<polygon fill="white" stroke="#666666" points="475,-270 344,-270 344,-240 475,-240 475,-270"/>
<text text-anchor="start" x="352" y="-258" font-family="Helvetica,sans-Serif" font-size="10.00">m_data_output::s_write</text>
<text text-anchor="middle" x="409.5" y="-247" font-family="Helvetica,sans-Serif" font-size="10.00">_parallel_data_files</text>
</a>
</g>
</g>
<!-- Node14&#45;&gt;Node15 -->
<g id="edge15_Node000014_Node000015" class="edge">
<title>Node14&#45;&gt;Node15</title>
<g id="a_edge15_Node000014_Node000015"><a xlink:title=" ">
<path fill="none" stroke="#63b8ff" d="M306.85,-255C315.67,-255 324.79,-255 333.77,-255"/>
<polygon fill="#63b8ff" stroke="#63b8ff" points="333.83,-258.5 343.83,-255 333.83,-251.5 333.83,-258.5"/>
</a>
</g>
</g>
<!-- Node22 -->
<g id="Node000022" class="node">
<title>Node22</title>
<g id="a_Node000022"><a xlink:href="namespacem__data__output.html#aa24a29afef33c331f912d6d57dbbc5fd" target="_top" xlink:title="Write grid and conservative variable data files in serial format.">
<polygon fill="white" stroke="#666666" points="475,-192 344,-192 344,-162 475,-162 475,-192"/>
<text text-anchor="start" x="352" y="-180" font-family="Helvetica,sans-Serif" font-size="10.00">m_data_output::s_write</text>
<text text-anchor="middle" x="409.5" y="-169" font-family="Helvetica,sans-Serif" font-size="10.00">_serial_data_files</text>
</a>
</g>
</g>
<!-- Node14&#45;&gt;Node22 -->
<g id="edge22_Node000014_Node000022" class="edge">
<title>Node14&#45;&gt;Node22</title>
<g id="a_edge22_Node000014_Node000022"><a xlink:title=" ">
<path fill="none" stroke="#63b8ff" d="M274.1,-239.96C300.51,-227.59 338.12,-209.97 366.84,-196.52"/>
<polygon fill="#63b8ff" stroke="#63b8ff" points="368.64,-199.54 376.21,-192.13 365.67,-193.2 368.64,-199.54"/>
</a>
</g>
</g>
<!-- Node16 -->
<g id="Node000016" class="node">
<title>Node16</title>
<g id="a_Node000016"><a xlink:href="namespacem__delay__file__access.html#a9b90086a2cf6bbb569047c955d2e67fe" target="_top" xlink:title="Introduce a rank&#45;dependent busy&#45;wait delay to stagger parallel file access and reduce I/O contention.">
<polygon fill="white" stroke="#666666" points="653.5,-417 536.5,-417 536.5,-387 653.5,-387 653.5,-417"/>
<text text-anchor="start" x="544.5" y="-405" font-family="Helvetica,sans-Serif" font-size="10.00">m_delay_file_access</text>
<text text-anchor="middle" x="595" y="-394" font-family="Helvetica,sans-Serif" font-size="10.00">::delayfileaccess</text>
</a>
</g>
</g>
<!-- Node15&#45;&gt;Node16 -->
<g id="edge16_Node000015_Node000016" class="edge">
<title>Node15&#45;&gt;Node16</title>
<g id="a_edge16_Node000015_Node000016"><a xlink:title=" ">
<path fill="none" stroke="#63b8ff" d="M463.58,-270.18C467.74,-272.69 471.63,-275.61 475,-279 507.98,-312.23 476.8,-346.03 511,-378 515.67,-382.37 521.09,-385.95 526.88,-388.88"/>
<polygon fill="#63b8ff" stroke="#63b8ff" points="525.67,-392.17 536.23,-392.98 528.47,-385.76 525.67,-392.17"/>
</a>
</g>
</g>
<!-- Node17 -->
<g id="Node000017" class="node">
<title>Node17</title>
<g id="a_Node000017"><a xlink:href="namespacem__compile__specific.html#a9cf8c029e502931415929734c03f340d" target="_top" xlink:title="Inquires on the existence of a directory.">
<polygon fill="white" stroke="#666666" points="651.5,-246 538.5,-246 538.5,-216 651.5,-216 651.5,-246"/>
<text text-anchor="start" x="546.5" y="-234" font-family="Helvetica,sans-Serif" font-size="10.00">m_compile_specific</text>
<text text-anchor="middle" x="595" y="-223" font-family="Helvetica,sans-Serif" font-size="10.00">::my_inquire</text>
</a>
</g>
</g>
<!-- Node15&#45;&gt;Node17 -->
<g id="edge17_Node000015_Node000017" class="edge">
<title>Node15&#45;&gt;Node17</title>
<g id="a_edge17_Node000015_Node000017"><a xlink:title=" ">
<path fill="none" stroke="#63b8ff" d="M475.2,-246.54C492.45,-244.28 511.1,-241.84 528.4,-239.58"/>
<polygon fill="#63b8ff" stroke="#63b8ff" points="528.95,-243.04 538.41,-238.27 528.04,-236.1 528.95,-243.04"/>
</a>
</g>
</g>
<!-- Node18 -->
<g id="Node000018" class="node">
<title>Node18</title>
<g id="a_Node000018"><a xlink:href="namespacem__compile__specific.html#aa1b4e12a20e09147a215c3b5018484b0" target="_top" xlink:title="Create a directory and all its parents if it does not exist.">
<polygon fill="white" stroke="#666666" points="651.5,-42 538.5,-42 538.5,-12 651.5,-12 651.5,-42"/>
<text text-anchor="start" x="546.5" y="-30" font-family="Helvetica,sans-Serif" font-size="10.00">m_compile_specific</text>
<text text-anchor="middle" x="595" y="-19" font-family="Helvetica,sans-Serif" font-size="10.00">::s_create_directory</text>
</a>
</g>
</g>
<!-- Node15&#45;&gt;Node18 -->
<g id="edge18_Node000015_Node000018" class="edge">
<title>Node15&#45;&gt;Node18</title>
<g id="a_edge18_Node000015_Node000018"><a xlink:title=" ">
<path fill="none" stroke="#63b8ff" d="M435.37,-239.92C449.03,-230.39 465.16,-216.89 475,-201 511.11,-142.72 463.65,-100.58 511,-51 516.06,-45.71 522.2,-41.56 528.84,-38.31"/>
<polygon fill="#63b8ff" stroke="#63b8ff" points="530.26,-41.51 538.14,-34.42 527.56,-35.05 530.26,-41.51"/>
</a>
</g>
</g>
<!-- Node19 -->
<g id="Node000019" class="node">
<title>Node19</title>
<g id="a_Node000019"><a xlink:href="namespacem__helper.html#adf827c606652ea511bd0befcc9164c03" target="_top" xlink:title="Downsample conservative variable fields by a factor of 3 in each direction using volume averaging.">
<polygon fill="white" stroke="#666666" points="679,-368.5 511,-368.5 511,-349.5 679,-349.5 679,-368.5"/>
<text text-anchor="middle" x="595" y="-356.5" font-family="Helvetica,sans-Serif" font-size="10.00">m_helper::s_downsample_data</text>
</a>
</g>
</g>
<!-- Node15&#45;&gt;Node19 -->
<g id="edge19_Node000015_Node000019" class="edge">
<title>Node15&#45;&gt;Node19</title>
<g id="a_edge19_Node000015_Node000019"><a xlink:title=" ">
<path fill="none" stroke="#63b8ff" d="M461.67,-270.15C466.44,-272.68 470.98,-275.61 475,-279 499.36,-299.54 485.24,-322.25 511,-341 512.89,-342.37 514.86,-343.65 516.9,-344.83"/>
<polygon fill="#63b8ff" stroke="#63b8ff" points="515.7,-348.14 526.21,-349.42 518.79,-341.86 515.7,-348.14"/>
</a>
</g>
</g>
<!-- Node20 -->
<g id="Node000020" class="node">
<title>Node20</title>
<g id="a_Node000020"><a xlink:href="namespacem__helper.html#afd343d70a36c65cb7be86a183aa594ac" target="_top" xlink:title="Convert an integer to its trimmed string representation.">
<polygon fill="white" stroke="#666666" points="657.5,-331.5 532.5,-331.5 532.5,-312.5 657.5,-312.5 657.5,-331.5"/>
<text text-anchor="middle" x="595" y="-319.5" font-family="Helvetica,sans-Serif" font-size="10.00">m_helper::s_int_to_str</text>
</a>
</g>
</g>
<!-- Node15&#45;&gt;Node20 -->
<g id="edge20_Node000015_Node000020" class="edge">
<title>Node15&#45;&gt;Node20</title>
<g id="a_edge20_Node000015_Node000020"><a xlink:title=" ">
<path fill="none" stroke="#63b8ff" d="M455.15,-270.07C461.91,-272.79 468.72,-275.79 475,-279 492.13,-287.75 493.34,-295.4 511,-303 516.79,-305.49 522.96,-307.68 529.21,-309.6"/>
<polygon fill="#63b8ff" stroke="#63b8ff" points="528.5,-313.04 539.07,-312.4 530.41,-306.3 528.5,-313.04"/>
</a>
</g>
</g>
<!-- Node21 -->
<g id="Node000021" class="node">
<title>Node21</title>
<g id="a_Node000021"><a xlink:href="namespacem__data__output.html#aedabc28a11a6ded24cf19cc5d46692a5" target="_top" xlink:title="Write immersed boundary marker data in parallel using MPI I/O.">
<polygon fill="white" stroke="#666666" points="660.5,-294 529.5,-294 529.5,-264 660.5,-264 660.5,-294"/>
<text text-anchor="start" x="537.5" y="-282" font-family="Helvetica,sans-Serif" font-size="10.00">m_data_output::s_write</text>
<text text-anchor="middle" x="595" y="-271" font-family="Helvetica,sans-Serif" font-size="10.00">_parallel_ib_data</text>
</a>
</g>
</g>
<!-- Node15&#45;&gt;Node21 -->
<g id="edge21_Node000015_Node000021" class="edge">
<title>Node15&#45;&gt;Node21</title>
<g id="a_edge21_Node000015_Node000021"><a xlink:title=" ">
<path fill="none" stroke="#63b8ff" d="M475.2,-263.46C489.45,-265.33 504.66,-267.31 519.27,-269.23"/>
<polygon fill="#63b8ff" stroke="#63b8ff" points="518.9,-272.71 529.27,-270.53 519.81,-265.77 518.9,-272.71"/>
</a>
</g>
</g>
<!-- Node22&#45;&gt;Node17 -->
<g id="edge23_Node000022_Node000017" class="edge">
<title>Node22&#45;&gt;Node17</title>
<g id="a_edge23_Node000022_Node000017"><a xlink:title=" ">
<path fill="none" stroke="#63b8ff" d="M461.61,-192.04C483.79,-198.57 509.94,-206.26 533.11,-213.08"/>
<polygon fill="#63b8ff" stroke="#63b8ff" points="532.26,-216.48 542.84,-215.95 534.24,-209.76 532.26,-216.48"/>
</a>
</g>
</g>
<!-- Node22&#45;&gt;Node18 -->
<g id="edge32_Node000022_Node000018" class="edge">
<title>Node22&#45;&gt;Node18</title>
<g id="a_edge32_Node000022_Node000018"><a xlink:title=" ">
<path fill="none" stroke="#63b8ff" d="M463.61,-161.85C467.77,-159.34 471.65,-156.41 475,-153 508.7,-118.72 476.04,-84 511,-51 516.13,-46.16 522.18,-42.28 528.63,-39.19"/>
<polygon fill="#63b8ff" stroke="#63b8ff" points="530.41,-42.24 538.32,-35.18 527.74,-35.77 530.41,-42.24"/>
</a>
</g>
</g>
<!-- Node23 -->
<g id="Node000023" class="node">
<title>Node23</title>
<g id="a_Node000023"><a xlink:href="namespacem__variables__conversion.html#a7d567315b057c0da0cb37f89ef298031" target="_top" xlink:title="Convert conserved variables (rho*alpha, rho*u, E, alpha) to primitives (rho, u, p,...">
<polygon fill="white" stroke="#666666" points="664,-197.5 526,-197.5 526,-156.5 664,-156.5 664,-197.5"/>
<text text-anchor="start" x="534" y="-185.5" font-family="Helvetica,sans-Serif" font-size="10.00">m_variables_conversion</text>
<text text-anchor="start" x="534" y="-174.5" font-family="Helvetica,sans-Serif" font-size="10.00">::s_convert_conservative</text>
<text text-anchor="middle" x="595" y="-163.5" font-family="Helvetica,sans-Serif" font-size="10.00">_to_primitive_variables</text>
</a>
</g>
</g>
<!-- Node22&#45;&gt;Node23 -->
<g id="edge24_Node000022_Node000023" class="edge">
<title>Node22&#45;&gt;Node23</title>
<g id="a_edge24_Node000022_Node000023"><a xlink:title=" ">
<path fill="none" stroke="#63b8ff" d="M475.2,-177C488.27,-177 502.15,-177 515.63,-177"/>
<polygon fill="#63b8ff" stroke="#63b8ff" points="515.85,-180.5 525.85,-177 515.85,-173.5 515.85,-180.5"/>
</a>
</g>
</g>
<!-- Node30 -->
<g id="Node000030" class="node">
<title>Node30</title>
<g id="a_Node000030"><a xlink:href="namespacem__compile__specific.html#a60af946dc5a6e9ece1327c7cb756c4a2" target="_top" xlink:title="Recursively delete a directory using a platform&#45;specific system command.">
<polygon fill="white" stroke="#666666" points="651.5,-138 538.5,-138 538.5,-108 651.5,-108 651.5,-138"/>
<text text-anchor="start" x="546.5" y="-126" font-family="Helvetica,sans-Serif" font-size="10.00">m_compile_specific</text>
<text text-anchor="middle" x="595" y="-115" font-family="Helvetica,sans-Serif" font-size="10.00">::s_delete_directory</text>
</a>
</g>
</g>
<!-- Node22&#45;&gt;Node30 -->
<g id="edge33_Node000022_Node000030" class="edge">
<title>Node22&#45;&gt;Node30</title>
<g id="a_edge33_Node000022_Node000030"><a xlink:title=" ">
<path fill="none" stroke="#63b8ff" d="M460.57,-161.96C476.67,-157.15 494.58,-151.83 511,-147 517.83,-144.99 524.97,-142.91 532.09,-140.84"/>
<polygon fill="#63b8ff" stroke="#63b8ff" points="533.11,-144.19 541.73,-138.04 531.16,-137.47 533.11,-144.19"/>
</a>
</g>
</g>
<!-- Node31 -->
<g id="Node000031" class="node">
<title>Node31</title>
<g id="a_Node000031"><a xlink:href="namespacem__data__output.html#a88654d382efaa311752d6d3119f22fa4" target="_top" xlink:title="Write immersed boundary marker data to a serial (per&#45;processor) unformatted file.">
<polygon fill="white" stroke="#666666" points="660.5,-90 529.5,-90 529.5,-60 660.5,-60 660.5,-90"/>
<text text-anchor="start" x="537.5" y="-78" font-family="Helvetica,sans-Serif" font-size="10.00">m_data_output::s_write</text>
<text text-anchor="middle" x="595" y="-67" font-family="Helvetica,sans-Serif" font-size="10.00">_serial_ib_data</text>
</a>
</g>
</g>
<!-- Node22&#45;&gt;Node31 -->
<g id="edge34_Node000022_Node000031" class="edge">
<title>Node22&#45;&gt;Node31</title>
<g id="a_edge34_Node000022_Node000031"><a xlink:title=" ">
<path fill="none" stroke="#63b8ff" d="M460.8,-161.93C465.85,-159.37 470.69,-156.41 475,-153 497.62,-135.1 487.73,-116.04 511,-99 513.87,-96.9 516.92,-94.98 520.09,-93.23"/>
<polygon fill="#63b8ff" stroke="#63b8ff" points="521.87,-96.26 529.31,-88.72 518.79,-89.97 521.87,-96.26"/>
</a>
</g>
</g>
<!-- Node24 -->
<g id="Node000024" class="node">
<title>Node24</title>
<g id="a_Node000024"><a xlink:href="namespacem__variables__conversion.html#a58c19a9ba2767016cd7c916cd52b8d0e" target="_top" xlink:title="Compute the pressure from the appropriate equation of state.">
<polygon fill="white" stroke="#666666" points="850,-260 715,-260 715,-230 850,-230 850,-260"/>
<text text-anchor="start" x="723" y="-248" font-family="Helvetica,sans-Serif" font-size="10.00">m_variables_conversion</text>
<text text-anchor="middle" x="782.5" y="-237" font-family="Helvetica,sans-Serif" font-size="10.00">::s_compute_pressure</text>
</a>
</g>
</g>
<!-- Node23&#45;&gt;Node24 -->
<g id="edge25_Node000023_Node000024" class="edge">
<title>Node23&#45;&gt;Node24</title>
<g id="a_edge25_Node000023_Node000024"><a xlink:title=" ">
<path fill="none" stroke="#63b8ff" d="M653.17,-197.6C661.83,-200.73 670.65,-203.94 679,-207 696.13,-213.27 714.85,-220.19 731.55,-226.39"/>
<polygon fill="#63b8ff" stroke="#63b8ff" points="730.53,-229.74 741.12,-229.94 732.97,-223.18 730.53,-229.74"/>
</a>
</g>
</g>
<!-- Node25 -->
<g id="Node000025" class="node">
<title>Node25</title>
<g id="a_Node000025"><a xlink:href="namespacem__variables__conversion.html#a21906a4c29bbb1187212feb969c00502" target="_top" xlink:title="Compute partial densities and volume fractions.">
<polygon fill="white" stroke="#666666" points="1218,-192 1057,-192 1057,-162 1218,-162 1218,-192"/>
<text text-anchor="start" x="1065" y="-180" font-family="Helvetica,sans-Serif" font-size="10.00">m_variables_conversion</text>
<text text-anchor="middle" x="1137.5" y="-169" font-family="Helvetica,sans-Serif" font-size="10.00">::s_compute_species_fraction</text>
</a>
</g>
</g>
<!-- Node23&#45;&gt;Node25 -->
<g id="edge26_Node000023_Node000025" class="edge">
<title>Node23&#45;&gt;Node25</title>
<g id="a_edge26_Node000023_Node000025"><a xlink:title=" ">
<path fill="none" stroke="#63b8ff" d="M664.26,-180.36C680.86,-181.04 698.56,-181.65 715,-182 850.97,-184.86 885.03,-184.94 1021,-182 1029.37,-181.82 1038.07,-181.56 1046.78,-181.26"/>
<polygon fill="#63b8ff" stroke="#63b8ff" points="1047.12,-184.75 1056.99,-180.89 1046.87,-177.76 1047.12,-184.75"/>
</a>
</g>
</g>
<!-- Node26 -->
<g id="Node000026" class="node">
<title>Node26</title>
<g id="a_Node000026"><a xlink:href="namespacem__variables__conversion.html#af1bda14464459b0fd9448dd8885741c7" target="_top" xlink:title="GPU&#45;accelerated conversion of species volume fractions and partial densities to mixture density,...">
<polygon fill="white" stroke="#666666" points="850,-114.5 715,-114.5 715,-73.5 850,-73.5 850,-114.5"/>
<text text-anchor="start" x="723" y="-102.5" font-family="Helvetica,sans-Serif" font-size="10.00">m_variables_conversion</text>
<text text-anchor="start" x="723" y="-91.5" font-family="Helvetica,sans-Serif" font-size="10.00">::s_convert_species_to</text>
<text text-anchor="middle" x="782.5" y="-80.5" font-family="Helvetica,sans-Serif" font-size="10.00">_mixture_variables_acc</text>
</a>
</g>
</g>
<!-- Node23&#45;&gt;Node26 -->
<g id="edge27_Node000023_Node000026" class="edge">
<title>Node23&#45;&gt;Node26</title>
<g id="a_edge27_Node000023_Node000026"><a xlink:title=" ">
<path fill="none" stroke="#63b8ff" d="M658.34,-156.33C665.41,-153.44 672.43,-150.31 679,-147 696.17,-138.34 698.12,-132.21 715,-123 717.49,-121.64 720.05,-120.3 722.66,-118.98"/>
<polygon fill="#63b8ff" stroke="#63b8ff" points="724.2,-122.12 731.65,-114.59 721.13,-115.83 724.2,-122.12"/>
</a>
</g>
</g>
<!-- Node27 -->
<g id="Node000027" class="node">
<title>Node27</title>
<g id="a_Node000027"><a xlink:href="namespacem__variables__conversion.html#ad79dc943a9108e838d80bb2b264fba8e" target="_top" xlink:title="Dispatch to the s_convert_mixture_to_mixture_variables and s_convert_species_to_mixture_variables sub...">
<polygon fill="white" stroke="#666666" points="850,-173.5 715,-173.5 715,-132.5 850,-132.5 850,-173.5"/>
<text text-anchor="start" x="723" y="-161.5" font-family="Helvetica,sans-Serif" font-size="10.00">m_variables_conversion</text>
<text text-anchor="start" x="723" y="-150.5" font-family="Helvetica,sans-Serif" font-size="10.00">::s_convert_to_mixture</text>
<text text-anchor="middle" x="782.5" y="-139.5" font-family="Helvetica,sans-Serif" font-size="10.00">_variables</text>
</a>
</g>
</g>
<!-- Node23&#45;&gt;Node27 -->
<g id="edge28_Node000023_Node000027" class="edge">
<title>Node23&#45;&gt;Node27</title>
<g id="a_edge28_Node000023_Node000027"><a xlink:title=" ">
<path fill="none" stroke="#63b8ff" d="M664.02,-168.2C677.2,-166.49 691.11,-164.7 704.55,-162.96"/>
<polygon fill="#63b8ff" stroke="#63b8ff" points="705.26,-166.39 714.73,-161.64 704.36,-159.45 705.26,-166.39"/>
</a>
</g>
</g>
<!-- Node28 -->
<g id="Node000028" class="node">
<title>Node28</title>
<g id="a_Node000028"><a xlink:href="namespacem__variables__conversion.html#a8b30b668d9de48d0bf0d53fa56116847" target="_top" xlink:title="Convert mixture variables to density, gamma, pi_inf, and qv for the gamma/pi_inf model....">
<polygon fill="white" stroke="#666666" points="1021,-114.5 886,-114.5 886,-73.5 1021,-73.5 1021,-114.5"/>
<text text-anchor="start" x="894" y="-102.5" font-family="Helvetica,sans-Serif" font-size="10.00">m_variables_conversion</text>
<text text-anchor="start" x="894" y="-91.5" font-family="Helvetica,sans-Serif" font-size="10.00">::s_convert_mixture_to</text>
<text text-anchor="middle" x="953.5" y="-80.5" font-family="Helvetica,sans-Serif" font-size="10.00">_mixture_variables</text>
</a>
</g>
</g>
<!-- Node27&#45;&gt;Node28 -->
<g id="edge29_Node000027_Node000028" class="edge">
<title>Node27&#45;&gt;Node28</title>
<g id="a_edge29_Node000027_Node000028"><a xlink:title=" ">
<path fill="none" stroke="#63b8ff" d="M842.61,-132.36C855.94,-127.71 870.19,-122.73 883.87,-117.96"/>
<polygon fill="#63b8ff" stroke="#63b8ff" points="885.42,-121.12 893.71,-114.52 883.12,-114.52 885.42,-121.12"/>
</a>
</g>
</g>
<!-- Node29 -->
<g id="Node000029" class="node">
<title>Node29</title>
<g id="a_Node000029"><a xlink:href="namespacem__variables__conversion.html#a7f3bffa0ba13432f79f095a78fcf6e5a" target="_top" xlink:title="Convert species volume fractions and partial densities to mixture density, gamma, pi_inf,...">
<polygon fill="white" stroke="#666666" points="1021,-173.5 886,-173.5 886,-132.5 1021,-132.5 1021,-173.5"/>
<text text-anchor="start" x="894" y="-161.5" font-family="Helvetica,sans-Serif" font-size="10.00">m_variables_conversion</text>
<text text-anchor="start" x="894" y="-150.5" font-family="Helvetica,sans-Serif" font-size="10.00">::s_convert_species_to</text>
<text text-anchor="middle" x="953.5" y="-139.5" font-family="Helvetica,sans-Serif" font-size="10.00">_mixture_variables</text>
</a>
</g>
</g>
<!-- Node27&#45;&gt;Node29 -->
<g id="edge30_Node000027_Node000029" class="edge">
<title>Node27&#45;&gt;Node29</title>
<g id="a_edge30_Node000027_Node000029"><a xlink:title=" ">
<path fill="none" stroke="#63b8ff" d="M850.29,-153C858.62,-153 867.19,-153 875.66,-153"/>
<polygon fill="#63b8ff" stroke="#63b8ff" points="875.92,-156.5 885.92,-153 875.92,-149.5 875.92,-156.5"/>
</a>
</g>
</g>
<!-- Node29&#45;&gt;Node25 -->
<g id="edge31_Node000029_Node000025" class="edge">
<title>Node29&#45;&gt;Node25</title>
<g id="a_edge31_Node000029_Node000025"><a xlink:title=" ">
<path fill="none" stroke="#63b8ff" d="M1021.24,-161.8C1029.55,-162.9 1038.15,-164.03 1046.74,-165.16"/>
<polygon fill="#63b8ff" stroke="#63b8ff" points="1046.43,-168.65 1056.8,-166.49 1047.34,-161.71 1046.43,-168.65"/>
</a>
</g>
</g>
<!-- Node33 -->
<g id="Node000033" class="node">
<title>Node33</title>
<g id="a_Node000033"><a xlink:href="namespacem__data__output.html#a53a556dc3fa26f1f97eb2044e8391997" target="_top" xlink:title="Writes the IB state information out to file.">
<polygon fill="white" stroke="#666666" points="475,-144 344,-144 344,-114 475,-114 475,-144"/>
<text text-anchor="start" x="352" y="-132" font-family="Helvetica,sans-Serif" font-size="10.00">m_data_output::s_write</text>
<text text-anchor="middle" x="409.5" y="-121" font-family="Helvetica,sans-Serif" font-size="10.00">_parallel_ib_state</text>
</a>
</g>
</g>
<!-- Node32&#45;&gt;Node33 -->
<g id="edge36_Node000032_Node000033" class="edge">
<title>Node32&#45;&gt;Node33</title>
<g id="a_edge36_Node000032_Node000033"><a xlink:title=" ">
<path fill="none" stroke="#63b8ff" d="M284.01,-173.86C306.28,-165.83 333.82,-155.91 357.32,-147.44"/>
<polygon fill="#63b8ff" stroke="#63b8ff" points="358.57,-150.71 366.79,-144.03 356.19,-144.13 358.57,-150.71"/>
</a>
</g>
</g>
<!-- Node34 -->
<g id="Node000034" class="node">
<title>Node34</title>
<g id="a_Node000034"><a xlink:href="namespacem__data__output.html#a865687c6a3188efbd71b29b439302ec1" target="_top" xlink:title="Write IB state data to a per&#45;timestep serial (unformatted) file.">
<polygon fill="white" stroke="#666666" points="475,-96 344,-96 344,-66 475,-66 475,-96"/>
<text text-anchor="start" x="352" y="-84" font-family="Helvetica,sans-Serif" font-size="10.00">m_data_output::s_write</text>
<text text-anchor="middle" x="409.5" y="-73" font-family="Helvetica,sans-Serif" font-size="10.00">_serial_ib_state</text>
</a>
</g>
</g>
<!-- Node32&#45;&gt;Node34 -->
<g id="edge38_Node000032_Node000034" class="edge">
<title>Node32&#45;&gt;Node34</title>
<g id="a_edge38_Node000032_Node000034"><a xlink:title=" ">
<path fill="none" stroke="#63b8ff" d="M294.31,-173.91C299.2,-171.36 303.86,-168.41 308,-165 331.99,-145.21 320.08,-124.87 344,-105 345.55,-103.71 347.18,-102.49 348.86,-101.33"/>
<polygon fill="#63b8ff" stroke="#63b8ff" points="350.92,-104.17 357.71,-96.03 347.33,-98.17 350.92,-104.17"/>
</a>
</g>
</g>
<!-- Node33&#45;&gt;Node18 -->
<g id="edge37_Node000033_Node000018" class="edge">
<title>Node33&#45;&gt;Node18</title>
<g id="a_edge37_Node000033_Node000018"><a xlink:title=" ">
<path fill="none" stroke="#63b8ff" d="M460.8,-113.93C465.85,-111.37 470.69,-108.41 475,-105 497.62,-87.1 487.73,-68.04 511,-51 516.45,-47.01 522.55,-43.68 528.9,-40.9"/>
<polygon fill="#63b8ff" stroke="#63b8ff" points="530.3,-44.12 538.34,-37.22 527.75,-37.6 530.3,-44.12"/>
</a>
</g>
</g>
<!-- Node34&#45;&gt;Node18 -->
<g id="edge39_Node000034_Node000018" class="edge">
<title>Node34&#45;&gt;Node18</title>
<g id="a_edge39_Node000034_Node000018"><a xlink:title=" ">
<path fill="none" stroke="#63b8ff" d="M460.57,-65.96C476.67,-61.15 494.58,-55.83 511,-51 517.83,-48.99 524.97,-46.91 532.09,-44.84"/>
<polygon fill="#63b8ff" stroke="#63b8ff" points="533.11,-48.19 541.73,-42.04 531.16,-41.47 533.11,-48.19"/>
</a>
</g>
</g>
<!-- Node37 -->
<g id="Node000037" class="node">
<title>Node37</title>
<g id="a_Node000037"><a xlink:href="namespacem__bubbles__el.html#a5c35a2029c31e5cf38948feea44a101a" target="_top" xlink:title="Determine if a Lagrangian bubble is within the physical domain excluding ghost cells.">
<polygon fill="white" stroke="#666666" points="473,-30 346,-30 346,0 473,0 473,-30"/>
<text text-anchor="start" x="354" y="-18" font-family="Helvetica,sans-Serif" font-size="10.00">m_bubbles_el::particle</text>
<text text-anchor="middle" x="409.5" y="-7" font-family="Helvetica,sans-Serif" font-size="10.00">_in_domain_physical</text>
</a>
</g>
</g>
<!-- Node36&#45;&gt;Node37 -->
<g id="edge42_Node000036_Node000037" class="edge">
<title>Node36&#45;&gt;Node37</title>
<g id="a_edge42_Node000036_Node000037"><a xlink:title=" ">
<path fill="none" stroke="#63b8ff" d="M301.64,-41.96C313.79,-38.89 326.67,-35.64 339.12,-32.5"/>
<polygon fill="#63b8ff" stroke="#63b8ff" points="340.16,-35.85 349,-30.01 338.44,-29.06 340.16,-35.85"/>
</a>
</g>
</g>
<!-- Node37&#45;&gt;Node37 -->
<g id="edge43_Node000037_Node000037" class="edge">
<title>Node37&#45;&gt;Node37</title>
<g id="a_edge43_Node000037_Node000037"><a xlink:title=" ">
<path fill="none" stroke="#63b8ff" d="M379.97,-30.28C373.41,-39.41 383.25,-48 409.5,-48 425.09,-48 434.89,-44.97 438.91,-40.6"/>
<polygon fill="#63b8ff" stroke="#63b8ff" points="442.41,-40.32 439.03,-30.28 435.41,-40.23 442.41,-40.32"/>
</a>
</g>
</g>
</g>
</svg>

<g id="navigator" transform="translate(0 0)" fill="#404254">
  <rect fill="#f2f5e9" fill-opacity="0.5" stroke="#606060" stroke-width=".5" x="0" y="0" width="60" height="60"/>
  <use id="zoomplus" xlink:href="#zoomPlus" x="17" y="9" onmousedown="handleZoom(evt,'in')"/>
  <use id="zoomminus" xlink:href="#zoomMin" x="42" y="9" onmousedown="handleZoom(evt,'out')"/>
  <use id="reset" xlink:href="#resetDef" x="30" y="36" onmousedown="handleReset()"/>
   <use id="arrowup" xlink:href="#arrowUp" x="0" y="0" onmousedown="handlePan(0,-1)"/>
  <use id="arrowright" xlink:href="#arrowRight" x="0" y="0" onmousedown="handlePan(1,0)"/>
  <use id="arrowdown" xlink:href="#arrowDown" x="0" y="0" onmousedown="handlePan(0,1)"/>
  <use id="arrowleft" xlink:href="#arrowLeft" x="0" y="0" onmousedown="handlePan(-1,0)"/>
</g>
<svg viewBox="0 0 15 15" width="100%" height="30px" preserveAspectRatio="xMaxYMin meet">
 <g id="arrow_out" transform="scale(0.3 0.3)">
  <a xlink:href="namespacem__start__up_a47ade6ffcd98aafcccf10910f626142d_cgraph_org.svg" target="_base">
   <rect id="button" ry="5" rx="5" y="6" x="6" height="38" width="38"
        fill="#f2f5e9" fill-opacity="0.5" stroke="#606060" stroke-width="1.0"/>
   <path id="arrow"
     d="M 11.500037,31.436501 C 11.940474,20.09759 22.043105,11.32322 32.158766,21.979434 L 37.068811,17.246167 C 37.068811,17.246167 37.088388,32 37.088388,32 L 22.160133,31.978069 C 22.160133,31.978069 26.997745,27.140456 26.997745,27.140456 C 18.528582,18.264221 13.291696,25.230495 11.500037,31.436501 z"
     style="fill:#404040;"/>
  </a>
 </g>
</svg>

<style type='text/css'>
<![CDATA[
[data-mouse-over-selected='false'] { opacity: 0.7; }
[data-mouse-over-selected='true']  { opacity: 1.0; }
]]>
</style>
<script type="application/ecmascript"><![CDATA[
document.addEventListener('DOMContentLoaded', (event) => {
  highlightEdges();
  highlightAdjacentNodes();
});
]]></script>
</svg>
