<?xml version="1.0" encoding="UTF-8" standalone="no"?>
<!DOCTYPE svg PUBLIC "-//W3C//DTD SVG 1.1//EN"
 "http://www.w3.org/Graphics/SVG/1.1/DTD/svg11.dtd">
<!-- Generated by graphviz version 2.40.1 (20161225.0304)
 -->
<!-- Title: m_mpi_proxy::s_mpi_barrier Pages: 1 -->
<svg width="381pt" height="299pt"
 viewBox="0.00 0.00 381.00 299.00" xmlns="http://www.w3.org/2000/svg" xmlns:xlink="http://www.w3.org/1999/xlink">
<g id="graph0" class="graph" transform="scale(1 1) rotate(0) translate(4 295)">
<title>m_mpi_proxy::s_mpi_barrier</title>
<polygon fill="#ffffff" stroke="transparent" points="-4,4 -4,-295 377,-295 377,4 -4,4"/>
<!-- Node70 -->
<g id="node1" class="node">
<title>Node70</title>
<polygon fill="#bfbfbf" stroke="#000000" points="0,-85.5 0,-111.5 72,-111.5 72,-85.5 0,-85.5"/>
<text text-anchor="start" x="8" y="-101.1" font-family="Helvetica,sans-Serif" font-size="8.00" fill="#000000">m_mpi_proxy::s_mpi</text>
<text text-anchor="middle" x="36" y="-92.1" font-family="Helvetica,sans-Serif" font-size="8.00" fill="#000000">_barrier</text>
</g>
<!-- Node71 -->
<g id="node2" class="node">
<title>Node71</title>
<g id="a_node2"><a xlink:href="namespacem__data__output.html#a33a72559ec5cfdedf7162a8269d41201" target="_top" xlink:title="The goal of the procedure is to output to the run&#45;time information file the stability criteria extrem...">
<polygon fill="#ffffff" stroke="#000000" points="108,-151.5 108,-177.5 187,-177.5 187,-151.5 108,-151.5"/>
<text text-anchor="start" x="116" y="-167.1" font-family="Helvetica,sans-Serif" font-size="8.00" fill="#000000">m_data_output::s_write</text>
<text text-anchor="middle" x="147.5" y="-158.1" font-family="Helvetica,sans-Serif" font-size="8.00" fill="#000000">_run_time_information</text>
</a>
</g>
</g>
<!-- Node70&#45;&gt;Node71 -->
<g id="edge1" class="edge">
<title>Node70&#45;&gt;Node71</title>
<path fill="none" stroke="#191970" d="M66.7517,-116.7028C85.3903,-127.7355 108.7302,-141.5511 125.517,-151.4876"/>
<polygon fill="#191970" stroke="#191970" points="68.4171,-113.6214 58.0288,-111.5395 64.8514,-119.6452 68.4171,-113.6214"/>
</g>
<!-- Node78 -->
<g id="node9" class="node">
<title>Node78</title>
<g id="a_node9"><a xlink:href="namespacem__start__up.html#a45c8fef6680263063a1c7d2fa1748013" target="_top" xlink:title="m_start_up::s_read\l_parallel_data_files">
<polygon fill="#ffffff" stroke="#000000" points="113.5,-42.5 113.5,-68.5 181.5,-68.5 181.5,-42.5 113.5,-42.5"/>
<text text-anchor="start" x="121.5" y="-58.1" font-family="Helvetica,sans-Serif" font-size="8.00" fill="#000000">m_start_up::s_read</text>
<text text-anchor="middle" x="147.5" y="-49.1" font-family="Helvetica,sans-Serif" font-size="8.00" fill="#000000">_parallel_data_files</text>
</a>
</g>
</g>
<!-- Node70&#45;&gt;Node78 -->
<g id="edge12" class="edge">
<title>Node70&#45;&gt;Node78</title>
<path fill="none" stroke="#191970" d="M79.1065,-81.876C90.4993,-77.4823 102.6357,-72.8019 113.4737,-68.6223"/>
<polygon fill="#191970" stroke="#191970" points="77.8271,-78.618 69.7563,-85.4819 80.3459,-85.1492 77.8271,-78.618"/>
</g>
<!-- Node72 -->
<g id="node3" class="node">
<title>Node72</title>
<g id="a_node3"><a xlink:href="namespacem__time__steppers.html#a1057850f94e9e749da9687baa7478246" target="_top" xlink:title="1st order TVD RK time&#45;stepping algorithm ">
<polygon fill="#ffffff" stroke="#000000" points="227.5,-264.5 227.5,-290.5 296.5,-290.5 296.5,-264.5 227.5,-264.5"/>
<text text-anchor="start" x="235.5" y="-280.1" font-family="Helvetica,sans-Serif" font-size="8.00" fill="#000000">m_time_steppers::s</text>
<text text-anchor="middle" x="262" y="-271.1" font-family="Helvetica,sans-Serif" font-size="8.00" fill="#000000">_1st_order_tvd_rk</text>
</a>
</g>
</g>
<!-- Node71&#45;&gt;Node72 -->
<g id="edge2" class="edge">
<title>Node71&#45;&gt;Node72</title>
<path fill="none" stroke="#191970" d="M161.7851,-185.8749C175.7357,-205.6338 198.4079,-234.9575 223,-255.5 226.8183,-258.6896 231.165,-261.6594 235.5372,-264.3199"/>
<polygon fill="#191970" stroke="#191970" points="164.5824,-183.7664 156.0135,-177.5354 158.8264,-187.75 164.5824,-183.7664"/>
</g>
<!-- Node74 -->
<g id="node5" class="node">
<title>Node74</title>
<g id="a_node5"><a xlink:href="namespacem__time__steppers.html#a5b758874c713da801a47aa3d6246b2fd" target="_top" xlink:title="2nd order TVD RK time&#45;stepping algorithm ">
<polygon fill="#ffffff" stroke="#000000" points="227.5,-219.5 227.5,-245.5 296.5,-245.5 296.5,-219.5 227.5,-219.5"/>
<text text-anchor="start" x="235.5" y="-235.1" font-family="Helvetica,sans-Serif" font-size="8.00" fill="#000000">m_time_steppers::s</text>
<text text-anchor="middle" x="262" y="-226.1" font-family="Helvetica,sans-Serif" font-size="8.00" fill="#000000">_2nd_order_tvd_rk</text>
</a>
</g>
</g>
<!-- Node71&#45;&gt;Node74 -->
<g id="edge4" class="edge">
<title>Node71&#45;&gt;Node74</title>
<path fill="none" stroke="#191970" d="M177.1809,-182.9C191.0375,-191.4086 207.7947,-201.5827 223,-210.5 227.9622,-213.4102 233.3144,-216.4762 238.4164,-219.3647"/>
<polygon fill="#191970" stroke="#191970" points="178.8898,-179.842 168.5394,-177.5791 175.2195,-185.8027 178.8898,-179.842"/>
</g>
<!-- Node75 -->
<g id="node6" class="node">
<title>Node75</title>
<g id="a_node6"><a xlink:href="namespacem__time__steppers.html#a1cc10f406268344cc54a55159c4ff08f" target="_top" xlink:title="3rd order TVD RK time&#45;stepping algorithm ">
<polygon fill="#ffffff" stroke="#000000" points="227.5,-174.5 227.5,-200.5 296.5,-200.5 296.5,-174.5 227.5,-174.5"/>
<text text-anchor="start" x="235.5" y="-190.1" font-family="Helvetica,sans-Serif" font-size="8.00" fill="#000000">m_time_steppers::s</text>
<text text-anchor="middle" x="262" y="-181.1" font-family="Helvetica,sans-Serif" font-size="8.00" fill="#000000">_3rd_order_tvd_rk</text>
</a>
</g>
</g>
<!-- Node71&#45;&gt;Node75 -->
<g id="edge6" class="edge">
<title>Node71&#45;&gt;Node75</title>
<path fill="none" stroke="#191970" d="M197.2144,-174.4863C207.3589,-176.5241 217.8247,-178.6264 227.3075,-180.5312"/>
<polygon fill="#191970" stroke="#191970" points="197.7187,-171.0178 187.2252,-172.4797 196.34,-177.8807 197.7187,-171.0178"/>
</g>
<!-- Node76 -->
<g id="node7" class="node">
<title>Node76</title>
<g id="a_node7"><a xlink:href="namespacem__time__steppers.html#ac53b0d079d514df2bf662bc0e042c8db" target="_top" xlink:title="4th order RK time&#45;stepping algorithm ">
<polygon fill="#ffffff" stroke="#000000" points="227.5,-129.5 227.5,-155.5 296.5,-155.5 296.5,-129.5 227.5,-129.5"/>
<text text-anchor="start" x="235.5" y="-145.1" font-family="Helvetica,sans-Serif" font-size="8.00" fill="#000000">m_time_steppers::s</text>
<text text-anchor="middle" x="262" y="-136.1" font-family="Helvetica,sans-Serif" font-size="8.00" fill="#000000">_4th_order_rk</text>
</a>
</g>
</g>
<!-- Node71&#45;&gt;Node76 -->
<g id="edge8" class="edge">
<title>Node71&#45;&gt;Node76</title>
<path fill="none" stroke="#191970" d="M197.2144,-154.9479C207.3589,-152.9987 217.8247,-150.9878 227.3075,-149.1658"/>
<polygon fill="#191970" stroke="#191970" points="196.3851,-151.5431 187.2252,-156.8672 197.706,-158.4174 196.3851,-151.5431"/>
</g>
<!-- Node77 -->
<g id="node8" class="node">
<title>Node77</title>
<g id="a_node8"><a xlink:href="namespacem__time__steppers.html#a4920633ffe7f703c3827b956b21b7417" target="_top" xlink:title="5th order RK time&#45;stepping algorithm ">
<polygon fill="#ffffff" stroke="#000000" points="227.5,-84.5 227.5,-110.5 296.5,-110.5 296.5,-84.5 227.5,-84.5"/>
<text text-anchor="start" x="235.5" y="-100.1" font-family="Helvetica,sans-Serif" font-size="8.00" fill="#000000">m_time_steppers::s</text>
<text text-anchor="middle" x="262" y="-91.1" font-family="Helvetica,sans-Serif" font-size="8.00" fill="#000000">_5th_order_rk</text>
</a>
</g>
</g>
<!-- Node71&#45;&gt;Node77 -->
<g id="edge10" class="edge">
<title>Node71&#45;&gt;Node77</title>
<path fill="none" stroke="#191970" d="M178.6001,-146.3017C197.9222,-134.9953 222.306,-120.7271 239.7078,-110.5443"/>
<polygon fill="#191970" stroke="#191970" points="176.7119,-143.3514 169.8486,-151.4227 180.2472,-149.393 176.7119,-143.3514"/>
</g>
<!-- Node73 -->
<g id="node4" class="node">
<title>Node73</title>
<g id="a_node4"><a xlink:href="p__main_8f90.html#aeec10ee8e2940c953967da3e374e1579" target="_top" xlink:title="Quasi&#45;conservative, shock&#45; and interface&#45; capturing finite&#45;volume scheme for the multicomponent Navie...">
<polygon fill="#ffffff" stroke="#000000" points="337,-134 337,-151 373,-151 373,-134 337,-134"/>
<text text-anchor="middle" x="355" y="-140.6" font-family="Helvetica,sans-Serif" font-size="8.00" fill="#000000">p_main</text>
</a>
</g>
</g>
<!-- Node72&#45;&gt;Node73 -->
<g id="edge3" class="edge">
<title>Node72&#45;&gt;Node73</title>
<path fill="none" stroke="#191970" d="M298.5842,-257.9026C299.4229,-257.1245 300.2304,-256.3236 301,-255.5 330.9861,-223.4083 347.2718,-171.6053 352.8082,-151.1788"/>
<polygon fill="#191970" stroke="#191970" points="296.1201,-255.3852 290.3771,-264.2884 300.4188,-260.9098 296.1201,-255.3852"/>
</g>
<!-- Node74&#45;&gt;Node73 -->
<g id="edge5" class="edge">
<title>Node74&#45;&gt;Node73</title>
<path fill="none" stroke="#191970" d="M296.9251,-213.7428C298.3341,-212.6925 299.6993,-211.6104 301,-210.5 322.0966,-192.4902 340.7633,-165.2406 349.5946,-151.3373"/>
<polygon fill="#191970" stroke="#191970" points="294.87,-210.9069 288.5208,-219.3886 298.7735,-216.7175 294.87,-210.9069"/>
</g>
<!-- Node75&#45;&gt;Node73 -->
<g id="edge7" class="edge">
<title>Node75&#45;&gt;Node73</title>
<path fill="none" stroke="#191970" d="M297.9686,-170.0959C311.4419,-163.5765 326.1603,-156.4547 337.2697,-151.0792"/>
<polygon fill="#191970" stroke="#191970" points="296.3766,-166.9779 288.8995,-174.4841 299.4255,-173.279 296.3766,-166.9779"/>
</g>
<!-- Node76&#45;&gt;Node73 -->
<g id="edge9" class="edge">
<title>Node76&#45;&gt;Node73</title>
<path fill="none" stroke="#191970" d="M306.7194,-142.5C317.3588,-142.5 328.1227,-142.5 336.7787,-142.5"/>
<polygon fill="#191970" stroke="#191970" points="306.6298,-139.0001 296.6298,-142.5 306.6297,-146.0001 306.6298,-139.0001"/>
</g>
<!-- Node77&#45;&gt;Node73 -->
<g id="edge11" class="edge">
<title>Node77&#45;&gt;Node73</title>
<path fill="none" stroke="#191970" d="M297.9686,-114.9041C311.4419,-121.4235 326.1603,-128.5453 337.2697,-133.9208"/>
<polygon fill="#191970" stroke="#191970" points="299.4255,-111.721 288.8995,-110.5159 296.3766,-118.0221 299.4255,-111.721"/>
</g>
<!-- Node78&#45;&gt;Node73 -->
<g id="edge15" class="edge">
<title>Node78&#45;&gt;Node73</title>
<path fill="none" stroke="#191970" d="M191.8246,-52.7633C224.052,-52.7179 267.6851,-56.8215 301,-75.5 325.4987,-89.2356 343.1375,-118.9306 350.7796,-133.7369"/>
<polygon fill="#191970" stroke="#191970" points="191.7369,-49.2641 181.7894,-52.9106 191.8398,-56.2634 191.7369,-49.2641"/>
</g>
<!-- Node79 -->
<g id="node10" class="node">
<title>Node79</title>
<g id="a_node10"><a xlink:href="namespacem__start__up.html#a37202711d89d04cd18f08170ba608aa1" target="_top" xlink:title="m_start_up::s_initialize\l_start_up_module">
<polygon fill="#ffffff" stroke="#000000" points="223,-.5 223,-26.5 301,-26.5 301,-.5 223,-.5"/>
<text text-anchor="start" x="231" y="-16.1" font-family="Helvetica,sans-Serif" font-size="8.00" fill="#000000">m_start_up::s_initialize</text>
<text text-anchor="middle" x="262" y="-7.1" font-family="Helvetica,sans-Serif" font-size="8.00" fill="#000000">_start_up_module</text>
</a>
</g>
</g>
<!-- Node78&#45;&gt;Node79 -->
<g id="edge13" class="edge">
<title>Node78&#45;&gt;Node79</title>
<path fill="none" stroke="#191970" d="M191.0808,-39.514C202.7125,-35.2474 215.1438,-30.6874 226.2976,-26.5961"/>
<polygon fill="#191970" stroke="#191970" points="189.7268,-36.2826 181.5438,-43.0123 192.1374,-42.8544 189.7268,-36.2826"/>
</g>
<!-- Node79&#45;&gt;Node73 -->
<g id="edge14" class="edge">
<title>Node79&#45;&gt;Node73</title>
<path fill="none" stroke="#191970" d="M292.1541,-32.9358C295.3284,-35.611 298.3564,-38.4831 301,-41.5 326.9465,-71.1098 345.0601,-115.3357 351.936,-133.8557"/>
<polygon fill="#191970" stroke="#191970" points="294.1533,-30.0577 284.0975,-26.7215 289.878,-35.6005 294.1533,-30.0577"/>
</g>
</g>
</svg>
