<?xml version="1.0" encoding="UTF-8" standalone="no"?>
<!DOCTYPE svg PUBLIC "-//W3C//DTD SVG 1.1//EN"
 "http://www.w3.org/Graphics/SVG/1.1/DTD/svg11.dtd">
<!-- Generated by graphviz version 2.40.1 (20161225.0304)
 -->
<!-- Title: m_variables_conversion::s_compute_lsq_gradient_curvature Pages: 1 -->
<!--zoomable 361 -->
<svg id="main" version="1.1" xmlns="http://www.w3.org/2000/svg" xmlns:xlink="http://www.w3.org/1999/xlink" xml:space="preserve" onload="init(evt)">
<style type="text/css"><![CDATA[
.edge:hover path { stroke: red; }
.edge:hover polygon { stroke: red; fill: red; }
]]></style>
<script type="text/javascript"><![CDATA[
var edges = document.getElementsByTagName('g');
if (edges && edges.length) {
  for (var i=0;i<edges.length;i++) {
    if (edges[i].id.substr(0,4)=='edge') {
      edges[i].setAttribute('class','edge');
    }
  }
}
]]></script>
        <defs>
                <circle id="rim" cx="0" cy="0" r="7"/>
                <circle id="rim2" cx="0" cy="0" r="3.5"/>
                <g id="zoomPlus">
                        <use xlink:href="#rim" fill="#404040">
                                <set attributeName="fill" to="#808080" begin="zoomplus.mouseover" end="zoomplus.mouseout"/>
                        </use>
                        <path d="M-4,0h8M0,-4v8" fill="none" stroke="white" stroke-width="1.5" pointer-events="none"/>
                </g>
                <g id="zoomMin">
                        <use xlink:href="#rim" fill="#404040">
                                <set attributeName="fill" to="#808080" begin="zoomminus.mouseover" end="zoomminus.mouseout"/>
                        </use>
                        <path d="M-4,0h8" fill="none" stroke="white" stroke-width="1.5" pointer-events="none"/>
                </g>
                <g id="dirArrow">
                        <path fill="none" stroke="white" stroke-width="1.5" d="M0,-3.0v7 M-2.5,-0.5L0,-3.0L2.5,-0.5"/>
                </g>
               <g id="resetDef">
                       <use xlink:href="#rim2" fill="#404040">
                               <set attributeName="fill" to="#808080" begin="reset.mouseover" end="reset.mouseout"/>
                       </use>
               </g>
        </defs>

<script type="text/javascript">
var viewWidth = 530;
var viewHeight = 361;
var sectionId = 'dynsection-2';
</script>
<script xlink:href="svgpan.js"/>
<svg id="graph" class="graph">
<g id="viewport">
<title>m_variables_conversion::s_compute_lsq_gradient_curvature</title>
<polygon fill="#ffffff" stroke="transparent" points="-4,4 -4,-356.8479 526,-356.8479 526,4 -4,4"/>
<!-- Node6 -->
<g id="node1" class="node">
<title>Node6</title>
<polygon fill="#bfbfbf" stroke="#000000" points="0,-123.2207 0,-158.2207 85,-158.2207 85,-123.2207 0,-123.2207"/>
<text text-anchor="start" x="8" y="-147.8207" font-family="Helvetica,sans-Serif" font-size="8.00" fill="#000000">m_variables_conversion</text>
<text text-anchor="start" x="8" y="-138.8207" font-family="Helvetica,sans-Serif" font-size="8.00" fill="#000000">::s_compute_lsq_gradient</text>
<text text-anchor="middle" x="42.5" y="-129.8207" font-family="Helvetica,sans-Serif" font-size="8.00" fill="#000000">_curvature</text>
</g>
<!-- Node7 -->
<g id="node2" class="node">
<title>Node7</title>
<g id="a_node2"><a xlink:href="namespacem__data__output.html#a178b41597f79f2c0a42c0d6e65275b71" target="_top" xlink:title="m_data_output::s_remove\l_capillary_potential_energy">
<polygon fill="#ffffff" stroke="#000000" points="121,-259.7207 121,-285.7207 211,-285.7207 211,-259.7207 121,-259.7207"/>
<text text-anchor="start" x="129" y="-275.3207" font-family="Helvetica,sans-Serif" font-size="8.00" fill="#000000">m_data_output::s_remove</text>
<text text-anchor="middle" x="166" y="-266.3207" font-family="Helvetica,sans-Serif" font-size="8.00" fill="#000000">_capillary_potential_energy</text>
</a>
</g>
</g>
<!-- Node6&#45;&gt;Node7 -->
<g id="edge1" class="edge">
<title>Node6&#45;&gt;Node7</title>
<path fill="none" stroke="#191970" d="M65.8241,-165.6501C91.9071,-193.5283 133.1704,-237.6315 153.6401,-259.5101"/>
<polygon fill="#191970" stroke="#191970" points="68.2877,-163.1603 58.8998,-158.2493 63.1761,-167.9428 68.2877,-163.1603"/>
</g>
<!-- Node12 -->
<g id="node7" class="node">
<title>Node12</title>
<g id="a_node7"><a xlink:href="namespacem__rhs.html#a361f0038973069452cc88430c49bcfe8" target="_top" xlink:title="The purpose of this procedure is to employ the inputted cell&#45;average conservative variables in order ...">
<polygon fill="#ffffff" stroke="#000000" points="247.5,-132.2207 247.5,-149.2207 325.5,-149.2207 325.5,-132.2207 247.5,-132.2207"/>
<text text-anchor="middle" x="286.5" y="-138.8207" font-family="Helvetica,sans-Serif" font-size="8.00" fill="#000000">m_rhs::s_compute_rhs</text>
</a>
</g>
</g>
<!-- Node6&#45;&gt;Node12 -->
<g id="edge9" class="edge">
<title>Node6&#45;&gt;Node12</title>
<path fill="none" stroke="#191970" d="M95.0227,-140.7207C140.7505,-140.7207 206.0121,-140.7207 247.3056,-140.7207"/>
<polygon fill="#191970" stroke="#191970" points="95.0016,-137.2208 85.0016,-140.7207 95.0015,-144.2208 95.0016,-137.2208"/>
</g>
<!-- Node18 -->
<g id="node13" class="node">
<title>Node18</title>
<g id="a_node13"><a xlink:href="namespacem__start__up.html#a7e47c12de90e408e70de7da3f2d24e28" target="_top" xlink:title="m_start_up::s_account\l_for_capillary_potential\l_energy">
<polygon fill="#ffffff" stroke="#000000" points="127,-34.2207 127,-69.2207 205,-69.2207 205,-34.2207 127,-34.2207"/>
<text text-anchor="start" x="135" y="-58.8207" font-family="Helvetica,sans-Serif" font-size="8.00" fill="#000000">m_start_up::s_account</text>
<text text-anchor="start" x="135" y="-49.8207" font-family="Helvetica,sans-Serif" font-size="8.00" fill="#000000">_for_capillary_potential</text>
<text text-anchor="middle" x="166" y="-40.8207" font-family="Helvetica,sans-Serif" font-size="8.00" fill="#000000">_energy</text>
</a>
</g>
</g>
<!-- Node6&#45;&gt;Node18 -->
<g id="edge20" class="edge">
<title>Node6&#45;&gt;Node18</title>
<path fill="none" stroke="#191970" d="M75.1619,-117.1829C96.027,-102.1466 122.6351,-82.9715 141.6511,-69.2677"/>
<polygon fill="#191970" stroke="#191970" points="72.9662,-114.4511 66.8996,-123.1371 77.0588,-120.1301 72.9662,-114.4511"/>
</g>
<!-- Node8 -->
<g id="node3" class="node">
<title>Node8</title>
<g id="a_node3"><a xlink:href="namespacem__data__output.html#a04c6b0f01b8561e248a740b017fc4f7d" target="_top" xlink:title="The goal of this subroutine is to output the grid and conservative variables data files for given tim...">
<polygon fill="#ffffff" stroke="#000000" points="247,-304.7207 247,-330.7207 326,-330.7207 326,-304.7207 247,-304.7207"/>
<text text-anchor="start" x="255" y="-320.3207" font-family="Helvetica,sans-Serif" font-size="8.00" fill="#000000">m_data_output::s_write</text>
<text text-anchor="middle" x="286.5" y="-311.3207" font-family="Helvetica,sans-Serif" font-size="8.00" fill="#000000">_serial_data_files</text>
</a>
</g>
</g>
<!-- Node7&#45;&gt;Node8 -->
<g id="edge2" class="edge">
<title>Node7&#45;&gt;Node8</title>
<path fill="none" stroke="#191970" d="M210.4254,-289.3111C223.905,-294.345 238.522,-299.8036 251.3073,-304.5782"/>
<polygon fill="#191970" stroke="#191970" points="211.4462,-285.9562 200.8536,-285.7365 208.9972,-292.5139 211.4462,-285.9562"/>
</g>
<!-- Node11 -->
<g id="node6" class="node">
<title>Node11</title>
<g id="a_node6"><a xlink:href="namespacem__data__output.html#a9c1271b2c588c1ae3275791d41550f75" target="_top" xlink:title="The goal of this subroutine is to output the grid and conservative variables data files for given tim...">
<polygon fill="#ffffff" stroke="#000000" points="247,-259.7207 247,-285.7207 326,-285.7207 326,-259.7207 247,-259.7207"/>
<text text-anchor="start" x="255" y="-275.3207" font-family="Helvetica,sans-Serif" font-size="8.00" fill="#000000">m_data_output::s_write</text>
<text text-anchor="middle" x="286.5" y="-266.3207" font-family="Helvetica,sans-Serif" font-size="8.00" fill="#000000">_parallel_data_files</text>
</a>
</g>
</g>
<!-- Node7&#45;&gt;Node11 -->
<g id="edge6" class="edge">
<title>Node7&#45;&gt;Node11</title>
<path fill="none" stroke="#191970" d="M221.2799,-272.7207C229.9467,-272.7207 238.7517,-272.7207 246.9708,-272.7207"/>
<polygon fill="#191970" stroke="#191970" points="221.2126,-269.2208 211.2126,-272.7207 221.2126,-276.2208 221.2126,-269.2208"/>
</g>
<!-- Node9 -->
<g id="node4" class="node">
<title>Node9</title>
<g id="a_node4"><a xlink:href="namespacem__data__output.html#ab65b312ef83adb104cafafada9c998b6" target="_top" xlink:title="The computation of parameters, the allocation of memory, the association of pointers and/or the execu...">
<polygon fill="#ffffff" stroke="#000000" points="362,-301.7207 362,-327.7207 450,-327.7207 450,-301.7207 362,-301.7207"/>
<text text-anchor="start" x="370" y="-317.3207" font-family="Helvetica,sans-Serif" font-size="8.00" fill="#000000">m_data_output::s_initialize</text>
<text text-anchor="middle" x="406" y="-308.3207" font-family="Helvetica,sans-Serif" font-size="8.00" fill="#000000">_data_output_module</text>
</a>
</g>
</g>
<!-- Node8&#45;&gt;Node9 -->
<g id="edge3" class="edge">
<title>Node8&#45;&gt;Node9</title>
<path fill="none" stroke="#191970" d="M336.4111,-316.4677C344.8553,-316.2557 353.5692,-316.0369 361.8527,-315.829"/>
<polygon fill="#191970" stroke="#191970" points="336.2007,-312.9718 326.2918,-316.7217 336.3765,-319.9696 336.2007,-312.9718"/>
</g>
<!-- Node10 -->
<g id="node5" class="node">
<title>Node10</title>
<g id="a_node5"><a xlink:href="p__main_8f90.html#aeec10ee8e2940c953967da3e374e1579" target="_top" xlink:title="Quasi&#45;conservative, shock&#45; and interface&#45; capturing finite&#45;volume scheme for the multicomponent Navie...">
<polygon fill="#ffffff" stroke="#000000" points="486,-177.2207 486,-194.2207 522,-194.2207 522,-177.2207 486,-177.2207"/>
<text text-anchor="middle" x="504" y="-183.8207" font-family="Helvetica,sans-Serif" font-size="8.00" fill="#000000">p_main</text>
</a>
</g>
</g>
<!-- Node8&#45;&gt;Node10 -->
<g id="edge5" class="edge">
<title>Node8&#45;&gt;Node10</title>
<path fill="none" stroke="#191970" d="M321.5771,-334.8188C357.1895,-349.4567 412.3098,-364.3288 450,-337.7207 474.7083,-320.2774 496.1647,-224.0587 502.2666,-194.4162"/>
<polygon fill="#191970" stroke="#191970" points="322.6496,-331.47 312.0805,-330.731 319.8819,-337.8997 322.6496,-331.47"/>
</g>
<!-- Node9&#45;&gt;Node10 -->
<g id="edge4" class="edge">
<title>Node9&#45;&gt;Node10</title>
<path fill="none" stroke="#191970" d="M439.7044,-295.9097C443.4083,-293.0974 446.9396,-290.0221 450,-286.7207 476.7644,-257.8481 494.4307,-213.219 501.0619,-194.4785"/>
<polygon fill="#191970" stroke="#191970" points="437.6671,-293.0632 431.4363,-301.6322 441.6509,-298.8191 437.6671,-293.0632"/>
</g>
<!-- Node11&#45;&gt;Node9 -->
<g id="edge7" class="edge">
<title>Node11&#45;&gt;Node9</title>
<path fill="none" stroke="#191970" d="M333.349,-289.1864C345.137,-293.3295 357.6285,-297.7198 368.8675,-301.6699"/>
<polygon fill="#191970" stroke="#191970" points="334.2503,-285.7934 323.6555,-285.7795 331.9292,-292.3974 334.2503,-285.7934"/>
</g>
<!-- Node11&#45;&gt;Node10 -->
<g id="edge8" class="edge">
<title>Node11&#45;&gt;Node10</title>
<path fill="none" stroke="#191970" d="M336.2395,-276.5458C370.2928,-276.9533 415.3743,-272.9831 450,-253.7207 474.7669,-239.9427 492.28,-209.7283 499.8363,-194.649"/>
<polygon fill="#191970" stroke="#191970" points="336.1335,-273.0421 326.0491,-276.2909 335.9584,-280.0399 336.1335,-273.0421"/>
</g>
<!-- Node13 -->
<g id="node8" class="node">
<title>Node13</title>
<g id="a_node8"><a xlink:href="namespacem__time__steppers.html#a1057850f94e9e749da9687baa7478246" target="_top" xlink:title="1st order TVD RK time&#45;stepping algorithm ">
<polygon fill="#ffffff" stroke="#000000" points="371.5,-217.7207 371.5,-243.7207 440.5,-243.7207 440.5,-217.7207 371.5,-217.7207"/>
<text text-anchor="start" x="379.5" y="-233.3207" font-family="Helvetica,sans-Serif" font-size="8.00" fill="#000000">m_time_steppers::s</text>
<text text-anchor="middle" x="406" y="-224.3207" font-family="Helvetica,sans-Serif" font-size="8.00" fill="#000000">_1st_order_tvd_rk</text>
</a>
</g>
</g>
<!-- Node12&#45;&gt;Node13 -->
<g id="edge10" class="edge">
<title>Node12&#45;&gt;Node13</title>
<path fill="none" stroke="#191970" d="M301.8631,-156.8587C316.4225,-171.5686 339.3724,-193.2929 362,-208.7207 366.6573,-211.896 371.8377,-214.8964 376.9619,-217.6009"/>
<polygon fill="#191970" stroke="#191970" points="304.1763,-154.2172 294.6931,-149.4927 299.1602,-159.0998 304.1763,-154.2172"/>
</g>
<!-- Node14 -->
<g id="node9" class="node">
<title>Node14</title>
<g id="a_node9"><a xlink:href="namespacem__time__steppers.html#a5b758874c713da801a47aa3d6246b2fd" target="_top" xlink:title="2nd order TVD RK time&#45;stepping algorithm ">
<polygon fill="#ffffff" stroke="#000000" points="371.5,-172.7207 371.5,-198.7207 440.5,-198.7207 440.5,-172.7207 371.5,-172.7207"/>
<text text-anchor="start" x="379.5" y="-188.3207" font-family="Helvetica,sans-Serif" font-size="8.00" fill="#000000">m_time_steppers::s</text>
<text text-anchor="middle" x="406" y="-179.3207" font-family="Helvetica,sans-Serif" font-size="8.00" fill="#000000">_2nd_order_tvd_rk</text>
</a>
</g>
</g>
<!-- Node12&#45;&gt;Node14 -->
<g id="edge12" class="edge">
<title>Node12&#45;&gt;Node14</title>
<path fill="none" stroke="#191970" d="M318.8254,-152.8934C334.9942,-158.9821 354.5847,-166.3593 371.0956,-172.5767"/>
<polygon fill="#191970" stroke="#191970" points="319.8502,-149.5395 309.2583,-149.2908 317.3833,-156.0904 319.8502,-149.5395"/>
</g>
<!-- Node15 -->
<g id="node10" class="node">
<title>Node15</title>
<g id="a_node10"><a xlink:href="namespacem__time__steppers.html#a1cc10f406268344cc54a55159c4ff08f" target="_top" xlink:title="3rd order TVD RK time&#45;stepping algorithm ">
<polygon fill="#ffffff" stroke="#000000" points="371.5,-127.7207 371.5,-153.7207 440.5,-153.7207 440.5,-127.7207 371.5,-127.7207"/>
<text text-anchor="start" x="379.5" y="-143.3207" font-family="Helvetica,sans-Serif" font-size="8.00" fill="#000000">m_time_steppers::s</text>
<text text-anchor="middle" x="406" y="-134.3207" font-family="Helvetica,sans-Serif" font-size="8.00" fill="#000000">_3rd_order_tvd_rk</text>
</a>
</g>
</g>
<!-- Node12&#45;&gt;Node15 -->
<g id="edge14" class="edge">
<title>Node12&#45;&gt;Node15</title>
<path fill="none" stroke="#191970" d="M335.8655,-140.7207C347.7352,-140.7207 360.169,-140.7207 371.2149,-140.7207"/>
<polygon fill="#191970" stroke="#191970" points="335.6288,-137.2208 325.6288,-140.7207 335.6287,-144.2208 335.6288,-137.2208"/>
</g>
<!-- Node16 -->
<g id="node11" class="node">
<title>Node16</title>
<g id="a_node11"><a xlink:href="namespacem__time__steppers.html#ac53b0d079d514df2bf662bc0e042c8db" target="_top" xlink:title="4th order RK time&#45;stepping algorithm ">
<polygon fill="#ffffff" stroke="#000000" points="371.5,-82.7207 371.5,-108.7207 440.5,-108.7207 440.5,-82.7207 371.5,-82.7207"/>
<text text-anchor="start" x="379.5" y="-98.3207" font-family="Helvetica,sans-Serif" font-size="8.00" fill="#000000">m_time_steppers::s</text>
<text text-anchor="middle" x="406" y="-89.3207" font-family="Helvetica,sans-Serif" font-size="8.00" fill="#000000">_4th_order_rk</text>
</a>
</g>
</g>
<!-- Node12&#45;&gt;Node16 -->
<g id="edge16" class="edge">
<title>Node12&#45;&gt;Node16</title>
<path fill="none" stroke="#191970" d="M318.8254,-128.5479C334.9942,-122.4592 354.5847,-115.0821 371.0956,-108.8646"/>
<polygon fill="#191970" stroke="#191970" points="317.3833,-125.351 309.2583,-132.1506 319.8502,-131.9019 317.3833,-125.351"/>
</g>
<!-- Node17 -->
<g id="node12" class="node">
<title>Node17</title>
<g id="a_node12"><a xlink:href="namespacem__time__steppers.html#a4920633ffe7f703c3827b956b21b7417" target="_top" xlink:title="5th order RK time&#45;stepping algorithm ">
<polygon fill="#ffffff" stroke="#000000" points="371.5,-37.7207 371.5,-63.7207 440.5,-63.7207 440.5,-37.7207 371.5,-37.7207"/>
<text text-anchor="start" x="379.5" y="-53.3207" font-family="Helvetica,sans-Serif" font-size="8.00" fill="#000000">m_time_steppers::s</text>
<text text-anchor="middle" x="406" y="-44.3207" font-family="Helvetica,sans-Serif" font-size="8.00" fill="#000000">_5th_order_rk</text>
</a>
</g>
</g>
<!-- Node12&#45;&gt;Node17 -->
<g id="edge18" class="edge">
<title>Node12&#45;&gt;Node17</title>
<path fill="none" stroke="#191970" d="M301.9702,-124.9339C316.6038,-110.5195 339.6028,-89.1668 362,-73.7207 367.109,-70.1973 372.8246,-66.8365 378.4015,-63.8255"/>
<polygon fill="#191970" stroke="#191970" points="299.3539,-122.6005 294.7579,-132.1466 304.3038,-127.5501 299.3539,-122.6005"/>
</g>
<!-- Node13&#45;&gt;Node10 -->
<g id="edge11" class="edge">
<title>Node13&#45;&gt;Node10</title>
<path fill="none" stroke="#191970" d="M443.6229,-213.4448C458.137,-206.7802 474.0607,-199.4683 485.9093,-194.0276"/>
<polygon fill="#191970" stroke="#191970" points="441.9728,-210.3511 434.3457,-217.7048 444.8939,-216.7125 441.9728,-210.3511"/>
</g>
<!-- Node14&#45;&gt;Node10 -->
<g id="edge13" class="edge">
<title>Node14&#45;&gt;Node10</title>
<path fill="none" stroke="#191970" d="M450.831,-185.7207C463.254,-185.7207 476.037,-185.7207 485.9548,-185.7207"/>
<polygon fill="#191970" stroke="#191970" points="450.5512,-182.2208 440.5511,-185.7207 450.5511,-189.2208 450.5512,-182.2208"/>
</g>
<!-- Node15&#45;&gt;Node10 -->
<g id="edge15" class="edge">
<title>Node15&#45;&gt;Node10</title>
<path fill="none" stroke="#191970" d="M443.6229,-157.9965C458.137,-164.6611 474.0607,-171.973 485.9093,-177.4137"/>
<polygon fill="#191970" stroke="#191970" points="444.8939,-154.7288 434.3457,-153.7365 441.9728,-161.0902 444.8939,-154.7288"/>
</g>
<!-- Node16&#45;&gt;Node10 -->
<g id="edge17" class="edge">
<title>Node16&#45;&gt;Node10</title>
<path fill="none" stroke="#191970" d="M444.3568,-114.492C446.318,-115.8437 448.2132,-117.2548 450,-118.7207 471.2523,-136.1557 489.8509,-163.1402 498.6315,-176.9398"/>
<polygon fill="#191970" stroke="#191970" points="445.8057,-111.2714 435.4661,-108.96 442.1076,-117.2148 445.8057,-111.2714"/>
</g>
<!-- Node17&#45;&gt;Node10 -->
<g id="edge19" class="edge">
<title>Node17&#45;&gt;Node10</title>
<path fill="none" stroke="#191970" d="M446.0532,-70.0576C447.4405,-71.2226 448.7634,-72.4434 450,-73.7207 480.3296,-105.0494 496.4168,-156.6709 501.854,-177.0547"/>
<polygon fill="#191970" stroke="#191970" points="447.7278,-66.9525 437.5561,-63.9883 443.6592,-72.6487 447.7278,-66.9525"/>
</g>
<!-- Node18&#45;&gt;Node10 -->
<g id="edge21" class="edge">
<title>Node18&#45;&gt;Node10</title>
<path fill="none" stroke="#191970" d="M213.4986,-30.3771C274.2892,-6.6297 380.0818,22.2722 450,-27.7207 475.585,-46.0144 496.5956,-146.8209 502.4034,-177.1108"/>
<polygon fill="#191970" stroke="#191970" points="212.1186,-27.1595 204.1408,-34.1313 214.725,-33.6562 212.1186,-27.1595"/>
</g>
</g>
</svg>
        <g id="navigator" transform="translate(0 0)" fill="#404254">
                <rect fill="#f2f5e9" fill-opacity="0.5" stroke="#606060" stroke-width=".5" x="0" y="0" width="60" height="60"/>
                <use id="zoomplus" xlink:href="#zoomPlus" x="17" y="9" onmousedown="handleZoom(evt,'in')"/>
                <use id="zoomminus" xlink:href="#zoomMin" x="42" y="9" onmousedown="handleZoom(evt,'out')"/>
                <use id="reset" xlink:href="#resetDef" x="30" y="36" onmousedown="handleReset()"/>
                <g id="arrowUp" xlink:href="#dirArrow" transform="translate(30 24)" onmousedown="handlePan(0,-1)">
                  <use xlink:href="#rim" fill="#404040">
                        <set attributeName="fill" to="#808080" begin="arrowUp.mouseover" end="arrowUp.mouseout"/>
                  </use>
                  <path fill="none" stroke="white" stroke-width="1.5" d="M0,-3.0v7 M-2.5,-0.5L0,-3.0L2.5,-0.5"/>
                </g>
                <g id="arrowRight" xlink:href="#dirArrow" transform="rotate(90) translate(36 -43)" onmousedown="handlePan(1,0)">
                  <use xlink:href="#rim" fill="#404040">
                        <set attributeName="fill" to="#808080" begin="arrowRight.mouseover" end="arrowRight.mouseout"/>
                  </use>
                  <path fill="none" stroke="white" stroke-width="1.5" d="M0,-3.0v7 M-2.5,-0.5L0,-3.0L2.5,-0.5"/>
                </g>
                <g id="arrowDown" xlink:href="#dirArrow" transform="rotate(180) translate(-30 -48)" onmousedown="handlePan(0,1)">
                  <use xlink:href="#rim" fill="#404040">
                        <set attributeName="fill" to="#808080" begin="arrowDown.mouseover" end="arrowDown.mouseout"/>
                  </use>
                  <path fill="none" stroke="white" stroke-width="1.5" d="M0,-3.0v7 M-2.5,-0.5L0,-3.0L2.5,-0.5"/>
                </g>
                <g id="arrowLeft" xlink:href="#dirArrow" transform="rotate(270) translate(-36 17)" onmousedown="handlePan(-1,0)">
                  <use xlink:href="#rim" fill="#404040">
                        <set attributeName="fill" to="#808080" begin="arrowLeft.mouseover" end="arrowLeft.mouseout"/>
                  </use>
                  <path fill="none" stroke="white" stroke-width="1.5" d="M0,-3.0v7 M-2.5,-0.5L0,-3.0L2.5,-0.5"/>
                </g>
        </g>
        <svg viewBox="0 0 15 15" width="100%" height="30px" preserveAspectRatio="xMaxYMin meet">
         <g id="arrow_out" transform="scale(0.3 0.3)">
          <a xlink:href="namespacem__variables__conversion_a953abb55b23caddc730076fa837a8063_icgraph_org.svg" target="_base">
           <rect id="button" ry="5" rx="5" y="6" x="6" height="38" width="38"
                fill="#f2f5e9" fill-opacity="0.5" stroke="#606060" stroke-width="1.0"/>
           <path id="arrow"
             d="M 11.500037,31.436501 C 11.940474,20.09759 22.043105,11.32322 32.158766,21.979434 L 37.068811,17.246167 C 37.068811,17.246167 37.088388,32 37.088388,32 L 22.160133,31.978069 C 22.160133,31.978069 26.997745,27.140456 26.997745,27.140456 C 18.528582,18.264221 13.291696,25.230495 11.500037,31.436501 z"
             style="fill:#404040;"/>
          </a>
         </g>
        </svg>
</svg>
