<?xml version="1.0" encoding="UTF-8" standalone="no"?>
<!DOCTYPE svg PUBLIC "-//W3C//DTD SVG 1.1//EN"
 "http://www.w3.org/Graphics/SVG/1.1/DTD/svg11.dtd">
<!-- Generated by graphviz version 2.43.0 (0)
 -->
<!-- Title: m_compute_levelset::s_apply_levelset Pages: 1 -->
<svg width="623pt" height="425pt"
 viewBox="0.00 0.00 623.00 425.00" xmlns="http://www.w3.org/2000/svg" xmlns:xlink="http://www.w3.org/1999/xlink">
<g id="graph0" class="graph" transform="scale(1 1) rotate(0) translate(4 421)">
<title>m_compute_levelset::s_apply_levelset</title>
<!-- Node1 -->
<g id="Node000001" class="node">
<title>Node1</title>
<g id="a_Node000001"><a xlink:title="Dispatches level&#45;set distance and normal computations for all ghost points based on their patch geome...">
<polygon fill="#999999" stroke="#666666" points="119,-235 0,-235 0,-205 119,-205 119,-235"/>
<text text-anchor="start" x="8" y="-223" font-family="Helvetica,sans-Serif" font-size="10.00">m_compute_levelset</text>
<text text-anchor="middle" x="59.5" y="-212" font-family="Helvetica,sans-Serif" font-size="10.00">::s_apply_levelset</text>
</a>
</g>
</g>
<!-- Node2 -->
<g id="Node000002" class="node">
<title>Node2</title>
<g id="a_Node000002"><a xlink:href="namespacem__compute__levelset.html#a95613d71a22ce8f5dbabd10091129177" target="_top" xlink:title="Computes the signed distance and outward normal from a ghost point to a 3D extruded airfoil surface i...">
<polygon fill="white" stroke="#666666" points="437,-417 314,-417 314,-387 437,-387 437,-417"/>
<text text-anchor="start" x="322" y="-405" font-family="Helvetica,sans-Serif" font-size="10.00">m_compute_levelset</text>
<text text-anchor="middle" x="375.5" y="-394" font-family="Helvetica,sans-Serif" font-size="10.00">::s_3d_airfoil_levelset</text>
</a>
</g>
</g>
<!-- Node1&#45;&gt;Node2 -->
<g id="edge1_Node000001_Node000002" class="edge">
<title>Node1&#45;&gt;Node2</title>
<g id="a_edge1_Node000001_Node000002"><a xlink:title=" ">
<path fill="none" stroke="#63b8ff" d="M67.49,-235.06C80.66,-261.72 111.79,-317.16 155,-346 199.25,-375.53 258.02,-389.49 303.61,-396.09"/>
<polygon fill="#63b8ff" stroke="#63b8ff" points="303.34,-399.58 313.72,-397.46 304.28,-392.65 303.34,-399.58"/>
</a>
</g>
</g>
<!-- Node4 -->
<g id="Node000004" class="node">
<title>Node4</title>
<g id="a_Node000004"><a xlink:href="namespacem__compute__levelset.html#a529fdd339b896d1bf009d98e84aeef15" target="_top" xlink:title="Computes the signed distance and outward normal from a ghost point to a 2D NACA airfoil surface.">
<polygon fill="white" stroke="#666666" points="435,-369 316,-369 316,-339 435,-339 435,-369"/>
<text text-anchor="start" x="324" y="-357" font-family="Helvetica,sans-Serif" font-size="10.00">m_compute_levelset</text>
<text text-anchor="middle" x="375.5" y="-346" font-family="Helvetica,sans-Serif" font-size="10.00">::s_airfoil_levelset</text>
</a>
</g>
</g>
<!-- Node1&#45;&gt;Node4 -->
<g id="edge3_Node000001_Node000004" class="edge">
<title>Node1&#45;&gt;Node4</title>
<g id="a_edge3_Node000001_Node000004"><a xlink:title=" ">
<path fill="none" stroke="#63b8ff" d="M70.73,-235.02C86.25,-256.51 117.9,-295.59 155,-315 201.71,-339.43 260.85,-348.91 305.97,-352.42"/>
<polygon fill="#63b8ff" stroke="#63b8ff" points="305.73,-355.92 315.95,-353.12 306.22,-348.93 305.73,-355.92"/>
</a>
</g>
</g>
<!-- Node5 -->
<g id="Node000005" class="node">
<title>Node5</title>
<g id="a_Node000005"><a xlink:href="namespacem__compute__levelset.html#a61b7c8634628af91ec451ab8678abb63" target="_top" xlink:title="Computes the signed distance and outward normal from a ghost point to a circular immersed boundary.">
<polygon fill="white" stroke="#666666" points="435,-321 316,-321 316,-291 435,-291 435,-321"/>
<text text-anchor="start" x="324" y="-309" font-family="Helvetica,sans-Serif" font-size="10.00">m_compute_levelset</text>
<text text-anchor="middle" x="375.5" y="-298" font-family="Helvetica,sans-Serif" font-size="10.00">::s_circle_levelset</text>
</a>
</g>
</g>
<!-- Node1&#45;&gt;Node5 -->
<g id="edge5_Node000001_Node000005" class="edge">
<title>Node1&#45;&gt;Node5</title>
<g id="a_edge5_Node000001_Node000005"><a xlink:title=" ">
<path fill="none" stroke="#63b8ff" d="M74.51,-235.07C91.62,-252.33 122.35,-279.81 155,-292 203.12,-309.97 261.28,-312.92 305.64,-311.67"/>
<polygon fill="#63b8ff" stroke="#63b8ff" points="305.87,-315.17 315.74,-311.31 305.62,-308.17 305.87,-315.17"/>
</a>
</g>
</g>
<!-- Node6 -->
<g id="Node000006" class="node">
<title>Node6</title>
<g id="a_Node000006"><a xlink:href="namespacem__compute__levelset.html#ae7506472018ff5bc034c31181733daee" target="_top" xlink:title="Computes the signed distance and outward normal from a ghost point to the nearest face of a cuboid im...">
<polygon fill="white" stroke="#666666" points="276,-283 157,-283 157,-253 276,-253 276,-283"/>
<text text-anchor="start" x="165" y="-271" font-family="Helvetica,sans-Serif" font-size="10.00">m_compute_levelset</text>
<text text-anchor="middle" x="216.5" y="-260" font-family="Helvetica,sans-Serif" font-size="10.00">::s_cuboid_levelset</text>
</a>
</g>
</g>
<!-- Node1&#45;&gt;Node6 -->
<g id="edge7_Node000001_Node000006" class="edge">
<title>Node1&#45;&gt;Node6</title>
<g id="a_edge7_Node000001_Node000006"><a xlink:title=" ">
<path fill="none" stroke="#63b8ff" d="M109.12,-235.06C124.41,-239.79 141.45,-245.07 157.34,-249.99"/>
<polygon fill="#63b8ff" stroke="#63b8ff" points="156.47,-253.38 167.05,-253 158.54,-246.7 156.47,-253.38"/>
</a>
</g>
</g>
<!-- Node7 -->
<g id="Node000007" class="node">
<title>Node7</title>
<g id="a_Node000007"><a xlink:href="namespacem__compute__levelset.html#a8d06a7ad175527cdeb9e3aed47a94d78" target="_top" xlink:title="Computes the signed distance and outward normal from a ghost point to a cylindrical immersed boundary...">
<polygon fill="white" stroke="#666666" points="276,-235 157,-235 157,-205 276,-205 276,-235"/>
<text text-anchor="start" x="165" y="-223" font-family="Helvetica,sans-Serif" font-size="10.00">m_compute_levelset</text>
<text text-anchor="middle" x="216.5" y="-212" font-family="Helvetica,sans-Serif" font-size="10.00">::s_cylinder_levelset</text>
</a>
</g>
</g>
<!-- Node1&#45;&gt;Node7 -->
<g id="edge9_Node000001_Node000007" class="edge">
<title>Node1&#45;&gt;Node7</title>
<g id="a_edge9_Node000001_Node000007"><a xlink:title=" ">
<path fill="none" stroke="#63b8ff" d="M119.1,-220C128.07,-220 137.4,-220 146.56,-220"/>
<polygon fill="#63b8ff" stroke="#63b8ff" points="146.82,-223.5 156.82,-220 146.82,-216.5 146.82,-223.5"/>
</a>
</g>
</g>
<!-- Node8 -->
<g id="Node000008" class="node">
<title>Node8</title>
<g id="a_Node000008"><a xlink:href="namespacem__compute__levelset.html#a6b31a6070ac185f759641c395e6b4172" target="_top" xlink:title="Computes the signed distance and outward normal from a ghost point to an elliptical immersed boundary...">
<polygon fill="white" stroke="#666666" points="276,-187 157,-187 157,-157 276,-157 276,-187"/>
<text text-anchor="start" x="165" y="-175" font-family="Helvetica,sans-Serif" font-size="10.00">m_compute_levelset</text>
<text text-anchor="middle" x="216.5" y="-164" font-family="Helvetica,sans-Serif" font-size="10.00">::s_ellipse_levelset</text>
</a>
</g>
</g>
<!-- Node1&#45;&gt;Node8 -->
<g id="edge11_Node000001_Node000008" class="edge">
<title>Node1&#45;&gt;Node8</title>
<g id="a_edge11_Node000001_Node000008"><a xlink:title=" ">
<path fill="none" stroke="#63b8ff" d="M109.12,-204.94C124.41,-200.21 141.45,-194.93 157.34,-190.01"/>
<polygon fill="#63b8ff" stroke="#63b8ff" points="158.54,-193.3 167.05,-187 156.47,-186.62 158.54,-193.3"/>
</a>
</g>
</g>
<!-- Node9 -->
<g id="Node000009" class="node">
<title>Node9</title>
<g id="a_Node000009"><a xlink:href="namespacem__compute__levelset.html#adadad13569efd08e6caa0cb5b7157942" target="_top" xlink:title="The STL patch is a 2/3D geometry that is imported from an STL file.">
<polygon fill="white" stroke="#666666" points="276,-139 157,-139 157,-109 276,-109 276,-139"/>
<text text-anchor="start" x="165" y="-127" font-family="Helvetica,sans-Serif" font-size="10.00">m_compute_levelset</text>
<text text-anchor="middle" x="216.5" y="-116" font-family="Helvetica,sans-Serif" font-size="10.00">::s_model_levelset</text>
</a>
</g>
</g>
<!-- Node1&#45;&gt;Node9 -->
<g id="edge12_Node000001_Node000009" class="edge">
<title>Node1&#45;&gt;Node9</title>
<g id="a_edge12_Node000001_Node000009"><a xlink:title=" ">
<path fill="none" stroke="#63b8ff" d="M77.26,-204.95C95.42,-189.21 125.73,-164.54 155,-148 157.85,-146.39 160.84,-144.83 163.88,-143.34"/>
<polygon fill="#63b8ff" stroke="#63b8ff" points="165.53,-146.44 173.15,-139.08 162.6,-140.08 165.53,-146.44"/>
</a>
</g>
</g>
<!-- Node13 -->
<g id="Node000013" class="node">
<title>Node13</title>
<g id="a_Node000013"><a xlink:href="namespacem__compute__levelset.html#abb0e0b701082d92ef471ab50bea5e772" target="_top" xlink:title="Subroutine for computing the levelset values at a ghost point belonging to the rectangle IB.">
<polygon fill="white" stroke="#666666" points="278,-87 155,-87 155,-57 278,-57 278,-87"/>
<text text-anchor="start" x="163" y="-75" font-family="Helvetica,sans-Serif" font-size="10.00">m_compute_levelset</text>
<text text-anchor="middle" x="216.5" y="-64" font-family="Helvetica,sans-Serif" font-size="10.00">::s_rectangle_levelset</text>
</a>
</g>
</g>
<!-- Node1&#45;&gt;Node13 -->
<g id="edge17_Node000001_Node000013" class="edge">
<title>Node1&#45;&gt;Node13</title>
<g id="a_edge17_Node000001_Node000013"><a xlink:title=" ">
<path fill="none" stroke="#63b8ff" d="M69.15,-204.85C83.95,-180.07 116.3,-130.57 155,-100 158.72,-97.06 162.8,-94.35 167.03,-91.86"/>
<polygon fill="#63b8ff" stroke="#63b8ff" points="168.73,-94.92 175.85,-87.07 165.39,-88.76 168.73,-94.92"/>
</a>
</g>
</g>
<!-- Node14 -->
<g id="Node000014" class="node">
<title>Node14</title>
<g id="a_Node000014"><a xlink:href="namespacem__compute__levelset.html#a54445fc4a04b39ca1342ce7a14025db4" target="_top" xlink:title="Computes the signed distance and outward normal from a ghost point to a spherical immersed boundary.">
<polygon fill="white" stroke="#666666" points="276,-30 157,-30 157,0 276,0 276,-30"/>
<text text-anchor="start" x="165" y="-18" font-family="Helvetica,sans-Serif" font-size="10.00">m_compute_levelset</text>
<text text-anchor="middle" x="216.5" y="-7" font-family="Helvetica,sans-Serif" font-size="10.00">::s_sphere_levelset</text>
</a>
</g>
</g>
<!-- Node1&#45;&gt;Node14 -->
<g id="edge19_Node000001_Node000014" class="edge">
<title>Node1&#45;&gt;Node14</title>
<g id="a_edge19_Node000001_Node000014"><a xlink:title=" ">
<path fill="none" stroke="#63b8ff" d="M65.5,-204.85C76.82,-172.47 107.23,-95.63 155,-48 159.78,-43.23 165.4,-38.96 171.24,-35.2"/>
<polygon fill="#63b8ff" stroke="#63b8ff" points="173.09,-38.18 179.91,-30.06 169.52,-32.16 173.09,-38.18"/>
</a>
</g>
</g>
<!-- Node3 -->
<g id="Node000003" class="node">
<title>Node3</title>
<g id="a_Node000003"><a xlink:href="namespacem__helper__basic.html#a3f0eae73a833f30924d4b2665a13a429" target="_top" xlink:title="This procedure checks if two floating point numbers of wp are within tolerance.">
<polygon fill="white" stroke="#666666" points="615,-259 473,-259 473,-229 615,-229 615,-259"/>
<text text-anchor="start" x="481" y="-247" font-family="Helvetica,sans-Serif" font-size="10.00">m_helper_basic::f_approx</text>
<text text-anchor="middle" x="544" y="-236" font-family="Helvetica,sans-Serif" font-size="10.00">_equal</text>
</a>
</g>
</g>
<!-- Node2&#45;&gt;Node3 -->
<g id="edge2_Node000002_Node000003" class="edge">
<title>Node2&#45;&gt;Node3</title>
<g id="a_edge2_Node000002_Node000003"><a xlink:title=" ">
<path fill="none" stroke="#63b8ff" d="M422.17,-386.94C427.4,-384.34 432.47,-381.37 437,-378 477.8,-347.65 511.5,-297.85 529.3,-268.26"/>
<polygon fill="#63b8ff" stroke="#63b8ff" points="532.45,-269.81 534.51,-259.42 526.42,-266.26 532.45,-269.81"/>
</a>
</g>
</g>
<!-- Node4&#45;&gt;Node3 -->
<g id="edge4_Node000004_Node000003" class="edge">
<title>Node4&#45;&gt;Node3</title>
<g id="a_edge4_Node000004_Node000003"><a xlink:title=" ">
<path fill="none" stroke="#63b8ff" d="M419.26,-338.94C425.36,-336.25 431.44,-333.25 437,-330 468.05,-311.82 499.56,-284.95 520.06,-266.1"/>
<polygon fill="#63b8ff" stroke="#63b8ff" points="522.69,-268.43 527.61,-259.05 517.91,-263.31 522.69,-268.43"/>
</a>
</g>
</g>
<!-- Node5&#45;&gt;Node3 -->
<g id="edge6_Node000005_Node000003" class="edge">
<title>Node5&#45;&gt;Node3</title>
<g id="a_edge6_Node000005_Node000003"><a xlink:title=" ">
<path fill="none" stroke="#63b8ff" d="M416.81,-290.99C439.75,-282.45 468.68,-271.68 493.05,-262.6"/>
<polygon fill="#63b8ff" stroke="#63b8ff" points="494.34,-265.85 502.49,-259.09 491.9,-259.29 494.34,-265.85"/>
</a>
</g>
</g>
<!-- Node6&#45;&gt;Node3 -->
<g id="edge8_Node000006_Node000003" class="edge">
<title>Node6&#45;&gt;Node3</title>
<g id="a_edge8_Node000006_Node000003"><a xlink:title=" ">
<path fill="none" stroke="#63b8ff" d="M276.07,-263.68C328.13,-259.84 404.72,-254.2 462.53,-249.93"/>
<polygon fill="#63b8ff" stroke="#63b8ff" points="463.01,-253.41 472.73,-249.18 462.5,-246.43 463.01,-253.41"/>
</a>
</g>
</g>
<!-- Node7&#45;&gt;Node3 -->
<g id="edge10_Node000007_Node000003" class="edge">
<title>Node7&#45;&gt;Node3</title>
<g id="a_edge10_Node000007_Node000003"><a xlink:title=" ">
<path fill="none" stroke="#63b8ff" d="M276.07,-224.32C328.13,-228.16 404.72,-233.8 462.53,-238.07"/>
<polygon fill="#63b8ff" stroke="#63b8ff" points="462.5,-241.57 472.73,-238.82 463.01,-234.59 462.5,-241.57"/>
</a>
</g>
</g>
<!-- Node10 -->
<g id="Node000010" class="node">
<title>Node10</title>
<g id="a_Node000010"><a xlink:href="namespacem__helper__basic.html#af1b06a05daa43f724ac3b0ff2f97db14" target="_top" xlink:title="Checks if a real(wp) variable is of default value.">
<polygon fill="white" stroke="#666666" points="433.5,-197 317.5,-197 317.5,-167 433.5,-167 433.5,-197"/>
<text text-anchor="start" x="325.5" y="-185" font-family="Helvetica,sans-Serif" font-size="10.00">m_helper_basic::f_is</text>
<text text-anchor="middle" x="375.5" y="-174" font-family="Helvetica,sans-Serif" font-size="10.00">_default</text>
</a>
</g>
</g>
<!-- Node9&#45;&gt;Node10 -->
<g id="edge13_Node000009_Node000010" class="edge">
<title>Node9&#45;&gt;Node10</title>
<g id="a_edge13_Node000009_Node000010"><a xlink:title=" ">
<path fill="none" stroke="#63b8ff" d="M258.34,-139.09C278.51,-146.54 303.03,-155.6 324.33,-163.47"/>
<polygon fill="#63b8ff" stroke="#63b8ff" points="323.27,-166.81 333.86,-166.99 325.7,-160.24 323.27,-166.81"/>
</a>
</g>
</g>
<!-- Node11 -->
<g id="Node000011" class="node">
<title>Node11</title>
<g id="a_Node000011"><a xlink:href="namespacem__model.html#a4c634c7b56e87edd338ad44a3fc64525" target="_top" xlink:title="This procedure determines the levelset distance and normals of 2D models by computing the exact close...">
<polygon fill="white" stroke="#666666" points="435.5,-149 315.5,-149 315.5,-119 435.5,-119 435.5,-149"/>
<text text-anchor="start" x="323.5" y="-137" font-family="Helvetica,sans-Serif" font-size="10.00">m_model::s_distance</text>
<text text-anchor="middle" x="375.5" y="-126" font-family="Helvetica,sans-Serif" font-size="10.00">_normals_2d</text>
</a>
</g>
</g>
<!-- Node9&#45;&gt;Node11 -->
<g id="edge15_Node000009_Node000011" class="edge">
<title>Node9&#45;&gt;Node11</title>
<g id="a_edge15_Node000009_Node000011"><a xlink:title=" ">
<path fill="none" stroke="#63b8ff" d="M276.41,-127.75C285.74,-128.35 295.46,-128.97 305,-129.57"/>
<polygon fill="#63b8ff" stroke="#63b8ff" points="305.06,-133.08 315.26,-130.23 305.5,-126.1 305.06,-133.08"/>
</a>
</g>
</g>
<!-- Node12 -->
<g id="Node000012" class="node">
<title>Node12</title>
<g id="a_Node000012"><a xlink:href="namespacem__model.html#a9ef02f127d22bff7b732906927151c32" target="_top" xlink:title="This procedure determines the levelset distance and normals of 3D models by computing the exact close...">
<polygon fill="white" stroke="#666666" points="435.5,-101 315.5,-101 315.5,-71 435.5,-71 435.5,-101"/>
<text text-anchor="start" x="323.5" y="-89" font-family="Helvetica,sans-Serif" font-size="10.00">m_model::s_distance</text>
<text text-anchor="middle" x="375.5" y="-78" font-family="Helvetica,sans-Serif" font-size="10.00">_normals_3d</text>
</a>
</g>
</g>
<!-- Node9&#45;&gt;Node12 -->
<g id="edge16_Node000009_Node000012" class="edge">
<title>Node9&#45;&gt;Node12</title>
<g id="a_edge16_Node000009_Node000012"><a xlink:title=" ">
<path fill="none" stroke="#63b8ff" d="M276.41,-109.74C285.84,-107.46 295.67,-105.08 305.31,-102.75"/>
<polygon fill="#63b8ff" stroke="#63b8ff" points="306.37,-106.09 315.26,-100.34 304.72,-99.29 306.37,-106.09"/>
</a>
</g>
</g>
<!-- Node10&#45;&gt;Node3 -->
<g id="edge14_Node000010_Node000003" class="edge">
<title>Node10&#45;&gt;Node3</title>
<g id="a_edge14_Node000010_Node000003"><a xlink:title=" ">
<path fill="none" stroke="#63b8ff" d="M416.81,-197.01C439.75,-205.55 468.68,-216.32 493.05,-225.4"/>
<polygon fill="#63b8ff" stroke="#63b8ff" points="491.9,-228.71 502.49,-228.91 494.34,-222.15 491.9,-228.71"/>
</a>
</g>
</g>
<!-- Node13&#45;&gt;Node3 -->
<g id="edge18_Node000013_Node000003" class="edge">
<title>Node13&#45;&gt;Node3</title>
<g id="a_edge18_Node000013_Node000003"><a xlink:title=" ">
<path fill="none" stroke="#63b8ff" d="M261.16,-56.97C307.93,-43.69 382.76,-30.82 437,-62 496.35,-96.11 525.58,-177.66 537.01,-219.02"/>
<polygon fill="#63b8ff" stroke="#63b8ff" points="533.66,-220.08 539.59,-228.86 540.43,-218.29 533.66,-220.08"/>
</a>
</g>
</g>
<!-- Node14&#45;&gt;Node3 -->
<g id="edge20_Node000014_Node000003" class="edge">
<title>Node14&#45;&gt;Node3</title>
<g id="a_edge20_Node000014_Node000003"><a xlink:title=" ">
<path fill="none" stroke="#63b8ff" d="M276.27,-6.77C323.7,-3.28 390.04,-5.87 437,-38 500.17,-81.22 528,-174.02 538.12,-218.81"/>
<polygon fill="#63b8ff" stroke="#63b8ff" points="534.76,-219.8 540.27,-228.85 541.6,-218.34 534.76,-219.8"/>
</a>
</g>
</g>
</g>
</svg>
