<?xml version="1.0" encoding="UTF-8" standalone="no"?>
<!DOCTYPE svg PUBLIC "-//W3C//DTD SVG 1.1//EN"
 "http://www.w3.org/Graphics/SVG/1.1/DTD/svg11.dtd">
<!-- Generated by graphviz version 2.43.0 (0)
 -->
<!-- Title: m_riemann_state::s_compute_cylindrical_viscous_source_flux Pages: 1 -->
<svg width="513pt" height="86pt"
 viewBox="0.00 0.00 513.00 86.00" xmlns="http://www.w3.org/2000/svg" xmlns:xlink="http://www.w3.org/1999/xlink">
<g id="graph0" class="graph" transform="scale(1 1) rotate(0) translate(4 82)">
<title>m_riemann_state::s_compute_cylindrical_viscous_source_flux</title>
<!-- Node1 -->
<g id="Node000001" class="node">
<title>Node1</title>
<g id="a_Node000001"><a xlink:title="Compute cylindrical viscous source flux contributions for momentum and energy.">
<polygon fill="#999999" stroke="#666666" points="120,-59.5 0,-59.5 0,-18.5 120,-18.5 120,-59.5"/>
<text text-anchor="start" x="8" y="-47.5" font-family="Helvetica,sans-Serif" font-size="10.00">m_riemann_state::s</text>
<text text-anchor="start" x="8" y="-36.5" font-family="Helvetica,sans-Serif" font-size="10.00">_compute_cylindrical</text>
<text text-anchor="middle" x="60" y="-25.5" font-family="Helvetica,sans-Serif" font-size="10.00">_viscous_source_flux</text>
</a>
</g>
</g>
<!-- Node2 -->
<g id="Node000002" class="node">
<title>Node2</title>
<g id="a_Node000002"><a xlink:href="namespacem__hb__function.html#a22055fe935f86d8cdd024dc56d132d49" target="_top" xlink:title="Shear rate gamma_dot = sqrt(2 D_ij D_ij). Absent dims pass 0.">
<polygon fill="white" stroke="#666666" points="323,-78 156,-78 156,-48 323,-48 323,-78"/>
<text text-anchor="start" x="164" y="-66" font-family="Helvetica,sans-Serif" font-size="10.00">m_hb_function::f_compute</text>
<text text-anchor="middle" x="239.5" y="-55" font-family="Helvetica,sans-Serif" font-size="10.00">_shear_rate_from_components</text>
</a>
</g>
</g>
<!-- Node1&#45;&gt;Node2 -->
<g id="edge1_Node000001_Node000002" class="edge">
<title>Node1&#45;&gt;Node2</title>
<g id="a_edge1_Node000001_Node000002"><a xlink:title=" ">
<path fill="none" stroke="#63b8ff" d="M120.1,-46.99C128.46,-48.12 137.21,-49.3 146.01,-50.49"/>
<polygon fill="#63b8ff" stroke="#63b8ff" points="145.56,-53.97 155.94,-51.84 146.5,-47.03 145.56,-53.97"/>
</a>
</g>
</g>
<!-- Node3 -->
<g id="Node000003" class="node">
<title>Node3</title>
<g id="a_Node000003"><a xlink:href="namespacem__hb__function.html#a1a133944770e30a8be41c77d13b2f932" target="_top" xlink:title="Mixture inverse Reynolds (= 1/mu_mix) per direction (1=shear, 2=bulk) at one state....">
<polygon fill="white" stroke="#666666" points="313.5,-30 165.5,-30 165.5,0 313.5,0 313.5,-30"/>
<text text-anchor="start" x="173.5" y="-18" font-family="Helvetica,sans-Serif" font-size="10.00">m_hb_function::s_compute</text>
<text text-anchor="middle" x="239.5" y="-7" font-family="Helvetica,sans-Serif" font-size="10.00">_mixture_inv_re</text>
</a>
</g>
</g>
<!-- Node1&#45;&gt;Node3 -->
<g id="edge2_Node000001_Node000003" class="edge">
<title>Node1&#45;&gt;Node3</title>
<g id="a_edge2_Node000001_Node000003"><a xlink:title=" ">
<path fill="none" stroke="#63b8ff" d="M120.1,-31.01C131.45,-29.47 143.53,-27.84 155.46,-26.23"/>
<polygon fill="#63b8ff" stroke="#63b8ff" points="156,-29.69 165.44,-24.88 155.06,-22.75 156,-29.69"/>
</a>
</g>
</g>
<!-- Node4 -->
<g id="Node000004" class="node">
<title>Node4</title>
<g id="a_Node000004"><a xlink:href="namespacem__hb__function.html#a802ddd8c13f4153ce4600e7934e95ee5" target="_top" xlink:title="Papanastasiou&#45;regularized Herschel&#45;Bulkley viscosity.">
<polygon fill="white" stroke="#666666" points="505,-30 359,-30 359,0 505,0 505,-30"/>
<text text-anchor="start" x="367" y="-18" font-family="Helvetica,sans-Serif" font-size="10.00">m_hb_function::f_compute</text>
<text text-anchor="middle" x="432" y="-7" font-family="Helvetica,sans-Serif" font-size="10.00">_hb_viscosity</text>
</a>
</g>
</g>
<!-- Node3&#45;&gt;Node4 -->
<g id="edge3_Node000003_Node000004" class="edge">
<title>Node3&#45;&gt;Node4</title>
<g id="a_edge3_Node000003_Node000004"><a xlink:title=" ">
<path fill="none" stroke="#63b8ff" d="M313.61,-15C325.05,-15 336.94,-15 348.58,-15"/>
<polygon fill="#63b8ff" stroke="#63b8ff" points="348.72,-18.5 358.72,-15 348.72,-11.5 348.72,-18.5"/>
</a>
</g>
</g>
</g>
</svg>
