<?xml version="1.0" encoding="UTF-8" standalone="no"?>
<!DOCTYPE svg PUBLIC "-//W3C//DTD SVG 1.1//EN"
 "http://www.w3.org/Graphics/SVG/1.1/DTD/svg11.dtd">
<!-- Generated by graphviz version 2.43.0 (0)
 -->
<!-- Title: m_helper_basic::f_approx_equal Pages: 1 -->
<!--zoomable 919 -->

<svg id="main" version="1.1" xmlns="http://www.w3.org/2000/svg" xmlns:xlink="http://www.w3.org/1999/xlink" xml:space="preserve" onload="init(evt)">

<style type="text/css"><![CDATA[
.node, .edge {opacity: 0.7;}
.node.selected, .edge.selected {opacity: 1;}
.edge:hover path { stroke: red; }
.edge:hover polygon { stroke: red; fill: red; }
]]></style>

<defs>
  <circle id="rim" cx="0" cy="0" r="7"/>
  <circle id="rim2" cx="0" cy="0" r="3.5"/>
  <g id="zoomPlus">
    <use xlink:href="#rim" fill="#404040"><set attributeName="fill" to="#808080" begin="zoomplus.mouseover" end="zoomplus.mouseout"/></use>
    <path d="M-4,0h8M0,-4v8" fill="none" stroke="white" stroke-width="1.5" pointer-events="none"/>
  </g>
  <g id="zoomMin">
    <use xlink:href="#rim" fill="#404040"><set attributeName="fill" to="#808080" begin="zoomminus.mouseover" end="zoomminus.mouseout"/></use>
    <path d="M-4,0h8" fill="none" stroke="white" stroke-width="1.5" pointer-events="none"/>
  </g>
  <g id="arrowUp" transform="translate(30 24)">
    <use xlink:href="#rim"/>
    <path pointer-events="none" fill="none" stroke="white" stroke-width="1.5" d="M0,-3.0v7 M-2.5,-0.5L0,-3.0L2.5,-0.5"/>
  </g>
  <g id="arrowRight" transform="rotate(90) translate(36 -43)">
    <use xlink:href="#rim"/>
    <path pointer-events="none" fill="none" stroke="white" stroke-width="1.5" d="M0,-3.0v7 M-2.5,-0.5L0,-3.0L2.5,-0.5"/>
  </g>
  <g id="arrowDown" transform="rotate(180) translate(-30 -48)">
    <use xlink:href="#rim"/>
    <path pointer-events="none" fill="none" stroke="white" stroke-width="1.5" d="M0,-3.0v7 M-2.5,-0.5L0,-3.0L2.5,-0.5"/>
  </g>
  <g id="arrowLeft" transform="rotate(270) translate(-36 17)">
    <use xlink:href="#rim"/>
    <path pointer-events="none" fill="none" stroke="white" stroke-width="1.5" d="M0,-3.0v7 M-2.5,-0.5L0,-3.0L2.5,-0.5"/>
  </g>
  <g id="resetDef">
    <use xlink:href="#rim2" fill="#404040"><set attributeName="fill" to="#808080" begin="reset.mouseover" end="reset.mouseout"/></use>
  </g>
</defs>
<script type="application/ecmascript">
var viewWidth = 1037;
var viewHeight = 919;
var sectionId = 'dynsection-1';
</script>
<script type="application/ecmascript" xlink:href="svg.min.js"/>
<svg id="graph" class="graph">
<g id="viewport">
<title>m_helper_basic::f_approx_equal</title>
<!-- Node1 -->
<g id="Node000001" class="node">
<title>Node1</title>
<g id="a_Node000001"><a xlink:title="Check if two floating point numbers of wp are within tolerance.">
<polygon fill="#999999" stroke="#666666" points="1029,-339 887,-339 887,-309 1029,-309 1029,-339"/>
<text text-anchor="start" x="895" y="-327" font-family="Helvetica,sans-Serif" font-size="10.00">m_helper_basic::f_approx</text>
<text text-anchor="middle" x="958" y="-316" font-family="Helvetica,sans-Serif" font-size="10.00">_equal</text>
</a>
</g>
</g>
<!-- Node2 -->
<g id="Node000002" class="node">
<title>Node2</title>
<g id="a_Node000002"><a xlink:href="namespacem__helper__basic.html#a388ce5b49cbc696a303c4b90bc391dce" target="_top" xlink:title="Check if a wp value approximately matches any element of an array within tolerance.">
<polygon fill="white" stroke="#666666" points="851,-911 709,-911 709,-881 851,-881 851,-911"/>
<text text-anchor="start" x="717" y="-899" font-family="Helvetica,sans-Serif" font-size="10.00">m_helper_basic::f_approx</text>
<text text-anchor="middle" x="780" y="-888" font-family="Helvetica,sans-Serif" font-size="10.00">_in_array</text>
</a>
</g>
</g>
<!-- Node1&#45;&gt;Node2 -->
<g id="edge1_Node000001_Node000002" class="edge">
<title>Node1&#45;&gt;Node2</title>
<g id="a_edge1_Node000001_Node000002"><a xlink:title=" ">
<path fill="none" stroke="#63b8ff" d="M955.2,-349.23C947.91,-445.1 917.67,-785.46 851,-867 846.34,-872.7 840.36,-877.3 833.88,-881"/>
<polygon fill="#63b8ff" stroke="#63b8ff" points="958.71,-349.26 955.96,-339.02 951.73,-348.74 958.71,-349.26"/>
</a>
</g>
</g>
<!-- Node3 -->
<g id="Node000003" class="node">
<title>Node3</title>
<g id="a_Node000003"><a xlink:href="namespacem__helper__basic.html#af1b06a05daa43f724ac3b0ff2f97db14" target="_top" xlink:title="Checks if a real(wp) variable is of default value.">
<polygon fill="white" stroke="#666666" points="838,-601 722,-601 722,-571 838,-571 838,-601"/>
<text text-anchor="start" x="730" y="-589" font-family="Helvetica,sans-Serif" font-size="10.00">m_helper_basic::f_is</text>
<text text-anchor="middle" x="780" y="-578" font-family="Helvetica,sans-Serif" font-size="10.00">_default</text>
</a>
</g>
</g>
<!-- Node1&#45;&gt;Node3 -->
<g id="edge2_Node000001_Node000003" class="edge">
<title>Node1&#45;&gt;Node3</title>
<g id="a_edge2_Node000001_Node000003"><a xlink:title=" ">
<path fill="none" stroke="#63b8ff" d="M941.14,-347.62C905.65,-400.44 820.69,-526.91 791.25,-570.74"/>
<polygon fill="#63b8ff" stroke="#63b8ff" points="944.11,-349.47 946.78,-339.22 938.3,-345.57 944.11,-349.47"/>
</a>
</g>
</g>
<!-- Node7 -->
<g id="Node000007" class="node">
<title>Node7</title>
<g id="a_Node000007"><a xlink:href="namespacem__bubbles.html#ada2623f1499c4719141069dcd4f5c5d1" target="_top" xlink:title="Integrate bubble variables over the given time step size, h, using a third&#45;order accurate embedded Ru...">
<polygon fill="white" stroke="#666666" points="318,-818 190,-818 190,-788 318,-788 318,-818"/>
<text text-anchor="start" x="198" y="-806" font-family="Helvetica,sans-Serif" font-size="10.00">m_bubbles::s_advance</text>
<text text-anchor="middle" x="254" y="-795" font-family="Helvetica,sans-Serif" font-size="10.00">_substep</text>
</a>
</g>
</g>
<!-- Node1&#45;&gt;Node7 -->
<g id="edge30_Node000001_Node000007" class="edge">
<title>Node1&#45;&gt;Node7</title>
<g id="a_edge30_Node000001_Node000007"><a xlink:title=" ">
<path fill="none" stroke="#63b8ff" d="M952.17,-349.18C934.18,-434.71 862.08,-713.36 673,-796 556.12,-847.09 402.71,-831.33 318.02,-816.43"/>
<polygon fill="#63b8ff" stroke="#63b8ff" points="955.62,-349.79 954.19,-339.3 948.76,-348.4 955.62,-349.79"/>
</a>
</g>
</g>
<!-- Node8 -->
<g id="Node000008" class="node">
<title>Node8</title>
<g id="a_Node000008"><a xlink:href="namespacem__bubbles.html#a4a3c0d979bd3ead42ccd87bcad359ada" target="_top" xlink:title="Adaptive time stepping routine for subgrid bubbles (See Heirer, E. Hairer S.P.Norsett G....">
<polygon fill="white" stroke="#666666" points="154,-812.5 0,-812.5 0,-793.5 154,-793.5 154,-812.5"/>
<text text-anchor="middle" x="77" y="-800.5" font-family="Helvetica,sans-Serif" font-size="10.00">m_bubbles::s_advance_step</text>
</a>
</g>
</g>
<!-- Node1&#45;&gt;Node8 -->
<g id="edge29_Node000001_Node000008" class="edge">
<title>Node1&#45;&gt;Node8</title>
<g id="a_edge29_Node000001_Node000008"><a xlink:title=" ">
<path fill="none" stroke="#63b8ff" d="M956.13,-349.65C952.7,-415.88 935.65,-595.46 851,-711 774.8,-815.02 726.94,-853 598,-853 598,-853 598,-853 418.5,-853 308.26,-853 180.06,-827.03 117.05,-812.52"/>
<polygon fill="#63b8ff" stroke="#63b8ff" points="959.65,-349.48 956.6,-339.33 952.65,-349.16 959.65,-349.48"/>
</a>
</g>
</g>
<!-- Node20 -->
<g id="Node000020" class="node">
<title>Node20</title>
<g id="a_Node000020"><a xlink:href="namespacem__helper__basic.html#a2c677da1905f9b1c52e69ae431bfb70d" target="_top" xlink:title="Checks if a real(wp) variable is an integer.">
<polygon fill="white" stroke="#666666" points="838,-78 722,-78 722,-48 838,-48 838,-78"/>
<text text-anchor="start" x="730" y="-66" font-family="Helvetica,sans-Serif" font-size="10.00">m_helper_basic::f_is</text>
<text text-anchor="middle" x="780" y="-55" font-family="Helvetica,sans-Serif" font-size="10.00">_integer</text>
</a>
</g>
</g>
<!-- Node1&#45;&gt;Node20 -->
<g id="edge26_Node000001_Node000020" class="edge">
<title>Node1&#45;&gt;Node20</title>
<g id="a_edge26_Node000001_Node000020"><a xlink:title=" ">
<path fill="none" stroke="#63b8ff" d="M952.63,-298.94C942.97,-250.99 915.35,-145.79 851,-87 847.21,-83.53 842.89,-80.57 838.3,-78.02"/>
<polygon fill="#63b8ff" stroke="#63b8ff" points="949.2,-299.64 954.52,-308.8 956.07,-298.32 949.2,-299.64"/>
</a>
</g>
</g>
<!-- Node21 -->
<g id="Node000021" class="node">
<title>Node21</title>
<g id="a_Node000021"><a xlink:href="namespacem__compute__levelset.html#a95613d71a22ce8f5dbabd10091129177" target="_top" xlink:title="Compute the signed distance and outward normal from a ghost point to a 3D extruded airfoil surface.">
<polygon fill="white" stroke="#666666" points="658.5,-376 535.5,-376 535.5,-346 658.5,-346 658.5,-376"/>
<text text-anchor="start" x="543.5" y="-364" font-family="Helvetica,sans-Serif" font-size="10.00">m_compute_levelset</text>
<text text-anchor="middle" x="597" y="-353" font-family="Helvetica,sans-Serif" font-size="10.00">::s_3d_airfoil_levelset</text>
</a>
</g>
</g>
<!-- Node1&#45;&gt;Node21 -->
<g id="edge27_Node000001_Node000021" class="edge">
<title>Node1&#45;&gt;Node21</title>
<g id="a_edge27_Node000001_Node000021"><a xlink:title=" ">
<path fill="none" stroke="#63b8ff" d="M876.81,-337.56C868.11,-338.82 859.38,-340 851,-341 785.49,-348.83 710.05,-354.34 658.71,-357.57"/>
<polygon fill="#63b8ff" stroke="#63b8ff" points="877.6,-340.98 886.98,-336.04 876.57,-334.05 877.6,-340.98"/>
</a>
</g>
</g>
<!-- Node22 -->
<g id="Node000022" class="node">
<title>Node22</title>
<g id="a_Node000022"><a xlink:href="namespacem__compute__levelset.html#a529fdd339b896d1bf009d98e84aeef15" target="_top" xlink:title="Compute the signed distance and outward normal from a ghost point to a 2D NACA airfoil surface.">
<polygon fill="white" stroke="#666666" points="656.5,-328 537.5,-328 537.5,-298 656.5,-298 656.5,-328"/>
<text text-anchor="start" x="545.5" y="-316" font-family="Helvetica,sans-Serif" font-size="10.00">m_compute_levelset</text>
<text text-anchor="middle" x="597" y="-305" font-family="Helvetica,sans-Serif" font-size="10.00">::s_airfoil_levelset</text>
</a>
</g>
</g>
<!-- Node1&#45;&gt;Node22 -->
<g id="edge31_Node000001_Node000022" class="edge">
<title>Node1&#45;&gt;Node22</title>
<g id="a_edge31_Node000001_Node000022"><a xlink:title=" ">
<path fill="none" stroke="#63b8ff" d="M876.72,-326.51C868.04,-326.71 859.34,-326.88 851,-327 787.9,-327.89 771.99,-330.96 709,-327 691.94,-325.93 673.49,-323.94 656.63,-321.79"/>
<polygon fill="#63b8ff" stroke="#63b8ff" points="876.96,-330.01 886.87,-326.26 876.79,-323.01 876.96,-330.01"/>
</a>
</g>
</g>
<!-- Node23 -->
<g id="Node000023" class="node">
<title>Node23</title>
<g id="a_Node000023"><a xlink:href="namespacem__compute__levelset.html#a61b7c8634628af91ec451ab8678abb63" target="_top" xlink:title="Compute the signed distance and outward normal from a ghost point to a circular immersed boundary.">
<polygon fill="white" stroke="#666666" points="839.5,-318 720.5,-318 720.5,-288 839.5,-288 839.5,-318"/>
<text text-anchor="start" x="728.5" y="-306" font-family="Helvetica,sans-Serif" font-size="10.00">m_compute_levelset</text>
<text text-anchor="middle" x="780" y="-295" font-family="Helvetica,sans-Serif" font-size="10.00">::s_circle_levelset</text>
</a>
</g>
</g>
<!-- Node1&#45;&gt;Node23 -->
<g id="edge33_Node000001_Node000023" class="edge">
<title>Node1&#45;&gt;Node23</title>
<g id="a_edge33_Node000001_Node000023"><a xlink:title=" ">
<path fill="none" stroke="#63b8ff" d="M876.9,-314.44C864.3,-312.94 851.49,-311.41 839.5,-309.98"/>
<polygon fill="#63b8ff" stroke="#63b8ff" points="876.59,-317.93 886.93,-315.64 877.42,-310.98 876.59,-317.93"/>
</a>
</g>
</g>
<!-- Node24 -->
<g id="Node000024" class="node">
<title>Node24</title>
<g id="a_Node000024"><a xlink:href="namespacem__compute__levelset.html#ae7506472018ff5bc034c31181733daee" target="_top" xlink:title="Compute the signed distance and outward normal from a ghost point to a cuboid immersed boundary.">
<polygon fill="white" stroke="#666666" points="839.5,-270 720.5,-270 720.5,-240 839.5,-240 839.5,-270"/>
<text text-anchor="start" x="728.5" y="-258" font-family="Helvetica,sans-Serif" font-size="10.00">m_compute_levelset</text>
<text text-anchor="middle" x="780" y="-247" font-family="Helvetica,sans-Serif" font-size="10.00">::s_cuboid_levelset</text>
</a>
</g>
</g>
<!-- Node1&#45;&gt;Node24 -->
<g id="edge35_Node000001_Node000024" class="edge">
<title>Node1&#45;&gt;Node24</title>
<g id="a_edge35_Node000001_Node000024"><a xlink:title=" ">
<path fill="none" stroke="#63b8ff" d="M914,-304.92C894.84,-296.64 871.92,-287.02 851,-279 843.08,-275.97 834.59,-272.9 826.36,-270.02"/>
<polygon fill="#63b8ff" stroke="#63b8ff" points="912.79,-308.21 923.36,-308.99 915.58,-301.8 912.79,-308.21"/>
</a>
</g>
</g>
<!-- Node25 -->
<g id="Node000025" class="node">
<title>Node25</title>
<g id="a_Node000025"><a xlink:href="namespacem__compute__levelset.html#a8d06a7ad175527cdeb9e3aed47a94d78" target="_top" xlink:title="Compute the signed distance and outward normal from a ghost point to a cylindrical immersed boundary.">
<polygon fill="white" stroke="#666666" points="839.5,-222 720.5,-222 720.5,-192 839.5,-192 839.5,-222"/>
<text text-anchor="start" x="728.5" y="-210" font-family="Helvetica,sans-Serif" font-size="10.00">m_compute_levelset</text>
<text text-anchor="middle" x="780" y="-199" font-family="Helvetica,sans-Serif" font-size="10.00">::s_cylinder_levelset</text>
</a>
</g>
</g>
<!-- Node1&#45;&gt;Node25 -->
<g id="edge37_Node000001_Node000025" class="edge">
<title>Node1&#45;&gt;Node25</title>
<g id="a_edge37_Node000001_Node000025"><a xlink:title=" ">
<path fill="none" stroke="#63b8ff" d="M936.26,-301.31C916.2,-280.52 884.06,-250.16 851,-231 845.22,-227.65 838.9,-224.67 832.5,-222.05"/>
<polygon fill="#63b8ff" stroke="#63b8ff" points="933.91,-303.91 943.34,-308.76 938.99,-299.1 933.91,-303.91"/>
</a>
</g>
</g>
<!-- Node26 -->
<g id="Node000026" class="node">
<title>Node26</title>
<g id="a_Node000026"><a xlink:href="namespacem__compute__levelset.html#abb0e0b701082d92ef471ab50bea5e772" target="_top" xlink:title="Subroutine for computing the levelset values at a ghost point belonging to the rectangle IB.">
<polygon fill="white" stroke="#666666" points="841.5,-174 718.5,-174 718.5,-144 841.5,-144 841.5,-174"/>
<text text-anchor="start" x="726.5" y="-162" font-family="Helvetica,sans-Serif" font-size="10.00">m_compute_levelset</text>
<text text-anchor="middle" x="780" y="-151" font-family="Helvetica,sans-Serif" font-size="10.00">::s_rectangle_levelset</text>
</a>
</g>
</g>
<!-- Node1&#45;&gt;Node26 -->
<g id="edge39_Node000001_Node000026" class="edge">
<title>Node1&#45;&gt;Node26</title>
<g id="a_edge39_Node000001_Node000026"><a xlink:title=" ">
<path fill="none" stroke="#63b8ff" d="M944.88,-299.99C927.94,-268.76 894.34,-214.48 851,-183 846.32,-179.6 841.13,-176.66 835.74,-174.11"/>
<polygon fill="#63b8ff" stroke="#63b8ff" points="941.82,-301.7 949.59,-308.9 948,-298.42 941.82,-301.7"/>
</a>
</g>
</g>
<!-- Node27 -->
<g id="Node000027" class="node">
<title>Node27</title>
<g id="a_Node000027"><a xlink:href="namespacem__compute__levelset.html#a54445fc4a04b39ca1342ce7a14025db4" target="_top" xlink:title="Compute the signed distance and outward normal from a ghost point to a spherical immersed boundary.">
<polygon fill="white" stroke="#666666" points="839.5,-126 720.5,-126 720.5,-96 839.5,-96 839.5,-126"/>
<text text-anchor="start" x="728.5" y="-114" font-family="Helvetica,sans-Serif" font-size="10.00">m_compute_levelset</text>
<text text-anchor="middle" x="780" y="-103" font-family="Helvetica,sans-Serif" font-size="10.00">::s_sphere_levelset</text>
</a>
</g>
</g>
<!-- Node1&#45;&gt;Node27 -->
<g id="edge41_Node000001_Node000027" class="edge">
<title>Node1&#45;&gt;Node27</title>
<g id="a_edge41_Node000001_Node000027"><a xlink:title=" ">
<path fill="none" stroke="#63b8ff" d="M949.58,-299.27C936.29,-259.13 904.69,-179.77 851,-135 846.86,-131.54 842.19,-128.58 837.28,-126.03"/>
<polygon fill="#63b8ff" stroke="#63b8ff" points="946.25,-300.36 952.63,-308.82 952.92,-298.22 946.25,-300.36"/>
</a>
</g>
</g>
<!-- Node28 -->
<g id="Node000028" class="node">
<title>Node28</title>
<g id="a_Node000028"><a xlink:href="namespacem__phase__change.html#a1c6df16af0868f7d4004d427cc7cead9" target="_top" xlink:title="Find the saturation temperature for a given saturation pressure using a Newton solver.">
<polygon fill="white" stroke="#666666" points="848.5,-449.5 711.5,-449.5 711.5,-430.5 848.5,-430.5 848.5,-449.5"/>
<text text-anchor="middle" x="780" y="-437.5" font-family="Helvetica,sans-Serif" font-size="10.00">m_phase_change::s_tsat</text>
</a>
</g>
</g>
<!-- Node1&#45;&gt;Node28 -->
<g id="edge43_Node000001_Node000028" class="edge">
<title>Node1&#45;&gt;Node28</title>
<g id="a_edge43_Node000001_Node000028"><a xlink:title=" ">
<path fill="none" stroke="#63b8ff" d="M927.96,-345.09C906.86,-360.2 877.49,-380.84 851,-398 833.04,-409.64 811.91,-422.16 797.6,-430.47"/>
<polygon fill="#63b8ff" stroke="#63b8ff" points="930.1,-347.86 936.17,-339.18 926.01,-342.17 930.1,-347.86"/>
</a>
</g>
</g>
<!-- Node31 -->
<g id="Node000031" class="node">
<title>Node31</title>
<g id="a_Node000031"><a xlink:href="namespacem__data__output.html#ac4254f90208d2808b6b214e857e79d9a" target="_top" xlink:title="Write stability criteria extrema to the run&#45;time information file at the given time step.">
<polygon fill="white" stroke="#666666" points="845.5,-30 714.5,-30 714.5,0 845.5,0 845.5,-30"/>
<text text-anchor="start" x="722.5" y="-18" font-family="Helvetica,sans-Serif" font-size="10.00">m_data_output::s_write</text>
<text text-anchor="middle" x="780" y="-7" font-family="Helvetica,sans-Serif" font-size="10.00">_run_time_information</text>
</a>
</g>
</g>
<!-- Node1&#45;&gt;Node31 -->
<g id="edge47_Node000001_Node000031" class="edge">
<title>Node1&#45;&gt;Node31</title>
<g id="a_edge47_Node000001_Node000031"><a xlink:title=" ">
<path fill="none" stroke="#63b8ff" d="M954.75,-298.65C948.51,-243.61 926.16,-112.25 851,-39 847.5,-35.59 843.5,-32.67 839.22,-30.16"/>
<polygon fill="#63b8ff" stroke="#63b8ff" points="951.3,-299.31 955.82,-308.89 958.26,-298.58 951.3,-299.31"/>
</a>
</g>
</g>
<!-- Node4 -->
<g id="Node000004" class="node">
<title>Node4</title>
<g id="a_Node000004"><a xlink:href="namespacem__helper__basic.html#a2a51671bfbfddf6ecabbc9593be49e1d" target="_top" xlink:title="Checks if ALL elements of a real(wp) array are of default value.">
<polygon fill="white" stroke="#666666" points="657,-787 537,-787 537,-757 657,-757 657,-787"/>
<text text-anchor="start" x="545" y="-775" font-family="Helvetica,sans-Serif" font-size="10.00">m_helper_basic::f_all</text>
<text text-anchor="middle" x="597" y="-764" font-family="Helvetica,sans-Serif" font-size="10.00">_default</text>
</a>
</g>
</g>
<!-- Node3&#45;&gt;Node4 -->
<g id="edge3_Node000003_Node000004" class="edge">
<title>Node3&#45;&gt;Node4</title>
<g id="a_edge3_Node000003_Node000004"><a xlink:title=" ">
<path fill="none" stroke="#63b8ff" d="M769.07,-611.08C753.73,-646.66 720.96,-711.5 673,-748 668.21,-751.64 662.86,-754.74 657.27,-757.38"/>
<polygon fill="#63b8ff" stroke="#63b8ff" points="772.47,-612.03 773.1,-601.46 766.01,-609.33 772.47,-612.03"/>
</a>
</g>
</g>
<!-- Node5 -->
<g id="Node000005" class="node">
<title>Node5</title>
<g id="a_Node000005"><a xlink:href="namespacem__bubbles.html#a81ceea09547775d9e7e50dbd6bf7386f" target="_top" xlink:title="Keller&#45;Miksis bubble wall pressure.">
<polygon fill="white" stroke="#666666" points="662.5,-665.5 531.5,-665.5 531.5,-646.5 662.5,-646.5 662.5,-665.5"/>
<text text-anchor="middle" x="597" y="-653.5" font-family="Helvetica,sans-Serif" font-size="10.00">m_bubbles::f_cpbw_km</text>
</a>
</g>
</g>
<!-- Node3&#45;&gt;Node5 -->
<g id="edge4_Node000003_Node000005" class="edge">
<title>Node3&#45;&gt;Node5</title>
<g id="a_edge4_Node000003_Node000005"><a xlink:title=" ">
<path fill="none" stroke="#63b8ff" d="M742.23,-605.94C722.19,-616.23 696.7,-628.4 673,-637 663.15,-640.58 652.34,-643.74 642.07,-646.4"/>
<polygon fill="#63b8ff" stroke="#63b8ff" points="744.06,-608.93 751.32,-601.21 740.83,-602.72 744.06,-608.93"/>
</a>
</g>
</g>
<!-- Node12 -->
<g id="Node000012" class="node">
<title>Node12</title>
<g id="a_Node000012"><a xlink:href="namespacem__bubbles.html#a83c550e90a8910cec7e95683ebd1ef35" target="_top" xlink:title="Keller&#45;Miksis bubble radial acceleration.">
<polygon fill="white" stroke="#666666" points="662.5,-720.5 531.5,-720.5 531.5,-701.5 662.5,-701.5 662.5,-720.5"/>
<text text-anchor="middle" x="597" y="-708.5" font-family="Helvetica,sans-Serif" font-size="10.00">m_bubbles::f_rddot_km</text>
</a>
</g>
</g>
<!-- Node3&#45;&gt;Node12 -->
<g id="edge14_Node000003_Node000012" class="edge">
<title>Node3&#45;&gt;Node12</title>
<g id="a_edge14_Node000003_Node000012"><a xlink:title=" ">
<path fill="none" stroke="#63b8ff" d="M762.45,-609.11C743.6,-633.69 710.5,-671.88 673,-693 666.93,-696.42 660.24,-699.19 653.42,-701.43"/>
<polygon fill="#63b8ff" stroke="#63b8ff" points="765.31,-611.13 768.51,-601.03 759.71,-606.93 765.31,-611.13"/>
</a>
</g>
</g>
<!-- Node13 -->
<g id="Node000013" class="node">
<title>Node13</title>
<g id="a_Node000013"><a xlink:href="namespacem__acoustic__src.html#ab35bc877e24a62748ab7df0548ebd08d" target="_top" xlink:title="Initialize the acoustic source module.">
<polygon fill="white" stroke="#666666" points="672,-628 522,-628 522,-598 672,-598 672,-628"/>
<text text-anchor="start" x="530" y="-616" font-family="Helvetica,sans-Serif" font-size="10.00">m_acoustic_src::s_initialize</text>
<text text-anchor="middle" x="597" y="-605" font-family="Helvetica,sans-Serif" font-size="10.00">_acoustic_src</text>
</a>
</g>
</g>
<!-- Node3&#45;&gt;Node13 -->
<g id="edge17_Node000003_Node000013" class="edge">
<title>Node3&#45;&gt;Node13</title>
<g id="a_edge17_Node000003_Node000013"><a xlink:title=" ">
<path fill="none" stroke="#63b8ff" d="M711.58,-596.06C698.72,-597.98 685.2,-599.99 672.14,-601.94"/>
<polygon fill="#63b8ff" stroke="#63b8ff" points="712.36,-599.48 721.73,-594.54 711.32,-592.56 712.36,-599.48"/>
</a>
</g>
</g>
<!-- Node16 -->
<g id="Node000016" class="node">
<title>Node16</title>
<g id="a_Node000016"><a xlink:href="namespacem__global__parameters.html#a7d78db66d7d2bd3001d7a7ef981b0d87" target="_top" xlink:title="Initialize the global parameters module.">
<polygon fill="white" stroke="#666666" points="658.5,-579.5 535.5,-579.5 535.5,-538.5 658.5,-538.5 658.5,-579.5"/>
<text text-anchor="start" x="543.5" y="-567.5" font-family="Helvetica,sans-Serif" font-size="10.00">m_global_parameters</text>
<text text-anchor="start" x="543.5" y="-556.5" font-family="Helvetica,sans-Serif" font-size="10.00">::s_initialize_global</text>
<text text-anchor="middle" x="597" y="-545.5" font-family="Helvetica,sans-Serif" font-size="10.00">_parameters_module</text>
</a>
</g>
</g>
<!-- Node3&#45;&gt;Node16 -->
<g id="edge20_Node000003_Node000016" class="edge">
<title>Node3&#45;&gt;Node16</title>
<g id="a_edge20_Node000003_Node000016"><a xlink:title=" ">
<path fill="none" stroke="#63b8ff" d="M711.66,-575.95C694.27,-573.36 675.67,-570.59 658.65,-568.05"/>
<polygon fill="#63b8ff" stroke="#63b8ff" points="711.32,-579.44 721.73,-577.46 712.36,-572.52 711.32,-579.44"/>
</a>
</g>
</g>
<!-- Node17 -->
<g id="Node000017" class="node">
<title>Node17</title>
<g id="a_Node000017"><a xlink:href="namespacem__qbmm.html#aeefcb72401bfdb35dcdd81104e647a15" target="_top" xlink:title="Initialize the QBMM module.">
<polygon fill="white" stroke="#666666" points="658,-520 536,-520 536,-490 658,-490 658,-520"/>
<text text-anchor="start" x="544" y="-508" font-family="Helvetica,sans-Serif" font-size="10.00">m_qbmm::s_initialize</text>
<text text-anchor="middle" x="597" y="-497" font-family="Helvetica,sans-Serif" font-size="10.00">_qbmm_module</text>
</a>
</g>
</g>
<!-- Node3&#45;&gt;Node17 -->
<g id="edge22_Node000003_Node000017" class="edge">
<title>Node3&#45;&gt;Node17</title>
<g id="a_edge22_Node000003_Node000017"><a xlink:title=" ">
<path fill="none" stroke="#63b8ff" d="M744.54,-565.94C724.14,-554.55 697.56,-540.5 673,-530 664.8,-526.49 655.92,-523.16 647.25,-520.13"/>
<polygon fill="#63b8ff" stroke="#63b8ff" points="743.02,-569.1 753.44,-570.97 746.46,-563.01 743.02,-569.1"/>
</a>
</g>
</g>
<!-- Node18 -->
<g id="Node000018" class="node">
<title>Node18</title>
<g id="a_Node000018"><a xlink:href="namespacem__compute__levelset.html#adadad13569efd08e6caa0cb5b7157942" target="_top" xlink:title="The STL patch is a 2/3D geometry that is imported from an STL file.">
<polygon fill="white" stroke="#666666" points="656.5,-424 537.5,-424 537.5,-394 656.5,-394 656.5,-424"/>
<text text-anchor="start" x="545.5" y="-412" font-family="Helvetica,sans-Serif" font-size="10.00">m_compute_levelset</text>
<text text-anchor="middle" x="597" y="-401" font-family="Helvetica,sans-Serif" font-size="10.00">::s_model_levelset</text>
</a>
</g>
</g>
<!-- Node3&#45;&gt;Node18 -->
<g id="edge24_Node000003_Node000018" class="edge">
<title>Node3&#45;&gt;Node18</title>
<g id="a_edge24_Node000003_Node000018"><a xlink:title=" ">
<path fill="none" stroke="#63b8ff" d="M768.45,-561.8C752.56,-528.09 719.33,-467.3 673,-433 668.06,-429.34 662.53,-426.22 656.79,-423.58"/>
<polygon fill="#63b8ff" stroke="#63b8ff" points="765.3,-563.31 772.65,-570.94 771.66,-560.39 765.3,-563.31"/>
</a>
</g>
</g>
<!-- Node5&#45;&gt;Node5 -->
<g id="edge5_Node000005_Node000005" class="edge">
<title>Node5&#45;&gt;Node5</title>
<g id="a_edge5_Node000005_Node000005"><a xlink:title=" ">
<path fill="none" stroke="#63b8ff" d="M629.93,-673.95C629,-679.32 618.02,-683.5 597,-683.5 565.72,-683.5 556.68,-674.23 569.87,-665.58"/>
<polygon fill="#63b8ff" stroke="#63b8ff" points="632.7,-671.8 624.13,-665.58 626.95,-675.79 632.7,-671.8"/>
</a>
</g>
</g>
<!-- Node6 -->
<g id="Node000006" class="node">
<title>Node6</title>
<g id="a_Node000006"><a xlink:href="namespacem__bubbles.html#a5df386bacf57fa1f7799b9aad47a4f94" target="_top" xlink:title="Compute the bubble radial acceleration based on the selected bubble model.">
<polygon fill="white" stroke="#666666" points="474.5,-744.5 364.5,-744.5 364.5,-725.5 474.5,-725.5 474.5,-744.5"/>
<text text-anchor="middle" x="419.5" y="-732.5" font-family="Helvetica,sans-Serif" font-size="10.00">m_bubbles::f_rddot</text>
</a>
</g>
</g>
<!-- Node5&#45;&gt;Node6 -->
<g id="edge6_Node000005_Node000006" class="edge">
<title>Node5&#45;&gt;Node6</title>
<g id="a_edge6_Node000005_Node000006"><a xlink:title=" ">
<path fill="none" stroke="#63b8ff" d="M565.47,-669.74C530.06,-685.68 472.62,-711.54 441.74,-725.44"/>
<polygon fill="#63b8ff" stroke="#63b8ff" points="567.15,-672.83 574.83,-665.53 564.28,-666.44 567.15,-672.83"/>
</a>
</g>
</g>
<!-- Node10 -->
<g id="Node000010" class="node">
<title>Node10</title>
<g id="a_Node000010"><a xlink:href="namespacem__riemann__solver__hllc.html#a1aa7ec60f1cdf82447547835d45e1021" target="_top" xlink:title="HLLC Riemann solver with contact restoration, Toro et al. Shock Waves (1994).">
<polygon fill="white" stroke="#666666" points="485,-671 354,-671 354,-641 485,-641 485,-671"/>
<text text-anchor="start" x="362" y="-659" font-family="Helvetica,sans-Serif" font-size="10.00">m_riemann_solver_hllc</text>
<text text-anchor="middle" x="419.5" y="-648" font-family="Helvetica,sans-Serif" font-size="10.00">::s_hllc_riemann_solver</text>
</a>
</g>
</g>
<!-- Node5&#45;&gt;Node10 -->
<g id="edge12_Node000005_Node000010" class="edge">
<title>Node5&#45;&gt;Node10</title>
<g id="a_edge12_Node000005_Node000010"><a xlink:title=" ">
<path fill="none" stroke="#63b8ff" d="M520.8,-656C508.91,-656 496.71,-656 485.08,-656"/>
<polygon fill="#63b8ff" stroke="#63b8ff" points="521.15,-659.5 531.15,-656 521.15,-652.5 521.15,-659.5"/>
</a>
</g>
</g>
<!-- Node6&#45;&gt;Node6 -->
<g id="edge7_Node000006_Node000006" class="edge">
<title>Node6&#45;&gt;Node6</title>
<g id="a_edge7_Node000006_Node000006"><a xlink:title=" ">
<path fill="none" stroke="#63b8ff" d="M450.11,-753.32C448.83,-758.51 438.63,-762.5 419.5,-762.5 390.35,-762.5 381.93,-753.23 394.22,-744.58"/>
<polygon fill="#63b8ff" stroke="#63b8ff" points="452.98,-751.29 444.78,-744.58 447,-754.94 452.98,-751.29"/>
</a>
</g>
</g>
<!-- Node6&#45;&gt;Node7 -->
<g id="edge8_Node000006_Node000007" class="edge">
<title>Node6&#45;&gt;Node7</title>
<g id="a_edge8_Node000006_Node000007"><a xlink:title=" ">
<path fill="none" stroke="#63b8ff" d="M385.91,-748.55C358.56,-759.93 319.52,-776.16 291.2,-787.94"/>
<polygon fill="#63b8ff" stroke="#63b8ff" points="387.53,-751.67 395.42,-744.6 384.84,-745.21 387.53,-751.67"/>
</a>
</g>
</g>
<!-- Node9 -->
<g id="Node000009" class="node">
<title>Node9</title>
<g id="a_Node000009"><a xlink:href="namespacem__bubbles.html#a4b48725a84a60c73af7e378ffc3d3438" target="_top" xlink:title="Choose the initial time step size for the adaptive time stepping routine (See Heirer,...">
<polygon fill="white" stroke="#666666" points="311,-757 197,-757 197,-727 311,-727 311,-757"/>
<text text-anchor="start" x="205" y="-745" font-family="Helvetica,sans-Serif" font-size="10.00">m_bubbles::s_initial</text>
<text text-anchor="middle" x="254" y="-734" font-family="Helvetica,sans-Serif" font-size="10.00">_substep_h</text>
</a>
</g>
</g>
<!-- Node6&#45;&gt;Node9 -->
<g id="edge10_Node000006_Node000009" class="edge">
<title>Node6&#45;&gt;Node9</title>
<g id="a_edge10_Node000006_Node000009"><a xlink:title=" ">
<path fill="none" stroke="#63b8ff" d="M353.92,-737.76C339.78,-738.37 324.93,-739.01 311.16,-739.6"/>
<polygon fill="#63b8ff" stroke="#63b8ff" points="354.22,-741.26 364.06,-737.33 353.92,-734.26 354.22,-741.26"/>
</a>
</g>
</g>
<!-- Node7&#45;&gt;Node8 -->
<g id="edge9_Node000007_Node000008" class="edge">
<title>Node7&#45;&gt;Node8</title>
<g id="a_edge9_Node000007_Node000008"><a xlink:title=" ">
<path fill="none" stroke="#63b8ff" d="M179.67,-803C171.26,-803 162.67,-803 154.22,-803"/>
<polygon fill="#63b8ff" stroke="#63b8ff" points="179.82,-806.5 189.82,-803 179.82,-799.5 179.82,-806.5"/>
</a>
</g>
</g>
<!-- Node9&#45;&gt;Node8 -->
<g id="edge11_Node000009_Node000008" class="edge">
<title>Node9&#45;&gt;Node8</title>
<g id="a_edge11_Node000009_Node000008"><a xlink:title=" ">
<path fill="none" stroke="#63b8ff" d="M199.9,-760.51C168.76,-771.36 130.72,-784.62 105.5,-793.42"/>
<polygon fill="#63b8ff" stroke="#63b8ff" points="201.45,-763.68 209.74,-757.08 199.15,-757.07 201.45,-763.68"/>
</a>
</g>
</g>
<!-- Node11 -->
<g id="Node000011" class="node">
<title>Node11</title>
<g id="a_Node000011"><a xlink:href="namespacem__riemann__solvers.html#a8d00c5352ee6b6f1628cde6d34ad5e08" target="_top" xlink:title="Dispatch to the subroutines that are utilized to compute the Riemann problem solution....">
<polygon fill="white" stroke="#666666" points="313.5,-671 194.5,-671 194.5,-641 313.5,-641 313.5,-671"/>
<text text-anchor="start" x="202.5" y="-659" font-family="Helvetica,sans-Serif" font-size="10.00">m_riemann_solvers::</text>
<text text-anchor="middle" x="254" y="-648" font-family="Helvetica,sans-Serif" font-size="10.00">s_riemann_solver</text>
</a>
</g>
</g>
<!-- Node10&#45;&gt;Node11 -->
<g id="edge13_Node000010_Node000011" class="edge">
<title>Node10&#45;&gt;Node11</title>
<g id="a_edge13_Node000010_Node000011"><a xlink:title=" ">
<path fill="none" stroke="#63b8ff" d="M343.81,-656C333.67,-656 323.38,-656 313.58,-656"/>
<polygon fill="#63b8ff" stroke="#63b8ff" points="343.88,-659.5 353.88,-656 343.88,-652.5 343.88,-659.5"/>
</a>
</g>
</g>
<!-- Node12&#45;&gt;Node6 -->
<g id="edge15_Node000012_Node000006" class="edge">
<title>Node12&#45;&gt;Node6</title>
<g id="a_edge15_Node000012_Node000006"><a xlink:title=" ">
<path fill="none" stroke="#63b8ff" d="M521.03,-721.25C505.47,-723.38 489.37,-725.58 474.73,-727.58"/>
<polygon fill="#63b8ff" stroke="#63b8ff" points="521.72,-724.69 531.15,-719.87 520.77,-717.76 521.72,-724.69"/>
</a>
</g>
</g>
<!-- Node12&#45;&gt;Node12 -->
<g id="edge16_Node000012_Node000012" class="edge">
<title>Node12&#45;&gt;Node12</title>
<g id="a_edge16_Node000012_Node000012"><a xlink:title=" ">
<path fill="none" stroke="#63b8ff" d="M629.93,-728.95C629,-734.32 618.02,-738.5 597,-738.5 565.72,-738.5 556.68,-729.23 569.87,-720.58"/>
<polygon fill="#63b8ff" stroke="#63b8ff" points="632.7,-726.8 624.13,-720.58 626.95,-730.79 632.7,-726.8"/>
</a>
</g>
</g>
<!-- Node14 -->
<g id="Node000014" class="node">
<title>Node14</title>
<g id="a_Node000014"><a xlink:href="namespacem__start__up.html#a1fb7a3f9d412acd2a9cbcfe8b45006dd" target="_top" xlink:title="Initialize all simulation sub&#45;modules in the required dependency order.">
<polygon fill="white" stroke="#666666" points="484.5,-561 354.5,-561 354.5,-531 484.5,-531 484.5,-561"/>
<text text-anchor="start" x="362.5" y="-549" font-family="Helvetica,sans-Serif" font-size="10.00">m_start_up::s_initialize</text>
<text text-anchor="middle" x="419.5" y="-538" font-family="Helvetica,sans-Serif" font-size="10.00">_modules</text>
</a>
</g>
</g>
<!-- Node13&#45;&gt;Node14 -->
<g id="edge18_Node000013_Node000014" class="edge">
<title>Node13&#45;&gt;Node14</title>
<g id="a_edge18_Node000013_Node000014"><a xlink:title=" ">
<path fill="none" stroke="#63b8ff" d="M536.86,-594.66C531.48,-592.81 526.12,-590.91 521,-589 498.24,-580.51 473.11,-569.76 453.68,-561.13"/>
<polygon fill="#63b8ff" stroke="#63b8ff" points="535.96,-598.04 546.55,-597.91 538.19,-591.41 535.96,-598.04"/>
</a>
</g>
</g>
<!-- Node15 -->
<g id="Node000015" class="node">
<title>Node15</title>
<g id="a_Node000015"><a xlink:href="p__main_8fpp_8f90.html#aeec10ee8e2940c953967da3e374e1579" target="_top" xlink:title="Quasi&#45;conservative, shock&#45; and interface&#45; capturing finite&#45;volume scheme for the multicomponent Navie...">
<polygon fill="white" stroke="#666666" points="280.5,-518.5 227.5,-518.5 227.5,-499.5 280.5,-499.5 280.5,-518.5"/>
<text text-anchor="middle" x="254" y="-506.5" font-family="Helvetica,sans-Serif" font-size="10.00">p_main</text>
</a>
</g>
</g>
<!-- Node14&#45;&gt;Node15 -->
<g id="edge19_Node000014_Node000015" class="edge">
<title>Node14&#45;&gt;Node15</title>
<g id="a_edge19_Node000014_Node000015"><a xlink:title=" ">
<path fill="none" stroke="#63b8ff" d="M344.59,-529.28C321.66,-524.09 297.9,-518.71 280.61,-514.8"/>
<polygon fill="#63b8ff" stroke="#63b8ff" points="343.82,-532.69 354.35,-531.48 345.37,-525.86 343.82,-532.69"/>
</a>
</g>
</g>
<!-- Node16&#45;&gt;Node14 -->
<g id="edge21_Node000016_Node000014" class="edge">
<title>Node16&#45;&gt;Node14</title>
<g id="a_edge21_Node000016_Node000014"><a xlink:title=" ">
<path fill="none" stroke="#63b8ff" d="M525.01,-553.74C511.63,-552.75 497.71,-551.72 484.56,-550.75"/>
<polygon fill="#63b8ff" stroke="#63b8ff" points="524.88,-557.24 535.11,-554.49 525.4,-550.26 524.88,-557.24"/>
</a>
</g>
</g>
<!-- Node17&#45;&gt;Node14 -->
<g id="edge23_Node000017_Node000014" class="edge">
<title>Node17&#45;&gt;Node14</title>
<g id="a_edge23_Node000017_Node000014"><a xlink:title=" ">
<path fill="none" stroke="#63b8ff" d="M525.82,-521.4C512.2,-524.58 498,-527.89 484.6,-531.02"/>
<polygon fill="#63b8ff" stroke="#63b8ff" points="526.66,-524.79 535.6,-519.11 525.07,-517.98 526.66,-524.79"/>
</a>
</g>
</g>
<!-- Node19 -->
<g id="Node000019" class="node">
<title>Node19</title>
<g id="a_Node000019"><a xlink:href="namespacem__compute__levelset.html#a0e6b4900aa4a5fb7b36c59907f76bf54" target="_top" xlink:title="Dispatch level&#45;set distance and normal computations for all ghost points based on patch geometry type...">
<polygon fill="white" stroke="#666666" points="479,-266 360,-266 360,-236 479,-236 479,-266"/>
<text text-anchor="start" x="368" y="-254" font-family="Helvetica,sans-Serif" font-size="10.00">m_compute_levelset</text>
<text text-anchor="middle" x="419.5" y="-243" font-family="Helvetica,sans-Serif" font-size="10.00">::s_apply_levelset</text>
</a>
</g>
</g>
<!-- Node18&#45;&gt;Node19 -->
<g id="edge25_Node000018_Node000019" class="edge">
<title>Node18&#45;&gt;Node19</title>
<g id="a_edge25_Node000018_Node000019"><a xlink:title=" ">
<path fill="none" stroke="#63b8ff" d="M528.38,-389.69C525.82,-388.23 523.35,-386.67 521,-385 475.75,-352.8 442.08,-294.05 427.89,-266.3"/>
<polygon fill="#63b8ff" stroke="#63b8ff" points="526.85,-392.84 537.35,-394.23 530.02,-386.59 526.85,-392.84"/>
</a>
</g>
</g>
<!-- Node21&#45;&gt;Node19 -->
<g id="edge28_Node000021_Node000019" class="edge">
<title>Node21&#45;&gt;Node19</title>
<g id="a_edge28_Node000021_Node000019"><a xlink:title=" ">
<path fill="none" stroke="#63b8ff" d="M530.6,-341.85C527.3,-340.33 524.08,-338.72 521,-337 486.3,-317.65 452.61,-285.18 434.4,-266.16"/>
<polygon fill="#63b8ff" stroke="#63b8ff" points="529.49,-345.18 540.06,-345.86 532.22,-338.73 529.49,-345.18"/>
</a>
</g>
</g>
<!-- Node22&#45;&gt;Node19 -->
<g id="edge32_Node000022_Node000019" class="edge">
<title>Node22&#45;&gt;Node19</title>
<g id="a_edge32_Node000022_Node000019"><a xlink:title=" ">
<path fill="none" stroke="#63b8ff" d="M543.92,-294.6C518.19,-285.51 487.53,-274.68 463.2,-266.09"/>
<polygon fill="#63b8ff" stroke="#63b8ff" points="542.92,-297.96 553.52,-297.99 545.25,-291.36 542.92,-297.96"/>
</a>
</g>
</g>
<!-- Node23&#45;&gt;Node19 -->
<g id="edge34_Node000023_Node000019" class="edge">
<title>Node23&#45;&gt;Node19</title>
<g id="a_edge34_Node000023_Node000019"><a xlink:title=" ">
<path fill="none" stroke="#63b8ff" d="M710.15,-293.01C643.11,-283.29 542.32,-268.67 479.03,-259.49"/>
<polygon fill="#63b8ff" stroke="#63b8ff" points="709.8,-296.5 720.2,-294.47 710.81,-289.57 709.8,-296.5"/>
</a>
</g>
</g>
<!-- Node24&#45;&gt;Node19 -->
<g id="edge36_Node000024_Node000019" class="edge">
<title>Node24&#45;&gt;Node19</title>
<g id="a_edge36_Node000024_Node000019"><a xlink:title=" ">
<path fill="none" stroke="#63b8ff" d="M710.15,-254.23C643.11,-253.48 542.32,-252.36 479.03,-251.65"/>
<polygon fill="#63b8ff" stroke="#63b8ff" points="710.16,-257.73 720.2,-254.34 710.24,-250.73 710.16,-257.73"/>
</a>
</g>
</g>
<!-- Node25&#45;&gt;Node19 -->
<g id="edge38_Node000025_Node000019" class="edge">
<title>Node25&#45;&gt;Node19</title>
<g id="a_edge38_Node000025_Node000019"><a xlink:title=" ">
<path fill="none" stroke="#63b8ff" d="M710.15,-215.45C643.11,-223.68 542.32,-236.05 479.03,-243.82"/>
<polygon fill="#63b8ff" stroke="#63b8ff" points="710.7,-218.91 720.2,-214.22 709.85,-211.96 710.7,-218.91"/>
</a>
</g>
</g>
<!-- Node26&#45;&gt;Node19 -->
<g id="edge40_Node000026_Node000019" class="edge">
<title>Node26&#45;&gt;Node19</title>
<g id="a_edge40_Node000026_Node000019"><a xlink:title=" ">
<path fill="none" stroke="#63b8ff" d="M708.52,-172.76C656.38,-183.44 583.81,-199.37 521,-217 501.32,-222.53 479.81,-229.65 461.76,-235.95"/>
<polygon fill="#63b8ff" stroke="#63b8ff" points="709.24,-176.18 718.34,-170.76 707.84,-169.32 709.24,-176.18"/>
</a>
</g>
</g>
<!-- Node27&#45;&gt;Node19 -->
<g id="edge42_Node000027_Node000019" class="edge">
<title>Node27&#45;&gt;Node19</title>
<g id="a_edge42_Node000027_Node000019"><a xlink:title=" ">
<path fill="none" stroke="#63b8ff" d="M710.39,-121.15C656.94,-130.78 581.84,-148.17 521,-177 488.5,-192.4 455.89,-218.95 436.98,-235.7"/>
<polygon fill="#63b8ff" stroke="#63b8ff" points="711.21,-124.56 720.45,-119.38 710,-117.67 711.21,-124.56"/>
</a>
</g>
</g>
<!-- Node29 -->
<g id="Node000029" class="node">
<title>Node29</title>
<g id="a_Node000029"><a xlink:href="namespacem__phase__change.html#a19a8a866830bfc285d631672287a851f" target="_top" xlink:title="Apply pT&#45; or pTg&#45;equilibrium relaxation with mass depletion based on the incoming state conditions.">
<polygon fill="white" stroke="#666666" points="673,-472 521,-472 521,-442 673,-442 673,-472"/>
<text text-anchor="start" x="529" y="-460" font-family="Helvetica,sans-Serif" font-size="10.00">m_phase_change::s_infinite</text>
<text text-anchor="middle" x="597" y="-449" font-family="Helvetica,sans-Serif" font-size="10.00">_relaxation_k</text>
</a>
</g>
</g>
<!-- Node28&#45;&gt;Node29 -->
<g id="edge44_Node000028_Node000029" class="edge">
<title>Node28&#45;&gt;Node29</title>
<g id="a_edge44_Node000028_Node000029"><a xlink:title=" ">
<path fill="none" stroke="#63b8ff" d="M701.31,-447.3C691.98,-448.17 682.46,-449.07 673.17,-449.94"/>
<polygon fill="#63b8ff" stroke="#63b8ff" points="701.72,-450.77 711.34,-446.35 701.06,-443.8 701.72,-450.77"/>
</a>
</g>
</g>
<!-- Node30 -->
<g id="Node000030" class="node">
<title>Node30</title>
<g id="a_Node000030"><a xlink:href="namespacem__start__up.html#ae28835629de9baa7fd546672a0add0e5" target="_top" xlink:title="Advance the simulation by one time step, handling CFL&#45;based dt and time&#45;stepper dispatch.">
<polygon fill="white" stroke="#666666" points="483,-486 356,-486 356,-456 483,-456 483,-486"/>
<text text-anchor="start" x="364" y="-474" font-family="Helvetica,sans-Serif" font-size="10.00">m_start_up::s_perform</text>
<text text-anchor="middle" x="419.5" y="-463" font-family="Helvetica,sans-Serif" font-size="10.00">_time_step</text>
</a>
</g>
</g>
<!-- Node29&#45;&gt;Node30 -->
<g id="edge45_Node000029_Node000030" class="edge">
<title>Node29&#45;&gt;Node30</title>
<g id="a_edge45_Node000029_Node000030"><a xlink:title=" ">
<path fill="none" stroke="#63b8ff" d="M510.75,-463.8C501.44,-464.54 492.1,-465.29 483.14,-466"/>
<polygon fill="#63b8ff" stroke="#63b8ff" points="511.12,-467.28 520.81,-463 510.56,-460.3 511.12,-467.28"/>
</a>
</g>
</g>
<!-- Node30&#45;&gt;Node15 -->
<g id="edge46_Node000030_Node000015" class="edge">
<title>Node30&#45;&gt;Node15</title>
<g id="a_edge46_Node000030_Node000015"><a xlink:title=" ">
<path fill="none" stroke="#63b8ff" d="M345.85,-487.88C322.56,-493.3 298.27,-498.94 280.67,-503.03"/>
<polygon fill="#63b8ff" stroke="#63b8ff" points="346.81,-491.26 355.75,-485.58 345.22,-484.44 346.81,-491.26"/>
</a>
</g>
</g>
</g>
</svg>

<g id="navigator" transform="translate(0 0)" fill="#404254">
  <rect fill="#f2f5e9" fill-opacity="0.5" stroke="#606060" stroke-width=".5" x="0" y="0" width="60" height="60"/>
  <use id="zoomplus" xlink:href="#zoomPlus" x="17" y="9" onmousedown="handleZoom(evt,'in')"/>
  <use id="zoomminus" xlink:href="#zoomMin" x="42" y="9" onmousedown="handleZoom(evt,'out')"/>
  <use id="reset" xlink:href="#resetDef" x="30" y="36" onmousedown="handleReset()"/>
   <use id="arrowup" xlink:href="#arrowUp" x="0" y="0" onmousedown="handlePan(0,-1)"/>
  <use id="arrowright" xlink:href="#arrowRight" x="0" y="0" onmousedown="handlePan(1,0)"/>
  <use id="arrowdown" xlink:href="#arrowDown" x="0" y="0" onmousedown="handlePan(0,1)"/>
  <use id="arrowleft" xlink:href="#arrowLeft" x="0" y="0" onmousedown="handlePan(-1,0)"/>
</g>
<svg viewBox="0 0 15 15" width="100%" height="30px" preserveAspectRatio="xMaxYMin meet">
 <g id="arrow_out" transform="scale(0.3 0.3)">
  <a xlink:href="namespacem__helper__basic_a3f0eae73a833f30924d4b2665a13a429_icgraph_org.svg" target="_base">
   <rect id="button" ry="5" rx="5" y="6" x="6" height="38" width="38"
        fill="#f2f5e9" fill-opacity="0.5" stroke="#606060" stroke-width="1.0"/>
   <path id="arrow"
     d="M 11.500037,31.436501 C 11.940474,20.09759 22.043105,11.32322 32.158766,21.979434 L 37.068811,17.246167 C 37.068811,17.246167 37.088388,32 37.088388,32 L 22.160133,31.978069 C 22.160133,31.978069 26.997745,27.140456 26.997745,27.140456 C 18.528582,18.264221 13.291696,25.230495 11.500037,31.436501 z"
     style="fill:#404040;"/>
  </a>
 </g>
</svg>

<style type='text/css'>
<![CDATA[
[data-mouse-over-selected='false'] { opacity: 0.7; }
[data-mouse-over-selected='true']  { opacity: 1.0; }
]]>
</style>
<script type="application/ecmascript"><![CDATA[
document.addEventListener('DOMContentLoaded', (event) => {
  highlightEdges();
  highlightAdjacentNodes();
});
]]></script>
</svg>
