<?xml version="1.0" encoding="UTF-8" standalone="no"?>
<!DOCTYPE svg PUBLIC "-//W3C//DTD SVG 1.1//EN"
 "http://www.w3.org/Graphics/SVG/1.1/DTD/svg11.dtd">
<!-- Generated by graphviz version 2.40.1 (20161225.0304)
 -->
<!-- Title: m_variables_conversion::s_convert_conservative_to_characteristic_variables Pages: 1 -->
<svg width="322pt" height="44pt"
 viewBox="0.00 0.00 322.00 44.00" xmlns="http://www.w3.org/2000/svg" xmlns:xlink="http://www.w3.org/1999/xlink">
<g id="graph0" class="graph" transform="scale(1 1) rotate(0) translate(4 40)">
<title>m_variables_conversion::s_convert_conservative_to_characteristic_variables</title>
<polygon fill="#ffffff" stroke="transparent" points="-4,4 -4,-40 318,-40 318,4 -4,4"/>
<!-- Node37 -->
<g id="node1" class="node">
<title>Node37</title>
<polygon fill="#bfbfbf" stroke="#000000" points="0,-.5 0,-35.5 91,-35.5 91,-.5 0,-.5"/>
<text text-anchor="start" x="8" y="-25.1" font-family="Helvetica,sans-Serif" font-size="8.00" fill="#000000">m_variables_conversion</text>
<text text-anchor="start" x="8" y="-16.1" font-family="Helvetica,sans-Serif" font-size="8.00" fill="#000000">::s_convert_conservative</text>
<text text-anchor="middle" x="45.5" y="-7.1" font-family="Helvetica,sans-Serif" font-size="8.00" fill="#000000">_to_characteristic_variables</text>
</g>
<!-- Node38 -->
<g id="node2" class="node">
<title>Node38</title>
<g id="a_node2"><a xlink:href="namespacem__weno.html#aa2c34f80dbff64204b9fcf65a1bc137a" target="_top" xlink:title="The computation of parameters, the allocation of memory, the association of pointers and/or the execu...">
<polygon fill="#ffffff" stroke="#000000" points="127,-9.5 127,-26.5 215,-26.5 215,-9.5 127,-9.5"/>
<text text-anchor="middle" x="171" y="-16.1" font-family="Helvetica,sans-Serif" font-size="8.00" fill="#000000">m_weno::s_initialize_weno</text>
</a>
</g>
</g>
<!-- Node37&#45;&gt;Node38 -->
<g id="edge1" class="edge">
<title>Node37&#45;&gt;Node38</title>
<path fill="none" stroke="#191970" d="M101.4222,-18C109.9366,-18 118.6208,-18 126.8375,-18"/>
<polygon fill="#191970" stroke="#191970" points="101.1634,-14.5001 91.1634,-18 101.1634,-21.5001 101.1634,-14.5001"/>
</g>
<!-- Node39 -->
<g id="node3" class="node">
<title>Node39</title>
<g id="a_node3"><a xlink:href="namespacem__weno.html#a1bf39ea6e0044dcc912763ff5acac69d" target="_top" xlink:title="WENO reconstruction that is improved with monotonicity preserving bounds (MPWENO) and a mapping funct...">
<polygon fill="#ffffff" stroke="#000000" points="251,-9.5 251,-26.5 314,-26.5 314,-9.5 251,-9.5"/>
<text text-anchor="middle" x="282.5" y="-16.1" font-family="Helvetica,sans-Serif" font-size="8.00" fill="#000000">m_weno::s_weno</text>
</a>
</g>
</g>
<!-- Node38&#45;&gt;Node39 -->
<g id="edge2" class="edge">
<title>Node38&#45;&gt;Node39</title>
<path fill="none" stroke="#191970" d="M225.2601,-18C234.0056,-18 242.8,-18 250.7816,-18"/>
<polygon fill="#191970" stroke="#191970" points="225.0678,-14.5001 215.0678,-18 225.0677,-21.5001 225.0678,-14.5001"/>
</g>
</g>
</svg>
