<?xml version="1.0" encoding="UTF-8" standalone="no"?>
<!DOCTYPE svg PUBLIC "-//W3C//DTD SVG 1.1//EN"
 "http://www.w3.org/Graphics/SVG/1.1/DTD/svg11.dtd">
<!-- Generated by graphviz version 2.43.0 (0)
 -->
<!-- Title: m_compute_levelset::s_apply_levelset Pages: 1 -->
<svg width="637pt" height="530pt"
 viewBox="0.00 0.00 637.00 529.63" xmlns="http://www.w3.org/2000/svg" xmlns:xlink="http://www.w3.org/1999/xlink">
<g id="graph0" class="graph" transform="scale(1 1) rotate(0) translate(4 525.63)">
<title>m_compute_levelset::s_apply_levelset</title>
<!-- Node1 -->
<g id="Node000001" class="node">
<title>Node1</title>
<g id="a_Node000001"><a xlink:title=" ">
<polygon fill="#999999" stroke="#666666" points="119,-334.63 0,-334.63 0,-304.63 119,-304.63 119,-334.63"/>
<text text-anchor="start" x="8" y="-322.63" font-family="Helvetica,sans-Serif" font-size="10.00">m_compute_levelset</text>
<text text-anchor="middle" x="59.5" y="-311.63" font-family="Helvetica,sans-Serif" font-size="10.00">::s_apply_levelset</text>
</a>
</g>
</g>
<!-- Node2 -->
<g id="Node000002" class="node">
<title>Node2</title>
<g id="a_Node000002"><a xlink:href="namespacem__compute__levelset.html#a95613d71a22ce8f5dbabd10091129177" target="_top" xlink:title=" ">
<polygon fill="white" stroke="#666666" points="444,-521.63 321,-521.63 321,-491.63 444,-491.63 444,-521.63"/>
<text text-anchor="start" x="329" y="-509.63" font-family="Helvetica,sans-Serif" font-size="10.00">m_compute_levelset</text>
<text text-anchor="middle" x="382.5" y="-498.63" font-family="Helvetica,sans-Serif" font-size="10.00">::s_3d_airfoil_levelset</text>
</a>
</g>
</g>
<!-- Node1&#45;&gt;Node2 -->
<g id="edge1_Node000001_Node000002" class="edge">
<title>Node1&#45;&gt;Node2</title>
<g id="a_edge1_Node000001_Node000002"><a xlink:title=" ">
<path fill="none" stroke="#63b8ff" d="M65.48,-334.64C76.4,-365.02 105.49,-433.69 155,-466.63 200.84,-497.13 263.01,-506.38 310.61,-508.42"/>
<polygon fill="#63b8ff" stroke="#63b8ff" points="310.74,-511.93 320.85,-508.76 310.97,-504.93 310.74,-511.93"/>
</a>
</g>
</g>
<!-- Node4 -->
<g id="Node000004" class="node">
<title>Node4</title>
<g id="a_Node000004"><a xlink:href="namespacem__compute__levelset.html#a529fdd339b896d1bf009d98e84aeef15" target="_top" xlink:title=" ">
<polygon fill="white" stroke="#666666" points="442,-473.63 323,-473.63 323,-443.63 442,-443.63 442,-473.63"/>
<text text-anchor="start" x="331" y="-461.63" font-family="Helvetica,sans-Serif" font-size="10.00">m_compute_levelset</text>
<text text-anchor="middle" x="382.5" y="-450.63" font-family="Helvetica,sans-Serif" font-size="10.00">::s_airfoil_levelset</text>
</a>
</g>
</g>
<!-- Node1&#45;&gt;Node4 -->
<g id="edge3_Node000001_Node000004" class="edge">
<title>Node1&#45;&gt;Node4</title>
<g id="a_edge3_Node000001_Node000004"><a xlink:title=" ">
<path fill="none" stroke="#63b8ff" d="M67.26,-334.69C80.07,-361.22 110.63,-415.75 155,-439.63 203.07,-465.5 265.34,-468.96 312.42,-466.67"/>
<polygon fill="#63b8ff" stroke="#63b8ff" points="312.74,-470.16 322.52,-466.08 312.33,-463.17 312.74,-470.16"/>
</a>
</g>
</g>
<!-- Node5 -->
<g id="Node000005" class="node">
<title>Node5</title>
<g id="a_Node000005"><a xlink:href="namespacem__compute__levelset.html#a61b7c8634628af91ec451ab8678abb63" target="_top" xlink:title=" ">
<polygon fill="white" stroke="#666666" points="276,-430.63 157,-430.63 157,-400.63 276,-400.63 276,-430.63"/>
<text text-anchor="start" x="165" y="-418.63" font-family="Helvetica,sans-Serif" font-size="10.00">m_compute_levelset</text>
<text text-anchor="middle" x="216.5" y="-407.63" font-family="Helvetica,sans-Serif" font-size="10.00">::s_circle_levelset</text>
</a>
</g>
</g>
<!-- Node1&#45;&gt;Node5 -->
<g id="edge5_Node000001_Node000005" class="edge">
<title>Node1&#45;&gt;Node5</title>
<g id="a_edge5_Node000001_Node000005"><a xlink:title=" ">
<path fill="none" stroke="#63b8ff" d="M77.26,-334.68C95.42,-350.42 125.73,-375.09 155,-391.63 157.85,-393.24 160.84,-394.8 163.88,-396.29"/>
<polygon fill="#63b8ff" stroke="#63b8ff" points="162.6,-399.55 173.15,-400.55 165.53,-393.19 162.6,-399.55"/>
</a>
</g>
</g>
<!-- Node6 -->
<g id="Node000006" class="node">
<title>Node6</title>
<g id="a_Node000006"><a xlink:href="namespacem__compute__levelset.html#ae7506472018ff5bc034c31181733daee" target="_top" xlink:title=" ">
<polygon fill="white" stroke="#666666" points="276,-382.63 157,-382.63 157,-352.63 276,-352.63 276,-382.63"/>
<text text-anchor="start" x="165" y="-370.63" font-family="Helvetica,sans-Serif" font-size="10.00">m_compute_levelset</text>
<text text-anchor="middle" x="216.5" y="-359.63" font-family="Helvetica,sans-Serif" font-size="10.00">::s_cuboid_levelset</text>
</a>
</g>
</g>
<!-- Node1&#45;&gt;Node6 -->
<g id="edge7_Node000001_Node000006" class="edge">
<title>Node1&#45;&gt;Node6</title>
<g id="a_edge7_Node000001_Node000006"><a xlink:title=" ">
<path fill="none" stroke="#63b8ff" d="M109.12,-334.69C124.41,-339.42 141.45,-344.7 157.34,-349.62"/>
<polygon fill="#63b8ff" stroke="#63b8ff" points="156.47,-353.01 167.05,-352.63 158.54,-346.33 156.47,-353.01"/>
</a>
</g>
</g>
<!-- Node7 -->
<g id="Node000007" class="node">
<title>Node7</title>
<g id="a_Node000007"><a xlink:href="namespacem__compute__levelset.html#a8d06a7ad175527cdeb9e3aed47a94d78" target="_top" xlink:title=" ">
<polygon fill="white" stroke="#666666" points="276,-334.63 157,-334.63 157,-304.63 276,-304.63 276,-334.63"/>
<text text-anchor="start" x="165" y="-322.63" font-family="Helvetica,sans-Serif" font-size="10.00">m_compute_levelset</text>
<text text-anchor="middle" x="216.5" y="-311.63" font-family="Helvetica,sans-Serif" font-size="10.00">::s_cylinder_levelset</text>
</a>
</g>
</g>
<!-- Node1&#45;&gt;Node7 -->
<g id="edge9_Node000001_Node000007" class="edge">
<title>Node1&#45;&gt;Node7</title>
<g id="a_edge9_Node000001_Node000007"><a xlink:title=" ">
<path fill="none" stroke="#63b8ff" d="M119.1,-319.63C128.07,-319.63 137.4,-319.63 146.56,-319.63"/>
<polygon fill="#63b8ff" stroke="#63b8ff" points="146.82,-323.13 156.82,-319.63 146.82,-316.13 146.82,-323.13"/>
</a>
</g>
</g>
<!-- Node8 -->
<g id="Node000008" class="node">
<title>Node8</title>
<g id="a_Node000008"><a xlink:href="namespacem__compute__levelset.html#a6b31a6070ac185f759641c395e6b4172" target="_top" xlink:title=" ">
<polygon fill="white" stroke="#666666" points="276,-286.63 157,-286.63 157,-256.63 276,-256.63 276,-286.63"/>
<text text-anchor="start" x="165" y="-274.63" font-family="Helvetica,sans-Serif" font-size="10.00">m_compute_levelset</text>
<text text-anchor="middle" x="216.5" y="-263.63" font-family="Helvetica,sans-Serif" font-size="10.00">::s_ellipse_levelset</text>
</a>
</g>
</g>
<!-- Node1&#45;&gt;Node8 -->
<g id="edge11_Node000001_Node000008" class="edge">
<title>Node1&#45;&gt;Node8</title>
<g id="a_edge11_Node000001_Node000008"><a xlink:title=" ">
<path fill="none" stroke="#63b8ff" d="M109.12,-304.57C124.41,-299.84 141.45,-294.56 157.34,-289.64"/>
<polygon fill="#63b8ff" stroke="#63b8ff" points="158.54,-292.93 167.05,-286.63 156.47,-286.25 158.54,-292.93"/>
</a>
</g>
</g>
<!-- Node9 -->
<g id="Node000009" class="node">
<title>Node9</title>
<g id="a_Node000009"><a xlink:href="namespacem__compute__levelset.html#adadad13569efd08e6caa0cb5b7157942" target="_top" xlink:title="The STL patch is a 2/3D geometry that is imported from an STL file.">
<polygon fill="white" stroke="#666666" points="276,-225.63 157,-225.63 157,-195.63 276,-195.63 276,-225.63"/>
<text text-anchor="start" x="165" y="-213.63" font-family="Helvetica,sans-Serif" font-size="10.00">m_compute_levelset</text>
<text text-anchor="middle" x="216.5" y="-202.63" font-family="Helvetica,sans-Serif" font-size="10.00">::s_model_levelset</text>
</a>
</g>
</g>
<!-- Node1&#45;&gt;Node9 -->
<g id="edge12_Node000001_Node000009" class="edge">
<title>Node1&#45;&gt;Node9</title>
<g id="a_edge12_Node000001_Node000009"><a xlink:title=" ">
<path fill="none" stroke="#63b8ff" d="M79.26,-304.43C98.03,-289.44 127.93,-266.15 155,-247.63 163.22,-242.01 172.29,-236.24 180.84,-230.99"/>
<polygon fill="#63b8ff" stroke="#63b8ff" points="182.79,-233.9 189.52,-225.72 179.16,-227.92 182.79,-233.9"/>
</a>
</g>
</g>
<!-- Node16 -->
<g id="Node000016" class="node">
<title>Node16</title>
<g id="a_Node000016"><a xlink:href="namespacem__compute__levelset.html#abb0e0b701082d92ef471ab50bea5e772" target="_top" xlink:title="Subroutine for computing the levelset values at a ghost point belonging to the rectangle IB.">
<polygon fill="white" stroke="#666666" points="278,-147.63 155,-147.63 155,-117.63 278,-117.63 278,-147.63"/>
<text text-anchor="start" x="163" y="-135.63" font-family="Helvetica,sans-Serif" font-size="10.00">m_compute_levelset</text>
<text text-anchor="middle" x="216.5" y="-124.63" font-family="Helvetica,sans-Serif" font-size="10.00">::s_rectangle_levelset</text>
</a>
</g>
</g>
<!-- Node1&#45;&gt;Node16 -->
<g id="edge20_Node000001_Node000016" class="edge">
<title>Node1&#45;&gt;Node16</title>
<g id="a_edge20_Node000001_Node000016"><a xlink:title=" ">
<path fill="none" stroke="#63b8ff" d="M69.7,-304.46C85.54,-278.88 119.68,-226.1 155,-186.63 165.27,-175.15 177.82,-163.61 188.82,-154.17"/>
<polygon fill="#63b8ff" stroke="#63b8ff" points="191.11,-156.82 196.5,-147.7 186.6,-151.47 191.11,-156.82"/>
</a>
</g>
</g>
<!-- Node17 -->
<g id="Node000017" class="node">
<title>Node17</title>
<g id="a_Node000017"><a xlink:href="namespacem__compute__levelset.html#a54445fc4a04b39ca1342ce7a14025db4" target="_top" xlink:title=" ">
<polygon fill="white" stroke="#666666" points="276,-40.63 157,-40.63 157,-10.63 276,-10.63 276,-40.63"/>
<text text-anchor="start" x="165" y="-28.63" font-family="Helvetica,sans-Serif" font-size="10.00">m_compute_levelset</text>
<text text-anchor="middle" x="216.5" y="-17.63" font-family="Helvetica,sans-Serif" font-size="10.00">::s_sphere_levelset</text>
</a>
</g>
</g>
<!-- Node1&#45;&gt;Node17 -->
<g id="edge22_Node000001_Node000017" class="edge">
<title>Node1&#45;&gt;Node17</title>
<g id="a_edge22_Node000001_Node000017"><a xlink:title=" ">
<path fill="none" stroke="#63b8ff" d="M66.01,-304.53C79.18,-269.14 114.43,-178.6 155,-108.63 167.34,-87.35 183.95,-64.9 196.64,-48.73"/>
<polygon fill="#63b8ff" stroke="#63b8ff" points="199.4,-50.88 202.88,-40.88 193.92,-46.53 199.4,-50.88"/>
</a>
</g>
</g>
<!-- Node3 -->
<g id="Node000003" class="node">
<title>Node3</title>
<g id="a_Node000003"><a xlink:href="namespacem__helper__basic.html#a3f0eae73a833f30924d4b2665a13a429" target="_top" xlink:title="This procedure checks if two floating point numbers of wp are within tolerance.">
<polygon fill="white" stroke="#666666" points="629,-373.63 487,-373.63 487,-343.63 629,-343.63 629,-373.63"/>
<text text-anchor="start" x="495" y="-361.63" font-family="Helvetica,sans-Serif" font-size="10.00">m_helper_basic::f_approx</text>
<text text-anchor="middle" x="558" y="-350.63" font-family="Helvetica,sans-Serif" font-size="10.00">_equal</text>
</a>
</g>
</g>
<!-- Node2&#45;&gt;Node3 -->
<g id="edge2_Node000002_Node000003" class="edge">
<title>Node2&#45;&gt;Node3</title>
<g id="a_edge2_Node000002_Node000003"><a xlink:title=" ">
<path fill="none" stroke="#63b8ff" d="M435.03,-491.55C440.63,-488.97 446.08,-486.01 451,-482.63 490.41,-455.52 523.96,-410.2 542.23,-382.51"/>
<polygon fill="#63b8ff" stroke="#63b8ff" points="545.34,-384.14 547.82,-373.84 539.46,-380.34 545.34,-384.14"/>
</a>
</g>
</g>
<!-- Node4&#45;&gt;Node3 -->
<g id="edge4_Node000004_Node000003" class="edge">
<title>Node4&#45;&gt;Node3</title>
<g id="a_edge4_Node000004_Node000003"><a xlink:title=" ">
<path fill="none" stroke="#63b8ff" d="M421.93,-443.57C431.58,-439.4 441.81,-434.63 451,-429.63 478.54,-414.66 508.02,-394.55 528.88,-379.55"/>
<polygon fill="#63b8ff" stroke="#63b8ff" points="530.95,-382.37 536.99,-373.67 526.84,-376.71 530.95,-382.37"/>
</a>
</g>
</g>
<!-- Node5&#45;&gt;Node3 -->
<g id="edge6_Node000005_Node000003" class="edge">
<title>Node5&#45;&gt;Node3</title>
<g id="a_edge6_Node000005_Node000003"><a xlink:title=" ">
<path fill="none" stroke="#63b8ff" d="M276.04,-405.9C323.27,-398.03 391.42,-386.66 451,-376.63 459.43,-375.21 468.23,-373.72 477,-372.24"/>
<polygon fill="#63b8ff" stroke="#63b8ff" points="477.6,-375.69 486.87,-370.57 476.43,-368.79 477.6,-375.69"/>
</a>
</g>
</g>
<!-- Node6&#45;&gt;Node3 -->
<g id="edge8_Node000006_Node000003" class="edge">
<title>Node6&#45;&gt;Node3</title>
<g id="a_edge8_Node000006_Node000003"><a xlink:title=" ">
<path fill="none" stroke="#63b8ff" d="M276.25,-366.07C331.71,-364.6 415.32,-362.39 476.88,-360.75"/>
<polygon fill="#63b8ff" stroke="#63b8ff" points="477.04,-364.25 486.95,-360.49 476.86,-357.25 477.04,-364.25"/>
</a>
</g>
</g>
<!-- Node7&#45;&gt;Node3 -->
<g id="edge10_Node000007_Node000003" class="edge">
<title>Node7&#45;&gt;Node3</title>
<g id="a_edge10_Node000007_Node000003"><a xlink:title=" ">
<path fill="none" stroke="#63b8ff" d="M276.25,-326.38C331.71,-332.75 415.32,-342.36 476.88,-349.43"/>
<polygon fill="#63b8ff" stroke="#63b8ff" points="476.61,-352.92 486.95,-350.58 477.41,-345.96 476.61,-352.92"/>
</a>
</g>
</g>
<!-- Node10 -->
<g id="Node000010" class="node">
<title>Node10</title>
<g id="a_Node000010"><a xlink:href="namespacem__ib__patches.html#ad54c82fdc48ffedb23d4615166220e45" target="_top" xlink:title=" ">
<polygon fill="white" stroke="#666666" points="450.5,-311.63 314.5,-311.63 314.5,-281.63 450.5,-281.63 450.5,-311.63"/>
<text text-anchor="start" x="322.5" y="-299.63" font-family="Helvetica,sans-Serif" font-size="10.00">m_ib_patches::f_convert</text>
<text text-anchor="middle" x="382.5" y="-288.63" font-family="Helvetica,sans-Serif" font-size="10.00">_cyl_to_cart</text>
</a>
</g>
</g>
<!-- Node9&#45;&gt;Node10 -->
<g id="edge13_Node000009_Node000010" class="edge">
<title>Node9&#45;&gt;Node10</title>
<g id="a_edge13_Node000009_Node000010"><a xlink:title=" ">
<path fill="none" stroke="#63b8ff" d="M243.02,-225.79C253.89,-232.36 266.66,-240.23 278,-247.63 294.32,-258.27 296.67,-263.73 314,-272.63 317.45,-274.4 321.06,-276.1 324.74,-277.71"/>
<polygon fill="#63b8ff" stroke="#63b8ff" points="323.4,-280.94 333.98,-281.54 326.08,-274.48 323.4,-280.94"/>
</a>
</g>
</g>
<!-- Node11 -->
<g id="Node000011" class="node">
<title>Node11</title>
<g id="a_Node000011"><a xlink:href="namespacem__model.html#aa96630d777a3956c3466648006e1a796" target="_top" xlink:title="This procedure determines the levelset distance of 2D models without interpolation.">
<polygon fill="white" stroke="#666666" points="442,-263.13 323,-263.13 323,-244.13 442,-244.13 442,-263.13"/>
<text text-anchor="middle" x="382.5" y="-251.13" font-family="Helvetica,sans-Serif" font-size="10.00">m_model::f_distance</text>
</a>
</g>
</g>
<!-- Node9&#45;&gt;Node11 -->
<g id="edge14_Node000009_Node000011" class="edge">
<title>Node9&#45;&gt;Node11</title>
<g id="a_edge14_Node000009_Node000011"><a xlink:title=" ">
<path fill="none" stroke="#63b8ff" d="M274.86,-225.67C294.59,-230.84 316.42,-236.57 335.16,-241.48"/>
<polygon fill="#63b8ff" stroke="#63b8ff" points="334.38,-244.89 344.94,-244.04 336.15,-238.12 334.38,-244.89"/>
</a>
</g>
</g>
<!-- Node12 -->
<g id="Node000012" class="node">
<title>Node12</title>
<g id="a_Node000012"><a xlink:href="namespacem__model.html#a1ad1b8a7c32c79a57add3e8de2de7531" target="_top" xlink:title="This procedure determines the levelset distance and normals of the 3D models without interpolation.">
<polygon fill="white" stroke="#666666" points="442,-225.63 323,-225.63 323,-195.63 442,-195.63 442,-225.63"/>
<text text-anchor="start" x="331" y="-213.63" font-family="Helvetica,sans-Serif" font-size="10.00">m_model::f_distance</text>
<text text-anchor="middle" x="382.5" y="-202.63" font-family="Helvetica,sans-Serif" font-size="10.00">_normals_3d</text>
</a>
</g>
</g>
<!-- Node9&#45;&gt;Node12 -->
<g id="edge15_Node000009_Node000012" class="edge">
<title>Node9&#45;&gt;Node12</title>
<g id="a_edge15_Node000009_Node000012"><a xlink:title=" ">
<path fill="none" stroke="#63b8ff" d="M276.24,-210.63C288.09,-210.63 300.65,-210.63 312.8,-210.63"/>
<polygon fill="#63b8ff" stroke="#63b8ff" points="312.89,-214.13 322.89,-210.63 312.89,-207.13 312.89,-214.13"/>
</a>
</g>
</g>
<!-- Node13 -->
<g id="Node000013" class="node">
<title>Node13</title>
<g id="a_Node000013"><a xlink:href="namespacem__model.html#a293983725924506b6bf525f2b5388e69" target="_top" xlink:title="This procedure determines the levelset of interpolated 2D models.">
<polygon fill="white" stroke="#666666" points="451,-177.63 314,-177.63 314,-147.63 451,-147.63 451,-177.63"/>
<text text-anchor="start" x="322" y="-165.63" font-family="Helvetica,sans-Serif" font-size="10.00">m_model::f_interpolated</text>
<text text-anchor="middle" x="382.5" y="-154.63" font-family="Helvetica,sans-Serif" font-size="10.00">_distance</text>
</a>
</g>
</g>
<!-- Node9&#45;&gt;Node13 -->
<g id="edge16_Node000009_Node000013" class="edge">
<title>Node9&#45;&gt;Node13</title>
<g id="a_edge16_Node000009_Node000013"><a xlink:title=" ">
<path fill="none" stroke="#63b8ff" d="M268.94,-195.57C285.27,-190.79 303.49,-185.46 320.44,-180.5"/>
<polygon fill="#63b8ff" stroke="#63b8ff" points="321.63,-183.8 330.24,-177.63 319.66,-177.08 321.63,-183.8"/>
</a>
</g>
</g>
<!-- Node14 -->
<g id="Node000014" class="node">
<title>Node14</title>
<g id="a_Node000014"><a xlink:href="namespacem__helper__basic.html#af1b06a05daa43f724ac3b0ff2f97db14" target="_top" xlink:title="Checks if a real(wp) variable is of default value.">
<polygon fill="white" stroke="#666666" points="440.5,-129.63 324.5,-129.63 324.5,-99.63 440.5,-99.63 440.5,-129.63"/>
<text text-anchor="start" x="332.5" y="-117.63" font-family="Helvetica,sans-Serif" font-size="10.00">m_helper_basic::f_is</text>
<text text-anchor="middle" x="382.5" y="-106.63" font-family="Helvetica,sans-Serif" font-size="10.00">_default</text>
</a>
</g>
</g>
<!-- Node9&#45;&gt;Node14 -->
<g id="edge17_Node000009_Node000014" class="edge">
<title>Node9&#45;&gt;Node14</title>
<g id="a_edge17_Node000009_Node000014"><a xlink:title=" ">
<path fill="none" stroke="#63b8ff" d="M234.56,-195.39C253.05,-179.5 283.96,-154.7 314,-138.63 317.26,-136.88 320.68,-135.22 324.17,-133.64"/>
<polygon fill="#63b8ff" stroke="#63b8ff" points="325.69,-136.8 333.52,-129.67 322.95,-130.36 325.69,-136.8"/>
</a>
</g>
</g>
<!-- Node15 -->
<g id="Node000015" class="node">
<title>Node15</title>
<g id="a_Node000015"><a xlink:href="namespacem__model.html#a703fc994cbf52dac033cf37c64294140" target="_top" xlink:title="This procedure determines the levelset normals of 2D models without interpolation.">
<polygon fill="white" stroke="#666666" points="441,-81.13 324,-81.13 324,-62.13 441,-62.13 441,-81.13"/>
<text text-anchor="middle" x="382.5" y="-69.13" font-family="Helvetica,sans-Serif" font-size="10.00">m_model::f_normals</text>
</a>
</g>
</g>
<!-- Node9&#45;&gt;Node15 -->
<g id="edge19_Node000009_Node000015" class="edge">
<title>Node9&#45;&gt;Node15</title>
<g id="a_edge19_Node000009_Node000015"><a xlink:title=" ">
<path fill="none" stroke="#63b8ff" d="M237.64,-195.6C250.25,-185.51 266.27,-171.41 278,-156.63 298.77,-130.46 287.87,-111.46 314,-90.63 316.28,-88.82 318.72,-87.18 321.27,-85.69"/>
<polygon fill="#63b8ff" stroke="#63b8ff" points="322.89,-88.79 330.31,-81.22 319.79,-82.52 322.89,-88.79"/>
</a>
</g>
</g>
<!-- Node14&#45;&gt;Node3 -->
<g id="edge18_Node000014_Node000003" class="edge">
<title>Node14&#45;&gt;Node3</title>
<g id="a_edge18_Node000014_Node000003"><a xlink:title=" ">
<path fill="none" stroke="#63b8ff" d="M438.33,-129.77C442.9,-132.29 447.21,-135.22 451,-138.63 511.16,-192.65 540.51,-288.28 551.57,-333.54"/>
<polygon fill="#63b8ff" stroke="#63b8ff" points="548.19,-334.47 553.89,-343.41 555.01,-332.87 548.19,-334.47"/>
</a>
</g>
</g>
<!-- Node16&#45;&gt;Node3 -->
<g id="edge21_Node000016_Node000003" class="edge">
<title>Node16&#45;&gt;Node3</title>
<g id="a_edge21_Node000016_Node000003"><a xlink:title=" ">
<path fill="none" stroke="#63b8ff" d="M229.94,-117.41C246.69,-98.24 278.52,-66.3 314,-53.63 371.34,-33.15 401.38,-18.34 451,-53.63 543.68,-119.54 556.04,-272.53 557.17,-333.19"/>
<polygon fill="#63b8ff" stroke="#63b8ff" points="553.68,-333.44 557.27,-343.4 560.68,-333.37 553.68,-333.44"/>
</a>
</g>
</g>
<!-- Node17&#45;&gt;Node3 -->
<g id="edge23_Node000017_Node000003" class="edge">
<title>Node17&#45;&gt;Node3</title>
<g id="a_edge23_Node000017_Node000003"><a xlink:title=" ">
<path fill="none" stroke="#63b8ff" d="M268.41,-10.54C319.69,1.35 398.51,10.16 451,-28.63 550.07,-101.84 558.48,-268.98 557.87,-333.01"/>
<polygon fill="#63b8ff" stroke="#63b8ff" points="554.36,-333.33 557.68,-343.39 561.36,-333.46 554.36,-333.33"/>
</a>
</g>
</g>
</g>
</svg>
