<?xml version="1.0" encoding="UTF-8" standalone="no"?>
<!DOCTYPE svg PUBLIC "-//W3C//DTD SVG 1.1//EN"
 "http://www.w3.org/Graphics/SVG/1.1/DTD/svg11.dtd">
<!-- Generated by graphviz version 2.43.0 (0)
 -->
<!-- Title: m_start_up::s_check_input_file Pages: 1 -->
<!--zoomable 326 -->

<svg id="main" version="1.1" xmlns="http://www.w3.org/2000/svg" xmlns:xlink="http://www.w3.org/1999/xlink" xml:space="preserve" onload="init(evt)">

<style type="text/css"><![CDATA[
.node, .edge {opacity: 0.7;}
.node.selected, .edge.selected {opacity: 1;}
.edge:hover path { stroke: red; }
.edge:hover polygon { stroke: red; fill: red; }
]]></style>

<defs>
  <circle id="rim" cx="0" cy="0" r="7"/>
  <circle id="rim2" cx="0" cy="0" r="3.5"/>
  <g id="zoomPlus">
    <use xlink:href="#rim" fill="#404040"><set attributeName="fill" to="#808080" begin="zoomplus.mouseover" end="zoomplus.mouseout"/></use>
    <path d="M-4,0h8M0,-4v8" fill="none" stroke="white" stroke-width="1.5" pointer-events="none"/>
  </g>
  <g id="zoomMin">
    <use xlink:href="#rim" fill="#404040"><set attributeName="fill" to="#808080" begin="zoomminus.mouseover" end="zoomminus.mouseout"/></use>
    <path d="M-4,0h8" fill="none" stroke="white" stroke-width="1.5" pointer-events="none"/>
  </g>
  <g id="arrowUp" transform="translate(30 24)">
    <use xlink:href="#rim"/>
    <path pointer-events="none" fill="none" stroke="white" stroke-width="1.5" d="M0,-3.0v7 M-2.5,-0.5L0,-3.0L2.5,-0.5"/>
  </g>
  <g id="arrowRight" transform="rotate(90) translate(36 -43)">
    <use xlink:href="#rim"/>
    <path pointer-events="none" fill="none" stroke="white" stroke-width="1.5" d="M0,-3.0v7 M-2.5,-0.5L0,-3.0L2.5,-0.5"/>
  </g>
  <g id="arrowDown" transform="rotate(180) translate(-30 -48)">
    <use xlink:href="#rim"/>
    <path pointer-events="none" fill="none" stroke="white" stroke-width="1.5" d="M0,-3.0v7 M-2.5,-0.5L0,-3.0L2.5,-0.5"/>
  </g>
  <g id="arrowLeft" transform="rotate(270) translate(-36 17)">
    <use xlink:href="#rim"/>
    <path pointer-events="none" fill="none" stroke="white" stroke-width="1.5" d="M0,-3.0v7 M-2.5,-0.5L0,-3.0L2.5,-0.5"/>
  </g>
  <g id="resetDef">
    <use xlink:href="#rim2" fill="#404040"><set attributeName="fill" to="#808080" begin="reset.mouseover" end="reset.mouseout"/></use>
  </g>
</defs>
<script type="application/ecmascript">
var viewWidth = 622;
var viewHeight = 326;
var sectionId = 'dynsection-1';
</script>
<script type="application/ecmascript" xlink:href="svg.min.js"/>
<svg id="graph" class="graph">
<g id="viewport">
<title>m_start_up::s_check_input_file</title>
<!-- Node1 -->
<g id="Node000001" class="node">
<title>Node1</title>
<g id="a_Node000001"><a xlink:title="Validate that all user&#45;provided inputs form a consistent simulation configuration.">
<polygon fill="#999999" stroke="#666666" points="116,-150 0,-150 0,-120 116,-120 116,-150"/>
<text text-anchor="start" x="8" y="-138" font-family="Helvetica,sans-Serif" font-size="10.00">m_start_up::s_check</text>
<text text-anchor="middle" x="58" y="-127" font-family="Helvetica,sans-Serif" font-size="10.00">_input_file</text>
</a>
</g>
</g>
<!-- Node2 -->
<g id="Node000002" class="node">
<title>Node2</title>
<g id="a_Node000002"><a xlink:href="namespacem__compile__specific.html#a9cf8c029e502931415929734c03f340d" target="_top" xlink:title="Inquires on the existence of a directory.">
<polygon fill="white" stroke="#666666" points="275.5,-222 162.5,-222 162.5,-192 275.5,-192 275.5,-222"/>
<text text-anchor="start" x="170.5" y="-210" font-family="Helvetica,sans-Serif" font-size="10.00">m_compile_specific</text>
<text text-anchor="middle" x="219" y="-199" font-family="Helvetica,sans-Serif" font-size="10.00">::my_inquire</text>
</a>
</g>
</g>
<!-- Node1&#45;&gt;Node2 -->
<g id="edge1_Node000001_Node000002" class="edge">
<title>Node1&#45;&gt;Node2</title>
<g id="a_edge1_Node000001_Node000002"><a xlink:title=" ">
<path fill="none" stroke="#63b8ff" d="M85.82,-150C104.17,-159.97 129.2,-173.02 152,-183 156.07,-184.78 160.31,-186.54 164.61,-188.25"/>
<polygon fill="#63b8ff" stroke="#63b8ff" points="163.43,-191.55 174.02,-191.9 165.96,-185.02 163.43,-191.55"/>
</a>
</g>
</g>
<!-- Node3 -->
<g id="Node000003" class="node">
<title>Node3</title>
<g id="a_Node000003"><a xlink:href="namespacem__checker.html#a214e05cb46bc7c3e0dbe55fdc433c072" target="_top" xlink:title="Checks compatibility of parameters in the input file. Used by the simulation stage.">
<polygon fill="white" stroke="#666666" points="276,-174 162,-174 162,-144 276,-144 276,-174"/>
<text text-anchor="start" x="170" y="-162" font-family="Helvetica,sans-Serif" font-size="10.00">m_checker::s_check</text>
<text text-anchor="middle" x="219" y="-151" font-family="Helvetica,sans-Serif" font-size="10.00">_inputs</text>
</a>
</g>
</g>
<!-- Node1&#45;&gt;Node3 -->
<g id="edge2_Node000001_Node000003" class="edge">
<title>Node1&#45;&gt;Node3</title>
<g id="a_edge2_Node000001_Node000003"><a xlink:title=" ">
<path fill="none" stroke="#63b8ff" d="M116.4,-143.66C127.82,-145.39 139.9,-147.21 151.6,-148.98"/>
<polygon fill="#63b8ff" stroke="#63b8ff" points="151.34,-152.48 161.75,-150.51 152.38,-145.56 151.34,-152.48"/>
</a>
</g>
</g>
<!-- Node11 -->
<g id="Node000011" class="node">
<title>Node11</title>
<g id="a_Node000011"><a xlink:href="namespacem__checker__common.html#a37b5025d5e6ffafc4cb5f417387c21b8" target="_top" xlink:title="Checks compatibility of parameters in the input file. Used by all three stages.">
<polygon fill="white" stroke="#666666" points="286,-126 152,-126 152,-96 286,-96 286,-126"/>
<text text-anchor="start" x="160" y="-114" font-family="Helvetica,sans-Serif" font-size="10.00">m_checker_common::s</text>
<text text-anchor="middle" x="219" y="-103" font-family="Helvetica,sans-Serif" font-size="10.00">_check_inputs_common</text>
</a>
</g>
</g>
<!-- Node1&#45;&gt;Node11 -->
<g id="edge12_Node000001_Node000011" class="edge">
<title>Node1&#45;&gt;Node11</title>
<g id="a_edge12_Node000001_Node000011"><a xlink:title=" ">
<path fill="none" stroke="#63b8ff" d="M116.4,-126.34C124.65,-125.09 133.24,-123.79 141.78,-122.5"/>
<polygon fill="#63b8ff" stroke="#63b8ff" points="142.4,-125.95 151.76,-121 141.35,-119.03 142.4,-125.95"/>
</a>
</g>
</g>
<!-- Node13 -->
<g id="Node000013" class="node">
<title>Node13</title>
<g id="a_Node000013"><a xlink:href="namespacem__mpi__common.html#a04cfc0bdb377a0ce2f9fd478e4bb3807" target="_top" xlink:title="The subroutine terminates the MPI execution environment.">
<polygon fill="white" stroke="#666666" points="286,-78 152,-78 152,-48 286,-48 286,-78"/>
<text text-anchor="start" x="160" y="-66" font-family="Helvetica,sans-Serif" font-size="10.00">m_mpi_common::s_mpi</text>
<text text-anchor="middle" x="219" y="-55" font-family="Helvetica,sans-Serif" font-size="10.00">_abort</text>
</a>
</g>
</g>
<!-- Node1&#45;&gt;Node13 -->
<g id="edge15_Node000001_Node000013" class="edge">
<title>Node1&#45;&gt;Node13</title>
<g id="a_edge15_Node000001_Node000013"><a xlink:title=" ">
<path fill="none" stroke="#63b8ff" d="M85.82,-120C104.17,-110.03 129.2,-96.98 152,-87 156.07,-85.22 160.31,-83.46 164.61,-81.75"/>
<polygon fill="#63b8ff" stroke="#63b8ff" points="165.96,-84.98 174.02,-78.1 163.43,-78.45 165.96,-84.98"/>
</a>
</g>
</g>
<!-- Node4 -->
<g id="Node000004" class="node">
<title>Node4</title>
<g id="a_Node000004"><a xlink:href="namespacem__checker.html#aae9a516509d46e5ac36d150bb75254f2" target="_top" xlink:title="Checks constraints on compiler options.">
<polygon fill="white" stroke="#666666" points="444.5,-318 330.5,-318 330.5,-288 444.5,-288 444.5,-318"/>
<text text-anchor="start" x="338.5" y="-306" font-family="Helvetica,sans-Serif" font-size="10.00">m_checker::s_check</text>
<text text-anchor="middle" x="387.5" y="-295" font-family="Helvetica,sans-Serif" font-size="10.00">_inputs_compilers</text>
</a>
</g>
</g>
<!-- Node3&#45;&gt;Node4 -->
<g id="edge3_Node000003_Node000004" class="edge">
<title>Node3&#45;&gt;Node4</title>
<g id="a_edge3_Node000003_Node000004"><a xlink:title=" ">
<path fill="none" stroke="#63b8ff" d="M274.27,-174.1C278.54,-176.62 282.53,-179.57 286,-183 318.38,-215.06 289.74,-246.82 322,-279 323.08,-280.08 324.22,-281.11 325.4,-282.1"/>
<polygon fill="#63b8ff" stroke="#63b8ff" points="323.58,-285.09 333.77,-287.97 327.59,-279.36 323.58,-285.09"/>
</a>
</g>
</g>
<!-- Node5 -->
<g id="Node000005" class="node">
<title>Node5</title>
<g id="a_Node000005"><a xlink:href="namespacem__checker.html#a96654b50668ae39c0b9eca1426a3fe56" target="_top" xlink:title="Validate that the grid resolution is sufficient for the MUSCL reconstruction order.">
<polygon fill="white" stroke="#666666" points="444.5,-270 330.5,-270 330.5,-240 444.5,-240 444.5,-270"/>
<text text-anchor="start" x="338.5" y="-258" font-family="Helvetica,sans-Serif" font-size="10.00">m_checker::s_check</text>
<text text-anchor="middle" x="387.5" y="-247" font-family="Helvetica,sans-Serif" font-size="10.00">_inputs_muscl</text>
</a>
</g>
</g>
<!-- Node3&#45;&gt;Node5 -->
<g id="edge4_Node000003_Node000005" class="edge">
<title>Node3&#45;&gt;Node5</title>
<g id="a_edge4_Node000003_Node000005"><a xlink:title=" ">
<path fill="none" stroke="#63b8ff" d="M270.94,-174.05C276.26,-176.62 281.4,-179.59 286,-183 307.42,-198.88 300.64,-215.04 322,-231 323.83,-232.37 325.74,-233.66 327.72,-234.89"/>
<polygon fill="#63b8ff" stroke="#63b8ff" points="326.27,-238.09 336.72,-239.85 329.65,-231.96 326.27,-238.09"/>
</a>
</g>
</g>
<!-- Node7 -->
<g id="Node000007" class="node">
<title>Node7</title>
<g id="a_Node000007"><a xlink:href="namespacem__checker.html#aceda94ae9a006496d062f1e764db5b67" target="_top" xlink:title="Validate NVIDIA unified virtual memory configuration parameters.">
<polygon fill="white" stroke="#666666" points="444.5,-222 330.5,-222 330.5,-192 444.5,-192 444.5,-222"/>
<text text-anchor="start" x="338.5" y="-210" font-family="Helvetica,sans-Serif" font-size="10.00">m_checker::s_check</text>
<text text-anchor="middle" x="387.5" y="-199" font-family="Helvetica,sans-Serif" font-size="10.00">_inputs_nvidia_uvm</text>
</a>
</g>
</g>
<!-- Node3&#45;&gt;Node7 -->
<g id="edge6_Node000003_Node000007" class="edge">
<title>Node3&#45;&gt;Node7</title>
<g id="a_edge6_Node000003_Node000007"><a xlink:title=" ">
<path fill="none" stroke="#63b8ff" d="M272.22,-174.06C288.81,-178.84 307.31,-184.17 324.51,-189.13"/>
<polygon fill="#63b8ff" stroke="#63b8ff" points="323.88,-192.59 334.46,-192 325.82,-185.86 323.88,-192.59"/>
</a>
</g>
</g>
<!-- Node8 -->
<g id="Node000008" class="node">
<title>Node8</title>
<g id="a_Node000008"><a xlink:href="namespacem__checker.html#a395a1d302f6ed4d70d79e6c04648be8a" target="_top" xlink:title="Checks that each active particle cloud has a valid packing_method specified.">
<polygon fill="white" stroke="#666666" points="453,-174 322,-174 322,-144 453,-144 453,-174"/>
<text text-anchor="start" x="330" y="-162" font-family="Helvetica,sans-Serif" font-size="10.00">m_checker::s_check</text>
<text text-anchor="middle" x="387.5" y="-151" font-family="Helvetica,sans-Serif" font-size="10.00">_inputs_particle_clouds</text>
</a>
</g>
</g>
<!-- Node3&#45;&gt;Node8 -->
<g id="edge7_Node000003_Node000008" class="edge">
<title>Node3&#45;&gt;Node8</title>
<g id="a_edge7_Node000003_Node000008"><a xlink:title=" ">
<path fill="none" stroke="#63b8ff" d="M276.37,-159C287.68,-159 299.73,-159 311.56,-159"/>
<polygon fill="#63b8ff" stroke="#63b8ff" points="311.87,-162.5 321.87,-159 311.87,-155.5 311.87,-162.5"/>
</a>
</g>
</g>
<!-- Node9 -->
<g id="Node000009" class="node">
<title>Node9</title>
<g id="a_Node000009"><a xlink:href="namespacem__checker.html#a2bee59c2049ad8165e2788175b6cd030" target="_top" xlink:title="Checks constraints on time stepping parameters.">
<polygon fill="white" stroke="#666666" points="451,-126 324,-126 324,-96 451,-96 451,-126"/>
<text text-anchor="start" x="332" y="-114" font-family="Helvetica,sans-Serif" font-size="10.00">m_checker::s_check</text>
<text text-anchor="middle" x="387.5" y="-103" font-family="Helvetica,sans-Serif" font-size="10.00">_inputs_time_stepping</text>
</a>
</g>
</g>
<!-- Node3&#45;&gt;Node9 -->
<g id="edge9_Node000003_Node000009" class="edge">
<title>Node3&#45;&gt;Node9</title>
<g id="a_edge9_Node000003_Node000009"><a xlink:title=" ">
<path fill="none" stroke="#63b8ff" d="M272.22,-143.94C288.81,-139.16 307.31,-133.83 324.51,-128.87"/>
<polygon fill="#63b8ff" stroke="#63b8ff" points="325.82,-132.14 334.46,-126 323.88,-125.41 325.82,-132.14"/>
</a>
</g>
</g>
<!-- Node10 -->
<g id="Node000010" class="node">
<title>Node10</title>
<g id="a_Node000010"><a xlink:href="namespacem__checker.html#a8abd19271bbd3a0d8a4b445f1e7dba57" target="_top" xlink:title="Checks constraints on WENO scheme parameters.">
<polygon fill="white" stroke="#666666" points="444.5,-78 330.5,-78 330.5,-48 444.5,-48 444.5,-78"/>
<text text-anchor="start" x="338.5" y="-66" font-family="Helvetica,sans-Serif" font-size="10.00">m_checker::s_check</text>
<text text-anchor="middle" x="387.5" y="-55" font-family="Helvetica,sans-Serif" font-size="10.00">_inputs_weno</text>
</a>
</g>
</g>
<!-- Node3&#45;&gt;Node10 -->
<g id="edge10_Node000003_Node000010" class="edge">
<title>Node3&#45;&gt;Node10</title>
<g id="a_edge10_Node000003_Node000010"><a xlink:title=" ">
<path fill="none" stroke="#63b8ff" d="M270.94,-143.95C276.26,-141.38 281.4,-138.41 286,-135 307.42,-119.12 300.64,-102.96 322,-87 323.83,-85.63 325.74,-84.34 327.72,-83.11"/>
<polygon fill="#63b8ff" stroke="#63b8ff" points="329.65,-86.04 336.72,-78.15 326.27,-79.91 329.65,-86.04"/>
</a>
</g>
</g>
<!-- Node6 -->
<g id="Node000006" class="node">
<title>Node6</title>
<g id="a_Node000006"><a xlink:href="namespacem__helper.html#afd343d70a36c65cb7be86a183aa594ac" target="_top" xlink:title="Convert an integer to its trimmed string representation.">
<polygon fill="white" stroke="#666666" points="614,-120.5 489,-120.5 489,-101.5 614,-101.5 614,-120.5"/>
<text text-anchor="middle" x="551.5" y="-108.5" font-family="Helvetica,sans-Serif" font-size="10.00">m_helper::s_int_to_str</text>
</a>
</g>
</g>
<!-- Node5&#45;&gt;Node6 -->
<g id="edge5_Node000005_Node000006" class="edge">
<title>Node5&#45;&gt;Node6</title>
<g id="a_edge5_Node000005_Node000006"><a xlink:title=" ">
<path fill="none" stroke="#63b8ff" d="M437.49,-240C442.94,-237.4 448.24,-234.41 453,-231 492.07,-202.97 524.2,-155.42 539.97,-129.38"/>
<polygon fill="#63b8ff" stroke="#63b8ff" points="543.12,-130.94 545.2,-120.55 537.09,-127.37 543.12,-130.94"/>
</a>
</g>
</g>
<!-- Node8&#45;&gt;Node6 -->
<g id="edge8_Node000008_Node000006" class="edge">
<title>Node8&#45;&gt;Node6</title>
<g id="a_edge8_Node000008_Node000006"><a xlink:title=" ">
<path fill="none" stroke="#63b8ff" d="M439.31,-143.94C461.58,-137.35 487.4,-129.7 508.56,-123.43"/>
<polygon fill="#63b8ff" stroke="#63b8ff" points="509.63,-126.76 518.22,-120.56 507.64,-120.05 509.63,-126.76"/>
</a>
</g>
</g>
<!-- Node10&#45;&gt;Node6 -->
<g id="edge11_Node000010_Node000006" class="edge">
<title>Node10&#45;&gt;Node6</title>
<g id="a_edge11_Node000010_Node000006"><a xlink:title=" ">
<path fill="none" stroke="#63b8ff" d="M439.31,-78.06C461.58,-84.65 487.4,-92.3 508.56,-98.57"/>
<polygon fill="#63b8ff" stroke="#63b8ff" points="507.64,-101.95 518.22,-101.44 509.63,-95.24 507.64,-101.95"/>
</a>
</g>
</g>
<!-- Node12 -->
<g id="Node000012" class="node">
<title>Node12</title>
<g id="a_Node000012"><a xlink:href="namespacem__checker__common.html#abf7ee76feb76e0dfa1301860374be234" target="_top" xlink:title="Verify that the total number of grid cells meets the minimum required by the number of dimensions and...">
<polygon fill="white" stroke="#666666" points="451.5,-30 323.5,-30 323.5,0 451.5,0 451.5,-30"/>
<text text-anchor="start" x="331.5" y="-18" font-family="Helvetica,sans-Serif" font-size="10.00">m_checker_common::s</text>
<text text-anchor="middle" x="387.5" y="-7" font-family="Helvetica,sans-Serif" font-size="10.00">_check_total_cells</text>
</a>
</g>
</g>
<!-- Node11&#45;&gt;Node12 -->
<g id="edge13_Node000011_Node000012" class="edge">
<title>Node11&#45;&gt;Node12</title>
<g id="a_edge13_Node000011_Node000012"><a xlink:title=" ">
<path fill="none" stroke="#63b8ff" d="M270.94,-95.95C276.26,-93.38 281.4,-90.41 286,-87 307.42,-71.12 300.64,-54.96 322,-39 323.83,-37.63 325.74,-36.34 327.72,-35.11"/>
<polygon fill="#63b8ff" stroke="#63b8ff" points="329.65,-38.04 336.72,-30.15 326.27,-31.91 329.65,-38.04"/>
</a>
</g>
</g>
<!-- Node12&#45;&gt;Node6 -->
<g id="edge14_Node000012_Node000006" class="edge">
<title>Node12&#45;&gt;Node6</title>
<g id="a_edge14_Node000012_Node000006"><a xlink:title=" ">
<path fill="none" stroke="#63b8ff" d="M433.97,-30.08C440.49,-32.77 447.01,-35.76 453,-39 482.53,-54.98 513.12,-79.01 531.99,-94.85"/>
<polygon fill="#63b8ff" stroke="#63b8ff" points="529.9,-97.67 539.78,-101.49 534.44,-92.34 529.9,-97.67"/>
</a>
</g>
</g>
</g>
</svg>

<g id="navigator" transform="translate(0 0)" fill="#404254">
  <rect fill="#f2f5e9" fill-opacity="0.5" stroke="#606060" stroke-width=".5" x="0" y="0" width="60" height="60"/>
  <use id="zoomplus" xlink:href="#zoomPlus" x="17" y="9" onmousedown="handleZoom(evt,'in')"/>
  <use id="zoomminus" xlink:href="#zoomMin" x="42" y="9" onmousedown="handleZoom(evt,'out')"/>
  <use id="reset" xlink:href="#resetDef" x="30" y="36" onmousedown="handleReset()"/>
   <use id="arrowup" xlink:href="#arrowUp" x="0" y="0" onmousedown="handlePan(0,-1)"/>
  <use id="arrowright" xlink:href="#arrowRight" x="0" y="0" onmousedown="handlePan(1,0)"/>
  <use id="arrowdown" xlink:href="#arrowDown" x="0" y="0" onmousedown="handlePan(0,1)"/>
  <use id="arrowleft" xlink:href="#arrowLeft" x="0" y="0" onmousedown="handlePan(-1,0)"/>
</g>
<svg viewBox="0 0 15 15" width="100%" height="30px" preserveAspectRatio="xMaxYMin meet">
 <g id="arrow_out" transform="scale(0.3 0.3)">
  <a xlink:href="namespacem__start__up_ad26e747c87bb6bcf4c9d6baa21d044c1_cgraph_org.svg" target="_base">
   <rect id="button" ry="5" rx="5" y="6" x="6" height="38" width="38"
        fill="#f2f5e9" fill-opacity="0.5" stroke="#606060" stroke-width="1.0"/>
   <path id="arrow"
     d="M 11.500037,31.436501 C 11.940474,20.09759 22.043105,11.32322 32.158766,21.979434 L 37.068811,17.246167 C 37.068811,17.246167 37.088388,32 37.088388,32 L 22.160133,31.978069 C 22.160133,31.978069 26.997745,27.140456 26.997745,27.140456 C 18.528582,18.264221 13.291696,25.230495 11.500037,31.436501 z"
     style="fill:#404040;"/>
  </a>
 </g>
</svg>

<style type='text/css'>
<![CDATA[
[data-mouse-over-selected='false'] { opacity: 0.7; }
[data-mouse-over-selected='true']  { opacity: 1.0; }
]]>
</style>
<script type="application/ecmascript"><![CDATA[
document.addEventListener('DOMContentLoaded', (event) => {
  highlightEdges();
  highlightAdjacentNodes();
});
]]></script>
</svg>
