<?xml version="1.0" encoding="UTF-8" standalone="no"?>
<!DOCTYPE svg PUBLIC "-//W3C//DTD SVG 1.1//EN"
 "http://www.w3.org/Graphics/SVG/1.1/DTD/svg11.dtd">
<!-- Generated by graphviz version 2.40.1 (20161225.0304)
 -->
<!-- Title: m_rhs::s_get_crv Pages: 1 -->
<svg width="198pt" height="260pt"
 viewBox="0.00 0.00 198.00 260.00" xmlns="http://www.w3.org/2000/svg" xmlns:xlink="http://www.w3.org/1999/xlink">
<g id="graph0" class="graph" transform="scale(1 1) rotate(0) translate(4 256)">
<title>m_rhs::s_get_crv</title>
<polygon fill="#ffffff" stroke="transparent" points="-4,4 -4,-256 194,-256 194,4 -4,4"/>
<!-- Node193 -->
<g id="node1" class="node">
<title>Node193</title>
<polygon fill="#bfbfbf" stroke="#000000" points="0,-117 0,-134 63,-134 63,-117 0,-117"/>
<text text-anchor="middle" x="31.5" y="-123.6" font-family="Helvetica,sans-Serif" font-size="8.00" fill="#000000">m_rhs::s_get_crv</text>
</g>
<!-- Node194 -->
<g id="node2" class="node">
<title>Node194</title>
<g id="a_node2"><a xlink:href="namespacem__rhs.html#ac5aa3e8228234f05fd5b899a6d309260" target="_top" xlink:title="The purpose of this subroutine is to WENO&#45;reconstruct the left and the right cell&#45;boundary values...">
<polygon fill="#ffffff" stroke="#000000" points="105.5,-225.5 105.5,-251.5 183.5,-251.5 183.5,-225.5 105.5,-225.5"/>
<text text-anchor="start" x="113.5" y="-241.1" font-family="Helvetica,sans-Serif" font-size="8.00" fill="#000000">m_rhs::s_reconstruct</text>
<text text-anchor="middle" x="144.5" y="-232.1" font-family="Helvetica,sans-Serif" font-size="8.00" fill="#000000">_cell_boundary_values</text>
</a>
</g>
</g>
<!-- Node193&#45;&gt;Node194 -->
<g id="edge1" class="edge">
<title>Node193&#45;&gt;Node194</title>
<path fill="none" stroke="#191970" d="M35.9915,-134.1017C45.5117,-151.6332 69.3018,-191.9149 99,-216.5 100.5207,-217.7589 102.1256,-218.9665 103.7881,-220.122"/>
<polygon fill="#191970" stroke="#191970" points="102.108,-223.1978 112.458,-225.4626 105.7794,-217.2378 102.108,-223.1978"/>
</g>
<!-- Node195 -->
<g id="node3" class="node">
<title>Node195</title>
<g id="a_node3"><a xlink:href="namespacem__rhs.html#ada159015fa6f204a01a0c1b254affdae" target="_top" xlink:title="The goal of the procedure is to numerically approximate the left or right cell&#45;boundary integral&#45;aver...">
<polygon fill="#ffffff" stroke="#000000" points="106,-180.5 106,-206.5 183,-206.5 183,-180.5 106,-180.5"/>
<text text-anchor="start" x="114" y="-196.1" font-family="Helvetica,sans-Serif" font-size="8.00" fill="#000000">m_rhs::s_average_cell</text>
<text text-anchor="middle" x="144.5" y="-187.1" font-family="Helvetica,sans-Serif" font-size="8.00" fill="#000000">_boundary_values</text>
</a>
</g>
</g>
<!-- Node193&#45;&gt;Node195 -->
<g id="edge2" class="edge">
<title>Node193&#45;&gt;Node195</title>
<path fill="none" stroke="#191970" d="M43.106,-134.1892C56.2893,-143.8725 78.6211,-159.7157 99,-171.5 101.4923,-172.9412 104.0933,-174.3744 106.734,-175.778"/>
<polygon fill="#191970" stroke="#191970" points="105.2698,-178.9604 115.7658,-180.4043 108.4612,-172.7302 105.2698,-178.9604"/>
</g>
<!-- Node196 -->
<g id="node4" class="node">
<title>Node196</title>
<g id="a_node4"><a xlink:href="namespacem__rhs.html#a379b85ad4f20d9a3108b3a9df2ef9ff1" target="_top" xlink:title="The goal of this procedure is to WENO&#45;reconstruct the inputted cell&#45;averaged variables at the cell&#45;in...">
<polygon fill="#ffffff" stroke="#000000" points="108,-135.5 108,-161.5 181,-161.5 181,-135.5 108,-135.5"/>
<text text-anchor="start" x="116" y="-151.1" font-family="Helvetica,sans-Serif" font-size="8.00" fill="#000000">m_rhs::s_reconstruct</text>
<text text-anchor="middle" x="144.5" y="-142.1" font-family="Helvetica,sans-Serif" font-size="8.00" fill="#000000">_cell_interior_values</text>
</a>
</g>
</g>
<!-- Node193&#45;&gt;Node196 -->
<g id="edge3" class="edge">
<title>Node193&#45;&gt;Node196</title>
<path fill="none" stroke="#191970" d="M63.2775,-131.968C73.9811,-134.1466 86.1593,-136.6254 97.7698,-138.9886"/>
<polygon fill="#191970" stroke="#191970" points="97.2784,-142.4602 107.7755,-141.0251 98.6746,-135.6009 97.2784,-142.4602"/>
</g>
<!-- Node197 -->
<g id="node5" class="node">
<title>Node197</title>
<g id="a_node5"><a xlink:href="namespacem__rhs.html#ac7d49938e97f8843c84f335ff0f6cceb" target="_top" xlink:title="The purpose of this subroutine is to employ the inputted left and right cell&#45;boundary integral&#45;averag...">
<polygon fill="#ffffff" stroke="#000000" points="106,-90.5 106,-116.5 183,-116.5 183,-90.5 106,-90.5"/>
<text text-anchor="start" x="114" y="-106.1" font-family="Helvetica,sans-Serif" font-size="8.00" fill="#000000">m_rhs::s_apply_scalar</text>
<text text-anchor="middle" x="144.5" y="-97.1" font-family="Helvetica,sans-Serif" font-size="8.00" fill="#000000">_divergence_theorem</text>
</a>
</g>
</g>
<!-- Node193&#45;&gt;Node197 -->
<g id="edge4" class="edge">
<title>Node193&#45;&gt;Node197</title>
<path fill="none" stroke="#191970" d="M63.2775,-119.3132C73.3732,-117.3477 84.7808,-115.1268 95.7865,-112.984"/>
<polygon fill="#191970" stroke="#191970" points="96.5848,-116.3944 105.7316,-111.0478 95.247,-109.5234 96.5848,-116.3944"/>
</g>
<!-- Node198 -->
<g id="node6" class="node">
<title>Node198</title>
<g id="a_node6"><a xlink:href="namespacem__rhs.html#ab733571c02acf3c3d16b0bfbed34b79e" target="_top" xlink:title="The purpose of the procedure is to utilize the inputted cell&#45;averaged first&#45;order spatial derivatives...">
<polygon fill="#ffffff" stroke="#000000" points="99,-45.5 99,-71.5 190,-71.5 190,-45.5 99,-45.5"/>
<text text-anchor="start" x="107" y="-61.1" font-family="Helvetica,sans-Serif" font-size="8.00" fill="#000000">m_rhs::s_compute_gradient</text>
<text text-anchor="middle" x="144.5" y="-52.1" font-family="Helvetica,sans-Serif" font-size="8.00" fill="#000000">_magnitude</text>
</a>
</g>
</g>
<!-- Node193&#45;&gt;Node198 -->
<g id="edge5" class="edge">
<title>Node193&#45;&gt;Node198</title>
<path fill="none" stroke="#191970" d="M43.686,-116.9751C57.0119,-107.7915 79.1237,-92.9559 99,-81.5 102.0051,-79.768 105.1564,-78.0272 108.3387,-76.3211"/>
<polygon fill="#191970" stroke="#191970" points="110.0526,-79.3746 117.2935,-71.6402 106.8098,-73.171 110.0526,-79.3746"/>
</g>
<!-- Node199 -->
<g id="node7" class="node">
<title>Node199</title>
<g id="a_node7"><a xlink:href="namespacem__rhs.html#ad6141c10a72d8ff3a9fb5f16b89bdcc3" target="_top" xlink:title="The goal of this procedure is to utilize the inputted left and right cell&#45;boundary integral&#45;averaged ...">
<polygon fill="#ffffff" stroke="#000000" points="106,-.5 106,-26.5 183,-26.5 183,-.5 106,-.5"/>
<text text-anchor="start" x="114" y="-16.1" font-family="Helvetica,sans-Serif" font-size="8.00" fill="#000000">m_rhs::s_apply_vector</text>
<text text-anchor="middle" x="144.5" y="-7.1" font-family="Helvetica,sans-Serif" font-size="8.00" fill="#000000">_divergence_theorem</text>
</a>
</g>
</g>
<!-- Node193&#45;&gt;Node199 -->
<g id="edge6" class="edge">
<title>Node193&#45;&gt;Node199</title>
<path fill="none" stroke="#191970" d="M36.2238,-116.8733C45.9937,-99.6796 69.955,-60.716 99,-36.5 100.963,-34.8634 103.0621,-33.3033 105.2415,-31.8234"/>
<polygon fill="#191970" stroke="#191970" points="107.2168,-34.7182 113.9281,-26.5201 103.5692,-28.7436 107.2168,-34.7182"/>
</g>
</g>
</svg>
