<?xml version="1.0" encoding="UTF-8" standalone="no"?>
<!DOCTYPE svg PUBLIC "-//W3C//DTD SVG 1.1//EN"
 "http://www.w3.org/Graphics/SVG/1.1/DTD/svg11.dtd">
<!-- Generated by graphviz version 2.40.1 (20161225.0304)
 -->
<!-- Title: m_riemann_solvers::s_compute_cylindrical_viscous_source_flux Pages: 1 -->
<svg width="264pt" height="44pt"
 viewBox="0.00 0.00 264.00 44.00" xmlns="http://www.w3.org/2000/svg" xmlns:xlink="http://www.w3.org/1999/xlink">
<g id="graph0" class="graph" transform="scale(1 1) rotate(0) translate(4 40)">
<title>m_riemann_solvers::s_compute_cylindrical_viscous_source_flux</title>
<polygon fill="#ffffff" stroke="transparent" points="-4,4 -4,-40 260,-40 260,4 -4,4"/>
<!-- Node27 -->
<g id="node1" class="node">
<title>Node27</title>
<polygon fill="#bfbfbf" stroke="#000000" points="0,-.5 0,-35.5 76,-35.5 76,-.5 0,-.5"/>
<text text-anchor="start" x="8" y="-25.1" font-family="Helvetica,sans-Serif" font-size="8.00" fill="#000000">m_riemann_solvers::</text>
<text text-anchor="start" x="8" y="-16.1" font-family="Helvetica,sans-Serif" font-size="8.00" fill="#000000">s_compute_cylindrical</text>
<text text-anchor="middle" x="38" y="-7.1" font-family="Helvetica,sans-Serif" font-size="8.00" fill="#000000">_viscous_source_flux</text>
</g>
<!-- Node28 -->
<g id="node2" class="node">
<title>Node28</title>
<g id="a_node2"><a xlink:href="namespacem__riemann__solvers.html#aab7e6bf69b7d0b8b9d911f418b872130" target="_top" xlink:title="The computation of parameters, the allocation of memory, the association of pointers and/or the execu...">
<polygon fill="#ffffff" stroke="#000000" points="112,-.5 112,-35.5 184,-35.5 184,-.5 112,-.5"/>
<text text-anchor="start" x="120" y="-25.1" font-family="Helvetica,sans-Serif" font-size="8.00" fill="#000000">m_riemann_solvers::</text>
<text text-anchor="start" x="120" y="-16.1" font-family="Helvetica,sans-Serif" font-size="8.00" fill="#000000">s_initialize_riemann</text>
<text text-anchor="middle" x="148" y="-7.1" font-family="Helvetica,sans-Serif" font-size="8.00" fill="#000000">_solvers_module</text>
</a>
</g>
</g>
<!-- Node27&#45;&gt;Node28 -->
<g id="edge1" class="edge">
<title>Node27&#45;&gt;Node28</title>
<path fill="none" stroke="#191970" d="M86.3912,-18C94.9088,-18 103.6409,-18 111.7545,-18"/>
<polygon fill="#191970" stroke="#191970" points="86.164,-14.5001 76.164,-18 86.1639,-21.5001 86.164,-14.5001"/>
</g>
<!-- Node29 -->
<g id="node3" class="node">
<title>Node29</title>
<g id="a_node3"><a xlink:href="p__main_8f90.html#aeec10ee8e2940c953967da3e374e1579" target="_top" xlink:title="Quasi&#45;conservative, shock&#45; and interface&#45; capturing finite&#45;volume scheme for the multicomponent Navie...">
<polygon fill="#ffffff" stroke="#000000" points="220,-9.5 220,-26.5 256,-26.5 256,-9.5 220,-9.5"/>
<text text-anchor="middle" x="238" y="-16.1" font-family="Helvetica,sans-Serif" font-size="8.00" fill="#000000">p_main</text>
</a>
</g>
</g>
<!-- Node28&#45;&gt;Node29 -->
<g id="edge2" class="edge">
<title>Node28&#45;&gt;Node29</title>
<path fill="none" stroke="#191970" d="M194.3258,-18C203.437,-18 212.4757,-18 219.9461,-18"/>
<polygon fill="#191970" stroke="#191970" points="194.0879,-14.5001 184.0879,-18 194.0878,-21.5001 194.0879,-14.5001"/>
</g>
</g>
</svg>
