<?xml version="1.0" encoding="UTF-8" standalone="no"?>
<!DOCTYPE svg PUBLIC "-//W3C//DTD SVG 1.1//EN"
 "http://www.w3.org/Graphics/SVG/1.1/DTD/svg11.dtd">
<!-- Generated by graphviz version 2.43.0 (0)
 -->
<!-- Title: m_start_up::s_initialize_internal_energy_equations Pages: 1 -->
<svg width="924pt" height="232pt"
 viewBox="0.00 0.00 924.00 231.50" xmlns="http://www.w3.org/2000/svg" xmlns:xlink="http://www.w3.org/1999/xlink">
<g id="graph0" class="graph" transform="scale(1 1) rotate(0) translate(4 227.5)">
<title>m_start_up::s_initialize_internal_energy_equations</title>
<!-- Node1 -->
<g id="Node000001" class="node">
<title>Node1</title>
<g id="a_Node000001"><a xlink:title="Initialize internal&#45;energy equations from phase mass, mixture momentum, and total energy.">
<polygon fill="#999999" stroke="#666666" points="152,-175.5 0,-175.5 0,-145.5 152,-145.5 152,-175.5"/>
<text text-anchor="start" x="8" y="-163.5" font-family="Helvetica,sans-Serif" font-size="10.00">m_start_up::s_initialize</text>
<text text-anchor="middle" x="76" y="-152.5" font-family="Helvetica,sans-Serif" font-size="10.00">_internal_energy_equations</text>
</a>
</g>
</g>
<!-- Node2 -->
<g id="Node000002" class="node">
<title>Node2</title>
<g id="a_Node000002"><a xlink:href="namespacem__variables__conversion.html#abf91270b6a00446baabe8eb80b4b6293" target="_top" xlink:title="Internal energy of one six&#45;equation phase: volume&#45;fraction&#45;weighted stiffened&#45;gas energy plus the hea...">
<polygon fill="white" stroke="#666666" points="331,-223.5 188,-223.5 188,-193.5 331,-193.5 331,-223.5"/>
<text text-anchor="start" x="196" y="-211.5" font-family="Helvetica,sans-Serif" font-size="10.00">m_variables_conversion</text>
<text text-anchor="middle" x="259.5" y="-200.5" font-family="Helvetica,sans-Serif" font-size="10.00">::f_phase_internal_energy</text>
</a>
</g>
</g>
<!-- Node1&#45;&gt;Node2 -->
<g id="edge1_Node000001_Node000002" class="edge">
<title>Node1&#45;&gt;Node2</title>
<g id="a_edge1_Node000001_Node000002"><a xlink:title=" ">
<path fill="none" stroke="#63b8ff" d="M133.93,-175.56C152.34,-180.43 172.93,-185.87 191.97,-190.91"/>
<polygon fill="#63b8ff" stroke="#63b8ff" points="191.21,-194.32 201.77,-193.5 193,-187.56 191.21,-194.32"/>
</a>
</g>
</g>
<!-- Node3 -->
<g id="Node000003" class="node">
<title>Node3</title>
<g id="a_Node000003"><a xlink:href="namespacem__variables__conversion.html#a8647994d1a1fe32636ef4a3b843eadce" target="_top" xlink:title="Compute the pressure from the appropriate equation of state.">
<polygon fill="white" stroke="#666666" points="327,-175.5 192,-175.5 192,-145.5 327,-145.5 327,-175.5"/>
<text text-anchor="start" x="200" y="-163.5" font-family="Helvetica,sans-Serif" font-size="10.00">m_variables_conversion</text>
<text text-anchor="middle" x="259.5" y="-152.5" font-family="Helvetica,sans-Serif" font-size="10.00">::s_compute_pressure</text>
</a>
</g>
</g>
<!-- Node1&#45;&gt;Node3 -->
<g id="edge2_Node000001_Node000003" class="edge">
<title>Node1&#45;&gt;Node3</title>
<g id="a_edge2_Node000001_Node000003"><a xlink:title=" ">
<path fill="none" stroke="#63b8ff" d="M152.13,-160.5C161.9,-160.5 171.92,-160.5 181.72,-160.5"/>
<polygon fill="#63b8ff" stroke="#63b8ff" points="181.83,-164 191.83,-160.5 181.83,-157 181.83,-164"/>
</a>
</g>
</g>
<!-- Node5 -->
<g id="Node000005" class="node">
<title>Node5</title>
<g id="a_Node000005"><a xlink:href="namespacem__variables__conversion.html#ad79dc943a9108e838d80bb2b264fba8e" target="_top" xlink:title="Dispatch to the s_convert_mixture_to_mixture_variables and s_convert_species_to_mixture_variables sub...">
<polygon fill="white" stroke="#666666" points="327,-127 192,-127 192,-86 327,-86 327,-127"/>
<text text-anchor="start" x="200" y="-115" font-family="Helvetica,sans-Serif" font-size="10.00">m_variables_conversion</text>
<text text-anchor="start" x="200" y="-104" font-family="Helvetica,sans-Serif" font-size="10.00">::s_convert_to_mixture</text>
<text text-anchor="middle" x="259.5" y="-93" font-family="Helvetica,sans-Serif" font-size="10.00">_variables</text>
</a>
</g>
</g>
<!-- Node1&#45;&gt;Node5 -->
<g id="edge4_Node000001_Node000005" class="edge">
<title>Node1&#45;&gt;Node5</title>
<g id="a_edge4_Node000001_Node000005"><a xlink:title=" ">
<path fill="none" stroke="#63b8ff" d="M127.56,-145.46C144.45,-140.43 163.67,-134.71 182.09,-129.23"/>
<polygon fill="#63b8ff" stroke="#63b8ff" points="183.33,-132.52 191.92,-126.31 181.34,-125.81 183.33,-132.52"/>
</a>
</g>
</g>
<!-- Node4 -->
<g id="Node000004" class="node">
<title>Node4</title>
<g id="a_Node000004"><a xlink:href="namespacem__variables__conversion.html#ae34515ed090883f8b25cead816bdbb6c" target="_top" xlink:title="Pressure of a stiffened gas from its internal energy density &#45; the inverse of s_compute_energy....">
<polygon fill="white" stroke="#666666" points="502,-175.5 367,-175.5 367,-145.5 502,-145.5 502,-175.5"/>
<text text-anchor="start" x="375" y="-163.5" font-family="Helvetica,sans-Serif" font-size="10.00">m_variables_conversion</text>
<text text-anchor="middle" x="434.5" y="-152.5" font-family="Helvetica,sans-Serif" font-size="10.00">::f_pressure</text>
</a>
</g>
</g>
<!-- Node3&#45;&gt;Node4 -->
<g id="edge3_Node000003_Node000004" class="edge">
<title>Node3&#45;&gt;Node4</title>
<g id="a_edge3_Node000003_Node000004"><a xlink:title=" ">
<path fill="none" stroke="#63b8ff" d="M327.39,-160.5C336.98,-160.5 346.92,-160.5 356.69,-160.5"/>
<polygon fill="#63b8ff" stroke="#63b8ff" points="356.79,-164 366.79,-160.5 356.79,-157 356.79,-164"/>
</a>
</g>
</g>
<!-- Node6 -->
<g id="Node000006" class="node">
<title>Node6</title>
<g id="a_Node000006"><a xlink:href="namespacem__variables__conversion.html#a8b30b668d9de48d0bf0d53fa56116847" target="_top" xlink:title="Convert mixture variables to density, gamma, pi_inf, and qv for the gamma/pi_inf model....">
<polygon fill="white" stroke="#666666" points="502,-127 367,-127 367,-86 502,-86 502,-127"/>
<text text-anchor="start" x="375" y="-115" font-family="Helvetica,sans-Serif" font-size="10.00">m_variables_conversion</text>
<text text-anchor="start" x="375" y="-104" font-family="Helvetica,sans-Serif" font-size="10.00">::s_convert_mixture_to</text>
<text text-anchor="middle" x="434.5" y="-93" font-family="Helvetica,sans-Serif" font-size="10.00">_mixture_variables</text>
</a>
</g>
</g>
<!-- Node5&#45;&gt;Node6 -->
<g id="edge5_Node000005_Node000006" class="edge">
<title>Node5&#45;&gt;Node6</title>
<g id="a_edge5_Node000005_Node000006"><a xlink:title=" ">
<path fill="none" stroke="#63b8ff" d="M327.39,-106.5C336.98,-106.5 346.92,-106.5 356.69,-106.5"/>
<polygon fill="#63b8ff" stroke="#63b8ff" points="356.79,-110 366.79,-106.5 356.79,-103 356.79,-110"/>
</a>
</g>
</g>
<!-- Node7 -->
<g id="Node000007" class="node">
<title>Node7</title>
<g id="a_Node000007"><a xlink:href="namespacem__variables__conversion.html#a7f3bffa0ba13432f79f095a78fcf6e5a" target="_top" xlink:title="Convert species volume fractions and partial densities to mixture density, gamma, pi_inf,...">
<polygon fill="white" stroke="#666666" points="502,-68 367,-68 367,-27 502,-27 502,-68"/>
<text text-anchor="start" x="375" y="-56" font-family="Helvetica,sans-Serif" font-size="10.00">m_variables_conversion</text>
<text text-anchor="start" x="375" y="-45" font-family="Helvetica,sans-Serif" font-size="10.00">::s_convert_species_to</text>
<text text-anchor="middle" x="434.5" y="-34" font-family="Helvetica,sans-Serif" font-size="10.00">_mixture_variables</text>
</a>
</g>
</g>
<!-- Node5&#45;&gt;Node7 -->
<g id="edge6_Node000005_Node000007" class="edge">
<title>Node5&#45;&gt;Node7</title>
<g id="a_edge6_Node000005_Node000007"><a xlink:title=" ">
<path fill="none" stroke="#63b8ff" d="M321.01,-85.86C334.78,-81.17 349.53,-76.14 363.66,-71.32"/>
<polygon fill="#63b8ff" stroke="#63b8ff" points="364.98,-74.56 373.32,-68.02 362.72,-67.94 364.98,-74.56"/>
</a>
</g>
</g>
<!-- Node8 -->
<g id="Node000008" class="node">
<title>Node8</title>
<g id="a_Node000008"><a xlink:href="namespacem__variables__conversion.html#a21906a4c29bbb1187212feb969c00502" target="_top" xlink:title="Compute partial densities and volume fractions.">
<polygon fill="white" stroke="#666666" points="699,-89.5 538,-89.5 538,-59.5 699,-59.5 699,-89.5"/>
<text text-anchor="start" x="546" y="-77.5" font-family="Helvetica,sans-Serif" font-size="10.00">m_variables_conversion</text>
<text text-anchor="middle" x="618.5" y="-66.5" font-family="Helvetica,sans-Serif" font-size="10.00">::s_compute_species_fraction</text>
</a>
</g>
</g>
<!-- Node7&#45;&gt;Node8 -->
<g id="edge7_Node000007_Node000008" class="edge">
<title>Node7&#45;&gt;Node8</title>
<g id="a_edge7_Node000007_Node000008"><a xlink:title=" ">
<path fill="none" stroke="#63b8ff" d="M502.24,-57.4C510.55,-58.63 519.15,-59.91 527.74,-61.18"/>
<polygon fill="#63b8ff" stroke="#63b8ff" points="527.4,-64.67 537.8,-62.68 528.42,-57.75 527.4,-64.67"/>
</a>
</g>
</g>
<!-- Node9 -->
<g id="Node000009" class="node">
<title>Node9</title>
<g id="a_Node000009"><a xlink:href="namespacem__variables__conversion.html#ac00dd41bc1a03bc4ee830cfa4fc7f2e6" target="_top" xlink:title="Host&#45; and device&#45;callable conversion kernel for species and mixture variables.">
<polygon fill="white" stroke="#666666" points="691.5,-41 545.5,-41 545.5,0 691.5,0 691.5,-41"/>
<text text-anchor="start" x="553.5" y="-29" font-family="Helvetica,sans-Serif" font-size="10.00">m_variables_conversion</text>
<text text-anchor="start" x="553.5" y="-18" font-family="Helvetica,sans-Serif" font-size="10.00">::s_convert_species_to</text>
<text text-anchor="middle" x="618.5" y="-7" font-family="Helvetica,sans-Serif" font-size="10.00">_mixture_variables_kernel</text>
</a>
</g>
</g>
<!-- Node7&#45;&gt;Node9 -->
<g id="edge8_Node000007_Node000009" class="edge">
<title>Node7&#45;&gt;Node9</title>
<g id="a_edge8_Node000007_Node000009"><a xlink:title=" ">
<path fill="none" stroke="#63b8ff" d="M502.24,-37.6C512.96,-36.01 524.16,-34.35 535.19,-32.71"/>
<polygon fill="#63b8ff" stroke="#63b8ff" points="535.88,-36.15 545.25,-31.22 534.85,-29.22 535.88,-36.15"/>
</a>
</g>
</g>
<!-- Node10 -->
<g id="Node000010" class="node">
<title>Node10</title>
<g id="a_Node000010"><a xlink:href="namespacem__variables__conversion.html#a4f2b4d1845afc9f1fb8008832b039940" target="_top" xlink:title="Mixture coefficients of one state. Under bubbles_euler with num_fluids == 1 the sole advection slot a...">
<polygon fill="white" stroke="#666666" points="916,-35.5 735,-35.5 735,-5.5 916,-5.5 916,-35.5"/>
<text text-anchor="start" x="743" y="-23.5" font-family="Helvetica,sans-Serif" font-size="10.00">m_variables_conversion</text>
<text text-anchor="middle" x="825.5" y="-12.5" font-family="Helvetica,sans-Serif" font-size="10.00">::s_compute_mixture_coefficients</text>
</a>
</g>
</g>
<!-- Node9&#45;&gt;Node10 -->
<g id="edge9_Node000009_Node000010" class="edge">
<title>Node9&#45;&gt;Node10</title>
<g id="a_edge9_Node000009_Node000010"><a xlink:title=" ">
<path fill="none" stroke="#63b8ff" d="M691.78,-20.5C702.45,-20.5 713.61,-20.5 724.73,-20.5"/>
<polygon fill="#63b8ff" stroke="#63b8ff" points="724.91,-24 734.91,-20.5 724.91,-17 724.91,-24"/>
</a>
</g>
</g>
</g>
</svg>
