<?xml version="1.0" encoding="UTF-8" standalone="no"?>
<!DOCTYPE svg PUBLIC "-//W3C//DTD SVG 1.1//EN"
 "http://www.w3.org/Graphics/SVG/1.1/DTD/svg11.dtd">
<!-- Generated by graphviz version 2.43.0 (0)
 -->
<!-- Title: m_delay_file_access::delayfileaccess Pages: 1 -->
<svg width="712pt" height="116pt"
 viewBox="0.00 0.00 712.00 116.00" xmlns="http://www.w3.org/2000/svg" xmlns:xlink="http://www.w3.org/1999/xlink">
<g id="graph0" class="graph" transform="scale(1 1) rotate(0) translate(4 112)">
<title>m_delay_file_access::delayfileaccess</title>
<!-- Node1 -->
<g id="Node000001" class="node">
<title>Node1</title>
<g id="a_Node000001"><a xlink:title=" ">
<polygon fill="#999999" stroke="#666666" points="704,-75.5 587,-75.5 587,-45.5 704,-45.5 704,-75.5"/>
<text text-anchor="start" x="595" y="-63.5" font-family="Helvetica,sans-Serif" font-size="10.00">m_delay_file_access</text>
<text text-anchor="middle" x="645.5" y="-52.5" font-family="Helvetica,sans-Serif" font-size="10.00">::delayfileaccess</text>
</a>
</g>
</g>
<!-- Node2 -->
<g id="Node000002" class="node">
<title>Node2</title>
<g id="a_Node000002"><a xlink:href="namespacem__boundary__conditions.html#a050f9bdd5b4671d595458775c5aae767" target="_top" xlink:title=" ">
<polygon fill="white" stroke="#666666" points="551,-108 403,-108 403,-67 551,-67 551,-108"/>
<text text-anchor="start" x="411" y="-96" font-family="Helvetica,sans-Serif" font-size="10.00">m_boundary_conditions</text>
<text text-anchor="start" x="411" y="-85" font-family="Helvetica,sans-Serif" font-size="10.00">::s_read_parallel_boundary</text>
<text text-anchor="middle" x="477" y="-74" font-family="Helvetica,sans-Serif" font-size="10.00">_condition_files</text>
</a>
</g>
</g>
<!-- Node1&#45;&gt;Node2 -->
<g id="edge1_Node000001_Node000002" class="edge">
<title>Node1&#45;&gt;Node2</title>
<g id="a_edge1_Node000001_Node000002"><a xlink:title=" ">
<path fill="none" stroke="#63b8ff" d="M576.64,-71.5C568.26,-72.86 559.67,-74.26 551.21,-75.63"/>
<polygon fill="#63b8ff" stroke="#63b8ff" points="577.42,-74.92 586.73,-69.87 576.3,-68.01 577.42,-74.92"/>
</a>
</g>
</g>
<!-- Node3 -->
<g id="Node000003" class="node">
<title>Node3</title>
<g id="a_Node000003"><a xlink:href="m__data__output_8fpp_8f90.html#ac881a38b7e9de7ac58898da026197905" target="_top" xlink:title="The goal of this subroutine is to output the grid and conservative variables data files for given tim...">
<polygon fill="white" stroke="#666666" points="537.5,-48.5 416.5,-48.5 416.5,-18.5 537.5,-18.5 537.5,-48.5"/>
<text text-anchor="start" x="424.5" y="-36.5" font-family="Helvetica,sans-Serif" font-size="10.00">s_write_parallel_data</text>
<text text-anchor="middle" x="477" y="-25.5" font-family="Helvetica,sans-Serif" font-size="10.00">_files</text>
</a>
</g>
</g>
<!-- Node1&#45;&gt;Node3 -->
<g id="edge2_Node000001_Node000003" class="edge">
<title>Node1&#45;&gt;Node3</title>
<g id="a_edge2_Node000001_Node000003"><a xlink:title=" ">
<path fill="none" stroke="#63b8ff" d="M576.53,-49.48C563.64,-47.39 550.25,-45.22 537.64,-43.17"/>
<polygon fill="#63b8ff" stroke="#63b8ff" points="576.3,-52.99 586.73,-51.13 577.42,-46.08 576.3,-52.99"/>
</a>
</g>
</g>
<!-- Node4 -->
<g id="Node000004" class="node">
<title>Node4</title>
<g id="a_Node000004"><a xlink:href="m__data__output_8fpp_8f90.html#a979b8a2cf4215a8122fc461c0512dbba" target="_top" xlink:title=" ">
<polygon fill="white" stroke="#666666" points="219,-67.5 97,-67.5 97,-37.5 219,-37.5 219,-67.5"/>
<text text-anchor="start" x="105" y="-55.5" font-family="Helvetica,sans-Serif" font-size="10.00">__m_data_output_fpp</text>
<text text-anchor="middle" x="158" y="-44.5" font-family="Helvetica,sans-Serif" font-size="10.00">_f90__</text>
</a>
</g>
</g>
<!-- Node3&#45;&gt;Node4 -->
<g id="edge3_Node000003_Node000004" class="edge">
<title>Node3&#45;&gt;Node4</title>
<g id="a_edge3_Node000003_Node000004"><a xlink:title=" ">
<path fill="none" stroke="#63b8ff" d="M406.18,-37.68C350.19,-41.04 272.43,-45.7 219.17,-48.89"/>
<polygon fill="#63b8ff" stroke="#63b8ff" points="406.6,-41.17 416.37,-37.07 406.18,-34.18 406.6,-41.17"/>
</a>
</g>
</g>
<!-- Node5 -->
<g id="Node000005" class="node">
<title>Node5</title>
<g id="a_Node000005"><a xlink:href="m__data__output_8fpp_8f90.html#a4c0ea032bb4a1cdc136c9ee0f599dc4e" target="_top" xlink:title="Write data files. Dispatch subroutine that replaces procedure pointer.">
<polygon fill="white" stroke="#666666" points="367,-24 263,-24 263,-5 367,-5 367,-24"/>
<text text-anchor="middle" x="315" y="-12" font-family="Helvetica,sans-Serif" font-size="10.00">s_write_data_files</text>
</a>
</g>
</g>
<!-- Node3&#45;&gt;Node5 -->
<g id="edge4_Node000003_Node000005" class="edge">
<title>Node3&#45;&gt;Node5</title>
<g id="a_edge4_Node000003_Node000005"><a xlink:title=" ">
<path fill="none" stroke="#63b8ff" d="M406.44,-25.24C393.27,-23.68 379.71,-22.07 367.22,-20.58"/>
<polygon fill="#63b8ff" stroke="#63b8ff" points="406.08,-28.72 416.42,-26.43 406.9,-21.77 406.08,-28.72"/>
</a>
</g>
</g>
<!-- Node5&#45;&gt;Node4 -->
<g id="edge5_Node000005_Node000004" class="edge">
<title>Node5&#45;&gt;Node4</title>
<g id="a_edge5_Node000005_Node000004"><a xlink:title=" ">
<path fill="none" stroke="#63b8ff" d="M265.09,-26.49C250.54,-30.06 234.42,-34.01 219.23,-37.73"/>
<polygon fill="#63b8ff" stroke="#63b8ff" points="266.01,-29.87 274.89,-24.09 264.34,-23.07 266.01,-29.87"/>
</a>
</g>
</g>
<!-- Node6 -->
<g id="Node000006" class="node">
<title>Node6</title>
<g id="a_Node000006"><a xlink:href="namespacem__start__up.html#a0865c4378f1fdf7a9053530fb25fadaa" target="_top" xlink:title=" ">
<polygon fill="white" stroke="#666666" points="227,-19 89,-19 89,0 227,0 227,-19"/>
<text text-anchor="middle" x="158" y="-7" font-family="Helvetica,sans-Serif" font-size="10.00">m_start_up::s_save_data</text>
</a>
</g>
</g>
<!-- Node5&#45;&gt;Node6 -->
<g id="edge6_Node000005_Node000006" class="edge">
<title>Node5&#45;&gt;Node6</title>
<g id="a_edge6_Node000005_Node000006"><a xlink:title=" ">
<path fill="none" stroke="#63b8ff" d="M252.77,-12.52C244.39,-12.25 235.76,-11.98 227.27,-11.7"/>
<polygon fill="#63b8ff" stroke="#63b8ff" points="252.71,-16.02 262.82,-12.85 252.94,-9.03 252.71,-16.02"/>
</a>
</g>
</g>
<!-- Node7 -->
<g id="Node000007" class="node">
<title>Node7</title>
<g id="a_Node000007"><a xlink:href="p__main_8fpp_8f90.html#aeec10ee8e2940c953967da3e374e1579" target="_top" xlink:title="Quasi&#45;conservative, shock&#45; and interface&#45; capturing finite&#45;volume scheme for the multicomponent Navie...">
<polygon fill="white" stroke="#666666" points="53,-19 0,-19 0,0 53,0 53,-19"/>
<text text-anchor="middle" x="26.5" y="-7" font-family="Helvetica,sans-Serif" font-size="10.00">p_main</text>
</a>
</g>
</g>
<!-- Node6&#45;&gt;Node7 -->
<g id="edge7_Node000006_Node000007" class="edge">
<title>Node6&#45;&gt;Node7</title>
<g id="a_edge7_Node000006_Node000007"><a xlink:title=" ">
<path fill="none" stroke="#63b8ff" d="M78.81,-9.5C69.67,-9.5 60.91,-9.5 53.29,-9.5"/>
<polygon fill="#63b8ff" stroke="#63b8ff" points="78.84,-13 88.84,-9.5 78.84,-6 78.84,-13"/>
</a>
</g>
</g>
</g>
</svg>
