<?xml version="1.0" encoding="UTF-8" standalone="no"?>
<!DOCTYPE svg PUBLIC "-//W3C//DTD SVG 1.1//EN"
 "http://www.w3.org/Graphics/SVG/1.1/DTD/svg11.dtd">
<!-- Generated by graphviz version 2.43.0 (0)
 -->
<!-- Title: m_eigen_solver::corth Pages: 1 -->
<svg width="431pt" height="46pt"
 viewBox="0.00 0.00 431.00 46.00" xmlns="http://www.w3.org/2000/svg" xmlns:xlink="http://www.w3.org/1999/xlink">
<g id="graph0" class="graph" transform="scale(1 1) rotate(0) translate(4 42)">
<title>m_eigen_solver::corth</title>
<!-- Node1 -->
<g id="Node000001" class="node">
<title>Node1</title>
<g id="a_Node000001"><a xlink:title="This subroutine is a translation of a complex analogue of the algol procedure orthes,...">
<polygon fill="#999999" stroke="#666666" points="125,-38 0,-38 0,-19 125,-19 125,-38"/>
<text text-anchor="middle" x="62.5" y="-26" font-family="Helvetica,sans-Serif" font-size="10.00">m_eigen_solver::corth</text>
</a>
</g>
</g>
<!-- Node2 -->
<g id="Node000002" class="node">
<title>Node2</title>
<g id="a_Node000002"><a xlink:href="m__helper__basic_8fpp_8f90.html#a49aa1857cb519bdc6b35434fd1821cab" target="_top" xlink:title="This procedure checks if two floating point numbers of wp are within tolerance.">
<polygon fill="white" stroke="#666666" points="423,-38 331,-38 331,-19 423,-19 423,-38"/>
<text text-anchor="middle" x="377" y="-26" font-family="Helvetica,sans-Serif" font-size="10.00">f_approx_equal</text>
</a>
</g>
</g>
<!-- Node1&#45;&gt;Node2 -->
<g id="edge1_Node000001_Node000002" class="edge">
<title>Node1&#45;&gt;Node2</title>
<g id="a_edge1_Node000001_Node000002"><a xlink:title=" ">
<path fill="none" stroke="#63b8ff" d="M125.24,-28.5C182.06,-28.5 265.58,-28.5 320.37,-28.5"/>
<polygon fill="#63b8ff" stroke="#63b8ff" points="320.59,-32 330.59,-28.5 320.59,-25 320.59,-32"/>
</a>
</g>
</g>
<!-- Node3 -->
<g id="Node000003" class="node">
<title>Node3</title>
<g id="a_Node000003"><a xlink:href="namespacem__eigen__solver.html#aeecb6d18469aac6ba1a78db5ec25d122" target="_top" xlink:title=" ">
<polygon fill="white" stroke="#666666" points="295,-19 161,-19 161,0 295,0 295,-19"/>
<text text-anchor="middle" x="228" y="-7" font-family="Helvetica,sans-Serif" font-size="10.00">m_eigen_solver::pythag</text>
</a>
</g>
</g>
<!-- Node1&#45;&gt;Node3 -->
<g id="edge2_Node000001_Node000003" class="edge">
<title>Node1&#45;&gt;Node3</title>
<g id="a_edge2_Node000001_Node000003"><a xlink:title=" ">
<path fill="none" stroke="#63b8ff" d="M125.31,-21.32C133.63,-20.35 142.24,-19.35 150.78,-18.36"/>
<polygon fill="#63b8ff" stroke="#63b8ff" points="151.2,-21.83 160.73,-17.2 150.4,-14.88 151.2,-21.83"/>
</a>
</g>
</g>
<!-- Node3&#45;&gt;Node2 -->
<g id="edge3_Node000003_Node000002" class="edge">
<title>Node3&#45;&gt;Node2</title>
<g id="a_edge3_Node000003_Node000002"><a xlink:title=" ">
<path fill="none" stroke="#63b8ff" d="M295.19,-18.06C303.75,-19.16 312.44,-20.29 320.8,-21.37"/>
<polygon fill="#63b8ff" stroke="#63b8ff" points="320.43,-24.85 330.79,-22.66 321.33,-17.9 320.43,-24.85"/>
</a>
</g>
</g>
</g>
</svg>
