<?xml version="1.0" encoding="UTF-8" standalone="no"?>
<!DOCTYPE svg PUBLIC "-//W3C//DTD SVG 1.1//EN"
 "http://www.w3.org/Graphics/SVG/1.1/DTD/svg11.dtd">
<!-- Generated by graphviz version 2.40.1 (20161225.0304)
 -->
<!-- Title: m_rhs::s_get_tvd_flux Pages: 1 -->
<svg width="209pt" height="72pt"
 viewBox="0.00 0.00 209.00 71.50" xmlns="http://www.w3.org/2000/svg" xmlns:xlink="http://www.w3.org/1999/xlink">
<g id="graph0" class="graph" transform="scale(1 1) rotate(0) translate(4 67.5)">
<title>m_rhs::s_get_tvd_flux</title>
<polygon fill="#ffffff" stroke="transparent" points="-4,4 -4,-67.5 205,-67.5 205,4 -4,4"/>
<!-- Node228 -->
<g id="node1" class="node">
<title>Node228</title>
<polygon fill="#bfbfbf" stroke="#000000" points="0,-25 0,-42 75,-42 75,-25 0,-25"/>
<text text-anchor="middle" x="37.5" y="-31.6" font-family="Helvetica,sans-Serif" font-size="8.00" fill="#000000">m_rhs::s_get_tvd_flux</text>
</g>
<!-- Node229 -->
<g id="node2" class="node">
<title>Node229</title>
<g id="a_node2"><a xlink:href="namespacem__rhs.html#aa8bc1b17f230cbd06b702f34bd199ef1" target="_top" xlink:title="This subroutine takes the consecutive changes in volume fraction at a cell boundary and computes the ...">
<polygon fill="#ffffff" stroke="#000000" points="111,-46 111,-63 201,-63 201,-46 111,-46"/>
<text text-anchor="middle" x="156" y="-52.6" font-family="Helvetica,sans-Serif" font-size="8.00" fill="#000000">m_rhs::s_compute_flux_lim</text>
</a>
</g>
</g>
<!-- Node228&#45;&gt;Node229 -->
<g id="edge1" class="edge">
<title>Node228&#45;&gt;Node229</title>
<path fill="none" stroke="#191970" d="M75.3199,-40.2023C83.4015,-41.6344 92.0977,-43.1755 100.6834,-44.6971"/>
<polygon fill="#191970" stroke="#191970" points="100.2105,-48.1677 110.6679,-46.4665 101.4321,-41.2751 100.2105,-48.1677"/>
</g>
<!-- Node230 -->
<g id="node3" class="node">
<title>Node230</title>
<g id="a_node3"><a xlink:href="namespacem__rhs.html#ada159015fa6f204a01a0c1b254affdae" target="_top" xlink:title="The goal of the procedure is to numerically approximate the left or right cell&#45;boundary integral&#45;aver...">
<polygon fill="#ffffff" stroke="#000000" points="117.5,-.5 117.5,-26.5 194.5,-26.5 194.5,-.5 117.5,-.5"/>
<text text-anchor="start" x="125.5" y="-16.1" font-family="Helvetica,sans-Serif" font-size="8.00" fill="#000000">m_rhs::s_average_cell</text>
<text text-anchor="middle" x="156" y="-7.1" font-family="Helvetica,sans-Serif" font-size="8.00" fill="#000000">_boundary_values</text>
</a>
</g>
</g>
<!-- Node228&#45;&gt;Node230 -->
<g id="edge2" class="edge">
<title>Node228&#45;&gt;Node230</title>
<path fill="none" stroke="#191970" d="M75.3199,-27.1169C85.4832,-25.4016 96.6188,-23.5222 107.2838,-21.7221"/>
<polygon fill="#191970" stroke="#191970" points="108.0398,-25.1441 117.3178,-20.0286 106.8748,-18.2418 108.0398,-25.1441"/>
</g>
</g>
</svg>
