<?xml version="1.0" encoding="UTF-8" standalone="no"?>
<!DOCTYPE svg PUBLIC "-//W3C//DTD SVG 1.1//EN"
 "http://www.w3.org/Graphics/SVG/1.1/DTD/svg11.dtd">
<!-- Generated by graphviz version 2.43.0 (0)
 -->
<!-- Title: m_helper_basic::f_approx_equal Pages: 1 -->
<!--zoomable 917 -->

<svg id="main" version="1.1" xmlns="http://www.w3.org/2000/svg" xmlns:xlink="http://www.w3.org/1999/xlink" xml:space="preserve" onload="init(evt)">

<style type="text/css"><![CDATA[
.node, .edge {opacity: 0.7;}
.node.selected, .edge.selected {opacity: 1;}
.edge:hover path { stroke: red; }
.edge:hover polygon { stroke: red; fill: red; }
]]></style>

<defs>
  <circle id="rim" cx="0" cy="0" r="7"/>
  <circle id="rim2" cx="0" cy="0" r="3.5"/>
  <g id="zoomPlus">
    <use xlink:href="#rim" fill="#404040"><set attributeName="fill" to="#808080" begin="zoomplus.mouseover" end="zoomplus.mouseout"/></use>
    <path d="M-4,0h8M0,-4v8" fill="none" stroke="white" stroke-width="1.5" pointer-events="none"/>
  </g>
  <g id="zoomMin">
    <use xlink:href="#rim" fill="#404040"><set attributeName="fill" to="#808080" begin="zoomminus.mouseover" end="zoomminus.mouseout"/></use>
    <path d="M-4,0h8" fill="none" stroke="white" stroke-width="1.5" pointer-events="none"/>
  </g>
  <g id="arrowUp" transform="translate(30 24)">
    <use xlink:href="#rim"/>
    <path pointer-events="none" fill="none" stroke="white" stroke-width="1.5" d="M0,-3.0v7 M-2.5,-0.5L0,-3.0L2.5,-0.5"/>
  </g>
  <g id="arrowRight" transform="rotate(90) translate(36 -43)">
    <use xlink:href="#rim"/>
    <path pointer-events="none" fill="none" stroke="white" stroke-width="1.5" d="M0,-3.0v7 M-2.5,-0.5L0,-3.0L2.5,-0.5"/>
  </g>
  <g id="arrowDown" transform="rotate(180) translate(-30 -48)">
    <use xlink:href="#rim"/>
    <path pointer-events="none" fill="none" stroke="white" stroke-width="1.5" d="M0,-3.0v7 M-2.5,-0.5L0,-3.0L2.5,-0.5"/>
  </g>
  <g id="arrowLeft" transform="rotate(270) translate(-36 17)">
    <use xlink:href="#rim"/>
    <path pointer-events="none" fill="none" stroke="white" stroke-width="1.5" d="M0,-3.0v7 M-2.5,-0.5L0,-3.0L2.5,-0.5"/>
  </g>
  <g id="resetDef">
    <use xlink:href="#rim2" fill="#404040"><set attributeName="fill" to="#808080" begin="reset.mouseover" end="reset.mouseout"/></use>
  </g>
</defs>
<script type="application/ecmascript">
var viewWidth = 1047;
var viewHeight = 917;
var sectionId = 'dynsection-1';
</script>
<script type="application/ecmascript" xlink:href="svg.min.js"/>
<svg id="graph" class="graph">
<g id="viewport">
<title>m_helper_basic::f_approx_equal</title>
<!-- Node1 -->
<g id="Node000001" class="node">
<title>Node1</title>
<g id="a_Node000001"><a xlink:title="This procedure checks if two floating point numbers of wp are within tolerance.">
<polygon fill="#999999" stroke="#666666" points="1039,-361 897,-361 897,-331 1039,-331 1039,-361"/>
<text text-anchor="start" x="905" y="-349" font-family="Helvetica,sans-Serif" font-size="10.00">m_helper_basic::f_approx</text>
<text text-anchor="middle" x="968" y="-338" font-family="Helvetica,sans-Serif" font-size="10.00">_equal</text>
</a>
</g>
</g>
<!-- Node2 -->
<g id="Node000002" class="node">
<title>Node2</title>
<g id="a_Node000002"><a xlink:href="namespacem__helper__basic.html#a388ce5b49cbc696a303c4b90bc391dce" target="_top" xlink:title="This procedure checks if the point numbers of wp belongs to another array are within tolerance.">
<polygon fill="white" stroke="#666666" points="855.5,-909 713.5,-909 713.5,-879 855.5,-879 855.5,-909"/>
<text text-anchor="start" x="721.5" y="-897" font-family="Helvetica,sans-Serif" font-size="10.00">m_helper_basic::f_approx</text>
<text text-anchor="middle" x="784.5" y="-886" font-family="Helvetica,sans-Serif" font-size="10.00">_in_array</text>
</a>
</g>
</g>
<!-- Node1&#45;&gt;Node2 -->
<g id="edge1_Node000001_Node000002" class="edge">
<title>Node1&#45;&gt;Node2</title>
<g id="a_edge1_Node000001_Node000002"><a xlink:title=" ">
<path fill="none" stroke="#63b8ff" d="M965.01,-371.37C957.21,-464.83 925.9,-788.38 861,-865 856.19,-870.68 850.14,-875.25 843.56,-878.93"/>
<polygon fill="#63b8ff" stroke="#63b8ff" points="968.52,-371.4 965.84,-361.15 961.54,-370.83 968.52,-371.4"/>
</a>
</g>
</g>
<!-- Node3 -->
<g id="Node000003" class="node">
<title>Node3</title>
<g id="a_Node000003"><a xlink:href="namespacem__helper__basic.html#af1b06a05daa43f724ac3b0ff2f97db14" target="_top" xlink:title="Checks if a real(wp) variable is of default value.">
<polygon fill="white" stroke="#666666" points="842.5,-626 726.5,-626 726.5,-596 842.5,-596 842.5,-626"/>
<text text-anchor="start" x="734.5" y="-614" font-family="Helvetica,sans-Serif" font-size="10.00">m_helper_basic::f_is</text>
<text text-anchor="middle" x="784.5" y="-603" font-family="Helvetica,sans-Serif" font-size="10.00">_default</text>
</a>
</g>
</g>
<!-- Node1&#45;&gt;Node3 -->
<g id="edge2_Node000001_Node000003" class="edge">
<title>Node1&#45;&gt;Node3</title>
<g id="a_edge2_Node000001_Node000003"><a xlink:title=" ">
<path fill="none" stroke="#63b8ff" d="M951.8,-369.82C931.51,-401.45 894.27,-458.9 861,-507 838.79,-539.11 811.66,-575.92 796.72,-596"/>
<polygon fill="#63b8ff" stroke="#63b8ff" points="954.84,-371.56 957.29,-361.25 948.95,-367.78 954.84,-371.56"/>
</a>
</g>
</g>
<!-- Node7 -->
<g id="Node000007" class="node">
<title>Node7</title>
<g id="a_Node000007"><a xlink:href="namespacem__bubbles.html#ada2623f1499c4719141069dcd4f5c5d1" target="_top" xlink:title="Integrate bubble variables over the given time step size, h, using a third&#45;order accurate embedded Ru...">
<polygon fill="white" stroke="#666666" points="318,-816 190,-816 190,-786 318,-786 318,-816"/>
<text text-anchor="start" x="198" y="-804" font-family="Helvetica,sans-Serif" font-size="10.00">m_bubbles::s_advance</text>
<text text-anchor="middle" x="254" y="-793" font-family="Helvetica,sans-Serif" font-size="10.00">_substep</text>
</a>
</g>
</g>
<!-- Node1&#45;&gt;Node7 -->
<g id="edge28_Node000001_Node000007" class="edge">
<title>Node1&#45;&gt;Node7</title>
<g id="a_edge28_Node000001_Node000007"><a xlink:title=" ">
<path fill="none" stroke="#63b8ff" d="M962.4,-370.92C951.75,-423.62 921.56,-548.62 861,-635 797.98,-724.88 774.81,-755.53 672,-794 553.33,-838.41 402.04,-825.37 318.18,-812.68"/>
<polygon fill="#63b8ff" stroke="#63b8ff" points="965.84,-371.58 964.33,-361.09 958.97,-370.23 965.84,-371.58"/>
</a>
</g>
</g>
<!-- Node8 -->
<g id="Node000008" class="node">
<title>Node8</title>
<g id="a_Node000008"><a xlink:href="namespacem__bubbles.html#a4a3c0d979bd3ead42ccd87bcad359ada" target="_top" xlink:title="Adaptive time stepping routine for subgrid bubbles (See Heirer, E. Hairer S.P.Nørsett G....">
<polygon fill="white" stroke="#666666" points="154,-810.5 0,-810.5 0,-791.5 154,-791.5 154,-810.5"/>
<text text-anchor="middle" x="77" y="-798.5" font-family="Helvetica,sans-Serif" font-size="10.00">m_bubbles::s_advance_step</text>
</a>
</g>
</g>
<!-- Node1&#45;&gt;Node8 -->
<g id="edge27_Node000001_Node000008" class="edge">
<title>Node1&#45;&gt;Node8</title>
<g id="a_edge27_Node000001_Node000008"><a xlink:title=" ">
<path fill="none" stroke="#63b8ff" d="M966.39,-371.19C963.56,-436.14 947.82,-611.76 861,-720 779.04,-822.17 727.98,-851 597,-851 597,-851 597,-851 418,-851 307.92,-851 179.91,-825.03 116.99,-810.52"/>
<polygon fill="#63b8ff" stroke="#63b8ff" points="969.89,-371.19 966.76,-361.06 962.9,-370.93 969.89,-371.19"/>
</a>
</g>
</g>
<!-- Node19 -->
<g id="Node000019" class="node">
<title>Node19</title>
<g id="a_Node000019"><a xlink:href="namespacem__helper__basic.html#a2c677da1905f9b1c52e69ae431bfb70d" target="_top" xlink:title="Checks if a real(wp) variable is an integer.">
<polygon fill="white" stroke="#666666" points="842.5,-126 726.5,-126 726.5,-96 842.5,-96 842.5,-126"/>
<text text-anchor="start" x="734.5" y="-114" font-family="Helvetica,sans-Serif" font-size="10.00">m_helper_basic::f_is</text>
<text text-anchor="middle" x="784.5" y="-103" font-family="Helvetica,sans-Serif" font-size="10.00">_integer</text>
</a>
</g>
</g>
<!-- Node1&#45;&gt;Node19 -->
<g id="edge24_Node000001_Node000019" class="edge">
<title>Node1&#45;&gt;Node19</title>
<g id="a_edge24_Node000001_Node000019"><a xlink:title=" ">
<path fill="none" stroke="#63b8ff" d="M961.28,-321.13C949.89,-277.15 920.2,-185.52 861,-135 855.56,-130.36 849.21,-126.61 842.56,-123.59"/>
<polygon fill="#63b8ff" stroke="#63b8ff" points="957.92,-322.13 963.73,-330.99 964.72,-320.44 957.92,-322.13"/>
</a>
</g>
</g>
<!-- Node20 -->
<g id="Node000020" class="node">
<title>Node20</title>
<g id="a_Node000020"><a xlink:href="namespacem__compute__levelset.html#a95613d71a22ce8f5dbabd10091129177" target="_top" xlink:title="Computes the signed distance and outward normal from a ghost point to a 3D extruded airfoil surface i...">
<polygon fill="white" stroke="#666666" points="657.5,-434 534.5,-434 534.5,-404 657.5,-404 657.5,-434"/>
<text text-anchor="start" x="542.5" y="-422" font-family="Helvetica,sans-Serif" font-size="10.00">m_compute_levelset</text>
<text text-anchor="middle" x="596" y="-411" font-family="Helvetica,sans-Serif" font-size="10.00">::s_3d_airfoil_levelset</text>
</a>
</g>
</g>
<!-- Node1&#45;&gt;Node20 -->
<g id="edge25_Node000001_Node000020" class="edge">
<title>Node1&#45;&gt;Node20</title>
<g id="a_edge25_Node000001_Node000020"><a xlink:title=" ">
<path fill="none" stroke="#63b8ff" d="M898.66,-363.45C886.16,-366.44 873.21,-369.42 861,-372 791.54,-386.69 711.15,-400.55 657.5,-409.37"/>
<polygon fill="#63b8ff" stroke="#63b8ff" points="899.67,-366.8 908.56,-361.05 898.02,-360 899.67,-366.8"/>
</a>
</g>
</g>
<!-- Node21 -->
<g id="Node000021" class="node">
<title>Node21</title>
<g id="a_Node000021"><a xlink:href="namespacem__compute__levelset.html#a529fdd339b896d1bf009d98e84aeef15" target="_top" xlink:title="Computes the signed distance and outward normal from a ghost point to a 2D NACA airfoil surface.">
<polygon fill="white" stroke="#666666" points="655.5,-386 536.5,-386 536.5,-356 655.5,-356 655.5,-386"/>
<text text-anchor="start" x="544.5" y="-374" font-family="Helvetica,sans-Serif" font-size="10.00">m_compute_levelset</text>
<text text-anchor="middle" x="596" y="-363" font-family="Helvetica,sans-Serif" font-size="10.00">::s_airfoil_levelset</text>
</a>
</g>
</g>
<!-- Node1&#45;&gt;Node21 -->
<g id="edge29_Node000001_Node000021" class="edge">
<title>Node1&#45;&gt;Node21</title>
<g id="a_edge29_Node000001_Node000021"><a xlink:title=" ">
<path fill="none" stroke="#63b8ff" d="M886.93,-351.41C817.37,-356.11 718.23,-362.81 655.78,-367.03"/>
<polygon fill="#63b8ff" stroke="#63b8ff" points="887.23,-354.9 896.97,-350.73 886.76,-347.91 887.23,-354.9"/>
</a>
</g>
</g>
<!-- Node22 -->
<g id="Node000022" class="node">
<title>Node22</title>
<g id="a_Node000022"><a xlink:href="namespacem__compute__levelset.html#a61b7c8634628af91ec451ab8678abb63" target="_top" xlink:title="Computes the signed distance and outward normal from a ghost point to a circular immersed boundary.">
<polygon fill="white" stroke="#666666" points="655.5,-338 536.5,-338 536.5,-308 655.5,-308 655.5,-338"/>
<text text-anchor="start" x="544.5" y="-326" font-family="Helvetica,sans-Serif" font-size="10.00">m_compute_levelset</text>
<text text-anchor="middle" x="596" y="-315" font-family="Helvetica,sans-Serif" font-size="10.00">::s_circle_levelset</text>
</a>
</g>
</g>
<!-- Node1&#45;&gt;Node22 -->
<g id="edge31_Node000001_Node000022" class="edge">
<title>Node1&#45;&gt;Node22</title>
<g id="a_edge31_Node000001_Node000022"><a xlink:title=" ">
<path fill="none" stroke="#63b8ff" d="M886.93,-341.02C817.37,-336.7 718.23,-330.54 655.78,-326.65"/>
<polygon fill="#63b8ff" stroke="#63b8ff" points="886.77,-344.52 896.97,-341.65 887.21,-337.53 886.77,-344.52"/>
</a>
</g>
</g>
<!-- Node23 -->
<g id="Node000023" class="node">
<title>Node23</title>
<g id="a_Node000023"><a xlink:href="namespacem__compute__levelset.html#ae7506472018ff5bc034c31181733daee" target="_top" xlink:title="Computes the signed distance and outward normal from a ghost point to the nearest face of a cuboid im...">
<polygon fill="white" stroke="#666666" points="844,-318 725,-318 725,-288 844,-288 844,-318"/>
<text text-anchor="start" x="733" y="-306" font-family="Helvetica,sans-Serif" font-size="10.00">m_compute_levelset</text>
<text text-anchor="middle" x="784.5" y="-295" font-family="Helvetica,sans-Serif" font-size="10.00">::s_cuboid_levelset</text>
</a>
</g>
</g>
<!-- Node1&#45;&gt;Node23 -->
<g id="edge33_Node000001_Node000023" class="edge">
<title>Node1&#45;&gt;Node23</title>
<g id="a_edge33_Node000001_Node000023"><a xlink:title=" ">
<path fill="none" stroke="#63b8ff" d="M893.42,-328.57C877,-324.68 859.8,-320.6 844.08,-316.88"/>
<polygon fill="#63b8ff" stroke="#63b8ff" points="892.98,-332.06 903.52,-330.96 894.6,-325.25 892.98,-332.06"/>
</a>
</g>
</g>
<!-- Node24 -->
<g id="Node000024" class="node">
<title>Node24</title>
<g id="a_Node000024"><a xlink:href="namespacem__compute__levelset.html#a8d06a7ad175527cdeb9e3aed47a94d78" target="_top" xlink:title="Computes the signed distance and outward normal from a ghost point to a cylindrical immersed boundary...">
<polygon fill="white" stroke="#666666" points="844,-270 725,-270 725,-240 844,-240 844,-270"/>
<text text-anchor="start" x="733" y="-258" font-family="Helvetica,sans-Serif" font-size="10.00">m_compute_levelset</text>
<text text-anchor="middle" x="784.5" y="-247" font-family="Helvetica,sans-Serif" font-size="10.00">::s_cylinder_levelset</text>
</a>
</g>
</g>
<!-- Node1&#45;&gt;Node24 -->
<g id="edge35_Node000001_Node000024" class="edge">
<title>Node1&#45;&gt;Node24</title>
<g id="a_edge35_Node000001_Node000024"><a xlink:title=" ">
<path fill="none" stroke="#63b8ff" d="M938.06,-324.85C917.38,-310.46 888.46,-291.78 861,-279 854.02,-275.75 846.48,-272.77 838.96,-270.1"/>
<polygon fill="#63b8ff" stroke="#63b8ff" points="936.2,-327.82 946.39,-330.72 940.24,-322.1 936.2,-327.82"/>
</a>
</g>
</g>
<!-- Node25 -->
<g id="Node000025" class="node">
<title>Node25</title>
<g id="a_Node000025"><a xlink:href="namespacem__ib__patches.html#ad25c5987d99c4ac479fb7df41a75e25f" target="_top" xlink:title=" ">
<polygon fill="white" stroke="#666666" points="861,-78 708,-78 708,-48 861,-48 861,-78"/>
<text text-anchor="start" x="716" y="-66" font-family="Helvetica,sans-Serif" font-size="10.00">m_ib_patches::s_instantiate</text>
<text text-anchor="middle" x="784.5" y="-55" font-family="Helvetica,sans-Serif" font-size="10.00">_stl_models</text>
</a>
</g>
</g>
<!-- Node1&#45;&gt;Node25 -->
<g id="edge37_Node000001_Node000025" class="edge">
<title>Node1&#45;&gt;Node25</title>
<g id="a_edge37_Node000001_Node000025"><a xlink:title=" ">
<path fill="none" stroke="#63b8ff" d="M963.81,-320.71C955.97,-269.22 931.04,-151.6 861,-87 857.26,-83.55 853.02,-80.6 848.51,-78.07"/>
<polygon fill="#63b8ff" stroke="#63b8ff" points="960.39,-321.53 965.27,-330.93 967.32,-320.54 960.39,-321.53"/>
</a>
</g>
</g>
<!-- Node26 -->
<g id="Node000026" class="node">
<title>Node26</title>
<g id="a_Node000026"><a xlink:href="namespacem__compute__levelset.html#abb0e0b701082d92ef471ab50bea5e772" target="_top" xlink:title="Subroutine for computing the levelset values at a ghost point belonging to the rectangle IB.">
<polygon fill="white" stroke="#666666" points="846,-222 723,-222 723,-192 846,-192 846,-222"/>
<text text-anchor="start" x="731" y="-210" font-family="Helvetica,sans-Serif" font-size="10.00">m_compute_levelset</text>
<text text-anchor="middle" x="784.5" y="-199" font-family="Helvetica,sans-Serif" font-size="10.00">::s_rectangle_levelset</text>
</a>
</g>
</g>
<!-- Node1&#45;&gt;Node26 -->
<g id="edge38_Node000001_Node000026" class="edge">
<title>Node1&#45;&gt;Node26</title>
<g id="a_edge38_Node000001_Node000026"><a xlink:title=" ">
<path fill="none" stroke="#63b8ff" d="M951.14,-322.51C932.46,-296.56 899.11,-255.26 861,-231 855.66,-227.6 849.81,-224.65 843.79,-222.09"/>
<polygon fill="#63b8ff" stroke="#63b8ff" points="948.49,-324.83 957.11,-330.99 954.21,-320.8 948.49,-324.83"/>
</a>
</g>
</g>
<!-- Node27 -->
<g id="Node000027" class="node">
<title>Node27</title>
<g id="a_Node000027"><a xlink:href="namespacem__compute__levelset.html#a54445fc4a04b39ca1342ce7a14025db4" target="_top" xlink:title="Computes the signed distance and outward normal from a ghost point to a spherical immersed boundary.">
<polygon fill="white" stroke="#666666" points="844,-174 725,-174 725,-144 844,-144 844,-174"/>
<text text-anchor="start" x="733" y="-162" font-family="Helvetica,sans-Serif" font-size="10.00">m_compute_levelset</text>
<text text-anchor="middle" x="784.5" y="-151" font-family="Helvetica,sans-Serif" font-size="10.00">::s_sphere_levelset</text>
</a>
</g>
</g>
<!-- Node1&#45;&gt;Node27 -->
<g id="edge40_Node000001_Node000027" class="edge">
<title>Node1&#45;&gt;Node27</title>
<g id="a_edge40_Node000001_Node000027"><a xlink:title=" ">
<path fill="none" stroke="#63b8ff" d="M957.35,-321.29C942.18,-285.6 909.39,-219.86 861,-183 855.86,-179.08 850.06,-175.79 844.02,-173.04"/>
<polygon fill="#63b8ff" stroke="#63b8ff" points="954.28,-323.02 961.33,-330.93 960.75,-320.35 954.28,-323.02"/>
</a>
</g>
</g>
<!-- Node28 -->
<g id="Node000028" class="node">
<title>Node28</title>
<g id="a_Node000028"><a xlink:href="namespacem__phase__change.html#a1c6df16af0868f7d4004d427cc7cead9" target="_top" xlink:title="This auxiliary subroutine finds the Saturation temperature for a given saturation pressure through a ...">
<polygon fill="white" stroke="#666666" points="853,-497.5 716,-497.5 716,-478.5 853,-478.5 853,-497.5"/>
<text text-anchor="middle" x="784.5" y="-485.5" font-family="Helvetica,sans-Serif" font-size="10.00">m_phase_change::s_tsat</text>
</a>
</g>
</g>
<!-- Node1&#45;&gt;Node28 -->
<g id="edge42_Node000001_Node000028" class="edge">
<title>Node1&#45;&gt;Node28</title>
<g id="a_edge42_Node000001_Node000028"><a xlink:title=" ">
<path fill="none" stroke="#63b8ff" d="M942.63,-367.91C921.51,-386.6 889.89,-413.87 861,-436 840.53,-451.68 815.73,-468.34 800.28,-478.46"/>
<polygon fill="#63b8ff" stroke="#63b8ff" points="945.03,-370.46 950.18,-361.2 940.38,-365.23 945.03,-370.46"/>
</a>
</g>
</g>
<!-- Node31 -->
<g id="Node000031" class="node">
<title>Node31</title>
<g id="a_Node000031"><a xlink:href="namespacem__data__output.html#ac4254f90208d2808b6b214e857e79d9a" target="_top" xlink:title="The goal of the procedure is to output to the run&#45;time information file the stability criteria extrem...">
<polygon fill="white" stroke="#666666" points="850,-30 719,-30 719,0 850,0 850,-30"/>
<text text-anchor="start" x="727" y="-18" font-family="Helvetica,sans-Serif" font-size="10.00">m_data_output::s_write</text>
<text text-anchor="middle" x="784.5" y="-7" font-family="Helvetica,sans-Serif" font-size="10.00">_run_time_information</text>
</a>
</g>
</g>
<!-- Node1&#45;&gt;Node31 -->
<g id="edge46_Node000001_Node000031" class="edge">
<title>Node1&#45;&gt;Node31</title>
<g id="a_edge46_Node000001_Node000031"><a xlink:title=" ">
<path fill="none" stroke="#63b8ff" d="M965.66,-320.57C961.21,-262.33 942.14,-118.16 861,-39 857.46,-35.54 853.42,-32.58 849.09,-30.05"/>
<polygon fill="#63b8ff" stroke="#63b8ff" points="962.18,-320.99 966.35,-330.73 969.16,-320.51 962.18,-320.99"/>
</a>
</g>
</g>
<!-- Node4 -->
<g id="Node000004" class="node">
<title>Node4</title>
<g id="a_Node000004"><a xlink:href="namespacem__helper__basic.html#a2a51671bfbfddf6ecabbc9593be49e1d" target="_top" xlink:title="Checks if ALL elements of a real(wp) array are of default value.">
<polygon fill="white" stroke="#666666" points="656,-785 536,-785 536,-755 656,-755 656,-785"/>
<text text-anchor="start" x="544" y="-773" font-family="Helvetica,sans-Serif" font-size="10.00">m_helper_basic::f_all</text>
<text text-anchor="middle" x="596" y="-762" font-family="Helvetica,sans-Serif" font-size="10.00">_default</text>
</a>
</g>
</g>
<!-- Node3&#45;&gt;Node4 -->
<g id="edge3_Node000003_Node000004" class="edge">
<title>Node3&#45;&gt;Node4</title>
<g id="a_edge3_Node000003_Node000004"><a xlink:title=" ">
<path fill="none" stroke="#63b8ff" d="M769.7,-635.03C751.2,-665.18 715.57,-716.5 672,-746 666.91,-749.45 661.28,-752.43 655.48,-754.99"/>
<polygon fill="#63b8ff" stroke="#63b8ff" points="772.74,-636.77 774.88,-626.4 766.74,-633.17 772.74,-636.77"/>
</a>
</g>
</g>
<!-- Node5 -->
<g id="Node000005" class="node">
<title>Node5</title>
<g id="a_Node000005"><a xlink:href="namespacem__bubbles.html#a81ceea09547775d9e7e50dbd6bf7386f" target="_top" xlink:title="Function that computes the bubble wall pressure for Keller–Miksis bubbles.">
<polygon fill="white" stroke="#666666" points="661.5,-663.5 530.5,-663.5 530.5,-644.5 661.5,-644.5 661.5,-663.5"/>
<text text-anchor="middle" x="596" y="-651.5" font-family="Helvetica,sans-Serif" font-size="10.00">m_bubbles::f_cpbw_km</text>
</a>
</g>
</g>
<!-- Node3&#45;&gt;Node5 -->
<g id="edge4_Node000003_Node000005" class="edge">
<title>Node3&#45;&gt;Node5</title>
<g id="a_edge4_Node000003_Node000005"><a xlink:title=" ">
<path fill="none" stroke="#63b8ff" d="M716.45,-626.46C690.38,-632.47 661.34,-639.17 638.42,-644.45"/>
<polygon fill="#63b8ff" stroke="#63b8ff" points="717.32,-629.85 726.28,-624.19 715.75,-623.03 717.32,-629.85"/>
</a>
</g>
</g>
<!-- Node12 -->
<g id="Node000012" class="node">
<title>Node12</title>
<g id="a_Node000012"><a xlink:href="namespacem__bubbles.html#a83c550e90a8910cec7e95683ebd1ef35" target="_top" xlink:title="Function that computes the bubble radial acceleration for Keller–Miksis bubbles.">
<polygon fill="white" stroke="#666666" points="661.5,-718.5 530.5,-718.5 530.5,-699.5 661.5,-699.5 661.5,-718.5"/>
<text text-anchor="middle" x="596" y="-706.5" font-family="Helvetica,sans-Serif" font-size="10.00">m_bubbles::f_rddot_km</text>
</a>
</g>
</g>
<!-- Node3&#45;&gt;Node12 -->
<g id="edge14_Node000003_Node000012" class="edge">
<title>Node3&#45;&gt;Node12</title>
<g id="a_edge14_Node000003_Node000012"><a xlink:title=" ">
<path fill="none" stroke="#63b8ff" d="M759.02,-632.88C737.52,-650.98 704.66,-676.06 672,-691 664.57,-694.4 656.43,-697.2 648.32,-699.49"/>
<polygon fill="#63b8ff" stroke="#63b8ff" points="761.36,-635.48 766.67,-626.32 756.8,-630.16 761.36,-635.48"/>
</a>
</g>
</g>
<!-- Node13 -->
<g id="Node000013" class="node">
<title>Node13</title>
<g id="a_Node000013"><a xlink:href="namespacem__acoustic__src.html#ab35bc877e24a62748ab7df0548ebd08d" target="_top" xlink:title="This subroutine initializes the acoustic source module.">
<polygon fill="white" stroke="#666666" points="671,-626 521,-626 521,-596 671,-596 671,-626"/>
<text text-anchor="start" x="529" y="-614" font-family="Helvetica,sans-Serif" font-size="10.00">m_acoustic_src::s_initialize</text>
<text text-anchor="middle" x="596" y="-603" font-family="Helvetica,sans-Serif" font-size="10.00">_acoustic_src</text>
</a>
</g>
</g>
<!-- Node3&#45;&gt;Node13 -->
<g id="edge17_Node000003_Node000013" class="edge">
<title>Node3&#45;&gt;Node13</title>
<g id="a_edge17_Node000003_Node000013"><a xlink:title=" ">
<path fill="none" stroke="#63b8ff" d="M715.91,-611C701.43,-611 686.05,-611 671.32,-611"/>
<polygon fill="#63b8ff" stroke="#63b8ff" points="716.28,-614.5 726.28,-611 716.28,-607.5 716.28,-614.5"/>
</a>
</g>
</g>
<!-- Node16 -->
<g id="Node000016" class="node">
<title>Node16</title>
<g id="a_Node000016"><a xlink:href="namespacem__qbmm.html#aeefcb72401bfdb35dcdd81104e647a15" target="_top" xlink:title="Allocates and initializes moment coefficient arrays for the QBMM module.">
<polygon fill="white" stroke="#666666" points="657,-578 535,-578 535,-548 657,-548 657,-578"/>
<text text-anchor="start" x="543" y="-566" font-family="Helvetica,sans-Serif" font-size="10.00">m_qbmm::s_initialize</text>
<text text-anchor="middle" x="596" y="-555" font-family="Helvetica,sans-Serif" font-size="10.00">_qbmm_module</text>
</a>
</g>
</g>
<!-- Node3&#45;&gt;Node16 -->
<g id="edge20_Node000003_Node000016" class="edge">
<title>Node3&#45;&gt;Node16</title>
<g id="a_edge20_Node000003_Node000016"><a xlink:title=" ">
<path fill="none" stroke="#63b8ff" d="M716.34,-593.71C696.4,-588.58 674.74,-583.01 655.4,-578.03"/>
<polygon fill="#63b8ff" stroke="#63b8ff" points="715.72,-597.17 726.28,-596.27 717.46,-590.39 715.72,-597.17"/>
</a>
</g>
</g>
<!-- Node17 -->
<g id="Node000017" class="node">
<title>Node17</title>
<g id="a_Node000017"><a xlink:href="namespacem__compute__levelset.html#adadad13569efd08e6caa0cb5b7157942" target="_top" xlink:title="The STL patch is a 2/3D geometry that is imported from an STL file.">
<polygon fill="white" stroke="#666666" points="655.5,-482 536.5,-482 536.5,-452 655.5,-452 655.5,-482"/>
<text text-anchor="start" x="544.5" y="-470" font-family="Helvetica,sans-Serif" font-size="10.00">m_compute_levelset</text>
<text text-anchor="middle" x="596" y="-459" font-family="Helvetica,sans-Serif" font-size="10.00">::s_model_levelset</text>
</a>
</g>
</g>
<!-- Node3&#45;&gt;Node17 -->
<g id="edge22_Node000003_Node000017" class="edge">
<title>Node3&#45;&gt;Node17</title>
<g id="a_edge22_Node000003_Node000017"><a xlink:title=" ">
<path fill="none" stroke="#63b8ff" d="M767.33,-587.29C747.75,-560.3 712.33,-516.62 672,-491 666.69,-487.63 660.87,-484.69 654.89,-482.15"/>
<polygon fill="#63b8ff" stroke="#63b8ff" points="764.7,-589.64 773.35,-595.76 770.41,-585.58 764.7,-589.64"/>
</a>
</g>
</g>
<!-- Node5&#45;&gt;Node5 -->
<g id="edge5_Node000005_Node000005" class="edge">
<title>Node5&#45;&gt;Node5</title>
<g id="a_edge5_Node000005_Node000005"><a xlink:title=" ">
<path fill="none" stroke="#63b8ff" d="M628.93,-671.95C628,-677.32 617.02,-681.5 596,-681.5 564.72,-681.5 555.68,-672.23 568.87,-663.58"/>
<polygon fill="#63b8ff" stroke="#63b8ff" points="631.7,-669.8 623.13,-663.58 625.95,-673.79 631.7,-669.8"/>
</a>
</g>
</g>
<!-- Node6 -->
<g id="Node000006" class="node">
<title>Node6</title>
<g id="a_Node000006"><a xlink:href="namespacem__bubbles.html#a5df386bacf57fa1f7799b9aad47a4f94" target="_top" xlink:title="Function that computes the bubble radial acceleration based on bubble models.">
<polygon fill="white" stroke="#666666" points="474,-742.5 364,-742.5 364,-723.5 474,-723.5 474,-742.5"/>
<text text-anchor="middle" x="419" y="-730.5" font-family="Helvetica,sans-Serif" font-size="10.00">m_bubbles::f_rddot</text>
</a>
</g>
</g>
<!-- Node5&#45;&gt;Node6 -->
<g id="edge6_Node000005_Node000006" class="edge">
<title>Node5&#45;&gt;Node6</title>
<g id="a_edge6_Node000005_Node000006"><a xlink:title=" ">
<path fill="none" stroke="#63b8ff" d="M564.56,-667.74C529.25,-683.68 471.97,-709.54 441.18,-723.44"/>
<polygon fill="#63b8ff" stroke="#63b8ff" points="566.22,-670.83 573.89,-663.53 563.34,-664.45 566.22,-670.83"/>
</a>
</g>
</g>
<!-- Node10 -->
<g id="Node000010" class="node">
<title>Node10</title>
<g id="a_Node000010"><a xlink:href="namespacem__riemann__solvers.html#a6c9d70572e9b98586bab20b028557a5a" target="_top" xlink:title="This procedure is the implementation of the Harten, Lax, van Leer, and contact (HLLC) approximate Rie...">
<polygon fill="white" stroke="#666666" points="481.5,-669 356.5,-669 356.5,-639 481.5,-639 481.5,-669"/>
<text text-anchor="start" x="364.5" y="-657" font-family="Helvetica,sans-Serif" font-size="10.00">m_riemann_solvers::</text>
<text text-anchor="middle" x="419" y="-646" font-family="Helvetica,sans-Serif" font-size="10.00">s_hllc_riemann_solver</text>
</a>
</g>
</g>
<!-- Node5&#45;&gt;Node10 -->
<g id="edge12_Node000005_Node000010" class="edge">
<title>Node5&#45;&gt;Node10</title>
<g id="a_edge12_Node000005_Node000010"><a xlink:title=" ">
<path fill="none" stroke="#63b8ff" d="M520.17,-654C507.37,-654 494.2,-654 481.78,-654"/>
<polygon fill="#63b8ff" stroke="#63b8ff" points="520.33,-657.5 530.33,-654 520.33,-650.5 520.33,-657.5"/>
</a>
</g>
</g>
<!-- Node6&#45;&gt;Node6 -->
<g id="edge7_Node000006_Node000006" class="edge">
<title>Node6&#45;&gt;Node6</title>
<g id="a_edge7_Node000006_Node000006"><a xlink:title=" ">
<path fill="none" stroke="#63b8ff" d="M449.61,-751.32C448.33,-756.51 438.13,-760.5 419,-760.5 389.85,-760.5 381.43,-751.23 393.72,-742.58"/>
<polygon fill="#63b8ff" stroke="#63b8ff" points="452.48,-749.29 444.28,-742.58 446.5,-752.94 452.48,-749.29"/>
</a>
</g>
</g>
<!-- Node6&#45;&gt;Node7 -->
<g id="edge8_Node000006_Node000007" class="edge">
<title>Node6&#45;&gt;Node7</title>
<g id="a_edge8_Node000006_Node000007"><a xlink:title=" ">
<path fill="none" stroke="#63b8ff" d="M385.51,-746.55C358.24,-757.93 319.33,-774.16 291.09,-785.94"/>
<polygon fill="#63b8ff" stroke="#63b8ff" points="387.11,-749.68 394.99,-742.6 384.42,-743.22 387.11,-749.68"/>
</a>
</g>
</g>
<!-- Node9 -->
<g id="Node000009" class="node">
<title>Node9</title>
<g id="a_Node000009"><a xlink:href="namespacem__bubbles.html#a4b48725a84a60c73af7e378ffc3d3438" target="_top" xlink:title="Choose the initial time step size for the adaptive time stepping routine (See Heirer,...">
<polygon fill="white" stroke="#666666" points="311,-755 197,-755 197,-725 311,-725 311,-755"/>
<text text-anchor="start" x="205" y="-743" font-family="Helvetica,sans-Serif" font-size="10.00">m_bubbles::s_initial</text>
<text text-anchor="middle" x="254" y="-732" font-family="Helvetica,sans-Serif" font-size="10.00">_substep_h</text>
</a>
</g>
</g>
<!-- Node6&#45;&gt;Node9 -->
<g id="edge10_Node000006_Node000009" class="edge">
<title>Node6&#45;&gt;Node9</title>
<g id="a_edge10_Node000006_Node000009"><a xlink:title=" ">
<path fill="none" stroke="#63b8ff" d="M353.67,-735.76C339.66,-736.36 324.94,-737 311.27,-737.58"/>
<polygon fill="#63b8ff" stroke="#63b8ff" points="353.88,-739.26 363.72,-735.33 353.58,-732.26 353.88,-739.26"/>
</a>
</g>
</g>
<!-- Node7&#45;&gt;Node8 -->
<g id="edge9_Node000007_Node000008" class="edge">
<title>Node7&#45;&gt;Node8</title>
<g id="a_edge9_Node000007_Node000008"><a xlink:title=" ">
<path fill="none" stroke="#63b8ff" d="M179.67,-801C171.26,-801 162.67,-801 154.22,-801"/>
<polygon fill="#63b8ff" stroke="#63b8ff" points="179.82,-804.5 189.82,-801 179.82,-797.5 179.82,-804.5"/>
</a>
</g>
</g>
<!-- Node9&#45;&gt;Node8 -->
<g id="edge11_Node000009_Node000008" class="edge">
<title>Node9&#45;&gt;Node8</title>
<g id="a_edge11_Node000009_Node000008"><a xlink:title=" ">
<path fill="none" stroke="#63b8ff" d="M199.9,-758.51C168.76,-769.36 130.72,-782.62 105.5,-791.42"/>
<polygon fill="#63b8ff" stroke="#63b8ff" points="201.45,-761.68 209.74,-755.08 199.15,-755.07 201.45,-761.68"/>
</a>
</g>
</g>
<!-- Node11 -->
<g id="Node000011" class="node">
<title>Node11</title>
<g id="a_Node000011"><a xlink:href="namespacem__riemann__solvers.html#aff6e3d5abdabe6ce6fccbb7a081766e6" target="_top" xlink:title="Dispatch to the subroutines that are utilized to compute the Riemann problem solution....">
<polygon fill="white" stroke="#666666" points="313.5,-669 194.5,-669 194.5,-639 313.5,-639 313.5,-669"/>
<text text-anchor="start" x="202.5" y="-657" font-family="Helvetica,sans-Serif" font-size="10.00">m_riemann_solvers::</text>
<text text-anchor="middle" x="254" y="-646" font-family="Helvetica,sans-Serif" font-size="10.00">s_riemann_solver</text>
</a>
</g>
</g>
<!-- Node10&#45;&gt;Node11 -->
<g id="edge13_Node000010_Node000011" class="edge">
<title>Node10&#45;&gt;Node11</title>
<g id="a_edge13_Node000010_Node000011"><a xlink:title=" ">
<path fill="none" stroke="#63b8ff" d="M346.1,-654C335.29,-654 324.24,-654 313.75,-654"/>
<polygon fill="#63b8ff" stroke="#63b8ff" points="346.38,-657.5 356.38,-654 346.38,-650.5 346.38,-657.5"/>
</a>
</g>
</g>
<!-- Node12&#45;&gt;Node6 -->
<g id="edge15_Node000012_Node000006" class="edge">
<title>Node12&#45;&gt;Node6</title>
<g id="a_edge15_Node000012_Node000006"><a xlink:title=" ">
<path fill="none" stroke="#63b8ff" d="M520.24,-719.25C504.73,-721.38 488.67,-723.58 474.08,-725.58"/>
<polygon fill="#63b8ff" stroke="#63b8ff" points="520.9,-722.69 530.33,-717.87 519.95,-715.76 520.9,-722.69"/>
</a>
</g>
</g>
<!-- Node12&#45;&gt;Node12 -->
<g id="edge16_Node000012_Node000012" class="edge">
<title>Node12&#45;&gt;Node12</title>
<g id="a_edge16_Node000012_Node000012"><a xlink:title=" ">
<path fill="none" stroke="#63b8ff" d="M628.93,-726.95C628,-732.32 617.02,-736.5 596,-736.5 564.72,-736.5 555.68,-727.23 568.87,-718.58"/>
<polygon fill="#63b8ff" stroke="#63b8ff" points="631.7,-724.8 623.13,-718.58 625.95,-728.79 631.7,-724.8"/>
</a>
</g>
</g>
<!-- Node14 -->
<g id="Node000014" class="node">
<title>Node14</title>
<g id="a_Node000014"><a xlink:href="namespacem__start__up.html#a1fb7a3f9d412acd2a9cbcfe8b45006dd" target="_top" xlink:title="Initializes all simulation sub&#45;modules in the required dependency order.">
<polygon fill="white" stroke="#666666" points="484,-578 354,-578 354,-548 484,-548 484,-578"/>
<text text-anchor="start" x="362" y="-566" font-family="Helvetica,sans-Serif" font-size="10.00">m_start_up::s_initialize</text>
<text text-anchor="middle" x="419" y="-555" font-family="Helvetica,sans-Serif" font-size="10.00">_modules</text>
</a>
</g>
</g>
<!-- Node13&#45;&gt;Node14 -->
<g id="edge18_Node000013_Node000014" class="edge">
<title>Node13&#45;&gt;Node14</title>
<g id="a_edge18_Node000013_Node000014"><a xlink:title=" ">
<path fill="none" stroke="#63b8ff" d="M530.4,-593.28C512.1,-588.26 492.35,-582.85 474.7,-578"/>
<polygon fill="#63b8ff" stroke="#63b8ff" points="529.54,-596.67 540.11,-595.94 531.39,-589.92 529.54,-596.67"/>
</a>
</g>
</g>
<!-- Node15 -->
<g id="Node000015" class="node">
<title>Node15</title>
<g id="a_Node000015"><a xlink:href="p__main_8fpp_8f90.html#aeec10ee8e2940c953967da3e374e1579" target="_top" xlink:title="Quasi&#45;conservative, shock&#45; and interface&#45; capturing finite&#45;volume scheme for the multicomponent Navie...">
<polygon fill="white" stroke="#666666" points="280.5,-548.5 227.5,-548.5 227.5,-529.5 280.5,-529.5 280.5,-548.5"/>
<text text-anchor="middle" x="254" y="-536.5" font-family="Helvetica,sans-Serif" font-size="10.00">p_main</text>
</a>
</g>
</g>
<!-- Node14&#45;&gt;Node15 -->
<g id="edge19_Node000014_Node000015" class="edge">
<title>Node14&#45;&gt;Node15</title>
<g id="a_edge19_Node000014_Node000015"><a xlink:title=" ">
<path fill="none" stroke="#63b8ff" d="M343.64,-552.05C321.1,-548.73 297.83,-545.31 280.79,-542.8"/>
<polygon fill="#63b8ff" stroke="#63b8ff" points="343.17,-555.52 353.58,-553.51 344.19,-548.6 343.17,-555.52"/>
</a>
</g>
</g>
<!-- Node16&#45;&gt;Node14 -->
<g id="edge21_Node000016_Node000014" class="edge">
<title>Node16&#45;&gt;Node14</title>
<g id="a_edge21_Node000016_Node000014"><a xlink:title=" ">
<path fill="none" stroke="#63b8ff" d="M524.68,-563C511.31,-563 497.39,-563 484.22,-563"/>
<polygon fill="#63b8ff" stroke="#63b8ff" points="524.77,-566.5 534.77,-563 524.77,-559.5 524.77,-566.5"/>
</a>
</g>
</g>
<!-- Node18 -->
<g id="Node000018" class="node">
<title>Node18</title>
<g id="a_Node000018"><a xlink:href="namespacem__compute__levelset.html#a0e6b4900aa4a5fb7b36c59907f76bf54" target="_top" xlink:title="Dispatches level&#45;set distance and normal computations for all ghost points based on their patch geome...">
<polygon fill="white" stroke="#666666" points="478.5,-317 359.5,-317 359.5,-287 478.5,-287 478.5,-317"/>
<text text-anchor="start" x="367.5" y="-305" font-family="Helvetica,sans-Serif" font-size="10.00">m_compute_levelset</text>
<text text-anchor="middle" x="419" y="-294" font-family="Helvetica,sans-Serif" font-size="10.00">::s_apply_levelset</text>
</a>
</g>
</g>
<!-- Node17&#45;&gt;Node18 -->
<g id="edge23_Node000017_Node000018" class="edge">
<title>Node17&#45;&gt;Node18</title>
<g id="a_edge23_Node000017_Node000018"><a xlink:title=" ">
<path fill="none" stroke="#63b8ff" d="M527.32,-447.76C524.78,-446.29 522.33,-444.7 520,-443 473.26,-408.79 440.16,-346.02 426.7,-317.2"/>
<polygon fill="#63b8ff" stroke="#63b8ff" points="525.76,-450.9 536.26,-452.37 528.97,-444.68 525.76,-450.9"/>
</a>
</g>
</g>
<!-- Node20&#45;&gt;Node18 -->
<g id="edge26_Node000020_Node000018" class="edge">
<title>Node20&#45;&gt;Node18</title>
<g id="a_edge26_Node000020_Node000018"><a xlink:title=" ">
<path fill="none" stroke="#63b8ff" d="M529.31,-399.91C526.1,-398.38 522.98,-396.74 520,-395 483.78,-373.81 449.84,-337.46 432.34,-317.05"/>
<polygon fill="#63b8ff" stroke="#63b8ff" points="527.97,-403.14 538.53,-403.94 530.77,-396.72 527.97,-403.14"/>
</a>
</g>
</g>
<!-- Node21&#45;&gt;Node18 -->
<g id="edge30_Node000021_Node000018" class="edge">
<title>Node21&#45;&gt;Node18</title>
<g id="a_edge30_Node000021_Node000018"><a xlink:title=" ">
<path fill="none" stroke="#63b8ff" d="M535.57,-352.67C530.28,-350.83 525.03,-348.93 520,-347 496.54,-338 470.68,-326.32 451.14,-317.11"/>
<polygon fill="#63b8ff" stroke="#63b8ff" points="534.51,-356 545.1,-355.9 536.76,-349.38 534.51,-356"/>
</a>
</g>
</g>
<!-- Node22&#45;&gt;Node18 -->
<g id="edge32_Node000022_Node000018" class="edge">
<title>Node22&#45;&gt;Node18</title>
<g id="a_edge32_Node000022_Node000018"><a xlink:title=" ">
<path fill="none" stroke="#63b8ff" d="M526.07,-314.73C510.36,-312.84 493.83,-310.86 478.6,-309.03"/>
<polygon fill="#63b8ff" stroke="#63b8ff" points="525.89,-318.23 536.24,-315.95 526.73,-311.28 525.89,-318.23"/>
</a>
</g>
</g>
<!-- Node23&#45;&gt;Node18 -->
<g id="edge34_Node000023_Node000018" class="edge">
<title>Node23&#45;&gt;Node18</title>
<g id="a_edge34_Node000023_Node000018"><a xlink:title=" ">
<path fill="none" stroke="#63b8ff" d="M714.64,-300.14C700.54,-299.67 685.79,-299.25 672,-299 604.46,-297.79 587.55,-297.99 520,-299 506.63,-299.2 492.25,-299.55 478.69,-299.95"/>
<polygon fill="#63b8ff" stroke="#63b8ff" points="714.66,-303.65 724.78,-300.5 714.9,-296.65 714.66,-303.65"/>
</a>
</g>
</g>
<!-- Node24&#45;&gt;Node18 -->
<g id="edge36_Node000024_Node000018" class="edge">
<title>Node24&#45;&gt;Node18</title>
<g id="a_edge36_Node000024_Node000018"><a xlink:title=" ">
<path fill="none" stroke="#63b8ff" d="M714.48,-263.92C646.28,-272.74 543.1,-286.08 478.72,-294.41"/>
<polygon fill="#63b8ff" stroke="#63b8ff" points="715.22,-267.36 724.69,-262.6 714.33,-260.41 715.22,-267.36"/>
</a>
</g>
</g>
<!-- Node26&#45;&gt;Node18 -->
<g id="edge39_Node000026_Node000018" class="edge">
<title>Node26&#45;&gt;Node18</title>
<g id="a_edge39_Node000026_Node000018"><a xlink:title=" ">
<path fill="none" stroke="#63b8ff" d="M712.73,-220.34C659.33,-231.01 584.49,-247.25 520,-266 499.45,-271.98 476.99,-279.93 458.57,-286.84"/>
<polygon fill="#63b8ff" stroke="#63b8ff" points="713.65,-223.73 722.78,-218.35 712.29,-216.86 713.65,-223.73"/>
</a>
</g>
</g>
<!-- Node27&#45;&gt;Node18 -->
<g id="edge41_Node000027_Node000018" class="edge">
<title>Node27&#45;&gt;Node18</title>
<g id="a_edge41_Node000027_Node000018"><a xlink:title=" ">
<path fill="none" stroke="#63b8ff" d="M714.91,-168.26C660.12,-177.5 582.44,-194.78 520,-225 486.67,-241.13 453.76,-269.52 435.25,-286.96"/>
<polygon fill="#63b8ff" stroke="#63b8ff" points="715.57,-171.7 724.87,-166.63 714.43,-164.79 715.57,-171.7"/>
</a>
</g>
</g>
<!-- Node29 -->
<g id="Node000029" class="node">
<title>Node29</title>
<g id="a_Node000029"><a xlink:href="namespacem__phase__change.html#a19a8a866830bfc285d631672287a851f" target="_top" xlink:title="This subroutine is created to activate either the pT&#45; (N fluids) or the pTg&#45;equilibrium (2 fluids for...">
<polygon fill="white" stroke="#666666" points="672,-530 520,-530 520,-500 672,-500 672,-530"/>
<text text-anchor="start" x="528" y="-518" font-family="Helvetica,sans-Serif" font-size="10.00">m_phase_change::s_infinite</text>
<text text-anchor="middle" x="596" y="-507" font-family="Helvetica,sans-Serif" font-size="10.00">_relaxation_k</text>
</a>
</g>
</g>
<!-- Node28&#45;&gt;Node29 -->
<g id="edge43_Node000028_Node000029" class="edge">
<title>Node28&#45;&gt;Node29</title>
<g id="a_edge43_Node000028_Node000029"><a xlink:title=" ">
<path fill="none" stroke="#63b8ff" d="M707.56,-498.99C695.83,-500.69 683.73,-502.44 672.03,-504.14"/>
<polygon fill="#63b8ff" stroke="#63b8ff" points="708.35,-502.42 717.75,-497.52 707.35,-495.49 708.35,-502.42"/>
</a>
</g>
</g>
<!-- Node30 -->
<g id="Node000030" class="node">
<title>Node30</title>
<g id="a_Node000030"><a xlink:href="namespacem__start__up.html#ae28835629de9baa7fd546672a0add0e5" target="_top" xlink:title="Advances the simulation by one time step, handling CFL&#45;based dt and time&#45;stepper dispatch.">
<polygon fill="white" stroke="#666666" points="482.5,-530 355.5,-530 355.5,-500 482.5,-500 482.5,-530"/>
<text text-anchor="start" x="363.5" y="-518" font-family="Helvetica,sans-Serif" font-size="10.00">m_start_up::s_perform</text>
<text text-anchor="middle" x="419" y="-507" font-family="Helvetica,sans-Serif" font-size="10.00">_time_step</text>
</a>
</g>
</g>
<!-- Node29&#45;&gt;Node30 -->
<g id="edge44_Node000029_Node000030" class="edge">
<title>Node29&#45;&gt;Node30</title>
<g id="a_edge44_Node000029_Node000030"><a xlink:title=" ">
<path fill="none" stroke="#63b8ff" d="M509.53,-515C500.43,-515 491.31,-515 482.55,-515"/>
<polygon fill="#63b8ff" stroke="#63b8ff" points="509.77,-518.5 519.77,-515 509.77,-511.5 509.77,-518.5"/>
</a>
</g>
</g>
<!-- Node30&#45;&gt;Node15 -->
<g id="edge45_Node000030_Node000015" class="edge">
<title>Node30&#45;&gt;Node15</title>
<g id="a_edge45_Node000030_Node000015"><a xlink:title=" ">
<path fill="none" stroke="#63b8ff" d="M345.27,-525.71C322.14,-529.11 298.06,-532.66 280.59,-535.23"/>
<polygon fill="#63b8ff" stroke="#63b8ff" points="346.06,-529.13 355.45,-524.21 345.04,-522.2 346.06,-529.13"/>
</a>
</g>
</g>
</g>
</svg>

<g id="navigator" transform="translate(0 0)" fill="#404254">
  <rect fill="#f2f5e9" fill-opacity="0.5" stroke="#606060" stroke-width=".5" x="0" y="0" width="60" height="60"/>
  <use id="zoomplus" xlink:href="#zoomPlus" x="17" y="9" onmousedown="handleZoom(evt,'in')"/>
  <use id="zoomminus" xlink:href="#zoomMin" x="42" y="9" onmousedown="handleZoom(evt,'out')"/>
  <use id="reset" xlink:href="#resetDef" x="30" y="36" onmousedown="handleReset()"/>
   <use id="arrowup" xlink:href="#arrowUp" x="0" y="0" onmousedown="handlePan(0,-1)"/>
  <use id="arrowright" xlink:href="#arrowRight" x="0" y="0" onmousedown="handlePan(1,0)"/>
  <use id="arrowdown" xlink:href="#arrowDown" x="0" y="0" onmousedown="handlePan(0,1)"/>
  <use id="arrowleft" xlink:href="#arrowLeft" x="0" y="0" onmousedown="handlePan(-1,0)"/>
</g>
<svg viewBox="0 0 15 15" width="100%" height="30px" preserveAspectRatio="xMaxYMin meet">
 <g id="arrow_out" transform="scale(0.3 0.3)">
  <a xlink:href="namespacem__helper__basic_a3f0eae73a833f30924d4b2665a13a429_icgraph_org.svg" target="_base">
   <rect id="button" ry="5" rx="5" y="6" x="6" height="38" width="38"
        fill="#f2f5e9" fill-opacity="0.5" stroke="#606060" stroke-width="1.0"/>
   <path id="arrow"
     d="M 11.500037,31.436501 C 11.940474,20.09759 22.043105,11.32322 32.158766,21.979434 L 37.068811,17.246167 C 37.068811,17.246167 37.088388,32 37.088388,32 L 22.160133,31.978069 C 22.160133,31.978069 26.997745,27.140456 26.997745,27.140456 C 18.528582,18.264221 13.291696,25.230495 11.500037,31.436501 z"
     style="fill:#404040;"/>
  </a>
 </g>
</svg>

<style type='text/css'>
<![CDATA[
[data-mouse-over-selected='false'] { opacity: 0.7; }
[data-mouse-over-selected='true']  { opacity: 1.0; }
]]>
</style>
<script type="application/ecmascript"><![CDATA[
document.addEventListener('DOMContentLoaded', (event) => {
  highlightEdges();
  highlightAdjacentNodes();
});
]]></script>
</svg>
