<?xml version="1.0" encoding="UTF-8" standalone="no"?>
<!DOCTYPE svg PUBLIC "-//W3C//DTD SVG 1.1//EN"
 "http://www.w3.org/Graphics/SVG/1.1/DTD/svg11.dtd">
<!-- Generated by graphviz version 2.43.0 (0)
 -->
<!-- Title: m_collisions::s_apply_collision_forces Pages: 1 -->
<svg width="446pt" height="205pt"
 viewBox="0.00 0.00 446.00 204.50" xmlns="http://www.w3.org/2000/svg" xmlns:xlink="http://www.w3.org/1999/xlink">

<svg id="main" version="1.1" xmlns="http://www.w3.org/2000/svg" xmlns:xlink="http://www.w3.org/1999/xlink" xml:space="preserve">

<style type="text/css"><![CDATA[
.node, .edge {opacity: 0.7;}
.node.selected, .edge.selected {opacity: 1;}
.edge:hover path { stroke: red; }
.edge:hover polygon { stroke: red; fill: red; }
]]></style>
<script type="application/ecmascript" xlink:href="svg.min.js"/>
<svg id="graph" class="graph">
<g id="graph0" class="graph" transform="scale(1 1) rotate(0) translate(4 200.5)">
<title>m_collisions::s_apply_collision_forces</title>
<!-- Node1 -->
<g id="Node000001" class="node">
<title>Node1</title>
<g id="a_Node000001"><a xlink:title=" ">
<polygon fill="#999999" stroke="#666666" points="121,-105 0,-105 0,-75 121,-75 121,-105"/>
<text text-anchor="start" x="8" y="-93" font-family="Helvetica,sans-Serif" font-size="10.00">m_collisions::s_apply</text>
<text text-anchor="middle" x="60.5" y="-82" font-family="Helvetica,sans-Serif" font-size="10.00">_collision_forces</text>
</a>
</g>
</g>
<!-- Node2 -->
<g id="Node000002" class="node">
<title>Node2</title>
<g id="a_Node000002"><a xlink:href="namespacem__collisions.html#ab9608ec22b9d2f89741faa0a9582dc7a" target="_top" xlink:title="applies collision forces to IBs assuming a soft&#45;sphere collision model (all IBs are circles or sphere...">
<polygon fill="white" stroke="#666666" points="280,-196.5 159,-196.5 159,-155.5 280,-155.5 280,-196.5"/>
<text text-anchor="start" x="167" y="-184.5" font-family="Helvetica,sans-Serif" font-size="10.00">m_collisions::s_apply</text>
<text text-anchor="start" x="167" y="-173.5" font-family="Helvetica,sans-Serif" font-size="10.00">_ib_collision_forces</text>
<text text-anchor="middle" x="219.5" y="-162.5" font-family="Helvetica,sans-Serif" font-size="10.00">_soft_sphere</text>
</a>
</g>
</g>
<!-- Node1&#45;&gt;Node2 -->
<g id="edge1_Node000001_Node000002" class="edge">
<title>Node1&#45;&gt;Node2</title>
<g id="a_edge1_Node000001_Node000002"><a xlink:title=" ">
<path fill="none" stroke="#63b8ff" d="M85.46,-105.19C104.56,-117.07 132.12,-133.75 157,-147 159.41,-148.28 161.88,-149.57 164.39,-150.85"/>
<polygon fill="#63b8ff" stroke="#63b8ff" points="163.06,-154.1 173.57,-155.44 166.19,-147.84 163.06,-154.1"/>
</a>
</g>
</g>
<!-- Node4 -->
<g id="Node000004" class="node">
<title>Node4</title>
<g id="a_Node000004"><a xlink:href="namespacem__collisions.html#af40a32d6d0e4db1d0dd7030d2639a915" target="_top" xlink:title="applies collision forces to IBs assuming a soft&#45;sphere collision model (all IBs are circles or sphere...">
<polygon fill="white" stroke="#666666" points="281,-137.5 158,-137.5 158,-96.5 281,-96.5 281,-137.5"/>
<text text-anchor="start" x="166" y="-125.5" font-family="Helvetica,sans-Serif" font-size="10.00">m_collisions::s_apply</text>
<text text-anchor="start" x="166" y="-114.5" font-family="Helvetica,sans-Serif" font-size="10.00">_wall_collision_forces</text>
<text text-anchor="middle" x="219.5" y="-103.5" font-family="Helvetica,sans-Serif" font-size="10.00">_soft_sphere</text>
</a>
</g>
</g>
<!-- Node1&#45;&gt;Node4 -->
<g id="edge3_Node000001_Node000004" class="edge">
<title>Node1&#45;&gt;Node4</title>
<g id="a_edge3_Node000001_Node000004"><a xlink:title=" ">
<path fill="none" stroke="#63b8ff" d="M121.3,-100.28C129.99,-101.78 139,-103.33 147.88,-104.86"/>
<polygon fill="#63b8ff" stroke="#63b8ff" points="147.37,-108.32 157.82,-106.57 148.56,-101.42 147.37,-108.32"/>
</a>
</g>
</g>
<!-- Node5 -->
<g id="Node000005" class="node">
<title>Node5</title>
<g id="a_Node000005"><a xlink:href="namespacem__collisions.html#a8dac6fb2b3da2ea0e6d3df93df7c9e94" target="_top" xlink:title="uses ghost&#45;point/image&#45;point information to determine if it is possible if two IBs are colliding,...">
<polygon fill="white" stroke="#666666" points="282,-78 157,-78 157,-48 282,-48 282,-78"/>
<text text-anchor="start" x="165" y="-66" font-family="Helvetica,sans-Serif" font-size="10.00">m_collisions::s_detect</text>
<text text-anchor="middle" x="219.5" y="-55" font-family="Helvetica,sans-Serif" font-size="10.00">_ib_collisions</text>
</a>
</g>
</g>
<!-- Node1&#45;&gt;Node5 -->
<g id="edge5_Node000001_Node000005" class="edge">
<title>Node1&#45;&gt;Node5</title>
<g id="a_edge5_Node000001_Node000005"><a xlink:title=" ">
<path fill="none" stroke="#63b8ff" d="M121.3,-79.72C129.65,-78.28 138.29,-76.79 146.83,-75.33"/>
<polygon fill="#63b8ff" stroke="#63b8ff" points="147.52,-78.76 156.78,-73.61 146.33,-71.86 147.52,-78.76"/>
</a>
</g>
</g>
<!-- Node6 -->
<g id="Node000006" class="node">
<title>Node6</title>
<g id="a_Node000006"><a xlink:href="namespacem__collisions.html#a582bc12bbbdb4389578c76e37255a201" target="_top" xlink:title="uses boundary conditions and particle locations to check for wall conditions">
<polygon fill="white" stroke="#666666" points="282,-30 157,-30 157,0 282,0 282,-30"/>
<text text-anchor="start" x="165" y="-18" font-family="Helvetica,sans-Serif" font-size="10.00">m_collisions::s_detect</text>
<text text-anchor="middle" x="219.5" y="-7" font-family="Helvetica,sans-Serif" font-size="10.00">_wall_collisions</text>
</a>
</g>
</g>
<!-- Node1&#45;&gt;Node6 -->
<g id="edge6_Node000001_Node000006" class="edge">
<title>Node1&#45;&gt;Node6</title>
<g id="a_edge6_Node000001_Node000006"><a xlink:title=" ">
<path fill="none" stroke="#63b8ff" d="M87.83,-74.85C106.77,-64.22 133.1,-50 157,-39 160.64,-37.32 164.44,-35.66 168.28,-34.03"/>
<polygon fill="#63b8ff" stroke="#63b8ff" points="169.95,-37.13 177.85,-30.08 167.28,-30.66 169.95,-37.13"/>
</a>
</g>
</g>
<!-- Node3 -->
<g id="Node000003" class="node">
<title>Node3</title>
<g id="a_Node000003"><a xlink:href="namespacem__collisions.html#a1e32450de52ff46c84d5fe66bed6fb9e" target="_top" xlink:title="function checks if this local MPI processor owns this specific collision">
<polygon fill="white" stroke="#666666" points="438,-161 318,-161 318,-131 438,-131 438,-161"/>
<text text-anchor="start" x="326" y="-149" font-family="Helvetica,sans-Serif" font-size="10.00">m_collisions::f_local</text>
<text text-anchor="middle" x="378" y="-138" font-family="Helvetica,sans-Serif" font-size="10.00">_rank_owns_collision</text>
</a>
</g>
</g>
<!-- Node2&#45;&gt;Node3 -->
<g id="edge2_Node000002_Node000003" class="edge">
<title>Node2&#45;&gt;Node3</title>
<g id="a_edge2_Node000002_Node000003"><a xlink:title=" ">
<path fill="none" stroke="#63b8ff" d="M280.11,-164.57C289.18,-162.83 298.61,-161.03 307.86,-159.25"/>
<polygon fill="#63b8ff" stroke="#63b8ff" points="308.65,-162.67 317.81,-157.35 307.33,-155.79 308.65,-162.67"/>
</a>
</g>
</g>
<!-- Node4&#45;&gt;Node3 -->
<g id="edge4_Node000004_Node000003" class="edge">
<title>Node4&#45;&gt;Node3</title>
<g id="a_edge4_Node000004_Node000003"><a xlink:title=" ">
<path fill="none" stroke="#63b8ff" d="M281.01,-128.21C289.82,-129.84 298.95,-131.54 307.91,-133.2"/>
<polygon fill="#63b8ff" stroke="#63b8ff" points="307.47,-136.68 317.94,-135.06 308.75,-129.79 307.47,-136.68"/>
</a>
</g>
</g>
</g>
</svg>
</svg>

<style type='text/css'>
<![CDATA[
[data-mouse-over-selected='false'] { opacity: 0.7; }
[data-mouse-over-selected='true']  { opacity: 1.0; }
]]>
</style>
<script type="application/ecmascript"><![CDATA[
document.addEventListener('DOMContentLoaded', (event) => {
  highlightEdges();
  highlightAdjacentNodes();
});
]]></script>
</svg>
