<?xml version="1.0" encoding="UTF-8" standalone="no"?>
<!DOCTYPE svg PUBLIC "-//W3C//DTD SVG 1.1//EN"
 "http://www.w3.org/Graphics/SVG/1.1/DTD/svg11.dtd">
<!-- Generated by graphviz version 2.40.1 (20161225.0304)
 -->
<!-- Title: m_rhs::s_average_cell_interior_values Pages: 1 -->
<svg width="376pt" height="215pt"
 viewBox="0.00 0.00 376.00 215.00" xmlns="http://www.w3.org/2000/svg" xmlns:xlink="http://www.w3.org/1999/xlink">
<g id="graph0" class="graph" transform="scale(1 1) rotate(0) translate(4 211)">
<title>m_rhs::s_average_cell_interior_values</title>
<polygon fill="#ffffff" stroke="transparent" points="-4,4 -4,-211 372,-211 372,4 -4,4"/>
<!-- Node54 -->
<g id="node1" class="node">
<title>Node54</title>
<polygon fill="#bfbfbf" stroke="#000000" points="0,-90.5 0,-116.5 77,-116.5 77,-90.5 0,-90.5"/>
<text text-anchor="start" x="8" y="-106.1" font-family="Helvetica,sans-Serif" font-size="8.00" fill="#000000">m_rhs::s_average_cell</text>
<text text-anchor="middle" x="38.5" y="-97.1" font-family="Helvetica,sans-Serif" font-size="8.00" fill="#000000">_interior_values</text>
</g>
<!-- Node55 -->
<g id="node2" class="node">
<title>Node55</title>
<g id="a_node2"><a xlink:href="namespacem__rhs.html#a361f0038973069452cc88430c49bcfe8" target="_top" xlink:title="The purpose of this procedure is to employ the inputted cell&#45;average conservative variables in order ...">
<polygon fill="#ffffff" stroke="#000000" points="113,-95 113,-112 191,-112 191,-95 113,-95"/>
<text text-anchor="middle" x="152" y="-101.6" font-family="Helvetica,sans-Serif" font-size="8.00" fill="#000000">m_rhs::s_compute_rhs</text>
</a>
</g>
</g>
<!-- Node54&#45;&gt;Node55 -->
<g id="edge1" class="edge">
<title>Node54&#45;&gt;Node55</title>
<path fill="none" stroke="#191970" d="M87.3766,-103.5C95.8232,-103.5 104.5072,-103.5 112.6603,-103.5"/>
<polygon fill="#191970" stroke="#191970" points="87.2428,-100.0001 77.2428,-103.5 87.2428,-107.0001 87.2428,-100.0001"/>
</g>
<!-- Node56 -->
<g id="node3" class="node">
<title>Node56</title>
<g id="a_node3"><a xlink:href="namespacem__time__steppers.html#a1057850f94e9e749da9687baa7478246" target="_top" xlink:title="1st order TVD RK time&#45;stepping algorithm ">
<polygon fill="#ffffff" stroke="#000000" points="227,-180.5 227,-206.5 296,-206.5 296,-180.5 227,-180.5"/>
<text text-anchor="start" x="235" y="-196.1" font-family="Helvetica,sans-Serif" font-size="8.00" fill="#000000">m_time_steppers::s</text>
<text text-anchor="middle" x="261.5" y="-187.1" font-family="Helvetica,sans-Serif" font-size="8.00" fill="#000000">_1st_order_tvd_rk</text>
</a>
</g>
</g>
<!-- Node55&#45;&gt;Node56 -->
<g id="edge2" class="edge">
<title>Node55&#45;&gt;Node56</title>
<path fill="none" stroke="#191970" d="M168.1111,-119.5829C182.845,-133.9243 205.5476,-155.1214 227,-171.5 230.9524,-174.5176 235.3228,-177.5298 239.5871,-180.314"/>
<polygon fill="#191970" stroke="#191970" points="170.3875,-116.9125 160.804,-112.3949 165.4785,-121.9028 170.3875,-116.9125"/>
</g>
<!-- Node58 -->
<g id="node5" class="node">
<title>Node58</title>
<g id="a_node5"><a xlink:href="namespacem__time__steppers.html#a5b758874c713da801a47aa3d6246b2fd" target="_top" xlink:title="2nd order TVD RK time&#45;stepping algorithm ">
<polygon fill="#ffffff" stroke="#000000" points="227,-135.5 227,-161.5 296,-161.5 296,-135.5 227,-135.5"/>
<text text-anchor="start" x="235" y="-151.1" font-family="Helvetica,sans-Serif" font-size="8.00" fill="#000000">m_time_steppers::s</text>
<text text-anchor="middle" x="261.5" y="-142.1" font-family="Helvetica,sans-Serif" font-size="8.00" fill="#000000">_2nd_order_tvd_rk</text>
</a>
</g>
</g>
<!-- Node55&#45;&gt;Node58 -->
<g id="edge4" class="edge">
<title>Node55&#45;&gt;Node58</title>
<path fill="none" stroke="#191970" d="M182.4623,-116.0187C197.1125,-122.0394 214.6727,-129.2559 229.5164,-135.3561"/>
<polygon fill="#191970" stroke="#191970" points="183.4337,-112.634 172.8539,-112.0701 180.7728,-119.1086 183.4337,-112.634"/>
</g>
<!-- Node59 -->
<g id="node6" class="node">
<title>Node59</title>
<g id="a_node6"><a xlink:href="namespacem__time__steppers.html#a1cc10f406268344cc54a55159c4ff08f" target="_top" xlink:title="3rd order TVD RK time&#45;stepping algorithm ">
<polygon fill="#ffffff" stroke="#000000" points="227,-90.5 227,-116.5 296,-116.5 296,-90.5 227,-90.5"/>
<text text-anchor="start" x="235" y="-106.1" font-family="Helvetica,sans-Serif" font-size="8.00" fill="#000000">m_time_steppers::s</text>
<text text-anchor="middle" x="261.5" y="-97.1" font-family="Helvetica,sans-Serif" font-size="8.00" fill="#000000">_3rd_order_tvd_rk</text>
</a>
</g>
</g>
<!-- Node55&#45;&gt;Node59 -->
<g id="edge6" class="edge">
<title>Node55&#45;&gt;Node59</title>
<path fill="none" stroke="#191970" d="M201.251,-103.5C209.911,-103.5 218.7564,-103.5 226.9087,-103.5"/>
<polygon fill="#191970" stroke="#191970" points="201.2228,-100.0001 191.2227,-103.5 201.2227,-107.0001 201.2228,-100.0001"/>
</g>
<!-- Node60 -->
<g id="node7" class="node">
<title>Node60</title>
<g id="a_node7"><a xlink:href="namespacem__time__steppers.html#ac53b0d079d514df2bf662bc0e042c8db" target="_top" xlink:title="4th order RK time&#45;stepping algorithm ">
<polygon fill="#ffffff" stroke="#000000" points="227,-45.5 227,-71.5 296,-71.5 296,-45.5 227,-45.5"/>
<text text-anchor="start" x="235" y="-61.1" font-family="Helvetica,sans-Serif" font-size="8.00" fill="#000000">m_time_steppers::s</text>
<text text-anchor="middle" x="261.5" y="-52.1" font-family="Helvetica,sans-Serif" font-size="8.00" fill="#000000">_4th_order_rk</text>
</a>
</g>
</g>
<!-- Node55&#45;&gt;Node60 -->
<g id="edge8" class="edge">
<title>Node55&#45;&gt;Node60</title>
<path fill="none" stroke="#191970" d="M182.4623,-90.9813C197.1125,-84.9606 214.6727,-77.7441 229.5164,-71.6439"/>
<polygon fill="#191970" stroke="#191970" points="180.7728,-87.8914 172.8539,-94.9299 183.4337,-94.366 180.7728,-87.8914"/>
</g>
<!-- Node61 -->
<g id="node8" class="node">
<title>Node61</title>
<g id="a_node8"><a xlink:href="namespacem__time__steppers.html#a4920633ffe7f703c3827b956b21b7417" target="_top" xlink:title="5th order RK time&#45;stepping algorithm ">
<polygon fill="#ffffff" stroke="#000000" points="227,-.5 227,-26.5 296,-26.5 296,-.5 227,-.5"/>
<text text-anchor="start" x="235" y="-16.1" font-family="Helvetica,sans-Serif" font-size="8.00" fill="#000000">m_time_steppers::s</text>
<text text-anchor="middle" x="261.5" y="-7.1" font-family="Helvetica,sans-Serif" font-size="8.00" fill="#000000">_5th_order_rk</text>
</a>
</g>
</g>
<!-- Node55&#45;&gt;Node61 -->
<g id="edge10" class="edge">
<title>Node55&#45;&gt;Node61</title>
<path fill="none" stroke="#191970" d="M168.2301,-87.7836C183.0432,-73.7396 205.7953,-52.9082 227,-36.5 231.3268,-33.1519 236.1252,-29.7646 240.7339,-26.6566"/>
<polygon fill="#191970" stroke="#191970" points="165.6849,-85.3748 160.8776,-94.8163 170.5234,-90.4334 165.6849,-85.3748"/>
</g>
<!-- Node57 -->
<g id="node4" class="node">
<title>Node57</title>
<g id="a_node4"><a xlink:href="p__main_8f90.html#aeec10ee8e2940c953967da3e374e1579" target="_top" xlink:title="Quasi&#45;conservative, shock&#45; and interface&#45; capturing finite&#45;volume scheme for the multicomponent Navie...">
<polygon fill="#ffffff" stroke="#000000" points="332,-95 332,-112 368,-112 368,-95 332,-95"/>
<text text-anchor="middle" x="350" y="-101.6" font-family="Helvetica,sans-Serif" font-size="8.00" fill="#000000">p_main</text>
</a>
</g>
</g>
<!-- Node56&#45;&gt;Node57 -->
<g id="edge3" class="edge">
<title>Node56&#45;&gt;Node57</title>
<path fill="none" stroke="#191970" d="M292.6045,-174.3934C293.775,-173.4468 294.9118,-172.4811 296,-171.5 316.6021,-152.9266 335.4852,-125.9236 344.4772,-112.2035"/>
<polygon fill="#191970" stroke="#191970" points="290.529,-171.5752 284.5485,-180.3207 294.6774,-177.2135 290.529,-171.5752"/>
</g>
<!-- Node58&#45;&gt;Node57 -->
<g id="edge5" class="edge">
<title>Node58&#45;&gt;Node57</title>
<path fill="none" stroke="#191970" d="M296.0983,-130.9076C308.8186,-124.4397 322.6574,-117.403 333.1276,-112.0792"/>
<polygon fill="#191970" stroke="#191970" points="294.4253,-127.8318 287.0979,-135.4841 297.5981,-134.0715 294.4253,-127.8318"/>
</g>
<!-- Node59&#45;&gt;Node57 -->
<g id="edge7" class="edge">
<title>Node59&#45;&gt;Node57</title>
<path fill="none" stroke="#191970" d="M306.3807,-103.5C315.4354,-103.5 324.4549,-103.5 331.9223,-103.5"/>
<polygon fill="#191970" stroke="#191970" points="306.2236,-100.0001 296.2235,-103.5 306.2235,-107.0001 306.2236,-100.0001"/>
</g>
<!-- Node60&#45;&gt;Node57 -->
<g id="edge9" class="edge">
<title>Node60&#45;&gt;Node57</title>
<path fill="none" stroke="#191970" d="M296.0983,-76.0924C308.8186,-82.5603 322.6574,-89.597 333.1276,-94.9208"/>
<polygon fill="#191970" stroke="#191970" points="297.5981,-72.9285 287.0979,-71.5159 294.4253,-79.1682 297.5981,-72.9285"/>
</g>
<!-- Node61&#45;&gt;Node57 -->
<g id="edge11" class="edge">
<title>Node61&#45;&gt;Node57</title>
<path fill="none" stroke="#191970" d="M291.4848,-32.6396C293.0489,-33.8989 294.565,-35.1891 296,-36.5 316.2957,-55.0398 335.3128,-81.5409 344.4045,-94.9813"/>
<polygon fill="#191970" stroke="#191970" points="293.5323,-29.8006 283.4174,-26.6478 289.3585,-35.4202 293.5323,-29.8006"/>
</g>
</g>
</svg>
