<?xml version="1.0" encoding="UTF-8" standalone="no"?>
<!DOCTYPE svg PUBLIC "-//W3C//DTD SVG 1.1//EN"
 "http://www.w3.org/Graphics/SVG/1.1/DTD/svg11.dtd">
<!-- Generated by graphviz version 2.43.0 (0)
 -->
<!-- Title: m_start_up::s_read_parallel_data_files Pages: 1 -->
<svg width="294pt" height="187pt"
 viewBox="0.00 0.00 294.00 186.50" xmlns="http://www.w3.org/2000/svg" xmlns:xlink="http://www.w3.org/1999/xlink">
<g id="graph0" class="graph" transform="scale(1 1) rotate(0) translate(4 182.5)">
<title>m_start_up::s_read_parallel_data_files</title>
<!-- Node1 -->
<g id="Node000001" class="node">
<title>Node1</title>
<g id="a_Node000001"><a xlink:title=" ">
<polygon fill="#999999" stroke="#666666" points="111,-98.5 0,-98.5 0,-68.5 111,-68.5 111,-98.5"/>
<text text-anchor="start" x="8" y="-86.5" font-family="Helvetica,sans-Serif" font-size="10.00">m_start_up::s_read</text>
<text text-anchor="middle" x="55.5" y="-75.5" font-family="Helvetica,sans-Serif" font-size="10.00">_parallel_data_files</text>
</a>
</g>
</g>
<!-- Node2 -->
<g id="Node000002" class="node">
<title>Node2</title>
<g id="a_Node000002"><a xlink:href="namespacem__sim__helpers.html#a8a20d747a3ad8bbefb85169d179d2b90" target="_top" xlink:title=" ">
<polygon fill="white" stroke="#666666" points="286,-178.5 147,-178.5 147,-148.5 286,-148.5 286,-178.5"/>
<text text-anchor="start" x="155" y="-166.5" font-family="Helvetica,sans-Serif" font-size="10.00">m_sim_helpers::s_assign</text>
<text text-anchor="middle" x="216.5" y="-155.5" font-family="Helvetica,sans-Serif" font-size="10.00">_default_bc_type</text>
</a>
</g>
</g>
<!-- Node1&#45;&gt;Node2 -->
<g id="edge1_Node000001_Node000002" class="edge">
<title>Node1&#45;&gt;Node2</title>
<g id="a_edge1_Node000001_Node000002"><a xlink:title=" ">
<path fill="none" stroke="#63b8ff" d="M78.06,-98.7C95.93,-110.84 122.32,-127.72 147,-139.5 150.77,-141.3 154.72,-143.04 158.73,-144.7"/>
<polygon fill="#63b8ff" stroke="#63b8ff" points="157.57,-148.01 168.16,-148.43 160.14,-141.5 157.57,-148.01"/>
</a>
</g>
</g>
<!-- Node3 -->
<g id="Node000003" class="node">
<title>Node3</title>
<g id="a_Node000003"><a xlink:href="m__mpi__common_8fpp_8f90.html#aff6f50a37632c54b36bc810df56db363" target="_top" xlink:title=" ">
<polygon fill="white" stroke="#666666" points="276.5,-130 156.5,-130 156.5,-111 276.5,-111 276.5,-130"/>
<text text-anchor="middle" x="216.5" y="-118" font-family="Helvetica,sans-Serif" font-size="10.00">s_initialize_mpi_data</text>
</a>
</g>
</g>
<!-- Node1&#45;&gt;Node3 -->
<g id="edge2_Node000001_Node000003" class="edge">
<title>Node1&#45;&gt;Node3</title>
<g id="a_edge2_Node000001_Node000003"><a xlink:title=" ">
<path fill="none" stroke="#63b8ff" d="M111.22,-96.23C128.57,-100.27 147.66,-104.71 164.72,-108.68"/>
<polygon fill="#63b8ff" stroke="#63b8ff" points="163.96,-112.1 174.5,-110.96 165.55,-105.28 163.96,-112.1"/>
</a>
</g>
</g>
<!-- Node4 -->
<g id="Node000004" class="node">
<title>Node4</title>
<g id="a_Node000004"><a xlink:href="m__helper_8fpp_8f90.html#a61ed7167a8466d96b3403bf41febc469" target="_top" xlink:title=" ">
<polygon fill="white" stroke="#666666" points="253,-93 180,-93 180,-74 253,-74 253,-93"/>
<text text-anchor="middle" x="216.5" y="-81" font-family="Helvetica,sans-Serif" font-size="10.00">s_int_to_str</text>
</a>
</g>
</g>
<!-- Node1&#45;&gt;Node4 -->
<g id="edge3_Node000001_Node000004" class="edge">
<title>Node1&#45;&gt;Node4</title>
<g id="a_edge3_Node000001_Node000004"><a xlink:title=" ">
<path fill="none" stroke="#63b8ff" d="M111.22,-83.5C130.23,-83.5 151.34,-83.5 169.57,-83.5"/>
<polygon fill="#63b8ff" stroke="#63b8ff" points="169.65,-87 179.65,-83.5 169.65,-80 169.65,-87"/>
</a>
</g>
</g>
<!-- Node5 -->
<g id="Node000005" class="node">
<title>Node5</title>
<g id="a_Node000005"><a xlink:href="m__mpi__common_8fpp_8f90.html#adbcc47e90968ff0f14ccc2ca3c47586a" target="_top" xlink:title="The subroutine terminates the MPI execution environment.">
<polygon fill="white" stroke="#666666" points="255,-56 178,-56 178,-37 255,-37 255,-56"/>
<text text-anchor="middle" x="216.5" y="-44" font-family="Helvetica,sans-Serif" font-size="10.00">s_mpi_abort</text>
</a>
</g>
</g>
<!-- Node1&#45;&gt;Node5 -->
<g id="edge4_Node000001_Node000005" class="edge">
<title>Node1&#45;&gt;Node5</title>
<g id="a_edge4_Node000001_Node000005"><a xlink:title=" ">
<path fill="none" stroke="#63b8ff" d="M111.22,-70.77C129.54,-66.5 149.82,-61.79 167.58,-57.65"/>
<polygon fill="#63b8ff" stroke="#63b8ff" points="168.77,-60.97 177.71,-55.29 167.18,-54.15 168.77,-60.97"/>
</a>
</g>
</g>
<!-- Node6 -->
<g id="Node000006" class="node">
<title>Node6</title>
<g id="a_Node000006"><a xlink:href="m__mpi__common_8fpp_8f90.html#abf2b4ebce724f44c966c7f1b865ce619" target="_top" xlink:title="Halts all processes until all have reached barrier.">
<polygon fill="white" stroke="#666666" points="258,-19 175,-19 175,0 258,0 258,-19"/>
<text text-anchor="middle" x="216.5" y="-7" font-family="Helvetica,sans-Serif" font-size="10.00">s_mpi_barrier</text>
</a>
</g>
</g>
<!-- Node1&#45;&gt;Node6 -->
<g id="edge5_Node000001_Node000006" class="edge">
<title>Node1&#45;&gt;Node6</title>
<g id="a_edge5_Node000001_Node000006"><a xlink:title=" ">
<path fill="none" stroke="#63b8ff" d="M77.54,-68.41C95.32,-56.23 121.86,-39.38 147,-28.5 152.72,-26.02 158.86,-23.78 165.01,-21.79"/>
<polygon fill="#63b8ff" stroke="#63b8ff" points="166.11,-25.11 174.66,-18.84 164.07,-18.41 166.11,-25.11"/>
</a>
</g>
</g>
</g>
</svg>
