<?xml version="1.0" encoding="UTF-8" standalone="no"?>
<!DOCTYPE svg PUBLIC "-//W3C//DTD SVG 1.1//EN"
 "http://www.w3.org/Graphics/SVG/1.1/DTD/svg11.dtd">
<!-- Generated by graphviz version 2.43.0 (0)
 -->
<!-- Title: m_reactive_burn::s_reactive_burn_substep Pages: 1 -->
<svg width="1411pt" height="207pt"
 viewBox="0.00 0.00 1411.00 206.50" xmlns="http://www.w3.org/2000/svg" xmlns:xlink="http://www.w3.org/1999/xlink">
<g id="graph0" class="graph" transform="scale(1 1) rotate(0) translate(4 202.5)">
<title>m_reactive_burn::s_reactive_burn_substep</title>
<!-- Node1 -->
<g id="Node000001" class="node">
<title>Node1</title>
<g id="a_Node000001"><a xlink:title="Operator&#45;split alternative to s_compute_reactive_burn, used when rburnsubsteps &gt; 0....">
<polygon fill="#999999" stroke="#666666" points="132,-128.5 0,-128.5 0,-98.5 132,-98.5 132,-128.5"/>
<text text-anchor="start" x="8" y="-116.5" font-family="Helvetica,sans-Serif" font-size="10.00">m_reactive_burn::s</text>
<text text-anchor="middle" x="66" y="-105.5" font-family="Helvetica,sans-Serif" font-size="10.00">_reactive_burn_substep</text>
</a>
</g>
</g>
<!-- Node2 -->
<g id="Node000002" class="node">
<title>Node2</title>
<g id="a_Node000002"><a xlink:href="namespacem__eos.html#ad65fa3d10d69e6413356682c8f356e71" target="_top" xlink:title="Pressure of a stiffened gas from its internal energy density &#45; the inverse of s_compute_energy....">
<polygon fill="white" stroke="#666666" points="297,-166 191,-166 191,-147 297,-147 297,-166"/>
<text text-anchor="middle" x="244" y="-154" font-family="Helvetica,sans-Serif" font-size="10.00">m_eos::f_pressure</text>
</a>
</g>
</g>
<!-- Node1&#45;&gt;Node2 -->
<g id="edge1_Node000001_Node000002" class="edge">
<title>Node1&#45;&gt;Node2</title>
<g id="a_edge1_Node000001_Node000002"><a xlink:title=" ">
<path fill="none" stroke="#63b8ff" d="M128.56,-128.54C150.01,-133.78 173.78,-139.59 194.07,-144.54"/>
<polygon fill="#63b8ff" stroke="#63b8ff" points="193.48,-148 204.03,-146.98 195.14,-141.2 193.48,-148"/>
</a>
</g>
</g>
<!-- Node3 -->
<g id="Node000003" class="node">
<title>Node3</title>
<g id="a_Node000003"><a xlink:href="namespacem__reactive__burn.html#a0406a6b3ce7d4e6fdd1c70c8087f28fb" target="_top" xlink:title="Programmed&#45;burn rate dlambda/dt for one cell state. Both the RHS source and the operator&#45;split integr...">
<polygon fill="white" stroke="#666666" points="299,-128.5 189,-128.5 189,-98.5 299,-98.5 299,-128.5"/>
<text text-anchor="start" x="197" y="-116.5" font-family="Helvetica,sans-Serif" font-size="10.00">m_reactive_burn::s</text>
<text text-anchor="middle" x="244" y="-105.5" font-family="Helvetica,sans-Serif" font-size="10.00">_burn_rate</text>
</a>
</g>
</g>
<!-- Node1&#45;&gt;Node3 -->
<g id="edge2_Node000001_Node000003" class="edge">
<title>Node1&#45;&gt;Node3</title>
<g id="a_edge2_Node000001_Node000003"><a xlink:title=" ">
<path fill="none" stroke="#63b8ff" d="M132.04,-113.5C147.23,-113.5 163.41,-113.5 178.58,-113.5"/>
<polygon fill="#63b8ff" stroke="#63b8ff" points="178.9,-117 188.9,-113.5 178.9,-110 178.9,-117"/>
</a>
</g>
</g>
<!-- Node12 -->
<g id="Node000012" class="node">
<title>Node12</title>
<g id="a_Node000012"><a xlink:href="namespacem__eos.html#acfa4db355561147237117f73a58e8c15" target="_top" xlink:title="Mixture coefficients of one state. Under bubbles_euler with num_fluids == 1 the sole advection slot a...">
<polygon fill="white" stroke="#666666" points="320,-64.5 168,-64.5 168,-34.5 320,-34.5 320,-64.5"/>
<text text-anchor="start" x="176" y="-52.5" font-family="Helvetica,sans-Serif" font-size="10.00">m_eos::s_compute_mixture</text>
<text text-anchor="middle" x="244" y="-41.5" font-family="Helvetica,sans-Serif" font-size="10.00">_coefficients</text>
</a>
</g>
</g>
<!-- Node1&#45;&gt;Node12 -->
<g id="edge14_Node000001_Node000012" class="edge">
<title>Node1&#45;&gt;Node12</title>
<g id="a_edge14_Node000001_Node000012"><a xlink:title=" ">
<path fill="none" stroke="#63b8ff" d="M108.26,-98.49C133.33,-89.38 165.52,-77.67 192.15,-67.99"/>
<polygon fill="#63b8ff" stroke="#63b8ff" points="193.49,-71.23 201.69,-64.52 191.1,-64.65 193.49,-71.23"/>
</a>
</g>
</g>
<!-- Node4 -->
<g id="Node000004" class="node">
<title>Node4</title>
<g id="a_Node000004"><a xlink:href="namespacem__eos.html#a54f9a6cbd744b112c24b6a9a03a4fb21" target="_top" xlink:title="Temperature of phase i at (rho, p): the stiffened&#45;gas relation, or T_ref(rho) + (e &#45; e_ref)/c_v.">
<polygon fill="white" stroke="#666666" points="517,-127 356,-127 356,-108 517,-108 517,-127"/>
<text text-anchor="middle" x="436.5" y="-115" font-family="Helvetica,sans-Serif" font-size="10.00">m_eos::s_phase_temperature</text>
</a>
</g>
</g>
<!-- Node3&#45;&gt;Node4 -->
<g id="edge3_Node000003_Node000004" class="edge">
<title>Node3&#45;&gt;Node4</title>
<g id="a_edge3_Node000003_Node000004"><a xlink:title=" ">
<path fill="none" stroke="#63b8ff" d="M299.08,-114.64C313.52,-114.94 329.52,-115.27 345.33,-115.61"/>
<polygon fill="#63b8ff" stroke="#63b8ff" points="345.61,-119.11 355.68,-115.82 345.75,-112.11 345.61,-119.11"/>
</a>
</g>
</g>
<!-- Node5 -->
<g id="Node000005" class="node">
<title>Node5</title>
<g id="a_Node000005"><a xlink:href="namespacem__eos.html#a5da99f1cc4fd7f6ac2db8627e460aa98" target="_top" xlink:title="Whether the EOS of fluid i is a family whose coefficients vary with density.">
<polygon fill="white" stroke="#666666" points="1403,-76 1244,-76 1244,-57 1403,-57 1403,-76"/>
<text text-anchor="middle" x="1323.5" y="-64" font-family="Helvetica,sans-Serif" font-size="10.00">m_eos::f_is_state_dependent</text>
</a>
</g>
</g>
<!-- Node4&#45;&gt;Node5 -->
<g id="edge4_Node000004_Node000005" class="edge">
<title>Node4&#45;&gt;Node5</title>
<g id="a_edge4_Node000004_Node000005"><a xlink:title=" ">
<path fill="none" stroke="#63b8ff" d="M466.86,-107.91C528.26,-88.74 675.05,-47.5 801.5,-47.5 801.5,-47.5 801.5,-47.5 952.5,-47.5 1048.64,-47.5 1158.65,-53.98 1233.55,-59.37"/>
<polygon fill="#63b8ff" stroke="#63b8ff" points="1233.66,-62.88 1243.89,-60.12 1234.17,-55.9 1233.66,-62.88"/>
</a>
</g>
</g>
<!-- Node6 -->
<g id="Node000006" class="node">
<title>Node6</title>
<g id="a_Node000006"><a xlink:href="namespacem__eos.html#a34b2fb4f3d4e7e85d7a87a923e66cf16" target="_top" xlink:title="The reference curve of a state&#45;dependent EOS at rho: p_ref, e_ref, their d/drho, and Gamma_G with its...">
<polygon fill="white" stroke="#666666" points="1379.5,-175.5 1267.5,-175.5 1267.5,-145.5 1379.5,-145.5 1379.5,-175.5"/>
<text text-anchor="start" x="1275.5" y="-163.5" font-family="Helvetica,sans-Serif" font-size="10.00">m_eos::s_reference</text>
<text text-anchor="middle" x="1323.5" y="-152.5" font-family="Helvetica,sans-Serif" font-size="10.00">_curve</text>
</a>
</g>
</g>
<!-- Node4&#45;&gt;Node6 -->
<g id="edge5_Node000004_Node000006" class="edge">
<title>Node4&#45;&gt;Node6</title>
<g id="a_edge5_Node000004_Node000006"><a xlink:title=" ">
<path fill="none" stroke="#63b8ff" d="M462.67,-127.11C521.19,-148.57 671.37,-198.5 801.5,-198.5 801.5,-198.5 801.5,-198.5 952.5,-198.5 1059.66,-198.5 1183.36,-182.53 1257.13,-171.3"/>
<polygon fill="#63b8ff" stroke="#63b8ff" points="1257.86,-174.73 1267.21,-169.75 1256.79,-167.81 1257.86,-174.73"/>
</a>
</g>
</g>
<!-- Node7 -->
<g id="Node000007" class="node">
<title>Node7</title>
<g id="a_Node000007"><a xlink:href="namespacem__eos.html#a5ebc2d48e418d117cc50ca367b4dad9f" target="_top" xlink:title="Fixed&#45;step classical RK4 for the ODE kind from (x0, y0) to x1.">
<polygon fill="white" stroke="#666666" points="671.5,-129 590.5,-129 590.5,-110 671.5,-110 671.5,-129"/>
<text text-anchor="middle" x="631" y="-117" font-family="Helvetica,sans-Serif" font-size="10.00">m_eos::s_rk4</text>
</a>
</g>
</g>
<!-- Node4&#45;&gt;Node7 -->
<g id="edge6_Node000004_Node000007" class="edge">
<title>Node4&#45;&gt;Node7</title>
<g id="a_edge6_Node000004_Node000007"><a xlink:title=" ">
<path fill="none" stroke="#63b8ff" d="M517.19,-118.33C538.58,-118.55 561.1,-118.78 580.34,-118.98"/>
<polygon fill="#63b8ff" stroke="#63b8ff" points="580.34,-122.48 590.37,-119.09 580.41,-115.48 580.34,-122.48"/>
</a>
</g>
</g>
<!-- Node8 -->
<g id="Node000008" class="node">
<title>Node8</title>
<g id="a_Node000008"><a xlink:href="namespacem__eos.html#a87cb1284cde4a4acbb3ccd640afa82bb" target="_top" xlink:title="Slope of the ODE kind for fluid i: dp/drho = c^2 along an isentrope (x = rho, y = p),...">
<polygon fill="white" stroke="#666666" points="860,-131 745,-131 745,-112 860,-112 860,-131"/>
<text text-anchor="middle" x="802.5" y="-119" font-family="Helvetica,sans-Serif" font-size="10.00">m_eos::s_ode_slope</text>
</a>
</g>
</g>
<!-- Node7&#45;&gt;Node8 -->
<g id="edge7_Node000007_Node000008" class="edge">
<title>Node7&#45;&gt;Node8</title>
<g id="a_edge7_Node000007_Node000008"><a xlink:title=" ">
<path fill="none" stroke="#63b8ff" d="M671.74,-119.97C690.41,-120.19 713.18,-120.46 734.41,-120.71"/>
<polygon fill="#63b8ff" stroke="#63b8ff" points="734.64,-124.21 744.68,-120.83 734.72,-117.21 734.64,-124.21"/>
</a>
</g>
</g>
<!-- Node8&#45;&gt;Node6 -->
<g id="edge13_Node000008_Node000006" class="edge">
<title>Node8&#45;&gt;Node6</title>
<g id="a_edge13_Node000008_Node000006"><a xlink:title=" ">
<path fill="none" stroke="#63b8ff" d="M843.34,-131.1C859.58,-134.64 878.59,-138.32 896,-140.5 1023.27,-156.46 1173.34,-159.98 1257.25,-160.59"/>
<polygon fill="#63b8ff" stroke="#63b8ff" points="1257.37,-164.09 1267.39,-160.65 1257.42,-157.09 1257.37,-164.09"/>
</a>
</g>
</g>
<!-- Node9 -->
<g id="Node000009" class="node">
<title>Node9</title>
<g id="a_Node000009"><a xlink:href="namespacem__eos.html#a62af0ed16a0014e1f2af776d7af4f9e8" target="_top" xlink:title="Frozen sound speed squared of one phase at (rho, p) from its own coefficients. These helpers are subr...">
<polygon fill="white" stroke="#666666" points="1007,-131 896,-131 896,-112 1007,-112 1007,-131"/>
<text text-anchor="middle" x="951.5" y="-119" font-family="Helvetica,sans-Serif" font-size="10.00">m_eos::s_phase_c2</text>
</a>
</g>
</g>
<!-- Node8&#45;&gt;Node9 -->
<g id="edge8_Node000008_Node000009" class="edge">
<title>Node8&#45;&gt;Node9</title>
<g id="a_edge8_Node000008_Node000009"><a xlink:title=" ">
<path fill="none" stroke="#63b8ff" d="M860.33,-121.5C868.61,-121.5 877.17,-121.5 885.59,-121.5"/>
<polygon fill="#63b8ff" stroke="#63b8ff" points="885.75,-125 895.75,-121.5 885.75,-118 885.75,-125"/>
</a>
</g>
</g>
<!-- Node10 -->
<g id="Node000010" class="node">
<title>Node10</title>
<g id="a_Node000010"><a xlink:href="namespacem__eos.html#a7ba17e1c8ce6dd3120ae00e70e7f348c" target="_top" xlink:title="c^2 = [((Gamma + 1) p + Pi)/rho &#45; dPi/drho &#45; p dGamma/drho]/Gamma, the frozen speed of one phase.">
<polygon fill="white" stroke="#666666" points="1208,-132 1043,-132 1043,-113 1208,-113 1208,-132"/>
<text text-anchor="middle" x="1125.5" y="-120" font-family="Helvetica,sans-Serif" font-size="10.00">m_eos::f_c2_from_coefficients</text>
</a>
</g>
</g>
<!-- Node9&#45;&gt;Node10 -->
<g id="edge9_Node000009_Node000010" class="edge">
<title>Node9&#45;&gt;Node10</title>
<g id="a_edge9_Node000009_Node000010"><a xlink:title=" ">
<path fill="none" stroke="#63b8ff" d="M1007.39,-121.82C1015.52,-121.87 1024.08,-121.92 1032.71,-121.97"/>
<polygon fill="#63b8ff" stroke="#63b8ff" points="1032.84,-125.47 1042.86,-122.03 1032.88,-118.47 1032.84,-125.47"/>
</a>
</g>
</g>
<!-- Node11 -->
<g id="Node000011" class="node">
<title>Node11</title>
<g id="a_Node000011"><a xlink:href="namespacem__eos.html#a830442f3aea423d7d72ee1b24c9bf6da" target="_top" xlink:title="Gamma, Pi, dPi/drho and dGamma/drho of fluid i at density rho, the coefficients of rho e = Gamma p + ...">
<polygon fill="white" stroke="#666666" points="1197.5,-95 1053.5,-95 1053.5,-76 1197.5,-76 1197.5,-95"/>
<text text-anchor="middle" x="1125.5" y="-83" font-family="Helvetica,sans-Serif" font-size="10.00">m_eos::s_eos_coefficients</text>
</a>
</g>
</g>
<!-- Node9&#45;&gt;Node11 -->
<g id="edge10_Node000009_Node000011" class="edge">
<title>Node9&#45;&gt;Node11</title>
<g id="a_edge10_Node000009_Node000011"><a xlink:title=" ">
<path fill="none" stroke="#63b8ff" d="M998.14,-111.95C1019.9,-107.39 1046.12,-101.91 1069.02,-97.11"/>
<polygon fill="#63b8ff" stroke="#63b8ff" points="1069.87,-100.51 1078.94,-95.03 1068.44,-93.66 1069.87,-100.51"/>
</a>
</g>
</g>
<!-- Node11&#45;&gt;Node5 -->
<g id="edge11_Node000011_Node000005" class="edge">
<title>Node11&#45;&gt;Node5</title>
<g id="a_edge11_Node000011_Node000005"><a xlink:title=" ">
<path fill="none" stroke="#63b8ff" d="M1197.54,-78.61C1209.26,-77.48 1221.55,-76.29 1233.64,-75.11"/>
<polygon fill="#63b8ff" stroke="#63b8ff" points="1234.13,-78.58 1243.75,-74.13 1233.45,-71.62 1234.13,-78.58"/>
</a>
</g>
</g>
<!-- Node11&#45;&gt;Node6 -->
<g id="edge12_Node000011_Node000006" class="edge">
<title>Node11&#45;&gt;Node6</title>
<g id="a_edge12_Node000011_Node000006"><a xlink:title=" ">
<path fill="none" stroke="#63b8ff" d="M1175.72,-95.08C1186.49,-97.7 1197.73,-100.85 1208,-104.5 1235.36,-114.24 1264.76,-128.71 1286.92,-140.5"/>
<polygon fill="#63b8ff" stroke="#63b8ff" points="1285.49,-143.71 1295.95,-145.37 1288.81,-137.54 1285.49,-143.71"/>
</a>
</g>
</g>
<!-- Node13 -->
<g id="Node000013" class="node">
<title>Node13</title>
<g id="a_Node000013"><a xlink:href="namespacem__eos.html#a4c55300199ee4b80bfeb5446427c64ee" target="_top" xlink:title="Coefficients of phase i at its own density alpha_rho/alpha: the per&#45;cell dispatch when some fluid&#39;s E...">
<polygon fill="white" stroke="#666666" points="709,-19 553,-19 553,0 709,0 709,-19"/>
<text text-anchor="middle" x="631" y="-7" font-family="Helvetica,sans-Serif" font-size="10.00">m_eos::s_phase_coefficients</text>
</a>
</g>
</g>
<!-- Node12&#45;&gt;Node13 -->
<g id="edge15_Node000012_Node000013" class="edge">
<title>Node12&#45;&gt;Node13</title>
<g id="a_edge15_Node000012_Node000013"><a xlink:title=" ">
<path fill="none" stroke="#63b8ff" d="M320.15,-41.69C383.94,-35.06 475.55,-25.55 542.61,-18.58"/>
<polygon fill="#63b8ff" stroke="#63b8ff" points="543.15,-22.04 552.74,-17.53 542.43,-15.08 543.15,-22.04"/>
</a>
</g>
</g>
<!-- Node13&#45;&gt;Node11 -->
<g id="edge16_Node000013_Node000011" class="edge">
<title>Node13&#45;&gt;Node11</title>
<g id="a_edge16_Node000013_Node000011"><a xlink:title=" ">
<path fill="none" stroke="#63b8ff" d="M693.88,-19.05C785.33,-33.16 956.15,-59.52 1052.89,-74.45"/>
<polygon fill="#63b8ff" stroke="#63b8ff" points="1052.46,-77.92 1062.88,-75.99 1053.53,-71.01 1052.46,-77.92"/>
</a>
</g>
</g>
</g>
</svg>
