<?xml version="1.0" encoding="UTF-8" standalone="no"?>
<!DOCTYPE svg PUBLIC "-//W3C//DTD SVG 1.1//EN"
 "http://www.w3.org/Graphics/SVG/1.1/DTD/svg11.dtd">
<!-- Generated by graphviz version 2.43.0 (0)
 -->
<!-- Title: m_ibm::s_update_mib Pages: 1 -->
<svg width="346pt" height="268pt"
 viewBox="0.00 0.00 346.00 267.50" xmlns="http://www.w3.org/2000/svg" xmlns:xlink="http://www.w3.org/1999/xlink">
<g id="graph0" class="graph" transform="scale(1 1) rotate(0) translate(4 263.5)">
<title>m_ibm::s_update_mib</title>
<!-- Node1 -->
<g id="Node000001" class="node">
<title>Node1</title>
<g id="a_Node000001"><a xlink:title="Resets the current indexes of immersed boundaries and replaces them after updating the position of ea...">
<polygon fill="#999999" stroke="#666666" points="125,-134 0,-134 0,-115 125,-115 125,-134"/>
<text text-anchor="middle" x="62.5" y="-122" font-family="Helvetica,sans-Serif" font-size="10.00">m_ibm::s_update_mib</text>
</a>
</g>
</g>
<!-- Node2 -->
<g id="Node000002" class="node">
<title>Node2</title>
<g id="a_Node000002"><a xlink:href="namespacem__ibm.html#ab7a568a7c20d763f353f319f4fa5beba" target="_top" xlink:title="Function that computes the image points for each ghost point.">
<polygon fill="white" stroke="#666666" points="322.5,-259.5 176.5,-259.5 176.5,-229.5 322.5,-229.5 322.5,-259.5"/>
<text text-anchor="start" x="184.5" y="-247.5" font-family="Helvetica,sans-Serif" font-size="10.00">m_ibm::s_compute_image</text>
<text text-anchor="middle" x="249.5" y="-236.5" font-family="Helvetica,sans-Serif" font-size="10.00">_points</text>
</a>
</g>
</g>
<!-- Node1&#45;&gt;Node2 -->
<g id="edge1_Node000001_Node000002" class="edge">
<title>Node1&#45;&gt;Node2</title>
<g id="a_edge1_Node000001_Node000002"><a xlink:title=" ">
<path fill="none" stroke="#63b8ff" d="M70.41,-134.02C84.94,-153.33 120.66,-197.26 161,-220.5 164.03,-222.24 167.18,-223.86 170.43,-225.37"/>
<polygon fill="#63b8ff" stroke="#63b8ff" points="169.19,-228.65 179.77,-229.33 171.92,-222.2 169.19,-228.65"/>
</a>
</g>
</g>
<!-- Node3 -->
<g id="Node000003" class="node">
<title>Node3</title>
<g id="a_Node000003"><a xlink:href="namespacem__ibm.html#a3d1e00a7ccc9e6016f14d294bf0f29f5" target="_top" xlink:title="Function that computes the interpolation coefficients of image points.">
<polygon fill="white" stroke="#666666" points="338,-211.5 161,-211.5 161,-181.5 338,-181.5 338,-211.5"/>
<text text-anchor="start" x="169" y="-199.5" font-family="Helvetica,sans-Serif" font-size="10.00">m_ibm::s_compute_interpolation</text>
<text text-anchor="middle" x="249.5" y="-188.5" font-family="Helvetica,sans-Serif" font-size="10.00">_coeffs</text>
</a>
</g>
</g>
<!-- Node1&#45;&gt;Node3 -->
<g id="edge2_Node000001_Node000003" class="edge">
<title>Node1&#45;&gt;Node3</title>
<g id="a_edge2_Node000001_Node000003"><a xlink:title=" ">
<path fill="none" stroke="#63b8ff" d="M80.32,-134.01C99.41,-144.51 131.72,-161.39 161,-172.5 166.47,-174.58 172.2,-176.55 177.99,-178.42"/>
<polygon fill="#63b8ff" stroke="#63b8ff" points="177.18,-181.83 187.77,-181.45 179.25,-175.15 177.18,-181.83"/>
</a>
</g>
</g>
<!-- Node4 -->
<g id="Node000004" class="node">
<title>Node4</title>
<g id="a_Node000004"><a xlink:href="namespacem__ibm.html#a07a2684834c77cdbad742523f3e9595e" target="_top" xlink:title="Function that finds the ghost points.">
<polygon fill="white" stroke="#666666" points="308,-163.5 191,-163.5 191,-133.5 308,-133.5 308,-163.5"/>
<text text-anchor="start" x="199" y="-151.5" font-family="Helvetica,sans-Serif" font-size="10.00">m_ibm::s_find_ghost</text>
<text text-anchor="middle" x="249.5" y="-140.5" font-family="Helvetica,sans-Serif" font-size="10.00">_points</text>
</a>
</g>
</g>
<!-- Node1&#45;&gt;Node4 -->
<g id="edge3_Node000001_Node000004" class="edge">
<title>Node1&#45;&gt;Node4</title>
<g id="a_edge3_Node000001_Node000004"><a xlink:title=" ">
<path fill="none" stroke="#63b8ff" d="M125.1,-132.49C143.02,-134.82 162.68,-137.37 180.94,-139.74"/>
<polygon fill="#63b8ff" stroke="#63b8ff" points="180.55,-143.21 190.92,-141.03 181.45,-136.27 180.55,-143.21"/>
</a>
</g>
</g>
<!-- Node5 -->
<g id="Node000005" class="node">
<title>Node5</title>
<g id="a_Node000005"><a xlink:href="namespacem__ibm.html#af2b72bc0406b46fc132d4087d602aadc" target="_top" xlink:title="Function that finds the number of ghost points, used for allocating memory.">
<polygon fill="white" stroke="#666666" points="321.5,-115.5 177.5,-115.5 177.5,-85.5 321.5,-85.5 321.5,-115.5"/>
<text text-anchor="start" x="185.5" y="-103.5" font-family="Helvetica,sans-Serif" font-size="10.00">m_ibm::s_find_num_ghost</text>
<text text-anchor="middle" x="249.5" y="-92.5" font-family="Helvetica,sans-Serif" font-size="10.00">_points</text>
</a>
</g>
</g>
<!-- Node1&#45;&gt;Node5 -->
<g id="edge4_Node000001_Node000005" class="edge">
<title>Node1&#45;&gt;Node5</title>
<g id="a_edge4_Node000001_Node000005"><a xlink:title=" ">
<path fill="none" stroke="#63b8ff" d="M125.1,-116.51C138.55,-114.76 152.98,-112.89 167.07,-111.06"/>
<polygon fill="#63b8ff" stroke="#63b8ff" points="167.78,-114.5 177.24,-109.74 166.88,-107.56 167.78,-114.5"/>
</a>
</g>
</g>
<!-- Node6 -->
<g id="Node000006" class="node">
<title>Node6</title>
<g id="a_Node000006"><a xlink:href="namespacem__ibm.html#a38f37eda1ee706319633cd6aa3b7c613" target="_top" xlink:title=" ">
<polygon fill="white" stroke="#666666" points="311.5,-67.5 187.5,-67.5 187.5,-37.5 311.5,-37.5 311.5,-67.5"/>
<text text-anchor="start" x="195.5" y="-55.5" font-family="Helvetica,sans-Serif" font-size="10.00">m_ibm::s_populate_ib</text>
<text text-anchor="middle" x="249.5" y="-44.5" font-family="Helvetica,sans-Serif" font-size="10.00">_buffers</text>
</a>
</g>
</g>
<!-- Node1&#45;&gt;Node6 -->
<g id="edge5_Node000001_Node000006" class="edge">
<title>Node1&#45;&gt;Node6</title>
<g id="a_edge5_Node000001_Node000006"><a xlink:title=" ">
<path fill="none" stroke="#63b8ff" d="M80.32,-114.99C99.41,-104.49 131.72,-87.61 161,-76.5 166.47,-74.42 172.2,-72.45 177.99,-70.58"/>
<polygon fill="#63b8ff" stroke="#63b8ff" points="179.25,-73.85 187.77,-67.55 177.18,-67.17 179.25,-73.85"/>
</a>
</g>
</g>
<!-- Node7 -->
<g id="Node000007" class="node">
<title>Node7</title>
<g id="a_Node000007"><a xlink:href="namespacem__ibm.html#aae8f5a5463a337fd8ebc9a0e5e2d4ac9" target="_top" xlink:title="Subroutine the updates the moving imersed boundary positions via Euler&#39;s method.">
<polygon fill="white" stroke="#666666" points="319.5,-19 179.5,-19 179.5,0 319.5,0 319.5,-19"/>
<text text-anchor="middle" x="249.5" y="-7" font-family="Helvetica,sans-Serif" font-size="10.00">m_ibm::s_propagate_mib</text>
</a>
</g>
</g>
<!-- Node1&#45;&gt;Node7 -->
<g id="edge6_Node000001_Node000007" class="edge">
<title>Node1&#45;&gt;Node7</title>
<g id="a_edge6_Node000001_Node000007"><a xlink:title=" ">
<path fill="none" stroke="#63b8ff" d="M70.31,-114.8C84.65,-95.16 120.04,-50.65 161,-28.5 165.3,-26.17 169.87,-24.13 174.57,-22.34"/>
<polygon fill="#63b8ff" stroke="#63b8ff" points="176.03,-25.54 184.37,-19 173.77,-18.91 176.03,-25.54"/>
</a>
</g>
</g>
</g>
</svg>
