<?xml version="1.0" encoding="UTF-8" standalone="no"?>
<!DOCTYPE svg PUBLIC "-//W3C//DTD SVG 1.1//EN"
 "http://www.w3.org/Graphics/SVG/1.1/DTD/svg11.dtd">
<!-- Generated by graphviz version 2.43.0 (0)
 -->
<!-- Title: m_compile_specific::my_inquire Pages: 1 -->
<svg width="702pt" height="253pt"
 viewBox="0.00 0.00 702.00 253.12" xmlns="http://www.w3.org/2000/svg" xmlns:xlink="http://www.w3.org/1999/xlink">
<g id="graph0" class="graph" transform="scale(1 1) rotate(0) translate(4 249.12)">
<title>m_compile_specific::my_inquire</title>
<!-- Node1 -->
<g id="Node000001" class="node">
<title>Node1</title>
<g id="a_Node000001"><a xlink:title="Inquires on the existence of a directory.">
<polygon fill="#999999" stroke="#666666" points="694,-162.12 581,-162.12 581,-132.12 694,-132.12 694,-162.12"/>
<text text-anchor="start" x="589" y="-150.12" font-family="Helvetica,sans-Serif" font-size="10.00">m_compile_specific</text>
<text text-anchor="middle" x="637.5" y="-139.12" font-family="Helvetica,sans-Serif" font-size="10.00">::my_inquire</text>
</a>
</g>
</g>
<!-- Node2 -->
<g id="Node000002" class="node">
<title>Node2</title>
<g id="a_Node000002"><a xlink:href="namespacem__start__up.html#aba056c17994ffb88cd1effa3adb95789" target="_top" xlink:title="The goal of this procedure is to verify that each of the user provided inputs is valid and that their...">
<polygon fill="white" stroke="#666666" points="542.5,-245.12 426.5,-245.12 426.5,-215.12 542.5,-215.12 542.5,-245.12"/>
<text text-anchor="start" x="434.5" y="-233.12" font-family="Helvetica,sans-Serif" font-size="10.00">m_start_up::s_check</text>
<text text-anchor="middle" x="484.5" y="-222.12" font-family="Helvetica,sans-Serif" font-size="10.00">_input_file</text>
</a>
</g>
</g>
<!-- Node1&#45;&gt;Node2 -->
<g id="edge1_Node000001_Node000002" class="edge">
<title>Node1&#45;&gt;Node2</title>
<g id="a_edge1_Node000001_Node000002"><a xlink:title=" ">
<path fill="none" stroke="#63b8ff" d="M600.08,-167.14C573.24,-181.89 537.32,-201.64 512.9,-215.06"/>
<polygon fill="#63b8ff" stroke="#63b8ff" points="602.08,-170.04 609.16,-162.15 598.71,-163.9 602.08,-170.04"/>
</a>
</g>
</g>
<!-- Node5 -->
<g id="Node000005" class="node">
<title>Node5</title>
<g id="a_Node000005"><a xlink:href="namespacem__start__up.html#abd3c3fd9fbb80ef2ddaf82945c1c1af9" target="_top" xlink:title=" ">
<polygon fill="white" stroke="#666666" points="376.5,-209.12 266.5,-209.12 266.5,-179.12 376.5,-179.12 376.5,-209.12"/>
<text text-anchor="start" x="274.5" y="-197.12" font-family="Helvetica,sans-Serif" font-size="10.00">m_start_up::s_read</text>
<text text-anchor="middle" x="321.5" y="-186.12" font-family="Helvetica,sans-Serif" font-size="10.00">_serial_data_files</text>
</a>
</g>
</g>
<!-- Node1&#45;&gt;Node5 -->
<g id="edge4_Node000001_Node000005" class="edge">
<title>Node1&#45;&gt;Node5</title>
<g id="a_edge4_Node000001_Node000005"><a xlink:title=" ">
<path fill="none" stroke="#63b8ff" d="M570.64,-156.98C513.08,-165.6 430.52,-177.95 376.71,-186.01"/>
<polygon fill="#63b8ff" stroke="#63b8ff" points="571.35,-160.41 580.72,-155.47 570.32,-153.49 571.35,-160.41"/>
</a>
</g>
</g>
<!-- Node7 -->
<g id="Node000007" class="node">
<title>Node7</title>
<g id="a_Node000007"><a xlink:href="m__data__output_8fpp_8f90.html#a694588474e2bd0e0b68d5dcb12a2598c" target="_top" xlink:title="The goal of this subroutine is to output the grid and conservative variables data files for given tim...">
<polygon fill="white" stroke="#666666" points="545,-77.12 424,-77.12 424,-47.12 545,-47.12 545,-77.12"/>
<text text-anchor="start" x="432" y="-65.12" font-family="Helvetica,sans-Serif" font-size="10.00">s_write_parallel_data</text>
<text text-anchor="middle" x="484.5" y="-54.12" font-family="Helvetica,sans-Serif" font-size="10.00">_files</text>
</a>
</g>
</g>
<!-- Node1&#45;&gt;Node7 -->
<g id="edge7_Node000001_Node000007" class="edge">
<title>Node1&#45;&gt;Node7</title>
<g id="a_edge7_Node000001_Node000007"><a xlink:title=" ">
<path fill="none" stroke="#63b8ff" d="M601.06,-127.17C573.94,-111.91 537.11,-91.18 512.39,-77.26"/>
<polygon fill="#63b8ff" stroke="#63b8ff" points="599.42,-130.27 609.85,-132.12 602.85,-124.17 599.42,-130.27"/>
</a>
</g>
</g>
<!-- Node10 -->
<g id="Node000010" class="node">
<title>Node10</title>
<g id="a_Node000010"><a xlink:href="m__data__output_8fpp_8f90.html#a9bfd1f9d59388f2294e049bcabe09692" target="_top" xlink:title="The goal of this subroutine is to output the grid and conservative variables data files for given tim...">
<polygon fill="white" stroke="#666666" points="540,-141.12 429,-141.12 429,-111.12 540,-111.12 540,-141.12"/>
<text text-anchor="start" x="437" y="-129.12" font-family="Helvetica,sans-Serif" font-size="10.00">s_write_serial_data</text>
<text text-anchor="middle" x="484.5" y="-118.12" font-family="Helvetica,sans-Serif" font-size="10.00">_files</text>
</a>
</g>
</g>
<!-- Node1&#45;&gt;Node10 -->
<g id="edge13_Node000001_Node000010" class="edge">
<title>Node1&#45;&gt;Node10</title>
<g id="a_edge13_Node000001_Node000010"><a xlink:title=" ">
<path fill="none" stroke="#63b8ff" d="M570.61,-137.96C560.41,-136.54 549.98,-135.09 540.06,-133.71"/>
<polygon fill="#63b8ff" stroke="#63b8ff" points="570.32,-141.45 580.7,-139.36 571.28,-134.52 570.32,-141.45"/>
</a>
</g>
</g>
<!-- Node3 -->
<g id="Node000003" class="node">
<title>Node3</title>
<g id="a_Node000003"><a xlink:href="namespacem__start__up.html#a90f45019dd8a980f2ea3fe2c5b83df6c" target="_top" xlink:title=" ">
<polygon fill="white" stroke="#666666" points="219,-233.12 89,-233.12 89,-203.12 219,-203.12 219,-233.12"/>
<text text-anchor="start" x="97" y="-221.12" font-family="Helvetica,sans-Serif" font-size="10.00">m_start_up::s_initialize</text>
<text text-anchor="middle" x="154" y="-210.12" font-family="Helvetica,sans-Serif" font-size="10.00">_mpi_domain</text>
</a>
</g>
</g>
<!-- Node2&#45;&gt;Node3 -->
<g id="edge2_Node000002_Node000003" class="edge">
<title>Node2&#45;&gt;Node3</title>
<g id="a_edge2_Node000002_Node000003"><a xlink:title=" ">
<path fill="none" stroke="#63b8ff" d="M416.17,-227.66C358.46,-225.56 275.91,-222.54 219.15,-220.47"/>
<polygon fill="#63b8ff" stroke="#63b8ff" points="416.16,-231.17 426.28,-228.03 416.41,-224.17 416.16,-231.17"/>
</a>
</g>
</g>
<!-- Node4 -->
<g id="Node000004" class="node">
<title>Node4</title>
<g id="a_Node000004"><a xlink:href="p__main_8fpp_8f90.html#aeec10ee8e2940c953967da3e374e1579" target="_top" xlink:title="Quasi&#45;conservative, shock&#45; and interface&#45; capturing finite&#45;volume scheme for the multicomponent Navie...">
<polygon fill="white" stroke="#666666" points="53,-193.62 0,-193.62 0,-174.62 53,-174.62 53,-193.62"/>
<text text-anchor="middle" x="26.5" y="-181.62" font-family="Helvetica,sans-Serif" font-size="10.00">p_main</text>
</a>
</g>
</g>
<!-- Node3&#45;&gt;Node4 -->
<g id="edge3_Node000003_Node000004" class="edge">
<title>Node3&#45;&gt;Node4</title>
<g id="a_edge3_Node000003_Node000004"><a xlink:title=" ">
<path fill="none" stroke="#63b8ff" d="M87.74,-200.44C75.44,-197.11 63.28,-193.82 53.13,-191.07"/>
<polygon fill="#63b8ff" stroke="#63b8ff" points="87.02,-203.87 97.59,-203.11 88.85,-197.12 87.02,-203.87"/>
</a>
</g>
</g>
<!-- Node6 -->
<g id="Node000006" class="node">
<title>Node6</title>
<g id="a_Node000006"><a xlink:href="namespacem__start__up.html#a14f564f341f1feca9308fe2579e5ced6" target="_top" xlink:title=" ">
<polygon fill="white" stroke="#666666" points="219,-166.12 89,-166.12 89,-136.12 219,-136.12 219,-166.12"/>
<text text-anchor="start" x="97" y="-154.12" font-family="Helvetica,sans-Serif" font-size="10.00">m_start_up::s_initialize</text>
<text text-anchor="middle" x="154" y="-143.12" font-family="Helvetica,sans-Serif" font-size="10.00">_modules</text>
</a>
</g>
</g>
<!-- Node5&#45;&gt;Node6 -->
<g id="edge5_Node000005_Node000006" class="edge">
<title>Node5&#45;&gt;Node6</title>
<g id="a_edge5_Node000005_Node000006"><a xlink:title=" ">
<path fill="none" stroke="#63b8ff" d="M256.54,-177.51C242.21,-173.78 227.09,-169.85 213.02,-166.2"/>
<polygon fill="#63b8ff" stroke="#63b8ff" points="255.75,-180.92 266.31,-180.04 257.51,-174.14 255.75,-180.92"/>
</a>
</g>
</g>
<!-- Node6&#45;&gt;Node4 -->
<g id="edge6_Node000006_Node000004" class="edge">
<title>Node6&#45;&gt;Node4</title>
<g id="a_edge6_Node000006_Node000004"><a xlink:title=" ">
<path fill="none" stroke="#63b8ff" d="M85.98,-168.75C74.34,-171.81 62.91,-174.81 53.28,-177.34"/>
<polygon fill="#63b8ff" stroke="#63b8ff" points="86.98,-172.1 95.76,-166.17 85.2,-165.33 86.98,-172.1"/>
</a>
</g>
</g>
<!-- Node7&#45;&gt;Node6 -->
<g id="edge12_Node000007_Node000006" class="edge">
<title>Node7&#45;&gt;Node6</title>
<g id="a_edge12_Node000007_Node000006"><a xlink:title=" ">
<path fill="none" stroke="#63b8ff" d="M417.9,-79.9C357.13,-96.36 267.74,-120.58 210.45,-136.1"/>
<polygon fill="#63b8ff" stroke="#63b8ff" points="419.04,-83.21 427.77,-77.22 417.21,-76.46 419.04,-83.21"/>
</a>
</g>
</g>
<!-- Node8 -->
<g id="Node000008" class="node">
<title>Node8</title>
<g id="a_Node000008"><a xlink:href="m__data__output_8fpp_8f90.html#a979b8a2cf4215a8122fc461c0512dbba" target="_top" xlink:title=" ">
<polygon fill="white" stroke="#666666" points="215,-47.12 93,-47.12 93,-17.12 215,-17.12 215,-47.12"/>
<text text-anchor="start" x="101" y="-35.12" font-family="Helvetica,sans-Serif" font-size="10.00">__m_data_output_fpp</text>
<text text-anchor="middle" x="154" y="-24.12" font-family="Helvetica,sans-Serif" font-size="10.00">_f90__</text>
</a>
</g>
</g>
<!-- Node7&#45;&gt;Node8 -->
<g id="edge8_Node000007_Node000008" class="edge">
<title>Node7&#45;&gt;Node8</title>
<g id="a_edge8_Node000007_Node000008"><a xlink:title=" ">
<path fill="none" stroke="#63b8ff" d="M455.6,-41.23C437.39,-28.94 412.54,-14.58 388,-8.12 325.86,8.23 251.67,-4.75 203.98,-17.08"/>
<polygon fill="#63b8ff" stroke="#63b8ff" points="453.76,-44.21 463.97,-47.05 457.76,-38.46 453.76,-44.21"/>
</a>
</g>
</g>
<!-- Node9 -->
<g id="Node000009" class="node">
<title>Node9</title>
<g id="a_Node000009"><a xlink:href="m__data__output_8fpp_8f90.html#aed63ecd847eb3b59526ffb4099722532" target="_top" xlink:title="The computation of parameters, the allocation of memory, the association of pointers and/or the execu...">
<polygon fill="white" stroke="#666666" points="388,-47.12 255,-47.12 255,-17.12 388,-17.12 388,-47.12"/>
<text text-anchor="start" x="263" y="-35.12" font-family="Helvetica,sans-Serif" font-size="10.00">s_initialize_data_output</text>
<text text-anchor="middle" x="321.5" y="-24.12" font-family="Helvetica,sans-Serif" font-size="10.00">_module</text>
</a>
</g>
</g>
<!-- Node7&#45;&gt;Node9 -->
<g id="edge9_Node000007_Node000009" class="edge">
<title>Node7&#45;&gt;Node9</title>
<g id="a_edge9_Node000007_Node000009"><a xlink:title=" ">
<path fill="none" stroke="#63b8ff" d="M413.7,-49.12C405.22,-47.54 396.59,-45.93 388.18,-44.36"/>
<polygon fill="#63b8ff" stroke="#63b8ff" points="413.08,-52.56 423.55,-50.95 414.36,-45.68 413.08,-52.56"/>
</a>
</g>
</g>
<!-- Node9&#45;&gt;Node6 -->
<g id="edge11_Node000009_Node000006" class="edge">
<title>Node9&#45;&gt;Node6</title>
<g id="a_edge11_Node000009_Node000006"><a xlink:title=" ">
<path fill="none" stroke="#63b8ff" d="M271.84,-51.58C266.02,-54.51 260.27,-57.71 255,-61.12 221.09,-83.09 187.34,-116.47 169.02,-135.8"/>
<polygon fill="#63b8ff" stroke="#63b8ff" points="273.49,-54.67 281,-47.19 270.47,-48.35 273.49,-54.67"/>
</a>
</g>
</g>
<!-- Node9&#45;&gt;Node8 -->
<g id="edge10_Node000009_Node000008" class="edge">
<title>Node9&#45;&gt;Node8</title>
<g id="a_edge10_Node000009_Node000008"><a xlink:title=" ">
<path fill="none" stroke="#63b8ff" d="M244.41,-32.12C234.55,-32.12 224.57,-32.12 215.02,-32.12"/>
<polygon fill="#63b8ff" stroke="#63b8ff" points="244.61,-35.62 254.61,-32.12 244.61,-28.62 244.61,-35.62"/>
</a>
</g>
</g>
<!-- Node10&#45;&gt;Node6 -->
<g id="edge16_Node000010_Node000006" class="edge">
<title>Node10&#45;&gt;Node6</title>
<g id="a_edge16_Node000010_Node000006"><a xlink:title=" ">
<path fill="none" stroke="#63b8ff" d="M418.77,-131.05C360.93,-135.45 276.67,-141.86 219.05,-146.25"/>
<polygon fill="#63b8ff" stroke="#63b8ff" points="419.18,-134.53 428.89,-130.28 418.65,-127.55 419.18,-134.53"/>
</a>
</g>
</g>
<!-- Node10&#45;&gt;Node8 -->
<g id="edge14_Node000010_Node000008" class="edge">
<title>Node10&#45;&gt;Node8</title>
<g id="a_edge14_Node000010_Node000008"><a xlink:title=" ">
<path fill="none" stroke="#63b8ff" d="M421.09,-108.26C359.31,-90.59 265.78,-63.82 207.65,-47.19"/>
<polygon fill="#63b8ff" stroke="#63b8ff" points="420.14,-111.63 430.72,-111.02 422.07,-104.9 420.14,-111.63"/>
</a>
</g>
</g>
<!-- Node10&#45;&gt;Node9 -->
<g id="edge15_Node000010_Node000009" class="edge">
<title>Node10&#45;&gt;Node9</title>
<g id="a_edge15_Node000010_Node000009"><a xlink:title=" ">
<path fill="none" stroke="#63b8ff" d="M448.71,-105.81C418.52,-88.18 375.51,-63.07 348.3,-47.19"/>
<polygon fill="#63b8ff" stroke="#63b8ff" points="447.23,-109 457.63,-111.02 450.76,-102.96 447.23,-109"/>
</a>
</g>
</g>
</g>
</svg>
