<?xml version="1.0" encoding="UTF-8" standalone="no"?>
<!DOCTYPE svg PUBLIC "-//W3C//DTD SVG 1.1//EN"
 "http://www.w3.org/Graphics/SVG/1.1/DTD/svg11.dtd">
<!-- Generated by graphviz version 2.43.0 (0)
 -->
<!-- Title: m_bubbles::f_cpbw_km Pages: 1 -->
<svg width="658pt" height="134pt"
 viewBox="0.00 0.00 658.00 134.00" xmlns="http://www.w3.org/2000/svg" xmlns:xlink="http://www.w3.org/1999/xlink">
<g id="graph0" class="graph" transform="scale(1 1) rotate(0) translate(4 130)">
<title>m_bubbles::f_cpbw_km</title>
<!-- Node1 -->
<g id="Node000001" class="node">
<title>Node1</title>
<g id="a_Node000001"><a xlink:title="Keller&#45;Miksis bubble wall pressure.">
<polygon fill="#999999" stroke="#666666" points="650,-48.5 519,-48.5 519,-29.5 650,-29.5 650,-48.5"/>
<text text-anchor="middle" x="584.5" y="-36.5" font-family="Helvetica,sans-Serif" font-size="10.00">m_bubbles::f_cpbw_km</text>
</a>
</g>
</g>
<!-- Node1&#45;&gt;Node1 -->
<g id="edge1_Node000001_Node000001" class="edge">
<title>Node1&#45;&gt;Node1</title>
<g id="a_edge1_Node000001_Node000001"><a xlink:title=" ">
<path fill="none" stroke="#63b8ff" d="M615.49,-57.32C614.19,-62.51 603.86,-66.5 584.5,-66.5 555,-66.5 546.47,-57.23 558.91,-48.58"/>
<polygon fill="#63b8ff" stroke="#63b8ff" points="618.32,-55.25 610.09,-48.58 612.37,-58.93 618.32,-55.25"/>
</a>
</g>
</g>
<!-- Node2 -->
<g id="Node000002" class="node">
<title>Node2</title>
<g id="a_Node000002"><a xlink:href="namespacem__bubbles.html#aaf414a5ec7301d71ef8093914fbe6c37" target="_top" xlink:title="Compute the bubble radial acceleration based on the selected bubble model.">
<polygon fill="white" stroke="#666666" points="472.5,-72.5 362.5,-72.5 362.5,-53.5 472.5,-53.5 472.5,-72.5"/>
<text text-anchor="middle" x="417.5" y="-60.5" font-family="Helvetica,sans-Serif" font-size="10.00">m_bubbles::f_rddot</text>
</a>
</g>
</g>
<!-- Node1&#45;&gt;Node2 -->
<g id="edge2_Node000001_Node000002" class="edge">
<title>Node1&#45;&gt;Node2</title>
<g id="a_edge2_Node000001_Node000002"><a xlink:title=" ">
<path fill="none" stroke="#63b8ff" d="M508.65,-49.89C496.52,-51.65 484.17,-53.45 472.66,-55.12"/>
<polygon fill="#63b8ff" stroke="#63b8ff" points="509.37,-53.32 518.76,-48.42 508.36,-46.39 509.37,-53.32"/>
</a>
</g>
</g>
<!-- Node6 -->
<g id="Node000006" class="node">
<title>Node6</title>
<g id="a_Node000006"><a xlink:href="namespacem__riemann__solver__hllc.html#a1aa7ec60f1cdf82447547835d45e1021" target="_top" xlink:title="HLLC Riemann solver with contact restoration, Toro et al. Shock Waves (1994).">
<polygon fill="white" stroke="#666666" points="483,-33 352,-33 352,-3 483,-3 483,-33"/>
<text text-anchor="start" x="360" y="-21" font-family="Helvetica,sans-Serif" font-size="10.00">m_riemann_solver_hllc</text>
<text text-anchor="middle" x="417.5" y="-10" font-family="Helvetica,sans-Serif" font-size="10.00">::s_hllc_riemann_solver</text>
</a>
</g>
</g>
<!-- Node1&#45;&gt;Node6 -->
<g id="edge8_Node000001_Node000006" class="edge">
<title>Node1&#45;&gt;Node6</title>
<g id="a_edge8_Node000001_Node000006"><a xlink:title=" ">
<path fill="none" stroke="#63b8ff" d="M508.76,-29.49C500.18,-28.4 491.48,-27.29 483.05,-26.22"/>
<polygon fill="#63b8ff" stroke="#63b8ff" points="508.4,-32.97 518.76,-30.76 509.28,-26.03 508.4,-32.97"/>
</a>
</g>
</g>
<!-- Node2&#45;&gt;Node2 -->
<g id="edge3_Node000002_Node000002" class="edge">
<title>Node2&#45;&gt;Node2</title>
<g id="a_edge3_Node000002_Node000002"><a xlink:title=" ">
<path fill="none" stroke="#63b8ff" d="M448.11,-81.32C446.83,-86.51 436.63,-90.5 417.5,-90.5 388.35,-90.5 379.93,-81.23 392.22,-72.58"/>
<polygon fill="#63b8ff" stroke="#63b8ff" points="450.98,-79.29 442.78,-72.58 445,-82.94 450.98,-79.29"/>
</a>
</g>
</g>
<!-- Node3 -->
<g id="Node000003" class="node">
<title>Node3</title>
<g id="a_Node000003"><a xlink:href="namespacem__bubbles.html#ada2623f1499c4719141069dcd4f5c5d1" target="_top" xlink:title="Integrate bubble variables over the given time step size, h, using a third&#45;order accurate embedded Ru...">
<polygon fill="white" stroke="#666666" points="316,-126 188,-126 188,-96 316,-96 316,-126"/>
<text text-anchor="start" x="196" y="-114" font-family="Helvetica,sans-Serif" font-size="10.00">m_bubbles::s_advance</text>
<text text-anchor="middle" x="252" y="-103" font-family="Helvetica,sans-Serif" font-size="10.00">_substep</text>
</a>
</g>
</g>
<!-- Node2&#45;&gt;Node3 -->
<g id="edge4_Node000002_Node000003" class="edge">
<title>Node2&#45;&gt;Node3</title>
<g id="a_edge4_Node000002_Node000003"><a xlink:title=" ">
<path fill="none" stroke="#63b8ff" d="M374.06,-75.46C352.74,-81.72 326.74,-89.35 304.31,-95.94"/>
<polygon fill="#63b8ff" stroke="#63b8ff" points="375.2,-78.77 383.81,-72.6 373.23,-72.06 375.2,-78.77"/>
</a>
</g>
</g>
<!-- Node5 -->
<g id="Node000005" class="node">
<title>Node5</title>
<g id="a_Node000005"><a xlink:href="namespacem__bubbles.html#a4b48725a84a60c73af7e378ffc3d3438" target="_top" xlink:title="Choose the initial time step size for the adaptive time stepping routine (See Heirer,...">
<polygon fill="white" stroke="#666666" points="309,-78 195,-78 195,-48 309,-48 309,-78"/>
<text text-anchor="start" x="203" y="-66" font-family="Helvetica,sans-Serif" font-size="10.00">m_bubbles::s_initial</text>
<text text-anchor="middle" x="252" y="-55" font-family="Helvetica,sans-Serif" font-size="10.00">_substep_h</text>
</a>
</g>
</g>
<!-- Node2&#45;&gt;Node5 -->
<g id="edge6_Node000002_Node000005" class="edge">
<title>Node2&#45;&gt;Node5</title>
<g id="a_edge6_Node000002_Node000005"><a xlink:title=" ">
<path fill="none" stroke="#63b8ff" d="M351.92,-63C337.78,-63 322.93,-63 309.16,-63"/>
<polygon fill="#63b8ff" stroke="#63b8ff" points="352.06,-66.5 362.06,-63 352.06,-59.5 352.06,-66.5"/>
</a>
</g>
</g>
<!-- Node4 -->
<g id="Node000004" class="node">
<title>Node4</title>
<g id="a_Node000004"><a xlink:href="namespacem__bubbles.html#a8052fe0b4b286ef9b36667635dceefde" target="_top" xlink:title="Adaptive time stepping routine for subgrid bubbles (See Heirer, E. Hairer S.P.Norsett G....">
<polygon fill="white" stroke="#666666" points="152,-96.5 0,-96.5 0,-77.5 152,-77.5 152,-96.5"/>
<text text-anchor="middle" x="76" y="-84.5" font-family="Helvetica,sans-Serif" font-size="10.00">m_bubbles::f_advance_step</text>
</a>
</g>
</g>
<!-- Node3&#45;&gt;Node4 -->
<g id="edge5_Node000003_Node000004" class="edge">
<title>Node3&#45;&gt;Node4</title>
<g id="a_edge5_Node000003_Node000004"><a xlink:title=" ">
<path fill="none" stroke="#63b8ff" d="M177.75,-100.9C167.28,-99.45 156.53,-97.97 146.14,-96.54"/>
<polygon fill="#63b8ff" stroke="#63b8ff" points="177.31,-104.37 187.69,-102.27 178.26,-97.43 177.31,-104.37"/>
</a>
</g>
</g>
<!-- Node5&#45;&gt;Node4 -->
<g id="edge7_Node000005_Node000004" class="edge">
<title>Node5&#45;&gt;Node4</title>
<g id="a_edge7_Node000005_Node000004"><a xlink:title=" ">
<path fill="none" stroke="#63b8ff" d="M184.94,-72.11C172.2,-73.87 158.84,-75.71 146.01,-77.48"/>
<polygon fill="#63b8ff" stroke="#63b8ff" points="185.56,-75.56 194.99,-70.73 184.6,-68.63 185.56,-75.56"/>
</a>
</g>
</g>
<!-- Node7 -->
<g id="Node000007" class="node">
<title>Node7</title>
<g id="a_Node000007"><a xlink:href="namespacem__riemann__solvers.html#a8d00c5352ee6b6f1628cde6d34ad5e08" target="_top" xlink:title="Dispatch to the subroutines that are utilized to compute the Riemann problem solution....">
<polygon fill="white" stroke="#666666" points="311.5,-30 192.5,-30 192.5,0 311.5,0 311.5,-30"/>
<text text-anchor="start" x="200.5" y="-18" font-family="Helvetica,sans-Serif" font-size="10.00">m_riemann_solvers::</text>
<text text-anchor="middle" x="252" y="-7" font-family="Helvetica,sans-Serif" font-size="10.00">s_riemann_solver</text>
</a>
</g>
</g>
<!-- Node6&#45;&gt;Node7 -->
<g id="edge9_Node000006_Node000007" class="edge">
<title>Node6&#45;&gt;Node7</title>
<g id="a_edge9_Node000006_Node000007"><a xlink:title=" ">
<path fill="none" stroke="#63b8ff" d="M341.81,-16.63C331.67,-16.44 321.38,-16.25 311.58,-16.07"/>
<polygon fill="#63b8ff" stroke="#63b8ff" points="341.82,-20.13 351.88,-16.81 341.95,-13.13 341.82,-20.13"/>
</a>
</g>
</g>
</g>
</svg>
