<?xml version="1.0" encoding="UTF-8" standalone="no"?>
<!DOCTYPE svg PUBLIC "-//W3C//DTD SVG 1.1//EN"
 "http://www.w3.org/Graphics/SVG/1.1/DTD/svg11.dtd">
<!-- Generated by graphviz version 2.43.0 (0)
 -->
<!-- Title: m_start_up::s_check_input_file Pages: 1 -->
<svg width="619pt" height="278pt"
 viewBox="0.00 0.00 619.00 278.00" xmlns="http://www.w3.org/2000/svg" xmlns:xlink="http://www.w3.org/1999/xlink">
<g id="graph0" class="graph" transform="scale(1 1) rotate(0) translate(4 274)">
<title>m_start_up::s_check_input_file</title>
<!-- Node1 -->
<g id="Node000001" class="node">
<title>Node1</title>
<g id="a_Node000001"><a xlink:title="The goal of this procedure is to verify that each of the user provided inputs is valid and that their...">
<polygon fill="#999999" stroke="#666666" points="116,-126 0,-126 0,-96 116,-96 116,-126"/>
<text text-anchor="start" x="8" y="-114" font-family="Helvetica,sans-Serif" font-size="10.00">m_start_up::s_check</text>
<text text-anchor="middle" x="58" y="-103" font-family="Helvetica,sans-Serif" font-size="10.00">_input_file</text>
</a>
</g>
</g>
<!-- Node2 -->
<g id="Node000002" class="node">
<title>Node2</title>
<g id="a_Node000002"><a xlink:href="namespacem__compile__specific.html#a9cf8c029e502931415929734c03f340d" target="_top" xlink:title="Inquires on the existence of a directory.">
<polygon fill="white" stroke="#666666" points="275.5,-198 162.5,-198 162.5,-168 275.5,-168 275.5,-198"/>
<text text-anchor="start" x="170.5" y="-186" font-family="Helvetica,sans-Serif" font-size="10.00">m_compile_specific</text>
<text text-anchor="middle" x="219" y="-175" font-family="Helvetica,sans-Serif" font-size="10.00">::my_inquire</text>
</a>
</g>
</g>
<!-- Node1&#45;&gt;Node2 -->
<g id="edge1_Node000001_Node000002" class="edge">
<title>Node1&#45;&gt;Node2</title>
<g id="a_edge1_Node000001_Node000002"><a xlink:title=" ">
<path fill="none" stroke="#63b8ff" d="M85.82,-126C104.17,-135.97 129.2,-149.02 152,-159 156.07,-160.78 160.31,-162.54 164.61,-164.25"/>
<polygon fill="#63b8ff" stroke="#63b8ff" points="163.43,-167.55 174.02,-167.9 165.96,-161.02 163.43,-167.55"/>
</a>
</g>
</g>
<!-- Node3 -->
<g id="Node000003" class="node">
<title>Node3</title>
<g id="a_Node000003"><a xlink:href="namespacem__checker.html#a214e05cb46bc7c3e0dbe55fdc433c072" target="_top" xlink:title="Checks compatibility of parameters in the input file. Used by the simulation stage.">
<polygon fill="white" stroke="#666666" points="276,-150 162,-150 162,-120 276,-120 276,-150"/>
<text text-anchor="start" x="170" y="-138" font-family="Helvetica,sans-Serif" font-size="10.00">m_checker::s_check</text>
<text text-anchor="middle" x="219" y="-127" font-family="Helvetica,sans-Serif" font-size="10.00">_inputs</text>
</a>
</g>
</g>
<!-- Node1&#45;&gt;Node3 -->
<g id="edge2_Node000001_Node000003" class="edge">
<title>Node1&#45;&gt;Node3</title>
<g id="a_edge2_Node000001_Node000003"><a xlink:title=" ">
<path fill="none" stroke="#63b8ff" d="M116.4,-119.66C127.82,-121.39 139.9,-123.21 151.6,-124.98"/>
<polygon fill="#63b8ff" stroke="#63b8ff" points="151.34,-128.48 161.75,-126.51 152.38,-121.56 151.34,-128.48"/>
</a>
</g>
</g>
<!-- Node10 -->
<g id="Node000010" class="node">
<title>Node10</title>
<g id="a_Node000010"><a xlink:href="namespacem__checker__common.html#a37b5025d5e6ffafc4cb5f417387c21b8" target="_top" xlink:title="Checks compatibility of parameters in the input file. Used by all three stages.">
<polygon fill="white" stroke="#666666" points="286,-102 152,-102 152,-72 286,-72 286,-102"/>
<text text-anchor="start" x="160" y="-90" font-family="Helvetica,sans-Serif" font-size="10.00">m_checker_common::s</text>
<text text-anchor="middle" x="219" y="-79" font-family="Helvetica,sans-Serif" font-size="10.00">_check_inputs_common</text>
</a>
</g>
</g>
<!-- Node1&#45;&gt;Node10 -->
<g id="edge10_Node000001_Node000010" class="edge">
<title>Node1&#45;&gt;Node10</title>
<g id="a_edge10_Node000001_Node000010"><a xlink:title=" ">
<path fill="none" stroke="#63b8ff" d="M116.4,-102.34C124.65,-101.09 133.24,-99.79 141.78,-98.5"/>
<polygon fill="#63b8ff" stroke="#63b8ff" points="142.4,-101.95 151.76,-97 141.35,-95.03 142.4,-101.95"/>
</a>
</g>
</g>
<!-- Node12 -->
<g id="Node000012" class="node">
<title>Node12</title>
<g id="a_Node000012"><a xlink:href="namespacem__mpi__common.html#a04cfc0bdb377a0ce2f9fd478e4bb3807" target="_top" xlink:title="The subroutine terminates the MPI execution environment.">
<polygon fill="white" stroke="#666666" points="286,-54 152,-54 152,-24 286,-24 286,-54"/>
<text text-anchor="start" x="160" y="-42" font-family="Helvetica,sans-Serif" font-size="10.00">m_mpi_common::s_mpi</text>
<text text-anchor="middle" x="219" y="-31" font-family="Helvetica,sans-Serif" font-size="10.00">_abort</text>
</a>
</g>
</g>
<!-- Node1&#45;&gt;Node12 -->
<g id="edge13_Node000001_Node000012" class="edge">
<title>Node1&#45;&gt;Node12</title>
<g id="a_edge13_Node000001_Node000012"><a xlink:title=" ">
<path fill="none" stroke="#63b8ff" d="M85.82,-96C104.17,-86.03 129.2,-72.98 152,-63 156.07,-61.22 160.31,-59.46 164.61,-57.75"/>
<polygon fill="#63b8ff" stroke="#63b8ff" points="165.96,-60.98 174.02,-54.1 163.43,-54.45 165.96,-60.98"/>
</a>
</g>
</g>
<!-- Node4 -->
<g id="Node000004" class="node">
<title>Node4</title>
<g id="a_Node000004"><a xlink:href="namespacem__checker.html#aae9a516509d46e5ac36d150bb75254f2" target="_top" xlink:title="Checks constraints on compiler options.">
<polygon fill="white" stroke="#666666" points="443,-270 329,-270 329,-240 443,-240 443,-270"/>
<text text-anchor="start" x="337" y="-258" font-family="Helvetica,sans-Serif" font-size="10.00">m_checker::s_check</text>
<text text-anchor="middle" x="386" y="-247" font-family="Helvetica,sans-Serif" font-size="10.00">_inputs_compilers</text>
</a>
</g>
</g>
<!-- Node3&#45;&gt;Node4 -->
<g id="edge3_Node000003_Node000004" class="edge">
<title>Node3&#45;&gt;Node4</title>
<g id="a_edge3_Node000003_Node000004"><a xlink:title=" ">
<path fill="none" stroke="#63b8ff" d="M273.24,-150.13C277.83,-152.66 282.18,-155.59 286,-159 312.71,-182.8 295.47,-206.99 322,-231 323.31,-232.19 324.69,-233.32 326.12,-234.4"/>
<polygon fill="#63b8ff" stroke="#63b8ff" points="324.5,-237.52 334.8,-239.99 328.29,-231.63 324.5,-237.52"/>
</a>
</g>
</g>
<!-- Node5 -->
<g id="Node000005" class="node">
<title>Node5</title>
<g id="a_Node000005"><a xlink:href="namespacem__checker.html#a96654b50668ae39c0b9eca1426a3fe56" target="_top" xlink:title="Validates that the grid resolution is sufficient for the MUSCL reconstruction order.">
<polygon fill="white" stroke="#666666" points="443,-222 329,-222 329,-192 443,-192 443,-222"/>
<text text-anchor="start" x="337" y="-210" font-family="Helvetica,sans-Serif" font-size="10.00">m_checker::s_check</text>
<text text-anchor="middle" x="386" y="-199" font-family="Helvetica,sans-Serif" font-size="10.00">_inputs_muscl</text>
</a>
</g>
</g>
<!-- Node3&#45;&gt;Node5 -->
<g id="edge4_Node000003_Node000005" class="edge">
<title>Node3&#45;&gt;Node5</title>
<g id="a_edge4_Node000003_Node000005"><a xlink:title=" ">
<path fill="none" stroke="#63b8ff" d="M266.05,-150.13C272.85,-152.83 279.69,-155.81 286,-159 303.16,-167.68 304.91,-174.19 322,-183 325.32,-184.71 328.78,-186.37 332.31,-187.95"/>
<polygon fill="#63b8ff" stroke="#63b8ff" points="331.17,-191.27 341.74,-192 333.93,-184.84 331.17,-191.27"/>
</a>
</g>
</g>
<!-- Node7 -->
<g id="Node000007" class="node">
<title>Node7</title>
<g id="a_Node000007"><a xlink:href="namespacem__checker.html#aceda94ae9a006496d062f1e764db5b67" target="_top" xlink:title=" ">
<polygon fill="white" stroke="#666666" points="443,-174 329,-174 329,-144 443,-144 443,-174"/>
<text text-anchor="start" x="337" y="-162" font-family="Helvetica,sans-Serif" font-size="10.00">m_checker::s_check</text>
<text text-anchor="middle" x="386" y="-151" font-family="Helvetica,sans-Serif" font-size="10.00">_inputs_nvidia_uvm</text>
</a>
</g>
</g>
<!-- Node3&#45;&gt;Node7 -->
<g id="edge6_Node000003_Node000007" class="edge">
<title>Node3&#45;&gt;Node7</title>
<g id="a_edge6_Node000003_Node000007"><a xlink:title=" ">
<path fill="none" stroke="#63b8ff" d="M276.32,-143.19C289.99,-145.18 304.74,-147.33 318.82,-149.37"/>
<polygon fill="#63b8ff" stroke="#63b8ff" points="318.53,-152.87 328.93,-150.84 319.54,-145.94 318.53,-152.87"/>
</a>
</g>
</g>
<!-- Node8 -->
<g id="Node000008" class="node">
<title>Node8</title>
<g id="a_Node000008"><a xlink:href="namespacem__checker.html#a2bee59c2049ad8165e2788175b6cd030" target="_top" xlink:title="Checks constraints on time stepping parameters.">
<polygon fill="white" stroke="#666666" points="449.5,-126 322.5,-126 322.5,-96 449.5,-96 449.5,-126"/>
<text text-anchor="start" x="330.5" y="-114" font-family="Helvetica,sans-Serif" font-size="10.00">m_checker::s_check</text>
<text text-anchor="middle" x="386" y="-103" font-family="Helvetica,sans-Serif" font-size="10.00">_inputs_time_stepping</text>
</a>
</g>
</g>
<!-- Node3&#45;&gt;Node8 -->
<g id="edge7_Node000003_Node000008" class="edge">
<title>Node3&#45;&gt;Node8</title>
<g id="a_edge7_Node000003_Node000008"><a xlink:title=" ">
<path fill="none" stroke="#63b8ff" d="M276.32,-126.81C287.92,-125.12 300.29,-123.32 312.37,-121.56"/>
<polygon fill="#63b8ff" stroke="#63b8ff" points="313.03,-125.01 322.42,-120.1 312.02,-118.08 313.03,-125.01"/>
</a>
</g>
</g>
<!-- Node9 -->
<g id="Node000009" class="node">
<title>Node9</title>
<g id="a_Node000009"><a xlink:href="namespacem__checker.html#a8abd19271bbd3a0d8a4b445f1e7dba57" target="_top" xlink:title="Checks constraints on WENO scheme parameters.">
<polygon fill="white" stroke="#666666" points="443,-78 329,-78 329,-48 443,-48 443,-78"/>
<text text-anchor="start" x="337" y="-66" font-family="Helvetica,sans-Serif" font-size="10.00">m_checker::s_check</text>
<text text-anchor="middle" x="386" y="-55" font-family="Helvetica,sans-Serif" font-size="10.00">_inputs_weno</text>
</a>
</g>
</g>
<!-- Node3&#45;&gt;Node9 -->
<g id="edge8_Node000003_Node000009" class="edge">
<title>Node3&#45;&gt;Node9</title>
<g id="a_edge8_Node000003_Node000009"><a xlink:title=" ">
<path fill="none" stroke="#63b8ff" d="M266.05,-119.87C272.85,-117.17 279.69,-114.19 286,-111 303.16,-102.32 304.91,-95.81 322,-87 325.32,-85.29 328.78,-83.63 332.31,-82.05"/>
<polygon fill="#63b8ff" stroke="#63b8ff" points="333.93,-85.16 341.74,-78 331.17,-78.73 333.93,-85.16"/>
</a>
</g>
</g>
<!-- Node6 -->
<g id="Node000006" class="node">
<title>Node6</title>
<g id="a_Node000006"><a xlink:href="namespacem__helper.html#afd343d70a36c65cb7be86a183aa594ac" target="_top" xlink:title="Converts an integer to its trimmed string representation.">
<polygon fill="white" stroke="#666666" points="611,-72.5 486,-72.5 486,-53.5 611,-53.5 611,-72.5"/>
<text text-anchor="middle" x="548.5" y="-60.5" font-family="Helvetica,sans-Serif" font-size="10.00">m_helper::s_int_to_str</text>
</a>
</g>
</g>
<!-- Node5&#45;&gt;Node6 -->
<g id="edge5_Node000005_Node000006" class="edge">
<title>Node5&#45;&gt;Node6</title>
<g id="a_edge5_Node000005_Node000006"><a xlink:title=" ">
<path fill="none" stroke="#63b8ff" d="M434.84,-191.89C440.18,-189.32 445.35,-186.36 450,-183 488.96,-154.82 521.13,-107.33 536.94,-81.34"/>
<polygon fill="#63b8ff" stroke="#63b8ff" points="540.08,-82.91 542.18,-72.52 534.06,-79.33 540.08,-82.91"/>
</a>
</g>
</g>
<!-- Node9&#45;&gt;Node6 -->
<g id="edge9_Node000009_Node000006" class="edge">
<title>Node9&#45;&gt;Node6</title>
<g id="a_edge9_Node000009_Node000006"><a xlink:title=" ">
<path fill="none" stroke="#63b8ff" d="M443.14,-63C453.72,-63 464.93,-63 475.92,-63"/>
<polygon fill="#63b8ff" stroke="#63b8ff" points="475.92,-66.5 485.92,-63 475.92,-59.5 475.92,-66.5"/>
</a>
</g>
</g>
<!-- Node11 -->
<g id="Node000011" class="node">
<title>Node11</title>
<g id="a_Node000011"><a xlink:href="namespacem__checker__common.html#abf7ee76feb76e0dfa1301860374be234" target="_top" xlink:title="Verifies that the total number of grid cells meets the minimum required by the number of dimensions a...">
<polygon fill="white" stroke="#666666" points="450,-30 322,-30 322,0 450,0 450,-30"/>
<text text-anchor="start" x="330" y="-18" font-family="Helvetica,sans-Serif" font-size="10.00">m_checker_common::s</text>
<text text-anchor="middle" x="386" y="-7" font-family="Helvetica,sans-Serif" font-size="10.00">_check_total_cells</text>
</a>
</g>
</g>
<!-- Node10&#45;&gt;Node11 -->
<g id="edge11_Node000010_Node000011" class="edge">
<title>Node10&#45;&gt;Node11</title>
<g id="a_edge11_Node000010_Node000011"><a xlink:title=" ">
<path fill="none" stroke="#63b8ff" d="M266.05,-71.87C272.85,-69.17 279.69,-66.19 286,-63 303.16,-54.32 304.91,-47.81 322,-39 325.32,-37.29 328.78,-35.63 332.31,-34.05"/>
<polygon fill="#63b8ff" stroke="#63b8ff" points="333.93,-37.16 341.74,-30 331.17,-30.73 333.93,-37.16"/>
</a>
</g>
</g>
<!-- Node11&#45;&gt;Node6 -->
<g id="edge12_Node000011_Node000006" class="edge">
<title>Node11&#45;&gt;Node6</title>
<g id="a_edge12_Node000011_Node000006"><a xlink:title=" ">
<path fill="none" stroke="#63b8ff" d="M437.34,-30.06C459.31,-36.62 484.76,-44.24 505.66,-50.49"/>
<polygon fill="#63b8ff" stroke="#63b8ff" points="504.94,-53.92 515.52,-53.44 506.94,-47.22 504.94,-53.92"/>
</a>
</g>
</g>
</g>
</svg>
