<?xml version="1.0" encoding="UTF-8" standalone="no"?>
<!DOCTYPE svg PUBLIC "-//W3C//DTD SVG 1.1//EN"
 "http://www.w3.org/Graphics/SVG/1.1/DTD/svg11.dtd">
<!-- Generated by graphviz version 2.40.1 (20161225.0304)
 -->
<!-- Title: m_start_up::s_populate_grid_variables_buffers Pages: 1 -->
<svg width="208pt" height="44pt"
 viewBox="0.00 0.00 208.00 44.00" xmlns="http://www.w3.org/2000/svg" xmlns:xlink="http://www.w3.org/1999/xlink">
<g id="graph0" class="graph" transform="scale(1 1) rotate(0) translate(4 40)">
<title>m_start_up::s_populate_grid_variables_buffers</title>
<polygon fill="#ffffff" stroke="transparent" points="-4,4 -4,-40 204,-40 204,4 -4,4"/>
<!-- Node25 -->
<g id="node1" class="node">
<title>Node25</title>
<polygon fill="#bfbfbf" stroke="#000000" points="0,-5 0,-31 79,-31 79,-5 0,-5"/>
<text text-anchor="start" x="8" y="-20.6" font-family="Helvetica,sans-Serif" font-size="8.00" fill="#000000">m_start_up::s_populate</text>
<text text-anchor="middle" x="39.5" y="-11.6" font-family="Helvetica,sans-Serif" font-size="8.00" fill="#000000">_grid_variables_buffers</text>
</g>
<!-- Node26 -->
<g id="node2" class="node">
<title>Node26</title>
<g id="a_node2"><a xlink:href="namespacem__mpi__proxy.html#ac348cb6f02f2a9ab70d5c7eac6320231" target="_top" xlink:title="The goal of this procedure is to populate the buffers of the grid variables by communicating with the...">
<polygon fill="#ffffff" stroke="#000000" points="115,-.5 115,-35.5 200,-35.5 200,-.5 115,-.5"/>
<text text-anchor="start" x="123" y="-25.1" font-family="Helvetica,sans-Serif" font-size="8.00" fill="#000000">m_mpi_proxy::s_mpi</text>
<text text-anchor="start" x="123" y="-16.1" font-family="Helvetica,sans-Serif" font-size="8.00" fill="#000000">_sendrecv_grid_variables</text>
<text text-anchor="middle" x="157.5" y="-7.1" font-family="Helvetica,sans-Serif" font-size="8.00" fill="#000000">_buffers</text>
</a>
</g>
</g>
<!-- Node25&#45;&gt;Node26 -->
<g id="edge1" class="edge">
<title>Node25&#45;&gt;Node26</title>
<path fill="none" stroke="#191970" d="M79.1206,-18C87.3977,-18 96.2473,-18 104.9103,-18"/>
<polygon fill="#191970" stroke="#191970" points="104.9488,-21.5001 114.9488,-18 104.9488,-14.5001 104.9488,-21.5001"/>
</g>
</g>
</svg>
