<?xml version="1.0" encoding="UTF-8" standalone="no"?>
<!DOCTYPE svg PUBLIC "-//W3C//DTD SVG 1.1//EN"
 "http://www.w3.org/Graphics/SVG/1.1/DTD/svg11.dtd">
<!-- Generated by graphviz version 2.43.0 (0)
 -->
<!-- Title: m_data_output::s_write_ib_state_file Pages: 1 -->
<svg width="402pt" height="76pt"
 viewBox="0.00 0.00 402.00 75.50" xmlns="http://www.w3.org/2000/svg" xmlns:xlink="http://www.w3.org/1999/xlink">
<g id="graph0" class="graph" transform="scale(1 1) rotate(0) translate(4 71.5)">
<title>m_data_output::s_write_ib_state_file</title>
<!-- Node1 -->
<g id="Node000001" class="node">
<title>Node1</title>
<g id="a_Node000001"><a xlink:title="Writes IB state records to restart_data/ib_state.dat. Must be called only on rank 0.">
<polygon fill="#999999" stroke="#666666" points="394,-45.5 263,-45.5 263,-15.5 394,-15.5 394,-45.5"/>
<text text-anchor="start" x="271" y="-33.5" font-family="Helvetica,sans-Serif" font-size="10.00">m_data_output::s_write</text>
<text text-anchor="middle" x="328.5" y="-22.5" font-family="Helvetica,sans-Serif" font-size="10.00">_ib_state_file</text>
</a>
</g>
</g>
<!-- Node2 -->
<g id="Node000002" class="node">
<title>Node2</title>
<g id="a_Node000002"><a xlink:href="namespacem__start__up.html#a1fb7a3f9d412acd2a9cbcfe8b45006dd" target="_top" xlink:title="Initialize all simulation sub&#45;modules in the required dependency order.">
<polygon fill="white" stroke="#666666" points="223,-67.5 93,-67.5 93,-37.5 223,-37.5 223,-67.5"/>
<text text-anchor="start" x="101" y="-55.5" font-family="Helvetica,sans-Serif" font-size="10.00">m_start_up::s_initialize</text>
<text text-anchor="middle" x="158" y="-44.5" font-family="Helvetica,sans-Serif" font-size="10.00">_modules</text>
</a>
</g>
</g>
<!-- Node1&#45;&gt;Node2 -->
<g id="edge1_Node000001_Node000002" class="edge">
<title>Node1&#45;&gt;Node2</title>
<g id="a_edge1_Node000001_Node000002"><a xlink:title=" ">
<path fill="none" stroke="#63b8ff" d="M252.68,-40.27C242.85,-41.55 232.85,-42.86 223.21,-44.12"/>
<polygon fill="#63b8ff" stroke="#63b8ff" points="253.37,-43.71 262.84,-38.94 252.47,-36.77 253.37,-43.71"/>
</a>
</g>
</g>
<!-- Node4 -->
<g id="Node000004" class="node">
<title>Node4</title>
<g id="a_Node000004"><a xlink:href="namespacem__start__up.html#a47ade6ffcd98aafcccf10910f626142d" target="_top" xlink:title="Save conservative variable data to disk at the current time step.">
<polygon fill="white" stroke="#666666" points="227,-19 89,-19 89,0 227,0 227,-19"/>
<text text-anchor="middle" x="158" y="-7" font-family="Helvetica,sans-Serif" font-size="10.00">m_start_up::s_save_data</text>
</a>
</g>
</g>
<!-- Node1&#45;&gt;Node4 -->
<g id="edge3_Node000001_Node000004" class="edge">
<title>Node1&#45;&gt;Node4</title>
<g id="a_edge3_Node000001_Node000004"><a xlink:title=" ">
<path fill="none" stroke="#63b8ff" d="M252.86,-21.2C244.3,-20.13 235.6,-19.05 227.13,-17.99"/>
<polygon fill="#63b8ff" stroke="#63b8ff" points="252.48,-24.68 262.84,-22.44 253.35,-17.73 252.48,-24.68"/>
</a>
</g>
</g>
<!-- Node3 -->
<g id="Node000003" class="node">
<title>Node3</title>
<g id="a_Node000003"><a xlink:href="p__main_8fpp_8f90.html#aeec10ee8e2940c953967da3e374e1579" target="_top" xlink:title="Quasi&#45;conservative, shock&#45; and interface&#45; capturing finite&#45;volume scheme for the multicomponent Navie...">
<polygon fill="white" stroke="#666666" points="53,-40 0,-40 0,-21 53,-21 53,-40"/>
<text text-anchor="middle" x="26.5" y="-28" font-family="Helvetica,sans-Serif" font-size="10.00">p_main</text>
</a>
</g>
</g>
<!-- Node2&#45;&gt;Node3 -->
<g id="edge2_Node000002_Node000003" class="edge">
<title>Node2&#45;&gt;Node3</title>
<g id="a_edge2_Node000002_Node000003"><a xlink:title=" ">
<path fill="none" stroke="#63b8ff" d="M82.52,-39.85C72.04,-38.07 61.91,-36.35 53.26,-34.88"/>
<polygon fill="#63b8ff" stroke="#63b8ff" points="82.18,-43.34 92.63,-41.56 83.36,-36.44 82.18,-43.34"/>
</a>
</g>
</g>
<!-- Node4&#45;&gt;Node3 -->
<g id="edge4_Node000004_Node000003" class="edge">
<title>Node4&#45;&gt;Node3</title>
<g id="a_edge4_Node000004_Node000003"><a xlink:title=" ">
<path fill="none" stroke="#63b8ff" d="M88.29,-20.64C75.8,-22.67 63.51,-24.66 53.28,-26.32"/>
<polygon fill="#63b8ff" stroke="#63b8ff" points="89,-24.07 98.31,-19.02 87.88,-17.16 89,-24.07"/>
</a>
</g>
</g>
</g>
</svg>
