<?xml version="1.0" encoding="UTF-8" standalone="no"?>
<!DOCTYPE svg PUBLIC "-//W3C//DTD SVG 1.1//EN"
 "http://www.w3.org/Graphics/SVG/1.1/DTD/svg11.dtd">
<!-- Generated by graphviz version 2.43.0 (0)
 -->
<!-- Title: m_start_up::s_initialize_mpi_domain Pages: 1 -->
<!--zoomable 587 -->

<svg id="main" version="1.1" xmlns="http://www.w3.org/2000/svg" xmlns:xlink="http://www.w3.org/1999/xlink" xml:space="preserve" onload="init(evt)">

<style type="text/css"><![CDATA[
.node, .edge {opacity: 0.7;}
.node.selected, .edge.selected {opacity: 1;}
.edge:hover path { stroke: red; }
.edge:hover polygon { stroke: red; fill: red; }
]]></style>

<defs>
  <circle id="rim" cx="0" cy="0" r="7"/>
  <circle id="rim2" cx="0" cy="0" r="3.5"/>
  <g id="zoomPlus">
    <use xlink:href="#rim" fill="#404040"><set attributeName="fill" to="#808080" begin="zoomplus.mouseover" end="zoomplus.mouseout"/></use>
    <path d="M-4,0h8M0,-4v8" fill="none" stroke="white" stroke-width="1.5" pointer-events="none"/>
  </g>
  <g id="zoomMin">
    <use xlink:href="#rim" fill="#404040"><set attributeName="fill" to="#808080" begin="zoomminus.mouseover" end="zoomminus.mouseout"/></use>
    <path d="M-4,0h8" fill="none" stroke="white" stroke-width="1.5" pointer-events="none"/>
  </g>
  <g id="arrowUp" transform="translate(30 24)">
    <use xlink:href="#rim"/>
    <path pointer-events="none" fill="none" stroke="white" stroke-width="1.5" d="M0,-3.0v7 M-2.5,-0.5L0,-3.0L2.5,-0.5"/>
  </g>
  <g id="arrowRight" transform="rotate(90) translate(36 -43)">
    <use xlink:href="#rim"/>
    <path pointer-events="none" fill="none" stroke="white" stroke-width="1.5" d="M0,-3.0v7 M-2.5,-0.5L0,-3.0L2.5,-0.5"/>
  </g>
  <g id="arrowDown" transform="rotate(180) translate(-30 -48)">
    <use xlink:href="#rim"/>
    <path pointer-events="none" fill="none" stroke="white" stroke-width="1.5" d="M0,-3.0v7 M-2.5,-0.5L0,-3.0L2.5,-0.5"/>
  </g>
  <g id="arrowLeft" transform="rotate(270) translate(-36 17)">
    <use xlink:href="#rim"/>
    <path pointer-events="none" fill="none" stroke="white" stroke-width="1.5" d="M0,-3.0v7 M-2.5,-0.5L0,-3.0L2.5,-0.5"/>
  </g>
  <g id="resetDef">
    <use xlink:href="#rim2" fill="#404040"><set attributeName="fill" to="#808080" begin="reset.mouseover" end="reset.mouseout"/></use>
  </g>
</defs>
<script type="application/ecmascript">
var viewWidth = 832;
var viewHeight = 587;
var sectionId = 'dynsection-9';
</script>
<script type="application/ecmascript" xlink:href="svg.min.js"/>
<svg id="graph" class="graph">
<g id="viewport">
<title>m_start_up::s_initialize_mpi_domain</title>
<!-- Node1 -->
<g id="Node000001" class="node">
<title>Node1</title>
<g id="a_Node000001"><a xlink:title="Sets up the MPI execution environment, binds GPUs, and decomposes the computational domain.">
<polygon fill="#999999" stroke="#666666" points="130,-185.5 0,-185.5 0,-155.5 130,-155.5 130,-185.5"/>
<text text-anchor="start" x="8" y="-173.5" font-family="Helvetica,sans-Serif" font-size="10.00">m_start_up::s_initialize</text>
<text text-anchor="middle" x="65" y="-162.5" font-family="Helvetica,sans-Serif" font-size="10.00">_mpi_domain</text>
</a>
</g>
</g>
<!-- Node2 -->
<g id="Node000002" class="node">
<title>Node2</title>
<g id="a_Node000002"><a xlink:href="namespacem__global__parameters.html#a15979aa7789736321146104abdb129ea" target="_top" xlink:title="Assigns default values to the user inputs before reading them in. This enables for an easier consiste...">
<polygon fill="white" stroke="#666666" points="314,-41 172,-41 172,0 314,0 314,-41"/>
<text text-anchor="start" x="180" y="-29" font-family="Helvetica,sans-Serif" font-size="10.00">m_global_parameters</text>
<text text-anchor="start" x="180" y="-18" font-family="Helvetica,sans-Serif" font-size="10.00">::s_assign_default_values</text>
<text text-anchor="middle" x="243" y="-7" font-family="Helvetica,sans-Serif" font-size="10.00">_to_user_inputs</text>
</a>
</g>
</g>
<!-- Node1&#45;&gt;Node2 -->
<g id="edge1_Node000001_Node000002" class="edge">
<title>Node1&#45;&gt;Node2</title>
<g id="a_edge1_Node000001_Node000002"><a xlink:title=" ">
<path fill="none" stroke="#63b8ff" d="M75.17,-155.12C90.86,-130.01 125.12,-80.05 166,-50.5 168.11,-48.97 170.31,-47.51 172.58,-46.11"/>
<polygon fill="#63b8ff" stroke="#63b8ff" points="174.6,-48.99 181.59,-41.02 171.16,-42.89 174.6,-48.99"/>
</a>
</g>
</g>
<!-- Node4 -->
<g id="Node000004" class="node">
<title>Node4</title>
<g id="a_Node000004"><a xlink:href="namespacem__start__up.html#ad26e747c87bb6bcf4c9d6baa21d044c1" target="_top" xlink:title="The goal of this procedure is to verify that each of the user provided inputs is valid and that their...">
<polygon fill="white" stroke="#666666" points="301,-341.5 185,-341.5 185,-311.5 301,-311.5 301,-341.5"/>
<text text-anchor="start" x="193" y="-329.5" font-family="Helvetica,sans-Serif" font-size="10.00">m_start_up::s_check</text>
<text text-anchor="middle" x="243" y="-318.5" font-family="Helvetica,sans-Serif" font-size="10.00">_input_file</text>
</a>
</g>
</g>
<!-- Node1&#45;&gt;Node4 -->
<g id="edge3_Node000001_Node000004" class="edge">
<title>Node1&#45;&gt;Node4</title>
<g id="a_edge3_Node000001_Node000004"><a xlink:title=" ">
<path fill="none" stroke="#63b8ff" d="M73.39,-185.59C87.54,-212.95 121.12,-270.85 166,-302.5 169.06,-304.66 172.33,-306.63 175.72,-308.43"/>
<polygon fill="#63b8ff" stroke="#63b8ff" points="174.41,-311.68 184.94,-312.8 177.4,-305.36 174.41,-311.68"/>
</a>
</g>
</g>
<!-- Node16 -->
<g id="Node000016" class="node">
<title>Node16</title>
<g id="a_Node000016"><a xlink:href="namespacem__global__parameters.html#adb0039acd9b4ff4643a13b87d7b727e7" target="_top" xlink:title="Initializes parallel infrastructure.">
<polygon fill="white" stroke="#666666" points="308.5,-233.5 177.5,-233.5 177.5,-203.5 308.5,-203.5 308.5,-233.5"/>
<text text-anchor="start" x="185.5" y="-221.5" font-family="Helvetica,sans-Serif" font-size="10.00">m_global_parameters</text>
<text text-anchor="middle" x="243" y="-210.5" font-family="Helvetica,sans-Serif" font-size="10.00">::s_initialize_parallel_io</text>
</a>
</g>
</g>
<!-- Node1&#45;&gt;Node16 -->
<g id="edge17_Node000001_Node000016" class="edge">
<title>Node1&#45;&gt;Node16</title>
<g id="a_edge17_Node000001_Node000016"><a xlink:title=" ">
<path fill="none" stroke="#63b8ff" d="M121.2,-185.56C138.98,-190.4 158.84,-195.82 177.23,-200.84"/>
<polygon fill="#63b8ff" stroke="#63b8ff" points="176.42,-204.24 186.99,-203.5 178.26,-197.49 176.42,-204.24"/>
</a>
</g>
</g>
<!-- Node17 -->
<g id="Node000017" class="node">
<title>Node17</title>
<g id="a_Node000017"><a xlink:href="namespacem__mpi__proxy.html#af90ff0c1a1201411176602946199f96c" target="_top" xlink:title="Since only the processor with rank 0 reads and verifies the consistency of user inputs,...">
<polygon fill="white" stroke="#666666" points="302,-185.5 184,-185.5 184,-155.5 302,-155.5 302,-185.5"/>
<text text-anchor="start" x="192" y="-173.5" font-family="Helvetica,sans-Serif" font-size="10.00">m_mpi_proxy::s_mpi</text>
<text text-anchor="middle" x="243" y="-162.5" font-family="Helvetica,sans-Serif" font-size="10.00">_bcast_user_inputs</text>
</a>
</g>
</g>
<!-- Node1&#45;&gt;Node17 -->
<g id="edge18_Node000001_Node000017" class="edge">
<title>Node1&#45;&gt;Node17</title>
<g id="a_edge18_Node000001_Node000017"><a xlink:title=" ">
<path fill="none" stroke="#63b8ff" d="M130.04,-170.5C144.2,-170.5 159.25,-170.5 173.57,-170.5"/>
<polygon fill="#63b8ff" stroke="#63b8ff" points="173.85,-174 183.85,-170.5 173.85,-167 173.85,-174"/>
</a>
</g>
</g>
<!-- Node18 -->
<g id="Node000018" class="node">
<title>Node18</title>
<g id="a_Node000018"><a xlink:href="namespacem__mpi__common.html#afe54fe25c12eda7afe195fbf0fa166fc" target="_top" xlink:title="The purpose of this procedure is to optimally decompose the computational domain among the available ...">
<polygon fill="white" stroke="#666666" points="320,-293 166,-293 166,-252 320,-252 320,-293"/>
<text text-anchor="start" x="174" y="-281" font-family="Helvetica,sans-Serif" font-size="10.00">m_mpi_common::s_mpi</text>
<text text-anchor="start" x="174" y="-270" font-family="Helvetica,sans-Serif" font-size="10.00">_decompose_computational</text>
<text text-anchor="middle" x="243" y="-259" font-family="Helvetica,sans-Serif" font-size="10.00">_domain</text>
</a>
</g>
</g>
<!-- Node1&#45;&gt;Node18 -->
<g id="edge19_Node000001_Node000018" class="edge">
<title>Node1&#45;&gt;Node18</title>
<g id="a_edge19_Node000001_Node000018"><a xlink:title=" ">
<path fill="none" stroke="#63b8ff" d="M84.24,-185.77C103.62,-201.47 135.59,-225.88 166,-242.5 169.24,-244.27 172.61,-245.99 176.04,-247.65"/>
<polygon fill="#63b8ff" stroke="#63b8ff" points="174.71,-250.89 185.25,-251.91 177.65,-244.54 174.71,-250.89"/>
</a>
</g>
</g>
<!-- Node19 -->
<g id="Node000019" class="node">
<title>Node19</title>
<g id="a_Node000019"><a xlink:href="namespacem__mpi__common.html#a150d5a63224d7e80c1290d699fbb5855" target="_top" xlink:title="The subroutine initializes the MPI execution environment and queries both the number of processors wh...">
<polygon fill="white" stroke="#666666" points="310,-89.5 176,-89.5 176,-59.5 310,-59.5 310,-89.5"/>
<text text-anchor="start" x="184" y="-77.5" font-family="Helvetica,sans-Serif" font-size="10.00">m_mpi_common::s_mpi</text>
<text text-anchor="middle" x="243" y="-66.5" font-family="Helvetica,sans-Serif" font-size="10.00">_initialize</text>
</a>
</g>
</g>
<!-- Node1&#45;&gt;Node19 -->
<g id="edge21_Node000001_Node000019" class="edge">
<title>Node1&#45;&gt;Node19</title>
<g id="a_edge21_Node000001_Node000019"><a xlink:title=" ">
<path fill="none" stroke="#63b8ff" d="M83.31,-155.38C102.42,-139.36 134.64,-114.23 166,-98.5 169.58,-96.7 173.33,-95 177.16,-93.4"/>
<polygon fill="#63b8ff" stroke="#63b8ff" points="178.75,-96.54 186.79,-89.64 176.2,-90.02 178.75,-96.54"/>
</a>
</g>
</g>
<!-- Node20 -->
<g id="Node000020" class="node">
<title>Node20</title>
<g id="a_Node000020"><a xlink:href="namespacem__start__up.html#aca5460fc186e7b82ea78484ae98c74a4" target="_top" xlink:title="The purpose of this procedure is to first verify that an input file has been made available by the us...">
<polygon fill="white" stroke="#666666" points="298,-137.5 188,-137.5 188,-107.5 298,-107.5 298,-137.5"/>
<text text-anchor="start" x="196" y="-125.5" font-family="Helvetica,sans-Serif" font-size="10.00">m_start_up::s_read</text>
<text text-anchor="middle" x="243" y="-114.5" font-family="Helvetica,sans-Serif" font-size="10.00">_input_file</text>
</a>
</g>
</g>
<!-- Node1&#45;&gt;Node20 -->
<g id="edge22_Node000001_Node000020" class="edge">
<title>Node1&#45;&gt;Node20</title>
<g id="a_edge22_Node000001_Node000020"><a xlink:title=" ">
<path fill="none" stroke="#63b8ff" d="M121.2,-155.44C139.24,-150.53 159.41,-145.02 178.03,-139.95"/>
<polygon fill="#63b8ff" stroke="#63b8ff" points="179.17,-143.26 187.9,-137.26 177.33,-136.51 179.17,-143.26"/>
</a>
</g>
</g>
<!-- Node3 -->
<g id="Node000003" class="node">
<title>Node3</title>
<g id="a_Node000003"><a xlink:href="namespacem__helper__basic.html#a44b315932234aba936169db4c58e6ce6" target="_top" xlink:title="Updates the min and max number of cells in each set of axes.">
<polygon fill="white" stroke="#666666" points="499,-86.5 356,-86.5 356,-56.5 499,-56.5 499,-86.5"/>
<text text-anchor="start" x="364" y="-74.5" font-family="Helvetica,sans-Serif" font-size="10.00">m_helper_basic::s_update</text>
<text text-anchor="middle" x="427.5" y="-63.5" font-family="Helvetica,sans-Serif" font-size="10.00">_cell_bounds</text>
</a>
</g>
</g>
<!-- Node2&#45;&gt;Node3 -->
<g id="edge2_Node000002_Node000003" class="edge">
<title>Node2&#45;&gt;Node3</title>
<g id="a_edge2_Node000002_Node000003"><a xlink:title=" ">
<path fill="none" stroke="#63b8ff" d="M314.04,-40.07C330.19,-44.58 347.27,-49.36 363.12,-53.79"/>
<polygon fill="#63b8ff" stroke="#63b8ff" points="362.23,-57.18 372.81,-56.5 364.12,-50.43 362.23,-57.18"/>
</a>
</g>
</g>
<!-- Node5 -->
<g id="Node000005" class="node">
<title>Node5</title>
<g id="a_Node000005"><a xlink:href="namespacem__compile__specific.html#a9cf8c029e502931415929734c03f340d" target="_top" xlink:title="Inquires on the existence of a directory.">
<polygon fill="white" stroke="#666666" points="484,-314.5 371,-314.5 371,-284.5 484,-284.5 484,-314.5"/>
<text text-anchor="start" x="379" y="-302.5" font-family="Helvetica,sans-Serif" font-size="10.00">m_compile_specific</text>
<text text-anchor="middle" x="427.5" y="-291.5" font-family="Helvetica,sans-Serif" font-size="10.00">::my_inquire</text>
</a>
</g>
</g>
<!-- Node4&#45;&gt;Node5 -->
<g id="edge4_Node000004_Node000005" class="edge">
<title>Node4&#45;&gt;Node5</title>
<g id="a_edge4_Node000004_Node000005"><a xlink:title=" ">
<path fill="none" stroke="#63b8ff" d="M301.24,-318.03C320.12,-315.24 341.25,-312.11 360.71,-309.23"/>
<polygon fill="#63b8ff" stroke="#63b8ff" points="361.33,-312.68 370.71,-307.75 360.31,-305.76 361.33,-312.68"/>
</a>
</g>
</g>
<!-- Node6 -->
<g id="Node000006" class="node">
<title>Node6</title>
<g id="a_Node000006"><a xlink:href="namespacem__checker.html#a214e05cb46bc7c3e0dbe55fdc433c072" target="_top" xlink:title="Checks compatibility of parameters in the input file. Used by the simulation stage.">
<polygon fill="white" stroke="#666666" points="484.5,-458.5 370.5,-458.5 370.5,-428.5 484.5,-428.5 484.5,-458.5"/>
<text text-anchor="start" x="378.5" y="-446.5" font-family="Helvetica,sans-Serif" font-size="10.00">m_checker::s_check</text>
<text text-anchor="middle" x="427.5" y="-435.5" font-family="Helvetica,sans-Serif" font-size="10.00">_inputs</text>
</a>
</g>
</g>
<!-- Node4&#45;&gt;Node6 -->
<g id="edge5_Node000004_Node000006" class="edge">
<title>Node4&#45;&gt;Node6</title>
<g id="a_edge5_Node000004_Node000006"><a xlink:title=" ">
<path fill="none" stroke="#63b8ff" d="M267.49,-341.56C299.7,-362.21 357.73,-399.41 394.07,-422.71"/>
<polygon fill="#63b8ff" stroke="#63b8ff" points="392.51,-425.87 402.82,-428.32 396.29,-419.97 392.51,-425.87"/>
</a>
</g>
</g>
<!-- Node13 -->
<g id="Node000013" class="node">
<title>Node13</title>
<g id="a_Node000013"><a xlink:href="namespacem__checker__common.html#a37b5025d5e6ffafc4cb5f417387c21b8" target="_top" xlink:title="Checks compatibility of parameters in the input file. Used by all three stages.">
<polygon fill="white" stroke="#666666" points="494.5,-362.5 360.5,-362.5 360.5,-332.5 494.5,-332.5 494.5,-362.5"/>
<text text-anchor="start" x="368.5" y="-350.5" font-family="Helvetica,sans-Serif" font-size="10.00">m_checker_common::s</text>
<text text-anchor="middle" x="427.5" y="-339.5" font-family="Helvetica,sans-Serif" font-size="10.00">_check_inputs_common</text>
</a>
</g>
</g>
<!-- Node4&#45;&gt;Node13 -->
<g id="edge13_Node000004_Node000013" class="edge">
<title>Node4&#45;&gt;Node13</title>
<g id="a_edge13_Node000004_Node000013"><a xlink:title=" ">
<path fill="none" stroke="#63b8ff" d="M301.24,-333.09C316.74,-334.87 333.76,-336.83 350.13,-338.71"/>
<polygon fill="#63b8ff" stroke="#63b8ff" points="349.88,-342.21 360.21,-339.87 350.68,-335.25 349.88,-342.21"/>
</a>
</g>
</g>
<!-- Node15 -->
<g id="Node000015" class="node">
<title>Node15</title>
<g id="a_Node000015"><a xlink:href="namespacem__mpi__common.html#a04cfc0bdb377a0ce2f9fd478e4bb3807" target="_top" xlink:title="The subroutine terminates the MPI execution environment.">
<polygon fill="white" stroke="#666666" points="494.5,-266.5 360.5,-266.5 360.5,-236.5 494.5,-236.5 494.5,-266.5"/>
<text text-anchor="start" x="368.5" y="-254.5" font-family="Helvetica,sans-Serif" font-size="10.00">m_mpi_common::s_mpi</text>
<text text-anchor="middle" x="427.5" y="-243.5" font-family="Helvetica,sans-Serif" font-size="10.00">_abort</text>
</a>
</g>
</g>
<!-- Node4&#45;&gt;Node15 -->
<g id="edge16_Node000004_Node000015" class="edge">
<title>Node4&#45;&gt;Node15</title>
<g id="a_edge16_Node000004_Node000015"><a xlink:title=" ">
<path fill="none" stroke="#63b8ff" d="M299.27,-311.48C306.4,-308.84 313.48,-305.85 320,-302.5 337.79,-293.36 338.31,-284.84 356,-275.5 359.44,-273.68 363.04,-271.96 366.73,-270.34"/>
<polygon fill="#63b8ff" stroke="#63b8ff" points="368.09,-273.57 375.99,-266.51 365.42,-267.1 368.09,-273.57"/>
</a>
</g>
</g>
<!-- Node7 -->
<g id="Node000007" class="node">
<title>Node7</title>
<g id="a_Node000007"><a xlink:href="namespacem__checker.html#aae9a516509d46e5ac36d150bb75254f2" target="_top" xlink:title="Checks constraints on compiler options.">
<polygon fill="white" stroke="#666666" points="656,-530.5 542,-530.5 542,-500.5 656,-500.5 656,-530.5"/>
<text text-anchor="start" x="550" y="-518.5" font-family="Helvetica,sans-Serif" font-size="10.00">m_checker::s_check</text>
<text text-anchor="middle" x="599" y="-507.5" font-family="Helvetica,sans-Serif" font-size="10.00">_inputs_compilers</text>
</a>
</g>
</g>
<!-- Node6&#45;&gt;Node7 -->
<g id="edge6_Node000006_Node000007" class="edge">
<title>Node6&#45;&gt;Node7</title>
<g id="a_edge6_Node000006_Node000007"><a xlink:title=" ">
<path fill="none" stroke="#63b8ff" d="M460.91,-458.71C481.9,-468.41 509.9,-481.07 535,-491.5 539.19,-493.24 543.55,-495 547.94,-496.74"/>
<polygon fill="#63b8ff" stroke="#63b8ff" points="546.94,-500.11 557.53,-500.49 549.49,-493.59 546.94,-500.11"/>
</a>
</g>
</g>
<!-- Node8 -->
<g id="Node000008" class="node">
<title>Node8</title>
<g id="a_Node000008"><a xlink:href="namespacem__checker.html#a96654b50668ae39c0b9eca1426a3fe56" target="_top" xlink:title="Validates that the grid resolution is sufficient for the MUSCL reconstruction order.">
<polygon fill="white" stroke="#666666" points="656,-482.5 542,-482.5 542,-452.5 656,-452.5 656,-482.5"/>
<text text-anchor="start" x="550" y="-470.5" font-family="Helvetica,sans-Serif" font-size="10.00">m_checker::s_check</text>
<text text-anchor="middle" x="599" y="-459.5" font-family="Helvetica,sans-Serif" font-size="10.00">_inputs_muscl</text>
</a>
</g>
</g>
<!-- Node6&#45;&gt;Node8 -->
<g id="edge7_Node000006_Node000008" class="edge">
<title>Node6&#45;&gt;Node8</title>
<g id="a_edge7_Node000006_Node000008"><a xlink:title=" ">
<path fill="none" stroke="#63b8ff" d="M484.94,-451.49C499.95,-453.62 516.3,-455.93 531.78,-458.12"/>
<polygon fill="#63b8ff" stroke="#63b8ff" points="531.41,-461.61 541.81,-459.54 532.39,-454.68 531.41,-461.61"/>
</a>
</g>
</g>
<!-- Node10 -->
<g id="Node000010" class="node">
<title>Node10</title>
<g id="a_Node000010"><a xlink:href="namespacem__checker.html#aceda94ae9a006496d062f1e764db5b67" target="_top" xlink:title=" ">
<polygon fill="white" stroke="#666666" points="656,-434.5 542,-434.5 542,-404.5 656,-404.5 656,-434.5"/>
<text text-anchor="start" x="550" y="-422.5" font-family="Helvetica,sans-Serif" font-size="10.00">m_checker::s_check</text>
<text text-anchor="middle" x="599" y="-411.5" font-family="Helvetica,sans-Serif" font-size="10.00">_inputs_nvidia_uvm</text>
</a>
</g>
</g>
<!-- Node6&#45;&gt;Node10 -->
<g id="edge9_Node000006_Node000010" class="edge">
<title>Node6&#45;&gt;Node10</title>
<g id="a_edge9_Node000006_Node000010"><a xlink:title=" ">
<path fill="none" stroke="#63b8ff" d="M484.94,-435.51C499.95,-433.38 516.3,-431.07 531.78,-428.88"/>
<polygon fill="#63b8ff" stroke="#63b8ff" points="532.39,-432.32 541.81,-427.46 531.41,-425.39 532.39,-432.32"/>
</a>
</g>
</g>
<!-- Node11 -->
<g id="Node000011" class="node">
<title>Node11</title>
<g id="a_Node000011"><a xlink:href="namespacem__checker.html#a2bee59c2049ad8165e2788175b6cd030" target="_top" xlink:title="Checks constraints on time stepping parameters.">
<polygon fill="white" stroke="#666666" points="662.5,-386.5 535.5,-386.5 535.5,-356.5 662.5,-356.5 662.5,-386.5"/>
<text text-anchor="start" x="543.5" y="-374.5" font-family="Helvetica,sans-Serif" font-size="10.00">m_checker::s_check</text>
<text text-anchor="middle" x="599" y="-363.5" font-family="Helvetica,sans-Serif" font-size="10.00">_inputs_time_stepping</text>
</a>
</g>
</g>
<!-- Node6&#45;&gt;Node11 -->
<g id="edge10_Node000006_Node000011" class="edge">
<title>Node6&#45;&gt;Node11</title>
<g id="a_edge10_Node000006_Node000011"><a xlink:title=" ">
<path fill="none" stroke="#63b8ff" d="M460.91,-428.29C481.9,-418.59 509.9,-405.93 535,-395.5 539.19,-393.76 543.55,-392 547.94,-390.26"/>
<polygon fill="#63b8ff" stroke="#63b8ff" points="549.49,-393.41 557.53,-386.51 546.94,-386.89 549.49,-393.41"/>
</a>
</g>
</g>
<!-- Node12 -->
<g id="Node000012" class="node">
<title>Node12</title>
<g id="a_Node000012"><a xlink:href="namespacem__checker.html#a8abd19271bbd3a0d8a4b445f1e7dba57" target="_top" xlink:title="Checks constraints on WENO scheme parameters.">
<polygon fill="white" stroke="#666666" points="656,-578.5 542,-578.5 542,-548.5 656,-548.5 656,-578.5"/>
<text text-anchor="start" x="550" y="-566.5" font-family="Helvetica,sans-Serif" font-size="10.00">m_checker::s_check</text>
<text text-anchor="middle" x="599" y="-555.5" font-family="Helvetica,sans-Serif" font-size="10.00">_inputs_weno</text>
</a>
</g>
</g>
<!-- Node6&#45;&gt;Node12 -->
<g id="edge11_Node000006_Node000012" class="edge">
<title>Node6&#45;&gt;Node12</title>
<g id="a_edge11_Node000006_Node000012"><a xlink:title=" ">
<path fill="none" stroke="#63b8ff" d="M441.93,-458.72C460.89,-479.42 497.41,-516.52 535,-539.5 537.61,-541.1 540.35,-542.62 543.15,-544.06"/>
<polygon fill="#63b8ff" stroke="#63b8ff" points="541.76,-547.28 552.3,-548.41 544.77,-540.96 541.76,-547.28"/>
</a>
</g>
</g>
<!-- Node9 -->
<g id="Node000009" class="node">
<title>Node9</title>
<g id="a_Node000009"><a xlink:href="namespacem__helper.html#afd343d70a36c65cb7be86a183aa594ac" target="_top" xlink:title="Converts an integer to its trimmed string representation.">
<polygon fill="white" stroke="#666666" points="824,-477 699,-477 699,-458 824,-458 824,-477"/>
<text text-anchor="middle" x="761.5" y="-465" font-family="Helvetica,sans-Serif" font-size="10.00">m_helper::s_int_to_str</text>
</a>
</g>
</g>
<!-- Node8&#45;&gt;Node9 -->
<g id="edge8_Node000008_Node000009" class="edge">
<title>Node8&#45;&gt;Node9</title>
<g id="a_edge8_Node000008_Node000009"><a xlink:title=" ">
<path fill="none" stroke="#63b8ff" d="M656.14,-467.5C666.72,-467.5 677.93,-467.5 688.92,-467.5"/>
<polygon fill="#63b8ff" stroke="#63b8ff" points="688.92,-471 698.92,-467.5 688.92,-464 688.92,-471"/>
</a>
</g>
</g>
<!-- Node12&#45;&gt;Node9 -->
<g id="edge12_Node000012_Node000009" class="edge">
<title>Node12&#45;&gt;Node9</title>
<g id="a_edge12_Node000012_Node000009"><a xlink:title=" ">
<path fill="none" stroke="#63b8ff" d="M644.07,-548.48C650.55,-545.77 657.04,-542.75 663,-539.5 692.3,-523.49 722.74,-499.66 741.65,-483.86"/>
<polygon fill="#63b8ff" stroke="#63b8ff" points="744.12,-486.36 749.48,-477.22 739.59,-481.02 744.12,-486.36"/>
</a>
</g>
</g>
<!-- Node14 -->
<g id="Node000014" class="node">
<title>Node14</title>
<g id="a_Node000014"><a xlink:href="namespacem__checker__common.html#abf7ee76feb76e0dfa1301860374be234" target="_top" xlink:title="Verifies that the total number of grid cells meets the minimum required by the number of dimensions a...">
<polygon fill="white" stroke="#666666" points="663,-338.5 535,-338.5 535,-308.5 663,-308.5 663,-338.5"/>
<text text-anchor="start" x="543" y="-326.5" font-family="Helvetica,sans-Serif" font-size="10.00">m_checker_common::s</text>
<text text-anchor="middle" x="599" y="-315.5" font-family="Helvetica,sans-Serif" font-size="10.00">_check_total_cells</text>
</a>
</g>
</g>
<!-- Node13&#45;&gt;Node14 -->
<g id="edge14_Node000013_Node000014" class="edge">
<title>Node13&#45;&gt;Node14</title>
<g id="a_edge14_Node000013_Node000014"><a xlink:title=" ">
<path fill="none" stroke="#63b8ff" d="M494.52,-338.15C504.49,-336.74 514.82,-335.28 524.93,-333.85"/>
<polygon fill="#63b8ff" stroke="#63b8ff" points="525.53,-337.3 534.94,-332.43 524.55,-330.37 525.53,-337.3"/>
</a>
</g>
</g>
<!-- Node14&#45;&gt;Node9 -->
<g id="edge15_Node000014_Node000009" class="edge">
<title>Node14&#45;&gt;Node9</title>
<g id="a_edge15_Node000014_Node000009"><a xlink:title=" ">
<path fill="none" stroke="#63b8ff" d="M647.84,-338.61C653.18,-341.18 658.35,-344.14 663,-347.5 701.96,-375.68 734.13,-423.17 749.94,-449.16"/>
<polygon fill="#63b8ff" stroke="#63b8ff" points="747.06,-451.17 755.18,-457.98 753.08,-447.59 747.06,-451.17"/>
</a>
</g>
</g>
<!-- Node18&#45;&gt;Node15 -->
<g id="edge20_Node000018_Node000015" class="edge">
<title>Node18&#45;&gt;Node15</title>
<g id="a_edge20_Node000018_Node000015"><a xlink:title=" ">
<path fill="none" stroke="#63b8ff" d="M320.07,-263.75C330.12,-262.59 340.43,-261.4 350.47,-260.25"/>
<polygon fill="#63b8ff" stroke="#63b8ff" points="350.89,-263.72 360.42,-259.1 350.09,-256.77 350.89,-263.72"/>
</a>
</g>
</g>
<!-- Node20&#45;&gt;Node3 -->
<g id="edge24_Node000020_Node000003" class="edge">
<title>Node20&#45;&gt;Node3</title>
<g id="a_edge24_Node000020_Node000003"><a xlink:title=" ">
<path fill="none" stroke="#63b8ff" d="M297.77,-107.47C318.19,-101.77 341.65,-95.21 362.89,-89.28"/>
<polygon fill="#63b8ff" stroke="#63b8ff" points="364.11,-92.57 372.8,-86.51 362.23,-85.83 364.11,-92.57"/>
</a>
</g>
</g>
<!-- Node20&#45;&gt;Node15 -->
<g id="edge23_Node000020_Node000015" class="edge">
<title>Node20&#45;&gt;Node15</title>
<g id="a_edge23_Node000020_Node000015"><a xlink:title=" ">
<path fill="none" stroke="#63b8ff" d="M298.13,-136.08C305.73,-138.98 313.24,-142.43 320,-146.5 356.21,-168.31 389.44,-204.85 408.83,-228.56"/>
<polygon fill="#63b8ff" stroke="#63b8ff" points="406.11,-230.75 415.1,-236.36 411.57,-226.37 406.11,-230.75"/>
</a>
</g>
</g>
</g>
</svg>

<g id="navigator" transform="translate(0 0)" fill="#404254">
  <rect fill="#f2f5e9" fill-opacity="0.5" stroke="#606060" stroke-width=".5" x="0" y="0" width="60" height="60"/>
  <use id="zoomplus" xlink:href="#zoomPlus" x="17" y="9" onmousedown="handleZoom(evt,'in')"/>
  <use id="zoomminus" xlink:href="#zoomMin" x="42" y="9" onmousedown="handleZoom(evt,'out')"/>
  <use id="reset" xlink:href="#resetDef" x="30" y="36" onmousedown="handleReset()"/>
   <use id="arrowup" xlink:href="#arrowUp" x="0" y="0" onmousedown="handlePan(0,-1)"/>
  <use id="arrowright" xlink:href="#arrowRight" x="0" y="0" onmousedown="handlePan(1,0)"/>
  <use id="arrowdown" xlink:href="#arrowDown" x="0" y="0" onmousedown="handlePan(0,1)"/>
  <use id="arrowleft" xlink:href="#arrowLeft" x="0" y="0" onmousedown="handlePan(-1,0)"/>
</g>
<svg viewBox="0 0 15 15" width="100%" height="30px" preserveAspectRatio="xMaxYMin meet">
 <g id="arrow_out" transform="scale(0.3 0.3)">
  <a xlink:href="namespacem__start__up_ab64542f13c680e17ce8879c77c65c0e0_cgraph_org.svg" target="_base">
   <rect id="button" ry="5" rx="5" y="6" x="6" height="38" width="38"
        fill="#f2f5e9" fill-opacity="0.5" stroke="#606060" stroke-width="1.0"/>
   <path id="arrow"
     d="M 11.500037,31.436501 C 11.940474,20.09759 22.043105,11.32322 32.158766,21.979434 L 37.068811,17.246167 C 37.068811,17.246167 37.088388,32 37.088388,32 L 22.160133,31.978069 C 22.160133,31.978069 26.997745,27.140456 26.997745,27.140456 C 18.528582,18.264221 13.291696,25.230495 11.500037,31.436501 z"
     style="fill:#404040;"/>
  </a>
 </g>
</svg>

<style type='text/css'>
<![CDATA[
[data-mouse-over-selected='false'] { opacity: 0.7; }
[data-mouse-over-selected='true']  { opacity: 1.0; }
]]>
</style>
<script type="application/ecmascript"><![CDATA[
document.addEventListener('DOMContentLoaded', (event) => {
  highlightEdges();
  highlightAdjacentNodes();
});
]]></script>
</svg>
