<?xml version="1.0" encoding="UTF-8" standalone="no"?>
<!DOCTYPE svg PUBLIC "-//W3C//DTD SVG 1.1//EN"
 "http://www.w3.org/Graphics/SVG/1.1/DTD/svg11.dtd">
<!-- Generated by graphviz version 2.40.1 (20161225.0304)
 -->
<!-- Title: m_cbc::s_associate_cbc_coefficients_pointers Pages: 1 -->
<svg width="502pt" height="236pt"
 viewBox="0.00 0.00 502.00 235.73" xmlns="http://www.w3.org/2000/svg" xmlns:xlink="http://www.w3.org/1999/xlink">
<g id="graph0" class="graph" transform="scale(1 1) rotate(0) translate(4 231.7298)">
<title>m_cbc::s_associate_cbc_coefficients_pointers</title>
<polygon fill="#ffffff" stroke="transparent" points="-4,4 -4,-231.7298 498,-231.7298 498,4 -4,4"/>
<!-- Node1 -->
<g id="node1" class="node">
<title>Node1</title>
<polygon fill="#bfbfbf" stroke="#000000" points="0,-132.5 0,-158.5 87,-158.5 87,-132.5 0,-132.5"/>
<text text-anchor="start" x="8" y="-148.1" font-family="Helvetica,sans-Serif" font-size="8.00" fill="#000000">m_cbc::s_associate</text>
<text text-anchor="middle" x="43.5" y="-139.1" font-family="Helvetica,sans-Serif" font-size="8.00" fill="#000000">_cbc_coefficients_pointers</text>
</g>
<!-- Node2 -->
<g id="node2" class="node">
<title>Node2</title>
<g id="a_node2"><a xlink:href="namespacem__cbc.html#aee8ead62642bc2783deb6403a961679d" target="_top" xlink:title="m_cbc::s_compute_cbc\l_coefficients">
<polygon fill="#ffffff" stroke="#000000" points="123,-153.5 123,-179.5 203,-179.5 203,-153.5 123,-153.5"/>
<text text-anchor="start" x="131" y="-169.1" font-family="Helvetica,sans-Serif" font-size="8.00" fill="#000000">m_cbc::s_compute_cbc</text>
<text text-anchor="middle" x="163" y="-160.1" font-family="Helvetica,sans-Serif" font-size="8.00" fill="#000000">_coefficients</text>
</a>
</g>
</g>
<!-- Node1&#45;&gt;Node2 -->
<g id="edge1" class="edge">
<title>Node1&#45;&gt;Node2</title>
<path fill="none" stroke="#191970" d="M97.2602,-154.9474C105.8302,-156.4534 114.5663,-157.9886 122.7536,-159.4274"/>
<polygon fill="#191970" stroke="#191970" points="97.7737,-151.4841 87.3188,-153.2004 96.5621,-158.3784 97.7737,-151.4841"/>
</g>
<!-- Node5 -->
<g id="node5" class="node">
<title>Node5</title>
<g id="a_node5"><a xlink:href="namespacem__cbc.html#a72cc3ba5a0de327fae70742734e77492" target="_top" xlink:title="The following is the implementation of the CBC based on the work of Thompson (1987, 1990) on hyperbolic systems. The CBC is indirectly applied in the computation of the right&#45;hand&#45;side (RHS) near the relevant domain boundary through the modification of the fluxes. ">
<polygon fill="#ffffff" stroke="#000000" points="136.5,-117 136.5,-134 189.5,-134 189.5,-117 136.5,-117"/>
<text text-anchor="middle" x="163" y="-123.6" font-family="Helvetica,sans-Serif" font-size="8.00" fill="#000000">m_cbc::s_cbc</text>
</a>
</g>
</g>
<!-- Node1&#45;&gt;Node5 -->
<g id="edge4" class="edge">
<title>Node1&#45;&gt;Node5</title>
<path fill="none" stroke="#191970" d="M97.4722,-136.467C110.9097,-134.218 124.7406,-131.9033 136.2121,-129.9833"/>
<polygon fill="#191970" stroke="#191970" points="96.6039,-133.0636 87.3188,-138.1663 97.7594,-139.9675 96.6039,-133.0636"/>
</g>
<!-- Node3 -->
<g id="node3" class="node">
<title>Node3</title>
<g id="a_node3"><a xlink:href="namespacem__cbc.html#a0afb287e68b0d1d970fd073849525c36" target="_top" xlink:title="The computation of parameters, the allocation of memory, the association of pointers and/or the execu...">
<polygon fill="#ffffff" stroke="#000000" points="245.5,-187.5 245.5,-213.5 310.5,-213.5 310.5,-187.5 245.5,-187.5"/>
<text text-anchor="start" x="253.5" y="-203.1" font-family="Helvetica,sans-Serif" font-size="8.00" fill="#000000">m_cbc::s_initialize</text>
<text text-anchor="middle" x="278" y="-194.1" font-family="Helvetica,sans-Serif" font-size="8.00" fill="#000000">_cbc_module</text>
</a>
</g>
</g>
<!-- Node2&#45;&gt;Node3 -->
<g id="edge2" class="edge">
<title>Node2&#45;&gt;Node3</title>
<path fill="none" stroke="#191970" d="M213.0694,-181.3031C223.9532,-184.5209 235.1981,-187.8455 245.2091,-190.8053"/>
<polygon fill="#191970" stroke="#191970" points="213.8034,-177.8704 203.2214,-178.3916 211.8187,-184.5832 213.8034,-177.8704"/>
</g>
<!-- Node4 -->
<g id="node4" class="node">
<title>Node4</title>
<g id="a_node4"><a xlink:href="p__main_8f90.html#aeec10ee8e2940c953967da3e374e1579" target="_top" xlink:title="Quasi&#45;conservative, shock&#45; and interface&#45; capturing finite&#45;volume scheme for the multicomponent Navie...">
<polygon fill="#ffffff" stroke="#000000" points="458,-117 458,-134 494,-134 494,-117 458,-117"/>
<text text-anchor="middle" x="476" y="-123.6" font-family="Helvetica,sans-Serif" font-size="8.00" fill="#000000">p_main</text>
</a>
</g>
</g>
<!-- Node3&#45;&gt;Node4 -->
<g id="edge3" class="edge">
<title>Node3&#45;&gt;Node4</title>
<path fill="none" stroke="#191970" d="M317.1233,-216.8519C347.633,-226.8932 390.047,-234.6942 422,-216.5 453.9285,-198.3198 468.9277,-153.0042 473.962,-134.0485"/>
<polygon fill="#191970" stroke="#191970" points="318.259,-213.5412 307.6641,-213.5431 315.9477,-220.1487 318.259,-213.5412"/>
</g>
<!-- Node6 -->
<g id="node6" class="node">
<title>Node6</title>
<g id="a_node6"><a xlink:href="namespacem__rhs.html#a361f0038973069452cc88430c49bcfe8" target="_top" xlink:title="The purpose of this procedure is to employ the inputted cell&#45;average conservative variables in order ...">
<polygon fill="#ffffff" stroke="#000000" points="239,-117 239,-134 317,-134 317,-117 239,-117"/>
<text text-anchor="middle" x="278" y="-123.6" font-family="Helvetica,sans-Serif" font-size="8.00" fill="#000000">m_rhs::s_compute_rhs</text>
</a>
</g>
</g>
<!-- Node5&#45;&gt;Node6 -->
<g id="edge5" class="edge">
<title>Node5&#45;&gt;Node6</title>
<path fill="none" stroke="#191970" d="M199.7301,-125.5C212.199,-125.5 226.1732,-125.5 238.8255,-125.5"/>
<polygon fill="#191970" stroke="#191970" points="199.6724,-122.0001 189.6724,-125.5 199.6723,-129.0001 199.6724,-122.0001"/>
</g>
<!-- Node7 -->
<g id="node7" class="node">
<title>Node7</title>
<g id="a_node7"><a xlink:href="namespacem__time__steppers.html#a1057850f94e9e749da9687baa7478246" target="_top" xlink:title="1st order TVD RK time&#45;stepping algorithm ">
<polygon fill="#ffffff" stroke="#000000" points="353,-180.5 353,-206.5 422,-206.5 422,-180.5 353,-180.5"/>
<text text-anchor="start" x="361" y="-196.1" font-family="Helvetica,sans-Serif" font-size="8.00" fill="#000000">m_time_steppers::s</text>
<text text-anchor="middle" x="387.5" y="-187.1" font-family="Helvetica,sans-Serif" font-size="8.00" fill="#000000">_1st_order_tvd_rk</text>
</a>
</g>
</g>
<!-- Node6&#45;&gt;Node7 -->
<g id="edge6" class="edge">
<title>Node6&#45;&gt;Node7</title>
<path fill="none" stroke="#191970" d="M300.5919,-139.5297C319.8596,-151.495 347.3583,-168.5718 366.2351,-180.2944"/>
<polygon fill="#191970" stroke="#191970" points="302.2099,-136.4145 291.8683,-134.1122 298.517,-142.3612 302.2099,-136.4145"/>
</g>
<!-- Node8 -->
<g id="node8" class="node">
<title>Node8</title>
<g id="a_node8"><a xlink:href="namespacem__time__steppers.html#a5b758874c713da801a47aa3d6246b2fd" target="_top" xlink:title="2nd order TVD RK time&#45;stepping algorithm ">
<polygon fill="#ffffff" stroke="#000000" points="353,-135.5 353,-161.5 422,-161.5 422,-135.5 353,-135.5"/>
<text text-anchor="start" x="361" y="-151.1" font-family="Helvetica,sans-Serif" font-size="8.00" fill="#000000">m_time_steppers::s</text>
<text text-anchor="middle" x="387.5" y="-142.1" font-family="Helvetica,sans-Serif" font-size="8.00" fill="#000000">_2nd_order_tvd_rk</text>
</a>
</g>
</g>
<!-- Node6&#45;&gt;Node8 -->
<g id="edge8" class="edge">
<title>Node6&#45;&gt;Node8</title>
<path fill="none" stroke="#191970" d="M327.251,-135.845C335.911,-137.664 344.7564,-139.5219 352.9087,-141.2343"/>
<polygon fill="#191970" stroke="#191970" points="327.7287,-132.369 317.2227,-133.7386 326.2897,-139.2195 327.7287,-132.369"/>
</g>
<!-- Node9 -->
<g id="node9" class="node">
<title>Node9</title>
<g id="a_node9"><a xlink:href="namespacem__time__steppers.html#a1cc10f406268344cc54a55159c4ff08f" target="_top" xlink:title="3rd order TVD RK time&#45;stepping algorithm ">
<polygon fill="#ffffff" stroke="#000000" points="353,-90.5 353,-116.5 422,-116.5 422,-90.5 353,-90.5"/>
<text text-anchor="start" x="361" y="-106.1" font-family="Helvetica,sans-Serif" font-size="8.00" fill="#000000">m_time_steppers::s</text>
<text text-anchor="middle" x="387.5" y="-97.1" font-family="Helvetica,sans-Serif" font-size="8.00" fill="#000000">_3rd_order_tvd_rk</text>
</a>
</g>
</g>
<!-- Node6&#45;&gt;Node9 -->
<g id="edge10" class="edge">
<title>Node6&#45;&gt;Node9</title>
<path fill="none" stroke="#191970" d="M327.251,-115.6048C335.911,-113.8649 344.7564,-112.0878 352.9087,-110.4498"/>
<polygon fill="#191970" stroke="#191970" points="326.3374,-112.2184 317.2227,-117.6196 327.7163,-119.0812 326.3374,-112.2184"/>
</g>
<!-- Node10 -->
<g id="node10" class="node">
<title>Node10</title>
<g id="a_node10"><a xlink:href="namespacem__time__steppers.html#ac53b0d079d514df2bf662bc0e042c8db" target="_top" xlink:title="4th order RK time&#45;stepping algorithm ">
<polygon fill="#ffffff" stroke="#000000" points="353,-45.5 353,-71.5 422,-71.5 422,-45.5 353,-45.5"/>
<text text-anchor="start" x="361" y="-61.1" font-family="Helvetica,sans-Serif" font-size="8.00" fill="#000000">m_time_steppers::s</text>
<text text-anchor="middle" x="387.5" y="-52.1" font-family="Helvetica,sans-Serif" font-size="8.00" fill="#000000">_4th_order_rk</text>
</a>
</g>
</g>
<!-- Node6&#45;&gt;Node10 -->
<g id="edge12" class="edge">
<title>Node6&#45;&gt;Node10</title>
<path fill="none" stroke="#191970" d="M301.0188,-111.4154C320.191,-99.6845 347.2907,-83.103 366.0214,-71.6421"/>
<polygon fill="#191970" stroke="#191970" points="299.0184,-108.5362 292.3152,-116.7409 302.6719,-114.5071 299.0184,-108.5362"/>
</g>
<!-- Node11 -->
<g id="node11" class="node">
<title>Node11</title>
<g id="a_node11"><a xlink:href="namespacem__time__steppers.html#a4920633ffe7f703c3827b956b21b7417" target="_top" xlink:title="5th order RK time&#45;stepping algorithm ">
<polygon fill="#ffffff" stroke="#000000" points="353,-.5 353,-26.5 422,-26.5 422,-.5 353,-.5"/>
<text text-anchor="start" x="361" y="-16.1" font-family="Helvetica,sans-Serif" font-size="8.00" fill="#000000">m_time_steppers::s</text>
<text text-anchor="middle" x="387.5" y="-7.1" font-family="Helvetica,sans-Serif" font-size="8.00" fill="#000000">_5th_order_rk</text>
</a>
</g>
</g>
<!-- Node6&#45;&gt;Node11 -->
<g id="edge14" class="edge">
<title>Node6&#45;&gt;Node11</title>
<path fill="none" stroke="#191970" d="M289.7169,-108.4713C303.4383,-89.2997 327.5485,-57.9067 353,-35.5 356.6257,-32.3081 360.7594,-29.2596 364.8755,-26.5036"/>
<polygon fill="#191970" stroke="#191970" points="286.7438,-106.6147 283.8551,-116.8081 292.47,-110.6409 286.7438,-106.6147"/>
</g>
<!-- Node7&#45;&gt;Node4 -->
<g id="edge7" class="edge">
<title>Node7&#45;&gt;Node4</title>
<path fill="none" stroke="#191970" d="M417.6341,-174.6357C419.1234,-173.5939 420.5862,-172.5452 422,-171.5 438.4389,-159.3468 456.264,-143.6131 466.7656,-134.0524"/>
<polygon fill="#191970" stroke="#191970" points="415.3227,-171.9721 408.974,-180.4541 419.2265,-177.7824 415.3227,-171.9721"/>
</g>
<!-- Node8&#45;&gt;Node4 -->
<g id="edge9" class="edge">
<title>Node8&#45;&gt;Node4</title>
<path fill="none" stroke="#191970" d="M432.0886,-136.912C441.2413,-134.5333 450.3747,-132.1597 457.9223,-130.1982"/>
<polygon fill="#191970" stroke="#191970" points="431.0216,-133.5729 422.2235,-139.4758 432.7824,-140.3479 431.0216,-133.5729"/>
</g>
<!-- Node9&#45;&gt;Node4 -->
<g id="edge11" class="edge">
<title>Node9&#45;&gt;Node4</title>
<path fill="none" stroke="#191970" d="M432.0886,-114.5842C441.2413,-116.8594 450.3747,-119.1299 457.9223,-121.0061"/>
<polygon fill="#191970" stroke="#191970" points="432.7726,-111.1477 422.2235,-112.1318 431.0838,-117.941 432.7726,-111.1477"/>
</g>
<!-- Node10&#45;&gt;Node4 -->
<g id="edge13" class="edge">
<title>Node10&#45;&gt;Node4</title>
<path fill="none" stroke="#191970" d="M417.6203,-77.383C419.1132,-78.4199 420.5806,-79.4625 422,-80.5 438.1575,-92.3104 455.7748,-107.4568 466.3505,-116.8179"/>
<polygon fill="#191970" stroke="#191970" points="419.2061,-74.2329 408.9486,-71.5805 415.3132,-80.0506 419.2061,-74.2329"/>
</g>
<!-- Node11&#45;&gt;Node4 -->
<g id="edge15" class="edge">
<title>Node11&#45;&gt;Node4</title>
<path fill="none" stroke="#191970" d="M419.2,-32.8128C420.1713,-33.6873 421.1082,-34.5836 422,-35.5 446.7806,-60.9651 465.1411,-99.8551 472.4841,-116.9428"/>
<polygon fill="#191970" stroke="#191970" points="421.282,-29.9974 411.2588,-26.5641 416.9533,-35.4986 421.282,-29.9974"/>
</g>
</g>
</svg>
