<?xml version="1.0" encoding="UTF-8" standalone="no"?>
<!DOCTYPE svg PUBLIC "-//W3C//DTD SVG 1.1//EN"
 "http://www.w3.org/Graphics/SVG/1.1/DTD/svg11.dtd">
<!-- Generated by graphviz version 2.43.0 (0)
 -->
<!-- Title: m_sim_helpers::s_compute_enthalpy Pages: 1 -->
<svg width="355pt" height="98pt"
 viewBox="0.00 0.00 355.00 97.50" xmlns="http://www.w3.org/2000/svg" xmlns:xlink="http://www.w3.org/1999/xlink">
<g id="graph0" class="graph" transform="scale(1 1) rotate(0) translate(4 93.5)">
<title>m_sim_helpers::s_compute_enthalpy</title>
<!-- Node1 -->
<g id="Node000001" class="node">
<title>Node1</title>
<g id="a_Node000001"><a xlink:title="Computes enthalpy.">
<polygon fill="#999999" stroke="#666666" points="150,-62.5 0,-62.5 0,-32.5 150,-32.5 150,-62.5"/>
<text text-anchor="start" x="8" y="-50.5" font-family="Helvetica,sans-Serif" font-size="10.00">m_sim_helpers::s_compute</text>
<text text-anchor="middle" x="75" y="-39.5" font-family="Helvetica,sans-Serif" font-size="10.00">_enthalpy</text>
</a>
</g>
</g>
<!-- Node2 -->
<g id="Node000002" class="node">
<title>Node2</title>
<g id="a_Node000002"><a xlink:href="namespacem__variables__conversion.html#a21906a4c29bbb1187212feb969c00502" target="_top" xlink:title="This subroutine computes partial densities and volume fractions.">
<polygon fill="white" stroke="#666666" points="347,-89.5 186,-89.5 186,-59.5 347,-59.5 347,-89.5"/>
<text text-anchor="start" x="194" y="-77.5" font-family="Helvetica,sans-Serif" font-size="10.00">m_variables_conversion</text>
<text text-anchor="middle" x="266.5" y="-66.5" font-family="Helvetica,sans-Serif" font-size="10.00">::s_compute_species_fraction</text>
</a>
</g>
</g>
<!-- Node1&#45;&gt;Node2 -->
<g id="edge1_Node000001_Node000002" class="edge">
<title>Node1&#45;&gt;Node2</title>
<g id="a_edge1_Node000001_Node000002"><a xlink:title=" ">
<path fill="none" stroke="#63b8ff" d="M150.08,-58.05C158.51,-59.26 167.17,-60.49 175.78,-61.72"/>
<polygon fill="#63b8ff" stroke="#63b8ff" points="175.44,-65.2 185.84,-63.15 176.43,-58.27 175.44,-65.2"/>
</a>
</g>
</g>
<!-- Node3 -->
<g id="Node000003" class="node">
<title>Node3</title>
<g id="a_Node000003"><a xlink:href="namespacem__variables__conversion.html#af1bda14464459b0fd9448dd8885741c7" target="_top" xlink:title="GPU&#45;accelerated conversion of species volume fractions and partial densities to mixture density,...">
<polygon fill="white" stroke="#666666" points="334,-41 199,-41 199,0 334,0 334,-41"/>
<text text-anchor="start" x="207" y="-29" font-family="Helvetica,sans-Serif" font-size="10.00">m_variables_conversion</text>
<text text-anchor="start" x="207" y="-18" font-family="Helvetica,sans-Serif" font-size="10.00">::s_convert_species_to</text>
<text text-anchor="middle" x="266.5" y="-7" font-family="Helvetica,sans-Serif" font-size="10.00">_mixture_variables_acc</text>
</a>
</g>
</g>
<!-- Node1&#45;&gt;Node3 -->
<g id="edge2_Node000001_Node000003" class="edge">
<title>Node1&#45;&gt;Node3</title>
<g id="a_edge2_Node000001_Node000003"><a xlink:title=" ">
<path fill="none" stroke="#63b8ff" d="M150.08,-36.95C162.78,-35.14 175.99,-33.25 188.76,-31.43"/>
<polygon fill="#63b8ff" stroke="#63b8ff" points="189.47,-34.87 198.88,-29.99 188.48,-27.94 189.47,-34.87"/>
</a>
</g>
</g>
</g>
</svg>
