<?xml version="1.0" encoding="UTF-8" standalone="no"?>
<!DOCTYPE svg PUBLIC "-//W3C//DTD SVG 1.1//EN"
 "http://www.w3.org/Graphics/SVG/1.1/DTD/svg11.dtd">
<!-- Generated by graphviz version 2.43.0 (0)
 -->
<!-- Title: m_compile_specific::my_inquire Pages: 1 -->
<svg width="761pt" height="225pt"
 viewBox="0.00 0.00 761.00 225.44" xmlns="http://www.w3.org/2000/svg" xmlns:xlink="http://www.w3.org/1999/xlink">
<g id="graph0" class="graph" transform="scale(1 1) rotate(0) translate(4 221.44)">
<title>m_compile_specific::my_inquire</title>
<!-- Node1 -->
<g id="Node000001" class="node">
<title>Node1</title>
<g id="a_Node000001"><a xlink:title="Inquires on the existence of a directory.">
<polygon fill="#999999" stroke="#666666" points="753,-99 640,-99 640,-69 753,-69 753,-99"/>
<text text-anchor="start" x="648" y="-87" font-family="Helvetica,sans-Serif" font-size="10.00">m_compile_specific</text>
<text text-anchor="middle" x="696.5" y="-76" font-family="Helvetica,sans-Serif" font-size="10.00">::my_inquire</text>
</a>
</g>
</g>
<!-- Node2 -->
<g id="Node000002" class="node">
<title>Node2</title>
<g id="a_Node000002"><a xlink:href="m__start__up_8fpp_8f90.html#af6a41c9370d192d3f131dd239671fa14" target="_top" xlink:title="The goal of this procedure is to verify that each of the user provided inputs is valid and that their...">
<polygon fill="white" stroke="#666666" points="447,-115.5 341,-115.5 341,-96.5 447,-96.5 447,-115.5"/>
<text text-anchor="middle" x="394" y="-103.5" font-family="Helvetica,sans-Serif" font-size="10.00">s_check_input_file</text>
</a>
</g>
</g>
<!-- Node1&#45;&gt;Node2 -->
<g id="edge1_Node000001_Node000002" class="edge">
<title>Node1&#45;&gt;Node2</title>
<g id="a_edge1_Node000001_Node000002"><a xlink:title=" ">
<path fill="none" stroke="#63b8ff" d="M629.7,-88.82C574.81,-92.84 497.65,-98.49 447,-102.19"/>
<polygon fill="#63b8ff" stroke="#63b8ff" points="629.96,-92.31 639.68,-88.09 629.45,-85.33 629.96,-92.31"/>
</a>
</g>
</g>
<!-- Node6 -->
<g id="Node000006" class="node">
<title>Node6</title>
<g id="a_Node000006"><a xlink:href="m__start__up_8fpp_8f90.html#a7cb33d8a47c0181bc158c4785f63acf5" target="_top" xlink:title=" ">
<polygon fill="white" stroke="#666666" points="597.5,-196 489.5,-196 489.5,-166 597.5,-166 597.5,-196"/>
<text text-anchor="start" x="497.5" y="-184" font-family="Helvetica,sans-Serif" font-size="10.00">s_read_serial_data</text>
<text text-anchor="middle" x="543.5" y="-173" font-family="Helvetica,sans-Serif" font-size="10.00">_files</text>
</a>
</g>
</g>
<!-- Node1&#45;&gt;Node6 -->
<g id="edge6_Node000001_Node000006" class="edge">
<title>Node1&#45;&gt;Node6</title>
<g id="a_edge6_Node000001_Node000006"><a xlink:title=" ">
<path fill="none" stroke="#63b8ff" d="M663.46,-104.58C634.83,-122.97 593.57,-149.48 567.93,-165.95"/>
<polygon fill="#63b8ff" stroke="#63b8ff" points="665.38,-107.51 671.91,-99.16 661.6,-101.62 665.38,-107.51"/>
</a>
</g>
</g>
<!-- Node9 -->
<g id="Node000009" class="node">
<title>Node9</title>
<g id="a_Node000009"><a xlink:href="m__data__output_8fpp_8f90.html#a92010ace6ee28e7e2ed5975b1de0780a" target="_top" xlink:title="The goal of this subroutine is to output the grid and conservative variables data files for given tim...">
<polygon fill="white" stroke="#666666" points="604,-30 483,-30 483,0 604,0 604,-30"/>
<text text-anchor="start" x="491" y="-18" font-family="Helvetica,sans-Serif" font-size="10.00">s_write_parallel_data</text>
<text text-anchor="middle" x="543.5" y="-7" font-family="Helvetica,sans-Serif" font-size="10.00">_files</text>
</a>
</g>
</g>
<!-- Node1&#45;&gt;Node9 -->
<g id="edge13_Node000001_Node000009" class="edge">
<title>Node1&#45;&gt;Node9</title>
<g id="a_edge13_Node000001_Node000009"><a xlink:title=" ">
<path fill="none" stroke="#63b8ff" d="M656.92,-64.24C640.7,-56.14 621.56,-46.85 604,-39 597.29,-36 590.08,-32.95 583.08,-30.08"/>
<polygon fill="#63b8ff" stroke="#63b8ff" points="655.59,-67.49 666.09,-68.85 658.73,-61.23 655.59,-67.49"/>
</a>
</g>
</g>
<!-- Node13 -->
<g id="Node000013" class="node">
<title>Node13</title>
<g id="a_Node000013"><a xlink:href="m__data__output_8fpp_8f90.html#a81cdc0dd327f2dd53343cad8d7f74ede" target="_top" xlink:title="The goal of this subroutine is to output the grid and conservative variables data files for given tim...">
<polygon fill="white" stroke="#666666" points="599,-78 488,-78 488,-48 599,-48 599,-78"/>
<text text-anchor="start" x="496" y="-66" font-family="Helvetica,sans-Serif" font-size="10.00">s_write_serial_data</text>
<text text-anchor="middle" x="543.5" y="-55" font-family="Helvetica,sans-Serif" font-size="10.00">_files</text>
</a>
</g>
</g>
<!-- Node1&#45;&gt;Node13 -->
<g id="edge20_Node000001_Node000013" class="edge">
<title>Node1&#45;&gt;Node13</title>
<g id="a_edge20_Node000001_Node000013"><a xlink:title=" ">
<path fill="none" stroke="#63b8ff" d="M629.61,-74.84C619.41,-73.42 608.98,-71.97 599.06,-70.59"/>
<polygon fill="#63b8ff" stroke="#63b8ff" points="629.32,-78.33 639.7,-76.24 630.28,-71.4 629.32,-78.33"/>
</a>
</g>
</g>
<!-- Node3 -->
<g id="Node000003" class="node">
<title>Node3</title>
<g id="a_Node000003"><a xlink:href="m__start__up_8fpp_8f90.html#ac09c216e540601049a819ae5b76091b5" target="_top" xlink:title=" ">
<polygon fill="white" stroke="#666666" points="134,-165.5 0,-165.5 0,-146.5 134,-146.5 134,-165.5"/>
<text text-anchor="middle" x="67" y="-153.5" font-family="Helvetica,sans-Serif" font-size="10.00">__m_start_up_fpp_f90__</text>
</a>
</g>
</g>
<!-- Node2&#45;&gt;Node3 -->
<g id="edge2_Node000002_Node000003" class="edge">
<title>Node2&#45;&gt;Node3</title>
<g id="a_edge2_Node000002_Node000003"><a xlink:title=" ">
<path fill="none" stroke="#63b8ff" d="M372.71,-121.6C355.69,-133.65 330.17,-149.35 305,-156 248.71,-170.87 182.24,-169.31 134.04,-164.93"/>
<polygon fill="#63b8ff" stroke="#63b8ff" points="374.78,-124.42 380.8,-115.7 370.66,-118.77 374.78,-124.42"/>
</a>
</g>
</g>
<!-- Node4 -->
<g id="Node000004" class="node">
<title>Node4</title>
<g id="a_Node000004"><a xlink:href="m__start__up_8fpp_8f90.html#a83fe29fa8c08099995587b9463aebcf8" target="_top" xlink:title=" ">
<polygon fill="white" stroke="#666666" points="305,-109.5 170,-109.5 170,-90.5 305,-90.5 305,-109.5"/>
<text text-anchor="middle" x="237.5" y="-97.5" font-family="Helvetica,sans-Serif" font-size="10.00">s_initialize_mpi_domain</text>
</a>
</g>
</g>
<!-- Node2&#45;&gt;Node4 -->
<g id="edge3_Node000002_Node000004" class="edge">
<title>Node2&#45;&gt;Node4</title>
<g id="a_edge3_Node000002_Node000004"><a xlink:title=" ">
<path fill="none" stroke="#63b8ff" d="M330.65,-103.58C322.29,-103.25 313.7,-102.92 305.27,-102.59"/>
<polygon fill="#63b8ff" stroke="#63b8ff" points="330.57,-107.08 340.69,-103.97 330.84,-100.08 330.57,-107.08"/>
</a>
</g>
</g>
<!-- Node4&#45;&gt;Node3 -->
<g id="edge4_Node000004_Node000003" class="edge">
<title>Node4&#45;&gt;Node3</title>
<g id="a_edge4_Node000004_Node000003"><a xlink:title=" ">
<path fill="none" stroke="#63b8ff" d="M191.72,-112.33C184.44,-114.47 176.99,-116.74 170,-119 143.48,-127.59 113.53,-138.61 92.98,-146.39"/>
<polygon fill="#63b8ff" stroke="#63b8ff" points="192.87,-115.64 201.5,-109.5 190.92,-108.92 192.87,-115.64"/>
</a>
</g>
</g>
<!-- Node5 -->
<g id="Node000005" class="node">
<title>Node5</title>
<g id="a_Node000005"><a xlink:href="p__main_8fpp_8f90.html#aeec10ee8e2940c953967da3e374e1579" target="_top" xlink:title="Quasi&#45;conservative, shock&#45; and interface&#45; capturing finite&#45;volume scheme for the multicomponent Navie...">
<polygon fill="white" stroke="#666666" points="93.5,-109.5 40.5,-109.5 40.5,-90.5 93.5,-90.5 93.5,-109.5"/>
<text text-anchor="middle" x="67" y="-97.5" font-family="Helvetica,sans-Serif" font-size="10.00">p_main</text>
</a>
</g>
</g>
<!-- Node4&#45;&gt;Node5 -->
<g id="edge5_Node000004_Node000005" class="edge">
<title>Node4&#45;&gt;Node5</title>
<g id="a_edge5_Node000004_Node000005"><a xlink:title=" ">
<path fill="none" stroke="#63b8ff" d="M159.81,-100C136.08,-100 111.55,-100 93.82,-100"/>
<polygon fill="#63b8ff" stroke="#63b8ff" points="159.9,-103.5 169.9,-100 159.9,-96.5 159.9,-103.5"/>
</a>
</g>
</g>
<!-- Node6&#45;&gt;Node3 -->
<g id="edge7_Node000006_Node000003" class="edge">
<title>Node6&#45;&gt;Node3</title>
<g id="a_edge7_Node000006_Node000003"><a xlink:title=" ">
<path fill="none" stroke="#63b8ff" d="M479.11,-195.97C404.27,-211.16 276.51,-229.26 170,-205 136.67,-197.41 101.53,-177.5 82.43,-165.53"/>
<polygon fill="#63b8ff" stroke="#63b8ff" points="480.23,-199.32 489.31,-193.85 478.8,-192.46 480.23,-199.32"/>
</a>
</g>
</g>
<!-- Node7 -->
<g id="Node000007" class="node">
<title>Node7</title>
<g id="a_Node000007"><a xlink:href="m__start__up_8fpp_8f90.html#ab5d51966b061c10a0bcd4fc607fd0dcb" target="_top" xlink:title="Read data files. Dispatch subroutine that replaces procedure pointer.">
<polygon fill="white" stroke="#666666" points="444.5,-190.5 343.5,-190.5 343.5,-171.5 444.5,-171.5 444.5,-190.5"/>
<text text-anchor="middle" x="394" y="-178.5" font-family="Helvetica,sans-Serif" font-size="10.00">s_read_data_files</text>
</a>
</g>
</g>
<!-- Node6&#45;&gt;Node7 -->
<g id="edge8_Node000006_Node000007" class="edge">
<title>Node6&#45;&gt;Node7</title>
<g id="a_edge8_Node000006_Node000007"><a xlink:title=" ">
<path fill="none" stroke="#63b8ff" d="M479.23,-181C467.69,-181 455.81,-181 444.73,-181"/>
<polygon fill="#63b8ff" stroke="#63b8ff" points="479.25,-184.5 489.25,-181 479.25,-177.5 479.25,-184.5"/>
</a>
</g>
</g>
<!-- Node7&#45;&gt;Node3 -->
<g id="edge9_Node000007_Node000003" class="edge">
<title>Node7&#45;&gt;Node3</title>
<g id="a_edge9_Node000007_Node000003"><a xlink:title=" ">
<path fill="none" stroke="#63b8ff" d="M332.87,-189.36C287.78,-194.13 224.67,-197.62 170,-189 141.87,-184.56 110.93,-173.64 90.59,-165.57"/>
<polygon fill="#63b8ff" stroke="#63b8ff" points="333.52,-192.81 343.07,-188.23 332.75,-185.85 333.52,-192.81"/>
</a>
</g>
</g>
<!-- Node8 -->
<g id="Node000008" class="node">
<title>Node8</title>
<g id="a_Node000008"><a xlink:href="m__start__up_8fpp_8f90.html#adf1f9241f0635f38fe245fc5dfb9f12a" target="_top" xlink:title=" ">
<polygon fill="white" stroke="#666666" points="295.5,-146.5 179.5,-146.5 179.5,-127.5 295.5,-127.5 295.5,-146.5"/>
<text text-anchor="middle" x="237.5" y="-134.5" font-family="Helvetica,sans-Serif" font-size="10.00">s_initialize_modules</text>
</a>
</g>
</g>
<!-- Node7&#45;&gt;Node8 -->
<g id="edge10_Node000007_Node000008" class="edge">
<title>Node7&#45;&gt;Node8</title>
<g id="a_edge10_Node000007_Node000008"><a xlink:title=" ">
<path fill="none" stroke="#63b8ff" d="M349.67,-168.66C325.06,-161.65 294.72,-153.01 271.96,-146.53"/>
<polygon fill="#63b8ff" stroke="#63b8ff" points="348.9,-172.08 359.48,-171.45 350.82,-165.35 348.9,-172.08"/>
</a>
</g>
</g>
<!-- Node8&#45;&gt;Node3 -->
<g id="edge11_Node000008_Node000003" class="edge">
<title>Node8&#45;&gt;Node3</title>
<g id="a_edge11_Node000008_Node000003"><a xlink:title=" ">
<path fill="none" stroke="#63b8ff" d="M169.43,-144.56C157.86,-145.87 145.84,-147.22 134.29,-148.52"/>
<polygon fill="#63b8ff" stroke="#63b8ff" points="169.91,-148.03 179.45,-143.43 169.12,-141.08 169.91,-148.03"/>
</a>
</g>
</g>
<!-- Node8&#45;&gt;Node5 -->
<g id="edge12_Node000008_Node000005" class="edge">
<title>Node8&#45;&gt;Node5</title>
<g id="a_edge12_Node000008_Node000005"><a xlink:title=" ">
<path fill="none" stroke="#63b8ff" d="M183.26,-125.31C153.46,-118.76 117.64,-110.9 93.93,-105.69"/>
<polygon fill="#63b8ff" stroke="#63b8ff" points="182.59,-128.75 193.11,-127.47 184.09,-121.91 182.59,-128.75"/>
</a>
</g>
</g>
<!-- Node10 -->
<g id="Node000010" class="node">
<title>Node10</title>
<g id="a_Node000010"><a xlink:href="m__data__output_8fpp_8f90.html#a979b8a2cf4215a8122fc461c0512dbba" target="_top" xlink:title=" ">
<polygon fill="white" stroke="#666666" points="298.5,-35 176.5,-35 176.5,-5 298.5,-5 298.5,-35"/>
<text text-anchor="start" x="184.5" y="-23" font-family="Helvetica,sans-Serif" font-size="10.00">__m_data_output_fpp</text>
<text text-anchor="middle" x="237.5" y="-12" font-family="Helvetica,sans-Serif" font-size="10.00">_f90__</text>
</a>
</g>
</g>
<!-- Node9&#45;&gt;Node10 -->
<g id="edge14_Node000009_Node000010" class="edge">
<title>Node9&#45;&gt;Node10</title>
<g id="a_edge14_Node000009_Node000010"><a xlink:title=" ">
<path fill="none" stroke="#63b8ff" d="M472.78,-11.74C464.1,-11.44 455.35,-11.17 447,-11 399.9,-10.01 388.07,-8.94 341,-11 327.26,-11.6 312.51,-12.66 298.6,-13.84"/>
<polygon fill="#63b8ff" stroke="#63b8ff" points="472.78,-15.24 482.91,-12.12 473.05,-8.25 472.78,-15.24"/>
</a>
</g>
</g>
<!-- Node11 -->
<g id="Node000011" class="node">
<title>Node11</title>
<g id="a_Node000011"><a xlink:href="m__data__output_8fpp_8f90.html#a2d8566ed05d923060e9914679222ebd1" target="_top" xlink:title="Write data files. Dispatch subroutine that replaces procedure pointer.">
<polygon fill="white" stroke="#666666" points="446,-72.5 342,-72.5 342,-53.5 446,-53.5 446,-72.5"/>
<text text-anchor="middle" x="394" y="-60.5" font-family="Helvetica,sans-Serif" font-size="10.00">s_write_data_files</text>
</a>
</g>
</g>
<!-- Node9&#45;&gt;Node11 -->
<g id="edge15_Node000009_Node000011" class="edge">
<title>Node9&#45;&gt;Node11</title>
<g id="a_edge15_Node000009_Node000011"><a xlink:title=" ">
<path fill="none" stroke="#63b8ff" d="M486.67,-33.17C465.48,-40.06 442.19,-47.64 424.39,-53.44"/>
<polygon fill="#63b8ff" stroke="#63b8ff" points="487.81,-36.48 496.23,-30.06 485.64,-29.82 487.81,-36.48"/>
</a>
</g>
</g>
<!-- Node11&#45;&gt;Node10 -->
<g id="edge16_Node000011_Node000010" class="edge">
<title>Node11&#45;&gt;Node10</title>
<g id="a_edge16_Node000011_Node000010"><a xlink:title=" ">
<path fill="none" stroke="#63b8ff" d="M348.73,-50.68C331.18,-45.79 310.82,-40.13 292.42,-35.01"/>
<polygon fill="#63b8ff" stroke="#63b8ff" points="348.14,-54.15 358.71,-53.46 350.02,-47.4 348.14,-54.15"/>
</a>
</g>
</g>
<!-- Node12 -->
<g id="Node000012" class="node">
<title>Node12</title>
<g id="a_Node000012"><a xlink:href="m__start__up_8fpp_8f90.html#aa8fd49046e6bcfcdb3caecfa89226725" target="_top" xlink:title=" ">
<polygon fill="white" stroke="#666666" points="276,-72.5 199,-72.5 199,-53.5 276,-53.5 276,-72.5"/>
<text text-anchor="middle" x="237.5" y="-60.5" font-family="Helvetica,sans-Serif" font-size="10.00">s_save_data</text>
</a>
</g>
</g>
<!-- Node11&#45;&gt;Node12 -->
<g id="edge17_Node000011_Node000012" class="edge">
<title>Node11&#45;&gt;Node12</title>
<g id="a_edge17_Node000011_Node000012"><a xlink:title=" ">
<path fill="none" stroke="#63b8ff" d="M331.74,-63C312.99,-63 292.94,-63 276.25,-63"/>
<polygon fill="#63b8ff" stroke="#63b8ff" points="331.98,-66.5 341.98,-63 331.98,-59.5 331.98,-66.5"/>
</a>
</g>
</g>
<!-- Node12&#45;&gt;Node3 -->
<g id="edge18_Node000012_Node000003" class="edge">
<title>Node12&#45;&gt;Node3</title>
<g id="a_edge18_Node000012_Node000003"><a xlink:title=" ">
<path fill="none" stroke="#63b8ff" d="M189.11,-73.22C182.46,-75.59 175.89,-78.48 170,-82 150.31,-93.77 152.2,-105.02 134,-119 119.83,-129.88 102.09,-139.65 88.57,-146.41"/>
<polygon fill="#63b8ff" stroke="#63b8ff" points="190.39,-76.48 198.85,-70.1 188.26,-69.81 190.39,-76.48"/>
</a>
</g>
</g>
<!-- Node12&#45;&gt;Node5 -->
<g id="edge19_Node000012_Node000005" class="edge">
<title>Node12&#45;&gt;Node5</title>
<g id="a_edge19_Node000012_Node000005"><a xlink:title=" ">
<path fill="none" stroke="#63b8ff" d="M188.56,-73.53C157.69,-80.3 118.79,-88.85 93.66,-94.37"/>
<polygon fill="#63b8ff" stroke="#63b8ff" points="189.67,-76.87 198.69,-71.3 188.17,-70.03 189.67,-76.87"/>
</a>
</g>
</g>
<!-- Node13&#45;&gt;Node10 -->
<g id="edge21_Node000013_Node000010" class="edge">
<title>Node13&#45;&gt;Node10</title>
<g id="a_edge21_Node000013_Node000010"><a xlink:title=" ">
<path fill="none" stroke="#63b8ff" d="M477.71,-49.37C467.46,-47.43 456.96,-45.56 447,-44 397.32,-36.21 340.62,-29.85 298.89,-25.63"/>
<polygon fill="#63b8ff" stroke="#63b8ff" points="477.36,-52.87 487.84,-51.33 478.69,-45.99 477.36,-52.87"/>
</a>
</g>
</g>
<!-- Node13&#45;&gt;Node11 -->
<g id="edge22_Node000013_Node000011" class="edge">
<title>Node13&#45;&gt;Node11</title>
<g id="a_edge22_Node000013_Node000011"><a xlink:title=" ">
<path fill="none" stroke="#63b8ff" d="M477.96,-63C467.38,-63 456.55,-63 446.34,-63"/>
<polygon fill="#63b8ff" stroke="#63b8ff" points="478,-66.5 488,-63 478,-59.5 478,-66.5"/>
</a>
</g>
</g>
</g>
</svg>
