<?xml version="1.0" encoding="UTF-8" standalone="no"?>
<!DOCTYPE svg PUBLIC "-//W3C//DTD SVG 1.1//EN"
 "http://www.w3.org/Graphics/SVG/1.1/DTD/svg11.dtd">
<!-- Generated by graphviz version 2.43.0 (0)
 -->
<!-- Title: m_checker::s_check_inputs Pages: 1 -->
<svg width="651pt" height="964pt"
 viewBox="0.00 0.00 651.00 964.33" xmlns="http://www.w3.org/2000/svg" xmlns:xlink="http://www.w3.org/1999/xlink">
<g id="graph0" class="graph" transform="scale(1 1) rotate(0) translate(4 960.33)">
<title>m_checker::s_check_inputs</title>
<!-- Node1 -->
<g id="Node000001" class="node">
<title>Node1</title>
<g id="a_Node000001"><a xlink:title="Checks compatibility of parameters in the input file. Used by the simulation stage.">
<polygon fill="#999999" stroke="#666666" points="114,-486 0,-486 0,-456 114,-456 114,-486"/>
<text text-anchor="start" x="8" y="-474" font-family="Helvetica,sans-Serif" font-size="10.00">m_checker::s_check</text>
<text text-anchor="middle" x="57" y="-463" font-family="Helvetica,sans-Serif" font-size="10.00">_inputs</text>
</a>
</g>
</g>
<!-- Node2 -->
<g id="Node000002" class="node">
<title>Node2</title>
<g id="a_Node000002"><a xlink:href="namespacem__checker.html#ae53e7ca604c26ab0fe74b9043602d4fd" target="_top" xlink:title="Checks constraints on acoustic_source parameters.">
<polygon fill="white" stroke="#666666" points="285.5,-954 168.5,-954 168.5,-924 285.5,-924 285.5,-954"/>
<text text-anchor="start" x="176.5" y="-942" font-family="Helvetica,sans-Serif" font-size="10.00">m_checker::s_check</text>
<text text-anchor="middle" x="227" y="-931" font-family="Helvetica,sans-Serif" font-size="10.00">_inputs_acoustic_src</text>
</a>
</g>
</g>
<!-- Node1&#45;&gt;Node2 -->
<g id="edge1_Node000001_Node000002" class="edge">
<title>Node1&#45;&gt;Node2</title>
<g id="a_edge1_Node000001_Node000002"><a xlink:title=" ">
<path fill="none" stroke="#63b8ff" d="M59.11,-486.06C64.56,-556.1 90.64,-849.28 150,-915 152.87,-918.18 156.16,-920.94 159.71,-923.33"/>
<polygon fill="#63b8ff" stroke="#63b8ff" points="158.03,-926.4 168.45,-928.29 161.48,-920.31 158.03,-926.4"/>
</a>
</g>
</g>
<!-- Node7 -->
<g id="Node000007" class="node">
<title>Node7</title>
<g id="a_Node000007"><a xlink:href="namespacem__checker.html#acc26a5078c9a327d36a7f9df1f677a77" target="_top" xlink:title="Checks constraints on adaptive time stepping parameters (adap_dt)">
<polygon fill="white" stroke="#666666" points="284,-654 170,-654 170,-624 284,-624 284,-654"/>
<text text-anchor="start" x="178" y="-642" font-family="Helvetica,sans-Serif" font-size="10.00">m_checker::s_check</text>
<text text-anchor="middle" x="227" y="-631" font-family="Helvetica,sans-Serif" font-size="10.00">_inputs_adapt_dt</text>
</a>
</g>
</g>
<!-- Node1&#45;&gt;Node7 -->
<g id="edge8_Node000001_Node000007" class="edge">
<title>Node1&#45;&gt;Node7</title>
<g id="a_edge8_Node000001_Node000007"><a xlink:title=" ">
<path fill="none" stroke="#63b8ff" d="M63.54,-486.09C75.04,-515.34 104.33,-579.98 150,-615 153.34,-617.56 156.95,-619.85 160.73,-621.89"/>
<polygon fill="#63b8ff" stroke="#63b8ff" points="159.26,-625.07 169.79,-626.24 162.29,-618.76 159.26,-625.07"/>
</a>
</g>
</g>
<!-- Node8 -->
<g id="Node000008" class="node">
<title>Node8</title>
<g id="a_Node000008"><a xlink:href="namespacem__checker.html#a0671188cdd71a01ec372cbd01ac94693" target="_top" xlink:title="Checks constraints on alternative sound speed parameters (alt_soundspeed)">
<polygon fill="white" stroke="#666666" points="294,-606 160,-606 160,-576 294,-576 294,-606"/>
<text text-anchor="start" x="168" y="-594" font-family="Helvetica,sans-Serif" font-size="10.00">m_checker::s_check</text>
<text text-anchor="middle" x="227" y="-583" font-family="Helvetica,sans-Serif" font-size="10.00">_inputs_alt_soundspeed</text>
</a>
</g>
</g>
<!-- Node1&#45;&gt;Node8 -->
<g id="edge9_Node000001_Node000008" class="edge">
<title>Node1&#45;&gt;Node8</title>
<g id="a_edge9_Node000001_Node000008"><a xlink:title=" ">
<path fill="none" stroke="#63b8ff" d="M68.7,-486.26C84.26,-507.37 115.11,-545.3 150,-567 152.76,-568.72 155.66,-570.32 158.64,-571.82"/>
<polygon fill="#63b8ff" stroke="#63b8ff" points="157.24,-575.03 167.79,-576 160.14,-568.66 157.24,-575.03"/>
</a>
</g>
</g>
<!-- Node9 -->
<g id="Node000009" class="node">
<title>Node9</title>
<g id="a_Node000009"><a xlink:href="namespacem__checker.html#a3c394d83ae91d8026c551f81031cdc8e" target="_top" xlink:title="Checks constraints on body forces parameters (bf_x[y,z], etc.)">
<polygon fill="white" stroke="#666666" points="285,-702 169,-702 169,-672 285,-672 285,-702"/>
<text text-anchor="start" x="177" y="-690" font-family="Helvetica,sans-Serif" font-size="10.00">m_checker::s_check</text>
<text text-anchor="middle" x="227" y="-679" font-family="Helvetica,sans-Serif" font-size="10.00">_inputs_body_forces</text>
</a>
</g>
</g>
<!-- Node1&#45;&gt;Node9 -->
<g id="edge10_Node000001_Node000009" class="edge">
<title>Node1&#45;&gt;Node9</title>
<g id="a_edge10_Node000001_Node000009"><a xlink:title=" ">
<path fill="none" stroke="#63b8ff" d="M60.97,-486.22C68.81,-522.36 93.48,-613.93 150,-663 153.03,-665.63 156.35,-667.97 159.85,-670.06"/>
<polygon fill="#63b8ff" stroke="#63b8ff" points="158.38,-673.24 168.87,-674.73 161.6,-667.02 158.38,-673.24"/>
</a>
</g>
</g>
<!-- Node10 -->
<g id="Node000010" class="node">
<title>Node10</title>
<g id="a_Node000010"><a xlink:href="namespacem__checker.html#aa9fb7874618056769669737ab323058f" target="_top" xlink:title="Checks constraints on bubble parameters.">
<polygon fill="white" stroke="#666666" points="289.5,-558 164.5,-558 164.5,-528 289.5,-528 289.5,-558"/>
<text text-anchor="start" x="172.5" y="-546" font-family="Helvetica,sans-Serif" font-size="10.00">m_checker::s_check</text>
<text text-anchor="middle" x="227" y="-535" font-family="Helvetica,sans-Serif" font-size="10.00">_inputs_bubbles_euler</text>
</a>
</g>
</g>
<!-- Node1&#45;&gt;Node10 -->
<g id="edge12_Node000001_Node000010" class="edge">
<title>Node1&#45;&gt;Node10</title>
<g id="a_edge12_Node000001_Node000010"><a xlink:title=" ">
<path fill="none" stroke="#63b8ff" d="M83.98,-486.12C102.1,-496.27 127.04,-509.47 150,-519 154.67,-520.94 159.56,-522.81 164.51,-524.6"/>
<polygon fill="#63b8ff" stroke="#63b8ff" points="163.46,-527.94 174.05,-527.93 165.76,-521.33 163.46,-527.94"/>
</a>
</g>
</g>
<!-- Node11 -->
<g id="Node000011" class="node">
<title>Node11</title>
<g id="a_Node000011"><a xlink:href="namespacem__checker.html#a889ee601de489406e0a5711659a758e5" target="_top" xlink:title="Checks constraints on lagrangian bubble parameters.">
<polygon fill="white" stroke="#666666" points="298.5,-510 155.5,-510 155.5,-480 298.5,-480 298.5,-510"/>
<text text-anchor="start" x="163.5" y="-498" font-family="Helvetica,sans-Serif" font-size="10.00">m_checker::s_check</text>
<text text-anchor="middle" x="227" y="-487" font-family="Helvetica,sans-Serif" font-size="10.00">_inputs_bubbles_lagrange</text>
</a>
</g>
</g>
<!-- Node1&#45;&gt;Node11 -->
<g id="edge13_Node000001_Node000011" class="edge">
<title>Node1&#45;&gt;Node11</title>
<g id="a_edge13_Node000001_Node000011"><a xlink:title=" ">
<path fill="none" stroke="#63b8ff" d="M114.41,-479.06C124.38,-480.48 134.93,-481.99 145.41,-483.49"/>
<polygon fill="#63b8ff" stroke="#63b8ff" points="145.02,-486.97 155.42,-484.92 146.01,-480.04 145.02,-486.97"/>
</a>
</g>
</g>
<!-- Node12 -->
<g id="Node000012" class="node">
<title>Node12</title>
<g id="a_Node000012"><a xlink:href="namespacem__checker.html#aae9a516509d46e5ac36d150bb75254f2" target="_top" xlink:title="Checks constraints on compiler options.">
<polygon fill="white" stroke="#666666" points="284,-462 170,-462 170,-432 284,-432 284,-462"/>
<text text-anchor="start" x="178" y="-450" font-family="Helvetica,sans-Serif" font-size="10.00">m_checker::s_check</text>
<text text-anchor="middle" x="227" y="-439" font-family="Helvetica,sans-Serif" font-size="10.00">_inputs_compilers</text>
</a>
</g>
</g>
<!-- Node1&#45;&gt;Node12 -->
<g id="edge14_Node000001_Node000012" class="edge">
<title>Node1&#45;&gt;Node12</title>
<g id="a_edge14_Node000001_Node000012"><a xlink:title=" ">
<path fill="none" stroke="#63b8ff" d="M114.41,-462.94C128.89,-460.87 144.61,-458.63 159.55,-456.49"/>
<polygon fill="#63b8ff" stroke="#63b8ff" points="160.34,-459.92 169.74,-455.04 159.35,-452.99 160.34,-459.92"/>
</a>
</g>
</g>
<!-- Node13 -->
<g id="Node000013" class="node">
<title>Node13</title>
<g id="a_Node000013"><a xlink:href="namespacem__checker.html#a75646461a67d613be30bc67a0463968a" target="_top" xlink:title="Checks constraints on continuum damage model parameters.">
<polygon fill="white" stroke="#666666" points="304,-750 150,-750 150,-720 304,-720 304,-750"/>
<text text-anchor="start" x="158" y="-738" font-family="Helvetica,sans-Serif" font-size="10.00">m_checker::s_check</text>
<text text-anchor="middle" x="227" y="-727" font-family="Helvetica,sans-Serif" font-size="10.00">_inputs_continuum_damage</text>
</a>
</g>
</g>
<!-- Node1&#45;&gt;Node13 -->
<g id="edge15_Node000001_Node000013" class="edge">
<title>Node1&#45;&gt;Node13</title>
<g id="a_edge15_Node000001_Node000013"><a xlink:title=" ">
<path fill="none" stroke="#63b8ff" d="M59.33,-486.13C63.84,-528.13 82.26,-647.22 150,-711 151.13,-712.07 152.31,-713.09 153.54,-714.06"/>
<polygon fill="#63b8ff" stroke="#63b8ff" points="151.87,-717.16 162.12,-719.86 155.79,-711.36 151.87,-717.16"/>
</a>
</g>
</g>
<!-- Node14 -->
<g id="Node000014" class="node">
<title>Node14</title>
<g id="a_Node000014"><a xlink:href="namespacem__checker.html#aa69f6c9d17c37cfcbe580aaa9b1aa864" target="_top" xlink:title="Checks constraints on geometry and precision.">
<polygon fill="white" stroke="#666666" points="304,-414 150,-414 150,-384 304,-384 304,-414"/>
<text text-anchor="start" x="158" y="-402" font-family="Helvetica,sans-Serif" font-size="10.00">m_checker::s_check</text>
<text text-anchor="middle" x="227" y="-391" font-family="Helvetica,sans-Serif" font-size="10.00">_inputs_geometry_precision</text>
</a>
</g>
</g>
<!-- Node1&#45;&gt;Node14 -->
<g id="edge17_Node000001_Node000014" class="edge">
<title>Node1&#45;&gt;Node14</title>
<g id="a_edge17_Node000001_Node000014"><a xlink:title=" ">
<path fill="none" stroke="#63b8ff" d="M83.98,-455.88C102.1,-445.73 127.04,-432.53 150,-423 154.67,-421.06 159.56,-419.19 164.51,-417.4"/>
<polygon fill="#63b8ff" stroke="#63b8ff" points="165.76,-420.67 174.05,-414.07 163.46,-414.06 165.76,-420.67"/>
</a>
</g>
</g>
<!-- Node15 -->
<g id="Node000015" class="node">
<title>Node15</title>
<g id="a_Node000015"><a xlink:href="namespacem__checker.html#a8077d9978c9d615e5842749cb3efea24" target="_top" xlink:title="Checks constraints for GRCBC.">
<polygon fill="white" stroke="#666666" points="284,-366 170,-366 170,-336 284,-336 284,-366"/>
<text text-anchor="start" x="178" y="-354" font-family="Helvetica,sans-Serif" font-size="10.00">m_checker::s_check</text>
<text text-anchor="middle" x="227" y="-343" font-family="Helvetica,sans-Serif" font-size="10.00">_inputs_grcbc</text>
</a>
</g>
</g>
<!-- Node1&#45;&gt;Node15 -->
<g id="edge18_Node000001_Node000015" class="edge">
<title>Node1&#45;&gt;Node15</title>
<g id="a_edge18_Node000001_Node000015"><a xlink:title=" ">
<path fill="none" stroke="#63b8ff" d="M68.7,-455.74C84.26,-434.63 115.11,-396.7 150,-375 153.34,-372.92 156.88,-371.01 160.53,-369.25"/>
<polygon fill="#63b8ff" stroke="#63b8ff" points="162.02,-372.42 169.77,-365.19 159.21,-366.01 162.02,-372.42"/>
</a>
</g>
</g>
<!-- Node16 -->
<g id="Node000016" class="node">
<title>Node16</title>
<g id="a_Node000016"><a xlink:href="namespacem__checker.html#a9612174de873a05dab3922f9eddc11b0" target="_top" xlink:title="Checks constraints on hypoelasticity parameters.">
<polygon fill="white" stroke="#666666" points="290,-318 164,-318 164,-288 290,-288 290,-318"/>
<text text-anchor="start" x="172" y="-306" font-family="Helvetica,sans-Serif" font-size="10.00">m_checker::s_check</text>
<text text-anchor="middle" x="227" y="-295" font-family="Helvetica,sans-Serif" font-size="10.00">_inputs_hypoelasticity</text>
</a>
</g>
</g>
<!-- Node1&#45;&gt;Node16 -->
<g id="edge19_Node000001_Node000016" class="edge">
<title>Node1&#45;&gt;Node16</title>
<g id="a_edge19_Node000001_Node000016"><a xlink:title=" ">
<path fill="none" stroke="#63b8ff" d="M63.54,-455.91C75.04,-426.66 104.33,-362.02 150,-327 151.83,-325.6 153.74,-324.28 155.72,-323.03"/>
<polygon fill="#63b8ff" stroke="#63b8ff" points="157.69,-325.94 164.75,-318.05 154.3,-319.81 157.69,-325.94"/>
</a>
</g>
</g>
<!-- Node17 -->
<g id="Node000017" class="node">
<title>Node17</title>
<g id="a_Node000017"><a xlink:href="namespacem__checker.html#ad9455d1d7a63e7e090a23a779d3e7cf3" target="_top" xlink:title=" ">
<polygon fill="white" stroke="#666666" points="284,-270 170,-270 170,-240 284,-240 284,-270"/>
<text text-anchor="start" x="178" y="-258" font-family="Helvetica,sans-Serif" font-size="10.00">m_checker::s_check</text>
<text text-anchor="middle" x="227" y="-247" font-family="Helvetica,sans-Serif" font-size="10.00">_inputs_igr</text>
</a>
</g>
</g>
<!-- Node1&#45;&gt;Node17 -->
<g id="edge20_Node000001_Node000017" class="edge">
<title>Node1&#45;&gt;Node17</title>
<g id="a_edge20_Node000001_Node000017"><a xlink:title=" ">
<path fill="none" stroke="#63b8ff" d="M60.97,-455.78C68.81,-419.64 93.48,-328.07 150,-279 153.23,-276.19 156.79,-273.72 160.56,-271.53"/>
<polygon fill="#63b8ff" stroke="#63b8ff" points="162.3,-274.57 169.64,-266.93 159.14,-268.32 162.3,-274.57"/>
</a>
</g>
</g>
<!-- Node18 -->
<g id="Node000018" class="node">
<title>Node18</title>
<g id="a_Node000018"><a xlink:href="namespacem__checker.html#aacc9d722e445416a9d8965676f2b5b0b" target="_top" xlink:title=" ">
<polygon fill="white" stroke="#666666" points="284,-222 170,-222 170,-192 284,-192 284,-222"/>
<text text-anchor="start" x="178" y="-210" font-family="Helvetica,sans-Serif" font-size="10.00">m_checker::s_check</text>
<text text-anchor="middle" x="227" y="-199" font-family="Helvetica,sans-Serif" font-size="10.00">_inputs_mhd</text>
</a>
</g>
</g>
<!-- Node1&#45;&gt;Node18 -->
<g id="edge21_Node000001_Node000018" class="edge">
<title>Node1&#45;&gt;Node18</title>
<g id="a_edge21_Node000001_Node000018"><a xlink:title=" ">
<path fill="none" stroke="#63b8ff" d="M59.33,-455.87C63.84,-413.87 82.26,-294.78 150,-231 153.17,-228.01 156.72,-225.4 160.49,-223.11"/>
<polygon fill="#63b8ff" stroke="#63b8ff" points="162.4,-226.06 169.65,-218.33 159.16,-219.85 162.4,-226.06"/>
</a>
</g>
</g>
<!-- Node19 -->
<g id="Node000019" class="node">
<title>Node19</title>
<g id="a_Node000019"><a xlink:href="namespacem__checker.html#a4a14987dcf7b3ff20915136de95cb2f6" target="_top" xlink:title="Checks miscellaneous constraints, including constraints on probe_wrt and integral_wrt.">
<polygon fill="white" stroke="#666666" points="284,-174 170,-174 170,-144 284,-144 284,-174"/>
<text text-anchor="start" x="178" y="-162" font-family="Helvetica,sans-Serif" font-size="10.00">m_checker::s_check</text>
<text text-anchor="middle" x="227" y="-151" font-family="Helvetica,sans-Serif" font-size="10.00">_inputs_misc</text>
</a>
</g>
</g>
<!-- Node1&#45;&gt;Node19 -->
<g id="edge22_Node000001_Node000019" class="edge">
<title>Node1&#45;&gt;Node19</title>
<g id="a_edge22_Node000001_Node000019"><a xlink:title=" ">
<path fill="none" stroke="#63b8ff" d="M58.22,-455.7C59.76,-408.2 71,-261.74 150,-183 153.23,-179.78 156.89,-176.99 160.81,-174.58"/>
<polygon fill="#63b8ff" stroke="#63b8ff" points="162.54,-177.62 169.75,-169.87 159.27,-171.43 162.54,-177.62"/>
</a>
</g>
</g>
<!-- Node20 -->
<g id="Node000020" class="node">
<title>Node20</title>
<g id="a_Node000020"><a xlink:href="namespacem__checker.html#a886c16e10613db9388ef8f92554f684a" target="_top" xlink:title="Checks constraints on parameters related to 6&#45;equation model.">
<polygon fill="white" stroke="#666666" points="285,-126 169,-126 169,-96 285,-96 285,-126"/>
<text text-anchor="start" x="177" y="-114" font-family="Helvetica,sans-Serif" font-size="10.00">m_checker::s_check</text>
<text text-anchor="middle" x="227" y="-103" font-family="Helvetica,sans-Serif" font-size="10.00">_inputs_model_eqns</text>
</a>
</g>
</g>
<!-- Node1&#45;&gt;Node20 -->
<g id="edge23_Node000001_Node000020" class="edge">
<title>Node1&#45;&gt;Node20</title>
<g id="a_edge23_Node000001_Node000020"><a xlink:title=" ">
<path fill="none" stroke="#63b8ff" d="M57.4,-455.85C56.2,-403.62 59.43,-229.14 150,-135 152.97,-131.92 156.33,-129.23 159.94,-126.88"/>
<polygon fill="#63b8ff" stroke="#63b8ff" points="161.71,-129.9 168.77,-122.01 158.33,-123.77 161.71,-129.9"/>
</a>
</g>
</g>
<!-- Node21 -->
<g id="Node000021" class="node">
<title>Node21</title>
<g id="a_Node000021"><a xlink:href="namespacem__checker.html#a96654b50668ae39c0b9eca1426a3fe56" target="_top" xlink:title=" ">
<polygon fill="white" stroke="#666666" points="284,-906 170,-906 170,-876 284,-876 284,-906"/>
<text text-anchor="start" x="178" y="-894" font-family="Helvetica,sans-Serif" font-size="10.00">m_checker::s_check</text>
<text text-anchor="middle" x="227" y="-883" font-family="Helvetica,sans-Serif" font-size="10.00">_inputs_muscl</text>
</a>
</g>
</g>
<!-- Node1&#45;&gt;Node21 -->
<g id="edge24_Node000001_Node000021" class="edge">
<title>Node1&#45;&gt;Node21</title>
<g id="a_edge24_Node000001_Node000021"><a xlink:title=" ">
<path fill="none" stroke="#63b8ff" d="M59.53,-486.16C66.41,-551.62 96.55,-809.24 150,-867 153.15,-870.41 156.78,-873.33 160.71,-875.84"/>
<polygon fill="#63b8ff" stroke="#63b8ff" points="159.26,-879.04 169.72,-880.71 162.58,-872.88 159.26,-879.04"/>
</a>
</g>
</g>
<!-- Node22 -->
<g id="Node000022" class="node">
<title>Node22</title>
<g id="a_Node000022"><a xlink:href="namespacem__checker.html#a6d3a9da7c35063469ecc2df03b4c90e1" target="_top" xlink:title="Checks constraints on Riemann solver parameters.">
<polygon fill="white" stroke="#666666" points="293.5,-78 160.5,-78 160.5,-48 293.5,-48 293.5,-78"/>
<text text-anchor="start" x="168.5" y="-66" font-family="Helvetica,sans-Serif" font-size="10.00">m_checker::s_check</text>
<text text-anchor="middle" x="227" y="-55" font-family="Helvetica,sans-Serif" font-size="10.00">_inputs_riemann_solver</text>
</a>
</g>
</g>
<!-- Node1&#45;&gt;Node22 -->
<g id="edge26_Node000001_Node000022" class="edge">
<title>Node1&#45;&gt;Node22</title>
<g id="a_edge26_Node000001_Node000022"><a xlink:title=" ">
<path fill="none" stroke="#63b8ff" d="M59.64,-455.86C66.9,-391.68 98.01,-142.8 150,-87 150.9,-86.03 151.84,-85.1 152.82,-84.21"/>
<polygon fill="#63b8ff" stroke="#63b8ff" points="155.05,-86.91 160.9,-78.08 150.82,-81.33 155.05,-86.91"/>
</a>
</g>
</g>
<!-- Node23 -->
<g id="Node000023" class="node">
<title>Node23</title>
<g id="a_Node000023"><a xlink:href="namespacem__checker.html#a45be1868d8f0598be1781280e39078d3" target="_top" xlink:title="Checks constraints on viscosity parameters (fluid_pp(i)Re(1:2)) of the stiffened gas equation of stat...">
<polygon fill="white" stroke="#666666" points="288,-809.5 166,-809.5 166,-768.5 288,-768.5 288,-809.5"/>
<text text-anchor="start" x="174" y="-797.5" font-family="Helvetica,sans-Serif" font-size="10.00">m_checker::s_check</text>
<text text-anchor="start" x="174" y="-786.5" font-family="Helvetica,sans-Serif" font-size="10.00">_inputs_stiffened_eos</text>
<text text-anchor="middle" x="227" y="-775.5" font-family="Helvetica,sans-Serif" font-size="10.00">_viscosity</text>
</a>
</g>
</g>
<!-- Node1&#45;&gt;Node23 -->
<g id="edge27_Node000001_Node000023" class="edge">
<title>Node1&#45;&gt;Node23</title>
<g id="a_edge27_Node000001_Node000023"><a xlink:title=" ">
<path fill="none" stroke="#63b8ff" d="M58.47,-486.06C60.72,-532.88 73.81,-677.54 150,-759 152.28,-761.43 154.78,-763.67 157.44,-765.74"/>
<polygon fill="#63b8ff" stroke="#63b8ff" points="155.6,-768.72 165.85,-771.4 159.51,-762.91 155.6,-768.72"/>
</a>
</g>
</g>
<!-- Node24 -->
<g id="Node000024" class="node">
<title>Node24</title>
<g id="a_Node000024"><a xlink:href="namespacem__checker.html#a2bee59c2049ad8165e2788175b6cd030" target="_top" xlink:title="Checks constraints on time stepping parameters.">
<polygon fill="white" stroke="#666666" points="290.5,-30 163.5,-30 163.5,0 290.5,0 290.5,-30"/>
<text text-anchor="start" x="171.5" y="-18" font-family="Helvetica,sans-Serif" font-size="10.00">m_checker::s_check</text>
<text text-anchor="middle" x="227" y="-7" font-family="Helvetica,sans-Serif" font-size="10.00">_inputs_time_stepping</text>
</a>
</g>
</g>
<!-- Node1&#45;&gt;Node24 -->
<g id="edge30_Node000001_Node000024" class="edge">
<title>Node1&#45;&gt;Node24</title>
<g id="a_edge30_Node000001_Node000024"><a xlink:title=" ">
<path fill="none" stroke="#63b8ff" d="M59.21,-455.88C65.01,-386.91 92.13,-102.72 150,-39 151.55,-37.29 153.22,-35.71 154.99,-34.23"/>
<polygon fill="#63b8ff" stroke="#63b8ff" points="157.08,-37.04 163.29,-28.46 153.08,-31.29 157.08,-37.04"/>
</a>
</g>
</g>
<!-- Node25 -->
<g id="Node000025" class="node">
<title>Node25</title>
<g id="a_Node000025"><a xlink:href="namespacem__checker.html#a8abd19271bbd3a0d8a4b445f1e7dba57" target="_top" xlink:title="Checks constraints on WENO scheme parameters.">
<polygon fill="white" stroke="#666666" points="284,-858 170,-858 170,-828 284,-828 284,-858"/>
<text text-anchor="start" x="178" y="-846" font-family="Helvetica,sans-Serif" font-size="10.00">m_checker::s_check</text>
<text text-anchor="middle" x="227" y="-835" font-family="Helvetica,sans-Serif" font-size="10.00">_inputs_weno</text>
</a>
</g>
</g>
<!-- Node1&#45;&gt;Node25 -->
<g id="edge31_Node000001_Node000025" class="edge">
<title>Node1&#45;&gt;Node25</title>
<g id="a_edge31_Node000001_Node000025"><a xlink:title=" ">
<path fill="none" stroke="#63b8ff" d="M60.1,-486.28C68.67,-546.7 102.86,-768.01 150,-818 153.2,-821.39 156.86,-824.32 160.81,-826.85"/>
<polygon fill="#63b8ff" stroke="#63b8ff" points="159.4,-830.07 169.85,-831.79 162.75,-823.92 159.4,-830.07"/>
</a>
</g>
</g>
<!-- Node3 -->
<g id="Node000003" class="node">
<title>Node3</title>
<g id="a_Node000003"><a xlink:href="namespacem__helper__basic.html#a58590a12d49b9b884256a839f2be8610" target="_top" xlink:title="This procedure checks if two floating point numbers of wp are within tolerance.">
<polygon fill="white" stroke="#666666" points="643,-895 501,-895 501,-865 643,-865 643,-895"/>
<text text-anchor="start" x="509" y="-883" font-family="Helvetica,sans-Serif" font-size="10.00">m_helper_basic::f_approx</text>
<text text-anchor="middle" x="572" y="-872" font-family="Helvetica,sans-Serif" font-size="10.00">_equal</text>
</a>
</g>
</g>
<!-- Node2&#45;&gt;Node3 -->
<g id="edge2_Node000002_Node000003" class="edge">
<title>Node2&#45;&gt;Node3</title>
<g id="a_edge2_Node000002_Node000003"><a xlink:title=" ">
<path fill="none" stroke="#63b8ff" d="M285.69,-949.86C334.43,-956.83 405.58,-961.77 465,-945 495,-936.54 524.87,-916.94 545.22,-901.47"/>
<polygon fill="#63b8ff" stroke="#63b8ff" points="547.61,-904.05 553.34,-895.13 543.3,-898.53 547.61,-904.05"/>
</a>
</g>
</g>
<!-- Node4 -->
<g id="Node000004" class="node">
<title>Node4</title>
<g id="a_Node000004"><a xlink:href="namespacem__helper__basic.html#a345e205ced0b0674a22f59a2c1549eb4" target="_top" xlink:title="Checks if a real(wp) variable is of default value.">
<polygon fill="white" stroke="#666666" points="460.5,-809 344.5,-809 344.5,-779 460.5,-779 460.5,-809"/>
<text text-anchor="start" x="352.5" y="-797" font-family="Helvetica,sans-Serif" font-size="10.00">m_helper_basic::f_is</text>
<text text-anchor="middle" x="402.5" y="-786" font-family="Helvetica,sans-Serif" font-size="10.00">_default</text>
</a>
</g>
</g>
<!-- Node2&#45;&gt;Node4 -->
<g id="edge3_Node000002_Node000004" class="edge">
<title>Node2&#45;&gt;Node4</title>
<g id="a_edge3_Node000002_Node000004"><a xlink:title=" ">
<path fill="none" stroke="#63b8ff" d="M285.76,-925.55C292.26,-922.68 298.5,-919.2 304,-915 327.51,-897.03 321.75,-882.29 340,-859 351.82,-843.91 366.53,-828.27 378.61,-816.11"/>
<polygon fill="#63b8ff" stroke="#63b8ff" points="381.11,-818.56 385.73,-809.02 376.17,-813.59 381.11,-818.56"/>
</a>
</g>
</g>
<!-- Node5 -->
<g id="Node000005" class="node">
<title>Node5</title>
<g id="a_Node000005"><a xlink:href="namespacem__helper__basic.html#a8f17ba5c5fd6ae301c3c5ebd3c15dcd3" target="_top" xlink:title="Checks if a real(wp) variable is an integer.">
<polygon fill="white" stroke="#666666" points="460.5,-936 344.5,-936 344.5,-906 460.5,-906 460.5,-936"/>
<text text-anchor="start" x="352.5" y="-924" font-family="Helvetica,sans-Serif" font-size="10.00">m_helper_basic::f_is</text>
<text text-anchor="middle" x="402.5" y="-913" font-family="Helvetica,sans-Serif" font-size="10.00">_integer</text>
</a>
</g>
</g>
<!-- Node2&#45;&gt;Node5 -->
<g id="edge5_Node000002_Node000005" class="edge">
<title>Node2&#45;&gt;Node5</title>
<g id="a_edge5_Node000002_Node000005"><a xlink:title=" ">
<path fill="none" stroke="#63b8ff" d="M285.77,-933.01C301.22,-931.4 318.05,-929.66 333.97,-928.01"/>
<polygon fill="#63b8ff" stroke="#63b8ff" points="334.69,-931.45 344.27,-926.94 333.97,-924.49 334.69,-931.45"/>
</a>
</g>
</g>
<!-- Node6 -->
<g id="Node000006" class="node">
<title>Node6</title>
<g id="a_Node000006"><a xlink:href="namespacem__helper.html#a6b74248bdd19bc6b0b43f757a3212275" target="_top" xlink:title=" ">
<polygon fill="white" stroke="#666666" points="465,-887.5 340,-887.5 340,-868.5 465,-868.5 465,-887.5"/>
<text text-anchor="middle" x="402.5" y="-875.5" font-family="Helvetica,sans-Serif" font-size="10.00">m_helper::s_int_to_str</text>
</a>
</g>
</g>
<!-- Node2&#45;&gt;Node6 -->
<g id="edge7_Node000002_Node000006" class="edge">
<title>Node2&#45;&gt;Node6</title>
<g id="a_edge7_Node000002_Node000006"><a xlink:title=" ">
<path fill="none" stroke="#63b8ff" d="M279.49,-923.95C287.77,-921.19 296.18,-918.17 304,-915 320.58,-908.29 323.4,-903.66 340,-897 345.51,-894.79 351.39,-892.67 357.24,-890.71"/>
<polygon fill="#63b8ff" stroke="#63b8ff" points="358.55,-893.97 367,-887.57 356.4,-887.31 358.55,-893.97"/>
</a>
</g>
</g>
<!-- Node4&#45;&gt;Node3 -->
<g id="edge4_Node000004_Node000003" class="edge">
<title>Node4&#45;&gt;Node3</title>
<g id="a_edge4_Node000004_Node000003"><a xlink:title=" ">
<path fill="none" stroke="#63b8ff" d="M433.06,-809.18C460.81,-823.42 502.46,-844.81 532.73,-860.35"/>
<polygon fill="#63b8ff" stroke="#63b8ff" points="531.24,-863.52 541.74,-864.97 534.44,-857.29 531.24,-863.52"/>
</a>
</g>
</g>
<!-- Node5&#45;&gt;Node3 -->
<g id="edge6_Node000005_Node000003" class="edge">
<title>Node5&#45;&gt;Node3</title>
<g id="a_edge6_Node000005_Node000003"><a xlink:title=" ">
<path fill="none" stroke="#63b8ff" d="M460.68,-907C473.21,-903.94 486.64,-900.65 499.65,-897.46"/>
<polygon fill="#63b8ff" stroke="#63b8ff" points="500.62,-900.83 509.5,-895.05 498.96,-894.03 500.62,-900.83"/>
</a>
</g>
</g>
<!-- Node9&#45;&gt;Node4 -->
<g id="edge11_Node000009_Node000004" class="edge">
<title>Node9&#45;&gt;Node4</title>
<g id="a_edge11_Node000009_Node000004"><a xlink:title=" ">
<path fill="none" stroke="#63b8ff" d="M284.68,-702.1C291.36,-704.69 297.95,-707.65 304,-711 333.1,-727.11 361.49,-752.74 380.06,-771.26"/>
<polygon fill="#63b8ff" stroke="#63b8ff" points="377.88,-774.04 387.39,-778.71 382.87,-769.13 377.88,-774.04"/>
</a>
</g>
</g>
<!-- Node13&#45;&gt;Node4 -->
<g id="edge16_Node000013_Node000004" class="edge">
<title>Node13&#45;&gt;Node4</title>
<g id="a_edge16_Node000013_Node000004"><a xlink:title=" ">
<path fill="none" stroke="#63b8ff" d="M276.74,-750.08C285.82,-752.98 295.22,-756.04 304,-759 319.24,-764.14 335.73,-769.96 350.73,-775.35"/>
<polygon fill="#63b8ff" stroke="#63b8ff" points="349.76,-778.72 360.35,-778.83 352.13,-772.14 349.76,-778.72"/>
</a>
</g>
</g>
<!-- Node21&#45;&gt;Node6 -->
<g id="edge25_Node000021_Node000006" class="edge">
<title>Node21&#45;&gt;Node6</title>
<g id="a_edge25_Node000021_Node000006"><a xlink:title=" ">
<path fill="none" stroke="#63b8ff" d="M284.33,-886.78C298.72,-885.7 314.39,-884.53 329.45,-883.4"/>
<polygon fill="#63b8ff" stroke="#63b8ff" points="330.05,-886.86 339.76,-882.63 329.52,-879.88 330.05,-886.86"/>
</a>
</g>
</g>
<!-- Node23&#45;&gt;Node4 -->
<g id="edge28_Node000023_Node000004" class="edge">
<title>Node23&#45;&gt;Node4</title>
<g id="a_edge28_Node000023_Node000004"><a xlink:title=" ">
<path fill="none" stroke="#63b8ff" d="M288.19,-790.73C302.99,-791.16 318.92,-791.62 334.03,-792.06"/>
<polygon fill="#63b8ff" stroke="#63b8ff" points="334.23,-795.56 344.33,-792.35 334.44,-788.57 334.23,-795.56"/>
</a>
</g>
</g>
<!-- Node23&#45;&gt;Node6 -->
<g id="edge29_Node000023_Node000006" class="edge">
<title>Node23&#45;&gt;Node6</title>
<g id="a_edge29_Node000023_Node000006"><a xlink:title=" ">
<path fill="none" stroke="#63b8ff" d="M283.28,-809.55C290.33,-812.54 297.39,-815.72 304,-819 330.63,-832.2 359.58,-850.22 378.95,-862.86"/>
<polygon fill="#63b8ff" stroke="#63b8ff" points="377.12,-865.84 387.39,-868.42 380.97,-860 377.12,-865.84"/>
</a>
</g>
</g>
<!-- Node25&#45;&gt;Node3 -->
<g id="edge32_Node000025_Node000003" class="edge">
<title>Node25&#45;&gt;Node3</title>
<g id="a_edge32_Node000025_Node000003"><a xlink:title=" ">
<path fill="none" stroke="#63b8ff" d="M284.23,-844.77C332.38,-846.76 403.47,-850.86 465,-859 473.72,-860.15 482.79,-861.59 491.81,-863.16"/>
<polygon fill="#63b8ff" stroke="#63b8ff" points="491.47,-866.66 501.93,-864.99 492.72,-859.77 491.47,-866.66"/>
</a>
</g>
</g>
<!-- Node25&#45;&gt;Node4 -->
<g id="edge33_Node000025_Node000004" class="edge">
<title>Node25&#45;&gt;Node4</title>
<g id="a_edge33_Node000025_Node000004"><a xlink:title=" ">
<path fill="none" stroke="#63b8ff" d="M281.47,-827.9C299.53,-822.8 319.86,-817.06 338.58,-811.77"/>
<polygon fill="#63b8ff" stroke="#63b8ff" points="339.53,-815.14 348.21,-809.05 337.63,-808.4 339.53,-815.14"/>
</a>
</g>
</g>
<!-- Node25&#45;&gt;Node6 -->
<g id="edge34_Node000025_Node000006" class="edge">
<title>Node25&#45;&gt;Node6</title>
<g id="a_edge34_Node000025_Node000006"><a xlink:title=" ">
<path fill="none" stroke="#63b8ff" d="M284.33,-854.36C303.54,-858.24 325.03,-862.57 344.31,-866.46"/>
<polygon fill="#63b8ff" stroke="#63b8ff" points="343.67,-869.9 354.17,-868.45 345.06,-863.04 343.67,-869.9"/>
</a>
</g>
</g>
</g>
</svg>
