<?xml version="1.0" encoding="UTF-8" standalone="no"?>
<!DOCTYPE svg PUBLIC "-//W3C//DTD SVG 1.1//EN"
 "http://www.w3.org/Graphics/SVG/1.1/DTD/svg11.dtd">
<!-- Generated by graphviz version 2.43.0 (0)
 -->
<!-- Title: m_cbc::s_any_cbc_boundaries Pages: 1 -->
<svg width="585pt" height="86pt"
 viewBox="0.00 0.00 585.00 86.00" xmlns="http://www.w3.org/2000/svg" xmlns:xlink="http://www.w3.org/1999/xlink">
<g id="graph0" class="graph" transform="scale(1 1) rotate(0) translate(4 82)">
<title>m_cbc::s_any_cbc_boundaries</title>
<!-- Node1 -->
<g id="Node000001" class="node">
<title>Node1</title>
<g id="a_Node000001"><a xlink:title="Detect whether any domain boundary uses characteristic boundary conditions.">
<polygon fill="#999999" stroke="#666666" points="577,-48.5 413,-48.5 413,-29.5 577,-29.5 577,-48.5"/>
<text text-anchor="middle" x="495" y="-36.5" font-family="Helvetica,sans-Serif" font-size="10.00">m_cbc::s_any_cbc_boundaries</text>
</a>
</g>
</g>
<!-- Node2 -->
<g id="Node000002" class="node">
<title>Node2</title>
<g id="a_Node000002"><a xlink:href="namespacem__cbc.html#aae4c997bc61332ed3b4bd983f1e1294c" target="_top" xlink:title="Module deallocation and/or disassociation procedures.">
<polygon fill="white" stroke="#666666" points="377,-78 255,-78 255,-48 377,-48 377,-78"/>
<text text-anchor="start" x="263" y="-66" font-family="Helvetica,sans-Serif" font-size="10.00">m_cbc::s_finalize_cbc</text>
<text text-anchor="middle" x="316" y="-55" font-family="Helvetica,sans-Serif" font-size="10.00">_module</text>
</a>
</g>
</g>
<!-- Node1&#45;&gt;Node2 -->
<g id="edge1_Node000001_Node000002" class="edge">
<title>Node1&#45;&gt;Node2</title>
<g id="a_edge1_Node000001_Node000002"><a xlink:title=" ">
<path fill="none" stroke="#63b8ff" d="M413.57,-49.91C401.31,-51.57 388.85,-53.26 377.12,-54.85"/>
<polygon fill="#63b8ff" stroke="#63b8ff" points="414.35,-53.33 423.79,-48.52 413.41,-46.4 414.35,-53.33"/>
</a>
</g>
</g>
<!-- Node3 -->
<g id="Node000003" class="node">
<title>Node3</title>
<g id="a_Node000003"><a xlink:href="namespacem__cbc.html#a593a755c1b3a5814a076d4ce7321cc28" target="_top" xlink:title="Initialize the CBC module.">
<polygon fill="white" stroke="#666666" points="369.5,-30 262.5,-30 262.5,0 369.5,0 369.5,-30"/>
<text text-anchor="start" x="270.5" y="-18" font-family="Helvetica,sans-Serif" font-size="10.00">m_cbc::s_initialize</text>
<text text-anchor="middle" x="316" y="-7" font-family="Helvetica,sans-Serif" font-size="10.00">_cbc_module</text>
</a>
</g>
</g>
<!-- Node1&#45;&gt;Node3 -->
<g id="edge2_Node000001_Node000003" class="edge">
<title>Node1&#45;&gt;Node3</title>
<g id="a_edge2_Node000001_Node000003"><a xlink:title=" ">
<path fill="none" stroke="#63b8ff" d="M413.55,-28.09C398.65,-26.07 383.45,-24.01 369.64,-22.14"/>
<polygon fill="#63b8ff" stroke="#63b8ff" points="413.41,-31.6 423.79,-29.48 414.35,-24.67 413.41,-31.6"/>
</a>
</g>
</g>
<!-- Node4 -->
<g id="Node000004" class="node">
<title>Node4</title>
<g id="a_Node000004"><a xlink:href="namespacem__start__up.html#a1fb7a3f9d412acd2a9cbcfe8b45006dd" target="_top" xlink:title="Initialize all simulation sub&#45;modules in the required dependency order.">
<polygon fill="white" stroke="#666666" points="219,-30 89,-30 89,0 219,0 219,-30"/>
<text text-anchor="start" x="97" y="-18" font-family="Helvetica,sans-Serif" font-size="10.00">m_start_up::s_initialize</text>
<text text-anchor="middle" x="154" y="-7" font-family="Helvetica,sans-Serif" font-size="10.00">_modules</text>
</a>
</g>
</g>
<!-- Node3&#45;&gt;Node4 -->
<g id="edge3_Node000003_Node000004" class="edge">
<title>Node3&#45;&gt;Node4</title>
<g id="a_edge3_Node000003_Node000004"><a xlink:title=" ">
<path fill="none" stroke="#63b8ff" d="M251.99,-15C241.22,-15 230.01,-15 219.2,-15"/>
<polygon fill="#63b8ff" stroke="#63b8ff" points="252.17,-18.5 262.17,-15 252.17,-11.5 252.17,-18.5"/>
</a>
</g>
</g>
<!-- Node5 -->
<g id="Node000005" class="node">
<title>Node5</title>
<g id="a_Node000005"><a xlink:href="p__main_8fpp_8f90.html#aeec10ee8e2940c953967da3e374e1579" target="_top" xlink:title="Quasi&#45;conservative, shock&#45; and interface&#45; capturing finite&#45;volume scheme for the multicomponent Navie...">
<polygon fill="white" stroke="#666666" points="53,-24.5 0,-24.5 0,-5.5 53,-5.5 53,-24.5"/>
<text text-anchor="middle" x="26.5" y="-12.5" font-family="Helvetica,sans-Serif" font-size="10.00">p_main</text>
</a>
</g>
</g>
<!-- Node4&#45;&gt;Node5 -->
<g id="edge4_Node000004_Node000005" class="edge">
<title>Node4&#45;&gt;Node5</title>
<g id="a_edge4_Node000004_Node000005"><a xlink:title=" ">
<path fill="none" stroke="#63b8ff" d="M78.74,-15C69.58,-15 60.76,-15 53.09,-15"/>
<polygon fill="#63b8ff" stroke="#63b8ff" points="78.78,-18.5 88.78,-15 78.78,-11.5 78.78,-18.5"/>
</a>
</g>
</g>
</g>
</svg>
