<?xml version="1.0" encoding="UTF-8" standalone="no"?>
<!DOCTYPE svg PUBLIC "-//W3C//DTD SVG 1.1//EN"
 "http://www.w3.org/Graphics/SVG/1.1/DTD/svg11.dtd">
<!-- Generated by graphviz version 2.40.1 (20161225.0304)
 -->
<!-- Title: m_start_up::s_read_serial_data_files Pages: 1 -->
<svg width="262pt" height="56pt"
 viewBox="0.00 0.00 262.00 56.00" xmlns="http://www.w3.org/2000/svg" xmlns:xlink="http://www.w3.org/1999/xlink">
<g id="graph0" class="graph" transform="scale(1 1) rotate(0) translate(4 52)">
<title>m_start_up::s_read_serial_data_files</title>
<polygon fill="#ffffff" stroke="transparent" points="-4,4 -4,-52 258,-52 258,4 -4,4"/>
<!-- Node43 -->
<g id="node1" class="node">
<title>Node43</title>
<polygon fill="#bfbfbf" stroke="#000000" points="0,-.5 0,-26.5 68,-26.5 68,-.5 0,-.5"/>
<text text-anchor="start" x="8" y="-16.1" font-family="Helvetica,sans-Serif" font-size="8.00" fill="#000000">m_start_up::s_read</text>
<text text-anchor="middle" x="34" y="-7.1" font-family="Helvetica,sans-Serif" font-size="8.00" fill="#000000">_serial_data_files</text>
</g>
<!-- Node44 -->
<g id="node2" class="node">
<title>Node44</title>
<g id="a_node2"><a xlink:href="namespacem__start__up.html#a37202711d89d04cd18f08170ba608aa1" target="_top" xlink:title="m_start_up::s_initialize\l_start_up_module">
<polygon fill="#ffffff" stroke="#000000" points="104,-21.5 104,-47.5 182,-47.5 182,-21.5 104,-21.5"/>
<text text-anchor="start" x="112" y="-37.1" font-family="Helvetica,sans-Serif" font-size="8.00" fill="#000000">m_start_up::s_initialize</text>
<text text-anchor="middle" x="143" y="-28.1" font-family="Helvetica,sans-Serif" font-size="8.00" fill="#000000">_start_up_module</text>
</a>
</g>
</g>
<!-- Node43&#45;&gt;Node44 -->
<g id="edge1" class="edge">
<title>Node43&#45;&gt;Node44</title>
<path fill="none" stroke="#191970" d="M78.0492,-21.9865C86.6349,-23.6407 95.5801,-25.3641 103.9888,-26.9841"/>
<polygon fill="#191970" stroke="#191970" points="78.6708,-18.542 68.1892,-20.0869 77.3465,-25.4156 78.6708,-18.542"/>
</g>
<!-- Node45 -->
<g id="node3" class="node">
<title>Node45</title>
<g id="a_node3"><a xlink:href="p__main_8f90.html#aeec10ee8e2940c953967da3e374e1579" target="_top" xlink:title="Quasi&#45;conservative, shock&#45; and interface&#45; capturing finite&#45;volume scheme for the multicomponent Navie...">
<polygon fill="#ffffff" stroke="#000000" points="218,-5 218,-22 254,-22 254,-5 218,-5"/>
<text text-anchor="middle" x="236" y="-11.6" font-family="Helvetica,sans-Serif" font-size="8.00" fill="#000000">p_main</text>
</a>
</g>
</g>
<!-- Node43&#45;&gt;Node45 -->
<g id="edge3" class="edge">
<title>Node43&#45;&gt;Node45</title>
<path fill="none" stroke="#191970" d="M78.342,-12.7709C86.8577,-12.658 95.7051,-12.5592 104,-12.5 138.6658,-12.2524 147.3348,-12.1791 182,-12.5 193.814,-12.6094 207.08,-12.8533 217.5068,-13.0729"/>
<polygon fill="#191970" stroke="#191970" points="78.1283,-9.2735 68.1786,-12.9141 78.227,-16.2728 78.1283,-9.2735"/>
</g>
<!-- Node44&#45;&gt;Node45 -->
<g id="edge2" class="edge">
<title>Node44&#45;&gt;Node45</title>
<path fill="none" stroke="#191970" d="M192.0631,-23.4212C201.1933,-21.3596 210.1914,-19.3278 217.6435,-17.645"/>
<polygon fill="#191970" stroke="#191970" points="191.1543,-20.0382 182.1708,-25.655 192.6962,-26.8663 191.1543,-20.0382"/>
</g>
</g>
</svg>
