<?xml version="1.0" encoding="UTF-8" standalone="no"?>
<!DOCTYPE svg PUBLIC "-//W3C//DTD SVG 1.1//EN"
 "http://www.w3.org/Graphics/SVG/1.1/DTD/svg11.dtd">
<!-- Generated by graphviz version 2.43.0 (0)
 -->
<!-- Title: m_helper::f_cross Pages: 1 -->
<svg width="430pt" height="86pt"
 viewBox="0.00 0.00 430.00 86.00" xmlns="http://www.w3.org/2000/svg" xmlns:xlink="http://www.w3.org/1999/xlink">
<g id="graph0" class="graph" transform="scale(1 1) rotate(0) translate(4 82)">
<title>m_helper::f_cross</title>
<!-- Node1 -->
<g id="Node000001" class="node">
<title>Node1</title>
<g id="a_Node000001"><a xlink:title="This procedure computes the cross product of two vectors.">
<polygon fill="#999999" stroke="#666666" points="422,-48.5 319,-48.5 319,-29.5 422,-29.5 422,-48.5"/>
<text text-anchor="middle" x="370.5" y="-36.5" font-family="Helvetica,sans-Serif" font-size="10.00">m_helper::f_cross</text>
</a>
</g>
</g>
<!-- Node2 -->
<g id="Node000002" class="node">
<title>Node2</title>
<g id="a_Node000002"><a xlink:href="namespacem__model.html#a1155703fe0a9ae5f75c153eb6b5b7072" target="_top" xlink:title="This procedure checks if a ray intersects a triangle.">
<polygon fill="white" stroke="#666666" points="283,-54 158,-54 158,-24 283,-24 283,-54"/>
<text text-anchor="start" x="166" y="-42" font-family="Helvetica,sans-Serif" font-size="10.00">m_model::f_intersects</text>
<text text-anchor="middle" x="220.5" y="-31" font-family="Helvetica,sans-Serif" font-size="10.00">_triangle</text>
</a>
</g>
</g>
<!-- Node1&#45;&gt;Node2 -->
<g id="edge1_Node000001_Node000002" class="edge">
<title>Node1&#45;&gt;Node2</title>
<g id="a_edge1_Node000001_Node000002"><a xlink:title=" ">
<path fill="none" stroke="#63b8ff" d="M308.78,-39C300.29,-39 291.56,-39 283.05,-39"/>
<polygon fill="#63b8ff" stroke="#63b8ff" points="308.98,-42.5 318.98,-39 308.98,-35.5 308.98,-42.5"/>
</a>
</g>
</g>
<!-- Node3 -->
<g id="Node000003" class="node">
<title>Node3</title>
<g id="a_Node000003"><a xlink:href="namespacem__model.html#a40b54b3f9a65775ea1062c541dea09e3" target="_top" xlink:title="This procedure, recursively, finds whether a point is inside an octree.">
<polygon fill="white" stroke="#666666" points="122,-78 0,-78 0,-48 122,-48 122,-78"/>
<text text-anchor="start" x="8" y="-66" font-family="Helvetica,sans-Serif" font-size="10.00">m_model::f_model_is</text>
<text text-anchor="middle" x="61" y="-55" font-family="Helvetica,sans-Serif" font-size="10.00">_inside</text>
</a>
</g>
</g>
<!-- Node2&#45;&gt;Node3 -->
<g id="edge2_Node000002_Node000003" class="edge">
<title>Node2&#45;&gt;Node3</title>
<g id="a_edge2_Node000002_Node000003"><a xlink:title=" ">
<path fill="none" stroke="#63b8ff" d="M147.71,-49.94C139.14,-51.25 130.46,-52.57 122.07,-53.85"/>
<polygon fill="#63b8ff" stroke="#63b8ff" points="148.35,-53.38 157.7,-48.42 147.29,-46.46 148.35,-53.38"/>
</a>
</g>
</g>
<!-- Node4 -->
<g id="Node000004" class="node">
<title>Node4</title>
<g id="a_Node000004"><a xlink:href="namespacem__model.html#a4b4ef652ae183b59c1008880e061cc62" target="_top" xlink:title="This procedure, given a cell center will determine if a point exists instide a surface.">
<polygon fill="white" stroke="#666666" points="122,-30 0,-30 0,0 122,0 122,-30"/>
<text text-anchor="start" x="8" y="-18" font-family="Helvetica,sans-Serif" font-size="10.00">m_model::f_model_is</text>
<text text-anchor="middle" x="61" y="-7" font-family="Helvetica,sans-Serif" font-size="10.00">_inside_flat</text>
</a>
</g>
</g>
<!-- Node2&#45;&gt;Node4 -->
<g id="edge3_Node000002_Node000004" class="edge">
<title>Node2&#45;&gt;Node4</title>
<g id="a_edge3_Node000002_Node000004"><a xlink:title=" ">
<path fill="none" stroke="#63b8ff" d="M147.71,-28.06C139.14,-26.75 130.46,-25.43 122.07,-24.15"/>
<polygon fill="#63b8ff" stroke="#63b8ff" points="147.29,-31.54 157.7,-29.58 148.35,-24.62 147.29,-31.54"/>
</a>
</g>
</g>
</g>
</svg>
