<?xml version="1.0" encoding="UTF-8" standalone="no"?>
<!DOCTYPE svg PUBLIC "-//W3C//DTD SVG 1.1//EN"
 "http://www.w3.org/Graphics/SVG/1.1/DTD/svg11.dtd">
<!-- Generated by graphviz version 2.43.0 (0)
 -->
<!-- Title: m_start_up::s_finalize_modules Pages: 1 -->
<!--zoomable 862 -->

<svg id="main" version="1.1" xmlns="http://www.w3.org/2000/svg" xmlns:xlink="http://www.w3.org/1999/xlink" xml:space="preserve" onload="init(evt)">

<style type="text/css"><![CDATA[
.node, .edge {opacity: 0.7;}
.node.selected, .edge.selected {opacity: 1;}
.edge:hover path { stroke: red; }
.edge:hover polygon { stroke: red; fill: red; }
]]></style>

<defs>
  <circle id="rim" cx="0" cy="0" r="7"/>
  <circle id="rim2" cx="0" cy="0" r="3.5"/>
  <g id="zoomPlus">
    <use xlink:href="#rim" fill="#404040"><set attributeName="fill" to="#808080" begin="zoomplus.mouseover" end="zoomplus.mouseout"/></use>
    <path d="M-4,0h8M0,-4v8" fill="none" stroke="white" stroke-width="1.5" pointer-events="none"/>
  </g>
  <g id="zoomMin">
    <use xlink:href="#rim" fill="#404040"><set attributeName="fill" to="#808080" begin="zoomminus.mouseover" end="zoomminus.mouseout"/></use>
    <path d="M-4,0h8" fill="none" stroke="white" stroke-width="1.5" pointer-events="none"/>
  </g>
  <g id="arrowUp" transform="translate(30 24)">
    <use xlink:href="#rim"/>
    <path pointer-events="none" fill="none" stroke="white" stroke-width="1.5" d="M0,-3.0v7 M-2.5,-0.5L0,-3.0L2.5,-0.5"/>
  </g>
  <g id="arrowRight" transform="rotate(90) translate(36 -43)">
    <use xlink:href="#rim"/>
    <path pointer-events="none" fill="none" stroke="white" stroke-width="1.5" d="M0,-3.0v7 M-2.5,-0.5L0,-3.0L2.5,-0.5"/>
  </g>
  <g id="arrowDown" transform="rotate(180) translate(-30 -48)">
    <use xlink:href="#rim"/>
    <path pointer-events="none" fill="none" stroke="white" stroke-width="1.5" d="M0,-3.0v7 M-2.5,-0.5L0,-3.0L2.5,-0.5"/>
  </g>
  <g id="arrowLeft" transform="rotate(270) translate(-36 17)">
    <use xlink:href="#rim"/>
    <path pointer-events="none" fill="none" stroke="white" stroke-width="1.5" d="M0,-3.0v7 M-2.5,-0.5L0,-3.0L2.5,-0.5"/>
  </g>
  <g id="resetDef">
    <use xlink:href="#rim2" fill="#404040"><set attributeName="fill" to="#808080" begin="reset.mouseover" end="reset.mouseout"/></use>
  </g>
</defs>
<script type="application/ecmascript">
var viewWidth = 546;
var viewHeight = 862;
var sectionId = 'dynsection-2';
</script>
<script type="application/ecmascript" xlink:href="svg.min.js"/>
<svg id="graph" class="graph">
<g id="viewport">
<title>m_start_up::s_finalize_modules</title>
<!-- Node1 -->
<g id="Node000001" class="node">
<title>Node1</title>
<g id="a_Node000001"><a xlink:title=" ">
<polygon fill="#999999" stroke="#666666" points="123,-430.5 0,-430.5 0,-400.5 123,-400.5 123,-430.5"/>
<text text-anchor="start" x="8" y="-418.5" font-family="Helvetica,sans-Serif" font-size="10.00">m_start_up::s_finalize</text>
<text text-anchor="middle" x="61.5" y="-407.5" font-family="Helvetica,sans-Serif" font-size="10.00">_modules</text>
</a>
</g>
</g>
<!-- Node2 -->
<g id="Node000002" class="node">
<title>Node2</title>
<g id="a_Node000002"><a xlink:href="m__body__forces_8fpp_8f90.html#a443d3a65ceb45e6da170a6dc419d52c3" target="_top" xlink:title=" ">
<polygon fill="white" stroke="#666666" points="302,-853.5 175,-853.5 175,-823.5 302,-823.5 302,-853.5"/>
<text text-anchor="start" x="183" y="-841.5" font-family="Helvetica,sans-Serif" font-size="10.00">s_finalize_body_forces</text>
<text text-anchor="middle" x="238.5" y="-830.5" font-family="Helvetica,sans-Serif" font-size="10.00">_module</text>
</a>
</g>
</g>
<!-- Node1&#45;&gt;Node2 -->
<g id="edge1_Node000001_Node000002" class="edge">
<title>Node1&#45;&gt;Node2</title>
<g id="a_edge1_Node000001_Node000002"><a xlink:title=" ">
<path fill="none" stroke="#63b8ff" d="M64.18,-430.8C71.73,-496.83 104.5,-756.67 159,-814.5 161.11,-816.74 163.42,-818.77 165.88,-820.61"/>
<polygon fill="#63b8ff" stroke="#63b8ff" points="164.44,-823.83 174.77,-826.18 168.15,-817.9 164.44,-823.83"/>
</a>
</g>
</g>
<!-- Node3 -->
<g id="Node000003" class="node">
<title>Node3</title>
<g id="a_Node000003"><a xlink:href="m__cbc_8fpp_8f90.html#af95ddc6a0b29deb32b0a8d0bd560c4e3" target="_top" xlink:title="Module deallocation and/or disassociation procedures.">
<polygon fill="white" stroke="#666666" points="301.5,-805 175.5,-805 175.5,-786 301.5,-786 301.5,-805"/>
<text text-anchor="middle" x="238.5" y="-793" font-family="Helvetica,sans-Serif" font-size="10.00">s_finalize_cbc_module</text>
</a>
</g>
</g>
<!-- Node1&#45;&gt;Node3 -->
<g id="edge2_Node000001_Node000003" class="edge">
<title>Node1&#45;&gt;Node3</title>
<g id="a_edge2_Node000001_Node000003"><a xlink:title=" ">
<path fill="none" stroke="#63b8ff" d="M64.48,-430.67C72.9,-492.71 107.6,-726.3 159,-776.5 161.28,-778.73 163.78,-780.71 166.44,-782.48"/>
<polygon fill="#63b8ff" stroke="#63b8ff" points="164.94,-785.65 175.39,-787.39 168.31,-779.51 164.94,-785.65"/>
</a>
</g>
</g>
<!-- Node5 -->
<g id="Node000005" class="node">
<title>Node5</title>
<g id="a_Node000005"><a xlink:href="m__data__output_8fpp_8f90.html#a5c99917e47ac8f5de3d4d589427d4505" target="_top" xlink:title="Module deallocation and/or disassociation procedures.">
<polygon fill="white" stroke="#666666" points="301.5,-767.5 175.5,-767.5 175.5,-737.5 301.5,-737.5 301.5,-767.5"/>
<text text-anchor="start" x="183.5" y="-755.5" font-family="Helvetica,sans-Serif" font-size="10.00">s_finalize_data_output</text>
<text text-anchor="middle" x="238.5" y="-744.5" font-family="Helvetica,sans-Serif" font-size="10.00">_module</text>
</a>
</g>
</g>
<!-- Node1&#45;&gt;Node5 -->
<g id="edge4_Node000001_Node000005" class="edge">
<title>Node1&#45;&gt;Node5</title>
<g id="a_edge4_Node000001_Node000005"><a xlink:title=" ">
<path fill="none" stroke="#63b8ff" d="M62.48,-430.72C63.25,-480.82 72.65,-642.35 159,-728.5 161.37,-730.87 163.97,-733 166.73,-734.92"/>
<polygon fill="#63b8ff" stroke="#63b8ff" points="165.06,-738 175.45,-740.09 168.63,-731.98 165.06,-738"/>
</a>
</g>
</g>
<!-- Node6 -->
<g id="Node000006" class="node">
<title>Node6</title>
<g id="a_Node000006"><a xlink:href="namespacem__derived__variables.html#ae8a62a7f25d9ea256e7c213c850c7070" target="_top" xlink:title="Deallocation procedures for the module.">
<polygon fill="white" stroke="#666666" points="298,-719 179,-719 179,-678 298,-678 298,-719"/>
<text text-anchor="start" x="187" y="-707" font-family="Helvetica,sans-Serif" font-size="10.00">m_derived_variables</text>
<text text-anchor="start" x="187" y="-696" font-family="Helvetica,sans-Serif" font-size="10.00">::s_finalize_derived</text>
<text text-anchor="middle" x="238.5" y="-685" font-family="Helvetica,sans-Serif" font-size="10.00">_variables_module</text>
</a>
</g>
</g>
<!-- Node1&#45;&gt;Node6 -->
<g id="edge5_Node000001_Node000006" class="edge">
<title>Node1&#45;&gt;Node6</title>
<g id="a_edge5_Node000001_Node000006"><a xlink:title=" ">
<path fill="none" stroke="#63b8ff" d="M63.95,-430.71C68.87,-474.12 88.8,-599.94 159,-669.5 162.28,-672.75 165.96,-675.64 169.88,-678.21"/>
<polygon fill="#63b8ff" stroke="#63b8ff" points="168.4,-681.4 178.81,-683.34 171.88,-675.33 168.4,-681.4"/>
</a>
</g>
</g>
<!-- Node9 -->
<g id="Node000009" class="node">
<title>Node9</title>
<g id="a_Node000009"><a xlink:href="m__fftw_8fpp_8f90.html#a4724c38572698afaf830fd7e58864ed2" target="_top" xlink:title="The purpose of this subroutine is to destroy the fftw plan that will be used in the forward and backw...">
<polygon fill="white" stroke="#666666" points="302.5,-660 174.5,-660 174.5,-641 302.5,-641 302.5,-660"/>
<text text-anchor="middle" x="238.5" y="-648" font-family="Helvetica,sans-Serif" font-size="10.00">s_finalize_fftw_module</text>
</a>
</g>
</g>
<!-- Node1&#45;&gt;Node9 -->
<g id="edge8_Node000001_Node000009" class="edge">
<title>Node1&#45;&gt;Node9</title>
<g id="a_edge8_Node000001_Node000009"><a xlink:title=" ">
<path fill="none" stroke="#63b8ff" d="M64.62,-430.52C71,-469.98 93.81,-577.25 159,-631.5 161.03,-633.19 163.18,-634.73 165.43,-636.14"/>
<polygon fill="#63b8ff" stroke="#63b8ff" points="164.05,-639.37 174.53,-640.94 167.32,-633.17 164.05,-639.37"/>
</a>
</g>
</g>
<!-- Node10 -->
<g id="Node000010" class="node">
<title>Node10</title>
<g id="a_Node000010"><a xlink:href="m__global__parameters_8fpp_8f90.html#a9833b61cf2ce198eca8f0adb4b73f512" target="_top" xlink:title="Module deallocation and/or disassociation procedures.">
<polygon fill="white" stroke="#666666" points="318,-622.5 159,-622.5 159,-592.5 318,-592.5 318,-622.5"/>
<text text-anchor="start" x="167" y="-610.5" font-family="Helvetica,sans-Serif" font-size="10.00">s_finalize_global_parameters</text>
<text text-anchor="middle" x="238.5" y="-599.5" font-family="Helvetica,sans-Serif" font-size="10.00">_module</text>
</a>
</g>
</g>
<!-- Node1&#45;&gt;Node10 -->
<g id="edge9_Node000001_Node000010" class="edge">
<title>Node1&#45;&gt;Node10</title>
<g id="a_edge9_Node000001_Node000010"><a xlink:title=" ">
<path fill="none" stroke="#63b8ff" d="M66.94,-430.57C77.38,-463.4 106.66,-541.77 159,-583.5 160.77,-584.91 162.61,-586.23 164.53,-587.48"/>
<polygon fill="#63b8ff" stroke="#63b8ff" points="162.86,-590.56 173.28,-592.47 166.32,-584.48 162.86,-590.56"/>
</a>
</g>
</g>
<!-- Node11 -->
<g id="Node000011" class="node">
<title>Node11</title>
<g id="a_Node000011"><a xlink:href="m__hyperelastic_8fpp_8f90.html#ae2824004655839651fc4de6bb6b52b79" target="_top" xlink:title=" ">
<polygon fill="white" stroke="#666666" points="302.5,-574.5 174.5,-574.5 174.5,-544.5 302.5,-544.5 302.5,-574.5"/>
<text text-anchor="start" x="182.5" y="-562.5" font-family="Helvetica,sans-Serif" font-size="10.00">s_finalize_hyperelastic</text>
<text text-anchor="middle" x="238.5" y="-551.5" font-family="Helvetica,sans-Serif" font-size="10.00">_module</text>
</a>
</g>
</g>
<!-- Node1&#45;&gt;Node11 -->
<g id="edge10_Node000001_Node000011" class="edge">
<title>Node1&#45;&gt;Node11</title>
<g id="a_edge10_Node000001_Node000011"><a xlink:title=" ">
<path fill="none" stroke="#63b8ff" d="M70.73,-430.85C85.19,-456.36 117.6,-507.47 159,-535.5 161.38,-537.11 163.87,-538.62 166.44,-540.02"/>
<polygon fill="#63b8ff" stroke="#63b8ff" points="164.92,-543.18 175.44,-544.44 168,-536.89 164.92,-543.18"/>
</a>
</g>
</g>
<!-- Node12 -->
<g id="Node000012" class="node">
<title>Node12</title>
<g id="a_Node000012"><a xlink:href="m__hypoelastic_8fpp_8f90.html#a9684222d7f04cad86ab219ae2fb0022d" target="_top" xlink:title=" ">
<polygon fill="white" stroke="#666666" points="300.5,-526.5 176.5,-526.5 176.5,-496.5 300.5,-496.5 300.5,-526.5"/>
<text text-anchor="start" x="184.5" y="-514.5" font-family="Helvetica,sans-Serif" font-size="10.00">s_finalize_hypoelastic</text>
<text text-anchor="middle" x="238.5" y="-503.5" font-family="Helvetica,sans-Serif" font-size="10.00">_module</text>
</a>
</g>
</g>
<!-- Node1&#45;&gt;Node12 -->
<g id="edge11_Node000001_Node000012" class="edge">
<title>Node1&#45;&gt;Node12</title>
<g id="a_edge11_Node000001_Node000012"><a xlink:title=" ">
<path fill="none" stroke="#63b8ff" d="M79.08,-430.71C97.42,-446.82 128.42,-472.01 159,-487.5 162.72,-489.38 166.61,-491.15 170.59,-492.8"/>
<polygon fill="#63b8ff" stroke="#63b8ff" points="169.41,-496.1 179.99,-496.45 171.94,-489.57 169.41,-496.1"/>
</a>
</g>
</g>
<!-- Node13 -->
<g id="Node000013" class="node">
<title>Node13</title>
<g id="a_Node000013"><a xlink:href="m__bubbles__EL_8fpp_8f90.html#afff95b91930f265351b88be62c36c22e" target="_top" xlink:title="The purpose of this subroutine is to deallocate variables.">
<polygon fill="white" stroke="#666666" points="298,-478.5 179,-478.5 179,-448.5 298,-448.5 298,-478.5"/>
<text text-anchor="start" x="187" y="-466.5" font-family="Helvetica,sans-Serif" font-size="10.00">s_finalize_lagrangian</text>
<text text-anchor="middle" x="238.5" y="-455.5" font-family="Helvetica,sans-Serif" font-size="10.00">_solver</text>
</a>
</g>
</g>
<!-- Node1&#45;&gt;Node13 -->
<g id="edge12_Node000001_Node000013" class="edge">
<title>Node1&#45;&gt;Node13</title>
<g id="a_edge12_Node000001_Node000013"><a xlink:title=" ">
<path fill="none" stroke="#63b8ff" d="M117.39,-430.56C135.06,-435.4 154.81,-440.82 173.1,-445.84"/>
<polygon fill="#63b8ff" stroke="#63b8ff" points="172.23,-449.23 182.8,-448.5 174.09,-442.48 172.23,-449.23"/>
</a>
</g>
</g>
<!-- Node14 -->
<g id="Node000014" class="node">
<title>Node14</title>
<g id="a_Node000014"><a xlink:href="m__mpi__proxy_8fpp_8f90.html#a070c3030224a1c09edc7582679e5e1b6" target="_top" xlink:title="Module deallocation and/or disassociation procedures.">
<polygon fill="white" stroke="#666666" points="298,-430.5 179,-430.5 179,-400.5 298,-400.5 298,-430.5"/>
<text text-anchor="start" x="187" y="-418.5" font-family="Helvetica,sans-Serif" font-size="10.00">s_finalize_mpi_proxy</text>
<text text-anchor="middle" x="238.5" y="-407.5" font-family="Helvetica,sans-Serif" font-size="10.00">_module</text>
</a>
</g>
</g>
<!-- Node1&#45;&gt;Node14 -->
<g id="edge13_Node000001_Node000014" class="edge">
<title>Node1&#45;&gt;Node14</title>
<g id="a_edge13_Node000001_Node000014"><a xlink:title=" ">
<path fill="none" stroke="#63b8ff" d="M123.22,-415.5C137.89,-415.5 153.68,-415.5 168.7,-415.5"/>
<polygon fill="#63b8ff" stroke="#63b8ff" points="168.96,-419 178.96,-415.5 168.96,-412 168.96,-419"/>
</a>
</g>
</g>
<!-- Node15 -->
<g id="Node000015" class="node">
<title>Node15</title>
<g id="a_Node000015"><a xlink:href="m__phase__change_8fpp_8f90.html#affaf2bb01860872aa2bed50fb3b84930" target="_top" xlink:title="This subroutine finalizes the phase change module.">
<polygon fill="white" stroke="#666666" points="297,-382.5 180,-382.5 180,-352.5 297,-352.5 297,-382.5"/>
<text text-anchor="start" x="188" y="-370.5" font-family="Helvetica,sans-Serif" font-size="10.00">s_finalize_relaxation</text>
<text text-anchor="middle" x="238.5" y="-359.5" font-family="Helvetica,sans-Serif" font-size="10.00">_solver_module</text>
</a>
</g>
</g>
<!-- Node1&#45;&gt;Node15 -->
<g id="edge14_Node000001_Node000015" class="edge">
<title>Node1&#45;&gt;Node15</title>
<g id="a_edge14_Node000001_Node000015"><a xlink:title=" ">
<path fill="none" stroke="#63b8ff" d="M117.39,-400.44C135.06,-395.6 154.81,-390.18 173.1,-385.16"/>
<polygon fill="#63b8ff" stroke="#63b8ff" points="174.09,-388.52 182.8,-382.5 172.23,-381.77 174.09,-388.52"/>
</a>
</g>
</g>
<!-- Node16 -->
<g id="Node000016" class="node">
<title>Node16</title>
<g id="a_Node000016"><a xlink:href="m__rhs_8fpp_8f90.html#a7c634ac045ff9152d8894ed4dafc453d" target="_top" xlink:title="Module deallocation and/or disassociation procedures.">
<polygon fill="white" stroke="#666666" points="301,-334 176,-334 176,-315 301,-315 301,-334"/>
<text text-anchor="middle" x="238.5" y="-322" font-family="Helvetica,sans-Serif" font-size="10.00">s_finalize_rhs_module</text>
</a>
</g>
</g>
<!-- Node1&#45;&gt;Node16 -->
<g id="edge15_Node000001_Node000016" class="edge">
<title>Node1&#45;&gt;Node16</title>
<g id="a_edge15_Node000001_Node000016"><a xlink:title=" ">
<path fill="none" stroke="#63b8ff" d="M78.58,-400.23C96.72,-383.84 127.78,-358.17 159,-343.5 164.2,-341.06 169.75,-338.91 175.41,-337.02"/>
<polygon fill="#63b8ff" stroke="#63b8ff" points="176.44,-340.37 184.97,-334.09 174.39,-333.67 176.44,-340.37"/>
</a>
</g>
</g>
<!-- Node17 -->
<g id="Node000017" class="node">
<title>Node17</title>
<g id="a_Node000017"><a xlink:href="m__riemann__solvers_8fpp_8f90.html#aca4cdda8feb68af82a25f30501bc1319" target="_top" xlink:title="Module deallocation and/or disassociation procedures.">
<polygon fill="white" stroke="#666666" points="292.5,-296.5 184.5,-296.5 184.5,-266.5 292.5,-266.5 292.5,-296.5"/>
<text text-anchor="start" x="192.5" y="-284.5" font-family="Helvetica,sans-Serif" font-size="10.00">s_finalize_riemann</text>
<text text-anchor="middle" x="238.5" y="-273.5" font-family="Helvetica,sans-Serif" font-size="10.00">_solvers_module</text>
</a>
</g>
</g>
<!-- Node1&#45;&gt;Node17 -->
<g id="edge16_Node000001_Node000017" class="edge">
<title>Node1&#45;&gt;Node17</title>
<g id="a_edge16_Node000001_Node000017"><a xlink:title=" ">
<path fill="none" stroke="#63b8ff" d="M72.11,-400.12C87.58,-376.59 120.24,-331.74 159,-306.5 163.91,-303.3 169.27,-300.48 174.79,-298.01"/>
<polygon fill="#63b8ff" stroke="#63b8ff" points="176.28,-301.19 184.21,-294.16 173.63,-294.71 176.28,-301.19"/>
</a>
</g>
</g>
<!-- Node18 -->
<g id="Node000018" class="node">
<title>Node18</title>
<g id="a_Node000018"><a xlink:href="m__surface__tension_8fpp_8f90.html#ad74fb95feb5dc6eec325d004f49d6eaf" target="_top" xlink:title=" ">
<polygon fill="white" stroke="#666666" points="290.5,-248.5 186.5,-248.5 186.5,-218.5 290.5,-218.5 290.5,-248.5"/>
<text text-anchor="start" x="194.5" y="-236.5" font-family="Helvetica,sans-Serif" font-size="10.00">s_finalize_surface</text>
<text text-anchor="middle" x="238.5" y="-225.5" font-family="Helvetica,sans-Serif" font-size="10.00">_tension_module</text>
</a>
</g>
</g>
<!-- Node1&#45;&gt;Node18 -->
<g id="edge17_Node000001_Node000018" class="edge">
<title>Node1&#45;&gt;Node18</title>
<g id="a_edge17_Node000001_Node000018"><a xlink:title=" ">
<path fill="none" stroke="#63b8ff" d="M67.54,-400.37C78.79,-368.95 108.96,-296.3 159,-257.5 164.37,-253.33 170.47,-249.89 176.83,-247.04"/>
<polygon fill="#63b8ff" stroke="#63b8ff" points="178.3,-250.22 186.29,-243.27 175.71,-243.72 178.3,-250.22"/>
</a>
</g>
</g>
<!-- Node19 -->
<g id="Node000019" class="node">
<title>Node19</title>
<g id="a_Node000019"><a xlink:href="m__time__steppers_8fpp_8f90.html#a6db3015033cc309caa1989836b7258b6" target="_top" xlink:title="Module deallocation and/or disassociation procedures.">
<polygon fill="white" stroke="#666666" points="307,-200.5 170,-200.5 170,-170.5 307,-170.5 307,-200.5"/>
<text text-anchor="start" x="178" y="-188.5" font-family="Helvetica,sans-Serif" font-size="10.00">s_finalize_time_steppers</text>
<text text-anchor="middle" x="238.5" y="-177.5" font-family="Helvetica,sans-Serif" font-size="10.00">_module</text>
</a>
</g>
</g>
<!-- Node1&#45;&gt;Node19 -->
<g id="edge18_Node000001_Node000019" class="edge">
<title>Node1&#45;&gt;Node19</title>
<g id="a_edge18_Node000001_Node000019"><a xlink:title=" ">
<path fill="none" stroke="#63b8ff" d="M65.24,-400.27C72.88,-362.25 98,-262.43 159,-209.5 160.49,-208.2 162.06,-206.98 163.67,-205.82"/>
<polygon fill="#63b8ff" stroke="#63b8ff" points="165.52,-208.79 172.19,-200.55 161.84,-202.84 165.52,-208.79"/>
</a>
</g>
</g>
<!-- Node21 -->
<g id="Node000021" class="node">
<title>Node21</title>
<g id="a_Node000021"><a xlink:href="m__variables__conversion_8fpp_8f90.html#ace14d66a864f202904444921d6927a20" target="_top" xlink:title=" ">
<polygon fill="white" stroke="#666666" points="297,-152.5 180,-152.5 180,-122.5 297,-122.5 297,-152.5"/>
<text text-anchor="start" x="188" y="-140.5" font-family="Helvetica,sans-Serif" font-size="10.00">s_finalize_variables</text>
<text text-anchor="middle" x="238.5" y="-129.5" font-family="Helvetica,sans-Serif" font-size="10.00">_conversion_module</text>
</a>
</g>
</g>
<!-- Node1&#45;&gt;Node21 -->
<g id="edge20_Node000001_Node000021" class="edge">
<title>Node1&#45;&gt;Node21</title>
<g id="a_edge20_Node000001_Node000021"><a xlink:title=" ">
<path fill="none" stroke="#63b8ff" d="M63.72,-400.4C68.07,-356.74 86.67,-229.18 159,-161.5 162.52,-158.2 166.48,-155.36 170.71,-152.91"/>
<polygon fill="#63b8ff" stroke="#63b8ff" points="172.33,-156.01 179.69,-148.4 169.19,-149.76 172.33,-156.01"/>
</a>
</g>
</g>
<!-- Node22 -->
<g id="Node000022" class="node">
<title>Node22</title>
<g id="a_Node000022"><a xlink:href="m__viscous_8fpp_8f90.html#af6e985e68f4bbcb8f86c1dc6dd47e14a" target="_top" xlink:title=" ">
<polygon fill="white" stroke="#666666" points="290.5,-104.5 186.5,-104.5 186.5,-74.5 290.5,-74.5 290.5,-104.5"/>
<text text-anchor="start" x="194.5" y="-92.5" font-family="Helvetica,sans-Serif" font-size="10.00">s_finalize_viscous</text>
<text text-anchor="middle" x="238.5" y="-81.5" font-family="Helvetica,sans-Serif" font-size="10.00">_module</text>
</a>
</g>
</g>
<!-- Node1&#45;&gt;Node22 -->
<g id="edge21_Node000001_Node000022" class="edge">
<title>Node1&#45;&gt;Node22</title>
<g id="a_edge21_Node000001_Node000022"><a xlink:title=" ">
<path fill="none" stroke="#63b8ff" d="M62.67,-400.46C64.07,-351.69 75.19,-196.26 159,-113.5 164.16,-108.41 170.37,-104.39 177.01,-101.22"/>
<polygon fill="#63b8ff" stroke="#63b8ff" points="178.35,-104.45 186.26,-97.41 175.68,-97.98 178.35,-104.45"/>
</a>
</g>
</g>
<!-- Node23 -->
<g id="Node000023" class="node">
<title>Node23</title>
<g id="a_Node000023"><a xlink:href="m__weno_8fpp_8f90.html#a58db4ca1aba01851c9aca95c2b57be37" target="_top" xlink:title="Module deallocation and/or disassociation procedures.">
<polygon fill="white" stroke="#666666" points="306.5,-56 170.5,-56 170.5,-37 306.5,-37 306.5,-56"/>
<text text-anchor="middle" x="238.5" y="-44" font-family="Helvetica,sans-Serif" font-size="10.00">s_finalize_weno_module</text>
</a>
</g>
</g>
<!-- Node1&#45;&gt;Node23 -->
<g id="edge22_Node000001_Node000023" class="edge">
<title>Node1&#45;&gt;Node23</title>
<g id="a_edge22_Node000001_Node000023"><a xlink:title=" ">
<path fill="none" stroke="#63b8ff" d="M64.61,-400.38C73.41,-339.59 108.98,-113.97 159,-65.5 160.47,-64.07 162.03,-62.75 163.67,-61.52"/>
<polygon fill="#63b8ff" stroke="#63b8ff" points="165.73,-64.36 172.38,-56.11 162.03,-58.41 165.73,-64.36"/>
</a>
</g>
</g>
<!-- Node24 -->
<g id="Node000024" class="node">
<title>Node24</title>
<g id="a_Node000024"><a xlink:href="m__mpi__common_8fpp_8f90.html#a7e1e245c35e289bd5b4f843555a7e98c" target="_top" xlink:title="The subroutine finalizes the MPI execution environment.">
<polygon fill="white" stroke="#666666" points="281.5,-19 195.5,-19 195.5,0 281.5,0 281.5,-19"/>
<text text-anchor="middle" x="238.5" y="-7" font-family="Helvetica,sans-Serif" font-size="10.00">s_mpi_finalize</text>
</a>
</g>
</g>
<!-- Node1&#45;&gt;Node24 -->
<g id="edge23_Node000001_Node000024" class="edge">
<title>Node1&#45;&gt;Node24</title>
<g id="a_edge23_Node000001_Node000024"><a xlink:title=" ">
<path fill="none" stroke="#63b8ff" d="M64.19,-400.09C71.68,-334.76 103.9,-81.6 159,-27.5 166.26,-20.37 175.73,-15.84 185.57,-13.01"/>
<polygon fill="#63b8ff" stroke="#63b8ff" points="186.52,-16.38 195.47,-10.71 184.94,-9.57 186.52,-16.38"/>
</a>
</g>
</g>
<!-- Node4 -->
<g id="Node000004" class="node">
<title>Node4</title>
<g id="a_Node000004"><a xlink:href="m__cbc_8fpp_8f90.html#a04579972655706c69a3c1c45c7327af8" target="_top" xlink:title=" ">
<polygon fill="white" stroke="#666666" points="509,-805 383,-805 383,-786 509,-786 509,-805"/>
<text text-anchor="middle" x="446" y="-793" font-family="Helvetica,sans-Serif" font-size="10.00">s_any_cbc_boundaries</text>
</a>
</g>
</g>
<!-- Node3&#45;&gt;Node4 -->
<g id="edge3_Node000003_Node000004" class="edge">
<title>Node3&#45;&gt;Node4</title>
<g id="a_edge3_Node000003_Node000004"><a xlink:title=" ">
<path fill="none" stroke="#63b8ff" d="M301.71,-795.5C324.15,-795.5 349.65,-795.5 372.86,-795.5"/>
<polygon fill="#63b8ff" stroke="#63b8ff" points="373,-799 383,-795.5 373,-792 373,-799"/>
</a>
</g>
</g>
<!-- Node7 -->
<g id="Node000007" class="node">
<title>Node7</title>
<g id="a_Node000007"><a xlink:href="m__data__output_8fpp_8f90.html#a4de9eb23a59af9817d3b69f8d6598614" target="_top" xlink:title="Closes communication files.">
<polygon fill="white" stroke="#666666" points="498,-726 394,-726 394,-707 498,-707 498,-726"/>
<text text-anchor="middle" x="446" y="-714" font-family="Helvetica,sans-Serif" font-size="10.00">s_close_com_files</text>
</a>
</g>
</g>
<!-- Node6&#45;&gt;Node7 -->
<g id="edge6_Node000006_Node000007" class="edge">
<title>Node6&#45;&gt;Node7</title>
<g id="a_edge6_Node000006_Node000007"><a xlink:title=" ">
<path fill="none" stroke="#63b8ff" d="M298.11,-703.63C324.94,-705.98 356.72,-708.77 383.84,-711.14"/>
<polygon fill="#63b8ff" stroke="#63b8ff" points="383.73,-714.65 393.99,-712.03 384.34,-707.67 383.73,-714.65"/>
</a>
</g>
</g>
<!-- Node8 -->
<g id="Node000008" class="node">
<title>Node8</title>
<g id="a_Node000008"><a xlink:href="m__data__output_8fpp_8f90.html#ab7b83633930398e804bffe97baa6b453" target="_top" xlink:title="Closes probe files.">
<polygon fill="white" stroke="#666666" points="501.5,-689 390.5,-689 390.5,-670 501.5,-670 501.5,-689"/>
<text text-anchor="middle" x="446" y="-677" font-family="Helvetica,sans-Serif" font-size="10.00">s_close_probe_files</text>
</a>
</g>
</g>
<!-- Node6&#45;&gt;Node8 -->
<g id="edge7_Node000006_Node000008" class="edge">
<title>Node6&#45;&gt;Node8</title>
<g id="a_edge7_Node000006_Node000008"><a xlink:title=" ">
<path fill="none" stroke="#63b8ff" d="M298.11,-693.08C323.67,-690.72 353.72,-687.94 379.96,-685.51"/>
<polygon fill="#63b8ff" stroke="#63b8ff" points="380.55,-688.97 390.19,-684.57 379.91,-682 380.55,-688.97"/>
</a>
</g>
</g>
<!-- Node20 -->
<g id="Node000020" class="node">
<title>Node20</title>
<g id="a_Node000020"><a xlink:href="m__data__output_8fpp_8f90.html#a767a44787d5bc170c427c348f7f08594" target="_top" xlink:title="The goal of this subroutine is to write to the run&#45;time information file basic footer information app...">
<polygon fill="white" stroke="#666666" points="538,-195 354,-195 354,-176 538,-176 538,-195"/>
<text text-anchor="middle" x="446" y="-183" font-family="Helvetica,sans-Serif" font-size="10.00">s_close_run_time_information_file</text>
</a>
</g>
</g>
<!-- Node19&#45;&gt;Node20 -->
<g id="edge19_Node000019_Node000020" class="edge">
<title>Node19&#45;&gt;Node20</title>
<g id="a_edge19_Node000019_Node000020"><a xlink:title=" ">
<path fill="none" stroke="#63b8ff" d="M307.07,-185.5C318.77,-185.5 331.16,-185.5 343.53,-185.5"/>
<polygon fill="#63b8ff" stroke="#63b8ff" points="343.89,-189 353.89,-185.5 343.89,-182 343.89,-189"/>
</a>
</g>
</g>
</g>
</svg>

<g id="navigator" transform="translate(0 0)" fill="#404254">
  <rect fill="#f2f5e9" fill-opacity="0.5" stroke="#606060" stroke-width=".5" x="0" y="0" width="60" height="60"/>
  <use id="zoomplus" xlink:href="#zoomPlus" x="17" y="9" onmousedown="handleZoom(evt,'in')"/>
  <use id="zoomminus" xlink:href="#zoomMin" x="42" y="9" onmousedown="handleZoom(evt,'out')"/>
  <use id="reset" xlink:href="#resetDef" x="30" y="36" onmousedown="handleReset()"/>
   <use id="arrowup" xlink:href="#arrowUp" x="0" y="0" onmousedown="handlePan(0,-1)"/>
  <use id="arrowright" xlink:href="#arrowRight" x="0" y="0" onmousedown="handlePan(1,0)"/>
  <use id="arrowdown" xlink:href="#arrowDown" x="0" y="0" onmousedown="handlePan(0,1)"/>
  <use id="arrowleft" xlink:href="#arrowLeft" x="0" y="0" onmousedown="handlePan(-1,0)"/>
</g>
<svg viewBox="0 0 15 15" width="100%" height="30px" preserveAspectRatio="xMaxYMin meet">
 <g id="arrow_out" transform="scale(0.3 0.3)">
  <a xlink:href="namespacem__start__up_a03f18bf4f529c5d7a47b6e8136b0a585_cgraph_org.svg" target="_base">
   <rect id="button" ry="5" rx="5" y="6" x="6" height="38" width="38"
        fill="#f2f5e9" fill-opacity="0.5" stroke="#606060" stroke-width="1.0"/>
   <path id="arrow"
     d="M 11.500037,31.436501 C 11.940474,20.09759 22.043105,11.32322 32.158766,21.979434 L 37.068811,17.246167 C 37.068811,17.246167 37.088388,32 37.088388,32 L 22.160133,31.978069 C 22.160133,31.978069 26.997745,27.140456 26.997745,27.140456 C 18.528582,18.264221 13.291696,25.230495 11.500037,31.436501 z"
     style="fill:#404040;"/>
  </a>
 </g>
</svg>

<style type='text/css'>
<![CDATA[
[data-mouse-over-selected='false'] { opacity: 0.7; }
[data-mouse-over-selected='true']  { opacity: 1.0; }
]]>
</style>
<script type="application/ecmascript"><![CDATA[
document.addEventListener('DOMContentLoaded', (event) => {
  highlightEdges();
  highlightAdjacentNodes();
});
]]></script>
</svg>
