<?xml version="1.0" encoding="UTF-8" standalone="no"?>
<!DOCTYPE svg PUBLIC "-//W3C//DTD SVG 1.1//EN"
 "http://www.w3.org/Graphics/SVG/1.1/DTD/svg11.dtd">
<!-- Generated by graphviz version 2.43.0 (0)
 -->
<!-- Title: m_rhs::s_compute_advection_source_term Pages: 1 -->
<svg width="548pt" height="52pt"
 viewBox="0.00 0.00 548.00 51.50" xmlns="http://www.w3.org/2000/svg" xmlns:xlink="http://www.w3.org/1999/xlink">
<g id="graph0" class="graph" transform="scale(1 1) rotate(0) translate(4 47.5)">
<title>m_rhs::s_compute_advection_source_term</title>
<!-- Node1 -->
<g id="Node000001" class="node">
<title>Node1</title>
<g id="a_Node000001"><a xlink:title="Accumulate advection source contributions from a given coordinate direction into the RHS.">
<polygon fill="#999999" stroke="#666666" points="540,-30 381,-30 381,0 540,0 540,-30"/>
<text text-anchor="start" x="389" y="-18" font-family="Helvetica,sans-Serif" font-size="10.00">m_rhs::s_compute_advection</text>
<text text-anchor="middle" x="460.5" y="-7" font-family="Helvetica,sans-Serif" font-size="10.00">_source_term</text>
</a>
</g>
</g>
<!-- Node2 -->
<g id="Node000002" class="node">
<title>Node2</title>
<g id="a_Node000002"><a xlink:href="namespacem__rhs.html#a5e194557c7d28a9ee7962f2eb9032710" target="_top" xlink:title="Computes one sweep direction&#39;s contribution to the RHS: the Riemann solve on the reconstructed cell&#45;b...">
<polygon fill="white" stroke="#666666" points="345,-43.5 162,-43.5 162,-24.5 345,-24.5 345,-43.5"/>
<text text-anchor="middle" x="253.5" y="-31.5" font-family="Helvetica,sans-Serif" font-size="10.00">m_rhs::s_compute_directional_rhs</text>
</a>
</g>
</g>
<!-- Node1&#45;&gt;Node2 -->
<g id="edge1_Node000001_Node000002" class="edge">
<title>Node1&#45;&gt;Node2</title>
<g id="a_edge1_Node000001_Node000002"><a xlink:title=" ">
<path fill="none" stroke="#63b8ff" d="M370.65,-23.23C362.24,-24.01 353.71,-24.81 345.28,-25.59"/>
<polygon fill="#63b8ff" stroke="#63b8ff" points="371.19,-26.7 380.83,-22.29 370.55,-19.73 371.19,-26.7"/>
</a>
</g>
</g>
<!-- Node3 -->
<g id="Node000003" class="node">
<title>Node3</title>
<g id="a_Node000003"><a xlink:href="namespacem__rhs.html#a37d36d411217c838e6a9fbef27ccc70e" target="_top" xlink:title="Compute the right&#45;hand side of the semi&#45;discrete governing equations for a single time stage.">
<polygon fill="white" stroke="#666666" points="126,-24.5 0,-24.5 0,-5.5 126,-5.5 126,-24.5"/>
<text text-anchor="middle" x="63" y="-12.5" font-family="Helvetica,sans-Serif" font-size="10.00">m_rhs::s_compute_rhs</text>
</a>
</g>
</g>
<!-- Node1&#45;&gt;Node3 -->
<g id="edge3_Node000001_Node000003" class="edge">
<title>Node1&#45;&gt;Node3</title>
<g id="a_edge3_Node000001_Node000003"><a xlink:title=" ">
<path fill="none" stroke="#63b8ff" d="M370.6,-15C296.21,-15 191.97,-15 126.23,-15"/>
<polygon fill="#63b8ff" stroke="#63b8ff" points="370.89,-18.5 380.89,-15 370.89,-11.5 370.89,-18.5"/>
</a>
</g>
</g>
<!-- Node2&#45;&gt;Node3 -->
<g id="edge2_Node000002_Node000003" class="edge">
<title>Node2&#45;&gt;Node3</title>
<g id="a_edge2_Node000002_Node000003"><a xlink:title=" ">
<path fill="none" stroke="#63b8ff" d="M151.65,-23.83C142.99,-22.96 134.4,-22.1 126.18,-21.27"/>
<polygon fill="#63b8ff" stroke="#63b8ff" points="151.54,-27.34 161.84,-24.86 152.24,-20.38 151.54,-27.34"/>
</a>
</g>
</g>
</g>
</svg>
