<?xml version="1.0" encoding="UTF-8" standalone="no"?>
<!DOCTYPE svg PUBLIC "-//W3C//DTD SVG 1.1//EN"
 "http://www.w3.org/Graphics/SVG/1.1/DTD/svg11.dtd">
<!-- Generated by graphviz version 2.40.1 (20161225.0304)
 -->
<!-- Title: m_riemann_solvers::s_initialize_riemann_solver Pages: 1 -->
<svg width="378pt" height="125pt"
 viewBox="0.00 0.00 378.00 125.00" xmlns="http://www.w3.org/2000/svg" xmlns:xlink="http://www.w3.org/1999/xlink">
<g id="graph0" class="graph" transform="scale(1 1) rotate(0) translate(4 121)">
<title>m_riemann_solvers::s_initialize_riemann_solver</title>
<polygon fill="#ffffff" stroke="transparent" points="-4,4 -4,-121 374,-121 374,4 -4,4"/>
<!-- Node130 -->
<g id="node1" class="node">
<title>Node130</title>
<polygon fill="#bfbfbf" stroke="#000000" points="0,-41 0,-76 72,-76 72,-41 0,-41"/>
<text text-anchor="start" x="8" y="-65.6" font-family="Helvetica,sans-Serif" font-size="8.00" fill="#000000">m_riemann_solvers::</text>
<text text-anchor="start" x="8" y="-56.6" font-family="Helvetica,sans-Serif" font-size="8.00" fill="#000000">s_initialize_riemann</text>
<text text-anchor="middle" x="36" y="-47.6" font-family="Helvetica,sans-Serif" font-size="8.00" fill="#000000">_solver</text>
</g>
<!-- Node131 -->
<g id="node2" class="node">
<title>Node131</title>
<g id="a_node2"><a xlink:href="namespacem__riemann__solvers.html#a3062ef97dfec8673afd80dcbee6e3814" target="_top" xlink:title="The procedure features the Harten, Lax and van Leer (HLL) approximate Riemann solver algorithm...">
<polygon fill="#ffffff" stroke="#000000" points="112.5,-90.5 112.5,-116.5 185.5,-116.5 185.5,-90.5 112.5,-90.5"/>
<text text-anchor="start" x="120.5" y="-106.1" font-family="Helvetica,sans-Serif" font-size="8.00" fill="#000000">m_riemann_solvers::</text>
<text text-anchor="middle" x="149" y="-97.1" font-family="Helvetica,sans-Serif" font-size="8.00" fill="#000000">s_hll_riemann_solver</text>
</a>
</g>
</g>
<!-- Node130&#45;&gt;Node131 -->
<g id="edge1" class="edge">
<title>Node130&#45;&gt;Node131</title>
<path fill="none" stroke="#191970" d="M81.6305,-76.6715C93.2511,-81.2991 105.5092,-86.1807 116.337,-90.4926"/>
<polygon fill="#191970" stroke="#191970" points="82.65,-73.3101 72.0646,-72.862 80.0601,-79.8134 82.65,-73.3101"/>
</g>
<!-- Node135 -->
<g id="node6" class="node">
<title>Node135</title>
<g id="a_node6"><a xlink:href="namespacem__riemann__solvers.html#ae2ad588d58b624a8320805f3860a3eb8" target="_top" xlink:title="This procedure is the implementation of the Harten, Lax, van Leer, and contact (HLLC) approximate Rie...">
<polygon fill="#ffffff" stroke="#000000" points="111,-45.5 111,-71.5 187,-71.5 187,-45.5 111,-45.5"/>
<text text-anchor="start" x="119" y="-61.1" font-family="Helvetica,sans-Serif" font-size="8.00" fill="#000000">m_riemann_solvers::</text>
<text text-anchor="middle" x="149" y="-52.1" font-family="Helvetica,sans-Serif" font-size="8.00" fill="#000000">s_hllc_riemann_solver</text>
</a>
</g>
</g>
<!-- Node130&#45;&gt;Node135 -->
<g id="edge6" class="edge">
<title>Node130&#45;&gt;Node135</title>
<path fill="none" stroke="#191970" d="M82.2142,-58.5C91.7643,-58.5 101.7202,-58.5 110.9403,-58.5"/>
<polygon fill="#191970" stroke="#191970" points="82.0646,-55.0001 72.0646,-58.5 82.0646,-62.0001 82.0646,-55.0001"/>
</g>
<!-- Node136 -->
<g id="node7" class="node">
<title>Node136</title>
<g id="a_node7"><a xlink:href="namespacem__riemann__solvers.html#a9fa393b97819b253e8b85f0444a15c27" target="_top" xlink:title="This procedure is the implementation of the exact Riemann solver, see Toro (1999). The effects of viscosity and the surface tension have been incorporated following the work of Perigaud and Saurel (2005). ">
<polygon fill="#ffffff" stroke="#000000" points="108,-.5 108,-26.5 190,-26.5 190,-.5 108,-.5"/>
<text text-anchor="start" x="116" y="-16.1" font-family="Helvetica,sans-Serif" font-size="8.00" fill="#000000">m_riemann_solvers::</text>
<text text-anchor="middle" x="149" y="-7.1" font-family="Helvetica,sans-Serif" font-size="8.00" fill="#000000">s_exact_riemann_solver</text>
</a>
</g>
</g>
<!-- Node130&#45;&gt;Node136 -->
<g id="edge9" class="edge">
<title>Node130&#45;&gt;Node136</title>
<path fill="none" stroke="#191970" d="M81.6305,-40.3285C93.2511,-35.7009 105.5092,-30.8193 116.337,-26.5074"/>
<polygon fill="#191970" stroke="#191970" points="80.0601,-37.1866 72.0646,-44.138 82.65,-43.6899 80.0601,-37.1866"/>
</g>
<!-- Node132 -->
<g id="node3" class="node">
<title>Node132</title>
<g id="a_node3"><a xlink:href="namespacem__rhs.html#ae6f7edb814859919c5d1f739574155bd" target="_top" xlink:title="The computation of parameters, the allocation of memory, the association of pointers and/or the execu...">
<polygon fill="#ffffff" stroke="#000000" points="230,-70.5 230,-96.5 294,-96.5 294,-70.5 230,-70.5"/>
<text text-anchor="start" x="238" y="-86.1" font-family="Helvetica,sans-Serif" font-size="8.00" fill="#000000">m_rhs::s_initialize</text>
<text text-anchor="middle" x="262" y="-77.1" font-family="Helvetica,sans-Serif" font-size="8.00" fill="#000000">_rhs_module</text>
</a>
</g>
</g>
<!-- Node131&#45;&gt;Node132 -->
<g id="edge2" class="edge">
<title>Node131&#45;&gt;Node132</title>
<path fill="none" stroke="#191970" d="M195.5682,-95.2578C207.0327,-93.2287 219.0604,-91.0999 229.6826,-89.2199"/>
<polygon fill="#191970" stroke="#191970" points="194.9248,-91.8172 185.6879,-97.0066 196.1448,-98.7101 194.9248,-91.8172"/>
</g>
<!-- Node134 -->
<g id="node5" class="node">
<title>Node134</title>
<g id="a_node5"><a xlink:href="namespacem__riemann__solvers.html#aab7e6bf69b7d0b8b9d911f418b872130" target="_top" xlink:title="The computation of parameters, the allocation of memory, the association of pointers and/or the execu...">
<polygon fill="#ffffff" stroke="#000000" points="226,-16 226,-51 298,-51 298,-16 226,-16"/>
<text text-anchor="start" x="234" y="-40.6" font-family="Helvetica,sans-Serif" font-size="8.00" fill="#000000">m_riemann_solvers::</text>
<text text-anchor="start" x="234" y="-31.6" font-family="Helvetica,sans-Serif" font-size="8.00" fill="#000000">s_initialize_riemann</text>
<text text-anchor="middle" x="262" y="-22.6" font-family="Helvetica,sans-Serif" font-size="8.00" fill="#000000">_solvers_module</text>
</a>
</g>
</g>
<!-- Node131&#45;&gt;Node134 -->
<g id="edge4" class="edge">
<title>Node131&#45;&gt;Node134</title>
<path fill="none" stroke="#191970" d="M183.2559,-85.4369C185.5519,-84.1286 187.8178,-82.8088 190,-81.5 205.8468,-71.9957 223.087,-60.5436 236.7235,-51.2095"/>
<polygon fill="#191970" stroke="#191970" points="181.4053,-82.4611 174.3646,-90.3781 184.8057,-88.5797 181.4053,-82.4611"/>
</g>
<!-- Node133 -->
<g id="node4" class="node">
<title>Node133</title>
<g id="a_node4"><a xlink:href="p__main_8f90.html#aeec10ee8e2940c953967da3e374e1579" target="_top" xlink:title="Quasi&#45;conservative, shock&#45; and interface&#45; capturing finite&#45;volume scheme for the multicomponent Navie...">
<polygon fill="#ffffff" stroke="#000000" points="334,-50 334,-67 370,-67 370,-50 334,-50"/>
<text text-anchor="middle" x="352" y="-56.6" font-family="Helvetica,sans-Serif" font-size="8.00" fill="#000000">p_main</text>
</a>
</g>
</g>
<!-- Node132&#45;&gt;Node133 -->
<g id="edge3" class="edge">
<title>Node132&#45;&gt;Node133</title>
<path fill="none" stroke="#191970" d="M304.1245,-71.7988C314.5801,-68.8944 325.2435,-65.9324 333.8447,-63.5431"/>
<polygon fill="#191970" stroke="#191970" points="302.9363,-68.4962 294.2379,-74.545 304.8098,-75.2408 302.9363,-68.4962"/>
</g>
<!-- Node134&#45;&gt;Node133 -->
<g id="edge5" class="edge">
<title>Node134&#45;&gt;Node133</title>
<path fill="none" stroke="#191970" d="M307.7379,-46.205C317.0476,-48.791 326.3151,-51.3653 333.9461,-53.485"/>
<polygon fill="#191970" stroke="#191970" points="308.6598,-42.8286 298.0879,-43.5244 306.7863,-49.5732 308.6598,-42.8286"/>
</g>
<!-- Node135&#45;&gt;Node132 -->
<g id="edge7" class="edge">
<title>Node135&#45;&gt;Node132</title>
<path fill="none" stroke="#191970" d="M197.2006,-69.1639C208.214,-71.6004 219.6575,-74.1322 229.8077,-76.3778"/>
<polygon fill="#191970" stroke="#191970" points="197.7766,-65.7067 187.2566,-66.9639 196.2645,-72.5415 197.7766,-65.7067"/>
</g>
<!-- Node135&#45;&gt;Node134 -->
<g id="edge8" class="edge">
<title>Node135&#45;&gt;Node134</title>
<path fill="none" stroke="#191970" d="M197.0789,-47.8631C206.665,-45.7423 216.5819,-43.5483 225.6922,-41.5327"/>
<polygon fill="#191970" stroke="#191970" points="196.2645,-44.4585 187.2566,-50.0361 197.7766,-51.2933 196.2645,-44.4585"/>
</g>
<!-- Node136&#45;&gt;Node132 -->
<g id="edge10" class="edge">
<title>Node136&#45;&gt;Node132</title>
<path fill="none" stroke="#191970" d="M183.2847,-31.5155C185.5738,-32.8352 187.8303,-34.1705 190,-35.5 206.6096,-45.6774 209.7893,-49.6986 226,-60.5 230.9376,-63.79 236.3049,-67.2699 241.351,-70.4996"/>
<polygon fill="#191970" stroke="#191970" points="184.8447,-28.3777 174.4089,-26.5487 181.4264,-34.4863 184.8447,-28.3777"/>
</g>
<!-- Node136&#45;&gt;Node134 -->
<g id="edge11" class="edge">
<title>Node136&#45;&gt;Node134</title>
<path fill="none" stroke="#191970" d="M200.1963,-22.5613C208.8926,-24.1005 217.7579,-25.6695 225.9585,-27.121"/>
<polygon fill="#191970" stroke="#191970" points="200.5722,-19.0735 190.1153,-20.777 199.3522,-25.9664 200.5722,-19.0735"/>
</g>
</g>
</svg>
