<?xml version="1.0" encoding="UTF-8" standalone="no"?>
<!DOCTYPE svg PUBLIC "-//W3C//DTD SVG 1.1//EN"
 "http://www.w3.org/Graphics/SVG/1.1/DTD/svg11.dtd">
<!-- Generated by graphviz version 2.43.0 (0)
 -->
<!-- Title: m_boundary_conditions::s_populate_primitive_variables_buffers Pages: 1 -->
<svg width="457pt" height="374pt"
 viewBox="0.00 0.00 457.00 374.00" xmlns="http://www.w3.org/2000/svg" xmlns:xlink="http://www.w3.org/1999/xlink">

<svg id="main" version="1.1" xmlns="http://www.w3.org/2000/svg" xmlns:xlink="http://www.w3.org/1999/xlink" xml:space="preserve" onload="init(evt)">
<style type="text/css"><![CDATA[
.node, .edge {opacity: 0.7;}
.node.selected, .edge.selected {opacity: 1;}
.edge:hover path { stroke: red; }
.edge:hover polygon { stroke: red; fill: red; }
]]></style>
<script type="application/ecmascript" xlink:href="svg.min.js"/>
<svg id="graph" class="graph">
<g id="graph0" class="graph" transform="scale(1 1) rotate(0) translate(4 370)">
<title>m_boundary_conditions::s_populate_primitive_variables_buffers</title>
<!-- Node1 -->
<g id="Node000001" class="node">
<title>Node1</title>
<g id="a_Node000001"><a xlink:title="The purpose of this procedure is to populate the buffers of the primitive variables,...">
<polygon fill="#999999" stroke="#666666" points="133,-203.5 0,-203.5 0,-162.5 133,-162.5 133,-203.5"/>
<text text-anchor="start" x="8" y="-191.5" font-family="Helvetica,sans-Serif" font-size="10.00">m_boundary_conditions</text>
<text text-anchor="start" x="8" y="-180.5" font-family="Helvetica,sans-Serif" font-size="10.00">::s_populate_primitive</text>
<text text-anchor="middle" x="66.5" y="-169.5" font-family="Helvetica,sans-Serif" font-size="10.00">_variables_buffers</text>
</a>
</g>
</g>
<!-- Node2 -->
<g id="Node000002" class="node">
<title>Node2</title>
<g id="a_Node000002"><a xlink:href="namespacem__boundary__conditions.html#a3d6227c971fb98a1d518a645e3db5c41" target="_top" xlink:title=" ">
<polygon fill="white" stroke="#666666" points="312,-366 179,-366 179,-336 312,-336 312,-366"/>
<text text-anchor="start" x="187" y="-354" font-family="Helvetica,sans-Serif" font-size="10.00">m_boundary_conditions</text>
<text text-anchor="middle" x="245.5" y="-343" font-family="Helvetica,sans-Serif" font-size="10.00">::s_axis</text>
</a>
</g>
</g>
<!-- Node1&#45;&gt;Node2 -->
<g id="edge1_Node000001_Node000002" class="edge">
<title>Node1&#45;&gt;Node2</title>
<g id="a_edge1_Node000001_Node000002"><a xlink:title=" ">
<path fill="none" stroke="#63b8ff" d="M76.66,-203.64C91.56,-234.87 123.97,-294.01 169,-327 170.89,-328.39 172.87,-329.7 174.91,-330.93"/>
<polygon fill="#63b8ff" stroke="#63b8ff" points="173.73,-334.27 184.2,-335.88 177.02,-328.09 173.73,-334.27"/>
</a>
</g>
</g>
<!-- Node3 -->
<g id="Node000003" class="node">
<title>Node3</title>
<g id="a_Node000003"><a xlink:href="namespacem__boundary__conditions.html#a6b07b760d5e002f6fd09fbeb2e96c227" target="_top" xlink:title=" ">
<polygon fill="white" stroke="#666666" points="322,-318 169,-318 169,-288 322,-288 322,-318"/>
<text text-anchor="start" x="177" y="-306" font-family="Helvetica,sans-Serif" font-size="10.00">m_boundary_conditions</text>
<text text-anchor="middle" x="245.5" y="-295" font-family="Helvetica,sans-Serif" font-size="10.00">::s_ghost_cell_extrapolation</text>
</a>
</g>
</g>
<!-- Node1&#45;&gt;Node3 -->
<g id="edge2_Node000001_Node000003" class="edge">
<title>Node1&#45;&gt;Node3</title>
<g id="a_edge2_Node000001_Node000003"><a xlink:title=" ">
<path fill="none" stroke="#63b8ff" d="M84.47,-203.85C103.11,-225.49 134.94,-258.92 169,-279 171.84,-280.68 174.82,-282.25 177.87,-283.72"/>
<polygon fill="#63b8ff" stroke="#63b8ff" points="176.67,-287.02 187.23,-287.85 179.5,-280.61 176.67,-287.02"/>
</a>
</g>
</g>
<!-- Node4 -->
<g id="Node000004" class="node">
<title>Node4</title>
<g id="a_Node000004"><a xlink:href="m__mpi__proxy_8fpp_8f90.html#adb61d3bfca367c6526fbcfc0dd66251c" target="_top" xlink:title="The goal of this procedure is to populate the buffers of the cell&#45;average conservative variables by c...">
<polygon fill="white" stroke="#666666" points="318.5,-270 172.5,-270 172.5,-240 318.5,-240 318.5,-270"/>
<text text-anchor="start" x="180.5" y="-258" font-family="Helvetica,sans-Serif" font-size="10.00">s_mpi_sendrecv_variables</text>
<text text-anchor="middle" x="245.5" y="-247" font-family="Helvetica,sans-Serif" font-size="10.00">_buffers</text>
</a>
</g>
</g>
<!-- Node1&#45;&gt;Node4 -->
<g id="edge3_Node000001_Node000004" class="edge">
<title>Node1&#45;&gt;Node4</title>
<g id="a_edge3_Node000001_Node000004"><a xlink:title=" ">
<path fill="none" stroke="#63b8ff" d="M107.94,-203.65C126.32,-212.64 148.5,-222.94 169,-231 173.84,-232.9 178.89,-234.77 183.99,-236.56"/>
<polygon fill="#63b8ff" stroke="#63b8ff" points="183.22,-240 193.81,-239.92 185.48,-233.37 183.22,-240"/>
</a>
</g>
</g>
<!-- Node7 -->
<g id="Node000007" class="node">
<title>Node7</title>
<g id="a_Node000007"><a xlink:href="namespacem__boundary__conditions.html#addb7b32cdfa1a35e0b18f1b187ac6af4" target="_top" xlink:title=" ">
<polygon fill="white" stroke="#666666" points="312,-222 179,-222 179,-192 312,-192 312,-222"/>
<text text-anchor="start" x="187" y="-210" font-family="Helvetica,sans-Serif" font-size="10.00">m_boundary_conditions</text>
<text text-anchor="middle" x="245.5" y="-199" font-family="Helvetica,sans-Serif" font-size="10.00">::s_no_slip_wall</text>
</a>
</g>
</g>
<!-- Node1&#45;&gt;Node7 -->
<g id="edge6_Node000001_Node000007" class="edge">
<title>Node1&#45;&gt;Node7</title>
<g id="a_edge6_Node000001_Node000007"><a xlink:title=" ">
<path fill="none" stroke="#63b8ff" d="M133.16,-191.9C144.84,-193.49 157.09,-195.15 169.02,-196.77"/>
<polygon fill="#63b8ff" stroke="#63b8ff" points="168.57,-200.24 178.95,-198.11 169.51,-193.3 168.57,-200.24"/>
</a>
</g>
</g>
<!-- Node8 -->
<g id="Node000008" class="node">
<title>Node8</title>
<g id="a_Node000008"><a xlink:href="namespacem__boundary__conditions.html#a29b132a26ddae2cd3afb4214f861dcfc" target="_top" xlink:title=" ">
<polygon fill="white" stroke="#666666" points="312,-174 179,-174 179,-144 312,-144 312,-174"/>
<text text-anchor="start" x="187" y="-162" font-family="Helvetica,sans-Serif" font-size="10.00">m_boundary_conditions</text>
<text text-anchor="middle" x="245.5" y="-151" font-family="Helvetica,sans-Serif" font-size="10.00">::s_periodic</text>
</a>
</g>
</g>
<!-- Node1&#45;&gt;Node8 -->
<g id="edge7_Node000001_Node000008" class="edge">
<title>Node1&#45;&gt;Node8</title>
<g id="a_edge7_Node000001_Node000008"><a xlink:title=" ">
<path fill="none" stroke="#63b8ff" d="M133.16,-174.1C144.84,-172.51 157.09,-170.85 169.02,-169.23"/>
<polygon fill="#63b8ff" stroke="#63b8ff" points="169.51,-172.7 178.95,-167.89 168.57,-165.76 169.51,-172.7"/>
</a>
</g>
</g>
<!-- Node9 -->
<g id="Node000009" class="node">
<title>Node9</title>
<g id="a_Node000009"><a xlink:href="namespacem__boundary__conditions.html#a655f4ef9edcb15614b91363aae213c65" target="_top" xlink:title=" ">
<polygon fill="white" stroke="#666666" points="313,-126 178,-126 178,-96 313,-96 313,-126"/>
<text text-anchor="start" x="186" y="-114" font-family="Helvetica,sans-Serif" font-size="10.00">m_boundary_conditions</text>
<text text-anchor="middle" x="245.5" y="-103" font-family="Helvetica,sans-Serif" font-size="10.00">::s_qbmm_extrapolation</text>
</a>
</g>
</g>
<!-- Node1&#45;&gt;Node9 -->
<g id="edge8_Node000001_Node000009" class="edge">
<title>Node1&#45;&gt;Node9</title>
<g id="a_edge8_Node000001_Node000009"><a xlink:title=" ">
<path fill="none" stroke="#63b8ff" d="M107.94,-162.35C126.32,-153.36 148.5,-143.06 169,-135 173.84,-133.1 178.89,-131.23 183.99,-129.44"/>
<polygon fill="#63b8ff" stroke="#63b8ff" points="185.48,-132.63 193.81,-126.08 183.22,-126 185.48,-132.63"/>
</a>
</g>
</g>
<!-- Node10 -->
<g id="Node000010" class="node">
<title>Node10</title>
<g id="a_Node000010"><a xlink:href="namespacem__boundary__conditions.html#a00baa416b778d7fa702a0d6dbfe34eb3" target="_top" xlink:title=" ">
<polygon fill="white" stroke="#666666" points="312,-78 179,-78 179,-48 312,-48 312,-78"/>
<text text-anchor="start" x="187" y="-66" font-family="Helvetica,sans-Serif" font-size="10.00">m_boundary_conditions</text>
<text text-anchor="middle" x="245.5" y="-55" font-family="Helvetica,sans-Serif" font-size="10.00">::s_slip_wall</text>
</a>
</g>
</g>
<!-- Node1&#45;&gt;Node10 -->
<g id="edge9_Node000001_Node000010" class="edge">
<title>Node1&#45;&gt;Node10</title>
<g id="a_edge9_Node000001_Node000010"><a xlink:title=" ">
<path fill="none" stroke="#63b8ff" d="M84.47,-162.15C103.11,-140.51 134.94,-107.08 169,-87 171.84,-85.32 174.82,-83.75 177.87,-82.28"/>
<polygon fill="#63b8ff" stroke="#63b8ff" points="179.5,-85.39 187.23,-78.15 176.67,-78.98 179.5,-85.39"/>
</a>
</g>
</g>
<!-- Node11 -->
<g id="Node000011" class="node">
<title>Node11</title>
<g id="a_Node000011"><a xlink:href="namespacem__boundary__conditions.html#a89094a3a651a34a2ff666e69e0cdcfb7" target="_top" xlink:title=" ">
<polygon fill="white" stroke="#666666" points="312,-30 179,-30 179,0 312,0 312,-30"/>
<text text-anchor="start" x="187" y="-18" font-family="Helvetica,sans-Serif" font-size="10.00">m_boundary_conditions</text>
<text text-anchor="middle" x="245.5" y="-7" font-family="Helvetica,sans-Serif" font-size="10.00">::s_symmetry</text>
</a>
</g>
</g>
<!-- Node1&#45;&gt;Node11 -->
<g id="edge10_Node000001_Node000011" class="edge">
<title>Node1&#45;&gt;Node11</title>
<g id="a_edge10_Node000001_Node000011"><a xlink:title=" ">
<path fill="none" stroke="#63b8ff" d="M76.66,-162.36C91.56,-131.13 123.97,-71.99 169,-39 170.89,-37.61 172.87,-36.3 174.91,-35.07"/>
<polygon fill="#63b8ff" stroke="#63b8ff" points="177.02,-37.91 184.2,-30.12 173.73,-31.73 177.02,-37.91"/>
</a>
</g>
</g>
<!-- Node5 -->
<g id="Node000005" class="node">
<title>Node5</title>
<g id="a_Node000005"><a xlink:href="m__helper_8fpp_8f90.html#aaa9cc8944c8dfe3f302e106b0eb3efee" target="_top" xlink:title=" ">
<polygon fill="white" stroke="#666666" points="449,-282.5 358,-282.5 358,-263.5 449,-263.5 449,-282.5"/>
<text text-anchor="middle" x="403.5" y="-270.5" font-family="Helvetica,sans-Serif" font-size="10.00">f_logical_to_int</text>
</a>
</g>
</g>
<!-- Node4&#45;&gt;Node5 -->
<g id="edge4_Node000004_Node000005" class="edge">
<title>Node4&#45;&gt;Node5</title>
<g id="a_edge4_Node000004_Node000005"><a xlink:title=" ">
<path fill="none" stroke="#63b8ff" d="M318.56,-263.32C328.41,-264.45 338.39,-265.6 347.86,-266.7"/>
<polygon fill="#63b8ff" stroke="#63b8ff" points="347.57,-270.19 357.91,-267.85 348.37,-263.23 347.57,-270.19"/>
</a>
</g>
</g>
<!-- Node6 -->
<g id="Node000006" class="node">
<title>Node6</title>
<g id="a_Node000006"><a xlink:href="m__helper_8fpp_8f90.html#abd1074cc9307589b2d34db68c67afb7f" target="_top" xlink:title=" ">
<polygon fill="white" stroke="#666666" points="424,-245.5 383,-245.5 383,-226.5 424,-226.5 424,-245.5"/>
<text text-anchor="middle" x="403.5" y="-233.5" font-family="Helvetica,sans-Serif" font-size="10.00">f_xor</text>
</a>
</g>
</g>
<!-- Node4&#45;&gt;Node6 -->
<g id="edge5_Node000004_Node000006" class="edge">
<title>Node4&#45;&gt;Node6</title>
<g id="a_edge5_Node000004_Node000006"><a xlink:title=" ">
<path fill="none" stroke="#63b8ff" d="M318.56,-246.22C337.76,-243.88 357.45,-241.49 372.92,-239.6"/>
<polygon fill="#63b8ff" stroke="#63b8ff" points="373.4,-243.07 382.91,-238.39 372.56,-236.12 373.4,-243.07"/>
</a>
</g>
</g>
</g>
</svg>
</svg>

<style type='text/css'>
<![CDATA[
[data-mouse-over-selected='false'] { opacity: 0.7; }
[data-mouse-over-selected='true']  { opacity: 1.0; }
]]>
</style>
<script type="application/ecmascript"><![CDATA[
document.addEventListener('DOMContentLoaded', (event) => {
  highlightEdges();
  highlightAdjacentNodes();
});
]]></script>
</svg>
