<?xml version="1.0" encoding="UTF-8" standalone="no"?>
<!DOCTYPE svg PUBLIC "-//W3C//DTD SVG 1.1//EN"
 "http://www.w3.org/Graphics/SVG/1.1/DTD/svg11.dtd">
<!-- Generated by graphviz version 2.43.0 (0)
 -->
<!-- Title: m_ib_patches::s_apply_ib_patches Pages: 1 -->
<svg width="695pt" height="422pt"
 viewBox="0.00 0.00 695.00 422.00" xmlns="http://www.w3.org/2000/svg" xmlns:xlink="http://www.w3.org/1999/xlink">
<g id="graph0" class="graph" transform="scale(1 1) rotate(0) translate(4 418)">
<title>m_ib_patches::s_apply_ib_patches</title>
<!-- Node1 -->
<g id="Node000001" class="node">
<title>Node1</title>
<g id="a_Node000001"><a xlink:title="Apply all immersed boundary patch geometries to mark interior cells in the IB marker array.">
<polygon fill="#999999" stroke="#666666" points="128,-222 0,-222 0,-192 128,-192 128,-222"/>
<text text-anchor="start" x="8" y="-210" font-family="Helvetica,sans-Serif" font-size="10.00">m_ib_patches::s_apply</text>
<text text-anchor="middle" x="64" y="-199" font-family="Helvetica,sans-Serif" font-size="10.00">_ib_patches</text>
</a>
</g>
</g>
<!-- Node2 -->
<g id="Node000002" class="node">
<title>Node2</title>
<g id="a_Node000002"><a xlink:href="namespacem__ib__patches.html#a7ae39b1544784fe4bd5a599a80a1045a" target="_top" xlink:title=" ">
<polygon fill="white" stroke="#666666" points="302.5,-254.5 174.5,-254.5 174.5,-213.5 302.5,-213.5 302.5,-254.5"/>
<text text-anchor="start" x="182.5" y="-242.5" font-family="Helvetica,sans-Serif" font-size="10.00">m_ib_patches::s_apply</text>
<text text-anchor="start" x="182.5" y="-231.5" font-family="Helvetica,sans-Serif" font-size="10.00">_ib_patches_grid_cell</text>
<text text-anchor="middle" x="238.5" y="-220.5" font-family="Helvetica,sans-Serif" font-size="10.00">_parallelism</text>
</a>
</g>
</g>
<!-- Node1&#45;&gt;Node2 -->
<g id="edge1_Node000001_Node000002" class="edge">
<title>Node1&#45;&gt;Node2</title>
<g id="a_edge1_Node000001_Node000002"><a xlink:title=" ">
<path fill="none" stroke="#63b8ff" d="M128.25,-216.9C139.97,-218.73 152.3,-220.66 164.29,-222.54"/>
<polygon fill="#63b8ff" stroke="#63b8ff" points="163.83,-226.01 174.25,-224.1 164.92,-219.1 163.83,-226.01"/>
</a>
</g>
</g>
<!-- Node14 -->
<g id="Node000014" class="node">
<title>Node14</title>
<g id="a_Node000014"><a xlink:href="namespacem__ib__patches.html#a5eb95c7b234b83782c65a50d308c0989" target="_top" xlink:title=" ">
<polygon fill="white" stroke="#666666" points="313,-195 164,-195 164,-165 313,-165 313,-195"/>
<text text-anchor="start" x="172" y="-183" font-family="Helvetica,sans-Serif" font-size="10.00">m_ib_patches::s_apply</text>
<text text-anchor="middle" x="238.5" y="-172" font-family="Helvetica,sans-Serif" font-size="10.00">_ib_patches_ib_parallelism</text>
</a>
</g>
</g>
<!-- Node1&#45;&gt;Node14 -->
<g id="edge13_Node000001_Node000014" class="edge">
<title>Node1&#45;&gt;Node14</title>
<g id="a_edge13_Node000001_Node000014"><a xlink:title=" ">
<path fill="none" stroke="#63b8ff" d="M128.25,-197.1C136.55,-195.8 145.15,-194.46 153.71,-193.11"/>
<polygon fill="#63b8ff" stroke="#63b8ff" points="154.4,-196.55 163.73,-191.55 153.31,-189.63 154.4,-196.55"/>
</a>
</g>
</g>
<!-- Node3 -->
<g id="Node000003" class="node">
<title>Node3</title>
<g id="a_Node000003"><a xlink:href="namespacem__patch__geometries.html#afeec9dce9eb3814e5a76863a1f29aefe" target="_top" xlink:title="Check if the x, y, are bounded by a NACA airfoil. Check if the z coordinate is inside the left and ri...">
<polygon fill="white" stroke="#666666" points="486.5,-270 367.5,-270 367.5,-240 486.5,-240 486.5,-270"/>
<text text-anchor="start" x="375.5" y="-258" font-family="Helvetica,sans-Serif" font-size="10.00">m_patch_geometries</text>
<text text-anchor="middle" x="427" y="-247" font-family="Helvetica,sans-Serif" font-size="10.00">::f_is_inside_airfoil</text>
</a>
</g>
</g>
<!-- Node2&#45;&gt;Node3 -->
<g id="edge2_Node000002_Node000003" class="edge">
<title>Node2&#45;&gt;Node3</title>
<g id="a_edge2_Node000002_Node000003"><a xlink:title=" ">
<path fill="none" stroke="#63b8ff" d="M302.64,-241.11C320.13,-243.08 339.2,-245.23 357.01,-247.23"/>
<polygon fill="#63b8ff" stroke="#63b8ff" points="357,-250.75 367.33,-248.39 357.78,-243.8 357,-250.75"/>
</a>
</g>
</g>
<!-- Node5 -->
<g id="Node000005" class="node">
<title>Node5</title>
<g id="a_Node000005"><a xlink:href="namespacem__patch__geometries.html#a488e8317d848547d5652b53bafabd1fa" target="_top" xlink:title="Check if the x, y, and possibly z coordinates would be located inside a cuboid with the patch_id&#39;s le...">
<polygon fill="white" stroke="#666666" points="486.5,-78 367.5,-78 367.5,-48 486.5,-48 486.5,-78"/>
<text text-anchor="start" x="375.5" y="-66" font-family="Helvetica,sans-Serif" font-size="10.00">m_patch_geometries</text>
<text text-anchor="middle" x="427" y="-55" font-family="Helvetica,sans-Serif" font-size="10.00">::f_is_inside_cuboid</text>
</a>
</g>
</g>
<!-- Node2&#45;&gt;Node5 -->
<g id="edge4_Node000002_Node000005" class="edge">
<title>Node2&#45;&gt;Node5</title>
<g id="a_edge4_Node000002_Node000005"><a xlink:title=" ">
<path fill="none" stroke="#63b8ff" d="M301.97,-213.49C306,-210.71 309.74,-207.56 313,-204 349.72,-163.86 310.6,-125.54 349,-87 351.86,-84.12 355.07,-81.59 358.5,-79.36"/>
<polygon fill="#63b8ff" stroke="#63b8ff" points="360.36,-82.33 367.42,-74.42 356.97,-76.21 360.36,-82.33"/>
</a>
</g>
</g>
<!-- Node6 -->
<g id="Node000006" class="node">
<title>Node6</title>
<g id="a_Node000006"><a xlink:href="namespacem__patch__geometries.html#a4f236151439e8fe80d81a54b3300dd12" target="_top" xlink:title="Check which length of the cylinder is not default. Use that direction as the height and the other two...">
<polygon fill="white" stroke="#666666" points="486.5,-30 367.5,-30 367.5,0 486.5,0 486.5,-30"/>
<text text-anchor="start" x="375.5" y="-18" font-family="Helvetica,sans-Serif" font-size="10.00">m_patch_geometries</text>
<text text-anchor="middle" x="427" y="-7" font-family="Helvetica,sans-Serif" font-size="10.00">::f_is_inside_cylinder</text>
</a>
</g>
</g>
<!-- Node2&#45;&gt;Node6 -->
<g id="edge5_Node000002_Node000006" class="edge">
<title>Node2&#45;&gt;Node6</title>
<g id="a_edge5_Node000002_Node000006"><a xlink:title=" ">
<path fill="none" stroke="#63b8ff" d="M302.65,-213.54C306.47,-210.75 309.98,-207.59 313,-204 361.3,-146.55 298.29,-94.34 349,-39 351.79,-35.95 354.97,-33.29 358.4,-30.96"/>
<polygon fill="#63b8ff" stroke="#63b8ff" points="360.42,-33.83 367.37,-25.83 356.95,-27.75 360.42,-33.83"/>
</a>
</g>
</g>
<!-- Node7 -->
<g id="Node000007" class="node">
<title>Node7</title>
<g id="a_Node000007"><a xlink:href="namespacem__patch__geometries.html#ab3f1c9d66160b9f49a9170ee2a4e2502" target="_top" xlink:title=" ">
<polygon fill="white" stroke="#666666" points="486.5,-414 367.5,-414 367.5,-384 486.5,-384 486.5,-414"/>
<text text-anchor="start" x="375.5" y="-402" font-family="Helvetica,sans-Serif" font-size="10.00">m_patch_geometries</text>
<text text-anchor="middle" x="427" y="-391" font-family="Helvetica,sans-Serif" font-size="10.00">::f_is_inside_ellipse</text>
</a>
</g>
</g>
<!-- Node2&#45;&gt;Node7 -->
<g id="edge6_Node000002_Node000007" class="edge">
<title>Node2&#45;&gt;Node7</title>
<g id="a_edge6_Node000002_Node000007"><a xlink:title=" ">
<path fill="none" stroke="#63b8ff" d="M250.18,-254.73C267.05,-285.47 302.77,-342.94 349,-375 351.91,-377.02 354.99,-378.87 358.19,-380.57"/>
<polygon fill="#63b8ff" stroke="#63b8ff" points="356.91,-383.84 367.44,-384.97 359.91,-377.51 356.91,-383.84"/>
</a>
</g>
</g>
<!-- Node8 -->
<g id="Node000008" class="node">
<title>Node8</title>
<g id="a_Node000008"><a xlink:href="namespacem__patch__geometries.html#a057b01b6ea14457a8c272602d0cda0ba" target="_top" xlink:title="Check if the x, y, and z coordinates would be located inside a sphere with the patch_id&#39;s radius.">
<polygon fill="white" stroke="#666666" points="486.5,-366 367.5,-366 367.5,-336 486.5,-336 486.5,-366"/>
<text text-anchor="start" x="375.5" y="-354" font-family="Helvetica,sans-Serif" font-size="10.00">m_patch_geometries</text>
<text text-anchor="middle" x="427" y="-343" font-family="Helvetica,sans-Serif" font-size="10.00">::f_is_inside_sphere</text>
</a>
</g>
</g>
<!-- Node2&#45;&gt;Node8 -->
<g id="edge7_Node000002_Node000008" class="edge">
<title>Node2&#45;&gt;Node8</title>
<g id="a_edge7_Node000002_Node000008"><a xlink:title=" ">
<path fill="none" stroke="#63b8ff" d="M258.63,-254.53C279.15,-275.45 313.6,-307.52 349,-327 352.26,-328.79 355.67,-330.47 359.17,-332.04"/>
<polygon fill="#63b8ff" stroke="#63b8ff" points="358,-335.35 368.58,-335.95 360.68,-328.88 358,-335.35"/>
</a>
</g>
</g>
<!-- Node9 -->
<g id="Node000009" class="node">
<title>Node9</title>
<g id="a_Node000009"><a xlink:href="namespacem__model.html#aa90c25197d99b77858e50c3f284dd6c9" target="_top" xlink:title="Determine if a point is inside a surface using the generalized winding number (Jacobson et al....">
<polygon fill="white" stroke="#666666" points="488,-318 366,-318 366,-288 488,-288 488,-318"/>
<text text-anchor="start" x="374" y="-306" font-family="Helvetica,sans-Serif" font-size="10.00">m_model::f_model_is</text>
<text text-anchor="middle" x="427" y="-295" font-family="Helvetica,sans-Serif" font-size="10.00">_inside</text>
</a>
</g>
</g>
<!-- Node2&#45;&gt;Node9 -->
<g id="edge8_Node000002_Node000009" class="edge">
<title>Node2&#45;&gt;Node9</title>
<g id="a_edge8_Node000002_Node000009"><a xlink:title=" ">
<path fill="none" stroke="#63b8ff" d="M286.85,-254.52C306,-262.54 328.41,-271.58 349,-279 354.4,-280.95 360.05,-282.89 365.72,-284.77"/>
<polygon fill="#63b8ff" stroke="#63b8ff" points="364.67,-288.11 375.26,-287.88 366.83,-281.45 364.67,-288.11"/>
</a>
</g>
</g>
<!-- Node10 -->
<g id="Node000010" class="node">
<title>Node10</title>
<g id="a_Node000010"><a xlink:href="namespacem__ib__patches.html#ad85d575f53026e9fd45ae4a1448f14ab" target="_top" xlink:title=" ">
<polygon fill="white" stroke="#666666" points="505,-126 349,-126 349,-96 505,-96 505,-126"/>
<text text-anchor="start" x="357" y="-114" font-family="Helvetica,sans-Serif" font-size="10.00">m_ib_patches::get_bounding</text>
<text text-anchor="middle" x="427" y="-103" font-family="Helvetica,sans-Serif" font-size="10.00">_indices</text>
</a>
</g>
</g>
<!-- Node2&#45;&gt;Node10 -->
<g id="edge9_Node000002_Node000010" class="edge">
<title>Node2&#45;&gt;Node10</title>
<g id="a_edge9_Node000002_Node000010"><a xlink:title=" ">
<path fill="none" stroke="#63b8ff" d="M300.2,-213.46C304.79,-210.67 309.13,-207.53 313,-204 338.57,-180.71 322.46,-157.18 349,-135 350.53,-133.72 352.13,-132.51 353.79,-131.36"/>
<polygon fill="#63b8ff" stroke="#63b8ff" points="355.7,-134.3 362.47,-126.15 352.09,-128.3 355.7,-134.3"/>
</a>
</g>
</g>
<!-- Node12 -->
<g id="Node000012" class="node">
<title>Node12</title>
<g id="a_Node000012"><a xlink:href="namespacem__ib__patches.html#aa30942f91c6604edab651d4d3ec2abaf" target="_top" xlink:title="Encode the patch ID with a unique offset containing periodicity information.">
<polygon fill="white" stroke="#666666" points="495,-222 359,-222 359,-192 495,-192 495,-222"/>
<text text-anchor="start" x="367" y="-210" font-family="Helvetica,sans-Serif" font-size="10.00">m_ib_patches::s_encode</text>
<text text-anchor="middle" x="427" y="-199" font-family="Helvetica,sans-Serif" font-size="10.00">_patch_periodicity</text>
</a>
</g>
</g>
<!-- Node2&#45;&gt;Node12 -->
<g id="edge11_Node000002_Node000012" class="edge">
<title>Node2&#45;&gt;Node12</title>
<g id="a_edge11_Node000002_Node000012"><a xlink:title=" ">
<path fill="none" stroke="#63b8ff" d="M302.64,-224.86C317.46,-222.71 333.42,-220.4 348.79,-218.18"/>
<polygon fill="#63b8ff" stroke="#63b8ff" points="349.38,-221.63 358.78,-216.73 348.38,-214.7 349.38,-221.63"/>
</a>
</g>
</g>
<!-- Node13 -->
<g id="Node000013" class="node">
<title>Node13</title>
<g id="a_Node000013"><a xlink:href="namespacem__ib__patches.html#a37849410326edb12eb6f5b5a16970462" target="_top" xlink:title="Determine the periodic wrapping bounds in each direction.">
<polygon fill="white" stroke="#666666" points="485,-174 369,-174 369,-144 485,-144 485,-174"/>
<text text-anchor="start" x="377" y="-162" font-family="Helvetica,sans-Serif" font-size="10.00">m_ib_patches::s_get</text>
<text text-anchor="middle" x="427" y="-151" font-family="Helvetica,sans-Serif" font-size="10.00">_periodicities</text>
</a>
</g>
</g>
<!-- Node2&#45;&gt;Node13 -->
<g id="edge12_Node000002_Node000013" class="edge">
<title>Node2&#45;&gt;Node13</title>
<g id="a_edge12_Node000002_Node000013"><a xlink:title=" ">
<path fill="none" stroke="#63b8ff" d="M292.49,-213.42C299.46,-210.41 306.45,-207.23 313,-204 329.62,-195.81 332.05,-190.47 349,-183 353.34,-181.09 357.87,-179.26 362.48,-177.53"/>
<polygon fill="#63b8ff" stroke="#63b8ff" points="363.76,-180.79 371.99,-174.13 361.4,-174.2 363.76,-180.79"/>
</a>
</g>
</g>
<!-- Node4 -->
<g id="Node000004" class="node">
<title>Node4</title>
<g id="a_Node000004"><a xlink:href="namespacem__helper__basic.html#a3f0eae73a833f30924d4b2665a13a429" target="_top" xlink:title="Check if two floating point numbers of wp are within tolerance.">
<polygon fill="white" stroke="#666666" points="685,-270 543,-270 543,-240 685,-240 685,-270"/>
<text text-anchor="start" x="551" y="-258" font-family="Helvetica,sans-Serif" font-size="10.00">m_helper_basic::f_approx</text>
<text text-anchor="middle" x="614" y="-247" font-family="Helvetica,sans-Serif" font-size="10.00">_equal</text>
</a>
</g>
</g>
<!-- Node3&#45;&gt;Node4 -->
<g id="edge3_Node000003_Node000004" class="edge">
<title>Node3&#45;&gt;Node4</title>
<g id="a_edge3_Node000003_Node000004"><a xlink:title=" ">
<path fill="none" stroke="#63b8ff" d="M486.54,-255C501.21,-255 517.21,-255 532.74,-255"/>
<polygon fill="#63b8ff" stroke="#63b8ff" points="532.86,-258.5 542.86,-255 532.86,-251.5 532.86,-258.5"/>
</a>
</g>
</g>
<!-- Node11 -->
<g id="Node000011" class="node">
<title>Node11</title>
<g id="a_Node000011"><a xlink:href="namespacem__ib__patches.html#a12a440228072b7e454f8b4c8dad8db27" target="_top" xlink:title=" ">
<polygon fill="white" stroke="#666666" points="687,-126 541,-126 541,-96 687,-96 687,-126"/>
<text text-anchor="start" x="549" y="-114" font-family="Helvetica,sans-Serif" font-size="10.00">m_ib_patches::get_indices</text>
<text text-anchor="middle" x="614" y="-103" font-family="Helvetica,sans-Serif" font-size="10.00">_from_bounds</text>
</a>
</g>
</g>
<!-- Node10&#45;&gt;Node11 -->
<g id="edge10_Node000010_Node000011" class="edge">
<title>Node10&#45;&gt;Node11</title>
<g id="a_edge10_Node000010_Node000011"><a xlink:title=" ">
<path fill="none" stroke="#63b8ff" d="M505.12,-111C513.5,-111 522.07,-111 530.51,-111"/>
<polygon fill="#63b8ff" stroke="#63b8ff" points="530.75,-114.5 540.75,-111 530.75,-107.5 530.75,-114.5"/>
</a>
</g>
</g>
<!-- Node14&#45;&gt;Node3 -->
<g id="edge14_Node000014_Node000003" class="edge">
<title>Node14&#45;&gt;Node3</title>
<g id="a_edge14_Node000014_Node000003"><a xlink:title=" ">
<path fill="none" stroke="#63b8ff" d="M290.53,-195.15C298.22,-198.06 305.93,-201.35 313,-205 330.54,-214.06 331.35,-222.17 349,-231 352.73,-232.87 356.64,-234.63 360.63,-236.27"/>
<polygon fill="#63b8ff" stroke="#63b8ff" points="359.47,-239.58 370.05,-239.92 361.99,-233.05 359.47,-239.58"/>
</a>
</g>
</g>
<!-- Node14&#45;&gt;Node5 -->
<g id="edge15_Node000014_Node000005" class="edge">
<title>Node14&#45;&gt;Node5</title>
<g id="a_edge15_Node000014_Node000005"><a xlink:title=" ">
<path fill="none" stroke="#63b8ff" d="M253.3,-164.98C272.78,-144.6 310.32,-108.29 349,-87 352.26,-85.21 355.67,-83.53 359.17,-81.96"/>
<polygon fill="#63b8ff" stroke="#63b8ff" points="360.68,-85.12 368.58,-78.05 358,-78.65 360.68,-85.12"/>
</a>
</g>
</g>
<!-- Node14&#45;&gt;Node6 -->
<g id="edge16_Node000014_Node000006" class="edge">
<title>Node14&#45;&gt;Node6</title>
<g id="a_edge16_Node000014_Node000006"><a xlink:title=" ">
<path fill="none" stroke="#63b8ff" d="M247.2,-164.78C262.57,-135.92 299.84,-73.09 349,-39 351.91,-36.98 354.99,-35.13 358.19,-33.43"/>
<polygon fill="#63b8ff" stroke="#63b8ff" points="359.91,-36.49 367.44,-29.03 356.91,-30.16 359.91,-36.49"/>
</a>
</g>
</g>
<!-- Node14&#45;&gt;Node7 -->
<g id="edge17_Node000014_Node000007" class="edge">
<title>Node14&#45;&gt;Node7</title>
<g id="a_edge17_Node000014_Node000007"><a xlink:title=" ">
<path fill="none" stroke="#63b8ff" d="M301.23,-195.18C305.59,-197.92 309.6,-201.17 313,-205 364.26,-262.77 297,-317.9 349,-375 351.78,-378.06 354.95,-380.73 358.37,-383.06"/>
<polygon fill="#63b8ff" stroke="#63b8ff" points="356.92,-386.27 367.34,-388.2 360.4,-380.19 356.92,-386.27"/>
</a>
</g>
</g>
<!-- Node14&#45;&gt;Node8 -->
<g id="edge18_Node000014_Node000008" class="edge">
<title>Node14&#45;&gt;Node8</title>
<g id="a_edge18_Node000014_Node000008"><a xlink:title=" ">
<path fill="none" stroke="#63b8ff" d="M300.2,-195.05C304.91,-197.83 309.27,-201.11 313,-205 352.15,-245.78 309.33,-286.72 349,-327 351.85,-329.89 355.04,-332.44 358.46,-334.67"/>
<polygon fill="#63b8ff" stroke="#63b8ff" points="356.92,-337.82 367.36,-339.63 360.33,-331.71 356.92,-337.82"/>
</a>
</g>
</g>
<!-- Node14&#45;&gt;Node9 -->
<g id="edge19_Node000014_Node000009" class="edge">
<title>Node14&#45;&gt;Node9</title>
<g id="a_edge19_Node000014_Node000009"><a xlink:title=" ">
<path fill="none" stroke="#63b8ff" d="M298.45,-195.16C303.69,-197.91 308.65,-201.17 313,-205 340.43,-229.2 321.27,-255.16 349,-279 351.5,-281.15 354.18,-283.1 357,-284.88"/>
<polygon fill="#63b8ff" stroke="#63b8ff" points="355.36,-287.97 365.81,-289.71 358.73,-281.83 355.36,-287.97"/>
</a>
</g>
</g>
<!-- Node14&#45;&gt;Node10 -->
<g id="edge20_Node000014_Node000010" class="edge">
<title>Node14&#45;&gt;Node10</title>
<g id="a_edge20_Node000014_Node000010"><a xlink:title=" ">
<path fill="none" stroke="#63b8ff" d="M274.21,-164.82C295.59,-155.7 323.67,-144.13 349,-135 354.4,-133.05 360.05,-131.11 365.72,-129.23"/>
<polygon fill="#63b8ff" stroke="#63b8ff" points="366.83,-132.55 375.26,-126.12 364.67,-125.89 366.83,-132.55"/>
</a>
</g>
</g>
<!-- Node14&#45;&gt;Node12 -->
<g id="edge21_Node000014_Node000012" class="edge">
<title>Node14&#45;&gt;Node12</title>
<g id="a_edge21_Node000014_Node000012"><a xlink:title=" ">
<path fill="none" stroke="#63b8ff" d="M313.21,-190.67C324.86,-192.36 336.95,-194.11 348.68,-195.81"/>
<polygon fill="#63b8ff" stroke="#63b8ff" points="348.48,-199.31 358.88,-197.28 349.49,-192.39 348.48,-199.31"/>
</a>
</g>
</g>
<!-- Node14&#45;&gt;Node13 -->
<g id="edge22_Node000014_Node000013" class="edge">
<title>Node14&#45;&gt;Node13</title>
<g id="a_edge22_Node000014_Node000013"><a xlink:title=" ">
<path fill="none" stroke="#63b8ff" d="M313.21,-171.7C328.27,-170 344.03,-168.23 358.85,-166.56"/>
<polygon fill="#63b8ff" stroke="#63b8ff" points="359.38,-170.02 368.93,-165.43 358.6,-163.07 359.38,-170.02"/>
</a>
</g>
</g>
</g>
</svg>
