<?xml version="1.0" encoding="UTF-8" standalone="no"?>
<!DOCTYPE svg PUBLIC "-//W3C//DTD SVG 1.1//EN"
 "http://www.w3.org/Graphics/SVG/1.1/DTD/svg11.dtd">
<!-- Generated by graphviz version 2.43.0 (0)
 -->
<!-- Title: m_helper_basic::f_is_default Pages: 1 -->
<!--zoomable 401 -->

<svg id="main" version="1.1" xmlns="http://www.w3.org/2000/svg" xmlns:xlink="http://www.w3.org/1999/xlink" xml:space="preserve" onload="init(evt)">

<style type="text/css"><![CDATA[
.node, .edge {opacity: 0.7;}
.node.selected, .edge.selected {opacity: 1;}
.edge:hover path { stroke: red; }
.edge:hover polygon { stroke: red; fill: red; }
]]></style>

<defs>
  <circle id="rim" cx="0" cy="0" r="7"/>
  <circle id="rim2" cx="0" cy="0" r="3.5"/>
  <g id="zoomPlus">
    <use xlink:href="#rim" fill="#404040"><set attributeName="fill" to="#808080" begin="zoomplus.mouseover" end="zoomplus.mouseout"/></use>
    <path d="M-4,0h8M0,-4v8" fill="none" stroke="white" stroke-width="1.5" pointer-events="none"/>
  </g>
  <g id="zoomMin">
    <use xlink:href="#rim" fill="#404040"><set attributeName="fill" to="#808080" begin="zoomminus.mouseover" end="zoomminus.mouseout"/></use>
    <path d="M-4,0h8" fill="none" stroke="white" stroke-width="1.5" pointer-events="none"/>
  </g>
  <g id="arrowUp" transform="translate(30 24)">
    <use xlink:href="#rim"/>
    <path pointer-events="none" fill="none" stroke="white" stroke-width="1.5" d="M0,-3.0v7 M-2.5,-0.5L0,-3.0L2.5,-0.5"/>
  </g>
  <g id="arrowRight" transform="rotate(90) translate(36 -43)">
    <use xlink:href="#rim"/>
    <path pointer-events="none" fill="none" stroke="white" stroke-width="1.5" d="M0,-3.0v7 M-2.5,-0.5L0,-3.0L2.5,-0.5"/>
  </g>
  <g id="arrowDown" transform="rotate(180) translate(-30 -48)">
    <use xlink:href="#rim"/>
    <path pointer-events="none" fill="none" stroke="white" stroke-width="1.5" d="M0,-3.0v7 M-2.5,-0.5L0,-3.0L2.5,-0.5"/>
  </g>
  <g id="arrowLeft" transform="rotate(270) translate(-36 17)">
    <use xlink:href="#rim"/>
    <path pointer-events="none" fill="none" stroke="white" stroke-width="1.5" d="M0,-3.0v7 M-2.5,-0.5L0,-3.0L2.5,-0.5"/>
  </g>
  <g id="resetDef">
    <use xlink:href="#rim2" fill="#404040"><set attributeName="fill" to="#808080" begin="reset.mouseover" end="reset.mouseout"/></use>
  </g>
</defs>
<script type="application/ecmascript">
var viewWidth = 927;
var viewHeight = 401;
var sectionId = 'dynsection-4';
</script>
<script type="application/ecmascript" xlink:href="svg.min.js"/>
<svg id="graph" class="graph">
<g id="viewport">
<title>m_helper_basic::f_is_default</title>
<!-- Node1 -->
<g id="Node000001" class="node">
<title>Node1</title>
<g id="a_Node000001"><a xlink:title="Check if a real(wp) variable is of default value.">
<polygon fill="#999999" stroke="#666666" points="919,-210 803,-210 803,-180 919,-180 919,-210"/>
<text text-anchor="start" x="811" y="-198" font-family="Helvetica,sans-Serif" font-size="10.00">m_helper_basic::f_is</text>
<text text-anchor="middle" x="861" y="-187" font-family="Helvetica,sans-Serif" font-size="10.00">_default</text>
</a>
</g>
</g>
<!-- Node2 -->
<g id="Node000002" class="node">
<title>Node2</title>
<g id="a_Node000002"><a xlink:href="namespacem__helper__basic.html#a2a51671bfbfddf6ecabbc9593be49e1d" target="_top" xlink:title="Check if ALL elements of a real(wp) array are of default value.">
<polygon fill="white" stroke="#666666" points="747.5,-393 627.5,-393 627.5,-363 747.5,-363 747.5,-393"/>
<text text-anchor="start" x="635.5" y="-381" font-family="Helvetica,sans-Serif" font-size="10.00">m_helper_basic::f_all</text>
<text text-anchor="middle" x="687.5" y="-370" font-family="Helvetica,sans-Serif" font-size="10.00">_default</text>
</a>
</g>
</g>
<!-- Node1&#45;&gt;Node2 -->
<g id="edge1_Node000001_Node000002" class="edge">
<title>Node1&#45;&gt;Node2</title>
<g id="a_edge1_Node000001_Node000002"><a xlink:title=" ">
<path fill="none" stroke="#63b8ff" d="M852.07,-219.69C839.57,-254.69 811.97,-318.43 767,-354 761.19,-358.6 754.5,-362.32 747.53,-365.33"/>
<polygon fill="#63b8ff" stroke="#63b8ff" points="855.38,-220.81 855.33,-210.22 848.77,-218.53 855.38,-220.81"/>
</a>
</g>
</g>
<!-- Node3 -->
<g id="Node000003" class="node">
<title>Node3</title>
<g id="a_Node000003"><a xlink:href="namespacem__bubbles.html#a8d416603cfcd7a26400ca3a3e8fd36da" target="_top" xlink:title="Keller&#45;Miksis bubble wall pressure.">
<polygon fill="white" stroke="#666666" points="753,-271.5 622,-271.5 622,-252.5 753,-252.5 753,-271.5"/>
<text text-anchor="middle" x="687.5" y="-259.5" font-family="Helvetica,sans-Serif" font-size="10.00">m_bubbles::f_cpbw_km</text>
</a>
</g>
</g>
<!-- Node1&#45;&gt;Node3 -->
<g id="edge2_Node000001_Node000003" class="edge">
<title>Node1&#45;&gt;Node3</title>
<g id="a_edge2_Node000001_Node000003"><a xlink:title=" ">
<path fill="none" stroke="#63b8ff" d="M825.63,-215.25C808.46,-224.7 787.11,-235.5 767,-243 757.15,-246.67 746.33,-249.83 735.96,-252.45"/>
<polygon fill="#63b8ff" stroke="#63b8ff" points="827.69,-218.1 834.7,-210.16 824.27,-212 827.69,-218.1"/>
</a>
</g>
</g>
<!-- Node10 -->
<g id="Node000010" class="node">
<title>Node10</title>
<g id="a_Node000010"><a xlink:href="namespacem__bubbles.html#ae36e0bb77cb60ad0234efb590375320d" target="_top" xlink:title="Keller&#45;Miksis bubble radial acceleration.">
<polygon fill="white" stroke="#666666" points="753,-326.5 622,-326.5 622,-307.5 753,-307.5 753,-326.5"/>
<text text-anchor="middle" x="687.5" y="-314.5" font-family="Helvetica,sans-Serif" font-size="10.00">m_bubbles::f_rddot_km</text>
</a>
</g>
</g>
<!-- Node1&#45;&gt;Node10 -->
<g id="edge12_Node000001_Node000010" class="edge">
<title>Node1&#45;&gt;Node10</title>
<g id="a_edge12_Node000001_Node000010"><a xlink:title=" ">
<path fill="none" stroke="#63b8ff" d="M845.34,-218.58C829.15,-242.58 800.85,-279.02 767,-299 761.22,-302.41 754.85,-305.18 748.31,-307.42"/>
<polygon fill="#63b8ff" stroke="#63b8ff" points="848.38,-220.33 850.94,-210.05 842.52,-216.49 848.38,-220.33"/>
</a>
</g>
</g>
<!-- Node11 -->
<g id="Node000011" class="node">
<title>Node11</title>
<g id="a_Node000011"><a xlink:href="namespacem__checker.html#a90a9d8f1dff4e785640769a2170e24b0" target="_top" xlink:title="Checks that each active synthetic&#45;turbulence forcing zone has a fully specified position and a positi...">
<polygon fill="white" stroke="#666666" points="767,-234 608,-234 608,-204 767,-204 767,-234"/>
<text text-anchor="start" x="616" y="-222" font-family="Helvetica,sans-Serif" font-size="10.00">m_checker::s_check</text>
<text text-anchor="middle" x="687.5" y="-211" font-family="Helvetica,sans-Serif" font-size="10.00">_inputs_synthetic_turbulence</text>
</a>
</g>
</g>
<!-- Node1&#45;&gt;Node11 -->
<g id="edge15_Node000001_Node000011" class="edge">
<title>Node1&#45;&gt;Node11</title>
<g id="a_edge15_Node000001_Node000011"><a xlink:title=" ">
<path fill="none" stroke="#63b8ff" d="M792.75,-204.41C784.32,-205.59 775.63,-206.81 767.04,-208.01"/>
<polygon fill="#63b8ff" stroke="#63b8ff" points="793.47,-207.84 802.89,-202.99 792.5,-200.91 793.47,-207.84"/>
</a>
</g>
</g>
<!-- Node16 -->
<g id="Node000016" class="node">
<title>Node16</title>
<g id="a_Node000016"><a xlink:href="namespacem__acoustic__src.html#ab35bc877e24a62748ab7df0548ebd08d" target="_top" xlink:title="Initialize the acoustic source module.">
<polygon fill="white" stroke="#666666" points="762.5,-186 612.5,-186 612.5,-156 762.5,-156 762.5,-186"/>
<text text-anchor="start" x="620.5" y="-174" font-family="Helvetica,sans-Serif" font-size="10.00">m_acoustic_src::s_initialize</text>
<text text-anchor="middle" x="687.5" y="-163" font-family="Helvetica,sans-Serif" font-size="10.00">_acoustic_src</text>
</a>
</g>
</g>
<!-- Node1&#45;&gt;Node16 -->
<g id="edge20_Node000001_Node000016" class="edge">
<title>Node1&#45;&gt;Node16</title>
<g id="a_edge20_Node000001_Node000016"><a xlink:title=" ">
<path fill="none" stroke="#63b8ff" d="M792.77,-185.59C782.92,-184.21 772.73,-182.79 762.75,-181.39"/>
<polygon fill="#63b8ff" stroke="#63b8ff" points="792.5,-189.09 802.89,-187.01 793.47,-182.16 792.5,-189.09"/>
</a>
</g>
</g>
<!-- Node18 -->
<g id="Node000018" class="node">
<title>Node18</title>
<g id="a_Node000018"><a xlink:href="namespacem__global__parameters.html#a7d78db66d7d2bd3001d7a7ef981b0d87" target="_top" xlink:title="Initialize the global parameters module.">
<polygon fill="white" stroke="#666666" points="749,-137.5 626,-137.5 626,-96.5 749,-96.5 749,-137.5"/>
<text text-anchor="start" x="634" y="-125.5" font-family="Helvetica,sans-Serif" font-size="10.00">m_global_parameters</text>
<text text-anchor="start" x="634" y="-114.5" font-family="Helvetica,sans-Serif" font-size="10.00">::s_initialize_global</text>
<text text-anchor="middle" x="687.5" y="-103.5" font-family="Helvetica,sans-Serif" font-size="10.00">_parameters_module</text>
</a>
</g>
</g>
<!-- Node1&#45;&gt;Node18 -->
<g id="edge23_Node000001_Node000018" class="edge">
<title>Node1&#45;&gt;Node18</title>
<g id="a_edge23_Node000001_Node000018"><a xlink:title=" ">
<path fill="none" stroke="#63b8ff" d="M823.69,-175.06C806.69,-166.04 786.03,-155.52 767,-147 759.81,-143.78 752.16,-140.59 744.56,-137.55"/>
<polygon fill="#63b8ff" stroke="#63b8ff" points="822.25,-178.27 832.72,-179.9 825.56,-172.1 822.25,-178.27"/>
</a>
</g>
</g>
<!-- Node19 -->
<g id="Node000019" class="node">
<title>Node19</title>
<g id="a_Node000019"><a xlink:href="namespacem__qbmm.html#aeefcb72401bfdb35dcdd81104e647a15" target="_top" xlink:title="Initialize the QBMM module.">
<polygon fill="white" stroke="#666666" points="748.5,-78 626.5,-78 626.5,-48 748.5,-48 748.5,-78"/>
<text text-anchor="start" x="634.5" y="-66" font-family="Helvetica,sans-Serif" font-size="10.00">m_qbmm::s_initialize</text>
<text text-anchor="middle" x="687.5" y="-55" font-family="Helvetica,sans-Serif" font-size="10.00">_qbmm_module</text>
</a>
</g>
</g>
<!-- Node1&#45;&gt;Node19 -->
<g id="edge25_Node000001_Node000019" class="edge">
<title>Node1&#45;&gt;Node19</title>
<g id="a_edge25_Node000001_Node000019"><a xlink:title=" ">
<path fill="none" stroke="#63b8ff" d="M845.15,-171.3C828.8,-147.06 800.37,-109.95 767,-88 761.14,-84.15 754.65,-80.86 747.99,-78.05"/>
<polygon fill="#63b8ff" stroke="#63b8ff" points="842.39,-173.47 850.81,-179.9 848.23,-169.62 842.39,-173.47"/>
</a>
</g>
</g>
<!-- Node20 -->
<g id="Node000020" class="node">
<title>Node20</title>
<g id="a_Node000020"><a xlink:href="namespacem__compute__levelset.html#adadad13569efd08e6caa0cb5b7157942" target="_top" xlink:title="The STL patch is a 2/3D geometry that is imported from an STL file.">
<polygon fill="white" stroke="#666666" points="747,-30 628,-30 628,0 747,0 747,-30"/>
<text text-anchor="start" x="636" y="-18" font-family="Helvetica,sans-Serif" font-size="10.00">m_compute_levelset</text>
<text text-anchor="middle" x="687.5" y="-7" font-family="Helvetica,sans-Serif" font-size="10.00">::s_model_levelset</text>
</a>
</g>
</g>
<!-- Node1&#45;&gt;Node20 -->
<g id="edge27_Node000001_Node000020" class="edge">
<title>Node1&#45;&gt;Node20</title>
<g id="a_edge27_Node000001_Node000020"><a xlink:title=" ">
<path fill="none" stroke="#63b8ff" d="M851.58,-169.8C838.76,-135.26 811.07,-73.56 767,-39 761.06,-34.34 754.21,-30.58 747.09,-27.55"/>
<polygon fill="#63b8ff" stroke="#63b8ff" points="848.42,-171.36 855.08,-179.59 855.01,-169 848.42,-171.36"/>
</a>
</g>
</g>
<!-- Node3&#45;&gt;Node3 -->
<g id="edge3_Node000003_Node000003" class="edge">
<title>Node3&#45;&gt;Node3</title>
<g id="a_edge3_Node000003_Node000003"><a xlink:title=" ">
<path fill="none" stroke="#63b8ff" d="M719.69,-279.95C718.77,-285.32 708.04,-289.5 687.5,-289.5 656.93,-289.5 648.09,-280.23 660.99,-271.58"/>
<polygon fill="#63b8ff" stroke="#63b8ff" points="722.52,-277.89 714.01,-271.58 716.73,-281.82 722.52,-277.89"/>
</a>
</g>
</g>
<!-- Node4 -->
<g id="Node000004" class="node">
<title>Node4</title>
<g id="a_Node000004"><a xlink:href="namespacem__bubbles.html#aaf414a5ec7301d71ef8093914fbe6c37" target="_top" xlink:title="Compute the bubble radial acceleration based on the selected bubble model.">
<polygon fill="white" stroke="#666666" points="561.5,-324.5 451.5,-324.5 451.5,-305.5 561.5,-305.5 561.5,-324.5"/>
<text text-anchor="middle" x="506.5" y="-312.5" font-family="Helvetica,sans-Serif" font-size="10.00">m_bubbles::f_rddot</text>
</a>
</g>
</g>
<!-- Node3&#45;&gt;Node4 -->
<g id="edge4_Node000003_Node000004" class="edge">
<title>Node3&#45;&gt;Node4</title>
<g id="a_edge4_Node000003_Node000004"><a xlink:title=" ">
<path fill="none" stroke="#63b8ff" d="M644.12,-274.55C612.12,-284.02 568.87,-296.83 539.67,-305.47"/>
<polygon fill="#63b8ff" stroke="#63b8ff" points="645.49,-277.79 654.08,-271.6 643.5,-271.08 645.49,-277.79"/>
</a>
</g>
</g>
<!-- Node8 -->
<g id="Node000008" class="node">
<title>Node8</title>
<g id="a_Node000008"><a xlink:href="namespacem__riemann__solver__hllc.html#a1aa7ec60f1cdf82447547835d45e1021" target="_top" xlink:title="HLLC Riemann solver with contact restoration, Toro et al. Shock Waves (1994).">
<polygon fill="white" stroke="#666666" points="572,-277 441,-277 441,-247 572,-247 572,-277"/>
<text text-anchor="start" x="449" y="-265" font-family="Helvetica,sans-Serif" font-size="10.00">m_riemann_solver_hllc</text>
<text text-anchor="middle" x="506.5" y="-254" font-family="Helvetica,sans-Serif" font-size="10.00">::s_hllc_riemann_solver</text>
</a>
</g>
</g>
<!-- Node3&#45;&gt;Node8 -->
<g id="edge10_Node000003_Node000008" class="edge">
<title>Node3&#45;&gt;Node8</title>
<g id="a_edge10_Node000003_Node000008"><a xlink:title=" ">
<path fill="none" stroke="#63b8ff" d="M611.86,-262C598.63,-262 584.95,-262 572.03,-262"/>
<polygon fill="#63b8ff" stroke="#63b8ff" points="611.88,-265.5 621.88,-262 611.88,-258.5 611.88,-265.5"/>
</a>
</g>
</g>
<!-- Node4&#45;&gt;Node4 -->
<g id="edge5_Node000004_Node000004" class="edge">
<title>Node4&#45;&gt;Node4</title>
<g id="a_edge5_Node000004_Node000004"><a xlink:title=" ">
<path fill="none" stroke="#63b8ff" d="M537.11,-333.32C535.83,-338.51 525.63,-342.5 506.5,-342.5 477.35,-342.5 468.93,-333.23 481.22,-324.58"/>
<polygon fill="#63b8ff" stroke="#63b8ff" points="539.98,-331.29 531.78,-324.58 534,-334.94 539.98,-331.29"/>
</a>
</g>
</g>
<!-- Node5 -->
<g id="Node000005" class="node">
<title>Node5</title>
<g id="a_Node000005"><a xlink:href="namespacem__bubbles.html#ada2623f1499c4719141069dcd4f5c5d1" target="_top" xlink:title="Integrate bubble variables over the given time step size, h, using a third&#45;order accurate embedded Ru...">
<polygon fill="white" stroke="#666666" points="405,-376 277,-376 277,-346 405,-346 405,-376"/>
<text text-anchor="start" x="285" y="-364" font-family="Helvetica,sans-Serif" font-size="10.00">m_bubbles::s_advance</text>
<text text-anchor="middle" x="341" y="-353" font-family="Helvetica,sans-Serif" font-size="10.00">_substep</text>
</a>
</g>
</g>
<!-- Node4&#45;&gt;Node5 -->
<g id="edge6_Node000004_Node000005" class="edge">
<title>Node4&#45;&gt;Node5</title>
<g id="a_edge6_Node000004_Node000005"><a xlink:title=" ">
<path fill="none" stroke="#63b8ff" d="M461.96,-327.25C441.53,-333 417.01,-339.9 395.47,-345.96"/>
<polygon fill="#63b8ff" stroke="#63b8ff" points="462.94,-330.61 471.62,-324.53 461.05,-323.87 462.94,-330.61"/>
</a>
</g>
</g>
<!-- Node7 -->
<g id="Node000007" class="node">
<title>Node7</title>
<g id="a_Node000007"><a xlink:href="namespacem__bubbles.html#a4b48725a84a60c73af7e378ffc3d3438" target="_top" xlink:title="Choose the initial time step size for the adaptive time stepping routine (See Heirer,...">
<polygon fill="white" stroke="#666666" points="398,-328 284,-328 284,-298 398,-298 398,-328"/>
<text text-anchor="start" x="292" y="-316" font-family="Helvetica,sans-Serif" font-size="10.00">m_bubbles::s_initial</text>
<text text-anchor="middle" x="341" y="-305" font-family="Helvetica,sans-Serif" font-size="10.00">_substep_h</text>
</a>
</g>
</g>
<!-- Node4&#45;&gt;Node7 -->
<g id="edge8_Node000004_Node000007" class="edge">
<title>Node4&#45;&gt;Node7</title>
<g id="a_edge8_Node000004_Node000007"><a xlink:title=" ">
<path fill="none" stroke="#63b8ff" d="M440.92,-314.21C426.78,-314.04 411.93,-313.86 398.16,-313.69"/>
<polygon fill="#63b8ff" stroke="#63b8ff" points="441.01,-317.71 451.06,-314.33 441.1,-310.71 441.01,-317.71"/>
</a>
</g>
</g>
<!-- Node6 -->
<g id="Node000006" class="node">
<title>Node6</title>
<g id="a_Node000006"><a xlink:href="namespacem__bubbles.html#a8052fe0b4b286ef9b36667635dceefde" target="_top" xlink:title="Adaptive time stepping routine for subgrid bubbles (See Heirer, E. Hairer S.P.Norsett G....">
<polygon fill="white" stroke="#666666" points="241,-346.5 89,-346.5 89,-327.5 241,-327.5 241,-346.5"/>
<text text-anchor="middle" x="165" y="-334.5" font-family="Helvetica,sans-Serif" font-size="10.00">m_bubbles::f_advance_step</text>
</a>
</g>
</g>
<!-- Node5&#45;&gt;Node6 -->
<g id="edge7_Node000005_Node000006" class="edge">
<title>Node5&#45;&gt;Node6</title>
<g id="a_edge7_Node000005_Node000006"><a xlink:title=" ">
<path fill="none" stroke="#63b8ff" d="M266.75,-350.9C256.28,-349.45 245.53,-347.97 235.14,-346.54"/>
<polygon fill="#63b8ff" stroke="#63b8ff" points="266.31,-354.37 276.69,-352.27 267.26,-347.43 266.31,-354.37"/>
</a>
</g>
</g>
<!-- Node7&#45;&gt;Node6 -->
<g id="edge9_Node000007_Node000006" class="edge">
<title>Node7&#45;&gt;Node6</title>
<g id="a_edge9_Node000007_Node000006"><a xlink:title=" ">
<path fill="none" stroke="#63b8ff" d="M273.94,-322.11C261.2,-323.87 247.84,-325.71 235.01,-327.48"/>
<polygon fill="#63b8ff" stroke="#63b8ff" points="274.56,-325.56 283.99,-320.73 273.6,-318.63 274.56,-325.56"/>
</a>
</g>
</g>
<!-- Node9 -->
<g id="Node000009" class="node">
<title>Node9</title>
<g id="a_Node000009"><a xlink:href="namespacem__riemann__solvers.html#a8d00c5352ee6b6f1628cde6d34ad5e08" target="_top" xlink:title="Dispatch to the subroutines that are utilized to compute the Riemann problem solution....">
<polygon fill="white" stroke="#666666" points="400.5,-277 281.5,-277 281.5,-247 400.5,-247 400.5,-277"/>
<text text-anchor="start" x="289.5" y="-265" font-family="Helvetica,sans-Serif" font-size="10.00">m_riemann_solvers::</text>
<text text-anchor="middle" x="341" y="-254" font-family="Helvetica,sans-Serif" font-size="10.00">s_riemann_solver</text>
</a>
</g>
</g>
<!-- Node8&#45;&gt;Node9 -->
<g id="edge11_Node000008_Node000009" class="edge">
<title>Node8&#45;&gt;Node9</title>
<g id="a_edge11_Node000008_Node000009"><a xlink:title=" ">
<path fill="none" stroke="#63b8ff" d="M430.81,-262C420.67,-262 410.38,-262 400.58,-262"/>
<polygon fill="#63b8ff" stroke="#63b8ff" points="430.88,-265.5 440.88,-262 430.88,-258.5 430.88,-265.5"/>
</a>
</g>
</g>
<!-- Node10&#45;&gt;Node4 -->
<g id="edge13_Node000010_Node000004" class="edge">
<title>Node10&#45;&gt;Node4</title>
<g id="a_edge13_Node000010_Node000004"><a xlink:title=" ">
<path fill="none" stroke="#63b8ff" d="M611.57,-316.16C594.84,-315.98 577.41,-315.78 561.71,-315.61"/>
<polygon fill="#63b8ff" stroke="#63b8ff" points="611.84,-319.67 621.88,-316.28 611.92,-312.67 611.84,-319.67"/>
</a>
</g>
</g>
<!-- Node10&#45;&gt;Node10 -->
<g id="edge14_Node000010_Node000010" class="edge">
<title>Node10&#45;&gt;Node10</title>
<g id="a_edge14_Node000010_Node000010"><a xlink:title=" ">
<path fill="none" stroke="#63b8ff" d="M719.69,-334.95C718.77,-340.32 708.04,-344.5 687.5,-344.5 656.93,-344.5 648.09,-335.23 660.99,-326.58"/>
<polygon fill="#63b8ff" stroke="#63b8ff" points="722.52,-332.89 714.01,-326.58 716.73,-336.82 722.52,-332.89"/>
</a>
</g>
</g>
<!-- Node12 -->
<g id="Node000012" class="node">
<title>Node12</title>
<g id="a_Node000012"><a xlink:href="namespacem__checker.html#a214e05cb46bc7c3e0dbe55fdc433c072" target="_top" xlink:title="Checks compatibility of parameters in the input file. Used by the simulation stage.">
<polygon fill="white" stroke="#666666" points="563.5,-205 449.5,-205 449.5,-175 563.5,-175 563.5,-205"/>
<text text-anchor="start" x="457.5" y="-193" font-family="Helvetica,sans-Serif" font-size="10.00">m_checker::s_check</text>
<text text-anchor="middle" x="506.5" y="-182" font-family="Helvetica,sans-Serif" font-size="10.00">_inputs</text>
</a>
</g>
</g>
<!-- Node11&#45;&gt;Node12 -->
<g id="edge16_Node000011_Node000012" class="edge">
<title>Node11&#45;&gt;Node12</title>
<g id="a_edge16_Node000011_Node000012"><a xlink:title=" ">
<path fill="none" stroke="#63b8ff" d="M597.79,-204.63C586.16,-202.74 574.51,-200.86 563.64,-199.09"/>
<polygon fill="#63b8ff" stroke="#63b8ff" points="597.56,-208.14 607.99,-206.28 598.68,-201.23 597.56,-208.14"/>
</a>
</g>
</g>
<!-- Node13 -->
<g id="Node000013" class="node">
<title>Node13</title>
<g id="a_Node000013"><a xlink:href="namespacem__start__up.html#ad26e747c87bb6bcf4c9d6baa21d044c1" target="_top" xlink:title="Validate that all user&#45;provided inputs form a consistent simulation configuration.">
<polygon fill="white" stroke="#666666" points="399,-190 283,-190 283,-160 399,-160 399,-190"/>
<text text-anchor="start" x="291" y="-178" font-family="Helvetica,sans-Serif" font-size="10.00">m_start_up::s_check</text>
<text text-anchor="middle" x="341" y="-167" font-family="Helvetica,sans-Serif" font-size="10.00">_input_file</text>
</a>
</g>
</g>
<!-- Node12&#45;&gt;Node13 -->
<g id="edge17_Node000012_Node000013" class="edge">
<title>Node12&#45;&gt;Node13</title>
<g id="a_edge17_Node000012_Node000013"><a xlink:title=" ">
<path fill="none" stroke="#63b8ff" d="M439.22,-183.92C425.96,-182.7 412.13,-181.43 399.2,-180.25"/>
<polygon fill="#63b8ff" stroke="#63b8ff" points="438.95,-187.41 449.23,-184.84 439.59,-180.44 438.95,-187.41"/>
</a>
</g>
</g>
<!-- Node14 -->
<g id="Node000014" class="node">
<title>Node14</title>
<g id="a_Node000014"><a xlink:href="namespacem__start__up.html#ab64542f13c680e17ce8879c77c65c0e0" target="_top" xlink:title="Set up the MPI execution environment, bind GPUs, and decompose the computational domain.">
<polygon fill="white" stroke="#666666" points="230,-186 100,-186 100,-156 230,-156 230,-186"/>
<text text-anchor="start" x="108" y="-174" font-family="Helvetica,sans-Serif" font-size="10.00">m_start_up::s_initialize</text>
<text text-anchor="middle" x="165" y="-163" font-family="Helvetica,sans-Serif" font-size="10.00">_mpi_domain</text>
</a>
</g>
</g>
<!-- Node13&#45;&gt;Node14 -->
<g id="edge18_Node000013_Node000014" class="edge">
<title>Node13&#45;&gt;Node14</title>
<g id="a_edge18_Node000013_Node000014"><a xlink:title=" ">
<path fill="none" stroke="#63b8ff" d="M272.51,-173.45C258.54,-173.13 243.85,-172.79 230.01,-172.47"/>
<polygon fill="#63b8ff" stroke="#63b8ff" points="272.47,-176.95 282.54,-173.68 272.63,-169.95 272.47,-176.95"/>
</a>
</g>
</g>
<!-- Node15 -->
<g id="Node000015" class="node">
<title>Node15</title>
<g id="a_Node000015"><a xlink:href="p__main_8fpp_8f90.html#aeec10ee8e2940c953967da3e374e1579" target="_top" xlink:title="Quasi&#45;conservative, shock&#45; and interface&#45; capturing finite&#45;volume scheme for the multicomponent Navie...">
<polygon fill="white" stroke="#666666" points="53,-151.5 0,-151.5 0,-132.5 53,-132.5 53,-151.5"/>
<text text-anchor="middle" x="26.5" y="-139.5" font-family="Helvetica,sans-Serif" font-size="10.00">p_main</text>
</a>
</g>
</g>
<!-- Node14&#45;&gt;Node15 -->
<g id="edge19_Node000014_Node000015" class="edge">
<title>Node14&#45;&gt;Node15</title>
<g id="a_edge19_Node000014_Node000015"><a xlink:title=" ">
<path fill="none" stroke="#63b8ff" d="M89.71,-155.22C76.62,-152.44 63.83,-149.72 53.29,-147.48"/>
<polygon fill="#63b8ff" stroke="#63b8ff" points="89.24,-158.69 99.75,-157.35 90.69,-151.85 89.24,-158.69"/>
</a>
</g>
</g>
<!-- Node17 -->
<g id="Node000017" class="node">
<title>Node17</title>
<g id="a_Node000017"><a xlink:href="namespacem__start__up.html#a1fb7a3f9d412acd2a9cbcfe8b45006dd" target="_top" xlink:title="Initialize all simulation sub&#45;modules in the required dependency order.">
<polygon fill="white" stroke="#666666" points="571.5,-134 441.5,-134 441.5,-104 571.5,-104 571.5,-134"/>
<text text-anchor="start" x="449.5" y="-122" font-family="Helvetica,sans-Serif" font-size="10.00">m_start_up::s_initialize</text>
<text text-anchor="middle" x="506.5" y="-111" font-family="Helvetica,sans-Serif" font-size="10.00">_modules</text>
</a>
</g>
</g>
<!-- Node16&#45;&gt;Node17 -->
<g id="edge21_Node000016_Node000017" class="edge">
<title>Node16&#45;&gt;Node17</title>
<g id="a_edge21_Node000016_Node000017"><a xlink:title=" ">
<path fill="none" stroke="#63b8ff" d="M625.05,-153.15C603.59,-146.92 579.74,-139.99 559.16,-134.01"/>
<polygon fill="#63b8ff" stroke="#63b8ff" points="624.15,-156.53 634.73,-155.96 626.1,-149.81 624.15,-156.53"/>
</a>
</g>
</g>
<!-- Node17&#45;&gt;Node15 -->
<g id="edge22_Node000017_Node000015" class="edge">
<title>Node17&#45;&gt;Node15</title>
<g id="a_edge22_Node000017_Node000015"><a xlink:title=" ">
<path fill="none" stroke="#63b8ff" d="M430.75,-122.6C321.48,-127.85 123.53,-137.38 53.17,-140.77"/>
<polygon fill="#63b8ff" stroke="#63b8ff" points="431.21,-126.08 441.03,-122.1 430.88,-119.09 431.21,-126.08"/>
</a>
</g>
</g>
<!-- Node18&#45;&gt;Node17 -->
<g id="edge24_Node000018_Node000017" class="edge">
<title>Node18&#45;&gt;Node17</title>
<g id="a_edge24_Node000018_Node000017"><a xlink:title=" ">
<path fill="none" stroke="#63b8ff" d="M615.51,-117.79C601.05,-117.95 585.92,-118.12 571.71,-118.28"/>
<polygon fill="#63b8ff" stroke="#63b8ff" points="615.94,-121.29 625.9,-117.68 615.86,-114.29 615.94,-121.29"/>
</a>
</g>
</g>
<!-- Node19&#45;&gt;Node17 -->
<g id="edge26_Node000019_Node000017" class="edge">
<title>Node19&#45;&gt;Node17</title>
<g id="a_edge26_Node000019_Node000017"><a xlink:title=" ">
<path fill="none" stroke="#63b8ff" d="M628.96,-81C605.29,-88.41 578.19,-96.88 555.6,-103.95"/>
<polygon fill="#63b8ff" stroke="#63b8ff" points="630.03,-84.33 638.53,-78.01 627.94,-77.65 630.03,-84.33"/>
</a>
</g>
</g>
<!-- Node21 -->
<g id="Node000021" class="node">
<title>Node21</title>
<g id="a_Node000021"><a xlink:href="namespacem__compute__levelset.html#a0e6b4900aa4a5fb7b36c59907f76bf54" target="_top" xlink:title="Dispatch level&#45;set distance and normal computations for all ghost points based on patch geometry type...">
<polygon fill="white" stroke="#666666" points="566,-30 447,-30 447,0 566,0 566,-30"/>
<text text-anchor="start" x="455" y="-18" font-family="Helvetica,sans-Serif" font-size="10.00">m_compute_levelset</text>
<text text-anchor="middle" x="506.5" y="-7" font-family="Helvetica,sans-Serif" font-size="10.00">::s_apply_levelset</text>
</a>
</g>
</g>
<!-- Node20&#45;&gt;Node21 -->
<g id="edge28_Node000020_Node000021" class="edge">
<title>Node20&#45;&gt;Node21</title>
<g id="a_edge28_Node000020_Node000021"><a xlink:title=" ">
<path fill="none" stroke="#63b8ff" d="M617.51,-15C600.59,-15 582.63,-15 566.24,-15"/>
<polygon fill="#63b8ff" stroke="#63b8ff" points="617.89,-18.5 627.89,-15 617.89,-11.5 617.89,-18.5"/>
</a>
</g>
</g>
</g>
</svg>

<g id="navigator" transform="translate(0 0)" fill="#404254">
  <rect fill="#f2f5e9" fill-opacity="0.5" stroke="#606060" stroke-width=".5" x="0" y="0" width="60" height="60"/>
  <use id="zoomplus" xlink:href="#zoomPlus" x="17" y="9" onmousedown="handleZoom(evt,'in')"/>
  <use id="zoomminus" xlink:href="#zoomMin" x="42" y="9" onmousedown="handleZoom(evt,'out')"/>
  <use id="reset" xlink:href="#resetDef" x="30" y="36" onmousedown="handleReset()"/>
   <use id="arrowup" xlink:href="#arrowUp" x="0" y="0" onmousedown="handlePan(0,-1)"/>
  <use id="arrowright" xlink:href="#arrowRight" x="0" y="0" onmousedown="handlePan(1,0)"/>
  <use id="arrowdown" xlink:href="#arrowDown" x="0" y="0" onmousedown="handlePan(0,1)"/>
  <use id="arrowleft" xlink:href="#arrowLeft" x="0" y="0" onmousedown="handlePan(-1,0)"/>
</g>
<svg viewBox="0 0 15 15" width="100%" height="30px" preserveAspectRatio="xMaxYMin meet">
 <g id="arrow_out" transform="scale(0.3 0.3)">
  <a xlink:href="namespacem__helper__basic_af1b06a05daa43f724ac3b0ff2f97db14_icgraph_org.svg" target="_base">
   <rect id="button" ry="5" rx="5" y="6" x="6" height="38" width="38"
        fill="#f2f5e9" fill-opacity="0.5" stroke="#606060" stroke-width="1.0"/>
   <path id="arrow"
     d="M 11.500037,31.436501 C 11.940474,20.09759 22.043105,11.32322 32.158766,21.979434 L 37.068811,17.246167 C 37.068811,17.246167 37.088388,32 37.088388,32 L 22.160133,31.978069 C 22.160133,31.978069 26.997745,27.140456 26.997745,27.140456 C 18.528582,18.264221 13.291696,25.230495 11.500037,31.436501 z"
     style="fill:#404040;"/>
  </a>
 </g>
</svg>

<style type='text/css'>
<![CDATA[
[data-mouse-over-selected='false'] { opacity: 0.7; }
[data-mouse-over-selected='true']  { opacity: 1.0; }
]]>
</style>
<script type="application/ecmascript"><![CDATA[
document.addEventListener('DOMContentLoaded', (event) => {
  highlightEdges();
  highlightAdjacentNodes();
});
]]></script>
</svg>
