<?xml version="1.0" encoding="UTF-8" standalone="no"?>
<!DOCTYPE svg PUBLIC "-//W3C//DTD SVG 1.1//EN"
 "http://www.w3.org/Graphics/SVG/1.1/DTD/svg11.dtd">
<!-- Generated by graphviz version 2.43.0 (0)
 -->
<!-- Title: m_data_output::s_report_icfl_violation Pages: 1 -->
<svg width="1282pt" height="146pt"
 viewBox="0.00 0.00 1282.00 146.00" xmlns="http://www.w3.org/2000/svg" xmlns:xlink="http://www.w3.org/1999/xlink">
<g id="graph0" class="graph" transform="scale(1 1) rotate(0) translate(4 142)">
<title>m_data_output::s_report_icfl_violation</title>
<!-- Node1 -->
<g id="Node000001" class="node">
<title>Node1</title>
<g id="a_Node000001"><a xlink:title="Locate the grid cell responsible for an ICFL violation on this rank and report its state plus the nea...">
<polygon fill="#999999" stroke="#666666" points="136,-84 0,-84 0,-54 136,-54 136,-84"/>
<text text-anchor="start" x="8" y="-72" font-family="Helvetica,sans-Serif" font-size="10.00">m_data_output::s_report</text>
<text text-anchor="middle" x="68" y="-61" font-family="Helvetica,sans-Serif" font-size="10.00">_icfl_violation</text>
</a>
</g>
</g>
<!-- Node2 -->
<g id="Node000002" class="node">
<title>Node2</title>
<g id="a_Node000002"><a xlink:href="namespacem__helper__basic.html#a3f0eae73a833f30924d4b2665a13a429" target="_top" xlink:title="Check if two floating point numbers of wp are within tolerance.">
<polygon fill="white" stroke="#666666" points="318,-132 176,-132 176,-102 318,-102 318,-132"/>
<text text-anchor="start" x="184" y="-120" font-family="Helvetica,sans-Serif" font-size="10.00">m_helper_basic::f_approx</text>
<text text-anchor="middle" x="247" y="-109" font-family="Helvetica,sans-Serif" font-size="10.00">_equal</text>
</a>
</g>
</g>
<!-- Node1&#45;&gt;Node2 -->
<g id="edge1_Node000001_Node000002" class="edge">
<title>Node1&#45;&gt;Node2</title>
<g id="a_edge1_Node000001_Node000002"><a xlink:title=" ">
<path fill="none" stroke="#63b8ff" d="M124.52,-84.06C142.39,-88.9 162.36,-94.32 180.87,-99.34"/>
<polygon fill="#63b8ff" stroke="#63b8ff" points="180.11,-102.76 190.68,-102 181.94,-96 180.11,-102.76"/>
</a>
</g>
</g>
<!-- Node3 -->
<g id="Node000003" class="node">
<title>Node3</title>
<g id="a_Node000003"><a xlink:href="namespacem__sim__helpers.html#a287f4e373bb1a0881dd583b31651dc37" target="_top" xlink:title="Computes the mixture coefficients, velocity and pressure of one cell.">
<polygon fill="white" stroke="#666666" points="322,-84 172,-84 172,-54 322,-54 322,-84"/>
<text text-anchor="start" x="180" y="-72" font-family="Helvetica,sans-Serif" font-size="10.00">m_sim_helpers::s_compute</text>
<text text-anchor="middle" x="247" y="-61" font-family="Helvetica,sans-Serif" font-size="10.00">_cell_state</text>
</a>
</g>
</g>
<!-- Node1&#45;&gt;Node3 -->
<g id="edge2_Node000001_Node000003" class="edge">
<title>Node1&#45;&gt;Node3</title>
<g id="a_edge2_Node000001_Node000003"><a xlink:title=" ">
<path fill="none" stroke="#63b8ff" d="M136.17,-69C144.53,-69 153.17,-69 161.75,-69"/>
<polygon fill="#63b8ff" stroke="#63b8ff" points="161.78,-72.5 171.78,-69 161.78,-65.5 161.78,-72.5"/>
</a>
</g>
</g>
<!-- Node11 -->
<g id="Node000011" class="node">
<title>Node11</title>
<g id="a_Node000011"><a xlink:href="namespacem__sim__helpers.html#a26041c29b2b8590a289c06b6a50a152a" target="_top" xlink:title="Computes stability criterion for a specified dt.">
<polygon fill="white" stroke="#666666" points="322,-33 172,-33 172,-3 322,-3 322,-33"/>
<text text-anchor="start" x="180" y="-21" font-family="Helvetica,sans-Serif" font-size="10.00">m_sim_helpers::s_compute</text>
<text text-anchor="middle" x="247" y="-10" font-family="Helvetica,sans-Serif" font-size="10.00">_stability_from_dt</text>
</a>
</g>
</g>
<!-- Node1&#45;&gt;Node11 -->
<g id="edge10_Node000001_Node000011" class="edge">
<title>Node1&#45;&gt;Node11</title>
<g id="a_edge10_Node000001_Node000011"><a xlink:title=" ">
<path fill="none" stroke="#63b8ff" d="M121.15,-53.97C140.87,-48.29 163.5,-41.77 184.03,-35.86"/>
<polygon fill="#63b8ff" stroke="#63b8ff" points="185.28,-39.14 193.92,-33.01 183.34,-32.41 185.28,-39.14"/>
</a>
</g>
</g>
<!-- Node4 -->
<g id="Node000004" class="node">
<title>Node4</title>
<g id="a_Node000004"><a xlink:href="namespacem__variables__conversion.html#a21906a4c29bbb1187212feb969c00502" target="_top" xlink:title="Compute partial densities and volume fractions.">
<polygon fill="white" stroke="#666666" points="519,-138 358,-138 358,-108 519,-108 519,-138"/>
<text text-anchor="start" x="366" y="-126" font-family="Helvetica,sans-Serif" font-size="10.00">m_variables_conversion</text>
<text text-anchor="middle" x="438.5" y="-115" font-family="Helvetica,sans-Serif" font-size="10.00">::s_compute_species_fraction</text>
</a>
</g>
</g>
<!-- Node3&#45;&gt;Node4 -->
<g id="edge3_Node000003_Node000004" class="edge">
<title>Node3&#45;&gt;Node4</title>
<g id="a_edge3_Node000003_Node000004"><a xlink:title=" ">
<path fill="none" stroke="#63b8ff" d="M300.79,-84.04C323.79,-90.6 350.93,-98.33 374.94,-105.17"/>
<polygon fill="#63b8ff" stroke="#63b8ff" points="374.09,-108.57 384.67,-107.95 376.01,-101.84 374.09,-108.57"/>
</a>
</g>
</g>
<!-- Node5 -->
<g id="Node000005" class="node">
<title>Node5</title>
<g id="a_Node000005"><a xlink:href="namespacem__variables__conversion.html#ac00dd41bc1a03bc4ee830cfa4fc7f2e6" target="_top" xlink:title="Host&#45; and device&#45;callable conversion kernel for species and mixture variables.">
<polygon fill="white" stroke="#666666" points="511.5,-89.5 365.5,-89.5 365.5,-48.5 511.5,-48.5 511.5,-89.5"/>
<text text-anchor="start" x="373.5" y="-77.5" font-family="Helvetica,sans-Serif" font-size="10.00">m_variables_conversion</text>
<text text-anchor="start" x="373.5" y="-66.5" font-family="Helvetica,sans-Serif" font-size="10.00">::s_convert_species_to</text>
<text text-anchor="middle" x="438.5" y="-55.5" font-family="Helvetica,sans-Serif" font-size="10.00">_mixture_variables_kernel</text>
</a>
</g>
</g>
<!-- Node3&#45;&gt;Node5 -->
<g id="edge4_Node000003_Node000005" class="edge">
<title>Node3&#45;&gt;Node5</title>
<g id="a_edge4_Node000003_Node000005"><a xlink:title=" ">
<path fill="none" stroke="#63b8ff" d="M322.08,-69C332.97,-69 344.24,-69 355.28,-69"/>
<polygon fill="#63b8ff" stroke="#63b8ff" points="355.34,-72.5 365.34,-69 355.34,-65.5 355.34,-72.5"/>
</a>
</g>
</g>
<!-- Node6 -->
<g id="Node000006" class="node">
<title>Node6</title>
<g id="a_Node000006"><a xlink:href="namespacem__eos.html#acfa4db355561147237117f73a58e8c15" target="_top" xlink:title="Mixture coefficients of one state. Under bubbles_euler with num_fluids == 1 the sole advection slot a...">
<polygon fill="white" stroke="#666666" points="707,-84 555,-84 555,-54 707,-54 707,-84"/>
<text text-anchor="start" x="563" y="-72" font-family="Helvetica,sans-Serif" font-size="10.00">m_eos::s_compute_mixture</text>
<text text-anchor="middle" x="631" y="-61" font-family="Helvetica,sans-Serif" font-size="10.00">_coefficients</text>
</a>
</g>
</g>
<!-- Node5&#45;&gt;Node6 -->
<g id="edge5_Node000005_Node000006" class="edge">
<title>Node5&#45;&gt;Node6</title>
<g id="a_edge5_Node000005_Node000006"><a xlink:title=" ">
<path fill="none" stroke="#63b8ff" d="M511.52,-69C522.33,-69 533.56,-69 544.62,-69"/>
<polygon fill="#63b8ff" stroke="#63b8ff" points="544.71,-72.5 554.71,-69 544.71,-65.5 544.71,-72.5"/>
</a>
</g>
</g>
<!-- Node7 -->
<g id="Node000007" class="node">
<title>Node7</title>
<g id="a_Node000007"><a xlink:href="namespacem__eos.html#a4c55300199ee4b80bfeb5446427c64ee" target="_top" xlink:title="Coefficients of phase i at its own density alpha_rho/alpha: the per&#45;cell dispatch when some fluid&#39;s E...">
<polygon fill="white" stroke="#666666" points="899,-78.5 743,-78.5 743,-59.5 899,-59.5 899,-78.5"/>
<text text-anchor="middle" x="821" y="-66.5" font-family="Helvetica,sans-Serif" font-size="10.00">m_eos::s_phase_coefficients</text>
</a>
</g>
</g>
<!-- Node6&#45;&gt;Node7 -->
<g id="edge6_Node000006_Node000007" class="edge">
<title>Node6&#45;&gt;Node7</title>
<g id="a_edge6_Node000006_Node000007"><a xlink:title=" ">
<path fill="none" stroke="#63b8ff" d="M707.11,-69C715.57,-69 724.23,-69 732.82,-69"/>
<polygon fill="#63b8ff" stroke="#63b8ff" points="732.85,-72.5 742.85,-69 732.85,-65.5 732.85,-72.5"/>
</a>
</g>
</g>
<!-- Node8 -->
<g id="Node000008" class="node">
<title>Node8</title>
<g id="a_Node000008"><a xlink:href="namespacem__eos.html#a830442f3aea423d7d72ee1b24c9bf6da" target="_top" xlink:title="Gamma, Pi, dPi/drho and dGamma/drho of fluid i at density rho, the coefficients of rho e = Gamma p + ...">
<polygon fill="white" stroke="#666666" points="1079,-78.5 935,-78.5 935,-59.5 1079,-59.5 1079,-78.5"/>
<text text-anchor="middle" x="1007" y="-66.5" font-family="Helvetica,sans-Serif" font-size="10.00">m_eos::s_eos_coefficients</text>
</a>
</g>
</g>
<!-- Node7&#45;&gt;Node8 -->
<g id="edge7_Node000007_Node000008" class="edge">
<title>Node7&#45;&gt;Node8</title>
<g id="a_edge7_Node000007_Node000008"><a xlink:title=" ">
<path fill="none" stroke="#63b8ff" d="M899.23,-69C907.62,-69 916.18,-69 924.62,-69"/>
<polygon fill="#63b8ff" stroke="#63b8ff" points="924.83,-72.5 934.83,-69 924.83,-65.5 924.83,-72.5"/>
</a>
</g>
</g>
<!-- Node9 -->
<g id="Node000009" class="node">
<title>Node9</title>
<g id="a_Node000009"><a xlink:href="namespacem__eos.html#a5da99f1cc4fd7f6ac2db8627e460aa98" target="_top" xlink:title="Whether the EOS of fluid i is a family whose coefficients vary with density.">
<polygon fill="white" stroke="#666666" points="1274,-100.5 1115,-100.5 1115,-81.5 1274,-81.5 1274,-100.5"/>
<text text-anchor="middle" x="1194.5" y="-88.5" font-family="Helvetica,sans-Serif" font-size="10.00">m_eos::f_is_state_dependent</text>
</a>
</g>
</g>
<!-- Node8&#45;&gt;Node9 -->
<g id="edge8_Node000008_Node000009" class="edge">
<title>Node8&#45;&gt;Node9</title>
<g id="a_edge8_Node000008_Node000009"><a xlink:title=" ">
<path fill="none" stroke="#63b8ff" d="M1079.19,-77.44C1087.56,-78.44 1096.18,-79.46 1104.75,-80.47"/>
<polygon fill="#63b8ff" stroke="#63b8ff" points="1104.44,-83.96 1114.78,-81.66 1105.26,-77.01 1104.44,-83.96"/>
</a>
</g>
</g>
<!-- Node10 -->
<g id="Node000010" class="node">
<title>Node10</title>
<g id="a_Node000010"><a xlink:href="namespacem__eos.html#a34b2fb4f3d4e7e85d7a87a923e66cf16" target="_top" xlink:title="The reference curve of a state&#45;dependent EOS at rho: p_ref, e_ref, their d/drho, and Gamma_G with its...">
<polygon fill="white" stroke="#666666" points="1250.5,-63 1138.5,-63 1138.5,-33 1250.5,-33 1250.5,-63"/>
<text text-anchor="start" x="1146.5" y="-51" font-family="Helvetica,sans-Serif" font-size="10.00">m_eos::s_reference</text>
<text text-anchor="middle" x="1194.5" y="-40" font-family="Helvetica,sans-Serif" font-size="10.00">_curve</text>
</a>
</g>
</g>
<!-- Node8&#45;&gt;Node10 -->
<g id="edge9_Node000008_Node000010" class="edge">
<title>Node8&#45;&gt;Node10</title>
<g id="a_edge9_Node000008_Node000010"><a xlink:title=" ">
<path fill="none" stroke="#63b8ff" d="M1079.19,-60.94C1095.28,-59.12 1112.29,-57.19 1128.13,-55.4"/>
<polygon fill="#63b8ff" stroke="#63b8ff" points="1128.8,-58.85 1138.35,-54.24 1128.02,-51.89 1128.8,-58.85"/>
</a>
</g>
</g>
<!-- Node12 -->
<g id="Node000012" class="node">
<title>Node12</title>
<g id="a_Node000012"><a xlink:href="namespacem__sim__helpers.html#aa641aecbabcfd37456c476ac6d8549a8" target="_top" xlink:title="Computes the modified dtheta for Fourier filtering in azimuthal direction.">
<polygon fill="white" stroke="#666666" points="513,-30 364,-30 364,0 513,0 513,-30"/>
<text text-anchor="start" x="372" y="-18" font-family="Helvetica,sans-Serif" font-size="10.00">m_sim_helpers::f_compute</text>
<text text-anchor="middle" x="438.5" y="-7" font-family="Helvetica,sans-Serif" font-size="10.00">_filtered_dtheta</text>
</a>
</g>
</g>
<!-- Node11&#45;&gt;Node12 -->
<g id="edge11_Node000011_Node000012" class="edge">
<title>Node11&#45;&gt;Node12</title>
<g id="a_edge11_Node000011_Node000012"><a xlink:title=" ">
<path fill="none" stroke="#63b8ff" d="M322.08,-16.83C332.46,-16.66 343.2,-16.49 353.74,-16.33"/>
<polygon fill="#63b8ff" stroke="#63b8ff" points="353.84,-19.82 363.78,-16.17 353.73,-12.83 353.84,-19.82"/>
</a>
</g>
</g>
</g>
</svg>
