<?xml version="1.0" encoding="UTF-8" standalone="no"?>
<!DOCTYPE svg PUBLIC "-//W3C//DTD SVG 1.1//EN"
 "http://www.w3.org/Graphics/SVG/1.1/DTD/svg11.dtd">
<!-- Generated by graphviz version 2.43.0 (0)
 -->
<!-- Title: m_mpi_common::s_mpi_abort Pages: 1 -->
<!--zoomable 486 -->

<svg id="main" version="1.1" xmlns="http://www.w3.org/2000/svg" xmlns:xlink="http://www.w3.org/1999/xlink" xml:space="preserve" onload="init(evt)">

<style type="text/css"><![CDATA[
.node, .edge {opacity: 0.7;}
.node.selected, .edge.selected {opacity: 1;}
.edge:hover path { stroke: red; }
.edge:hover polygon { stroke: red; fill: red; }
]]></style>

<defs>
  <circle id="rim" cx="0" cy="0" r="7"/>
  <circle id="rim2" cx="0" cy="0" r="3.5"/>
  <g id="zoomPlus">
    <use xlink:href="#rim" fill="#404040"><set attributeName="fill" to="#808080" begin="zoomplus.mouseover" end="zoomplus.mouseout"/></use>
    <path d="M-4,0h8M0,-4v8" fill="none" stroke="white" stroke-width="1.5" pointer-events="none"/>
  </g>
  <g id="zoomMin">
    <use xlink:href="#rim" fill="#404040"><set attributeName="fill" to="#808080" begin="zoomminus.mouseover" end="zoomminus.mouseout"/></use>
    <path d="M-4,0h8" fill="none" stroke="white" stroke-width="1.5" pointer-events="none"/>
  </g>
  <g id="arrowUp" transform="translate(30 24)">
    <use xlink:href="#rim"/>
    <path pointer-events="none" fill="none" stroke="white" stroke-width="1.5" d="M0,-3.0v7 M-2.5,-0.5L0,-3.0L2.5,-0.5"/>
  </g>
  <g id="arrowRight" transform="rotate(90) translate(36 -43)">
    <use xlink:href="#rim"/>
    <path pointer-events="none" fill="none" stroke="white" stroke-width="1.5" d="M0,-3.0v7 M-2.5,-0.5L0,-3.0L2.5,-0.5"/>
  </g>
  <g id="arrowDown" transform="rotate(180) translate(-30 -48)">
    <use xlink:href="#rim"/>
    <path pointer-events="none" fill="none" stroke="white" stroke-width="1.5" d="M0,-3.0v7 M-2.5,-0.5L0,-3.0L2.5,-0.5"/>
  </g>
  <g id="arrowLeft" transform="rotate(270) translate(-36 17)">
    <use xlink:href="#rim"/>
    <path pointer-events="none" fill="none" stroke="white" stroke-width="1.5" d="M0,-3.0v7 M-2.5,-0.5L0,-3.0L2.5,-0.5"/>
  </g>
  <g id="resetDef">
    <use xlink:href="#rim2" fill="#404040"><set attributeName="fill" to="#808080" begin="reset.mouseover" end="reset.mouseout"/></use>
  </g>
</defs>
<script type="application/ecmascript">
var viewWidth = 783;
var viewHeight = 486;
var sectionId = 'dynsection-4';
</script>
<script type="application/ecmascript" xlink:href="svg.min.js"/>
<svg id="graph" class="graph">
<g id="viewport">
<title>m_mpi_common::s_mpi_abort</title>
<!-- Node1 -->
<g id="Node000001" class="node">
<title>Node1</title>
<g id="a_Node000001"><a xlink:title="The subroutine terminates the MPI execution environment.">
<polygon fill="#999999" stroke="#666666" points="775,-246.5 641,-246.5 641,-216.5 775,-216.5 775,-246.5"/>
<text text-anchor="start" x="649" y="-234.5" font-family="Helvetica,sans-Serif" font-size="10.00">m_mpi_common::s_mpi</text>
<text text-anchor="middle" x="708" y="-223.5" font-family="Helvetica,sans-Serif" font-size="10.00">_abort</text>
</a>
</g>
</g>
<!-- Node2 -->
<g id="Node000002" class="node">
<title>Node2</title>
<g id="a_Node000002"><a xlink:href="namespacem__start__up.html#ad26e747c87bb6bcf4c9d6baa21d044c1" target="_top" xlink:title="Validate that all user&#45;provided inputs form a consistent simulation configuration.">
<polygon fill="white" stroke="#666666" points="586,-478.5 470,-478.5 470,-448.5 586,-448.5 586,-478.5"/>
<text text-anchor="start" x="478" y="-466.5" font-family="Helvetica,sans-Serif" font-size="10.00">m_start_up::s_check</text>
<text text-anchor="middle" x="528" y="-455.5" font-family="Helvetica,sans-Serif" font-size="10.00">_input_file</text>
</a>
</g>
</g>
<!-- Node1&#45;&gt;Node2 -->
<g id="edge1_Node000001_Node000002" class="edge">
<title>Node1&#45;&gt;Node2</title>
<g id="a_edge1_Node000001_Node000002"><a xlink:title=" ">
<path fill="none" stroke="#63b8ff" d="M701.6,-256.33C690.88,-299.81 662.75,-389.82 605,-439.5 599.44,-444.28 592.93,-448.11 586.09,-451.18"/>
<polygon fill="#63b8ff" stroke="#63b8ff" points="705.02,-257.11 703.91,-246.57 698.2,-255.5 705.02,-257.11"/>
</a>
</g>
</g>
<!-- Node5 -->
<g id="Node000005" class="node">
<title>Node5</title>
<g id="a_Node000005"><a xlink:href="namespacem__particle__bed.html#abf8cc422bcc55341ece9b6aefa82b362" target="_top" xlink:title="Generate all particle beds and fill particle_bed_ibs. Called on all ranks before s_reduce_ib_patch_ar...">
<polygon fill="white" stroke="#666666" points="415,-237.5 263,-237.5 263,-207.5 415,-207.5 415,-237.5"/>
<text text-anchor="start" x="271" y="-225.5" font-family="Helvetica,sans-Serif" font-size="10.00">m_particle_bed::s_generate</text>
<text text-anchor="middle" x="339" y="-214.5" font-family="Helvetica,sans-Serif" font-size="10.00">_particle_beds</text>
</a>
</g>
</g>
<!-- Node1&#45;&gt;Node5 -->
<g id="edge4_Node000001_Node000005" class="edge">
<title>Node1&#45;&gt;Node5</title>
<g id="a_edge4_Node000001_Node000005"><a xlink:title=" ">
<path fill="none" stroke="#63b8ff" d="M630.74,-233.98C622.06,-234.19 613.34,-234.37 605,-234.5 536.56,-235.5 519.35,-238.18 451,-234.5 439.39,-233.87 427.12,-232.88 415.14,-231.73"/>
<polygon fill="#63b8ff" stroke="#63b8ff" points="630.98,-237.48 640.89,-233.72 630.8,-230.48 630.98,-237.48"/>
</a>
</g>
</g>
<!-- Node7 -->
<g id="Node000007" class="node">
<title>Node7</title>
<g id="a_Node000007"><a xlink:href="namespacem__mpi__common.html#afe54fe25c12eda7afe195fbf0fa166fc" target="_top" xlink:title="Decompose the computational domain among processors by balancing cells per rank in each coordinate di...">
<polygon fill="white" stroke="#666666" points="605,-382 451,-382 451,-341 605,-341 605,-382"/>
<text text-anchor="start" x="459" y="-370" font-family="Helvetica,sans-Serif" font-size="10.00">m_mpi_common::s_mpi</text>
<text text-anchor="start" x="459" y="-359" font-family="Helvetica,sans-Serif" font-size="10.00">_decompose_computational</text>
<text text-anchor="middle" x="528" y="-348" font-family="Helvetica,sans-Serif" font-size="10.00">_domain</text>
</a>
</g>
</g>
<!-- Node1&#45;&gt;Node7 -->
<g id="edge7_Node000001_Node000007" class="edge">
<title>Node1&#45;&gt;Node7</title>
<g id="a_edge7_Node000001_Node000007"><a xlink:title=" ">
<path fill="none" stroke="#63b8ff" d="M688.66,-254.58C669.75,-277.09 638.39,-310.97 605,-332.5 600.25,-335.56 595.13,-338.37 589.87,-340.93"/>
<polygon fill="#63b8ff" stroke="#63b8ff" points="691.38,-256.79 695.04,-246.85 685.98,-252.34 691.38,-256.79"/>
</a>
</g>
</g>
<!-- Node8 -->
<g id="Node000008" class="node">
<title>Node8</title>
<g id="a_Node000008"><a xlink:href="namespacem__mpi__common.html#a8c037ba2780709c25f5f904e47641479" target="_top" xlink:title="The goal of this procedure is to populate the buffers of the cell&#45;average conservative variables by c...">
<polygon fill="white" stroke="#666666" points="595,-323 461,-323 461,-282 595,-282 595,-323"/>
<text text-anchor="start" x="469" y="-311" font-family="Helvetica,sans-Serif" font-size="10.00">m_mpi_common::s_mpi</text>
<text text-anchor="start" x="469" y="-300" font-family="Helvetica,sans-Serif" font-size="10.00">_sendrecv_variables</text>
<text text-anchor="middle" x="528" y="-289" font-family="Helvetica,sans-Serif" font-size="10.00">_buffers</text>
</a>
</g>
</g>
<!-- Node1&#45;&gt;Node8 -->
<g id="edge8_Node000001_Node000008" class="edge">
<title>Node1&#45;&gt;Node8</title>
<g id="a_edge8_Node000001_Node000008"><a xlink:title=" ">
<path fill="none" stroke="#63b8ff" d="M659.84,-250.31C635.42,-260.05 605.56,-271.96 580.54,-281.94"/>
<polygon fill="#63b8ff" stroke="#63b8ff" points="661.26,-253.51 669.25,-246.55 658.67,-247.01 661.26,-253.51"/>
</a>
</g>
</g>
<!-- Node9 -->
<g id="Node000009" class="node">
<title>Node9</title>
<g id="a_Node000009"><a xlink:href="namespacem__start__up.html#ae28835629de9baa7fd546672a0add0e5" target="_top" xlink:title="Advance the simulation by one time step, handling CFL&#45;based dt and time&#45;stepper dispatch.">
<polygon fill="white" stroke="#666666" points="221.5,-105.5 94.5,-105.5 94.5,-75.5 221.5,-75.5 221.5,-105.5"/>
<text text-anchor="start" x="102.5" y="-93.5" font-family="Helvetica,sans-Serif" font-size="10.00">m_start_up::s_perform</text>
<text text-anchor="middle" x="158" y="-82.5" font-family="Helvetica,sans-Serif" font-size="10.00">_time_step</text>
</a>
</g>
</g>
<!-- Node1&#45;&gt;Node9 -->
<g id="edge9_Node000001_Node000009" class="edge">
<title>Node1&#45;&gt;Node9</title>
<g id="a_edge9_Node000001_Node000009"><a xlink:title=" ">
<path fill="none" stroke="#63b8ff" d="M697.61,-206.81C683.37,-173.33 652.79,-114.91 605,-90.5 477.43,-25.33 301.32,-54.35 213.45,-75.46"/>
<polygon fill="#63b8ff" stroke="#63b8ff" points="694.48,-208.4 701.51,-216.33 700.96,-205.75 694.48,-208.4"/>
</a>
</g>
</g>
<!-- Node10 -->
<g id="Node000010" class="node">
<title>Node10</title>
<g id="a_Node000010"><a xlink:href="namespacem__mpi__common.html#a4d03f5fc95657b6bec1f89221295b0cc" target="_top" xlink:title="Print a case file error with the prohibited condition and message, then abort execution.">
<polygon fill="white" stroke="#666666" points="604,-225.5 452,-225.5 452,-195.5 604,-195.5 604,-225.5"/>
<text text-anchor="start" x="460" y="-213.5" font-family="Helvetica,sans-Serif" font-size="10.00">m_mpi_common::s_prohibit</text>
<text text-anchor="middle" x="528" y="-202.5" font-family="Helvetica,sans-Serif" font-size="10.00">_abort</text>
</a>
</g>
</g>
<!-- Node1&#45;&gt;Node10 -->
<g id="edge11_Node000001_Node000010" class="edge">
<title>Node1&#45;&gt;Node10</title>
<g id="a_edge11_Node000001_Node000010"><a xlink:title=" ">
<path fill="none" stroke="#63b8ff" d="M631.04,-222.53C622.15,-221.49 613.09,-220.42 604.22,-219.37"/>
<polygon fill="#63b8ff" stroke="#63b8ff" points="630.63,-226.01 640.97,-223.71 631.45,-219.06 630.63,-226.01"/>
</a>
</g>
</g>
<!-- Node11 -->
<g id="Node000011" class="node">
<title>Node11</title>
<g id="a_Node000011"><a xlink:href="namespacem__start__up.html#aca5460fc186e7b82ea78484ae98c74a4" target="_top" xlink:title="Verify the input file exists and read it.">
<polygon fill="white" stroke="#666666" points="583,-430.5 473,-430.5 473,-400.5 583,-400.5 583,-430.5"/>
<text text-anchor="start" x="481" y="-418.5" font-family="Helvetica,sans-Serif" font-size="10.00">m_start_up::s_read</text>
<text text-anchor="middle" x="528" y="-407.5" font-family="Helvetica,sans-Serif" font-size="10.00">_input_file</text>
</a>
</g>
</g>
<!-- Node1&#45;&gt;Node11 -->
<g id="edge12_Node000001_Node000011" class="edge">
<title>Node1&#45;&gt;Node11</title>
<g id="a_edge12_Node000001_Node000011"><a xlink:title=" ">
<path fill="none" stroke="#63b8ff" d="M697.64,-256.29C683.11,-291.46 651.86,-355.54 605,-391.5 598.52,-396.47 591,-400.42 583.24,-403.56"/>
<polygon fill="#63b8ff" stroke="#63b8ff" points="700.98,-257.36 701.45,-246.78 694.48,-254.76 700.98,-257.36"/>
</a>
</g>
</g>
<!-- Node12 -->
<g id="Node000012" class="node">
<title>Node12</title>
<g id="a_Node000012"><a xlink:href="namespacem__start__up.html#a3226ddf0c64cff078579641fda52781d" target="_top" xlink:title="Read parallel initial condition and grid data files via MPI I/O.">
<polygon fill="white" stroke="#666666" points="583.5,-177.5 472.5,-177.5 472.5,-147.5 583.5,-147.5 583.5,-177.5"/>
<text text-anchor="start" x="480.5" y="-165.5" font-family="Helvetica,sans-Serif" font-size="10.00">m_start_up::s_read</text>
<text text-anchor="middle" x="528" y="-154.5" font-family="Helvetica,sans-Serif" font-size="10.00">_parallel_data_files</text>
</a>
</g>
</g>
<!-- Node1&#45;&gt;Node12 -->
<g id="edge14_Node000001_Node000012" class="edge">
<title>Node1&#45;&gt;Node12</title>
<g id="a_edge14_Node000001_Node000012"><a xlink:title=" ">
<path fill="none" stroke="#63b8ff" d="M665.94,-212.15C647.5,-203.79 625.36,-194.17 605,-186.5 596.84,-183.42 588.1,-180.4 579.55,-177.61"/>
<polygon fill="#63b8ff" stroke="#63b8ff" points="664.67,-215.42 675.22,-216.4 667.58,-209.05 664.67,-215.42"/>
</a>
</g>
</g>
<!-- Node14 -->
<g id="Node000014" class="node">
<title>Node14</title>
<g id="a_Node000014"><a xlink:href="namespacem__start__up.html#a1bf604b2afd7b81737153114d92e7c80" target="_top" xlink:title="Read serial initial condition and grid data files and compute cell&#45;width distributions.">
<polygon fill="white" stroke="#666666" points="583,-129.5 473,-129.5 473,-99.5 583,-99.5 583,-129.5"/>
<text text-anchor="start" x="481" y="-117.5" font-family="Helvetica,sans-Serif" font-size="10.00">m_start_up::s_read</text>
<text text-anchor="middle" x="528" y="-106.5" font-family="Helvetica,sans-Serif" font-size="10.00">_serial_data_files</text>
</a>
</g>
</g>
<!-- Node1&#45;&gt;Node14 -->
<g id="edge17_Node000001_Node000014" class="edge">
<title>Node1&#45;&gt;Node14</title>
<g id="a_edge17_Node000001_Node000014"><a xlink:title=" ">
<path fill="none" stroke="#63b8ff" d="M687.64,-208.93C668.56,-187.98 637.59,-157.27 605,-138.5 598.29,-134.63 590.87,-131.3 583.39,-128.47"/>
<polygon fill="#63b8ff" stroke="#63b8ff" points="685.08,-211.32 694.36,-216.44 690.3,-206.65 685.08,-211.32"/>
</a>
</g>
</g>
<!-- Node15 -->
<g id="Node000015" class="node">
<title>Node15</title>
<g id="a_Node000015"><a xlink:href="namespacem__start__up.html#a47ade6ffcd98aafcccf10910f626142d" target="_top" xlink:title="Save conservative variable data to disk at the current time step.">
<polygon fill="white" stroke="#666666" points="227,-48 89,-48 89,-29 227,-29 227,-48"/>
<text text-anchor="middle" x="158" y="-36" font-family="Helvetica,sans-Serif" font-size="10.00">m_start_up::s_save_data</text>
</a>
</g>
</g>
<!-- Node1&#45;&gt;Node15 -->
<g id="edge19_Node000001_Node000015" class="edge">
<title>Node1&#45;&gt;Node15</title>
<g id="a_edge19_Node000001_Node000015"><a xlink:title=" ">
<path fill="none" stroke="#63b8ff" d="M701.5,-206.57C690.89,-165.25 663.32,-83.64 605,-48.5 470.84,32.36 270.29,-8.3 191.98,-28.94"/>
<polygon fill="#63b8ff" stroke="#63b8ff" points="698.12,-207.5 703.89,-216.38 704.92,-205.84 698.12,-207.5"/>
</a>
</g>
</g>
<!-- Node3 -->
<g id="Node000003" class="node">
<title>Node3</title>
<g id="a_Node000003"><a xlink:href="namespacem__start__up.html#ab64542f13c680e17ce8879c77c65c0e0" target="_top" xlink:title="Set up the MPI execution environment, bind GPUs, and decompose the computational domain.">
<polygon fill="white" stroke="#666666" points="404,-430.5 274,-430.5 274,-400.5 404,-400.5 404,-430.5"/>
<text text-anchor="start" x="282" y="-418.5" font-family="Helvetica,sans-Serif" font-size="10.00">m_start_up::s_initialize</text>
<text text-anchor="middle" x="339" y="-407.5" font-family="Helvetica,sans-Serif" font-size="10.00">_mpi_domain</text>
</a>
</g>
</g>
<!-- Node2&#45;&gt;Node3 -->
<g id="edge2_Node000002_Node000003" class="edge">
<title>Node2&#45;&gt;Node3</title>
<g id="a_edge2_Node000002_Node000003"><a xlink:title=" ">
<path fill="none" stroke="#63b8ff" d="M460.18,-446.35C440.1,-441.19 418.23,-435.58 398.71,-430.57"/>
<polygon fill="#63b8ff" stroke="#63b8ff" points="459.32,-449.74 469.88,-448.83 461.06,-442.96 459.32,-449.74"/>
</a>
</g>
</g>
<!-- Node4 -->
<g id="Node000004" class="node">
<title>Node4</title>
<g id="a_Node000004"><a xlink:href="p__main_8fpp_8f90.html#aeec10ee8e2940c953967da3e374e1579" target="_top" xlink:title="Quasi&#45;conservative, shock&#45; and interface&#45; capturing finite&#45;volume scheme for the multicomponent Navie...">
<polygon fill="white" stroke="#666666" points="53,-124 0,-124 0,-105 53,-105 53,-124"/>
<text text-anchor="middle" x="26.5" y="-112" font-family="Helvetica,sans-Serif" font-size="10.00">p_main</text>
</a>
</g>
</g>
<!-- Node3&#45;&gt;Node4 -->
<g id="edge3_Node000003_Node000004" class="edge">
<title>Node3&#45;&gt;Node4</title>
<g id="a_edge3_Node000003_Node000004"><a xlink:title=" ">
<path fill="none" stroke="#63b8ff" d="M314.73,-392.94C251.94,-332.07 80.87,-166.23 37.57,-124.25"/>
<polygon fill="#63b8ff" stroke="#63b8ff" points="312.56,-395.71 322.18,-400.16 317.43,-390.68 312.56,-395.71"/>
</a>
</g>
</g>
<!-- Node6 -->
<g id="Node000006" class="node">
<title>Node6</title>
<g id="a_Node000006"><a xlink:href="namespacem__start__up.html#a1fb7a3f9d412acd2a9cbcfe8b45006dd" target="_top" xlink:title="Initialize all simulation sub&#45;modules in the required dependency order.">
<polygon fill="white" stroke="#666666" points="223,-158.5 93,-158.5 93,-128.5 223,-128.5 223,-158.5"/>
<text text-anchor="start" x="101" y="-146.5" font-family="Helvetica,sans-Serif" font-size="10.00">m_start_up::s_initialize</text>
<text text-anchor="middle" x="158" y="-135.5" font-family="Helvetica,sans-Serif" font-size="10.00">_modules</text>
</a>
</g>
</g>
<!-- Node5&#45;&gt;Node6 -->
<g id="edge5_Node000005_Node000006" class="edge">
<title>Node5&#45;&gt;Node6</title>
<g id="a_edge5_Node000005_Node000006"><a xlink:title=" ">
<path fill="none" stroke="#63b8ff" d="M294.6,-203.34C263.47,-189.6 222.09,-171.34 193.27,-158.62"/>
<polygon fill="#63b8ff" stroke="#63b8ff" points="293.35,-206.62 303.91,-207.45 296.17,-200.21 293.35,-206.62"/>
</a>
</g>
</g>
<!-- Node6&#45;&gt;Node4 -->
<g id="edge6_Node000006_Node000004" class="edge">
<title>Node6&#45;&gt;Node4</title>
<g id="a_edge6_Node000006_Node000004"><a xlink:title=" ">
<path fill="none" stroke="#63b8ff" d="M82.84,-126.89C72.25,-124.52 62,-122.22 53.26,-120.27"/>
<polygon fill="#63b8ff" stroke="#63b8ff" points="82.11,-130.31 92.63,-129.08 83.64,-123.48 82.11,-130.31"/>
</a>
</g>
</g>
<!-- Node9&#45;&gt;Node4 -->
<g id="edge10_Node000009_Node000004" class="edge">
<title>Node9&#45;&gt;Node4</title>
<g id="a_edge10_Node000009_Node000004"><a xlink:title=" ">
<path fill="none" stroke="#63b8ff" d="M84.26,-103.98C73.07,-106.05 62.2,-108.07 53.02,-109.77"/>
<polygon fill="#63b8ff" stroke="#63b8ff" points="84.95,-107.41 94.15,-102.14 83.68,-100.53 84.95,-107.41"/>
</a>
</g>
</g>
<!-- Node11&#45;&gt;Node3 -->
<g id="edge13_Node000011_Node000003" class="edge">
<title>Node11&#45;&gt;Node3</title>
<g id="a_edge13_Node000011_Node000003"><a xlink:title=" ">
<path fill="none" stroke="#63b8ff" d="M462.89,-415.5C443.93,-415.5 423.18,-415.5 404.22,-415.5"/>
<polygon fill="#63b8ff" stroke="#63b8ff" points="462.91,-419 472.91,-415.5 462.91,-412 462.91,-419"/>
</a>
</g>
</g>
<!-- Node13 -->
<g id="Node000013" class="node">
<title>Node13</title>
<g id="a_Node000013"><a xlink:href="namespacem__start__up.html#a25f79bc2aae3d0302d4a97247d84f92a" target="_top" xlink:title="Read data files. Dispatch subroutine that replaces procedure pointer.">
<polygon fill="white" stroke="#666666" points="394,-158.5 284,-158.5 284,-128.5 394,-128.5 394,-158.5"/>
<text text-anchor="start" x="292" y="-146.5" font-family="Helvetica,sans-Serif" font-size="10.00">m_start_up::s_read</text>
<text text-anchor="middle" x="339" y="-135.5" font-family="Helvetica,sans-Serif" font-size="10.00">_data_files</text>
</a>
</g>
</g>
<!-- Node12&#45;&gt;Node13 -->
<g id="edge15_Node000012_Node000013" class="edge">
<title>Node12&#45;&gt;Node13</title>
<g id="a_edge15_Node000012_Node000013"><a xlink:title=" ">
<path fill="none" stroke="#63b8ff" d="M462.36,-155.93C440.07,-153.66 415.36,-151.15 394.01,-148.98"/>
<polygon fill="#63b8ff" stroke="#63b8ff" points="462.11,-159.42 472.41,-156.95 462.81,-152.46 462.11,-159.42"/>
</a>
</g>
</g>
<!-- Node13&#45;&gt;Node6 -->
<g id="edge16_Node000013_Node000006" class="edge">
<title>Node13&#45;&gt;Node6</title>
<g id="a_edge16_Node000013_Node000006"><a xlink:title=" ">
<path fill="none" stroke="#63b8ff" d="M273.73,-143.5C257.26,-143.5 239.55,-143.5 223.08,-143.5"/>
<polygon fill="#63b8ff" stroke="#63b8ff" points="273.81,-147 283.81,-143.5 273.81,-140 273.81,-147"/>
</a>
</g>
</g>
<!-- Node14&#45;&gt;Node13 -->
<g id="edge18_Node000014_Node000013" class="edge">
<title>Node14&#45;&gt;Node13</title>
<g id="a_edge18_Node000014_Node000013"><a xlink:title=" ">
<path fill="none" stroke="#63b8ff" d="M462.85,-124.44C440.53,-127.91 415.73,-131.75 394.29,-135.08"/>
<polygon fill="#63b8ff" stroke="#63b8ff" points="463.57,-127.88 472.91,-122.88 462.49,-120.96 463.57,-127.88"/>
</a>
</g>
</g>
<!-- Node15&#45;&gt;Node4 -->
<g id="edge20_Node000015_Node000004" class="edge">
<title>Node15&#45;&gt;Node4</title>
<g id="a_edge20_Node000015_Node000004"><a xlink:title=" ">
<path fill="none" stroke="#63b8ff" d="M119.56,-51.78C109.38,-55.96 98.54,-60.95 89,-66.5 69.8,-77.66 49.96,-94.22 38.18,-104.68"/>
<polygon fill="#63b8ff" stroke="#63b8ff" points="121.04,-54.96 129.06,-48.03 118.47,-48.45 121.04,-54.96"/>
</a>
</g>
</g>
</g>
</svg>

<g id="navigator" transform="translate(0 0)" fill="#404254">
  <rect fill="#f2f5e9" fill-opacity="0.5" stroke="#606060" stroke-width=".5" x="0" y="0" width="60" height="60"/>
  <use id="zoomplus" xlink:href="#zoomPlus" x="17" y="9" onmousedown="handleZoom(evt,'in')"/>
  <use id="zoomminus" xlink:href="#zoomMin" x="42" y="9" onmousedown="handleZoom(evt,'out')"/>
  <use id="reset" xlink:href="#resetDef" x="30" y="36" onmousedown="handleReset()"/>
   <use id="arrowup" xlink:href="#arrowUp" x="0" y="0" onmousedown="handlePan(0,-1)"/>
  <use id="arrowright" xlink:href="#arrowRight" x="0" y="0" onmousedown="handlePan(1,0)"/>
  <use id="arrowdown" xlink:href="#arrowDown" x="0" y="0" onmousedown="handlePan(0,1)"/>
  <use id="arrowleft" xlink:href="#arrowLeft" x="0" y="0" onmousedown="handlePan(-1,0)"/>
</g>
<svg viewBox="0 0 15 15" width="100%" height="30px" preserveAspectRatio="xMaxYMin meet">
 <g id="arrow_out" transform="scale(0.3 0.3)">
  <a xlink:href="namespacem__mpi__common_a04cfc0bdb377a0ce2f9fd478e4bb3807_icgraph_org.svg" target="_base">
   <rect id="button" ry="5" rx="5" y="6" x="6" height="38" width="38"
        fill="#f2f5e9" fill-opacity="0.5" stroke="#606060" stroke-width="1.0"/>
   <path id="arrow"
     d="M 11.500037,31.436501 C 11.940474,20.09759 22.043105,11.32322 32.158766,21.979434 L 37.068811,17.246167 C 37.068811,17.246167 37.088388,32 37.088388,32 L 22.160133,31.978069 C 22.160133,31.978069 26.997745,27.140456 26.997745,27.140456 C 18.528582,18.264221 13.291696,25.230495 11.500037,31.436501 z"
     style="fill:#404040;"/>
  </a>
 </g>
</svg>

<style type='text/css'>
<![CDATA[
[data-mouse-over-selected='false'] { opacity: 0.7; }
[data-mouse-over-selected='true']  { opacity: 1.0; }
]]>
</style>
<script type="application/ecmascript"><![CDATA[
document.addEventListener('DOMContentLoaded', (event) => {
  highlightEdges();
  highlightAdjacentNodes();
});
]]></script>
</svg>
