<?xml version="1.0" encoding="UTF-8" standalone="no"?>
<!DOCTYPE svg PUBLIC "-//W3C//DTD SVG 1.1//EN"
 "http://www.w3.org/Graphics/SVG/1.1/DTD/svg11.dtd">
<!-- Generated by graphviz version 2.43.0 (0)
 -->
<!-- Title: m_checker_common::s_check_inputs_stiffened_eos Pages: 1 -->
<svg width="515pt" height="103pt"
 viewBox="0.00 0.00 515.00 103.00" xmlns="http://www.w3.org/2000/svg" xmlns:xlink="http://www.w3.org/1999/xlink">
<g id="graph0" class="graph" transform="scale(1 1) rotate(0) translate(4 99)">
<title>m_checker_common::s_check_inputs_stiffened_eos</title>
<!-- Node1 -->
<g id="Node000001" class="node">
<title>Node1</title>
<g id="a_Node000001"><a xlink:title="Checks constraints on the stiffened equation of state fluids parameters. Called by s_check_inputs_com...">
<polygon fill="#999999" stroke="#666666" points="156,-62.5 0,-62.5 0,-32.5 156,-32.5 156,-62.5"/>
<text text-anchor="start" x="8" y="-50.5" font-family="Helvetica,sans-Serif" font-size="10.00">m_checker_common::s</text>
<text text-anchor="middle" x="78" y="-39.5" font-family="Helvetica,sans-Serif" font-size="10.00">_check_inputs_stiffened_eos</text>
</a>
</g>
</g>
<!-- Node2 -->
<g id="Node000002" class="node">
<title>Node2</title>
<g id="a_Node000002"><a xlink:href="m__helper_8fpp_8f90.html#ad7eb5f3e531ad8b37fa39d55e1076db5" target="_top" xlink:title="Checks if a real(kind(0d0)) variable is of default value.">
<polygon fill="white" stroke="#666666" points="266,-95 192,-95 192,-76 266,-76 266,-95"/>
<text text-anchor="middle" x="229" y="-83" font-family="Helvetica,sans-Serif" font-size="10.00">f_is_default</text>
</a>
</g>
</g>
<!-- Node1&#45;&gt;Node2 -->
<g id="edge1_Node000001_Node000002" class="edge">
<title>Node1&#45;&gt;Node2</title>
<g id="a_edge1_Node000001_Node000002"><a xlink:title=" ">
<path fill="none" stroke="#63b8ff" d="M137.89,-62.52C152.55,-66.26 168.06,-70.21 182,-73.77"/>
<polygon fill="#63b8ff" stroke="#63b8ff" points="181.28,-77.2 191.84,-76.28 183.01,-70.41 181.28,-77.2"/>
</a>
</g>
</g>
<!-- Node4 -->
<g id="Node000004" class="node">
<title>Node4</title>
<g id="a_Node000004"><a xlink:href="m__mpi__common_8fpp_8f90.html#ad9e1329e498b65ad4256658675d6f797" target="_top" xlink:title="The subroutine terminates the MPI execution environment.">
<polygon fill="white" stroke="#666666" points="507,-76 430,-76 430,-57 507,-57 507,-76"/>
<text text-anchor="middle" x="468.5" y="-64" font-family="Helvetica,sans-Serif" font-size="10.00">s_mpi_abort</text>
</a>
</g>
</g>
<!-- Node1&#45;&gt;Node4 -->
<g id="edge5_Node000001_Node000004" class="edge">
<title>Node1&#45;&gt;Node4</title>
<g id="a_edge5_Node000001_Node000004"><a xlink:title=" ">
<path fill="none" stroke="#63b8ff" d="M156.22,-51.28C234.78,-55.12 354.05,-60.95 419.81,-64.17"/>
<polygon fill="#63b8ff" stroke="#63b8ff" points="419.73,-67.67 429.89,-64.66 420.07,-60.68 419.73,-67.67"/>
</a>
</g>
</g>
<!-- Node5 -->
<g id="Node000005" class="node">
<title>Node5</title>
<g id="a_Node000005"><a xlink:href="m__helper_8fpp_8f90.html#a8a0505b2bd4f3d8cb2bf3ce16cfe01e3" target="_top" xlink:title=" ">
<polygon fill="white" stroke="#666666" points="265.5,-19 192.5,-19 192.5,0 265.5,0 265.5,-19"/>
<text text-anchor="middle" x="229" y="-7" font-family="Helvetica,sans-Serif" font-size="10.00">s_int_to_str</text>
</a>
</g>
</g>
<!-- Node1&#45;&gt;Node5 -->
<g id="edge4_Node000001_Node000005" class="edge">
<title>Node1&#45;&gt;Node5</title>
<g id="a_edge4_Node000001_Node000005"><a xlink:title=" ">
<path fill="none" stroke="#63b8ff" d="M137.89,-32.48C152.68,-28.71 168.33,-24.72 182.37,-21.14"/>
<polygon fill="#63b8ff" stroke="#63b8ff" points="183.44,-24.48 192.27,-18.61 181.71,-17.69 183.44,-24.48"/>
</a>
</g>
</g>
<!-- Node3 -->
<g id="Node000003" class="node">
<title>Node3</title>
<g id="a_Node000003"><a xlink:href="m__helper_8fpp_8f90.html#a7bdf2eff292c20e9c330089da2e53a97" target="_top" xlink:title="This procedure checks if two floating point numbers of kind(0d0) are within tolerance.">
<polygon fill="white" stroke="#666666" points="394,-95 302,-95 302,-76 394,-76 394,-95"/>
<text text-anchor="middle" x="348" y="-83" font-family="Helvetica,sans-Serif" font-size="10.00">f_approx_equal</text>
</a>
</g>
</g>
<!-- Node2&#45;&gt;Node3 -->
<g id="edge2_Node000002_Node000003" class="edge">
<title>Node2&#45;&gt;Node3</title>
<g id="a_edge2_Node000002_Node000003"><a xlink:title=" ">
<path fill="none" stroke="#63b8ff" d="M266.06,-85.5C274.17,-85.5 282.95,-85.5 291.64,-85.5"/>
<polygon fill="#63b8ff" stroke="#63b8ff" points="291.76,-89 301.76,-85.5 291.76,-82 291.76,-89"/>
</a>
</g>
</g>
<!-- Node3&#45;&gt;Node4 -->
<g id="edge3_Node000003_Node000004" class="edge">
<title>Node3&#45;&gt;Node4</title>
<g id="a_edge3_Node000003_Node000004"><a xlink:title=" ">
<path fill="none" stroke="#63b8ff" d="M394.14,-78.26C402.51,-76.92 411.28,-75.51 419.72,-74.16"/>
<polygon fill="#63b8ff" stroke="#63b8ff" points="420.5,-77.58 429.82,-72.54 419.39,-70.67 420.5,-77.58"/>
</a>
</g>
</g>
</g>
</svg>
