<?xml version="1.0" encoding="UTF-8" standalone="no"?>
<!DOCTYPE svg PUBLIC "-//W3C//DTD SVG 1.1//EN"
 "http://www.w3.org/Graphics/SVG/1.1/DTD/svg11.dtd">
<!-- Generated by graphviz version 2.40.1 (20161225.0304)
 -->
<!-- Title: m_riemann_solvers::s_exact_riemann_solver Pages: 1 -->
<svg width="450pt" height="382pt"
 viewBox="0.00 0.00 450.00 381.50" xmlns="http://www.w3.org/2000/svg" xmlns:xlink="http://www.w3.org/1999/xlink">
<g id="graph0" class="graph" transform="scale(1 1) rotate(0) translate(4 377.5)">
<title>m_riemann_solvers::s_exact_riemann_solver</title>
<polygon fill="#ffffff" stroke="transparent" points="-4,4 -4,-377.5 446,-377.5 446,4 -4,4"/>
<!-- Node74 -->
<g id="node1" class="node">
<title>Node74</title>
<polygon fill="#bfbfbf" stroke="#000000" points="0,-175.5 0,-201.5 82,-201.5 82,-175.5 0,-175.5"/>
<text text-anchor="start" x="8" y="-191.1" font-family="Helvetica,sans-Serif" font-size="8.00" fill="#000000">m_riemann_solvers::</text>
<text text-anchor="middle" x="41" y="-182.1" font-family="Helvetica,sans-Serif" font-size="8.00" fill="#000000">s_exact_riemann_solver</text>
</g>
<!-- Node75 -->
<g id="node2" class="node">
<title>Node75</title>
<g id="a_node2"><a xlink:href="namespacem__riemann__solvers.html#ae82ad8216dcc6938b86cf0bd5c17467b" target="_top" xlink:title="The purpose of this subroutine is to populate the buffers of the left and right Riemann states variab...">
<polygon fill="#ffffff" stroke="#000000" points="118.5,-338 118.5,-373 208.5,-373 208.5,-338 118.5,-338"/>
<text text-anchor="start" x="126.5" y="-362.6" font-family="Helvetica,sans-Serif" font-size="8.00" fill="#000000">m_riemann_solvers::</text>
<text text-anchor="start" x="126.5" y="-353.6" font-family="Helvetica,sans-Serif" font-size="8.00" fill="#000000">s_populate_riemann_states</text>
<text text-anchor="middle" x="163.5" y="-344.6" font-family="Helvetica,sans-Serif" font-size="8.00" fill="#000000">_variables_buffers</text>
</a>
</g>
</g>
<!-- Node74&#45;&gt;Node75 -->
<g id="edge1" class="edge">
<title>Node74&#45;&gt;Node75</title>
<path fill="none" stroke="#191970" d="M45.4755,-201.5281C55.1403,-228.1213 80.1893,-289.4317 118,-328.5 119.038,-329.5726 120.1276,-330.6178 121.2581,-331.6347"/>
<polygon fill="#191970" stroke="#191970" points="119.1865,-334.4589 129.1973,-337.928 123.5348,-328.9732 119.1865,-334.4589"/>
</g>
<!-- Node76 -->
<g id="node3" class="node">
<title>Node76</title>
<g id="a_node3"><a xlink:href="namespacem__riemann__solvers.html#a86766279fcf7527f2b148adff4666b1c" target="_top" xlink:title="The computation of parameters, the allocation of memory, the association of pointers and/or the execu...">
<polygon fill="#ffffff" stroke="#000000" points="127.5,-284 127.5,-319 199.5,-319 199.5,-284 127.5,-284"/>
<text text-anchor="start" x="135.5" y="-308.6" font-family="Helvetica,sans-Serif" font-size="8.00" fill="#000000">m_riemann_solvers::</text>
<text text-anchor="start" x="135.5" y="-299.6" font-family="Helvetica,sans-Serif" font-size="8.00" fill="#000000">s_initialize_riemann</text>
<text text-anchor="middle" x="163.5" y="-290.6" font-family="Helvetica,sans-Serif" font-size="8.00" fill="#000000">_solver</text>
</a>
</g>
</g>
<!-- Node74&#45;&gt;Node76 -->
<g id="edge2" class="edge">
<title>Node74&#45;&gt;Node76</title>
<path fill="none" stroke="#191970" d="M50.6442,-201.5793C64.2789,-219.4856 90.5986,-251.974 118,-274.5 119.3659,-275.6229 120.7836,-276.7295 122.2377,-277.8161"/>
<polygon fill="#191970" stroke="#191970" points="120.6429,-280.9694 130.8549,-283.7919 124.632,-275.2172 120.6429,-280.9694"/>
</g>
<!-- Node77 -->
<g id="node4" class="node">
<title>Node77</title>
<g id="a_node4"><a xlink:href="namespacem__riemann__solvers.html#a16383eccdd2d0ecca7d1c26467daaaab" target="_top" xlink:title="The procedure assigns and computes the left and right states of the Riemann problem. ">
<polygon fill="#ffffff" stroke="#000000" points="118,-238.5 118,-264.5 209,-264.5 209,-238.5 118,-238.5"/>
<text text-anchor="start" x="126" y="-254.1" font-family="Helvetica,sans-Serif" font-size="8.00" fill="#000000">m_riemann_solvers::</text>
<text text-anchor="middle" x="163.5" y="-245.1" font-family="Helvetica,sans-Serif" font-size="8.00" fill="#000000">s_compute_constant_states</text>
</a>
</g>
</g>
<!-- Node74&#45;&gt;Node77 -->
<g id="edge3" class="edge">
<title>Node74&#45;&gt;Node77</title>
<path fill="none" stroke="#191970" d="M66.3821,-201.5536C84.5317,-210.8877 109.169,-223.5583 129.0868,-233.8018"/>
<polygon fill="#191970" stroke="#191970" points="127.6568,-237.0021 138.1504,-238.4631 130.8583,-230.777 127.6568,-237.0021"/>
</g>
<!-- Node79 -->
<g id="node6" class="node">
<title>Node79</title>
<g id="a_node6"><a xlink:href="namespacem__mpi__proxy.html#a04ac565bad2b22dc045a5eeb4f516e2e" target="_top" xlink:title="The subroutine terminates the MPI execution environment. ">
<polygon fill="#ffffff" stroke="#000000" points="370,-137.5 370,-163.5 442,-163.5 442,-137.5 370,-137.5"/>
<text text-anchor="start" x="378" y="-153.1" font-family="Helvetica,sans-Serif" font-size="8.00" fill="#000000">m_mpi_proxy::s_mpi</text>
<text text-anchor="middle" x="406" y="-144.1" font-family="Helvetica,sans-Serif" font-size="8.00" fill="#000000">_abort</text>
</a>
</g>
</g>
<!-- Node74&#45;&gt;Node79 -->
<g id="edge5" class="edge">
<title>Node74&#45;&gt;Node79</title>
<path fill="none" stroke="#191970" d="M82.156,-189.7665C93.7476,-190.0696 106.3668,-190.3489 118,-190.5 214.3246,-191.7508 239.9845,-193.5021 334,-172.5 342.435,-170.6157 351.3162,-168.237 359.8504,-165.7451"/>
<polygon fill="#191970" stroke="#191970" points="361.0958,-169.0254 369.6618,-162.7905 359.0773,-162.3227 361.0958,-169.0254"/>
</g>
<!-- Node80 -->
<g id="node7" class="node">
<title>Node80</title>
<g id="a_node7"><a xlink:href="namespacem__riemann__solvers.html#a947bc1c7da743ee0820ff6648fef3c25" target="_top" xlink:title="The purpose of this subroutine is to compute the solution for pressure and velocity in the star regio...">
<polygon fill="#ffffff" stroke="#000000" points="124,-154.5 124,-180.5 203,-180.5 203,-154.5 124,-154.5"/>
<text text-anchor="start" x="132" y="-170.1" font-family="Helvetica,sans-Serif" font-size="8.00" fill="#000000">m_riemann_solvers::</text>
<text text-anchor="middle" x="163.5" y="-161.1" font-family="Helvetica,sans-Serif" font-size="8.00" fill="#000000">s_compute_star_region</text>
</a>
</g>
</g>
<!-- Node74&#45;&gt;Node80 -->
<g id="edge6" class="edge">
<title>Node74&#45;&gt;Node80</title>
<path fill="none" stroke="#191970" d="M82.1315,-181.4489C92.3501,-179.6971 103.4092,-177.8013 113.9835,-175.9885"/>
<polygon fill="#191970" stroke="#191970" points="114.6651,-179.4228 123.93,-174.2834 113.4823,-172.5235 114.6651,-179.4228"/>
</g>
<!-- Node83 -->
<g id="node10" class="node">
<title>Node83</title>
<g id="a_node10"><a xlink:href="namespacem__riemann__solvers.html#a68651027acd974568fd5f94ed39c8e82" target="_top" xlink:title="Computes the averaged intrercell variables for the Riemann solver. ">
<polygon fill="#ffffff" stroke="#000000" points="127.5,-100 127.5,-135 199.5,-135 199.5,-100 127.5,-100"/>
<text text-anchor="start" x="135.5" y="-124.6" font-family="Helvetica,sans-Serif" font-size="8.00" fill="#000000">m_riemann_solvers::</text>
<text text-anchor="start" x="135.5" y="-115.6" font-family="Helvetica,sans-Serif" font-size="8.00" fill="#000000">s_compute_intercell</text>
<text text-anchor="middle" x="163.5" y="-106.6" font-family="Helvetica,sans-Serif" font-size="8.00" fill="#000000">_solution</text>
</a>
</g>
</g>
<!-- Node74&#45;&gt;Node83 -->
<g id="edge12" class="edge">
<title>Node74&#45;&gt;Node83</title>
<path fill="none" stroke="#191970" d="M63.4684,-175.4775C80.3597,-165.6875 103.9357,-152.023 123.9573,-140.4186"/>
<polygon fill="#191970" stroke="#191970" points="125.9728,-143.2959 132.8696,-135.2532 122.4626,-137.2396 125.9728,-143.2959"/>
</g>
<!-- Node84 -->
<g id="node11" class="node">
<title>Node84</title>
<g id="a_node11"><a xlink:href="namespacem__riemann__solvers.html#aeab4abb9a37e1f537fee511bdcadc9da" target="_top" xlink:title="The purpose of the subroutine is to evaluate and account for the contribution of capillary stresses i...">
<polygon fill="#ffffff" stroke="#000000" points="127.5,-46 127.5,-81 199.5,-81 199.5,-46 127.5,-46"/>
<text text-anchor="start" x="135.5" y="-70.6" font-family="Helvetica,sans-Serif" font-size="8.00" fill="#000000">m_riemann_solvers::</text>
<text text-anchor="start" x="135.5" y="-61.6" font-family="Helvetica,sans-Serif" font-size="8.00" fill="#000000">s_compute_capillary</text>
<text text-anchor="middle" x="163.5" y="-52.6" font-family="Helvetica,sans-Serif" font-size="8.00" fill="#000000">_source_flux</text>
</a>
</g>
</g>
<!-- Node74&#45;&gt;Node84 -->
<g id="edge13" class="edge">
<title>Node74&#45;&gt;Node84</title>
<path fill="none" stroke="#191970" d="M49.1619,-175.1788C61.9685,-155.0476 88.3988,-116.4723 118,-90.5 119.2816,-89.3755 120.6166,-88.2721 121.9905,-87.1926"/>
<polygon fill="#191970" stroke="#191970" points="124.1142,-89.9764 130.1836,-81.2923 120.0235,-84.2961 124.1142,-89.9764"/>
</g>
<!-- Node85 -->
<g id="node12" class="node">
<title>Node85</title>
<g id="a_node12"><a xlink:href="namespacem__riemann__solvers.html#ab679d890c95c6cb1ee3dc5e5a9ae1c19" target="_top" xlink:title="Deallocation and/or disassociation procedures that are needed to finalize the selected Riemann proble...">
<polygon fill="#ffffff" stroke="#000000" points="120.5,-.5 120.5,-26.5 206.5,-26.5 206.5,-.5 120.5,-.5"/>
<text text-anchor="start" x="128.5" y="-16.1" font-family="Helvetica,sans-Serif" font-size="8.00" fill="#000000">m_riemann_solvers::</text>
<text text-anchor="middle" x="163.5" y="-7.1" font-family="Helvetica,sans-Serif" font-size="8.00" fill="#000000">s_finalize_riemann_solver</text>
</a>
</g>
</g>
<!-- Node74&#45;&gt;Node85 -->
<g id="edge14" class="edge">
<title>Node74&#45;&gt;Node85</title>
<path fill="none" stroke="#191970" d="M44.5585,-175.4373C52.9273,-146.8765 76.3563,-78.1077 118,-36.5 119.4088,-35.0924 120.9215,-33.7545 122.5088,-32.4851"/>
<polygon fill="#191970" stroke="#191970" points="124.6703,-35.2466 130.9332,-26.701 120.7082,-29.4759 124.6703,-35.2466"/>
</g>
<!-- Node78 -->
<g id="node5" class="node">
<title>Node78</title>
<g id="a_node5"><a xlink:href="namespacem__riemann__solvers.html#a16d6f8f4c3ad64fdb574a50c189750c5" target="_top" xlink:title="Compute mixture sound speed. ">
<polygon fill="#ffffff" stroke="#000000" points="245,-238 245,-273 334,-273 334,-238 245,-238"/>
<text text-anchor="start" x="253" y="-262.6" font-family="Helvetica,sans-Serif" font-size="8.00" fill="#000000">m_riemann_solvers::</text>
<text text-anchor="start" x="253" y="-253.6" font-family="Helvetica,sans-Serif" font-size="8.00" fill="#000000">s_compute_mixture_sound</text>
<text text-anchor="middle" x="289.5" y="-244.6" font-family="Helvetica,sans-Serif" font-size="8.00" fill="#000000">_speeds</text>
</a>
</g>
</g>
<!-- Node77&#45;&gt;Node78 -->
<g id="edge4" class="edge">
<title>Node77&#45;&gt;Node78</title>
<path fill="none" stroke="#191970" d="M209.3453,-252.9554C217.5494,-253.2159 226.1735,-253.4896 234.601,-253.7572"/>
<polygon fill="#191970" stroke="#191970" points="234.6357,-257.2599 244.7418,-254.0791 234.8579,-250.2635 234.6357,-257.2599"/>
</g>
<!-- Node80&#45;&gt;Node79 -->
<g id="edge11" class="edge">
<title>Node80&#45;&gt;Node79</title>
<path fill="none" stroke="#191970" d="M203.0015,-164.7308C245.8332,-161.7282 314.14,-156.9397 359.5222,-153.7582"/>
<polygon fill="#191970" stroke="#191970" points="359.9564,-157.2365 369.6871,-153.0456 359.4668,-150.2536 359.9564,-157.2365"/>
</g>
<!-- Node81 -->
<g id="node8" class="node">
<title>Node81</title>
<g id="a_node8"><a xlink:href="namespacem__riemann__solvers.html#a7e533d9eadb12af316d72f1b722735d8" target="_top" xlink:title="The purpose of this subroutine is to provide a guess value for pressure in the star region...">
<polygon fill="#ffffff" stroke="#000000" points="253.5,-116.5 253.5,-142.5 325.5,-142.5 325.5,-116.5 253.5,-116.5"/>
<text text-anchor="start" x="261.5" y="-132.1" font-family="Helvetica,sans-Serif" font-size="8.00" fill="#000000">m_riemann_solvers::</text>
<text text-anchor="middle" x="289.5" y="-123.1" font-family="Helvetica,sans-Serif" font-size="8.00" fill="#000000">s_guess_pressure</text>
</a>
</g>
</g>
<!-- Node80&#45;&gt;Node81 -->
<g id="edge7" class="edge">
<title>Node80&#45;&gt;Node81</title>
<path fill="none" stroke="#191970" d="M203.0215,-155.5808C215.789,-151.7303 230.0578,-147.427 243.2663,-143.4435"/>
<polygon fill="#191970" stroke="#191970" points="244.5542,-146.7109 253.1177,-140.4724 242.533,-140.009 244.5542,-146.7109"/>
</g>
<!-- Node82 -->
<g id="node9" class="node">
<title>Node82</title>
<g id="a_node9"><a xlink:href="namespacem__riemann__solvers.html#aba768ee53f47327a70508a913b55254d" target="_top" xlink:title="The purpose of this subroutine is to evaluate the pressure functions f_K in the exact Riemann solver...">
<polygon fill="#ffffff" stroke="#000000" points="253.5,-71.5 253.5,-97.5 325.5,-97.5 325.5,-71.5 253.5,-71.5"/>
<text text-anchor="start" x="261.5" y="-87.1" font-family="Helvetica,sans-Serif" font-size="8.00" fill="#000000">m_riemann_solvers::</text>
<text text-anchor="middle" x="289.5" y="-78.1" font-family="Helvetica,sans-Serif" font-size="8.00" fill="#000000">s_pressure_function</text>
</a>
</g>
</g>
<!-- Node80&#45;&gt;Node82 -->
<g id="edge9" class="edge">
<title>Node80&#45;&gt;Node82</title>
<path fill="none" stroke="#191970" d="M193.2651,-154.3235C198.7002,-151.4037 204.1732,-148.0955 209,-144.5 227.6572,-130.6024 226.2812,-120.3146 245,-106.5 246.8029,-105.1694 248.6986,-103.8822 250.6497,-102.6432"/>
<polygon fill="#191970" stroke="#191970" points="252.5534,-105.5851 259.4422,-97.5355 249.0372,-99.5323 252.5534,-105.5851"/>
</g>
<!-- Node81&#45;&gt;Node79 -->
<g id="edge8" class="edge">
<title>Node81&#45;&gt;Node79</title>
<path fill="none" stroke="#191970" d="M325.7227,-136.0294C336.462,-137.9653 348.3728,-140.1123 359.6603,-142.1469"/>
<polygon fill="#191970" stroke="#191970" points="359.3374,-145.645 369.7997,-143.9746 360.5792,-138.7561 359.3374,-145.645"/>
</g>
<!-- Node82&#45;&gt;Node79 -->
<g id="edge10" class="edge">
<title>Node82&#45;&gt;Node79</title>
<path fill="none" stroke="#191970" d="M316.9982,-97.6152C322.6685,-100.4533 328.5659,-103.5042 334,-106.5 348.4886,-114.4877 364.2065,-123.9911 377.2492,-132.1183"/>
<polygon fill="#191970" stroke="#191970" points="375.4733,-135.1359 385.8034,-137.4894 379.1956,-129.2076 375.4733,-135.1359"/>
</g>
</g>
</svg>
