<?xml version="1.0" encoding="UTF-8" standalone="no"?>
<!DOCTYPE svg PUBLIC "-//W3C//DTD SVG 1.1//EN"
 "http://www.w3.org/Graphics/SVG/1.1/DTD/svg11.dtd">
<!-- Generated by graphviz version 2.43.0 (0)
 -->
<!-- Title: m_ib_patches::s_apply_ib_patches_ib_parallelism Pages: 1 -->
<svg width="531pt" height="422pt"
 viewBox="0.00 0.00 531.00 422.00" xmlns="http://www.w3.org/2000/svg" xmlns:xlink="http://www.w3.org/1999/xlink">
<g id="graph0" class="graph" transform="scale(1 1) rotate(0) translate(4 418)">
<title>m_ib_patches::s_apply_ib_patches_ib_parallelism</title>
<!-- Node1 -->
<g id="Node000001" class="node">
<title>Node1</title>
<g id="a_Node000001"><a xlink:title=" ">
<polygon fill="#999999" stroke="#666666" points="149,-222 0,-222 0,-192 149,-192 149,-222"/>
<text text-anchor="start" x="8" y="-210" font-family="Helvetica,sans-Serif" font-size="10.00">m_ib_patches::s_apply</text>
<text text-anchor="middle" x="74.5" y="-199" font-family="Helvetica,sans-Serif" font-size="10.00">_ib_patches_ib_parallelism</text>
</a>
</g>
</g>
<!-- Node2 -->
<g id="Node000002" class="node">
<title>Node2</title>
<g id="a_Node000002"><a xlink:href="namespacem__patch__geometries.html#afeec9dce9eb3814e5a76863a1f29aefe" target="_top" xlink:title="Check if the x, y, are bounded by a NACA airfoil. Check if the z coordinate is inside the left and ri...">
<polygon fill="white" stroke="#666666" points="322.5,-414 203.5,-414 203.5,-384 322.5,-384 322.5,-414"/>
<text text-anchor="start" x="211.5" y="-402" font-family="Helvetica,sans-Serif" font-size="10.00">m_patch_geometries</text>
<text text-anchor="middle" x="263" y="-391" font-family="Helvetica,sans-Serif" font-size="10.00">::f_is_inside_airfoil</text>
</a>
</g>
</g>
<!-- Node1&#45;&gt;Node2 -->
<g id="edge1_Node000001_Node000002" class="edge">
<title>Node1&#45;&gt;Node2</title>
<g id="a_edge1_Node000001_Node000002"><a xlink:title=" ">
<path fill="none" stroke="#63b8ff" d="M81.15,-222.06C94.23,-254.87 129.75,-333.2 185,-375 187.82,-377.13 190.84,-379.08 193.98,-380.86"/>
<polygon fill="#63b8ff" stroke="#63b8ff" points="192.61,-384.08 203.12,-385.42 195.73,-377.82 192.61,-384.08"/>
</a>
</g>
</g>
<!-- Node4 -->
<g id="Node000004" class="node">
<title>Node4</title>
<g id="a_Node000004"><a xlink:href="namespacem__patch__geometries.html#a488e8317d848547d5652b53bafabd1fa" target="_top" xlink:title="Check if the x, y, and possibly z coordinates would be located inside a cuboid with the patch_id&#39;s le...">
<polygon fill="white" stroke="#666666" points="322.5,-366 203.5,-366 203.5,-336 322.5,-336 322.5,-366"/>
<text text-anchor="start" x="211.5" y="-354" font-family="Helvetica,sans-Serif" font-size="10.00">m_patch_geometries</text>
<text text-anchor="middle" x="263" y="-343" font-family="Helvetica,sans-Serif" font-size="10.00">::f_is_inside_cuboid</text>
</a>
</g>
</g>
<!-- Node1&#45;&gt;Node4 -->
<g id="edge3_Node000001_Node000004" class="edge">
<title>Node1&#45;&gt;Node4</title>
<g id="a_edge3_Node000001_Node000004"><a xlink:title=" ">
<path fill="none" stroke="#63b8ff" d="M85.38,-222.28C102.59,-247.71 140.5,-298.69 185,-327 187.92,-328.86 191,-330.59 194.18,-332.18"/>
<polygon fill="#63b8ff" stroke="#63b8ff" points="192.79,-335.4 203.34,-336.36 195.69,-329.03 192.79,-335.4"/>
</a>
</g>
</g>
<!-- Node5 -->
<g id="Node000005" class="node">
<title>Node5</title>
<g id="a_Node000005"><a xlink:href="namespacem__patch__geometries.html#a4f236151439e8fe80d81a54b3300dd12" target="_top" xlink:title="Check which length of the cylinder is not default. Use that direction as the height and the other two...">
<polygon fill="white" stroke="#666666" points="322.5,-318 203.5,-318 203.5,-288 322.5,-288 322.5,-318"/>
<text text-anchor="start" x="211.5" y="-306" font-family="Helvetica,sans-Serif" font-size="10.00">m_patch_geometries</text>
<text text-anchor="middle" x="263" y="-295" font-family="Helvetica,sans-Serif" font-size="10.00">::f_is_inside_cylinder</text>
</a>
</g>
</g>
<!-- Node1&#45;&gt;Node5 -->
<g id="edge4_Node000001_Node000005" class="edge">
<title>Node1&#45;&gt;Node5</title>
<g id="a_edge4_Node000001_Node000005"><a xlink:title=" ">
<path fill="none" stroke="#63b8ff" d="M94.69,-222.03C115.82,-237.98 151.27,-263.04 185,-279 189.02,-280.9 193.24,-282.71 197.53,-284.4"/>
<polygon fill="#63b8ff" stroke="#63b8ff" points="196.42,-287.72 207.01,-287.94 198.87,-281.16 196.42,-287.72"/>
</a>
</g>
</g>
<!-- Node6 -->
<g id="Node000006" class="node">
<title>Node6</title>
<g id="a_Node000006"><a xlink:href="namespacem__patch__geometries.html#ab3f1c9d66160b9f49a9170ee2a4e2502" target="_top" xlink:title=" ">
<polygon fill="white" stroke="#666666" points="322.5,-270 203.5,-270 203.5,-240 322.5,-240 322.5,-270"/>
<text text-anchor="start" x="211.5" y="-258" font-family="Helvetica,sans-Serif" font-size="10.00">m_patch_geometries</text>
<text text-anchor="middle" x="263" y="-247" font-family="Helvetica,sans-Serif" font-size="10.00">::f_is_inside_ellipse</text>
</a>
</g>
</g>
<!-- Node1&#45;&gt;Node6 -->
<g id="edge5_Node000001_Node000006" class="edge">
<title>Node1&#45;&gt;Node6</title>
<g id="a_edge5_Node000001_Node000006"><a xlink:title=" ">
<path fill="none" stroke="#63b8ff" d="M134,-222.06C153.01,-226.95 174.26,-232.42 193.91,-237.48"/>
<polygon fill="#63b8ff" stroke="#63b8ff" points="193.15,-240.89 203.71,-240 194.9,-234.12 193.15,-240.89"/>
</a>
</g>
</g>
<!-- Node7 -->
<g id="Node000007" class="node">
<title>Node7</title>
<g id="a_Node000007"><a xlink:href="namespacem__patch__geometries.html#a057b01b6ea14457a8c272602d0cda0ba" target="_top" xlink:title="Check if the x, y, and z coordinates would be located inside a sphere with the patch_id&#39;s radius.">
<polygon fill="white" stroke="#666666" points="322.5,-222 203.5,-222 203.5,-192 322.5,-192 322.5,-222"/>
<text text-anchor="start" x="211.5" y="-210" font-family="Helvetica,sans-Serif" font-size="10.00">m_patch_geometries</text>
<text text-anchor="middle" x="263" y="-199" font-family="Helvetica,sans-Serif" font-size="10.00">::f_is_inside_sphere</text>
</a>
</g>
</g>
<!-- Node1&#45;&gt;Node7 -->
<g id="edge6_Node000001_Node000007" class="edge">
<title>Node1&#45;&gt;Node7</title>
<g id="a_edge6_Node000001_Node000007"><a xlink:title=" ">
<path fill="none" stroke="#63b8ff" d="M149.21,-207C163.71,-207 178.87,-207 193.21,-207"/>
<polygon fill="#63b8ff" stroke="#63b8ff" points="193.47,-210.5 203.47,-207 193.47,-203.5 193.47,-210.5"/>
</a>
</g>
</g>
<!-- Node8 -->
<g id="Node000008" class="node">
<title>Node8</title>
<g id="a_Node000008"><a xlink:href="namespacem__model.html#aa90c25197d99b77858e50c3f284dd6c9" target="_top" xlink:title="Determine if a point is inside a surface using the generalized winding number (Jacobson et al....">
<polygon fill="white" stroke="#666666" points="324,-174 202,-174 202,-144 324,-144 324,-174"/>
<text text-anchor="start" x="210" y="-162" font-family="Helvetica,sans-Serif" font-size="10.00">m_model::f_model_is</text>
<text text-anchor="middle" x="263" y="-151" font-family="Helvetica,sans-Serif" font-size="10.00">_inside</text>
</a>
</g>
</g>
<!-- Node1&#45;&gt;Node8 -->
<g id="edge7_Node000001_Node000008" class="edge">
<title>Node1&#45;&gt;Node8</title>
<g id="a_edge7_Node000001_Node000008"><a xlink:title=" ">
<path fill="none" stroke="#63b8ff" d="M134,-191.94C153.01,-187.05 174.26,-181.58 193.91,-176.52"/>
<polygon fill="#63b8ff" stroke="#63b8ff" points="194.9,-179.88 203.71,-174 193.15,-173.11 194.9,-179.88"/>
</a>
</g>
</g>
<!-- Node9 -->
<g id="Node000009" class="node">
<title>Node9</title>
<g id="a_Node000009"><a xlink:href="namespacem__ib__patches.html#ad85d575f53026e9fd45ae4a1448f14ab" target="_top" xlink:title=" ">
<polygon fill="white" stroke="#666666" points="341,-126 185,-126 185,-96 341,-96 341,-126"/>
<text text-anchor="start" x="193" y="-114" font-family="Helvetica,sans-Serif" font-size="10.00">m_ib_patches::get_bounding</text>
<text text-anchor="middle" x="263" y="-103" font-family="Helvetica,sans-Serif" font-size="10.00">_indices</text>
</a>
</g>
</g>
<!-- Node1&#45;&gt;Node9 -->
<g id="edge8_Node000001_Node000009" class="edge">
<title>Node1&#45;&gt;Node9</title>
<g id="a_edge8_Node000001_Node000009"><a xlink:title=" ">
<path fill="none" stroke="#63b8ff" d="M94.69,-191.97C115.82,-176.02 151.27,-150.96 185,-135 189.02,-133.1 193.24,-131.29 197.53,-129.6"/>
<polygon fill="#63b8ff" stroke="#63b8ff" points="198.87,-132.84 207.01,-126.06 196.42,-126.28 198.87,-132.84"/>
</a>
</g>
</g>
<!-- Node11 -->
<g id="Node000011" class="node">
<title>Node11</title>
<g id="a_Node000011"><a xlink:href="namespacem__ib__patches.html#aefc22ad9a7d433709711d12c2095cd21" target="_top" xlink:title="Encode the patch ID with a unique offset containing periodicity information.">
<polygon fill="white" stroke="#666666" points="331,-78 195,-78 195,-48 331,-48 331,-78"/>
<text text-anchor="start" x="203" y="-66" font-family="Helvetica,sans-Serif" font-size="10.00">m_ib_patches::s_encode</text>
<text text-anchor="middle" x="263" y="-55" font-family="Helvetica,sans-Serif" font-size="10.00">_patch_periodicity</text>
</a>
</g>
</g>
<!-- Node1&#45;&gt;Node11 -->
<g id="edge10_Node000001_Node000011" class="edge">
<title>Node1&#45;&gt;Node11</title>
<g id="a_edge10_Node000001_Node000011"><a xlink:title=" ">
<path fill="none" stroke="#63b8ff" d="M85.38,-191.72C102.59,-166.29 140.5,-115.31 185,-87 187.58,-85.36 190.27,-83.83 193.05,-82.39"/>
<polygon fill="#63b8ff" stroke="#63b8ff" points="194.56,-85.55 202.14,-78.14 191.59,-79.21 194.56,-85.55"/>
</a>
</g>
</g>
<!-- Node12 -->
<g id="Node000012" class="node">
<title>Node12</title>
<g id="a_Node000012"><a xlink:href="namespacem__ib__patches.html#acbcf356203316a9b92241180755ae03f" target="_top" xlink:title="Determine the periodic wrapping bounds in each direction.">
<polygon fill="white" stroke="#666666" points="321,-30 205,-30 205,0 321,0 321,-30"/>
<text text-anchor="start" x="213" y="-18" font-family="Helvetica,sans-Serif" font-size="10.00">m_ib_patches::s_get</text>
<text text-anchor="middle" x="263" y="-7" font-family="Helvetica,sans-Serif" font-size="10.00">_periodicities</text>
</a>
</g>
</g>
<!-- Node1&#45;&gt;Node12 -->
<g id="edge11_Node000001_Node000012" class="edge">
<title>Node1&#45;&gt;Node12</title>
<g id="a_edge11_Node000001_Node000012"><a xlink:title=" ">
<path fill="none" stroke="#63b8ff" d="M81.15,-191.94C94.23,-159.13 129.75,-80.8 185,-39 188.24,-36.55 191.73,-34.35 195.37,-32.37"/>
<polygon fill="#63b8ff" stroke="#63b8ff" points="197.2,-35.38 204.7,-27.89 194.17,-29.07 197.2,-35.38"/>
</a>
</g>
</g>
<!-- Node3 -->
<g id="Node000003" class="node">
<title>Node3</title>
<g id="a_Node000003"><a xlink:href="namespacem__helper__basic.html#a3f0eae73a833f30924d4b2665a13a429" target="_top" xlink:title="Check if two floating point numbers of wp are within tolerance.">
<polygon fill="white" stroke="#666666" points="521,-414 379,-414 379,-384 521,-384 521,-414"/>
<text text-anchor="start" x="387" y="-402" font-family="Helvetica,sans-Serif" font-size="10.00">m_helper_basic::f_approx</text>
<text text-anchor="middle" x="450" y="-391" font-family="Helvetica,sans-Serif" font-size="10.00">_equal</text>
</a>
</g>
</g>
<!-- Node2&#45;&gt;Node3 -->
<g id="edge2_Node000002_Node000003" class="edge">
<title>Node2&#45;&gt;Node3</title>
<g id="a_edge2_Node000002_Node000003"><a xlink:title=" ">
<path fill="none" stroke="#63b8ff" d="M322.54,-399C337.21,-399 353.21,-399 368.74,-399"/>
<polygon fill="#63b8ff" stroke="#63b8ff" points="368.86,-402.5 378.86,-399 368.86,-395.5 368.86,-402.5"/>
</a>
</g>
</g>
<!-- Node10 -->
<g id="Node000010" class="node">
<title>Node10</title>
<g id="a_Node000010"><a xlink:href="namespacem__ib__patches.html#a12a440228072b7e454f8b4c8dad8db27" target="_top" xlink:title=" ">
<polygon fill="white" stroke="#666666" points="523,-126 377,-126 377,-96 523,-96 523,-126"/>
<text text-anchor="start" x="385" y="-114" font-family="Helvetica,sans-Serif" font-size="10.00">m_ib_patches::get_indices</text>
<text text-anchor="middle" x="450" y="-103" font-family="Helvetica,sans-Serif" font-size="10.00">_from_bounds</text>
</a>
</g>
</g>
<!-- Node9&#45;&gt;Node10 -->
<g id="edge9_Node000009_Node000010" class="edge">
<title>Node9&#45;&gt;Node10</title>
<g id="a_edge9_Node000009_Node000010"><a xlink:title=" ">
<path fill="none" stroke="#63b8ff" d="M341.12,-111C349.5,-111 358.07,-111 366.51,-111"/>
<polygon fill="#63b8ff" stroke="#63b8ff" points="366.75,-114.5 376.75,-111 366.75,-107.5 366.75,-114.5"/>
</a>
</g>
</g>
</g>
</svg>
