<?xml version="1.0" encoding="UTF-8" standalone="no"?>
<!DOCTYPE svg PUBLIC "-//W3C//DTD SVG 1.1//EN"
 "http://www.w3.org/Graphics/SVG/1.1/DTD/svg11.dtd">
<!-- Generated by graphviz version 2.43.0 (0)
 -->
<!-- Title: m_riemann_solver_hllc::s_hllc_riemann_solver Pages: 1 -->
<!--zoomable 416 -->

<svg id="main" version="1.1" xmlns="http://www.w3.org/2000/svg" xmlns:xlink="http://www.w3.org/1999/xlink" xml:space="preserve" onload="init(evt)">

<style type="text/css"><![CDATA[
.node, .edge {opacity: 0.7;}
.node.selected, .edge.selected {opacity: 1;}
.edge:hover path { stroke: red; }
.edge:hover polygon { stroke: red; fill: red; }
]]></style>

<defs>
  <circle id="rim" cx="0" cy="0" r="7"/>
  <circle id="rim2" cx="0" cy="0" r="3.5"/>
  <g id="zoomPlus">
    <use xlink:href="#rim" fill="#404040"><set attributeName="fill" to="#808080" begin="zoomplus.mouseover" end="zoomplus.mouseout"/></use>
    <path d="M-4,0h8M0,-4v8" fill="none" stroke="white" stroke-width="1.5" pointer-events="none"/>
  </g>
  <g id="zoomMin">
    <use xlink:href="#rim" fill="#404040"><set attributeName="fill" to="#808080" begin="zoomminus.mouseover" end="zoomminus.mouseout"/></use>
    <path d="M-4,0h8" fill="none" stroke="white" stroke-width="1.5" pointer-events="none"/>
  </g>
  <g id="arrowUp" transform="translate(30 24)">
    <use xlink:href="#rim"/>
    <path pointer-events="none" fill="none" stroke="white" stroke-width="1.5" d="M0,-3.0v7 M-2.5,-0.5L0,-3.0L2.5,-0.5"/>
  </g>
  <g id="arrowRight" transform="rotate(90) translate(36 -43)">
    <use xlink:href="#rim"/>
    <path pointer-events="none" fill="none" stroke="white" stroke-width="1.5" d="M0,-3.0v7 M-2.5,-0.5L0,-3.0L2.5,-0.5"/>
  </g>
  <g id="arrowDown" transform="rotate(180) translate(-30 -48)">
    <use xlink:href="#rim"/>
    <path pointer-events="none" fill="none" stroke="white" stroke-width="1.5" d="M0,-3.0v7 M-2.5,-0.5L0,-3.0L2.5,-0.5"/>
  </g>
  <g id="arrowLeft" transform="rotate(270) translate(-36 17)">
    <use xlink:href="#rim"/>
    <path pointer-events="none" fill="none" stroke="white" stroke-width="1.5" d="M0,-3.0v7 M-2.5,-0.5L0,-3.0L2.5,-0.5"/>
  </g>
  <g id="resetDef">
    <use xlink:href="#rim2" fill="#404040"><set attributeName="fill" to="#808080" begin="reset.mouseover" end="reset.mouseout"/></use>
  </g>
</defs>
<script type="application/ecmascript">
var viewWidth = 920;
var viewHeight = 416;
var sectionId = 'dynsection-0';
</script>
<script type="application/ecmascript" xlink:href="svg.min.js"/>
<svg id="graph" class="graph">
<g id="viewport">
<title>m_riemann_solver_hllc::s_hllc_riemann_solver</title>
<!-- Node1 -->
<g id="Node000001" class="node">
<title>Node1</title>
<g id="a_Node000001"><a xlink:title="HLLC Riemann solver with contact restoration, Toro et al. Shock Waves (1994).">
<polygon fill="#999999" stroke="#666666" points="131,-220.5 0,-220.5 0,-190.5 131,-190.5 131,-220.5"/>
<text text-anchor="start" x="8" y="-208.5" font-family="Helvetica,sans-Serif" font-size="10.00">m_riemann_solver_hllc</text>
<text text-anchor="middle" x="65.5" y="-197.5" font-family="Helvetica,sans-Serif" font-size="10.00">::s_hllc_riemann_solver</text>
</a>
</g>
</g>
<!-- Node2 -->
<g id="Node000002" class="node">
<title>Node2</title>
<g id="a_Node000002"><a xlink:href="namespacem__chemistry.html#adcf7ea4e71da08b937a94689dc134882" target="_top" xlink:title="Compute mixture viscosities for left and right states and invert them for use as reciprocal Reynolds ...">
<polygon fill="white" stroke="#666666" points="320,-407.5 181,-407.5 181,-377.5 320,-377.5 320,-407.5"/>
<text text-anchor="start" x="189" y="-395.5" font-family="Helvetica,sans-Serif" font-size="10.00">m_chemistry::compute</text>
<text text-anchor="middle" x="250.5" y="-384.5" font-family="Helvetica,sans-Serif" font-size="10.00">_viscosity_and_inversion</text>
</a>
</g>
</g>
<!-- Node1&#45;&gt;Node2 -->
<g id="edge1_Node000001_Node000002" class="edge">
<title>Node1&#45;&gt;Node2</title>
<g id="a_edge1_Node000001_Node000002"><a xlink:title=" ">
<path fill="none" stroke="#63b8ff" d="M71.57,-220.67C83.15,-252.93 114.62,-328.63 167,-368.5 168.83,-369.89 170.74,-371.21 172.72,-372.45"/>
<polygon fill="#63b8ff" stroke="#63b8ff" points="171.28,-375.65 181.73,-377.4 174.65,-369.51 171.28,-375.65"/>
</a>
</g>
</g>
<!-- Node3 -->
<g id="Node000003" class="node">
<title>Node3</title>
<g id="a_Node000003"><a xlink:href="namespacem__bubbles.html#a81ceea09547775d9e7e50dbd6bf7386f" target="_top" xlink:title="Keller&#45;Miksis bubble wall pressure.">
<polygon fill="white" stroke="#666666" points="316,-341 185,-341 185,-322 316,-322 316,-341"/>
<text text-anchor="middle" x="250.5" y="-329" font-family="Helvetica,sans-Serif" font-size="10.00">m_bubbles::f_cpbw_km</text>
</a>
</g>
</g>
<!-- Node1&#45;&gt;Node3 -->
<g id="edge2_Node000001_Node000003" class="edge">
<title>Node1&#45;&gt;Node3</title>
<g id="a_edge2_Node000001_Node000003"><a xlink:title=" ">
<path fill="none" stroke="#63b8ff" d="M76.16,-220.79C92.05,-244.58 126.06,-290.16 167,-313.5 170.09,-315.26 173.33,-316.85 176.67,-318.28"/>
<polygon fill="#63b8ff" stroke="#63b8ff" points="175.7,-321.66 186.29,-321.92 178.18,-315.11 175.7,-321.66"/>
</a>
</g>
</g>
<!-- Node6 -->
<g id="Node000006" class="node">
<title>Node6</title>
<g id="a_Node000006"><a xlink:href="namespacem__surface__tension.html#ac5b0e91c15b69b26098a4310a0c5a54a" target="_top" xlink:title="Compute the capillary source flux from reconstructed color&#45;gradient fields.">
<polygon fill="white" stroke="#666666" points="309,-304 192,-304 192,-263 309,-263 309,-304"/>
<text text-anchor="start" x="200" y="-292" font-family="Helvetica,sans-Serif" font-size="10.00">m_surface_tension::</text>
<text text-anchor="start" x="200" y="-281" font-family="Helvetica,sans-Serif" font-size="10.00">s_compute_capillary</text>
<text text-anchor="middle" x="250.5" y="-270" font-family="Helvetica,sans-Serif" font-size="10.00">_source_flux</text>
</a>
</g>
</g>
<!-- Node1&#45;&gt;Node6 -->
<g id="edge6_Node000001_Node000006" class="edge">
<title>Node1&#45;&gt;Node6</title>
<g id="a_edge6_Node000001_Node000006"><a xlink:title=" ">
<path fill="none" stroke="#63b8ff" d="M96.06,-220.55C115.9,-230.42 142.75,-243.33 167,-253.5 172.01,-255.6 177.22,-257.7 182.48,-259.75"/>
<polygon fill="#63b8ff" stroke="#63b8ff" points="181.38,-263.08 191.97,-263.39 183.89,-256.54 181.38,-263.08"/>
</a>
</g>
</g>
<!-- Node7 -->
<g id="Node000007" class="node">
<title>Node7</title>
<g id="a_Node000007"><a xlink:href="namespacem__variables__conversion.html#a2592c29f5aae1605bdcf12dcf6315748" target="_top" xlink:title="Compute the speed of sound from thermodynamic state variables, supporting multiple equation&#45;of&#45;state ...">
<polygon fill="white" stroke="#666666" points="330.5,-244.5 170.5,-244.5 170.5,-214.5 330.5,-214.5 330.5,-244.5"/>
<text text-anchor="start" x="178.5" y="-232.5" font-family="Helvetica,sans-Serif" font-size="10.00">m_variables_conversion</text>
<text text-anchor="middle" x="250.5" y="-221.5" font-family="Helvetica,sans-Serif" font-size="10.00">::s_compute_speed_of_sound</text>
</a>
</g>
</g>
<!-- Node1&#45;&gt;Node7 -->
<g id="edge7_Node000001_Node000007" class="edge">
<title>Node1&#45;&gt;Node7</title>
<g id="a_edge7_Node000001_Node000007"><a xlink:title=" ">
<path fill="none" stroke="#63b8ff" d="M131.02,-213.96C140.59,-215.22 150.59,-216.53 160.55,-217.83"/>
<polygon fill="#63b8ff" stroke="#63b8ff" points="160.11,-221.31 170.48,-219.14 161.02,-214.37 160.11,-221.31"/>
</a>
</g>
</g>
<!-- Node8 -->
<g id="Node000008" class="node">
<title>Node8</title>
<g id="a_Node000008"><a xlink:href="namespacem__riemann__state.html#a4c00741a75787e5e7350139235baea51" target="_top" xlink:title="Dispatch to the subroutines that are utilized to compute the viscous source fluxes for either Cartesi...">
<polygon fill="white" stroke="#666666" points="334,-196.5 167,-196.5 167,-166.5 334,-166.5 334,-196.5"/>
<text text-anchor="start" x="175" y="-184.5" font-family="Helvetica,sans-Serif" font-size="10.00">m_riemann_state::s</text>
<text text-anchor="middle" x="250.5" y="-173.5" font-family="Helvetica,sans-Serif" font-size="10.00">_compute_viscous_source_flux</text>
</a>
</g>
</g>
<!-- Node1&#45;&gt;Node8 -->
<g id="edge8_Node000001_Node000008" class="edge">
<title>Node1&#45;&gt;Node8</title>
<g id="a_edge8_Node000001_Node000008"><a xlink:title=" ">
<path fill="none" stroke="#63b8ff" d="M131.02,-197.04C139.47,-195.93 148.25,-194.78 157.05,-193.62"/>
<polygon fill="#63b8ff" stroke="#63b8ff" points="157.51,-197.09 166.97,-192.32 156.6,-190.15 157.51,-197.09"/>
</a>
</g>
</g>
<!-- Node16 -->
<g id="Node000016" class="node">
<title>Node16</title>
<g id="a_Node000016"><a xlink:href="namespacem__riemann__state.html#aa4a8e893633d8b7c01435f5e20b32de3" target="_top" xlink:title="Deallocation and/or disassociation procedures that are needed to finalize the selected Riemann proble...">
<polygon fill="white" stroke="#666666" points="319.5,-148.5 181.5,-148.5 181.5,-118.5 319.5,-118.5 319.5,-148.5"/>
<text text-anchor="start" x="189.5" y="-136.5" font-family="Helvetica,sans-Serif" font-size="10.00">m_riemann_state::s</text>
<text text-anchor="middle" x="250.5" y="-125.5" font-family="Helvetica,sans-Serif" font-size="10.00">_finalize_riemann_solver</text>
</a>
</g>
</g>
<!-- Node1&#45;&gt;Node16 -->
<g id="edge18_Node000001_Node000016" class="edge">
<title>Node1&#45;&gt;Node16</title>
<g id="a_edge18_Node000001_Node000016"><a xlink:title=" ">
<path fill="none" stroke="#63b8ff" d="M94.98,-190.37C114.81,-180.21 142.07,-167.01 167,-157.5 172.36,-155.46 177.97,-153.49 183.63,-151.61"/>
<polygon fill="#63b8ff" stroke="#63b8ff" points="184.72,-154.94 193.18,-148.55 182.59,-148.27 184.72,-154.94"/>
</a>
</g>
</g>
<!-- Node17 -->
<g id="Node000017" class="node">
<title>Node17</title>
<g id="a_Node000017"><a xlink:href="namespacem__riemann__state.html#a45a19c4d543571bb46370fc4468300ab" target="_top" xlink:title="Set up the chosen Riemann solver algorithm for the current direction.">
<polygon fill="white" stroke="#666666" points="307,-100 194,-100 194,-59 307,-59 307,-100"/>
<text text-anchor="start" x="202" y="-88" font-family="Helvetica,sans-Serif" font-size="10.00">m_riemann_state::s</text>
<text text-anchor="start" x="202" y="-77" font-family="Helvetica,sans-Serif" font-size="10.00">_initialize_riemann</text>
<text text-anchor="middle" x="250.5" y="-66" font-family="Helvetica,sans-Serif" font-size="10.00">_solver</text>
</a>
</g>
</g>
<!-- Node1&#45;&gt;Node17 -->
<g id="edge19_Node000001_Node000017" class="edge">
<title>Node1&#45;&gt;Node17</title>
<g id="a_edge19_Node000001_Node000017"><a xlink:title=" ">
<path fill="none" stroke="#63b8ff" d="M78.94,-190.15C96.56,-169.3 130.72,-132.03 167,-109.5 172.44,-106.12 178.31,-103.05 184.33,-100.26"/>
<polygon fill="#63b8ff" stroke="#63b8ff" points="186.09,-103.32 193.87,-96.13 183.31,-96.89 186.09,-103.32"/>
</a>
</g>
</g>
<!-- Node18 -->
<g id="Node000018" class="node">
<title>Node18</title>
<g id="a_Node000018"><a xlink:href="namespacem__riemann__state.html#a579b60e182e8fc49410c6bd525872526" target="_top" xlink:title="Populate the left and right Riemann state variable buffers based on boundary conditions.">
<polygon fill="white" stroke="#666666" points="323.5,-41 177.5,-41 177.5,0 323.5,0 323.5,-41"/>
<text text-anchor="start" x="185.5" y="-29" font-family="Helvetica,sans-Serif" font-size="10.00">m_riemann_state::s</text>
<text text-anchor="start" x="185.5" y="-18" font-family="Helvetica,sans-Serif" font-size="10.00">_populate_riemann_states</text>
<text text-anchor="middle" x="250.5" y="-7" font-family="Helvetica,sans-Serif" font-size="10.00">_variables_buffers</text>
</a>
</g>
</g>
<!-- Node1&#45;&gt;Node18 -->
<g id="edge20_Node000001_Node000018" class="edge">
<title>Node1&#45;&gt;Node18</title>
<g id="a_edge20_Node000001_Node000018"><a xlink:title=" ">
<path fill="none" stroke="#63b8ff" d="M72.31,-190.26C84.86,-159.28 117.44,-88.63 167,-49.5 168.35,-48.43 169.75,-47.4 171.18,-46.41"/>
<polygon fill="#63b8ff" stroke="#63b8ff" points="173.06,-49.36 179.71,-41.11 169.37,-43.41 173.06,-49.36"/>
</a>
</g>
</g>
<!-- Node3&#45;&gt;Node3 -->
<g id="edge3_Node000003_Node000003" class="edge">
<title>Node3&#45;&gt;Node3</title>
<g id="a_edge3_Node000003_Node000003"><a xlink:title=" ">
<path fill="none" stroke="#63b8ff" d="M222.14,-341.08C208.34,-349.73 217.8,-359 250.5,-359 272.98,-359 284.48,-354.62 284.98,-349.07"/>
<polygon fill="#63b8ff" stroke="#63b8ff" points="287.72,-346.89 278.86,-341.08 282.16,-351.15 287.72,-346.89"/>
</a>
</g>
</g>
<!-- Node4 -->
<g id="Node000004" class="node">
<title>Node4</title>
<g id="a_Node000004"><a xlink:href="namespacem__helper__basic.html#af1b06a05daa43f724ac3b0ff2f97db14" target="_top" xlink:title="Checks if a real(wp) variable is of default value.">
<polygon fill="white" stroke="#666666" points="506.5,-346.5 390.5,-346.5 390.5,-316.5 506.5,-316.5 506.5,-346.5"/>
<text text-anchor="start" x="398.5" y="-334.5" font-family="Helvetica,sans-Serif" font-size="10.00">m_helper_basic::f_is</text>
<text text-anchor="middle" x="448.5" y="-323.5" font-family="Helvetica,sans-Serif" font-size="10.00">_default</text>
</a>
</g>
</g>
<!-- Node3&#45;&gt;Node4 -->
<g id="edge4_Node000003_Node000004" class="edge">
<title>Node3&#45;&gt;Node4</title>
<g id="a_edge4_Node000003_Node000004"><a xlink:title=" ">
<path fill="none" stroke="#63b8ff" d="M316.22,-331.5C336.82,-331.5 359.65,-331.5 380.42,-331.5"/>
<polygon fill="#63b8ff" stroke="#63b8ff" points="380.43,-335 390.43,-331.5 380.43,-328 380.43,-335"/>
</a>
</g>
</g>
<!-- Node5 -->
<g id="Node000005" class="node">
<title>Node5</title>
<g id="a_Node000005"><a xlink:href="namespacem__helper__basic.html#a3f0eae73a833f30924d4b2665a13a429" target="_top" xlink:title="Check if two floating point numbers of wp are within tolerance.">
<polygon fill="white" stroke="#666666" points="717.5,-346.5 575.5,-346.5 575.5,-316.5 717.5,-316.5 717.5,-346.5"/>
<text text-anchor="start" x="583.5" y="-334.5" font-family="Helvetica,sans-Serif" font-size="10.00">m_helper_basic::f_approx</text>
<text text-anchor="middle" x="646.5" y="-323.5" font-family="Helvetica,sans-Serif" font-size="10.00">_equal</text>
</a>
</g>
</g>
<!-- Node4&#45;&gt;Node5 -->
<g id="edge5_Node000004_Node000005" class="edge">
<title>Node4&#45;&gt;Node5</title>
<g id="a_edge5_Node000004_Node000005"><a xlink:title=" ">
<path fill="none" stroke="#63b8ff" d="M506.72,-331.5C525,-331.5 545.59,-331.5 565.2,-331.5"/>
<polygon fill="#63b8ff" stroke="#63b8ff" points="565.34,-335 575.34,-331.5 565.34,-328 565.34,-335"/>
</a>
</g>
</g>
<!-- Node9 -->
<g id="Node000009" class="node">
<title>Node9</title>
<g id="a_Node000009"><a xlink:href="namespacem__riemann__state.html#ab4931552a5a57318bc6e60a6cd732416" target="_top" xlink:title="Compute Cartesian viscous source flux contributions for momentum and energy.">
<polygon fill="white" stroke="#666666" points="527,-211 370,-211 370,-170 527,-170 527,-211"/>
<text text-anchor="start" x="378" y="-199" font-family="Helvetica,sans-Serif" font-size="10.00">m_riemann_state::s</text>
<text text-anchor="start" x="378" y="-188" font-family="Helvetica,sans-Serif" font-size="10.00">_compute_cartesian_viscous</text>
<text text-anchor="middle" x="448.5" y="-177" font-family="Helvetica,sans-Serif" font-size="10.00">_source_flux</text>
</a>
</g>
</g>
<!-- Node8&#45;&gt;Node9 -->
<g id="edge9_Node000008_Node000009" class="edge">
<title>Node8&#45;&gt;Node9</title>
<g id="a_edge9_Node000008_Node000009"><a xlink:title=" ">
<path fill="none" stroke="#63b8ff" d="M334.05,-185.29C342.46,-185.68 351.02,-186.07 359.48,-186.46"/>
<polygon fill="#63b8ff" stroke="#63b8ff" points="359.58,-189.97 369.73,-186.93 359.9,-182.97 359.58,-189.97"/>
</a>
</g>
</g>
<!-- Node15 -->
<g id="Node000015" class="node">
<title>Node15</title>
<g id="a_Node000015"><a xlink:href="namespacem__riemann__state.html#ad5d1bfd233543b5d68d9350bb47bdb19" target="_top" xlink:title="Compute cylindrical viscous source flux contributions for momentum and energy.">
<polygon fill="white" stroke="#666666" points="508.5,-152 388.5,-152 388.5,-111 508.5,-111 508.5,-152"/>
<text text-anchor="start" x="396.5" y="-140" font-family="Helvetica,sans-Serif" font-size="10.00">m_riemann_state::s</text>
<text text-anchor="start" x="396.5" y="-129" font-family="Helvetica,sans-Serif" font-size="10.00">_compute_cylindrical</text>
<text text-anchor="middle" x="448.5" y="-118" font-family="Helvetica,sans-Serif" font-size="10.00">_viscous_source_flux</text>
</a>
</g>
</g>
<!-- Node8&#45;&gt;Node15 -->
<g id="edge15_Node000008_Node000015" class="edge">
<title>Node8&#45;&gt;Node15</title>
<g id="a_edge15_Node000008_Node000015"><a xlink:title=" ">
<path fill="none" stroke="#63b8ff" d="M310.31,-166.5C331.82,-161.01 356.35,-154.75 378.65,-149.06"/>
<polygon fill="#63b8ff" stroke="#63b8ff" points="379.57,-152.44 388.4,-146.58 377.84,-145.66 379.57,-152.44"/>
</a>
</g>
</g>
<!-- Node10 -->
<g id="Node000010" class="node">
<title>Node10</title>
<g id="a_Node000010"><a xlink:href="namespacem__hb__function.html#a22055fe935f86d8cdd024dc56d132d49" target="_top" xlink:title="Shear rate gamma_dot = sqrt(2 D_ij D_ij). Absent dims pass 0.">
<polygon fill="white" stroke="#666666" points="730,-113.5 563,-113.5 563,-83.5 730,-83.5 730,-113.5"/>
<text text-anchor="start" x="571" y="-101.5" font-family="Helvetica,sans-Serif" font-size="10.00">m_hb_function::f_compute</text>
<text text-anchor="middle" x="646.5" y="-90.5" font-family="Helvetica,sans-Serif" font-size="10.00">_shear_rate_from_components</text>
</a>
</g>
</g>
<!-- Node9&#45;&gt;Node10 -->
<g id="edge10_Node000009_Node000010" class="edge">
<title>Node9&#45;&gt;Node10</title>
<g id="a_edge10_Node000009_Node000010"><a xlink:title=" ">
<path fill="none" stroke="#63b8ff" d="M512.53,-169.85C517.58,-167.33 522.47,-164.55 527,-161.5 546.58,-148.34 542.94,-134.91 563,-122.5 565.79,-120.77 568.71,-119.17 571.72,-117.67"/>
<polygon fill="#63b8ff" stroke="#63b8ff" points="573.27,-120.81 580.96,-113.51 570.4,-114.42 573.27,-120.81"/>
</a>
</g>
</g>
<!-- Node11 -->
<g id="Node000011" class="node">
<title>Node11</title>
<g id="a_Node000011"><a xlink:href="namespacem__riemann__state.html#aeabea1342b71ceb194d547cc48de4327" target="_top" xlink:title="Compute bulk stress tensor components (diagonal only).">
<polygon fill="white" stroke="#666666" points="710,-221 583,-221 583,-180 710,-180 710,-221"/>
<text text-anchor="start" x="591" y="-209" font-family="Helvetica,sans-Serif" font-size="10.00">m_riemann_state::s</text>
<text text-anchor="start" x="591" y="-198" font-family="Helvetica,sans-Serif" font-size="10.00">_calculate_bulk_stress</text>
<text text-anchor="middle" x="646.5" y="-187" font-family="Helvetica,sans-Serif" font-size="10.00">_tensor</text>
</a>
</g>
</g>
<!-- Node9&#45;&gt;Node11 -->
<g id="edge11_Node000009_Node000011" class="edge">
<title>Node9&#45;&gt;Node11</title>
<g id="a_edge11_Node000009_Node000011"><a xlink:title=" ">
<path fill="none" stroke="#63b8ff" d="M527.25,-194.47C542.27,-195.23 557.96,-196.03 572.81,-196.79"/>
<polygon fill="#63b8ff" stroke="#63b8ff" points="572.78,-200.29 582.94,-197.31 573.13,-193.3 572.78,-200.29"/>
</a>
</g>
</g>
<!-- Node12 -->
<g id="Node000012" class="node">
<title>Node12</title>
<g id="a_Node000012"><a xlink:href="namespacem__riemann__state.html#aec447bec43e7d39a55cd98722db22fc3" target="_top" xlink:title="Compute shear stress tensor components.">
<polygon fill="white" stroke="#666666" points="713,-280 580,-280 580,-239 713,-239 713,-280"/>
<text text-anchor="start" x="588" y="-268" font-family="Helvetica,sans-Serif" font-size="10.00">m_riemann_state::s</text>
<text text-anchor="start" x="588" y="-257" font-family="Helvetica,sans-Serif" font-size="10.00">_calculate_shear_stress</text>
<text text-anchor="middle" x="646.5" y="-246" font-family="Helvetica,sans-Serif" font-size="10.00">_tensor</text>
</a>
</g>
</g>
<!-- Node9&#45;&gt;Node12 -->
<g id="edge12_Node000009_Node000012" class="edge">
<title>Node9&#45;&gt;Node12</title>
<g id="a_edge12_Node000009_Node000012"><a xlink:title=" ">
<path fill="none" stroke="#63b8ff" d="M507.82,-211.06C525.54,-217.31 545.07,-224.19 563,-230.5 567.59,-232.12 572.33,-233.78 577.1,-235.46"/>
<polygon fill="#63b8ff" stroke="#63b8ff" points="576.31,-238.89 586.91,-238.91 578.64,-232.29 576.31,-238.89"/>
</a>
</g>
</g>
<!-- Node13 -->
<g id="Node000013" class="node">
<title>Node13</title>
<g id="a_Node000013"><a xlink:href="namespacem__hb__function.html#a1a133944770e30a8be41c77d13b2f932" target="_top" xlink:title="Mixture inverse Reynolds (= 1/mu_mix) per direction (1=shear, 2=bulk) at one state....">
<polygon fill="white" stroke="#666666" points="720.5,-161.5 572.5,-161.5 572.5,-131.5 720.5,-131.5 720.5,-161.5"/>
<text text-anchor="start" x="580.5" y="-149.5" font-family="Helvetica,sans-Serif" font-size="10.00">m_hb_function::s_compute</text>
<text text-anchor="middle" x="646.5" y="-138.5" font-family="Helvetica,sans-Serif" font-size="10.00">_mixture_inv_re</text>
</a>
</g>
</g>
<!-- Node9&#45;&gt;Node13 -->
<g id="edge13_Node000009_Node000013" class="edge">
<title>Node9&#45;&gt;Node13</title>
<g id="a_edge13_Node000009_Node000013"><a xlink:title=" ">
<path fill="none" stroke="#63b8ff" d="M527.25,-173.05C540.92,-169.98 555.15,-166.78 568.79,-163.72"/>
<polygon fill="#63b8ff" stroke="#63b8ff" points="569.62,-167.12 578.61,-161.52 568.09,-160.29 569.62,-167.12"/>
</a>
</g>
</g>
<!-- Node14 -->
<g id="Node000014" class="node">
<title>Node14</title>
<g id="a_Node000014"><a xlink:href="namespacem__hb__function.html#a802ddd8c13f4153ce4600e7934e95ee5" target="_top" xlink:title="Papanastasiou&#45;regularized Herschel&#45;Bulkley viscosity.">
<polygon fill="white" stroke="#666666" points="912,-161.5 766,-161.5 766,-131.5 912,-131.5 912,-161.5"/>
<text text-anchor="start" x="774" y="-149.5" font-family="Helvetica,sans-Serif" font-size="10.00">m_hb_function::f_compute</text>
<text text-anchor="middle" x="839" y="-138.5" font-family="Helvetica,sans-Serif" font-size="10.00">_hb_viscosity</text>
</a>
</g>
</g>
<!-- Node13&#45;&gt;Node14 -->
<g id="edge14_Node000013_Node000014" class="edge">
<title>Node13&#45;&gt;Node14</title>
<g id="a_edge14_Node000013_Node000014"><a xlink:title=" ">
<path fill="none" stroke="#63b8ff" d="M720.61,-146.5C732.05,-146.5 743.94,-146.5 755.58,-146.5"/>
<polygon fill="#63b8ff" stroke="#63b8ff" points="755.72,-150 765.72,-146.5 755.72,-143 755.72,-150"/>
</a>
</g>
</g>
<!-- Node15&#45;&gt;Node10 -->
<g id="edge16_Node000015_Node000010" class="edge">
<title>Node15&#45;&gt;Node10</title>
<g id="a_edge16_Node000015_Node000010"><a xlink:title=" ">
<path fill="none" stroke="#63b8ff" d="M508.57,-121.55C522.4,-119.23 537.46,-116.69 552.38,-114.18"/>
<polygon fill="#63b8ff" stroke="#63b8ff" points="553.38,-117.56 562.66,-112.45 552.22,-110.66 553.38,-117.56"/>
</a>
</g>
</g>
<!-- Node15&#45;&gt;Node13 -->
<g id="edge17_Node000015_Node000013" class="edge">
<title>Node15&#45;&gt;Node13</title>
<g id="a_edge17_Node000015_Node000013"><a xlink:title=" ">
<path fill="none" stroke="#63b8ff" d="M508.57,-136.02C525.42,-137.31 544.11,-138.74 562.12,-140.12"/>
<polygon fill="#63b8ff" stroke="#63b8ff" points="562.09,-143.63 572.33,-140.9 562.62,-136.65 562.09,-143.63"/>
</a>
</g>
</g>
</g>
</svg>

<g id="navigator" transform="translate(0 0)" fill="#404254">
  <rect fill="#f2f5e9" fill-opacity="0.5" stroke="#606060" stroke-width=".5" x="0" y="0" width="60" height="60"/>
  <use id="zoomplus" xlink:href="#zoomPlus" x="17" y="9" onmousedown="handleZoom(evt,'in')"/>
  <use id="zoomminus" xlink:href="#zoomMin" x="42" y="9" onmousedown="handleZoom(evt,'out')"/>
  <use id="reset" xlink:href="#resetDef" x="30" y="36" onmousedown="handleReset()"/>
   <use id="arrowup" xlink:href="#arrowUp" x="0" y="0" onmousedown="handlePan(0,-1)"/>
  <use id="arrowright" xlink:href="#arrowRight" x="0" y="0" onmousedown="handlePan(1,0)"/>
  <use id="arrowdown" xlink:href="#arrowDown" x="0" y="0" onmousedown="handlePan(0,1)"/>
  <use id="arrowleft" xlink:href="#arrowLeft" x="0" y="0" onmousedown="handlePan(-1,0)"/>
</g>
<svg viewBox="0 0 15 15" width="100%" height="30px" preserveAspectRatio="xMaxYMin meet">
 <g id="arrow_out" transform="scale(0.3 0.3)">
  <a xlink:href="namespacem__riemann__solver__hllc_a1aa7ec60f1cdf82447547835d45e1021_cgraph_org.svg" target="_base">
   <rect id="button" ry="5" rx="5" y="6" x="6" height="38" width="38"
        fill="#f2f5e9" fill-opacity="0.5" stroke="#606060" stroke-width="1.0"/>
   <path id="arrow"
     d="M 11.500037,31.436501 C 11.940474,20.09759 22.043105,11.32322 32.158766,21.979434 L 37.068811,17.246167 C 37.068811,17.246167 37.088388,32 37.088388,32 L 22.160133,31.978069 C 22.160133,31.978069 26.997745,27.140456 26.997745,27.140456 C 18.528582,18.264221 13.291696,25.230495 11.500037,31.436501 z"
     style="fill:#404040;"/>
  </a>
 </g>
</svg>

<style type='text/css'>
<![CDATA[
[data-mouse-over-selected='false'] { opacity: 0.7; }
[data-mouse-over-selected='true']  { opacity: 1.0; }
]]>
</style>
<script type="application/ecmascript"><![CDATA[
document.addEventListener('DOMContentLoaded', (event) => {
  highlightEdges();
  highlightAdjacentNodes();
});
]]></script>
</svg>
