<?xml version="1.0" encoding="UTF-8" standalone="no"?>
<!DOCTYPE svg PUBLIC "-//W3C//DTD SVG 1.1//EN"
 "http://www.w3.org/Graphics/SVG/1.1/DTD/svg11.dtd">
<!-- Generated by graphviz version 2.43.0 (0)
 -->
<!-- Title: m_helper_basic::f_is_default Pages: 1 -->
<!--zoomable 858 -->

<svg id="main" version="1.1" xmlns="http://www.w3.org/2000/svg" xmlns:xlink="http://www.w3.org/1999/xlink" xml:space="preserve" onload="init(evt)">

<style type="text/css"><![CDATA[
.node, .edge {opacity: 0.7;}
.node.selected, .edge.selected {opacity: 1;}
.edge:hover path { stroke: red; }
.edge:hover polygon { stroke: red; fill: red; }
]]></style>

<defs>
  <circle id="rim" cx="0" cy="0" r="7"/>
  <circle id="rim2" cx="0" cy="0" r="3.5"/>
  <g id="zoomPlus">
    <use xlink:href="#rim" fill="#404040"><set attributeName="fill" to="#808080" begin="zoomplus.mouseover" end="zoomplus.mouseout"/></use>
    <path d="M-4,0h8M0,-4v8" fill="none" stroke="white" stroke-width="1.5" pointer-events="none"/>
  </g>
  <g id="zoomMin">
    <use xlink:href="#rim" fill="#404040"><set attributeName="fill" to="#808080" begin="zoomminus.mouseover" end="zoomminus.mouseout"/></use>
    <path d="M-4,0h8" fill="none" stroke="white" stroke-width="1.5" pointer-events="none"/>
  </g>
  <g id="arrowUp" transform="translate(30 24)">
    <use xlink:href="#rim"/>
    <path pointer-events="none" fill="none" stroke="white" stroke-width="1.5" d="M0,-3.0v7 M-2.5,-0.5L0,-3.0L2.5,-0.5"/>
  </g>
  <g id="arrowRight" transform="rotate(90) translate(36 -43)">
    <use xlink:href="#rim"/>
    <path pointer-events="none" fill="none" stroke="white" stroke-width="1.5" d="M0,-3.0v7 M-2.5,-0.5L0,-3.0L2.5,-0.5"/>
  </g>
  <g id="arrowDown" transform="rotate(180) translate(-30 -48)">
    <use xlink:href="#rim"/>
    <path pointer-events="none" fill="none" stroke="white" stroke-width="1.5" d="M0,-3.0v7 M-2.5,-0.5L0,-3.0L2.5,-0.5"/>
  </g>
  <g id="arrowLeft" transform="rotate(270) translate(-36 17)">
    <use xlink:href="#rim"/>
    <path pointer-events="none" fill="none" stroke="white" stroke-width="1.5" d="M0,-3.0v7 M-2.5,-0.5L0,-3.0L2.5,-0.5"/>
  </g>
  <g id="resetDef">
    <use xlink:href="#rim2" fill="#404040"><set attributeName="fill" to="#808080" begin="reset.mouseover" end="reset.mouseout"/></use>
  </g>
</defs>
<script type="application/ecmascript">
var viewWidth = 932;
var viewHeight = 858;
var sectionId = 'dynsection-4';
</script>
<script type="application/ecmascript" xlink:href="svg.min.js"/>
<svg id="graph" class="graph">
<g id="viewport">
<title>m_helper_basic::f_is_default</title>
<!-- Node1 -->
<g id="Node000001" class="node">
<title>Node1</title>
<g id="a_Node000001"><a xlink:title="Checks if a real(wp) variable is of default value.">
<polygon fill="#999999" stroke="#666666" points="924,-439 808,-439 808,-409 924,-409 924,-439"/>
<text text-anchor="start" x="816" y="-427" font-family="Helvetica,sans-Serif" font-size="10.00">m_helper_basic::f_is</text>
<text text-anchor="middle" x="866" y="-416" font-family="Helvetica,sans-Serif" font-size="10.00">_default</text>
</a>
</g>
</g>
<!-- Node2 -->
<g id="Node000002" class="node">
<title>Node2</title>
<g id="a_Node000002"><a xlink:href="namespacem__helper__basic.html#a35696604e5c3c1eda9a1fcdfca99de4f" target="_top" xlink:title="Checks if ALL elements of a real(wp) array are of default value.">
<polygon fill="white" stroke="#666666" points="752.5,-850 632.5,-850 632.5,-820 752.5,-820 752.5,-850"/>
<text text-anchor="start" x="640.5" y="-838" font-family="Helvetica,sans-Serif" font-size="10.00">m_helper_basic::f_all</text>
<text text-anchor="middle" x="692.5" y="-827" font-family="Helvetica,sans-Serif" font-size="10.00">_default</text>
</a>
</g>
</g>
<!-- Node1&#45;&gt;Node2 -->
<g id="edge1_Node000001_Node000002" class="edge">
<title>Node1&#45;&gt;Node2</title>
<g id="a_edge1_Node000001_Node000002"><a xlink:title=" ">
<path fill="none" stroke="#63b8ff" d="M862.16,-449.56C853.05,-527.11 822.21,-757.64 772,-811 766.63,-816.71 759.94,-821.07 752.75,-824.4"/>
<polygon fill="#63b8ff" stroke="#63b8ff" points="865.68,-449.61 863.35,-439.27 858.72,-448.8 865.68,-449.61"/>
</a>
</g>
</g>
<!-- Node3 -->
<g id="Node000003" class="node">
<title>Node3</title>
<g id="a_Node000003"><a xlink:href="namespacem__bubbles.html#ac1068c3570e6fe9ee995e53786e0b9a6" target="_top" xlink:title="Function that computes the bubble wall pressure for Keller–Miksis bubbles.">
<polygon fill="white" stroke="#666666" points="758,-728.5 627,-728.5 627,-709.5 758,-709.5 758,-728.5"/>
<text text-anchor="middle" x="692.5" y="-716.5" font-family="Helvetica,sans-Serif" font-size="10.00">m_bubbles::f_cpbw_km</text>
</a>
</g>
</g>
<!-- Node1&#45;&gt;Node3 -->
<g id="edge2_Node000001_Node000003" class="edge">
<title>Node1&#45;&gt;Node3</title>
<g id="a_edge2_Node000001_Node000003"><a xlink:title=" ">
<path fill="none" stroke="#63b8ff" d="M864.23,-449.39C861.14,-503.82 845.95,-632.26 772,-700 767.86,-703.79 763.1,-706.86 758.02,-709.34"/>
<polygon fill="#63b8ff" stroke="#63b8ff" points="867.73,-449.39 864.71,-439.24 860.74,-449.06 867.73,-449.39"/>
</a>
</g>
</g>
<!-- Node10 -->
<g id="Node000010" class="node">
<title>Node10</title>
<g id="a_Node000010"><a xlink:href="namespacem__bubbles.html#a478bd3280dc598dba9894451cdb3c73c" target="_top" xlink:title="Function that computes the bubble radial acceleration for Keller–Miksis bubbles.">
<polygon fill="white" stroke="#666666" points="758,-783.5 627,-783.5 627,-764.5 758,-764.5 758,-783.5"/>
<text text-anchor="middle" x="692.5" y="-771.5" font-family="Helvetica,sans-Serif" font-size="10.00">m_bubbles::f_rddot_km</text>
</a>
</g>
</g>
<!-- Node1&#45;&gt;Node10 -->
<g id="edge12_Node000001_Node000010" class="edge">
<title>Node1&#45;&gt;Node10</title>
<g id="a_edge12_Node000001_Node000010"><a xlink:title=" ">
<path fill="none" stroke="#63b8ff" d="M861.3,-449.27C850.56,-519.19 817.24,-712.87 772,-756 767.95,-759.86 763.25,-762.95 758.2,-765.42"/>
<polygon fill="#63b8ff" stroke="#63b8ff" points="864.79,-449.57 862.83,-439.15 857.87,-448.52 864.79,-449.57"/>
</a>
</g>
</g>
<!-- Node11 -->
<g id="Node000011" class="node">
<title>Node11</title>
<g id="a_Node000011"><a xlink:href="namespacem__checker.html#ae53e7ca604c26ab0fe74b9043602d4fd" target="_top" xlink:title="Checks constraints on acoustic_source parameters.">
<polygon fill="white" stroke="#666666" points="751,-691 634,-691 634,-661 751,-661 751,-691"/>
<text text-anchor="start" x="642" y="-679" font-family="Helvetica,sans-Serif" font-size="10.00">m_checker::s_check</text>
<text text-anchor="middle" x="692.5" y="-668" font-family="Helvetica,sans-Serif" font-size="10.00">_inputs_acoustic_src</text>
</a>
</g>
</g>
<!-- Node1&#45;&gt;Node11 -->
<g id="edge15_Node000001_Node000011" class="edge">
<title>Node1&#45;&gt;Node11</title>
<g id="a_edge15_Node000001_Node000011"><a xlink:title=" ">
<path fill="none" stroke="#63b8ff" d="M861.84,-449.17C854.64,-495.97 832.64,-596.62 772,-652 766,-657.48 758.78,-661.71 751.18,-664.97"/>
<polygon fill="#63b8ff" stroke="#63b8ff" points="865.35,-449.4 863.3,-439.01 858.42,-448.41 865.35,-449.4"/>
</a>
</g>
</g>
<!-- Node16 -->
<g id="Node000016" class="node">
<title>Node16</title>
<g id="a_Node000016"><a xlink:href="namespacem__checker.html#a3c394d83ae91d8026c551f81031cdc8e" target="_top" xlink:title="Checks constraints on body forces parameters (bf_x[y,z], etc.)">
<polygon fill="white" stroke="#666666" points="750.5,-643 634.5,-643 634.5,-613 750.5,-613 750.5,-643"/>
<text text-anchor="start" x="642.5" y="-631" font-family="Helvetica,sans-Serif" font-size="10.00">m_checker::s_check</text>
<text text-anchor="middle" x="692.5" y="-620" font-family="Helvetica,sans-Serif" font-size="10.00">_inputs_body_forces</text>
</a>
</g>
</g>
<!-- Node1&#45;&gt;Node16 -->
<g id="edge20_Node000001_Node000016" class="edge">
<title>Node1&#45;&gt;Node16</title>
<g id="a_edge20_Node000001_Node000016"><a xlink:title=" ">
<path fill="none" stroke="#63b8ff" d="M858.81,-449.04C847.92,-487.91 821.62,-562.6 772,-604 765.76,-609.2 758.41,-613.28 750.75,-616.47"/>
<polygon fill="#63b8ff" stroke="#63b8ff" points="862.27,-449.65 861.48,-439.08 855.51,-447.84 862.27,-449.65"/>
</a>
</g>
</g>
<!-- Node17 -->
<g id="Node000017" class="node">
<title>Node17</title>
<g id="a_Node000017"><a xlink:href="namespacem__checker__common.html#a9a28548179ff1dc35c035a76247ed51e" target="_top" xlink:title="Checks constraints on the bubble parameters. Called by s_check_inputs_common for pre&#45;processing and s...">
<polygon fill="white" stroke="#666666" points="772,-439 613,-439 613,-409 772,-409 772,-439"/>
<text text-anchor="start" x="621" y="-427" font-family="Helvetica,sans-Serif" font-size="10.00">m_checker_common::s</text>
<text text-anchor="middle" x="692.5" y="-416" font-family="Helvetica,sans-Serif" font-size="10.00">_check_inputs_bubbles_euler</text>
</a>
</g>
</g>
<!-- Node1&#45;&gt;Node17 -->
<g id="edge22_Node000001_Node000017" class="edge">
<title>Node1&#45;&gt;Node17</title>
<g id="a_edge22_Node000001_Node000017"><a xlink:title=" ">
<path fill="none" stroke="#63b8ff" d="M797.75,-424C789.32,-424 780.63,-424 772.04,-424"/>
<polygon fill="#63b8ff" stroke="#63b8ff" points="797.89,-427.5 807.89,-424 797.89,-420.5 797.89,-427.5"/>
</a>
</g>
</g>
<!-- Node19 -->
<g id="Node000019" class="node">
<title>Node19</title>
<g id="a_Node000019"><a xlink:href="namespacem__checker.html#a75646461a67d613be30bc67a0463968a" target="_top" xlink:title="Checks constraints on continuum damage model parameters.">
<polygon fill="white" stroke="#666666" points="769.5,-595 615.5,-595 615.5,-565 769.5,-565 769.5,-595"/>
<text text-anchor="start" x="623.5" y="-583" font-family="Helvetica,sans-Serif" font-size="10.00">m_checker::s_check</text>
<text text-anchor="middle" x="692.5" y="-572" font-family="Helvetica,sans-Serif" font-size="10.00">_inputs_continuum_damage</text>
</a>
</g>
</g>
<!-- Node1&#45;&gt;Node19 -->
<g id="edge25_Node000001_Node000019" class="edge">
<title>Node1&#45;&gt;Node19</title>
<g id="a_edge25_Node000001_Node000019"><a xlink:title=" ">
<path fill="none" stroke="#63b8ff" d="M854.04,-448.38C839.48,-478.08 810.96,-527.78 772,-556 767.27,-559.43 762.04,-562.37 756.59,-564.9"/>
<polygon fill="#63b8ff" stroke="#63b8ff" points="857.31,-449.67 858.44,-439.13 850.99,-446.66 857.31,-449.67"/>
</a>
</g>
</g>
<!-- Node20 -->
<g id="Node000020" class="node">
<title>Node20</title>
<g id="a_Node000020"><a xlink:href="namespacem__checker__common.html#a970fc65314cddafcf0102f416d66f4ce" target="_top" xlink:title=" ">
<polygon fill="white" stroke="#666666" points="756.5,-391 628.5,-391 628.5,-361 756.5,-361 756.5,-391"/>
<text text-anchor="start" x="636.5" y="-379" font-family="Helvetica,sans-Serif" font-size="10.00">m_checker_common::s</text>
<text text-anchor="middle" x="692.5" y="-368" font-family="Helvetica,sans-Serif" font-size="10.00">_check_inputs_mhd</text>
</a>
</g>
</g>
<!-- Node1&#45;&gt;Node20 -->
<g id="edge27_Node000001_Node000020" class="edge">
<title>Node1&#45;&gt;Node20</title>
<g id="a_edge27_Node000001_Node000020"><a xlink:title=" ">
<path fill="none" stroke="#63b8ff" d="M801.44,-406.21C783.58,-401.21 764.33,-395.82 747.1,-391"/>
<polygon fill="#63b8ff" stroke="#63b8ff" points="800.63,-409.62 811.21,-408.94 802.52,-402.88 800.63,-409.62"/>
</a>
</g>
</g>
<!-- Node21 -->
<g id="Node000021" class="node">
<title>Node21</title>
<g id="a_Node000021"><a xlink:href="namespacem__checker__common.html#aaf5d0bed53807e600991f52f8d75c1b5" target="_top" xlink:title="Checks constraints on the phase change parameters. Called by s_check_inputs_common for pre&#45;processing...">
<polygon fill="white" stroke="#666666" points="756.5,-342.5 628.5,-342.5 628.5,-301.5 756.5,-301.5 756.5,-342.5"/>
<text text-anchor="start" x="636.5" y="-330.5" font-family="Helvetica,sans-Serif" font-size="10.00">m_checker_common::s</text>
<text text-anchor="start" x="636.5" y="-319.5" font-family="Helvetica,sans-Serif" font-size="10.00">_check_inputs_phase</text>
<text text-anchor="middle" x="692.5" y="-308.5" font-family="Helvetica,sans-Serif" font-size="10.00">_change</text>
</a>
</g>
</g>
<!-- Node1&#45;&gt;Node21 -->
<g id="edge29_Node000001_Node000021" class="edge">
<title>Node1&#45;&gt;Node21</title>
<g id="a_edge29_Node000001_Node000021"><a xlink:title=" ">
<path fill="none" stroke="#63b8ff" d="M840.89,-402.12C822.89,-386.61 797.16,-366.14 772,-352 766.02,-348.64 759.59,-345.5 753.08,-342.62"/>
<polygon fill="#63b8ff" stroke="#63b8ff" points="838.75,-404.9 848.59,-408.85 843.36,-399.63 838.75,-404.9"/>
</a>
</g>
</g>
<!-- Node22 -->
<g id="Node000022" class="node">
<title>Node22</title>
<g id="a_Node000022"><a xlink:href="namespacem__checker__common.html#a10215566de1fcb267572be90fdf5d31a" target="_top" xlink:title="Checks constraints on the QBMM and polydisperse bubble parameters. Called by s_check_inputs_common fo...">
<polygon fill="white" stroke="#666666" points="765.5,-283.5 619.5,-283.5 619.5,-242.5 765.5,-242.5 765.5,-283.5"/>
<text text-anchor="start" x="627.5" y="-271.5" font-family="Helvetica,sans-Serif" font-size="10.00">m_checker_common::s</text>
<text text-anchor="start" x="627.5" y="-260.5" font-family="Helvetica,sans-Serif" font-size="10.00">_check_inputs_qbmm_and</text>
<text text-anchor="middle" x="692.5" y="-249.5" font-family="Helvetica,sans-Serif" font-size="10.00">_polydisperse</text>
</a>
</g>
</g>
<!-- Node1&#45;&gt;Node22 -->
<g id="edge31_Node000001_Node000022" class="edge">
<title>Node1&#45;&gt;Node22</title>
<g id="a_edge31_Node000001_Node000022"><a xlink:title=" ">
<path fill="none" stroke="#63b8ff" d="M853.54,-399.52C838.63,-370.13 809.94,-321.17 772,-292 767.97,-288.9 763.57,-286.11 758.99,-283.59"/>
<polygon fill="#63b8ff" stroke="#63b8ff" points="850.5,-401.26 858.06,-408.68 856.77,-398.16 850.5,-401.26"/>
</a>
</g>
</g>
<!-- Node23 -->
<g id="Node000023" class="node">
<title>Node23</title>
<g id="a_Node000023"><a xlink:href="namespacem__checker__common.html#a20cb17f4b2111c489c7a31856a149b32" target="_top" xlink:title="Checks constraints on the stiffened equation of state fluids parameters. Called by s_check_inputs_com...">
<polygon fill="white" stroke="#666666" points="770.5,-224 614.5,-224 614.5,-194 770.5,-194 770.5,-224"/>
<text text-anchor="start" x="622.5" y="-212" font-family="Helvetica,sans-Serif" font-size="10.00">m_checker_common::s</text>
<text text-anchor="middle" x="692.5" y="-201" font-family="Helvetica,sans-Serif" font-size="10.00">_check_inputs_stiffened_eos</text>
</a>
</g>
</g>
<!-- Node1&#45;&gt;Node23 -->
<g id="edge33_Node000001_Node000023" class="edge">
<title>Node1&#45;&gt;Node23</title>
<g id="a_edge33_Node000001_Node000023"><a xlink:title=" ">
<path fill="none" stroke="#63b8ff" d="M859.62,-398.89C849.58,-358.1 824.12,-277.54 772,-233 767.99,-229.57 763.5,-226.64 758.75,-224.12"/>
<polygon fill="#63b8ff" stroke="#63b8ff" points="856.26,-399.88 861.95,-408.82 863.07,-398.28 856.26,-399.88"/>
</a>
</g>
</g>
<!-- Node24 -->
<g id="Node000024" class="node">
<title>Node24</title>
<g id="a_Node000024"><a xlink:href="namespacem__checker.html#a45be1868d8f0598be1781280e39078d3" target="_top" xlink:title="Checks constraints on viscosity parameters (fluid_pp(i)Re(1:2)) of the stiffened gas equation of stat...">
<polygon fill="white" stroke="#666666" points="753.5,-546.5 631.5,-546.5 631.5,-505.5 753.5,-505.5 753.5,-546.5"/>
<text text-anchor="start" x="639.5" y="-534.5" font-family="Helvetica,sans-Serif" font-size="10.00">m_checker::s_check</text>
<text text-anchor="start" x="639.5" y="-523.5" font-family="Helvetica,sans-Serif" font-size="10.00">_inputs_stiffened_eos</text>
<text text-anchor="middle" x="692.5" y="-512.5" font-family="Helvetica,sans-Serif" font-size="10.00">_viscosity</text>
</a>
</g>
</g>
<!-- Node1&#45;&gt;Node24 -->
<g id="edge35_Node000001_Node000024" class="edge">
<title>Node1&#45;&gt;Node24</title>
<g id="a_edge35_Node000001_Node000024"><a xlink:title=" ">
<path fill="none" stroke="#63b8ff" d="M840.89,-445.88C822.89,-461.39 797.16,-481.86 772,-496 766.02,-499.36 759.59,-502.5 753.08,-505.38"/>
<polygon fill="#63b8ff" stroke="#63b8ff" points="843.36,-448.37 848.59,-439.15 838.75,-443.1 843.36,-448.37"/>
</a>
</g>
</g>
<!-- Node25 -->
<g id="Node000025" class="node">
<title>Node25</title>
<g id="a_Node000025"><a xlink:href="namespacem__checker__common.html#a3abeb8b799cf4729f18180fb72e6db69" target="_top" xlink:title="Checks constraints on the surface tension parameters. Called by s_check_inputs_common for all three s...">
<polygon fill="white" stroke="#666666" points="756.5,-175.5 628.5,-175.5 628.5,-134.5 756.5,-134.5 756.5,-175.5"/>
<text text-anchor="start" x="636.5" y="-163.5" font-family="Helvetica,sans-Serif" font-size="10.00">m_checker_common::s</text>
<text text-anchor="start" x="636.5" y="-152.5" font-family="Helvetica,sans-Serif" font-size="10.00">_check_inputs_surface</text>
<text text-anchor="middle" x="692.5" y="-141.5" font-family="Helvetica,sans-Serif" font-size="10.00">_tension</text>
</a>
</g>
</g>
<!-- Node1&#45;&gt;Node25 -->
<g id="edge37_Node000001_Node000025" class="edge">
<title>Node1&#45;&gt;Node25</title>
<g id="a_edge37_Node000001_Node000025"><a xlink:title=" ">
<path fill="none" stroke="#63b8ff" d="M861.94,-398.68C854.85,-350.62 832.94,-245.57 772,-185 767.55,-180.58 762.38,-176.79 756.86,-173.56"/>
<polygon fill="#63b8ff" stroke="#63b8ff" points="858.51,-399.4 863.34,-408.83 865.45,-398.44 858.51,-399.4"/>
</a>
</g>
</g>
<!-- Node26 -->
<g id="Node000026" class="node">
<title>Node26</title>
<g id="a_Node000026"><a xlink:href="namespacem__checker.html#a8abd19271bbd3a0d8a4b445f1e7dba57" target="_top" xlink:title="Checks constraints on WENO scheme parameters.">
<polygon fill="white" stroke="#666666" points="749.5,-487 635.5,-487 635.5,-457 749.5,-457 749.5,-487"/>
<text text-anchor="start" x="643.5" y="-475" font-family="Helvetica,sans-Serif" font-size="10.00">m_checker::s_check</text>
<text text-anchor="middle" x="692.5" y="-464" font-family="Helvetica,sans-Serif" font-size="10.00">_inputs_weno</text>
</a>
</g>
</g>
<!-- Node1&#45;&gt;Node26 -->
<g id="edge39_Node000001_Node000026" class="edge">
<title>Node1&#45;&gt;Node26</title>
<g id="a_edge39_Node000001_Node000026"><a xlink:title=" ">
<path fill="none" stroke="#63b8ff" d="M801.44,-441.79C783.58,-446.79 764.33,-452.18 747.1,-457"/>
<polygon fill="#63b8ff" stroke="#63b8ff" points="802.52,-445.12 811.21,-439.06 800.63,-438.38 802.52,-445.12"/>
</a>
</g>
</g>
<!-- Node27 -->
<g id="Node000027" class="node">
<title>Node27</title>
<g id="a_Node000027"><a xlink:href="namespacem__acoustic__src.html#ab35bc877e24a62748ab7df0548ebd08d" target="_top" xlink:title="This subroutine initializes the acoustic source module.">
<polygon fill="white" stroke="#666666" points="767.5,-116 617.5,-116 617.5,-86 767.5,-86 767.5,-116"/>
<text text-anchor="start" x="625.5" y="-104" font-family="Helvetica,sans-Serif" font-size="10.00">m_acoustic_src::s_initialize</text>
<text text-anchor="middle" x="692.5" y="-93" font-family="Helvetica,sans-Serif" font-size="10.00">_acoustic_src</text>
</a>
</g>
</g>
<!-- Node1&#45;&gt;Node27 -->
<g id="edge41_Node000001_Node000027" class="edge">
<title>Node1&#45;&gt;Node27</title>
<g id="a_edge41_Node000001_Node000027"><a xlink:title=" ">
<path fill="none" stroke="#63b8ff" d="M864.66,-398.48C862.5,-341.27 849.13,-201.75 772,-125 768.57,-121.58 764.66,-118.65 760.47,-116.13"/>
<polygon fill="#63b8ff" stroke="#63b8ff" points="861.18,-398.89 864.96,-408.78 868.17,-398.69 861.18,-398.89"/>
</a>
</g>
</g>
<!-- Node28 -->
<g id="Node000028" class="node">
<title>Node28</title>
<g id="a_Node000028"><a xlink:href="namespacem__start__up.html#a1fb7a3f9d412acd2a9cbcfe8b45006dd" target="_top" xlink:title=" ">
<polygon fill="white" stroke="#666666" points="575,-95 445,-95 445,-65 575,-65 575,-95"/>
<text text-anchor="start" x="453" y="-83" font-family="Helvetica,sans-Serif" font-size="10.00">m_start_up::s_initialize</text>
<text text-anchor="middle" x="510" y="-72" font-family="Helvetica,sans-Serif" font-size="10.00">_modules</text>
</a>
</g>
</g>
<!-- Node1&#45;&gt;Node28 -->
<g id="edge44_Node000001_Node000028" class="edge">
<title>Node1&#45;&gt;Node28</title>
<g id="a_edge44_Node000001_Node000028"><a xlink:title=" ">
<path fill="none" stroke="#63b8ff" d="M862.13,-398.5C853.31,-325.24 824.01,-116.9 772,-77 708.9,-28.59 609.66,-47.96 553.48,-64.94"/>
<polygon fill="#63b8ff" stroke="#63b8ff" points="858.68,-399.15 863.33,-408.67 865.63,-398.33 858.68,-399.15"/>
</a>
</g>
</g>
<!-- Node29 -->
<g id="Node000029" class="node">
<title>Node29</title>
<g id="a_Node000029"><a xlink:href="namespacem__qbmm.html#aeefcb72401bfdb35dcdd81104e647a15" target="_top" xlink:title=" ">
<polygon fill="white" stroke="#666666" points="753.5,-30 631.5,-30 631.5,0 753.5,0 753.5,-30"/>
<text text-anchor="start" x="639.5" y="-18" font-family="Helvetica,sans-Serif" font-size="10.00">m_qbmm::s_initialize</text>
<text text-anchor="middle" x="692.5" y="-7" font-family="Helvetica,sans-Serif" font-size="10.00">_qbmm_module</text>
</a>
</g>
</g>
<!-- Node1&#45;&gt;Node29 -->
<g id="edge45_Node000001_Node000029" class="edge">
<title>Node1&#45;&gt;Node29</title>
<g id="a_edge45_Node000001_Node000029"><a xlink:title=" ">
<path fill="none" stroke="#63b8ff" d="M861.89,-398.51C852.13,-322.2 819.84,-97.62 772,-44 766.87,-38.25 760.51,-33.64 753.63,-29.95"/>
<polygon fill="#63b8ff" stroke="#63b8ff" points="858.45,-399.16 863.17,-408.65 865.39,-398.29 858.45,-399.16"/>
</a>
</g>
</g>
<!-- Node3&#45;&gt;Node3 -->
<g id="edge3_Node000003_Node000003" class="edge">
<title>Node3&#45;&gt;Node3</title>
<g id="a_edge3_Node000003_Node000003"><a xlink:title=" ">
<path fill="none" stroke="#63b8ff" d="M724.69,-736.95C723.77,-742.32 713.04,-746.5 692.5,-746.5 661.93,-746.5 653.09,-737.23 665.99,-728.58"/>
<polygon fill="#63b8ff" stroke="#63b8ff" points="727.52,-734.89 719.01,-728.58 721.73,-738.82 727.52,-734.89"/>
</a>
</g>
</g>
<!-- Node4 -->
<g id="Node000004" class="node">
<title>Node4</title>
<g id="a_Node000004"><a xlink:href="namespacem__bubbles.html#adb6097eda424f5e9fe16a9897b6a6b17" target="_top" xlink:title="Function that computes the bubble radial acceleration based on bubble models.">
<polygon fill="white" stroke="#666666" points="565,-781.5 455,-781.5 455,-762.5 565,-762.5 565,-781.5"/>
<text text-anchor="middle" x="510" y="-769.5" font-family="Helvetica,sans-Serif" font-size="10.00">m_bubbles::f_rddot</text>
</a>
</g>
</g>
<!-- Node3&#45;&gt;Node4 -->
<g id="edge4_Node000003_Node000004" class="edge">
<title>Node3&#45;&gt;Node4</title>
<g id="a_edge4_Node000003_Node000004"><a xlink:title=" ">
<path fill="none" stroke="#63b8ff" d="M649.18,-731.43C616.87,-740.91 573.01,-753.79 543.44,-762.47"/>
<polygon fill="#63b8ff" stroke="#63b8ff" points="650.2,-734.77 658.81,-728.6 648.23,-728.06 650.2,-734.77"/>
</a>
</g>
</g>
<!-- Node8 -->
<g id="Node000008" class="node">
<title>Node8</title>
<g id="a_Node000008"><a xlink:href="namespacem__riemann__solvers.html#a6c9d70572e9b98586bab20b028557a5a" target="_top" xlink:title="This procedure is the implementation of the Harten, Lax, van Leer, and contact (HLLC) approximate Rie...">
<polygon fill="white" stroke="#666666" points="572.5,-734 447.5,-734 447.5,-704 572.5,-704 572.5,-734"/>
<text text-anchor="start" x="455.5" y="-722" font-family="Helvetica,sans-Serif" font-size="10.00">m_riemann_solvers::</text>
<text text-anchor="middle" x="510" y="-711" font-family="Helvetica,sans-Serif" font-size="10.00">s_hllc_riemann_solver</text>
</a>
</g>
</g>
<!-- Node3&#45;&gt;Node8 -->
<g id="edge10_Node000003_Node000008" class="edge">
<title>Node3&#45;&gt;Node8</title>
<g id="a_edge10_Node000003_Node000008"><a xlink:title=" ">
<path fill="none" stroke="#63b8ff" d="M616.81,-719C602.17,-719 586.96,-719 572.79,-719"/>
<polygon fill="#63b8ff" stroke="#63b8ff" points="616.85,-722.5 626.85,-719 616.85,-715.5 616.85,-722.5"/>
</a>
</g>
</g>
<!-- Node4&#45;&gt;Node4 -->
<g id="edge5_Node000004_Node000004" class="edge">
<title>Node4&#45;&gt;Node4</title>
<g id="a_edge5_Node000004_Node000004"><a xlink:title=" ">
<path fill="none" stroke="#63b8ff" d="M540.99,-790.32C539.69,-795.51 529.36,-799.5 510,-799.5 480.5,-799.5 471.97,-790.23 484.41,-781.58"/>
<polygon fill="#63b8ff" stroke="#63b8ff" points="543.82,-788.25 535.59,-781.58 537.87,-791.93 543.82,-788.25"/>
</a>
</g>
</g>
<!-- Node5 -->
<g id="Node000005" class="node">
<title>Node5</title>
<g id="a_Node000005"><a xlink:href="namespacem__bubbles.html#a58b32597dfaefbb21cf23ca74203c5ad" target="_top" xlink:title="Integrate bubble variables over the given time step size, h, using a third&#45;order accurate embedded Ru...">
<polygon fill="white" stroke="#666666" points="407,-833 279,-833 279,-803 407,-803 407,-833"/>
<text text-anchor="start" x="287" y="-821" font-family="Helvetica,sans-Serif" font-size="10.00">m_bubbles::s_advance</text>
<text text-anchor="middle" x="343" y="-810" font-family="Helvetica,sans-Serif" font-size="10.00">_substep</text>
</a>
</g>
</g>
<!-- Node4&#45;&gt;Node5 -->
<g id="edge6_Node000004_Node000005" class="edge">
<title>Node4&#45;&gt;Node5</title>
<g id="a_edge6_Node000004_Node000005"><a xlink:title=" ">
<path fill="none" stroke="#63b8ff" d="M465.06,-784.25C444.45,-790 419.7,-796.9 397.96,-802.96"/>
<polygon fill="#63b8ff" stroke="#63b8ff" points="466.12,-787.59 474.81,-781.53 464.24,-780.85 466.12,-787.59"/>
</a>
</g>
</g>
<!-- Node7 -->
<g id="Node000007" class="node">
<title>Node7</title>
<g id="a_Node000007"><a xlink:href="namespacem__bubbles.html#ab94791da6f5cbc767853c8c5208a3eb0" target="_top" xlink:title="Choose the initial time step size for the adaptive time stepping routine (See Heirer,...">
<polygon fill="white" stroke="#666666" points="400,-785 286,-785 286,-755 400,-755 400,-785"/>
<text text-anchor="start" x="294" y="-773" font-family="Helvetica,sans-Serif" font-size="10.00">m_bubbles::s_initial</text>
<text text-anchor="middle" x="343" y="-762" font-family="Helvetica,sans-Serif" font-size="10.00">_substep_h</text>
</a>
</g>
</g>
<!-- Node4&#45;&gt;Node7 -->
<g id="edge8_Node000004_Node000007" class="edge">
<title>Node4&#45;&gt;Node7</title>
<g id="a_edge8_Node000004_Node000007"><a xlink:title=" ">
<path fill="none" stroke="#63b8ff" d="M444.9,-771.22C430.13,-771.04 414.53,-770.85 400.13,-770.68"/>
<polygon fill="#63b8ff" stroke="#63b8ff" points="444.93,-774.72 454.97,-771.35 445.02,-767.72 444.93,-774.72"/>
</a>
</g>
</g>
<!-- Node6 -->
<g id="Node000006" class="node">
<title>Node6</title>
<g id="a_Node000006"><a xlink:href="namespacem__bubbles.html#a8fa7693467966aebe329db289e1fd8e0" target="_top" xlink:title="Adaptive time stepping routine for subgrid bubbles (See Heirer, E. Hairer S.P.Nørsett G....">
<polygon fill="white" stroke="#666666" points="243,-803.5 89,-803.5 89,-784.5 243,-784.5 243,-803.5"/>
<text text-anchor="middle" x="166" y="-791.5" font-family="Helvetica,sans-Serif" font-size="10.00">m_bubbles::s_advance_step</text>
</a>
</g>
</g>
<!-- Node5&#45;&gt;Node6 -->
<g id="edge7_Node000005_Node000006" class="edge">
<title>Node5&#45;&gt;Node6</title>
<g id="a_edge7_Node000005_Node000006"><a xlink:title=" ">
<path fill="none" stroke="#63b8ff" d="M268.66,-807.94C257.94,-806.47 246.94,-804.96 236.31,-803.5"/>
<polygon fill="#63b8ff" stroke="#63b8ff" points="268.44,-811.44 278.82,-809.34 269.39,-804.51 268.44,-811.44"/>
</a>
</g>
</g>
<!-- Node7&#45;&gt;Node6 -->
<g id="edge9_Node000007_Node000006" class="edge">
<title>Node7&#45;&gt;Node6</title>
<g id="a_edge9_Node000007_Node000006"><a xlink:title=" ">
<path fill="none" stroke="#63b8ff" d="M275.56,-779.11C262.75,-780.87 249.31,-782.71 236.41,-784.48"/>
<polygon fill="#63b8ff" stroke="#63b8ff" points="276.23,-782.55 285.67,-777.73 275.28,-775.62 276.23,-782.55"/>
</a>
</g>
</g>
<!-- Node9 -->
<g id="Node000009" class="node">
<title>Node9</title>
<g id="a_Node000009"><a xlink:href="namespacem__riemann__solvers.html#aff6e3d5abdabe6ce6fccbb7a081766e6" target="_top" xlink:title="Dispatch to the subroutines that are utilized to compute the Riemann problem solution....">
<polygon fill="white" stroke="#666666" points="402.5,-734 283.5,-734 283.5,-704 402.5,-704 402.5,-734"/>
<text text-anchor="start" x="291.5" y="-722" font-family="Helvetica,sans-Serif" font-size="10.00">m_riemann_solvers::</text>
<text text-anchor="middle" x="343" y="-711" font-family="Helvetica,sans-Serif" font-size="10.00">s_riemann_solver</text>
</a>
</g>
</g>
<!-- Node8&#45;&gt;Node9 -->
<g id="edge11_Node000008_Node000009" class="edge">
<title>Node8&#45;&gt;Node9</title>
<g id="a_edge11_Node000008_Node000009"><a xlink:title=" ">
<path fill="none" stroke="#63b8ff" d="M436.74,-719C425.37,-719 413.73,-719 402.71,-719"/>
<polygon fill="#63b8ff" stroke="#63b8ff" points="437.09,-722.5 447.09,-719 437.09,-715.5 437.09,-722.5"/>
</a>
</g>
</g>
<!-- Node10&#45;&gt;Node4 -->
<g id="edge13_Node000010_Node000004" class="edge">
<title>Node10&#45;&gt;Node4</title>
<g id="a_edge13_Node000010_Node000004"><a xlink:title=" ">
<path fill="none" stroke="#63b8ff" d="M616.76,-773.17C599.43,-772.98 581.32,-772.78 565.09,-772.6"/>
<polygon fill="#63b8ff" stroke="#63b8ff" points="616.81,-776.67 626.85,-773.28 616.88,-769.67 616.81,-776.67"/>
</a>
</g>
</g>
<!-- Node10&#45;&gt;Node10 -->
<g id="edge14_Node000010_Node000010" class="edge">
<title>Node10&#45;&gt;Node10</title>
<g id="a_edge14_Node000010_Node000010"><a xlink:title=" ">
<path fill="none" stroke="#63b8ff" d="M724.69,-791.95C723.77,-797.32 713.04,-801.5 692.5,-801.5 661.93,-801.5 653.09,-792.23 665.99,-783.58"/>
<polygon fill="#63b8ff" stroke="#63b8ff" points="727.52,-789.89 719.01,-783.58 721.73,-793.82 727.52,-789.89"/>
</a>
</g>
</g>
<!-- Node12 -->
<g id="Node000012" class="node">
<title>Node12</title>
<g id="a_Node000012"><a xlink:href="namespacem__checker.html#a214e05cb46bc7c3e0dbe55fdc433c072" target="_top" xlink:title="Checks compatibility of parameters in the input file. Used by the simulation stage.">
<polygon fill="white" stroke="#666666" points="567,-568 453,-568 453,-538 567,-538 567,-568"/>
<text text-anchor="start" x="461" y="-556" font-family="Helvetica,sans-Serif" font-size="10.00">m_checker::s_check</text>
<text text-anchor="middle" x="510" y="-545" font-family="Helvetica,sans-Serif" font-size="10.00">_inputs</text>
</a>
</g>
</g>
<!-- Node11&#45;&gt;Node12 -->
<g id="edge16_Node000011_Node000012" class="edge">
<title>Node11&#45;&gt;Node12</title>
<g id="a_edge16_Node000011_Node000012"><a xlink:title=" ">
<path fill="none" stroke="#63b8ff" d="M624.51,-657.96C620.53,-656.14 616.66,-654.16 613,-652 574.75,-629.41 539.86,-589.64 522.52,-568.02"/>
<polygon fill="#63b8ff" stroke="#63b8ff" points="623.39,-661.29 633.97,-661.91 626.09,-654.83 623.39,-661.29"/>
</a>
</g>
</g>
<!-- Node13 -->
<g id="Node000013" class="node">
<title>Node13</title>
<g id="a_Node000013"><a xlink:href="namespacem__start__up.html#ad26e747c87bb6bcf4c9d6baa21d044c1" target="_top" xlink:title="The goal of this procedure is to verify that each of the user provided inputs is valid and that their...">
<polygon fill="white" stroke="#666666" points="401,-307 285,-307 285,-277 401,-277 401,-307"/>
<text text-anchor="start" x="293" y="-295" font-family="Helvetica,sans-Serif" font-size="10.00">m_start_up::s_check</text>
<text text-anchor="middle" x="343" y="-284" font-family="Helvetica,sans-Serif" font-size="10.00">_input_file</text>
</a>
</g>
</g>
<!-- Node12&#45;&gt;Node13 -->
<g id="edge17_Node000012_Node000013" class="edge">
<title>Node12&#45;&gt;Node13</title>
<g id="a_edge17_Node000012_Node000013"><a xlink:title=" ">
<path fill="none" stroke="#63b8ff" d="M493.92,-529.15C460.53,-476.34 381.15,-350.77 353.61,-307.2"/>
<polygon fill="#63b8ff" stroke="#63b8ff" points="491.11,-531.26 499.42,-537.84 497.03,-527.52 491.11,-531.26"/>
</a>
</g>
</g>
<!-- Node14 -->
<g id="Node000014" class="node">
<title>Node14</title>
<g id="a_Node000014"><a xlink:href="namespacem__start__up.html#ab64542f13c680e17ce8879c77c65c0e0" target="_top" xlink:title=" ">
<polygon fill="white" stroke="#666666" points="231,-267 101,-267 101,-237 231,-237 231,-267"/>
<text text-anchor="start" x="109" y="-255" font-family="Helvetica,sans-Serif" font-size="10.00">m_start_up::s_initialize</text>
<text text-anchor="middle" x="166" y="-244" font-family="Helvetica,sans-Serif" font-size="10.00">_mpi_domain</text>
</a>
</g>
</g>
<!-- Node13&#45;&gt;Node14 -->
<g id="edge18_Node000013_Node000014" class="edge">
<title>Node13&#45;&gt;Node14</title>
<g id="a_edge18_Node000013_Node000014"><a xlink:title=" ">
<path fill="none" stroke="#63b8ff" d="M274.89,-276.66C260.51,-273.37 245.35,-269.91 231.09,-266.65"/>
<polygon fill="#63b8ff" stroke="#63b8ff" points="274.17,-280.09 284.7,-278.9 275.73,-273.26 274.17,-280.09"/>
</a>
</g>
</g>
<!-- Node15 -->
<g id="Node000015" class="node">
<title>Node15</title>
<g id="a_Node000015"><a xlink:href="p__main_8fpp_8f90.html#aeec10ee8e2940c953967da3e374e1579" target="_top" xlink:title="Quasi&#45;conservative, shock&#45; and interface&#45; capturing finite&#45;volume scheme for the multicomponent Navie...">
<polygon fill="white" stroke="#666666" points="53,-180.5 0,-180.5 0,-161.5 53,-161.5 53,-180.5"/>
<text text-anchor="middle" x="26.5" y="-168.5" font-family="Helvetica,sans-Serif" font-size="10.00">p_main</text>
</a>
</g>
</g>
<!-- Node14&#45;&gt;Node15 -->
<g id="edge19_Node000014_Node000015" class="edge">
<title>Node14&#45;&gt;Node15</title>
<g id="a_edge19_Node000014_Node000015"><a xlink:title=" ">
<path fill="none" stroke="#63b8ff" d="M130.48,-231.67C102.77,-215.34 65.11,-193.15 43.85,-180.63"/>
<polygon fill="#63b8ff" stroke="#63b8ff" points="129.07,-234.89 139.46,-236.95 132.62,-228.86 129.07,-234.89"/>
</a>
</g>
</g>
<!-- Node16&#45;&gt;Node12 -->
<g id="edge21_Node000016_Node000012" class="edge">
<title>Node16&#45;&gt;Node12</title>
<g id="a_edge21_Node000016_Node000012"><a xlink:title=" ">
<path fill="none" stroke="#63b8ff" d="M628.01,-609.59C622.9,-607.8 617.84,-605.93 613,-604 586.89,-593.57 558.37,-579.02 538.14,-568.13"/>
<polygon fill="#63b8ff" stroke="#63b8ff" points="627.28,-613.04 637.88,-612.92 629.52,-606.41 627.28,-613.04"/>
</a>
</g>
</g>
<!-- Node18 -->
<g id="Node000018" class="node">
<title>Node18</title>
<g id="a_Node000018"><a xlink:href="namespacem__checker__common.html#a37b5025d5e6ffafc4cb5f417387c21b8" target="_top" xlink:title="Checks compatibility of parameters in the input file. Used by all three stages.">
<polygon fill="white" stroke="#666666" points="577,-307 443,-307 443,-277 577,-277 577,-307"/>
<text text-anchor="start" x="451" y="-295" font-family="Helvetica,sans-Serif" font-size="10.00">m_checker_common::s</text>
<text text-anchor="middle" x="510" y="-284" font-family="Helvetica,sans-Serif" font-size="10.00">_check_inputs_common</text>
</a>
</g>
</g>
<!-- Node17&#45;&gt;Node18 -->
<g id="edge23_Node000017_Node000018" class="edge">
<title>Node17&#45;&gt;Node18</title>
<g id="a_edge23_Node000017_Node000018"><a xlink:title=" ">
<path fill="none" stroke="#63b8ff" d="M621.24,-404.6C618.4,-403.17 615.64,-401.64 613,-400 572.9,-375.12 538.01,-330.62 521.37,-307.27"/>
<polygon fill="#63b8ff" stroke="#63b8ff" points="619.98,-407.88 630.53,-408.85 622.89,-401.51 619.98,-407.88"/>
</a>
</g>
</g>
<!-- Node18&#45;&gt;Node13 -->
<g id="edge24_Node000018_Node000013" class="edge">
<title>Node18&#45;&gt;Node13</title>
<g id="a_edge24_Node000018_Node000013"><a xlink:title=" ">
<path fill="none" stroke="#63b8ff" d="M432.72,-292C422.09,-292 411.33,-292 401.14,-292"/>
<polygon fill="#63b8ff" stroke="#63b8ff" points="432.84,-295.5 442.84,-292 432.84,-288.5 432.84,-295.5"/>
</a>
</g>
</g>
<!-- Node19&#45;&gt;Node12 -->
<g id="edge26_Node000019_Node000012" class="edge">
<title>Node19&#45;&gt;Node12</title>
<g id="a_edge26_Node000019_Node000012"><a xlink:title=" ">
<path fill="none" stroke="#63b8ff" d="M605.55,-567.14C592.52,-565.19 579.37,-563.23 567.19,-561.41"/>
<polygon fill="#63b8ff" stroke="#63b8ff" points="605.07,-570.61 615.47,-568.63 606.1,-563.69 605.07,-570.61"/>
</a>
</g>
</g>
<!-- Node20&#45;&gt;Node18 -->
<g id="edge28_Node000020_Node000018" class="edge">
<title>Node20&#45;&gt;Node18</title>
<g id="a_edge28_Node000020_Node000018"><a xlink:title=" ">
<path fill="none" stroke="#63b8ff" d="M628.8,-357.39C623.4,-355.38 618.07,-353.24 613,-351 584.56,-338.42 553.93,-319.98 533.74,-307.07"/>
<polygon fill="#63b8ff" stroke="#63b8ff" points="627.96,-360.8 638.56,-360.87 630.31,-354.21 627.96,-360.8"/>
</a>
</g>
</g>
<!-- Node21&#45;&gt;Node18 -->
<g id="edge30_Node000021_Node000018" class="edge">
<title>Node21&#45;&gt;Node18</title>
<g id="a_edge30_Node000021_Node000018"><a xlink:title=" ">
<path fill="none" stroke="#63b8ff" d="M618.13,-309.81C604.57,-307.55 590.49,-305.21 577.16,-303"/>
<polygon fill="#63b8ff" stroke="#63b8ff" points="617.93,-313.32 628.37,-311.51 619.08,-306.42 617.93,-313.32"/>
</a>
</g>
</g>
<!-- Node22&#45;&gt;Node18 -->
<g id="edge32_Node000022_Node000018" class="edge">
<title>Node22&#45;&gt;Node18</title>
<g id="a_edge32_Node000022_Node000018"><a xlink:title=" ">
<path fill="none" stroke="#63b8ff" d="M609.5,-276.17C598.67,-277.92 587.67,-279.68 577.15,-281.37"/>
<polygon fill="#63b8ff" stroke="#63b8ff" points="610.07,-279.63 619.38,-274.59 608.95,-272.72 610.07,-279.63"/>
</a>
</g>
</g>
<!-- Node23&#45;&gt;Node18 -->
<g id="edge34_Node000023_Node000018" class="edge">
<title>Node23&#45;&gt;Node18</title>
<g id="a_edge34_Node000023_Node000018"><a xlink:title=" ">
<path fill="none" stroke="#63b8ff" d="M626.74,-227.5C622.05,-229.24 617.42,-231.07 613,-233 584.49,-245.41 553.88,-263.88 533.71,-276.84"/>
<polygon fill="#63b8ff" stroke="#63b8ff" points="628.18,-230.71 636.44,-224.08 625.85,-224.11 628.18,-230.71"/>
</a>
</g>
</g>
<!-- Node24&#45;&gt;Node12 -->
<g id="edge36_Node000024_Node000012" class="edge">
<title>Node24&#45;&gt;Node12</title>
<g id="a_edge36_Node000024_Node000012"><a xlink:title=" ">
<path fill="none" stroke="#63b8ff" d="M621.28,-536.5C603.35,-539.19 584.3,-542.03 567.18,-544.6"/>
<polygon fill="#63b8ff" stroke="#63b8ff" points="622.02,-539.93 631.4,-534.99 620.99,-533.01 622.02,-539.93"/>
</a>
</g>
</g>
<!-- Node25&#45;&gt;Node18 -->
<g id="edge38_Node000025_Node000018" class="edge">
<title>Node25&#45;&gt;Node18</title>
<g id="a_edge38_Node000025_Node000018"><a xlink:title=" ">
<path fill="none" stroke="#63b8ff" d="M620.88,-180.17C618.17,-181.71 615.53,-183.32 613,-185 574.11,-210.88 538.96,-254.04 521.89,-276.83"/>
<polygon fill="#63b8ff" stroke="#63b8ff" points="622.51,-183.27 629.75,-175.53 619.27,-177.07 622.51,-183.27"/>
</a>
</g>
</g>
<!-- Node26&#45;&gt;Node12 -->
<g id="edge40_Node000026_Node000012" class="edge">
<title>Node26&#45;&gt;Node12</title>
<g id="a_edge40_Node000026_Node000012"><a xlink:title=" ">
<path fill="none" stroke="#63b8ff" d="M629.8,-490.39C624.07,-492.48 618.39,-494.69 613,-497 585.52,-508.79 555.72,-525.66 535.47,-537.8"/>
<polygon fill="#63b8ff" stroke="#63b8ff" points="631.18,-493.61 639.46,-487 628.87,-487.01 631.18,-493.61"/>
</a>
</g>
</g>
<!-- Node27&#45;&gt;Node28 -->
<g id="edge42_Node000027_Node000028" class="edge">
<title>Node27&#45;&gt;Node28</title>
<g id="a_edge42_Node000027_Node000028"><a xlink:title=" ">
<path fill="none" stroke="#63b8ff" d="M607.06,-91.18C596.31,-89.93 585.46,-88.66 575.11,-87.46"/>
<polygon fill="#63b8ff" stroke="#63b8ff" points="606.96,-94.69 617.3,-92.37 607.77,-87.74 606.96,-94.69"/>
</a>
</g>
</g>
<!-- Node28&#45;&gt;Node15 -->
<g id="edge43_Node000028_Node000015" class="edge">
<title>Node28&#45;&gt;Node15</title>
<g id="a_edge43_Node000028_Node000015"><a xlink:title=" ">
<path fill="none" stroke="#63b8ff" d="M434.53,-94.07C324.54,-114.86 124.03,-152.76 53.15,-166.15"/>
<polygon fill="#63b8ff" stroke="#63b8ff" points="435.39,-97.47 444.56,-92.18 434.09,-90.6 435.39,-97.47"/>
</a>
</g>
</g>
<!-- Node29&#45;&gt;Node28 -->
<g id="edge46_Node000029_Node000028" class="edge">
<title>Node29&#45;&gt;Node28</title>
<g id="a_edge46_Node000029_Node000028"><a xlink:title=" ">
<path fill="none" stroke="#63b8ff" d="M640.15,-33.49C612.55,-43.43 578.96,-55.53 552.95,-64.89"/>
<polygon fill="#63b8ff" stroke="#63b8ff" points="641.41,-36.76 649.64,-30.08 639.04,-30.17 641.41,-36.76"/>
</a>
</g>
</g>
</g>
</svg>

<g id="navigator" transform="translate(0 0)" fill="#404254">
  <rect fill="#f2f5e9" fill-opacity="0.5" stroke="#606060" stroke-width=".5" x="0" y="0" width="60" height="60"/>
  <use id="zoomplus" xlink:href="#zoomPlus" x="17" y="9" onmousedown="handleZoom(evt,'in')"/>
  <use id="zoomminus" xlink:href="#zoomMin" x="42" y="9" onmousedown="handleZoom(evt,'out')"/>
  <use id="reset" xlink:href="#resetDef" x="30" y="36" onmousedown="handleReset()"/>
   <use id="arrowup" xlink:href="#arrowUp" x="0" y="0" onmousedown="handlePan(0,-1)"/>
  <use id="arrowright" xlink:href="#arrowRight" x="0" y="0" onmousedown="handlePan(1,0)"/>
  <use id="arrowdown" xlink:href="#arrowDown" x="0" y="0" onmousedown="handlePan(0,1)"/>
  <use id="arrowleft" xlink:href="#arrowLeft" x="0" y="0" onmousedown="handlePan(-1,0)"/>
</g>
<svg viewBox="0 0 15 15" width="100%" height="30px" preserveAspectRatio="xMaxYMin meet">
 <g id="arrow_out" transform="scale(0.3 0.3)">
  <a xlink:href="namespacem__helper__basic_a345e205ced0b0674a22f59a2c1549eb4_icgraph_org.svg" target="_base">
   <rect id="button" ry="5" rx="5" y="6" x="6" height="38" width="38"
        fill="#f2f5e9" fill-opacity="0.5" stroke="#606060" stroke-width="1.0"/>
   <path id="arrow"
     d="M 11.500037,31.436501 C 11.940474,20.09759 22.043105,11.32322 32.158766,21.979434 L 37.068811,17.246167 C 37.068811,17.246167 37.088388,32 37.088388,32 L 22.160133,31.978069 C 22.160133,31.978069 26.997745,27.140456 26.997745,27.140456 C 18.528582,18.264221 13.291696,25.230495 11.500037,31.436501 z"
     style="fill:#404040;"/>
  </a>
 </g>
</svg>

<style type='text/css'>
<![CDATA[
[data-mouse-over-selected='false'] { opacity: 0.7; }
[data-mouse-over-selected='true']  { opacity: 1.0; }
]]>
</style>
<script type="application/ecmascript"><![CDATA[
document.addEventListener('DOMContentLoaded', (event) => {
  highlightEdges();
  highlightAdjacentNodes();
});
]]></script>
</svg>
