<?xml version="1.0" encoding="UTF-8" standalone="no"?>
<!DOCTYPE svg PUBLIC "-//W3C//DTD SVG 1.1//EN"
 "http://www.w3.org/Graphics/SVG/1.1/DTD/svg11.dtd">
<!-- Generated by graphviz version 2.43.0 (0)
 -->
<!-- Title: m_compile_specific::s_create_directory Pages: 1 -->
<svg width="772pt" height="230pt"
 viewBox="0.00 0.00 772.00 230.00" xmlns="http://www.w3.org/2000/svg" xmlns:xlink="http://www.w3.org/1999/xlink">
<g id="graph0" class="graph" transform="scale(1 1) rotate(0) translate(4 226)">
<title>m_compile_specific::s_create_directory</title>
<!-- Node1 -->
<g id="Node000001" class="node">
<title>Node1</title>
<g id="a_Node000001"><a xlink:title="Create a directory and all its parents if it does not exist.">
<polygon fill="#999999" stroke="#666666" points="764,-126 651,-126 651,-96 764,-96 764,-126"/>
<text text-anchor="start" x="659" y="-114" font-family="Helvetica,sans-Serif" font-size="10.00">m_compile_specific</text>
<text text-anchor="middle" x="707.5" y="-103" font-family="Helvetica,sans-Serif" font-size="10.00">::s_create_directory</text>
</a>
</g>
</g>
<!-- Node2 -->
<g id="Node000002" class="node">
<title>Node2</title>
<g id="a_Node000002"><a xlink:href="namespacem__boundary__io.html#a1b6a5f4b89c0cc5313f8f448ce1a9b2c" target="_top" xlink:title="Write boundary condition type and buffer data to per&#45;rank parallel files using MPI I/O.">
<polygon fill="white" stroke="#666666" points="615,-222 430,-222 430,-192 615,-192 615,-222"/>
<text text-anchor="start" x="438" y="-210" font-family="Helvetica,sans-Serif" font-size="10.00">m_boundary_io::s_write</text>
<text text-anchor="middle" x="522.5" y="-199" font-family="Helvetica,sans-Serif" font-size="10.00">_parallel_boundary_condition_files</text>
</a>
</g>
</g>
<!-- Node1&#45;&gt;Node2 -->
<g id="edge1_Node000001_Node000002" class="edge">
<title>Node1&#45;&gt;Node2</title>
<g id="a_edge1_Node000001_Node000002"><a xlink:title=" ">
<path fill="none" stroke="#63b8ff" d="M683.91,-133.15C666.43,-149.14 640.9,-170.12 615,-183 608.24,-186.36 600.95,-189.3 593.54,-191.84"/>
<polygon fill="#63b8ff" stroke="#63b8ff" points="686.44,-135.58 691.35,-126.19 681.66,-130.46 686.44,-135.58"/>
</a>
</g>
</g>
<!-- Node3 -->
<g id="Node000003" class="node">
<title>Node3</title>
<g id="a_Node000003"><a xlink:href="namespacem__data__output.html#ad3497d325f009e8502107d49ba0e439d" target="_top" xlink:title="Write grid and conservative variable data files in parallel via MPI I/O.">
<polygon fill="white" stroke="#666666" points="588,-174 457,-174 457,-144 588,-144 588,-174"/>
<text text-anchor="start" x="465" y="-162" font-family="Helvetica,sans-Serif" font-size="10.00">m_data_output::s_write</text>
<text text-anchor="middle" x="522.5" y="-151" font-family="Helvetica,sans-Serif" font-size="10.00">_parallel_data_files</text>
</a>
</g>
</g>
<!-- Node1&#45;&gt;Node3 -->
<g id="edge2_Node000001_Node000003" class="edge">
<title>Node1&#45;&gt;Node3</title>
<g id="a_edge2_Node000001_Node000003"><a xlink:title=" ">
<path fill="none" stroke="#63b8ff" d="M640.84,-128.22C621.26,-133.36 599.97,-138.94 580.96,-143.93"/>
<polygon fill="#63b8ff" stroke="#63b8ff" points="641.81,-131.59 650.6,-125.66 640.04,-124.81 641.81,-131.59"/>
</a>
</g>
</g>
<!-- Node7 -->
<g id="Node000007" class="node">
<title>Node7</title>
<g id="a_Node000007"><a xlink:href="namespacem__data__output.html#a53a556dc3fa26f1f97eb2044e8391997" target="_top" xlink:title="Writes the IB state information out to file.">
<polygon fill="white" stroke="#666666" points="588,-78 457,-78 457,-48 588,-48 588,-78"/>
<text text-anchor="start" x="465" y="-66" font-family="Helvetica,sans-Serif" font-size="10.00">m_data_output::s_write</text>
<text text-anchor="middle" x="522.5" y="-55" font-family="Helvetica,sans-Serif" font-size="10.00">_parallel_ib_state</text>
</a>
</g>
</g>
<!-- Node1&#45;&gt;Node7 -->
<g id="edge6_Node000001_Node000007" class="edge">
<title>Node1&#45;&gt;Node7</title>
<g id="a_edge6_Node000001_Node000007"><a xlink:title=" ">
<path fill="none" stroke="#63b8ff" d="M640.84,-93.78C621.26,-88.64 599.97,-83.06 580.96,-78.07"/>
<polygon fill="#63b8ff" stroke="#63b8ff" points="640.04,-97.19 650.6,-96.34 641.81,-90.41 640.04,-97.19"/>
</a>
</g>
</g>
<!-- Node10 -->
<g id="Node000010" class="node">
<title>Node10</title>
<g id="a_Node000010"><a xlink:href="namespacem__data__output.html#aa24a29afef33c331f912d6d57dbbc5fd" target="_top" xlink:title="Write grid and conservative variable data files in serial format.">
<polygon fill="white" stroke="#666666" points="588,-126 457,-126 457,-96 588,-96 588,-126"/>
<text text-anchor="start" x="465" y="-114" font-family="Helvetica,sans-Serif" font-size="10.00">m_data_output::s_write</text>
<text text-anchor="middle" x="522.5" y="-103" font-family="Helvetica,sans-Serif" font-size="10.00">_serial_data_files</text>
</a>
</g>
</g>
<!-- Node1&#45;&gt;Node10 -->
<g id="edge11_Node000001_Node000010" class="edge">
<title>Node1&#45;&gt;Node10</title>
<g id="a_edge11_Node000001_Node000010"><a xlink:title=" ">
<path fill="none" stroke="#63b8ff" d="M640.2,-111C623.2,-111 604.94,-111 588.04,-111"/>
<polygon fill="#63b8ff" stroke="#63b8ff" points="640.6,-114.5 650.6,-111 640.6,-107.5 640.6,-114.5"/>
</a>
</g>
</g>
<!-- Node11 -->
<g id="Node000011" class="node">
<title>Node11</title>
<g id="a_Node000011"><a xlink:href="namespacem__data__output.html#a865687c6a3188efbd71b29b439302ec1" target="_top" xlink:title="Write IB state data to a per&#45;timestep serial (unformatted) file.">
<polygon fill="white" stroke="#666666" points="588,-30 457,-30 457,0 588,0 588,-30"/>
<text text-anchor="start" x="465" y="-18" font-family="Helvetica,sans-Serif" font-size="10.00">m_data_output::s_write</text>
<text text-anchor="middle" x="522.5" y="-7" font-family="Helvetica,sans-Serif" font-size="10.00">_serial_ib_state</text>
</a>
</g>
</g>
<!-- Node1&#45;&gt;Node11 -->
<g id="edge13_Node000001_Node000011" class="edge">
<title>Node1&#45;&gt;Node11</title>
<g id="a_edge13_Node000001_Node000011"><a xlink:title=" ">
<path fill="none" stroke="#63b8ff" d="M683.91,-88.85C666.43,-72.86 640.9,-51.88 615,-39 606.62,-34.83 597.43,-31.33 588.22,-28.4"/>
<polygon fill="#63b8ff" stroke="#63b8ff" points="681.66,-91.54 691.35,-95.81 686.44,-86.42 681.66,-91.54"/>
</a>
</g>
</g>
<!-- Node4 -->
<g id="Node000004" class="node">
<title>Node4</title>
<g id="a_Node000004"><a xlink:href="namespacem__data__output.html#a9eea8de093f055adb3b786bff3cab2d8" target="_top" xlink:title="Write data files. Dispatch subroutine that replaces procedure pointer.">
<polygon fill="white" stroke="#666666" points="394,-126 263,-126 263,-96 394,-96 394,-126"/>
<text text-anchor="start" x="271" y="-114" font-family="Helvetica,sans-Serif" font-size="10.00">m_data_output::s_write</text>
<text text-anchor="middle" x="328.5" y="-103" font-family="Helvetica,sans-Serif" font-size="10.00">_data_files</text>
</a>
</g>
</g>
<!-- Node3&#45;&gt;Node4 -->
<g id="edge3_Node000003_Node000004" class="edge">
<title>Node3&#45;&gt;Node4</title>
<g id="a_edge3_Node000003_Node000004"><a xlink:title=" ">
<path fill="none" stroke="#63b8ff" d="M451.46,-141.49C431.14,-136.41 409.15,-130.91 389.51,-126"/>
<polygon fill="#63b8ff" stroke="#63b8ff" points="450.73,-144.91 461.28,-143.94 452.42,-138.12 450.73,-144.91"/>
</a>
</g>
</g>
<!-- Node5 -->
<g id="Node000005" class="node">
<title>Node5</title>
<g id="a_Node000005"><a xlink:href="namespacem__start__up.html#a47ade6ffcd98aafcccf10910f626142d" target="_top" xlink:title="Save conservative variable data to disk at the current time step.">
<polygon fill="white" stroke="#666666" points="227,-115.5 89,-115.5 89,-96.5 227,-96.5 227,-115.5"/>
<text text-anchor="middle" x="158" y="-103.5" font-family="Helvetica,sans-Serif" font-size="10.00">m_start_up::s_save_data</text>
</a>
</g>
</g>
<!-- Node4&#45;&gt;Node5 -->
<g id="edge4_Node000004_Node000005" class="edge">
<title>Node4&#45;&gt;Node5</title>
<g id="a_edge4_Node000004_Node000005"><a xlink:title=" ">
<path fill="none" stroke="#63b8ff" d="M252.58,-108.78C244.11,-108.53 235.51,-108.27 227.13,-108.02"/>
<polygon fill="#63b8ff" stroke="#63b8ff" points="252.74,-112.28 262.84,-109.08 252.94,-105.29 252.74,-112.28"/>
</a>
</g>
</g>
<!-- Node6 -->
<g id="Node000006" class="node">
<title>Node6</title>
<g id="a_Node000006"><a xlink:href="p__main_8fpp_8f90.html#aeec10ee8e2940c953967da3e374e1579" target="_top" xlink:title="Quasi&#45;conservative, shock&#45; and interface&#45; capturing finite&#45;volume scheme for the multicomponent Navie...">
<polygon fill="white" stroke="#666666" points="53,-93.5 0,-93.5 0,-74.5 53,-74.5 53,-93.5"/>
<text text-anchor="middle" x="26.5" y="-81.5" font-family="Helvetica,sans-Serif" font-size="10.00">p_main</text>
</a>
</g>
</g>
<!-- Node5&#45;&gt;Node6 -->
<g id="edge5_Node000005_Node000006" class="edge">
<title>Node5&#45;&gt;Node6</title>
<g id="a_edge5_Node000005_Node000006"><a xlink:title=" ">
<path fill="none" stroke="#63b8ff" d="M90.73,-94.74C77.33,-92.47 64.02,-90.2 53.1,-88.35"/>
<polygon fill="#63b8ff" stroke="#63b8ff" points="90.51,-98.25 100.95,-96.48 91.68,-91.35 90.51,-98.25"/>
</a>
</g>
</g>
<!-- Node8 -->
<g id="Node000008" class="node">
<title>Node8</title>
<g id="a_Node000008"><a xlink:href="namespacem__data__output.html#ad7b2f63ea430ad1518152658c5488dcf" target="_top" xlink:title="Writes IB state records to restart_data/ib_state.dat. Must be called only on rank 0.">
<polygon fill="white" stroke="#666666" points="394,-78 263,-78 263,-48 394,-48 394,-78"/>
<text text-anchor="start" x="271" y="-66" font-family="Helvetica,sans-Serif" font-size="10.00">m_data_output::s_write</text>
<text text-anchor="middle" x="328.5" y="-55" font-family="Helvetica,sans-Serif" font-size="10.00">_ib_state_file</text>
</a>
</g>
</g>
<!-- Node7&#45;&gt;Node8 -->
<g id="edge7_Node000007_Node000008" class="edge">
<title>Node7&#45;&gt;Node8</title>
<g id="a_edge7_Node000007_Node000008"><a xlink:title=" ">
<path fill="none" stroke="#63b8ff" d="M446.7,-63C429.4,-63 411.12,-63 394.28,-63"/>
<polygon fill="#63b8ff" stroke="#63b8ff" points="446.77,-66.5 456.77,-63 446.77,-59.5 446.77,-66.5"/>
</a>
</g>
</g>
<!-- Node8&#45;&gt;Node5 -->
<g id="edge10_Node000008_Node000005" class="edge">
<title>Node8&#45;&gt;Node5</title>
<g id="a_edge10_Node000008_Node000005"><a xlink:title=" ">
<path fill="none" stroke="#63b8ff" d="M258.86,-80.52C237.48,-85.97 214.7,-91.78 196.31,-96.48"/>
<polygon fill="#63b8ff" stroke="#63b8ff" points="259.74,-83.9 268.57,-78.04 258.01,-77.12 259.74,-83.9"/>
</a>
</g>
</g>
<!-- Node9 -->
<g id="Node000009" class="node">
<title>Node9</title>
<g id="a_Node000009"><a xlink:href="namespacem__start__up.html#a1fb7a3f9d412acd2a9cbcfe8b45006dd" target="_top" xlink:title="Initialize all simulation sub&#45;modules in the required dependency order.">
<polygon fill="white" stroke="#666666" points="223,-78 93,-78 93,-48 223,-48 223,-78"/>
<text text-anchor="start" x="101" y="-66" font-family="Helvetica,sans-Serif" font-size="10.00">m_start_up::s_initialize</text>
<text text-anchor="middle" x="158" y="-55" font-family="Helvetica,sans-Serif" font-size="10.00">_modules</text>
</a>
</g>
</g>
<!-- Node8&#45;&gt;Node9 -->
<g id="edge8_Node000008_Node000009" class="edge">
<title>Node8&#45;&gt;Node9</title>
<g id="a_edge8_Node000008_Node000009"><a xlink:title=" ">
<path fill="none" stroke="#63b8ff" d="M252.68,-63C242.85,-63 232.85,-63 223.21,-63"/>
<polygon fill="#63b8ff" stroke="#63b8ff" points="252.84,-66.5 262.84,-63 252.84,-59.5 252.84,-66.5"/>
</a>
</g>
</g>
<!-- Node9&#45;&gt;Node6 -->
<g id="edge9_Node000009_Node000006" class="edge">
<title>Node9&#45;&gt;Node6</title>
<g id="a_edge9_Node000009_Node000006"><a xlink:title=" ">
<path fill="none" stroke="#63b8ff" d="M82.52,-75.08C72.04,-76.78 61.91,-78.42 53.26,-79.82"/>
<polygon fill="#63b8ff" stroke="#63b8ff" points="83.32,-78.49 92.63,-73.44 82.2,-71.58 83.32,-78.49"/>
</a>
</g>
</g>
<!-- Node10&#45;&gt;Node4 -->
<g id="edge12_Node000010_Node000004" class="edge">
<title>Node10&#45;&gt;Node4</title>
<g id="a_edge12_Node000010_Node000004"><a xlink:title=" ">
<path fill="none" stroke="#63b8ff" d="M446.7,-111C429.4,-111 411.12,-111 394.28,-111"/>
<polygon fill="#63b8ff" stroke="#63b8ff" points="446.77,-114.5 456.77,-111 446.77,-107.5 446.77,-114.5"/>
</a>
</g>
</g>
<!-- Node11&#45;&gt;Node8 -->
<g id="edge14_Node000011_Node000008" class="edge">
<title>Node11&#45;&gt;Node8</title>
<g id="a_edge14_Node000011_Node000008"><a xlink:title=" ">
<path fill="none" stroke="#63b8ff" d="M451.46,-32.51C431.14,-37.59 409.15,-43.09 389.51,-48"/>
<polygon fill="#63b8ff" stroke="#63b8ff" points="452.42,-35.88 461.28,-30.06 450.73,-29.09 452.42,-35.88"/>
</a>
</g>
</g>
</g>
</svg>
