<?xml version="1.0" encoding="UTF-8" standalone="no"?>
<!DOCTYPE svg PUBLIC "-//W3C//DTD SVG 1.1//EN"
 "http://www.w3.org/Graphics/SVG/1.1/DTD/svg11.dtd">
<!-- Generated by graphviz version 2.40.1 (20161225.0304)
 -->
<!-- Title: m_derived_variables::s_derive_higher_moments Pages: 1 -->
<svg width="338pt" height="125pt"
 viewBox="0.00 0.00 338.00 125.00" xmlns="http://www.w3.org/2000/svg" xmlns:xlink="http://www.w3.org/1999/xlink">
<g id="graph0" class="graph" transform="scale(1 1) rotate(0) translate(4 121)">
<title>m_derived_variables::s_derive_higher_moments</title>
<polygon fill="#ffffff" stroke="transparent" points="-4,4 -4,-121 334,-121 334,4 -4,4"/>
<!-- Node52 -->
<g id="node1" class="node">
<title>Node52</title>
<polygon fill="#bfbfbf" stroke="#000000" points="0,-45.5 0,-71.5 91,-71.5 91,-45.5 0,-45.5"/>
<text text-anchor="start" x="8" y="-61.1" font-family="Helvetica,sans-Serif" font-size="8.00" fill="#000000">m_derived_variables</text>
<text text-anchor="middle" x="45.5" y="-52.1" font-family="Helvetica,sans-Serif" font-size="8.00" fill="#000000">::s_derive_higher_moments</text>
</g>
<!-- Node53 -->
<g id="node2" class="node">
<title>Node53</title>
<g id="a_node2"><a xlink:href="namespacem__derived__variables.html#a2ee18c156bb444c6ab73d4762960ef67" target="_top" xlink:title="Compute non&#45;symmetric moments. ">
<polygon fill="#ffffff" stroke="#000000" points="127,-90.5 127,-116.5 222,-116.5 222,-90.5 127,-90.5"/>
<text text-anchor="start" x="135" y="-106.1" font-family="Helvetica,sans-Serif" font-size="8.00" fill="#000000">m_derived_variables</text>
<text text-anchor="middle" x="174.5" y="-97.1" font-family="Helvetica,sans-Serif" font-size="8.00" fill="#000000">::s_non_symmetric_moments</text>
</a>
</g>
</g>
<!-- Node52&#45;&gt;Node53 -->
<g id="edge1" class="edge">
<title>Node52&#45;&gt;Node53</title>
<path fill="none" stroke="#191970" d="M82.8121,-71.5159C96.5968,-76.3245 112.4094,-81.8405 126.9779,-86.9225"/>
<polygon fill="#191970" stroke="#191970" points="126.23,-90.3684 136.8248,-90.3575 128.5356,-83.759 126.23,-90.3684"/>
</g>
<!-- Node55 -->
<g id="node4" class="node">
<title>Node55</title>
<g id="a_node4"><a xlink:href="namespacem__mpi__proxy.html#a04ac565bad2b22dc045a5eeb4f516e2e" target="_top" xlink:title="The subroutine terminates the MPI execution environment. ">
<polygon fill="#ffffff" stroke="#000000" points="138.5,-45.5 138.5,-71.5 210.5,-71.5 210.5,-45.5 138.5,-45.5"/>
<text text-anchor="start" x="146.5" y="-61.1" font-family="Helvetica,sans-Serif" font-size="8.00" fill="#000000">m_mpi_proxy::s_mpi</text>
<text text-anchor="middle" x="174.5" y="-52.1" font-family="Helvetica,sans-Serif" font-size="8.00" fill="#000000">_abort</text>
</a>
</g>
</g>
<!-- Node52&#45;&gt;Node55 -->
<g id="edge3" class="edge">
<title>Node52&#45;&gt;Node55</title>
<path fill="none" stroke="#191970" d="M91.3438,-58.5C103.2182,-58.5 116.0156,-58.5 127.9269,-58.5"/>
<polygon fill="#191970" stroke="#191970" points="128.121,-62.0001 138.1209,-58.5 128.1209,-55.0001 128.121,-62.0001"/>
</g>
<!-- Node56 -->
<g id="node5" class="node">
<title>Node56</title>
<g id="a_node5"><a xlink:href="namespacem__derived__variables.html#ade52fa354cc5b681c4d6ef6fc8b2c61b" target="_top" xlink:title="Compute symmetric moments. ">
<polygon fill="#ffffff" stroke="#000000" points="133.5,-.5 133.5,-26.5 215.5,-26.5 215.5,-.5 133.5,-.5"/>
<text text-anchor="start" x="141.5" y="-16.1" font-family="Helvetica,sans-Serif" font-size="8.00" fill="#000000">m_derived_variables</text>
<text text-anchor="middle" x="174.5" y="-7.1" font-family="Helvetica,sans-Serif" font-size="8.00" fill="#000000">::s_symmetric_moments</text>
</a>
</g>
</g>
<!-- Node52&#45;&gt;Node56 -->
<g id="edge4" class="edge">
<title>Node52&#45;&gt;Node56</title>
<path fill="none" stroke="#191970" d="M82.8121,-45.4841C96.5968,-40.6755 112.4094,-35.1595 126.9779,-30.0775"/>
<polygon fill="#191970" stroke="#191970" points="128.5356,-33.241 136.8248,-26.6425 126.23,-26.6316 128.5356,-33.241"/>
</g>
<!-- Node54 -->
<g id="node3" class="node">
<title>Node54</title>
<g id="a_node3"><a xlink:href="namespacem__mpi__proxy.html#a873520062481f3dabcfa77f9bd7728d3" target="_top" xlink:title="The following subroutine takes the input local variable from all processors and reduces to the sum of...">
<polygon fill="#ffffff" stroke="#000000" points="258,-45.5 258,-71.5 330,-71.5 330,-45.5 258,-45.5"/>
<text text-anchor="start" x="266" y="-61.1" font-family="Helvetica,sans-Serif" font-size="8.00" fill="#000000">m_mpi_proxy::s_mpi</text>
<text text-anchor="middle" x="294" y="-52.1" font-family="Helvetica,sans-Serif" font-size="8.00" fill="#000000">_allreduce_sum</text>
</a>
</g>
</g>
<!-- Node53&#45;&gt;Node54 -->
<g id="edge2" class="edge">
<title>Node53&#45;&gt;Node54</title>
<path fill="none" stroke="#191970" d="M209.0644,-90.4841C221.7111,-85.7218 236.2005,-80.2655 249.588,-75.2242"/>
<polygon fill="#191970" stroke="#191970" points="250.9743,-78.4421 259.0993,-71.6425 248.5074,-71.8912 250.9743,-78.4421"/>
</g>
<!-- Node56&#45;&gt;Node54 -->
<g id="edge5" class="edge">
<title>Node56&#45;&gt;Node54</title>
<path fill="none" stroke="#191970" d="M209.0644,-26.5159C221.7111,-31.2782 236.2005,-36.7345 249.588,-41.7758"/>
<polygon fill="#191970" stroke="#191970" points="248.5074,-45.1088 259.0993,-45.3575 250.9743,-38.5579 248.5074,-45.1088"/>
</g>
</g>
</svg>
