<?xml version="1.0" encoding="UTF-8" standalone="no"?>
<!DOCTYPE svg PUBLIC "-//W3C//DTD SVG 1.1//EN"
 "http://www.w3.org/Graphics/SVG/1.1/DTD/svg11.dtd">
<!-- Generated by graphviz version 2.43.0 (0)
 -->
<!-- Title: m_ib_patches::f_convert_cyl_to_cart Pages: 1 -->
<svg width="463pt" height="86pt"
 viewBox="0.00 0.00 463.00 86.00" xmlns="http://www.w3.org/2000/svg" xmlns:xlink="http://www.w3.org/1999/xlink">
<g id="graph0" class="graph" transform="scale(1 1) rotate(0) translate(4 82)">
<title>m_ib_patches::f_convert_cyl_to_cart</title>
<!-- Node1 -->
<g id="Node000001" class="node">
<title>Node1</title>
<g id="a_Node000001"><a xlink:title="Converts a 3D cylindrical coordinate vector (x, r, theta) to Cartesian (x, y, z).">
<polygon fill="#999999" stroke="#666666" points="455,-54 319,-54 319,-24 455,-24 455,-54"/>
<text text-anchor="start" x="327" y="-42" font-family="Helvetica,sans-Serif" font-size="10.00">m_ib_patches::f_convert</text>
<text text-anchor="middle" x="387" y="-31" font-family="Helvetica,sans-Serif" font-size="10.00">_cyl_to_cart</text>
</a>
</g>
</g>
<!-- Node2 -->
<g id="Node000002" class="node">
<title>Node2</title>
<g id="a_Node000002"><a xlink:href="namespacem__ib__patches.html#ad65fcd78de38d7171fec8e095f1027e4" target="_top" xlink:title="The STL patch is a 2/3D geometry that is imported from an STL file.">
<polygon fill="white" stroke="#666666" points="278.5,-78 168.5,-78 168.5,-48 278.5,-48 278.5,-78"/>
<text text-anchor="start" x="176.5" y="-66" font-family="Helvetica,sans-Serif" font-size="10.00">m_ib_patches::s_ib</text>
<text text-anchor="middle" x="223.5" y="-55" font-family="Helvetica,sans-Serif" font-size="10.00">_model</text>
</a>
</g>
</g>
<!-- Node1&#45;&gt;Node2 -->
<g id="edge1_Node000001_Node000002" class="edge">
<title>Node1&#45;&gt;Node2</title>
<g id="a_edge1_Node000001_Node000002"><a xlink:title=" ">
<path fill="none" stroke="#63b8ff" d="M308.76,-50.48C298.57,-51.99 288.3,-53.52 278.6,-54.96"/>
<polygon fill="#63b8ff" stroke="#63b8ff" points="309.54,-53.9 318.91,-48.97 308.51,-46.98 309.54,-53.9"/>
</a>
</g>
</g>
<!-- Node4 -->
<g id="Node000004" class="node">
<title>Node4</title>
<g id="a_Node000004"><a xlink:href="namespacem__compute__levelset.html#adadad13569efd08e6caa0cb5b7157942" target="_top" xlink:title="The STL patch is a 2/3D geometry that is imported from an STL file.">
<polygon fill="white" stroke="#666666" points="283,-30 164,-30 164,0 283,0 283,-30"/>
<text text-anchor="start" x="172" y="-18" font-family="Helvetica,sans-Serif" font-size="10.00">m_compute_levelset</text>
<text text-anchor="middle" x="223.5" y="-7" font-family="Helvetica,sans-Serif" font-size="10.00">::s_model_levelset</text>
</a>
</g>
</g>
<!-- Node1&#45;&gt;Node4 -->
<g id="edge3_Node000001_Node000004" class="edge">
<title>Node1&#45;&gt;Node4</title>
<g id="a_edge3_Node000001_Node000004"><a xlink:title=" ">
<path fill="none" stroke="#63b8ff" d="M308.82,-27.53C300.19,-26.25 291.49,-24.96 283.14,-23.71"/>
<polygon fill="#63b8ff" stroke="#63b8ff" points="308.51,-31.02 318.91,-29.03 309.54,-24.1 308.51,-31.02"/>
</a>
</g>
</g>
<!-- Node3 -->
<g id="Node000003" class="node">
<title>Node3</title>
<g id="a_Node000003"><a xlink:href="namespacem__ib__patches.html#a646c4b52e6911ace117e421b3d442e09" target="_top" xlink:title="Applies all immersed boundary patch geometries to mark interior cells in the IB marker array.">
<polygon fill="white" stroke="#666666" points="128,-78 0,-78 0,-48 128,-48 128,-78"/>
<text text-anchor="start" x="8" y="-66" font-family="Helvetica,sans-Serif" font-size="10.00">m_ib_patches::s_apply</text>
<text text-anchor="middle" x="64" y="-55" font-family="Helvetica,sans-Serif" font-size="10.00">_ib_patches</text>
</a>
</g>
</g>
<!-- Node2&#45;&gt;Node3 -->
<g id="edge2_Node000002_Node000003" class="edge">
<title>Node2&#45;&gt;Node3</title>
<g id="a_edge2_Node000002_Node000003"><a xlink:title=" ">
<path fill="none" stroke="#63b8ff" d="M158.15,-63C148.28,-63 138.09,-63 128.25,-63"/>
<polygon fill="#63b8ff" stroke="#63b8ff" points="158.3,-66.5 168.3,-63 158.3,-59.5 158.3,-66.5"/>
</a>
</g>
</g>
<!-- Node5 -->
<g id="Node000005" class="node">
<title>Node5</title>
<g id="a_Node000005"><a xlink:href="namespacem__compute__levelset.html#a0e6b4900aa4a5fb7b36c59907f76bf54" target="_top" xlink:title="Dispatches level&#45;set distance and normal computations for all ghost points based on their patch geome...">
<polygon fill="white" stroke="#666666" points="123.5,-30 4.5,-30 4.5,0 123.5,0 123.5,-30"/>
<text text-anchor="start" x="12.5" y="-18" font-family="Helvetica,sans-Serif" font-size="10.00">m_compute_levelset</text>
<text text-anchor="middle" x="64" y="-7" font-family="Helvetica,sans-Serif" font-size="10.00">::s_apply_levelset</text>
</a>
</g>
</g>
<!-- Node4&#45;&gt;Node5 -->
<g id="edge4_Node000004_Node000005" class="edge">
<title>Node4&#45;&gt;Node5</title>
<g id="a_edge4_Node000004_Node000005"><a xlink:title=" ">
<path fill="none" stroke="#63b8ff" d="M153.57,-15C143.61,-15 133.43,-15 123.7,-15"/>
<polygon fill="#63b8ff" stroke="#63b8ff" points="153.85,-18.5 163.85,-15 153.85,-11.5 153.85,-18.5"/>
</a>
</g>
</g>
</g>
</svg>
