<?xml version="1.0" encoding="UTF-8" standalone="no"?>
<!DOCTYPE svg PUBLIC "-//W3C//DTD SVG 1.1//EN"
 "http://www.w3.org/Graphics/SVG/1.1/DTD/svg11.dtd">
<!-- Generated by graphviz version 2.43.0 (0)
 -->
<!-- Title: m_riemann_solvers::s_riemann_solver Pages: 1 -->
<svg width="873pt" height="469pt"
 viewBox="0.00 0.00 873.00 469.00" xmlns="http://www.w3.org/2000/svg" xmlns:xlink="http://www.w3.org/1999/xlink">
<g id="graph0" class="graph" transform="scale(1 1) rotate(0) translate(4 465)">
<title>m_riemann_solvers::s_riemann_solver</title>
<!-- Node1 -->
<g id="Node000001" class="node">
<title>Node1</title>
<g id="a_Node000001"><a xlink:title="Dispatch to the subroutines that are utilized to compute the Riemann problem solution....">
<polygon fill="#999999" stroke="#666666" points="119,-321 0,-321 0,-291 119,-291 119,-321"/>
<text text-anchor="start" x="8" y="-309" font-family="Helvetica,sans-Serif" font-size="10.00">m_riemann_solvers::</text>
<text text-anchor="middle" x="59.5" y="-298" font-family="Helvetica,sans-Serif" font-size="10.00">s_riemann_solver</text>
</a>
</g>
</g>
<!-- Node2 -->
<g id="Node000002" class="node">
<title>Node2</title>
<g id="a_Node000002"><a xlink:href="namespacem__riemann__solvers.html#a1b018ebed82e499a0589925651bba7a7" target="_top" xlink:title=" ">
<polygon fill="white" stroke="#666666" points="278,-297 158,-297 158,-267 278,-267 278,-297"/>
<text text-anchor="start" x="166" y="-285" font-family="Helvetica,sans-Serif" font-size="10.00">m_riemann_solvers::</text>
<text text-anchor="middle" x="218" y="-274" font-family="Helvetica,sans-Serif" font-size="10.00">s_hll_riemann_solver</text>
</a>
</g>
</g>
<!-- Node1&#45;&gt;Node2 -->
<g id="edge1_Node000001_Node000002" class="edge">
<title>Node1&#45;&gt;Node2</title>
<g id="a_edge1_Node000001_Node000002"><a xlink:title=" ">
<path fill="none" stroke="#63b8ff" d="M119.22,-297C128.62,-295.55 138.42,-294.05 148.03,-292.58"/>
<polygon fill="#63b8ff" stroke="#63b8ff" points="148.6,-296.03 157.95,-291.06 147.54,-289.11 148.6,-296.03"/>
</a>
</g>
</g>
<!-- Node14 -->
<g id="Node000014" class="node">
<title>Node14</title>
<g id="a_Node000014"><a xlink:href="namespacem__riemann__solvers.html#a6c9d70572e9b98586bab20b028557a5a" target="_top" xlink:title="This procedure is the implementation of the Harten, Lax, van Leer, and contact (HLLC) approximate Rie...">
<polygon fill="white" stroke="#666666" points="280.5,-246 155.5,-246 155.5,-216 280.5,-216 280.5,-246"/>
<text text-anchor="start" x="163.5" y="-234" font-family="Helvetica,sans-Serif" font-size="10.00">m_riemann_solvers::</text>
<text text-anchor="middle" x="218" y="-223" font-family="Helvetica,sans-Serif" font-size="10.00">s_hllc_riemann_solver</text>
</a>
</g>
</g>
<!-- Node1&#45;&gt;Node14 -->
<g id="edge13_Node000001_Node000014" class="edge">
<title>Node1&#45;&gt;Node14</title>
<g id="a_edge13_Node000001_Node000014"><a xlink:title=" ">
<path fill="none" stroke="#63b8ff" d="M89.23,-290.85C107.85,-281.17 132.69,-268.51 155,-258 160.44,-255.44 166.19,-252.82 171.9,-250.27"/>
<polygon fill="#63b8ff" stroke="#63b8ff" points="173.69,-253.3 181.43,-246.06 170.87,-246.9 173.69,-253.3"/>
</a>
</g>
</g>
<!-- Node19 -->
<g id="Node000019" class="node">
<title>Node19</title>
<g id="a_Node000019"><a xlink:href="namespacem__riemann__solvers.html#a00571de3c5571a731fbb093c00c77ed8" target="_top" xlink:title="HLLD Riemann solver resolves 5 of the 7 waves of MHD equations: 1 entropy wave, 2 Alfvén waves,...">
<polygon fill="white" stroke="#666666" points="281,-393 155,-393 155,-363 281,-363 281,-393"/>
<text text-anchor="start" x="163" y="-381" font-family="Helvetica,sans-Serif" font-size="10.00">m_riemann_solvers::</text>
<text text-anchor="middle" x="218" y="-370" font-family="Helvetica,sans-Serif" font-size="10.00">s_hlld_riemann_solver</text>
</a>
</g>
</g>
<!-- Node1&#45;&gt;Node19 -->
<g id="edge25_Node000001_Node000019" class="edge">
<title>Node1&#45;&gt;Node19</title>
<g id="a_edge25_Node000001_Node000019"><a xlink:title=" ">
<path fill="none" stroke="#63b8ff" d="M88.26,-321.03C106.9,-330.89 132.15,-343.8 155,-354 158.85,-355.72 162.87,-357.44 166.93,-359.12"/>
<polygon fill="#63b8ff" stroke="#63b8ff" points="165.82,-362.45 176.4,-362.96 168.45,-355.96 165.82,-362.45"/>
</a>
</g>
</g>
<!-- Node20 -->
<g id="Node000020" class="node">
<title>Node20</title>
<g id="a_Node000020"><a xlink:href="namespacem__riemann__solvers.html#a9874501694c99874d02ce0eefa258ce9" target="_top" xlink:title=" ">
<polygon fill="white" stroke="#666666" points="277.5,-345 158.5,-345 158.5,-315 277.5,-315 277.5,-345"/>
<text text-anchor="start" x="166.5" y="-333" font-family="Helvetica,sans-Serif" font-size="10.00">m_riemann_solvers::</text>
<text text-anchor="middle" x="218" y="-322" font-family="Helvetica,sans-Serif" font-size="10.00">s_lf_riemann_solver</text>
</a>
</g>
</g>
<!-- Node1&#45;&gt;Node20 -->
<g id="edge31_Node000001_Node000020" class="edge">
<title>Node1&#45;&gt;Node20</title>
<g id="a_edge31_Node000001_Node000020"><a xlink:title=" ">
<path fill="none" stroke="#63b8ff" d="M119.22,-315C128.75,-316.47 138.69,-317.99 148.42,-319.48"/>
<polygon fill="#63b8ff" stroke="#63b8ff" points="148.06,-322.97 158.47,-321.02 149.12,-316.05 148.06,-322.97"/>
</a>
</g>
</g>
<!-- Node3 -->
<g id="Node000003" class="node">
<title>Node3</title>
<g id="a_Node000003"><a xlink:href="namespacem__chemistry.html#adcf7ea4e71da08b937a94689dc134882" target="_top" xlink:title=" ">
<polygon fill="white" stroke="#666666" points="491,-198 352,-198 352,-168 491,-168 491,-198"/>
<text text-anchor="start" x="360" y="-186" font-family="Helvetica,sans-Serif" font-size="10.00">m_chemistry::compute</text>
<text text-anchor="middle" x="421.5" y="-175" font-family="Helvetica,sans-Serif" font-size="10.00">_viscosity_and_inversion</text>
</a>
</g>
</g>
<!-- Node2&#45;&gt;Node3 -->
<g id="edge2_Node000002_Node000003" class="edge">
<title>Node2&#45;&gt;Node3</title>
<g id="a_edge2_Node000002_Node000003"><a xlink:title=" ">
<path fill="none" stroke="#63b8ff" d="M261.69,-266.92C268.5,-263.55 275.2,-259.59 281,-255 301.92,-238.46 294.66,-221.56 317,-207 324.66,-202.01 333.23,-198.05 342.08,-194.91"/>
<polygon fill="#63b8ff" stroke="#63b8ff" points="343.3,-198.2 351.76,-191.82 341.17,-191.53 343.3,-198.2"/>
</a>
</g>
</g>
<!-- Node4 -->
<g id="Node000004" class="node">
<title>Node4</title>
<g id="a_Node000004"><a xlink:href="namespacem__variables__conversion.html#a03d13e39beb1daa9f6a59a469b10ebb5" target="_top" xlink:title=" ">
<polygon fill="white" stroke="#666666" points="526,-461 317,-461 317,-431 526,-431 526,-461"/>
<text text-anchor="start" x="325" y="-449" font-family="Helvetica,sans-Serif" font-size="10.00">m_variables_conversion</text>
<text text-anchor="middle" x="421.5" y="-438" font-family="Helvetica,sans-Serif" font-size="10.00">::s_compute_fast_magnetosonic_speed</text>
</a>
</g>
</g>
<!-- Node2&#45;&gt;Node4 -->
<g id="edge3_Node000002_Node000004" class="edge">
<title>Node2&#45;&gt;Node4</title>
<g id="a_edge3_Node000002_Node000004"><a xlink:title=" ">
<path fill="none" stroke="#63b8ff" d="M269.9,-297.03C273.98,-299.57 277.77,-302.54 281,-306 317.84,-345.45 277.46,-385.25 317,-422 318.14,-423.06 319.32,-424.08 320.53,-425.05"/>
<polygon fill="#63b8ff" stroke="#63b8ff" points="318.75,-428.08 328.97,-430.88 322.73,-422.32 318.75,-428.08"/>
</a>
</g>
</g>
<!-- Node5 -->
<g id="Node000005" class="node">
<title>Node5</title>
<g id="a_Node000005"><a xlink:href="namespacem__variables__conversion.html#a2592c29f5aae1605bdcf12dcf6315748" target="_top" xlink:title=" ">
<polygon fill="white" stroke="#666666" points="501.5,-246 341.5,-246 341.5,-216 501.5,-216 501.5,-246"/>
<text text-anchor="start" x="349.5" y="-234" font-family="Helvetica,sans-Serif" font-size="10.00">m_variables_conversion</text>
<text text-anchor="middle" x="421.5" y="-223" font-family="Helvetica,sans-Serif" font-size="10.00">::s_compute_speed_of_sound</text>
</a>
</g>
</g>
<!-- Node2&#45;&gt;Node5 -->
<g id="edge4_Node000002_Node000005" class="edge">
<title>Node2&#45;&gt;Node5</title>
<g id="a_edge4_Node000002_Node000005"><a xlink:title=" ">
<path fill="none" stroke="#63b8ff" d="M274.91,-266.93C288.66,-263.3 303.35,-259.46 317,-256 326.85,-253.51 337.23,-250.93 347.47,-248.42"/>
<polygon fill="#63b8ff" stroke="#63b8ff" points="348.34,-251.81 357.23,-246.05 346.68,-245.01 348.34,-251.81"/>
</a>
</g>
</g>
<!-- Node6 -->
<g id="Node000006" class="node">
<title>Node6</title>
<g id="a_Node000006"><a xlink:href="namespacem__riemann__solvers.html#af56b6cbad11d518778bed2a1139b32a1" target="_top" xlink:title="Dispatch to the subroutines that are utilized to compute the viscous source fluxes for either Cartesi...">
<polygon fill="white" stroke="#666666" points="508,-150 335,-150 335,-120 508,-120 508,-150"/>
<text text-anchor="start" x="343" y="-138" font-family="Helvetica,sans-Serif" font-size="10.00">m_riemann_solvers::</text>
<text text-anchor="middle" x="421.5" y="-127" font-family="Helvetica,sans-Serif" font-size="10.00">s_compute_viscous_source_flux</text>
</a>
</g>
</g>
<!-- Node2&#45;&gt;Node6 -->
<g id="edge5_Node000002_Node000006" class="edge">
<title>Node2&#45;&gt;Node6</title>
<g id="a_edge5_Node000002_Node000006"><a xlink:title=" ">
<path fill="none" stroke="#63b8ff" d="M265.42,-266.86C271.16,-263.6 276.55,-259.68 281,-255 312.37,-221.95 282.74,-189.04 317,-159 319.84,-156.51 322.88,-154.27 326.08,-152.25"/>
<polygon fill="#63b8ff" stroke="#63b8ff" points="327.81,-155.29 334.88,-147.4 324.43,-149.16 327.81,-155.29"/>
</a>
</g>
</g>
<!-- Node11 -->
<g id="Node000011" class="node">
<title>Node11</title>
<g id="a_Node000011"><a xlink:href="namespacem__riemann__solvers.html#a51d42487a854ac450d85324c77d51bdf" target="_top" xlink:title="Deallocation and/or disassociation procedures that are needed to finalize the selected Riemann proble...">
<polygon fill="white" stroke="#666666" points="493,-413 350,-413 350,-383 493,-383 493,-413"/>
<text text-anchor="start" x="358" y="-401" font-family="Helvetica,sans-Serif" font-size="10.00">m_riemann_solvers::</text>
<text text-anchor="middle" x="421.5" y="-390" font-family="Helvetica,sans-Serif" font-size="10.00">s_finalize_riemann_solver</text>
</a>
</g>
</g>
<!-- Node2&#45;&gt;Node11 -->
<g id="edge10_Node000002_Node000011" class="edge">
<title>Node2&#45;&gt;Node11</title>
<g id="a_edge10_Node000002_Node000011"><a xlink:title=" ">
<path fill="none" stroke="#63b8ff" d="M268.01,-297C272.68,-299.57 277.12,-302.55 281,-306 306.56,-328.72 289.9,-353.15 317,-374 323.96,-379.35 331.9,-383.55 340.23,-386.82"/>
<polygon fill="#63b8ff" stroke="#63b8ff" points="339.17,-390.16 349.77,-390.15 341.48,-383.55 339.17,-390.16"/>
</a>
</g>
</g>
<!-- Node12 -->
<g id="Node000012" class="node">
<title>Node12</title>
<g id="a_Node000012"><a xlink:href="namespacem__riemann__solvers.html#a99ceccfbf2d02b81c21cddbe156af054" target="_top" xlink:title="The computation of parameters, the allocation of memory, the association of pointers and/or the execu...">
<polygon fill="white" stroke="#666666" points="481,-364.5 362,-364.5 362,-323.5 481,-323.5 481,-364.5"/>
<text text-anchor="start" x="370" y="-352.5" font-family="Helvetica,sans-Serif" font-size="10.00">m_riemann_solvers::</text>
<text text-anchor="start" x="370" y="-341.5" font-family="Helvetica,sans-Serif" font-size="10.00">s_initialize_riemann</text>
<text text-anchor="middle" x="421.5" y="-330.5" font-family="Helvetica,sans-Serif" font-size="10.00">_solver</text>
</a>
</g>
</g>
<!-- Node2&#45;&gt;Node12 -->
<g id="edge11_Node000002_Node000012" class="edge">
<title>Node2&#45;&gt;Node12</title>
<g id="a_edge11_Node000002_Node000012"><a xlink:title=" ">
<path fill="none" stroke="#63b8ff" d="M262.26,-297.1C279.26,-302.9 298.99,-309.45 317,-315 328.28,-318.48 340.31,-322.01 352.03,-325.35"/>
<polygon fill="#63b8ff" stroke="#63b8ff" points="351.2,-328.76 361.78,-328.11 353.11,-322.02 351.2,-328.76"/>
</a>
</g>
</g>
<!-- Node13 -->
<g id="Node000013" class="node">
<title>Node13</title>
<g id="a_Node000013"><a xlink:href="namespacem__riemann__solvers.html#a44904d3bd77a85446482eacbe696bac3" target="_top" xlink:title="The purpose of this subroutine is to populate the buffers of the left and right Riemann states variab...">
<polygon fill="white" stroke="#666666" points="497,-305.5 346,-305.5 346,-264.5 497,-264.5 497,-305.5"/>
<text text-anchor="start" x="354" y="-293.5" font-family="Helvetica,sans-Serif" font-size="10.00">m_riemann_solvers::</text>
<text text-anchor="start" x="354" y="-282.5" font-family="Helvetica,sans-Serif" font-size="10.00">s_populate_riemann_states</text>
<text text-anchor="middle" x="421.5" y="-271.5" font-family="Helvetica,sans-Serif" font-size="10.00">_variables_buffers</text>
</a>
</g>
</g>
<!-- Node2&#45;&gt;Node13 -->
<g id="edge12_Node000002_Node000013" class="edge">
<title>Node2&#45;&gt;Node13</title>
<g id="a_edge12_Node000002_Node000013"><a xlink:title=" ">
<path fill="none" stroke="#63b8ff" d="M278.1,-282.88C296.19,-283.15 316.46,-283.45 335.91,-283.74"/>
<polygon fill="#63b8ff" stroke="#63b8ff" points="335.94,-287.24 345.99,-283.89 336.04,-280.24 335.94,-287.24"/>
</a>
</g>
</g>
<!-- Node7 -->
<g id="Node000007" class="node">
<title>Node7</title>
<g id="a_Node000007"><a xlink:href="namespacem__riemann__solvers.html#a319fe3e845f0472eedfbe838ac7c35f4" target="_top" xlink:title="Computes Cartesian viscous source flux contributions for momentum and energy. Calculates averaged vel...">
<polygon fill="white" stroke="#666666" points="684.5,-123.5 564.5,-123.5 564.5,-82.5 684.5,-82.5 684.5,-123.5"/>
<text text-anchor="start" x="572.5" y="-111.5" font-family="Helvetica,sans-Serif" font-size="10.00">m_riemann_solvers::</text>
<text text-anchor="start" x="572.5" y="-100.5" font-family="Helvetica,sans-Serif" font-size="10.00">s_compute_cartesian</text>
<text text-anchor="middle" x="624.5" y="-89.5" font-family="Helvetica,sans-Serif" font-size="10.00">_viscous_source_flux</text>
</a>
</g>
</g>
<!-- Node6&#45;&gt;Node7 -->
<g id="edge6_Node000006_Node000007" class="edge">
<title>Node6&#45;&gt;Node7</title>
<g id="a_edge6_Node000006_Node000007"><a xlink:title=" ">
<path fill="none" stroke="#63b8ff" d="M508.03,-121.38C523.49,-118.92 539.42,-116.39 554.34,-114.01"/>
<polygon fill="#63b8ff" stroke="#63b8ff" points="555.15,-117.43 564.48,-112.4 554.05,-110.51 555.15,-117.43"/>
</a>
</g>
</g>
<!-- Node10 -->
<g id="Node000010" class="node">
<title>Node10</title>
<g id="a_Node000010"><a xlink:href="namespacem__riemann__solvers.html#a225f72f7e466dad77766ea2fe27a7a05" target="_top" xlink:title="Computes cylindrical viscous source flux contributions for momentum and energy. Calculates Cartesian ...">
<polygon fill="white" stroke="#666666" points="687,-182.5 562,-182.5 562,-141.5 687,-141.5 687,-182.5"/>
<text text-anchor="start" x="570" y="-170.5" font-family="Helvetica,sans-Serif" font-size="10.00">m_riemann_solvers::</text>
<text text-anchor="start" x="570" y="-159.5" font-family="Helvetica,sans-Serif" font-size="10.00">s_compute_cylindrical</text>
<text text-anchor="middle" x="624.5" y="-148.5" font-family="Helvetica,sans-Serif" font-size="10.00">_viscous_source_flux</text>
</a>
</g>
</g>
<!-- Node6&#45;&gt;Node10 -->
<g id="edge9_Node000006_Node000010" class="edge">
<title>Node6&#45;&gt;Node10</title>
<g id="a_edge9_Node000006_Node000010"><a xlink:title=" ">
<path fill="none" stroke="#63b8ff" d="M508.03,-146.49C522.56,-148.44 537.52,-150.45 551.65,-152.35"/>
<polygon fill="#63b8ff" stroke="#63b8ff" points="551.4,-155.85 561.78,-153.71 552.34,-148.91 551.4,-155.85"/>
</a>
</g>
</g>
<!-- Node8 -->
<g id="Node000008" class="node">
<title>Node8</title>
<g id="a_Node000008"><a xlink:href="namespacem__riemann__solvers.html#a35f34b24d646ebbcf5e3ff58fade51f9" target="_top" xlink:title="Calculates bulk stress tensor components (diagonal only). tau_ii_bulk = (div_v) / Re_bulk....">
<polygon fill="white" stroke="#666666" points="860,-92.5 728,-92.5 728,-51.5 860,-51.5 860,-92.5"/>
<text text-anchor="start" x="736" y="-80.5" font-family="Helvetica,sans-Serif" font-size="10.00">m_riemann_solvers::</text>
<text text-anchor="start" x="736" y="-69.5" font-family="Helvetica,sans-Serif" font-size="10.00">s_calculate_bulk_stress</text>
<text text-anchor="middle" x="794" y="-58.5" font-family="Helvetica,sans-Serif" font-size="10.00">_tensor</text>
</a>
</g>
</g>
<!-- Node7&#45;&gt;Node8 -->
<g id="edge7_Node000007_Node000008" class="edge">
<title>Node7&#45;&gt;Node8</title>
<g id="a_edge7_Node000007_Node000008"><a xlink:title=" ">
<path fill="none" stroke="#63b8ff" d="M684.55,-92.07C695.3,-90.08 706.64,-87.98 717.78,-85.92"/>
<polygon fill="#63b8ff" stroke="#63b8ff" points="718.73,-89.31 727.92,-84.04 717.45,-82.42 718.73,-89.31"/>
</a>
</g>
</g>
<!-- Node9 -->
<g id="Node000009" class="node">
<title>Node9</title>
<g id="a_Node000009"><a xlink:href="namespacem__riemann__solvers.html#a6cea0144511b3c7e347b17078472dd9a" target="_top" xlink:title="Calculates shear stress tensor components. tau_ij_shear = ( (dui/dxj + duj/dxi) &#45; (2/3)*(div_v)*delta...">
<polygon fill="white" stroke="#666666" points="863,-151.5 725,-151.5 725,-110.5 863,-110.5 863,-151.5"/>
<text text-anchor="start" x="733" y="-139.5" font-family="Helvetica,sans-Serif" font-size="10.00">m_riemann_solvers::</text>
<text text-anchor="start" x="733" y="-128.5" font-family="Helvetica,sans-Serif" font-size="10.00">s_calculate_shear_stress</text>
<text text-anchor="middle" x="794" y="-117.5" font-family="Helvetica,sans-Serif" font-size="10.00">_tensor</text>
</a>
</g>
</g>
<!-- Node7&#45;&gt;Node9 -->
<g id="edge8_Node000007_Node000009" class="edge">
<title>Node7&#45;&gt;Node9</title>
<g id="a_edge8_Node000007_Node000009"><a xlink:title=" ">
<path fill="none" stroke="#63b8ff" d="M684.55,-112.87C694.3,-114.5 704.54,-116.21 714.67,-117.91"/>
<polygon fill="#63b8ff" stroke="#63b8ff" points="714.31,-121.39 724.75,-119.59 715.46,-114.49 714.31,-121.39"/>
</a>
</g>
</g>
<!-- Node14&#45;&gt;Node3 -->
<g id="edge14_Node000014_Node000003" class="edge">
<title>Node14&#45;&gt;Node3</title>
<g id="a_edge14_Node000014_Node000003"><a xlink:title=" ">
<path fill="none" stroke="#63b8ff" d="M279.87,-215.97C292.16,-212.97 304.99,-209.86 317,-207 326.12,-204.83 335.7,-202.57 345.2,-200.35"/>
<polygon fill="#63b8ff" stroke="#63b8ff" points="346.1,-203.73 355.05,-198.05 344.51,-196.91 346.1,-203.73"/>
</a>
</g>
</g>
<!-- Node14&#45;&gt;Node5 -->
<g id="edge20_Node000014_Node000005" class="edge">
<title>Node14&#45;&gt;Node5</title>
<g id="a_edge20_Node000014_Node000005"><a xlink:title=" ">
<path fill="none" stroke="#63b8ff" d="M280.55,-231C296.61,-231 314.25,-231 331.42,-231"/>
<polygon fill="#63b8ff" stroke="#63b8ff" points="331.47,-234.5 341.47,-231 331.47,-227.5 331.47,-234.5"/>
</a>
</g>
</g>
<!-- Node14&#45;&gt;Node6 -->
<g id="edge21_Node000014_Node000006" class="edge">
<title>Node14&#45;&gt;Node6</title>
<g id="a_edge21_Node000014_Node000006"><a xlink:title=" ">
<path fill="none" stroke="#63b8ff" d="M235.01,-215.99C253.4,-199.56 285.16,-173.63 317,-159 321.43,-156.97 326.05,-155.09 330.76,-153.38"/>
<polygon fill="#63b8ff" stroke="#63b8ff" points="332.22,-156.58 340.57,-150.06 329.97,-149.95 332.22,-156.58"/>
</a>
</g>
</g>
<!-- Node14&#45;&gt;Node11 -->
<g id="edge22_Node000014_Node000011" class="edge">
<title>Node14&#45;&gt;Node11</title>
<g id="a_edge22_Node000014_Node000011"><a xlink:title=" ">
<path fill="none" stroke="#63b8ff" d="M265.99,-246.08C271.57,-249.35 276.77,-253.28 281,-258 317.02,-298.21 277.46,-337.25 317,-374 323.75,-380.27 331.8,-385.01 340.39,-388.57"/>
<polygon fill="#63b8ff" stroke="#63b8ff" points="339.3,-391.9 349.89,-392 341.67,-385.31 339.3,-391.9"/>
</a>
</g>
</g>
<!-- Node14&#45;&gt;Node12 -->
<g id="edge23_Node000014_Node000012" class="edge">
<title>Node14&#45;&gt;Node12</title>
<g id="a_edge23_Node000014_Node000012"><a xlink:title=" ">
<path fill="none" stroke="#63b8ff" d="M262.66,-246.01C269.2,-249.36 275.56,-253.34 281,-258 303.74,-277.51 292.97,-297.1 317,-315 327.27,-322.65 339.48,-328.29 351.84,-332.44"/>
<polygon fill="#63b8ff" stroke="#63b8ff" points="351.17,-335.89 361.76,-335.45 353.21,-329.19 351.17,-335.89"/>
</a>
</g>
</g>
<!-- Node14&#45;&gt;Node13 -->
<g id="edge24_Node000014_Node000013" class="edge">
<title>Node14&#45;&gt;Node13</title>
<g id="a_edge24_Node000014_Node000013"><a xlink:title=" ">
<path fill="none" stroke="#63b8ff" d="M275.13,-246.04C294.03,-251.11 315.55,-256.88 336.14,-262.39"/>
<polygon fill="#63b8ff" stroke="#63b8ff" points="335.27,-265.78 345.84,-264.99 337.08,-259.02 335.27,-265.78"/>
</a>
</g>
</g>
<!-- Node15 -->
<g id="Node000015" class="node">
<title>Node15</title>
<g id="a_Node000015"><a xlink:href="namespacem__bubbles.html#a81ceea09547775d9e7e50dbd6bf7386f" target="_top" xlink:title="Function that computes the bubble wall pressure for Keller–Miksis bubbles.">
<polygon fill="white" stroke="#666666" points="487,-24.5 356,-24.5 356,-5.5 487,-5.5 487,-24.5"/>
<text text-anchor="middle" x="421.5" y="-12.5" font-family="Helvetica,sans-Serif" font-size="10.00">m_bubbles::f_cpbw_km</text>
</a>
</g>
</g>
<!-- Node14&#45;&gt;Node15 -->
<g id="edge15_Node000014_Node000015" class="edge">
<title>Node14&#45;&gt;Node15</title>
<g id="a_edge15_Node000014_Node000015"><a xlink:title=" ">
<path fill="none" stroke="#63b8ff" d="M223.15,-215.79C233.3,-181.42 262.6,-97.15 317,-51 329.32,-40.55 344.85,-33.07 360.11,-27.75"/>
<polygon fill="#63b8ff" stroke="#63b8ff" points="361.61,-30.94 370.06,-24.54 359.47,-24.27 361.61,-30.94"/>
</a>
</g>
</g>
<!-- Node18 -->
<g id="Node000018" class="node">
<title>Node18</title>
<g id="a_Node000018"><a xlink:href="namespacem__surface__tension.html#a7d0c790d49e89be490b945f6a344fa8c" target="_top" xlink:title=" ">
<polygon fill="white" stroke="#666666" points="480,-101.5 363,-101.5 363,-60.5 480,-60.5 480,-101.5"/>
<text text-anchor="start" x="371" y="-89.5" font-family="Helvetica,sans-Serif" font-size="10.00">m_surface_tension::</text>
<text text-anchor="start" x="371" y="-78.5" font-family="Helvetica,sans-Serif" font-size="10.00">s_compute_capillary</text>
<text text-anchor="middle" x="421.5" y="-67.5" font-family="Helvetica,sans-Serif" font-size="10.00">_source_flux</text>
</a>
</g>
</g>
<!-- Node14&#45;&gt;Node18 -->
<g id="edge19_Node000014_Node000018" class="edge">
<title>Node14&#45;&gt;Node18</title>
<g id="a_edge19_Node000014_Node000018"><a xlink:title=" ">
<path fill="none" stroke="#63b8ff" d="M227.14,-216C241.74,-190.53 274.81,-138.88 317,-111 327.88,-103.81 340.51,-98.31 353.14,-94.11"/>
<polygon fill="#63b8ff" stroke="#63b8ff" points="354.23,-97.44 362.76,-91.15 352.17,-90.75 354.23,-97.44"/>
</a>
</g>
</g>
<!-- Node15&#45;&gt;Node15 -->
<g id="edge16_Node000015_Node000015" class="edge">
<title>Node15&#45;&gt;Node15</title>
<g id="a_edge16_Node000015_Node000015"><a xlink:title=" ">
<path fill="none" stroke="#63b8ff" d="M390.37,-24.58C375.22,-33.23 385.6,-42.5 421.5,-42.5 446.74,-42.5 459.37,-37.92 459.37,-32.19"/>
<polygon fill="#63b8ff" stroke="#63b8ff" points="461.89,-29.75 452.63,-24.58 456.65,-34.39 461.89,-29.75"/>
</a>
</g>
</g>
<!-- Node16 -->
<g id="Node000016" class="node">
<title>Node16</title>
<g id="a_Node000016"><a xlink:href="namespacem__helper__basic.html#af1b06a05daa43f724ac3b0ff2f97db14" target="_top" xlink:title="Checks if a real(wp) variable is of default value.">
<polygon fill="white" stroke="#666666" points="682.5,-30 566.5,-30 566.5,0 682.5,0 682.5,-30"/>
<text text-anchor="start" x="574.5" y="-18" font-family="Helvetica,sans-Serif" font-size="10.00">m_helper_basic::f_is</text>
<text text-anchor="middle" x="624.5" y="-7" font-family="Helvetica,sans-Serif" font-size="10.00">_default</text>
</a>
</g>
</g>
<!-- Node15&#45;&gt;Node16 -->
<g id="edge17_Node000015_Node000016" class="edge">
<title>Node15&#45;&gt;Node16</title>
<g id="a_edge17_Node000015_Node000016"><a xlink:title=" ">
<path fill="none" stroke="#63b8ff" d="M487.2,-15C509.3,-15 534.05,-15 556.33,-15"/>
<polygon fill="#63b8ff" stroke="#63b8ff" points="556.38,-18.5 566.38,-15 556.38,-11.5 556.38,-18.5"/>
</a>
</g>
</g>
<!-- Node17 -->
<g id="Node000017" class="node">
<title>Node17</title>
<g id="a_Node000017"><a xlink:href="namespacem__helper__basic.html#a3f0eae73a833f30924d4b2665a13a429" target="_top" xlink:title="This procedure checks if two floating point numbers of wp are within tolerance.">
<polygon fill="white" stroke="#666666" points="865,-30 723,-30 723,0 865,0 865,-30"/>
<text text-anchor="start" x="731" y="-18" font-family="Helvetica,sans-Serif" font-size="10.00">m_helper_basic::f_approx</text>
<text text-anchor="middle" x="794" y="-7" font-family="Helvetica,sans-Serif" font-size="10.00">_equal</text>
</a>
</g>
</g>
<!-- Node16&#45;&gt;Node17 -->
<g id="edge18_Node000016_Node000017" class="edge">
<title>Node16&#45;&gt;Node17</title>
<g id="a_edge18_Node000016_Node000017"><a xlink:title=" ">
<path fill="none" stroke="#63b8ff" d="M682.68,-15C692.34,-15 702.54,-15 712.66,-15"/>
<polygon fill="#63b8ff" stroke="#63b8ff" points="712.75,-18.5 722.75,-15 712.75,-11.5 712.75,-18.5"/>
</a>
</g>
</g>
<!-- Node19&#45;&gt;Node4 -->
<g id="edge26_Node000019_Node000004" class="edge">
<title>Node19&#45;&gt;Node4</title>
<g id="a_edge26_Node000019_Node000004"><a xlink:title=" ">
<path fill="none" stroke="#63b8ff" d="M248.42,-393.02C267.58,-402.34 293.32,-414.02 317,-422 323.73,-424.27 330.78,-426.4 337.89,-428.37"/>
<polygon fill="#63b8ff" stroke="#63b8ff" points="337.05,-431.77 347.62,-430.98 338.86,-425.01 337.05,-431.77"/>
</a>
</g>
</g>
<!-- Node19&#45;&gt;Node5 -->
<g id="edge27_Node000019_Node000005" class="edge">
<title>Node19&#45;&gt;Node5</title>
<g id="a_edge27_Node000019_Node000005"><a xlink:title=" ">
<path fill="none" stroke="#63b8ff" d="M269.42,-362.97C273.65,-360.43 277.6,-357.46 281,-354 313.53,-320.91 282.36,-286.87 317,-256 321.55,-251.94 326.65,-248.52 332.08,-245.62"/>
<polygon fill="#63b8ff" stroke="#63b8ff" points="333.9,-248.64 341.49,-241.25 330.94,-242.29 333.9,-248.64"/>
</a>
</g>
</g>
<!-- Node19&#45;&gt;Node11 -->
<g id="edge28_Node000019_Node000011" class="edge">
<title>Node19&#45;&gt;Node11</title>
<g id="a_edge28_Node000019_Node000011"><a xlink:title=" ">
<path fill="none" stroke="#63b8ff" d="M281.1,-384.16C299.61,-386 320.18,-388.04 339.7,-389.98"/>
<polygon fill="#63b8ff" stroke="#63b8ff" points="339.5,-393.48 349.8,-390.98 340.19,-386.51 339.5,-393.48"/>
</a>
</g>
</g>
<!-- Node19&#45;&gt;Node12 -->
<g id="edge29_Node000019_Node000012" class="edge">
<title>Node19&#45;&gt;Node12</title>
<g id="a_edge29_Node000019_Node000012"><a xlink:title=" ">
<path fill="none" stroke="#63b8ff" d="M281.1,-367.52C303.46,-363.75 328.82,-359.47 351.72,-355.61"/>
<polygon fill="#63b8ff" stroke="#63b8ff" points="352.43,-359.04 361.7,-353.92 351.26,-352.13 352.43,-359.04"/>
</a>
</g>
</g>
<!-- Node19&#45;&gt;Node13 -->
<g id="edge30_Node000019_Node000013" class="edge">
<title>Node19&#45;&gt;Node13</title>
<g id="a_edge30_Node000019_Node000013"><a xlink:title=" ">
<path fill="none" stroke="#63b8ff" d="M264.91,-363C270.53,-360.37 276.04,-357.38 281,-354 300.5,-340.73 296.94,-327.41 317,-315 323.07,-311.25 329.63,-307.94 336.4,-305.04"/>
<polygon fill="#63b8ff" stroke="#63b8ff" points="337.74,-308.28 345.74,-301.33 335.15,-301.78 337.74,-308.28"/>
</a>
</g>
</g>
<!-- Node20&#45;&gt;Node4 -->
<g id="edge32_Node000020_Node000004" class="edge">
<title>Node20&#45;&gt;Node4</title>
<g id="a_edge32_Node000020_Node000004"><a xlink:title=" ">
<path fill="none" stroke="#63b8ff" d="M268.01,-345C272.68,-347.57 277.12,-350.55 281,-354 306.56,-376.72 289.9,-401.15 317,-422 318.81,-423.39 320.69,-424.71 322.62,-425.95"/>
<polygon fill="#63b8ff" stroke="#63b8ff" points="321.01,-429.06 331.44,-430.93 324.45,-422.96 321.01,-429.06"/>
</a>
</g>
</g>
<!-- Node20&#45;&gt;Node5 -->
<g id="edge33_Node000020_Node000005" class="edge">
<title>Node20&#45;&gt;Node5</title>
<g id="a_edge33_Node000020_Node000005"><a xlink:title=" ">
<path fill="none" stroke="#63b8ff" d="M266.6,-314.93C271.7,-312.35 276.62,-309.39 281,-306 302.66,-289.25 294.28,-271.28 317,-256 321.65,-252.87 326.65,-250.14 331.85,-247.74"/>
<polygon fill="#63b8ff" stroke="#63b8ff" points="333.5,-250.85 341.4,-243.79 330.82,-244.38 333.5,-250.85"/>
</a>
</g>
</g>
<!-- Node20&#45;&gt;Node11 -->
<g id="edge34_Node000020_Node000011" class="edge">
<title>Node20&#45;&gt;Node11</title>
<g id="a_edge34_Node000020_Node000011"><a xlink:title=" ">
<path fill="none" stroke="#63b8ff" d="M260.36,-345.09C267.32,-347.89 274.42,-350.91 281,-354 297.57,-361.77 299.92,-367.42 317,-374 324.4,-376.85 332.24,-379.42 340.16,-381.72"/>
<polygon fill="#63b8ff" stroke="#63b8ff" points="339.26,-385.11 349.83,-384.4 341.13,-378.36 339.26,-385.11"/>
</a>
</g>
</g>
<!-- Node20&#45;&gt;Node12 -->
<g id="edge35_Node000020_Node000012" class="edge">
<title>Node20&#45;&gt;Node12</title>
<g id="a_edge35_Node000020_Node000012"><a xlink:title=" ">
<path fill="none" stroke="#63b8ff" d="M277.55,-334.07C300.73,-335.68 327.55,-337.54 351.66,-339.22"/>
<polygon fill="#63b8ff" stroke="#63b8ff" points="351.58,-342.72 361.8,-339.92 352.07,-335.74 351.58,-342.72"/>
</a>
</g>
</g>
<!-- Node20&#45;&gt;Node13 -->
<g id="edge36_Node000020_Node000013" class="edge">
<title>Node20&#45;&gt;Node13</title>
<g id="a_edge36_Node000020_Node000013"><a xlink:title=" ">
<path fill="none" stroke="#63b8ff" d="M277.55,-316.92C295.84,-312.84 316.4,-308.25 336.1,-303.85"/>
<polygon fill="#63b8ff" stroke="#63b8ff" points="337,-307.23 345.99,-301.64 335.47,-300.4 337,-307.23"/>
</a>
</g>
</g>
</g>
</svg>
