<?xml version="1.0" encoding="UTF-8" standalone="no"?>
<!DOCTYPE svg PUBLIC "-//W3C//DTD SVG 1.1//EN"
 "http://www.w3.org/Graphics/SVG/1.1/DTD/svg11.dtd">
<!-- Generated by graphviz version 2.40.1 (20161225.0304)
 -->
<!-- Title: m_cbc::s_initialize_cbc Pages: 1 -->
<svg width="466pt" height="215pt"
 viewBox="0.00 0.00 466.00 215.00" xmlns="http://www.w3.org/2000/svg" xmlns:xlink="http://www.w3.org/1999/xlink">
<g id="graph0" class="graph" transform="scale(1 1) rotate(0) translate(4 211)">
<title>m_cbc::s_initialize_cbc</title>
<polygon fill="#ffffff" stroke="transparent" points="-4,4 -4,-211 462,-211 462,4 -4,4"/>
<!-- Node148 -->
<g id="node1" class="node">
<title>Node148</title>
<polygon fill="#bfbfbf" stroke="#000000" points="0,-95 0,-112 78,-112 78,-95 0,-95"/>
<text text-anchor="middle" x="39" y="-101.6" font-family="Helvetica,sans-Serif" font-size="8.00" fill="#000000">m_cbc::s_initialize_cbc</text>
</g>
<!-- Node149 -->
<g id="node2" class="node">
<title>Node149</title>
<g id="a_node2"><a xlink:href="namespacem__cbc.html#a72cc3ba5a0de327fae70742734e77492" target="_top" xlink:title="The following is the implementation of the CBC based on the work of Thompson (1987, 1990) on hyperbolic systems. The CBC is indirectly applied in the computation of the right&#45;hand&#45;side (RHS) near the relevant domain boundary through the modification of the fluxes. ">
<polygon fill="#ffffff" stroke="#000000" points="114,-95 114,-112 167,-112 167,-95 114,-95"/>
<text text-anchor="middle" x="140.5" y="-101.6" font-family="Helvetica,sans-Serif" font-size="8.00" fill="#000000">m_cbc::s_cbc</text>
</a>
</g>
</g>
<!-- Node148&#45;&gt;Node149 -->
<g id="edge1" class="edge">
<title>Node148&#45;&gt;Node149</title>
<path fill="none" stroke="#191970" d="M88.465,-103.5C97.2469,-103.5 106.0801,-103.5 113.9118,-103.5"/>
<polygon fill="#191970" stroke="#191970" points="88.2426,-100.0001 78.2426,-103.5 88.2425,-107.0001 88.2426,-100.0001"/>
</g>
<!-- Node150 -->
<g id="node3" class="node">
<title>Node150</title>
<g id="a_node3"><a xlink:href="namespacem__rhs.html#a361f0038973069452cc88430c49bcfe8" target="_top" xlink:title="The purpose of this procedure is to employ the inputted cell&#45;average conservative variables in order ...">
<polygon fill="#ffffff" stroke="#000000" points="203,-95 203,-112 281,-112 281,-95 203,-95"/>
<text text-anchor="middle" x="242" y="-101.6" font-family="Helvetica,sans-Serif" font-size="8.00" fill="#000000">m_rhs::s_compute_rhs</text>
</a>
</g>
</g>
<!-- Node149&#45;&gt;Node150 -->
<g id="edge2" class="edge">
<title>Node149&#45;&gt;Node150</title>
<path fill="none" stroke="#191970" d="M177.3358,-103.5C185.6499,-103.5 194.5039,-103.5 202.9072,-103.5"/>
<polygon fill="#191970" stroke="#191970" points="177.168,-100.0001 167.1679,-103.5 177.1679,-107.0001 177.168,-100.0001"/>
</g>
<!-- Node151 -->
<g id="node4" class="node">
<title>Node151</title>
<g id="a_node4"><a xlink:href="namespacem__time__steppers.html#a1057850f94e9e749da9687baa7478246" target="_top" xlink:title="1st order TVD RK time&#45;stepping algorithm ">
<polygon fill="#ffffff" stroke="#000000" points="317,-180.5 317,-206.5 386,-206.5 386,-180.5 317,-180.5"/>
<text text-anchor="start" x="325" y="-196.1" font-family="Helvetica,sans-Serif" font-size="8.00" fill="#000000">m_time_steppers::s</text>
<text text-anchor="middle" x="351.5" y="-187.1" font-family="Helvetica,sans-Serif" font-size="8.00" fill="#000000">_1st_order_tvd_rk</text>
</a>
</g>
</g>
<!-- Node150&#45;&gt;Node151 -->
<g id="edge3" class="edge">
<title>Node150&#45;&gt;Node151</title>
<path fill="none" stroke="#191970" d="M258.1111,-119.5829C272.845,-133.9243 295.5476,-155.1214 317,-171.5 320.9524,-174.5176 325.3228,-177.5298 329.5871,-180.314"/>
<polygon fill="#191970" stroke="#191970" points="260.3875,-116.9125 250.804,-112.3949 255.4785,-121.9028 260.3875,-116.9125"/>
</g>
<!-- Node153 -->
<g id="node6" class="node">
<title>Node153</title>
<g id="a_node6"><a xlink:href="namespacem__time__steppers.html#a5b758874c713da801a47aa3d6246b2fd" target="_top" xlink:title="2nd order TVD RK time&#45;stepping algorithm ">
<polygon fill="#ffffff" stroke="#000000" points="317,-135.5 317,-161.5 386,-161.5 386,-135.5 317,-135.5"/>
<text text-anchor="start" x="325" y="-151.1" font-family="Helvetica,sans-Serif" font-size="8.00" fill="#000000">m_time_steppers::s</text>
<text text-anchor="middle" x="351.5" y="-142.1" font-family="Helvetica,sans-Serif" font-size="8.00" fill="#000000">_2nd_order_tvd_rk</text>
</a>
</g>
</g>
<!-- Node150&#45;&gt;Node153 -->
<g id="edge5" class="edge">
<title>Node150&#45;&gt;Node153</title>
<path fill="none" stroke="#191970" d="M272.4623,-116.0187C287.1125,-122.0394 304.6727,-129.2559 319.5164,-135.3561"/>
<polygon fill="#191970" stroke="#191970" points="273.4337,-112.634 262.8539,-112.0701 270.7728,-119.1086 273.4337,-112.634"/>
</g>
<!-- Node154 -->
<g id="node7" class="node">
<title>Node154</title>
<g id="a_node7"><a xlink:href="namespacem__time__steppers.html#a1cc10f406268344cc54a55159c4ff08f" target="_top" xlink:title="3rd order TVD RK time&#45;stepping algorithm ">
<polygon fill="#ffffff" stroke="#000000" points="317,-90.5 317,-116.5 386,-116.5 386,-90.5 317,-90.5"/>
<text text-anchor="start" x="325" y="-106.1" font-family="Helvetica,sans-Serif" font-size="8.00" fill="#000000">m_time_steppers::s</text>
<text text-anchor="middle" x="351.5" y="-97.1" font-family="Helvetica,sans-Serif" font-size="8.00" fill="#000000">_3rd_order_tvd_rk</text>
</a>
</g>
</g>
<!-- Node150&#45;&gt;Node154 -->
<g id="edge7" class="edge">
<title>Node150&#45;&gt;Node154</title>
<path fill="none" stroke="#191970" d="M291.251,-103.5C299.911,-103.5 308.7564,-103.5 316.9087,-103.5"/>
<polygon fill="#191970" stroke="#191970" points="291.2228,-100.0001 281.2227,-103.5 291.2227,-107.0001 291.2228,-100.0001"/>
</g>
<!-- Node155 -->
<g id="node8" class="node">
<title>Node155</title>
<g id="a_node8"><a xlink:href="namespacem__time__steppers.html#ac53b0d079d514df2bf662bc0e042c8db" target="_top" xlink:title="4th order RK time&#45;stepping algorithm ">
<polygon fill="#ffffff" stroke="#000000" points="317,-45.5 317,-71.5 386,-71.5 386,-45.5 317,-45.5"/>
<text text-anchor="start" x="325" y="-61.1" font-family="Helvetica,sans-Serif" font-size="8.00" fill="#000000">m_time_steppers::s</text>
<text text-anchor="middle" x="351.5" y="-52.1" font-family="Helvetica,sans-Serif" font-size="8.00" fill="#000000">_4th_order_rk</text>
</a>
</g>
</g>
<!-- Node150&#45;&gt;Node155 -->
<g id="edge9" class="edge">
<title>Node150&#45;&gt;Node155</title>
<path fill="none" stroke="#191970" d="M272.4623,-90.9813C287.1125,-84.9606 304.6727,-77.7441 319.5164,-71.6439"/>
<polygon fill="#191970" stroke="#191970" points="270.7728,-87.8914 262.8539,-94.9299 273.4337,-94.366 270.7728,-87.8914"/>
</g>
<!-- Node156 -->
<g id="node9" class="node">
<title>Node156</title>
<g id="a_node9"><a xlink:href="namespacem__time__steppers.html#a4920633ffe7f703c3827b956b21b7417" target="_top" xlink:title="5th order RK time&#45;stepping algorithm ">
<polygon fill="#ffffff" stroke="#000000" points="317,-.5 317,-26.5 386,-26.5 386,-.5 317,-.5"/>
<text text-anchor="start" x="325" y="-16.1" font-family="Helvetica,sans-Serif" font-size="8.00" fill="#000000">m_time_steppers::s</text>
<text text-anchor="middle" x="351.5" y="-7.1" font-family="Helvetica,sans-Serif" font-size="8.00" fill="#000000">_5th_order_rk</text>
</a>
</g>
</g>
<!-- Node150&#45;&gt;Node156 -->
<g id="edge11" class="edge">
<title>Node150&#45;&gt;Node156</title>
<path fill="none" stroke="#191970" d="M258.2301,-87.7836C273.0432,-73.7396 295.7953,-52.9082 317,-36.5 321.3268,-33.1519 326.1252,-29.7646 330.7339,-26.6566"/>
<polygon fill="#191970" stroke="#191970" points="255.6849,-85.3748 250.8776,-94.8163 260.5234,-90.4334 255.6849,-85.3748"/>
</g>
<!-- Node152 -->
<g id="node5" class="node">
<title>Node152</title>
<g id="a_node5"><a xlink:href="p__main_8f90.html#aeec10ee8e2940c953967da3e374e1579" target="_top" xlink:title="Quasi&#45;conservative, shock&#45; and interface&#45; capturing finite&#45;volume scheme for the multicomponent Navie...">
<polygon fill="#ffffff" stroke="#000000" points="422,-95 422,-112 458,-112 458,-95 422,-95"/>
<text text-anchor="middle" x="440" y="-101.6" font-family="Helvetica,sans-Serif" font-size="8.00" fill="#000000">p_main</text>
</a>
</g>
</g>
<!-- Node151&#45;&gt;Node152 -->
<g id="edge4" class="edge">
<title>Node151&#45;&gt;Node152</title>
<path fill="none" stroke="#191970" d="M382.6045,-174.3934C383.775,-173.4468 384.9118,-172.4811 386,-171.5 406.6021,-152.9266 425.4852,-125.9236 434.4772,-112.2035"/>
<polygon fill="#191970" stroke="#191970" points="380.529,-171.5752 374.5485,-180.3207 384.6774,-177.2135 380.529,-171.5752"/>
</g>
<!-- Node153&#45;&gt;Node152 -->
<g id="edge6" class="edge">
<title>Node153&#45;&gt;Node152</title>
<path fill="none" stroke="#191970" d="M386.0983,-130.9076C398.8186,-124.4397 412.6574,-117.403 423.1276,-112.0792"/>
<polygon fill="#191970" stroke="#191970" points="384.4253,-127.8318 377.0979,-135.4841 387.5981,-134.0715 384.4253,-127.8318"/>
</g>
<!-- Node154&#45;&gt;Node152 -->
<g id="edge8" class="edge">
<title>Node154&#45;&gt;Node152</title>
<path fill="none" stroke="#191970" d="M396.3807,-103.5C405.4354,-103.5 414.4549,-103.5 421.9223,-103.5"/>
<polygon fill="#191970" stroke="#191970" points="396.2236,-100.0001 386.2235,-103.5 396.2235,-107.0001 396.2236,-100.0001"/>
</g>
<!-- Node155&#45;&gt;Node152 -->
<g id="edge10" class="edge">
<title>Node155&#45;&gt;Node152</title>
<path fill="none" stroke="#191970" d="M386.0983,-76.0924C398.8186,-82.5603 412.6574,-89.597 423.1276,-94.9208"/>
<polygon fill="#191970" stroke="#191970" points="387.5981,-72.9285 377.0979,-71.5159 384.4253,-79.1682 387.5981,-72.9285"/>
</g>
<!-- Node156&#45;&gt;Node152 -->
<g id="edge12" class="edge">
<title>Node156&#45;&gt;Node152</title>
<path fill="none" stroke="#191970" d="M381.4848,-32.6396C383.0489,-33.8989 384.565,-35.1891 386,-36.5 406.2957,-55.0398 425.3128,-81.5409 434.4045,-94.9813"/>
<polygon fill="#191970" stroke="#191970" points="383.5323,-29.8006 373.4174,-26.6478 379.3585,-35.4202 383.5323,-29.8006"/>
</g>
</g>
</svg>
