<?xml version="1.0" encoding="UTF-8" standalone="no"?>
<!DOCTYPE svg PUBLIC "-//W3C//DTD SVG 1.1//EN"
 "http://www.w3.org/Graphics/SVG/1.1/DTD/svg11.dtd">
<!-- Generated by graphviz version 2.43.0 (0)
 -->
<!-- Title: m_compile_specific::my_inquire Pages: 1 -->
<svg width="707pt" height="186pt"
 viewBox="0.00 0.00 707.00 186.11" xmlns="http://www.w3.org/2000/svg" xmlns:xlink="http://www.w3.org/1999/xlink">
<g id="graph0" class="graph" transform="scale(1 1) rotate(0) translate(4 182.11)">
<title>m_compile_specific::my_inquire</title>
<!-- Node1 -->
<g id="Node000001" class="node">
<title>Node1</title>
<g id="a_Node000001"><a xlink:title="Inquires on the existence of a directory.">
<polygon fill="#999999" stroke="#666666" points="699,-106.11 586,-106.11 586,-76.11 699,-76.11 699,-106.11"/>
<text text-anchor="start" x="594" y="-94.11" font-family="Helvetica,sans-Serif" font-size="10.00">m_compile_specific</text>
<text text-anchor="middle" x="642.5" y="-83.11" font-family="Helvetica,sans-Serif" font-size="10.00">::my_inquire</text>
</a>
</g>
</g>
<!-- Node2 -->
<g id="Node000002" class="node">
<title>Node2</title>
<g id="a_Node000002"><a xlink:href="namespacem__start__up.html#aba056c17994ffb88cd1effa3adb95789" target="_top" xlink:title="The goal of this procedure is to verify that each of the user provided inputs is valid and that their...">
<polygon fill="white" stroke="#666666" points="547.5,-130.11 431.5,-130.11 431.5,-100.11 547.5,-100.11 547.5,-130.11"/>
<text text-anchor="start" x="439.5" y="-118.11" font-family="Helvetica,sans-Serif" font-size="10.00">m_start_up::s_check</text>
<text text-anchor="middle" x="489.5" y="-107.11" font-family="Helvetica,sans-Serif" font-size="10.00">_input_file</text>
</a>
</g>
</g>
<!-- Node1&#45;&gt;Node2 -->
<g id="edge1_Node000001_Node000002" class="edge">
<title>Node1&#45;&gt;Node2</title>
<g id="a_edge1_Node000001_Node000002"><a xlink:title=" ">
<path fill="none" stroke="#63b8ff" d="M575.66,-101.57C566.31,-103.06 556.75,-104.58 547.58,-106.04"/>
<polygon fill="#63b8ff" stroke="#63b8ff" points="576.38,-105 585.7,-99.98 575.28,-98.09 576.38,-105"/>
</a>
</g>
</g>
<!-- Node5 -->
<g id="Node000005" class="node">
<title>Node5</title>
<g id="a_Node000005"><a xlink:href="namespacem__start__up.html#abd3c3fd9fbb80ef2ddaf82945c1c1af9" target="_top" xlink:title=" ">
<polygon fill="white" stroke="#666666" points="544.5,-178.11 434.5,-178.11 434.5,-148.11 544.5,-148.11 544.5,-178.11"/>
<text text-anchor="start" x="442.5" y="-166.11" font-family="Helvetica,sans-Serif" font-size="10.00">m_start_up::s_read</text>
<text text-anchor="middle" x="489.5" y="-155.11" font-family="Helvetica,sans-Serif" font-size="10.00">_serial_data_files</text>
</a>
</g>
</g>
<!-- Node1&#45;&gt;Node5 -->
<g id="edge4_Node000001_Node000005" class="edge">
<title>Node1&#45;&gt;Node5</title>
<g id="a_edge4_Node000001_Node000005"><a xlink:title=" ">
<path fill="none" stroke="#63b8ff" d="M605.73,-110.93C589,-119.93 568.68,-130.47 550,-139.11 543.43,-142.15 536.36,-145.19 529.47,-148.04"/>
<polygon fill="#63b8ff" stroke="#63b8ff" points="607.5,-113.95 614.63,-106.11 604.17,-107.8 607.5,-113.95"/>
</a>
</g>
</g>
<!-- Node8 -->
<g id="Node000008" class="node">
<title>Node8</title>
<g id="a_Node000008"><a xlink:href="m__data__output_8fpp_8f90.html#a694588474e2bd0e0b68d5dcb12a2598c" target="_top" xlink:title="The goal of this subroutine is to output the grid and conservative variables data files for given tim...">
<polygon fill="white" stroke="#666666" points="550,-82.11 429,-82.11 429,-52.11 550,-52.11 550,-82.11"/>
<text text-anchor="start" x="437" y="-70.11" font-family="Helvetica,sans-Serif" font-size="10.00">s_write_parallel_data</text>
<text text-anchor="middle" x="489.5" y="-59.11" font-family="Helvetica,sans-Serif" font-size="10.00">_files</text>
</a>
</g>
</g>
<!-- Node1&#45;&gt;Node8 -->
<g id="edge8_Node000001_Node000008" class="edge">
<title>Node1&#45;&gt;Node8</title>
<g id="a_edge8_Node000001_Node000008"><a xlink:title=" ">
<path fill="none" stroke="#63b8ff" d="M575.79,-80.66C567.25,-79.31 558.55,-77.92 550.12,-76.59"/>
<polygon fill="#63b8ff" stroke="#63b8ff" points="575.28,-84.13 585.7,-82.24 576.38,-77.21 575.28,-84.13"/>
</a>
</g>
</g>
<!-- Node12 -->
<g id="Node000012" class="node">
<title>Node12</title>
<g id="a_Node000012"><a xlink:href="m__data__output_8fpp_8f90.html#a9bfd1f9d59388f2294e049bcabe09692" target="_top" xlink:title="The goal of this subroutine is to output the grid and conservative variables data files for given tim...">
<polygon fill="white" stroke="#666666" points="545,-34.11 434,-34.11 434,-4.11 545,-4.11 545,-34.11"/>
<text text-anchor="start" x="442" y="-22.11" font-family="Helvetica,sans-Serif" font-size="10.00">s_write_serial_data</text>
<text text-anchor="middle" x="489.5" y="-11.11" font-family="Helvetica,sans-Serif" font-size="10.00">_files</text>
</a>
</g>
</g>
<!-- Node1&#45;&gt;Node12 -->
<g id="edge14_Node000001_Node000012" class="edge">
<title>Node1&#45;&gt;Node12</title>
<g id="a_edge14_Node000001_Node000012"><a xlink:title=" ">
<path fill="none" stroke="#63b8ff" d="M605.73,-71.29C589,-62.29 568.68,-51.75 550,-43.11 543.43,-40.07 536.36,-37.03 529.47,-34.18"/>
<polygon fill="#63b8ff" stroke="#63b8ff" points="604.17,-74.42 614.63,-76.11 607.5,-68.27 604.17,-74.42"/>
</a>
</g>
</g>
<!-- Node3 -->
<g id="Node000003" class="node">
<title>Node3</title>
<g id="a_Node000003"><a xlink:href="namespacem__start__up.html#a90f45019dd8a980f2ea3fe2c5b83df6c" target="_top" xlink:title=" ">
<polygon fill="white" stroke="#666666" points="393,-130.11 263,-130.11 263,-100.11 393,-100.11 393,-130.11"/>
<text text-anchor="start" x="271" y="-118.11" font-family="Helvetica,sans-Serif" font-size="10.00">m_start_up::s_initialize</text>
<text text-anchor="middle" x="328" y="-107.11" font-family="Helvetica,sans-Serif" font-size="10.00">_mpi_domain</text>
</a>
</g>
</g>
<!-- Node2&#45;&gt;Node3 -->
<g id="edge2_Node000002_Node000003" class="edge">
<title>Node2&#45;&gt;Node3</title>
<g id="a_edge2_Node000002_Node000003"><a xlink:title=" ">
<path fill="none" stroke="#63b8ff" d="M421.32,-115.11C411.96,-115.11 402.35,-115.11 393.05,-115.11"/>
<polygon fill="#63b8ff" stroke="#63b8ff" points="421.37,-118.61 431.37,-115.11 421.37,-111.61 421.37,-118.61"/>
</a>
</g>
</g>
<!-- Node4 -->
<g id="Node000004" class="node">
<title>Node4</title>
<g id="a_Node000004"><a xlink:href="p__main_8fpp_8f90.html#aeec10ee8e2940c953967da3e374e1579" target="_top" xlink:title="Quasi&#45;conservative, shock&#45; and interface&#45; capturing finite&#45;volume scheme for the multicomponent Navie...">
<polygon fill="white" stroke="#666666" points="53,-124.61 0,-124.61 0,-105.61 53,-105.61 53,-124.61"/>
<text text-anchor="middle" x="26.5" y="-112.61" font-family="Helvetica,sans-Serif" font-size="10.00">p_main</text>
</a>
</g>
</g>
<!-- Node3&#45;&gt;Node4 -->
<g id="edge3_Node000003_Node000004" class="edge">
<title>Node3&#45;&gt;Node4</title>
<g id="a_edge3_Node000003_Node000004"><a xlink:title=" ">
<path fill="none" stroke="#63b8ff" d="M252.56,-115.11C187.62,-115.11 97.14,-115.11 53.32,-115.11"/>
<polygon fill="#63b8ff" stroke="#63b8ff" points="252.75,-118.61 262.75,-115.11 252.75,-111.61 252.75,-118.61"/>
</a>
</g>
</g>
<!-- Node6 -->
<g id="Node000006" class="node">
<title>Node6</title>
<g id="a_Node000006"><a xlink:href="namespacem__start__up.html#a1eab3dec3b4d7c3842efccf52d2d35f6" target="_top" xlink:title="Read data files. Dispatch subroutine that replaces procedure pointer.">
<polygon fill="white" stroke="#666666" points="383,-178.11 273,-178.11 273,-148.11 383,-148.11 383,-178.11"/>
<text text-anchor="start" x="281" y="-166.11" font-family="Helvetica,sans-Serif" font-size="10.00">m_start_up::s_read</text>
<text text-anchor="middle" x="328" y="-155.11" font-family="Helvetica,sans-Serif" font-size="10.00">_data_files</text>
</a>
</g>
</g>
<!-- Node5&#45;&gt;Node6 -->
<g id="edge5_Node000005_Node000006" class="edge">
<title>Node5&#45;&gt;Node6</title>
<g id="a_edge5_Node000005_Node000006"><a xlink:title=" ">
<path fill="none" stroke="#63b8ff" d="M423.88,-163.11C410.38,-163.11 396.28,-163.11 383.2,-163.11"/>
<polygon fill="#63b8ff" stroke="#63b8ff" points="424.06,-166.61 434.06,-163.11 424.06,-159.61 424.06,-166.61"/>
</a>
</g>
</g>
<!-- Node7 -->
<g id="Node000007" class="node">
<title>Node7</title>
<g id="a_Node000007"><a xlink:href="namespacem__start__up.html#a14f564f341f1feca9308fe2579e5ced6" target="_top" xlink:title=" ">
<polygon fill="white" stroke="#666666" points="223,-176.11 93,-176.11 93,-146.11 223,-146.11 223,-176.11"/>
<text text-anchor="start" x="101" y="-164.11" font-family="Helvetica,sans-Serif" font-size="10.00">m_start_up::s_initialize</text>
<text text-anchor="middle" x="158" y="-153.11" font-family="Helvetica,sans-Serif" font-size="10.00">_modules</text>
</a>
</g>
</g>
<!-- Node6&#45;&gt;Node7 -->
<g id="edge6_Node000006_Node000007" class="edge">
<title>Node6&#45;&gt;Node7</title>
<g id="a_edge6_Node000006_Node000007"><a xlink:title=" ">
<path fill="none" stroke="#63b8ff" d="M262.71,-162.34C249.77,-162.19 236.18,-162.03 223.24,-161.87"/>
<polygon fill="#63b8ff" stroke="#63b8ff" points="262.88,-165.85 272.92,-162.47 262.96,-158.85 262.88,-165.85"/>
</a>
</g>
</g>
<!-- Node7&#45;&gt;Node4 -->
<g id="edge7_Node000007_Node000004" class="edge">
<title>Node7&#45;&gt;Node4</title>
<g id="a_edge7_Node000007_Node000004"><a xlink:title=" ">
<path fill="none" stroke="#63b8ff" d="M104.92,-142.61C87.18,-136.31 68.13,-129.54 53.36,-124.3"/>
<polygon fill="#63b8ff" stroke="#63b8ff" points="104,-146 114.6,-146.05 106.35,-139.4 104,-146"/>
</a>
</g>
</g>
<!-- Node9 -->
<g id="Node000009" class="node">
<title>Node9</title>
<g id="a_Node000009"><a xlink:href="m__data__output_8fpp_8f90.html#a979b8a2cf4215a8122fc461c0512dbba" target="_top" xlink:title=" ">
<polygon fill="white" stroke="#666666" points="219,-87.11 97,-87.11 97,-57.11 219,-57.11 219,-87.11"/>
<text text-anchor="start" x="105" y="-75.11" font-family="Helvetica,sans-Serif" font-size="10.00">__m_data_output_fpp</text>
<text text-anchor="middle" x="158" y="-64.11" font-family="Helvetica,sans-Serif" font-size="10.00">_f90__</text>
</a>
</g>
</g>
<!-- Node8&#45;&gt;Node9 -->
<g id="edge9_Node000008_Node000009" class="edge">
<title>Node8&#45;&gt;Node9</title>
<g id="a_edge9_Node000008_Node000009"><a xlink:title=" ">
<path fill="none" stroke="#63b8ff" d="M418.81,-68.17C359.56,-69.07 275.38,-70.34 219.06,-71.2"/>
<polygon fill="#63b8ff" stroke="#63b8ff" points="418.88,-71.67 428.83,-68.01 418.78,-64.67 418.88,-71.67"/>
</a>
</g>
</g>
<!-- Node10 -->
<g id="Node000010" class="node">
<title>Node10</title>
<g id="a_Node000010"><a xlink:href="m__data__output_8fpp_8f90.html#a7bdde7678c4eb6a71541fd22c63a620a" target="_top" xlink:title="Write data files. Dispatch subroutine that replaces procedure pointer.">
<polygon fill="white" stroke="#666666" points="380,-43.61 276,-43.61 276,-24.61 380,-24.61 380,-43.61"/>
<text text-anchor="middle" x="328" y="-31.61" font-family="Helvetica,sans-Serif" font-size="10.00">s_write_data_files</text>
</a>
</g>
</g>
<!-- Node8&#45;&gt;Node10 -->
<g id="edge10_Node000008_Node000010" class="edge">
<title>Node8&#45;&gt;Node10</title>
<g id="a_edge10_Node000008_Node000010"><a xlink:title=" ">
<path fill="none" stroke="#63b8ff" d="M418.59,-52.64C403.91,-49.61 388.77,-46.48 375.22,-43.67"/>
<polygon fill="#63b8ff" stroke="#63b8ff" points="418.15,-56.13 428.65,-54.73 419.57,-49.27 418.15,-56.13"/>
</a>
</g>
</g>
<!-- Node10&#45;&gt;Node9 -->
<g id="edge11_Node000010_Node000009" class="edge">
<title>Node10&#45;&gt;Node9</title>
<g id="a_edge11_Node000010_Node000009"><a xlink:title=" ">
<path fill="none" stroke="#63b8ff" d="M274.54,-45.97C256.97,-49.95 237.25,-54.41 219.15,-58.5"/>
<polygon fill="#63b8ff" stroke="#63b8ff" points="275.63,-49.32 284.61,-43.7 274.08,-42.49 275.63,-49.32"/>
</a>
</g>
</g>
<!-- Node11 -->
<g id="Node000011" class="node">
<title>Node11</title>
<g id="a_Node000011"><a xlink:href="namespacem__start__up.html#a0865c4378f1fdf7a9053530fb25fadaa" target="_top" xlink:title=" ">
<polygon fill="white" stroke="#666666" points="227,-38.61 89,-38.61 89,-19.61 227,-19.61 227,-38.61"/>
<text text-anchor="middle" x="158" y="-26.61" font-family="Helvetica,sans-Serif" font-size="10.00">m_start_up::s_save_data</text>
</a>
</g>
</g>
<!-- Node10&#45;&gt;Node11 -->
<g id="edge12_Node000010_Node000011" class="edge">
<title>Node10&#45;&gt;Node11</title>
<g id="a_edge12_Node000010_Node000011"><a xlink:title=" ">
<path fill="none" stroke="#63b8ff" d="M265.39,-32.28C252.91,-31.9 239.72,-31.51 227.03,-31.13"/>
<polygon fill="#63b8ff" stroke="#63b8ff" points="265.58,-35.78 275.68,-32.58 265.79,-28.79 265.58,-35.78"/>
</a>
</g>
</g>
<!-- Node11&#45;&gt;Node4 -->
<g id="edge13_Node000011_Node000004" class="edge">
<title>Node11&#45;&gt;Node4</title>
<g id="a_edge13_Node000011_Node000004"><a xlink:title=" ">
<path fill="none" stroke="#63b8ff" d="M99.88,-42.46C96.09,-44.13 92.43,-46.01 89,-48.11 64.51,-63.14 43.76,-90.66 33.81,-105.32"/>
<polygon fill="#63b8ff" stroke="#63b8ff" points="101.44,-45.61 109.48,-38.7 98.89,-39.09 101.44,-45.61"/>
</a>
</g>
</g>
<!-- Node12&#45;&gt;Node9 -->
<g id="edge15_Node000012_Node000009" class="edge">
<title>Node12&#45;&gt;Node9</title>
<g id="a_edge15_Node000012_Node000009"><a xlink:title=" ">
<path fill="none" stroke="#63b8ff" d="M423.79,-5.49C377.48,1.32 314.49,4.47 263,-15.11 242.99,-22.72 245.37,-36.11 227,-47.11 220.74,-50.86 213.83,-54.19 206.88,-57.1"/>
<polygon fill="#63b8ff" stroke="#63b8ff" points="423.28,-8.95 433.7,-7.04 424.36,-2.03 423.28,-8.95"/>
</a>
</g>
</g>
<!-- Node12&#45;&gt;Node10 -->
<g id="edge16_Node000012_Node000010" class="edge">
<title>Node12&#45;&gt;Node10</title>
<g id="a_edge16_Node000012_Node000010"><a xlink:title=" ">
<path fill="none" stroke="#63b8ff" d="M423.3,-25.24C408.95,-26.59 393.94,-28 380.23,-29.29"/>
<polygon fill="#63b8ff" stroke="#63b8ff" points="423.98,-28.69 433.61,-24.27 423.33,-21.72 423.98,-28.69"/>
</a>
</g>
</g>
</g>
</svg>
