<?xml version="1.0" encoding="UTF-8" standalone="no"?>
<!DOCTYPE svg PUBLIC "-//W3C//DTD SVG 1.1//EN"
 "http://www.w3.org/Graphics/SVG/1.1/DTD/svg11.dtd">
<!-- Generated by graphviz version 2.43.0 (0)
 -->
<!-- Title: m_start_up::s_check_input_file Pages: 1 -->
<svg width="387pt" height="121pt"
 viewBox="0.00 0.00 387.00 120.50" xmlns="http://www.w3.org/2000/svg" xmlns:xlink="http://www.w3.org/1999/xlink">
<g id="graph0" class="graph" transform="scale(1 1) rotate(0) translate(4 116.5)">
<title>m_start_up::s_check_input_file</title>
<!-- Node1 -->
<g id="Node000001" class="node">
<title>Node1</title>
<g id="a_Node000001"><a xlink:title="The goal of this procedure is to verify that each of the user provided inputs is valid and that their...">
<polygon fill="#999999" stroke="#666666" points="116,-64.5 0,-64.5 0,-34.5 116,-34.5 116,-64.5"/>
<text text-anchor="start" x="8" y="-52.5" font-family="Helvetica,sans-Serif" font-size="10.00">m_start_up::s_check</text>
<text text-anchor="middle" x="58" y="-41.5" font-family="Helvetica,sans-Serif" font-size="10.00">_input_file</text>
</a>
</g>
</g>
<!-- Node2 -->
<g id="Node000002" class="node">
<title>Node2</title>
<g id="a_Node000002"><a xlink:href="namespacem__compile__specific.html#aa7f14da74305c1d061ce326b16a3263e" target="_top" xlink:title="Inquires on the existence of a directory.">
<polygon fill="white" stroke="#666666" points="265.5,-112.5 152.5,-112.5 152.5,-82.5 265.5,-82.5 265.5,-112.5"/>
<text text-anchor="start" x="160.5" y="-100.5" font-family="Helvetica,sans-Serif" font-size="10.00">m_compile_specific</text>
<text text-anchor="middle" x="209" y="-89.5" font-family="Helvetica,sans-Serif" font-size="10.00">::my_inquire</text>
</a>
</g>
</g>
<!-- Node1&#45;&gt;Node2 -->
<g id="edge1_Node000001_Node000002" class="edge">
<title>Node1&#45;&gt;Node2</title>
<g id="a_edge1_Node000001_Node000002"><a xlink:title=" ">
<path fill="none" stroke="#63b8ff" d="M105.74,-64.56C120.3,-69.25 136.51,-74.47 151.66,-79.35"/>
<polygon fill="#63b8ff" stroke="#63b8ff" points="150.84,-82.76 161.43,-82.5 152.99,-76.1 150.84,-82.76"/>
</a>
</g>
</g>
<!-- Node3 -->
<g id="Node000003" class="node">
<title>Node3</title>
<g id="a_Node000003"><a xlink:href="namespacem__checker.html#a91965851c33800f743ed0f6eb055f013" target="_top" xlink:title=" ">
<polygon fill="white" stroke="#666666" points="266,-64.5 152,-64.5 152,-34.5 266,-34.5 266,-64.5"/>
<text text-anchor="start" x="160" y="-52.5" font-family="Helvetica,sans-Serif" font-size="10.00">m_checker::s_check</text>
<text text-anchor="middle" x="209" y="-41.5" font-family="Helvetica,sans-Serif" font-size="10.00">_inputs</text>
</a>
</g>
</g>
<!-- Node1&#45;&gt;Node3 -->
<g id="edge2_Node000001_Node000003" class="edge">
<title>Node1&#45;&gt;Node3</title>
<g id="a_edge2_Node000001_Node000003"><a xlink:title=" ">
<path fill="none" stroke="#63b8ff" d="M116.18,-49.5C124.47,-49.5 133.05,-49.5 141.5,-49.5"/>
<polygon fill="#63b8ff" stroke="#63b8ff" points="141.71,-53 151.71,-49.5 141.71,-46 141.71,-53"/>
</a>
</g>
</g>
<!-- Node5 -->
<g id="Node000005" class="node">
<title>Node5</title>
<g id="a_Node000005"><a xlink:href="m__mpi__common_8fpp_8f90.html#ad9e1329e498b65ad4256658675d6f797" target="_top" xlink:title="The subroutine terminates the MPI execution environment.">
<polygon fill="white" stroke="#666666" points="379,-19 302,-19 302,0 379,0 379,-19"/>
<text text-anchor="middle" x="340.5" y="-7" font-family="Helvetica,sans-Serif" font-size="10.00">s_mpi_abort</text>
</a>
</g>
</g>
<!-- Node1&#45;&gt;Node5 -->
<g id="edge5_Node000001_Node000005" class="edge">
<title>Node1&#45;&gt;Node5</title>
<g id="a_edge5_Node000001_Node000005"><a xlink:title=" ">
<path fill="none" stroke="#63b8ff" d="M110.81,-34.49C124.14,-31.09 138.52,-27.8 152,-25.5 199.1,-17.47 253.58,-13.39 291.63,-11.37"/>
<polygon fill="#63b8ff" stroke="#63b8ff" points="292.1,-14.85 301.91,-10.86 291.75,-7.86 292.1,-14.85"/>
</a>
</g>
</g>
<!-- Node4 -->
<g id="Node000004" class="node">
<title>Node4</title>
<g id="a_Node000004"><a xlink:href="m__helper_8fpp_8f90.html#a8a0505b2bd4f3d8cb2bf3ce16cfe01e3" target="_top" xlink:title=" ">
<polygon fill="white" stroke="#666666" points="377,-59 304,-59 304,-40 377,-40 377,-59"/>
<text text-anchor="middle" x="340.5" y="-47" font-family="Helvetica,sans-Serif" font-size="10.00">s_int_to_str</text>
</a>
</g>
</g>
<!-- Node3&#45;&gt;Node4 -->
<g id="edge3_Node000003_Node000004" class="edge">
<title>Node3&#45;&gt;Node4</title>
<g id="a_edge3_Node000003_Node000004"><a xlink:title=" ">
<path fill="none" stroke="#63b8ff" d="M266.05,-49.5C275.28,-49.5 284.76,-49.5 293.71,-49.5"/>
<polygon fill="#63b8ff" stroke="#63b8ff" points="293.92,-53 303.92,-49.5 293.92,-46 293.92,-53"/>
</a>
</g>
</g>
<!-- Node3&#45;&gt;Node5 -->
<g id="edge4_Node000003_Node000005" class="edge">
<title>Node3&#45;&gt;Node5</title>
<g id="a_edge4_Node000003_Node000005"><a xlink:title=" ">
<path fill="none" stroke="#63b8ff" d="M258.59,-34.49C271.84,-30.4 286.06,-26.01 298.82,-22.07"/>
<polygon fill="#63b8ff" stroke="#63b8ff" points="300.17,-25.31 308.7,-19.01 298.11,-18.62 300.17,-25.31"/>
</a>
</g>
</g>
</g>
</svg>
