<?xml version="1.0" encoding="UTF-8" standalone="no"?>
<!DOCTYPE svg PUBLIC "-//W3C//DTD SVG 1.1//EN"
 "http://www.w3.org/Graphics/SVG/1.1/DTD/svg11.dtd">
<!-- Generated by graphviz version 2.40.1 (20161225.0304)
 -->
<!-- Title: m_rhs::f_g Pages: 1 -->
<svg width="461pt" height="215pt"
 viewBox="0.00 0.00 461.00 215.00" xmlns="http://www.w3.org/2000/svg" xmlns:xlink="http://www.w3.org/1999/xlink">
<g id="graph0" class="graph" transform="scale(1 1) rotate(0) translate(4 211)">
<title>m_rhs::f_g</title>
<polygon fill="#ffffff" stroke="transparent" points="-4,4 -4,-211 457,-211 457,4 -4,4"/>
<!-- Node11 -->
<g id="node1" class="node">
<title>Node11</title>
<polygon fill="#bfbfbf" stroke="#000000" points="0,-95 0,-112 45,-112 45,-95 0,-95"/>
<text text-anchor="middle" x="22.5" y="-101.6" font-family="Helvetica,sans-Serif" font-size="8.00" fill="#000000">m_rhs::f_g</text>
</g>
<!-- Node12 -->
<g id="node2" class="node">
<title>Node12</title>
<g id="a_node2"><a xlink:href="namespacem__rhs.html#ae064d7adeace0bde4fc2b42d437a01b1" target="_top" xlink:title="The purpose of this procedure is to compute the source term that are needed for generating one&#45;way ac...">
<polygon fill="#ffffff" stroke="#000000" points="81,-95 81,-112 162,-112 162,-95 81,-95"/>
<text text-anchor="middle" x="121.5" y="-101.6" font-family="Helvetica,sans-Serif" font-size="8.00" fill="#000000">m_rhs::s_get_monopole</text>
</a>
</g>
</g>
<!-- Node11&#45;&gt;Node12 -->
<g id="edge1" class="edge">
<title>Node11&#45;&gt;Node12</title>
<path fill="none" stroke="#191970" d="M55.615,-103.5C63.6903,-103.5 72.4214,-103.5 80.8043,-103.5"/>
<polygon fill="#191970" stroke="#191970" points="55.4615,-100.0001 45.4614,-103.5 55.4614,-107.0001 55.4615,-100.0001"/>
</g>
<!-- Node13 -->
<g id="node3" class="node">
<title>Node13</title>
<g id="a_node3"><a xlink:href="namespacem__rhs.html#a361f0038973069452cc88430c49bcfe8" target="_top" xlink:title="The purpose of this procedure is to employ the inputted cell&#45;average conservative variables in order ...">
<polygon fill="#ffffff" stroke="#000000" points="198,-95 198,-112 276,-112 276,-95 198,-95"/>
<text text-anchor="middle" x="237" y="-101.6" font-family="Helvetica,sans-Serif" font-size="8.00" fill="#000000">m_rhs::s_compute_rhs</text>
</a>
</g>
</g>
<!-- Node12&#45;&gt;Node13 -->
<g id="edge2" class="edge">
<title>Node12&#45;&gt;Node13</title>
<path fill="none" stroke="#191970" d="M172.4463,-103.5C180.9519,-103.5 189.6571,-103.5 197.8101,-103.5"/>
<polygon fill="#191970" stroke="#191970" points="172.221,-100.0001 162.221,-103.5 172.2209,-107.0001 172.221,-100.0001"/>
</g>
<!-- Node14 -->
<g id="node4" class="node">
<title>Node14</title>
<g id="a_node4"><a xlink:href="namespacem__time__steppers.html#a1057850f94e9e749da9687baa7478246" target="_top" xlink:title="1st order TVD RK time&#45;stepping algorithm ">
<polygon fill="#ffffff" stroke="#000000" points="312,-180.5 312,-206.5 381,-206.5 381,-180.5 312,-180.5"/>
<text text-anchor="start" x="320" y="-196.1" font-family="Helvetica,sans-Serif" font-size="8.00" fill="#000000">m_time_steppers::s</text>
<text text-anchor="middle" x="346.5" y="-187.1" font-family="Helvetica,sans-Serif" font-size="8.00" fill="#000000">_1st_order_tvd_rk</text>
</a>
</g>
</g>
<!-- Node13&#45;&gt;Node14 -->
<g id="edge3" class="edge">
<title>Node13&#45;&gt;Node14</title>
<path fill="none" stroke="#191970" d="M253.1111,-119.5829C267.845,-133.9243 290.5476,-155.1214 312,-171.5 315.9524,-174.5176 320.3228,-177.5298 324.5871,-180.314"/>
<polygon fill="#191970" stroke="#191970" points="255.3875,-116.9125 245.804,-112.3949 250.4785,-121.9028 255.3875,-116.9125"/>
</g>
<!-- Node16 -->
<g id="node6" class="node">
<title>Node16</title>
<g id="a_node6"><a xlink:href="namespacem__time__steppers.html#a5b758874c713da801a47aa3d6246b2fd" target="_top" xlink:title="2nd order TVD RK time&#45;stepping algorithm ">
<polygon fill="#ffffff" stroke="#000000" points="312,-135.5 312,-161.5 381,-161.5 381,-135.5 312,-135.5"/>
<text text-anchor="start" x="320" y="-151.1" font-family="Helvetica,sans-Serif" font-size="8.00" fill="#000000">m_time_steppers::s</text>
<text text-anchor="middle" x="346.5" y="-142.1" font-family="Helvetica,sans-Serif" font-size="8.00" fill="#000000">_2nd_order_tvd_rk</text>
</a>
</g>
</g>
<!-- Node13&#45;&gt;Node16 -->
<g id="edge5" class="edge">
<title>Node13&#45;&gt;Node16</title>
<path fill="none" stroke="#191970" d="M267.4623,-116.0187C282.1125,-122.0394 299.6727,-129.2559 314.5164,-135.3561"/>
<polygon fill="#191970" stroke="#191970" points="268.4337,-112.634 257.8539,-112.0701 265.7728,-119.1086 268.4337,-112.634"/>
</g>
<!-- Node17 -->
<g id="node7" class="node">
<title>Node17</title>
<g id="a_node7"><a xlink:href="namespacem__time__steppers.html#a1cc10f406268344cc54a55159c4ff08f" target="_top" xlink:title="3rd order TVD RK time&#45;stepping algorithm ">
<polygon fill="#ffffff" stroke="#000000" points="312,-90.5 312,-116.5 381,-116.5 381,-90.5 312,-90.5"/>
<text text-anchor="start" x="320" y="-106.1" font-family="Helvetica,sans-Serif" font-size="8.00" fill="#000000">m_time_steppers::s</text>
<text text-anchor="middle" x="346.5" y="-97.1" font-family="Helvetica,sans-Serif" font-size="8.00" fill="#000000">_3rd_order_tvd_rk</text>
</a>
</g>
</g>
<!-- Node13&#45;&gt;Node17 -->
<g id="edge7" class="edge">
<title>Node13&#45;&gt;Node17</title>
<path fill="none" stroke="#191970" d="M286.251,-103.5C294.911,-103.5 303.7564,-103.5 311.9087,-103.5"/>
<polygon fill="#191970" stroke="#191970" points="286.2228,-100.0001 276.2227,-103.5 286.2227,-107.0001 286.2228,-100.0001"/>
</g>
<!-- Node18 -->
<g id="node8" class="node">
<title>Node18</title>
<g id="a_node8"><a xlink:href="namespacem__time__steppers.html#ac53b0d079d514df2bf662bc0e042c8db" target="_top" xlink:title="4th order RK time&#45;stepping algorithm ">
<polygon fill="#ffffff" stroke="#000000" points="312,-45.5 312,-71.5 381,-71.5 381,-45.5 312,-45.5"/>
<text text-anchor="start" x="320" y="-61.1" font-family="Helvetica,sans-Serif" font-size="8.00" fill="#000000">m_time_steppers::s</text>
<text text-anchor="middle" x="346.5" y="-52.1" font-family="Helvetica,sans-Serif" font-size="8.00" fill="#000000">_4th_order_rk</text>
</a>
</g>
</g>
<!-- Node13&#45;&gt;Node18 -->
<g id="edge9" class="edge">
<title>Node13&#45;&gt;Node18</title>
<path fill="none" stroke="#191970" d="M267.4623,-90.9813C282.1125,-84.9606 299.6727,-77.7441 314.5164,-71.6439"/>
<polygon fill="#191970" stroke="#191970" points="265.7728,-87.8914 257.8539,-94.9299 268.4337,-94.366 265.7728,-87.8914"/>
</g>
<!-- Node19 -->
<g id="node9" class="node">
<title>Node19</title>
<g id="a_node9"><a xlink:href="namespacem__time__steppers.html#a4920633ffe7f703c3827b956b21b7417" target="_top" xlink:title="5th order RK time&#45;stepping algorithm ">
<polygon fill="#ffffff" stroke="#000000" points="312,-.5 312,-26.5 381,-26.5 381,-.5 312,-.5"/>
<text text-anchor="start" x="320" y="-16.1" font-family="Helvetica,sans-Serif" font-size="8.00" fill="#000000">m_time_steppers::s</text>
<text text-anchor="middle" x="346.5" y="-7.1" font-family="Helvetica,sans-Serif" font-size="8.00" fill="#000000">_5th_order_rk</text>
</a>
</g>
</g>
<!-- Node13&#45;&gt;Node19 -->
<g id="edge11" class="edge">
<title>Node13&#45;&gt;Node19</title>
<path fill="none" stroke="#191970" d="M253.2301,-87.7836C268.0432,-73.7396 290.7953,-52.9082 312,-36.5 316.3268,-33.1519 321.1252,-29.7646 325.7339,-26.6566"/>
<polygon fill="#191970" stroke="#191970" points="250.6849,-85.3748 245.8776,-94.8163 255.5234,-90.4334 250.6849,-85.3748"/>
</g>
<!-- Node15 -->
<g id="node5" class="node">
<title>Node15</title>
<g id="a_node5"><a xlink:href="p__main_8f90.html#aeec10ee8e2940c953967da3e374e1579" target="_top" xlink:title="Quasi&#45;conservative, shock&#45; and interface&#45; capturing finite&#45;volume scheme for the multicomponent Navie...">
<polygon fill="#ffffff" stroke="#000000" points="417,-95 417,-112 453,-112 453,-95 417,-95"/>
<text text-anchor="middle" x="435" y="-101.6" font-family="Helvetica,sans-Serif" font-size="8.00" fill="#000000">p_main</text>
</a>
</g>
</g>
<!-- Node14&#45;&gt;Node15 -->
<g id="edge4" class="edge">
<title>Node14&#45;&gt;Node15</title>
<path fill="none" stroke="#191970" d="M377.6045,-174.3934C378.775,-173.4468 379.9118,-172.4811 381,-171.5 401.6021,-152.9266 420.4852,-125.9236 429.4772,-112.2035"/>
<polygon fill="#191970" stroke="#191970" points="375.529,-171.5752 369.5485,-180.3207 379.6774,-177.2135 375.529,-171.5752"/>
</g>
<!-- Node16&#45;&gt;Node15 -->
<g id="edge6" class="edge">
<title>Node16&#45;&gt;Node15</title>
<path fill="none" stroke="#191970" d="M381.0983,-130.9076C393.8186,-124.4397 407.6574,-117.403 418.1276,-112.0792"/>
<polygon fill="#191970" stroke="#191970" points="379.4253,-127.8318 372.0979,-135.4841 382.5981,-134.0715 379.4253,-127.8318"/>
</g>
<!-- Node17&#45;&gt;Node15 -->
<g id="edge8" class="edge">
<title>Node17&#45;&gt;Node15</title>
<path fill="none" stroke="#191970" d="M391.3807,-103.5C400.4354,-103.5 409.4549,-103.5 416.9223,-103.5"/>
<polygon fill="#191970" stroke="#191970" points="391.2236,-100.0001 381.2235,-103.5 391.2235,-107.0001 391.2236,-100.0001"/>
</g>
<!-- Node18&#45;&gt;Node15 -->
<g id="edge10" class="edge">
<title>Node18&#45;&gt;Node15</title>
<path fill="none" stroke="#191970" d="M381.0983,-76.0924C393.8186,-82.5603 407.6574,-89.597 418.1276,-94.9208"/>
<polygon fill="#191970" stroke="#191970" points="382.5981,-72.9285 372.0979,-71.5159 379.4253,-79.1682 382.5981,-72.9285"/>
</g>
<!-- Node19&#45;&gt;Node15 -->
<g id="edge12" class="edge">
<title>Node19&#45;&gt;Node15</title>
<path fill="none" stroke="#191970" d="M376.4848,-32.6396C378.0489,-33.8989 379.565,-35.1891 381,-36.5 401.2957,-55.0398 420.3128,-81.5409 429.4045,-94.9813"/>
<polygon fill="#191970" stroke="#191970" points="378.5323,-29.8006 368.4174,-26.6478 374.3585,-35.4202 378.5323,-29.8006"/>
</g>
</g>
</svg>
