<?xml version="1.0" encoding="UTF-8" standalone="no"?>
<!DOCTYPE svg PUBLIC "-//W3C//DTD SVG 1.1//EN"
 "http://www.w3.org/Graphics/SVG/1.1/DTD/svg11.dtd">
<!-- Generated by graphviz version 2.40.1 (20161225.0304)
 -->
<!-- Title: m_riemann_solvers::s_compute_star_region Pages: 1 -->
<svg width="385pt" height="90pt"
 viewBox="0.00 0.00 385.00 89.50" xmlns="http://www.w3.org/2000/svg" xmlns:xlink="http://www.w3.org/1999/xlink">
<g id="graph0" class="graph" transform="scale(1 1) rotate(0) translate(4 85.5)">
<title>m_riemann_solvers::s_compute_star_region</title>
<polygon fill="#ffffff" stroke="transparent" points="-4,4 -4,-85.5 381,-85.5 381,4 -4,4"/>
<!-- Node69 -->
<g id="node1" class="node">
<title>Node69</title>
<polygon fill="#bfbfbf" stroke="#000000" points="0,-30 0,-56 79,-56 79,-30 0,-30"/>
<text text-anchor="start" x="8" y="-45.6" font-family="Helvetica,sans-Serif" font-size="8.00" fill="#000000">m_riemann_solvers::</text>
<text text-anchor="middle" x="39.5" y="-36.6" font-family="Helvetica,sans-Serif" font-size="8.00" fill="#000000">s_compute_star_region</text>
</g>
<!-- Node70 -->
<g id="node2" class="node">
<title>Node70</title>
<g id="a_node2"><a xlink:href="namespacem__riemann__solvers.html#a9fa393b97819b253e8b85f0444a15c27" target="_top" xlink:title="This procedure is the implementation of the exact Riemann solver, see Toro (1999). The effects of viscosity and the surface tension have been incorporated following the work of Perigaud and Saurel (2005). ">
<polygon fill="#ffffff" stroke="#000000" points="115,-30 115,-56 197,-56 197,-30 115,-30"/>
<text text-anchor="start" x="123" y="-45.6" font-family="Helvetica,sans-Serif" font-size="8.00" fill="#000000">m_riemann_solvers::</text>
<text text-anchor="middle" x="156" y="-36.6" font-family="Helvetica,sans-Serif" font-size="8.00" fill="#000000">s_exact_riemann_solver</text>
</a>
</g>
</g>
<!-- Node69&#45;&gt;Node70 -->
<g id="edge1" class="edge">
<title>Node69&#45;&gt;Node70</title>
<path fill="none" stroke="#191970" d="M89.4309,-43C97.9015,-43 106.6118,-43 114.8253,-43"/>
<polygon fill="#191970" stroke="#191970" points="89.2669,-39.5001 79.2669,-43 89.2668,-46.5001 89.2669,-39.5001"/>
</g>
<!-- Node71 -->
<g id="node3" class="node">
<title>Node71</title>
<g id="a_node3"><a xlink:href="namespacem__rhs.html#ae6f7edb814859919c5d1f739574155bd" target="_top" xlink:title="The computation of parameters, the allocation of memory, the association of pointers and/or the execu...">
<polygon fill="#ffffff" stroke="#000000" points="237,-55 237,-81 301,-81 301,-55 237,-55"/>
<text text-anchor="start" x="245" y="-70.6" font-family="Helvetica,sans-Serif" font-size="8.00" fill="#000000">m_rhs::s_initialize</text>
<text text-anchor="middle" x="269" y="-61.6" font-family="Helvetica,sans-Serif" font-size="8.00" fill="#000000">_rhs_module</text>
</a>
</g>
</g>
<!-- Node70&#45;&gt;Node71 -->
<g id="edge2" class="edge">
<title>Node70&#45;&gt;Node71</title>
<path fill="none" stroke="#191970" d="M207.1353,-54.3131C217.2821,-56.558 227.6617,-58.8544 236.9493,-60.9091"/>
<polygon fill="#191970" stroke="#191970" points="207.6352,-50.8392 197.1153,-52.0963 206.1231,-57.6739 207.6352,-50.8392"/>
</g>
<!-- Node73 -->
<g id="node5" class="node">
<title>Node73</title>
<g id="a_node5"><a xlink:href="namespacem__riemann__solvers.html#aab7e6bf69b7d0b8b9d911f418b872130" target="_top" xlink:title="The computation of parameters, the allocation of memory, the association of pointers and/or the execu...">
<polygon fill="#ffffff" stroke="#000000" points="233,-.5 233,-35.5 305,-35.5 305,-.5 233,-.5"/>
<text text-anchor="start" x="241" y="-25.1" font-family="Helvetica,sans-Serif" font-size="8.00" fill="#000000">m_riemann_solvers::</text>
<text text-anchor="start" x="241" y="-16.1" font-family="Helvetica,sans-Serif" font-size="8.00" fill="#000000">s_initialize_riemann</text>
<text text-anchor="middle" x="269" y="-7.1" font-family="Helvetica,sans-Serif" font-size="8.00" fill="#000000">_solvers_module</text>
</a>
</g>
</g>
<!-- Node70&#45;&gt;Node73 -->
<g id="edge4" class="edge">
<title>Node70&#45;&gt;Node73</title>
<path fill="none" stroke="#191970" d="M206.9128,-31.7361C215.6998,-29.7921 224.6688,-27.8078 232.9585,-25.9738"/>
<polygon fill="#191970" stroke="#191970" points="206.1231,-28.3261 197.1153,-33.9037 207.6352,-35.1608 206.1231,-28.3261"/>
</g>
<!-- Node72 -->
<g id="node4" class="node">
<title>Node72</title>
<g id="a_node4"><a xlink:href="p__main_8f90.html#aeec10ee8e2940c953967da3e374e1579" target="_top" xlink:title="Quasi&#45;conservative, shock&#45; and interface&#45; capturing finite&#45;volume scheme for the multicomponent Navie...">
<polygon fill="#ffffff" stroke="#000000" points="341,-34.5 341,-51.5 377,-51.5 377,-34.5 341,-34.5"/>
<text text-anchor="middle" x="359" y="-41.1" font-family="Helvetica,sans-Serif" font-size="8.00" fill="#000000">p_main</text>
</a>
</g>
</g>
<!-- Node71&#45;&gt;Node72 -->
<g id="edge3" class="edge">
<title>Node71&#45;&gt;Node72</title>
<path fill="none" stroke="#191970" d="M311.1245,-56.2988C321.5801,-53.3944 332.2435,-50.4324 340.8447,-48.0431"/>
<polygon fill="#191970" stroke="#191970" points="309.9363,-52.9962 301.2379,-59.045 311.8098,-59.7408 309.9363,-52.9962"/>
</g>
<!-- Node73&#45;&gt;Node72 -->
<g id="edge5" class="edge">
<title>Node73&#45;&gt;Node72</title>
<path fill="none" stroke="#191970" d="M314.7379,-30.705C324.0476,-33.291 333.3151,-35.8653 340.9461,-37.985"/>
<polygon fill="#191970" stroke="#191970" points="315.6598,-27.3286 305.0879,-28.0244 313.7863,-34.0732 315.6598,-27.3286"/>
</g>
</g>
</svg>
