<?xml version="1.0" encoding="UTF-8" standalone="no"?>
<!DOCTYPE svg PUBLIC "-//W3C//DTD SVG 1.1//EN"
 "http://www.w3.org/Graphics/SVG/1.1/DTD/svg11.dtd">
<!-- Generated by graphviz version 2.43.0 (0)
 -->
<!-- Title: m_thinc::s_compute_mthinc_normals Pages: 1 -->
<svg width="849pt" height="86pt"
 viewBox="0.00 0.00 849.00 86.00" xmlns="http://www.w3.org/2000/svg" xmlns:xlink="http://www.w3.org/1999/xlink">
<g id="graph0" class="graph" transform="scale(1 1) rotate(0) translate(4 82)">
<title>m_thinc::s_compute_mthinc_normals</title>
<!-- Node1 -->
<g id="Node000001" class="node">
<title>Node1</title>
<g id="a_Node000001"><a xlink:title="Compute the unit normal and interface&#45;position parameter d at each interface cell.">
<polygon fill="#999999" stroke="#666666" points="115,-54 0,-54 0,-24 115,-24 115,-54"/>
<text text-anchor="start" x="8" y="-42" font-family="Helvetica,sans-Serif" font-size="10.00">m_thinc::s_compute</text>
<text text-anchor="middle" x="57.5" y="-31" font-family="Helvetica,sans-Serif" font-size="10.00">_mthinc_normals</text>
</a>
</g>
</g>
<!-- Node2 -->
<g id="Node000002" class="node">
<title>Node2</title>
<g id="a_Node000002"><a xlink:href="namespacem__thinc.html#a76d1d150ee7a9b5b7b6e38f11ba79512" target="_top" xlink:title="Solve for the interface&#45;position parameter d.">
<polygon fill="white" stroke="#666666" points="298,-48.5 151,-48.5 151,-29.5 298,-29.5 298,-48.5"/>
<text text-anchor="middle" x="224.5" y="-36.5" font-family="Helvetica,sans-Serif" font-size="10.00">m_thinc::f_mthinc_solve_d</text>
</a>
</g>
</g>
<!-- Node1&#45;&gt;Node2 -->
<g id="edge1_Node000001_Node000002" class="edge">
<title>Node1&#45;&gt;Node2</title>
<g id="a_edge1_Node000001_Node000002"><a xlink:title=" ">
<path fill="none" stroke="#63b8ff" d="M115.28,-39C123.52,-39 132.15,-39 140.77,-39"/>
<polygon fill="#63b8ff" stroke="#63b8ff" points="140.88,-42.5 150.88,-39 140.88,-35.5 140.88,-42.5"/>
</a>
</g>
</g>
<!-- Node3 -->
<g id="Node000003" class="node">
<title>Node3</title>
<g id="a_Node000003"><a xlink:href="namespacem__thinc.html#a954447ed70e0b42d16aa50bd63e74911" target="_top" xlink:title="Volume integral of H(xi) = 0.5*(1 + tanh(beta*(n.xi + d))) over the cell [&#45;1/2, 1/2]^ndim.">
<polygon fill="white" stroke="#666666" points="480,-78 334,-78 334,-48 480,-48 480,-78"/>
<text text-anchor="start" x="342" y="-66" font-family="Helvetica,sans-Serif" font-size="10.00">m_thinc::f_mthinc_volume</text>
<text text-anchor="middle" x="407" y="-55" font-family="Helvetica,sans-Serif" font-size="10.00">_integral</text>
</a>
</g>
</g>
<!-- Node2&#45;&gt;Node3 -->
<g id="edge2_Node000002_Node000003" class="edge">
<title>Node2&#45;&gt;Node3</title>
<g id="a_edge2_Node000002_Node000003"><a xlink:title=" ">
<path fill="none" stroke="#63b8ff" d="M297.1,-48.52C305.89,-49.69 314.94,-50.89 323.87,-52.08"/>
<polygon fill="#63b8ff" stroke="#63b8ff" points="323.52,-55.56 333.9,-53.41 324.45,-48.63 323.52,-55.56"/>
</a>
</g>
</g>
<!-- Node6 -->
<g id="Node000006" class="node">
<title>Node6</title>
<g id="a_Node000006"><a xlink:href="namespacem__thinc.html#adea4b26534d1b6a894badd978c79a8a6" target="_top" xlink:title="Derivative dV/dd of the volume integral (for Newton iteration).">
<polygon fill="white" stroke="#666666" points="480,-30 334,-30 334,0 480,0 480,-30"/>
<text text-anchor="start" x="342" y="-18" font-family="Helvetica,sans-Serif" font-size="10.00">m_thinc::f_mthinc_volume</text>
<text text-anchor="middle" x="407" y="-7" font-family="Helvetica,sans-Serif" font-size="10.00">_integral_dd</text>
</a>
</g>
</g>
<!-- Node2&#45;&gt;Node6 -->
<g id="edge5_Node000002_Node000006" class="edge">
<title>Node2&#45;&gt;Node6</title>
<g id="a_edge5_Node000002_Node000006"><a xlink:title=" ">
<path fill="none" stroke="#63b8ff" d="M297.1,-29.48C305.89,-28.31 314.94,-27.11 323.87,-25.92"/>
<polygon fill="#63b8ff" stroke="#63b8ff" points="324.45,-29.37 333.9,-24.59 323.52,-22.44 324.45,-29.37"/>
</a>
</g>
</g>
<!-- Node4 -->
<g id="Node000004" class="node">
<title>Node4</title>
<g id="a_Node000004"><a xlink:href="namespacem__thinc.html#a0345c418baa32c7c79e6f68be5d32e49" target="_top" xlink:title="Analytical 1&#45;D integral of the THINC function.">
<polygon fill="white" stroke="#666666" points="671,-72.5 516,-72.5 516,-53.5 671,-53.5 671,-72.5"/>
<text text-anchor="middle" x="593.5" y="-60.5" font-family="Helvetica,sans-Serif" font-size="10.00">m_thinc::f_thinc_integral_1d</text>
</a>
</g>
</g>
<!-- Node3&#45;&gt;Node4 -->
<g id="edge3_Node000003_Node000004" class="edge">
<title>Node3&#45;&gt;Node4</title>
<g id="a_edge3_Node000003_Node000004"><a xlink:title=" ">
<path fill="none" stroke="#63b8ff" d="M480.13,-63C488.55,-63 497.21,-63 505.81,-63"/>
<polygon fill="#63b8ff" stroke="#63b8ff" points="505.86,-66.5 515.86,-63 505.86,-59.5 505.86,-66.5"/>
</a>
</g>
</g>
<!-- Node5 -->
<g id="Node000005" class="node">
<title>Node5</title>
<g id="a_Node000005"><a xlink:href="namespacem__thinc.html#ace23dcde0699a34e5533602db5fa04d0" target="_top" xlink:title="Stable difference: log_cosh(a+h) &#45; log_cosh(a&#45;h) = 2*atanh(tanh(a)*tanh(h)). Avoids catastrophic canc...">
<polygon fill="white" stroke="#666666" points="841,-72.5 707,-72.5 707,-53.5 841,-53.5 841,-72.5"/>
<text text-anchor="middle" x="774" y="-60.5" font-family="Helvetica,sans-Serif" font-size="10.00">m_thinc::f_log_cosh_diff</text>
</a>
</g>
</g>
<!-- Node4&#45;&gt;Node5 -->
<g id="edge4_Node000004_Node000005" class="edge">
<title>Node4&#45;&gt;Node5</title>
<g id="a_edge4_Node000004_Node000005"><a xlink:title=" ">
<path fill="none" stroke="#63b8ff" d="M671.24,-63C679.7,-63 688.32,-63 696.78,-63"/>
<polygon fill="#63b8ff" stroke="#63b8ff" points="696.99,-66.5 706.99,-63 696.99,-59.5 696.99,-66.5"/>
</a>
</g>
</g>
</g>
</svg>
