<?xml version="1.0" encoding="UTF-8" standalone="no"?>
<!DOCTYPE svg PUBLIC "-//W3C//DTD SVG 1.1//EN"
 "http://www.w3.org/Graphics/SVG/1.1/DTD/svg11.dtd">
<!-- Generated by graphviz version 2.40.1 (20161225.0304)
 -->
<!-- Title: m_rhs::s_compute_gradient_magnitude Pages: 1 -->
<svg width="489pt" height="215pt"
 viewBox="0.00 0.00 489.00 215.00" xmlns="http://www.w3.org/2000/svg" xmlns:xlink="http://www.w3.org/1999/xlink">
<g id="graph0" class="graph" transform="scale(1 1) rotate(0) translate(4 211)">
<title>m_rhs::s_compute_gradient_magnitude</title>
<polygon fill="#ffffff" stroke="transparent" points="-4,4 -4,-211 485,-211 485,4 -4,4"/>
<!-- Node102 -->
<g id="node1" class="node">
<title>Node102</title>
<polygon fill="#bfbfbf" stroke="#000000" points="0,-90.5 0,-116.5 91,-116.5 91,-90.5 0,-90.5"/>
<text text-anchor="start" x="8" y="-106.1" font-family="Helvetica,sans-Serif" font-size="8.00" fill="#000000">m_rhs::s_compute_gradient</text>
<text text-anchor="middle" x="45.5" y="-97.1" font-family="Helvetica,sans-Serif" font-size="8.00" fill="#000000">_magnitude</text>
</g>
<!-- Node103 -->
<g id="node2" class="node">
<title>Node103</title>
<g id="a_node2"><a xlink:href="namespacem__rhs.html#ae70cf6ec305a948efab279a0bf802095" target="_top" xlink:title="Computes curvatures for surface tension terms. ">
<polygon fill="#ffffff" stroke="#000000" points="127,-95 127,-112 190,-112 190,-95 127,-95"/>
<text text-anchor="middle" x="158.5" y="-101.6" font-family="Helvetica,sans-Serif" font-size="8.00" fill="#000000">m_rhs::s_get_crv</text>
</a>
</g>
</g>
<!-- Node102&#45;&gt;Node103 -->
<g id="edge1" class="edge">
<title>Node102&#45;&gt;Node103</title>
<path fill="none" stroke="#191970" d="M101.3761,-103.5C110.1505,-103.5 118.945,-103.5 126.9129,-103.5"/>
<polygon fill="#191970" stroke="#191970" points="101.1357,-100.0001 91.1357,-103.5 101.1357,-107.0001 101.1357,-100.0001"/>
</g>
<!-- Node104 -->
<g id="node3" class="node">
<title>Node104</title>
<g id="a_node3"><a xlink:href="namespacem__rhs.html#a361f0038973069452cc88430c49bcfe8" target="_top" xlink:title="The purpose of this procedure is to employ the inputted cell&#45;average conservative variables in order ...">
<polygon fill="#ffffff" stroke="#000000" points="226,-95 226,-112 304,-112 304,-95 226,-95"/>
<text text-anchor="middle" x="265" y="-101.6" font-family="Helvetica,sans-Serif" font-size="8.00" fill="#000000">m_rhs::s_compute_rhs</text>
</a>
</g>
</g>
<!-- Node103&#45;&gt;Node104 -->
<g id="edge2" class="edge">
<title>Node103&#45;&gt;Node104</title>
<path fill="none" stroke="#191970" d="M200.4413,-103.5C208.7688,-103.5 217.4831,-103.5 225.718,-103.5"/>
<polygon fill="#191970" stroke="#191970" points="200.1652,-100.0001 190.1652,-103.5 200.1651,-107.0001 200.1652,-100.0001"/>
</g>
<!-- Node105 -->
<g id="node4" class="node">
<title>Node105</title>
<g id="a_node4"><a xlink:href="namespacem__time__steppers.html#a1057850f94e9e749da9687baa7478246" target="_top" xlink:title="1st order TVD RK time&#45;stepping algorithm ">
<polygon fill="#ffffff" stroke="#000000" points="340,-180.5 340,-206.5 409,-206.5 409,-180.5 340,-180.5"/>
<text text-anchor="start" x="348" y="-196.1" font-family="Helvetica,sans-Serif" font-size="8.00" fill="#000000">m_time_steppers::s</text>
<text text-anchor="middle" x="374.5" y="-187.1" font-family="Helvetica,sans-Serif" font-size="8.00" fill="#000000">_1st_order_tvd_rk</text>
</a>
</g>
</g>
<!-- Node104&#45;&gt;Node105 -->
<g id="edge3" class="edge">
<title>Node104&#45;&gt;Node105</title>
<path fill="none" stroke="#191970" d="M281.1111,-119.5829C295.845,-133.9243 318.5476,-155.1214 340,-171.5 343.9524,-174.5176 348.3228,-177.5298 352.5871,-180.314"/>
<polygon fill="#191970" stroke="#191970" points="283.3875,-116.9125 273.804,-112.3949 278.4785,-121.9028 283.3875,-116.9125"/>
</g>
<!-- Node107 -->
<g id="node6" class="node">
<title>Node107</title>
<g id="a_node6"><a xlink:href="namespacem__time__steppers.html#a5b758874c713da801a47aa3d6246b2fd" target="_top" xlink:title="2nd order TVD RK time&#45;stepping algorithm ">
<polygon fill="#ffffff" stroke="#000000" points="340,-135.5 340,-161.5 409,-161.5 409,-135.5 340,-135.5"/>
<text text-anchor="start" x="348" y="-151.1" font-family="Helvetica,sans-Serif" font-size="8.00" fill="#000000">m_time_steppers::s</text>
<text text-anchor="middle" x="374.5" y="-142.1" font-family="Helvetica,sans-Serif" font-size="8.00" fill="#000000">_2nd_order_tvd_rk</text>
</a>
</g>
</g>
<!-- Node104&#45;&gt;Node107 -->
<g id="edge5" class="edge">
<title>Node104&#45;&gt;Node107</title>
<path fill="none" stroke="#191970" d="M295.4623,-116.0187C310.1125,-122.0394 327.6727,-129.2559 342.5164,-135.3561"/>
<polygon fill="#191970" stroke="#191970" points="296.4337,-112.634 285.8539,-112.0701 293.7728,-119.1086 296.4337,-112.634"/>
</g>
<!-- Node108 -->
<g id="node7" class="node">
<title>Node108</title>
<g id="a_node7"><a xlink:href="namespacem__time__steppers.html#a1cc10f406268344cc54a55159c4ff08f" target="_top" xlink:title="3rd order TVD RK time&#45;stepping algorithm ">
<polygon fill="#ffffff" stroke="#000000" points="340,-90.5 340,-116.5 409,-116.5 409,-90.5 340,-90.5"/>
<text text-anchor="start" x="348" y="-106.1" font-family="Helvetica,sans-Serif" font-size="8.00" fill="#000000">m_time_steppers::s</text>
<text text-anchor="middle" x="374.5" y="-97.1" font-family="Helvetica,sans-Serif" font-size="8.00" fill="#000000">_3rd_order_tvd_rk</text>
</a>
</g>
</g>
<!-- Node104&#45;&gt;Node108 -->
<g id="edge7" class="edge">
<title>Node104&#45;&gt;Node108</title>
<path fill="none" stroke="#191970" d="M314.251,-103.5C322.911,-103.5 331.7564,-103.5 339.9087,-103.5"/>
<polygon fill="#191970" stroke="#191970" points="314.2228,-100.0001 304.2227,-103.5 314.2227,-107.0001 314.2228,-100.0001"/>
</g>
<!-- Node109 -->
<g id="node8" class="node">
<title>Node109</title>
<g id="a_node8"><a xlink:href="namespacem__time__steppers.html#ac53b0d079d514df2bf662bc0e042c8db" target="_top" xlink:title="4th order RK time&#45;stepping algorithm ">
<polygon fill="#ffffff" stroke="#000000" points="340,-45.5 340,-71.5 409,-71.5 409,-45.5 340,-45.5"/>
<text text-anchor="start" x="348" y="-61.1" font-family="Helvetica,sans-Serif" font-size="8.00" fill="#000000">m_time_steppers::s</text>
<text text-anchor="middle" x="374.5" y="-52.1" font-family="Helvetica,sans-Serif" font-size="8.00" fill="#000000">_4th_order_rk</text>
</a>
</g>
</g>
<!-- Node104&#45;&gt;Node109 -->
<g id="edge9" class="edge">
<title>Node104&#45;&gt;Node109</title>
<path fill="none" stroke="#191970" d="M295.4623,-90.9813C310.1125,-84.9606 327.6727,-77.7441 342.5164,-71.6439"/>
<polygon fill="#191970" stroke="#191970" points="293.7728,-87.8914 285.8539,-94.9299 296.4337,-94.366 293.7728,-87.8914"/>
</g>
<!-- Node110 -->
<g id="node9" class="node">
<title>Node110</title>
<g id="a_node9"><a xlink:href="namespacem__time__steppers.html#a4920633ffe7f703c3827b956b21b7417" target="_top" xlink:title="5th order RK time&#45;stepping algorithm ">
<polygon fill="#ffffff" stroke="#000000" points="340,-.5 340,-26.5 409,-26.5 409,-.5 340,-.5"/>
<text text-anchor="start" x="348" y="-16.1" font-family="Helvetica,sans-Serif" font-size="8.00" fill="#000000">m_time_steppers::s</text>
<text text-anchor="middle" x="374.5" y="-7.1" font-family="Helvetica,sans-Serif" font-size="8.00" fill="#000000">_5th_order_rk</text>
</a>
</g>
</g>
<!-- Node104&#45;&gt;Node110 -->
<g id="edge11" class="edge">
<title>Node104&#45;&gt;Node110</title>
<path fill="none" stroke="#191970" d="M281.2301,-87.7836C296.0432,-73.7396 318.7953,-52.9082 340,-36.5 344.3268,-33.1519 349.1252,-29.7646 353.7339,-26.6566"/>
<polygon fill="#191970" stroke="#191970" points="278.6849,-85.3748 273.8776,-94.8163 283.5234,-90.4334 278.6849,-85.3748"/>
</g>
<!-- Node106 -->
<g id="node5" class="node">
<title>Node106</title>
<g id="a_node5"><a xlink:href="p__main_8f90.html#aeec10ee8e2940c953967da3e374e1579" target="_top" xlink:title="Quasi&#45;conservative, shock&#45; and interface&#45; capturing finite&#45;volume scheme for the multicomponent Navie...">
<polygon fill="#ffffff" stroke="#000000" points="445,-95 445,-112 481,-112 481,-95 445,-95"/>
<text text-anchor="middle" x="463" y="-101.6" font-family="Helvetica,sans-Serif" font-size="8.00" fill="#000000">p_main</text>
</a>
</g>
</g>
<!-- Node105&#45;&gt;Node106 -->
<g id="edge4" class="edge">
<title>Node105&#45;&gt;Node106</title>
<path fill="none" stroke="#191970" d="M405.6045,-174.3934C406.775,-173.4468 407.9118,-172.4811 409,-171.5 429.6021,-152.9266 448.4852,-125.9236 457.4772,-112.2035"/>
<polygon fill="#191970" stroke="#191970" points="403.529,-171.5752 397.5485,-180.3207 407.6774,-177.2135 403.529,-171.5752"/>
</g>
<!-- Node107&#45;&gt;Node106 -->
<g id="edge6" class="edge">
<title>Node107&#45;&gt;Node106</title>
<path fill="none" stroke="#191970" d="M409.0983,-130.9076C421.8186,-124.4397 435.6574,-117.403 446.1276,-112.0792"/>
<polygon fill="#191970" stroke="#191970" points="407.4253,-127.8318 400.0979,-135.4841 410.5981,-134.0715 407.4253,-127.8318"/>
</g>
<!-- Node108&#45;&gt;Node106 -->
<g id="edge8" class="edge">
<title>Node108&#45;&gt;Node106</title>
<path fill="none" stroke="#191970" d="M419.3807,-103.5C428.4354,-103.5 437.4549,-103.5 444.9223,-103.5"/>
<polygon fill="#191970" stroke="#191970" points="419.2236,-100.0001 409.2235,-103.5 419.2235,-107.0001 419.2236,-100.0001"/>
</g>
<!-- Node109&#45;&gt;Node106 -->
<g id="edge10" class="edge">
<title>Node109&#45;&gt;Node106</title>
<path fill="none" stroke="#191970" d="M409.0983,-76.0924C421.8186,-82.5603 435.6574,-89.597 446.1276,-94.9208"/>
<polygon fill="#191970" stroke="#191970" points="410.5981,-72.9285 400.0979,-71.5159 407.4253,-79.1682 410.5981,-72.9285"/>
</g>
<!-- Node110&#45;&gt;Node106 -->
<g id="edge12" class="edge">
<title>Node110&#45;&gt;Node106</title>
<path fill="none" stroke="#191970" d="M404.4848,-32.6396C406.0489,-33.8989 407.565,-35.1891 409,-36.5 429.2957,-55.0398 448.3128,-81.5409 457.4045,-94.9813"/>
<polygon fill="#191970" stroke="#191970" points="406.5323,-29.8006 396.4174,-26.6478 402.3585,-35.4202 406.5323,-29.8006"/>
</g>
</g>
</svg>
