<?xml version="1.0" encoding="UTF-8" standalone="no"?>
<!DOCTYPE svg PUBLIC "-//W3C//DTD SVG 1.1//EN"
 "http://www.w3.org/Graphics/SVG/1.1/DTD/svg11.dtd">
<!-- Generated by graphviz version 2.43.0 (0)
 -->
<!-- Title: m_bubbles_el::s_enforce_el_bubbles_boundary_conditions Pages: 1 -->
<svg width="378pt" height="76pt"
 viewBox="0.00 0.00 378.00 75.50" xmlns="http://www.w3.org/2000/svg" xmlns:xlink="http://www.w3.org/1999/xlink">
<g id="graph0" class="graph" transform="scale(1 1) rotate(0) translate(4 71.5)">
<title>m_bubbles_el::s_enforce_el_bubbles_boundary_conditions</title>
<!-- Node1 -->
<g id="Node000001" class="node">
<title>Node1</title>
<g id="a_Node000001"><a xlink:title=" ">
<polygon fill="#999999" stroke="#666666" points="181,-45.5 0,-45.5 0,-15.5 181,-15.5 181,-45.5"/>
<text text-anchor="start" x="8" y="-33.5" font-family="Helvetica,sans-Serif" font-size="10.00">m_bubbles_el::s_enforce</text>
<text text-anchor="middle" x="90.5" y="-22.5" font-family="Helvetica,sans-Serif" font-size="10.00">_el_bubbles_boundary_conditions</text>
</a>
</g>
</g>
<!-- Node2 -->
<g id="Node000002" class="node">
<title>Node2</title>
<g id="a_Node000002"><a xlink:href="namespacem__bubbles__el.html#ac149e30fa735ef743f6dd21234a3796e" target="_top" xlink:title="Copy a lag bubble from a src index to a destination index.">
<polygon fill="white" stroke="#666666" points="355.5,-67.5 231.5,-67.5 231.5,-37.5 355.5,-37.5 355.5,-67.5"/>
<text text-anchor="start" x="239.5" y="-55.5" font-family="Helvetica,sans-Serif" font-size="10.00">m_bubbles_el::s_copy</text>
<text text-anchor="middle" x="293.5" y="-44.5" font-family="Helvetica,sans-Serif" font-size="10.00">_lag_bubble</text>
</a>
</g>
</g>
<!-- Node1&#45;&gt;Node2 -->
<g id="edge1_Node000001_Node000002" class="edge">
<title>Node1&#45;&gt;Node2</title>
<g id="a_edge1_Node000001_Node000002"><a xlink:title=" ">
<path fill="none" stroke="#63b8ff" d="M181.12,-40.31C194.51,-41.77 208.15,-43.27 221.09,-44.68"/>
<polygon fill="#63b8ff" stroke="#63b8ff" points="220.97,-48.19 231.29,-45.8 221.73,-41.23 220.97,-48.19"/>
</a>
</g>
</g>
<!-- Node3 -->
<g id="Node000003" class="node">
<title>Node3</title>
<g id="a_Node000003"><a xlink:href="namespacem__bubbles__el.html#a93deacaab9de2a6822b37b9fdc186963" target="_top" xlink:title="Locate the cell index for a given physical position.">
<polygon fill="white" stroke="#666666" points="370,-19 217,-19 217,0 370,0 370,-19"/>
<text text-anchor="middle" x="293.5" y="-7" font-family="Helvetica,sans-Serif" font-size="10.00">m_bubbles_el::s_locate_cell</text>
</a>
</g>
</g>
<!-- Node1&#45;&gt;Node3 -->
<g id="edge2_Node000001_Node000003" class="edge">
<title>Node1&#45;&gt;Node3</title>
<g id="a_edge2_Node000001_Node000003"><a xlink:title=" ">
<path fill="none" stroke="#63b8ff" d="M181.12,-21.14C189.61,-20.25 198.2,-19.35 206.65,-18.47"/>
<polygon fill="#63b8ff" stroke="#63b8ff" points="207.28,-21.92 216.87,-17.4 206.56,-14.96 207.28,-21.92"/>
</a>
</g>
</g>
</g>
</svg>
