<?xml version="1.0" encoding="UTF-8" standalone="no"?>
<!DOCTYPE svg PUBLIC "-//W3C//DTD SVG 1.1//EN"
 "http://www.w3.org/Graphics/SVG/1.1/DTD/svg11.dtd">
<!-- Generated by graphviz version 2.43.0 (0)
 -->
<!-- Title: m_weno::s_weno Pages: 1 -->
<svg width="274pt" height="86pt"
 viewBox="0.00 0.00 274.00 86.00" xmlns="http://www.w3.org/2000/svg" xmlns:xlink="http://www.w3.org/1999/xlink">
<g id="graph0" class="graph" transform="scale(1 1) rotate(0) translate(4 82)">
<title>m_weno::s_weno</title>
<!-- Node1 -->
<g id="Node000001" class="node">
<title>Node1</title>
<g id="a_Node000001"><a xlink:title="Perform WENO reconstruction of left and right cell&#45;boundary values from cell&#45;averaged variables.">
<polygon fill="#999999" stroke="#666666" points="101,-48.5 0,-48.5 0,-29.5 101,-29.5 101,-48.5"/>
<text text-anchor="middle" x="50.5" y="-36.5" font-family="Helvetica,sans-Serif" font-size="10.00">m_weno::s_weno</text>
</a>
</g>
</g>
<!-- Node2 -->
<g id="Node000002" class="node">
<title>Node2</title>
<g id="a_Node000002"><a xlink:href="namespacem__weno.html#a460ab8e85252045e6f4d66797e1fa18f" target="_top" xlink:title=" ">
<polygon fill="white" stroke="#666666" points="266,-78 137,-78 137,-48 266,-48 266,-78"/>
<text text-anchor="start" x="145" y="-66" font-family="Helvetica,sans-Serif" font-size="10.00">m_weno::s_pack_weno</text>
<text text-anchor="middle" x="201.5" y="-55" font-family="Helvetica,sans-Serif" font-size="10.00">_input_arr</text>
</a>
</g>
</g>
<!-- Node1&#45;&gt;Node2 -->
<g id="edge1_Node000001_Node000002" class="edge">
<title>Node1&#45;&gt;Node2</title>
<g id="a_edge1_Node000001_Node000002"><a xlink:title=" ">
<path fill="none" stroke="#63b8ff" d="M101.11,-46.99C109.33,-48.31 118,-49.71 126.66,-51.11"/>
<polygon fill="#63b8ff" stroke="#63b8ff" points="126.36,-54.6 136.79,-52.74 127.47,-47.69 126.36,-54.6"/>
</a>
</g>
</g>
<!-- Node3 -->
<g id="Node000003" class="node">
<title>Node3</title>
<g id="a_Node000003"><a xlink:href="namespacem__weno.html#a0c2bd1d07653ab8baf9f296dacee49df" target="_top" xlink:title="Enforce monotonicity&#45;preserving bounds on the WENO reconstruction.">
<polygon fill="white" stroke="#666666" points="260,-30 143,-30 143,0 260,0 260,-30"/>
<text text-anchor="start" x="151" y="-18" font-family="Helvetica,sans-Serif" font-size="10.00">m_weno::s_preserve</text>
<text text-anchor="middle" x="201.5" y="-7" font-family="Helvetica,sans-Serif" font-size="10.00">_monotonicity</text>
</a>
</g>
</g>
<!-- Node1&#45;&gt;Node3 -->
<g id="edge2_Node000001_Node000003" class="edge">
<title>Node1&#45;&gt;Node3</title>
<g id="a_edge2_Node000001_Node000003"><a xlink:title=" ">
<path fill="none" stroke="#63b8ff" d="M101.11,-31.01C111.25,-29.38 122.08,-27.63 132.73,-25.92"/>
<polygon fill="#63b8ff" stroke="#63b8ff" points="133.53,-29.33 142.85,-24.29 132.42,-22.42 133.53,-29.33"/>
</a>
</g>
</g>
</g>
</svg>
