<?xml version="1.0" encoding="UTF-8" standalone="no"?>
<!DOCTYPE svg PUBLIC "-//W3C//DTD SVG 1.1//EN"
 "http://www.w3.org/Graphics/SVG/1.1/DTD/svg11.dtd">
<!-- Generated by graphviz version 2.43.0 (0)
 -->
<!-- Title: m_compute_levelset::s_model_levelset Pages: 1 -->
<svg width="461pt" height="134pt"
 viewBox="0.00 0.00 461.00 134.00" xmlns="http://www.w3.org/2000/svg" xmlns:xlink="http://www.w3.org/1999/xlink">
<g id="graph0" class="graph" transform="scale(1 1) rotate(0) translate(4 130)">
<title>m_compute_levelset::s_model_levelset</title>
<!-- Node1 -->
<g id="Node000001" class="node">
<title>Node1</title>
<g id="a_Node000001"><a xlink:title="The STL patch is a 2/3D geometry that is imported from an STL file.">
<polygon fill="#999999" stroke="#666666" points="119,-78 0,-78 0,-48 119,-48 119,-78"/>
<text text-anchor="start" x="8" y="-66" font-family="Helvetica,sans-Serif" font-size="10.00">m_compute_levelset</text>
<text text-anchor="middle" x="59.5" y="-55" font-family="Helvetica,sans-Serif" font-size="10.00">::s_model_levelset</text>
</a>
</g>
</g>
<!-- Node2 -->
<g id="Node000002" class="node">
<title>Node2</title>
<g id="a_Node000002"><a xlink:href="namespacem__helper__basic.html#af1b06a05daa43f724ac3b0ff2f97db14" target="_top" xlink:title="Checks if a real(wp) variable is of default value.">
<polygon fill="white" stroke="#666666" points="273,-126 157,-126 157,-96 273,-96 273,-126"/>
<text text-anchor="start" x="165" y="-114" font-family="Helvetica,sans-Serif" font-size="10.00">m_helper_basic::f_is</text>
<text text-anchor="middle" x="215" y="-103" font-family="Helvetica,sans-Serif" font-size="10.00">_default</text>
</a>
</g>
</g>
<!-- Node1&#45;&gt;Node2 -->
<g id="edge1_Node000001_Node000002" class="edge">
<title>Node1&#45;&gt;Node2</title>
<g id="a_edge1_Node000001_Node000002"><a xlink:title=" ">
<path fill="none" stroke="#63b8ff" d="M108.65,-78.06C123.79,-82.79 140.67,-88.07 156.4,-92.99"/>
<polygon fill="#63b8ff" stroke="#63b8ff" points="155.43,-96.35 166.02,-96 157.52,-89.67 155.43,-96.35"/>
</a>
</g>
</g>
<!-- Node4 -->
<g id="Node000004" class="node">
<title>Node4</title>
<g id="a_Node000004"><a xlink:href="namespacem__model.html#a4c634c7b56e87edd338ad44a3fc64525" target="_top" xlink:title="Determine the levelset distance and normals of 2D models by computing the exact closest point via pro...">
<polygon fill="white" stroke="#666666" points="275,-78 155,-78 155,-48 275,-48 275,-78"/>
<text text-anchor="start" x="163" y="-66" font-family="Helvetica,sans-Serif" font-size="10.00">m_model::s_distance</text>
<text text-anchor="middle" x="215" y="-55" font-family="Helvetica,sans-Serif" font-size="10.00">_normals_2d</text>
</a>
</g>
</g>
<!-- Node1&#45;&gt;Node4 -->
<g id="edge3_Node000001_Node000004" class="edge">
<title>Node1&#45;&gt;Node4</title>
<g id="a_edge3_Node000001_Node000004"><a xlink:title=" ">
<path fill="none" stroke="#63b8ff" d="M119.41,-63C127.7,-63 136.29,-63 144.76,-63"/>
<polygon fill="#63b8ff" stroke="#63b8ff" points="145,-66.5 155,-63 145,-59.5 145,-66.5"/>
</a>
</g>
</g>
<!-- Node5 -->
<g id="Node000005" class="node">
<title>Node5</title>
<g id="a_Node000005"><a xlink:href="namespacem__model.html#a9ef02f127d22bff7b732906927151c32" target="_top" xlink:title="Determine the levelset distance and normals of 3D models by computing the exact closest point via pro...">
<polygon fill="white" stroke="#666666" points="275,-30 155,-30 155,0 275,0 275,-30"/>
<text text-anchor="start" x="163" y="-18" font-family="Helvetica,sans-Serif" font-size="10.00">m_model::s_distance</text>
<text text-anchor="middle" x="215" y="-7" font-family="Helvetica,sans-Serif" font-size="10.00">_normals_3d</text>
</a>
</g>
</g>
<!-- Node1&#45;&gt;Node5 -->
<g id="edge4_Node000001_Node000005" class="edge">
<title>Node1&#45;&gt;Node5</title>
<g id="a_edge4_Node000001_Node000005"><a xlink:title=" ">
<path fill="none" stroke="#63b8ff" d="M108.65,-47.94C123.79,-43.21 140.67,-37.93 156.4,-33.01"/>
<polygon fill="#63b8ff" stroke="#63b8ff" points="157.52,-36.33 166.02,-30 155.43,-29.65 157.52,-36.33"/>
</a>
</g>
</g>
<!-- Node3 -->
<g id="Node000003" class="node">
<title>Node3</title>
<g id="a_Node000003"><a xlink:href="namespacem__helper__basic.html#a3f0eae73a833f30924d4b2665a13a429" target="_top" xlink:title="Check if two floating point numbers of wp are within tolerance.">
<polygon fill="white" stroke="#666666" points="453,-126 311,-126 311,-96 453,-96 453,-126"/>
<text text-anchor="start" x="319" y="-114" font-family="Helvetica,sans-Serif" font-size="10.00">m_helper_basic::f_approx</text>
<text text-anchor="middle" x="382" y="-103" font-family="Helvetica,sans-Serif" font-size="10.00">_equal</text>
</a>
</g>
</g>
<!-- Node2&#45;&gt;Node3 -->
<g id="edge2_Node000002_Node000003" class="edge">
<title>Node2&#45;&gt;Node3</title>
<g id="a_edge2_Node000002_Node000003"><a xlink:title=" ">
<path fill="none" stroke="#63b8ff" d="M273.25,-111C282.13,-111 291.45,-111 300.73,-111"/>
<polygon fill="#63b8ff" stroke="#63b8ff" points="300.77,-114.5 310.77,-111 300.77,-107.5 300.77,-114.5"/>
</a>
</g>
</g>
</g>
</svg>
