<?xml version="1.0" encoding="UTF-8" standalone="no"?>
<!DOCTYPE svg PUBLIC "-//W3C//DTD SVG 1.1//EN"
 "http://www.w3.org/Graphics/SVG/1.1/DTD/svg11.dtd">
<!-- Generated by graphviz version 2.43.0 (0)
 -->
<!-- Title: m_ibm::s_update_ib_lookup Pages: 1 -->
<svg width="532pt" height="81pt"
 viewBox="0.00 0.00 532.00 81.00" xmlns="http://www.w3.org/2000/svg" xmlns:xlink="http://www.w3.org/1999/xlink">
<g id="graph0" class="graph" transform="scale(1 1) rotate(0) translate(4 77)">
<title>m_ibm::s_update_ib_lookup</title>
<!-- Node1 -->
<g id="Node000001" class="node">
<title>Node1</title>
<g id="a_Node000001"><a xlink:title=" ">
<polygon fill="#999999" stroke="#666666" points="524,-51 409,-51 409,-21 524,-21 524,-51"/>
<text text-anchor="start" x="417" y="-39" font-family="Helvetica,sans-Serif" font-size="10.00">m_ibm::s_update_ib</text>
<text text-anchor="middle" x="466.5" y="-28" font-family="Helvetica,sans-Serif" font-size="10.00">_lookup</text>
</a>
</g>
</g>
<!-- Node2 -->
<g id="Node000002" class="node">
<title>Node2</title>
<g id="a_Node000002"><a xlink:href="namespacem__ibm.html#a3016250d878364a5167e1c350ebba540" target="_top" xlink:title=" ">
<polygon fill="white" stroke="#666666" points="373,-73 255,-73 255,-43 373,-43 373,-73"/>
<text text-anchor="start" x="263" y="-61" font-family="Helvetica,sans-Serif" font-size="10.00">m_ibm::s_handoff_ib</text>
<text text-anchor="middle" x="314" y="-50" font-family="Helvetica,sans-Serif" font-size="10.00">_ownership</text>
</a>
</g>
</g>
<!-- Node1&#45;&gt;Node2 -->
<g id="edge1_Node000001_Node000002" class="edge">
<title>Node1&#45;&gt;Node2</title>
<g id="a_edge1_Node000001_Node000002"><a xlink:title=" ">
<path fill="none" stroke="#63b8ff" d="M398.44,-45.8C390.03,-47.03 381.49,-48.28 373.23,-49.49"/>
<polygon fill="#63b8ff" stroke="#63b8ff" points="399.21,-49.23 408.6,-44.32 398.2,-42.3 399.21,-49.23"/>
</a>
</g>
</g>
<!-- Node3 -->
<g id="Node000003" class="node">
<title>Node3</title>
<g id="a_Node000003"><a xlink:href="namespacem__ibm.html#a14f4b0cb1d4933c3e8e0a30f301da3ad" target="_top" xlink:title="Initializes the values of various IBM variables, such as ghost points and image points.">
<polygon fill="white" stroke="#666666" points="373,-24.5 255,-24.5 255,-5.5 373,-5.5 373,-24.5"/>
<text text-anchor="middle" x="314" y="-12.5" font-family="Helvetica,sans-Serif" font-size="10.00">m_ibm::s_ibm_setup</text>
</a>
</g>
</g>
<!-- Node1&#45;&gt;Node3 -->
<g id="edge2_Node000001_Node000003" class="edge">
<title>Node1&#45;&gt;Node3</title>
<g id="a_edge2_Node000001_Node000003"><a xlink:title=" ">
<path fill="none" stroke="#63b8ff" d="M398.44,-26.64C390.03,-25.47 381.49,-24.28 373.23,-23.13"/>
<polygon fill="#63b8ff" stroke="#63b8ff" points="398.21,-30.15 408.6,-28.06 399.18,-23.21 398.21,-30.15"/>
</a>
</g>
</g>
<!-- Node4 -->
<g id="Node000004" class="node">
<title>Node4</title>
<g id="a_Node000004"><a xlink:href="namespacem__start__up.html#a1fb7a3f9d412acd2a9cbcfe8b45006dd" target="_top" xlink:title="Initialize all simulation sub&#45;modules in the required dependency order.">
<polygon fill="white" stroke="#666666" points="219,-30 89,-30 89,0 219,0 219,-30"/>
<text text-anchor="start" x="97" y="-18" font-family="Helvetica,sans-Serif" font-size="10.00">m_start_up::s_initialize</text>
<text text-anchor="middle" x="154" y="-7" font-family="Helvetica,sans-Serif" font-size="10.00">_modules</text>
</a>
</g>
</g>
<!-- Node3&#45;&gt;Node4 -->
<g id="edge3_Node000003_Node000004" class="edge">
<title>Node3&#45;&gt;Node4</title>
<g id="a_edge3_Node000003_Node000004"><a xlink:title=" ">
<path fill="none" stroke="#63b8ff" d="M244.5,-15C236.12,-15 227.57,-15 219.26,-15"/>
<polygon fill="#63b8ff" stroke="#63b8ff" points="244.62,-18.5 254.62,-15 244.62,-11.5 244.62,-18.5"/>
</a>
</g>
</g>
<!-- Node5 -->
<g id="Node000005" class="node">
<title>Node5</title>
<g id="a_Node000005"><a xlink:href="p__main_8fpp_8f90.html#aeec10ee8e2940c953967da3e374e1579" target="_top" xlink:title="Quasi&#45;conservative, shock&#45; and interface&#45; capturing finite&#45;volume scheme for the multicomponent Navie...">
<polygon fill="white" stroke="#666666" points="53,-24.5 0,-24.5 0,-5.5 53,-5.5 53,-24.5"/>
<text text-anchor="middle" x="26.5" y="-12.5" font-family="Helvetica,sans-Serif" font-size="10.00">p_main</text>
</a>
</g>
</g>
<!-- Node4&#45;&gt;Node5 -->
<g id="edge4_Node000004_Node000005" class="edge">
<title>Node4&#45;&gt;Node5</title>
<g id="a_edge4_Node000004_Node000005"><a xlink:title=" ">
<path fill="none" stroke="#63b8ff" d="M78.74,-15C69.58,-15 60.76,-15 53.09,-15"/>
<polygon fill="#63b8ff" stroke="#63b8ff" points="78.78,-18.5 88.78,-15 78.78,-11.5 78.78,-18.5"/>
</a>
</g>
</g>
</g>
</svg>
