<?xml version="1.0" encoding="UTF-8" standalone="no"?>
<!DOCTYPE svg PUBLIC "-//W3C//DTD SVG 1.1//EN"
 "http://www.w3.org/Graphics/SVG/1.1/DTD/svg11.dtd">
<!-- Generated by graphviz version 2.40.1 (20161225.0304)
 -->
<!-- Title: m_data_output::s_close_probe_files Pages: 1 -->
<svg width="268pt" height="44pt"
 viewBox="0.00 0.00 268.00 44.00" xmlns="http://www.w3.org/2000/svg" xmlns:xlink="http://www.w3.org/1999/xlink">
<g id="graph0" class="graph" transform="scale(1 1) rotate(0) translate(4 40)">
<title>m_data_output::s_close_probe_files</title>
<polygon fill="#ffffff" stroke="transparent" points="-4,4 -4,-40 264,-40 264,4 -4,4"/>
<!-- Node9 -->
<g id="node1" class="node">
<title>Node9</title>
<polygon fill="#bfbfbf" stroke="#000000" points="0,-5 0,-31 80,-31 80,-5 0,-5"/>
<text text-anchor="start" x="8" y="-20.6" font-family="Helvetica,sans-Serif" font-size="8.00" fill="#000000">m_data_output::s_close</text>
<text text-anchor="middle" x="40" y="-11.6" font-family="Helvetica,sans-Serif" font-size="8.00" fill="#000000">_probe_files</text>
</g>
<!-- Node10 -->
<g id="node2" class="node">
<title>Node10</title>
<g id="a_node2"><a xlink:href="namespacem__derived__variables.html#a735665bf598281689158d9d6e075f3d4" target="_top" xlink:title="Deallocation procedures for the module. ">
<polygon fill="#ffffff" stroke="#000000" points="116,-.5 116,-35.5 188,-35.5 188,-.5 116,-.5"/>
<text text-anchor="start" x="124" y="-25.1" font-family="Helvetica,sans-Serif" font-size="8.00" fill="#000000">m_derived_variables</text>
<text text-anchor="start" x="124" y="-16.1" font-family="Helvetica,sans-Serif" font-size="8.00" fill="#000000">::s_finalize_derived</text>
<text text-anchor="middle" x="152" y="-7.1" font-family="Helvetica,sans-Serif" font-size="8.00" fill="#000000">_variables_module</text>
</a>
</g>
</g>
<!-- Node9&#45;&gt;Node10 -->
<g id="edge1" class="edge">
<title>Node9&#45;&gt;Node10</title>
<path fill="none" stroke="#191970" d="M90.1566,-18C98.8247,-18 107.6817,-18 115.8845,-18"/>
<polygon fill="#191970" stroke="#191970" points="90.1183,-14.5001 80.1182,-18 90.1182,-21.5001 90.1183,-14.5001"/>
</g>
<!-- Node11 -->
<g id="node3" class="node">
<title>Node11</title>
<g id="a_node3"><a xlink:href="p__main_8f90.html#aeec10ee8e2940c953967da3e374e1579" target="_top" xlink:title="Quasi&#45;conservative, shock&#45; and interface&#45; capturing finite&#45;volume scheme for the multicomponent Navie...">
<polygon fill="#ffffff" stroke="#000000" points="224,-9.5 224,-26.5 260,-26.5 260,-9.5 224,-9.5"/>
<text text-anchor="middle" x="242" y="-16.1" font-family="Helvetica,sans-Serif" font-size="8.00" fill="#000000">p_main</text>
</a>
</g>
</g>
<!-- Node10&#45;&gt;Node11 -->
<g id="edge2" class="edge">
<title>Node10&#45;&gt;Node11</title>
<path fill="none" stroke="#191970" d="M198.3258,-18C207.437,-18 216.4757,-18 223.9461,-18"/>
<polygon fill="#191970" stroke="#191970" points="198.0879,-14.5001 188.0879,-18 198.0878,-21.5001 198.0879,-14.5001"/>
</g>
</g>
</svg>
