<?xml version="1.0" encoding="UTF-8" standalone="no"?>
<!DOCTYPE svg PUBLIC "-//W3C//DTD SVG 1.1//EN"
 "http://www.w3.org/Graphics/SVG/1.1/DTD/svg11.dtd">
<!-- Generated by graphviz version 2.43.0 (0)
 -->
<!-- Title: m_riemann_state::s_compute_interface_reynolds Pages: 1 -->
<svg width="491pt" height="134pt"
 viewBox="0.00 0.00 491.00 134.00" xmlns="http://www.w3.org/2000/svg" xmlns:xlink="http://www.w3.org/1999/xlink">

<svg id="main" version="1.1" xmlns="http://www.w3.org/2000/svg" xmlns:xlink="http://www.w3.org/1999/xlink" xml:space="preserve">

<style type="text/css"><![CDATA[
.node, .edge {opacity: 0.7;}
.node.selected, .edge.selected {opacity: 1;}
.edge:hover path { stroke: red; }
.edge:hover polygon { stroke: red; fill: red; }
]]></style>
<script type="application/ecmascript" xlink:href="svg.min.js"/>
<svg id="graph" class="graph">
<g id="graph0" class="graph" transform="scale(1 1) rotate(0) translate(4 130)">
<title>m_riemann_state::s_compute_interface_reynolds</title>
<!-- Node1 -->
<g id="Node000001" class="node">
<title>Node1</title>
<g id="a_Node000001"><a xlink:title="Compute the shear and volume Reynolds numbers of one Riemann state by inverse&#45;weighting the fluid Rey...">
<polygon fill="#999999" stroke="#666666" points="483,-78 322,-78 322,-48 483,-48 483,-78"/>
<text text-anchor="start" x="330" y="-66" font-family="Helvetica,sans-Serif" font-size="10.00">m_riemann_state::s</text>
<text text-anchor="middle" x="402.5" y="-55" font-family="Helvetica,sans-Serif" font-size="10.00">_compute_interface_reynolds</text>
</a>
</g>
</g>
<!-- Node2 -->
<g id="Node000002" class="node">
<title>Node2</title>
<g id="a_Node000002"><a xlink:href="namespacem__riemann__solver__hll.html#a49ad2b4e369e136e2790ee10ab753e06" target="_top" xlink:title="HLL approximate Riemann solver, Harten et al. SIAM Review (1983).">
<polygon fill="white" stroke="#666666" points="283.5,-126 157.5,-126 157.5,-96 283.5,-96 283.5,-126"/>
<text text-anchor="start" x="165.5" y="-114" font-family="Helvetica,sans-Serif" font-size="10.00">m_riemann_solver_hll</text>
<text text-anchor="middle" x="220.5" y="-103" font-family="Helvetica,sans-Serif" font-size="10.00">::s_hll_riemann_solver</text>
</a>
</g>
</g>
<!-- Node1&#45;&gt;Node2 -->
<g id="edge1_Node000001_Node000002" class="edge">
<title>Node1&#45;&gt;Node2</title>
<g id="a_edge1_Node000001_Node000002"><a xlink:title=" ">
<path fill="none" stroke="#63b8ff" d="M335.31,-80.65C316.41,-85.69 296.01,-91.13 277.76,-96"/>
<polygon fill="#63b8ff" stroke="#63b8ff" points="336.28,-84.01 345.04,-78.06 334.48,-77.25 336.28,-84.01"/>
</a>
</g>
</g>
<!-- Node4 -->
<g id="Node000004" class="node">
<title>Node4</title>
<g id="a_Node000004"><a xlink:href="namespacem__riemann__solver__hllc.html#a1aa7ec60f1cdf82447547835d45e1021" target="_top" xlink:title="HLLC Riemann solver with contact restoration, Toro et al. Shock Waves (1994).">
<polygon fill="white" stroke="#666666" points="286,-78 155,-78 155,-48 286,-48 286,-78"/>
<text text-anchor="start" x="163" y="-66" font-family="Helvetica,sans-Serif" font-size="10.00">m_riemann_solver_hllc</text>
<text text-anchor="middle" x="220.5" y="-55" font-family="Helvetica,sans-Serif" font-size="10.00">::s_hllc_riemann_solver</text>
</a>
</g>
</g>
<!-- Node1&#45;&gt;Node4 -->
<g id="edge3_Node000001_Node000004" class="edge">
<title>Node1&#45;&gt;Node4</title>
<g id="a_edge3_Node000001_Node000004"><a xlink:title=" ">
<path fill="none" stroke="#63b8ff" d="M311.65,-63C303.01,-63 294.38,-63 286.06,-63"/>
<polygon fill="#63b8ff" stroke="#63b8ff" points="311.76,-66.5 321.76,-63 311.76,-59.5 311.76,-66.5"/>
</a>
</g>
</g>
<!-- Node5 -->
<g id="Node000005" class="node">
<title>Node5</title>
<g id="a_Node000005"><a xlink:href="namespacem__riemann__solver__lf.html#a60a9391bfd88f8e5f1f519c79339fc75" target="_top" xlink:title="Lax&#45;Friedrichs (Rusanov) approximate Riemann solver.">
<polygon fill="white" stroke="#666666" points="281,-30 160,-30 160,0 281,0 281,-30"/>
<text text-anchor="start" x="168" y="-18" font-family="Helvetica,sans-Serif" font-size="10.00">m_riemann_solver_lf</text>
<text text-anchor="middle" x="220.5" y="-7" font-family="Helvetica,sans-Serif" font-size="10.00">::s_lf_riemann_solver</text>
</a>
</g>
</g>
<!-- Node1&#45;&gt;Node5 -->
<g id="edge5_Node000001_Node000005" class="edge">
<title>Node1&#45;&gt;Node5</title>
<g id="a_edge5_Node000001_Node000005"><a xlink:title=" ">
<path fill="none" stroke="#63b8ff" d="M335.31,-45.35C316.41,-40.31 296.01,-34.87 277.76,-30"/>
<polygon fill="#63b8ff" stroke="#63b8ff" points="334.48,-48.75 345.04,-47.94 336.28,-41.99 334.48,-48.75"/>
</a>
</g>
</g>
<!-- Node3 -->
<g id="Node000003" class="node">
<title>Node3</title>
<g id="a_Node000003"><a xlink:href="namespacem__riemann__solvers.html#a8d00c5352ee6b6f1628cde6d34ad5e08" target="_top" xlink:title="Dispatch to the subroutines that are utilized to compute the Riemann problem solution....">
<polygon fill="white" stroke="#666666" points="119,-78 0,-78 0,-48 119,-48 119,-78"/>
<text text-anchor="start" x="8" y="-66" font-family="Helvetica,sans-Serif" font-size="10.00">m_riemann_solvers::</text>
<text text-anchor="middle" x="59.5" y="-55" font-family="Helvetica,sans-Serif" font-size="10.00">s_riemann_solver</text>
</a>
</g>
</g>
<!-- Node2&#45;&gt;Node3 -->
<g id="edge2_Node000002_Node000003" class="edge">
<title>Node2&#45;&gt;Node3</title>
<g id="a_edge2_Node000002_Node000003"><a xlink:title=" ">
<path fill="none" stroke="#63b8ff" d="M159.65,-92.93C143.35,-88.01 125.87,-82.73 110.2,-78"/>
<polygon fill="#63b8ff" stroke="#63b8ff" points="159.04,-96.4 169.63,-95.94 161.07,-89.7 159.04,-96.4"/>
</a>
</g>
</g>
<!-- Node4&#45;&gt;Node3 -->
<g id="edge4_Node000004_Node000003" class="edge">
<title>Node4&#45;&gt;Node3</title>
<g id="a_edge4_Node000004_Node000003"><a xlink:title=" ">
<path fill="none" stroke="#63b8ff" d="M144.81,-63C136.22,-63 127.56,-63 119.23,-63"/>
<polygon fill="#63b8ff" stroke="#63b8ff" points="144.83,-66.5 154.83,-63 144.83,-59.5 144.83,-66.5"/>
</a>
</g>
</g>
<!-- Node5&#45;&gt;Node3 -->
<g id="edge6_Node000005_Node000003" class="edge">
<title>Node5&#45;&gt;Node3</title>
<g id="a_edge6_Node000005_Node000003"><a xlink:title=" ">
<path fill="none" stroke="#63b8ff" d="M159.65,-33.07C143.35,-37.99 125.87,-43.27 110.2,-48"/>
<polygon fill="#63b8ff" stroke="#63b8ff" points="161.07,-36.3 169.63,-30.06 159.04,-29.6 161.07,-36.3"/>
</a>
</g>
</g>
</g>
</svg>
</svg>

<style type='text/css'>
<![CDATA[
[data-mouse-over-selected='false'] { opacity: 0.7; }
[data-mouse-over-selected='true']  { opacity: 1.0; }
]]>
</style>
<script type="application/ecmascript"><![CDATA[
document.addEventListener('DOMContentLoaded', (event) => {
  highlightEdges();
  highlightAdjacentNodes();
});
]]></script>
</svg>
