<?xml version="1.0" encoding="UTF-8" standalone="no"?>
<!DOCTYPE svg PUBLIC "-//W3C//DTD SVG 1.1//EN"
 "http://www.w3.org/Graphics/SVG/1.1/DTD/svg11.dtd">
<!-- Generated by graphviz version 2.43.0 (0)
 -->
<!-- Title: m_helper::real_ylm Pages: 1 -->
<svg width="459pt" height="94pt"
 viewBox="0.00 0.00 459.00 93.50" xmlns="http://www.w3.org/2000/svg" xmlns:xlink="http://www.w3.org/1999/xlink">
<g id="graph0" class="graph" transform="scale(1 1) rotate(0) translate(4 89.5)">
<title>m_helper::real_ylm</title>
<!-- Node1 -->
<g id="Node000001" class="node">
<title>Node1</title>
<g id="a_Node000001"><a xlink:title="Real spherical harmonic Y_lm(theta, phi). theta = polar angle from +z (acos(z/r)),...">
<polygon fill="#999999" stroke="#666666" points="111,-40 0,-40 0,-21 111,-21 111,-40"/>
<text text-anchor="middle" x="55.5" y="-28" font-family="Helvetica,sans-Serif" font-size="10.00">m_helper::real_ylm</text>
</a>
</g>
</g>
<!-- Node2 -->
<g id="Node000002" class="node">
<title>Node2</title>
<g id="a_Node000002"><a xlink:href="namespacem__helper.html#a23f996aa705b54698b032bf924a1e854" target="_top" xlink:title="Associated Legendre polynomial P_l^m(x) (Ferrers function, Condon&#45;Shortley phase)....">
<polygon fill="white" stroke="#666666" points="268,-67.5 147,-67.5 147,-37.5 268,-37.5 268,-67.5"/>
<text text-anchor="start" x="155" y="-55.5" font-family="Helvetica,sans-Serif" font-size="10.00">m_helper::associated</text>
<text text-anchor="middle" x="207.5" y="-44.5" font-family="Helvetica,sans-Serif" font-size="10.00">_legendre</text>
</a>
</g>
</g>
<!-- Node1&#45;&gt;Node2 -->
<g id="edge1_Node000001_Node000002" class="edge">
<title>Node1&#45;&gt;Node2</title>
<g id="a_edge1_Node000001_Node000002"><a xlink:title=" ">
<path fill="none" stroke="#63b8ff" d="M111.08,-38.5C119.45,-39.73 128.18,-41.01 136.82,-42.28"/>
<polygon fill="#63b8ff" stroke="#63b8ff" points="136.49,-45.77 146.9,-43.76 137.51,-38.84 136.49,-45.77"/>
</a>
</g>
</g>
<!-- Node4 -->
<g id="Node000004" class="node">
<title>Node4</title>
<g id="a_Node000004"><a xlink:href="namespacem__helper.html#a72337fe25140d429f4e1cd5a410276b9" target="_top" xlink:title="Calculate the factorial of an integer.">
<polygon fill="white" stroke="#666666" points="262,-19 153,-19 153,0 262,0 262,-19"/>
<text text-anchor="middle" x="207.5" y="-7" font-family="Helvetica,sans-Serif" font-size="10.00">m_helper::factorial</text>
</a>
</g>
</g>
<!-- Node1&#45;&gt;Node4 -->
<g id="edge4_Node000001_Node000004" class="edge">
<title>Node1&#45;&gt;Node4</title>
<g id="a_edge4_Node000001_Node000004"><a xlink:title=" ">
<path fill="none" stroke="#63b8ff" d="M111.08,-22.86C121.42,-21.41 132.33,-19.88 142.93,-18.4"/>
<polygon fill="#63b8ff" stroke="#63b8ff" points="143.55,-21.85 152.97,-16.99 142.58,-14.92 143.55,-21.85"/>
</a>
</g>
</g>
<!-- Node2&#45;&gt;Node2 -->
<g id="edge2_Node000002_Node000002" class="edge">
<title>Node2&#45;&gt;Node2</title>
<g id="a_edge2_Node000002_Node000002"><a xlink:title=" ">
<path fill="none" stroke="#63b8ff" d="M180.78,-67.78C174.84,-76.91 183.75,-85.5 207.5,-85.5 221.6,-85.5 230.47,-82.47 234.11,-78.1"/>
<polygon fill="#63b8ff" stroke="#63b8ff" points="237.61,-77.81 234.22,-67.78 230.61,-77.74 237.61,-77.81"/>
</a>
</g>
</g>
<!-- Node3 -->
<g id="Node000003" class="node">
<title>Node3</title>
<g id="a_Node000003"><a xlink:href="namespacem__helper.html#a6ca53d0a74e18a215cddb79c83a1a6b7" target="_top" xlink:title="Calculate the double factorial of an integer.">
<polygon fill="white" stroke="#666666" points="451,-62 304,-62 304,-43 451,-43 451,-62"/>
<text text-anchor="middle" x="377.5" y="-50" font-family="Helvetica,sans-Serif" font-size="10.00">m_helper::double_factorial</text>
</a>
</g>
</g>
<!-- Node2&#45;&gt;Node3 -->
<g id="edge3_Node000002_Node000003" class="edge">
<title>Node2&#45;&gt;Node3</title>
<g id="a_edge3_Node000002_Node000003"><a xlink:title=" ">
<path fill="none" stroke="#63b8ff" d="M268.2,-52.5C276.47,-52.5 285.09,-52.5 293.68,-52.5"/>
<polygon fill="#63b8ff" stroke="#63b8ff" points="293.75,-56 303.75,-52.5 293.75,-49 293.75,-56"/>
</a>
</g>
</g>
</g>
</svg>
