<?xml version="1.0" encoding="UTF-8" standalone="no"?>
<!DOCTYPE svg PUBLIC "-//W3C//DTD SVG 1.1//EN"
 "http://www.w3.org/Graphics/SVG/1.1/DTD/svg11.dtd">
<!-- Generated by graphviz version 2.43.0 (0)
 -->
<!-- Title: m_ibm::s_cross_product Pages: 1 -->
<svg width="303pt" height="86pt"
 viewBox="0.00 0.00 303.00 86.00" xmlns="http://www.w3.org/2000/svg" xmlns:xlink="http://www.w3.org/1999/xlink">
<g id="graph0" class="graph" transform="scale(1 1) rotate(0) translate(4 82)">
<title>m_ibm::s_cross_product</title>
<!-- Node1 -->
<g id="Node000001" class="node">
<title>Node1</title>
<g id="a_Node000001"><a xlink:title="Computes the cross product c = a x b of two 3D vectors.">
<polygon fill="#999999" stroke="#666666" points="295,-48.5 161,-48.5 161,-29.5 295,-29.5 295,-48.5"/>
<text text-anchor="middle" x="228" y="-36.5" font-family="Helvetica,sans-Serif" font-size="10.00">m_ibm::s_cross_product</text>
</a>
</g>
</g>
<!-- Node2 -->
<g id="Node000002" class="node">
<title>Node2</title>
<g id="a_Node000002"><a xlink:href="namespacem__ibm.html#a127d40085cc8ab5bdcde0f7cf894e92f" target="_top" xlink:title="Computes pressure and viscous forces and torques on immersed bodies via a volume integration method.">
<polygon fill="white" stroke="#666666" points="124.5,-78 0.5,-78 0.5,-48 124.5,-48 124.5,-78"/>
<text text-anchor="start" x="8.5" y="-66" font-family="Helvetica,sans-Serif" font-size="10.00">m_ibm::s_compute_ib</text>
<text text-anchor="middle" x="62.5" y="-55" font-family="Helvetica,sans-Serif" font-size="10.00">_forces</text>
</a>
</g>
</g>
<!-- Node1&#45;&gt;Node2 -->
<g id="edge1_Node000001_Node000002" class="edge">
<title>Node1&#45;&gt;Node2</title>
<g id="a_edge1_Node000001_Node000002"><a xlink:title=" ">
<path fill="none" stroke="#63b8ff" d="M151.74,-50.05C142.66,-51.38 133.48,-52.73 124.64,-54.02"/>
<polygon fill="#63b8ff" stroke="#63b8ff" points="152.53,-53.47 161.91,-48.55 151.51,-46.54 152.53,-53.47"/>
</a>
</g>
</g>
<!-- Node3 -->
<g id="Node000003" class="node">
<title>Node3</title>
<g id="a_Node000003"><a xlink:href="namespacem__ibm.html#adaced843ac419db411b064ccf39b6104" target="_top" xlink:title="Subroutine that updates the conservative variables at the ghost points.">
<polygon fill="white" stroke="#666666" points="125,-30 0,-30 0,0 125,0 125,-30"/>
<text text-anchor="start" x="8" y="-18" font-family="Helvetica,sans-Serif" font-size="10.00">m_ibm::s_ibm_correct</text>
<text text-anchor="middle" x="62.5" y="-7" font-family="Helvetica,sans-Serif" font-size="10.00">_state</text>
</a>
</g>
</g>
<!-- Node1&#45;&gt;Node3 -->
<g id="edge2_Node000001_Node000003" class="edge">
<title>Node1&#45;&gt;Node3</title>
<g id="a_edge2_Node000001_Node000003"><a xlink:title=" ">
<path fill="none" stroke="#63b8ff" d="M151.88,-27.97C142.94,-26.66 133.9,-25.33 125.17,-24.05"/>
<polygon fill="#63b8ff" stroke="#63b8ff" points="151.51,-31.46 161.91,-29.45 152.53,-24.53 151.51,-31.46"/>
</a>
</g>
</g>
</g>
</svg>
