<?xml version="1.0" encoding="UTF-8" standalone="no"?>
<!DOCTYPE svg PUBLIC "-//W3C//DTD SVG 1.1//EN"
 "http://www.w3.org/Graphics/SVG/1.1/DTD/svg11.dtd">
<!-- Generated by graphviz version 2.43.0 (0)
 -->
<!-- Title: m_bubbles_el::s_copy_lag_bubble Pages: 1 -->
<svg width="528pt" height="86pt"
 viewBox="0.00 0.00 528.00 86.00" xmlns="http://www.w3.org/2000/svg" xmlns:xlink="http://www.w3.org/1999/xlink">
<g id="graph0" class="graph" transform="scale(1 1) rotate(0) translate(4 82)">
<title>m_bubbles_el::s_copy_lag_bubble</title>
<!-- Node1 -->
<g id="Node000001" class="node">
<title>Node1</title>
<g id="a_Node000001"><a xlink:title="Copy a lag bubble from a src index to a destination index.">
<polygon fill="#999999" stroke="#666666" points="520,-54 396,-54 396,-24 520,-24 520,-54"/>
<text text-anchor="start" x="404" y="-42" font-family="Helvetica,sans-Serif" font-size="10.00">m_bubbles_el::s_copy</text>
<text text-anchor="middle" x="458" y="-31" font-family="Helvetica,sans-Serif" font-size="10.00">_lag_bubble</text>
</a>
</g>
</g>
<!-- Node2 -->
<g id="Node000002" class="node">
<title>Node2</title>
<g id="a_Node000002"><a xlink:href="namespacem__bubbles__el.html#ab9362775fa50fb84d0376b261c38aa55" target="_top" xlink:title=" ">
<polygon fill="white" stroke="#666666" points="360,-54 179,-54 179,-24 360,-24 360,-54"/>
<text text-anchor="start" x="187" y="-42" font-family="Helvetica,sans-Serif" font-size="10.00">m_bubbles_el::s_enforce</text>
<text text-anchor="middle" x="269.5" y="-31" font-family="Helvetica,sans-Serif" font-size="10.00">_el_bubbles_boundary_conditions</text>
</a>
</g>
</g>
<!-- Node1&#45;&gt;Node2 -->
<g id="edge1_Node000001_Node000002" class="edge">
<title>Node1&#45;&gt;Node2</title>
<g id="a_edge1_Node000001_Node000002"><a xlink:title=" ">
<path fill="none" stroke="#63b8ff" d="M385.82,-39C377.41,-39 368.74,-39 360.11,-39"/>
<polygon fill="#63b8ff" stroke="#63b8ff" points="385.93,-42.5 395.93,-39 385.93,-35.5 385.93,-42.5"/>
</a>
</g>
</g>
<!-- Node3 -->
<g id="Node000003" class="node">
<title>Node3</title>
<g id="a_Node000003"><a xlink:href="namespacem__bubbles__el.html#ad46cdb3e6b52db648c58b072c05251c4" target="_top" xlink:title="Contains the bubble dynamics subroutines.">
<polygon fill="white" stroke="#666666" points="143,-78 0,-78 0,-48 143,-48 143,-78"/>
<text text-anchor="start" x="8" y="-66" font-family="Helvetica,sans-Serif" font-size="10.00">m_bubbles_el::s_compute</text>
<text text-anchor="middle" x="71.5" y="-55" font-family="Helvetica,sans-Serif" font-size="10.00">_bubble_el_dynamics</text>
</a>
</g>
</g>
<!-- Node2&#45;&gt;Node3 -->
<g id="edge2_Node000002_Node000003" class="edge">
<title>Node2&#45;&gt;Node3</title>
<g id="a_edge2_Node000002_Node000003"><a xlink:title=" ">
<path fill="none" stroke="#63b8ff" d="M168.67,-51.22C160.02,-52.28 151.4,-53.34 143.06,-54.36"/>
<polygon fill="#63b8ff" stroke="#63b8ff" points="169.32,-54.67 178.82,-49.98 168.47,-47.72 169.32,-54.67"/>
</a>
</g>
</g>
<!-- Node4 -->
<g id="Node000004" class="node">
<title>Node4</title>
<g id="a_Node000004"><a xlink:href="namespacem__bubbles__el.html#ad186998933b66d7a04a28d9c04ce5210" target="_top" xlink:title="Update Lagrangian bubble variables using TVD Runge&#45;Kutta time stepping.">
<polygon fill="white" stroke="#666666" points="138.5,-30 4.5,-30 4.5,0 138.5,0 138.5,-30"/>
<text text-anchor="start" x="12.5" y="-18" font-family="Helvetica,sans-Serif" font-size="10.00">m_bubbles_el::s_update</text>
<text text-anchor="middle" x="71.5" y="-7" font-family="Helvetica,sans-Serif" font-size="10.00">_lagrange_tdv_rk</text>
</a>
</g>
</g>
<!-- Node2&#45;&gt;Node4 -->
<g id="edge3_Node000002_Node000004" class="edge">
<title>Node2&#45;&gt;Node4</title>
<g id="a_edge3_Node000002_Node000004"><a xlink:title=" ">
<path fill="none" stroke="#63b8ff" d="M168.66,-26.78C158.5,-25.53 148.37,-24.29 138.7,-23.11"/>
<polygon fill="#63b8ff" stroke="#63b8ff" points="168.47,-30.28 178.82,-28.02 169.32,-23.33 168.47,-30.28"/>
</a>
</g>
</g>
</g>
</svg>
