<?xml version="1.0" encoding="UTF-8" standalone="no"?>
<!DOCTYPE svg PUBLIC "-//W3C//DTD SVG 1.1//EN"
 "http://www.w3.org/Graphics/SVG/1.1/DTD/svg11.dtd">
<!-- Generated by graphviz version 2.40.1 (20161225.0304)
 -->
<!-- Title: m_riemann_solvers::s_compute_direct_wave_speeds Pages: 1 -->
<svg width="269pt" height="44pt"
 viewBox="0.00 0.00 269.00 44.00" xmlns="http://www.w3.org/2000/svg" xmlns:xlink="http://www.w3.org/1999/xlink">
<g id="graph0" class="graph" transform="scale(1 1) rotate(0) translate(4 40)">
<title>m_riemann_solvers::s_compute_direct_wave_speeds</title>
<polygon fill="#ffffff" stroke="transparent" points="-4,4 -4,-40 265,-40 265,4 -4,4"/>
<!-- Node31 -->
<g id="node1" class="node">
<title>Node31</title>
<polygon fill="#bfbfbf" stroke="#000000" points="0,-.5 0,-35.5 81,-35.5 81,-.5 0,-.5"/>
<text text-anchor="start" x="8" y="-25.1" font-family="Helvetica,sans-Serif" font-size="8.00" fill="#000000">m_riemann_solvers::</text>
<text text-anchor="start" x="8" y="-16.1" font-family="Helvetica,sans-Serif" font-size="8.00" fill="#000000">s_compute_direct_wave</text>
<text text-anchor="middle" x="40.5" y="-7.1" font-family="Helvetica,sans-Serif" font-size="8.00" fill="#000000">_speeds</text>
</g>
<!-- Node32 -->
<g id="node2" class="node">
<title>Node32</title>
<g id="a_node2"><a xlink:href="namespacem__riemann__solvers.html#aab7e6bf69b7d0b8b9d911f418b872130" target="_top" xlink:title="The computation of parameters, the allocation of memory, the association of pointers and/or the execu...">
<polygon fill="#ffffff" stroke="#000000" points="117,-.5 117,-35.5 189,-35.5 189,-.5 117,-.5"/>
<text text-anchor="start" x="125" y="-25.1" font-family="Helvetica,sans-Serif" font-size="8.00" fill="#000000">m_riemann_solvers::</text>
<text text-anchor="start" x="125" y="-16.1" font-family="Helvetica,sans-Serif" font-size="8.00" fill="#000000">s_initialize_riemann</text>
<text text-anchor="middle" x="153" y="-7.1" font-family="Helvetica,sans-Serif" font-size="8.00" fill="#000000">_solvers_module</text>
</a>
</g>
</g>
<!-- Node31&#45;&gt;Node32 -->
<g id="edge1" class="edge">
<title>Node31&#45;&gt;Node32</title>
<path fill="none" stroke="#191970" d="M91.1751,-18C99.8575,-18 108.7189,-18 116.9207,-18"/>
<polygon fill="#191970" stroke="#191970" points="91.1151,-14.5001 81.1151,-18 91.115,-21.5001 91.1151,-14.5001"/>
</g>
<!-- Node33 -->
<g id="node3" class="node">
<title>Node33</title>
<g id="a_node3"><a xlink:href="p__main_8f90.html#aeec10ee8e2940c953967da3e374e1579" target="_top" xlink:title="Quasi&#45;conservative, shock&#45; and interface&#45; capturing finite&#45;volume scheme for the multicomponent Navie...">
<polygon fill="#ffffff" stroke="#000000" points="225,-9.5 225,-26.5 261,-26.5 261,-9.5 225,-9.5"/>
<text text-anchor="middle" x="243" y="-16.1" font-family="Helvetica,sans-Serif" font-size="8.00" fill="#000000">p_main</text>
</a>
</g>
</g>
<!-- Node32&#45;&gt;Node33 -->
<g id="edge2" class="edge">
<title>Node32&#45;&gt;Node33</title>
<path fill="none" stroke="#191970" d="M199.3258,-18C208.437,-18 217.4757,-18 224.9461,-18"/>
<polygon fill="#191970" stroke="#191970" points="199.0879,-14.5001 189.0879,-18 199.0878,-21.5001 199.0879,-14.5001"/>
</g>
</g>
</svg>
