<?xml version="1.0" encoding="UTF-8" standalone="no"?>
<!DOCTYPE svg PUBLIC "-//W3C//DTD SVG 1.1//EN"
 "http://www.w3.org/Graphics/SVG/1.1/DTD/svg11.dtd">
<!-- Generated by graphviz version 2.40.1 (20161225.0304)
 -->
<!-- Title: m_derived_variables::s_derive_fluid_bounds Pages: 1 -->
<svg width="196pt" height="80pt"
 viewBox="0.00 0.00 196.00 80.00" xmlns="http://www.w3.org/2000/svg" xmlns:xlink="http://www.w3.org/1999/xlink">
<g id="graph0" class="graph" transform="scale(1 1) rotate(0) translate(4 76)">
<title>m_derived_variables::s_derive_fluid_bounds</title>
<polygon fill="#ffffff" stroke="transparent" points="-4,4 -4,-76 192,-76 192,4 -4,4"/>
<!-- Node46 -->
<g id="node1" class="node">
<title>Node46</title>
<polygon fill="#bfbfbf" stroke="#000000" points="0,-22.5 0,-48.5 80,-48.5 80,-22.5 0,-22.5"/>
<text text-anchor="start" x="8" y="-38.1" font-family="Helvetica,sans-Serif" font-size="8.00" fill="#000000">m_derived_variables</text>
<text text-anchor="middle" x="40" y="-29.1" font-family="Helvetica,sans-Serif" font-size="8.00" fill="#000000">::s_derive_fluid_bounds</text>
</g>
<!-- Node47 -->
<g id="node2" class="node">
<title>Node47</title>
<g id="a_node2"><a xlink:href="namespacem__mpi__proxy.html#a398a372625502c0430a64e0bb23e2342" target="_top" xlink:title="The following subroutine takes the input local variable from all processors and reduces to the minimu...">
<polygon fill="#ffffff" stroke="#000000" points="116,-45.5 116,-71.5 188,-71.5 188,-45.5 116,-45.5"/>
<text text-anchor="start" x="124" y="-61.1" font-family="Helvetica,sans-Serif" font-size="8.00" fill="#000000">m_mpi_proxy::s_mpi</text>
<text text-anchor="middle" x="152" y="-52.1" font-family="Helvetica,sans-Serif" font-size="8.00" fill="#000000">_allreduce_min</text>
</a>
</g>
</g>
<!-- Node46&#45;&gt;Node47 -->
<g id="edge1" class="edge">
<title>Node46&#45;&gt;Node47</title>
<path fill="none" stroke="#191970" d="M80.1182,-43.7386C88.5095,-45.4618 97.4195,-47.2915 106.0051,-49.0546"/>
<polygon fill="#191970" stroke="#191970" points="105.3848,-52.5002 115.8845,-51.0834 106.7929,-45.6433 105.3848,-52.5002"/>
</g>
<!-- Node48 -->
<g id="node3" class="node">
<title>Node48</title>
<g id="a_node3"><a xlink:href="namespacem__mpi__proxy.html#aff7286de058c49b2a5d7a84be1983e8f" target="_top" xlink:title="The following subroutine takes the input local variable from all processors and reduces to the maximu...">
<polygon fill="#ffffff" stroke="#000000" points="116,-.5 116,-26.5 188,-26.5 188,-.5 116,-.5"/>
<text text-anchor="start" x="124" y="-16.1" font-family="Helvetica,sans-Serif" font-size="8.00" fill="#000000">m_mpi_proxy::s_mpi</text>
<text text-anchor="middle" x="152" y="-7.1" font-family="Helvetica,sans-Serif" font-size="8.00" fill="#000000">_allreduce_max</text>
</a>
</g>
</g>
<!-- Node46&#45;&gt;Node48 -->
<g id="edge2" class="edge">
<title>Node46&#45;&gt;Node48</title>
<path fill="none" stroke="#191970" d="M80.1182,-27.6196C88.5095,-25.9713 97.4195,-24.2212 106.0051,-22.5347"/>
<polygon fill="#191970" stroke="#191970" points="106.7466,-25.956 115.8845,-20.5941 105.3973,-19.0873 106.7466,-25.956"/>
</g>
</g>
</svg>
