<?xml version="1.0" encoding="UTF-8" standalone="no"?>
<!DOCTYPE svg PUBLIC "-//W3C//DTD SVG 1.1//EN"
 "http://www.w3.org/Graphics/SVG/1.1/DTD/svg11.dtd">
<!-- Generated by graphviz version 2.43.0 (0)
 -->
<!-- Title: m_boundary_common::s_ghost_cell_extrapolation Pages: 1 -->
<svg width="752pt" height="66pt"
 viewBox="0.00 0.00 752.00 65.50" xmlns="http://www.w3.org/2000/svg" xmlns:xlink="http://www.w3.org/1999/xlink">
<g id="graph0" class="graph" transform="scale(1 1) rotate(0) translate(4 61.5)">
<title>m_boundary_common::s_ghost_cell_extrapolation</title>
<!-- Node1 -->
<g id="Node000001" class="node">
<title>Node1</title>
<g id="a_Node000001"><a xlink:title=" ">
<polygon fill="#999999" stroke="#666666" points="744,-35.5 597,-35.5 597,-5.5 744,-5.5 744,-35.5"/>
<text text-anchor="start" x="605" y="-23.5" font-family="Helvetica,sans-Serif" font-size="10.00">m_boundary_common::</text>
<text text-anchor="middle" x="670.5" y="-12.5" font-family="Helvetica,sans-Serif" font-size="10.00">s_ghost_cell_extrapolation</text>
</a>
</g>
</g>
<!-- Node2 -->
<g id="Node000002" class="node">
<title>Node2</title>
<g id="a_Node000002"><a xlink:href="namespacem__boundary__common.html#a868f1a4cb136b1e10ff0266614eae5b8" target="_top" xlink:title=" ">
<polygon fill="white" stroke="#666666" points="561,-57.5 430,-57.5 430,-27.5 561,-27.5 561,-57.5"/>
<text text-anchor="start" x="438" y="-45.5" font-family="Helvetica,sans-Serif" font-size="10.00">m_boundary_common::</text>
<text text-anchor="middle" x="495.5" y="-34.5" font-family="Helvetica,sans-Serif" font-size="10.00">s_dirichlet</text>
</a>
</g>
</g>
<!-- Node1&#45;&gt;Node2 -->
<g id="edge1_Node000001_Node000002" class="edge">
<title>Node1&#45;&gt;Node2</title>
<g id="a_edge1_Node000001_Node000002"><a xlink:title=" ">
<path fill="none" stroke="#63b8ff" d="M586.83,-31.01C578.24,-32.11 569.59,-33.21 561.23,-34.27"/>
<polygon fill="#63b8ff" stroke="#63b8ff" points="587.41,-34.47 596.88,-29.73 586.52,-27.52 587.41,-34.47"/>
</a>
</g>
</g>
<!-- Node3 -->
<g id="Node000003" class="node">
<title>Node3</title>
<g id="a_Node000003"><a xlink:href="namespacem__boundary__common.html#a759354204f31b7b1ecce6258ffec6a5c" target="_top" xlink:title="The purpose of this procedure is to populate the buffers of the primitive variables,...">
<polygon fill="white" stroke="#666666" points="394,-41 263,-41 263,0 394,0 394,-41"/>
<text text-anchor="start" x="271" y="-29" font-family="Helvetica,sans-Serif" font-size="10.00">m_boundary_common::</text>
<text text-anchor="start" x="271" y="-18" font-family="Helvetica,sans-Serif" font-size="10.00">s_populate_variables</text>
<text text-anchor="middle" x="328.5" y="-7" font-family="Helvetica,sans-Serif" font-size="10.00">_buffers</text>
</a>
</g>
</g>
<!-- Node1&#45;&gt;Node3 -->
<g id="edge5_Node000001_Node000003" class="edge">
<title>Node1&#45;&gt;Node3</title>
<g id="a_edge5_Node000001_Node000003"><a xlink:title=" ">
<path fill="none" stroke="#63b8ff" d="M586.69,-18.82C578.01,-18.69 569.33,-18.58 561,-18.5 502.78,-17.96 488.22,-17.92 430,-18.5 418.4,-18.62 406.04,-18.81 394.1,-19.02"/>
<polygon fill="#63b8ff" stroke="#63b8ff" points="586.79,-22.32 596.84,-18.98 586.9,-15.32 586.79,-22.32"/>
</a>
</g>
</g>
<!-- Node2&#45;&gt;Node3 -->
<g id="edge2_Node000002_Node000003" class="edge">
<title>Node2&#45;&gt;Node3</title>
<g id="a_edge2_Node000002_Node000003"><a xlink:title=" ">
<path fill="none" stroke="#63b8ff" d="M419.76,-32.53C411.18,-31.39 402.48,-30.23 394.05,-29.11"/>
<polygon fill="#63b8ff" stroke="#63b8ff" points="419.39,-36.02 429.76,-33.87 420.31,-29.08 419.39,-36.02"/>
</a>
</g>
</g>
<!-- Node4 -->
<g id="Node000004" class="node">
<title>Node4</title>
<g id="a_Node000004"><a xlink:href="namespacem__start__up.html#a47ade6ffcd98aafcccf10910f626142d" target="_top" xlink:title=" ">
<polygon fill="white" stroke="#666666" points="227,-30 89,-30 89,-11 227,-11 227,-30"/>
<text text-anchor="middle" x="158" y="-18" font-family="Helvetica,sans-Serif" font-size="10.00">m_start_up::s_save_data</text>
</a>
</g>
</g>
<!-- Node3&#45;&gt;Node4 -->
<g id="edge3_Node000003_Node000004" class="edge">
<title>Node3&#45;&gt;Node4</title>
<g id="a_edge3_Node000003_Node000004"><a xlink:title=" ">
<path fill="none" stroke="#63b8ff" d="M252.58,-20.5C244.11,-20.5 235.51,-20.5 227.13,-20.5"/>
<polygon fill="#63b8ff" stroke="#63b8ff" points="252.84,-24 262.84,-20.5 252.84,-17 252.84,-24"/>
</a>
</g>
</g>
<!-- Node5 -->
<g id="Node000005" class="node">
<title>Node5</title>
<g id="a_Node000005"><a xlink:href="p__main_8fpp_8f90.html#aeec10ee8e2940c953967da3e374e1579" target="_top" xlink:title="Quasi&#45;conservative, shock&#45; and interface&#45; capturing finite&#45;volume scheme for the multicomponent Navie...">
<polygon fill="white" stroke="#666666" points="53,-30 0,-30 0,-11 53,-11 53,-30"/>
<text text-anchor="middle" x="26.5" y="-18" font-family="Helvetica,sans-Serif" font-size="10.00">p_main</text>
</a>
</g>
</g>
<!-- Node4&#45;&gt;Node5 -->
<g id="edge4_Node000004_Node000005" class="edge">
<title>Node4&#45;&gt;Node5</title>
<g id="a_edge4_Node000004_Node000005"><a xlink:title=" ">
<path fill="none" stroke="#63b8ff" d="M78.81,-20.5C69.67,-20.5 60.91,-20.5 53.29,-20.5"/>
<polygon fill="#63b8ff" stroke="#63b8ff" points="78.84,-24 88.84,-20.5 78.84,-17 78.84,-24"/>
</a>
</g>
</g>
</g>
</svg>
