<?xml version="1.0" encoding="UTF-8" standalone="no"?>
<!DOCTYPE svg PUBLIC "-//W3C//DTD SVG 1.1//EN"
 "http://www.w3.org/Graphics/SVG/1.1/DTD/svg11.dtd">
<!-- Generated by graphviz version 2.40.1 (20161225.0304)
 -->
<!-- Title: m_rhs::s_get_monopole Pages: 1 -->
<svg width="380pt" height="215pt"
 viewBox="0.00 0.00 380.00 215.00" xmlns="http://www.w3.org/2000/svg" xmlns:xlink="http://www.w3.org/1999/xlink">
<g id="graph0" class="graph" transform="scale(1 1) rotate(0) translate(4 211)">
<title>m_rhs::s_get_monopole</title>
<polygon fill="#ffffff" stroke="transparent" points="-4,4 -4,-211 376,-211 376,4 -4,4"/>
<!-- Node220 -->
<g id="node1" class="node">
<title>Node220</title>
<polygon fill="#bfbfbf" stroke="#000000" points="0,-95 0,-112 81,-112 81,-95 0,-95"/>
<text text-anchor="middle" x="40.5" y="-101.6" font-family="Helvetica,sans-Serif" font-size="8.00" fill="#000000">m_rhs::s_get_monopole</text>
</g>
<!-- Node221 -->
<g id="node2" class="node">
<title>Node221</title>
<g id="a_node2"><a xlink:href="namespacem__rhs.html#a361f0038973069452cc88430c49bcfe8" target="_top" xlink:title="The purpose of this procedure is to employ the inputted cell&#45;average conservative variables in order ...">
<polygon fill="#ffffff" stroke="#000000" points="117,-95 117,-112 195,-112 195,-95 117,-95"/>
<text text-anchor="middle" x="156" y="-101.6" font-family="Helvetica,sans-Serif" font-size="8.00" fill="#000000">m_rhs::s_compute_rhs</text>
</a>
</g>
</g>
<!-- Node220&#45;&gt;Node221 -->
<g id="edge1" class="edge">
<title>Node220&#45;&gt;Node221</title>
<path fill="none" stroke="#191970" d="M91.4463,-103.5C99.9519,-103.5 108.6571,-103.5 116.8101,-103.5"/>
<polygon fill="#191970" stroke="#191970" points="91.221,-100.0001 81.221,-103.5 91.2209,-107.0001 91.221,-100.0001"/>
</g>
<!-- Node222 -->
<g id="node3" class="node">
<title>Node222</title>
<g id="a_node3"><a xlink:href="namespacem__time__steppers.html#a1057850f94e9e749da9687baa7478246" target="_top" xlink:title="1st order TVD RK time&#45;stepping algorithm ">
<polygon fill="#ffffff" stroke="#000000" points="231,-180.5 231,-206.5 300,-206.5 300,-180.5 231,-180.5"/>
<text text-anchor="start" x="239" y="-196.1" font-family="Helvetica,sans-Serif" font-size="8.00" fill="#000000">m_time_steppers::s</text>
<text text-anchor="middle" x="265.5" y="-187.1" font-family="Helvetica,sans-Serif" font-size="8.00" fill="#000000">_1st_order_tvd_rk</text>
</a>
</g>
</g>
<!-- Node221&#45;&gt;Node222 -->
<g id="edge2" class="edge">
<title>Node221&#45;&gt;Node222</title>
<path fill="none" stroke="#191970" d="M172.1111,-119.5829C186.845,-133.9243 209.5476,-155.1214 231,-171.5 234.9524,-174.5176 239.3228,-177.5298 243.5871,-180.314"/>
<polygon fill="#191970" stroke="#191970" points="174.3875,-116.9125 164.804,-112.3949 169.4785,-121.9028 174.3875,-116.9125"/>
</g>
<!-- Node224 -->
<g id="node5" class="node">
<title>Node224</title>
<g id="a_node5"><a xlink:href="namespacem__time__steppers.html#a5b758874c713da801a47aa3d6246b2fd" target="_top" xlink:title="2nd order TVD RK time&#45;stepping algorithm ">
<polygon fill="#ffffff" stroke="#000000" points="231,-135.5 231,-161.5 300,-161.5 300,-135.5 231,-135.5"/>
<text text-anchor="start" x="239" y="-151.1" font-family="Helvetica,sans-Serif" font-size="8.00" fill="#000000">m_time_steppers::s</text>
<text text-anchor="middle" x="265.5" y="-142.1" font-family="Helvetica,sans-Serif" font-size="8.00" fill="#000000">_2nd_order_tvd_rk</text>
</a>
</g>
</g>
<!-- Node221&#45;&gt;Node224 -->
<g id="edge4" class="edge">
<title>Node221&#45;&gt;Node224</title>
<path fill="none" stroke="#191970" d="M186.4623,-116.0187C201.1125,-122.0394 218.6727,-129.2559 233.5164,-135.3561"/>
<polygon fill="#191970" stroke="#191970" points="187.4337,-112.634 176.8539,-112.0701 184.7728,-119.1086 187.4337,-112.634"/>
</g>
<!-- Node225 -->
<g id="node6" class="node">
<title>Node225</title>
<g id="a_node6"><a xlink:href="namespacem__time__steppers.html#a1cc10f406268344cc54a55159c4ff08f" target="_top" xlink:title="3rd order TVD RK time&#45;stepping algorithm ">
<polygon fill="#ffffff" stroke="#000000" points="231,-90.5 231,-116.5 300,-116.5 300,-90.5 231,-90.5"/>
<text text-anchor="start" x="239" y="-106.1" font-family="Helvetica,sans-Serif" font-size="8.00" fill="#000000">m_time_steppers::s</text>
<text text-anchor="middle" x="265.5" y="-97.1" font-family="Helvetica,sans-Serif" font-size="8.00" fill="#000000">_3rd_order_tvd_rk</text>
</a>
</g>
</g>
<!-- Node221&#45;&gt;Node225 -->
<g id="edge6" class="edge">
<title>Node221&#45;&gt;Node225</title>
<path fill="none" stroke="#191970" d="M205.251,-103.5C213.911,-103.5 222.7564,-103.5 230.9087,-103.5"/>
<polygon fill="#191970" stroke="#191970" points="205.2228,-100.0001 195.2227,-103.5 205.2227,-107.0001 205.2228,-100.0001"/>
</g>
<!-- Node226 -->
<g id="node7" class="node">
<title>Node226</title>
<g id="a_node7"><a xlink:href="namespacem__time__steppers.html#ac53b0d079d514df2bf662bc0e042c8db" target="_top" xlink:title="4th order RK time&#45;stepping algorithm ">
<polygon fill="#ffffff" stroke="#000000" points="231,-45.5 231,-71.5 300,-71.5 300,-45.5 231,-45.5"/>
<text text-anchor="start" x="239" y="-61.1" font-family="Helvetica,sans-Serif" font-size="8.00" fill="#000000">m_time_steppers::s</text>
<text text-anchor="middle" x="265.5" y="-52.1" font-family="Helvetica,sans-Serif" font-size="8.00" fill="#000000">_4th_order_rk</text>
</a>
</g>
</g>
<!-- Node221&#45;&gt;Node226 -->
<g id="edge8" class="edge">
<title>Node221&#45;&gt;Node226</title>
<path fill="none" stroke="#191970" d="M186.4623,-90.9813C201.1125,-84.9606 218.6727,-77.7441 233.5164,-71.6439"/>
<polygon fill="#191970" stroke="#191970" points="184.7728,-87.8914 176.8539,-94.9299 187.4337,-94.366 184.7728,-87.8914"/>
</g>
<!-- Node227 -->
<g id="node8" class="node">
<title>Node227</title>
<g id="a_node8"><a xlink:href="namespacem__time__steppers.html#a4920633ffe7f703c3827b956b21b7417" target="_top" xlink:title="5th order RK time&#45;stepping algorithm ">
<polygon fill="#ffffff" stroke="#000000" points="231,-.5 231,-26.5 300,-26.5 300,-.5 231,-.5"/>
<text text-anchor="start" x="239" y="-16.1" font-family="Helvetica,sans-Serif" font-size="8.00" fill="#000000">m_time_steppers::s</text>
<text text-anchor="middle" x="265.5" y="-7.1" font-family="Helvetica,sans-Serif" font-size="8.00" fill="#000000">_5th_order_rk</text>
</a>
</g>
</g>
<!-- Node221&#45;&gt;Node227 -->
<g id="edge10" class="edge">
<title>Node221&#45;&gt;Node227</title>
<path fill="none" stroke="#191970" d="M172.2301,-87.7836C187.0432,-73.7396 209.7953,-52.9082 231,-36.5 235.3268,-33.1519 240.1252,-29.7646 244.7339,-26.6566"/>
<polygon fill="#191970" stroke="#191970" points="169.6849,-85.3748 164.8776,-94.8163 174.5234,-90.4334 169.6849,-85.3748"/>
</g>
<!-- Node223 -->
<g id="node4" class="node">
<title>Node223</title>
<g id="a_node4"><a xlink:href="p__main_8f90.html#aeec10ee8e2940c953967da3e374e1579" target="_top" xlink:title="Quasi&#45;conservative, shock&#45; and interface&#45; capturing finite&#45;volume scheme for the multicomponent Navie...">
<polygon fill="#ffffff" stroke="#000000" points="336,-95 336,-112 372,-112 372,-95 336,-95"/>
<text text-anchor="middle" x="354" y="-101.6" font-family="Helvetica,sans-Serif" font-size="8.00" fill="#000000">p_main</text>
</a>
</g>
</g>
<!-- Node222&#45;&gt;Node223 -->
<g id="edge3" class="edge">
<title>Node222&#45;&gt;Node223</title>
<path fill="none" stroke="#191970" d="M296.6045,-174.3934C297.775,-173.4468 298.9118,-172.4811 300,-171.5 320.6021,-152.9266 339.4852,-125.9236 348.4772,-112.2035"/>
<polygon fill="#191970" stroke="#191970" points="294.529,-171.5752 288.5485,-180.3207 298.6774,-177.2135 294.529,-171.5752"/>
</g>
<!-- Node224&#45;&gt;Node223 -->
<g id="edge5" class="edge">
<title>Node224&#45;&gt;Node223</title>
<path fill="none" stroke="#191970" d="M300.0983,-130.9076C312.8186,-124.4397 326.6574,-117.403 337.1276,-112.0792"/>
<polygon fill="#191970" stroke="#191970" points="298.4253,-127.8318 291.0979,-135.4841 301.5981,-134.0715 298.4253,-127.8318"/>
</g>
<!-- Node225&#45;&gt;Node223 -->
<g id="edge7" class="edge">
<title>Node225&#45;&gt;Node223</title>
<path fill="none" stroke="#191970" d="M310.3807,-103.5C319.4354,-103.5 328.4549,-103.5 335.9223,-103.5"/>
<polygon fill="#191970" stroke="#191970" points="310.2236,-100.0001 300.2235,-103.5 310.2235,-107.0001 310.2236,-100.0001"/>
</g>
<!-- Node226&#45;&gt;Node223 -->
<g id="edge9" class="edge">
<title>Node226&#45;&gt;Node223</title>
<path fill="none" stroke="#191970" d="M300.0983,-76.0924C312.8186,-82.5603 326.6574,-89.597 337.1276,-94.9208"/>
<polygon fill="#191970" stroke="#191970" points="301.5981,-72.9285 291.0979,-71.5159 298.4253,-79.1682 301.5981,-72.9285"/>
</g>
<!-- Node227&#45;&gt;Node223 -->
<g id="edge11" class="edge">
<title>Node227&#45;&gt;Node223</title>
<path fill="none" stroke="#191970" d="M295.4848,-32.6396C297.0489,-33.8989 298.565,-35.1891 300,-36.5 320.2957,-55.0398 339.3128,-81.5409 348.4045,-94.9813"/>
<polygon fill="#191970" stroke="#191970" points="297.5323,-29.8006 287.4174,-26.6478 293.3585,-35.4202 297.5323,-29.8006"/>
</g>
</g>
</svg>
