<?xml version="1.0" encoding="UTF-8" standalone="no"?>
<!DOCTYPE svg PUBLIC "-//W3C//DTD SVG 1.1//EN"
 "http://www.w3.org/Graphics/SVG/1.1/DTD/svg11.dtd">
<!-- Generated by graphviz version 2.43.0 (0)
 -->
<!-- Title: m_checker::s_check_inputs_weno Pages: 1 -->
<svg width="473pt" height="103pt"
 viewBox="0.00 0.00 473.00 103.00" xmlns="http://www.w3.org/2000/svg" xmlns:xlink="http://www.w3.org/1999/xlink">

<svg id="main" version="1.1" xmlns="http://www.w3.org/2000/svg" xmlns:xlink="http://www.w3.org/1999/xlink" xml:space="preserve" onload="init(evt)">
<style type="text/css"><![CDATA[
.node, .edge {opacity: 0.7;}
.node.selected, .edge.selected {opacity: 1;}
.edge:hover path { stroke: red; }
.edge:hover polygon { stroke: red; fill: red; }
]]></style>
<script type="application/ecmascript" xlink:href="svg.min.js"/>
<svg id="graph" class="graph">
<g id="graph0" class="graph" transform="scale(1 1) rotate(0) translate(4 99)">
<title>m_checker::s_check_inputs_weno</title>
<!-- Node1 -->
<g id="Node000001" class="node">
<title>Node1</title>
<g id="a_Node000001"><a xlink:title="Checks constraints on WENO scheme parameters.">
<polygon fill="#999999" stroke="#666666" points="114,-62.5 0,-62.5 0,-32.5 114,-32.5 114,-62.5"/>
<text text-anchor="start" x="8" y="-50.5" font-family="Helvetica,sans-Serif" font-size="10.00">m_checker::s_check</text>
<text text-anchor="middle" x="57" y="-39.5" font-family="Helvetica,sans-Serif" font-size="10.00">_inputs_weno</text>
</a>
</g>
</g>
<!-- Node2 -->
<g id="Node000002" class="node">
<title>Node2</title>
<g id="a_Node000002"><a xlink:href="m__helper_8fpp_8f90.html#ad7eb5f3e531ad8b37fa39d55e1076db5" target="_top" xlink:title="Checks if a real(kind(0d0)) variable is of default value.">
<polygon fill="white" stroke="#666666" points="224,-95 150,-95 150,-76 224,-76 224,-95"/>
<text text-anchor="middle" x="187" y="-83" font-family="Helvetica,sans-Serif" font-size="10.00">f_is_default</text>
</a>
</g>
</g>
<!-- Node1&#45;&gt;Node2 -->
<g id="edge1_Node000001_Node000002" class="edge">
<title>Node1&#45;&gt;Node2</title>
<g id="a_edge1_Node000001_Node000002"><a xlink:title=" ">
<path fill="none" stroke="#63b8ff" d="M108.59,-62.52C120.37,-66.02 132.79,-69.7 144.14,-73.07"/>
<polygon fill="#63b8ff" stroke="#63b8ff" points="143.23,-76.45 153.81,-75.94 145.22,-69.74 143.23,-76.45"/>
</a>
</g>
</g>
<!-- Node4 -->
<g id="Node000004" class="node">
<title>Node4</title>
<g id="a_Node000004"><a xlink:href="m__mpi__common_8fpp_8f90.html#ad9e1329e498b65ad4256658675d6f797" target="_top" xlink:title="The subroutine terminates the MPI execution environment.">
<polygon fill="white" stroke="#666666" points="465,-76 388,-76 388,-57 465,-57 465,-76"/>
<text text-anchor="middle" x="426.5" y="-64" font-family="Helvetica,sans-Serif" font-size="10.00">s_mpi_abort</text>
</a>
</g>
</g>
<!-- Node1&#45;&gt;Node4 -->
<g id="edge5_Node000001_Node000004" class="edge">
<title>Node1&#45;&gt;Node4</title>
<g id="a_edge5_Node000001_Node000004"><a xlink:title=" ">
<path fill="none" stroke="#63b8ff" d="M114.22,-50.41C186.17,-54.13 309.61,-60.51 377.41,-64.01"/>
<polygon fill="#63b8ff" stroke="#63b8ff" points="377.63,-67.53 387.8,-64.55 377.99,-60.54 377.63,-67.53"/>
</a>
</g>
</g>
<!-- Node5 -->
<g id="Node000005" class="node">
<title>Node5</title>
<g id="a_Node000005"><a xlink:href="m__helper_8fpp_8f90.html#a8a0505b2bd4f3d8cb2bf3ce16cfe01e3" target="_top" xlink:title=" ">
<polygon fill="white" stroke="#666666" points="223.5,-19 150.5,-19 150.5,0 223.5,0 223.5,-19"/>
<text text-anchor="middle" x="187" y="-7" font-family="Helvetica,sans-Serif" font-size="10.00">s_int_to_str</text>
</a>
</g>
</g>
<!-- Node1&#45;&gt;Node5 -->
<g id="edge4_Node000001_Node000005" class="edge">
<title>Node1&#45;&gt;Node5</title>
<g id="a_edge4_Node000001_Node000005"><a xlink:title=" ">
<path fill="none" stroke="#63b8ff" d="M108.59,-32.48C120.37,-28.98 132.79,-25.3 144.14,-21.93"/>
<polygon fill="#63b8ff" stroke="#63b8ff" points="145.22,-25.26 153.81,-19.06 143.23,-18.55 145.22,-25.26"/>
</a>
</g>
</g>
<!-- Node3 -->
<g id="Node000003" class="node">
<title>Node3</title>
<g id="a_Node000003"><a xlink:href="m__helper_8fpp_8f90.html#a7bdf2eff292c20e9c330089da2e53a97" target="_top" xlink:title="This procedure checks if two floating point numbers of kind(0d0) are within tolerance.">
<polygon fill="white" stroke="#666666" points="352,-95 260,-95 260,-76 352,-76 352,-95"/>
<text text-anchor="middle" x="306" y="-83" font-family="Helvetica,sans-Serif" font-size="10.00">f_approx_equal</text>
</a>
</g>
</g>
<!-- Node2&#45;&gt;Node3 -->
<g id="edge2_Node000002_Node000003" class="edge">
<title>Node2&#45;&gt;Node3</title>
<g id="a_edge2_Node000002_Node000003"><a xlink:title=" ">
<path fill="none" stroke="#63b8ff" d="M224.06,-85.5C232.17,-85.5 240.95,-85.5 249.64,-85.5"/>
<polygon fill="#63b8ff" stroke="#63b8ff" points="249.76,-89 259.76,-85.5 249.76,-82 249.76,-89"/>
</a>
</g>
</g>
<!-- Node3&#45;&gt;Node4 -->
<g id="edge3_Node000003_Node000004" class="edge">
<title>Node3&#45;&gt;Node4</title>
<g id="a_edge3_Node000003_Node000004"><a xlink:title=" ">
<path fill="none" stroke="#63b8ff" d="M352.14,-78.26C360.51,-76.92 369.28,-75.51 377.72,-74.16"/>
<polygon fill="#63b8ff" stroke="#63b8ff" points="378.5,-77.58 387.82,-72.54 377.39,-70.67 378.5,-77.58"/>
</a>
</g>
</g>
</g>
</svg>
</svg>

<style type='text/css'>
<![CDATA[
[data-mouse-over-selected='false'] { opacity: 0.7; }
[data-mouse-over-selected='true']  { opacity: 1.0; }
]]>
</style>
<script type="application/ecmascript"><![CDATA[
document.addEventListener('DOMContentLoaded', (event) => {
  highlightEdges();
  highlightAdjacentNodes();
});
]]></script>
</svg>
