<?xml version="1.0" encoding="UTF-8" standalone="no"?>
<!DOCTYPE svg PUBLIC "-//W3C//DTD SVG 1.1//EN"
 "http://www.w3.org/Graphics/SVG/1.1/DTD/svg11.dtd">
<!-- Generated by graphviz version 2.40.1 (20161225.0304)
 -->
<!-- Title: m_cbc::s_compute_nonreflecting_subsonic_inflow_l Pages: 1 -->
<svg width="607pt" height="215pt"
 viewBox="0.00 0.00 607.00 215.00" xmlns="http://www.w3.org/2000/svg" xmlns:xlink="http://www.w3.org/1999/xlink">
<g id="graph0" class="graph" transform="scale(1 1) rotate(0) translate(4 211)">
<title>m_cbc::s_compute_nonreflecting_subsonic_inflow_l</title>
<polygon fill="#ffffff" stroke="transparent" points="-4,4 -4,-211 603,-211 603,4 -4,4"/>
<!-- Node72 -->
<g id="node1" class="node">
<title>Node72</title>
<polygon fill="#bfbfbf" stroke="#000000" points="0,-90.5 0,-116.5 105,-116.5 105,-90.5 0,-90.5"/>
<text text-anchor="start" x="8" y="-106.1" font-family="Helvetica,sans-Serif" font-size="8.00" fill="#000000">m_cbc::s_compute_nonreflecting</text>
<text text-anchor="middle" x="52.5" y="-97.1" font-family="Helvetica,sans-Serif" font-size="8.00" fill="#000000">_subsonic_inflow_l</text>
</g>
<!-- Node73 -->
<g id="node2" class="node">
<title>Node73</title>
<g id="a_node2"><a xlink:href="namespacem__cbc.html#a50fed863b4ee14bf81590ed80154b539" target="_top" xlink:title="The computation of parameters, the allocation of memory, the association of pointers and/or the execu...">
<polygon fill="#ffffff" stroke="#000000" points="141,-95 141,-112 219,-112 219,-95 141,-95"/>
<text text-anchor="middle" x="180" y="-101.6" font-family="Helvetica,sans-Serif" font-size="8.00" fill="#000000">m_cbc::s_initialize_cbc</text>
</a>
</g>
</g>
<!-- Node72&#45;&gt;Node73 -->
<g id="edge1" class="edge">
<title>Node72&#45;&gt;Node73</title>
<path fill="none" stroke="#191970" d="M115.255,-103.5C123.9523,-103.5 132.6744,-103.5 140.7734,-103.5"/>
<polygon fill="#191970" stroke="#191970" points="115.0953,-100.0001 105.0952,-103.5 115.0952,-107.0001 115.0953,-100.0001"/>
</g>
<!-- Node74 -->
<g id="node3" class="node">
<title>Node74</title>
<g id="a_node3"><a xlink:href="namespacem__cbc.html#a72cc3ba5a0de327fae70742734e77492" target="_top" xlink:title="The following is the implementation of the CBC based on the work of Thompson (1987, 1990) on hyperbolic systems. The CBC is indirectly applied in the computation of the right&#45;hand&#45;side (RHS) near the relevant domain boundary through the modification of the fluxes. ">
<polygon fill="#ffffff" stroke="#000000" points="255,-95 255,-112 308,-112 308,-95 255,-95"/>
<text text-anchor="middle" x="281.5" y="-101.6" font-family="Helvetica,sans-Serif" font-size="8.00" fill="#000000">m_cbc::s_cbc</text>
</a>
</g>
</g>
<!-- Node73&#45;&gt;Node74 -->
<g id="edge2" class="edge">
<title>Node73&#45;&gt;Node74</title>
<path fill="none" stroke="#191970" d="M229.465,-103.5C238.2469,-103.5 247.0801,-103.5 254.9118,-103.5"/>
<polygon fill="#191970" stroke="#191970" points="229.2426,-100.0001 219.2426,-103.5 229.2425,-107.0001 229.2426,-100.0001"/>
</g>
<!-- Node75 -->
<g id="node4" class="node">
<title>Node75</title>
<g id="a_node4"><a xlink:href="namespacem__rhs.html#a361f0038973069452cc88430c49bcfe8" target="_top" xlink:title="The purpose of this procedure is to employ the inputted cell&#45;average conservative variables in order ...">
<polygon fill="#ffffff" stroke="#000000" points="344,-95 344,-112 422,-112 422,-95 344,-95"/>
<text text-anchor="middle" x="383" y="-101.6" font-family="Helvetica,sans-Serif" font-size="8.00" fill="#000000">m_rhs::s_compute_rhs</text>
</a>
</g>
</g>
<!-- Node74&#45;&gt;Node75 -->
<g id="edge3" class="edge">
<title>Node74&#45;&gt;Node75</title>
<path fill="none" stroke="#191970" d="M318.3358,-103.5C326.6499,-103.5 335.5039,-103.5 343.9072,-103.5"/>
<polygon fill="#191970" stroke="#191970" points="318.168,-100.0001 308.1679,-103.5 318.1679,-107.0001 318.168,-100.0001"/>
</g>
<!-- Node76 -->
<g id="node5" class="node">
<title>Node76</title>
<g id="a_node5"><a xlink:href="namespacem__time__steppers.html#a1057850f94e9e749da9687baa7478246" target="_top" xlink:title="1st order TVD RK time&#45;stepping algorithm ">
<polygon fill="#ffffff" stroke="#000000" points="458,-180.5 458,-206.5 527,-206.5 527,-180.5 458,-180.5"/>
<text text-anchor="start" x="466" y="-196.1" font-family="Helvetica,sans-Serif" font-size="8.00" fill="#000000">m_time_steppers::s</text>
<text text-anchor="middle" x="492.5" y="-187.1" font-family="Helvetica,sans-Serif" font-size="8.00" fill="#000000">_1st_order_tvd_rk</text>
</a>
</g>
</g>
<!-- Node75&#45;&gt;Node76 -->
<g id="edge4" class="edge">
<title>Node75&#45;&gt;Node76</title>
<path fill="none" stroke="#191970" d="M399.1111,-119.5829C413.845,-133.9243 436.5476,-155.1214 458,-171.5 461.9524,-174.5176 466.3228,-177.5298 470.5871,-180.314"/>
<polygon fill="#191970" stroke="#191970" points="401.3875,-116.9125 391.804,-112.3949 396.4785,-121.9028 401.3875,-116.9125"/>
</g>
<!-- Node78 -->
<g id="node7" class="node">
<title>Node78</title>
<g id="a_node7"><a xlink:href="namespacem__time__steppers.html#a5b758874c713da801a47aa3d6246b2fd" target="_top" xlink:title="2nd order TVD RK time&#45;stepping algorithm ">
<polygon fill="#ffffff" stroke="#000000" points="458,-135.5 458,-161.5 527,-161.5 527,-135.5 458,-135.5"/>
<text text-anchor="start" x="466" y="-151.1" font-family="Helvetica,sans-Serif" font-size="8.00" fill="#000000">m_time_steppers::s</text>
<text text-anchor="middle" x="492.5" y="-142.1" font-family="Helvetica,sans-Serif" font-size="8.00" fill="#000000">_2nd_order_tvd_rk</text>
</a>
</g>
</g>
<!-- Node75&#45;&gt;Node78 -->
<g id="edge6" class="edge">
<title>Node75&#45;&gt;Node78</title>
<path fill="none" stroke="#191970" d="M413.4623,-116.0187C428.1125,-122.0394 445.6727,-129.2559 460.5164,-135.3561"/>
<polygon fill="#191970" stroke="#191970" points="414.4337,-112.634 403.8539,-112.0701 411.7728,-119.1086 414.4337,-112.634"/>
</g>
<!-- Node79 -->
<g id="node8" class="node">
<title>Node79</title>
<g id="a_node8"><a xlink:href="namespacem__time__steppers.html#a1cc10f406268344cc54a55159c4ff08f" target="_top" xlink:title="3rd order TVD RK time&#45;stepping algorithm ">
<polygon fill="#ffffff" stroke="#000000" points="458,-90.5 458,-116.5 527,-116.5 527,-90.5 458,-90.5"/>
<text text-anchor="start" x="466" y="-106.1" font-family="Helvetica,sans-Serif" font-size="8.00" fill="#000000">m_time_steppers::s</text>
<text text-anchor="middle" x="492.5" y="-97.1" font-family="Helvetica,sans-Serif" font-size="8.00" fill="#000000">_3rd_order_tvd_rk</text>
</a>
</g>
</g>
<!-- Node75&#45;&gt;Node79 -->
<g id="edge8" class="edge">
<title>Node75&#45;&gt;Node79</title>
<path fill="none" stroke="#191970" d="M432.251,-103.5C440.911,-103.5 449.7564,-103.5 457.9087,-103.5"/>
<polygon fill="#191970" stroke="#191970" points="432.2228,-100.0001 422.2227,-103.5 432.2227,-107.0001 432.2228,-100.0001"/>
</g>
<!-- Node80 -->
<g id="node9" class="node">
<title>Node80</title>
<g id="a_node9"><a xlink:href="namespacem__time__steppers.html#ac53b0d079d514df2bf662bc0e042c8db" target="_top" xlink:title="4th order RK time&#45;stepping algorithm ">
<polygon fill="#ffffff" stroke="#000000" points="458,-45.5 458,-71.5 527,-71.5 527,-45.5 458,-45.5"/>
<text text-anchor="start" x="466" y="-61.1" font-family="Helvetica,sans-Serif" font-size="8.00" fill="#000000">m_time_steppers::s</text>
<text text-anchor="middle" x="492.5" y="-52.1" font-family="Helvetica,sans-Serif" font-size="8.00" fill="#000000">_4th_order_rk</text>
</a>
</g>
</g>
<!-- Node75&#45;&gt;Node80 -->
<g id="edge10" class="edge">
<title>Node75&#45;&gt;Node80</title>
<path fill="none" stroke="#191970" d="M413.4623,-90.9813C428.1125,-84.9606 445.6727,-77.7441 460.5164,-71.6439"/>
<polygon fill="#191970" stroke="#191970" points="411.7728,-87.8914 403.8539,-94.9299 414.4337,-94.366 411.7728,-87.8914"/>
</g>
<!-- Node81 -->
<g id="node10" class="node">
<title>Node81</title>
<g id="a_node10"><a xlink:href="namespacem__time__steppers.html#a4920633ffe7f703c3827b956b21b7417" target="_top" xlink:title="5th order RK time&#45;stepping algorithm ">
<polygon fill="#ffffff" stroke="#000000" points="458,-.5 458,-26.5 527,-26.5 527,-.5 458,-.5"/>
<text text-anchor="start" x="466" y="-16.1" font-family="Helvetica,sans-Serif" font-size="8.00" fill="#000000">m_time_steppers::s</text>
<text text-anchor="middle" x="492.5" y="-7.1" font-family="Helvetica,sans-Serif" font-size="8.00" fill="#000000">_5th_order_rk</text>
</a>
</g>
</g>
<!-- Node75&#45;&gt;Node81 -->
<g id="edge12" class="edge">
<title>Node75&#45;&gt;Node81</title>
<path fill="none" stroke="#191970" d="M399.2301,-87.7836C414.0432,-73.7396 436.7953,-52.9082 458,-36.5 462.3268,-33.1519 467.1252,-29.7646 471.7339,-26.6566"/>
<polygon fill="#191970" stroke="#191970" points="396.6849,-85.3748 391.8776,-94.8163 401.5234,-90.4334 396.6849,-85.3748"/>
</g>
<!-- Node77 -->
<g id="node6" class="node">
<title>Node77</title>
<g id="a_node6"><a xlink:href="p__main_8f90.html#aeec10ee8e2940c953967da3e374e1579" target="_top" xlink:title="Quasi&#45;conservative, shock&#45; and interface&#45; capturing finite&#45;volume scheme for the multicomponent Navie...">
<polygon fill="#ffffff" stroke="#000000" points="563,-95 563,-112 599,-112 599,-95 563,-95"/>
<text text-anchor="middle" x="581" y="-101.6" font-family="Helvetica,sans-Serif" font-size="8.00" fill="#000000">p_main</text>
</a>
</g>
</g>
<!-- Node76&#45;&gt;Node77 -->
<g id="edge5" class="edge">
<title>Node76&#45;&gt;Node77</title>
<path fill="none" stroke="#191970" d="M523.6045,-174.3934C524.775,-173.4468 525.9118,-172.4811 527,-171.5 547.6021,-152.9266 566.4852,-125.9236 575.4772,-112.2035"/>
<polygon fill="#191970" stroke="#191970" points="521.529,-171.5752 515.5485,-180.3207 525.6774,-177.2135 521.529,-171.5752"/>
</g>
<!-- Node78&#45;&gt;Node77 -->
<g id="edge7" class="edge">
<title>Node78&#45;&gt;Node77</title>
<path fill="none" stroke="#191970" d="M527.0983,-130.9076C539.8186,-124.4397 553.6574,-117.403 564.1276,-112.0792"/>
<polygon fill="#191970" stroke="#191970" points="525.4253,-127.8318 518.0979,-135.4841 528.5981,-134.0715 525.4253,-127.8318"/>
</g>
<!-- Node79&#45;&gt;Node77 -->
<g id="edge9" class="edge">
<title>Node79&#45;&gt;Node77</title>
<path fill="none" stroke="#191970" d="M537.3807,-103.5C546.4354,-103.5 555.4549,-103.5 562.9223,-103.5"/>
<polygon fill="#191970" stroke="#191970" points="537.2236,-100.0001 527.2235,-103.5 537.2235,-107.0001 537.2236,-100.0001"/>
</g>
<!-- Node80&#45;&gt;Node77 -->
<g id="edge11" class="edge">
<title>Node80&#45;&gt;Node77</title>
<path fill="none" stroke="#191970" d="M527.0983,-76.0924C539.8186,-82.5603 553.6574,-89.597 564.1276,-94.9208"/>
<polygon fill="#191970" stroke="#191970" points="528.5981,-72.9285 518.0979,-71.5159 525.4253,-79.1682 528.5981,-72.9285"/>
</g>
<!-- Node81&#45;&gt;Node77 -->
<g id="edge13" class="edge">
<title>Node81&#45;&gt;Node77</title>
<path fill="none" stroke="#191970" d="M522.4848,-32.6396C524.0489,-33.8989 525.565,-35.1891 527,-36.5 547.2957,-55.0398 566.3128,-81.5409 575.4045,-94.9813"/>
<polygon fill="#191970" stroke="#191970" points="524.5323,-29.8006 514.4174,-26.6478 520.3585,-35.4202 524.5323,-29.8006"/>
</g>
</g>
</svg>
