<?xml version="1.0" encoding="UTF-8" standalone="no"?>
<!DOCTYPE svg PUBLIC "-//W3C//DTD SVG 1.1//EN"
 "http://www.w3.org/Graphics/SVG/1.1/DTD/svg11.dtd">
<!-- Generated by graphviz version 2.43.0 (0)
 -->
<!-- Title: m_variables_conversion::s_compute_pressure Pages: 1 -->
<svg width="928pt" height="151pt"
 viewBox="0.00 0.00 928.00 151.00" xmlns="http://www.w3.org/2000/svg" xmlns:xlink="http://www.w3.org/1999/xlink">
<g id="graph0" class="graph" transform="scale(1 1) rotate(0) translate(4 147)">
<title>m_variables_conversion::s_compute_pressure</title>
<!-- Node1 -->
<g id="Node000001" class="node">
<title>Node1</title>
<g id="a_Node000001"><a xlink:title="This procedure conditionally calculates the appropriate pressure.">
<polygon fill="#999999" stroke="#666666" points="920,-83.5 785,-83.5 785,-53.5 920,-53.5 920,-83.5"/>
<text text-anchor="start" x="793" y="-71.5" font-family="Helvetica,sans-Serif" font-size="10.00">m_variables_conversion</text>
<text text-anchor="middle" x="852.5" y="-60.5" font-family="Helvetica,sans-Serif" font-size="10.00">::s_compute_pressure</text>
</a>
</g>
</g>
<!-- Node2 -->
<g id="Node000002" class="node">
<title>Node2</title>
<g id="a_Node000002"><a xlink:href="namespacem__variables__conversion.html#a7d567315b057c0da0cb37f89ef298031" target="_top" xlink:title="The following procedure handles the conversion between the conservative variables and the primitive v...">
<polygon fill="white" stroke="#666666" points="742,-143 604,-143 604,-102 742,-102 742,-143"/>
<text text-anchor="start" x="612" y="-131" font-family="Helvetica,sans-Serif" font-size="10.00">m_variables_conversion</text>
<text text-anchor="start" x="612" y="-120" font-family="Helvetica,sans-Serif" font-size="10.00">::s_convert_conservative</text>
<text text-anchor="middle" x="673" y="-109" font-family="Helvetica,sans-Serif" font-size="10.00">_to_primitive_variables</text>
</a>
</g>
</g>
<!-- Node1&#45;&gt;Node2 -->
<g id="edge1_Node000001_Node000002" class="edge">
<title>Node1&#45;&gt;Node2</title>
<g id="a_edge1_Node000001_Node000002"><a xlink:title=" ">
<path fill="none" stroke="#63b8ff" d="M792.14,-86.56C775.87,-91.51 758.11,-96.91 741.42,-101.99"/>
<polygon fill="#63b8ff" stroke="#63b8ff" points="793.51,-89.8 802.06,-83.54 791.47,-83.1 793.51,-89.8"/>
</a>
</g>
</g>
<!-- Node7 -->
<g id="Node000007" class="node">
<title>Node7</title>
<g id="a_Node000007"><a xlink:href="namespacem__start__up.html#a38182f7fcc92c1c687840339a20e85cd" target="_top" xlink:title="The purpose of this procedure is to initialize the values of the internal&#45;energy equations of each ph...">
<polygon fill="white" stroke="#666666" points="749,-83.5 597,-83.5 597,-53.5 749,-53.5 749,-83.5"/>
<text text-anchor="start" x="605" y="-71.5" font-family="Helvetica,sans-Serif" font-size="10.00">m_start_up::s_initialize</text>
<text text-anchor="middle" x="673" y="-60.5" font-family="Helvetica,sans-Serif" font-size="10.00">_internal_energy_equations</text>
</a>
</g>
</g>
<!-- Node1&#45;&gt;Node7 -->
<g id="edge6_Node000001_Node000007" class="edge">
<title>Node1&#45;&gt;Node7</title>
<g id="a_edge6_Node000001_Node000007"><a xlink:title=" ">
<path fill="none" stroke="#63b8ff" d="M774.63,-68.5C766.14,-68.5 757.49,-68.5 749.02,-68.5"/>
<polygon fill="#63b8ff" stroke="#63b8ff" points="774.9,-72 784.9,-68.5 774.9,-65 774.9,-72"/>
</a>
</g>
</g>
<!-- Node9 -->
<g id="Node000009" class="node">
<title>Node9</title>
<g id="a_Node000009"><a xlink:href="namespacem__data__output.html#a52814dea8c93b2edeaab7f76eb9a89e5" target="_top" xlink:title="This writes a formatted data file for the flow probe information.">
<polygon fill="white" stroke="#666666" points="738.5,-35.5 607.5,-35.5 607.5,-5.5 738.5,-5.5 738.5,-35.5"/>
<text text-anchor="start" x="615.5" y="-23.5" font-family="Helvetica,sans-Serif" font-size="10.00">m_data_output::s_write</text>
<text text-anchor="middle" x="673" y="-12.5" font-family="Helvetica,sans-Serif" font-size="10.00">_probe_files</text>
</a>
</g>
</g>
<!-- Node1&#45;&gt;Node9 -->
<g id="edge9_Node000001_Node000009" class="edge">
<title>Node1&#45;&gt;Node9</title>
<g id="a_edge9_Node000001_Node000009"><a xlink:title=" ">
<path fill="none" stroke="#63b8ff" d="M785.98,-50.78C767.41,-45.76 747.39,-40.35 729.48,-35.5"/>
<polygon fill="#63b8ff" stroke="#63b8ff" points="785.26,-54.21 795.82,-53.44 787.09,-47.46 785.26,-54.21"/>
</a>
</g>
</g>
<!-- Node3 -->
<g id="Node000003" class="node">
<title>Node3</title>
<g id="a_Node000003"><a xlink:href="namespacem__data__output.html#a41f6f226c6bb3ab0a1c1d1dfb9ff1b92" target="_top" xlink:title="The goal of this subroutine is to output the grid and conservative variables data files for given tim...">
<polygon fill="white" stroke="#666666" points="561,-134.5 430,-134.5 430,-104.5 561,-104.5 561,-134.5"/>
<text text-anchor="start" x="438" y="-122.5" font-family="Helvetica,sans-Serif" font-size="10.00">m_data_output::s_write</text>
<text text-anchor="middle" x="495.5" y="-111.5" font-family="Helvetica,sans-Serif" font-size="10.00">_serial_data_files</text>
</a>
</g>
</g>
<!-- Node2&#45;&gt;Node3 -->
<g id="edge2_Node000002_Node000003" class="edge">
<title>Node2&#45;&gt;Node3</title>
<g id="a_edge2_Node000002_Node000003"><a xlink:title=" ">
<path fill="none" stroke="#63b8ff" d="M593.57,-121.16C582.72,-120.97 571.68,-120.79 561.11,-120.6"/>
<polygon fill="#63b8ff" stroke="#63b8ff" points="593.84,-124.66 603.9,-121.34 593.96,-117.67 593.84,-124.66"/>
</a>
</g>
</g>
<!-- Node4 -->
<g id="Node000004" class="node">
<title>Node4</title>
<g id="a_Node000004"><a xlink:href="namespacem__data__output.html#acbfda5552d101aa75a809185c6c3edfe" target="_top" xlink:title="Write data files. Dispatch subroutine that replaces procedure pointer.">
<polygon fill="white" stroke="#666666" points="394,-129.5 263,-129.5 263,-99.5 394,-99.5 394,-129.5"/>
<text text-anchor="start" x="271" y="-117.5" font-family="Helvetica,sans-Serif" font-size="10.00">m_data_output::s_write</text>
<text text-anchor="middle" x="328.5" y="-106.5" font-family="Helvetica,sans-Serif" font-size="10.00">_data_files</text>
</a>
</g>
</g>
<!-- Node3&#45;&gt;Node4 -->
<g id="edge3_Node000003_Node000004" class="edge">
<title>Node3&#45;&gt;Node4</title>
<g id="a_edge3_Node000003_Node000004"><a xlink:title=" ">
<path fill="none" stroke="#63b8ff" d="M419.76,-117.24C411.18,-116.98 402.48,-116.71 394.05,-116.46"/>
<polygon fill="#63b8ff" stroke="#63b8ff" points="419.66,-120.73 429.76,-117.54 419.87,-113.74 419.66,-120.73"/>
</a>
</g>
</g>
<!-- Node5 -->
<g id="Node000005" class="node">
<title>Node5</title>
<g id="a_Node000005"><a xlink:href="namespacem__start__up.html#a47ade6ffcd98aafcccf10910f626142d" target="_top" xlink:title=" ">
<polygon fill="white" stroke="#666666" points="227,-123 89,-123 89,-104 227,-104 227,-123"/>
<text text-anchor="middle" x="158" y="-111" font-family="Helvetica,sans-Serif" font-size="10.00">m_start_up::s_save_data</text>
</a>
</g>
</g>
<!-- Node4&#45;&gt;Node5 -->
<g id="edge4_Node000004_Node000005" class="edge">
<title>Node4&#45;&gt;Node5</title>
<g id="a_edge4_Node000004_Node000005"><a xlink:title=" ">
<path fill="none" stroke="#63b8ff" d="M252.58,-114.06C244.11,-114.01 235.51,-113.95 227.13,-113.9"/>
<polygon fill="#63b8ff" stroke="#63b8ff" points="252.81,-117.56 262.84,-114.12 252.86,-110.56 252.81,-117.56"/>
</a>
</g>
</g>
<!-- Node6 -->
<g id="Node000006" class="node">
<title>Node6</title>
<g id="a_Node000006"><a xlink:href="p__main_8fpp_8f90.html#aeec10ee8e2940c953967da3e374e1579" target="_top" xlink:title="Quasi&#45;conservative, shock&#45; and interface&#45; capturing finite&#45;volume scheme for the multicomponent Navie...">
<polygon fill="white" stroke="#666666" points="53,-79 0,-79 0,-60 53,-60 53,-79"/>
<text text-anchor="middle" x="26.5" y="-67" font-family="Helvetica,sans-Serif" font-size="10.00">p_main</text>
</a>
</g>
</g>
<!-- Node5&#45;&gt;Node6 -->
<g id="edge5_Node000005_Node000006" class="edge">
<title>Node5&#45;&gt;Node6</title>
<g id="a_edge5_Node000005_Node000006"><a xlink:title=" ">
<path fill="none" stroke="#63b8ff" d="M112.97,-101.15C104.96,-98.73 96.7,-96.13 89,-93.5 76.2,-89.13 62.13,-83.69 50.69,-79.09"/>
<polygon fill="#63b8ff" stroke="#63b8ff" points="111.99,-104.51 122.57,-104 113.98,-97.8 111.99,-104.51"/>
</a>
</g>
</g>
<!-- Node8 -->
<g id="Node000008" class="node">
<title>Node8</title>
<g id="a_Node000008"><a xlink:href="namespacem__start__up.html#a1fb7a3f9d412acd2a9cbcfe8b45006dd" target="_top" xlink:title=" ">
<polygon fill="white" stroke="#666666" points="223,-84.5 93,-84.5 93,-54.5 223,-54.5 223,-84.5"/>
<text text-anchor="start" x="101" y="-72.5" font-family="Helvetica,sans-Serif" font-size="10.00">m_start_up::s_initialize</text>
<text text-anchor="middle" x="158" y="-61.5" font-family="Helvetica,sans-Serif" font-size="10.00">_modules</text>
</a>
</g>
</g>
<!-- Node7&#45;&gt;Node8 -->
<g id="edge7_Node000007_Node000008" class="edge">
<title>Node7&#45;&gt;Node8</title>
<g id="a_edge7_Node000007_Node000008"><a xlink:title=" ">
<path fill="none" stroke="#63b8ff" d="M586.56,-68.67C484.27,-68.87 315.3,-69.2 223.39,-69.37"/>
<polygon fill="#63b8ff" stroke="#63b8ff" points="586.86,-72.17 596.86,-68.65 586.85,-65.17 586.86,-72.17"/>
</a>
</g>
</g>
<!-- Node8&#45;&gt;Node6 -->
<g id="edge8_Node000008_Node000006" class="edge">
<title>Node8&#45;&gt;Node6</title>
<g id="a_edge8_Node000008_Node000006"><a xlink:title=" ">
<path fill="none" stroke="#63b8ff" d="M82.52,-69.5C72.04,-69.5 61.91,-69.5 53.26,-69.5"/>
<polygon fill="#63b8ff" stroke="#63b8ff" points="82.63,-73 92.63,-69.5 82.63,-66 82.63,-73"/>
</a>
</g>
</g>
<!-- Node10 -->
<g id="Node000010" class="node">
<title>Node10</title>
<g id="a_Node000010"><a xlink:href="namespacem__derived__variables.html#a516a9808b3446b7b45029f6451d02b3f" target="_top" xlink:title="Writes coherent body information, communication files, and probes.">
<polygon fill="white" stroke="#666666" points="555,-41 436,-41 436,0 555,0 555,-41"/>
<text text-anchor="start" x="444" y="-29" font-family="Helvetica,sans-Serif" font-size="10.00">m_derived_variables</text>
<text text-anchor="start" x="444" y="-18" font-family="Helvetica,sans-Serif" font-size="10.00">::s_compute_derived</text>
<text text-anchor="middle" x="495.5" y="-7" font-family="Helvetica,sans-Serif" font-size="10.00">_variables</text>
</a>
</g>
</g>
<!-- Node9&#45;&gt;Node10 -->
<g id="edge10_Node000009_Node000010" class="edge">
<title>Node9&#45;&gt;Node10</title>
<g id="a_edge10_Node000009_Node000010"><a xlink:title=" ">
<path fill="none" stroke="#63b8ff" d="M597.07,-20.5C583.1,-20.5 568.68,-20.5 555.28,-20.5"/>
<polygon fill="#63b8ff" stroke="#63b8ff" points="597.15,-24 607.15,-20.5 597.15,-17 597.15,-24"/>
</a>
</g>
</g>
<!-- Node11 -->
<g id="Node000011" class="node">
<title>Node11</title>
<g id="a_Node000011"><a xlink:href="namespacem__start__up.html#ae28835629de9baa7fd546672a0add0e5" target="_top" xlink:title=" ">
<polygon fill="white" stroke="#666666" points="392,-37.5 265,-37.5 265,-7.5 392,-7.5 392,-37.5"/>
<text text-anchor="start" x="273" y="-25.5" font-family="Helvetica,sans-Serif" font-size="10.00">m_start_up::s_perform</text>
<text text-anchor="middle" x="328.5" y="-14.5" font-family="Helvetica,sans-Serif" font-size="10.00">_time_step</text>
</a>
</g>
</g>
<!-- Node10&#45;&gt;Node11 -->
<g id="edge11_Node000010_Node000011" class="edge">
<title>Node10&#45;&gt;Node11</title>
<g id="a_edge11_Node000010_Node000011"><a xlink:title=" ">
<path fill="none" stroke="#63b8ff" d="M425.75,-21.33C414.61,-21.47 403.13,-21.61 392.14,-21.74"/>
<polygon fill="#63b8ff" stroke="#63b8ff" points="425.91,-24.83 435.86,-21.21 425.82,-17.83 425.91,-24.83"/>
</a>
</g>
</g>
<!-- Node11&#45;&gt;Node6 -->
<g id="edge12_Node000011_Node000006" class="edge">
<title>Node11&#45;&gt;Node6</title>
<g id="a_edge12_Node000011_Node000006"><a xlink:title=" ">
<path fill="none" stroke="#63b8ff" d="M254.73,-24.32C207.05,-26.78 143.66,-32.46 89,-45.5 74.84,-48.88 59.59,-54.81 47.82,-59.93"/>
<polygon fill="#63b8ff" stroke="#63b8ff" points="255.14,-27.81 264.96,-23.83 254.8,-20.81 255.14,-27.81"/>
</a>
</g>
</g>
</g>
</svg>
