<?xml version="1.0" encoding="UTF-8" standalone="no"?>
<!DOCTYPE svg PUBLIC "-//W3C//DTD SVG 1.1//EN"
 "http://www.w3.org/Graphics/SVG/1.1/DTD/svg11.dtd">
<!-- Generated by graphviz version 2.40.1 (20161225.0304)
 -->
<!-- Title: m_rhs::s_compute_fd_gradient Pages: 1 -->
<svg width="514pt" height="215pt"
 viewBox="0.00 0.00 514.00 215.00" xmlns="http://www.w3.org/2000/svg" xmlns:xlink="http://www.w3.org/1999/xlink">
<g id="graph0" class="graph" transform="scale(1 1) rotate(0) translate(4 211)">
<title>m_rhs::s_compute_fd_gradient</title>
<polygon fill="#ffffff" stroke="transparent" points="-4,4 -4,-211 510,-211 510,4 -4,4"/>
<!-- Node81 -->
<g id="node1" class="node">
<title>Node81</title>
<polygon fill="#bfbfbf" stroke="#000000" points="0,-90.5 0,-116.5 74,-116.5 74,-90.5 0,-90.5"/>
<text text-anchor="start" x="8" y="-106.1" font-family="Helvetica,sans-Serif" font-size="8.00" fill="#000000">m_rhs::s_compute_fd</text>
<text text-anchor="middle" x="37" y="-97.1" font-family="Helvetica,sans-Serif" font-size="8.00" fill="#000000">_gradient</text>
</g>
<!-- Node82 -->
<g id="node2" class="node">
<title>Node82</title>
<g id="a_node2"><a xlink:href="namespacem__rhs.html#aa1cd3a5b83eabb0344ecae0cf321ca87" target="_top" xlink:title="The purpose of this procedure is to compute the interface sharpening regularization source terms...">
<polygon fill="#ffffff" stroke="#000000" points="110,-111.5 110,-137.5 215,-137.5 215,-111.5 110,-111.5"/>
<text text-anchor="start" x="118" y="-127.1" font-family="Helvetica,sans-Serif" font-size="8.00" fill="#000000">m_rhs::s_compute_regularization</text>
<text text-anchor="middle" x="162.5" y="-118.1" font-family="Helvetica,sans-Serif" font-size="8.00" fill="#000000">_source</text>
</a>
</g>
</g>
<!-- Node81&#45;&gt;Node82 -->
<g id="edge1" class="edge">
<title>Node81&#45;&gt;Node82</title>
<path fill="none" stroke="#191970" d="M84.2426,-111.4051C92.5755,-112.7995 101.2977,-114.259 109.7697,-115.6766"/>
<polygon fill="#191970" stroke="#191970" points="84.7549,-107.9423 74.3143,-109.7438 83.5996,-114.8463 84.7549,-107.9423"/>
</g>
<!-- Node90 -->
<g id="node10" class="node">
<title>Node90</title>
<g id="a_node10"><a xlink:href="namespacem__rhs.html#aac41721bd3275fb997f51c1afaebac4a" target="_top" xlink:title="Computes viscous terms. ">
<polygon fill="#ffffff" stroke="#000000" points="125,-75 125,-92 200,-92 200,-75 125,-75"/>
<text text-anchor="middle" x="162.5" y="-81.6" font-family="Helvetica,sans-Serif" font-size="8.00" fill="#000000">m_rhs::s_get_viscous</text>
</a>
</g>
</g>
<!-- Node81&#45;&gt;Node90 -->
<g id="edge13" class="edge">
<title>Node81&#45;&gt;Node90</title>
<path fill="none" stroke="#191970" d="M84.2819,-95.965C97.6269,-93.8383 111.9674,-91.553 124.6783,-89.5274"/>
<polygon fill="#191970" stroke="#191970" points="83.6389,-92.5233 74.3143,-97.5535 84.7406,-99.436 83.6389,-92.5233"/>
</g>
<!-- Node83 -->
<g id="node3" class="node">
<title>Node83</title>
<g id="a_node3"><a xlink:href="namespacem__rhs.html#a361f0038973069452cc88430c49bcfe8" target="_top" xlink:title="The purpose of this procedure is to employ the inputted cell&#45;average conservative variables in order ...">
<polygon fill="#ffffff" stroke="#000000" points="251,-95 251,-112 329,-112 329,-95 251,-95"/>
<text text-anchor="middle" x="290" y="-101.6" font-family="Helvetica,sans-Serif" font-size="8.00" fill="#000000">m_rhs::s_compute_rhs</text>
</a>
</g>
</g>
<!-- Node82&#45;&gt;Node83 -->
<g id="edge2" class="edge">
<title>Node82&#45;&gt;Node83</title>
<path fill="none" stroke="#191970" d="M224.9714,-114.2106C233.7627,-112.7626 242.5863,-111.3093 250.7734,-109.9609"/>
<polygon fill="#191970" stroke="#191970" points="224.3935,-110.7585 215.0952,-115.8373 225.5311,-117.6655 224.3935,-110.7585"/>
</g>
<!-- Node84 -->
<g id="node4" class="node">
<title>Node84</title>
<g id="a_node4"><a xlink:href="namespacem__time__steppers.html#a1057850f94e9e749da9687baa7478246" target="_top" xlink:title="1st order TVD RK time&#45;stepping algorithm ">
<polygon fill="#ffffff" stroke="#000000" points="365,-180.5 365,-206.5 434,-206.5 434,-180.5 365,-180.5"/>
<text text-anchor="start" x="373" y="-196.1" font-family="Helvetica,sans-Serif" font-size="8.00" fill="#000000">m_time_steppers::s</text>
<text text-anchor="middle" x="399.5" y="-187.1" font-family="Helvetica,sans-Serif" font-size="8.00" fill="#000000">_1st_order_tvd_rk</text>
</a>
</g>
</g>
<!-- Node83&#45;&gt;Node84 -->
<g id="edge3" class="edge">
<title>Node83&#45;&gt;Node84</title>
<path fill="none" stroke="#191970" d="M306.1111,-119.5829C320.845,-133.9243 343.5476,-155.1214 365,-171.5 368.9524,-174.5176 373.3228,-177.5298 377.5871,-180.314"/>
<polygon fill="#191970" stroke="#191970" points="308.3875,-116.9125 298.804,-112.3949 303.4785,-121.9028 308.3875,-116.9125"/>
</g>
<!-- Node86 -->
<g id="node6" class="node">
<title>Node86</title>
<g id="a_node6"><a xlink:href="namespacem__time__steppers.html#a5b758874c713da801a47aa3d6246b2fd" target="_top" xlink:title="2nd order TVD RK time&#45;stepping algorithm ">
<polygon fill="#ffffff" stroke="#000000" points="365,-135.5 365,-161.5 434,-161.5 434,-135.5 365,-135.5"/>
<text text-anchor="start" x="373" y="-151.1" font-family="Helvetica,sans-Serif" font-size="8.00" fill="#000000">m_time_steppers::s</text>
<text text-anchor="middle" x="399.5" y="-142.1" font-family="Helvetica,sans-Serif" font-size="8.00" fill="#000000">_2nd_order_tvd_rk</text>
</a>
</g>
</g>
<!-- Node83&#45;&gt;Node86 -->
<g id="edge5" class="edge">
<title>Node83&#45;&gt;Node86</title>
<path fill="none" stroke="#191970" d="M320.4623,-116.0187C335.1125,-122.0394 352.6727,-129.2559 367.5164,-135.3561"/>
<polygon fill="#191970" stroke="#191970" points="321.4337,-112.634 310.8539,-112.0701 318.7728,-119.1086 321.4337,-112.634"/>
</g>
<!-- Node87 -->
<g id="node7" class="node">
<title>Node87</title>
<g id="a_node7"><a xlink:href="namespacem__time__steppers.html#a1cc10f406268344cc54a55159c4ff08f" target="_top" xlink:title="3rd order TVD RK time&#45;stepping algorithm ">
<polygon fill="#ffffff" stroke="#000000" points="365,-90.5 365,-116.5 434,-116.5 434,-90.5 365,-90.5"/>
<text text-anchor="start" x="373" y="-106.1" font-family="Helvetica,sans-Serif" font-size="8.00" fill="#000000">m_time_steppers::s</text>
<text text-anchor="middle" x="399.5" y="-97.1" font-family="Helvetica,sans-Serif" font-size="8.00" fill="#000000">_3rd_order_tvd_rk</text>
</a>
</g>
</g>
<!-- Node83&#45;&gt;Node87 -->
<g id="edge7" class="edge">
<title>Node83&#45;&gt;Node87</title>
<path fill="none" stroke="#191970" d="M339.251,-103.5C347.911,-103.5 356.7564,-103.5 364.9087,-103.5"/>
<polygon fill="#191970" stroke="#191970" points="339.2228,-100.0001 329.2227,-103.5 339.2227,-107.0001 339.2228,-100.0001"/>
</g>
<!-- Node88 -->
<g id="node8" class="node">
<title>Node88</title>
<g id="a_node8"><a xlink:href="namespacem__time__steppers.html#ac53b0d079d514df2bf662bc0e042c8db" target="_top" xlink:title="4th order RK time&#45;stepping algorithm ">
<polygon fill="#ffffff" stroke="#000000" points="365,-45.5 365,-71.5 434,-71.5 434,-45.5 365,-45.5"/>
<text text-anchor="start" x="373" y="-61.1" font-family="Helvetica,sans-Serif" font-size="8.00" fill="#000000">m_time_steppers::s</text>
<text text-anchor="middle" x="399.5" y="-52.1" font-family="Helvetica,sans-Serif" font-size="8.00" fill="#000000">_4th_order_rk</text>
</a>
</g>
</g>
<!-- Node83&#45;&gt;Node88 -->
<g id="edge9" class="edge">
<title>Node83&#45;&gt;Node88</title>
<path fill="none" stroke="#191970" d="M320.4623,-90.9813C335.1125,-84.9606 352.6727,-77.7441 367.5164,-71.6439"/>
<polygon fill="#191970" stroke="#191970" points="318.7728,-87.8914 310.8539,-94.9299 321.4337,-94.366 318.7728,-87.8914"/>
</g>
<!-- Node89 -->
<g id="node9" class="node">
<title>Node89</title>
<g id="a_node9"><a xlink:href="namespacem__time__steppers.html#a4920633ffe7f703c3827b956b21b7417" target="_top" xlink:title="5th order RK time&#45;stepping algorithm ">
<polygon fill="#ffffff" stroke="#000000" points="365,-.5 365,-26.5 434,-26.5 434,-.5 365,-.5"/>
<text text-anchor="start" x="373" y="-16.1" font-family="Helvetica,sans-Serif" font-size="8.00" fill="#000000">m_time_steppers::s</text>
<text text-anchor="middle" x="399.5" y="-7.1" font-family="Helvetica,sans-Serif" font-size="8.00" fill="#000000">_5th_order_rk</text>
</a>
</g>
</g>
<!-- Node83&#45;&gt;Node89 -->
<g id="edge11" class="edge">
<title>Node83&#45;&gt;Node89</title>
<path fill="none" stroke="#191970" d="M306.1111,-87.4171C320.845,-73.0757 343.5476,-51.8786 365,-35.5 368.9524,-32.4824 373.3228,-29.4702 377.5871,-26.686"/>
<polygon fill="#191970" stroke="#191970" points="303.4785,-85.0972 298.804,-94.6051 308.3875,-90.0875 303.4785,-85.0972"/>
</g>
<!-- Node85 -->
<g id="node5" class="node">
<title>Node85</title>
<g id="a_node5"><a xlink:href="p__main_8f90.html#aeec10ee8e2940c953967da3e374e1579" target="_top" xlink:title="Quasi&#45;conservative, shock&#45; and interface&#45; capturing finite&#45;volume scheme for the multicomponent Navie...">
<polygon fill="#ffffff" stroke="#000000" points="470,-95 470,-112 506,-112 506,-95 470,-95"/>
<text text-anchor="middle" x="488" y="-101.6" font-family="Helvetica,sans-Serif" font-size="8.00" fill="#000000">p_main</text>
</a>
</g>
</g>
<!-- Node84&#45;&gt;Node85 -->
<g id="edge4" class="edge">
<title>Node84&#45;&gt;Node85</title>
<path fill="none" stroke="#191970" d="M430.6045,-174.3934C431.775,-173.4468 432.9118,-172.4811 434,-171.5 454.6021,-152.9266 473.4852,-125.9236 482.4772,-112.2035"/>
<polygon fill="#191970" stroke="#191970" points="428.529,-171.5752 422.5485,-180.3207 432.6774,-177.2135 428.529,-171.5752"/>
</g>
<!-- Node86&#45;&gt;Node85 -->
<g id="edge6" class="edge">
<title>Node86&#45;&gt;Node85</title>
<path fill="none" stroke="#191970" d="M434.0983,-130.9076C446.8186,-124.4397 460.6574,-117.403 471.1276,-112.0792"/>
<polygon fill="#191970" stroke="#191970" points="432.4253,-127.8318 425.0979,-135.4841 435.5981,-134.0715 432.4253,-127.8318"/>
</g>
<!-- Node87&#45;&gt;Node85 -->
<g id="edge8" class="edge">
<title>Node87&#45;&gt;Node85</title>
<path fill="none" stroke="#191970" d="M444.3807,-103.5C453.4354,-103.5 462.4549,-103.5 469.9223,-103.5"/>
<polygon fill="#191970" stroke="#191970" points="444.2236,-100.0001 434.2235,-103.5 444.2235,-107.0001 444.2236,-100.0001"/>
</g>
<!-- Node88&#45;&gt;Node85 -->
<g id="edge10" class="edge">
<title>Node88&#45;&gt;Node85</title>
<path fill="none" stroke="#191970" d="M434.0983,-76.0924C446.8186,-82.5603 460.6574,-89.597 471.1276,-94.9208"/>
<polygon fill="#191970" stroke="#191970" points="435.5981,-72.9285 425.0979,-71.5159 432.4253,-79.1682 435.5981,-72.9285"/>
</g>
<!-- Node89&#45;&gt;Node85 -->
<g id="edge12" class="edge">
<title>Node89&#45;&gt;Node85</title>
<path fill="none" stroke="#191970" d="M430.6045,-32.6066C431.775,-33.5532 432.9118,-34.5189 434,-35.5 454.6021,-54.0734 473.4852,-81.0764 482.4772,-94.7965"/>
<polygon fill="#191970" stroke="#191970" points="432.6774,-29.7865 422.5485,-26.6793 428.529,-35.4248 432.6774,-29.7865"/>
</g>
<!-- Node90&#45;&gt;Node83 -->
<g id="edge14" class="edge">
<title>Node90&#45;&gt;Node83</title>
<path fill="none" stroke="#191970" d="M210.1096,-90.9682C223.5638,-93.0786 238.0447,-95.3501 250.9336,-97.3719"/>
<polygon fill="#191970" stroke="#191970" points="210.4862,-87.4845 200.0646,-89.3925 209.4014,-94.4 210.4862,-87.4845"/>
</g>
</g>
</svg>
