<?xml version="1.0" encoding="UTF-8" standalone="no"?>
<!DOCTYPE svg PUBLIC "-//W3C//DTD SVG 1.1//EN"
 "http://www.w3.org/Graphics/SVG/1.1/DTD/svg11.dtd">
<!-- Generated by graphviz version 2.43.0 (0)
 -->
<!-- Title: m_data_output::s_write_run_time_information Pages: 1 -->
<svg width="717pt" height="203pt"
 viewBox="0.00 0.00 717.00 203.00" xmlns="http://www.w3.org/2000/svg" xmlns:xlink="http://www.w3.org/1999/xlink">
<g id="graph0" class="graph" transform="scale(1 1) rotate(0) translate(4 199)">
<title>m_data_output::s_write_run_time_information</title>
<!-- Node1 -->
<g id="Node000001" class="node">
<title>Node1</title>
<g id="a_Node000001"><a xlink:title="The goal of the procedure is to output to the run&#45;time information file the stability criteria extrem...">
<polygon fill="#999999" stroke="#666666" points="131,-123 0,-123 0,-93 131,-93 131,-123"/>
<text text-anchor="start" x="8" y="-111" font-family="Helvetica,sans-Serif" font-size="10.00">m_data_output::s_write</text>
<text text-anchor="middle" x="65.5" y="-100" font-family="Helvetica,sans-Serif" font-size="10.00">_run_time_information</text>
</a>
</g>
</g>
<!-- Node2 -->
<g id="Node000002" class="node">
<title>Node2</title>
<g id="a_Node000002"><a xlink:href="namespacem__helper__basic.html#a3f0eae73a833f30924d4b2665a13a429" target="_top" xlink:title="This procedure checks if two floating point numbers of wp are within tolerance.">
<polygon fill="white" stroke="#666666" points="318,-195 176,-195 176,-165 318,-165 318,-195"/>
<text text-anchor="start" x="184" y="-183" font-family="Helvetica,sans-Serif" font-size="10.00">m_helper_basic::f_approx</text>
<text text-anchor="middle" x="247" y="-172" font-family="Helvetica,sans-Serif" font-size="10.00">_equal</text>
</a>
</g>
</g>
<!-- Node1&#45;&gt;Node2 -->
<g id="edge1_Node000001_Node000002" class="edge">
<title>Node1&#45;&gt;Node2</title>
<g id="a_edge1_Node000001_Node000002"><a xlink:title=" ">
<path fill="none" stroke="#63b8ff" d="M95.02,-123.04C114.86,-133.15 142.12,-146.34 167,-156 172.09,-157.98 177.42,-159.9 182.8,-161.74"/>
<polygon fill="#63b8ff" stroke="#63b8ff" points="181.91,-165.13 192.51,-164.95 184.11,-158.48 181.91,-165.13"/>
</a>
</g>
</g>
<!-- Node3 -->
<g id="Node000003" class="node">
<title>Node3</title>
<g id="a_Node000003"><a xlink:href="namespacem__sim__helpers.html#a3c26ca717ef0246e7e32d91b00d6f0da" target="_top" xlink:title="Computes enthalpy.">
<polygon fill="white" stroke="#666666" points="322,-147 172,-147 172,-117 322,-117 322,-147"/>
<text text-anchor="start" x="180" y="-135" font-family="Helvetica,sans-Serif" font-size="10.00">m_sim_helpers::s_compute</text>
<text text-anchor="middle" x="247" y="-124" font-family="Helvetica,sans-Serif" font-size="10.00">_enthalpy</text>
</a>
</g>
</g>
<!-- Node1&#45;&gt;Node3 -->
<g id="edge2_Node000001_Node000003" class="edge">
<title>Node1&#45;&gt;Node3</title>
<g id="a_edge2_Node000001_Node000003"><a xlink:title=" ">
<path fill="none" stroke="#63b8ff" d="M131.05,-116.63C141.1,-117.97 151.62,-119.38 162.03,-120.77"/>
<polygon fill="#63b8ff" stroke="#63b8ff" points="161.58,-124.24 171.96,-122.1 162.51,-117.31 161.58,-124.24"/>
</a>
</g>
</g>
<!-- Node6 -->
<g id="Node000006" class="node">
<title>Node6</title>
<g id="a_Node000006"><a xlink:href="namespacem__variables__conversion.html#a2592c29f5aae1605bdcf12dcf6315748" target="_top" xlink:title="Computes the speed of sound from thermodynamic state variables, supporting multiple equation&#45;of&#45;state...">
<polygon fill="white" stroke="#666666" points="327,-99 167,-99 167,-69 327,-69 327,-99"/>
<text text-anchor="start" x="175" y="-87" font-family="Helvetica,sans-Serif" font-size="10.00">m_variables_conversion</text>
<text text-anchor="middle" x="247" y="-76" font-family="Helvetica,sans-Serif" font-size="10.00">::s_compute_speed_of_sound</text>
</a>
</g>
</g>
<!-- Node1&#45;&gt;Node6 -->
<g id="edge5_Node000001_Node000006" class="edge">
<title>Node1&#45;&gt;Node6</title>
<g id="a_edge5_Node000001_Node000006"><a xlink:title=" ">
<path fill="none" stroke="#63b8ff" d="M131.05,-99.37C139.36,-98.26 147.98,-97.11 156.6,-95.95"/>
<polygon fill="#63b8ff" stroke="#63b8ff" points="157.24,-99.4 166.69,-94.6 156.31,-92.46 157.24,-99.4"/>
</a>
</g>
</g>
<!-- Node7 -->
<g id="Node000007" class="node">
<title>Node7</title>
<g id="a_Node000007"><a xlink:href="namespacem__sim__helpers.html#ad7c9828a95b779c9c011d9d052df9eaa" target="_top" xlink:title="Computes stability criterion for a specified dt.">
<polygon fill="white" stroke="#666666" points="322,-51 172,-51 172,-21 322,-21 322,-51"/>
<text text-anchor="start" x="180" y="-39" font-family="Helvetica,sans-Serif" font-size="10.00">m_sim_helpers::s_compute</text>
<text text-anchor="middle" x="247" y="-28" font-family="Helvetica,sans-Serif" font-size="10.00">_stability_from_dt</text>
</a>
</g>
</g>
<!-- Node1&#45;&gt;Node7 -->
<g id="edge6_Node000001_Node000007" class="edge">
<title>Node1&#45;&gt;Node7</title>
<g id="a_edge6_Node000001_Node000007"><a xlink:title=" ">
<path fill="none" stroke="#63b8ff" d="M95.02,-92.96C114.86,-82.85 142.12,-69.66 167,-60 172.09,-58.02 177.42,-56.1 182.8,-54.26"/>
<polygon fill="#63b8ff" stroke="#63b8ff" points="184.11,-57.52 192.51,-51.05 181.91,-50.87 184.11,-57.52"/>
</a>
</g>
</g>
<!-- Node4 -->
<g id="Node000004" class="node">
<title>Node4</title>
<g id="a_Node000004"><a xlink:href="namespacem__variables__conversion.html#a21906a4c29bbb1187212feb969c00502" target="_top" xlink:title="This subroutine computes partial densities and volume fractions.">
<polygon fill="white" stroke="#666666" points="524,-188 363,-188 363,-158 524,-158 524,-188"/>
<text text-anchor="start" x="371" y="-176" font-family="Helvetica,sans-Serif" font-size="10.00">m_variables_conversion</text>
<text text-anchor="middle" x="443.5" y="-165" font-family="Helvetica,sans-Serif" font-size="10.00">::s_compute_species_fraction</text>
</a>
</g>
</g>
<!-- Node3&#45;&gt;Node4 -->
<g id="edge3_Node000003_Node000004" class="edge">
<title>Node3&#45;&gt;Node4</title>
<g id="a_edge3_Node000003_Node000004"><a xlink:title=" ">
<path fill="none" stroke="#63b8ff" d="M319.32,-147.03C332.93,-149.9 347.27,-152.93 361.17,-155.86"/>
<polygon fill="#63b8ff" stroke="#63b8ff" points="360.68,-159.33 371.19,-157.97 362.13,-152.48 360.68,-159.33"/>
</a>
</g>
</g>
<!-- Node5 -->
<g id="Node000005" class="node">
<title>Node5</title>
<g id="a_Node000005"><a xlink:href="namespacem__variables__conversion.html#af1bda14464459b0fd9448dd8885741c7" target="_top" xlink:title="GPU&#45;accelerated conversion of species volume fractions and partial densities to mixture density,...">
<polygon fill="white" stroke="#666666" points="511,-139.5 376,-139.5 376,-98.5 511,-98.5 511,-139.5"/>
<text text-anchor="start" x="384" y="-127.5" font-family="Helvetica,sans-Serif" font-size="10.00">m_variables_conversion</text>
<text text-anchor="start" x="384" y="-116.5" font-family="Helvetica,sans-Serif" font-size="10.00">::s_convert_species_to</text>
<text text-anchor="middle" x="443.5" y="-105.5" font-family="Helvetica,sans-Serif" font-size="10.00">_mixture_variables_acc</text>
</a>
</g>
</g>
<!-- Node3&#45;&gt;Node5 -->
<g id="edge4_Node000003_Node000005" class="edge">
<title>Node3&#45;&gt;Node5</title>
<g id="a_edge4_Node000003_Node000005"><a xlink:title=" ">
<path fill="none" stroke="#63b8ff" d="M322.09,-127.05C336.34,-126.1 351.3,-125.1 365.64,-124.14"/>
<polygon fill="#63b8ff" stroke="#63b8ff" points="366.21,-127.61 375.95,-123.45 365.74,-120.62 366.21,-127.61"/>
</a>
</g>
</g>
<!-- Node8 -->
<g id="Node000008" class="node">
<title>Node8</title>
<g id="a_Node000008"><a xlink:href="namespacem__sim__helpers.html#aa641aecbabcfd37456c476ac6d8549a8" target="_top" xlink:title="Computes the modified dtheta for Fourier filtering in azimuthal direction.">
<polygon fill="white" stroke="#666666" points="709,-51 560,-51 560,-21 709,-21 709,-51"/>
<text text-anchor="start" x="568" y="-39" font-family="Helvetica,sans-Serif" font-size="10.00">m_sim_helpers::f_compute</text>
<text text-anchor="middle" x="634.5" y="-28" font-family="Helvetica,sans-Serif" font-size="10.00">_filtered_dtheta</text>
</a>
</g>
</g>
<!-- Node7&#45;&gt;Node8 -->
<g id="edge7_Node000007_Node000008" class="edge">
<title>Node7&#45;&gt;Node8</title>
<g id="a_edge7_Node000007_Node000008"><a xlink:title=" ">
<path fill="none" stroke="#63b8ff" d="M322.23,-38.22C335.79,-38.55 349.82,-38.83 363,-39 434.55,-39.93 452.45,-39.98 524,-39 532.34,-38.89 541.03,-38.72 549.71,-38.53"/>
<polygon fill="#63b8ff" stroke="#63b8ff" points="549.96,-42.03 559.88,-38.29 549.8,-35.03 549.96,-42.03"/>
</a>
</g>
</g>
<!-- Node9 -->
<g id="Node000009" class="node">
<title>Node9</title>
<g id="a_Node000009"><a xlink:href="namespacem__sim__helpers.html#ae1073a6c7bde04f4502e8f93f81698dd" target="_top" xlink:title="Computes inviscid CFL terms for multi&#45;dimensional cases (2D/3D only).">
<polygon fill="white" stroke="#666666" points="518,-30 369,-30 369,0 518,0 518,-30"/>
<text text-anchor="start" x="377" y="-18" font-family="Helvetica,sans-Serif" font-size="10.00">m_sim_helpers::f_compute</text>
<text text-anchor="middle" x="443.5" y="-7" font-family="Helvetica,sans-Serif" font-size="10.00">_multidim_cfl_terms</text>
</a>
</g>
</g>
<!-- Node7&#45;&gt;Node9 -->
<g id="edge8_Node000007_Node000009" class="edge">
<title>Node7&#45;&gt;Node9</title>
<g id="a_edge8_Node000007_Node000009"><a xlink:title=" ">
<path fill="none" stroke="#63b8ff" d="M322.09,-28C334.08,-26.71 346.57,-25.36 358.78,-24.04"/>
<polygon fill="#63b8ff" stroke="#63b8ff" points="359.37,-27.5 368.94,-22.94 358.62,-20.54 359.37,-27.5"/>
</a>
</g>
</g>
<!-- Node9&#45;&gt;Node8 -->
<g id="edge9_Node000009_Node000008" class="edge">
<title>Node9&#45;&gt;Node8</title>
<g id="a_edge9_Node000009_Node000008"><a xlink:title=" ">
<path fill="none" stroke="#63b8ff" d="M518.11,-23.18C528.48,-24.33 539.2,-25.52 549.74,-26.69"/>
<polygon fill="#63b8ff" stroke="#63b8ff" points="549.45,-30.18 559.78,-27.81 550.22,-23.23 549.45,-30.18"/>
</a>
</g>
</g>
</g>
</svg>
