<?xml version="1.0" encoding="UTF-8" standalone="no"?>
<!DOCTYPE svg PUBLIC "-//W3C//DTD SVG 1.1//EN"
 "http://www.w3.org/Graphics/SVG/1.1/DTD/svg11.dtd">
<!-- Generated by graphviz version 2.40.1 (20161225.0304)
 -->
<!-- Title: m_derived_variables::s_derive_higher_moments Pages: 1 -->
<svg width="279pt" height="44pt"
 viewBox="0.00 0.00 279.00 44.00" xmlns="http://www.w3.org/2000/svg" xmlns:xlink="http://www.w3.org/1999/xlink">
<g id="graph0" class="graph" transform="scale(1 1) rotate(0) translate(4 40)">
<title>m_derived_variables::s_derive_higher_moments</title>
<polygon fill="#ffffff" stroke="transparent" points="-4,4 -4,-40 275,-40 275,4 -4,4"/>
<!-- Node57 -->
<g id="node1" class="node">
<title>Node57</title>
<polygon fill="#bfbfbf" stroke="#000000" points="0,-5 0,-31 91,-31 91,-5 0,-5"/>
<text text-anchor="start" x="8" y="-20.6" font-family="Helvetica,sans-Serif" font-size="8.00" fill="#000000">m_derived_variables</text>
<text text-anchor="middle" x="45.5" y="-11.6" font-family="Helvetica,sans-Serif" font-size="8.00" fill="#000000">::s_derive_higher_moments</text>
</g>
<!-- Node58 -->
<g id="node2" class="node">
<title>Node58</title>
<g id="a_node2"><a xlink:href="namespacem__derived__variables.html#a516a9808b3446b7b45029f6451d02b3f" target="_top" xlink:title="Writes coherent body information, communication files, and probes. ">
<polygon fill="#ffffff" stroke="#000000" points="127,-.5 127,-35.5 199,-35.5 199,-.5 127,-.5"/>
<text text-anchor="start" x="135" y="-25.1" font-family="Helvetica,sans-Serif" font-size="8.00" fill="#000000">m_derived_variables</text>
<text text-anchor="start" x="135" y="-16.1" font-family="Helvetica,sans-Serif" font-size="8.00" fill="#000000">::s_compute_derived</text>
<text text-anchor="middle" x="163" y="-7.1" font-family="Helvetica,sans-Serif" font-size="8.00" fill="#000000">_variables</text>
</a>
</g>
</g>
<!-- Node57&#45;&gt;Node58 -->
<g id="edge1" class="edge">
<title>Node57&#45;&gt;Node58</title>
<path fill="none" stroke="#191970" d="M101.3993,-18C110.104,-18 118.8924,-18 126.9976,-18"/>
<polygon fill="#191970" stroke="#191970" points="101.2651,-14.5001 91.265,-18 101.265,-21.5001 101.2651,-14.5001"/>
</g>
<!-- Node59 -->
<g id="node3" class="node">
<title>Node59</title>
<g id="a_node3"><a xlink:href="p__main_8f90.html#aeec10ee8e2940c953967da3e374e1579" target="_top" xlink:title="Quasi&#45;conservative, shock&#45; and interface&#45; capturing finite&#45;volume scheme for the multicomponent Navie...">
<polygon fill="#ffffff" stroke="#000000" points="235,-9.5 235,-26.5 271,-26.5 271,-9.5 235,-9.5"/>
<text text-anchor="middle" x="253" y="-16.1" font-family="Helvetica,sans-Serif" font-size="8.00" fill="#000000">p_main</text>
</a>
</g>
</g>
<!-- Node58&#45;&gt;Node59 -->
<g id="edge2" class="edge">
<title>Node58&#45;&gt;Node59</title>
<path fill="none" stroke="#191970" d="M209.3258,-18C218.437,-18 227.4757,-18 234.9461,-18"/>
<polygon fill="#191970" stroke="#191970" points="209.0879,-14.5001 199.0879,-18 209.0878,-21.5001 209.0879,-14.5001"/>
</g>
</g>
</svg>
