<?xml version="1.0" encoding="UTF-8" standalone="no"?>
<!DOCTYPE svg PUBLIC "-//W3C//DTD SVG 1.1//EN"
 "http://www.w3.org/Graphics/SVG/1.1/DTD/svg11.dtd">
<!-- Generated by graphviz version 2.40.1 (20161225.0304)
 -->
<!-- Title: m_weno::s_finalize_weno Pages: 1 -->
<svg width="338pt" height="98pt"
 viewBox="0.00 0.00 338.00 98.00" xmlns="http://www.w3.org/2000/svg" xmlns:xlink="http://www.w3.org/1999/xlink">
<g id="graph0" class="graph" transform="scale(1 1) rotate(0) translate(4 94)">
<title>m_weno::s_finalize_weno</title>
<polygon fill="#ffffff" stroke="transparent" points="-4,4 -4,-94 334,-94 334,4 -4,4"/>
<!-- Node11 -->
<g id="node1" class="node">
<title>Node11</title>
<polygon fill="#bfbfbf" stroke="#000000" points="0,-36.5 0,-53.5 85,-53.5 85,-36.5 0,-36.5"/>
<text text-anchor="middle" x="42.5" y="-43.1" font-family="Helvetica,sans-Serif" font-size="8.00" fill="#000000">m_weno::s_finalize_weno</text>
</g>
<!-- Node12 -->
<g id="node2" class="node">
<title>Node12</title>
<g id="a_node2"><a xlink:href="namespacem__variables__conversion.html#a40712fcf8ac2c0e87d0393bbe1a0b800" target="_top" xlink:title="This subroutine takes care of the conversion between the the conservative variables and the character...">
<polygon fill="#ffffff" stroke="#000000" points="121,-54.5 121,-89.5 210,-89.5 210,-54.5 121,-54.5"/>
<text text-anchor="start" x="129" y="-79.1" font-family="Helvetica,sans-Serif" font-size="8.00" fill="#000000">m_variables_conversion</text>
<text text-anchor="start" x="129" y="-70.1" font-family="Helvetica,sans-Serif" font-size="8.00" fill="#000000">::s_convert_characteristic</text>
<text text-anchor="middle" x="165.5" y="-61.1" font-family="Helvetica,sans-Serif" font-size="8.00" fill="#000000">_to_conservative_variables</text>
</a>
</g>
</g>
<!-- Node11&#45;&gt;Node12 -->
<g id="edge1" class="edge">
<title>Node11&#45;&gt;Node12</title>
<path fill="none" stroke="#191970" d="M81.418,-53.543C90.8139,-55.6055 101.0264,-57.8473 110.9909,-60.0346"/>
<polygon fill="#191970" stroke="#191970" points="110.3154,-63.4696 120.8333,-62.1951 111.8163,-56.6324 110.3154,-63.4696"/>
</g>
<!-- Node15 -->
<g id="node5" class="node">
<title>Node15</title>
<g id="a_node5"><a xlink:href="namespacem__variables__conversion.html#a49df2e65b245cbc006e27663d69e4399" target="_top" xlink:title="This subroutine takes care of the conversion between the the characteristic variables and the primiti...">
<polygon fill="#ffffff" stroke="#000000" points="123,-.5 123,-35.5 208,-35.5 208,-.5 123,-.5"/>
<text text-anchor="start" x="131" y="-25.1" font-family="Helvetica,sans-Serif" font-size="8.00" fill="#000000">m_variables_conversion</text>
<text text-anchor="start" x="131" y="-16.1" font-family="Helvetica,sans-Serif" font-size="8.00" fill="#000000">::s_convert_characteristic</text>
<text text-anchor="middle" x="165.5" y="-7.1" font-family="Helvetica,sans-Serif" font-size="8.00" fill="#000000">_to_primitive_variables</text>
</a>
</g>
</g>
<!-- Node11&#45;&gt;Node15 -->
<g id="edge4" class="edge">
<title>Node11&#45;&gt;Node15</title>
<path fill="none" stroke="#191970" d="M81.418,-36.457C91.4451,-34.256 102.4022,-31.8507 112.9955,-29.5254"/>
<polygon fill="#191970" stroke="#191970" points="113.9812,-32.8924 122.9981,-27.3297 112.4802,-26.0552 113.9812,-32.8924"/>
</g>
<!-- Node13 -->
<g id="node3" class="node">
<title>Node13</title>
<g id="a_node3"><a xlink:href="namespacem__mpi__proxy.html#a04ac565bad2b22dc045a5eeb4f516e2e" target="_top" xlink:title="The subroutine terminates the MPI execution environment. ">
<polygon fill="#ffffff" stroke="#000000" points="252,-59 252,-85 324,-85 324,-59 252,-59"/>
<text text-anchor="start" x="260" y="-74.6" font-family="Helvetica,sans-Serif" font-size="8.00" fill="#000000">m_mpi_proxy::s_mpi</text>
<text text-anchor="middle" x="288" y="-65.6" font-family="Helvetica,sans-Serif" font-size="8.00" fill="#000000">_abort</text>
</a>
</g>
</g>
<!-- Node12&#45;&gt;Node13 -->
<g id="edge2" class="edge">
<title>Node12&#45;&gt;Node13</title>
<path fill="none" stroke="#191970" d="M210.0718,-72C220.3333,-72 231.2708,-72 241.6075,-72"/>
<polygon fill="#191970" stroke="#191970" points="241.6967,-75.5001 251.6966,-72 241.6966,-68.5001 241.6967,-75.5001"/>
</g>
<!-- Node14 -->
<g id="node4" class="node">
<title>Node14</title>
<g id="a_node4"><a xlink:href="namespacem__variables__conversion.html#a81e6ad74f0a2bd1b27a7873dbd797a60" target="_top" xlink:title="Deallocation and/or disassociation procedures that are necessary to finalize the characteristic decom...">
<polygon fill="#ffffff" stroke="#000000" points="246,-2.5 246,-37.5 330,-37.5 330,-2.5 246,-2.5"/>
<text text-anchor="start" x="254" y="-27.1" font-family="Helvetica,sans-Serif" font-size="8.00" fill="#000000">m_variables_conversion</text>
<text text-anchor="start" x="254" y="-18.1" font-family="Helvetica,sans-Serif" font-size="8.00" fill="#000000">::s_finalize_characteristic</text>
<text text-anchor="middle" x="288" y="-9.1" font-family="Helvetica,sans-Serif" font-size="8.00" fill="#000000">_decomposition</text>
</a>
</g>
</g>
<!-- Node12&#45;&gt;Node14 -->
<g id="edge3" class="edge">
<title>Node12&#45;&gt;Node14</title>
<path fill="none" stroke="#191970" d="M206.9729,-54.3952C216.6513,-50.2868 227.0678,-45.8651 237.1025,-41.6055"/>
<polygon fill="#191970" stroke="#191970" points="238.7324,-44.7159 246.5698,-37.5867 235.9972,-38.2724 238.7324,-44.7159"/>
</g>
<!-- Node15&#45;&gt;Node14 -->
<g id="edge5" class="edge">
<title>Node15&#45;&gt;Node14</title>
<path fill="none" stroke="#191970" d="M208.0008,-18.6939C216.9378,-18.8398 226.4642,-18.9953 235.712,-19.1463"/>
<polygon fill="#191970" stroke="#191970" points="235.9326,-22.6503 245.9884,-19.3141 236.0469,-15.6512 235.9326,-22.6503"/>
</g>
</g>
</svg>
