<?xml version="1.0" encoding="UTF-8" standalone="no"?>
<!DOCTYPE svg PUBLIC "-//W3C//DTD SVG 1.1//EN"
 "http://www.w3.org/Graphics/SVG/1.1/DTD/svg11.dtd">
<!-- Generated by graphviz version 2.43.0 (0)
 -->
<!-- Title: m_mpi_common::s_mpi_abort Pages: 1 -->
<!--zoomable 489 -->

<svg id="main" version="1.1" xmlns="http://www.w3.org/2000/svg" xmlns:xlink="http://www.w3.org/1999/xlink" xml:space="preserve" onload="init(evt)">

<style type="text/css"><![CDATA[
.node, .edge {opacity: 0.7;}
.node.selected, .edge.selected {opacity: 1;}
.edge:hover path { stroke: red; }
.edge:hover polygon { stroke: red; fill: red; }
]]></style>

<defs>
  <circle id="rim" cx="0" cy="0" r="7"/>
  <circle id="rim2" cx="0" cy="0" r="3.5"/>
  <g id="zoomPlus">
    <use xlink:href="#rim" fill="#404040"><set attributeName="fill" to="#808080" begin="zoomplus.mouseover" end="zoomplus.mouseout"/></use>
    <path d="M-4,0h8M0,-4v8" fill="none" stroke="white" stroke-width="1.5" pointer-events="none"/>
  </g>
  <g id="zoomMin">
    <use xlink:href="#rim" fill="#404040"><set attributeName="fill" to="#808080" begin="zoomminus.mouseover" end="zoomminus.mouseout"/></use>
    <path d="M-4,0h8" fill="none" stroke="white" stroke-width="1.5" pointer-events="none"/>
  </g>
  <g id="arrowUp" transform="translate(30 24)">
    <use xlink:href="#rim"/>
    <path pointer-events="none" fill="none" stroke="white" stroke-width="1.5" d="M0,-3.0v7 M-2.5,-0.5L0,-3.0L2.5,-0.5"/>
  </g>
  <g id="arrowRight" transform="rotate(90) translate(36 -43)">
    <use xlink:href="#rim"/>
    <path pointer-events="none" fill="none" stroke="white" stroke-width="1.5" d="M0,-3.0v7 M-2.5,-0.5L0,-3.0L2.5,-0.5"/>
  </g>
  <g id="arrowDown" transform="rotate(180) translate(-30 -48)">
    <use xlink:href="#rim"/>
    <path pointer-events="none" fill="none" stroke="white" stroke-width="1.5" d="M0,-3.0v7 M-2.5,-0.5L0,-3.0L2.5,-0.5"/>
  </g>
  <g id="arrowLeft" transform="rotate(270) translate(-36 17)">
    <use xlink:href="#rim"/>
    <path pointer-events="none" fill="none" stroke="white" stroke-width="1.5" d="M0,-3.0v7 M-2.5,-0.5L0,-3.0L2.5,-0.5"/>
  </g>
  <g id="resetDef">
    <use xlink:href="#rim2" fill="#404040"><set attributeName="fill" to="#808080" begin="reset.mouseover" end="reset.mouseout"/></use>
  </g>
</defs>
<script type="application/ecmascript">
var viewWidth = 777;
var viewHeight = 489;
var sectionId = 'dynsection-4';
</script>
<script type="application/ecmascript" xlink:href="svg.min.js"/>
<svg id="graph" class="graph">
<g id="viewport">
<title>m_mpi_common::s_mpi_abort</title>
<!-- Node1 -->
<g id="Node000001" class="node">
<title>Node1</title>
<g id="a_Node000001"><a xlink:title="The subroutine terminates the MPI execution environment.">
<polygon fill="#999999" stroke="#666666" points="769,-241.77 635,-241.77 635,-211.77 769,-211.77 769,-241.77"/>
<text text-anchor="start" x="643" y="-229.77" font-family="Helvetica,sans-Serif" font-size="10.00">m_mpi_common::s_mpi</text>
<text text-anchor="middle" x="702" y="-218.77" font-family="Helvetica,sans-Serif" font-size="10.00">_abort</text>
</a>
</g>
</g>
<!-- Node2 -->
<g id="Node000002" class="node">
<title>Node2</title>
<g id="a_Node000002"><a xlink:href="namespacem__start__up.html#ad26e747c87bb6bcf4c9d6baa21d044c1" target="_top" xlink:title="Validate that all user&#45;provided inputs form a consistent simulation configuration.">
<polygon fill="white" stroke="#666666" points="579,-480.77 463,-480.77 463,-450.77 579,-450.77 579,-480.77"/>
<text text-anchor="start" x="471" y="-468.77" font-family="Helvetica,sans-Serif" font-size="10.00">m_start_up::s_check</text>
<text text-anchor="middle" x="521" y="-457.77" font-family="Helvetica,sans-Serif" font-size="10.00">_input_file</text>
</a>
</g>
</g>
<!-- Node1&#45;&gt;Node2 -->
<g id="edge1_Node000001_Node000002" class="edge">
<title>Node1&#45;&gt;Node2</title>
<g id="a_edge1_Node000001_Node000002"><a xlink:title=" ">
<path fill="none" stroke="#63b8ff" d="M696.03,-251.79C685.84,-296.5 658.37,-390.22 599,-441.77 593.18,-446.82 586.31,-450.81 579.11,-453.95"/>
<polygon fill="#63b8ff" stroke="#63b8ff" points="699.5,-252.3 698.2,-241.79 692.66,-250.81 699.5,-252.3"/>
</a>
</g>
</g>
<!-- Node5 -->
<g id="Node000005" class="node">
<title>Node5</title>
<g id="a_Node000005"><a xlink:href="namespacem__mpi__common.html#afe54fe25c12eda7afe195fbf0fa166fc" target="_top" xlink:title="Decompose the computational domain among processors by balancing cells per rank in each coordinate di...">
<polygon fill="white" stroke="#666666" points="598,-432.27 444,-432.27 444,-391.27 598,-391.27 598,-432.27"/>
<text text-anchor="start" x="452" y="-420.27" font-family="Helvetica,sans-Serif" font-size="10.00">m_mpi_common::s_mpi</text>
<text text-anchor="start" x="452" y="-409.27" font-family="Helvetica,sans-Serif" font-size="10.00">_decompose_computational</text>
<text text-anchor="middle" x="521" y="-398.27" font-family="Helvetica,sans-Serif" font-size="10.00">_domain</text>
</a>
</g>
</g>
<!-- Node1&#45;&gt;Node5 -->
<g id="edge4_Node000001_Node000005" class="edge">
<title>Node1&#45;&gt;Node5</title>
<g id="a_edge4_Node000001_Node000005"><a xlink:title=" ">
<path fill="none" stroke="#63b8ff" d="M690.98,-251.13C675.83,-285.12 644.03,-346.65 599,-382.77 595.1,-385.9 590.83,-388.71 586.36,-391.24"/>
<polygon fill="#63b8ff" stroke="#63b8ff" points="694.2,-252.49 694.97,-241.92 687.78,-249.7 694.2,-252.49"/>
</a>
</g>
</g>
<!-- Node6 -->
<g id="Node000006" class="node">
<title>Node6</title>
<g id="a_Node000006"><a xlink:href="namespacem__mpi__common.html#a8c037ba2780709c25f5f904e47641479" target="_top" xlink:title="The goal of this procedure is to populate the buffers of the cell&#45;average conservative variables by c...">
<polygon fill="white" stroke="#666666" points="588,-373.27 454,-373.27 454,-332.27 588,-332.27 588,-373.27"/>
<text text-anchor="start" x="462" y="-361.27" font-family="Helvetica,sans-Serif" font-size="10.00">m_mpi_common::s_mpi</text>
<text text-anchor="start" x="462" y="-350.27" font-family="Helvetica,sans-Serif" font-size="10.00">_sendrecv_variables</text>
<text text-anchor="middle" x="521" y="-339.27" font-family="Helvetica,sans-Serif" font-size="10.00">_buffers</text>
</a>
</g>
</g>
<!-- Node1&#45;&gt;Node6 -->
<g id="edge5_Node000001_Node000006" class="edge">
<title>Node1&#45;&gt;Node6</title>
<g id="a_edge5_Node000001_Node000006"><a xlink:title=" ">
<path fill="none" stroke="#63b8ff" d="M681.5,-249.61C662.31,-270.91 631.27,-302.39 599,-322.77 593.54,-326.22 587.62,-329.38 581.57,-332.25"/>
<polygon fill="#63b8ff" stroke="#63b8ff" points="684.24,-251.79 688.25,-241.99 679,-247.15 684.24,-251.79"/>
</a>
</g>
</g>
<!-- Node7 -->
<g id="Node000007" class="node">
<title>Node7</title>
<g id="a_Node000007"><a xlink:href="namespacem__particle__cloud.html#aea3cd46bacb79079dcadca54a42b5150" target="_top" xlink:title="Generates a random distributions of particles in a box with a minimum spacing.">
<polygon fill="white" stroke="#666666" points="599,-121.77 443,-121.77 443,-91.77 599,-91.77 599,-121.77"/>
<text text-anchor="start" x="451" y="-109.77" font-family="Helvetica,sans-Serif" font-size="10.00">m_particle_cloud::s</text>
<text text-anchor="middle" x="521" y="-98.77" font-family="Helvetica,sans-Serif" font-size="10.00">_particle_cloud_random_box</text>
</a>
</g>
</g>
<!-- Node1&#45;&gt;Node7 -->
<g id="edge6_Node000001_Node000007" class="edge">
<title>Node1&#45;&gt;Node7</title>
<g id="a_edge6_Node000001_Node000007"><a xlink:title=" ">
<path fill="none" stroke="#63b8ff" d="M682.13,-203.79C663.19,-182.11 632.14,-150.13 599,-130.77 593.2,-127.38 586.86,-124.42 580.4,-121.84"/>
<polygon fill="#63b8ff" stroke="#63b8ff" points="679.61,-206.23 688.77,-211.54 684.93,-201.67 679.61,-206.23"/>
</a>
</g>
</g>
<!-- Node10 -->
<g id="Node000010" class="node">
<title>Node10</title>
<g id="a_Node000010"><a xlink:href="namespacem__start__up.html#ae28835629de9baa7fd546672a0add0e5" target="_top" xlink:title="Advance the simulation by one time step, handling CFL&#45;based dt and time&#45;stepper dispatch.">
<polygon fill="white" stroke="#666666" points="221.5,-83.77 94.5,-83.77 94.5,-53.77 221.5,-53.77 221.5,-83.77"/>
<text text-anchor="start" x="102.5" y="-71.77" font-family="Helvetica,sans-Serif" font-size="10.00">m_start_up::s_perform</text>
<text text-anchor="middle" x="158" y="-60.77" font-family="Helvetica,sans-Serif" font-size="10.00">_time_step</text>
</a>
</g>
</g>
<!-- Node1&#45;&gt;Node10 -->
<g id="edge10_Node000001_Node000010" class="edge">
<title>Node1&#45;&gt;Node10</title>
<g id="a_edge10_Node000001_Node000010"><a xlink:title=" ">
<path fill="none" stroke="#63b8ff" d="M691.65,-201.79C677.46,-167.87 646.93,-108.53 599,-82.77 535.63,-48.71 327.53,-57.17 221.83,-64.04"/>
<polygon fill="#63b8ff" stroke="#63b8ff" points="688.55,-203.46 695.53,-211.43 695.05,-200.85 688.55,-203.46"/>
</a>
</g>
</g>
<!-- Node11 -->
<g id="Node000011" class="node">
<title>Node11</title>
<g id="a_Node000011"><a xlink:href="namespacem__mpi__common.html#a4d03f5fc95657b6bec1f89221295b0cc" target="_top" xlink:title="Print a case file error with the prohibited condition and message, then abort execution.">
<polygon fill="white" stroke="#666666" points="597,-217.77 445,-217.77 445,-187.77 597,-187.77 597,-217.77"/>
<text text-anchor="start" x="453" y="-205.77" font-family="Helvetica,sans-Serif" font-size="10.00">m_mpi_common::s_prohibit</text>
<text text-anchor="middle" x="521" y="-194.77" font-family="Helvetica,sans-Serif" font-size="10.00">_abort</text>
</a>
</g>
</g>
<!-- Node1&#45;&gt;Node11 -->
<g id="edge12_Node000001_Node000011" class="edge">
<title>Node1&#45;&gt;Node11</title>
<g id="a_edge12_Node000001_Node000011"><a xlink:title=" ">
<path fill="none" stroke="#63b8ff" d="M624.69,-216.54C615.59,-215.32 606.31,-214.07 597.23,-212.86"/>
<polygon fill="#63b8ff" stroke="#63b8ff" points="624.48,-220.04 634.86,-217.9 625.41,-213.1 624.48,-220.04"/>
</a>
</g>
</g>
<!-- Node12 -->
<g id="Node000012" class="node">
<title>Node12</title>
<g id="a_Node000012"><a xlink:href="namespacem__start__up.html#aca5460fc186e7b82ea78484ae98c74a4" target="_top" xlink:title="Verify the input file exists and read it.">
<polygon fill="white" stroke="#666666" points="576,-313.77 466,-313.77 466,-283.77 576,-283.77 576,-313.77"/>
<text text-anchor="start" x="474" y="-301.77" font-family="Helvetica,sans-Serif" font-size="10.00">m_start_up::s_read</text>
<text text-anchor="middle" x="521" y="-290.77" font-family="Helvetica,sans-Serif" font-size="10.00">_input_file</text>
</a>
</g>
</g>
<!-- Node1&#45;&gt;Node12 -->
<g id="edge13_Node000001_Node000012" class="edge">
<title>Node1&#45;&gt;Node12</title>
<g id="a_edge13_Node000001_Node000012"><a xlink:title=" ">
<path fill="none" stroke="#63b8ff" d="M662.41,-246.47C643.56,-255.69 620.38,-266.45 599,-274.77 590.91,-277.92 582.22,-280.95 573.7,-283.73"/>
<polygon fill="#63b8ff" stroke="#63b8ff" points="664.15,-249.51 671.57,-241.94 661.05,-243.23 664.15,-249.51"/>
</a>
</g>
</g>
<!-- Node13 -->
<g id="Node000013" class="node">
<title>Node13</title>
<g id="a_Node000013"><a xlink:href="namespacem__start__up.html#a3226ddf0c64cff078579641fda52781d" target="_top" xlink:title="Read parallel initial condition and grid data files via MPI I/O.">
<polygon fill="white" stroke="#666666" points="576.5,-265.77 465.5,-265.77 465.5,-235.77 576.5,-235.77 576.5,-265.77"/>
<text text-anchor="start" x="473.5" y="-253.77" font-family="Helvetica,sans-Serif" font-size="10.00">m_start_up::s_read</text>
<text text-anchor="middle" x="521" y="-242.77" font-family="Helvetica,sans-Serif" font-size="10.00">_parallel_data_files</text>
</a>
</g>
</g>
<!-- Node1&#45;&gt;Node13 -->
<g id="edge15_Node000001_Node000013" class="edge">
<title>Node1&#45;&gt;Node13</title>
<g id="a_edge15_Node000001_Node000013"><a xlink:title=" ">
<path fill="none" stroke="#63b8ff" d="M624.88,-236.98C608.7,-239.14 591.93,-241.39 576.74,-243.43"/>
<polygon fill="#63b8ff" stroke="#63b8ff" points="625.41,-240.44 634.86,-235.64 624.48,-233.5 625.41,-240.44"/>
</a>
</g>
</g>
<!-- Node15 -->
<g id="Node000015" class="node">
<title>Node15</title>
<g id="a_Node000015"><a xlink:href="namespacem__start__up.html#a1bf604b2afd7b81737153114d92e7c80" target="_top" xlink:title="Read serial initial condition and grid data files and compute cell&#45;width distributions.">
<polygon fill="white" stroke="#666666" points="576,-169.77 466,-169.77 466,-139.77 576,-139.77 576,-169.77"/>
<text text-anchor="start" x="474" y="-157.77" font-family="Helvetica,sans-Serif" font-size="10.00">m_start_up::s_read</text>
<text text-anchor="middle" x="521" y="-146.77" font-family="Helvetica,sans-Serif" font-size="10.00">_serial_data_files</text>
</a>
</g>
</g>
<!-- Node1&#45;&gt;Node15 -->
<g id="edge18_Node000001_Node000015" class="edge">
<title>Node1&#45;&gt;Node15</title>
<g id="a_edge18_Node000001_Node000015"><a xlink:title=" ">
<path fill="none" stroke="#63b8ff" d="M662.41,-207.07C643.56,-197.85 620.38,-187.09 599,-178.77 590.91,-175.62 582.22,-172.59 573.7,-169.81"/>
<polygon fill="#63b8ff" stroke="#63b8ff" points="661.05,-210.3 671.57,-211.6 664.15,-204.03 661.05,-210.3"/>
</a>
</g>
</g>
<!-- Node16 -->
<g id="Node000016" class="node">
<title>Node16</title>
<g id="a_Node000016"><a xlink:href="namespacem__start__up.html#a47ade6ffcd98aafcccf10910f626142d" target="_top" xlink:title="Save conservative variable data to disk at the current time step.">
<polygon fill="white" stroke="#666666" points="227,-35.27 89,-35.27 89,-16.27 227,-16.27 227,-35.27"/>
<text text-anchor="middle" x="158" y="-23.27" font-family="Helvetica,sans-Serif" font-size="10.00">m_start_up::s_save_data</text>
</a>
</g>
</g>
<!-- Node1&#45;&gt;Node16 -->
<g id="edge20_Node000001_Node000016" class="edge">
<title>Node1&#45;&gt;Node16</title>
<g id="a_edge20_Node000001_Node000016"><a xlink:title=" ">
<path fill="none" stroke="#63b8ff" d="M694.29,-201.66C682.37,-162.57 653.49,-88.23 599,-54.77 472.76,22.74 285.98,-0.35 202.3,-16.25"/>
<polygon fill="#63b8ff" stroke="#63b8ff" points="691.05,-203.06 697.21,-211.68 697.77,-201.1 691.05,-203.06"/>
</a>
</g>
</g>
<!-- Node3 -->
<g id="Node000003" class="node">
<title>Node3</title>
<g id="a_Node000003"><a xlink:href="namespacem__start__up.html#ab64542f13c680e17ce8879c77c65c0e0" target="_top" xlink:title="Set up the MPI execution environment, bind GPUs, and decompose the computational domain.">
<polygon fill="white" stroke="#666666" points="400,-313.77 270,-313.77 270,-283.77 400,-283.77 400,-313.77"/>
<text text-anchor="start" x="278" y="-301.77" font-family="Helvetica,sans-Serif" font-size="10.00">m_start_up::s_initialize</text>
<text text-anchor="middle" x="335" y="-290.77" font-family="Helvetica,sans-Serif" font-size="10.00">_mpi_domain</text>
</a>
</g>
</g>
<!-- Node2&#45;&gt;Node3 -->
<g id="edge2_Node000002_Node000003" class="edge">
<title>Node2&#45;&gt;Node3</title>
<g id="a_edge2_Node000002_Node000003"><a xlink:title=" ">
<path fill="none" stroke="#63b8ff" d="M453.87,-448.31C450.07,-446.35 446.41,-444.18 443,-441.77 394.13,-407.23 358.13,-343.49 343.37,-314.21"/>
<polygon fill="#63b8ff" stroke="#63b8ff" points="452.42,-451.5 462.97,-452.51 455.35,-445.14 452.42,-451.5"/>
</a>
</g>
</g>
<!-- Node4 -->
<g id="Node000004" class="node">
<title>Node4</title>
<g id="a_Node000004"><a xlink:href="p__main_8fpp_8f90.html#aeec10ee8e2940c953967da3e374e1579" target="_top" xlink:title="Quasi&#45;conservative, shock&#45; and interface&#45; capturing finite&#45;volume scheme for the multicomponent Navie...">
<polygon fill="white" stroke="#666666" points="53,-102.27 0,-102.27 0,-83.27 53,-83.27 53,-102.27"/>
<text text-anchor="middle" x="26.5" y="-90.27" font-family="Helvetica,sans-Serif" font-size="10.00">p_main</text>
</a>
</g>
</g>
<!-- Node3&#45;&gt;Node4 -->
<g id="edge3_Node000003_Node000004" class="edge">
<title>Node3&#45;&gt;Node4</title>
<g id="a_edge3_Node000003_Node000004"><a xlink:title=" ">
<path fill="none" stroke="#63b8ff" d="M300.1,-278.25C252.23,-248.97 162.45,-192.96 89,-140.77 71.11,-128.06 51.24,-112.22 39.05,-102.29"/>
<polygon fill="#63b8ff" stroke="#63b8ff" points="298.46,-281.35 308.82,-283.57 302.11,-275.37 298.46,-281.35"/>
</a>
</g>
</g>
<!-- Node8 -->
<g id="Node000008" class="node">
<title>Node8</title>
<g id="a_Node000008"><a xlink:href="namespacem__particle__cloud.html#a2feae0e06656f459f3d1a43d00b3102d" target="_top" xlink:title="Generate all particle beds and fill particle_cloud_ibs. Called on all ranks before s_reduce_ib_patch_...">
<polygon fill="white" stroke="#666666" points="407,-121.77 263,-121.77 263,-91.77 407,-91.77 407,-121.77"/>
<text text-anchor="start" x="271" y="-109.77" font-family="Helvetica,sans-Serif" font-size="10.00">m_particle_cloud::s</text>
<text text-anchor="middle" x="335" y="-98.77" font-family="Helvetica,sans-Serif" font-size="10.00">_generate_particle_clouds</text>
</a>
</g>
</g>
<!-- Node7&#45;&gt;Node8 -->
<g id="edge7_Node000007_Node000008" class="edge">
<title>Node7&#45;&gt;Node8</title>
<g id="a_edge7_Node000007_Node000008"><a xlink:title=" ">
<path fill="none" stroke="#63b8ff" d="M432.75,-106.77C424.18,-106.77 415.55,-106.77 407.17,-106.77"/>
<polygon fill="#63b8ff" stroke="#63b8ff" points="432.77,-110.27 442.77,-106.77 432.77,-103.27 432.77,-110.27"/>
</a>
</g>
</g>
<!-- Node9 -->
<g id="Node000009" class="node">
<title>Node9</title>
<g id="a_Node000009"><a xlink:href="namespacem__start__up.html#a1fb7a3f9d412acd2a9cbcfe8b45006dd" target="_top" xlink:title="Initialize all simulation sub&#45;modules in the required dependency order.">
<polygon fill="white" stroke="#666666" points="223,-131.77 93,-131.77 93,-101.77 223,-101.77 223,-131.77"/>
<text text-anchor="start" x="101" y="-119.77" font-family="Helvetica,sans-Serif" font-size="10.00">m_start_up::s_initialize</text>
<text text-anchor="middle" x="158" y="-108.77" font-family="Helvetica,sans-Serif" font-size="10.00">_modules</text>
</a>
</g>
</g>
<!-- Node8&#45;&gt;Node9 -->
<g id="edge8_Node000008_Node000009" class="edge">
<title>Node8&#45;&gt;Node9</title>
<g id="a_edge8_Node000008_Node000009"><a xlink:title=" ">
<path fill="none" stroke="#63b8ff" d="M252.57,-111.42C242.67,-111.99 232.67,-112.56 223.08,-113.11"/>
<polygon fill="#63b8ff" stroke="#63b8ff" points="253.04,-114.9 262.82,-110.84 252.64,-107.91 253.04,-114.9"/>
</a>
</g>
</g>
<!-- Node9&#45;&gt;Node4 -->
<g id="edge9_Node000009_Node000004" class="edge">
<title>Node9&#45;&gt;Node4</title>
<g id="a_edge9_Node000009_Node000004"><a xlink:title=" ">
<path fill="none" stroke="#63b8ff" d="M82.52,-102.97C72.04,-101.02 61.91,-99.15 53.26,-97.54"/>
<polygon fill="#63b8ff" stroke="#63b8ff" points="82.16,-106.46 92.63,-104.84 83.43,-99.58 82.16,-106.46"/>
</a>
</g>
</g>
<!-- Node10&#45;&gt;Node4 -->
<g id="edge11_Node000010_Node000004" class="edge">
<title>Node10&#45;&gt;Node4</title>
<g id="a_edge11_Node000010_Node000004"><a xlink:title=" ">
<path fill="none" stroke="#63b8ff" d="M84.26,-82.25C73.07,-84.32 62.2,-86.34 53.02,-88.04"/>
<polygon fill="#63b8ff" stroke="#63b8ff" points="84.95,-85.68 94.15,-80.42 83.68,-78.8 84.95,-85.68"/>
</a>
</g>
</g>
<!-- Node12&#45;&gt;Node3 -->
<g id="edge14_Node000012_Node000003" class="edge">
<title>Node12&#45;&gt;Node3</title>
<g id="a_edge14_Node000012_Node000003"><a xlink:title=" ">
<path fill="none" stroke="#63b8ff" d="M455.7,-298.77C437.72,-298.77 418.18,-298.77 400.21,-298.77"/>
<polygon fill="#63b8ff" stroke="#63b8ff" points="455.79,-302.27 465.79,-298.77 455.79,-295.27 455.79,-302.27"/>
</a>
</g>
</g>
<!-- Node14 -->
<g id="Node000014" class="node">
<title>Node14</title>
<g id="a_Node000014"><a xlink:href="namespacem__start__up.html#a25f79bc2aae3d0302d4a97247d84f92a" target="_top" xlink:title="Read data files. Dispatch subroutine that replaces procedure pointer.">
<polygon fill="white" stroke="#666666" points="390,-169.77 280,-169.77 280,-139.77 390,-139.77 390,-169.77"/>
<text text-anchor="start" x="288" y="-157.77" font-family="Helvetica,sans-Serif" font-size="10.00">m_start_up::s_read</text>
<text text-anchor="middle" x="335" y="-146.77" font-family="Helvetica,sans-Serif" font-size="10.00">_data_files</text>
</a>
</g>
</g>
<!-- Node13&#45;&gt;Node14 -->
<g id="edge16_Node000013_Node000014" class="edge">
<title>Node13&#45;&gt;Node14</title>
<g id="a_edge16_Node000013_Node000014"><a xlink:title=" ">
<path fill="none" stroke="#63b8ff" d="M455.74,-232.31C451.37,-230.58 447.09,-228.73 443,-226.77 409.89,-210.89 375.29,-185.81 354.7,-169.83"/>
<polygon fill="#63b8ff" stroke="#63b8ff" points="454.8,-235.7 465.39,-235.92 457.25,-229.14 454.8,-235.7"/>
</a>
</g>
</g>
<!-- Node14&#45;&gt;Node9 -->
<g id="edge17_Node000014_Node000009" class="edge">
<title>Node14&#45;&gt;Node9</title>
<g id="a_edge17_Node000014_Node000009"><a xlink:title=" ">
<path fill="none" stroke="#63b8ff" d="M269.77,-140.82C254.58,-137.52 238.39,-134.01 223.2,-130.71"/>
<polygon fill="#63b8ff" stroke="#63b8ff" points="269.07,-144.25 279.59,-142.95 270.56,-137.41 269.07,-144.25"/>
</a>
</g>
</g>
<!-- Node15&#45;&gt;Node14 -->
<g id="edge19_Node000015_Node000014" class="edge">
<title>Node15&#45;&gt;Node14</title>
<g id="a_edge19_Node000015_Node000014"><a xlink:title=" ">
<path fill="none" stroke="#63b8ff" d="M455.51,-154.77C434.16,-154.77 410.63,-154.77 390.14,-154.77"/>
<polygon fill="#63b8ff" stroke="#63b8ff" points="455.79,-158.27 465.79,-154.77 455.79,-151.27 455.79,-158.27"/>
</a>
</g>
</g>
<!-- Node16&#45;&gt;Node4 -->
<g id="edge21_Node000016_Node000004" class="edge">
<title>Node16&#45;&gt;Node4</title>
<g id="a_edge21_Node000016_Node000004"><a xlink:title=" ">
<path fill="none" stroke="#63b8ff" d="M103.54,-38.53C98.52,-40.37 93.6,-42.45 89,-44.77 68.93,-54.9 49.03,-72.08 37.52,-82.9"/>
<polygon fill="#63b8ff" stroke="#63b8ff" points="104.88,-41.77 113.24,-35.27 102.65,-35.14 104.88,-41.77"/>
</a>
</g>
</g>
</g>
</svg>

<g id="navigator" transform="translate(0 0)" fill="#404254">
  <rect fill="#f2f5e9" fill-opacity="0.5" stroke="#606060" stroke-width=".5" x="0" y="0" width="60" height="60"/>
  <use id="zoomplus" xlink:href="#zoomPlus" x="17" y="9" onmousedown="handleZoom(evt,'in')"/>
  <use id="zoomminus" xlink:href="#zoomMin" x="42" y="9" onmousedown="handleZoom(evt,'out')"/>
  <use id="reset" xlink:href="#resetDef" x="30" y="36" onmousedown="handleReset()"/>
   <use id="arrowup" xlink:href="#arrowUp" x="0" y="0" onmousedown="handlePan(0,-1)"/>
  <use id="arrowright" xlink:href="#arrowRight" x="0" y="0" onmousedown="handlePan(1,0)"/>
  <use id="arrowdown" xlink:href="#arrowDown" x="0" y="0" onmousedown="handlePan(0,1)"/>
  <use id="arrowleft" xlink:href="#arrowLeft" x="0" y="0" onmousedown="handlePan(-1,0)"/>
</g>
<svg viewBox="0 0 15 15" width="100%" height="30px" preserveAspectRatio="xMaxYMin meet">
 <g id="arrow_out" transform="scale(0.3 0.3)">
  <a xlink:href="namespacem__mpi__common_a04cfc0bdb377a0ce2f9fd478e4bb3807_icgraph_org.svg" target="_base">
   <rect id="button" ry="5" rx="5" y="6" x="6" height="38" width="38"
        fill="#f2f5e9" fill-opacity="0.5" stroke="#606060" stroke-width="1.0"/>
   <path id="arrow"
     d="M 11.500037,31.436501 C 11.940474,20.09759 22.043105,11.32322 32.158766,21.979434 L 37.068811,17.246167 C 37.068811,17.246167 37.088388,32 37.088388,32 L 22.160133,31.978069 C 22.160133,31.978069 26.997745,27.140456 26.997745,27.140456 C 18.528582,18.264221 13.291696,25.230495 11.500037,31.436501 z"
     style="fill:#404040;"/>
  </a>
 </g>
</svg>

<style type='text/css'>
<![CDATA[
[data-mouse-over-selected='false'] { opacity: 0.7; }
[data-mouse-over-selected='true']  { opacity: 1.0; }
]]>
</style>
<script type="application/ecmascript"><![CDATA[
document.addEventListener('DOMContentLoaded', (event) => {
  highlightEdges();
  highlightAdjacentNodes();
});
]]></script>
</svg>
