<?xml version="1.0" encoding="UTF-8" standalone="no"?>
<!DOCTYPE svg PUBLIC "-//W3C//DTD SVG 1.1//EN"
 "http://www.w3.org/Graphics/SVG/1.1/DTD/svg11.dtd">
<!-- Generated by graphviz version 2.43.0 (0)
 -->
<!-- Title: m_helper_basic::f_approx_equal Pages: 1 -->
<!--zoomable 987 -->

<svg id="main" version="1.1" xmlns="http://www.w3.org/2000/svg" xmlns:xlink="http://www.w3.org/1999/xlink" xml:space="preserve" onload="init(evt)">

<style type="text/css"><![CDATA[
.node, .edge {opacity: 0.7;}
.node.selected, .edge.selected {opacity: 1;}
.edge:hover path { stroke: red; }
.edge:hover polygon { stroke: red; fill: red; }
]]></style>

<defs>
  <circle id="rim" cx="0" cy="0" r="7"/>
  <circle id="rim2" cx="0" cy="0" r="3.5"/>
  <g id="zoomPlus">
    <use xlink:href="#rim" fill="#404040"><set attributeName="fill" to="#808080" begin="zoomplus.mouseover" end="zoomplus.mouseout"/></use>
    <path d="M-4,0h8M0,-4v8" fill="none" stroke="white" stroke-width="1.5" pointer-events="none"/>
  </g>
  <g id="zoomMin">
    <use xlink:href="#rim" fill="#404040"><set attributeName="fill" to="#808080" begin="zoomminus.mouseover" end="zoomminus.mouseout"/></use>
    <path d="M-4,0h8" fill="none" stroke="white" stroke-width="1.5" pointer-events="none"/>
  </g>
  <g id="arrowUp" transform="translate(30 24)">
    <use xlink:href="#rim"/>
    <path pointer-events="none" fill="none" stroke="white" stroke-width="1.5" d="M0,-3.0v7 M-2.5,-0.5L0,-3.0L2.5,-0.5"/>
  </g>
  <g id="arrowRight" transform="rotate(90) translate(36 -43)">
    <use xlink:href="#rim"/>
    <path pointer-events="none" fill="none" stroke="white" stroke-width="1.5" d="M0,-3.0v7 M-2.5,-0.5L0,-3.0L2.5,-0.5"/>
  </g>
  <g id="arrowDown" transform="rotate(180) translate(-30 -48)">
    <use xlink:href="#rim"/>
    <path pointer-events="none" fill="none" stroke="white" stroke-width="1.5" d="M0,-3.0v7 M-2.5,-0.5L0,-3.0L2.5,-0.5"/>
  </g>
  <g id="arrowLeft" transform="rotate(270) translate(-36 17)">
    <use xlink:href="#rim"/>
    <path pointer-events="none" fill="none" stroke="white" stroke-width="1.5" d="M0,-3.0v7 M-2.5,-0.5L0,-3.0L2.5,-0.5"/>
  </g>
  <g id="resetDef">
    <use xlink:href="#rim2" fill="#404040"><set attributeName="fill" to="#808080" begin="reset.mouseover" end="reset.mouseout"/></use>
  </g>
</defs>
<script type="application/ecmascript">
var viewWidth = 1036;
var viewHeight = 987;
var sectionId = 'dynsection-1';
</script>
<script type="application/ecmascript" xlink:href="svg.min.js"/>
<svg id="graph" class="graph">
<g id="viewport">
<title>m_helper_basic::f_approx_equal</title>
<!-- Node1 -->
<g id="Node000001" class="node">
<title>Node1</title>
<g id="a_Node000001"><a xlink:title="This procedure checks if two floating point numbers of wp are within tolerance.">
<polygon fill="#999999" stroke="#666666" points="1028,-377 886,-377 886,-347 1028,-347 1028,-377"/>
<text text-anchor="start" x="894" y="-365" font-family="Helvetica,sans-Serif" font-size="10.00">m_helper_basic::f_approx</text>
<text text-anchor="middle" x="957" y="-354" font-family="Helvetica,sans-Serif" font-size="10.00">_equal</text>
</a>
</g>
</g>
<!-- Node2 -->
<g id="Node000002" class="node">
<title>Node2</title>
<g id="a_Node000002"><a xlink:href="namespacem__helper__basic.html#a388ce5b49cbc696a303c4b90bc391dce" target="_top" xlink:title="This procedure checks if the point numbers of wp belongs to another array are within tolerance.">
<polygon fill="white" stroke="#666666" points="850,-979 708,-979 708,-949 850,-949 850,-979"/>
<text text-anchor="start" x="716" y="-967" font-family="Helvetica,sans-Serif" font-size="10.00">m_helper_basic::f_approx</text>
<text text-anchor="middle" x="779" y="-956" font-family="Helvetica,sans-Serif" font-size="10.00">_in_array</text>
</a>
</g>
</g>
<!-- Node1&#45;&gt;Node2 -->
<g id="edge1_Node000001_Node000002" class="edge">
<title>Node1&#45;&gt;Node2</title>
<g id="a_edge1_Node000001_Node000002"><a xlink:title=" ">
<path fill="none" stroke="#63b8ff" d="M954.5,-387.02C948.1,-485.91 920.17,-848.31 850,-935 845.45,-940.62 839.62,-945.17 833.28,-948.84"/>
<polygon fill="#63b8ff" stroke="#63b8ff" points="957.99,-387.24 955.13,-377.04 951,-386.8 957.99,-387.24"/>
</a>
</g>
</g>
<!-- Node3 -->
<g id="Node000003" class="node">
<title>Node3</title>
<g id="a_Node000003"><a xlink:href="namespacem__helper__basic.html#af1b06a05daa43f724ac3b0ff2f97db14" target="_top" xlink:title="Checks if a real(wp) variable is of default value.">
<polygon fill="white" stroke="#666666" points="837,-671 721,-671 721,-641 837,-641 837,-671"/>
<text text-anchor="start" x="729" y="-659" font-family="Helvetica,sans-Serif" font-size="10.00">m_helper_basic::f_is</text>
<text text-anchor="middle" x="779" y="-648" font-family="Helvetica,sans-Serif" font-size="10.00">_default</text>
</a>
</g>
</g>
<!-- Node1&#45;&gt;Node3 -->
<g id="edge2_Node000001_Node000003" class="edge">
<title>Node1&#45;&gt;Node3</title>
<g id="a_edge2_Node000001_Node000003"><a xlink:title=" ">
<path fill="none" stroke="#63b8ff" d="M941.44,-386.33C906.33,-444.97 817.81,-592.85 789.12,-640.76"/>
<polygon fill="#63b8ff" stroke="#63b8ff" points="944.65,-387.77 946.79,-377.39 938.65,-384.18 944.65,-387.77"/>
</a>
</g>
</g>
<!-- Node7 -->
<g id="Node000007" class="node">
<title>Node7</title>
<g id="a_Node000007"><a xlink:href="namespacem__bubbles.html#a7be720440d2181f83a799ae0d9f610e7" target="_top" xlink:title="Integrate bubble variables over the given time step size, h, using a third&#45;order accurate embedded Ru...">
<polygon fill="white" stroke="#666666" points="318,-892 190,-892 190,-862 318,-862 318,-892"/>
<text text-anchor="start" x="198" y="-880" font-family="Helvetica,sans-Serif" font-size="10.00">m_bubbles::s_advance</text>
<text text-anchor="middle" x="254" y="-869" font-family="Helvetica,sans-Serif" font-size="10.00">_substep</text>
</a>
</g>
</g>
<!-- Node1&#45;&gt;Node7 -->
<g id="edge29_Node000001_Node000007" class="edge">
<title>Node1&#45;&gt;Node7</title>
<g id="a_edge29_Node000001_Node000007"><a xlink:title=" ">
<path fill="none" stroke="#63b8ff" d="M952.06,-387.34C936.57,-476.65 870.66,-776.1 672,-864 555.75,-915.43 402.91,-902.46 318.28,-889.21"/>
<polygon fill="#63b8ff" stroke="#63b8ff" points="955.54,-387.73 953.74,-377.29 948.64,-386.58 955.54,-387.73"/>
</a>
</g>
</g>
<!-- Node8 -->
<g id="Node000008" class="node">
<title>Node8</title>
<g id="a_Node000008"><a xlink:href="namespacem__bubbles.html#aa3f121904646f4ccb1d1ecd65b634643" target="_top" xlink:title="Adaptive time stepping routine for subgrid bubbles (See Heirer, E. Hairer S.P.Nørsett G....">
<polygon fill="white" stroke="#666666" points="154,-886.5 0,-886.5 0,-867.5 154,-867.5 154,-886.5"/>
<text text-anchor="middle" x="77" y="-874.5" font-family="Helvetica,sans-Serif" font-size="10.00">m_bubbles::s_advance_step</text>
</a>
</g>
</g>
<!-- Node1&#45;&gt;Node8 -->
<g id="edge28_Node000001_Node000008" class="edge">
<title>Node1&#45;&gt;Node8</title>
<g id="a_edge28_Node000001_Node000008"><a xlink:title=" ">
<path fill="none" stroke="#63b8ff" d="M955.75,-387.28C953.87,-456.56 940.36,-652.72 850,-779 774.97,-883.86 725.94,-921 597,-921 597,-921 597,-921 418,-921 316.28,-921 290.59,-916.13 190,-901 165.42,-897.3 138.14,-891.49 116.66,-886.52"/>
<polygon fill="#63b8ff" stroke="#63b8ff" points="959.25,-387.35 955.96,-377.28 952.25,-387.2 959.25,-387.35"/>
</a>
</g>
</g>
<!-- Node19 -->
<g id="Node000019" class="node">
<title>Node19</title>
<g id="a_Node000019"><a xlink:href="namespacem__helper__basic.html#a2c677da1905f9b1c52e69ae431bfb70d" target="_top" xlink:title="Checks if a real(wp) variable is an integer.">
<polygon fill="white" stroke="#666666" points="837,-78 721,-78 721,-48 837,-48 837,-78"/>
<text text-anchor="start" x="729" y="-66" font-family="Helvetica,sans-Serif" font-size="10.00">m_helper_basic::f_is</text>
<text text-anchor="middle" x="779" y="-55" font-family="Helvetica,sans-Serif" font-size="10.00">_integer</text>
</a>
</g>
</g>
<!-- Node1&#45;&gt;Node19 -->
<g id="edge25_Node000001_Node000019" class="edge">
<title>Node1&#45;&gt;Node19</title>
<g id="a_edge25_Node000001_Node000019"><a xlink:title=" ">
<path fill="none" stroke="#63b8ff" d="M952.78,-336.86C944.8,-284.51 919.49,-162.8 850,-92 844.47,-86.37 837.69,-81.78 830.54,-78.06"/>
<polygon fill="#63b8ff" stroke="#63b8ff" points="949.34,-337.53 954.23,-346.93 956.27,-336.54 949.34,-337.53"/>
</a>
</g>
</g>
<!-- Node20 -->
<g id="Node000020" class="node">
<title>Node20</title>
<g id="a_Node000020"><a xlink:href="namespacem__compute__levelset.html#a3ff380d300740c07958ccfed4129487f" target="_top" xlink:title=" ">
<polygon fill="white" stroke="#666666" points="657.5,-126 534.5,-126 534.5,-96 657.5,-96 657.5,-126"/>
<text text-anchor="start" x="542.5" y="-114" font-family="Helvetica,sans-Serif" font-size="10.00">m_compute_levelset</text>
<text text-anchor="middle" x="596" y="-103" font-family="Helvetica,sans-Serif" font-size="10.00">::s_3d_airfoil_levelset</text>
</a>
</g>
</g>
<!-- Node1&#45;&gt;Node20 -->
<g id="edge26_Node000001_Node000020" class="edge">
<title>Node1&#45;&gt;Node20</title>
<g id="a_edge26_Node000001_Node000020"><a xlink:title=" ">
<path fill="none" stroke="#63b8ff" d="M953.22,-337.03C946.16,-286.99 922.64,-174.99 850,-125 793.74,-86.28 712.67,-89.38 657.57,-97.81"/>
<polygon fill="#63b8ff" stroke="#63b8ff" points="949.75,-337.53 954.52,-346.99 956.69,-336.62 949.75,-337.53"/>
</a>
</g>
</g>
<!-- Node21 -->
<g id="Node000021" class="node">
<title>Node21</title>
<g id="a_Node000021"><a xlink:href="namespacem__compute__levelset.html#ac351a68ea5a6b69258fd3b41cdc47f67" target="_top" xlink:title=" ">
<polygon fill="white" stroke="#666666" points="655.5,-465 536.5,-465 536.5,-435 655.5,-435 655.5,-465"/>
<text text-anchor="start" x="544.5" y="-453" font-family="Helvetica,sans-Serif" font-size="10.00">m_compute_levelset</text>
<text text-anchor="middle" x="596" y="-442" font-family="Helvetica,sans-Serif" font-size="10.00">::s_airfoil_levelset</text>
</a>
</g>
</g>
<!-- Node1&#45;&gt;Node21 -->
<g id="edge30_Node000001_Node000021" class="edge">
<title>Node1&#45;&gt;Node21</title>
<g id="a_edge30_Node000001_Node000021"><a xlink:title=" ">
<path fill="none" stroke="#63b8ff" d="M910.32,-380.64C891.82,-387.71 870.11,-395.39 850,-401 784.39,-419.3 707.33,-433.16 655.65,-441.39"/>
<polygon fill="#63b8ff" stroke="#63b8ff" points="911.62,-383.89 919.68,-377.01 909.1,-377.36 911.62,-383.89"/>
</a>
</g>
</g>
<!-- Node22 -->
<g id="Node000022" class="node">
<title>Node22</title>
<g id="a_Node000022"><a xlink:href="namespacem__compute__levelset.html#adcc4647bb4d72ef974db37f95156ca37" target="_top" xlink:title=" ">
<polygon fill="white" stroke="#666666" points="655.5,-417 536.5,-417 536.5,-387 655.5,-387 655.5,-417"/>
<text text-anchor="start" x="544.5" y="-405" font-family="Helvetica,sans-Serif" font-size="10.00">m_compute_levelset</text>
<text text-anchor="middle" x="596" y="-394" font-family="Helvetica,sans-Serif" font-size="10.00">::s_circle_levelset</text>
</a>
</g>
</g>
<!-- Node1&#45;&gt;Node22 -->
<g id="edge32_Node000001_Node000022" class="edge">
<title>Node1&#45;&gt;Node22</title>
<g id="a_edge32_Node000001_Node000022"><a xlink:title=" ">
<path fill="none" stroke="#63b8ff" d="M876.1,-376.28C867.31,-377.64 858.47,-378.91 850,-380 783.64,-388.51 707.05,-394.66 655.68,-398.26"/>
<polygon fill="#63b8ff" stroke="#63b8ff" points="876.66,-379.74 885.99,-374.72 875.56,-372.82 876.66,-379.74"/>
</a>
</g>
</g>
<!-- Node23 -->
<g id="Node000023" class="node">
<title>Node23</title>
<g id="a_Node000023"><a xlink:href="namespacem__compute__levelset.html#ab3ab185d1ad0bf271d4d6296ce46784b" target="_top" xlink:title=" ">
<polygon fill="white" stroke="#666666" points="655.5,-369 536.5,-369 536.5,-339 655.5,-339 655.5,-369"/>
<text text-anchor="start" x="544.5" y="-357" font-family="Helvetica,sans-Serif" font-size="10.00">m_compute_levelset</text>
<text text-anchor="middle" x="596" y="-346" font-family="Helvetica,sans-Serif" font-size="10.00">::s_cuboid_levelset</text>
</a>
</g>
</g>
<!-- Node1&#45;&gt;Node23 -->
<g id="edge34_Node000001_Node000023" class="edge">
<title>Node1&#45;&gt;Node23</title>
<g id="a_edge34_Node000001_Node000023"><a xlink:title=" ">
<path fill="none" stroke="#63b8ff" d="M875.72,-364.51C867.04,-364.71 858.34,-364.88 850,-365 786.9,-365.89 771.03,-368.12 708,-365 690.98,-364.16 672.54,-362.6 655.68,-360.91"/>
<polygon fill="#63b8ff" stroke="#63b8ff" points="875.96,-368.01 885.87,-364.26 875.79,-361.01 875.96,-368.01"/>
</a>
</g>
</g>
<!-- Node24 -->
<g id="Node000024" class="node">
<title>Node24</title>
<g id="a_Node000024"><a xlink:href="namespacem__compute__levelset.html#aba30090c78eab580a1b9aae147b5ad5b" target="_top" xlink:title=" ">
<polygon fill="white" stroke="#666666" points="838.5,-356 719.5,-356 719.5,-326 838.5,-326 838.5,-356"/>
<text text-anchor="start" x="727.5" y="-344" font-family="Helvetica,sans-Serif" font-size="10.00">m_compute_levelset</text>
<text text-anchor="middle" x="779" y="-333" font-family="Helvetica,sans-Serif" font-size="10.00">::s_cylinder_levelset</text>
</a>
</g>
</g>
<!-- Node1&#45;&gt;Node24 -->
<g id="edge36_Node000001_Node000024" class="edge">
<title>Node1&#45;&gt;Node24</title>
<g id="a_edge36_Node000001_Node000024"><a xlink:title=" ">
<path fill="none" stroke="#63b8ff" d="M875.9,-352.44C863.3,-350.94 850.49,-349.41 838.5,-347.98"/>
<polygon fill="#63b8ff" stroke="#63b8ff" points="875.59,-355.93 885.93,-353.64 876.42,-348.98 875.59,-355.93"/>
</a>
</g>
</g>
<!-- Node25 -->
<g id="Node000025" class="node">
<title>Node25</title>
<g id="a_Node000025"><a xlink:href="namespacem__ib__patches.html#ac43eda6c21eb7380f7ef75fdce844813" target="_top" xlink:title=" ">
<polygon fill="white" stroke="#666666" points="834,-308 724,-308 724,-278 834,-278 834,-308"/>
<text text-anchor="start" x="732" y="-296" font-family="Helvetica,sans-Serif" font-size="10.00">m_ib_patches::s_ib</text>
<text text-anchor="middle" x="779" y="-285" font-family="Helvetica,sans-Serif" font-size="10.00">_3d_airfoil</text>
</a>
</g>
</g>
<!-- Node1&#45;&gt;Node25 -->
<g id="edge38_Node000001_Node000025" class="edge">
<title>Node1&#45;&gt;Node25</title>
<g id="a_edge38_Node000001_Node000025"><a xlink:title=" ">
<path fill="none" stroke="#63b8ff" d="M913,-342.92C893.84,-334.64 870.92,-325.02 850,-317 842.08,-313.97 833.59,-310.9 825.36,-308.02"/>
<polygon fill="#63b8ff" stroke="#63b8ff" points="911.79,-346.21 922.36,-346.99 914.58,-339.8 911.79,-346.21"/>
</a>
</g>
</g>
<!-- Node26 -->
<g id="Node000026" class="node">
<title>Node26</title>
<g id="a_Node000026"><a xlink:href="namespacem__ib__patches.html#acea1b814396f56d57abdef47f7a91244" target="_top" xlink:title=" ">
<polygon fill="white" stroke="#666666" points="834,-260 724,-260 724,-230 834,-230 834,-260"/>
<text text-anchor="start" x="732" y="-248" font-family="Helvetica,sans-Serif" font-size="10.00">m_ib_patches::s_ib</text>
<text text-anchor="middle" x="779" y="-237" font-family="Helvetica,sans-Serif" font-size="10.00">_airfoil</text>
</a>
</g>
</g>
<!-- Node1&#45;&gt;Node26 -->
<g id="edge40_Node000001_Node000026" class="edge">
<title>Node1&#45;&gt;Node26</title>
<g id="a_edge40_Node000001_Node000026"><a xlink:title=" ">
<path fill="none" stroke="#63b8ff" d="M935.26,-339.31C915.2,-318.52 883.06,-288.16 850,-269 844.22,-265.65 837.9,-262.67 831.5,-260.05"/>
<polygon fill="#63b8ff" stroke="#63b8ff" points="932.91,-341.91 942.34,-346.76 937.99,-337.1 932.91,-341.91"/>
</a>
</g>
</g>
<!-- Node27 -->
<g id="Node000027" class="node">
<title>Node27</title>
<g id="a_Node000027"><a xlink:href="namespacem__compute__levelset.html#a7d5e568c877466755798c52492d2707f" target="_top" xlink:title="Initialize IBM module.">
<polygon fill="white" stroke="#666666" points="840.5,-212 717.5,-212 717.5,-182 840.5,-182 840.5,-212"/>
<text text-anchor="start" x="725.5" y="-200" font-family="Helvetica,sans-Serif" font-size="10.00">m_compute_levelset</text>
<text text-anchor="middle" x="779" y="-189" font-family="Helvetica,sans-Serif" font-size="10.00">::s_rectangle_levelset</text>
</a>
</g>
</g>
<!-- Node1&#45;&gt;Node27 -->
<g id="edge42_Node000001_Node000027" class="edge">
<title>Node1&#45;&gt;Node27</title>
<g id="a_edge42_Node000001_Node000027"><a xlink:title=" ">
<path fill="none" stroke="#63b8ff" d="M943.88,-337.99C926.94,-306.76 893.34,-252.48 850,-221 845.32,-217.6 840.13,-214.66 834.74,-212.11"/>
<polygon fill="#63b8ff" stroke="#63b8ff" points="940.82,-339.7 948.59,-346.9 947,-336.42 940.82,-339.7"/>
</a>
</g>
</g>
<!-- Node28 -->
<g id="Node000028" class="node">
<title>Node28</title>
<g id="a_Node000028"><a xlink:href="namespacem__compute__levelset.html#adfbb8e93521bdcd88cce0534c0e4da0c" target="_top" xlink:title=" ">
<polygon fill="white" stroke="#666666" points="838.5,-164 719.5,-164 719.5,-134 838.5,-134 838.5,-164"/>
<text text-anchor="start" x="727.5" y="-152" font-family="Helvetica,sans-Serif" font-size="10.00">m_compute_levelset</text>
<text text-anchor="middle" x="779" y="-141" font-family="Helvetica,sans-Serif" font-size="10.00">::s_sphere_levelset</text>
</a>
</g>
</g>
<!-- Node1&#45;&gt;Node28 -->
<g id="edge44_Node000001_Node000028" class="edge">
<title>Node1&#45;&gt;Node28</title>
<g id="a_edge44_Node000001_Node000028"><a xlink:title=" ">
<path fill="none" stroke="#63b8ff" d="M948.58,-337.27C935.29,-297.13 903.69,-217.77 850,-173 845.86,-169.54 841.19,-166.58 836.28,-164.03"/>
<polygon fill="#63b8ff" stroke="#63b8ff" points="945.25,-338.36 951.63,-346.82 951.92,-336.22 945.25,-338.36"/>
</a>
</g>
</g>
<!-- Node29 -->
<g id="Node000029" class="node">
<title>Node29</title>
<g id="a_Node000029"><a xlink:href="namespacem__phase__change.html#a1c6df16af0868f7d4004d427cc7cead9" target="_top" xlink:title="This auxiliary subroutine finds the Saturation temperature for a given saturation pressure through a ...">
<polygon fill="white" stroke="#666666" points="847.5,-507.5 710.5,-507.5 710.5,-488.5 847.5,-488.5 847.5,-507.5"/>
<text text-anchor="middle" x="779" y="-495.5" font-family="Helvetica,sans-Serif" font-size="10.00">m_phase_change::s_tsat</text>
</a>
</g>
</g>
<!-- Node1&#45;&gt;Node29 -->
<g id="edge46_Node000001_Node000029" class="edge">
<title>Node1&#45;&gt;Node29</title>
<g id="a_edge46_Node000001_Node000029"><a xlink:title=" ">
<path fill="none" stroke="#63b8ff" d="M939.28,-385.52C920.28,-410.68 887.06,-450.16 850,-474 840.49,-480.12 829.25,-484.86 818.59,-488.46"/>
<polygon fill="#63b8ff" stroke="#63b8ff" points="942.26,-387.39 945.39,-377.27 936.63,-383.22 942.26,-387.39"/>
</a>
</g>
</g>
<!-- Node32 -->
<g id="Node000032" class="node">
<title>Node32</title>
<g id="a_Node000032"><a xlink:href="namespacem__data__output.html#ac4254f90208d2808b6b214e857e79d9a" target="_top" xlink:title="The goal of the procedure is to output to the run&#45;time information file the stability criteria extrem...">
<polygon fill="white" stroke="#666666" points="844.5,-30 713.5,-30 713.5,0 844.5,0 844.5,-30"/>
<text text-anchor="start" x="721.5" y="-18" font-family="Helvetica,sans-Serif" font-size="10.00">m_data_output::s_write</text>
<text text-anchor="middle" x="779" y="-7" font-family="Helvetica,sans-Serif" font-size="10.00">_run_time_information</text>
</a>
</g>
</g>
<!-- Node1&#45;&gt;Node32 -->
<g id="edge50_Node000001_Node000032" class="edge">
<title>Node1&#45;&gt;Node32</title>
<g id="a_edge50_Node000001_Node000032"><a xlink:title=" ">
<path fill="none" stroke="#63b8ff" d="M955.04,-336.63C951.4,-276.51 933.91,-124.02 850,-39 846.57,-35.53 842.62,-32.55 838.37,-30.01"/>
<polygon fill="#63b8ff" stroke="#63b8ff" points="951.55,-336.95 955.57,-346.75 958.54,-336.58 951.55,-336.95"/>
</a>
</g>
</g>
<!-- Node4 -->
<g id="Node000004" class="node">
<title>Node4</title>
<g id="a_Node000004"><a xlink:href="namespacem__helper__basic.html#a2a51671bfbfddf6ecabbc9593be49e1d" target="_top" xlink:title="Checks if ALL elements of a real(wp) array are of default value.">
<polygon fill="white" stroke="#666666" points="656,-799 536,-799 536,-769 656,-769 656,-799"/>
<text text-anchor="start" x="544" y="-787" font-family="Helvetica,sans-Serif" font-size="10.00">m_helper_basic::f_all</text>
<text text-anchor="middle" x="596" y="-776" font-family="Helvetica,sans-Serif" font-size="10.00">_default</text>
</a>
</g>
</g>
<!-- Node3&#45;&gt;Node4 -->
<g id="edge3_Node000003_Node000004" class="edge">
<title>Node3&#45;&gt;Node4</title>
<g id="a_edge3_Node000003_Node000004"><a xlink:title=" ">
<path fill="none" stroke="#63b8ff" d="M759.8,-679.39C740.39,-702.86 707.59,-738.53 672,-760 666.38,-763.39 660.23,-766.35 653.95,-768.93"/>
<polygon fill="#63b8ff" stroke="#63b8ff" points="762.74,-681.31 766.33,-671.34 757.31,-676.9 762.74,-681.31"/>
</a>
</g>
</g>
<!-- Node5 -->
<g id="Node000005" class="node">
<title>Node5</title>
<g id="a_Node000005"><a xlink:href="namespacem__bubbles.html#a81ceea09547775d9e7e50dbd6bf7386f" target="_top" xlink:title="Function that computes the bubble wall pressure for Keller–Miksis bubbles.">
<polygon fill="white" stroke="#666666" points="661.5,-732.5 530.5,-732.5 530.5,-713.5 661.5,-713.5 661.5,-732.5"/>
<text text-anchor="middle" x="596" y="-720.5" font-family="Helvetica,sans-Serif" font-size="10.00">m_bubbles::f_cpbw_km</text>
</a>
</g>
</g>
<!-- Node3&#45;&gt;Node5 -->
<g id="edge4_Node000003_Node000005" class="edge">
<title>Node3&#45;&gt;Node5</title>
<g id="a_edge4_Node000003_Node000005"><a xlink:title=" ">
<path fill="none" stroke="#63b8ff" d="M739.41,-675.47C719.6,-684.95 694.88,-695.99 672,-704 661.86,-707.55 650.73,-710.74 640.22,-713.44"/>
<polygon fill="#63b8ff" stroke="#63b8ff" points="740.95,-678.61 748.42,-671.1 737.9,-672.31 740.95,-678.61"/>
</a>
</g>
</g>
<!-- Node12 -->
<g id="Node000012" class="node">
<title>Node12</title>
<g id="a_Node000012"><a xlink:href="namespacem__bubbles.html#a83c550e90a8910cec7e95683ebd1ef35" target="_top" xlink:title="Function that computes the bubble radial acceleration for Keller–Miksis bubbles.">
<polygon fill="white" stroke="#666666" points="661.5,-836.5 530.5,-836.5 530.5,-817.5 661.5,-817.5 661.5,-836.5"/>
<text text-anchor="middle" x="596" y="-824.5" font-family="Helvetica,sans-Serif" font-size="10.00">m_bubbles::f_rddot_km</text>
</a>
</g>
</g>
<!-- Node3&#45;&gt;Node12 -->
<g id="edge14_Node000003_Node000012" class="edge">
<title>Node3&#45;&gt;Node12</title>
<g id="a_edge14_Node000003_Node000012"><a xlink:title=" ">
<path fill="none" stroke="#63b8ff" d="M767.7,-680.44C752.09,-714.4 719.21,-775.36 672,-808 666.37,-811.9 660,-814.99 653.42,-817.46"/>
<polygon fill="#63b8ff" stroke="#63b8ff" points="770.93,-681.78 771.81,-671.22 764.54,-678.93 770.93,-681.78"/>
</a>
</g>
</g>
<!-- Node13 -->
<g id="Node000013" class="node">
<title>Node13</title>
<g id="a_Node000013"><a xlink:href="namespacem__ib__patches.html#af27bb89dad26efe5e97177d8f24862fd" target="_top" xlink:title="The cylindrical patch is a 3D geometry that may be used, for example, in setting up a cylindrical sol...">
<polygon fill="white" stroke="#666666" points="651,-561 541,-561 541,-531 651,-531 651,-561"/>
<text text-anchor="start" x="549" y="-549" font-family="Helvetica,sans-Serif" font-size="10.00">m_ib_patches::s_ib</text>
<text text-anchor="middle" x="596" y="-538" font-family="Helvetica,sans-Serif" font-size="10.00">_cylinder</text>
</a>
</g>
</g>
<!-- Node3&#45;&gt;Node13 -->
<g id="edge17_Node000003_Node000013" class="edge">
<title>Node3&#45;&gt;Node13</title>
<g id="a_edge17_Node000003_Node000013"><a xlink:title=" ">
<path fill="none" stroke="#63b8ff" d="M753.79,-634.29C733.16,-616.61 702.15,-591.89 672,-575 662.62,-569.75 652.1,-565.03 641.97,-561"/>
<polygon fill="#63b8ff" stroke="#63b8ff" points="751.58,-637.01 761.43,-640.92 756.17,-631.72 751.58,-637.01"/>
</a>
</g>
</g>
<!-- Node15 -->
<g id="Node000015" class="node">
<title>Node15</title>
<g id="a_Node000015"><a xlink:href="namespacem__acoustic__src.html#ab35bc877e24a62748ab7df0548ebd08d" target="_top" xlink:title="This subroutine initializes the acoustic source module.">
<polygon fill="white" stroke="#666666" points="671,-647 521,-647 521,-617 671,-617 671,-647"/>
<text text-anchor="start" x="529" y="-635" font-family="Helvetica,sans-Serif" font-size="10.00">m_acoustic_src::s_initialize</text>
<text text-anchor="middle" x="596" y="-624" font-family="Helvetica,sans-Serif" font-size="10.00">_acoustic_src</text>
</a>
</g>
</g>
<!-- Node3&#45;&gt;Node15 -->
<g id="edge19_Node000003_Node000015" class="edge">
<title>Node3&#45;&gt;Node15</title>
<g id="a_edge19_Node000003_Node000015"><a xlink:title=" ">
<path fill="none" stroke="#63b8ff" d="M710.58,-647.06C697.72,-645.36 684.2,-643.56 671.14,-641.83"/>
<polygon fill="#63b8ff" stroke="#63b8ff" points="710.36,-650.56 720.73,-648.41 711.28,-643.62 710.36,-650.56"/>
</a>
</g>
</g>
<!-- Node16 -->
<g id="Node000016" class="node">
<title>Node16</title>
<g id="a_Node000016"><a xlink:href="namespacem__start__up.html#a1fb7a3f9d412acd2a9cbcfe8b45006dd" target="_top" xlink:title=" ">
<polygon fill="white" stroke="#666666" points="484,-625 354,-625 354,-595 484,-595 484,-625"/>
<text text-anchor="start" x="362" y="-613" font-family="Helvetica,sans-Serif" font-size="10.00">m_start_up::s_initialize</text>
<text text-anchor="middle" x="419" y="-602" font-family="Helvetica,sans-Serif" font-size="10.00">_modules</text>
</a>
</g>
</g>
<!-- Node3&#45;&gt;Node16 -->
<g id="edge22_Node000003_Node000016" class="edge">
<title>Node3&#45;&gt;Node16</title>
<g id="a_edge22_Node000003_Node000016"><a xlink:title=" ">
<path fill="none" stroke="#63b8ff" d="M744.12,-636.18C723.92,-625.52 697.34,-613.47 672,-608 609.24,-594.45 535.62,-597.09 484.22,-601.82"/>
<polygon fill="#63b8ff" stroke="#63b8ff" points="742.47,-639.26 752.93,-640.95 745.8,-633.11 742.47,-639.26"/>
</a>
</g>
</g>
<!-- Node18 -->
<g id="Node000018" class="node">
<title>Node18</title>
<g id="a_Node000018"><a xlink:href="namespacem__qbmm.html#aeefcb72401bfdb35dcdd81104e647a15" target="_top" xlink:title=" ">
<polygon fill="white" stroke="#666666" points="657,-695 535,-695 535,-665 657,-665 657,-695"/>
<text text-anchor="start" x="543" y="-683" font-family="Helvetica,sans-Serif" font-size="10.00">m_qbmm::s_initialize</text>
<text text-anchor="middle" x="596" y="-672" font-family="Helvetica,sans-Serif" font-size="10.00">_qbmm_module</text>
</a>
</g>
</g>
<!-- Node3&#45;&gt;Node18 -->
<g id="edge23_Node000003_Node000018" class="edge">
<title>Node3&#45;&gt;Node18</title>
<g id="a_edge23_Node000003_Node000018"><a xlink:title=" ">
<path fill="none" stroke="#63b8ff" d="M710.55,-664.94C692.98,-667.27 674.17,-669.77 657.02,-672.04"/>
<polygon fill="#63b8ff" stroke="#63b8ff" points="711.28,-668.38 720.73,-663.59 710.36,-661.44 711.28,-668.38"/>
</a>
</g>
</g>
<!-- Node5&#45;&gt;Node5 -->
<g id="edge5_Node000005_Node000005" class="edge">
<title>Node5&#45;&gt;Node5</title>
<g id="a_edge5_Node000005_Node000005"><a xlink:title=" ">
<path fill="none" stroke="#63b8ff" d="M628.93,-740.95C628,-746.32 617.02,-750.5 596,-750.5 564.72,-750.5 555.68,-741.23 568.87,-732.58"/>
<polygon fill="#63b8ff" stroke="#63b8ff" points="631.7,-738.8 623.13,-732.58 625.95,-742.79 631.7,-738.8"/>
</a>
</g>
</g>
<!-- Node6 -->
<g id="Node000006" class="node">
<title>Node6</title>
<g id="a_Node000006"><a xlink:href="namespacem__bubbles.html#a5df386bacf57fa1f7799b9aad47a4f94" target="_top" xlink:title="Function that computes the bubble radial acceleration based on bubble models.">
<polygon fill="white" stroke="#666666" points="474,-836.5 364,-836.5 364,-817.5 474,-817.5 474,-836.5"/>
<text text-anchor="middle" x="419" y="-824.5" font-family="Helvetica,sans-Serif" font-size="10.00">m_bubbles::f_rddot</text>
</a>
</g>
</g>
<!-- Node5&#45;&gt;Node6 -->
<g id="edge6_Node000005_Node000006" class="edge">
<title>Node5&#45;&gt;Node6</title>
<g id="a_edge6_Node000005_Node000006"><a xlink:title=" ">
<path fill="none" stroke="#63b8ff" d="M564.51,-736.92C550.7,-743.51 534.3,-751.73 520,-760 487.8,-778.62 452.03,-803.74 433.23,-817.32"/>
<polygon fill="#63b8ff" stroke="#63b8ff" points="566.04,-740.06 573.6,-732.64 563.06,-733.73 566.04,-740.06"/>
</a>
</g>
</g>
<!-- Node10 -->
<g id="Node000010" class="node">
<title>Node10</title>
<g id="a_Node000010"><a xlink:href="namespacem__riemann__solvers.html#a6c9d70572e9b98586bab20b028557a5a" target="_top" xlink:title="This procedure is the implementation of the Harten, Lax, van Leer, and contact (HLLC) approximate Rie...">
<polygon fill="white" stroke="#666666" points="481.5,-738 356.5,-738 356.5,-708 481.5,-708 481.5,-738"/>
<text text-anchor="start" x="364.5" y="-726" font-family="Helvetica,sans-Serif" font-size="10.00">m_riemann_solvers::</text>
<text text-anchor="middle" x="419" y="-715" font-family="Helvetica,sans-Serif" font-size="10.00">s_hllc_riemann_solver</text>
</a>
</g>
</g>
<!-- Node5&#45;&gt;Node10 -->
<g id="edge12_Node000005_Node000010" class="edge">
<title>Node5&#45;&gt;Node10</title>
<g id="a_edge12_Node000005_Node000010"><a xlink:title=" ">
<path fill="none" stroke="#63b8ff" d="M520.17,-723C507.37,-723 494.2,-723 481.78,-723"/>
<polygon fill="#63b8ff" stroke="#63b8ff" points="520.33,-726.5 530.33,-723 520.33,-719.5 520.33,-726.5"/>
</a>
</g>
</g>
<!-- Node6&#45;&gt;Node6 -->
<g id="edge7_Node000006_Node000006" class="edge">
<title>Node6&#45;&gt;Node6</title>
<g id="a_edge7_Node000006_Node000006"><a xlink:title=" ">
<path fill="none" stroke="#63b8ff" d="M449.61,-845.32C448.33,-850.51 438.13,-854.5 419,-854.5 389.85,-854.5 381.43,-845.23 393.72,-836.58"/>
<polygon fill="#63b8ff" stroke="#63b8ff" points="452.48,-843.29 444.28,-836.58 446.5,-846.94 452.48,-843.29"/>
</a>
</g>
</g>
<!-- Node6&#45;&gt;Node7 -->
<g id="edge8_Node000006_Node000007" class="edge">
<title>Node6&#45;&gt;Node7</title>
<g id="a_edge8_Node000006_Node000007"><a xlink:title=" ">
<path fill="none" stroke="#63b8ff" d="M377.2,-839.52C355.06,-846.31 327.52,-854.75 304.2,-861.91"/>
<polygon fill="#63b8ff" stroke="#63b8ff" points="378.42,-842.8 386.96,-836.52 376.37,-836.11 378.42,-842.8"/>
</a>
</g>
</g>
<!-- Node9 -->
<g id="Node000009" class="node">
<title>Node9</title>
<g id="a_Node000009"><a xlink:href="namespacem__bubbles.html#a4b48725a84a60c73af7e378ffc3d3438" target="_top" xlink:title="Choose the initial time step size for the adaptive time stepping routine (See Heirer,...">
<polygon fill="white" stroke="#666666" points="311,-843 197,-843 197,-813 311,-813 311,-843"/>
<text text-anchor="start" x="205" y="-831" font-family="Helvetica,sans-Serif" font-size="10.00">m_bubbles::s_initial</text>
<text text-anchor="middle" x="254" y="-820" font-family="Helvetica,sans-Serif" font-size="10.00">_substep_h</text>
</a>
</g>
</g>
<!-- Node6&#45;&gt;Node9 -->
<g id="edge10_Node000006_Node000009" class="edge">
<title>Node6&#45;&gt;Node9</title>
<g id="a_edge10_Node000006_Node000009"><a xlink:title=" ">
<path fill="none" stroke="#63b8ff" d="M353.67,-827.39C339.66,-827.48 324.94,-827.57 311.27,-827.65"/>
<polygon fill="#63b8ff" stroke="#63b8ff" points="353.75,-830.89 363.72,-827.33 353.7,-823.89 353.75,-830.89"/>
</a>
</g>
</g>
<!-- Node7&#45;&gt;Node8 -->
<g id="edge9_Node000007_Node000008" class="edge">
<title>Node7&#45;&gt;Node8</title>
<g id="a_edge9_Node000007_Node000008"><a xlink:title=" ">
<path fill="none" stroke="#63b8ff" d="M179.67,-877C171.26,-877 162.67,-877 154.22,-877"/>
<polygon fill="#63b8ff" stroke="#63b8ff" points="179.82,-880.5 189.82,-877 179.82,-873.5 179.82,-880.5"/>
</a>
</g>
</g>
<!-- Node9&#45;&gt;Node8 -->
<g id="edge11_Node000009_Node000008" class="edge">
<title>Node9&#45;&gt;Node8</title>
<g id="a_edge11_Node000009_Node000008"><a xlink:title=" ">
<path fill="none" stroke="#63b8ff" d="M189.21,-845.86C163.06,-853.18 133.85,-861.36 111.94,-867.5"/>
<polygon fill="#63b8ff" stroke="#63b8ff" points="190.38,-849.17 199.07,-843.1 188.49,-842.43 190.38,-849.17"/>
</a>
</g>
</g>
<!-- Node11 -->
<g id="Node000011" class="node">
<title>Node11</title>
<g id="a_Node000011"><a xlink:href="namespacem__riemann__solvers.html#aff6e3d5abdabe6ce6fccbb7a081766e6" target="_top" xlink:title="Dispatch to the subroutines that are utilized to compute the Riemann problem solution....">
<polygon fill="white" stroke="#666666" points="313.5,-738 194.5,-738 194.5,-708 313.5,-708 313.5,-738"/>
<text text-anchor="start" x="202.5" y="-726" font-family="Helvetica,sans-Serif" font-size="10.00">m_riemann_solvers::</text>
<text text-anchor="middle" x="254" y="-715" font-family="Helvetica,sans-Serif" font-size="10.00">s_riemann_solver</text>
</a>
</g>
</g>
<!-- Node10&#45;&gt;Node11 -->
<g id="edge13_Node000010_Node000011" class="edge">
<title>Node10&#45;&gt;Node11</title>
<g id="a_edge13_Node000010_Node000011"><a xlink:title=" ">
<path fill="none" stroke="#63b8ff" d="M346.1,-723C335.29,-723 324.24,-723 313.75,-723"/>
<polygon fill="#63b8ff" stroke="#63b8ff" points="346.38,-726.5 356.38,-723 346.38,-719.5 346.38,-726.5"/>
</a>
</g>
</g>
<!-- Node12&#45;&gt;Node6 -->
<g id="edge15_Node000012_Node000006" class="edge">
<title>Node12&#45;&gt;Node6</title>
<g id="a_edge15_Node000012_Node000006"><a xlink:title=" ">
<path fill="none" stroke="#63b8ff" d="M520.24,-827C504.73,-827 488.67,-827 474.08,-827"/>
<polygon fill="#63b8ff" stroke="#63b8ff" points="520.33,-830.5 530.33,-827 520.33,-823.5 520.33,-830.5"/>
</a>
</g>
</g>
<!-- Node12&#45;&gt;Node12 -->
<g id="edge16_Node000012_Node000012" class="edge">
<title>Node12&#45;&gt;Node12</title>
<g id="a_edge16_Node000012_Node000012"><a xlink:title=" ">
<path fill="none" stroke="#63b8ff" d="M628.93,-844.95C628,-850.32 617.02,-854.5 596,-854.5 564.72,-854.5 555.68,-845.23 568.87,-836.58"/>
<polygon fill="#63b8ff" stroke="#63b8ff" points="631.7,-842.8 623.13,-836.58 625.95,-846.79 631.7,-842.8"/>
</a>
</g>
</g>
<!-- Node14 -->
<g id="Node000014" class="node">
<title>Node14</title>
<g id="a_Node000014"><a xlink:href="namespacem__ib__patches.html#a0540992ae9a59ea772d591a5fa9a63fb" target="_top" xlink:title=" ">
<polygon fill="white" stroke="#666666" points="483,-307 355,-307 355,-277 483,-277 483,-307"/>
<text text-anchor="start" x="363" y="-295" font-family="Helvetica,sans-Serif" font-size="10.00">m_ib_patches::s_apply</text>
<text text-anchor="middle" x="419" y="-284" font-family="Helvetica,sans-Serif" font-size="10.00">_ib_patches</text>
</a>
</g>
</g>
<!-- Node13&#45;&gt;Node14 -->
<g id="edge18_Node000013_Node000014" class="edge">
<title>Node13&#45;&gt;Node14</title>
<g id="a_edge18_Node000013_Node000014"><a xlink:title=" ">
<path fill="none" stroke="#63b8ff" d="M531.77,-530.41C527.54,-527.99 523.55,-525.21 520,-522 452.99,-461.4 428.91,-347.93 422.19,-307.11"/>
<polygon fill="#63b8ff" stroke="#63b8ff" points="530.23,-533.55 540.74,-534.85 533.33,-527.27 530.23,-533.55"/>
</a>
</g>
</g>
<!-- Node15&#45;&gt;Node16 -->
<g id="edge20_Node000015_Node000016" class="edge">
<title>Node15&#45;&gt;Node16</title>
<g id="a_edge20_Node000015_Node000016"><a xlink:title=" ">
<path fill="none" stroke="#63b8ff" d="M510.71,-621.4C501.76,-620.28 492.76,-619.15 484.09,-618.06"/>
<polygon fill="#63b8ff" stroke="#63b8ff" points="510.43,-624.9 520.78,-622.67 511.3,-617.95 510.43,-624.9"/>
</a>
</g>
</g>
<!-- Node17 -->
<g id="Node000017" class="node">
<title>Node17</title>
<g id="a_Node000017"><a xlink:href="p__main_8fpp_8f90.html#aeec10ee8e2940c953967da3e374e1579" target="_top" xlink:title="Quasi&#45;conservative, shock&#45; and interface&#45; capturing finite&#45;volume scheme for the multicomponent Navie...">
<polygon fill="white" stroke="#666666" points="280.5,-574.5 227.5,-574.5 227.5,-555.5 280.5,-555.5 280.5,-574.5"/>
<text text-anchor="middle" x="254" y="-562.5" font-family="Helvetica,sans-Serif" font-size="10.00">p_main</text>
</a>
</g>
</g>
<!-- Node16&#45;&gt;Node17 -->
<g id="edge21_Node000016_Node000017" class="edge">
<title>Node16&#45;&gt;Node17</title>
<g id="a_edge21_Node000016_Node000017"><a xlink:title=" ">
<path fill="none" stroke="#63b8ff" d="M353.62,-592.23C328.08,-585.17 300.19,-577.48 280.6,-572.07"/>
<polygon fill="#63b8ff" stroke="#63b8ff" points="352.7,-595.6 363.27,-594.89 354.56,-588.86 352.7,-595.6"/>
</a>
</g>
</g>
<!-- Node18&#45;&gt;Node16 -->
<g id="edge24_Node000018_Node000016" class="edge">
<title>Node18&#45;&gt;Node16</title>
<g id="a_edge24_Node000018_Node000016"><a xlink:title=" ">
<path fill="none" stroke="#63b8ff" d="M535.56,-661.71C530.27,-659.87 525.02,-657.95 520,-656 496.13,-646.73 469.85,-634.56 450.22,-625.07"/>
<polygon fill="#63b8ff" stroke="#63b8ff" points="534.49,-665.05 545.08,-664.96 536.75,-658.42 534.49,-665.05"/>
</a>
</g>
</g>
<!-- Node20&#45;&gt;Node14 -->
<g id="edge27_Node000020_Node000014" class="edge">
<title>Node20&#45;&gt;Node14</title>
<g id="a_edge27_Node000020_Node000014"><a xlink:title=" ">
<path fill="none" stroke="#63b8ff" d="M534.2,-130.61C529.16,-133.37 524.35,-136.49 520,-140 472.06,-178.68 439.13,-246.63 426.16,-276.81"/>
<polygon fill="#63b8ff" stroke="#63b8ff" points="536.06,-133.59 543.45,-126 532.94,-127.33 536.06,-133.59"/>
</a>
</g>
</g>
<!-- Node21&#45;&gt;Node14 -->
<g id="edge31_Node000021_Node000014" class="edge">
<title>Node21&#45;&gt;Node14</title>
<g id="a_edge31_Node000021_Node000014"><a xlink:title=" ">
<path fill="none" stroke="#63b8ff" d="M527.37,-430.69C524.82,-429.24 522.35,-427.67 520,-426 474.87,-393.8 441.41,-335.06 427.34,-307.3"/>
<polygon fill="#63b8ff" stroke="#63b8ff" points="525.84,-433.84 536.34,-435.25 529.01,-427.6 525.84,-433.84"/>
</a>
</g>
</g>
<!-- Node22&#45;&gt;Node14 -->
<g id="edge33_Node000022_Node000014" class="edge">
<title>Node22&#45;&gt;Node14</title>
<g id="a_edge33_Node000022_Node000014"><a xlink:title=" ">
<path fill="none" stroke="#63b8ff" d="M529.59,-382.86C526.29,-381.34 523.08,-379.72 520,-378 485.43,-358.66 451.91,-326.19 433.82,-307.16"/>
<polygon fill="#63b8ff" stroke="#63b8ff" points="528.48,-386.19 539.05,-386.87 531.22,-379.74 528.48,-386.19"/>
</a>
</g>
</g>
<!-- Node23&#45;&gt;Node14 -->
<g id="edge35_Node000023_Node000014" class="edge">
<title>Node23&#45;&gt;Node14</title>
<g id="a_edge35_Node000023_Node000014"><a xlink:title=" ">
<path fill="none" stroke="#63b8ff" d="M543.07,-335.6C517.41,-326.51 486.83,-315.68 462.58,-307.09"/>
<polygon fill="#63b8ff" stroke="#63b8ff" points="542.04,-338.95 552.64,-338.99 544.38,-332.35 542.04,-338.95"/>
</a>
</g>
</g>
<!-- Node24&#45;&gt;Node14 -->
<g id="edge37_Node000024_Node000014" class="edge">
<title>Node24&#45;&gt;Node14</title>
<g id="a_edge37_Node000024_Node000014"><a xlink:title=" ">
<path fill="none" stroke="#63b8ff" d="M709.09,-331.57C643.82,-322.63 546.62,-309.33 483.27,-300.66"/>
<polygon fill="#63b8ff" stroke="#63b8ff" points="708.9,-335.08 719.28,-332.96 709.85,-328.14 708.9,-335.08"/>
</a>
</g>
</g>
<!-- Node25&#45;&gt;Node14 -->
<g id="edge39_Node000025_Node000014" class="edge">
<title>Node25&#45;&gt;Node14</title>
<g id="a_edge39_Node000025_Node000014"><a xlink:title=" ">
<path fill="none" stroke="#63b8ff" d="M713.46,-292.82C648.14,-292.64 547.81,-292.36 483.04,-292.18"/>
<polygon fill="#63b8ff" stroke="#63b8ff" points="713.62,-296.32 723.63,-292.85 713.64,-289.32 713.62,-296.32"/>
</a>
</g>
</g>
<!-- Node26&#45;&gt;Node14 -->
<g id="edge41_Node000026_Node000014" class="edge">
<title>Node26&#45;&gt;Node14</title>
<g id="a_edge41_Node000026_Node000014"><a xlink:title=" ">
<path fill="none" stroke="#63b8ff" d="M713.46,-253.47C648.14,-262.05 547.81,-275.22 483.04,-283.72"/>
<polygon fill="#63b8ff" stroke="#63b8ff" points="714.17,-256.91 723.63,-252.14 713.26,-249.97 714.17,-256.91"/>
</a>
</g>
</g>
<!-- Node27&#45;&gt;Node14 -->
<g id="edge43_Node000027_Node000014" class="edge">
<title>Node27&#45;&gt;Node14</title>
<g id="a_edge43_Node000027_Node000014"><a xlink:title=" ">
<path fill="none" stroke="#63b8ff" d="M707.49,-211.24C655.33,-222.3 582.75,-238.78 520,-257 500.04,-262.8 478.22,-270.29 460.06,-276.86"/>
<polygon fill="#63b8ff" stroke="#63b8ff" points="708.25,-214.66 717.31,-209.17 706.81,-207.81 708.25,-214.66"/>
</a>
</g>
</g>
<!-- Node28&#45;&gt;Node14 -->
<g id="edge45_Node000028_Node000014" class="edge">
<title>Node28&#45;&gt;Node14</title>
<g id="a_edge45_Node000028_Node000014"><a xlink:title=" ">
<path fill="none" stroke="#63b8ff" d="M709.33,-159.64C655.84,-169.67 580.72,-187.62 520,-217 487.38,-232.78 454.76,-259.89 436.03,-276.83"/>
<polygon fill="#63b8ff" stroke="#63b8ff" points="710.18,-163.04 719.39,-157.8 708.93,-156.16 710.18,-163.04"/>
</a>
</g>
</g>
<!-- Node30 -->
<g id="Node000030" class="node">
<title>Node30</title>
<g id="a_Node000030"><a xlink:href="namespacem__phase__change.html#a19a8a866830bfc285d631672287a851f" target="_top" xlink:title="This subroutine is created to activate either the pT&#45; (N fluids) or the pTg&#45;equilibrium (2 fluids for...">
<polygon fill="white" stroke="#666666" points="672,-513 520,-513 520,-483 672,-483 672,-513"/>
<text text-anchor="start" x="528" y="-501" font-family="Helvetica,sans-Serif" font-size="10.00">m_phase_change::s_infinite</text>
<text text-anchor="middle" x="596" y="-490" font-family="Helvetica,sans-Serif" font-size="10.00">_relaxation_k</text>
</a>
</g>
</g>
<!-- Node29&#45;&gt;Node30 -->
<g id="edge47_Node000029_Node000030" class="edge">
<title>Node29&#45;&gt;Node30</title>
<g id="a_edge47_Node000029_Node000030"><a xlink:title=" ">
<path fill="none" stroke="#63b8ff" d="M700.31,-498C690.98,-498 681.46,-498 672.17,-498"/>
<polygon fill="#63b8ff" stroke="#63b8ff" points="700.34,-501.5 710.34,-498 700.34,-494.5 700.34,-501.5"/>
</a>
</g>
</g>
<!-- Node31 -->
<g id="Node000031" class="node">
<title>Node31</title>
<g id="a_Node000031"><a xlink:href="namespacem__start__up.html#ae28835629de9baa7fd546672a0add0e5" target="_top" xlink:title=" ">
<polygon fill="white" stroke="#666666" points="482.5,-534 355.5,-534 355.5,-504 482.5,-504 482.5,-534"/>
<text text-anchor="start" x="363.5" y="-522" font-family="Helvetica,sans-Serif" font-size="10.00">m_start_up::s_perform</text>
<text text-anchor="middle" x="419" y="-511" font-family="Helvetica,sans-Serif" font-size="10.00">_time_step</text>
</a>
</g>
</g>
<!-- Node30&#45;&gt;Node31 -->
<g id="edge48_Node000030_Node000031" class="edge">
<title>Node30&#45;&gt;Node31</title>
<g id="a_edge48_Node000030_Node000031"><a xlink:title=" ">
<path fill="none" stroke="#63b8ff" d="M509.82,-508.22C500.63,-509.32 491.4,-510.43 482.55,-511.49"/>
<polygon fill="#63b8ff" stroke="#63b8ff" points="510.26,-511.69 519.77,-507.03 509.42,-504.74 510.26,-511.69"/>
</a>
</g>
</g>
<!-- Node31&#45;&gt;Node17 -->
<g id="edge49_Node000031_Node000017" class="edge">
<title>Node31&#45;&gt;Node17</title>
<g id="a_edge49_Node000031_Node000017"><a xlink:title=" ">
<path fill="none" stroke="#63b8ff" d="M354.86,-536.82C328.99,-544.12 300.5,-552.16 280.6,-557.77"/>
<polygon fill="#63b8ff" stroke="#63b8ff" points="355.95,-540.15 364.63,-534.06 354.05,-533.41 355.95,-540.15"/>
</a>
</g>
</g>
</g>
</svg>

<g id="navigator" transform="translate(0 0)" fill="#404254">
  <rect fill="#f2f5e9" fill-opacity="0.5" stroke="#606060" stroke-width=".5" x="0" y="0" width="60" height="60"/>
  <use id="zoomplus" xlink:href="#zoomPlus" x="17" y="9" onmousedown="handleZoom(evt,'in')"/>
  <use id="zoomminus" xlink:href="#zoomMin" x="42" y="9" onmousedown="handleZoom(evt,'out')"/>
  <use id="reset" xlink:href="#resetDef" x="30" y="36" onmousedown="handleReset()"/>
   <use id="arrowup" xlink:href="#arrowUp" x="0" y="0" onmousedown="handlePan(0,-1)"/>
  <use id="arrowright" xlink:href="#arrowRight" x="0" y="0" onmousedown="handlePan(1,0)"/>
  <use id="arrowdown" xlink:href="#arrowDown" x="0" y="0" onmousedown="handlePan(0,1)"/>
  <use id="arrowleft" xlink:href="#arrowLeft" x="0" y="0" onmousedown="handlePan(-1,0)"/>
</g>
<svg viewBox="0 0 15 15" width="100%" height="30px" preserveAspectRatio="xMaxYMin meet">
 <g id="arrow_out" transform="scale(0.3 0.3)">
  <a xlink:href="namespacem__helper__basic_a3f0eae73a833f30924d4b2665a13a429_icgraph_org.svg" target="_base">
   <rect id="button" ry="5" rx="5" y="6" x="6" height="38" width="38"
        fill="#f2f5e9" fill-opacity="0.5" stroke="#606060" stroke-width="1.0"/>
   <path id="arrow"
     d="M 11.500037,31.436501 C 11.940474,20.09759 22.043105,11.32322 32.158766,21.979434 L 37.068811,17.246167 C 37.068811,17.246167 37.088388,32 37.088388,32 L 22.160133,31.978069 C 22.160133,31.978069 26.997745,27.140456 26.997745,27.140456 C 18.528582,18.264221 13.291696,25.230495 11.500037,31.436501 z"
     style="fill:#404040;"/>
  </a>
 </g>
</svg>

<style type='text/css'>
<![CDATA[
[data-mouse-over-selected='false'] { opacity: 0.7; }
[data-mouse-over-selected='true']  { opacity: 1.0; }
]]>
</style>
<script type="application/ecmascript"><![CDATA[
document.addEventListener('DOMContentLoaded', (event) => {
  highlightEdges();
  highlightAdjacentNodes();
});
]]></script>
</svg>
