<?xml version="1.0" encoding="UTF-8" standalone="no"?>
<!DOCTYPE svg PUBLIC "-//W3C//DTD SVG 1.1//EN"
 "http://www.w3.org/Graphics/SVG/1.1/DTD/svg11.dtd">
<!-- Generated by graphviz version 2.43.0 (0)
 -->
<!-- Title: m_helper_basic::f_approx_equal Pages: 1 -->
<svg width="1131pt" height="957pt"
 viewBox="0.00 0.00 1131.00 957.00" xmlns="http://www.w3.org/2000/svg" xmlns:xlink="http://www.w3.org/1999/xlink">
<g id="graph0" class="graph" transform="scale(1 1) rotate(0) translate(4 953)">
<title>m_helper_basic::f_approx_equal</title>
<!-- Node1 -->
<g id="Node000001" class="node">
<title>Node1</title>
<g id="a_Node000001"><a xlink:title="Check if two floating point numbers of wp are within tolerance.">
<polygon fill="#999999" stroke="#666666" points="1123,-342 981,-342 981,-312 1123,-312 1123,-342"/>
<text text-anchor="start" x="989" y="-330" font-family="Helvetica,sans-Serif" font-size="10.00">m_helper_basic::f_approx</text>
<text text-anchor="middle" x="1052" y="-319" font-family="Helvetica,sans-Serif" font-size="10.00">_equal</text>
</a>
</g>
</g>
<!-- Node2 -->
<g id="Node000002" class="node">
<title>Node2</title>
<g id="a_Node000002"><a xlink:href="namespacem__bubbles.html#a8052fe0b4b286ef9b36667635dceefde" target="_top" xlink:title="Adaptive time stepping routine for subgrid bubbles (See Heirer, E. Hairer S.P.Norsett G....">
<polygon fill="white" stroke="#666666" points="241,-914.5 89,-914.5 89,-895.5 241,-895.5 241,-914.5"/>
<text text-anchor="middle" x="165" y="-902.5" font-family="Helvetica,sans-Serif" font-size="10.00">m_bubbles::f_advance_step</text>
</a>
</g>
</g>
<!-- Node1&#45;&gt;Node2 -->
<g id="edge1_Node000001_Node000002" class="edge">
<title>Node1&#45;&gt;Node2</title>
<g id="a_edge1_Node000001_Node000002"><a xlink:title=" ">
<path fill="none" stroke="#63b8ff" d="M1051.59,-352.52C1052.11,-428.08 1044.74,-654.55 945,-802 871.38,-910.83 819.89,-949 688.5,-949 688.5,-949 688.5,-949 505.5,-949 403.56,-949 377.8,-944.25 277,-929 252.63,-925.31 225.6,-919.51 204.31,-914.53"/>
<polygon fill="#63b8ff" stroke="#63b8ff" points="1055.08,-352.06 1051.46,-342.11 1048.08,-352.15 1055.08,-352.06"/>
</a>
</g>
</g>
<!-- Node3 -->
<g id="Node000003" class="node">
<title>Node3</title>
<g id="a_Node000003"><a xlink:href="namespacem__helper__basic.html#a388ce5b49cbc696a303c4b90bc391dce" target="_top" xlink:title="Check if a wp value approximately matches any element of an array within tolerance.">
<polygon fill="white" stroke="#666666" points="945,-174 803,-174 803,-144 945,-144 945,-174"/>
<text text-anchor="start" x="811" y="-162" font-family="Helvetica,sans-Serif" font-size="10.00">m_helper_basic::f_approx</text>
<text text-anchor="middle" x="874" y="-151" font-family="Helvetica,sans-Serif" font-size="10.00">_in_array</text>
</a>
</g>
</g>
<!-- Node1&#45;&gt;Node3 -->
<g id="edge2_Node000001_Node000003" class="edge">
<title>Node1&#45;&gt;Node3</title>
<g id="a_edge2_Node000001_Node000003"><a xlink:title=" ">
<path fill="none" stroke="#63b8ff" d="M1039,-302.48C1022.21,-270.58 988.77,-215.13 945,-183 940.34,-179.58 935.15,-176.62 929.77,-174.06"/>
<polygon fill="#63b8ff" stroke="#63b8ff" points="1035.99,-304.28 1043.68,-311.57 1042.22,-301.08 1035.99,-304.28"/>
</a>
</g>
</g>
<!-- Node4 -->
<g id="Node000004" class="node">
<title>Node4</title>
<g id="a_Node000004"><a xlink:href="namespacem__helper__basic.html#af1b06a05daa43f724ac3b0ff2f97db14" target="_top" xlink:title="Check if a real(wp) variable is of default value.">
<polygon fill="white" stroke="#666666" points="932,-676 816,-676 816,-646 932,-646 932,-676"/>
<text text-anchor="start" x="824" y="-664" font-family="Helvetica,sans-Serif" font-size="10.00">m_helper_basic::f_is</text>
<text text-anchor="middle" x="874" y="-653" font-family="Helvetica,sans-Serif" font-size="10.00">_default</text>
</a>
</g>
</g>
<!-- Node1&#45;&gt;Node4 -->
<g id="edge3_Node000001_Node000004" class="edge">
<title>Node1&#45;&gt;Node4</title>
<g id="a_edge3_Node000001_Node000004"><a xlink:title=" ">
<path fill="none" stroke="#63b8ff" d="M1038.19,-351.31C1003.95,-416.29 911.03,-592.63 883.07,-645.69"/>
<polygon fill="#63b8ff" stroke="#63b8ff" points="1041.41,-352.7 1042.98,-342.22 1035.22,-349.43 1041.41,-352.7"/>
</a>
</g>
</g>
<!-- Node8 -->
<g id="Node000008" class="node">
<title>Node8</title>
<g id="a_Node000008"><a xlink:href="namespacem__bubbles.html#ada2623f1499c4719141069dcd4f5c5d1" target="_top" xlink:title="Integrate bubble variables over the given time step size, h, using a third&#45;order accurate embedded Ru...">
<polygon fill="white" stroke="#666666" points="405,-920 277,-920 277,-890 405,-890 405,-920"/>
<text text-anchor="start" x="285" y="-908" font-family="Helvetica,sans-Serif" font-size="10.00">m_bubbles::s_advance</text>
<text text-anchor="middle" x="341" y="-897" font-family="Helvetica,sans-Serif" font-size="10.00">_substep</text>
</a>
</g>
</g>
<!-- Node1&#45;&gt;Node8 -->
<g id="edge40_Node000001_Node000008" class="edge">
<title>Node1&#45;&gt;Node8</title>
<g id="a_edge40_Node000001_Node000008"><a xlink:title=" ">
<path fill="none" stroke="#63b8ff" d="M1048.52,-352.4C1037.59,-448.33 984.03,-788.34 767,-892 649.26,-948.23 491.51,-933.01 405.12,-918.2"/>
<polygon fill="#63b8ff" stroke="#63b8ff" points="1052.03,-352.5 1049.63,-342.19 1045.07,-351.75 1052.03,-352.5"/>
</a>
</g>
</g>
<!-- Node24 -->
<g id="Node000024" class="node">
<title>Node24</title>
<g id="a_Node000024"><a xlink:href="namespacem__patch__geometries.html#afeec9dce9eb3814e5a76863a1f29aefe" target="_top" xlink:title="Check if the x, y, are bounded by a NACA airfoil. Check if the z coordinate is inside the left and ri...">
<polygon fill="white" stroke="#666666" points="933.5,-126 814.5,-126 814.5,-96 933.5,-96 933.5,-126"/>
<text text-anchor="start" x="822.5" y="-114" font-family="Helvetica,sans-Serif" font-size="10.00">m_patch_geometries</text>
<text text-anchor="middle" x="874" y="-103" font-family="Helvetica,sans-Serif" font-size="10.00">::f_is_inside_airfoil</text>
</a>
</g>
</g>
<!-- Node1&#45;&gt;Node24 -->
<g id="edge32_Node000001_Node000024" class="edge">
<title>Node1&#45;&gt;Node24</title>
<g id="a_edge32_Node000001_Node000024"><a xlink:title=" ">
<path fill="none" stroke="#63b8ff" d="M1043.78,-302.18C1030.72,-261.5 999.33,-180.6 945,-135 940.87,-131.53 936.21,-128.55 931.3,-126"/>
<polygon fill="#63b8ff" stroke="#63b8ff" points="1040.48,-303.33 1046.78,-311.84 1047.16,-301.26 1040.48,-303.33"/>
</a>
</g>
</g>
<!-- Node28 -->
<g id="Node000028" class="node">
<title>Node28</title>
<g id="a_Node000028"><a xlink:href="namespacem__helper__basic.html#a2c677da1905f9b1c52e69ae431bfb70d" target="_top" xlink:title="Check if a real(wp) variable is an integer.">
<polygon fill="white" stroke="#666666" points="932,-78 816,-78 816,-48 932,-48 932,-78"/>
<text text-anchor="start" x="824" y="-66" font-family="Helvetica,sans-Serif" font-size="10.00">m_helper_basic::f_is</text>
<text text-anchor="middle" x="874" y="-55" font-family="Helvetica,sans-Serif" font-size="10.00">_integer</text>
</a>
</g>
</g>
<!-- Node1&#45;&gt;Node28 -->
<g id="edge37_Node000001_Node000028" class="edge">
<title>Node1&#45;&gt;Node28</title>
<g id="a_edge37_Node000001_Node000028"><a xlink:title=" ">
<path fill="none" stroke="#63b8ff" d="M1046.79,-301.98C1037.36,-253.59 1010.05,-146.7 945,-87 941.21,-83.53 936.9,-80.55 932.32,-78"/>
<polygon fill="#63b8ff" stroke="#63b8ff" points="1043.37,-302.72 1048.63,-311.91 1050.25,-301.44 1043.37,-302.72"/>
</a>
</g>
</g>
<!-- Node29 -->
<g id="Node000029" class="node">
<title>Node29</title>
<g id="a_Node000029"><a xlink:href="namespacem__compute__levelset.html#a95613d71a22ce8f5dbabd10091129177" target="_top" xlink:title="Compute the signed distance and outward normal from a ghost point to a 3D extruded airfoil surface.">
<polygon fill="white" stroke="#666666" points="749,-472 626,-472 626,-442 749,-442 749,-472"/>
<text text-anchor="start" x="634" y="-460" font-family="Helvetica,sans-Serif" font-size="10.00">m_compute_levelset</text>
<text text-anchor="middle" x="687.5" y="-449" font-family="Helvetica,sans-Serif" font-size="10.00">::s_3d_airfoil_levelset</text>
</a>
</g>
</g>
<!-- Node1&#45;&gt;Node29 -->
<g id="edge38_Node000001_Node000029" class="edge">
<title>Node1&#45;&gt;Node29</title>
<g id="a_edge38_Node000001_Node000029"><a xlink:title=" ">
<path fill="none" stroke="#63b8ff" d="M1041.53,-351.27C1026.76,-385.31 994.67,-445.89 945,-471 877.14,-505.31 785.9,-487.71 732.51,-472.12"/>
<polygon fill="#63b8ff" stroke="#63b8ff" points="1044.77,-352.6 1045.4,-342.02 1038.31,-349.9 1044.77,-352.6"/>
</a>
</g>
</g>
<!-- Node30 -->
<g id="Node000030" class="node">
<title>Node30</title>
<g id="a_Node000030"><a xlink:href="namespacem__compute__levelset.html#a529fdd339b896d1bf009d98e84aeef15" target="_top" xlink:title="Compute the signed distance and outward normal from a ghost point to a 2D NACA airfoil surface.">
<polygon fill="white" stroke="#666666" points="933.5,-462 814.5,-462 814.5,-432 933.5,-432 933.5,-462"/>
<text text-anchor="start" x="822.5" y="-450" font-family="Helvetica,sans-Serif" font-size="10.00">m_compute_levelset</text>
<text text-anchor="middle" x="874" y="-439" font-family="Helvetica,sans-Serif" font-size="10.00">::s_airfoil_levelset</text>
</a>
</g>
</g>
<!-- Node1&#45;&gt;Node30 -->
<g id="edge41_Node000001_Node000030" class="edge">
<title>Node1&#45;&gt;Node30</title>
<g id="a_edge41_Node000001_Node000030"><a xlink:title=" ">
<path fill="none" stroke="#63b8ff" d="M1031.34,-349.45C1011.46,-370.95 978.9,-403 945,-423 939.36,-426.33 933.18,-429.29 926.92,-431.88"/>
<polygon fill="#63b8ff" stroke="#63b8ff" points="1033.94,-351.8 1038.08,-342.05 1028.76,-347.09 1033.94,-351.8"/>
</a>
</g>
</g>
<!-- Node31 -->
<g id="Node000031" class="node">
<title>Node31</title>
<g id="a_Node000031"><a xlink:href="namespacem__compute__levelset.html#a61b7c8634628af91ec451ab8678abb63" target="_top" xlink:title="Compute the signed distance and outward normal from a ghost point to a circular immersed boundary.">
<polygon fill="white" stroke="#666666" points="933.5,-414 814.5,-414 814.5,-384 933.5,-384 933.5,-414"/>
<text text-anchor="start" x="822.5" y="-402" font-family="Helvetica,sans-Serif" font-size="10.00">m_compute_levelset</text>
<text text-anchor="middle" x="874" y="-391" font-family="Helvetica,sans-Serif" font-size="10.00">::s_circle_levelset</text>
</a>
</g>
</g>
<!-- Node1&#45;&gt;Node31 -->
<g id="edge43_Node000001_Node000031" class="edge">
<title>Node1&#45;&gt;Node31</title>
<g id="a_edge43_Node000001_Node000031"><a xlink:title=" ">
<path fill="none" stroke="#63b8ff" d="M1010.55,-346.41C990.95,-355.53 966.95,-366.29 945,-375 937.24,-378.08 928.9,-381.14 920.79,-384"/>
<polygon fill="#63b8ff" stroke="#63b8ff" points="1012.23,-349.49 1019.8,-342.07 1009.26,-343.15 1012.23,-349.49"/>
</a>
</g>
</g>
<!-- Node32 -->
<g id="Node000032" class="node">
<title>Node32</title>
<g id="a_Node000032"><a xlink:href="namespacem__compute__levelset.html#ae7506472018ff5bc034c31181733daee" target="_top" xlink:title="Compute the signed distance and outward normal from a ghost point to a cuboid immersed boundary.">
<polygon fill="white" stroke="#666666" points="933.5,-366 814.5,-366 814.5,-336 933.5,-336 933.5,-366"/>
<text text-anchor="start" x="822.5" y="-354" font-family="Helvetica,sans-Serif" font-size="10.00">m_compute_levelset</text>
<text text-anchor="middle" x="874" y="-343" font-family="Helvetica,sans-Serif" font-size="10.00">::s_cuboid_levelset</text>
</a>
</g>
</g>
<!-- Node1&#45;&gt;Node32 -->
<g id="edge45_Node000001_Node000032" class="edge">
<title>Node1&#45;&gt;Node32</title>
<g id="a_edge45_Node000001_Node000032"><a xlink:title=" ">
<path fill="none" stroke="#63b8ff" d="M970.9,-337.92C958.3,-339.64 945.49,-341.39 933.5,-343.02"/>
<polygon fill="#63b8ff" stroke="#63b8ff" points="971.5,-341.37 980.93,-336.55 970.55,-334.44 971.5,-341.37"/>
</a>
</g>
</g>
<!-- Node33 -->
<g id="Node000033" class="node">
<title>Node33</title>
<g id="a_Node000033"><a xlink:href="namespacem__compute__levelset.html#a8d06a7ad175527cdeb9e3aed47a94d78" target="_top" xlink:title="Compute the signed distance and outward normal from a ghost point to a cylindrical immersed boundary.">
<polygon fill="white" stroke="#666666" points="933.5,-318 814.5,-318 814.5,-288 933.5,-288 933.5,-318"/>
<text text-anchor="start" x="822.5" y="-306" font-family="Helvetica,sans-Serif" font-size="10.00">m_compute_levelset</text>
<text text-anchor="middle" x="874" y="-295" font-family="Helvetica,sans-Serif" font-size="10.00">::s_cylinder_levelset</text>
</a>
</g>
</g>
<!-- Node1&#45;&gt;Node33 -->
<g id="edge47_Node000001_Node000033" class="edge">
<title>Node1&#45;&gt;Node33</title>
<g id="a_edge47_Node000001_Node000033"><a xlink:title=" ">
<path fill="none" stroke="#63b8ff" d="M970.9,-316.08C958.3,-314.36 945.49,-312.61 933.5,-310.98"/>
<polygon fill="#63b8ff" stroke="#63b8ff" points="970.55,-319.56 980.93,-317.45 971.5,-312.63 970.55,-319.56"/>
</a>
</g>
</g>
<!-- Node34 -->
<g id="Node000034" class="node">
<title>Node34</title>
<g id="a_Node000034"><a xlink:href="namespacem__compute__levelset.html#abb0e0b701082d92ef471ab50bea5e772" target="_top" xlink:title="Compute the signed distance and outward normal from a ghost point to a 2D rectangle.">
<polygon fill="white" stroke="#666666" points="935.5,-270 812.5,-270 812.5,-240 935.5,-240 935.5,-270"/>
<text text-anchor="start" x="820.5" y="-258" font-family="Helvetica,sans-Serif" font-size="10.00">m_compute_levelset</text>
<text text-anchor="middle" x="874" y="-247" font-family="Helvetica,sans-Serif" font-size="10.00">::s_rectangle_levelset</text>
</a>
</g>
</g>
<!-- Node1&#45;&gt;Node34 -->
<g id="edge49_Node000001_Node000034" class="edge">
<title>Node1&#45;&gt;Node34</title>
<g id="a_edge49_Node000001_Node000034"><a xlink:title=" ">
<path fill="none" stroke="#63b8ff" d="M1010.55,-307.59C990.95,-298.47 966.95,-287.71 945,-279 937.24,-275.92 928.9,-272.86 920.79,-270"/>
<polygon fill="#63b8ff" stroke="#63b8ff" points="1009.26,-310.85 1019.8,-311.93 1012.23,-304.51 1009.26,-310.85"/>
</a>
</g>
</g>
<!-- Node35 -->
<g id="Node000035" class="node">
<title>Node35</title>
<g id="a_Node000035"><a xlink:href="namespacem__compute__levelset.html#a54445fc4a04b39ca1342ce7a14025db4" target="_top" xlink:title="Compute the signed distance and outward normal from a ghost point to a spherical immersed boundary.">
<polygon fill="white" stroke="#666666" points="933.5,-222 814.5,-222 814.5,-192 933.5,-192 933.5,-222"/>
<text text-anchor="start" x="822.5" y="-210" font-family="Helvetica,sans-Serif" font-size="10.00">m_compute_levelset</text>
<text text-anchor="middle" x="874" y="-199" font-family="Helvetica,sans-Serif" font-size="10.00">::s_sphere_levelset</text>
</a>
</g>
</g>
<!-- Node1&#45;&gt;Node35 -->
<g id="edge51_Node000001_Node000035" class="edge">
<title>Node1&#45;&gt;Node35</title>
<g id="a_edge51_Node000001_Node000035"><a xlink:title=" ">
<path fill="none" stroke="#63b8ff" d="M1031.34,-304.55C1011.46,-283.05 978.9,-251 945,-231 939.36,-227.67 933.18,-224.71 926.92,-222.12"/>
<polygon fill="#63b8ff" stroke="#63b8ff" points="1028.76,-306.91 1038.08,-311.95 1033.94,-302.2 1028.76,-306.91"/>
</a>
</g>
</g>
<!-- Node36 -->
<g id="Node000036" class="node">
<title>Node36</title>
<g id="a_Node000036"><a xlink:href="namespacem__data__output.html#ac4254f90208d2808b6b214e857e79d9a" target="_top" xlink:title="Write stability criteria extrema to the run&#45;time information file at the given time step.">
<polygon fill="white" stroke="#666666" points="939.5,-30 808.5,-30 808.5,0 939.5,0 939.5,-30"/>
<text text-anchor="start" x="816.5" y="-18" font-family="Helvetica,sans-Serif" font-size="10.00">m_data_output::s_write</text>
<text text-anchor="middle" x="874" y="-7" font-family="Helvetica,sans-Serif" font-size="10.00">_run_time_information</text>
</a>
</g>
</g>
<!-- Node1&#45;&gt;Node36 -->
<g id="edge53_Node000001_Node000036" class="edge">
<title>Node1&#45;&gt;Node36</title>
<g id="a_edge53_Node000001_Node000036"><a xlink:title=" ">
<path fill="none" stroke="#63b8ff" d="M1048.87,-301.73C1042.86,-246.33 1020.89,-113.21 945,-39 941.51,-35.59 937.51,-32.66 933.24,-30.15"/>
<polygon fill="#63b8ff" stroke="#63b8ff" points="1045.39,-302.13 1049.87,-311.74 1052.36,-301.44 1045.39,-302.13"/>
</a>
</g>
</g>
<!-- Node5 -->
<g id="Node000005" class="node">
<title>Node5</title>
<g id="a_Node000005"><a xlink:href="namespacem__helper__basic.html#a2a51671bfbfddf6ecabbc9593be49e1d" target="_top" xlink:title="Check if ALL elements of a real(wp) array are of default value.">
<polygon fill="white" stroke="#666666" points="747.5,-772 627.5,-772 627.5,-742 747.5,-742 747.5,-772"/>
<text text-anchor="start" x="635.5" y="-760" font-family="Helvetica,sans-Serif" font-size="10.00">m_helper_basic::f_all</text>
<text text-anchor="middle" x="687.5" y="-749" font-family="Helvetica,sans-Serif" font-size="10.00">_default</text>
</a>
</g>
</g>
<!-- Node4&#45;&gt;Node5 -->
<g id="edge4_Node000004_Node000005" class="edge">
<title>Node4&#45;&gt;Node5</title>
<g id="a_edge4_Node000004_Node000005"><a xlink:title=" ">
<path fill="none" stroke="#63b8ff" d="M846.54,-682.29C825.88,-698.07 795.92,-719.15 767,-733 760.06,-736.32 752.55,-739.31 745.03,-741.96"/>
<polygon fill="#63b8ff" stroke="#63b8ff" points="848.76,-685 854.52,-676.11 844.47,-679.47 848.76,-685"/>
</a>
</g>
</g>
<!-- Node6 -->
<g id="Node000006" class="node">
<title>Node6</title>
<g id="a_Node000006"><a xlink:href="namespacem__bubbles.html#a8d416603cfcd7a26400ca3a3e8fd36da" target="_top" xlink:title="Keller&#45;Miksis bubble wall pressure.">
<polygon fill="white" stroke="#666666" points="753,-809.5 622,-809.5 622,-790.5 753,-790.5 753,-809.5"/>
<text text-anchor="middle" x="687.5" y="-797.5" font-family="Helvetica,sans-Serif" font-size="10.00">m_bubbles::f_cpbw_km</text>
</a>
</g>
</g>
<!-- Node4&#45;&gt;Node6 -->
<g id="edge5_Node000004_Node000006" class="edge">
<title>Node4&#45;&gt;Node6</title>
<g id="a_edge5_Node000004_Node000006"><a xlink:title=" ">
<path fill="none" stroke="#63b8ff" d="M858.5,-684.8C840.51,-712.27 807.21,-756.77 767,-781 760.51,-784.91 753.27,-788.01 745.88,-790.48"/>
<polygon fill="#63b8ff" stroke="#63b8ff" points="861.57,-686.5 864.01,-676.19 855.67,-682.73 861.57,-686.5"/>
</a>
</g>
</g>
<!-- Node12 -->
<g id="Node000012" class="node">
<title>Node12</title>
<g id="a_Node000012"><a xlink:href="namespacem__bubbles.html#ae36e0bb77cb60ad0234efb590375320d" target="_top" xlink:title="Keller&#45;Miksis bubble radial acceleration.">
<polygon fill="white" stroke="#666666" points="753,-864.5 622,-864.5 622,-845.5 753,-845.5 753,-864.5"/>
<text text-anchor="middle" x="687.5" y="-852.5" font-family="Helvetica,sans-Serif" font-size="10.00">m_bubbles::f_rddot_km</text>
</a>
</g>
</g>
<!-- Node4&#45;&gt;Node12 -->
<g id="edge15_Node000004_Node000012" class="edge">
<title>Node4&#45;&gt;Node12</title>
<g id="a_edge15_Node000004_Node000012"><a xlink:title=" ">
<path fill="none" stroke="#63b8ff" d="M865.11,-685.97C851.56,-724.64 820.07,-798.55 767,-837 762.36,-840.36 757.19,-843.11 751.78,-845.35"/>
<polygon fill="#63b8ff" stroke="#63b8ff" points="868.58,-686.65 868.46,-676.06 861.95,-684.41 868.58,-686.65"/>
</a>
</g>
</g>
<!-- Node13 -->
<g id="Node000013" class="node">
<title>Node13</title>
<g id="a_Node000013"><a xlink:href="namespacem__checker.html#a90a9d8f1dff4e785640769a2170e24b0" target="_top" xlink:title="Checks that each active synthetic&#45;turbulence forcing zone has a fully specified position and a positi...">
<polygon fill="white" stroke="#666666" points="767,-724 608,-724 608,-694 767,-694 767,-724"/>
<text text-anchor="start" x="616" y="-712" font-family="Helvetica,sans-Serif" font-size="10.00">m_checker::s_check</text>
<text text-anchor="middle" x="687.5" y="-701" font-family="Helvetica,sans-Serif" font-size="10.00">_inputs_synthetic_turbulence</text>
</a>
</g>
</g>
<!-- Node4&#45;&gt;Node13 -->
<g id="edge18_Node000004_Node000013" class="edge">
<title>Node4&#45;&gt;Node13</title>
<g id="a_edge18_Node000004_Node000013"><a xlink:title=" ">
<path fill="none" stroke="#63b8ff" d="M806.12,-678.4C786.52,-683.5 765.27,-689.03 746.3,-693.96"/>
<polygon fill="#63b8ff" stroke="#63b8ff" points="807.09,-681.76 815.89,-675.86 805.33,-674.99 807.09,-681.76"/>
</a>
</g>
</g>
<!-- Node18 -->
<g id="Node000018" class="node">
<title>Node18</title>
<g id="a_Node000018"><a xlink:href="namespacem__acoustic__src.html#ab35bc877e24a62748ab7df0548ebd08d" target="_top" xlink:title="Initialize the acoustic source module.">
<polygon fill="white" stroke="#666666" points="762.5,-676 612.5,-676 612.5,-646 762.5,-646 762.5,-676"/>
<text text-anchor="start" x="620.5" y="-664" font-family="Helvetica,sans-Serif" font-size="10.00">m_acoustic_src::s_initialize</text>
<text text-anchor="middle" x="687.5" y="-653" font-family="Helvetica,sans-Serif" font-size="10.00">_acoustic_src</text>
</a>
</g>
</g>
<!-- Node4&#45;&gt;Node18 -->
<g id="edge23_Node000004_Node000018" class="edge">
<title>Node4&#45;&gt;Node18</title>
<g id="a_edge23_Node000004_Node000018"><a xlink:title=" ">
<path fill="none" stroke="#63b8ff" d="M805.84,-661C791.81,-661 776.93,-661 762.67,-661"/>
<polygon fill="#63b8ff" stroke="#63b8ff" points="805.89,-664.5 815.89,-661 805.89,-657.5 805.89,-664.5"/>
</a>
</g>
</g>
<!-- Node20 -->
<g id="Node000020" class="node">
<title>Node20</title>
<g id="a_Node000020"><a xlink:href="namespacem__global__parameters.html#a7d78db66d7d2bd3001d7a7ef981b0d87" target="_top" xlink:title="Initialize the global parameters module.">
<polygon fill="white" stroke="#666666" points="749,-627.5 626,-627.5 626,-586.5 749,-586.5 749,-627.5"/>
<text text-anchor="start" x="634" y="-615.5" font-family="Helvetica,sans-Serif" font-size="10.00">m_global_parameters</text>
<text text-anchor="start" x="634" y="-604.5" font-family="Helvetica,sans-Serif" font-size="10.00">::s_initialize_global</text>
<text text-anchor="middle" x="687.5" y="-593.5" font-family="Helvetica,sans-Serif" font-size="10.00">_parameters_module</text>
</a>
</g>
</g>
<!-- Node4&#45;&gt;Node20 -->
<g id="edge26_Node000004_Node000020" class="edge">
<title>Node4&#45;&gt;Node20</title>
<g id="a_edge26_Node000004_Node000020"><a xlink:title=" ">
<path fill="none" stroke="#63b8ff" d="M811.89,-643.12C791.7,-637.2 769.25,-630.63 749.09,-624.73"/>
<polygon fill="#63b8ff" stroke="#63b8ff" points="811.03,-646.51 821.61,-645.96 812.99,-639.79 811.03,-646.51"/>
</a>
</g>
</g>
<!-- Node21 -->
<g id="Node000021" class="node">
<title>Node21</title>
<g id="a_Node000021"><a xlink:href="namespacem__qbmm.html#aeefcb72401bfdb35dcdd81104e647a15" target="_top" xlink:title="Initialize the QBMM module.">
<polygon fill="white" stroke="#666666" points="748.5,-568 626.5,-568 626.5,-538 748.5,-538 748.5,-568"/>
<text text-anchor="start" x="634.5" y="-556" font-family="Helvetica,sans-Serif" font-size="10.00">m_qbmm::s_initialize</text>
<text text-anchor="middle" x="687.5" y="-545" font-family="Helvetica,sans-Serif" font-size="10.00">_qbmm_module</text>
</a>
</g>
</g>
<!-- Node4&#45;&gt;Node21 -->
<g id="edge28_Node000004_Node000021" class="edge">
<title>Node4&#45;&gt;Node21</title>
<g id="a_edge28_Node000004_Node000021"><a xlink:title=" ">
<path fill="none" stroke="#63b8ff" d="M849.86,-638.88C829.46,-620.39 798.19,-594.49 767,-578 759.92,-574.26 752.18,-570.95 744.41,-568.08"/>
<polygon fill="#63b8ff" stroke="#63b8ff" points="847.66,-641.61 857.39,-645.8 852.4,-636.46 847.66,-641.61"/>
</a>
</g>
</g>
<!-- Node22 -->
<g id="Node000022" class="node">
<title>Node22</title>
<g id="a_Node000022"><a xlink:href="namespacem__compute__levelset.html#adadad13569efd08e6caa0cb5b7157942" target="_top" xlink:title="The STL patch is a 2/3D geometry that is imported from an STL file.">
<polygon fill="white" stroke="#666666" points="747,-520 628,-520 628,-490 747,-490 747,-520"/>
<text text-anchor="start" x="636" y="-508" font-family="Helvetica,sans-Serif" font-size="10.00">m_compute_levelset</text>
<text text-anchor="middle" x="687.5" y="-497" font-family="Helvetica,sans-Serif" font-size="10.00">::s_model_levelset</text>
</a>
</g>
</g>
<!-- Node4&#45;&gt;Node22 -->
<g id="edge30_Node000004_Node000022" class="edge">
<title>Node4&#45;&gt;Node22</title>
<g id="a_edge30_Node000004_Node000022"><a xlink:title=" ">
<path fill="none" stroke="#63b8ff" d="M859.88,-637.03C842.45,-607.4 808.94,-557.41 767,-529 760.98,-524.92 754.25,-521.52 747.32,-518.68"/>
<polygon fill="#63b8ff" stroke="#63b8ff" points="856.94,-638.95 864.96,-645.88 863.01,-635.47 856.94,-638.95"/>
</a>
</g>
</g>
<!-- Node6&#45;&gt;Node6 -->
<g id="edge6_Node000006_Node000006" class="edge">
<title>Node6&#45;&gt;Node6</title>
<g id="a_edge6_Node000006_Node000006"><a xlink:title=" ">
<path fill="none" stroke="#63b8ff" d="M721.18,-817.95C720.22,-823.32 708.99,-827.5 687.5,-827.5 655.51,-827.5 646.26,-818.23 659.76,-809.58"/>
<polygon fill="#63b8ff" stroke="#63b8ff" points="723.89,-815.71 715.24,-809.58 718.18,-819.76 723.89,-815.71"/>
</a>
</g>
</g>
<!-- Node7 -->
<g id="Node000007" class="node">
<title>Node7</title>
<g id="a_Node000007"><a xlink:href="namespacem__bubbles.html#aaf414a5ec7301d71ef8093914fbe6c37" target="_top" xlink:title="Compute the bubble radial acceleration based on the selected bubble model.">
<polygon fill="white" stroke="#666666" points="561.5,-864.5 451.5,-864.5 451.5,-845.5 561.5,-845.5 561.5,-864.5"/>
<text text-anchor="middle" x="506.5" y="-852.5" font-family="Helvetica,sans-Serif" font-size="10.00">m_bubbles::f_rddot</text>
</a>
</g>
</g>
<!-- Node6&#45;&gt;Node7 -->
<g id="edge7_Node000006_Node000007" class="edge">
<title>Node6&#45;&gt;Node7</title>
<g id="a_edge7_Node000006_Node000007"><a xlink:title=" ">
<path fill="none" stroke="#63b8ff" d="M645.65,-812.55C613.13,-822.54 568.29,-836.32 538.62,-845.44"/>
<polygon fill="#63b8ff" stroke="#63b8ff" points="646.79,-815.86 655.32,-809.58 644.73,-809.17 646.79,-815.86"/>
</a>
</g>
</g>
<!-- Node10 -->
<g id="Node000010" class="node">
<title>Node10</title>
<g id="a_Node000010"><a xlink:href="namespacem__riemann__solver__hllc.html#a1aa7ec60f1cdf82447547835d45e1021" target="_top" xlink:title="HLLC Riemann solver with contact restoration, Toro et al. Shock Waves (1994).">
<polygon fill="white" stroke="#666666" points="572,-815 441,-815 441,-785 572,-785 572,-815"/>
<text text-anchor="start" x="449" y="-803" font-family="Helvetica,sans-Serif" font-size="10.00">m_riemann_solver_hllc</text>
<text text-anchor="middle" x="506.5" y="-792" font-family="Helvetica,sans-Serif" font-size="10.00">::s_hllc_riemann_solver</text>
</a>
</g>
</g>
<!-- Node6&#45;&gt;Node10 -->
<g id="edge13_Node000006_Node000010" class="edge">
<title>Node6&#45;&gt;Node10</title>
<g id="a_edge13_Node000006_Node000010"><a xlink:title=" ">
<path fill="none" stroke="#63b8ff" d="M611.86,-800C598.63,-800 584.95,-800 572.03,-800"/>
<polygon fill="#63b8ff" stroke="#63b8ff" points="611.88,-803.5 621.88,-800 611.88,-796.5 611.88,-803.5"/>
</a>
</g>
</g>
<!-- Node7&#45;&gt;Node7 -->
<g id="edge8_Node000007_Node000007" class="edge">
<title>Node7&#45;&gt;Node7</title>
<g id="a_edge8_Node000007_Node000007"><a xlink:title=" ">
<path fill="none" stroke="#63b8ff" d="M537.11,-873.32C535.83,-878.51 525.63,-882.5 506.5,-882.5 477.35,-882.5 468.93,-873.23 481.22,-864.58"/>
<polygon fill="#63b8ff" stroke="#63b8ff" points="539.98,-871.29 531.78,-864.58 534,-874.94 539.98,-871.29"/>
</a>
</g>
</g>
<!-- Node7&#45;&gt;Node8 -->
<g id="edge9_Node000007_Node000008" class="edge">
<title>Node7&#45;&gt;Node8</title>
<g id="a_edge9_Node000007_Node000008"><a xlink:title=" ">
<path fill="none" stroke="#63b8ff" d="M464.57,-867.52C442.36,-874.31 414.74,-882.75 391.35,-889.91"/>
<polygon fill="#63b8ff" stroke="#63b8ff" points="465.82,-870.79 474.36,-864.52 463.78,-864.1 465.82,-870.79"/>
</a>
</g>
</g>
<!-- Node9 -->
<g id="Node000009" class="node">
<title>Node9</title>
<g id="a_Node000009"><a xlink:href="namespacem__bubbles.html#a4b48725a84a60c73af7e378ffc3d3438" target="_top" xlink:title="Choose the initial time step size for the adaptive time stepping routine (See Heirer,...">
<polygon fill="white" stroke="#666666" points="398,-871 284,-871 284,-841 398,-841 398,-871"/>
<text text-anchor="start" x="292" y="-859" font-family="Helvetica,sans-Serif" font-size="10.00">m_bubbles::s_initial</text>
<text text-anchor="middle" x="341" y="-848" font-family="Helvetica,sans-Serif" font-size="10.00">_substep_h</text>
</a>
</g>
</g>
<!-- Node7&#45;&gt;Node9 -->
<g id="edge11_Node000007_Node000009" class="edge">
<title>Node7&#45;&gt;Node9</title>
<g id="a_edge11_Node000007_Node000009"><a xlink:title=" ">
<path fill="none" stroke="#63b8ff" d="M440.92,-855.39C426.78,-855.48 411.93,-855.57 398.16,-855.66"/>
<polygon fill="#63b8ff" stroke="#63b8ff" points="441.08,-858.89 451.06,-855.33 441.04,-851.89 441.08,-858.89"/>
</a>
</g>
</g>
<!-- Node8&#45;&gt;Node2 -->
<g id="edge10_Node000008_Node000002" class="edge">
<title>Node8&#45;&gt;Node2</title>
<g id="a_edge10_Node000008_Node000002"><a xlink:title=" ">
<path fill="none" stroke="#63b8ff" d="M266.53,-905C258.12,-905 249.53,-905 241.09,-905"/>
<polygon fill="#63b8ff" stroke="#63b8ff" points="266.69,-908.5 276.69,-905 266.69,-901.5 266.69,-908.5"/>
</a>
</g>
</g>
<!-- Node9&#45;&gt;Node2 -->
<g id="edge12_Node000009_Node000002" class="edge">
<title>Node9&#45;&gt;Node2</title>
<g id="a_edge12_Node000009_Node000002"><a xlink:title=" ">
<path fill="none" stroke="#63b8ff" d="M276.58,-873.86C250.58,-881.18 221.54,-889.36 199.74,-895.5"/>
<polygon fill="#63b8ff" stroke="#63b8ff" points="277.7,-877.18 286.37,-871.1 275.8,-870.44 277.7,-877.18"/>
</a>
</g>
</g>
<!-- Node11 -->
<g id="Node000011" class="node">
<title>Node11</title>
<g id="a_Node000011"><a xlink:href="namespacem__riemann__solvers.html#a8d00c5352ee6b6f1628cde6d34ad5e08" target="_top" xlink:title="Dispatch to the subroutines that are utilized to compute the Riemann problem solution....">
<polygon fill="white" stroke="#666666" points="400.5,-815 281.5,-815 281.5,-785 400.5,-785 400.5,-815"/>
<text text-anchor="start" x="289.5" y="-803" font-family="Helvetica,sans-Serif" font-size="10.00">m_riemann_solvers::</text>
<text text-anchor="middle" x="341" y="-792" font-family="Helvetica,sans-Serif" font-size="10.00">s_riemann_solver</text>
</a>
</g>
</g>
<!-- Node10&#45;&gt;Node11 -->
<g id="edge14_Node000010_Node000011" class="edge">
<title>Node10&#45;&gt;Node11</title>
<g id="a_edge14_Node000010_Node000011"><a xlink:title=" ">
<path fill="none" stroke="#63b8ff" d="M430.81,-800C420.67,-800 410.38,-800 400.58,-800"/>
<polygon fill="#63b8ff" stroke="#63b8ff" points="430.88,-803.5 440.88,-800 430.88,-796.5 430.88,-803.5"/>
</a>
</g>
</g>
<!-- Node12&#45;&gt;Node7 -->
<g id="edge16_Node000012_Node000007" class="edge">
<title>Node12&#45;&gt;Node7</title>
<g id="a_edge16_Node000012_Node000007"><a xlink:title=" ">
<path fill="none" stroke="#63b8ff" d="M611.57,-855C594.84,-855 577.41,-855 561.71,-855"/>
<polygon fill="#63b8ff" stroke="#63b8ff" points="611.88,-858.5 621.88,-855 611.88,-851.5 611.88,-858.5"/>
</a>
</g>
</g>
<!-- Node12&#45;&gt;Node12 -->
<g id="edge17_Node000012_Node000012" class="edge">
<title>Node12&#45;&gt;Node12</title>
<g id="a_edge17_Node000012_Node000012"><a xlink:title=" ">
<path fill="none" stroke="#63b8ff" d="M721.18,-872.95C720.22,-878.32 708.99,-882.5 687.5,-882.5 655.51,-882.5 646.26,-873.23 659.76,-864.58"/>
<polygon fill="#63b8ff" stroke="#63b8ff" points="723.89,-870.71 715.24,-864.58 718.18,-874.76 723.89,-870.71"/>
</a>
</g>
</g>
<!-- Node14 -->
<g id="Node000014" class="node">
<title>Node14</title>
<g id="a_Node000014"><a xlink:href="namespacem__checker.html#a214e05cb46bc7c3e0dbe55fdc433c072" target="_top" xlink:title="Checks compatibility of parameters in the input file. Used by the simulation stage.">
<polygon fill="white" stroke="#666666" points="563.5,-709 449.5,-709 449.5,-679 563.5,-679 563.5,-709"/>
<text text-anchor="start" x="457.5" y="-697" font-family="Helvetica,sans-Serif" font-size="10.00">m_checker::s_check</text>
<text text-anchor="middle" x="506.5" y="-686" font-family="Helvetica,sans-Serif" font-size="10.00">_inputs</text>
</a>
</g>
</g>
<!-- Node13&#45;&gt;Node14 -->
<g id="edge19_Node000013_Node000014" class="edge">
<title>Node13&#45;&gt;Node14</title>
<g id="a_edge19_Node000013_Node000014"><a xlink:title=" ">
<path fill="none" stroke="#63b8ff" d="M597.79,-701.57C586.16,-700.59 574.51,-699.62 563.64,-698.7"/>
<polygon fill="#63b8ff" stroke="#63b8ff" points="597.73,-705.07 607.99,-702.42 598.32,-698.1 597.73,-705.07"/>
</a>
</g>
</g>
<!-- Node15 -->
<g id="Node000015" class="node">
<title>Node15</title>
<g id="a_Node000015"><a xlink:href="namespacem__start__up.html#ad26e747c87bb6bcf4c9d6baa21d044c1" target="_top" xlink:title="Validate that all user&#45;provided inputs form a consistent simulation configuration.">
<polygon fill="white" stroke="#666666" points="399,-680 283,-680 283,-650 399,-650 399,-680"/>
<text text-anchor="start" x="291" y="-668" font-family="Helvetica,sans-Serif" font-size="10.00">m_start_up::s_check</text>
<text text-anchor="middle" x="341" y="-657" font-family="Helvetica,sans-Serif" font-size="10.00">_input_file</text>
</a>
</g>
</g>
<!-- Node14&#45;&gt;Node15 -->
<g id="edge20_Node000014_Node000015" class="edge">
<title>Node14&#45;&gt;Node15</title>
<g id="a_edge20_Node000014_Node000015"><a xlink:title=" ">
<path fill="none" stroke="#63b8ff" d="M439.22,-682.24C425.96,-679.89 412.13,-677.44 399.2,-675.15"/>
<polygon fill="#63b8ff" stroke="#63b8ff" points="438.77,-685.72 449.23,-684.02 440,-678.83 438.77,-685.72"/>
</a>
</g>
</g>
<!-- Node16 -->
<g id="Node000016" class="node">
<title>Node16</title>
<g id="a_Node000016"><a xlink:href="namespacem__start__up.html#ab64542f13c680e17ce8879c77c65c0e0" target="_top" xlink:title="Set up the MPI execution environment, bind GPUs, and decompose the computational domain.">
<polygon fill="white" stroke="#666666" points="230,-676 100,-676 100,-646 230,-646 230,-676"/>
<text text-anchor="start" x="108" y="-664" font-family="Helvetica,sans-Serif" font-size="10.00">m_start_up::s_initialize</text>
<text text-anchor="middle" x="165" y="-653" font-family="Helvetica,sans-Serif" font-size="10.00">_mpi_domain</text>
</a>
</g>
</g>
<!-- Node15&#45;&gt;Node16 -->
<g id="edge21_Node000015_Node000016" class="edge">
<title>Node15&#45;&gt;Node16</title>
<g id="a_edge21_Node000015_Node000016"><a xlink:title=" ">
<path fill="none" stroke="#63b8ff" d="M272.51,-663.45C258.54,-663.13 243.85,-662.79 230.01,-662.47"/>
<polygon fill="#63b8ff" stroke="#63b8ff" points="272.47,-666.95 282.54,-663.68 272.63,-659.95 272.47,-666.95"/>
</a>
</g>
</g>
<!-- Node17 -->
<g id="Node000017" class="node">
<title>Node17</title>
<g id="a_Node000017"><a xlink:href="p__main_8fpp_8f90.html#aeec10ee8e2940c953967da3e374e1579" target="_top" xlink:title="Quasi&#45;conservative, shock&#45; and interface&#45; capturing finite&#45;volume scheme for the multicomponent Navie...">
<polygon fill="white" stroke="#666666" points="53,-641.5 0,-641.5 0,-622.5 53,-622.5 53,-641.5"/>
<text text-anchor="middle" x="26.5" y="-629.5" font-family="Helvetica,sans-Serif" font-size="10.00">p_main</text>
</a>
</g>
</g>
<!-- Node16&#45;&gt;Node17 -->
<g id="edge22_Node000016_Node000017" class="edge">
<title>Node16&#45;&gt;Node17</title>
<g id="a_edge22_Node000016_Node000017"><a xlink:title=" ">
<path fill="none" stroke="#63b8ff" d="M89.71,-645.22C76.62,-642.44 63.83,-639.72 53.29,-637.48"/>
<polygon fill="#63b8ff" stroke="#63b8ff" points="89.24,-648.69 99.75,-647.35 90.69,-641.85 89.24,-648.69"/>
</a>
</g>
</g>
<!-- Node19 -->
<g id="Node000019" class="node">
<title>Node19</title>
<g id="a_Node000019"><a xlink:href="namespacem__start__up.html#a1fb7a3f9d412acd2a9cbcfe8b45006dd" target="_top" xlink:title="Initialize all simulation sub&#45;modules in the required dependency order.">
<polygon fill="white" stroke="#666666" points="571.5,-624 441.5,-624 441.5,-594 571.5,-594 571.5,-624"/>
<text text-anchor="start" x="449.5" y="-612" font-family="Helvetica,sans-Serif" font-size="10.00">m_start_up::s_initialize</text>
<text text-anchor="middle" x="506.5" y="-601" font-family="Helvetica,sans-Serif" font-size="10.00">_modules</text>
</a>
</g>
</g>
<!-- Node18&#45;&gt;Node19 -->
<g id="edge24_Node000018_Node000019" class="edge">
<title>Node18&#45;&gt;Node19</title>
<g id="a_edge24_Node000018_Node000019"><a xlink:title=" ">
<path fill="none" stroke="#63b8ff" d="M625.05,-643.15C603.59,-636.92 579.74,-629.99 559.16,-624.01"/>
<polygon fill="#63b8ff" stroke="#63b8ff" points="624.15,-646.53 634.73,-645.96 626.1,-639.81 624.15,-646.53"/>
</a>
</g>
</g>
<!-- Node19&#45;&gt;Node17 -->
<g id="edge25_Node000019_Node000017" class="edge">
<title>Node19&#45;&gt;Node17</title>
<g id="a_edge25_Node000019_Node000017"><a xlink:title=" ">
<path fill="none" stroke="#63b8ff" d="M430.75,-612.6C321.48,-617.85 123.53,-627.38 53.17,-630.77"/>
<polygon fill="#63b8ff" stroke="#63b8ff" points="431.21,-616.08 441.03,-612.1 430.88,-609.09 431.21,-616.08"/>
</a>
</g>
</g>
<!-- Node20&#45;&gt;Node19 -->
<g id="edge27_Node000020_Node000019" class="edge">
<title>Node20&#45;&gt;Node19</title>
<g id="a_edge27_Node000020_Node000019"><a xlink:title=" ">
<path fill="none" stroke="#63b8ff" d="M615.51,-607.79C601.05,-607.95 585.92,-608.12 571.71,-608.28"/>
<polygon fill="#63b8ff" stroke="#63b8ff" points="615.94,-611.29 625.9,-607.68 615.86,-604.29 615.94,-611.29"/>
</a>
</g>
</g>
<!-- Node21&#45;&gt;Node19 -->
<g id="edge29_Node000021_Node000019" class="edge">
<title>Node21&#45;&gt;Node19</title>
<g id="a_edge29_Node000021_Node000019"><a xlink:title=" ">
<path fill="none" stroke="#63b8ff" d="M628.96,-571C605.29,-578.41 578.19,-586.88 555.6,-593.95"/>
<polygon fill="#63b8ff" stroke="#63b8ff" points="630.03,-574.33 638.53,-568.01 627.94,-567.65 630.03,-574.33"/>
</a>
</g>
</g>
<!-- Node23 -->
<g id="Node000023" class="node">
<title>Node23</title>
<g id="a_Node000023"><a xlink:href="namespacem__compute__levelset.html#a0e6b4900aa4a5fb7b36c59907f76bf54" target="_top" xlink:title="Dispatch level&#45;set distance and normal computations for all ghost points based on patch geometry type...">
<polygon fill="white" stroke="#666666" points="566,-372 447,-372 447,-342 566,-342 566,-372"/>
<text text-anchor="start" x="455" y="-360" font-family="Helvetica,sans-Serif" font-size="10.00">m_compute_levelset</text>
<text text-anchor="middle" x="506.5" y="-349" font-family="Helvetica,sans-Serif" font-size="10.00">::s_apply_levelset</text>
</a>
</g>
</g>
<!-- Node22&#45;&gt;Node23 -->
<g id="edge31_Node000022_Node000023" class="edge">
<title>Node22&#45;&gt;Node23</title>
<g id="a_edge31_Node000022_Node000023"><a xlink:title=" ">
<path fill="none" stroke="#63b8ff" d="M618.44,-487.09C614.81,-485.24 611.3,-483.22 608,-481 564.57,-451.72 530.49,-398.09 515.62,-372.02"/>
<polygon fill="#63b8ff" stroke="#63b8ff" points="617.15,-490.34 627.7,-491.29 620.04,-483.97 617.15,-490.34"/>
</a>
</g>
</g>
<!-- Node25 -->
<g id="Node000025" class="node">
<title>Node25</title>
<g id="a_Node000025"><a xlink:href="namespacem__ib__patches.html#a7ae39b1544784fe4bd5a599a80a1045a" target="_top" xlink:title=" ">
<polygon fill="white" stroke="#666666" points="751.5,-157.5 623.5,-157.5 623.5,-116.5 751.5,-116.5 751.5,-157.5"/>
<text text-anchor="start" x="631.5" y="-145.5" font-family="Helvetica,sans-Serif" font-size="10.00">m_ib_patches::s_apply</text>
<text text-anchor="start" x="631.5" y="-134.5" font-family="Helvetica,sans-Serif" font-size="10.00">_ib_patches_grid_cell</text>
<text text-anchor="middle" x="687.5" y="-123.5" font-family="Helvetica,sans-Serif" font-size="10.00">_parallelism</text>
</a>
</g>
</g>
<!-- Node24&#45;&gt;Node25 -->
<g id="edge33_Node000024_Node000025" class="edge">
<title>Node24&#45;&gt;Node25</title>
<g id="a_edge33_Node000024_Node000025"><a xlink:title=" ">
<path fill="none" stroke="#63b8ff" d="M804.38,-120.67C787.14,-123.1 768.73,-125.69 751.77,-128.08"/>
<polygon fill="#63b8ff" stroke="#63b8ff" points="804.96,-124.12 814.37,-119.26 803.98,-117.19 804.96,-124.12"/>
</a>
</g>
</g>
<!-- Node27 -->
<g id="Node000027" class="node">
<title>Node27</title>
<g id="a_Node000027"><a xlink:href="namespacem__ib__patches.html#a5eb95c7b234b83782c65a50d308c0989" target="_top" xlink:title=" ">
<polygon fill="white" stroke="#666666" points="762,-98 613,-98 613,-68 762,-68 762,-98"/>
<text text-anchor="start" x="621" y="-86" font-family="Helvetica,sans-Serif" font-size="10.00">m_ib_patches::s_apply</text>
<text text-anchor="middle" x="687.5" y="-75" font-family="Helvetica,sans-Serif" font-size="10.00">_ib_patches_ib_parallelism</text>
</a>
</g>
</g>
<!-- Node24&#45;&gt;Node27 -->
<g id="edge35_Node000024_Node000027" class="edge">
<title>Node24&#45;&gt;Node27</title>
<g id="a_edge35_Node000024_Node000027"><a xlink:title=" ">
<path fill="none" stroke="#63b8ff" d="M804.09,-100.54C790.43,-98.47 776.04,-96.29 762.23,-94.19"/>
<polygon fill="#63b8ff" stroke="#63b8ff" points="803.96,-104.06 814.37,-102.1 805.01,-97.14 803.96,-104.06"/>
</a>
</g>
</g>
<!-- Node26 -->
<g id="Node000026" class="node">
<title>Node26</title>
<g id="a_Node000026"><a xlink:href="namespacem__ib__patches.html#ab06da168882fb777f4122978c8ddd91a" target="_top" xlink:title="Apply all immersed boundary patch geometries to mark interior cells in the IB marker array.">
<polygon fill="white" stroke="#666666" points="570.5,-125 442.5,-125 442.5,-95 570.5,-95 570.5,-125"/>
<text text-anchor="start" x="450.5" y="-113" font-family="Helvetica,sans-Serif" font-size="10.00">m_ib_patches::s_apply</text>
<text text-anchor="middle" x="506.5" y="-102" font-family="Helvetica,sans-Serif" font-size="10.00">_ib_patches</text>
</a>
</g>
</g>
<!-- Node25&#45;&gt;Node26 -->
<g id="edge34_Node000025_Node000026" class="edge">
<title>Node25&#45;&gt;Node26</title>
<g id="a_edge34_Node000025_Node000026"><a xlink:title=" ">
<path fill="none" stroke="#63b8ff" d="M613.22,-125.95C599.1,-123.82 584.41,-121.6 570.64,-119.52"/>
<polygon fill="#63b8ff" stroke="#63b8ff" points="612.98,-129.45 623.39,-127.48 614.03,-122.53 612.98,-129.45"/>
</a>
</g>
</g>
<!-- Node27&#45;&gt;Node26 -->
<g id="edge36_Node000027_Node000026" class="edge">
<title>Node27&#45;&gt;Node26</title>
<g id="a_edge36_Node000027_Node000026"><a xlink:title=" ">
<path fill="none" stroke="#63b8ff" d="M602.95,-95.6C592.04,-97.25 581.01,-98.91 570.51,-100.5"/>
<polygon fill="#63b8ff" stroke="#63b8ff" points="603.55,-99.05 612.92,-94.1 602.51,-92.13 603.55,-99.05"/>
</a>
</g>
</g>
<!-- Node29&#45;&gt;Node23 -->
<g id="edge39_Node000029_Node000023" class="edge">
<title>Node29&#45;&gt;Node23</title>
<g id="a_edge39_Node000029_Node000023"><a xlink:title=" ">
<path fill="none" stroke="#63b8ff" d="M630.03,-438.18C622.49,-435.07 614.96,-431.66 608,-428 577.37,-411.88 545.26,-387.73 525.81,-372.17"/>
<polygon fill="#63b8ff" stroke="#63b8ff" points="628.97,-441.52 639.55,-441.93 631.54,-435.01 628.97,-441.52"/>
</a>
</g>
</g>
<!-- Node30&#45;&gt;Node23 -->
<g id="edge42_Node000030_Node000023" class="edge">
<title>Node30&#45;&gt;Node23</title>
<g id="a_edge42_Node000030_Node000023"><a xlink:title=" ">
<path fill="none" stroke="#63b8ff" d="M804.2,-435.27C750.36,-425.48 673.84,-410.21 608,-392 587.52,-386.34 565.16,-378.7 546.74,-372"/>
<polygon fill="#63b8ff" stroke="#63b8ff" points="803.86,-438.76 814.32,-437.09 805.1,-431.87 803.86,-438.76"/>
</a>
</g>
</g>
<!-- Node31&#45;&gt;Node23 -->
<g id="edge44_Node000031_Node000023" class="edge">
<title>Node31&#45;&gt;Node23</title>
<g id="a_edge44_Node000031_Node000023"><a xlink:title=" ">
<path fill="none" stroke="#63b8ff" d="M803.98,-391.07C735.25,-383.17 630.89,-371.18 566.08,-363.73"/>
<polygon fill="#63b8ff" stroke="#63b8ff" points="803.94,-394.59 814.28,-392.25 804.74,-387.63 803.94,-394.59"/>
</a>
</g>
</g>
<!-- Node32&#45;&gt;Node23 -->
<g id="edge46_Node000032_Node000023" class="edge">
<title>Node32&#45;&gt;Node23</title>
<g id="a_edge46_Node000032_Node000023"><a xlink:title=" ">
<path fill="none" stroke="#63b8ff" d="M803.98,-352.13C735.25,-353.26 630.89,-354.97 566.08,-356.04"/>
<polygon fill="#63b8ff" stroke="#63b8ff" points="804.33,-355.63 814.28,-351.96 804.22,-348.63 804.33,-355.63"/>
</a>
</g>
</g>
<!-- Node33&#45;&gt;Node23 -->
<g id="edge48_Node000033_Node000023" class="edge">
<title>Node33&#45;&gt;Node23</title>
<g id="a_edge48_Node000033_Node000023"><a xlink:title=" ">
<path fill="none" stroke="#63b8ff" d="M803.98,-313.2C735.25,-323.35 630.89,-338.77 566.08,-348.35"/>
<polygon fill="#63b8ff" stroke="#63b8ff" points="804.9,-316.6 814.28,-311.68 803.87,-309.68 804.9,-316.6"/>
</a>
</g>
</g>
<!-- Node34&#45;&gt;Node23 -->
<g id="edge50_Node000034_Node000023" class="edge">
<title>Node34&#45;&gt;Node23</title>
<g id="a_edge50_Node000034_Node000023"><a xlink:title=" ">
<path fill="none" stroke="#63b8ff" d="M802.28,-267.05C748.34,-277.13 672.59,-293.19 608,-314 584.16,-321.68 558.18,-332.87 538.61,-341.91"/>
<polygon fill="#63b8ff" stroke="#63b8ff" points="803.23,-270.44 812.42,-265.18 801.96,-263.55 803.23,-270.44"/>
</a>
</g>
</g>
<!-- Node35&#45;&gt;Node23 -->
<g id="edge52_Node000035_Node000023" class="edge">
<title>Node35&#45;&gt;Node23</title>
<g id="a_edge52_Node000035_Node000023"><a xlink:title=" ">
<path fill="none" stroke="#63b8ff" d="M804.34,-214.17C748.91,-222.06 670.21,-238.13 608,-270 572.06,-288.41 538.29,-322.31 520.52,-341.91"/>
<polygon fill="#63b8ff" stroke="#63b8ff" points="804.97,-217.62 814.4,-212.79 804.02,-210.68 804.97,-217.62"/>
</a>
</g>
</g>
</g>
</svg>
