<?xml version="1.0" encoding="UTF-8" standalone="no"?>
<!DOCTYPE svg PUBLIC "-//W3C//DTD SVG 1.1//EN"
 "http://www.w3.org/Graphics/SVG/1.1/DTD/svg11.dtd">
<!-- Generated by graphviz version 2.40.1 (20161225.0304)
 -->
<!-- Title: m_derived_variables::s_compute_derived_variables Pages: 1 -->
<!--zoomable 528 -->
<svg id="main" version="1.1" xmlns="http://www.w3.org/2000/svg" xmlns:xlink="http://www.w3.org/1999/xlink" xml:space="preserve" onload="init(evt)">
<style type="text/css"><![CDATA[
.edge:hover path { stroke: red; }
.edge:hover polygon { stroke: red; fill: red; }
]]></style>
<script type="text/javascript"><![CDATA[
var edges = document.getElementsByTagName('g');
if (edges && edges.length) {
  for (var i=0;i<edges.length;i++) {
    if (edges[i].id.substr(0,4)=='edge') {
      edges[i].setAttribute('class','edge');
    }
  }
}
]]></script>
        <defs>
                <circle id="rim" cx="0" cy="0" r="7"/>
                <circle id="rim2" cx="0" cy="0" r="3.5"/>
                <g id="zoomPlus">
                        <use xlink:href="#rim" fill="#404040">
                                <set attributeName="fill" to="#808080" begin="zoomplus.mouseover" end="zoomplus.mouseout"/>
                        </use>
                        <path d="M-4,0h8M0,-4v8" fill="none" stroke="white" stroke-width="1.5" pointer-events="none"/>
                </g>
                <g id="zoomMin">
                        <use xlink:href="#rim" fill="#404040">
                                <set attributeName="fill" to="#808080" begin="zoomminus.mouseover" end="zoomminus.mouseout"/>
                        </use>
                        <path d="M-4,0h8" fill="none" stroke="white" stroke-width="1.5" pointer-events="none"/>
                </g>
                <g id="dirArrow">
                        <path fill="none" stroke="white" stroke-width="1.5" d="M0,-3.0v7 M-2.5,-0.5L0,-3.0L2.5,-0.5"/>
                </g>
               <g id="resetDef">
                       <use xlink:href="#rim2" fill="#404040">
                               <set attributeName="fill" to="#808080" begin="reset.mouseover" end="reset.mouseout"/>
                       </use>
               </g>
        </defs>

<script type="text/javascript">
var viewWidth = 449;
var viewHeight = 528;
var sectionId = 'dynsection-0';
</script>
<script xlink:href="svgpan.js"/>
<svg id="graph" class="graph">
<g id="viewport">
<title>m_derived_variables::s_compute_derived_variables</title>
<polygon fill="#ffffff" stroke="transparent" points="-4,4 -4,-523.5 445,-523.5 445,4 -4,4"/>
<!-- Node0 -->
<g id="node1" class="node">
<title>Node0</title>
<polygon fill="#bfbfbf" stroke="#000000" points="0,-185.5 0,-220.5 72,-220.5 72,-185.5 0,-185.5"/>
<text text-anchor="start" x="8" y="-210.1" font-family="Helvetica,sans-Serif" font-size="8.00" fill="#000000">m_derived_variables</text>
<text text-anchor="start" x="8" y="-201.1" font-family="Helvetica,sans-Serif" font-size="8.00" fill="#000000">::s_compute_derived</text>
<text text-anchor="middle" x="36" y="-192.1" font-family="Helvetica,sans-Serif" font-size="8.00" fill="#000000">_variables</text>
</g>
<!-- Node1 -->
<g id="node2" class="node">
<title>Node1</title>
<g id="a_node2"><a xlink:href="namespacem__derived__variables.html#a1a849dc545128f9a6de155bed61035ff" target="_top" xlink:title="This subroutine is used together with the volume fraction model and when called upon, it computes the location of of the center of mass for each fluid from the inputted primitive variables, q_prim_vf. The computed location is then written to a formatted data file by the root process. ">
<polygon fill="#ffffff" stroke="#000000" points="109,-235 109,-261 198,-261 198,-235 109,-235"/>
<text text-anchor="start" x="117" y="-250.6" font-family="Helvetica,sans-Serif" font-size="8.00" fill="#000000">m_derived_variables</text>
<text text-anchor="middle" x="153.5" y="-241.6" font-family="Helvetica,sans-Serif" font-size="8.00" fill="#000000">::s_derive_center_of_mass</text>
</a>
</g>
</g>
<!-- Node0&#45;&gt;Node1 -->
<g id="edge1" class="edge">
<title>Node0&#45;&gt;Node1</title>
<path fill="none" stroke="#191970" d="M72.2126,-216.8687C84.0245,-221.3924 97.269,-226.4647 109.5832,-231.1808"/>
<polygon fill="#191970" stroke="#191970" points="108.624,-234.5613 119.2143,-234.8693 111.1275,-228.0243 108.624,-234.5613"/>
</g>
<!-- Node5 -->
<g id="node6" class="node">
<title>Node5</title>
<g id="a_node6"><a xlink:href="namespacem__derived__variables.html#ab28af564606ca901d3953e6012e9a452" target="_top" xlink:title="Subroutine to compute the higher moments in an attempt to find the maximal size of the droplet...">
<polygon fill="#ffffff" stroke="#000000" points="108,-381 108,-407 199,-407 199,-381 108,-381"/>
<text text-anchor="start" x="116" y="-396.6" font-family="Helvetica,sans-Serif" font-size="8.00" fill="#000000">m_derived_variables</text>
<text text-anchor="middle" x="153.5" y="-387.6" font-family="Helvetica,sans-Serif" font-size="8.00" fill="#000000">::s_derive_higher_moments</text>
</a>
</g>
</g>
<!-- Node0&#45;&gt;Node5 -->
<g id="edge5" class="edge">
<title>Node0&#45;&gt;Node5</title>
<path fill="none" stroke="#191970" d="M46.8435,-220.6265C68.317,-255.5322 116.2106,-333.3849 139.8143,-371.7534"/>
<polygon fill="#191970" stroke="#191970" points="137.0401,-373.9238 145.261,-380.6072 143.0023,-370.2559 137.0401,-373.9238"/>
</g>
<!-- Node9 -->
<g id="node10" class="node">
<title>Node9</title>
<g id="a_node10"><a xlink:href="namespacem__data__output.html#a6be3381410dd028014de2c1d02b05139" target="_top" xlink:title="This writes a formatted data file where the root processor can write out the CoM information. ">
<polygon fill="#ffffff" stroke="#000000" points="114,-100 114,-126 193,-126 193,-100 114,-100"/>
<text text-anchor="start" x="122" y="-115.6" font-family="Helvetica,sans-Serif" font-size="8.00" fill="#000000">m_data_output::s_write</text>
<text text-anchor="middle" x="153.5" y="-106.6" font-family="Helvetica,sans-Serif" font-size="8.00" fill="#000000">_com_files</text>
</a>
</g>
</g>
<!-- Node0&#45;&gt;Node9 -->
<g id="edge11" class="edge">
<title>Node0&#45;&gt;Node9</title>
<path fill="none" stroke="#191970" d="M51.889,-185.2088C65.6971,-170.4689 86.7668,-149.639 108,-135 109.8782,-133.7051 111.8442,-132.4463 113.8608,-131.2296"/>
<polygon fill="#191970" stroke="#191970" points="115.8813,-134.1104 122.9111,-126.1837 112.4725,-127.9965 115.8813,-134.1104"/>
</g>
<!-- Node10 -->
<g id="node11" class="node">
<title>Node10</title>
<g id="a_node11"><a xlink:href="namespacem__derived__variables.html#abdf1859a7ad678848feb69bbe89a2f95" target="_top" xlink:title="This subroutine is used together with the volume fraction model and when called upon, it computes the min and max bounds of the fluid in each direction in the domain. ">
<polygon fill="#ffffff" stroke="#000000" points="113.5,-145 113.5,-171 193.5,-171 193.5,-145 113.5,-145"/>
<text text-anchor="start" x="121.5" y="-160.6" font-family="Helvetica,sans-Serif" font-size="8.00" fill="#000000">m_derived_variables</text>
<text text-anchor="middle" x="153.5" y="-151.6" font-family="Helvetica,sans-Serif" font-size="8.00" fill="#000000">::s_derive_fluid_bounds</text>
</a>
</g>
</g>
<!-- Node0&#45;&gt;Node10 -->
<g id="edge12" class="edge">
<title>Node0&#45;&gt;Node10</title>
<path fill="none" stroke="#191970" d="M72.2126,-189.1313C84.0245,-184.6076 97.269,-179.5353 109.5832,-174.8192"/>
<polygon fill="#191970" stroke="#191970" points="111.1275,-177.9757 119.2143,-171.1307 108.624,-171.4387 111.1275,-177.9757"/>
</g>
<!-- Node11 -->
<g id="node12" class="node">
<title>Node11</title>
<g id="a_node12"><a xlink:href="namespacem__derived__variables.html#a2472e46739cdedf315aefa209a08f211" target="_top" xlink:title="This subroutine is used together with the volume fraction model and when called upon, it computes the total mass of a fluid in the entire domain for which the volume fraction is greater than a threshold value. This gives the mass of the coherent body. ">
<polygon fill="#ffffff" stroke="#000000" points="239.5,-493 239.5,-519 325.5,-519 325.5,-493 239.5,-493"/>
<text text-anchor="start" x="247.5" y="-508.6" font-family="Helvetica,sans-Serif" font-size="8.00" fill="#000000">m_derived_variables</text>
<text text-anchor="middle" x="282.5" y="-499.6" font-family="Helvetica,sans-Serif" font-size="8.00" fill="#000000">::s_derive_coherent_body</text>
</a>
</g>
</g>
<!-- Node0&#45;&gt;Node11 -->
<g id="edge15" class="edge">
<title>Node0&#45;&gt;Node11</title>
<path fill="none" stroke="#191970" d="M37.5358,-220.6687C41.8289,-260.2609 57.1982,-357.2882 108,-417 139.6919,-454.2503 190.8461,-477.7354 229.5945,-491.1655"/>
<polygon fill="#191970" stroke="#191970" points="228.5653,-494.5118 239.1591,-494.3656 230.7863,-487.8735 228.5653,-494.5118"/>
</g>
<!-- Node12 -->
<g id="node13" class="node">
<title>Node12</title>
<g id="a_node13"><a xlink:href="namespacem__derived__variables.html#a976bfd341efaba6840dc23d6abc4f29e" target="_top" xlink:title="This subroutine is used together with the volume fraction model and when called upon, it computes the centerline length of the fluid. ">
<polygon fill="#ffffff" stroke="#000000" points="117.5,-190 117.5,-216 189.5,-216 189.5,-190 117.5,-190"/>
<text text-anchor="start" x="125.5" y="-205.6" font-family="Helvetica,sans-Serif" font-size="8.00" fill="#000000">m_derived_variables</text>
<text text-anchor="middle" x="153.5" y="-196.6" font-family="Helvetica,sans-Serif" font-size="8.00" fill="#000000">::s_derive_centerline</text>
</a>
</g>
</g>
<!-- Node0&#45;&gt;Node12 -->
<g id="edge17" class="edge">
<title>Node0&#45;&gt;Node12</title>
<path fill="none" stroke="#191970" d="M72.2126,-203C83.1574,-203 95.3322,-203 106.8571,-203"/>
<polygon fill="#191970" stroke="#191970" points="107.2047,-206.5001 117.2047,-203 107.2046,-199.5001 107.2047,-206.5001"/>
</g>
<!-- Node13 -->
<g id="node14" class="node">
<title>Node13</title>
<g id="a_node14"><a xlink:href="namespacem__data__output.html#a40724c992117a24479573d9fbcdfa21b" target="_top" xlink:title="The goal of this subroutine is to output coherent body information. ">
<polygon fill="#ffffff" stroke="#000000" points="114,-55 114,-81 193,-81 193,-55 114,-55"/>
<text text-anchor="start" x="122" y="-70.6" font-family="Helvetica,sans-Serif" font-size="8.00" fill="#000000">m_data_output::s_write</text>
<text text-anchor="middle" x="153.5" y="-61.6" font-family="Helvetica,sans-Serif" font-size="8.00" fill="#000000">_cb_files</text>
</a>
</g>
</g>
<!-- Node0&#45;&gt;Node13 -->
<g id="edge20" class="edge">
<title>Node0&#45;&gt;Node13</title>
<path fill="none" stroke="#191970" d="M43.5485,-185.176C54.5928,-160.9071 77.2344,-117.3633 108,-90 109.3072,-88.8374 110.6867,-87.7225 112.1194,-86.6548"/>
<polygon fill="#191970" stroke="#191970" points="114.2792,-89.4261 120.7726,-81.0543 110.4757,-83.5495 114.2792,-89.4261"/>
</g>
<!-- Node14 -->
<g id="node15" class="node">
<title>Node14</title>
<g id="a_node15"><a xlink:href="namespacem__derived__variables.html#a5c6df8a69a463ae2c56fb2c2bb8c59a7" target="_top" xlink:title="This subroutine receives as inputs the indicator of the component of the acceleration that should be ...">
<polygon fill="#ffffff" stroke="#000000" points="114.5,-.5 114.5,-35.5 192.5,-35.5 192.5,-.5 114.5,-.5"/>
<text text-anchor="start" x="122.5" y="-25.1" font-family="Helvetica,sans-Serif" font-size="8.00" fill="#000000">m_derived_variables</text>
<text text-anchor="start" x="122.5" y="-16.1" font-family="Helvetica,sans-Serif" font-size="8.00" fill="#000000">::s_derive_acceleration</text>
<text text-anchor="middle" x="153.5" y="-7.1" font-family="Helvetica,sans-Serif" font-size="8.00" fill="#000000">_component</text>
</a>
</g>
</g>
<!-- Node0&#45;&gt;Node14 -->
<g id="edge21" class="edge">
<title>Node0&#45;&gt;Node14</title>
<path fill="none" stroke="#191970" d="M40.2613,-185.4091C48.6143,-154.0119 69.7453,-87.6255 108,-45 108.8628,-44.0387 109.768,-43.1015 110.7085,-42.1887"/>
<polygon fill="#191970" stroke="#191970" points="113.0692,-44.7769 118.488,-35.6727 108.5744,-39.4106 113.0692,-44.7769"/>
</g>
<!-- Node15 -->
<g id="node16" class="node">
<title>Node15</title>
<g id="a_node16"><a xlink:href="namespacem__data__output.html#a29f34883bc8e9d895dbb4232493397a1" target="_top" xlink:title="This writes a formatted data file for the flow probe information. ">
<polygon fill="#ffffff" stroke="#000000" points="114,-280 114,-306 193,-306 193,-280 114,-280"/>
<text text-anchor="start" x="122" y="-295.6" font-family="Helvetica,sans-Serif" font-size="8.00" fill="#000000">m_data_output::s_write</text>
<text text-anchor="middle" x="153.5" y="-286.6" font-family="Helvetica,sans-Serif" font-size="8.00" fill="#000000">_probe_files</text>
</a>
</g>
</g>
<!-- Node0&#45;&gt;Node15 -->
<g id="edge22" class="edge">
<title>Node0&#45;&gt;Node15</title>
<path fill="none" stroke="#191970" d="M51.889,-220.7912C65.6971,-235.5311 86.7668,-256.361 108,-271 109.8782,-272.2949 111.8442,-273.5537 113.8608,-274.7704"/>
<polygon fill="#191970" stroke="#191970" points="112.4725,-278.0035 122.9111,-279.8163 115.8813,-271.8896 112.4725,-278.0035"/>
</g>
<!-- Node2 -->
<g id="node3" class="node">
<title>Node2</title>
<g id="a_node3"><a xlink:href="namespacem__mpi__proxy.html#a873520062481f3dabcfa77f9bd7728d3" target="_top" xlink:title="The following subroutine takes the input local variable from all processors and reduces to the sum of...">
<polygon fill="#ffffff" stroke="#000000" points="367.5,-403 367.5,-429 439.5,-429 439.5,-403 367.5,-403"/>
<text text-anchor="start" x="375.5" y="-418.6" font-family="Helvetica,sans-Serif" font-size="8.00" fill="#000000">m_mpi_proxy::s_mpi</text>
<text text-anchor="middle" x="403.5" y="-409.6" font-family="Helvetica,sans-Serif" font-size="8.00" fill="#000000">_allreduce_sum</text>
</a>
</g>
</g>
<!-- Node1&#45;&gt;Node2 -->
<g id="edge2" class="edge">
<title>Node1&#45;&gt;Node2</title>
<path fill="none" stroke="#191970" d="M198.1905,-240.9242C236.548,-237.3237 291.5645,-238.313 330,-265 352.5477,-280.6556 381.6905,-354.9734 395.528,-393.1874"/>
<polygon fill="#191970" stroke="#191970" points="392.3477,-394.689 399.0068,-402.9296 398.94,-392.3349 392.3477,-394.689"/>
</g>
<!-- Node3 -->
<g id="node4" class="node">
<title>Node3</title>
<g id="a_node4"><a xlink:href="namespacem__mpi__proxy.html#a398a372625502c0430a64e0bb23e2342" target="_top" xlink:title="The following subroutine takes the input local variable from all processors and reduces to the minimu...">
<polygon fill="#ffffff" stroke="#000000" points="246.5,-145 246.5,-171 318.5,-171 318.5,-145 246.5,-145"/>
<text text-anchor="start" x="254.5" y="-160.6" font-family="Helvetica,sans-Serif" font-size="8.00" fill="#000000">m_mpi_proxy::s_mpi</text>
<text text-anchor="middle" x="282.5" y="-151.6" font-family="Helvetica,sans-Serif" font-size="8.00" fill="#000000">_allreduce_min</text>
</a>
</g>
</g>
<!-- Node1&#45;&gt;Node3 -->
<g id="edge3" class="edge">
<title>Node1&#45;&gt;Node3</title>
<path fill="none" stroke="#191970" d="M185.4663,-234.87C190.2251,-232.2684 194.9017,-229.3044 199,-226 219.21,-209.7049 214.6551,-196.1264 235,-180 236.549,-178.7721 238.1777,-177.5941 239.8614,-176.4663"/>
<polygon fill="#191970" stroke="#191970" points="241.8225,-179.3721 248.623,-171.2478 238.2404,-173.358 241.8225,-179.3721"/>
</g>
<!-- Node4 -->
<g id="node5" class="node">
<title>Node4</title>
<g id="a_node5"><a xlink:href="namespacem__mpi__proxy.html#aff7286de058c49b2a5d7a84be1983e8f" target="_top" xlink:title="The following subroutine takes the input local variable from all processors and reduces to the maximu...">
<polygon fill="#ffffff" stroke="#000000" points="246.5,-190 246.5,-216 318.5,-216 318.5,-190 246.5,-190"/>
<text text-anchor="start" x="254.5" y="-205.6" font-family="Helvetica,sans-Serif" font-size="8.00" fill="#000000">m_mpi_proxy::s_mpi</text>
<text text-anchor="middle" x="282.5" y="-196.6" font-family="Helvetica,sans-Serif" font-size="8.00" fill="#000000">_allreduce_max</text>
</a>
</g>
</g>
<!-- Node1&#45;&gt;Node4 -->
<g id="edge4" class="edge">
<title>Node1&#45;&gt;Node4</title>
<path fill="none" stroke="#191970" d="M190.8121,-234.9841C205.0956,-230.0015 221.5564,-224.2594 236.5543,-219.0276"/>
<polygon fill="#191970" stroke="#191970" points="237.8721,-222.2748 246.1612,-215.6763 235.5664,-215.6654 237.8721,-222.2748"/>
</g>
<!-- Node6 -->
<g id="node7" class="node">
<title>Node6</title>
<g id="a_node7"><a xlink:href="namespacem__derived__variables.html#a2ee18c156bb444c6ab73d4762960ef67" target="_top" xlink:title="Compute non&#45;symmetric moments. ">
<polygon fill="#ffffff" stroke="#000000" points="235,-403 235,-429 330,-429 330,-403 235,-403"/>
<text text-anchor="start" x="243" y="-418.6" font-family="Helvetica,sans-Serif" font-size="8.00" fill="#000000">m_derived_variables</text>
<text text-anchor="middle" x="282.5" y="-409.6" font-family="Helvetica,sans-Serif" font-size="8.00" fill="#000000">::s_non_symmetric_moments</text>
</a>
</g>
</g>
<!-- Node5&#45;&gt;Node6 -->
<g id="edge6" class="edge">
<title>Node5&#45;&gt;Node6</title>
<path fill="none" stroke="#191970" d="M199.3438,-401.8183C207.5678,-403.2209 216.2346,-404.6989 224.7431,-406.15"/>
<polygon fill="#191970" stroke="#191970" points="224.1766,-409.6038 234.6227,-407.8349 225.3535,-402.7035 224.1766,-409.6038"/>
</g>
<!-- Node7 -->
<g id="node8" class="node">
<title>Node7</title>
<g id="a_node8"><a xlink:href="namespacem__mpi__proxy.html#a04ac565bad2b22dc045a5eeb4f516e2e" target="_top" xlink:title="The subroutine terminates the MPI execution environment. ">
<polygon fill="#ffffff" stroke="#000000" points="246.5,-358 246.5,-384 318.5,-384 318.5,-358 246.5,-358"/>
<text text-anchor="start" x="254.5" y="-373.6" font-family="Helvetica,sans-Serif" font-size="8.00" fill="#000000">m_mpi_proxy::s_mpi</text>
<text text-anchor="middle" x="282.5" y="-364.6" font-family="Helvetica,sans-Serif" font-size="8.00" fill="#000000">_abort</text>
</a>
</g>
</g>
<!-- Node5&#45;&gt;Node7 -->
<g id="edge8" class="edge">
<title>Node5&#45;&gt;Node7</title>
<path fill="none" stroke="#191970" d="M199.3438,-385.8263C211.2182,-383.7092 224.0156,-381.4275 235.9269,-379.3037"/>
<polygon fill="#191970" stroke="#191970" points="236.8906,-382.6872 246.1209,-377.4862 235.6618,-375.7959 236.8906,-382.6872"/>
</g>
<!-- Node8 -->
<g id="node9" class="node">
<title>Node8</title>
<g id="a_node9"><a xlink:href="namespacem__derived__variables.html#ade52fa354cc5b681c4d6ef6fc8b2c61b" target="_top" xlink:title="Compute symmetric moments. ">
<polygon fill="#ffffff" stroke="#000000" points="241.5,-448 241.5,-474 323.5,-474 323.5,-448 241.5,-448"/>
<text text-anchor="start" x="249.5" y="-463.6" font-family="Helvetica,sans-Serif" font-size="8.00" fill="#000000">m_derived_variables</text>
<text text-anchor="middle" x="282.5" y="-454.6" font-family="Helvetica,sans-Serif" font-size="8.00" fill="#000000">::s_symmetric_moments</text>
</a>
</g>
</g>
<!-- Node5&#45;&gt;Node8 -->
<g id="edge9" class="edge">
<title>Node5&#45;&gt;Node8</title>
<path fill="none" stroke="#191970" d="M176.104,-407.0438C192.3344,-416.2707 214.8165,-428.7699 235,-439 237.9588,-440.4997 241.0395,-442.0189 244.1471,-443.5217"/>
<polygon fill="#191970" stroke="#191970" points="242.9218,-446.8144 253.4562,-447.9445 245.9258,-440.4918 242.9218,-446.8144"/>
</g>
<!-- Node6&#45;&gt;Node2 -->
<g id="edge7" class="edge">
<title>Node6&#45;&gt;Node2</title>
<path fill="none" stroke="#191970" d="M330.3224,-416C339.1535,-416 348.3619,-416 357.1485,-416"/>
<polygon fill="#191970" stroke="#191970" points="357.2217,-419.5001 367.2216,-416 357.2216,-412.5001 357.2217,-419.5001"/>
</g>
<!-- Node8&#45;&gt;Node2 -->
<g id="edge10" class="edge">
<title>Node8&#45;&gt;Node2</title>
<path fill="none" stroke="#191970" d="M317.4982,-447.9841C330.3037,-443.2218 344.975,-437.7655 358.5305,-432.7242"/>
<polygon fill="#191970" stroke="#191970" points="360.0085,-435.9088 368.1612,-429.1425 357.5684,-429.3478 360.0085,-435.9088"/>
</g>
<!-- Node10&#45;&gt;Node3 -->
<g id="edge13" class="edge">
<title>Node10&#45;&gt;Node3</title>
<path fill="none" stroke="#191970" d="M193.6093,-158C207.0471,-158 222.1414,-158 236.0244,-158"/>
<polygon fill="#191970" stroke="#191970" points="236.3573,-161.5001 246.3572,-158 236.3572,-154.5001 236.3573,-161.5001"/>
</g>
<!-- Node10&#45;&gt;Node4 -->
<g id="edge14" class="edge">
<title>Node10&#45;&gt;Node4</title>
<path fill="none" stroke="#191970" d="M190.8121,-171.0159C205.0956,-175.9985 221.5564,-181.7406 236.5543,-186.9724"/>
<polygon fill="#191970" stroke="#191970" points="235.5664,-190.3346 246.1612,-190.3237 237.8721,-183.7252 235.5664,-190.3346"/>
</g>
<!-- Node11&#45;&gt;Node2 -->
<g id="edge16" class="edge">
<title>Node11&#45;&gt;Node2</title>
<path fill="none" stroke="#191970" d="M314.4231,-492.8994C319.7824,-490.2301 325.1674,-487.2367 330,-484 350.3519,-470.369 370.5671,-451.1424 384.6304,-436.6095"/>
<polygon fill="#191970" stroke="#191970" points="387.4272,-438.7469 391.7722,-429.084 382.3497,-433.9283 387.4272,-438.7469"/>
</g>
<!-- Node12&#45;&gt;Node3 -->
<g id="edge18" class="edge">
<title>Node12&#45;&gt;Node3</title>
<path fill="none" stroke="#191970" d="M189.777,-190.3452C204.3261,-185.27 221.2618,-179.3622 236.6484,-173.9947"/>
<polygon fill="#191970" stroke="#191970" points="238.2061,-177.1583 246.4953,-170.5598 235.9005,-170.5489 238.2061,-177.1583"/>
</g>
<!-- Node12&#45;&gt;Node4 -->
<g id="edge19" class="edge">
<title>Node12&#45;&gt;Node4</title>
<path fill="none" stroke="#191970" d="M189.777,-203C204.1876,-203 220.9394,-203 236.2084,-203"/>
<polygon fill="#191970" stroke="#191970" points="236.4953,-206.5001 246.4953,-203 236.4953,-199.5001 236.4953,-206.5001"/>
</g>
<!-- Node15&#45;&gt;Node2 -->
<g id="edge25" class="edge">
<title>Node15&#45;&gt;Node2</title>
<path fill="none" stroke="#191970" d="M193.0123,-300.4104C230.1608,-308.5305 286.4192,-323.8617 330,-349 351.201,-361.2292 371.4583,-380.4574 385.3169,-395.1844"/>
<polygon fill="#191970" stroke="#191970" points="382.9866,-397.822 392.3232,-402.8299 388.1474,-393.0927 382.9866,-397.822"/>
</g>
<!-- Node15&#45;&gt;Node4 -->
<g id="edge27" class="edge">
<title>Node15&#45;&gt;Node4</title>
<path fill="none" stroke="#191970" d="M183.4139,-279.7721C188.7244,-277.0786 194.1149,-274.1099 199,-271 221.2936,-256.8076 244.4266,-237.5551 260.6746,-223.1581"/>
<polygon fill="#191970" stroke="#191970" points="263.4034,-225.4115 268.5027,-216.1245 258.725,-220.2045 263.4034,-225.4115"/>
</g>
<!-- Node15&#45;&gt;Node7 -->
<g id="edge26" class="edge">
<title>Node15&#45;&gt;Node7</title>
<path fill="none" stroke="#191970" d="M174.5459,-306.0521C190.9663,-316.2014 214.3733,-330.5946 235,-343 240.2553,-346.1606 245.8549,-349.4928 251.2974,-352.7128"/>
<polygon fill="#191970" stroke="#191970" points="249.8285,-355.9098 260.22,-357.9757 253.3848,-349.8805 249.8285,-355.9098"/>
</g>
<!-- Node16 -->
<g id="node17" class="node">
<title>Node16</title>
<g id="a_node17"><a xlink:href="namespacem__global__parameters.html#aac1a5a73b1eae759c913983b38047167" target="_top" xlink:title="Computes the bubble number density n from the conservative variables . ">
<polygon fill="#ffffff" stroke="#000000" points="243,-274 243,-300 322,-300 322,-274 243,-274"/>
<text text-anchor="start" x="251" y="-289.6" font-family="Helvetica,sans-Serif" font-size="8.00" fill="#000000">m_global_parameters</text>
<text text-anchor="middle" x="282.5" y="-280.6" font-family="Helvetica,sans-Serif" font-size="8.00" fill="#000000">::s_comp_n_from_cons</text>
</a>
</g>
</g>
<!-- Node15&#45;&gt;Node16 -->
<g id="edge23" class="edge">
<title>Node15&#45;&gt;Node16</title>
<path fill="none" stroke="#191970" d="M193.2569,-291.1508C205.6407,-290.5749 219.4588,-289.9322 232.452,-289.3278"/>
<polygon fill="#191970" stroke="#191970" points="232.8258,-292.8143 242.6524,-288.8534 232.5005,-285.8219 232.8258,-292.8143"/>
</g>
<!-- Node17 -->
<g id="node18" class="node">
<title>Node17</title>
<g id="a_node18"><a xlink:href="namespacem__global__parameters.html#aa5a48fa9cc196136634022cfa6708213" target="_top" xlink:title="Computes the quadrature for polydisperse bubble populations. ">
<polygon fill="#ffffff" stroke="#000000" points="366,-274 366,-300 441,-300 441,-274 366,-274"/>
<text text-anchor="start" x="374" y="-289.6" font-family="Helvetica,sans-Serif" font-size="8.00" fill="#000000">m_global_parameters</text>
<text text-anchor="middle" x="403.5" y="-280.6" font-family="Helvetica,sans-Serif" font-size="8.00" fill="#000000">::s_quad</text>
</a>
</g>
</g>
<!-- Node16&#45;&gt;Node17 -->
<g id="edge24" class="edge">
<title>Node16&#45;&gt;Node17</title>
<path fill="none" stroke="#191970" d="M322.1199,-287C332.8849,-287 344.6551,-287 355.8155,-287"/>
<polygon fill="#191970" stroke="#191970" points="355.8471,-290.5001 365.8471,-287 355.8471,-283.5001 355.8471,-290.5001"/>
</g>
</g>
</svg>
        <g id="navigator" transform="translate(0 0)" fill="#404254">
                <rect fill="#f2f5e9" fill-opacity="0.5" stroke="#606060" stroke-width=".5" x="0" y="0" width="60" height="60"/>
                <use id="zoomplus" xlink:href="#zoomPlus" x="17" y="9" onmousedown="handleZoom(evt,'in')"/>
                <use id="zoomminus" xlink:href="#zoomMin" x="42" y="9" onmousedown="handleZoom(evt,'out')"/>
                <use id="reset" xlink:href="#resetDef" x="30" y="36" onmousedown="handleReset()"/>
                <g id="arrowUp" xlink:href="#dirArrow" transform="translate(30 24)" onmousedown="handlePan(0,-1)">
                  <use xlink:href="#rim" fill="#404040">
                        <set attributeName="fill" to="#808080" begin="arrowUp.mouseover" end="arrowUp.mouseout"/>
                  </use>
                  <path fill="none" stroke="white" stroke-width="1.5" d="M0,-3.0v7 M-2.5,-0.5L0,-3.0L2.5,-0.5"/>
                </g>
                <g id="arrowRight" xlink:href="#dirArrow" transform="rotate(90) translate(36 -43)" onmousedown="handlePan(1,0)">
                  <use xlink:href="#rim" fill="#404040">
                        <set attributeName="fill" to="#808080" begin="arrowRight.mouseover" end="arrowRight.mouseout"/>
                  </use>
                  <path fill="none" stroke="white" stroke-width="1.5" d="M0,-3.0v7 M-2.5,-0.5L0,-3.0L2.5,-0.5"/>
                </g>
                <g id="arrowDown" xlink:href="#dirArrow" transform="rotate(180) translate(-30 -48)" onmousedown="handlePan(0,1)">
                  <use xlink:href="#rim" fill="#404040">
                        <set attributeName="fill" to="#808080" begin="arrowDown.mouseover" end="arrowDown.mouseout"/>
                  </use>
                  <path fill="none" stroke="white" stroke-width="1.5" d="M0,-3.0v7 M-2.5,-0.5L0,-3.0L2.5,-0.5"/>
                </g>
                <g id="arrowLeft" xlink:href="#dirArrow" transform="rotate(270) translate(-36 17)" onmousedown="handlePan(-1,0)">
                  <use xlink:href="#rim" fill="#404040">
                        <set attributeName="fill" to="#808080" begin="arrowLeft.mouseover" end="arrowLeft.mouseout"/>
                  </use>
                  <path fill="none" stroke="white" stroke-width="1.5" d="M0,-3.0v7 M-2.5,-0.5L0,-3.0L2.5,-0.5"/>
                </g>
        </g>
        <svg viewBox="0 0 15 15" width="100%" height="30px" preserveAspectRatio="xMaxYMin meet">
         <g id="arrow_out" transform="scale(0.3 0.3)">
          <a xlink:href="namespacem__derived__variables_a516a9808b3446b7b45029f6451d02b3f_cgraph_org.svg" target="_base">
           <rect id="button" ry="5" rx="5" y="6" x="6" height="38" width="38"
                fill="#f2f5e9" fill-opacity="0.5" stroke="#606060" stroke-width="1.0"/>
           <path id="arrow"
             d="M 11.500037,31.436501 C 11.940474,20.09759 22.043105,11.32322 32.158766,21.979434 L 37.068811,17.246167 C 37.068811,17.246167 37.088388,32 37.088388,32 L 22.160133,31.978069 C 22.160133,31.978069 26.997745,27.140456 26.997745,27.140456 C 18.528582,18.264221 13.291696,25.230495 11.500037,31.436501 z"
             style="fill:#404040;"/>
          </a>
         </g>
        </svg>
</svg>
