<?xml version="1.0" encoding="UTF-8" standalone="no"?>
<!DOCTYPE svg PUBLIC "-//W3C//DTD SVG 1.1//EN"
 "http://www.w3.org/Graphics/SVG/1.1/DTD/svg11.dtd">
<!-- Generated by graphviz version 2.43.0 (0)
 -->
<!-- Title: m_start_up::s_save_data Pages: 1 -->
<svg width="1013pt" height="416pt"
 viewBox="0.00 0.00 1013.00 416.00" xmlns="http://www.w3.org/2000/svg" xmlns:xlink="http://www.w3.org/1999/xlink">
<g id="graph0" class="graph" transform="scale(1 1) rotate(0) translate(4 412)">
<title>m_start_up::s_save_data</title>
<!-- Node1 -->
<g id="Node000001" class="node">
<title>Node1</title>
<g id="a_Node000001"><a xlink:title=" ">
<polygon fill="#999999" stroke="#666666" points="138,-184 0,-184 0,-165 138,-165 138,-184"/>
<text text-anchor="middle" x="69" y="-172" font-family="Helvetica,sans-Serif" font-size="10.00">m_start_up::s_save_data</text>
</a>
</g>
</g>
<!-- Node2 -->
<g id="Node000002" class="node">
<title>Node2</title>
<g id="a_Node000002"><a xlink:href="m__data__output_8fpp_8f90.html#a7bdde7678c4eb6a71541fd22c63a620a" target="_top" xlink:title="Write data files. Dispatch subroutine that replaces procedure pointer.">
<polygon fill="white" stroke="#666666" points="278,-184 174,-184 174,-165 278,-165 278,-184"/>
<text text-anchor="middle" x="226" y="-172" font-family="Helvetica,sans-Serif" font-size="10.00">s_write_data_files</text>
</a>
</g>
</g>
<!-- Node1&#45;&gt;Node2 -->
<g id="edge1_Node000001_Node000002" class="edge">
<title>Node1&#45;&gt;Node2</title>
<g id="a_edge1_Node000001_Node000002"><a xlink:title=" ">
<path fill="none" stroke="#63b8ff" d="M138.44,-174.5C146.76,-174.5 155.23,-174.5 163.45,-174.5"/>
<polygon fill="#63b8ff" stroke="#63b8ff" points="163.69,-178 173.69,-174.5 163.69,-171 163.69,-178"/>
</a>
</g>
</g>
<!-- Node3 -->
<g id="Node000003" class="node">
<title>Node3</title>
<g id="a_Node000003"><a xlink:href="m__data__output_8fpp_8f90.html#a694588474e2bd0e0b68d5dcb12a2598c" target="_top" xlink:title="The goal of this subroutine is to output the grid and conservative variables data files for given tim...">
<polygon fill="white" stroke="#666666" points="435,-141.5 314,-141.5 314,-111.5 435,-111.5 435,-141.5"/>
<text text-anchor="start" x="322" y="-129.5" font-family="Helvetica,sans-Serif" font-size="10.00">s_write_parallel_data</text>
<text text-anchor="middle" x="374.5" y="-118.5" font-family="Helvetica,sans-Serif" font-size="10.00">_files</text>
</a>
</g>
</g>
<!-- Node2&#45;&gt;Node3 -->
<g id="edge2_Node000002_Node000003" class="edge">
<title>Node2&#45;&gt;Node3</title>
<g id="a_edge2_Node000002_Node000003"><a xlink:title=" ">
<path fill="none" stroke="#63b8ff" d="M256.29,-164.9C273.88,-159.14 296.84,-151.62 317.77,-144.76"/>
<polygon fill="#63b8ff" stroke="#63b8ff" points="319.11,-148 327.53,-141.56 316.93,-141.35 319.11,-148"/>
</a>
</g>
</g>
<!-- Node10 -->
<g id="Node000010" class="node">
<title>Node10</title>
<g id="a_Node000010"><a xlink:href="m__data__output_8fpp_8f90.html#a9bfd1f9d59388f2294e049bcabe09692" target="_top" xlink:title="The goal of this subroutine is to output the grid and conservative variables data files for given tim...">
<polygon fill="white" stroke="#666666" points="430,-237.5 319,-237.5 319,-207.5 430,-207.5 430,-237.5"/>
<text text-anchor="start" x="327" y="-225.5" font-family="Helvetica,sans-Serif" font-size="10.00">s_write_serial_data</text>
<text text-anchor="middle" x="374.5" y="-214.5" font-family="Helvetica,sans-Serif" font-size="10.00">_files</text>
</a>
</g>
</g>
<!-- Node2&#45;&gt;Node10 -->
<g id="edge9_Node000002_Node000010" class="edge">
<title>Node2&#45;&gt;Node10</title>
<g id="a_edge9_Node000002_Node000010"><a xlink:title=" ">
<path fill="none" stroke="#63b8ff" d="M256.29,-184.1C273.88,-189.86 296.84,-197.38 317.77,-204.24"/>
<polygon fill="#63b8ff" stroke="#63b8ff" points="316.93,-207.65 327.53,-207.44 319.11,-201 316.93,-207.65"/>
</a>
</g>
</g>
<!-- Node4 -->
<g id="Node000004" class="node">
<title>Node4</title>
<g id="a_Node000004"><a xlink:href="namespacem__delay__file__access.html#a2fdd67c672da87dc016f9262b75776a5" target="_top" xlink:title=" ">
<polygon fill="white" stroke="#666666" points="595.5,-141.5 478.5,-141.5 478.5,-111.5 595.5,-111.5 595.5,-141.5"/>
<text text-anchor="start" x="486.5" y="-129.5" font-family="Helvetica,sans-Serif" font-size="10.00">m_delay_file_access</text>
<text text-anchor="middle" x="537" y="-118.5" font-family="Helvetica,sans-Serif" font-size="10.00">::delayfileaccess</text>
</a>
</g>
</g>
<!-- Node3&#45;&gt;Node4 -->
<g id="edge3_Node000003_Node000004" class="edge">
<title>Node3&#45;&gt;Node4</title>
<g id="a_edge3_Node000003_Node000004"><a xlink:title=" ">
<path fill="none" stroke="#63b8ff" d="M435.26,-126.5C445.94,-126.5 457.13,-126.5 468.01,-126.5"/>
<polygon fill="#63b8ff" stroke="#63b8ff" points="468.32,-130 478.32,-126.5 468.32,-123 468.32,-130"/>
</a>
</g>
</g>
<!-- Node5 -->
<g id="Node000005" class="node">
<title>Node5</title>
<g id="a_Node000005"><a xlink:href="namespacem__compile__specific.html#aa7f14da74305c1d061ce326b16a3263e" target="_top" xlink:title="Inquires on the existence of a directory.">
<polygon fill="white" stroke="#666666" points="593.5,-237.5 480.5,-237.5 480.5,-207.5 593.5,-207.5 593.5,-237.5"/>
<text text-anchor="start" x="488.5" y="-225.5" font-family="Helvetica,sans-Serif" font-size="10.00">m_compile_specific</text>
<text text-anchor="middle" x="537" y="-214.5" font-family="Helvetica,sans-Serif" font-size="10.00">::my_inquire</text>
</a>
</g>
</g>
<!-- Node3&#45;&gt;Node5 -->
<g id="edge4_Node000003_Node000005" class="edge">
<title>Node3&#45;&gt;Node5</title>
<g id="a_edge4_Node000003_Node000005"><a xlink:title=" ">
<path fill="none" stroke="#63b8ff" d="M392.39,-141.68C410.7,-157.52 441.3,-182.28 471,-198.5 474.2,-200.25 477.55,-201.91 480.97,-203.5"/>
<polygon fill="#63b8ff" stroke="#63b8ff" points="479.58,-206.71 490.14,-207.5 482.37,-200.29 479.58,-206.71"/>
</a>
</g>
</g>
<!-- Node6 -->
<g id="Node000006" class="node">
<title>Node6</title>
<g id="a_Node000006"><a xlink:href="namespacem__compile__specific.html#a44b8e18a2c76367e7090649e62dd7d8c" target="_top" xlink:title="Creates a directory and all its parents if it does not exist.">
<polygon fill="white" stroke="#666666" points="593.5,-189.5 480.5,-189.5 480.5,-159.5 593.5,-159.5 593.5,-189.5"/>
<text text-anchor="start" x="488.5" y="-177.5" font-family="Helvetica,sans-Serif" font-size="10.00">m_compile_specific</text>
<text text-anchor="middle" x="537" y="-166.5" font-family="Helvetica,sans-Serif" font-size="10.00">::s_create_directory</text>
</a>
</g>
</g>
<!-- Node3&#45;&gt;Node6 -->
<g id="edge5_Node000003_Node000006" class="edge">
<title>Node3&#45;&gt;Node6</title>
<g id="a_edge5_Node000003_Node000006"><a xlink:title=" ">
<path fill="none" stroke="#63b8ff" d="M425.84,-141.56C441.83,-146.34 459.66,-151.67 476.24,-156.63"/>
<polygon fill="#63b8ff" stroke="#63b8ff" points="475.25,-159.99 485.84,-159.5 477.26,-153.28 475.25,-159.99"/>
</a>
</g>
</g>
<!-- Node7 -->
<g id="Node000007" class="node">
<title>Node7</title>
<g id="a_Node000007"><a xlink:href="m__mpi__common_8fpp_8f90.html#a61ffdfd9a712123c83b8ae8964e6427e" target="_top" xlink:title=" ">
<polygon fill="white" stroke="#666666" points="597,-93 477,-93 477,-74 597,-74 597,-93"/>
<text text-anchor="middle" x="537" y="-81" font-family="Helvetica,sans-Serif" font-size="10.00">s_initialize_mpi_data</text>
</a>
</g>
</g>
<!-- Node3&#45;&gt;Node7 -->
<g id="edge6_Node000003_Node000007" class="edge">
<title>Node3&#45;&gt;Node7</title>
<g id="a_edge6_Node000003_Node000007"><a xlink:title=" ">
<path fill="none" stroke="#63b8ff" d="M431.64,-111.46C450.86,-106.31 472.11,-100.62 490.4,-95.72"/>
<polygon fill="#63b8ff" stroke="#63b8ff" points="491.46,-99.06 500.22,-93.09 489.65,-92.29 491.46,-99.06"/>
</a>
</g>
</g>
<!-- Node8 -->
<g id="Node000008" class="node">
<title>Node8</title>
<g id="a_Node000008"><a xlink:href="m__helper_8fpp_8f90.html#a8a0505b2bd4f3d8cb2bf3ce16cfe01e3" target="_top" xlink:title=" ">
<polygon fill="white" stroke="#666666" points="573.5,-56 500.5,-56 500.5,-37 573.5,-37 573.5,-56"/>
<text text-anchor="middle" x="537" y="-44" font-family="Helvetica,sans-Serif" font-size="10.00">s_int_to_str</text>
</a>
</g>
</g>
<!-- Node3&#45;&gt;Node8 -->
<g id="edge7_Node000003_Node000008" class="edge">
<title>Node3&#45;&gt;Node8</title>
<g id="a_edge7_Node000003_Node000008"><a xlink:title=" ">
<path fill="none" stroke="#63b8ff" d="M394.96,-111.3C413.57,-97.41 442.88,-77.16 471,-64.5 477.17,-61.72 483.87,-59.28 490.54,-57.17"/>
<polygon fill="#63b8ff" stroke="#63b8ff" points="491.63,-60.49 500.23,-54.3 489.64,-53.78 491.63,-60.49"/>
</a>
</g>
</g>
<!-- Node9 -->
<g id="Node000009" class="node">
<title>Node9</title>
<g id="a_Node000009"><a xlink:href="m__mpi__common_8fpp_8f90.html#af4b834c000e6de71e6a00e1224599976" target="_top" xlink:title="Halts all processes until all have reached barrier.">
<polygon fill="white" stroke="#666666" points="578.5,-19 495.5,-19 495.5,0 578.5,0 578.5,-19"/>
<text text-anchor="middle" x="537" y="-7" font-family="Helvetica,sans-Serif" font-size="10.00">s_mpi_barrier</text>
</a>
</g>
</g>
<!-- Node3&#45;&gt;Node9 -->
<g id="edge8_Node000003_Node000009" class="edge">
<title>Node3&#45;&gt;Node9</title>
<g id="a_edge8_Node000003_Node000009"><a xlink:title=" ">
<path fill="none" stroke="#63b8ff" d="M385.99,-111.32C401.85,-89.5 434.06,-49.48 471,-27.5 475.65,-24.73 480.75,-22.37 485.97,-20.37"/>
<polygon fill="#63b8ff" stroke="#63b8ff" points="487.11,-23.68 495.44,-17.14 484.85,-17.06 487.11,-23.68"/>
</a>
</g>
</g>
<!-- Node10&#45;&gt;Node5 -->
<g id="edge10_Node000010_Node000005" class="edge">
<title>Node10&#45;&gt;Node5</title>
<g id="a_edge10_Node000010_Node000005"><a xlink:title=" ">
<path fill="none" stroke="#63b8ff" d="M430.29,-222.5C443.17,-222.5 457.02,-222.5 470.33,-222.5"/>
<polygon fill="#63b8ff" stroke="#63b8ff" points="470.37,-226 480.37,-222.5 470.37,-219 470.37,-226"/>
</a>
</g>
</g>
<!-- Node10&#45;&gt;Node6 -->
<g id="edge20_Node000010_Node000006" class="edge">
<title>Node10&#45;&gt;Node6</title>
<g id="a_edge20_Node000010_Node000006"><a xlink:title=" ">
<path fill="none" stroke="#63b8ff" d="M425.84,-207.44C441.83,-202.66 459.66,-197.33 476.24,-192.37"/>
<polygon fill="#63b8ff" stroke="#63b8ff" points="477.26,-195.72 485.84,-189.5 475.25,-189.01 477.26,-195.72"/>
</a>
</g>
</g>
<!-- Node11 -->
<g id="Node000011" class="node">
<title>Node11</title>
<g id="a_Node000011"><a xlink:href="m__variables__conversion_8fpp_8f90.html#a3480e5d3bc628f115c1952e68a0ae891" target="_top" xlink:title="The following procedure handles the conversion between the conservative variables and the primitive v...">
<polygon fill="white" stroke="#666666" points="603,-333.5 471,-333.5 471,-303.5 603,-303.5 603,-333.5"/>
<text text-anchor="start" x="479" y="-321.5" font-family="Helvetica,sans-Serif" font-size="10.00">s_convert_conservative</text>
<text text-anchor="middle" x="537" y="-310.5" font-family="Helvetica,sans-Serif" font-size="10.00">_to_primitive_variables</text>
</a>
</g>
</g>
<!-- Node10&#45;&gt;Node11 -->
<g id="edge11_Node000010_Node000011" class="edge">
<title>Node10&#45;&gt;Node11</title>
<g id="a_edge11_Node000010_Node000011"><a xlink:title=" ">
<path fill="none" stroke="#63b8ff" d="M392.39,-237.68C410.7,-253.52 441.3,-278.28 471,-294.5 474.2,-296.25 477.55,-297.91 480.97,-299.5"/>
<polygon fill="#63b8ff" stroke="#63b8ff" points="479.58,-302.71 490.14,-303.5 482.37,-296.29 479.58,-302.71"/>
</a>
</g>
</g>
<!-- Node20 -->
<g id="Node000020" class="node">
<title>Node20</title>
<g id="a_Node000020"><a xlink:href="namespacem__compile__specific.html#a46d584d175683c9c0407cc07181d7bce" target="_top" xlink:title=" ">
<polygon fill="white" stroke="#666666" points="593.5,-285.5 480.5,-285.5 480.5,-255.5 593.5,-255.5 593.5,-285.5"/>
<text text-anchor="start" x="488.5" y="-273.5" font-family="Helvetica,sans-Serif" font-size="10.00">m_compile_specific</text>
<text text-anchor="middle" x="537" y="-262.5" font-family="Helvetica,sans-Serif" font-size="10.00">::s_delete_directory</text>
</a>
</g>
</g>
<!-- Node10&#45;&gt;Node20 -->
<g id="edge21_Node000010_Node000020" class="edge">
<title>Node10&#45;&gt;Node20</title>
<g id="a_edge21_Node000010_Node000020"><a xlink:title=" ">
<path fill="none" stroke="#63b8ff" d="M425.84,-237.56C441.83,-242.34 459.66,-247.67 476.24,-252.63"/>
<polygon fill="#63b8ff" stroke="#63b8ff" points="475.25,-255.99 485.84,-255.5 477.26,-249.28 475.25,-255.99"/>
</a>
</g>
</g>
<!-- Node12 -->
<g id="Node000012" class="node">
<title>Node12</title>
<g id="a_Node000012"><a xlink:href="m__helper_8fpp_8f90.html#a772c75c8b24c414cfaed17e2f8acc772" target="_top" xlink:title=" ">
<polygon fill="white" stroke="#666666" points="788,-408 666,-408 666,-389 788,-389 788,-408"/>
<text text-anchor="middle" x="727" y="-396" font-family="Helvetica,sans-Serif" font-size="10.00">s_comp_n_from_cons</text>
</a>
</g>
</g>
<!-- Node11&#45;&gt;Node12 -->
<g id="edge12_Node000011_Node000012" class="edge">
<title>Node11&#45;&gt;Node12</title>
<g id="a_edge12_Node000011_Node000012"><a xlink:title=" ">
<path fill="none" stroke="#63b8ff" d="M557.78,-333.54C577.39,-347.71 608.78,-368.52 639,-380.5 644.51,-382.68 650.33,-384.62 656.24,-386.33"/>
<polygon fill="#63b8ff" stroke="#63b8ff" points="655.66,-389.8 666.23,-389 657.47,-383.03 655.66,-389.8"/>
</a>
</g>
</g>
<!-- Node13 -->
<g id="Node000013" class="node">
<title>Node13</title>
<g id="a_Node000013"><a xlink:href="m__variables__conversion_8fpp_8f90.html#a56814a06b04c5e1d20f74af98405368a" target="_top" xlink:title="This procedure conditionally calculates the appropriate pressure.">
<polygon fill="white" stroke="#666666" points="785.5,-371 668.5,-371 668.5,-352 785.5,-352 785.5,-371"/>
<text text-anchor="middle" x="727" y="-359" font-family="Helvetica,sans-Serif" font-size="10.00">s_compute_pressure</text>
</a>
</g>
</g>
<!-- Node11&#45;&gt;Node13 -->
<g id="edge13_Node000011_Node000013" class="edge">
<title>Node11&#45;&gt;Node13</title>
<g id="a_edge13_Node000011_Node000013"><a xlink:title=" ">
<path fill="none" stroke="#63b8ff" d="M600.46,-333.53C613.2,-336.54 626.52,-339.66 639,-342.5 649.62,-344.92 660.98,-347.45 671.87,-349.84"/>
<polygon fill="#63b8ff" stroke="#63b8ff" points="671.19,-353.27 681.71,-351.99 672.68,-346.43 671.19,-353.27"/>
</a>
</g>
</g>
<!-- Node14 -->
<g id="Node000014" class="node">
<title>Node14</title>
<g id="a_Node000014"><a xlink:href="m__variables__conversion_8fpp_8f90.html#ad0657ad9f2f6277b10693e899ff84b68" target="_top" xlink:title=" ">
<polygon fill="white" stroke="#666666" points="793,-333.5 661,-333.5 661,-303.5 793,-303.5 793,-333.5"/>
<text text-anchor="start" x="669" y="-321.5" font-family="Helvetica,sans-Serif" font-size="10.00">s_convert_species_to</text>
<text text-anchor="middle" x="727" y="-310.5" font-family="Helvetica,sans-Serif" font-size="10.00">_mixture_variables_acc</text>
</a>
</g>
</g>
<!-- Node11&#45;&gt;Node14 -->
<g id="edge14_Node000011_Node000014" class="edge">
<title>Node11&#45;&gt;Node14</title>
<g id="a_edge14_Node000011_Node000014"><a xlink:title=" ">
<path fill="none" stroke="#63b8ff" d="M603.23,-318.5C618.54,-318.5 634.98,-318.5 650.69,-318.5"/>
<polygon fill="#63b8ff" stroke="#63b8ff" points="650.89,-322 660.89,-318.5 650.89,-315 650.89,-322"/>
</a>
</g>
</g>
<!-- Node15 -->
<g id="Node000015" class="node">
<title>Node15</title>
<g id="a_Node000015"><a xlink:href="m__variables__conversion_8fpp_8f90.html#a18920a8493fb62dd7bba5eefab778b31" target="_top" xlink:title=" ">
<polygon fill="white" stroke="#666666" points="815,-285.5 639,-285.5 639,-255.5 815,-255.5 815,-285.5"/>
<text text-anchor="start" x="647" y="-273.5" font-family="Helvetica,sans-Serif" font-size="10.00">s_convert_species_to</text>
<text text-anchor="middle" x="727" y="-262.5" font-family="Helvetica,sans-Serif" font-size="10.00">_mixture_variables_bubbles_acc</text>
</a>
</g>
</g>
<!-- Node11&#45;&gt;Node15 -->
<g id="edge15_Node000011_Node000015" class="edge">
<title>Node11&#45;&gt;Node15</title>
<g id="a_edge15_Node000011_Node000015"><a xlink:title=" ">
<path fill="none" stroke="#63b8ff" d="M596.97,-303.44C616.13,-298.55 637.56,-293.08 657.36,-288.02"/>
<polygon fill="#63b8ff" stroke="#63b8ff" points="658.42,-291.37 667.24,-285.5 656.69,-284.59 658.42,-291.37"/>
</a>
</g>
</g>
<!-- Node16 -->
<g id="Node000016" class="node">
<title>Node16</title>
<g id="a_Node000016"><a xlink:href="m__variables__conversion_8fpp_8f90.html#ab8bdf7610d49d294015daa441faabc01" target="_top" xlink:title="Dispatch to the s_convert_mixture_to_mixture_variables and s_convert_species_to_mixture_variables sub...">
<polygon fill="white" stroke="#666666" points="788,-237.5 666,-237.5 666,-207.5 788,-207.5 788,-237.5"/>
<text text-anchor="start" x="674" y="-225.5" font-family="Helvetica,sans-Serif" font-size="10.00">s_convert_to_mixture</text>
<text text-anchor="middle" x="727" y="-214.5" font-family="Helvetica,sans-Serif" font-size="10.00">_variables</text>
</a>
</g>
</g>
<!-- Node11&#45;&gt;Node16 -->
<g id="edge16_Node000011_Node000016" class="edge">
<title>Node11&#45;&gt;Node16</title>
<g id="a_edge16_Node000011_Node000016"><a xlink:title=" ">
<path fill="none" stroke="#63b8ff" d="M588.17,-303.39C593.41,-300.83 598.47,-297.88 603,-294.5 624.38,-278.56 616.96,-261.52 639,-246.5 644.27,-242.91 650.06,-239.85 656.07,-237.25"/>
<polygon fill="#63b8ff" stroke="#63b8ff" points="657.61,-240.41 665.67,-233.53 655.08,-233.89 657.61,-240.41"/>
</a>
</g>
</g>
<!-- Node17 -->
<g id="Node000017" class="node">
<title>Node17</title>
<g id="a_Node000017"><a xlink:href="m__variables__conversion_8fpp_8f90.html#adec0ccf2a3298d2b375a9405a0fa7c1a" target="_top" xlink:title="This subroutine is designed for the gamma/pi_inf model and provided a set of either conservative or p...">
<polygon fill="white" stroke="#666666" points="989,-285.5 867,-285.5 867,-255.5 989,-255.5 989,-285.5"/>
<text text-anchor="start" x="875" y="-273.5" font-family="Helvetica,sans-Serif" font-size="10.00">s_convert_mixture_to</text>
<text text-anchor="middle" x="928" y="-262.5" font-family="Helvetica,sans-Serif" font-size="10.00">_mixture_variables</text>
</a>
</g>
</g>
<!-- Node16&#45;&gt;Node17 -->
<g id="edge17_Node000016_Node000017" class="edge">
<title>Node16&#45;&gt;Node17</title>
<g id="a_edge17_Node000016_Node000017"><a xlink:title=" ">
<path fill="none" stroke="#63b8ff" d="M788.25,-237.03C809.97,-242.27 834.67,-248.23 857.14,-253.65"/>
<polygon fill="#63b8ff" stroke="#63b8ff" points="856.42,-257.08 866.96,-256.02 858.06,-250.27 856.42,-257.08"/>
</a>
</g>
</g>
<!-- Node18 -->
<g id="Node000018" class="node">
<title>Node18</title>
<g id="a_Node000018"><a xlink:href="m__variables__conversion_8fpp_8f90.html#ac9e3787fd3c00962752030f2c218c3fc" target="_top" xlink:title="This subroutine is designed for the volume fraction model and provided a set of either conservative o...">
<polygon fill="white" stroke="#666666" points="988.5,-237.5 867.5,-237.5 867.5,-207.5 988.5,-207.5 988.5,-237.5"/>
<text text-anchor="start" x="875.5" y="-225.5" font-family="Helvetica,sans-Serif" font-size="10.00">s_convert_species_to</text>
<text text-anchor="middle" x="928" y="-214.5" font-family="Helvetica,sans-Serif" font-size="10.00">_mixture_variables</text>
</a>
</g>
</g>
<!-- Node16&#45;&gt;Node18 -->
<g id="edge18_Node000016_Node000018" class="edge">
<title>Node16&#45;&gt;Node18</title>
<g id="a_edge18_Node000016_Node000018"><a xlink:title=" ">
<path fill="none" stroke="#63b8ff" d="M788.25,-222.5C809.97,-222.5 834.67,-222.5 857.15,-222.5"/>
<polygon fill="#63b8ff" stroke="#63b8ff" points="857.3,-226 867.3,-222.5 857.3,-219 857.3,-226"/>
</a>
</g>
</g>
<!-- Node19 -->
<g id="Node000019" class="node">
<title>Node19</title>
<g id="a_Node000019"><a xlink:href="m__variables__conversion_8fpp_8f90.html#a975c2bf46f73cd704b4503e833f5ec3c" target="_top" xlink:title="This procedure is used alongside with the gamma/pi_inf model to transfer the density,...">
<polygon fill="white" stroke="#666666" points="1005,-189.5 851,-189.5 851,-159.5 1005,-159.5 1005,-189.5"/>
<text text-anchor="start" x="859" y="-177.5" font-family="Helvetica,sans-Serif" font-size="10.00">s_convert_species_to</text>
<text text-anchor="middle" x="928" y="-166.5" font-family="Helvetica,sans-Serif" font-size="10.00">_mixture_variables_bubbles</text>
</a>
</g>
</g>
<!-- Node16&#45;&gt;Node19 -->
<g id="edge19_Node000016_Node000019" class="edge">
<title>Node16&#45;&gt;Node19</title>
<g id="a_edge19_Node000016_Node000019"><a xlink:title=" ">
<path fill="none" stroke="#63b8ff" d="M788.25,-207.97C809.18,-202.92 832.87,-197.2 854.68,-191.94"/>
<polygon fill="#63b8ff" stroke="#63b8ff" points="855.65,-195.31 864.55,-189.56 854,-188.51 855.65,-195.31"/>
</a>
</g>
</g>
</g>
</svg>
