<?xml version="1.0" encoding="UTF-8" standalone="no"?>
<!DOCTYPE svg PUBLIC "-//W3C//DTD SVG 1.1//EN"
 "http://www.w3.org/Graphics/SVG/1.1/DTD/svg11.dtd">
<!-- Generated by graphviz version 2.43.0 (0)
 -->
<!-- Title: m_start_up::s_read_data_files Pages: 1 -->
<!--zoomable 402 -->

<svg id="main" version="1.1" xmlns="http://www.w3.org/2000/svg" xmlns:xlink="http://www.w3.org/1999/xlink" xml:space="preserve" onload="init(evt)">

<style type="text/css"><![CDATA[
.node, .edge {opacity: 0.7;}
.node.selected, .edge.selected {opacity: 1;}
.edge:hover path { stroke: red; }
.edge:hover polygon { stroke: red; fill: red; }
]]></style>

<defs>
  <circle id="rim" cx="0" cy="0" r="7"/>
  <circle id="rim2" cx="0" cy="0" r="3.5"/>
  <g id="zoomPlus">
    <use xlink:href="#rim" fill="#404040"><set attributeName="fill" to="#808080" begin="zoomplus.mouseover" end="zoomplus.mouseout"/></use>
    <path d="M-4,0h8M0,-4v8" fill="none" stroke="white" stroke-width="1.5" pointer-events="none"/>
  </g>
  <g id="zoomMin">
    <use xlink:href="#rim" fill="#404040"><set attributeName="fill" to="#808080" begin="zoomminus.mouseover" end="zoomminus.mouseout"/></use>
    <path d="M-4,0h8" fill="none" stroke="white" stroke-width="1.5" pointer-events="none"/>
  </g>
  <g id="arrowUp" transform="translate(30 24)">
    <use xlink:href="#rim"/>
    <path pointer-events="none" fill="none" stroke="white" stroke-width="1.5" d="M0,-3.0v7 M-2.5,-0.5L0,-3.0L2.5,-0.5"/>
  </g>
  <g id="arrowRight" transform="rotate(90) translate(36 -43)">
    <use xlink:href="#rim"/>
    <path pointer-events="none" fill="none" stroke="white" stroke-width="1.5" d="M0,-3.0v7 M-2.5,-0.5L0,-3.0L2.5,-0.5"/>
  </g>
  <g id="arrowDown" transform="rotate(180) translate(-30 -48)">
    <use xlink:href="#rim"/>
    <path pointer-events="none" fill="none" stroke="white" stroke-width="1.5" d="M0,-3.0v7 M-2.5,-0.5L0,-3.0L2.5,-0.5"/>
  </g>
  <g id="arrowLeft" transform="rotate(270) translate(-36 17)">
    <use xlink:href="#rim"/>
    <path pointer-events="none" fill="none" stroke="white" stroke-width="1.5" d="M0,-3.0v7 M-2.5,-0.5L0,-3.0L2.5,-0.5"/>
  </g>
  <g id="resetDef">
    <use xlink:href="#rim2" fill="#404040"><set attributeName="fill" to="#808080" begin="reset.mouseover" end="reset.mouseout"/></use>
  </g>
</defs>
<script type="application/ecmascript">
var viewWidth = 661;
var viewHeight = 402;
var sectionId = 'dynsection-14';
</script>
<script type="application/ecmascript" xlink:href="svg.min.js"/>
<svg id="graph" class="graph">
<g id="viewport">
<title>m_start_up::s_read_data_files</title>
<!-- Node1 -->
<g id="Node000001" class="node">
<title>Node1</title>
<g id="a_Node000001"><a xlink:title="Read data files. Dispatch subroutine that replaces procedure pointer.">
<polygon fill="#999999" stroke="#666666" points="110,-241 0,-241 0,-211 110,-211 110,-241"/>
<text text-anchor="start" x="8" y="-229" font-family="Helvetica,sans-Serif" font-size="10.00">m_start_up::s_read</text>
<text text-anchor="middle" x="55" y="-218" font-family="Helvetica,sans-Serif" font-size="10.00">_data_files</text>
</a>
</g>
</g>
<!-- Node2 -->
<g id="Node000002" class="node">
<title>Node2</title>
<g id="a_Node000002"><a xlink:href="namespacem__start__up.html#a3226ddf0c64cff078579641fda52781d" target="_top" xlink:title="Read parallel initial condition and grid data files via MPI I/O.">
<polygon fill="white" stroke="#666666" points="257,-196 146,-196 146,-166 257,-166 257,-196"/>
<text text-anchor="start" x="154" y="-184" font-family="Helvetica,sans-Serif" font-size="10.00">m_start_up::s_read</text>
<text text-anchor="middle" x="201.5" y="-173" font-family="Helvetica,sans-Serif" font-size="10.00">_parallel_data_files</text>
</a>
</g>
</g>
<!-- Node1&#45;&gt;Node2 -->
<g id="edge1_Node000001_Node000002" class="edge">
<title>Node1&#45;&gt;Node2</title>
<g id="a_edge1_Node000001_Node000002"><a xlink:title=" ">
<path fill="none" stroke="#63b8ff" d="M104.52,-210.89C116.55,-207.14 129.57,-203.09 142.03,-199.21"/>
<polygon fill="#63b8ff" stroke="#63b8ff" points="143.36,-202.46 151.86,-196.15 141.28,-195.78 143.36,-202.46"/>
</a>
</g>
</g>
<!-- Node13 -->
<g id="Node000013" class="node">
<title>Node13</title>
<g id="a_Node000013"><a xlink:href="namespacem__start__up.html#a1bf604b2afd7b81737153114d92e7c80" target="_top" xlink:title="Read serial initial condition and grid data files and compute cell&#45;width distributions.">
<polygon fill="white" stroke="#666666" points="256.5,-308 146.5,-308 146.5,-278 256.5,-278 256.5,-308"/>
<text text-anchor="start" x="154.5" y="-296" font-family="Helvetica,sans-Serif" font-size="10.00">m_start_up::s_read</text>
<text text-anchor="middle" x="201.5" y="-285" font-family="Helvetica,sans-Serif" font-size="10.00">_serial_data_files</text>
</a>
</g>
</g>
<!-- Node1&#45;&gt;Node13 -->
<g id="edge12_Node000001_Node000013" class="edge">
<title>Node1&#45;&gt;Node13</title>
<g id="a_edge12_Node000001_Node000013"><a xlink:title=" ">
<path fill="none" stroke="#63b8ff" d="M88.43,-241.04C109.11,-250.62 136.11,-263.15 158.43,-273.49"/>
<polygon fill="#63b8ff" stroke="#63b8ff" points="157.14,-276.75 167.68,-277.78 160.08,-270.4 157.14,-276.75"/>
</a>
</g>
</g>
<!-- Node3 -->
<g id="Node000003" class="node">
<title>Node3</title>
<g id="a_Node000003"><a xlink:href="namespacem__boundary__io.html#a54cc36c0c0b8f86ec53db19e98570fc7" target="_top" xlink:title="Initialize the per&#45;cell boundary condition type arrays with the global default BC values.">
<polygon fill="white" stroke="#666666" points="455.5,-260 315.5,-260 315.5,-230 455.5,-230 455.5,-260"/>
<text text-anchor="start" x="323.5" y="-248" font-family="Helvetica,sans-Serif" font-size="10.00">m_boundary_io::s_assign</text>
<text text-anchor="middle" x="385.5" y="-237" font-family="Helvetica,sans-Serif" font-size="10.00">_default_bc_type</text>
</a>
</g>
</g>
<!-- Node2&#45;&gt;Node3 -->
<g id="edge2_Node000002_Node000003" class="edge">
<title>Node2&#45;&gt;Node3</title>
<g id="a_edge2_Node000002_Node000003"><a xlink:title=" ">
<path fill="none" stroke="#63b8ff" d="M233.42,-196.14C250.68,-204.21 272.73,-213.91 293,-221 299,-223.1 305.28,-225.11 311.62,-227.02"/>
<polygon fill="#63b8ff" stroke="#63b8ff" points="311.01,-230.48 321.59,-229.92 312.97,-223.76 311.01,-230.48"/>
</a>
</g>
</g>
<!-- Node4 -->
<g id="Node000004" class="node">
<title>Node4</title>
<g id="a_Node000004"><a xlink:href="namespacem__mpi__common.html#a2e27b3212956af624c8da826f0c2c529" target="_top" xlink:title="Set up MPI I/O data views and variable pointers for parallel file output.">
<polygon fill="white" stroke="#666666" points="464,-78 307,-78 307,-48 464,-48 464,-78"/>
<text text-anchor="start" x="315" y="-66" font-family="Helvetica,sans-Serif" font-size="10.00">m_mpi_common::s_initialize</text>
<text text-anchor="middle" x="385.5" y="-55" font-family="Helvetica,sans-Serif" font-size="10.00">_mpi_data</text>
</a>
</g>
</g>
<!-- Node2&#45;&gt;Node4 -->
<g id="edge3_Node000002_Node000004" class="edge">
<title>Node2&#45;&gt;Node4</title>
<g id="a_edge3_Node000002_Node000004"><a xlink:title=" ">
<path fill="none" stroke="#63b8ff" d="M212.9,-165.82C228.05,-144.88 258.22,-107.4 293,-87 295.99,-85.24 299.12,-83.61 302.33,-82.1"/>
<polygon fill="#63b8ff" stroke="#63b8ff" points="303.76,-85.3 311.58,-78.14 301.01,-78.86 303.76,-85.3"/>
</a>
</g>
</g>
<!-- Node5 -->
<g id="Node000005" class="node">
<title>Node5</title>
<g id="a_Node000005"><a xlink:href="namespacem__mpi__common.html#a564644bad898d940dc6caea3297bb424" target="_top" xlink:title="Set up MPI I/O data views for downsampled (coarsened) parallel file output.">
<polygon fill="white" stroke="#666666" points="464,-30 307,-30 307,0 464,0 464,-30"/>
<text text-anchor="start" x="315" y="-18" font-family="Helvetica,sans-Serif" font-size="10.00">m_mpi_common::s_initialize</text>
<text text-anchor="middle" x="385.5" y="-7" font-family="Helvetica,sans-Serif" font-size="10.00">_mpi_data_ds</text>
</a>
</g>
</g>
<!-- Node2&#45;&gt;Node5 -->
<g id="edge4_Node000002_Node000005" class="edge">
<title>Node2&#45;&gt;Node5</title>
<g id="a_edge4_Node000002_Node000005"><a xlink:title=" ">
<path fill="none" stroke="#63b8ff" d="M207.79,-165.93C218.83,-136.73 247.17,-72.41 293,-39 294.89,-37.62 296.85,-36.33 298.86,-35.1"/>
<polygon fill="#63b8ff" stroke="#63b8ff" points="300.87,-38 308.05,-30.21 297.58,-31.82 300.87,-38"/>
</a>
</g>
</g>
<!-- Node6 -->
<g id="Node000006" class="node">
<title>Node6</title>
<g id="a_Node000006"><a xlink:href="namespacem__helper.html#afd343d70a36c65cb7be86a183aa594ac" target="_top" xlink:title="Convert an integer to its trimmed string representation.">
<polygon fill="white" stroke="#666666" points="448,-211.5 323,-211.5 323,-192.5 448,-192.5 448,-211.5"/>
<text text-anchor="middle" x="385.5" y="-199.5" font-family="Helvetica,sans-Serif" font-size="10.00">m_helper::s_int_to_str</text>
</a>
</g>
</g>
<!-- Node2&#45;&gt;Node6 -->
<g id="edge5_Node000002_Node000006" class="edge">
<title>Node2&#45;&gt;Node6</title>
<g id="a_edge5_Node000002_Node000006"><a xlink:title=" ">
<path fill="none" stroke="#63b8ff" d="M257.11,-187.3C274.6,-189.32 294.24,-191.59 312.76,-193.72"/>
<polygon fill="#63b8ff" stroke="#63b8ff" points="312.58,-197.23 322.92,-194.89 313.39,-190.27 312.58,-197.23"/>
</a>
</g>
</g>
<!-- Node7 -->
<g id="Node000007" class="node">
<title>Node7</title>
<g id="a_Node000007"><a xlink:href="namespacem__mpi__common.html#a04cfc0bdb377a0ce2f9fd478e4bb3807" target="_top" xlink:title="The subroutine terminates the MPI execution environment.">
<polygon fill="white" stroke="#666666" points="452.5,-308 318.5,-308 318.5,-278 452.5,-278 452.5,-308"/>
<text text-anchor="start" x="326.5" y="-296" font-family="Helvetica,sans-Serif" font-size="10.00">m_mpi_common::s_mpi</text>
<text text-anchor="middle" x="385.5" y="-285" font-family="Helvetica,sans-Serif" font-size="10.00">_abort</text>
</a>
</g>
</g>
<!-- Node2&#45;&gt;Node7 -->
<g id="edge6_Node000002_Node000007" class="edge">
<title>Node2&#45;&gt;Node7</title>
<g id="a_edge6_Node000002_Node000007"><a xlink:title=" ">
<path fill="none" stroke="#63b8ff" d="M213.92,-196.19C229.58,-215.95 259.6,-250.15 293,-269 298.04,-271.84 303.42,-274.36 308.96,-276.59"/>
<polygon fill="#63b8ff" stroke="#63b8ff" points="307.81,-279.89 318.4,-280.06 310.23,-273.32 307.81,-279.89"/>
</a>
</g>
</g>
<!-- Node8 -->
<g id="Node000008" class="node">
<title>Node8</title>
<g id="a_Node000008"><a xlink:href="namespacem__mpi__common.html#a1073fc1fcb6f3b9394606d5c9285e9f0" target="_top" xlink:title="Halts all processes until all have reached barrier.">
<polygon fill="white" stroke="#666666" points="452.5,-174 318.5,-174 318.5,-144 452.5,-144 452.5,-174"/>
<text text-anchor="start" x="326.5" y="-162" font-family="Helvetica,sans-Serif" font-size="10.00">m_mpi_common::s_mpi</text>
<text text-anchor="middle" x="385.5" y="-151" font-family="Helvetica,sans-Serif" font-size="10.00">_barrier</text>
</a>
</g>
</g>
<!-- Node2&#45;&gt;Node8 -->
<g id="edge7_Node000002_Node000008" class="edge">
<title>Node2&#45;&gt;Node8</title>
<g id="a_edge7_Node000002_Node000008"><a xlink:title=" ">
<path fill="none" stroke="#63b8ff" d="M257.11,-174.4C273.21,-172.45 291.14,-170.29 308.34,-168.21"/>
<polygon fill="#63b8ff" stroke="#63b8ff" points="308.85,-171.67 318.36,-167 308.01,-164.72 308.85,-171.67"/>
</a>
</g>
</g>
<!-- Node9 -->
<g id="Node000009" class="node">
<title>Node9</title>
<g id="a_Node000009"><a xlink:href="namespacem__boundary__io.html#ab6281588667a9843f9e3829c2a68c851" target="_top" xlink:title="Read boundary condition type and buffer data from per&#45;rank parallel files using MPI I/O.">
<polygon fill="white" stroke="#666666" points="478,-126 293,-126 293,-96 478,-96 478,-126"/>
<text text-anchor="start" x="301" y="-114" font-family="Helvetica,sans-Serif" font-size="10.00">m_boundary_io::s_read</text>
<text text-anchor="middle" x="385.5" y="-103" font-family="Helvetica,sans-Serif" font-size="10.00">_parallel_boundary_condition_files</text>
</a>
</g>
</g>
<!-- Node2&#45;&gt;Node9 -->
<g id="edge8_Node000002_Node000009" class="edge">
<title>Node2&#45;&gt;Node9</title>
<g id="a_edge8_Node000002_Node000009"><a xlink:title=" ">
<path fill="none" stroke="#63b8ff" d="M228.36,-165.99C246.1,-156.15 270.43,-143.58 293,-135 298.51,-132.91 304.27,-130.93 310.1,-129.07"/>
<polygon fill="#63b8ff" stroke="#63b8ff" points="311.41,-132.33 319.96,-126.07 309.37,-125.64 311.41,-132.33"/>
</a>
</g>
</g>
<!-- Node10 -->
<g id="Node000010" class="node">
<title>Node10</title>
<g id="a_Node000010"><a xlink:href="namespacem__delay__file__access.html#a9b90086a2cf6bbb569047c955d2e67fe" target="_top" xlink:title="Introduce a rank&#45;dependent busy&#45;wait delay to stagger parallel file access and reduce I/O contention.">
<polygon fill="white" stroke="#666666" points="642,-102 525,-102 525,-72 642,-72 642,-102"/>
<text text-anchor="start" x="533" y="-90" font-family="Helvetica,sans-Serif" font-size="10.00">m_delay_file_access</text>
<text text-anchor="middle" x="583.5" y="-79" font-family="Helvetica,sans-Serif" font-size="10.00">::delayfileaccess</text>
</a>
</g>
</g>
<!-- Node9&#45;&gt;Node10 -->
<g id="edge9_Node000009_Node000010" class="edge">
<title>Node9&#45;&gt;Node10</title>
<g id="a_edge9_Node000009_Node000010"><a xlink:title=" ">
<path fill="none" stroke="#63b8ff" d="M478.19,-99.77C490.52,-98.26 502.98,-96.74 514.79,-95.29"/>
<polygon fill="#63b8ff" stroke="#63b8ff" points="515.48,-98.73 524.98,-94.04 514.63,-91.78 515.48,-98.73"/>
</a>
</g>
</g>
<!-- Node11 -->
<g id="Node000011" class="node">
<title>Node11</title>
<g id="a_Node000011"><a xlink:href="namespacem__compile__specific.html#a9cf8c029e502931415929734c03f340d" target="_top" xlink:title="Inquires on the existence of a directory.">
<polygon fill="white" stroke="#666666" points="640,-286 527,-286 527,-256 640,-256 640,-286"/>
<text text-anchor="start" x="535" y="-274" font-family="Helvetica,sans-Serif" font-size="10.00">m_compile_specific</text>
<text text-anchor="middle" x="583.5" y="-263" font-family="Helvetica,sans-Serif" font-size="10.00">::my_inquire</text>
</a>
</g>
</g>
<!-- Node9&#45;&gt;Node11 -->
<g id="edge10_Node000009_Node000011" class="edge">
<title>Node9&#45;&gt;Node11</title>
<g id="a_edge10_Node000009_Node000011"><a xlink:title=" ">
<path fill="none" stroke="#63b8ff" d="M461.24,-126.06C467.13,-128.59 472.8,-131.55 478,-135 520.98,-163.53 553.65,-215.73 570.27,-246.5"/>
<polygon fill="#63b8ff" stroke="#63b8ff" points="567.35,-248.46 575.1,-255.68 573.54,-245.2 567.35,-248.46"/>
</a>
</g>
</g>
<!-- Node12 -->
<g id="Node000012" class="node">
<title>Node12</title>
<g id="a_Node000012"><a xlink:href="namespacem__boundary__io.html#a74922617e3b2c7a414056d32bc6aa14d" target="_top" xlink:title="Create MPI derived datatypes for boundary condition type arrays and buffer arrays used in parallel I/...">
<polygon fill="white" stroke="#666666" points="653,-150 514,-150 514,-120 653,-120 653,-150"/>
<text text-anchor="start" x="522" y="-138" font-family="Helvetica,sans-Serif" font-size="10.00">m_boundary_io::s_create</text>
<text text-anchor="middle" x="583.5" y="-127" font-family="Helvetica,sans-Serif" font-size="10.00">_mpi_types</text>
</a>
</g>
</g>
<!-- Node9&#45;&gt;Node12 -->
<g id="edge11_Node000009_Node000012" class="edge">
<title>Node9&#45;&gt;Node12</title>
<g id="a_edge11_Node000009_Node000012"><a xlink:title=" ">
<path fill="none" stroke="#63b8ff" d="M478.19,-122.23C486.69,-123.27 495.25,-124.32 503.62,-125.34"/>
<polygon fill="#63b8ff" stroke="#63b8ff" points="503.37,-128.84 513.72,-126.58 504.22,-121.89 503.37,-128.84"/>
</a>
</g>
</g>
<!-- Node13&#45;&gt;Node3 -->
<g id="edge14_Node000013_Node000003" class="edge">
<title>Node13&#45;&gt;Node3</title>
<g id="a_edge14_Node000013_Node000003"><a xlink:title=" ">
<path fill="none" stroke="#63b8ff" d="M256.57,-278.64C268.56,-275.46 281.21,-272.11 293,-269 300.79,-266.95 308.95,-264.8 317.06,-262.67"/>
<polygon fill="#63b8ff" stroke="#63b8ff" points="318.11,-266.01 326.9,-260.08 316.34,-259.24 318.11,-266.01"/>
</a>
</g>
</g>
<!-- Node13&#45;&gt;Node7 -->
<g id="edge15_Node000013_Node000007" class="edge">
<title>Node13&#45;&gt;Node7</title>
<g id="a_edge15_Node000013_Node000007"><a xlink:title=" ">
<path fill="none" stroke="#63b8ff" d="M256.61,-293C272.82,-293 290.9,-293 308.25,-293"/>
<polygon fill="#63b8ff" stroke="#63b8ff" points="308.36,-296.5 318.36,-293 308.36,-289.5 308.36,-296.5"/>
</a>
</g>
</g>
<!-- Node13&#45;&gt;Node11 -->
<g id="edge13_Node000013_Node000011" class="edge">
<title>Node13&#45;&gt;Node11</title>
<g id="a_edge13_Node000013_Node000011"><a xlink:title=" ">
<path fill="none" stroke="#63b8ff" d="M249.94,-308.05C263.69,-311.74 278.82,-315.15 293,-317 374.53,-327.63 397.54,-333.93 478,-317 502.28,-311.89 527.8,-300.78 547.54,-290.76"/>
<polygon fill="#63b8ff" stroke="#63b8ff" points="549.21,-293.84 556.46,-286.11 545.98,-287.63 549.21,-293.84"/>
</a>
</g>
</g>
<!-- Node14 -->
<g id="Node000014" class="node">
<title>Node14</title>
<g id="a_Node000014"><a xlink:href="namespacem__boundary__io.html#a6bd453bc00436c7cbb2d823169f9dd10" target="_top" xlink:title="Read boundary condition type and buffer data from serial (unformatted) restart files.">
<polygon fill="white" stroke="#666666" points="473.5,-394 297.5,-394 297.5,-364 473.5,-364 473.5,-394"/>
<text text-anchor="start" x="305.5" y="-382" font-family="Helvetica,sans-Serif" font-size="10.00">m_boundary_io::s_read</text>
<text text-anchor="middle" x="385.5" y="-371" font-family="Helvetica,sans-Serif" font-size="10.00">_serial_boundary_condition_files</text>
</a>
</g>
</g>
<!-- Node13&#45;&gt;Node14 -->
<g id="edge16_Node000013_Node000014" class="edge">
<title>Node13&#45;&gt;Node14</title>
<g id="a_edge16_Node000013_Node000014"><a xlink:title=" ">
<path fill="none" stroke="#63b8ff" d="M223.2,-308.19C241.01,-320.72 267.74,-338.28 293,-350 301.33,-353.86 310.3,-357.41 319.27,-360.59"/>
<polygon fill="#63b8ff" stroke="#63b8ff" points="318.37,-363.98 328.96,-363.9 320.63,-357.35 318.37,-363.98"/>
</a>
</g>
</g>
</g>
</svg>

<g id="navigator" transform="translate(0 0)" fill="#404254">
  <rect fill="#f2f5e9" fill-opacity="0.5" stroke="#606060" stroke-width=".5" x="0" y="0" width="60" height="60"/>
  <use id="zoomplus" xlink:href="#zoomPlus" x="17" y="9" onmousedown="handleZoom(evt,'in')"/>
  <use id="zoomminus" xlink:href="#zoomMin" x="42" y="9" onmousedown="handleZoom(evt,'out')"/>
  <use id="reset" xlink:href="#resetDef" x="30" y="36" onmousedown="handleReset()"/>
   <use id="arrowup" xlink:href="#arrowUp" x="0" y="0" onmousedown="handlePan(0,-1)"/>
  <use id="arrowright" xlink:href="#arrowRight" x="0" y="0" onmousedown="handlePan(1,0)"/>
  <use id="arrowdown" xlink:href="#arrowDown" x="0" y="0" onmousedown="handlePan(0,1)"/>
  <use id="arrowleft" xlink:href="#arrowLeft" x="0" y="0" onmousedown="handlePan(-1,0)"/>
</g>
<svg viewBox="0 0 15 15" width="100%" height="30px" preserveAspectRatio="xMaxYMin meet">
 <g id="arrow_out" transform="scale(0.3 0.3)">
  <a xlink:href="namespacem__start__up_a25f79bc2aae3d0302d4a97247d84f92a_cgraph_org.svg" target="_base">
   <rect id="button" ry="5" rx="5" y="6" x="6" height="38" width="38"
        fill="#f2f5e9" fill-opacity="0.5" stroke="#606060" stroke-width="1.0"/>
   <path id="arrow"
     d="M 11.500037,31.436501 C 11.940474,20.09759 22.043105,11.32322 32.158766,21.979434 L 37.068811,17.246167 C 37.068811,17.246167 37.088388,32 37.088388,32 L 22.160133,31.978069 C 22.160133,31.978069 26.997745,27.140456 26.997745,27.140456 C 18.528582,18.264221 13.291696,25.230495 11.500037,31.436501 z"
     style="fill:#404040;"/>
  </a>
 </g>
</svg>

<style type='text/css'>
<![CDATA[
[data-mouse-over-selected='false'] { opacity: 0.7; }
[data-mouse-over-selected='true']  { opacity: 1.0; }
]]>
</style>
<script type="application/ecmascript"><![CDATA[
document.addEventListener('DOMContentLoaded', (event) => {
  highlightEdges();
  highlightAdjacentNodes();
});
]]></script>
</svg>
