<?xml version="1.0" encoding="UTF-8" standalone="no"?>
<!DOCTYPE svg PUBLIC "-//W3C//DTD SVG 1.1//EN"
 "http://www.w3.org/Graphics/SVG/1.1/DTD/svg11.dtd">
<!-- Generated by graphviz version 2.40.1 (20161225.0304)
 -->
<!-- Title: m_data_output::s_write_serial_data_files Pages: 1 -->
<svg width="283pt" height="56pt"
 viewBox="0.00 0.00 283.00 56.00" xmlns="http://www.w3.org/2000/svg" xmlns:xlink="http://www.w3.org/1999/xlink">
<g id="graph0" class="graph" transform="scale(1 1) rotate(0) translate(4 52)">
<title>m_data_output::s_write_serial_data_files</title>
<polygon fill="#ffffff" stroke="transparent" points="-4,4 -4,-52 279,-52 279,4 -4,4"/>
<!-- Node101 -->
<g id="node1" class="node">
<title>Node101</title>
<polygon fill="#bfbfbf" stroke="#000000" points="0,-.5 0,-26.5 79,-26.5 79,-.5 0,-.5"/>
<text text-anchor="start" x="8" y="-16.1" font-family="Helvetica,sans-Serif" font-size="8.00" fill="#000000">m_data_output::s_write</text>
<text text-anchor="middle" x="39.5" y="-7.1" font-family="Helvetica,sans-Serif" font-size="8.00" fill="#000000">_serial_data_files</text>
</g>
<!-- Node102 -->
<g id="node2" class="node">
<title>Node102</title>
<g id="a_node2"><a xlink:href="namespacem__data__output.html#ab65b312ef83adb104cafafada9c998b6" target="_top" xlink:title="The computation of parameters, the allocation of memory, the association of pointers and/or the execu...">
<polygon fill="#ffffff" stroke="#000000" points="115,-21.5 115,-47.5 203,-47.5 203,-21.5 115,-21.5"/>
<text text-anchor="start" x="123" y="-37.1" font-family="Helvetica,sans-Serif" font-size="8.00" fill="#000000">m_data_output::s_initialize</text>
<text text-anchor="middle" x="159" y="-28.1" font-family="Helvetica,sans-Serif" font-size="8.00" fill="#000000">_data_output_module</text>
</a>
</g>
</g>
<!-- Node101&#45;&gt;Node102 -->
<g id="edge1" class="edge">
<title>Node101&#45;&gt;Node102</title>
<path fill="none" stroke="#191970" d="M89.4111,-22.271C97.8553,-23.7549 106.5692,-25.2862 114.8527,-26.7419"/>
<polygon fill="#191970" stroke="#191970" points="89.7467,-18.7764 79.2918,-20.4927 88.535,-25.6708 89.7467,-18.7764"/>
</g>
<!-- Node103 -->
<g id="node3" class="node">
<title>Node103</title>
<g id="a_node3"><a xlink:href="p__main_8f90.html#aeec10ee8e2940c953967da3e374e1579" target="_top" xlink:title="Quasi&#45;conservative, shock&#45; and interface&#45; capturing finite&#45;volume scheme for the multicomponent Navie...">
<polygon fill="#ffffff" stroke="#000000" points="239,-5 239,-22 275,-22 275,-5 239,-5"/>
<text text-anchor="middle" x="257" y="-11.6" font-family="Helvetica,sans-Serif" font-size="8.00" fill="#000000">p_main</text>
</a>
</g>
</g>
<!-- Node101&#45;&gt;Node103 -->
<g id="edge3" class="edge">
<title>Node101&#45;&gt;Node103</title>
<path fill="none" stroke="#191970" d="M89.3407,-12.7465C97.8994,-12.6438 106.7058,-12.5549 115,-12.5 154.1103,-12.241 163.8906,-12.1379 203,-12.5 214.814,-12.6094 228.08,-12.8533 238.5068,-13.0729"/>
<polygon fill="#191970" stroke="#191970" points="89.0294,-9.25 79.0748,-12.8772 89.1186,-16.2495 89.0294,-9.25"/>
</g>
<!-- Node102&#45;&gt;Node103 -->
<g id="edge2" class="edge">
<title>Node102&#45;&gt;Node103</title>
<path fill="none" stroke="#191970" d="M213.1951,-22.8868C222.4422,-20.9052 231.4397,-18.9772 238.8503,-17.3892"/>
<polygon fill="#191970" stroke="#191970" points="212.171,-19.5267 203.1263,-25.0444 213.6377,-26.3713 212.171,-19.5267"/>
</g>
</g>
</svg>
