<?xml version="1.0" encoding="UTF-8" standalone="no"?>
<!DOCTYPE svg PUBLIC "-//W3C//DTD SVG 1.1//EN"
 "http://www.w3.org/Graphics/SVG/1.1/DTD/svg11.dtd">
<!-- Generated by graphviz version 2.43.0 (0)
 -->
<!-- Title: m_delay_file_access::delayfileaccess Pages: 1 -->
<svg width="722pt" height="86pt"
 viewBox="0.00 0.00 722.00 86.00" xmlns="http://www.w3.org/2000/svg" xmlns:xlink="http://www.w3.org/1999/xlink">
<g id="graph0" class="graph" transform="scale(1 1) rotate(0) translate(4 82)">
<title>m_delay_file_access::delayfileaccess</title>
<!-- Node1 -->
<g id="Node000001" class="node">
<title>Node1</title>
<g id="a_Node000001"><a xlink:title="Introduce a rank&#45;dependent busy&#45;wait delay to stagger parallel file access and reduce I/O contention.">
<polygon fill="#999999" stroke="#666666" points="714,-54 597,-54 597,-24 714,-24 714,-54"/>
<text text-anchor="start" x="605" y="-42" font-family="Helvetica,sans-Serif" font-size="10.00">m_delay_file_access</text>
<text text-anchor="middle" x="655.5" y="-31" font-family="Helvetica,sans-Serif" font-size="10.00">::delayfileaccess</text>
</a>
</g>
</g>
<!-- Node2 -->
<g id="Node000002" class="node">
<title>Node2</title>
<g id="a_Node000002"><a xlink:href="namespacem__data__output.html#ad3497d325f009e8502107d49ba0e439d" target="_top" xlink:title="Write grid and conservative variable data files in parallel via MPI I/O.">
<polygon fill="white" stroke="#666666" points="561,-78 430,-78 430,-48 561,-48 561,-78"/>
<text text-anchor="start" x="438" y="-66" font-family="Helvetica,sans-Serif" font-size="10.00">m_data_output::s_write</text>
<text text-anchor="middle" x="495.5" y="-55" font-family="Helvetica,sans-Serif" font-size="10.00">_parallel_data_files</text>
</a>
</g>
</g>
<!-- Node1&#45;&gt;Node2 -->
<g id="edge1_Node000001_Node000002" class="edge">
<title>Node1&#45;&gt;Node2</title>
<g id="a_edge1_Node000001_Node000002"><a xlink:title=" ">
<path fill="none" stroke="#63b8ff" d="M586.42,-49.34C578.02,-50.62 569.45,-51.92 561.1,-53.19"/>
<polygon fill="#63b8ff" stroke="#63b8ff" points="587.2,-52.76 596.56,-47.8 586.15,-45.84 587.2,-52.76"/>
</a>
</g>
</g>
<!-- Node6 -->
<g id="Node000006" class="node">
<title>Node6</title>
<g id="a_Node000006"><a xlink:href="namespacem__data__output.html#a53a556dc3fa26f1f97eb2044e8391997" target="_top" xlink:title="Writes the IB state information out to file.">
<polygon fill="white" stroke="#666666" points="561,-30 430,-30 430,0 561,0 561,-30"/>
<text text-anchor="start" x="438" y="-18" font-family="Helvetica,sans-Serif" font-size="10.00">m_data_output::s_write</text>
<text text-anchor="middle" x="495.5" y="-7" font-family="Helvetica,sans-Serif" font-size="10.00">_parallel_ib_state</text>
</a>
</g>
</g>
<!-- Node1&#45;&gt;Node6 -->
<g id="edge5_Node000001_Node000006" class="edge">
<title>Node1&#45;&gt;Node6</title>
<g id="a_edge5_Node000001_Node000006"><a xlink:title=" ">
<path fill="none" stroke="#63b8ff" d="M586.42,-28.66C578.02,-27.38 569.45,-26.08 561.1,-24.81"/>
<polygon fill="#63b8ff" stroke="#63b8ff" points="586.15,-32.16 596.56,-30.2 587.2,-25.24 586.15,-32.16"/>
</a>
</g>
</g>
<!-- Node3 -->
<g id="Node000003" class="node">
<title>Node3</title>
<g id="a_Node000003"><a xlink:href="namespacem__data__output.html#a9eea8de093f055adb3b786bff3cab2d8" target="_top" xlink:title="Write data files. Dispatch subroutine that replaces procedure pointer.">
<polygon fill="white" stroke="#666666" points="394,-78 263,-78 263,-48 394,-48 394,-78"/>
<text text-anchor="start" x="271" y="-66" font-family="Helvetica,sans-Serif" font-size="10.00">m_data_output::s_write</text>
<text text-anchor="middle" x="328.5" y="-55" font-family="Helvetica,sans-Serif" font-size="10.00">_data_files</text>
</a>
</g>
</g>
<!-- Node2&#45;&gt;Node3 -->
<g id="edge2_Node000002_Node000003" class="edge">
<title>Node2&#45;&gt;Node3</title>
<g id="a_edge2_Node000002_Node000003"><a xlink:title=" ">
<path fill="none" stroke="#63b8ff" d="M419.76,-63C411.18,-63 402.48,-63 394.05,-63"/>
<polygon fill="#63b8ff" stroke="#63b8ff" points="419.76,-66.5 429.76,-63 419.76,-59.5 419.76,-66.5"/>
</a>
</g>
</g>
<!-- Node4 -->
<g id="Node000004" class="node">
<title>Node4</title>
<g id="a_Node000004"><a xlink:href="namespacem__start__up.html#a47ade6ffcd98aafcccf10910f626142d" target="_top" xlink:title="Save conservative variable data to disk at the current time step.">
<polygon fill="white" stroke="#666666" points="227,-67.5 89,-67.5 89,-48.5 227,-48.5 227,-67.5"/>
<text text-anchor="middle" x="158" y="-55.5" font-family="Helvetica,sans-Serif" font-size="10.00">m_start_up::s_save_data</text>
</a>
</g>
</g>
<!-- Node3&#45;&gt;Node4 -->
<g id="edge3_Node000003_Node000004" class="edge">
<title>Node3&#45;&gt;Node4</title>
<g id="a_edge3_Node000003_Node000004"><a xlink:title=" ">
<path fill="none" stroke="#63b8ff" d="M252.58,-60.78C244.11,-60.53 235.51,-60.27 227.13,-60.02"/>
<polygon fill="#63b8ff" stroke="#63b8ff" points="252.74,-64.28 262.84,-61.08 252.94,-57.29 252.74,-64.28"/>
</a>
</g>
</g>
<!-- Node5 -->
<g id="Node000005" class="node">
<title>Node5</title>
<g id="a_Node000005"><a xlink:href="p__main_8fpp_8f90.html#aeec10ee8e2940c953967da3e374e1579" target="_top" xlink:title="Quasi&#45;conservative, shock&#45; and interface&#45; capturing finite&#45;volume scheme for the multicomponent Navie...">
<polygon fill="white" stroke="#666666" points="53,-45.5 0,-45.5 0,-26.5 53,-26.5 53,-45.5"/>
<text text-anchor="middle" x="26.5" y="-33.5" font-family="Helvetica,sans-Serif" font-size="10.00">p_main</text>
</a>
</g>
</g>
<!-- Node4&#45;&gt;Node5 -->
<g id="edge4_Node000004_Node000005" class="edge">
<title>Node4&#45;&gt;Node5</title>
<g id="a_edge4_Node000004_Node000005"><a xlink:title=" ">
<path fill="none" stroke="#63b8ff" d="M90.73,-46.74C77.33,-44.47 64.02,-42.2 53.1,-40.35"/>
<polygon fill="#63b8ff" stroke="#63b8ff" points="90.51,-50.25 100.95,-48.48 91.68,-43.35 90.51,-50.25"/>
</a>
</g>
</g>
<!-- Node7 -->
<g id="Node000007" class="node">
<title>Node7</title>
<g id="a_Node000007"><a xlink:href="namespacem__data__output.html#ad7b2f63ea430ad1518152658c5488dcf" target="_top" xlink:title="Writes IB state records to restart_data/ib_state.dat. Must be called only on rank 0.">
<polygon fill="white" stroke="#666666" points="394,-30 263,-30 263,0 394,0 394,-30"/>
<text text-anchor="start" x="271" y="-18" font-family="Helvetica,sans-Serif" font-size="10.00">m_data_output::s_write</text>
<text text-anchor="middle" x="328.5" y="-7" font-family="Helvetica,sans-Serif" font-size="10.00">_ib_state_file</text>
</a>
</g>
</g>
<!-- Node6&#45;&gt;Node7 -->
<g id="edge6_Node000006_Node000007" class="edge">
<title>Node6&#45;&gt;Node7</title>
<g id="a_edge6_Node000006_Node000007"><a xlink:title=" ">
<path fill="none" stroke="#63b8ff" d="M419.76,-15C411.18,-15 402.48,-15 394.05,-15"/>
<polygon fill="#63b8ff" stroke="#63b8ff" points="419.76,-18.5 429.76,-15 419.76,-11.5 419.76,-18.5"/>
</a>
</g>
</g>
<!-- Node7&#45;&gt;Node4 -->
<g id="edge9_Node000007_Node000004" class="edge">
<title>Node7&#45;&gt;Node4</title>
<g id="a_edge9_Node000007_Node000004"><a xlink:title=" ">
<path fill="none" stroke="#63b8ff" d="M258.86,-32.52C237.48,-37.97 214.7,-43.78 196.31,-48.48"/>
<polygon fill="#63b8ff" stroke="#63b8ff" points="259.74,-35.9 268.57,-30.04 258.01,-29.12 259.74,-35.9"/>
</a>
</g>
</g>
<!-- Node8 -->
<g id="Node000008" class="node">
<title>Node8</title>
<g id="a_Node000008"><a xlink:href="namespacem__start__up.html#a1fb7a3f9d412acd2a9cbcfe8b45006dd" target="_top" xlink:title="Initialize all simulation sub&#45;modules in the required dependency order.">
<polygon fill="white" stroke="#666666" points="223,-30 93,-30 93,0 223,0 223,-30"/>
<text text-anchor="start" x="101" y="-18" font-family="Helvetica,sans-Serif" font-size="10.00">m_start_up::s_initialize</text>
<text text-anchor="middle" x="158" y="-7" font-family="Helvetica,sans-Serif" font-size="10.00">_modules</text>
</a>
</g>
</g>
<!-- Node7&#45;&gt;Node8 -->
<g id="edge7_Node000007_Node000008" class="edge">
<title>Node7&#45;&gt;Node8</title>
<g id="a_edge7_Node000007_Node000008"><a xlink:title=" ">
<path fill="none" stroke="#63b8ff" d="M252.68,-15C242.85,-15 232.85,-15 223.21,-15"/>
<polygon fill="#63b8ff" stroke="#63b8ff" points="252.84,-18.5 262.84,-15 252.84,-11.5 252.84,-18.5"/>
</a>
</g>
</g>
<!-- Node8&#45;&gt;Node5 -->
<g id="edge8_Node000008_Node000005" class="edge">
<title>Node8&#45;&gt;Node5</title>
<g id="a_edge8_Node000008_Node000005"><a xlink:title=" ">
<path fill="none" stroke="#63b8ff" d="M82.52,-27.08C72.04,-28.78 61.91,-30.42 53.26,-31.82"/>
<polygon fill="#63b8ff" stroke="#63b8ff" points="83.32,-30.49 92.63,-25.44 82.2,-23.58 83.32,-30.49"/>
</a>
</g>
</g>
</g>
</svg>
