<?xml version="1.0" encoding="UTF-8" standalone="no"?>
<!DOCTYPE svg PUBLIC "-//W3C//DTD SVG 1.1//EN"
 "http://www.w3.org/Graphics/SVG/1.1/DTD/svg11.dtd">
<!-- Generated by graphviz version 2.40.1 (20161225.0304)
 -->
<!-- Title: m_riemann_solvers::s_compute_arithmetic_average_state Pages: 1 -->
<svg width="263pt" height="44pt"
 viewBox="0.00 0.00 263.00 44.00" xmlns="http://www.w3.org/2000/svg" xmlns:xlink="http://www.w3.org/1999/xlink">
<g id="graph0" class="graph" transform="scale(1 1) rotate(0) translate(4 40)">
<title>m_riemann_solvers::s_compute_arithmetic_average_state</title>
<polygon fill="#ffffff" stroke="transparent" points="-4,4 -4,-40 259,-40 259,4 -4,4"/>
<!-- Node4 -->
<g id="node1" class="node">
<title>Node4</title>
<polygon fill="#bfbfbf" stroke="#000000" points="0,-.5 0,-35.5 75,-35.5 75,-.5 0,-.5"/>
<text text-anchor="start" x="8" y="-25.1" font-family="Helvetica,sans-Serif" font-size="8.00" fill="#000000">m_riemann_solvers::</text>
<text text-anchor="start" x="8" y="-16.1" font-family="Helvetica,sans-Serif" font-size="8.00" fill="#000000">s_compute_arithmetic</text>
<text text-anchor="middle" x="37.5" y="-7.1" font-family="Helvetica,sans-Serif" font-size="8.00" fill="#000000">_average_state</text>
</g>
<!-- Node5 -->
<g id="node2" class="node">
<title>Node5</title>
<g id="a_node2"><a xlink:href="namespacem__riemann__solvers.html#aab7e6bf69b7d0b8b9d911f418b872130" target="_top" xlink:title="The computation of parameters, the allocation of memory, the association of pointers and/or the execu...">
<polygon fill="#ffffff" stroke="#000000" points="111,-.5 111,-35.5 183,-35.5 183,-.5 111,-.5"/>
<text text-anchor="start" x="119" y="-25.1" font-family="Helvetica,sans-Serif" font-size="8.00" fill="#000000">m_riemann_solvers::</text>
<text text-anchor="start" x="119" y="-16.1" font-family="Helvetica,sans-Serif" font-size="8.00" fill="#000000">s_initialize_riemann</text>
<text text-anchor="middle" x="147" y="-7.1" font-family="Helvetica,sans-Serif" font-size="8.00" fill="#000000">_solvers_module</text>
</a>
</g>
</g>
<!-- Node4&#45;&gt;Node5 -->
<g id="edge1" class="edge">
<title>Node4&#45;&gt;Node5</title>
<path fill="none" stroke="#191970" d="M85.386,-18C93.8874,-18 102.6132,-18 110.7258,-18"/>
<polygon fill="#191970" stroke="#191970" points="85.1837,-14.5001 75.1837,-18 85.1837,-21.5001 85.1837,-14.5001"/>
</g>
<!-- Node6 -->
<g id="node3" class="node">
<title>Node6</title>
<g id="a_node3"><a xlink:href="p__main_8f90.html#aeec10ee8e2940c953967da3e374e1579" target="_top" xlink:title="Quasi&#45;conservative, shock&#45; and interface&#45; capturing finite&#45;volume scheme for the multicomponent Navie...">
<polygon fill="#ffffff" stroke="#000000" points="219,-9.5 219,-26.5 255,-26.5 255,-9.5 219,-9.5"/>
<text text-anchor="middle" x="237" y="-16.1" font-family="Helvetica,sans-Serif" font-size="8.00" fill="#000000">p_main</text>
</a>
</g>
</g>
<!-- Node5&#45;&gt;Node6 -->
<g id="edge2" class="edge">
<title>Node5&#45;&gt;Node6</title>
<path fill="none" stroke="#191970" d="M193.3258,-18C202.437,-18 211.4757,-18 218.9461,-18"/>
<polygon fill="#191970" stroke="#191970" points="193.0879,-14.5001 183.0879,-18 193.0878,-21.5001 193.0879,-14.5001"/>
</g>
</g>
</svg>
