<?xml version="1.0" encoding="UTF-8" standalone="no"?>
<!DOCTYPE svg PUBLIC "-//W3C//DTD SVG 1.1//EN"
 "http://www.w3.org/Graphics/SVG/1.1/DTD/svg11.dtd">
<!-- Generated by graphviz version 2.43.0 (0)
 -->
<!-- Title: m_start_up::s_read_data_files Pages: 1 -->
<svg width="440pt" height="235pt"
 viewBox="0.00 0.00 440.00 234.50" xmlns="http://www.w3.org/2000/svg" xmlns:xlink="http://www.w3.org/1999/xlink">

<svg id="main" version="1.1" xmlns="http://www.w3.org/2000/svg" xmlns:xlink="http://www.w3.org/1999/xlink" xml:space="preserve">

<style type="text/css"><![CDATA[
.node, .edge {opacity: 0.7;}
.node.selected, .edge.selected {opacity: 1;}
.edge:hover path { stroke: red; }
.edge:hover polygon { stroke: red; fill: red; }
]]></style>
<script type="application/ecmascript" xlink:href="svg.min.js"/>
<svg id="graph" class="graph">
<g id="graph0" class="graph" transform="scale(1 1) rotate(0) translate(4 230.5)">
<title>m_start_up::s_read_data_files</title>
<!-- Node1 -->
<g id="Node000001" class="node">
<title>Node1</title>
<g id="a_Node000001"><a xlink:title="Read data files. Dispatch subroutine that replaces procedure pointer.">
<polygon fill="#999999" stroke="#666666" points="110,-138.5 0,-138.5 0,-108.5 110,-108.5 110,-138.5"/>
<text text-anchor="start" x="8" y="-126.5" font-family="Helvetica,sans-Serif" font-size="10.00">m_start_up::s_read</text>
<text text-anchor="middle" x="55" y="-115.5" font-family="Helvetica,sans-Serif" font-size="10.00">_data_files</text>
</a>
</g>
</g>
<!-- Node2 -->
<g id="Node000002" class="node">
<title>Node2</title>
<g id="a_Node000002"><a xlink:href="namespacem__start__up.html#a45c8fef6680263063a1c7d2fa1748013" target="_top" xlink:title=" ">
<polygon fill="white" stroke="#666666" points="257,-114.5 146,-114.5 146,-84.5 257,-84.5 257,-114.5"/>
<text text-anchor="start" x="154" y="-102.5" font-family="Helvetica,sans-Serif" font-size="10.00">m_start_up::s_read</text>
<text text-anchor="middle" x="201.5" y="-91.5" font-family="Helvetica,sans-Serif" font-size="10.00">_parallel_data_files</text>
</a>
</g>
</g>
<!-- Node1&#45;&gt;Node2 -->
<g id="edge1_Node000001_Node000002" class="edge">
<title>Node1&#45;&gt;Node2</title>
<g id="a_edge1_Node000001_Node000002"><a xlink:title=" ">
<path fill="none" stroke="#63b8ff" d="M110.22,-114.5C118.62,-113.1 127.37,-111.65 135.98,-110.22"/>
<polygon fill="#63b8ff" stroke="#63b8ff" points="136.69,-113.65 145.98,-108.56 135.54,-106.74 136.69,-113.65"/>
</a>
</g>
</g>
<!-- Node8 -->
<g id="Node000008" class="node">
<title>Node8</title>
<g id="a_Node000008"><a xlink:href="namespacem__start__up.html#abd3c3fd9fbb80ef2ddaf82945c1c1af9" target="_top" xlink:title=" ">
<polygon fill="white" stroke="#666666" points="256.5,-170.5 146.5,-170.5 146.5,-140.5 256.5,-140.5 256.5,-170.5"/>
<text text-anchor="start" x="154.5" y="-158.5" font-family="Helvetica,sans-Serif" font-size="10.00">m_start_up::s_read</text>
<text text-anchor="middle" x="201.5" y="-147.5" font-family="Helvetica,sans-Serif" font-size="10.00">_serial_data_files</text>
</a>
</g>
</g>
<!-- Node1&#45;&gt;Node8 -->
<g id="edge7_Node000001_Node000008" class="edge">
<title>Node1&#45;&gt;Node8</title>
<g id="a_edge7_Node000001_Node000008"><a xlink:title=" ">
<path fill="none" stroke="#63b8ff" d="M110.22,-135.51C118.83,-137.41 127.81,-139.4 136.61,-141.35"/>
<polygon fill="#63b8ff" stroke="#63b8ff" points="135.94,-144.79 146.46,-143.53 137.45,-137.95 135.94,-144.79"/>
</a>
</g>
</g>
<!-- Node3 -->
<g id="Node000003" class="node">
<title>Node3</title>
<g id="a_Node000003"><a xlink:href="namespacem__sim__helpers.html#aa1cd339e7aa07731182ca9edee00aae1" target="_top" xlink:title=" ">
<polygon fill="white" stroke="#666666" points="432,-178.5 293,-178.5 293,-148.5 432,-148.5 432,-178.5"/>
<text text-anchor="start" x="301" y="-166.5" font-family="Helvetica,sans-Serif" font-size="10.00">m_sim_helpers::s_assign</text>
<text text-anchor="middle" x="362.5" y="-155.5" font-family="Helvetica,sans-Serif" font-size="10.00">_default_bc_type</text>
</a>
</g>
</g>
<!-- Node2&#45;&gt;Node3 -->
<g id="edge2_Node000002_Node000003" class="edge">
<title>Node2&#45;&gt;Node3</title>
<g id="a_edge2_Node000002_Node000003"><a xlink:title=" ">
<path fill="none" stroke="#63b8ff" d="M236.26,-114.59C253.2,-122.02 274.08,-130.98 293,-138.5 298.35,-140.63 303.96,-142.79 309.57,-144.9"/>
<polygon fill="#63b8ff" stroke="#63b8ff" points="308.38,-148.19 318.97,-148.4 310.82,-141.63 308.38,-148.19"/>
</a>
</g>
</g>
<!-- Node4 -->
<g id="Node000004" class="node">
<title>Node4</title>
<g id="a_Node000004"><a xlink:href="m__mpi__common_8fpp_8f90.html#a38945c557b779811c40fdc40b20d601f" target="_top" xlink:title=" ">
<polygon fill="white" stroke="#666666" points="422.5,-93 302.5,-93 302.5,-74 422.5,-74 422.5,-93"/>
<text text-anchor="middle" x="362.5" y="-81" font-family="Helvetica,sans-Serif" font-size="10.00">s_initialize_mpi_data</text>
</a>
</g>
</g>
<!-- Node2&#45;&gt;Node4 -->
<g id="edge3_Node000002_Node000004" class="edge">
<title>Node2&#45;&gt;Node4</title>
<g id="a_edge3_Node000002_Node000004"><a xlink:title=" ">
<path fill="none" stroke="#63b8ff" d="M257.22,-93.99C268.47,-92.86 280.47,-91.65 292.16,-90.48"/>
<polygon fill="#63b8ff" stroke="#63b8ff" points="292.73,-93.94 302.33,-89.45 292.03,-86.97 292.73,-93.94"/>
</a>
</g>
</g>
<!-- Node5 -->
<g id="Node000005" class="node">
<title>Node5</title>
<g id="a_Node000005"><a xlink:href="m__helper_8fpp_8f90.html#a8a0505b2bd4f3d8cb2bf3ce16cfe01e3" target="_top" xlink:title=" ">
<polygon fill="white" stroke="#666666" points="399,-56 326,-56 326,-37 399,-37 399,-56"/>
<text text-anchor="middle" x="362.5" y="-44" font-family="Helvetica,sans-Serif" font-size="10.00">s_int_to_str</text>
</a>
</g>
</g>
<!-- Node2&#45;&gt;Node5 -->
<g id="edge4_Node000002_Node000005" class="edge">
<title>Node2&#45;&gt;Node5</title>
<g id="a_edge4_Node000002_Node000005"><a xlink:title=" ">
<path fill="none" stroke="#63b8ff" d="M238.71,-84.42C255.13,-77.87 274.89,-70.36 293,-64.5 300.32,-62.13 308.16,-59.84 315.82,-57.74"/>
<polygon fill="#63b8ff" stroke="#63b8ff" points="316.97,-61.06 325.73,-55.09 315.16,-54.29 316.97,-61.06"/>
</a>
</g>
</g>
<!-- Node6 -->
<g id="Node000006" class="node">
<title>Node6</title>
<g id="a_Node000006"><a xlink:href="m__mpi__common_8fpp_8f90.html#a1089c9f9b69c10c74d35a4189ec13c35" target="_top" xlink:title="The subroutine terminates the MPI execution environment.">
<polygon fill="white" stroke="#666666" points="401,-130 324,-130 324,-111 401,-111 401,-130"/>
<text text-anchor="middle" x="362.5" y="-118" font-family="Helvetica,sans-Serif" font-size="10.00">s_mpi_abort</text>
</a>
</g>
</g>
<!-- Node2&#45;&gt;Node6 -->
<g id="edge5_Node000002_Node000006" class="edge">
<title>Node2&#45;&gt;Node6</title>
<g id="a_edge5_Node000002_Node000006"><a xlink:title=" ">
<path fill="none" stroke="#63b8ff" d="M257.22,-106.73C275.54,-109.15 295.82,-111.82 313.58,-114.17"/>
<polygon fill="#63b8ff" stroke="#63b8ff" points="313.34,-117.67 323.71,-115.51 314.26,-110.73 313.34,-117.67"/>
</a>
</g>
</g>
<!-- Node7 -->
<g id="Node000007" class="node">
<title>Node7</title>
<g id="a_Node000007"><a xlink:href="m__mpi__common_8fpp_8f90.html#af4b834c000e6de71e6a00e1224599976" target="_top" xlink:title="Halts all processes until all have reached barrier.">
<polygon fill="white" stroke="#666666" points="404,-19 321,-19 321,0 404,0 404,-19"/>
<text text-anchor="middle" x="362.5" y="-7" font-family="Helvetica,sans-Serif" font-size="10.00">s_mpi_barrier</text>
</a>
</g>
</g>
<!-- Node2&#45;&gt;Node7 -->
<g id="edge6_Node000002_Node000007" class="edge">
<title>Node2&#45;&gt;Node7</title>
<g id="a_edge6_Node000002_Node000007"><a xlink:title=" ">
<path fill="none" stroke="#63b8ff" d="M217.45,-84.3C234.35,-67.96 263.38,-42.34 293,-27.5 298.7,-24.64 304.9,-22.21 311.16,-20.14"/>
<polygon fill="#63b8ff" stroke="#63b8ff" points="312.43,-23.41 321,-17.17 310.41,-16.71 312.43,-23.41"/>
</a>
</g>
</g>
<!-- Node8&#45;&gt;Node3 -->
<g id="edge9_Node000008_Node000003" class="edge">
<title>Node8&#45;&gt;Node3</title>
<g id="a_edge9_Node000008_Node000003"><a xlink:title=" ">
<path fill="none" stroke="#63b8ff" d="M256.77,-158.23C265.12,-158.65 273.87,-159.09 282.61,-159.53"/>
<polygon fill="#63b8ff" stroke="#63b8ff" points="282.69,-163.04 292.85,-160.05 283.04,-156.05 282.69,-163.04"/>
</a>
</g>
</g>
<!-- Node8&#45;&gt;Node6 -->
<g id="edge10_Node000008_Node000006" class="edge">
<title>Node8&#45;&gt;Node6</title>
<g id="a_edge10_Node000008_Node000006"><a xlink:title=" ">
<path fill="none" stroke="#63b8ff" d="M256.77,-143.55C275.36,-139.46 296,-134.92 314.01,-130.95"/>
<polygon fill="#63b8ff" stroke="#63b8ff" points="314.98,-134.32 323.99,-128.76 313.47,-127.49 314.98,-134.32"/>
</a>
</g>
</g>
<!-- Node9 -->
<g id="Node000009" class="node">
<title>Node9</title>
<g id="a_Node000009"><a xlink:href="namespacem__compile__specific.html#aa7f14da74305c1d061ce326b16a3263e" target="_top" xlink:title="Inquires on the existence of a directory.">
<polygon fill="white" stroke="#666666" points="419,-226.5 306,-226.5 306,-196.5 419,-196.5 419,-226.5"/>
<text text-anchor="start" x="314" y="-214.5" font-family="Helvetica,sans-Serif" font-size="10.00">m_compile_specific</text>
<text text-anchor="middle" x="362.5" y="-203.5" font-family="Helvetica,sans-Serif" font-size="10.00">::my_inquire</text>
</a>
</g>
</g>
<!-- Node8&#45;&gt;Node9 -->
<g id="edge8_Node000008_Node000009" class="edge">
<title>Node8&#45;&gt;Node9</title>
<g id="a_edge8_Node000008_Node000009"><a xlink:title=" ">
<path fill="none" stroke="#63b8ff" d="M244.85,-170.5C260.03,-175.87 277.28,-181.97 293,-187.5 298.13,-189.3 303.47,-191.18 308.81,-193.06"/>
<polygon fill="#63b8ff" stroke="#63b8ff" points="307.78,-196.4 318.38,-196.41 310.1,-189.8 307.78,-196.4"/>
</a>
</g>
</g>
</g>
</svg>
</svg>

<style type='text/css'>
<![CDATA[
[data-mouse-over-selected='false'] { opacity: 0.7; }
[data-mouse-over-selected='true']  { opacity: 1.0; }
]]>
</style>
<script type="application/ecmascript"><![CDATA[
document.addEventListener('DOMContentLoaded', (event) => {
  highlightEdges();
  highlightAdjacentNodes();
});
]]></script>
</svg>
