<?xml version="1.0" encoding="UTF-8" standalone="no"?>
<!DOCTYPE svg PUBLIC "-//W3C//DTD SVG 1.1//EN"
 "http://www.w3.org/Graphics/SVG/1.1/DTD/svg11.dtd">
<!-- Generated by graphviz version 2.40.1 (20161225.0304)
 -->
<!-- Title: m_cbc::s_compute_supersonic_inflow_l Pages: 1 -->
<!--zoomable 215 -->
<svg id="main" version="1.1" xmlns="http://www.w3.org/2000/svg" xmlns:xlink="http://www.w3.org/1999/xlink" xml:space="preserve" onload="init(evt)">
<style type="text/css"><![CDATA[
.edge:hover path { stroke: red; }
.edge:hover polygon { stroke: red; fill: red; }
]]></style>
<script type="text/javascript"><![CDATA[
var edges = document.getElementsByTagName('g');
if (edges && edges.length) {
  for (var i=0;i<edges.length;i++) {
    if (edges[i].id.substr(0,4)=='edge') {
      edges[i].setAttribute('class','edge');
    }
  }
}
]]></script>
        <defs>
                <circle id="rim" cx="0" cy="0" r="7"/>
                <circle id="rim2" cx="0" cy="0" r="3.5"/>
                <g id="zoomPlus">
                        <use xlink:href="#rim" fill="#404040">
                                <set attributeName="fill" to="#808080" begin="zoomplus.mouseover" end="zoomplus.mouseout"/>
                        </use>
                        <path d="M-4,0h8M0,-4v8" fill="none" stroke="white" stroke-width="1.5" pointer-events="none"/>
                </g>
                <g id="zoomMin">
                        <use xlink:href="#rim" fill="#404040">
                                <set attributeName="fill" to="#808080" begin="zoomminus.mouseover" end="zoomminus.mouseout"/>
                        </use>
                        <path d="M-4,0h8" fill="none" stroke="white" stroke-width="1.5" pointer-events="none"/>
                </g>
                <g id="dirArrow">
                        <path fill="none" stroke="white" stroke-width="1.5" d="M0,-3.0v7 M-2.5,-0.5L0,-3.0L2.5,-0.5"/>
                </g>
               <g id="resetDef">
                       <use xlink:href="#rim2" fill="#404040">
                               <set attributeName="fill" to="#808080" begin="reset.mouseover" end="reset.mouseout"/>
                       </use>
               </g>
        </defs>

<script type="text/javascript">
var viewWidth = 601;
var viewHeight = 215;
var sectionId = 'dynsection-11';
</script>
<script xlink:href="svgpan.js"/>
<svg id="graph" class="graph">
<g id="viewport">
<title>m_cbc::s_compute_supersonic_inflow_l</title>
<polygon fill="#ffffff" stroke="transparent" points="-4,4 -4,-211 597,-211 597,4 -4,4"/>
<!-- Node105 -->
<g id="node1" class="node">
<title>Node105</title>
<polygon fill="#bfbfbf" stroke="#000000" points="0,-90.5 0,-116.5 99,-116.5 99,-90.5 0,-90.5"/>
<text text-anchor="start" x="8" y="-106.1" font-family="Helvetica,sans-Serif" font-size="8.00" fill="#000000">m_cbc::s_compute_supersonic</text>
<text text-anchor="middle" x="49.5" y="-97.1" font-family="Helvetica,sans-Serif" font-size="8.00" fill="#000000">_inflow_l</text>
</g>
<!-- Node106 -->
<g id="node2" class="node">
<title>Node106</title>
<g id="a_node2"><a xlink:href="namespacem__cbc.html#a50fed863b4ee14bf81590ed80154b539" target="_top" xlink:title="The computation of parameters, the allocation of memory, the association of pointers and/or the execu...">
<polygon fill="#ffffff" stroke="#000000" points="135,-95 135,-112 213,-112 213,-95 135,-95"/>
<text text-anchor="middle" x="174" y="-101.6" font-family="Helvetica,sans-Serif" font-size="8.00" fill="#000000">m_cbc::s_initialize_cbc</text>
</a>
</g>
</g>
<!-- Node105&#45;&gt;Node106 -->
<g id="edge1" class="edge">
<title>Node105&#45;&gt;Node106</title>
<path fill="none" stroke="#191970" d="M109.2462,-103.5C117.9813,-103.5 126.7823,-103.5 134.9597,-103.5"/>
<polygon fill="#191970" stroke="#191970" points="109.0635,-100.0001 99.0634,-103.5 109.0634,-107.0001 109.0635,-100.0001"/>
</g>
<!-- Node107 -->
<g id="node3" class="node">
<title>Node107</title>
<g id="a_node3"><a xlink:href="namespacem__cbc.html#a72cc3ba5a0de327fae70742734e77492" target="_top" xlink:title="The following is the implementation of the CBC based on the work of Thompson (1987, 1990) on hyperbolic systems. The CBC is indirectly applied in the computation of the right&#45;hand&#45;side (RHS) near the relevant domain boundary through the modification of the fluxes. ">
<polygon fill="#ffffff" stroke="#000000" points="249,-95 249,-112 302,-112 302,-95 249,-95"/>
<text text-anchor="middle" x="275.5" y="-101.6" font-family="Helvetica,sans-Serif" font-size="8.00" fill="#000000">m_cbc::s_cbc</text>
</a>
</g>
</g>
<!-- Node106&#45;&gt;Node107 -->
<g id="edge2" class="edge">
<title>Node106&#45;&gt;Node107</title>
<path fill="none" stroke="#191970" d="M223.465,-103.5C232.2469,-103.5 241.0801,-103.5 248.9118,-103.5"/>
<polygon fill="#191970" stroke="#191970" points="223.2426,-100.0001 213.2426,-103.5 223.2425,-107.0001 223.2426,-100.0001"/>
</g>
<!-- Node108 -->
<g id="node4" class="node">
<title>Node108</title>
<g id="a_node4"><a xlink:href="namespacem__rhs.html#a361f0038973069452cc88430c49bcfe8" target="_top" xlink:title="The purpose of this procedure is to employ the inputted cell&#45;average conservative variables in order ...">
<polygon fill="#ffffff" stroke="#000000" points="338,-95 338,-112 416,-112 416,-95 338,-95"/>
<text text-anchor="middle" x="377" y="-101.6" font-family="Helvetica,sans-Serif" font-size="8.00" fill="#000000">m_rhs::s_compute_rhs</text>
</a>
</g>
</g>
<!-- Node107&#45;&gt;Node108 -->
<g id="edge3" class="edge">
<title>Node107&#45;&gt;Node108</title>
<path fill="none" stroke="#191970" d="M312.3358,-103.5C320.6499,-103.5 329.5039,-103.5 337.9072,-103.5"/>
<polygon fill="#191970" stroke="#191970" points="312.168,-100.0001 302.1679,-103.5 312.1679,-107.0001 312.168,-100.0001"/>
</g>
<!-- Node109 -->
<g id="node5" class="node">
<title>Node109</title>
<g id="a_node5"><a xlink:href="namespacem__time__steppers.html#a1057850f94e9e749da9687baa7478246" target="_top" xlink:title="1st order TVD RK time&#45;stepping algorithm ">
<polygon fill="#ffffff" stroke="#000000" points="452,-180.5 452,-206.5 521,-206.5 521,-180.5 452,-180.5"/>
<text text-anchor="start" x="460" y="-196.1" font-family="Helvetica,sans-Serif" font-size="8.00" fill="#000000">m_time_steppers::s</text>
<text text-anchor="middle" x="486.5" y="-187.1" font-family="Helvetica,sans-Serif" font-size="8.00" fill="#000000">_1st_order_tvd_rk</text>
</a>
</g>
</g>
<!-- Node108&#45;&gt;Node109 -->
<g id="edge4" class="edge">
<title>Node108&#45;&gt;Node109</title>
<path fill="none" stroke="#191970" d="M393.1111,-119.5829C407.845,-133.9243 430.5476,-155.1214 452,-171.5 455.9524,-174.5176 460.3228,-177.5298 464.5871,-180.314"/>
<polygon fill="#191970" stroke="#191970" points="395.3875,-116.9125 385.804,-112.3949 390.4785,-121.9028 395.3875,-116.9125"/>
</g>
<!-- Node111 -->
<g id="node7" class="node">
<title>Node111</title>
<g id="a_node7"><a xlink:href="namespacem__time__steppers.html#a5b758874c713da801a47aa3d6246b2fd" target="_top" xlink:title="2nd order TVD RK time&#45;stepping algorithm ">
<polygon fill="#ffffff" stroke="#000000" points="452,-135.5 452,-161.5 521,-161.5 521,-135.5 452,-135.5"/>
<text text-anchor="start" x="460" y="-151.1" font-family="Helvetica,sans-Serif" font-size="8.00" fill="#000000">m_time_steppers::s</text>
<text text-anchor="middle" x="486.5" y="-142.1" font-family="Helvetica,sans-Serif" font-size="8.00" fill="#000000">_2nd_order_tvd_rk</text>
</a>
</g>
</g>
<!-- Node108&#45;&gt;Node111 -->
<g id="edge6" class="edge">
<title>Node108&#45;&gt;Node111</title>
<path fill="none" stroke="#191970" d="M407.4623,-116.0187C422.1125,-122.0394 439.6727,-129.2559 454.5164,-135.3561"/>
<polygon fill="#191970" stroke="#191970" points="408.4337,-112.634 397.8539,-112.0701 405.7728,-119.1086 408.4337,-112.634"/>
</g>
<!-- Node112 -->
<g id="node8" class="node">
<title>Node112</title>
<g id="a_node8"><a xlink:href="namespacem__time__steppers.html#a1cc10f406268344cc54a55159c4ff08f" target="_top" xlink:title="3rd order TVD RK time&#45;stepping algorithm ">
<polygon fill="#ffffff" stroke="#000000" points="452,-90.5 452,-116.5 521,-116.5 521,-90.5 452,-90.5"/>
<text text-anchor="start" x="460" y="-106.1" font-family="Helvetica,sans-Serif" font-size="8.00" fill="#000000">m_time_steppers::s</text>
<text text-anchor="middle" x="486.5" y="-97.1" font-family="Helvetica,sans-Serif" font-size="8.00" fill="#000000">_3rd_order_tvd_rk</text>
</a>
</g>
</g>
<!-- Node108&#45;&gt;Node112 -->
<g id="edge8" class="edge">
<title>Node108&#45;&gt;Node112</title>
<path fill="none" stroke="#191970" d="M426.251,-103.5C434.911,-103.5 443.7564,-103.5 451.9087,-103.5"/>
<polygon fill="#191970" stroke="#191970" points="426.2228,-100.0001 416.2227,-103.5 426.2227,-107.0001 426.2228,-100.0001"/>
</g>
<!-- Node113 -->
<g id="node9" class="node">
<title>Node113</title>
<g id="a_node9"><a xlink:href="namespacem__time__steppers.html#ac53b0d079d514df2bf662bc0e042c8db" target="_top" xlink:title="4th order RK time&#45;stepping algorithm ">
<polygon fill="#ffffff" stroke="#000000" points="452,-45.5 452,-71.5 521,-71.5 521,-45.5 452,-45.5"/>
<text text-anchor="start" x="460" y="-61.1" font-family="Helvetica,sans-Serif" font-size="8.00" fill="#000000">m_time_steppers::s</text>
<text text-anchor="middle" x="486.5" y="-52.1" font-family="Helvetica,sans-Serif" font-size="8.00" fill="#000000">_4th_order_rk</text>
</a>
</g>
</g>
<!-- Node108&#45;&gt;Node113 -->
<g id="edge10" class="edge">
<title>Node108&#45;&gt;Node113</title>
<path fill="none" stroke="#191970" d="M407.4623,-90.9813C422.1125,-84.9606 439.6727,-77.7441 454.5164,-71.6439"/>
<polygon fill="#191970" stroke="#191970" points="405.7728,-87.8914 397.8539,-94.9299 408.4337,-94.366 405.7728,-87.8914"/>
</g>
<!-- Node114 -->
<g id="node10" class="node">
<title>Node114</title>
<g id="a_node10"><a xlink:href="namespacem__time__steppers.html#a4920633ffe7f703c3827b956b21b7417" target="_top" xlink:title="5th order RK time&#45;stepping algorithm ">
<polygon fill="#ffffff" stroke="#000000" points="452,-.5 452,-26.5 521,-26.5 521,-.5 452,-.5"/>
<text text-anchor="start" x="460" y="-16.1" font-family="Helvetica,sans-Serif" font-size="8.00" fill="#000000">m_time_steppers::s</text>
<text text-anchor="middle" x="486.5" y="-7.1" font-family="Helvetica,sans-Serif" font-size="8.00" fill="#000000">_5th_order_rk</text>
</a>
</g>
</g>
<!-- Node108&#45;&gt;Node114 -->
<g id="edge12" class="edge">
<title>Node108&#45;&gt;Node114</title>
<path fill="none" stroke="#191970" d="M393.2301,-87.7836C408.0432,-73.7396 430.7953,-52.9082 452,-36.5 456.3268,-33.1519 461.1252,-29.7646 465.7339,-26.6566"/>
<polygon fill="#191970" stroke="#191970" points="390.6849,-85.3748 385.8776,-94.8163 395.5234,-90.4334 390.6849,-85.3748"/>
</g>
<!-- Node110 -->
<g id="node6" class="node">
<title>Node110</title>
<g id="a_node6"><a xlink:href="p__main_8f90.html#aeec10ee8e2940c953967da3e374e1579" target="_top" xlink:title="Quasi&#45;conservative, shock&#45; and interface&#45; capturing finite&#45;volume scheme for the multicomponent Navie...">
<polygon fill="#ffffff" stroke="#000000" points="557,-95 557,-112 593,-112 593,-95 557,-95"/>
<text text-anchor="middle" x="575" y="-101.6" font-family="Helvetica,sans-Serif" font-size="8.00" fill="#000000">p_main</text>
</a>
</g>
</g>
<!-- Node109&#45;&gt;Node110 -->
<g id="edge5" class="edge">
<title>Node109&#45;&gt;Node110</title>
<path fill="none" stroke="#191970" d="M517.6045,-174.3934C518.775,-173.4468 519.9118,-172.4811 521,-171.5 541.6021,-152.9266 560.4852,-125.9236 569.4772,-112.2035"/>
<polygon fill="#191970" stroke="#191970" points="515.529,-171.5752 509.5485,-180.3207 519.6774,-177.2135 515.529,-171.5752"/>
</g>
<!-- Node111&#45;&gt;Node110 -->
<g id="edge7" class="edge">
<title>Node111&#45;&gt;Node110</title>
<path fill="none" stroke="#191970" d="M521.0983,-130.9076C533.8186,-124.4397 547.6574,-117.403 558.1276,-112.0792"/>
<polygon fill="#191970" stroke="#191970" points="519.4253,-127.8318 512.0979,-135.4841 522.5981,-134.0715 519.4253,-127.8318"/>
</g>
<!-- Node112&#45;&gt;Node110 -->
<g id="edge9" class="edge">
<title>Node112&#45;&gt;Node110</title>
<path fill="none" stroke="#191970" d="M531.3807,-103.5C540.4354,-103.5 549.4549,-103.5 556.9223,-103.5"/>
<polygon fill="#191970" stroke="#191970" points="531.2236,-100.0001 521.2235,-103.5 531.2235,-107.0001 531.2236,-100.0001"/>
</g>
<!-- Node113&#45;&gt;Node110 -->
<g id="edge11" class="edge">
<title>Node113&#45;&gt;Node110</title>
<path fill="none" stroke="#191970" d="M521.0983,-76.0924C533.8186,-82.5603 547.6574,-89.597 558.1276,-94.9208"/>
<polygon fill="#191970" stroke="#191970" points="522.5981,-72.9285 512.0979,-71.5159 519.4253,-79.1682 522.5981,-72.9285"/>
</g>
<!-- Node114&#45;&gt;Node110 -->
<g id="edge13" class="edge">
<title>Node114&#45;&gt;Node110</title>
<path fill="none" stroke="#191970" d="M516.4848,-32.6396C518.0489,-33.8989 519.565,-35.1891 521,-36.5 541.2957,-55.0398 560.3128,-81.5409 569.4045,-94.9813"/>
<polygon fill="#191970" stroke="#191970" points="518.5323,-29.8006 508.4174,-26.6478 514.3585,-35.4202 518.5323,-29.8006"/>
</g>
</g>
</svg>
        <g id="navigator" transform="translate(0 0)" fill="#404254">
                <rect fill="#f2f5e9" fill-opacity="0.5" stroke="#606060" stroke-width=".5" x="0" y="0" width="60" height="60"/>
                <use id="zoomplus" xlink:href="#zoomPlus" x="17" y="9" onmousedown="handleZoom(evt,'in')"/>
                <use id="zoomminus" xlink:href="#zoomMin" x="42" y="9" onmousedown="handleZoom(evt,'out')"/>
                <use id="reset" xlink:href="#resetDef" x="30" y="36" onmousedown="handleReset()"/>
                <g id="arrowUp" xlink:href="#dirArrow" transform="translate(30 24)" onmousedown="handlePan(0,-1)">
                  <use xlink:href="#rim" fill="#404040">
                        <set attributeName="fill" to="#808080" begin="arrowUp.mouseover" end="arrowUp.mouseout"/>
                  </use>
                  <path fill="none" stroke="white" stroke-width="1.5" d="M0,-3.0v7 M-2.5,-0.5L0,-3.0L2.5,-0.5"/>
                </g>
                <g id="arrowRight" xlink:href="#dirArrow" transform="rotate(90) translate(36 -43)" onmousedown="handlePan(1,0)">
                  <use xlink:href="#rim" fill="#404040">
                        <set attributeName="fill" to="#808080" begin="arrowRight.mouseover" end="arrowRight.mouseout"/>
                  </use>
                  <path fill="none" stroke="white" stroke-width="1.5" d="M0,-3.0v7 M-2.5,-0.5L0,-3.0L2.5,-0.5"/>
                </g>
                <g id="arrowDown" xlink:href="#dirArrow" transform="rotate(180) translate(-30 -48)" onmousedown="handlePan(0,1)">
                  <use xlink:href="#rim" fill="#404040">
                        <set attributeName="fill" to="#808080" begin="arrowDown.mouseover" end="arrowDown.mouseout"/>
                  </use>
                  <path fill="none" stroke="white" stroke-width="1.5" d="M0,-3.0v7 M-2.5,-0.5L0,-3.0L2.5,-0.5"/>
                </g>
                <g id="arrowLeft" xlink:href="#dirArrow" transform="rotate(270) translate(-36 17)" onmousedown="handlePan(-1,0)">
                  <use xlink:href="#rim" fill="#404040">
                        <set attributeName="fill" to="#808080" begin="arrowLeft.mouseover" end="arrowLeft.mouseout"/>
                  </use>
                  <path fill="none" stroke="white" stroke-width="1.5" d="M0,-3.0v7 M-2.5,-0.5L0,-3.0L2.5,-0.5"/>
                </g>
        </g>
        <svg viewBox="0 0 15 15" width="100%" height="30px" preserveAspectRatio="xMaxYMin meet">
         <g id="arrow_out" transform="scale(0.3 0.3)">
          <a xlink:href="namespacem__cbc_aef459892802977978a425cd85648c706_icgraph_org.svg" target="_base">
           <rect id="button" ry="5" rx="5" y="6" x="6" height="38" width="38"
                fill="#f2f5e9" fill-opacity="0.5" stroke="#606060" stroke-width="1.0"/>
           <path id="arrow"
             d="M 11.500037,31.436501 C 11.940474,20.09759 22.043105,11.32322 32.158766,21.979434 L 37.068811,17.246167 C 37.068811,17.246167 37.088388,32 37.088388,32 L 22.160133,31.978069 C 22.160133,31.978069 26.997745,27.140456 26.997745,27.140456 C 18.528582,18.264221 13.291696,25.230495 11.500037,31.436501 z"
             style="fill:#404040;"/>
          </a>
         </g>
        </svg>
</svg>
