<?xml version="1.0" encoding="UTF-8" standalone="no"?>
<!DOCTYPE svg PUBLIC "-//W3C//DTD SVG 1.1//EN"
 "http://www.w3.org/Graphics/SVG/1.1/DTD/svg11.dtd">
<!-- Generated by graphviz version 2.43.0 (0)
 -->
<!-- Title: m_bubbles_el::s_read_input_bubbles Pages: 1 -->
<svg width="494pt" height="365pt"
 viewBox="0.00 0.00 494.00 365.00" xmlns="http://www.w3.org/2000/svg" xmlns:xlink="http://www.w3.org/1999/xlink">
<g id="graph0" class="graph" transform="scale(1 1) rotate(0) translate(4 361)">
<title>m_bubbles_el::s_read_input_bubbles</title>
<!-- Node1 -->
<g id="Node000001" class="node">
<title>Node1</title>
<g id="a_Node000001"><a xlink:title="The purpose of this procedure is to obtain the initial bubbles&#39; information.">
<polygon fill="#999999" stroke="#666666" points="122,-198 0,-198 0,-168 122,-168 122,-198"/>
<text text-anchor="start" x="8" y="-186" font-family="Helvetica,sans-Serif" font-size="10.00">m_bubbles_el::s_read</text>
<text text-anchor="middle" x="61" y="-175" font-family="Helvetica,sans-Serif" font-size="10.00">_input_bubbles</text>
</a>
</g>
</g>
<!-- Node2 -->
<g id="Node000002" class="node">
<title>Node2</title>
<g id="a_Node000002"><a xlink:href="namespacem__bubbles__el.html#a525654fa184c38cfbb143952d6110b16" target="_top" xlink:title="The purpose of this procedure is to determine if the global coordinates of the bubbles are present in...">
<polygon fill="white" stroke="#666666" points="473,-339 346,-339 346,-309 473,-309 473,-339"/>
<text text-anchor="start" x="354" y="-327" font-family="Helvetica,sans-Serif" font-size="10.00">m_bubbles_el::particle</text>
<text text-anchor="middle" x="409.5" y="-316" font-family="Helvetica,sans-Serif" font-size="10.00">_in_domain</text>
</a>
</g>
</g>
<!-- Node1&#45;&gt;Node2 -->
<g id="edge1_Node000001_Node000002" class="edge">
<title>Node1&#45;&gt;Node2</title>
<g id="a_edge1_Node000001_Node000002"><a xlink:title=" ">
<path fill="none" stroke="#63b8ff" d="M66.79,-198.44C77.39,-229.56 106.08,-299.21 158,-327 215.28,-357.65 291,-351.51 344.14,-341.08"/>
<polygon fill="#63b8ff" stroke="#63b8ff" points="345.04,-344.47 354.12,-339.02 343.62,-337.62 345.04,-344.47"/>
</a>
</g>
</g>
<!-- Node3 -->
<g id="Node000003" class="node">
<title>Node3</title>
<g id="a_Node000003"><a xlink:href="namespacem__bubbles__el.html#a4f042d2a68a99bf08f3b487232dcbeaf" target="_top" xlink:title="The purpose of this procedure is to obtain the information of the bubbles when starting fresh.">
<polygon fill="white" stroke="#666666" points="287,-270 168,-270 168,-240 287,-240 287,-270"/>
<text text-anchor="start" x="176" y="-258" font-family="Helvetica,sans-Serif" font-size="10.00">m_bubbles_el::s_add</text>
<text text-anchor="middle" x="227.5" y="-247" font-family="Helvetica,sans-Serif" font-size="10.00">_bubbles</text>
</a>
</g>
</g>
<!-- Node1&#45;&gt;Node3 -->
<g id="edge3_Node000001_Node000003" class="edge">
<title>Node1&#45;&gt;Node3</title>
<g id="a_edge3_Node000001_Node000003"><a xlink:title=" ">
<path fill="none" stroke="#63b8ff" d="M89.71,-198.02C108.65,-208 134.49,-221.05 158,-231 162.34,-232.84 166.88,-234.65 171.46,-236.41"/>
<polygon fill="#63b8ff" stroke="#63b8ff" points="170.28,-239.7 180.87,-239.92 172.73,-233.14 170.28,-239.7"/>
</a>
</g>
</g>
<!-- Node5 -->
<g id="Node000005" class="node">
<title>Node5</title>
<g id="a_Node000005"><a xlink:href="namespacem__bubbles__el.html#a73d29f366d826f822f780ebdcc3660ba" target="_top" xlink:title="The purpose of this procedure is to obtain the information of the bubbles from a restart point.">
<polygon fill="white" stroke="#666666" points="294,-318 161,-318 161,-288 294,-288 294,-318"/>
<text text-anchor="start" x="169" y="-306" font-family="Helvetica,sans-Serif" font-size="10.00">m_bubbles_el::s_restart</text>
<text text-anchor="middle" x="227.5" y="-295" font-family="Helvetica,sans-Serif" font-size="10.00">_bubbles</text>
</a>
</g>
</g>
<!-- Node1&#45;&gt;Node5 -->
<g id="edge5_Node000001_Node000005" class="edge">
<title>Node1&#45;&gt;Node5</title>
<g id="a_edge5_Node000001_Node000005"><a xlink:title=" ">
<path fill="none" stroke="#63b8ff" d="M73.41,-198.09C89.94,-218.98 122.48,-256.67 158,-279 160.58,-280.62 163.29,-282.16 166.08,-283.6"/>
<polygon fill="#63b8ff" stroke="#63b8ff" points="164.64,-286.79 175.18,-287.9 167.64,-280.46 164.64,-286.79"/>
</a>
</g>
</g>
<!-- Node6 -->
<g id="Node000006" class="node">
<title>Node6</title>
<g id="a_Node000006"><a xlink:href="namespacem__bubbles__el.html#a7e80211bc6335e01d4b15fa5f6ed2652" target="_top" xlink:title="The purpose of this subroutine is to smear the effect of the bubbles in the Eulerian framework.">
<polygon fill="white" stroke="#666666" points="293,-222 162,-222 162,-192 293,-192 293,-222"/>
<text text-anchor="start" x="170" y="-210" font-family="Helvetica,sans-Serif" font-size="10.00">m_bubbles_el::s_smear</text>
<text text-anchor="middle" x="227.5" y="-199" font-family="Helvetica,sans-Serif" font-size="10.00">_voidfraction</text>
</a>
</g>
</g>
<!-- Node1&#45;&gt;Node6 -->
<g id="edge8_Node000001_Node000006" class="edge">
<title>Node1&#45;&gt;Node6</title>
<g id="a_edge8_Node000001_Node000006"><a xlink:title=" ">
<path fill="none" stroke="#63b8ff" d="M122.32,-191.8C131.85,-193.19 141.8,-194.64 151.61,-196.07"/>
<polygon fill="#63b8ff" stroke="#63b8ff" points="151.36,-199.57 161.76,-197.55 152.37,-192.65 151.36,-199.57"/>
</a>
</g>
</g>
<!-- Node7 -->
<g id="Node000007" class="node">
<title>Node7</title>
<g id="a_Node000007"><a xlink:href="namespacem__bubbles__el.html#aa0c5b6674d08854ad7c1b0947c8dc9af" target="_top" xlink:title="This subroutine transfer data into the temporal variables.">
<polygon fill="white" stroke="#666666" points="297,-174 158,-174 158,-144 297,-144 297,-174"/>
<text text-anchor="start" x="166" y="-162" font-family="Helvetica,sans-Serif" font-size="10.00">m_bubbles_el::s_transfer</text>
<text text-anchor="middle" x="227.5" y="-151" font-family="Helvetica,sans-Serif" font-size="10.00">_data_to_tmp</text>
</a>
</g>
</g>
<!-- Node1&#45;&gt;Node7 -->
<g id="edge9_Node000001_Node000007" class="edge">
<title>Node1&#45;&gt;Node7</title>
<g id="a_edge9_Node000001_Node000007"><a xlink:title=" ">
<path fill="none" stroke="#63b8ff" d="M122.32,-174.2C130.62,-172.99 139.25,-171.73 147.82,-170.48"/>
<polygon fill="#63b8ff" stroke="#63b8ff" points="148.45,-173.92 157.84,-169.02 147.44,-167 148.45,-173.92"/>
</a>
</g>
</g>
<!-- Node8 -->
<g id="Node000008" class="node">
<title>Node8</title>
<g id="a_Node000008"><a xlink:href="namespacem__bubbles__el.html#ad95a33b738403ed6a3b3c683da08d5e4" target="_top" xlink:title="Subroutine that writes on each time step the changes of the lagrangian bubbles.">
<polygon fill="white" stroke="#666666" points="290,-126 165,-126 165,-96 290,-96 290,-126"/>
<text text-anchor="start" x="173" y="-114" font-family="Helvetica,sans-Serif" font-size="10.00">m_bubbles_el::s_write</text>
<text text-anchor="middle" x="227.5" y="-103" font-family="Helvetica,sans-Serif" font-size="10.00">_lag_particles</text>
</a>
</g>
</g>
<!-- Node1&#45;&gt;Node8 -->
<g id="edge10_Node000001_Node000008" class="edge">
<title>Node1&#45;&gt;Node8</title>
<g id="a_edge10_Node000001_Node000008"><a xlink:title=" ">
<path fill="none" stroke="#63b8ff" d="M89.71,-167.98C108.65,-158 134.49,-144.95 158,-135 162.34,-133.16 166.88,-131.35 171.46,-129.59"/>
<polygon fill="#63b8ff" stroke="#63b8ff" points="172.73,-132.86 180.87,-126.08 170.28,-126.3 172.73,-132.86"/>
</a>
</g>
</g>
<!-- Node9 -->
<g id="Node000009" class="node">
<title>Node9</title>
<g id="a_Node000009"><a xlink:href="namespacem__bubbles__el.html#a380e92c53e3fc9298b7443a4fe7ac7af" target="_top" xlink:title="Subroutine that writes the restarting files for the particles in the lagrangian solver.">
<polygon fill="white" stroke="#666666" points="290,-78 165,-78 165,-48 290,-48 290,-78"/>
<text text-anchor="start" x="173" y="-66" font-family="Helvetica,sans-Serif" font-size="10.00">m_bubbles_el::s_write</text>
<text text-anchor="middle" x="227.5" y="-55" font-family="Helvetica,sans-Serif" font-size="10.00">_restart_lag_bubbles</text>
</a>
</g>
</g>
<!-- Node1&#45;&gt;Node9 -->
<g id="edge11_Node000001_Node000009" class="edge">
<title>Node1&#45;&gt;Node9</title>
<g id="a_edge11_Node000001_Node000009"><a xlink:title=" ">
<path fill="none" stroke="#63b8ff" d="M73.41,-167.91C89.94,-147.02 122.48,-109.33 158,-87 160.58,-85.38 163.29,-83.84 166.08,-82.4"/>
<polygon fill="#63b8ff" stroke="#63b8ff" points="167.64,-85.54 175.18,-78.1 164.64,-79.21 167.64,-85.54"/>
</a>
</g>
</g>
<!-- Node11 -->
<g id="Node000011" class="node">
<title>Node11</title>
<g id="a_Node000011"><a xlink:href="namespacem__bubbles__el.html#a995d5e4cf38eb4a0ba5b072914f523e9" target="_top" xlink:title="Subroutine that writes some useful statistics related to the volume fraction of the particles (void f...">
<polygon fill="white" stroke="#666666" points="290,-30 165,-30 165,0 290,0 290,-30"/>
<text text-anchor="start" x="173" y="-18" font-family="Helvetica,sans-Serif" font-size="10.00">m_bubbles_el::s_write</text>
<text text-anchor="middle" x="227.5" y="-7" font-family="Helvetica,sans-Serif" font-size="10.00">_void_evol</text>
</a>
</g>
</g>
<!-- Node1&#45;&gt;Node11 -->
<g id="edge14_Node000001_Node000011" class="edge">
<title>Node1&#45;&gt;Node11</title>
<g id="a_edge14_Node000001_Node000011"><a xlink:title=" ">
<path fill="none" stroke="#63b8ff" d="M68.26,-167.59C80.89,-138.34 112.19,-74.55 158,-39 159.78,-37.62 161.64,-36.31 163.57,-35.08"/>
<polygon fill="#63b8ff" stroke="#63b8ff" points="165.39,-38.08 172.39,-30.12 161.96,-31.98 165.39,-38.08"/>
</a>
</g>
</g>
<!-- Node2&#45;&gt;Node2 -->
<g id="edge2_Node000002_Node000002" class="edge">
<title>Node2&#45;&gt;Node2</title>
<g id="a_edge2_Node000002_Node000002"><a xlink:title=" ">
<path fill="none" stroke="#63b8ff" d="M377.51,-339.28C370.4,-348.41 381.06,-357 409.5,-357 426.38,-357 437,-353.97 441.36,-349.6"/>
<polygon fill="#63b8ff" stroke="#63b8ff" points="444.86,-349.32 441.49,-339.28 437.86,-349.23 444.86,-349.32"/>
</a>
</g>
</g>
<!-- Node4 -->
<g id="Node000004" class="node">
<title>Node4</title>
<g id="a_Node000004"><a xlink:href="namespacem__bubbles__el.html#a239cc655145e973dca7acb34607de11e" target="_top" xlink:title="This subroutine returns the computational coordinate of the cell for the given position.">
<polygon fill="white" stroke="#666666" points="486,-277.5 333,-277.5 333,-258.5 486,-258.5 486,-277.5"/>
<text text-anchor="middle" x="409.5" y="-265.5" font-family="Helvetica,sans-Serif" font-size="10.00">m_bubbles_el::s_locate_cell</text>
</a>
</g>
</g>
<!-- Node3&#45;&gt;Node4 -->
<g id="edge4_Node000003_Node000004" class="edge">
<title>Node3&#45;&gt;Node4</title>
<g id="a_edge4_Node000003_Node000004"><a xlink:title=" ">
<path fill="none" stroke="#63b8ff" d="M287.44,-259.26C298.73,-260.07 310.77,-260.94 322.71,-261.8"/>
<polygon fill="#63b8ff" stroke="#63b8ff" points="322.47,-265.3 332.7,-262.53 322.98,-258.31 322.47,-265.3"/>
</a>
</g>
</g>
<!-- Node5&#45;&gt;Node2 -->
<g id="edge6_Node000005_Node000002" class="edge">
<title>Node5&#45;&gt;Node2</title>
<g id="a_edge6_Node000005_Node000002"><a xlink:title=" ">
<path fill="none" stroke="#63b8ff" d="M294.25,-310.67C307.69,-312.24 321.92,-313.9 335.6,-315.49"/>
<polygon fill="#63b8ff" stroke="#63b8ff" points="335.59,-319.02 345.93,-316.7 336.4,-312.06 335.59,-319.02"/>
</a>
</g>
</g>
<!-- Node5&#45;&gt;Node4 -->
<g id="edge7_Node000005_Node000004" class="edge">
<title>Node5&#45;&gt;Node4</title>
<g id="a_edge7_Node000005_Node000004"><a xlink:title=" ">
<path fill="none" stroke="#63b8ff" d="M294.25,-290.22C312.3,-286.71 331.75,-282.92 349.4,-279.49"/>
<polygon fill="#63b8ff" stroke="#63b8ff" points="350.42,-282.86 359.56,-277.52 349.08,-275.99 350.42,-282.86"/>
</a>
</g>
</g>
<!-- Node10 -->
<g id="Node000010" class="node">
<title>Node10</title>
<g id="a_Node000010"><a xlink:href="namespacem__bubbles__el.html#aa52aa9bb64817bd3f73ed432fc85aaa0" target="_top" xlink:title="The purpose of this procedure is to determine if the lagrangian bubble is located in the physical dom...">
<polygon fill="white" stroke="#666666" points="473,-78 346,-78 346,-48 473,-48 473,-78"/>
<text text-anchor="start" x="354" y="-66" font-family="Helvetica,sans-Serif" font-size="10.00">m_bubbles_el::particle</text>
<text text-anchor="middle" x="409.5" y="-55" font-family="Helvetica,sans-Serif" font-size="10.00">_in_domain_physical</text>
</a>
</g>
</g>
<!-- Node9&#45;&gt;Node10 -->
<g id="edge12_Node000009_Node000010" class="edge">
<title>Node9&#45;&gt;Node10</title>
<g id="a_edge12_Node000009_Node000010"><a xlink:title=" ">
<path fill="none" stroke="#63b8ff" d="M290.19,-63C304.83,-63 320.58,-63 335.66,-63"/>
<polygon fill="#63b8ff" stroke="#63b8ff" points="335.97,-66.5 345.97,-63 335.97,-59.5 335.97,-66.5"/>
</a>
</g>
</g>
<!-- Node10&#45;&gt;Node10 -->
<g id="edge13_Node000010_Node000010" class="edge">
<title>Node10&#45;&gt;Node10</title>
<g id="a_edge13_Node000010_Node000010"><a xlink:title=" ">
<path fill="none" stroke="#63b8ff" d="M377.51,-78.28C370.4,-87.41 381.06,-96 409.5,-96 426.38,-96 437,-92.97 441.36,-88.6"/>
<polygon fill="#63b8ff" stroke="#63b8ff" points="444.86,-88.32 441.49,-78.28 437.86,-88.23 444.86,-88.32"/>
</a>
</g>
</g>
</g>
</svg>
