<?xml version="1.0" encoding="UTF-8" standalone="no"?>
<!DOCTYPE svg PUBLIC "-//W3C//DTD SVG 1.1//EN"
 "http://www.w3.org/Graphics/SVG/1.1/DTD/svg11.dtd">
<!-- Generated by graphviz version 2.43.0 (0)
 -->
<!-- Title: s_ghost_cell_extrapolation Pages: 1 -->
<svg width="675pt" height="86pt"
 viewBox="0.00 0.00 675.00 86.00" xmlns="http://www.w3.org/2000/svg" xmlns:xlink="http://www.w3.org/1999/xlink">
<g id="graph0" class="graph" transform="scale(1 1) rotate(0) translate(4 82)">
<title>s_ghost_cell_extrapolation</title>
<!-- Node1 -->
<g id="Node000001" class="node">
<title>Node1</title>
<g id="a_Node000001"><a xlink:title=" ">
<polygon fill="#999999" stroke="#666666" points="667,-48.5 520,-48.5 520,-29.5 667,-29.5 667,-48.5"/>
<text text-anchor="middle" x="593.5" y="-36.5" font-family="Helvetica,sans-Serif" font-size="10.00">s_ghost_cell_extrapolation</text>
</a>
</g>
</g>
<!-- Node2 -->
<g id="Node000002" class="node">
<title>Node2</title>
<g id="a_Node000002"><a xlink:href="m__boundary__common_8fpp_8f90.html#af100c42ddf0cb1b20fc6fe1b61623662" target="_top" xlink:title=" ">
<polygon fill="white" stroke="#666666" points="484,-67.5 417,-67.5 417,-48.5 484,-48.5 484,-67.5"/>
<text text-anchor="middle" x="450.5" y="-55.5" font-family="Helvetica,sans-Serif" font-size="10.00">s_dirichlet</text>
</a>
</g>
</g>
<!-- Node1&#45;&gt;Node2 -->
<g id="edge1_Node000001_Node000002" class="edge">
<title>Node1&#45;&gt;Node2</title>
<g id="a_edge1_Node000001_Node000002"><a xlink:title=" ">
<path fill="none" stroke="#63b8ff" d="M511.54,-49.91C501.97,-51.2 492.66,-52.45 484.33,-53.58"/>
<polygon fill="#63b8ff" stroke="#63b8ff" points="512.14,-53.36 521.59,-48.56 511.21,-46.42 512.14,-53.36"/>
</a>
</g>
</g>
<!-- Node3 -->
<g id="Node000003" class="node">
<title>Node3</title>
<g id="a_Node000003"><a xlink:href="m__boundary__common_8fpp_8f90.html#a32f0e4db26cb1de5e18c705e8fca41f0" target="_top" xlink:title="The purpose of this procedure is to populate the buffers of the primitive variables,...">
<polygon fill="white" stroke="#666666" points="381,-54 261,-54 261,-24 381,-24 381,-54"/>
<text text-anchor="start" x="269" y="-42" font-family="Helvetica,sans-Serif" font-size="10.00">s_populate_variables</text>
<text text-anchor="middle" x="321" y="-31" font-family="Helvetica,sans-Serif" font-size="10.00">_buffers</text>
</a>
</g>
</g>
<!-- Node1&#45;&gt;Node3 -->
<g id="edge6_Node000001_Node000003" class="edge">
<title>Node1&#45;&gt;Node3</title>
<g id="a_edge6_Node000001_Node000003"><a xlink:title=" ">
<path fill="none" stroke="#63b8ff" d="M509.57,-39C468.12,-39 418.91,-39 381.3,-39"/>
<polygon fill="#63b8ff" stroke="#63b8ff" points="509.66,-42.5 519.66,-39 509.66,-35.5 509.66,-42.5"/>
</a>
</g>
</g>
<!-- Node2&#45;&gt;Node3 -->
<g id="edge2_Node000002_Node000003" class="edge">
<title>Node2&#45;&gt;Node3</title>
<g id="a_edge2_Node000002_Node000003"><a xlink:title=" ">
<path fill="none" stroke="#63b8ff" d="M406.89,-51.65C398.65,-50.42 389.88,-49.11 381.22,-47.82"/>
<polygon fill="#63b8ff" stroke="#63b8ff" points="406.59,-55.14 417,-53.16 407.62,-48.22 406.59,-55.14"/>
</a>
</g>
</g>
<!-- Node4 -->
<g id="Node000004" class="node">
<title>Node4</title>
<g id="a_Node000004"><a xlink:href="m__boundary__common_8fpp_8f90.html#a29323c7f76c504aefa670ebf315fad51" target="_top" xlink:title="The purpose of the module is to apply noncharacteristic and processor boundary condiitons.">
<polygon fill="white" stroke="#666666" points="225,-78 89,-78 89,-48 225,-48 225,-78"/>
<text text-anchor="start" x="97" y="-66" font-family="Helvetica,sans-Serif" font-size="10.00">__m_boundary_common</text>
<text text-anchor="middle" x="157" y="-55" font-family="Helvetica,sans-Serif" font-size="10.00">_fpp_f90__</text>
</a>
</g>
</g>
<!-- Node3&#45;&gt;Node4 -->
<g id="edge3_Node000003_Node000004" class="edge">
<title>Node3&#45;&gt;Node4</title>
<g id="a_edge3_Node000003_Node000004"><a xlink:title=" ">
<path fill="none" stroke="#63b8ff" d="M250.44,-49.31C242.02,-50.55 233.44,-51.82 225.06,-53.07"/>
<polygon fill="#63b8ff" stroke="#63b8ff" points="251.22,-52.73 260.6,-47.8 250.19,-45.8 251.22,-52.73"/>
</a>
</g>
</g>
<!-- Node5 -->
<g id="Node000005" class="node">
<title>Node5</title>
<g id="a_Node000005"><a xlink:href="namespacem__start__up.html#a8d9327774aa09798e954fe48fb02f0d5" target="_top" xlink:title=" ">
<polygon fill="white" stroke="#666666" points="220.5,-30 93.5,-30 93.5,0 220.5,0 220.5,-30"/>
<text text-anchor="start" x="101.5" y="-18" font-family="Helvetica,sans-Serif" font-size="10.00">m_start_up::s_perform</text>
<text text-anchor="middle" x="157" y="-7" font-family="Helvetica,sans-Serif" font-size="10.00">_time_step</text>
</a>
</g>
</g>
<!-- Node3&#45;&gt;Node5 -->
<g id="edge4_Node000003_Node000005" class="edge">
<title>Node3&#45;&gt;Node5</title>
<g id="a_edge4_Node000003_Node000005"><a xlink:title=" ">
<path fill="none" stroke="#63b8ff" d="M250.41,-28.69C240.52,-27.23 230.4,-25.73 220.66,-24.28"/>
<polygon fill="#63b8ff" stroke="#63b8ff" points="250.19,-32.2 260.6,-30.2 251.22,-25.27 250.19,-32.2"/>
</a>
</g>
</g>
<!-- Node6 -->
<g id="Node000006" class="node">
<title>Node6</title>
<g id="a_Node000006"><a xlink:href="p__main_8fpp_8f90.html#aeec10ee8e2940c953967da3e374e1579" target="_top" xlink:title="The post&#45;process restructures raw unformatted data, outputted by the simulation, into a formatted dat...">
<polygon fill="white" stroke="#666666" points="53,-24.5 0,-24.5 0,-5.5 53,-5.5 53,-24.5"/>
<text text-anchor="middle" x="26.5" y="-12.5" font-family="Helvetica,sans-Serif" font-size="10.00">p_main</text>
</a>
</g>
</g>
<!-- Node5&#45;&gt;Node6 -->
<g id="edge5_Node000005_Node000006" class="edge">
<title>Node5&#45;&gt;Node6</title>
<g id="a_edge5_Node000005_Node000006"><a xlink:title=" ">
<path fill="none" stroke="#63b8ff" d="M83,-15C72.37,-15 62.06,-15 53.28,-15"/>
<polygon fill="#63b8ff" stroke="#63b8ff" points="83.26,-18.5 93.26,-15 83.26,-11.5 83.26,-18.5"/>
</a>
</g>
</g>
</g>
</svg>
