<?xml version="1.0" encoding="UTF-8" standalone="no"?>
<!DOCTYPE svg PUBLIC "-//W3C//DTD SVG 1.1//EN"
 "http://www.w3.org/Graphics/SVG/1.1/DTD/svg11.dtd">
<!-- Generated by graphviz version 2.43.0 (0)
 -->
<!-- Title: s_check_inputs_common Pages: 1 -->
<svg width="661pt" height="711pt"
 viewBox="0.00 0.00 661.00 711.28" xmlns="http://www.w3.org/2000/svg" xmlns:xlink="http://www.w3.org/1999/xlink">
<g id="graph0" class="graph" transform="scale(1 1) rotate(0) translate(4 707.28)">
<title>s_check_inputs_common</title>
<!-- Node1 -->
<g id="Node000001" class="node">
<title>Node1</title>
<g id="a_Node000001"><a xlink:title="Checks compatibility of parameters in the input file. Used by all three stages.">
<polygon fill="#999999" stroke="#666666" points="139,-361.28 0,-361.28 0,-342.28 139,-342.28 139,-361.28"/>
<text text-anchor="middle" x="69.5" y="-349.28" font-family="Helvetica,sans-Serif" font-size="10.00">s_check_inputs_common</text>
</a>
</g>
</g>
<!-- Node2 -->
<g id="Node000002" class="node">
<title>Node2</title>
<g id="a_Node000002"><a xlink:href="m__checker__common_8fpp_8f90.html#af870fd27ede8fb0d3b1646c916cdd01c" target="_top" xlink:title="Checks constraints on the adv_n flag. Called by s_check_inputs_common for pre&#45;processing and simulati...">
<polygon fill="white" stroke="#666666" points="320,-703.28 195,-703.28 195,-684.28 320,-684.28 320,-703.28"/>
<text text-anchor="middle" x="257.5" y="-691.28" font-family="Helvetica,sans-Serif" font-size="10.00">s_check_inputs_adv_n</text>
</a>
</g>
</g>
<!-- Node1&#45;&gt;Node2 -->
<g id="edge1_Node000001_Node000002" class="edge">
<title>Node1&#45;&gt;Node2</title>
<g id="a_edge1_Node000001_Node000002"><a xlink:title=" ">
<path fill="none" stroke="#63b8ff" d="M70.4,-361.53C70.51,-405.45 77.06,-586.7 175,-675.78 178.2,-678.69 181.75,-681.16 185.54,-683.27"/>
<polygon fill="#63b8ff" stroke="#63b8ff" points="184.21,-686.5 194.75,-687.53 187.14,-680.15 184.21,-686.5"/>
</a>
</g>
</g>
<!-- Node5 -->
<g id="Node000005" class="node">
<title>Node5</title>
<g id="a_Node000005"><a xlink:href="m__checker__common_8fpp_8f90.html#abe99fd86c32ed12e84ce6a3f935c3588" target="_top" xlink:title="Checks constraints on the boundary conditions in the x&#45;direction. Called by s_check_inputs_common for...">
<polygon fill="white" stroke="#666666" points="311,-666.28 204,-666.28 204,-647.28 311,-647.28 311,-666.28"/>
<text text-anchor="middle" x="257.5" y="-654.28" font-family="Helvetica,sans-Serif" font-size="10.00">s_check_inputs_bc</text>
</a>
</g>
</g>
<!-- Node1&#45;&gt;Node5 -->
<g id="edge4_Node000001_Node000005" class="edge">
<title>Node1&#45;&gt;Node5</title>
<g id="a_edge4_Node000001_Node000005"><a xlink:title=" ">
<path fill="none" stroke="#63b8ff" d="M70.89,-361.46C73.08,-402.04 87.14,-559.98 175,-637.78 180.53,-642.68 187.09,-646.39 194.04,-649.17"/>
<polygon fill="#63b8ff" stroke="#63b8ff" points="193.1,-652.55 203.7,-652.44 195.34,-645.92 193.1,-652.55"/>
</a>
</g>
</g>
<!-- Node6 -->
<g id="Node000006" class="node">
<title>Node6</title>
<g id="a_Node000006"><a xlink:href="m__checker__common_8fpp_8f90.html#afb09e7db8022aed1ffb9e61f14cec519" target="_top" xlink:title="Checks constraints on the bubble parameters. Called by s_check_inputs_common for pre&#45;processing and s...">
<polygon fill="white" stroke="#666666" points="324.5,-323.78 190.5,-323.78 190.5,-293.78 324.5,-293.78 324.5,-323.78"/>
<text text-anchor="start" x="198.5" y="-311.78" font-family="Helvetica,sans-Serif" font-size="10.00">s_check_inputs_bubbles</text>
<text text-anchor="middle" x="257.5" y="-300.78" font-family="Helvetica,sans-Serif" font-size="10.00">_euler</text>
</a>
</g>
</g>
<!-- Node1&#45;&gt;Node6 -->
<g id="edge6_Node000001_Node000006" class="edge">
<title>Node1&#45;&gt;Node6</title>
<g id="a_edge6_Node000001_Node000006"><a xlink:title=" ">
<path fill="none" stroke="#63b8ff" d="M111.78,-342.24C132.38,-337.48 157.94,-331.57 181.83,-326.05"/>
<polygon fill="#63b8ff" stroke="#63b8ff" points="182.63,-329.45 191.59,-323.79 181.06,-322.63 182.63,-329.45"/>
</a>
</g>
</g>
<!-- Node9 -->
<g id="Node000009" class="node">
<title>Node9</title>
<g id="a_Node000009"><a xlink:href="m__checker__common_8fpp_8f90.html#a3860cab3ff6a822a0542979e04922619" target="_top" xlink:title="Checks constraints on the finite difference parameters. Called by s_check_inputs_common for simulatio...">
<polygon fill="white" stroke="#666666" points="318,-628.78 197,-628.78 197,-598.78 318,-598.78 318,-628.78"/>
<text text-anchor="start" x="205" y="-616.78" font-family="Helvetica,sans-Serif" font-size="10.00">s_check_inputs_finite</text>
<text text-anchor="middle" x="257.5" y="-605.78" font-family="Helvetica,sans-Serif" font-size="10.00">_difference</text>
</a>
</g>
</g>
<!-- Node1&#45;&gt;Node9 -->
<g id="edge10_Node000001_Node000009" class="edge">
<title>Node1&#45;&gt;Node9</title>
<g id="a_edge10_Node000001_Node000009"><a xlink:title=" ">
<path fill="none" stroke="#63b8ff" d="M71.84,-361.66C77.3,-397.9 101.15,-524.79 175,-589.78 178.85,-593.17 183.15,-596.08 187.71,-598.57"/>
<polygon fill="#63b8ff" stroke="#63b8ff" points="186.23,-601.75 196.76,-602.89 189.24,-595.43 186.23,-601.75"/>
</a>
</g>
</g>
<!-- Node10 -->
<g id="Node000010" class="node">
<title>Node10</title>
<g id="a_Node000010"><a xlink:href="m__checker__common_8fpp_8f90.html#a7d2b3e86ed68a6ac45c23e105cabfed3" target="_top" xlink:title="Checks constraints on the hypoelasticity parameters. Called by s_check_inputs_common for pre&#45;processi...">
<polygon fill="white" stroke="#666666" points="340,-580.28 175,-580.28 175,-561.28 340,-561.28 340,-580.28"/>
<text text-anchor="middle" x="257.5" y="-568.28" font-family="Helvetica,sans-Serif" font-size="10.00">s_check_inputs_hypoelasticity</text>
</a>
</g>
</g>
<!-- Node1&#45;&gt;Node10 -->
<g id="edge12_Node000001_Node000010" class="edge">
<title>Node1&#45;&gt;Node10</title>
<g id="a_edge12_Node000001_Node000010"><a xlink:title=" ">
<path fill="none" stroke="#63b8ff" d="M72.52,-361.64C79.8,-394.52 107.91,-501.32 175,-552.78 176.64,-554.04 178.35,-555.21 180.11,-556.31"/>
<polygon fill="#63b8ff" stroke="#63b8ff" points="178.88,-559.61 189.36,-561.15 182.12,-553.41 178.88,-559.61"/>
</a>
</g>
</g>
<!-- Node11 -->
<g id="Node000011" class="node">
<title>Node11</title>
<g id="a_Node000011"><a xlink:href="m__checker__common_8fpp_8f90.html#adc8bed34384e33e64ed993e803e43f1a" target="_top" xlink:title="Checks constraints on the Immersed Boundaries parameters. Called by s_check_inputs_common for pre&#45;pro...">
<polygon fill="white" stroke="#666666" points="315,-543.28 200,-543.28 200,-524.28 315,-524.28 315,-543.28"/>
<text text-anchor="middle" x="257.5" y="-531.28" font-family="Helvetica,sans-Serif" font-size="10.00">s_check_inputs_ibm</text>
</a>
</g>
</g>
<!-- Node1&#45;&gt;Node11 -->
<g id="edge14_Node000001_Node000011" class="edge">
<title>Node1&#45;&gt;Node11</title>
<g id="a_edge14_Node000001_Node000011"><a xlink:title=" ">
<path fill="none" stroke="#63b8ff" d="M73.68,-361.33C83.64,-389.67 117.06,-473.87 175,-514.78 179.6,-518.03 184.67,-520.73 189.97,-522.97"/>
<polygon fill="#63b8ff" stroke="#63b8ff" points="189.11,-526.38 199.7,-526.54 191.52,-519.81 189.11,-526.38"/>
</a>
</g>
</g>
<!-- Node12 -->
<g id="Node000012" class="node">
<title>Node12</title>
<g id="a_Node000012"><a xlink:href="m__checker__common_8fpp_8f90.html#ad0e04623429683de02bab3f1a6487557" target="_top" xlink:title=" ">
<polygon fill="white" stroke="#666666" points="316.5,-275.28 198.5,-275.28 198.5,-256.28 316.5,-256.28 316.5,-275.28"/>
<text text-anchor="middle" x="257.5" y="-263.28" font-family="Helvetica,sans-Serif" font-size="10.00">s_check_inputs_mhd</text>
</a>
</g>
</g>
<!-- Node1&#45;&gt;Node12 -->
<g id="edge16_Node000001_Node000012" class="edge">
<title>Node1&#45;&gt;Node12</title>
<g id="a_edge16_Node000001_Node000012"><a xlink:title=" ">
<path fill="none" stroke="#63b8ff" d="M82.59,-342.05C101.29,-327.47 138.87,-300.04 175,-284.78 180.88,-282.3 187.15,-280.11 193.5,-278.18"/>
<polygon fill="#63b8ff" stroke="#63b8ff" points="194.81,-281.45 203.49,-275.37 192.91,-274.71 194.81,-281.45"/>
</a>
</g>
</g>
<!-- Node13 -->
<g id="Node000013" class="node">
<title>Node13</title>
<g id="a_Node000013"><a xlink:href="m__checker__common_8fpp_8f90.html#aadaed2ebe07a0d4da04e6700d4ca71d8" target="_top" xlink:title="Checks constraints on model equations and number of fluids in the flow. Called by s_check_inputs_comm...">
<polygon fill="white" stroke="#666666" points="321,-505.78 194,-505.78 194,-475.78 321,-475.78 321,-505.78"/>
<text text-anchor="start" x="202" y="-493.78" font-family="Helvetica,sans-Serif" font-size="10.00">s_check_inputs_model</text>
<text text-anchor="middle" x="257.5" y="-482.78" font-family="Helvetica,sans-Serif" font-size="10.00">_eqns_and_num_fluids</text>
</a>
</g>
</g>
<!-- Node1&#45;&gt;Node13 -->
<g id="edge19_Node000001_Node000013" class="edge">
<title>Node1&#45;&gt;Node13</title>
<g id="a_edge19_Node000001_Node000013"><a xlink:title=" ">
<path fill="none" stroke="#63b8ff" d="M76.54,-361.44C90.84,-383.52 129.05,-437.99 175,-466.78 178.12,-468.74 181.41,-470.54 184.8,-472.2"/>
<polygon fill="#63b8ff" stroke="#63b8ff" points="183.42,-475.42 193.98,-476.27 186.26,-469.02 183.42,-475.42"/>
</a>
</g>
</g>
<!-- Node14 -->
<g id="Node000014" class="node">
<title>Node14</title>
<g id="a_Node000014"><a xlink:href="m__checker__common_8fpp_8f90.html#a9473579de94b6c6782c35dad63357602" target="_top" xlink:title="Checks constraints on the inputs for moving boundaries. Called by s_check_inputs_common for all three...">
<polygon fill="white" stroke="#666666" points="525,-56.28 376,-56.28 376,-37.28 525,-37.28 525,-56.28"/>
<text text-anchor="middle" x="450.5" y="-44.28" font-family="Helvetica,sans-Serif" font-size="10.00">s_check_inputs_moving_bc</text>
</a>
</g>
</g>
<!-- Node1&#45;&gt;Node14 -->
<g id="edge21_Node000001_Node000014" class="edge">
<title>Node1&#45;&gt;Node14</title>
<g id="a_edge21_Node000001_Node000014"><a xlink:title=" ">
<path fill="none" stroke="#63b8ff" d="M70,-342.12C68.24,-297.02 67.5,-106.06 175,-27.78 248.62,25.82 364.81,-10.94 419.35,-33.21"/>
<polygon fill="#63b8ff" stroke="#63b8ff" points="418.22,-36.53 428.79,-37.18 420.93,-30.08 418.22,-36.53"/>
</a>
</g>
</g>
<!-- Node15 -->
<g id="Node000015" class="node">
<title>Node15</title>
<g id="a_Node000015"><a xlink:href="m__checker__common_8fpp_8f90.html#af30acae5ca2c19b1d22fb3e93730eefc" target="_top" xlink:title="Checks constraints on the phase change parameters. Called by s_check_inputs_common for pre&#45;processing...">
<polygon fill="white" stroke="#666666" points="320,-237.78 195,-237.78 195,-207.78 320,-207.78 320,-237.78"/>
<text text-anchor="start" x="203" y="-225.78" font-family="Helvetica,sans-Serif" font-size="10.00">s_check_inputs_phase</text>
<text text-anchor="middle" x="257.5" y="-214.78" font-family="Helvetica,sans-Serif" font-size="10.00">_change</text>
</a>
</g>
</g>
<!-- Node1&#45;&gt;Node15 -->
<g id="edge24_Node000001_Node000015" class="edge">
<title>Node1&#45;&gt;Node15</title>
<g id="a_edge24_Node000001_Node000015"><a xlink:title=" ">
<path fill="none" stroke="#63b8ff" d="M77.42,-342.07C92.66,-321.4 131.25,-272.84 175,-246.78 178.4,-244.76 181.97,-242.9 185.66,-241.19"/>
<polygon fill="#63b8ff" stroke="#63b8ff" points="187.15,-244.35 195,-237.23 184.42,-237.91 187.15,-244.35"/>
</a>
</g>
</g>
<!-- Node16 -->
<g id="Node000016" class="node">
<title>Node16</title>
<g id="a_Node000016"><a xlink:href="m__checker__common_8fpp_8f90.html#a3da7758cae2e665aa24ad82c560432b5" target="_top" xlink:title="Checks constraints on the QBMM and polydisperse bubble parameters. Called by s_check_inputs_common fo...">
<polygon fill="white" stroke="#666666" points="321.5,-189.78 193.5,-189.78 193.5,-159.78 321.5,-159.78 321.5,-189.78"/>
<text text-anchor="start" x="201.5" y="-177.78" font-family="Helvetica,sans-Serif" font-size="10.00">s_check_inputs_qbmm</text>
<text text-anchor="middle" x="257.5" y="-166.78" font-family="Helvetica,sans-Serif" font-size="10.00">_and_polydisperse</text>
</a>
</g>
</g>
<!-- Node1&#45;&gt;Node16 -->
<g id="edge27_Node000001_Node000016" class="edge">
<title>Node1&#45;&gt;Node16</title>
<g id="a_edge27_Node000001_Node000016"><a xlink:title=" ">
<path fill="none" stroke="#63b8ff" d="M74.28,-342.2C85.39,-315.28 120.64,-238.34 175,-198.78 177.89,-196.68 180.96,-194.76 184.16,-193.01"/>
<polygon fill="#63b8ff" stroke="#63b8ff" points="185.98,-196.02 193.44,-188.5 182.92,-189.72 185.98,-196.02"/>
</a>
</g>
</g>
<!-- Node17 -->
<g id="Node000017" class="node">
<title>Node17</title>
<g id="a_Node000017"><a xlink:href="m__checker__common_8fpp_8f90.html#a3e4f6e71b8347c7df5b35df4d2efc240" target="_top" xlink:title="Checks constraints on dimensionality and the number of cells for the grid. Called by s_check_inputs_c...">
<polygon fill="white" stroke="#666666" points="331.5,-457.78 183.5,-457.78 183.5,-427.78 331.5,-427.78 331.5,-457.78"/>
<text text-anchor="start" x="191.5" y="-445.78" font-family="Helvetica,sans-Serif" font-size="10.00">s_check_inputs_simulation</text>
<text text-anchor="middle" x="257.5" y="-434.78" font-family="Helvetica,sans-Serif" font-size="10.00">_domain</text>
</a>
</g>
</g>
<!-- Node1&#45;&gt;Node17 -->
<g id="edge30_Node000001_Node000017" class="edge">
<title>Node1&#45;&gt;Node17</title>
<g id="a_edge30_Node000001_Node000017"><a xlink:title=" ">
<path fill="none" stroke="#63b8ff" d="M83.02,-361.49C101.97,-375.8 139.52,-402.58 175,-418.78 179.3,-420.75 183.81,-422.6 188.39,-424.33"/>
<polygon fill="#63b8ff" stroke="#63b8ff" points="187.29,-427.65 197.88,-427.71 189.64,-421.06 187.29,-427.65"/>
</a>
</g>
</g>
<!-- Node18 -->
<g id="Node000018" class="node">
<title>Node18</title>
<g id="a_Node000018"><a xlink:href="m__checker__common_8fpp_8f90.html#ad15ca73133de2afa70c210c9a3d8a1ca" target="_top" xlink:title="Checks constraints on the stiffened equation of state fluids parameters. Called by s_check_inputs_com...">
<polygon fill="white" stroke="#666666" points="338,-93.28 177,-93.28 177,-74.28 338,-74.28 338,-93.28"/>
<text text-anchor="middle" x="257.5" y="-81.28" font-family="Helvetica,sans-Serif" font-size="10.00">s_check_inputs_stiffened_eos</text>
</a>
</g>
</g>
<!-- Node1&#45;&gt;Node18 -->
<g id="edge32_Node000001_Node000018" class="edge">
<title>Node1&#45;&gt;Node18</title>
<g id="a_edge32_Node000001_Node000018"><a xlink:title=" ">
<path fill="none" stroke="#63b8ff" d="M71.47,-342.09C75.75,-304.77 96.38,-169.17 175,-102.78 176.99,-101.1 179.1,-99.56 181.31,-98.15"/>
<polygon fill="#63b8ff" stroke="#63b8ff" points="183.09,-101.17 190.23,-93.35 179.77,-95.01 183.09,-101.17"/>
</a>
</g>
</g>
<!-- Node20 -->
<g id="Node000020" class="node">
<title>Node20</title>
<g id="a_Node000020"><a xlink:href="m__checker__common_8fpp_8f90.html#a0ed4f25d68ac7a8842f5d9f20a822ec7" target="_top" xlink:title="Checks constraints on the surface tension parameters. Called by s_check_inputs_common for all three s...">
<polygon fill="white" stroke="#666666" points="323.5,-141.78 191.5,-141.78 191.5,-111.78 323.5,-111.78 323.5,-141.78"/>
<text text-anchor="start" x="199.5" y="-129.78" font-family="Helvetica,sans-Serif" font-size="10.00">s_check_inputs_surface</text>
<text text-anchor="middle" x="257.5" y="-118.78" font-family="Helvetica,sans-Serif" font-size="10.00">_tension</text>
</a>
</g>
</g>
<!-- Node1&#45;&gt;Node20 -->
<g id="edge36_Node000001_Node000020" class="edge">
<title>Node1&#45;&gt;Node20</title>
<g id="a_edge36_Node000001_Node000020"><a xlink:title=" ">
<path fill="none" stroke="#63b8ff" d="M72.66,-342.1C80.38,-309.77 109.72,-204.53 175,-150.78 177.3,-148.89 179.73,-147.15 182.28,-145.55"/>
<polygon fill="#63b8ff" stroke="#63b8ff" points="184.21,-148.48 191.29,-140.61 180.84,-142.34 184.21,-148.48"/>
</a>
</g>
</g>
<!-- Node21 -->
<g id="Node000021" class="node">
<title>Node21</title>
<g id="a_Node000021"><a xlink:href="m__checker__common_8fpp_8f90.html#ac24afbc92fef9a9901bbafc5f2e218a9" target="_top" xlink:title="Checks constraints on the time&#45;stepping parameters. Called by s_check_inputs_common for simulation an...">
<polygon fill="white" stroke="#666666" points="317,-409.78 198,-409.78 198,-379.78 317,-379.78 317,-409.78"/>
<text text-anchor="start" x="206" y="-397.78" font-family="Helvetica,sans-Serif" font-size="10.00">s_check_inputs_time</text>
<text text-anchor="middle" x="257.5" y="-386.78" font-family="Helvetica,sans-Serif" font-size="10.00">_stepping</text>
</a>
</g>
</g>
<!-- Node1&#45;&gt;Node21 -->
<g id="edge40_Node000001_Node000021" class="edge">
<title>Node1&#45;&gt;Node21</title>
<g id="a_edge40_Node000001_Node000021"><a xlink:title=" ">
<path fill="none" stroke="#63b8ff" d="M111.78,-361.33C134.08,-366.48 162.19,-372.98 187.7,-378.88"/>
<polygon fill="#63b8ff" stroke="#63b8ff" points="187.16,-382.35 197.7,-381.19 188.74,-375.53 187.16,-382.35"/>
</a>
</g>
</g>
<!-- Node22 -->
<g id="Node000022" class="node">
<title>Node22</title>
<g id="a_Node000022"><a xlink:href="m__checker__common_8fpp_8f90.html#aa2f3f11870287e477582f2e9b1cf619e" target="_top" xlink:title="Checks constraints regarding WENO order. Called by s_check_inputs_common for all three stages.">
<polygon fill="white" stroke="#666666" points="318.5,-361.28 196.5,-361.28 196.5,-342.28 318.5,-342.28 318.5,-361.28"/>
<text text-anchor="middle" x="257.5" y="-349.28" font-family="Helvetica,sans-Serif" font-size="10.00">s_check_inputs_weno</text>
</a>
</g>
</g>
<!-- Node1&#45;&gt;Node22 -->
<g id="edge42_Node000001_Node000022" class="edge">
<title>Node1&#45;&gt;Node22</title>
<g id="a_edge42_Node000001_Node000022"><a xlink:title=" ">
<path fill="none" stroke="#63b8ff" d="M139.23,-351.78C154.45,-351.78 170.6,-351.78 185.89,-351.78"/>
<polygon fill="#63b8ff" stroke="#63b8ff" points="186.32,-355.28 196.32,-351.78 186.32,-348.28 186.32,-355.28"/>
</a>
</g>
</g>
<!-- Node23 -->
<g id="Node000023" class="node">
<title>Node23</title>
<g id="a_Node000023"><a xlink:href="m__checker__common_8fpp_8f90.html#a3c643456b84c219eab68ba27b908659a" target="_top" xlink:title=" ">
<polygon fill="white" stroke="#666666" points="313,-56.28 202,-56.28 202,-37.28 313,-37.28 313,-56.28"/>
<text text-anchor="middle" x="257.5" y="-44.28" font-family="Helvetica,sans-Serif" font-size="10.00">s_check_total_cells</text>
</a>
</g>
</g>
<!-- Node1&#45;&gt;Node23 -->
<g id="edge44_Node000001_Node000023" class="edge">
<title>Node1&#45;&gt;Node23</title>
<g id="a_edge44_Node000001_Node000023"><a xlink:title=" ">
<path fill="none" stroke="#63b8ff" d="M70.85,-342.05C72.9,-301.22 86.46,-142.36 175,-64.78 179.94,-60.46 185.67,-57.1 191.78,-54.5"/>
<polygon fill="#63b8ff" stroke="#63b8ff" points="193.35,-57.66 201.61,-51.02 191.01,-51.06 193.35,-57.66"/>
</a>
</g>
</g>
<!-- Node3 -->
<g id="Node000003" class="node">
<title>Node3</title>
<g id="a_Node000003"><a xlink:href="m__mpi__common_8fpp_8f90.html#a7a63ba325e6315d6d7dc45c614d65347" target="_top" xlink:title=" ">
<polygon fill="white" stroke="#666666" points="498,-361.28 403,-361.28 403,-342.28 498,-342.28 498,-361.28"/>
<text text-anchor="middle" x="450.5" y="-349.28" font-family="Helvetica,sans-Serif" font-size="10.00">s_prohibit_abort</text>
</a>
</g>
</g>
<!-- Node2&#45;&gt;Node3 -->
<g id="edge2_Node000002_Node000003" class="edge">
<title>Node2&#45;&gt;Node3</title>
<g id="a_edge2_Node000002_Node000003"><a xlink:title=" ">
<path fill="none" stroke="#63b8ff" d="M320.18,-687.45C327.44,-684.69 334.28,-680.91 340,-675.78 432.63,-592.7 446.98,-428.53 449.14,-371.7"/>
<polygon fill="#63b8ff" stroke="#63b8ff" points="452.64,-371.64 449.44,-361.54 445.65,-371.44 452.64,-371.64"/>
</a>
</g>
</g>
<!-- Node4 -->
<g id="Node000004" class="node">
<title>Node4</title>
<g id="a_Node000004"><a xlink:href="m__mpi__common_8fpp_8f90.html#adbcc47e90968ff0f14ccc2ca3c47586a" target="_top" xlink:title="The subroutine terminates the MPI execution environment.">
<polygon fill="white" stroke="#666666" points="645.5,-267.28 568.5,-267.28 568.5,-248.28 645.5,-248.28 645.5,-267.28"/>
<text text-anchor="middle" x="607" y="-255.28" font-family="Helvetica,sans-Serif" font-size="10.00">s_mpi_abort</text>
</a>
</g>
</g>
<!-- Node3&#45;&gt;Node4 -->
<g id="edge3_Node000003_Node000004" class="edge">
<title>Node3&#45;&gt;Node4</title>
<g id="a_edge3_Node000003_Node000004"><a xlink:title=" ">
<path fill="none" stroke="#63b8ff" d="M467.16,-342.25C494.12,-325.85 549.45,-292.19 581.52,-272.67"/>
<polygon fill="#63b8ff" stroke="#63b8ff" points="583.57,-275.53 590.29,-267.34 579.93,-269.55 583.57,-275.53"/>
</a>
</g>
</g>
<!-- Node5&#45;&gt;Node3 -->
<g id="edge5_Node000005_Node000003" class="edge">
<title>Node5&#45;&gt;Node3</title>
<g id="a_edge5_Node000005_Node000003"><a xlink:title=" ">
<path fill="none" stroke="#63b8ff" d="M311.22,-652.34C321.67,-649.42 331.9,-644.85 340,-637.78 422.71,-565.67 443.23,-423.94 448.08,-371.72"/>
<polygon fill="#63b8ff" stroke="#63b8ff" points="451.59,-371.73 448.93,-361.47 444.61,-371.15 451.59,-371.73"/>
</a>
</g>
</g>
<!-- Node6&#45;&gt;Node3 -->
<g id="edge9_Node000006_Node000003" class="edge">
<title>Node6&#45;&gt;Node3</title>
<g id="a_edge9_Node000006_Node000003"><a xlink:title=" ">
<path fill="none" stroke="#63b8ff" d="M324.77,-323.7C348.5,-329.04 374.9,-334.99 397.27,-340.03"/>
<polygon fill="#63b8ff" stroke="#63b8ff" points="396.73,-343.49 407.25,-342.27 398.26,-336.66 396.73,-343.49"/>
</a>
</g>
</g>
<!-- Node7 -->
<g id="Node000007" class="node">
<title>Node7</title>
<g id="a_Node000007"><a xlink:href="m__helper__basic_8fpp_8f90.html#af13561cd8191e20b0ee3bdf335944ce5" target="_top" xlink:title="Checks if a real(wp) variable is of default value.">
<polygon fill="white" stroke="#666666" points="487.5,-184.28 413.5,-184.28 413.5,-165.28 487.5,-165.28 487.5,-184.28"/>
<text text-anchor="middle" x="450.5" y="-172.28" font-family="Helvetica,sans-Serif" font-size="10.00">f_is_default</text>
</a>
</g>
</g>
<!-- Node6&#45;&gt;Node7 -->
<g id="edge7_Node000006_Node000007" class="edge">
<title>Node6&#45;&gt;Node7</title>
<g id="a_edge7_Node000006_Node000007"><a xlink:title=" ">
<path fill="none" stroke="#63b8ff" d="M319.56,-293.67C326.68,-290.86 333.65,-287.59 340,-283.78 380.77,-259.33 417.57,-216.49 436.36,-192.44"/>
<polygon fill="#63b8ff" stroke="#63b8ff" points="439.14,-194.57 442.44,-184.5 433.58,-190.31 439.14,-194.57"/>
</a>
</g>
</g>
<!-- Node8 -->
<g id="Node000008" class="node">
<title>Node8</title>
<g id="a_Node000008"><a xlink:href="m__helper__basic_8fpp_8f90.html#a49aa1857cb519bdc6b35434fd1821cab" target="_top" xlink:title="This procedure checks if two floating point numbers of wp are within tolerance.">
<polygon fill="white" stroke="#666666" points="653,-136.28 561,-136.28 561,-117.28 653,-117.28 653,-136.28"/>
<text text-anchor="middle" x="607" y="-124.28" font-family="Helvetica,sans-Serif" font-size="10.00">f_approx_equal</text>
</a>
</g>
</g>
<!-- Node7&#45;&gt;Node8 -->
<g id="edge8_Node000007_Node000008" class="edge">
<title>Node7&#45;&gt;Node8</title>
<g id="a_edge8_Node000007_Node000008"><a xlink:title=" ">
<path fill="none" stroke="#63b8ff" d="M482.39,-165.19C506.29,-157.76 539.57,-147.42 565.58,-139.34"/>
<polygon fill="#63b8ff" stroke="#63b8ff" points="566.65,-142.67 575.16,-136.36 564.57,-135.99 566.65,-142.67"/>
</a>
</g>
</g>
<!-- Node9&#45;&gt;Node3 -->
<g id="edge11_Node000009_Node000003" class="edge">
<title>Node9&#45;&gt;Node3</title>
<g id="a_edge11_Node000009_Node000003"><a xlink:title=" ">
<path fill="none" stroke="#63b8ff" d="M318.15,-602.79C326.07,-599.52 333.64,-595.28 340,-589.78 409.14,-529.99 437.21,-417.4 446.08,-371.76"/>
<polygon fill="#63b8ff" stroke="#63b8ff" points="449.57,-372.14 447.94,-361.67 442.68,-370.87 449.57,-372.14"/>
</a>
</g>
</g>
<!-- Node10&#45;&gt;Node3 -->
<g id="edge13_Node000010_Node000003" class="edge">
<title>Node10&#45;&gt;Node3</title>
<g id="a_edge13_Node000010_Node000003"><a xlink:title=" ">
<path fill="none" stroke="#63b8ff" d="M325.17,-561.23C330.45,-558.96 335.48,-556.18 340,-552.78 402.55,-505.75 433.67,-412.13 444.69,-371.43"/>
<polygon fill="#63b8ff" stroke="#63b8ff" points="448.11,-372.21 447.23,-361.65 441.33,-370.45 448.11,-372.21"/>
</a>
</g>
</g>
<!-- Node11&#45;&gt;Node3 -->
<g id="edge15_Node000011_Node000003" class="edge">
<title>Node11&#45;&gt;Node3</title>
<g id="a_edge15_Node000011_Node000003"><a xlink:title=" ">
<path fill="none" stroke="#63b8ff" d="M315.2,-526.4C323.98,-523.65 332.59,-519.9 340,-514.78 393.65,-477.75 428.25,-405.1 442.32,-370.7"/>
<polygon fill="#63b8ff" stroke="#63b8ff" points="445.6,-371.92 446.03,-361.33 439.09,-369.34 445.6,-371.92"/>
</a>
</g>
</g>
<!-- Node12&#45;&gt;Node3 -->
<g id="edge18_Node000012_Node000003" class="edge">
<title>Node12&#45;&gt;Node3</title>
<g id="a_edge18_Node000012_Node000003"><a xlink:title=" ">
<path fill="none" stroke="#63b8ff" d="M310.58,-275.3C320.53,-277.85 330.72,-280.98 340,-284.78 372.84,-298.25 407.2,-320.89 428.47,-336.08"/>
<polygon fill="#63b8ff" stroke="#63b8ff" points="426.6,-339.04 436.75,-342.08 430.71,-333.38 426.6,-339.04"/>
</a>
</g>
</g>
<!-- Node12&#45;&gt;Node7 -->
<g id="edge17_Node000012_Node000007" class="edge">
<title>Node12&#45;&gt;Node7</title>
<g id="a_edge17_Node000012_Node000007"><a xlink:title=" ">
<path fill="none" stroke="#63b8ff" d="M311.55,-256.28C321.21,-253.75 331.05,-250.62 340,-246.78 374,-232.2 408.98,-207.09 429.98,-190.72"/>
<polygon fill="#63b8ff" stroke="#63b8ff" points="432.17,-193.45 437.83,-184.5 427.82,-187.97 432.17,-193.45"/>
</a>
</g>
</g>
<!-- Node13&#45;&gt;Node3 -->
<g id="edge20_Node000013_Node000003" class="edge">
<title>Node13&#45;&gt;Node3</title>
<g id="a_edge20_Node000013_Node000003"><a xlink:title=" ">
<path fill="none" stroke="#63b8ff" d="M321.36,-475.97C327.87,-473.36 334.21,-470.32 340,-466.78 382.12,-441.07 418.88,-395.08 437.18,-369.75"/>
<polygon fill="#63b8ff" stroke="#63b8ff" points="440.14,-371.61 443.06,-361.43 434.43,-367.57 440.14,-371.61"/>
</a>
</g>
</g>
<!-- Node14&#45;&gt;Node4 -->
<g id="edge23_Node000014_Node000004" class="edge">
<title>Node14&#45;&gt;Node4</title>
<g id="a_edge23_Node000014_Node000004"><a xlink:title=" ">
<path fill="none" stroke="#63b8ff" d="M511.64,-56.31C516.46,-58.58 521,-61.37 525,-64.78 532.08,-70.83 579.76,-190.95 598.48,-238.57"/>
<polygon fill="#63b8ff" stroke="#63b8ff" points="595.29,-240.02 602.2,-248.05 601.8,-237.47 595.29,-240.02"/>
</a>
</g>
</g>
<!-- Node14&#45;&gt;Node8 -->
<g id="edge22_Node000014_Node000008" class="edge">
<title>Node14&#45;&gt;Node8</title>
<g id="a_edge22_Node000014_Node000008"><a xlink:title=" ">
<path fill="none" stroke="#63b8ff" d="M502.28,-56.29C510.08,-58.58 517.89,-61.38 525,-64.78 549.26,-76.4 573.24,-96.06 588.74,-110.12"/>
<polygon fill="#63b8ff" stroke="#63b8ff" points="586.72,-113.02 596.42,-117.28 591.49,-107.9 586.72,-113.02"/>
</a>
</g>
</g>
<!-- Node15&#45;&gt;Node3 -->
<g id="edge26_Node000015_Node000003" class="edge">
<title>Node15&#45;&gt;Node3</title>
<g id="a_edge26_Node000015_Node000003"><a xlink:title=" ">
<path fill="none" stroke="#63b8ff" d="M320.35,-237.54C327.18,-240.17 333.87,-243.23 340,-246.78 380,-269.98 416.64,-310.74 435.71,-334.07"/>
<polygon fill="#63b8ff" stroke="#63b8ff" points="433.15,-336.47 442.13,-342.08 438.61,-332.09 433.15,-336.47"/>
</a>
</g>
</g>
<!-- Node15&#45;&gt;Node7 -->
<g id="edge25_Node000015_Node000007" class="edge">
<title>Node15&#45;&gt;Node7</title>
<g id="a_edge25_Node000015_Node000007"><a xlink:title=" ">
<path fill="none" stroke="#63b8ff" d="M318.41,-207.73C345.94,-200.81 378.06,-192.74 403.63,-186.31"/>
<polygon fill="#63b8ff" stroke="#63b8ff" points="404.59,-189.68 413.43,-183.85 402.88,-182.89 404.59,-189.68"/>
</a>
</g>
</g>
<!-- Node16&#45;&gt;Node3 -->
<g id="edge29_Node000016_Node000003" class="edge">
<title>Node16&#45;&gt;Node3</title>
<g id="a_edge29_Node000016_Node000003"><a xlink:title=" ">
<path fill="none" stroke="#63b8ff" d="M321.89,-188.8C328.3,-191.56 334.47,-194.85 340,-198.78 390.21,-234.48 425.87,-300.61 441.16,-332.97"/>
<polygon fill="#63b8ff" stroke="#63b8ff" points="438.05,-334.58 445.41,-342.21 444.41,-331.66 438.05,-334.58"/>
</a>
</g>
</g>
<!-- Node16&#45;&gt;Node7 -->
<g id="edge28_Node000016_Node000007" class="edge">
<title>Node16&#45;&gt;Node7</title>
<g id="a_edge28_Node000016_Node000007"><a xlink:title=" ">
<path fill="none" stroke="#63b8ff" d="M321.57,-174.78C348.19,-174.78 378.63,-174.78 403.13,-174.78"/>
<polygon fill="#63b8ff" stroke="#63b8ff" points="403.24,-178.28 413.24,-174.78 403.24,-171.28 403.24,-178.28"/>
</a>
</g>
</g>
<!-- Node17&#45;&gt;Node3 -->
<g id="edge31_Node000017_Node000003" class="edge">
<title>Node17&#45;&gt;Node3</title>
<g id="a_edge31_Node000017_Node000003"><a xlink:title=" ">
<path fill="none" stroke="#63b8ff" d="M316.62,-427.72C324.59,-425.06 332.59,-422.07 340,-418.78 372.26,-404.46 406.51,-382.22 427.95,-367.34"/>
<polygon fill="#63b8ff" stroke="#63b8ff" points="430.14,-370.07 436.31,-361.45 426.11,-364.35 430.14,-370.07"/>
</a>
</g>
</g>
<!-- Node18&#45;&gt;Node3 -->
<g id="edge35_Node000018_Node000003" class="edge">
<title>Node18&#45;&gt;Node3</title>
<g id="a_edge35_Node000018_Node000003"><a xlink:title=" ">
<path fill="none" stroke="#63b8ff" d="M325.24,-93.45C330.57,-95.93 335.59,-99 340,-102.78 372.68,-130.85 358.96,-153.22 376,-192.78 398.06,-244 426.23,-303.43 440.44,-333.02"/>
<polygon fill="#63b8ff" stroke="#63b8ff" points="437.36,-334.69 444.85,-342.18 443.66,-331.65 437.36,-334.69"/>
</a>
</g>
</g>
<!-- Node18&#45;&gt;Node7 -->
<g id="edge33_Node000018_Node000007" class="edge">
<title>Node18&#45;&gt;Node7</title>
<g id="a_edge33_Node000018_Node000007"><a xlink:title=" ">
<path fill="none" stroke="#63b8ff" d="M311.55,-93.28C321.21,-95.81 331.05,-98.94 340,-102.78 374,-117.37 408.98,-142.47 429.98,-158.85"/>
<polygon fill="#63b8ff" stroke="#63b8ff" points="427.82,-161.6 437.83,-165.07 432.17,-156.12 427.82,-161.6"/>
</a>
</g>
</g>
<!-- Node19 -->
<g id="Node000019" class="node">
<title>Node19</title>
<g id="a_Node000019"><a xlink:href="m__helper_8fpp_8f90.html#a61ed7167a8466d96b3403bf41febc469" target="_top" xlink:title=" ">
<polygon fill="white" stroke="#666666" points="487,-93.28 414,-93.28 414,-74.28 487,-74.28 487,-93.28"/>
<text text-anchor="middle" x="450.5" y="-81.28" font-family="Helvetica,sans-Serif" font-size="10.00">s_int_to_str</text>
</a>
</g>
</g>
<!-- Node18&#45;&gt;Node19 -->
<g id="edge34_Node000018_Node000019" class="edge">
<title>Node18&#45;&gt;Node19</title>
<g id="a_edge34_Node000018_Node000019"><a xlink:title=" ">
<path fill="none" stroke="#63b8ff" d="M338.12,-83.78C360.5,-83.78 384.09,-83.78 403.76,-83.78"/>
<polygon fill="#63b8ff" stroke="#63b8ff" points="403.96,-87.28 413.96,-83.78 403.96,-80.28 403.96,-87.28"/>
</a>
</g>
</g>
<!-- Node20&#45;&gt;Node3 -->
<g id="edge39_Node000020_Node000003" class="edge">
<title>Node20&#45;&gt;Node3</title>
<g id="a_edge39_Node000020_Node000003"><a xlink:title=" ">
<path fill="none" stroke="#63b8ff" d="M323.63,-140.71C329.49,-143.48 335.06,-146.8 340,-150.78 371.41,-176.14 421.93,-287.85 441.45,-332.88"/>
<polygon fill="#63b8ff" stroke="#63b8ff" points="438.25,-334.31 445.42,-342.11 444.69,-331.54 438.25,-334.31"/>
</a>
</g>
</g>
<!-- Node20&#45;&gt;Node7 -->
<g id="edge38_Node000020_Node000007" class="edge">
<title>Node20&#45;&gt;Node7</title>
<g id="a_edge38_Node000020_Node000007"><a xlink:title=" ">
<path fill="none" stroke="#63b8ff" d="M318.41,-141.84C345.94,-148.76 378.06,-156.83 403.63,-163.25"/>
<polygon fill="#63b8ff" stroke="#63b8ff" points="402.88,-166.68 413.43,-165.72 404.59,-159.89 402.88,-166.68"/>
</a>
</g>
</g>
<!-- Node20&#45;&gt;Node8 -->
<g id="edge37_Node000020_Node000008" class="edge">
<title>Node20&#45;&gt;Node8</title>
<g id="a_edge37_Node000020_Node000008"><a xlink:title=" ">
<path fill="none" stroke="#63b8ff" d="M323.86,-126.78C389.28,-126.78 488.84,-126.78 550.53,-126.78"/>
<polygon fill="#63b8ff" stroke="#63b8ff" points="550.84,-130.28 560.84,-126.78 550.84,-123.28 550.84,-130.28"/>
</a>
</g>
</g>
<!-- Node21&#45;&gt;Node3 -->
<g id="edge41_Node000021_Node000003" class="edge">
<title>Node21&#45;&gt;Node3</title>
<g id="a_edge41_Node000021_Node000003"><a xlink:title=" ">
<path fill="none" stroke="#63b8ff" d="M317.1,-381.59C342.64,-375.84 372.35,-369.15 397.14,-363.57"/>
<polygon fill="#63b8ff" stroke="#63b8ff" points="398.09,-366.94 407.08,-361.33 396.56,-360.11 398.09,-366.94"/>
</a>
</g>
</g>
<!-- Node22&#45;&gt;Node3 -->
<g id="edge43_Node000022_Node000003" class="edge">
<title>Node22&#45;&gt;Node3</title>
<g id="a_edge43_Node000022_Node000003"><a xlink:title=" ">
<path fill="none" stroke="#63b8ff" d="M318.67,-351.78C342.39,-351.78 369.49,-351.78 392.85,-351.78"/>
<polygon fill="#63b8ff" stroke="#63b8ff" points="392.96,-355.28 402.96,-351.78 392.96,-348.28 392.96,-355.28"/>
</a>
</g>
</g>
<!-- Node23&#45;&gt;Node3 -->
<g id="edge46_Node000023_Node000003" class="edge">
<title>Node23&#45;&gt;Node3</title>
<g id="a_edge46_Node000023_Node000003"><a xlink:title=" ">
<path fill="none" stroke="#63b8ff" d="M313.38,-50.45C323.19,-53.32 332.63,-57.82 340,-64.78 382.96,-105.37 355.54,-137.34 376,-192.78 395.22,-244.85 424.38,-303.48 439.55,-332.86"/>
<polygon fill="#63b8ff" stroke="#63b8ff" points="436.57,-334.72 444.29,-341.97 442.78,-331.48 436.57,-334.72"/>
</a>
</g>
</g>
<!-- Node23&#45;&gt;Node19 -->
<g id="edge45_Node000023_Node000019" class="edge">
<title>Node23&#45;&gt;Node19</title>
<g id="a_edge45_Node000023_Node000019"><a xlink:title=" ">
<path fill="none" stroke="#63b8ff" d="M307.69,-56.31C337.35,-62.06 374.88,-69.33 403.87,-74.94"/>
<polygon fill="#63b8ff" stroke="#63b8ff" points="403.27,-78.39 413.75,-76.86 404.6,-71.52 403.27,-78.39"/>
</a>
</g>
</g>
</g>
</svg>
