<?xml version="1.0" encoding="UTF-8" standalone="no"?>
<!DOCTYPE svg PUBLIC "-//W3C//DTD SVG 1.1//EN"
 "http://www.w3.org/Graphics/SVG/1.1/DTD/svg11.dtd">
<!-- Generated by graphviz version 2.43.0 (0)
 -->
<!-- Title: s_check_inputs_common Pages: 1 -->
<!--zoomable 669 -->

<svg id="main" version="1.1" xmlns="http://www.w3.org/2000/svg" xmlns:xlink="http://www.w3.org/1999/xlink" xml:space="preserve" onload="init(evt)">

<style type="text/css"><![CDATA[
.node, .edge {opacity: 0.7;}
.node.selected, .edge.selected {opacity: 1;}
.edge:hover path { stroke: red; }
.edge:hover polygon { stroke: red; fill: red; }
]]></style>

<defs>
  <circle id="rim" cx="0" cy="0" r="7"/>
  <circle id="rim2" cx="0" cy="0" r="3.5"/>
  <g id="zoomPlus">
    <use xlink:href="#rim" fill="#404040"><set attributeName="fill" to="#808080" begin="zoomplus.mouseover" end="zoomplus.mouseout"/></use>
    <path d="M-4,0h8M0,-4v8" fill="none" stroke="white" stroke-width="1.5" pointer-events="none"/>
  </g>
  <g id="zoomMin">
    <use xlink:href="#rim" fill="#404040"><set attributeName="fill" to="#808080" begin="zoomminus.mouseover" end="zoomminus.mouseout"/></use>
    <path d="M-4,0h8" fill="none" stroke="white" stroke-width="1.5" pointer-events="none"/>
  </g>
  <g id="arrowUp" transform="translate(30 24)">
    <use xlink:href="#rim"/>
    <path pointer-events="none" fill="none" stroke="white" stroke-width="1.5" d="M0,-3.0v7 M-2.5,-0.5L0,-3.0L2.5,-0.5"/>
  </g>
  <g id="arrowRight" transform="rotate(90) translate(36 -43)">
    <use xlink:href="#rim"/>
    <path pointer-events="none" fill="none" stroke="white" stroke-width="1.5" d="M0,-3.0v7 M-2.5,-0.5L0,-3.0L2.5,-0.5"/>
  </g>
  <g id="arrowDown" transform="rotate(180) translate(-30 -48)">
    <use xlink:href="#rim"/>
    <path pointer-events="none" fill="none" stroke="white" stroke-width="1.5" d="M0,-3.0v7 M-2.5,-0.5L0,-3.0L2.5,-0.5"/>
  </g>
  <g id="arrowLeft" transform="rotate(270) translate(-36 17)">
    <use xlink:href="#rim"/>
    <path pointer-events="none" fill="none" stroke="white" stroke-width="1.5" d="M0,-3.0v7 M-2.5,-0.5L0,-3.0L2.5,-0.5"/>
  </g>
  <g id="resetDef">
    <use xlink:href="#rim2" fill="#404040"><set attributeName="fill" to="#808080" begin="reset.mouseover" end="reset.mouseout"/></use>
  </g>
</defs>
<script type="application/ecmascript">
var viewWidth = 711;
var viewHeight = 669;
var sectionId = 'dynsection-7';
</script>
<script type="application/ecmascript" xlink:href="svg.min.js"/>
<svg id="graph" class="graph">
<g id="viewport">
<title>s_check_inputs_common</title>
<!-- Node1 -->
<g id="Node000001" class="node">
<title>Node1</title>
<g id="a_Node000001"><a xlink:title="Checks compatibility of parameters in the input file. Used by all three stages.">
<polygon fill="#999999" stroke="#666666" points="139,-340.38 0,-340.38 0,-321.38 139,-321.38 139,-340.38"/>
<text text-anchor="middle" x="69.5" y="-328.38" font-family="Helvetica,sans-Serif" font-size="10.00">s_check_inputs_common</text>
</a>
</g>
</g>
<!-- Node2 -->
<g id="Node000002" class="node">
<title>Node2</title>
<g id="a_Node000002"><a xlink:href="m__checker__common_8fpp_8f90.html#a538dcaa242ef367d1b2cddca76058620" target="_top" xlink:title="Checks constraints on the adv_n flag. Called by s_check_inputs_common for pre&#45;processing and simulati...">
<polygon fill="white" stroke="#666666" points="320,-661.38 195,-661.38 195,-642.38 320,-642.38 320,-661.38"/>
<text text-anchor="middle" x="257.5" y="-649.38" font-family="Helvetica,sans-Serif" font-size="10.00">s_check_inputs_adv_n</text>
</a>
</g>
</g>
<!-- Node1&#45;&gt;Node2 -->
<g id="edge1_Node000001_Node000002" class="edge">
<title>Node1&#45;&gt;Node2</title>
<g id="a_edge1_Node000001_Node000002"><a xlink:title=" ">
<path fill="none" stroke="#63b8ff" d="M70.64,-340.57C71.82,-382.68 82.37,-551.31 175,-633.88 178.22,-636.76 181.8,-639.2 185.61,-641.29"/>
<polygon fill="#63b8ff" stroke="#63b8ff" points="184.3,-644.54 194.85,-645.52 187.21,-638.17 184.3,-644.54"/>
</a>
</g>
</g>
<!-- Node5 -->
<g id="Node000005" class="node">
<title>Node5</title>
<g id="a_Node000005"><a xlink:href="m__checker__common_8fpp_8f90.html#ab9d26fff561c55f5ef7f201aa14d2688" target="_top" xlink:title="Checks constraints on the boundary conditions in the x&#45;direction. Called by s_check_inputs_common for...">
<polygon fill="white" stroke="#666666" points="311,-624.38 204,-624.38 204,-605.38 311,-605.38 311,-624.38"/>
<text text-anchor="middle" x="257.5" y="-612.38" font-family="Helvetica,sans-Serif" font-size="10.00">s_check_inputs_bc</text>
</a>
</g>
</g>
<!-- Node1&#45;&gt;Node5 -->
<g id="edge4_Node000001_Node000005" class="edge">
<title>Node1&#45;&gt;Node5</title>
<g id="a_edge4_Node000001_Node000005"><a xlink:title=" ">
<path fill="none" stroke="#63b8ff" d="M71.19,-340.38C74.5,-378.86 92.27,-524.46 175,-595.88 180.6,-600.71 187.19,-604.37 194.15,-607.14"/>
<polygon fill="#63b8ff" stroke="#63b8ff" points="193.24,-610.52 203.83,-610.38 195.46,-603.88 193.24,-610.52"/>
</a>
</g>
</g>
<!-- Node6 -->
<g id="Node000006" class="node">
<title>Node6</title>
<g id="a_Node000006"><a xlink:href="m__checker__common_8fpp_8f90.html#a01441cca058c6ae5c7ad6d95023d7c74" target="_top" xlink:title="Checks constraints on the bubble parameters. Called by s_check_inputs_common for pre&#45;processing and s...">
<polygon fill="white" stroke="#666666" points="324.5,-282.38 190.5,-282.38 190.5,-263.38 324.5,-263.38 324.5,-282.38"/>
<text text-anchor="middle" x="257.5" y="-270.38" font-family="Helvetica,sans-Serif" font-size="10.00">s_check_inputs_bubbles</text>
</a>
</g>
</g>
<!-- Node1&#45;&gt;Node6 -->
<g id="edge6_Node000001_Node000006" class="edge">
<title>Node1&#45;&gt;Node6</title>
<g id="a_edge6_Node000001_Node000006"><a xlink:title=" ">
<path fill="none" stroke="#63b8ff" d="M92.59,-321.32C113.52,-312.54 145.97,-299.59 175,-290.88 182.24,-288.71 189.91,-286.68 197.54,-284.81"/>
<polygon fill="#63b8ff" stroke="#63b8ff" points="198.57,-288.17 207.5,-282.47 196.96,-281.35 198.57,-288.17"/>
</a>
</g>
</g>
<!-- Node9 -->
<g id="Node000009" class="node">
<title>Node9</title>
<g id="a_Node000009"><a xlink:href="m__checker__common_8fpp_8f90.html#a1f58bf767848b82995c95a02051a26a3" target="_top" xlink:title="Checks constraints on the finite difference parameters. Called by s_check_inputs_common for simulatio...">
<polygon fill="white" stroke="#666666" points="318,-586.88 197,-586.88 197,-556.88 318,-556.88 318,-586.88"/>
<text text-anchor="start" x="205" y="-574.88" font-family="Helvetica,sans-Serif" font-size="10.00">s_check_inputs_finite</text>
<text text-anchor="middle" x="257.5" y="-563.88" font-family="Helvetica,sans-Serif" font-size="10.00">_difference</text>
</a>
</g>
</g>
<!-- Node1&#45;&gt;Node9 -->
<g id="edge10_Node000001_Node000009" class="edge">
<title>Node1&#45;&gt;Node9</title>
<g id="a_edge10_Node000001_Node000009"><a xlink:title=" ">
<path fill="none" stroke="#63b8ff" d="M72.31,-340.84C79.09,-375.12 106.16,-489.41 175,-547.88 178.9,-551.2 183.25,-554.06 187.84,-556.52"/>
<polygon fill="#63b8ff" stroke="#63b8ff" points="186.4,-559.71 196.94,-560.79 189.37,-553.37 186.4,-559.71"/>
</a>
</g>
</g>
<!-- Node10 -->
<g id="Node000010" class="node">
<title>Node10</title>
<g id="a_Node000010"><a xlink:href="m__checker__common_8fpp_8f90.html#accfb74f37212066b8bc82dd89ed2ed22" target="_top" xlink:title="Checks constraints on the hypoelasticity parameters. Called by s_check_inputs_common for pre&#45;processi...">
<polygon fill="white" stroke="#666666" points="340,-538.38 175,-538.38 175,-519.38 340,-519.38 340,-538.38"/>
<text text-anchor="middle" x="257.5" y="-526.38" font-family="Helvetica,sans-Serif" font-size="10.00">s_check_inputs_hypoelasticity</text>
</a>
</g>
</g>
<!-- Node1&#45;&gt;Node10 -->
<g id="edge12_Node000001_Node000010" class="edge">
<title>Node1&#45;&gt;Node10</title>
<g id="a_edge12_Node000001_Node000010"><a xlink:title=" ">
<path fill="none" stroke="#63b8ff" d="M73.09,-340.57C81.78,-371.02 112.86,-465.47 175,-510.88 176.9,-512.27 178.89,-513.56 180.95,-514.74"/>
<polygon fill="#63b8ff" stroke="#63b8ff" points="179.82,-518.09 190.34,-519.37 182.91,-511.81 179.82,-518.09"/>
</a>
</g>
</g>
<!-- Node11 -->
<g id="Node000011" class="node">
<title>Node11</title>
<g id="a_Node000011"><a xlink:href="m__checker__common_8fpp_8f90.html#a5f288df12e9ccee0eb013354410ebfa8" target="_top" xlink:title="Checks constraints on the Immersed Boundaries parameters. Called by s_check_inputs_common for pre&#45;pro...">
<polygon fill="white" stroke="#666666" points="315,-501.38 200,-501.38 200,-482.38 315,-482.38 315,-501.38"/>
<text text-anchor="middle" x="257.5" y="-489.38" font-family="Helvetica,sans-Serif" font-size="10.00">s_check_inputs_ibm</text>
</a>
</g>
</g>
<!-- Node1&#45;&gt;Node11 -->
<g id="edge14_Node000001_Node000011" class="edge">
<title>Node1&#45;&gt;Node11</title>
<g id="a_edge14_Node000001_Node000011"><a xlink:title=" ">
<path fill="none" stroke="#63b8ff" d="M74.71,-340.66C86.42,-366.69 122.1,-438.01 175,-472.88 179.7,-475.98 184.85,-478.57 190.19,-480.75"/>
<polygon fill="#63b8ff" stroke="#63b8ff" points="189.39,-484.18 199.98,-484.22 191.73,-477.58 189.39,-484.18"/>
</a>
</g>
</g>
<!-- Node12 -->
<g id="Node000012" class="node">
<title>Node12</title>
<g id="a_Node000012"><a xlink:href="m__checker__common_8fpp_8f90.html#a62ef6c0450d3c2d10771bc88062ae6e4" target="_top" xlink:title="Checks constraints on model equations and number of fluids in the flow. Called by s_check_inputs_comm...">
<polygon fill="white" stroke="#666666" points="321,-463.88 194,-463.88 194,-433.88 321,-433.88 321,-463.88"/>
<text text-anchor="start" x="202" y="-451.88" font-family="Helvetica,sans-Serif" font-size="10.00">s_check_inputs_model</text>
<text text-anchor="middle" x="257.5" y="-440.88" font-family="Helvetica,sans-Serif" font-size="10.00">_eqns_and_num_fluids</text>
</a>
</g>
</g>
<!-- Node1&#45;&gt;Node12 -->
<g id="edge16_Node000001_Node000012" class="edge">
<title>Node1&#45;&gt;Node12</title>
<g id="a_edge16_Node000001_Node000012"><a xlink:title=" ">
<path fill="none" stroke="#63b8ff" d="M78.4,-340.4C94.57,-359.28 133.46,-401.67 175,-424.88 178.22,-426.68 181.58,-428.35 185.03,-429.91"/>
<polygon fill="#63b8ff" stroke="#63b8ff" points="183.76,-433.17 194.33,-433.77 186.44,-426.71 183.76,-433.17"/>
</a>
</g>
</g>
<!-- Node13 -->
<g id="Node000013" class="node">
<title>Node13</title>
<g id="a_Node000013"><a xlink:href="m__checker__common_8fpp_8f90.html#a697321811bee46ce0c7e4d23ef95fb9e" target="_top" xlink:title="Checks constraints on the inputs for moving boundaries. Called by s_check_inputs_common for all three...">
<polygon fill="white" stroke="#666666" points="525,-35.38 376,-35.38 376,-16.38 525,-16.38 525,-35.38"/>
<text text-anchor="middle" x="450.5" y="-23.38" font-family="Helvetica,sans-Serif" font-size="10.00">s_check_inputs_moving_bc</text>
</a>
</g>
</g>
<!-- Node1&#45;&gt;Node13 -->
<g id="edge18_Node000001_Node000013" class="edge">
<title>Node1&#45;&gt;Node13</title>
<g id="a_edge18_Node000001_Node000013"><a xlink:title=" ">
<path fill="none" stroke="#63b8ff" d="M70.37,-321.26C70.4,-278.77 76.73,-106.85 175,-34.88 243.41,15.22 349.23,0.06 407.48,-13.87"/>
<polygon fill="#63b8ff" stroke="#63b8ff" points="406.89,-17.33 417.44,-16.35 408.58,-10.54 406.89,-17.33"/>
</a>
</g>
</g>
<!-- Node14 -->
<g id="Node000014" class="node">
<title>Node14</title>
<g id="a_Node000014"><a xlink:href="m__checker__common_8fpp_8f90.html#add5396f309ec2b5791b6e7e931a8a83a" target="_top" xlink:title="Checks constraints on the phase change parameters. Called by s_check_inputs_common for pre&#45;processing...">
<polygon fill="white" stroke="#666666" points="320,-244.88 195,-244.88 195,-214.88 320,-214.88 320,-244.88"/>
<text text-anchor="start" x="203" y="-232.88" font-family="Helvetica,sans-Serif" font-size="10.00">s_check_inputs_phase</text>
<text text-anchor="middle" x="257.5" y="-221.88" font-family="Helvetica,sans-Serif" font-size="10.00">_change</text>
</a>
</g>
</g>
<!-- Node1&#45;&gt;Node14 -->
<g id="edge20_Node000001_Node000014" class="edge">
<title>Node1&#45;&gt;Node14</title>
<g id="a_edge20_Node000001_Node000014"><a xlink:title=" ">
<path fill="none" stroke="#63b8ff" d="M80.96,-321.2C98.89,-305.07 137.25,-272.62 175,-253.88 178.79,-252 182.75,-250.24 186.81,-248.59"/>
<polygon fill="#63b8ff" stroke="#63b8ff" points="188.27,-251.78 196.38,-244.97 185.79,-245.24 188.27,-251.78"/>
</a>
</g>
</g>
<!-- Node15 -->
<g id="Node000015" class="node">
<title>Node15</title>
<g id="a_Node000015"><a xlink:href="m__checker__common_8fpp_8f90.html#adc048c92da5bb1fe5a2e0c05a6ac4363" target="_top" xlink:title="Checks constraints on the QBMM and polydisperse bubble parameters. Called by s_check_inputs_common fo...">
<polygon fill="white" stroke="#666666" points="321.5,-196.88 193.5,-196.88 193.5,-166.88 321.5,-166.88 321.5,-196.88"/>
<text text-anchor="start" x="201.5" y="-184.88" font-family="Helvetica,sans-Serif" font-size="10.00">s_check_inputs_qbmm</text>
<text text-anchor="middle" x="257.5" y="-173.88" font-family="Helvetica,sans-Serif" font-size="10.00">_and_polydisperse</text>
</a>
</g>
</g>
<!-- Node1&#45;&gt;Node15 -->
<g id="edge23_Node000001_Node000015" class="edge">
<title>Node1&#45;&gt;Node15</title>
<g id="a_edge23_Node000001_Node000015"><a xlink:title=" ">
<path fill="none" stroke="#63b8ff" d="M75.91,-321.07C89.41,-297.52 126.98,-237.37 175,-205.88 177.93,-203.96 181.01,-202.19 184.19,-200.56"/>
<polygon fill="#63b8ff" stroke="#63b8ff" points="185.78,-203.68 193.4,-196.32 182.86,-197.33 185.78,-203.68"/>
</a>
</g>
</g>
<!-- Node16 -->
<g id="Node000016" class="node">
<title>Node16</title>
<g id="a_Node000016"><a xlink:href="m__checker__common_8fpp_8f90.html#a3638eec34667eefff3ec91023602d436" target="_top" xlink:title="Checks constraints on dimensionality and the number of cells for the grid. Called by s_check_inputs_c...">
<polygon fill="white" stroke="#666666" points="331.5,-415.88 183.5,-415.88 183.5,-385.88 331.5,-385.88 331.5,-415.88"/>
<text text-anchor="start" x="191.5" y="-403.88" font-family="Helvetica,sans-Serif" font-size="10.00">s_check_inputs_simulation</text>
<text text-anchor="middle" x="257.5" y="-392.88" font-family="Helvetica,sans-Serif" font-size="10.00">_domain</text>
</a>
</g>
</g>
<!-- Node1&#45;&gt;Node16 -->
<g id="edge26_Node000001_Node000016" class="edge">
<title>Node1&#45;&gt;Node16</title>
<g id="a_edge26_Node000001_Node000016"><a xlink:title=" ">
<path fill="none" stroke="#63b8ff" d="M90.22,-340.47C111,-350.36 144.84,-365.85 175,-376.88 180.5,-378.89 186.26,-380.86 192.06,-382.74"/>
<polygon fill="#63b8ff" stroke="#63b8ff" points="191.23,-386.15 201.82,-385.83 193.34,-379.48 191.23,-386.15"/>
</a>
</g>
</g>
<!-- Node17 -->
<g id="Node000017" class="node">
<title>Node17</title>
<g id="a_Node000017"><a xlink:href="m__checker__common_8fpp_8f90.html#ae37785075c904635e02713670b0cfc46" target="_top" xlink:title="Checks constraints on the stiffened equation of state fluids parameters. Called by s_check_inputs_com...">
<polygon fill="white" stroke="#666666" points="338,-100.38 177,-100.38 177,-81.38 338,-81.38 338,-100.38"/>
<text text-anchor="middle" x="257.5" y="-88.38" font-family="Helvetica,sans-Serif" font-size="10.00">s_check_inputs_stiffened_eos</text>
</a>
</g>
</g>
<!-- Node1&#45;&gt;Node17 -->
<g id="edge28_Node000001_Node000017" class="edge">
<title>Node1&#45;&gt;Node17</title>
<g id="a_edge28_Node000001_Node000017"><a xlink:title=" ">
<path fill="none" stroke="#63b8ff" d="M72.05,-321.08C78.08,-286.3 103.33,-167.72 175,-109.88 177.08,-108.2 179.28,-106.67 181.57,-105.27"/>
<polygon fill="#63b8ff" stroke="#63b8ff" points="183.54,-108.19 190.82,-100.48 180.33,-101.97 183.54,-108.19"/>
</a>
</g>
</g>
<!-- Node19 -->
<g id="Node000019" class="node">
<title>Node19</title>
<g id="a_Node000019"><a xlink:href="m__checker_8fpp_8f90.html#af3b1dbbf0c45f4ee1f2afa417a617788" target="_top" xlink:title="Checks constraints on surface tension parameters (cf_wrt and sigma)">
<polygon fill="white" stroke="#666666" points="323.5,-148.88 191.5,-148.88 191.5,-118.88 323.5,-118.88 323.5,-148.88"/>
<text text-anchor="start" x="199.5" y="-136.88" font-family="Helvetica,sans-Serif" font-size="10.00">s_check_inputs_surface</text>
<text text-anchor="middle" x="257.5" y="-125.88" font-family="Helvetica,sans-Serif" font-size="10.00">_tension</text>
</a>
</g>
</g>
<!-- Node1&#45;&gt;Node19 -->
<g id="edge32_Node000001_Node000019" class="edge">
<title>Node1&#45;&gt;Node19</title>
<g id="a_edge32_Node000001_Node000019"><a xlink:title=" ">
<path fill="none" stroke="#63b8ff" d="M73.48,-321.33C83.09,-292.14 116.09,-203.31 175,-157.88 177.3,-156.11 179.73,-154.46 182.25,-152.94"/>
<polygon fill="#63b8ff" stroke="#63b8ff" points="183.95,-156 191.15,-148.22 180.67,-149.82 183.95,-156"/>
</a>
</g>
</g>
<!-- Node20 -->
<g id="Node000020" class="node">
<title>Node20</title>
<g id="a_Node000020"><a xlink:href="m__checker__common_8fpp_8f90.html#a5ce97109d7a61fb087f1b5246c654a96" target="_top" xlink:title="Checks constraints on the time&#45;stepping parameters. Called by s_check_inputs_common for simulation an...">
<polygon fill="white" stroke="#666666" points="317,-367.88 198,-367.88 198,-337.88 317,-337.88 317,-367.88"/>
<text text-anchor="start" x="206" y="-355.88" font-family="Helvetica,sans-Serif" font-size="10.00">s_check_inputs_time</text>
<text text-anchor="middle" x="257.5" y="-344.88" font-family="Helvetica,sans-Serif" font-size="10.00">_stepping</text>
</a>
</g>
</g>
<!-- Node1&#45;&gt;Node20 -->
<g id="edge35_Node000001_Node000020" class="edge">
<title>Node1&#45;&gt;Node20</title>
<g id="a_edge35_Node000001_Node000020"><a xlink:title=" ">
<path fill="none" stroke="#63b8ff" d="M139.23,-339.01C155.02,-340.88 171.81,-342.86 187.61,-344.73"/>
<polygon fill="#63b8ff" stroke="#63b8ff" points="187.48,-348.24 197.83,-345.94 188.31,-341.29 187.48,-348.24"/>
</a>
</g>
</g>
<!-- Node21 -->
<g id="Node000021" class="node">
<title>Node21</title>
<g id="a_Node000021"><a xlink:href="m__checker__common_8fpp_8f90.html#aef9fe5f21786bdd9903e9d6f6085c8b9" target="_top" xlink:title="Checks constraints regarding WENO order. Called by s_check_inputs_common for all three stages.">
<polygon fill="white" stroke="#666666" points="318.5,-319.38 196.5,-319.38 196.5,-300.38 318.5,-300.38 318.5,-319.38"/>
<text text-anchor="middle" x="257.5" y="-307.38" font-family="Helvetica,sans-Serif" font-size="10.00">s_check_inputs_weno</text>
</a>
</g>
</g>
<!-- Node1&#45;&gt;Node21 -->
<g id="edge37_Node000001_Node000021" class="edge">
<title>Node1&#45;&gt;Node21</title>
<g id="a_edge37_Node000001_Node000021"><a xlink:title=" ">
<path fill="none" stroke="#63b8ff" d="M139.23,-323.12C154.6,-321.39 170.91,-319.54 186.33,-317.8"/>
<polygon fill="#63b8ff" stroke="#63b8ff" points="186.78,-321.27 196.32,-316.67 185.99,-314.32 186.78,-321.27"/>
</a>
</g>
</g>
<!-- Node22 -->
<g id="Node000022" class="node">
<title>Node22</title>
<g id="a_Node000022"><a xlink:href="m__checker__common_8fpp_8f90.html#ac5ead5876fd9afbfaa1d2c233f13e716" target="_top" xlink:title=" ">
<polygon fill="white" stroke="#666666" points="313,-63.38 202,-63.38 202,-44.38 313,-44.38 313,-63.38"/>
<text text-anchor="middle" x="257.5" y="-51.38" font-family="Helvetica,sans-Serif" font-size="10.00">s_check_total_cells</text>
</a>
</g>
</g>
<!-- Node1&#45;&gt;Node22 -->
<g id="edge39_Node000001_Node000022" class="edge">
<title>Node1&#45;&gt;Node22</title>
<g id="a_edge39_Node000001_Node000022"><a xlink:title=" ">
<path fill="none" stroke="#63b8ff" d="M71.26,-321.3C74.84,-283.18 93.39,-140.95 175,-71.88 180.01,-67.64 185.8,-64.34 191.93,-61.77"/>
<polygon fill="#63b8ff" stroke="#63b8ff" points="193.51,-64.93 201.79,-58.32 191.19,-58.32 193.51,-64.93"/>
</a>
</g>
</g>
<!-- Node3 -->
<g id="Node000003" class="node">
<title>Node3</title>
<g id="a_Node000003"><a xlink:href="m__helper_8fpp_8f90.html#aaf652be9ac041c3a38652bb42475f83f" target="_top" xlink:title=" ">
<polygon fill="white" stroke="#666666" points="498,-340.38 403,-340.38 403,-321.38 498,-321.38 498,-340.38"/>
<text text-anchor="middle" x="450.5" y="-328.38" font-family="Helvetica,sans-Serif" font-size="10.00">s_prohibit_abort</text>
</a>
</g>
</g>
<!-- Node2&#45;&gt;Node3 -->
<g id="edge2_Node000002_Node000003" class="edge">
<title>Node2&#45;&gt;Node3</title>
<g id="a_edge2_Node000002_Node000003"><a xlink:title=" ">
<path fill="none" stroke="#63b8ff" d="M320.08,-645.44C327.36,-642.69 334.23,-638.95 340,-633.88 427.49,-557.04 445.1,-404.78 448.62,-350.6"/>
<polygon fill="#63b8ff" stroke="#63b8ff" points="452.12,-350.76 449.18,-340.58 445.13,-350.37 452.12,-350.76"/>
</a>
</g>
</g>
<!-- Node4 -->
<g id="Node000004" class="node">
<title>Node4</title>
<g id="a_Node000004"><a xlink:href="m__mpi__common_8fpp_8f90.html#ad9e1329e498b65ad4256658675d6f797" target="_top" xlink:title="The subroutine terminates the MPI execution environment.">
<polygon fill="white" stroke="#666666" points="670.5,-106.38 593.5,-106.38 593.5,-87.38 670.5,-87.38 670.5,-106.38"/>
<text text-anchor="middle" x="632" y="-94.38" font-family="Helvetica,sans-Serif" font-size="10.00">s_mpi_abort</text>
</a>
</g>
</g>
<!-- Node3&#45;&gt;Node4 -->
<g id="edge3_Node000003_Node000004" class="edge">
<title>Node3&#45;&gt;Node4</title>
<g id="a_edge3_Node000003_Node000004"><a xlink:title=" ">
<path fill="none" stroke="#63b8ff" d="M457.11,-321.22C475.8,-289.19 536.12,-186.88 561,-157.88 575.65,-140.8 595.14,-124.21 609.83,-112.65"/>
<polygon fill="#63b8ff" stroke="#63b8ff" points="612.08,-115.34 617.86,-106.46 607.8,-109.8 612.08,-115.34"/>
</a>
</g>
</g>
<!-- Node5&#45;&gt;Node3 -->
<g id="edge5_Node000005_Node000003" class="edge">
<title>Node5&#45;&gt;Node3</title>
<g id="a_edge5_Node000005_Node000003"><a xlink:title=" ">
<path fill="none" stroke="#63b8ff" d="M311.08,-610.28C321.54,-607.36 331.8,-602.84 340,-595.88 417.8,-529.82 441.22,-399.59 447.46,-350.36"/>
<polygon fill="#63b8ff" stroke="#63b8ff" points="450.94,-350.73 448.62,-340.39 443.99,-349.92 450.94,-350.73"/>
</a>
</g>
</g>
<!-- Node6&#45;&gt;Node3 -->
<g id="edge9_Node000006_Node000003" class="edge">
<title>Node6&#45;&gt;Node3</title>
<g id="a_edge9_Node000006_Node000003"><a xlink:title=" ">
<path fill="none" stroke="#63b8ff" d="M306.61,-282.39C317.65,-284.88 329.29,-287.76 340,-290.88 366.12,-298.5 394.99,-309.14 416.53,-317.54"/>
<polygon fill="#63b8ff" stroke="#63b8ff" points="415.29,-320.81 425.88,-321.22 417.86,-314.3 415.29,-320.81"/>
</a>
</g>
</g>
<!-- Node7 -->
<g id="Node000007" class="node">
<title>Node7</title>
<g id="a_Node000007"><a xlink:href="namespacem__helper__basic.html#af1ad5f2cff7ebf5c909a7fc212815ff2" target="_top" xlink:title="Checks if a real(kind(0d0)) variable is of default value.">
<polygon fill="white" stroke="#666666" points="508.5,-196.88 392.5,-196.88 392.5,-166.88 508.5,-166.88 508.5,-196.88"/>
<text text-anchor="start" x="400.5" y="-184.88" font-family="Helvetica,sans-Serif" font-size="10.00">m_helper_basic::f_is</text>
<text text-anchor="middle" x="450.5" y="-173.88" font-family="Helvetica,sans-Serif" font-size="10.00">_default</text>
</a>
</g>
</g>
<!-- Node6&#45;&gt;Node7 -->
<g id="edge7_Node000006_Node000007" class="edge">
<title>Node6&#45;&gt;Node7</title>
<g id="a_edge7_Node000006_Node000007"><a xlink:title=" ">
<path fill="none" stroke="#63b8ff" d="M311.55,-263.38C321.21,-260.85 331.05,-257.72 340,-253.88 370.32,-240.87 401.43,-219.49 422.7,-203.41"/>
<polygon fill="#63b8ff" stroke="#63b8ff" points="425.11,-205.97 430.91,-197.09 420.85,-200.42 425.11,-205.97"/>
</a>
</g>
</g>
<!-- Node8 -->
<g id="Node000008" class="node">
<title>Node8</title>
<g id="a_Node000008"><a xlink:href="namespacem__helper__basic.html#a4d4fbabb3807eb662390dd48ef95330d" target="_top" xlink:title="This procedure checks if two floating point numbers of kind(0d0) are within tolerance.">
<polygon fill="white" stroke="#666666" points="703,-196.88 561,-196.88 561,-166.88 703,-166.88 703,-196.88"/>
<text text-anchor="start" x="569" y="-184.88" font-family="Helvetica,sans-Serif" font-size="10.00">m_helper_basic::f_approx</text>
<text text-anchor="middle" x="632" y="-173.88" font-family="Helvetica,sans-Serif" font-size="10.00">_equal</text>
</a>
</g>
</g>
<!-- Node7&#45;&gt;Node8 -->
<g id="edge8_Node000007_Node000008" class="edge">
<title>Node7&#45;&gt;Node8</title>
<g id="a_edge8_Node000007_Node000008"><a xlink:title=" ">
<path fill="none" stroke="#63b8ff" d="M508.79,-181.88C522.08,-181.88 536.47,-181.88 550.55,-181.88"/>
<polygon fill="#63b8ff" stroke="#63b8ff" points="550.73,-185.38 560.73,-181.88 550.73,-178.38 550.73,-185.38"/>
</a>
</g>
</g>
<!-- Node9&#45;&gt;Node3 -->
<g id="edge11_Node000009_Node000003" class="edge">
<title>Node9&#45;&gt;Node3</title>
<g id="a_edge11_Node000009_Node000003"><a xlink:title=" ">
<path fill="none" stroke="#63b8ff" d="M318.39,-560.51C326.19,-557.29 333.66,-553.17 340,-547.88 404.27,-494.3 434.67,-393.54 445.11,-350.83"/>
<polygon fill="#63b8ff" stroke="#63b8ff" points="448.58,-351.38 447.44,-340.84 441.76,-349.79 448.58,-351.38"/>
</a>
</g>
</g>
<!-- Node10&#45;&gt;Node3 -->
<g id="edge13_Node000010_Node000003" class="edge">
<title>Node10&#45;&gt;Node3</title>
<g id="a_edge13_Node000010_Node000003"><a xlink:title=" ">
<path fill="none" stroke="#63b8ff" d="M324.58,-519.26C330.05,-517.01 335.29,-514.25 340,-510.88 397.68,-469.63 430.8,-387.63 443.47,-350.26"/>
<polygon fill="#63b8ff" stroke="#63b8ff" points="446.86,-351.17 446.63,-340.57 440.2,-348.99 446.86,-351.17"/>
</a>
</g>
</g>
<!-- Node11&#45;&gt;Node3 -->
<g id="edge15_Node000011_Node000003" class="edge">
<title>Node11&#45;&gt;Node3</title>
<g id="a_edge15_Node000011_Node000003"><a xlink:title=" ">
<path fill="none" stroke="#63b8ff" d="M315.35,-483.95C324.02,-481.26 332.55,-477.67 340,-472.88 388.7,-441.57 424.43,-380.81 440.33,-349.91"/>
<polygon fill="#63b8ff" stroke="#63b8ff" points="443.62,-351.17 444.96,-340.67 437.36,-348.04 443.62,-351.17"/>
</a>
</g>
</g>
<!-- Node12&#45;&gt;Node3 -->
<g id="edge17_Node000012_Node000003" class="edge">
<title>Node12&#45;&gt;Node3</title>
<g id="a_edge17_Node000012_Node000003"><a xlink:title=" ">
<path fill="none" stroke="#63b8ff" d="M320.16,-433.79C327.03,-431.22 333.78,-428.26 340,-424.88 377.7,-404.39 413.97,-369.24 433.84,-348.22"/>
<polygon fill="#63b8ff" stroke="#63b8ff" points="436.62,-350.38 440.86,-340.67 431.49,-345.61 436.62,-350.38"/>
</a>
</g>
</g>
<!-- Node13&#45;&gt;Node4 -->
<g id="edge19_Node000013_Node000004" class="edge">
<title>Node13&#45;&gt;Node4</title>
<g id="a_edge19_Node000013_Node000004"><a xlink:title=" ">
<path fill="none" stroke="#63b8ff" d="M475.71,-35.46C507.11,-47.88 562.05,-69.61 597.46,-83.61"/>
<polygon fill="#63b8ff" stroke="#63b8ff" points="596.3,-86.92 606.89,-87.34 598.88,-80.41 596.3,-86.92"/>
</a>
</g>
</g>
<!-- Node14&#45;&gt;Node3 -->
<g id="edge22_Node000014_Node000003" class="edge">
<title>Node14&#45;&gt;Node3</title>
<g id="a_edge22_Node000014_Node000003"><a xlink:title=" ">
<path fill="none" stroke="#63b8ff" d="M318.12,-244.96C325.63,-247.58 333.09,-250.55 340,-253.88 374.4,-270.48 409.76,-297.5 430.67,-314.72"/>
<polygon fill="#63b8ff" stroke="#63b8ff" points="428.54,-317.5 438.45,-321.23 433.03,-312.13 428.54,-317.5"/>
</a>
</g>
</g>
<!-- Node14&#45;&gt;Node7 -->
<g id="edge21_Node000014_Node000007" class="edge">
<title>Node14&#45;&gt;Node7</title>
<g id="a_edge21_Node000014_Node000007"><a xlink:title=" ">
<path fill="none" stroke="#63b8ff" d="M318.41,-214.82C338.81,-209.7 361.74,-203.94 382.65,-198.68"/>
<polygon fill="#63b8ff" stroke="#63b8ff" points="383.57,-202.06 392.41,-196.23 381.86,-195.27 383.57,-202.06"/>
</a>
</g>
</g>
<!-- Node15&#45;&gt;Node3 -->
<g id="edge25_Node000015_Node000003" class="edge">
<title>Node15&#45;&gt;Node3</title>
<g id="a_edge25_Node000015_Node000003"><a xlink:title=" ">
<path fill="none" stroke="#63b8ff" d="M321.51,-196.46C327.99,-199.11 334.28,-202.23 340,-205.88 384.14,-234.1 420.75,-285.18 438.31,-312.49"/>
<polygon fill="#63b8ff" stroke="#63b8ff" points="435.43,-314.48 443.71,-321.08 441.35,-310.75 435.43,-314.48"/>
</a>
</g>
</g>
<!-- Node15&#45;&gt;Node7 -->
<g id="edge24_Node000015_Node000007" class="edge">
<title>Node15&#45;&gt;Node7</title>
<g id="a_edge24_Node000015_Node000007"><a xlink:title=" ">
<path fill="none" stroke="#63b8ff" d="M321.57,-181.88C341,-181.88 362.47,-181.88 382.17,-181.88"/>
<polygon fill="#63b8ff" stroke="#63b8ff" points="382.3,-185.38 392.3,-181.88 382.3,-178.38 382.3,-185.38"/>
</a>
</g>
</g>
<!-- Node16&#45;&gt;Node3 -->
<g id="edge27_Node000016_Node000003" class="edge">
<title>Node16&#45;&gt;Node3</title>
<g id="a_edge27_Node000016_Node000003"><a xlink:title=" ">
<path fill="none" stroke="#63b8ff" d="M312.69,-385.84C321.86,-383.03 331.25,-380 340,-376.88 367.29,-367.16 397.6,-354.26 419.4,-344.59"/>
<polygon fill="#63b8ff" stroke="#63b8ff" points="421.08,-347.68 428.78,-340.4 418.22,-341.29 421.08,-347.68"/>
</a>
</g>
</g>
<!-- Node17&#45;&gt;Node3 -->
<g id="edge31_Node000017_Node000003" class="edge">
<title>Node17&#45;&gt;Node3</title>
<g id="a_edge31_Node000017_Node000003"><a xlink:title=" ">
<path fill="none" stroke="#63b8ff" d="M325.33,-100.44C330.64,-102.95 335.63,-106.05 340,-109.88 374.24,-139.95 356.38,-164.75 376,-205.88 394.85,-245.4 422.01,-288.91 437.49,-312.76"/>
<polygon fill="#63b8ff" stroke="#63b8ff" points="434.58,-314.71 442.99,-321.16 440.44,-310.87 434.58,-314.71"/>
</a>
</g>
</g>
<!-- Node17&#45;&gt;Node7 -->
<g id="edge29_Node000017_Node000007" class="edge">
<title>Node17&#45;&gt;Node7</title>
<g id="a_edge29_Node000017_Node000007"><a xlink:title=" ">
<path fill="none" stroke="#63b8ff" d="M311.55,-100.38C321.21,-102.91 331.05,-106.04 340,-109.88 370.32,-122.89 401.43,-144.27 422.7,-160.35"/>
<polygon fill="#63b8ff" stroke="#63b8ff" points="420.85,-163.34 430.91,-166.67 425.11,-157.79 420.85,-163.34"/>
</a>
</g>
</g>
<!-- Node18 -->
<g id="Node000018" class="node">
<title>Node18</title>
<g id="a_Node000018"><a xlink:href="m__helper_8fpp_8f90.html#a8a0505b2bd4f3d8cb2bf3ce16cfe01e3" target="_top" xlink:title=" ">
<polygon fill="white" stroke="#666666" points="487,-91.38 414,-91.38 414,-72.38 487,-72.38 487,-91.38"/>
<text text-anchor="middle" x="450.5" y="-79.38" font-family="Helvetica,sans-Serif" font-size="10.00">s_int_to_str</text>
</a>
</g>
</g>
<!-- Node17&#45;&gt;Node18 -->
<g id="edge30_Node000017_Node000018" class="edge">
<title>Node17&#45;&gt;Node18</title>
<g id="a_edge30_Node000017_Node000018"><a xlink:title=" ">
<path fill="none" stroke="#63b8ff" d="M338.12,-87.13C360.5,-86.07 384.09,-84.96 403.76,-84.04"/>
<polygon fill="#63b8ff" stroke="#63b8ff" points="404.14,-87.52 413.96,-83.56 403.81,-80.53 404.14,-87.52"/>
</a>
</g>
</g>
<!-- Node19&#45;&gt;Node3 -->
<g id="edge34_Node000019_Node000003" class="edge">
<title>Node19&#45;&gt;Node3</title>
<g id="a_edge34_Node000019_Node000003"><a xlink:title=" ">
<path fill="none" stroke="#63b8ff" d="M323.77,-148.33C329.54,-151 335.05,-154.15 340,-157.88 354.35,-168.71 414.37,-270.4 438.94,-312.63"/>
<polygon fill="#63b8ff" stroke="#63b8ff" points="435.95,-314.46 444,-321.35 442.01,-310.94 435.95,-314.46"/>
</a>
</g>
</g>
<!-- Node19&#45;&gt;Node7 -->
<g id="edge33_Node000019_Node000007" class="edge">
<title>Node19&#45;&gt;Node7</title>
<g id="a_edge33_Node000019_Node000007"><a xlink:title=" ">
<path fill="none" stroke="#63b8ff" d="M318.41,-148.94C338.81,-154.06 361.74,-159.83 382.65,-165.08"/>
<polygon fill="#63b8ff" stroke="#63b8ff" points="381.86,-168.49 392.41,-167.53 383.57,-161.7 381.86,-168.49"/>
</a>
</g>
</g>
<!-- Node20&#45;&gt;Node3 -->
<g id="edge36_Node000020_Node000003" class="edge">
<title>Node20&#45;&gt;Node3</title>
<g id="a_edge36_Node000020_Node000003"><a xlink:title=" ">
<path fill="none" stroke="#63b8ff" d="M317.1,-346.13C341.19,-343.36 368.97,-340.16 392.85,-337.41"/>
<polygon fill="#63b8ff" stroke="#63b8ff" points="393.29,-340.88 402.82,-336.26 392.49,-333.92 393.29,-340.88"/>
</a>
</g>
</g>
<!-- Node21&#45;&gt;Node3 -->
<g id="edge38_Node000021_Node000003" class="edge">
<title>Node21&#45;&gt;Node3</title>
<g id="a_edge38_Node000021_Node000003"><a xlink:title=" ">
<path fill="none" stroke="#63b8ff" d="M318.67,-316.5C342.39,-319.1 369.49,-322.08 392.85,-324.65"/>
<polygon fill="#63b8ff" stroke="#63b8ff" points="392.63,-328.15 402.96,-325.76 393.4,-321.19 392.63,-328.15"/>
</a>
</g>
</g>
<!-- Node22&#45;&gt;Node3 -->
<g id="edge41_Node000022_Node000003" class="edge">
<title>Node22&#45;&gt;Node3</title>
<g id="a_edge41_Node000022_Node000003"><a xlink:title=" ">
<path fill="none" stroke="#63b8ff" d="M313.02,-57.36C322.98,-60.22 332.56,-64.77 340,-71.88 384.58,-114.49 352.16,-149.01 376,-205.88 392.93,-246.26 420.78,-289.46 436.9,-313.02"/>
<polygon fill="#63b8ff" stroke="#63b8ff" points="434.07,-315.09 442.64,-321.31 439.82,-311.1 434.07,-315.09"/>
</a>
</g>
</g>
<!-- Node22&#45;&gt;Node18 -->
<g id="edge40_Node000022_Node000018" class="edge">
<title>Node22&#45;&gt;Node18</title>
<g id="a_edge40_Node000022_Node000018"><a xlink:title=" ">
<path fill="none" stroke="#63b8ff" d="M313.23,-61.9C341.87,-66.1 376.53,-71.18 403.73,-75.17"/>
<polygon fill="#63b8ff" stroke="#63b8ff" points="403.36,-78.65 413.76,-76.64 404.38,-71.73 403.36,-78.65"/>
</a>
</g>
</g>
</g>
</svg>

<g id="navigator" transform="translate(0 0)" fill="#404254">
  <rect fill="#f2f5e9" fill-opacity="0.5" stroke="#606060" stroke-width=".5" x="0" y="0" width="60" height="60"/>
  <use id="zoomplus" xlink:href="#zoomPlus" x="17" y="9" onmousedown="handleZoom(evt,'in')"/>
  <use id="zoomminus" xlink:href="#zoomMin" x="42" y="9" onmousedown="handleZoom(evt,'out')"/>
  <use id="reset" xlink:href="#resetDef" x="30" y="36" onmousedown="handleReset()"/>
   <use id="arrowup" xlink:href="#arrowUp" x="0" y="0" onmousedown="handlePan(0,-1)"/>
  <use id="arrowright" xlink:href="#arrowRight" x="0" y="0" onmousedown="handlePan(1,0)"/>
  <use id="arrowdown" xlink:href="#arrowDown" x="0" y="0" onmousedown="handlePan(0,1)"/>
  <use id="arrowleft" xlink:href="#arrowLeft" x="0" y="0" onmousedown="handlePan(-1,0)"/>
</g>
<svg viewBox="0 0 15 15" width="100%" height="30px" preserveAspectRatio="xMaxYMin meet">
 <g id="arrow_out" transform="scale(0.3 0.3)">
  <a xlink:href="m__checker__common_8fpp_8f90_ac1305563044bff409bb307d98e1dfe13_cgraph_org.svg" target="_base">
   <rect id="button" ry="5" rx="5" y="6" x="6" height="38" width="38"
        fill="#f2f5e9" fill-opacity="0.5" stroke="#606060" stroke-width="1.0"/>
   <path id="arrow"
     d="M 11.500037,31.436501 C 11.940474,20.09759 22.043105,11.32322 32.158766,21.979434 L 37.068811,17.246167 C 37.068811,17.246167 37.088388,32 37.088388,32 L 22.160133,31.978069 C 22.160133,31.978069 26.997745,27.140456 26.997745,27.140456 C 18.528582,18.264221 13.291696,25.230495 11.500037,31.436501 z"
     style="fill:#404040;"/>
  </a>
 </g>
</svg>

<style type='text/css'>
<![CDATA[
[data-mouse-over-selected='false'] { opacity: 0.7; }
[data-mouse-over-selected='true']  { opacity: 1.0; }
]]>
</style>
<script type="application/ecmascript"><![CDATA[
document.addEventListener('DOMContentLoaded', (event) => {
  highlightEdges();
  highlightAdjacentNodes();
});
]]></script>
</svg>
