<?xml version="1.0" encoding="UTF-8" standalone="no"?>
<!DOCTYPE svg PUBLIC "-//W3C//DTD SVG 1.1//EN"
 "http://www.w3.org/Graphics/SVG/1.1/DTD/svg11.dtd">
<!-- Generated by graphviz version 2.43.0 (0)
 -->
<!-- Title: s_check_inputs_common Pages: 1 -->
<!--zoomable 669 -->

<svg id="main" version="1.1" xmlns="http://www.w3.org/2000/svg" xmlns:xlink="http://www.w3.org/1999/xlink" xml:space="preserve" onload="init(evt)">

<style type="text/css"><![CDATA[
.node, .edge {opacity: 0.7;}
.node.selected, .edge.selected {opacity: 1;}
.edge:hover path { stroke: red; }
.edge:hover polygon { stroke: red; fill: red; }
]]></style>

<defs>
  <circle id="rim" cx="0" cy="0" r="7"/>
  <circle id="rim2" cx="0" cy="0" r="3.5"/>
  <g id="zoomPlus">
    <use xlink:href="#rim" fill="#404040"><set attributeName="fill" to="#808080" begin="zoomplus.mouseover" end="zoomplus.mouseout"/></use>
    <path d="M-4,0h8M0,-4v8" fill="none" stroke="white" stroke-width="1.5" pointer-events="none"/>
  </g>
  <g id="zoomMin">
    <use xlink:href="#rim" fill="#404040"><set attributeName="fill" to="#808080" begin="zoomminus.mouseover" end="zoomminus.mouseout"/></use>
    <path d="M-4,0h8" fill="none" stroke="white" stroke-width="1.5" pointer-events="none"/>
  </g>
  <g id="arrowUp" transform="translate(30 24)">
    <use xlink:href="#rim"/>
    <path pointer-events="none" fill="none" stroke="white" stroke-width="1.5" d="M0,-3.0v7 M-2.5,-0.5L0,-3.0L2.5,-0.5"/>
  </g>
  <g id="arrowRight" transform="rotate(90) translate(36 -43)">
    <use xlink:href="#rim"/>
    <path pointer-events="none" fill="none" stroke="white" stroke-width="1.5" d="M0,-3.0v7 M-2.5,-0.5L0,-3.0L2.5,-0.5"/>
  </g>
  <g id="arrowDown" transform="rotate(180) translate(-30 -48)">
    <use xlink:href="#rim"/>
    <path pointer-events="none" fill="none" stroke="white" stroke-width="1.5" d="M0,-3.0v7 M-2.5,-0.5L0,-3.0L2.5,-0.5"/>
  </g>
  <g id="arrowLeft" transform="rotate(270) translate(-36 17)">
    <use xlink:href="#rim"/>
    <path pointer-events="none" fill="none" stroke="white" stroke-width="1.5" d="M0,-3.0v7 M-2.5,-0.5L0,-3.0L2.5,-0.5"/>
  </g>
  <g id="resetDef">
    <use xlink:href="#rim2" fill="#404040"><set attributeName="fill" to="#808080" begin="reset.mouseover" end="reset.mouseout"/></use>
  </g>
</defs>
<script type="application/ecmascript">
var viewWidth = 711;
var viewHeight = 669;
var sectionId = 'dynsection-7';
</script>
<script type="application/ecmascript" xlink:href="svg.min.js"/>
<svg id="graph" class="graph">
<g id="viewport">
<title>s_check_inputs_common</title>
<!-- Node1 -->
<g id="Node000001" class="node">
<title>Node1</title>
<g id="a_Node000001"><a xlink:title="Checks compatibility of parameters in the input file. Used by all three stages.">
<polygon fill="#999999" stroke="#666666" points="139,-338.33 0,-338.33 0,-319.33 139,-319.33 139,-338.33"/>
<text text-anchor="middle" x="69.5" y="-326.33" font-family="Helvetica,sans-Serif" font-size="10.00">s_check_inputs_common</text>
</a>
</g>
</g>
<!-- Node2 -->
<g id="Node000002" class="node">
<title>Node2</title>
<g id="a_Node000002"><a xlink:href="m__checker__common_8fpp_8f90.html#a538dcaa242ef367d1b2cddca76058620" target="_top" xlink:title="Checks constraints on the adv_n flag. Called by s_check_inputs_common for pre&#45;processing and simulati...">
<polygon fill="white" stroke="#666666" points="320,-661.33 195,-661.33 195,-642.33 320,-642.33 320,-661.33"/>
<text text-anchor="middle" x="257.5" y="-649.33" font-family="Helvetica,sans-Serif" font-size="10.00">s_check_inputs_adv_n</text>
</a>
</g>
</g>
<!-- Node1&#45;&gt;Node2 -->
<g id="edge1_Node000001_Node000002" class="edge">
<title>Node1&#45;&gt;Node2</title>
<g id="a_edge1_Node000001_Node000002"><a xlink:title=" ">
<path fill="none" stroke="#63b8ff" d="M70.62,-338.59C71.7,-380.96 81.91,-550.69 175,-633.83 178.22,-636.71 181.8,-639.16 185.6,-641.25"/>
<polygon fill="#63b8ff" stroke="#63b8ff" points="184.29,-644.5 194.84,-645.48 187.2,-638.13 184.29,-644.5"/>
</a>
</g>
</g>
<!-- Node5 -->
<g id="Node000005" class="node">
<title>Node5</title>
<g id="a_Node000005"><a xlink:href="m__checker__common_8fpp_8f90.html#ab9d26fff561c55f5ef7f201aa14d2688" target="_top" xlink:title="Checks constraints on the boundary conditions in the x&#45;direction. Called by s_check_inputs_common for...">
<polygon fill="white" stroke="#666666" points="311,-624.33 204,-624.33 204,-605.33 311,-605.33 311,-624.33"/>
<text text-anchor="middle" x="257.5" y="-612.33" font-family="Helvetica,sans-Serif" font-size="10.00">s_check_inputs_bc</text>
</a>
</g>
</g>
<!-- Node1&#45;&gt;Node5 -->
<g id="edge4_Node000001_Node000005" class="edge">
<title>Node1&#45;&gt;Node5</title>
<g id="a_edge4_Node000001_Node000005"><a xlink:title=" ">
<path fill="none" stroke="#63b8ff" d="M71.16,-338.41C74.38,-377.17 91.82,-523.84 175,-595.83 180.59,-600.67 187.18,-604.34 194.14,-607.1"/>
<polygon fill="#63b8ff" stroke="#63b8ff" points="193.23,-610.49 203.82,-610.35 195.45,-603.85 193.23,-610.49"/>
</a>
</g>
</g>
<!-- Node6 -->
<g id="Node000006" class="node">
<title>Node6</title>
<g id="a_Node000006"><a xlink:href="m__checker__common_8fpp_8f90.html#a01441cca058c6ae5c7ad6d95023d7c74" target="_top" xlink:title="Checks constraints on the bubble parameters. Called by s_check_inputs_common for pre&#45;processing and s...">
<polygon fill="white" stroke="#666666" points="324.5,-234.33 190.5,-234.33 190.5,-215.33 324.5,-215.33 324.5,-234.33"/>
<text text-anchor="middle" x="257.5" y="-222.33" font-family="Helvetica,sans-Serif" font-size="10.00">s_check_inputs_bubbles</text>
</a>
</g>
</g>
<!-- Node1&#45;&gt;Node6 -->
<g id="edge6_Node000001_Node000006" class="edge">
<title>Node1&#45;&gt;Node6</title>
<g id="a_edge6_Node000001_Node000006"><a xlink:title=" ">
<path fill="none" stroke="#63b8ff" d="M79.22,-319.1C95.94,-301.08 134.44,-262.58 175,-242.83 179.07,-240.85 183.35,-239.09 187.75,-237.52"/>
<polygon fill="#63b8ff" stroke="#63b8ff" points="189.05,-240.78 197.49,-234.37 186.9,-234.11 189.05,-240.78"/>
</a>
</g>
</g>
<!-- Node9 -->
<g id="Node000009" class="node">
<title>Node9</title>
<g id="a_Node000009"><a xlink:href="m__checker__common_8fpp_8f90.html#a1f58bf767848b82995c95a02051a26a3" target="_top" xlink:title="Checks constraints on the finite difference parameters. Called by s_check_inputs_common for simulatio...">
<polygon fill="white" stroke="#666666" points="318,-586.83 197,-586.83 197,-556.83 318,-556.83 318,-586.83"/>
<text text-anchor="start" x="205" y="-574.83" font-family="Helvetica,sans-Serif" font-size="10.00">s_check_inputs_finite</text>
<text text-anchor="middle" x="257.5" y="-563.83" font-family="Helvetica,sans-Serif" font-size="10.00">_difference</text>
</a>
</g>
</g>
<!-- Node1&#45;&gt;Node9 -->
<g id="edge10_Node000001_Node000009" class="edge">
<title>Node1&#45;&gt;Node9</title>
<g id="a_edge10_Node000001_Node000009"><a xlink:title=" ">
<path fill="none" stroke="#63b8ff" d="M72.19,-338.4C78.72,-372.41 105.43,-488.52 175,-547.83 178.9,-551.16 183.24,-554.02 187.83,-556.49"/>
<polygon fill="#63b8ff" stroke="#63b8ff" points="186.38,-559.67 196.92,-560.76 189.36,-553.34 186.38,-559.67"/>
</a>
</g>
</g>
<!-- Node10 -->
<g id="Node000010" class="node">
<title>Node10</title>
<g id="a_Node000010"><a xlink:href="m__checker__common_8fpp_8f90.html#accfb74f37212066b8bc82dd89ed2ed22" target="_top" xlink:title="Checks constraints on the hypoelasticity parameters. Called by s_check_inputs_common for pre&#45;processi...">
<polygon fill="white" stroke="#666666" points="340,-538.33 175,-538.33 175,-519.33 340,-519.33 340,-538.33"/>
<text text-anchor="middle" x="257.5" y="-526.33" font-family="Helvetica,sans-Serif" font-size="10.00">s_check_inputs_hypoelasticity</text>
</a>
</g>
</g>
<!-- Node1&#45;&gt;Node10 -->
<g id="edge12_Node000001_Node000010" class="edge">
<title>Node1&#45;&gt;Node10</title>
<g id="a_edge12_Node000001_Node000010"><a xlink:title=" ">
<path fill="none" stroke="#63b8ff" d="M73.06,-338.63C81.64,-369.41 112.45,-464.89 175,-510.83 176.85,-512.19 178.78,-513.45 180.78,-514.62"/>
<polygon fill="#63b8ff" stroke="#63b8ff" points="179.4,-517.84 189.92,-519.17 182.53,-511.58 179.4,-517.84"/>
</a>
</g>
</g>
<!-- Node11 -->
<g id="Node000011" class="node">
<title>Node11</title>
<g id="a_Node000011"><a xlink:href="m__checker__common_8fpp_8f90.html#a5f288df12e9ccee0eb013354410ebfa8" target="_top" xlink:title="Checks constraints on the Immersed Boundaries parameters. Called by s_check_inputs_common for pre&#45;pro...">
<polygon fill="white" stroke="#666666" points="315,-501.33 200,-501.33 200,-482.33 315,-482.33 315,-501.33"/>
<text text-anchor="middle" x="257.5" y="-489.33" font-family="Helvetica,sans-Serif" font-size="10.00">s_check_inputs_ibm</text>
</a>
</g>
</g>
<!-- Node1&#45;&gt;Node11 -->
<g id="edge14_Node000001_Node000011" class="edge">
<title>Node1&#45;&gt;Node11</title>
<g id="a_edge14_Node000001_Node000011"><a xlink:title=" ">
<path fill="none" stroke="#63b8ff" d="M74.5,-338.38C85.94,-364.45 121.47,-437.3 175,-472.83 179.69,-475.95 184.83,-478.55 190.17,-480.74"/>
<polygon fill="#63b8ff" stroke="#63b8ff" points="189.36,-484.16 199.96,-484.22 191.71,-477.57 189.36,-484.16"/>
</a>
</g>
</g>
<!-- Node12 -->
<g id="Node000012" class="node">
<title>Node12</title>
<g id="a_Node000012"><a xlink:href="m__checker__common_8fpp_8f90.html#a62ef6c0450d3c2d10771bc88062ae6e4" target="_top" xlink:title="Checks constraints on model equations and number of fluids in the flow. Called by s_check_inputs_comm...">
<polygon fill="white" stroke="#666666" points="321,-463.83 194,-463.83 194,-433.83 321,-433.83 321,-463.83"/>
<text text-anchor="start" x="202" y="-451.83" font-family="Helvetica,sans-Serif" font-size="10.00">s_check_inputs_model</text>
<text text-anchor="middle" x="257.5" y="-440.83" font-family="Helvetica,sans-Serif" font-size="10.00">_eqns_and_num_fluids</text>
</a>
</g>
</g>
<!-- Node1&#45;&gt;Node12 -->
<g id="edge16_Node000001_Node000012" class="edge">
<title>Node1&#45;&gt;Node12</title>
<g id="a_edge16_Node000001_Node000012"><a xlink:title=" ">
<path fill="none" stroke="#63b8ff" d="M78.35,-338.56C94.44,-357.86 133.18,-401.19 175,-424.83 178.21,-426.65 181.56,-428.34 185.01,-429.9"/>
<polygon fill="#63b8ff" stroke="#63b8ff" points="183.72,-433.16 194.3,-433.79 186.42,-426.7 183.72,-433.16"/>
</a>
</g>
</g>
<!-- Node13 -->
<g id="Node000013" class="node">
<title>Node13</title>
<g id="a_Node000013"><a xlink:href="m__checker__common_8fpp_8f90.html#a697321811bee46ce0c7e4d23ef95fb9e" target="_top" xlink:title="Checks constraints on the inputs for moving boundaries. Called by s_check_inputs_common for all three...">
<polygon fill="white" stroke="#666666" points="525,-35.33 376,-35.33 376,-16.33 525,-16.33 525,-35.33"/>
<text text-anchor="middle" x="450.5" y="-23.33" font-family="Helvetica,sans-Serif" font-size="10.00">s_check_inputs_moving_bc</text>
</a>
</g>
</g>
<!-- Node1&#45;&gt;Node13 -->
<g id="edge18_Node000001_Node000013" class="edge">
<title>Node1&#45;&gt;Node13</title>
<g id="a_edge18_Node000001_Node000013"><a xlink:title=" ">
<path fill="none" stroke="#63b8ff" d="M70.4,-319.28C70.53,-277.06 77.25,-106.26 175,-34.83 243.46,15.19 349.26,0.06 407.49,-13.84"/>
<polygon fill="#63b8ff" stroke="#63b8ff" points="406.9,-17.3 417.45,-16.32 408.59,-10.51 406.9,-17.3"/>
</a>
</g>
</g>
<!-- Node14 -->
<g id="Node000014" class="node">
<title>Node14</title>
<g id="a_Node000014"><a xlink:href="m__checker__common_8fpp_8f90.html#add5396f309ec2b5791b6e7e931a8a83a" target="_top" xlink:title="Checks constraints on the phase change parameters. Called by s_check_inputs_common for pre&#45;processing...">
<polygon fill="white" stroke="#666666" points="320,-196.83 195,-196.83 195,-166.83 320,-166.83 320,-196.83"/>
<text text-anchor="start" x="203" y="-184.83" font-family="Helvetica,sans-Serif" font-size="10.00">s_check_inputs_phase</text>
<text text-anchor="middle" x="257.5" y="-173.83" font-family="Helvetica,sans-Serif" font-size="10.00">_change</text>
</a>
</g>
</g>
<!-- Node1&#45;&gt;Node14 -->
<g id="edge20_Node000001_Node000014" class="edge">
<title>Node1&#45;&gt;Node14</title>
<g id="a_edge20_Node000001_Node000014"><a xlink:title=" ">
<path fill="none" stroke="#63b8ff" d="M75.95,-319.19C89.54,-296.01 127.31,-236.84 175,-205.83 178.31,-203.68 181.83,-201.71 185.46,-199.92"/>
<polygon fill="#63b8ff" stroke="#63b8ff" points="186.99,-203.07 194.7,-195.81 184.14,-196.68 186.99,-203.07"/>
</a>
</g>
</g>
<!-- Node15 -->
<g id="Node000015" class="node">
<title>Node15</title>
<g id="a_Node000015"><a xlink:href="m__checker__common_8fpp_8f90.html#adc048c92da5bb1fe5a2e0c05a6ac4363" target="_top" xlink:title="Checks constraints on the QBMM and polydisperse bubble parameters. Called by s_check_inputs_common fo...">
<polygon fill="white" stroke="#666666" points="321.5,-148.83 193.5,-148.83 193.5,-118.83 321.5,-118.83 321.5,-148.83"/>
<text text-anchor="start" x="201.5" y="-136.83" font-family="Helvetica,sans-Serif" font-size="10.00">s_check_inputs_qbmm</text>
<text text-anchor="middle" x="257.5" y="-125.83" font-family="Helvetica,sans-Serif" font-size="10.00">_and_polydisperse</text>
</a>
</g>
</g>
<!-- Node1&#45;&gt;Node15 -->
<g id="edge23_Node000001_Node000015" class="edge">
<title>Node1&#45;&gt;Node15</title>
<g id="a_edge23_Node000001_Node000015"><a xlink:title=" ">
<path fill="none" stroke="#63b8ff" d="M73.65,-318.98C83.53,-289.71 116.75,-202.51 175,-157.83 177.84,-155.66 180.87,-153.68 184.03,-151.88"/>
<polygon fill="#63b8ff" stroke="#63b8ff" points="185.86,-154.88 193.23,-147.27 182.72,-148.62 185.86,-154.88"/>
</a>
</g>
</g>
<!-- Node16 -->
<g id="Node000016" class="node">
<title>Node16</title>
<g id="a_Node000016"><a xlink:href="m__checker__common_8fpp_8f90.html#a3638eec34667eefff3ec91023602d436" target="_top" xlink:title="Checks constraints on dimensionality and the number of cells for the grid. Called by s_check_inputs_c...">
<polygon fill="white" stroke="#666666" points="331.5,-415.83 183.5,-415.83 183.5,-385.83 331.5,-385.83 331.5,-415.83"/>
<text text-anchor="start" x="191.5" y="-403.83" font-family="Helvetica,sans-Serif" font-size="10.00">s_check_inputs_simulation</text>
<text text-anchor="middle" x="257.5" y="-392.83" font-family="Helvetica,sans-Serif" font-size="10.00">_domain</text>
</a>
</g>
</g>
<!-- Node1&#45;&gt;Node16 -->
<g id="edge26_Node000001_Node000016" class="edge">
<title>Node1&#45;&gt;Node16</title>
<g id="a_edge26_Node000001_Node000016"><a xlink:title=" ">
<path fill="none" stroke="#63b8ff" d="M89.03,-338.34C109.66,-348.68 144.15,-365.28 175,-376.83 180.4,-378.86 186.05,-380.82 191.74,-382.7"/>
<polygon fill="#63b8ff" stroke="#63b8ff" points="190.75,-386.05 201.34,-385.77 192.88,-379.39 190.75,-386.05"/>
</a>
</g>
</g>
<!-- Node17 -->
<g id="Node000017" class="node">
<title>Node17</title>
<g id="a_Node000017"><a xlink:href="m__checker__common_8fpp_8f90.html#ae37785075c904635e02713670b0cfc46" target="_top" xlink:title="Checks constraints on the stiffened equation of state fluids parameters. Called by s_check_inputs_com...">
<polygon fill="white" stroke="#666666" points="338,-100.33 177,-100.33 177,-81.33 338,-81.33 338,-100.33"/>
<text text-anchor="middle" x="257.5" y="-88.33" font-family="Helvetica,sans-Serif" font-size="10.00">s_check_inputs_stiffened_eos</text>
</a>
</g>
</g>
<!-- Node1&#45;&gt;Node17 -->
<g id="edge28_Node000001_Node000017" class="edge">
<title>Node1&#45;&gt;Node17</title>
<g id="a_edge28_Node000001_Node000017"><a xlink:title=" ">
<path fill="none" stroke="#63b8ff" d="M72.08,-319.12C78.21,-284.65 103.76,-167.13 175,-109.83 177.08,-108.16 179.28,-106.63 181.58,-105.23"/>
<polygon fill="#63b8ff" stroke="#63b8ff" points="183.55,-108.15 190.83,-100.45 180.34,-101.93 183.55,-108.15"/>
</a>
</g>
</g>
<!-- Node19 -->
<g id="Node000019" class="node">
<title>Node19</title>
<g id="a_Node000019"><a xlink:href="m__checker_8fpp_8f90.html#af3b1dbbf0c45f4ee1f2afa417a617788" target="_top" xlink:title="Checks constraints on surface tension parameters (cf_wrt and sigma)">
<polygon fill="white" stroke="#666666" points="323.5,-367.83 191.5,-367.83 191.5,-337.83 323.5,-337.83 323.5,-367.83"/>
<text text-anchor="start" x="199.5" y="-355.83" font-family="Helvetica,sans-Serif" font-size="10.00">s_check_inputs_surface</text>
<text text-anchor="middle" x="257.5" y="-344.83" font-family="Helvetica,sans-Serif" font-size="10.00">_tension</text>
</a>
</g>
</g>
<!-- Node1&#45;&gt;Node19 -->
<g id="edge32_Node000001_Node000019" class="edge">
<title>Node1&#45;&gt;Node19</title>
<g id="a_edge32_Node000001_Node000019"><a xlink:title=" ">
<path fill="none" stroke="#63b8ff" d="M139.23,-337.7C152.97,-339.48 167.47,-341.35 181.41,-343.15"/>
<polygon fill="#63b8ff" stroke="#63b8ff" points="181.08,-346.63 191.45,-344.44 181.98,-339.69 181.08,-346.63"/>
</a>
</g>
</g>
<!-- Node20 -->
<g id="Node000020" class="node">
<title>Node20</title>
<g id="a_Node000020"><a xlink:href="m__checker__common_8fpp_8f90.html#a5ce97109d7a61fb087f1b5246c654a96" target="_top" xlink:title="Checks constraints on the time&#45;stepping parameters. Called by s_check_inputs_common for simulation an...">
<polygon fill="white" stroke="#666666" points="317,-319.83 198,-319.83 198,-289.83 317,-289.83 317,-319.83"/>
<text text-anchor="start" x="206" y="-307.83" font-family="Helvetica,sans-Serif" font-size="10.00">s_check_inputs_time</text>
<text text-anchor="middle" x="257.5" y="-296.83" font-family="Helvetica,sans-Serif" font-size="10.00">_stepping</text>
</a>
</g>
</g>
<!-- Node1&#45;&gt;Node20 -->
<g id="edge34_Node000001_Node000020" class="edge">
<title>Node1&#45;&gt;Node20</title>
<g id="a_edge34_Node000001_Node000020"><a xlink:title=" ">
<path fill="none" stroke="#63b8ff" d="M139.23,-319.97C155.02,-317.93 171.81,-315.76 187.61,-313.72"/>
<polygon fill="#63b8ff" stroke="#63b8ff" points="188.36,-317.16 197.83,-312.41 187.46,-310.21 188.36,-317.16"/>
</a>
</g>
</g>
<!-- Node21 -->
<g id="Node000021" class="node">
<title>Node21</title>
<g id="a_Node000021"><a xlink:href="m__checker__common_8fpp_8f90.html#aef9fe5f21786bdd9903e9d6f6085c8b9" target="_top" xlink:title="Checks constraints regarding WENO order. Called by s_check_inputs_common for all three stages.">
<polygon fill="white" stroke="#666666" points="318.5,-271.33 196.5,-271.33 196.5,-252.33 318.5,-252.33 318.5,-271.33"/>
<text text-anchor="middle" x="257.5" y="-259.33" font-family="Helvetica,sans-Serif" font-size="10.00">s_check_inputs_weno</text>
</a>
</g>
</g>
<!-- Node1&#45;&gt;Node21 -->
<g id="edge36_Node000001_Node000021" class="edge">
<title>Node1&#45;&gt;Node21</title>
<g id="a_edge36_Node000001_Node000021"><a xlink:title=" ">
<path fill="none" stroke="#63b8ff" d="M88.54,-319.19C109.01,-308.56 143.64,-291.57 175,-280.83 182.44,-278.29 190.38,-275.97 198.28,-273.89"/>
<polygon fill="#63b8ff" stroke="#63b8ff" points="199.36,-277.23 208.21,-271.4 197.66,-270.44 199.36,-277.23"/>
</a>
</g>
</g>
<!-- Node22 -->
<g id="Node000022" class="node">
<title>Node22</title>
<g id="a_Node000022"><a xlink:href="m__checker__common_8fpp_8f90.html#ac5ead5876fd9afbfaa1d2c233f13e716" target="_top" xlink:title=" ">
<polygon fill="white" stroke="#666666" points="313,-63.33 202,-63.33 202,-44.33 313,-44.33 313,-63.33"/>
<text text-anchor="middle" x="257.5" y="-51.33" font-family="Helvetica,sans-Serif" font-size="10.00">s_check_total_cells</text>
</a>
</g>
</g>
<!-- Node1&#45;&gt;Node22 -->
<g id="edge38_Node000001_Node000022" class="edge">
<title>Node1&#45;&gt;Node22</title>
<g id="a_edge38_Node000001_Node000022"><a xlink:title=" ">
<path fill="none" stroke="#63b8ff" d="M71.29,-319.33C74.96,-281.5 93.84,-140.33 175,-71.83 180.01,-67.6 185.8,-64.3 191.94,-61.74"/>
<polygon fill="#63b8ff" stroke="#63b8ff" points="193.52,-64.9 201.8,-58.29 191.21,-58.29 193.52,-64.9"/>
</a>
</g>
</g>
<!-- Node3 -->
<g id="Node000003" class="node">
<title>Node3</title>
<g id="a_Node000003"><a xlink:href="m__helper_8fpp_8f90.html#aaf652be9ac041c3a38652bb42475f83f" target="_top" xlink:title=" ">
<polygon fill="white" stroke="#666666" points="498,-338.33 403,-338.33 403,-319.33 498,-319.33 498,-338.33"/>
<text text-anchor="middle" x="450.5" y="-326.33" font-family="Helvetica,sans-Serif" font-size="10.00">s_prohibit_abort</text>
</a>
</g>
</g>
<!-- Node2&#45;&gt;Node3 -->
<g id="edge2_Node000002_Node000003" class="edge">
<title>Node2&#45;&gt;Node3</title>
<g id="a_edge2_Node000002_Node000003"><a xlink:title=" ">
<path fill="none" stroke="#63b8ff" d="M320.09,-645.4C327.36,-642.65 334.24,-638.91 340,-633.83 427.92,-556.45 445.26,-403.21 448.67,-348.68"/>
<polygon fill="#63b8ff" stroke="#63b8ff" points="452.17,-348.77 449.21,-338.6 445.18,-348.4 452.17,-348.77"/>
</a>
</g>
</g>
<!-- Node4 -->
<g id="Node000004" class="node">
<title>Node4</title>
<g id="a_Node000004"><a xlink:href="m__mpi__common_8fpp_8f90.html#ad9e1329e498b65ad4256658675d6f797" target="_top" xlink:title="The subroutine terminates the MPI execution environment.">
<polygon fill="white" stroke="#666666" points="670.5,-106.33 593.5,-106.33 593.5,-87.33 670.5,-87.33 670.5,-106.33"/>
<text text-anchor="middle" x="632" y="-94.33" font-family="Helvetica,sans-Serif" font-size="10.00">s_mpi_abort</text>
</a>
</g>
</g>
<!-- Node3&#45;&gt;Node4 -->
<g id="edge3_Node000003_Node000004" class="edge">
<title>Node3&#45;&gt;Node4</title>
<g id="a_edge3_Node000003_Node000004"><a xlink:title=" ">
<path fill="none" stroke="#63b8ff" d="M456.02,-319.17C472.6,-284.01 530.7,-163.38 561,-133.83 570.79,-124.29 583.53,-116.58 595.46,-110.72"/>
<polygon fill="#63b8ff" stroke="#63b8ff" points="597.16,-113.79 604.77,-106.41 594.23,-107.43 597.16,-113.79"/>
</a>
</g>
</g>
<!-- Node5&#45;&gt;Node3 -->
<g id="edge5_Node000005_Node000003" class="edge">
<title>Node5&#45;&gt;Node3</title>
<g id="a_edge5_Node000005_Node000003"><a xlink:title=" ">
<path fill="none" stroke="#63b8ff" d="M311.09,-610.25C321.55,-607.33 331.81,-602.8 340,-595.83 418.21,-529.24 441.38,-398.05 447.51,-348.45"/>
<polygon fill="#63b8ff" stroke="#63b8ff" points="451,-348.75 448.65,-338.42 444.04,-347.96 451,-348.75"/>
</a>
</g>
</g>
<!-- Node6&#45;&gt;Node3 -->
<g id="edge9_Node000006_Node000003" class="edge">
<title>Node6&#45;&gt;Node3</title>
<g id="a_edge9_Node000006_Node000003"><a xlink:title=" ">
<path fill="none" stroke="#63b8ff" d="M317.01,-234.4C324.92,-236.66 332.79,-239.43 340,-242.83 377.04,-260.34 413.04,-292.37 433.13,-312.01"/>
<polygon fill="#63b8ff" stroke="#63b8ff" points="430.7,-314.53 440.26,-319.12 435.65,-309.58 430.7,-314.53"/>
</a>
</g>
</g>
<!-- Node7 -->
<g id="Node000007" class="node">
<title>Node7</title>
<g id="a_Node000007"><a xlink:href="namespacem__helper__basic.html#af1ad5f2cff7ebf5c909a7fc212815ff2" target="_top" xlink:title="Checks if a real(wp) variable is of default value.">
<polygon fill="white" stroke="#666666" points="508.5,-172.83 392.5,-172.83 392.5,-142.83 508.5,-142.83 508.5,-172.83"/>
<text text-anchor="start" x="400.5" y="-160.83" font-family="Helvetica,sans-Serif" font-size="10.00">m_helper_basic::f_is</text>
<text text-anchor="middle" x="450.5" y="-149.83" font-family="Helvetica,sans-Serif" font-size="10.00">_default</text>
</a>
</g>
</g>
<!-- Node6&#45;&gt;Node7 -->
<g id="edge7_Node000006_Node000007" class="edge">
<title>Node6&#45;&gt;Node7</title>
<g id="a_edge7_Node000006_Node000007"><a xlink:title=" ">
<path fill="none" stroke="#63b8ff" d="M306.32,-215.24C317.48,-212.57 329.25,-209.41 340,-205.83 363.63,-197.97 389.17,-186.94 409.63,-177.43"/>
<polygon fill="#63b8ff" stroke="#63b8ff" points="411.39,-180.47 418.95,-173.04 408.41,-174.14 411.39,-180.47"/>
</a>
</g>
</g>
<!-- Node8 -->
<g id="Node000008" class="node">
<title>Node8</title>
<g id="a_Node000008"><a xlink:href="namespacem__helper__basic.html#a4d4fbabb3807eb662390dd48ef95330d" target="_top" xlink:title="This procedure checks if two floating point numbers of wp are within tolerance.">
<polygon fill="white" stroke="#666666" points="703,-172.83 561,-172.83 561,-142.83 703,-142.83 703,-172.83"/>
<text text-anchor="start" x="569" y="-160.83" font-family="Helvetica,sans-Serif" font-size="10.00">m_helper_basic::f_approx</text>
<text text-anchor="middle" x="632" y="-149.83" font-family="Helvetica,sans-Serif" font-size="10.00">_equal</text>
</a>
</g>
</g>
<!-- Node7&#45;&gt;Node8 -->
<g id="edge8_Node000007_Node000008" class="edge">
<title>Node7&#45;&gt;Node8</title>
<g id="a_edge8_Node000007_Node000008"><a xlink:title=" ">
<path fill="none" stroke="#63b8ff" d="M508.79,-157.83C522.08,-157.83 536.47,-157.83 550.55,-157.83"/>
<polygon fill="#63b8ff" stroke="#63b8ff" points="550.73,-161.33 560.73,-157.83 550.73,-154.33 550.73,-161.33"/>
</a>
</g>
</g>
<!-- Node9&#45;&gt;Node3 -->
<g id="edge11_Node000009_Node000003" class="edge">
<title>Node9&#45;&gt;Node3</title>
<g id="a_edge11_Node000009_Node000003"><a xlink:title=" ">
<path fill="none" stroke="#63b8ff" d="M318.41,-560.48C326.2,-557.27 333.67,-553.14 340,-547.83 404.94,-493.49 435.12,-391.12 445.31,-348.37"/>
<polygon fill="#63b8ff" stroke="#63b8ff" points="448.77,-348.94 447.58,-338.41 441.94,-347.39 448.77,-348.94"/>
</a>
</g>
</g>
<!-- Node10&#45;&gt;Node3 -->
<g id="edge13_Node000010_Node000003" class="edge">
<title>Node10&#45;&gt;Node3</title>
<g id="a_edge13_Node000010_Node000003"><a xlink:title=" ">
<path fill="none" stroke="#63b8ff" d="M324.6,-519.24C330.07,-516.98 335.29,-514.22 340,-510.83 398.05,-469.11 430.97,-386.21 443.54,-348.42"/>
<polygon fill="#63b8ff" stroke="#63b8ff" points="446.96,-349.22 446.67,-338.63 440.29,-347.09 446.96,-349.22"/>
</a>
</g>
</g>
<!-- Node11&#45;&gt;Node3 -->
<g id="edge15_Node000011_Node000003" class="edge">
<title>Node11&#45;&gt;Node3</title>
<g id="a_edge15_Node000011_Node000003"><a xlink:title=" ">
<path fill="none" stroke="#63b8ff" d="M315.38,-483.94C324.04,-481.25 332.56,-477.65 340,-472.83 389.26,-440.92 424.95,-378.87 440.63,-347.68"/>
<polygon fill="#63b8ff" stroke="#63b8ff" points="443.94,-348.9 445.18,-338.38 437.64,-345.83 443.94,-348.9"/>
</a>
</g>
</g>
<!-- Node12&#45;&gt;Node3 -->
<g id="edge17_Node000012_Node000003" class="edge">
<title>Node12&#45;&gt;Node3</title>
<g id="a_edge17_Node000012_Node000003"><a xlink:title=" ">
<path fill="none" stroke="#63b8ff" d="M320.19,-433.81C327.06,-431.23 333.8,-428.25 340,-424.83 378.13,-403.85 414.49,-367.68 434.22,-346.23"/>
<polygon fill="#63b8ff" stroke="#63b8ff" points="437.07,-348.31 441.17,-338.54 431.87,-343.62 437.07,-348.31"/>
</a>
</g>
</g>
<!-- Node13&#45;&gt;Node4 -->
<g id="edge19_Node000013_Node000004" class="edge">
<title>Node13&#45;&gt;Node4</title>
<g id="a_edge19_Node000013_Node000004"><a xlink:title=" ">
<path fill="none" stroke="#63b8ff" d="M475.71,-35.41C507.11,-47.83 562.05,-69.56 597.46,-83.57"/>
<polygon fill="#63b8ff" stroke="#63b8ff" points="596.3,-86.87 606.89,-87.3 598.88,-80.36 596.3,-86.87"/>
</a>
</g>
</g>
<!-- Node14&#45;&gt;Node3 -->
<g id="edge22_Node000014_Node000003" class="edge">
<title>Node14&#45;&gt;Node3</title>
<g id="a_edge22_Node000014_Node000003"><a xlink:title=" ">
<path fill="none" stroke="#63b8ff" d="M320.21,-195.94C327.14,-198.7 333.9,-201.97 340,-205.83 383.85,-233.63 420.59,-283.88 438.24,-310.74"/>
<polygon fill="#63b8ff" stroke="#63b8ff" points="435.32,-312.67 443.67,-319.2 441.21,-308.89 435.32,-312.67"/>
</a>
</g>
</g>
<!-- Node14&#45;&gt;Node7 -->
<g id="edge21_Node000014_Node000007" class="edge">
<title>Node14&#45;&gt;Node7</title>
<g id="a_edge21_Node000014_Node000007"><a xlink:title=" ">
<path fill="none" stroke="#63b8ff" d="M320.25,-174.08C340.11,-171.58 362.2,-168.8 382.43,-166.26"/>
<polygon fill="#63b8ff" stroke="#63b8ff" points="383.01,-169.72 392.5,-165 382.14,-162.77 383.01,-169.72"/>
</a>
</g>
</g>
<!-- Node15&#45;&gt;Node3 -->
<g id="edge25_Node000015_Node000003" class="edge">
<title>Node15&#45;&gt;Node3</title>
<g id="a_edge25_Node000015_Node000003"><a xlink:title=" ">
<path fill="none" stroke="#63b8ff" d="M321.68,-147.38C328.2,-150.23 334.46,-153.67 340,-157.83 393.92,-198.3 428.38,-273.72 442.37,-309.3"/>
<polygon fill="#63b8ff" stroke="#63b8ff" points="439.23,-310.88 446.05,-318.98 445.77,-308.39 439.23,-310.88"/>
</a>
</g>
</g>
<!-- Node15&#45;&gt;Node7 -->
<g id="edge24_Node000015_Node000007" class="edge">
<title>Node15&#45;&gt;Node7</title>
<g id="a_edge24_Node000015_Node000007"><a xlink:title=" ">
<path fill="none" stroke="#63b8ff" d="M321.57,-141.76C341,-144.2 362.47,-146.9 382.17,-149.37"/>
<polygon fill="#63b8ff" stroke="#63b8ff" points="381.94,-152.87 392.3,-150.65 382.81,-145.93 381.94,-152.87"/>
</a>
</g>
</g>
<!-- Node16&#45;&gt;Node3 -->
<g id="edge27_Node000016_Node000003" class="edge">
<title>Node16&#45;&gt;Node3</title>
<g id="a_edge27_Node000016_Node000003"><a xlink:title=" ">
<path fill="none" stroke="#63b8ff" d="M313.17,-385.77C322.2,-382.99 331.41,-379.97 340,-376.83 367.86,-366.67 398.72,-352.91 420.56,-342.72"/>
<polygon fill="#63b8ff" stroke="#63b8ff" points="422.07,-345.88 429.63,-338.46 419.09,-339.55 422.07,-345.88"/>
</a>
</g>
</g>
<!-- Node17&#45;&gt;Node3 -->
<g id="edge31_Node000017_Node000003" class="edge">
<title>Node17&#45;&gt;Node3</title>
<g id="a_edge31_Node000017_Node000003"><a xlink:title=" ">
<path fill="none" stroke="#63b8ff" d="M323.69,-100.37C329.54,-102.86 335.1,-105.96 340,-109.83 340,-109.83 413.66,-257.16 440.15,-310.14"/>
<polygon fill="#63b8ff" stroke="#63b8ff" points="437.05,-311.76 444.65,-319.14 443.31,-308.63 437.05,-311.76"/>
</a>
</g>
</g>
<!-- Node17&#45;&gt;Node7 -->
<g id="edge29_Node000017_Node000007" class="edge">
<title>Node17&#45;&gt;Node7</title>
<g id="a_edge29_Node000017_Node000007"><a xlink:title=" ">
<path fill="none" stroke="#63b8ff" d="M306.32,-100.43C317.48,-103.1 329.25,-106.26 340,-109.83 363.63,-117.7 389.17,-128.73 409.63,-138.24"/>
<polygon fill="#63b8ff" stroke="#63b8ff" points="408.41,-141.53 418.95,-142.63 411.39,-135.2 408.41,-141.53"/>
</a>
</g>
</g>
<!-- Node18 -->
<g id="Node000018" class="node">
<title>Node18</title>
<g id="a_Node000018"><a xlink:href="m__helper_8fpp_8f90.html#a8a0505b2bd4f3d8cb2bf3ce16cfe01e3" target="_top" xlink:title=" ">
<polygon fill="white" stroke="#666666" points="487,-91.33 414,-91.33 414,-72.33 487,-72.33 487,-91.33"/>
<text text-anchor="middle" x="450.5" y="-79.33" font-family="Helvetica,sans-Serif" font-size="10.00">s_int_to_str</text>
</a>
</g>
</g>
<!-- Node17&#45;&gt;Node18 -->
<g id="edge30_Node000017_Node000018" class="edge">
<title>Node17&#45;&gt;Node18</title>
<g id="a_edge30_Node000017_Node000018"><a xlink:title=" ">
<path fill="none" stroke="#63b8ff" d="M338.12,-87.08C360.5,-86.03 384.09,-84.92 403.76,-83.99"/>
<polygon fill="#63b8ff" stroke="#63b8ff" points="404.14,-87.48 413.96,-83.51 403.81,-80.48 404.14,-87.48"/>
</a>
</g>
</g>
<!-- Node19&#45;&gt;Node3 -->
<g id="edge33_Node000019_Node000003" class="edge">
<title>Node19&#45;&gt;Node3</title>
<g id="a_edge33_Node000019_Node000003"><a xlink:title=" ">
<path fill="none" stroke="#63b8ff" d="M323.7,-344.64C346.18,-341.82 371.16,-338.68 392.9,-335.95"/>
<polygon fill="#63b8ff" stroke="#63b8ff" points="393.48,-339.4 402.97,-334.68 392.61,-332.46 393.48,-339.4"/>
</a>
</g>
</g>
<!-- Node20&#45;&gt;Node3 -->
<g id="edge35_Node000020_Node000003" class="edge">
<title>Node20&#45;&gt;Node3</title>
<g id="a_edge35_Node000020_Node000003"><a xlink:title=" ">
<path fill="none" stroke="#63b8ff" d="M317.1,-312.2C341.19,-315.22 368.97,-318.72 392.85,-321.72"/>
<polygon fill="#63b8ff" stroke="#63b8ff" points="392.46,-325.19 402.82,-322.97 393.33,-318.25 392.46,-325.19"/>
</a>
</g>
</g>
<!-- Node21&#45;&gt;Node3 -->
<g id="edge37_Node000021_Node000003" class="edge">
<title>Node21&#45;&gt;Node3</title>
<g id="a_edge37_Node000021_Node000003"><a xlink:title=" ">
<path fill="none" stroke="#63b8ff" d="M306.32,-271.43C317.48,-274.1 329.25,-277.26 340,-280.83 368.48,-290.31 399.72,-304.39 421.52,-314.86"/>
<polygon fill="#63b8ff" stroke="#63b8ff" points="420.01,-318.02 430.54,-319.24 423.07,-311.72 420.01,-318.02"/>
</a>
</g>
</g>
<!-- Node22&#45;&gt;Node3 -->
<g id="edge40_Node000022_Node000003" class="edge">
<title>Node22&#45;&gt;Node3</title>
<g id="a_edge40_Node000022_Node000003"><a xlink:title=" ">
<path fill="none" stroke="#63b8ff" d="M313.15,-57.75C322.98,-60.59 332.48,-65.03 340,-71.83 378.13,-106.37 356.44,-134.26 376,-181.83 395.51,-229.31 423.9,-282.66 439.05,-310.18"/>
<polygon fill="#63b8ff" stroke="#63b8ff" points="436.08,-312.04 443.99,-319.09 442.2,-308.64 436.08,-312.04"/>
</a>
</g>
</g>
<!-- Node22&#45;&gt;Node18 -->
<g id="edge39_Node000022_Node000018" class="edge">
<title>Node22&#45;&gt;Node18</title>
<g id="a_edge39_Node000022_Node000018"><a xlink:title=" ">
<path fill="none" stroke="#63b8ff" d="M313.23,-61.86C341.87,-66.06 376.53,-71.14 403.73,-75.13"/>
<polygon fill="#63b8ff" stroke="#63b8ff" points="403.36,-78.61 413.76,-76.6 404.38,-71.68 403.36,-78.61"/>
</a>
</g>
</g>
</g>
</svg>

<g id="navigator" transform="translate(0 0)" fill="#404254">
  <rect fill="#f2f5e9" fill-opacity="0.5" stroke="#606060" stroke-width=".5" x="0" y="0" width="60" height="60"/>
  <use id="zoomplus" xlink:href="#zoomPlus" x="17" y="9" onmousedown="handleZoom(evt,'in')"/>
  <use id="zoomminus" xlink:href="#zoomMin" x="42" y="9" onmousedown="handleZoom(evt,'out')"/>
  <use id="reset" xlink:href="#resetDef" x="30" y="36" onmousedown="handleReset()"/>
   <use id="arrowup" xlink:href="#arrowUp" x="0" y="0" onmousedown="handlePan(0,-1)"/>
  <use id="arrowright" xlink:href="#arrowRight" x="0" y="0" onmousedown="handlePan(1,0)"/>
  <use id="arrowdown" xlink:href="#arrowDown" x="0" y="0" onmousedown="handlePan(0,1)"/>
  <use id="arrowleft" xlink:href="#arrowLeft" x="0" y="0" onmousedown="handlePan(-1,0)"/>
</g>
<svg viewBox="0 0 15 15" width="100%" height="30px" preserveAspectRatio="xMaxYMin meet">
 <g id="arrow_out" transform="scale(0.3 0.3)">
  <a xlink:href="m__checker__common_8fpp_8f90_ac1305563044bff409bb307d98e1dfe13_cgraph_org.svg" target="_base">
   <rect id="button" ry="5" rx="5" y="6" x="6" height="38" width="38"
        fill="#f2f5e9" fill-opacity="0.5" stroke="#606060" stroke-width="1.0"/>
   <path id="arrow"
     d="M 11.500037,31.436501 C 11.940474,20.09759 22.043105,11.32322 32.158766,21.979434 L 37.068811,17.246167 C 37.068811,17.246167 37.088388,32 37.088388,32 L 22.160133,31.978069 C 22.160133,31.978069 26.997745,27.140456 26.997745,27.140456 C 18.528582,18.264221 13.291696,25.230495 11.500037,31.436501 z"
     style="fill:#404040;"/>
  </a>
 </g>
</svg>

<style type='text/css'>
<![CDATA[
[data-mouse-over-selected='false'] { opacity: 0.7; }
[data-mouse-over-selected='true']  { opacity: 1.0; }
]]>
</style>
<script type="application/ecmascript"><![CDATA[
document.addEventListener('DOMContentLoaded', (event) => {
  highlightEdges();
  highlightAdjacentNodes();
});
]]></script>
</svg>
