<?xml version="1.0" encoding="UTF-8" standalone="no"?>
<!DOCTYPE svg PUBLIC "-//W3C//DTD SVG 1.1//EN"
 "http://www.w3.org/Graphics/SVG/1.1/DTD/svg11.dtd">
<!-- Generated by graphviz version 2.43.0 (0)
 -->
<!-- Title: s_prohibit_abort Pages: 1 -->
<svg width="902pt" height="1052pt"
 viewBox="0.00 0.00 902.00 1052.00" xmlns="http://www.w3.org/2000/svg" xmlns:xlink="http://www.w3.org/1999/xlink">
<g id="graph0" class="graph" transform="scale(1 1) rotate(0) translate(4 1048)">
<title>s_prohibit_abort</title>
<!-- Node1 -->
<g id="Node000001" class="node">
<title>Node1</title>
<g id="a_Node000001"><a xlink:title=" ">
<polygon fill="#999999" stroke="#666666" points="894,-531 799,-531 799,-512 894,-512 894,-531"/>
<text text-anchor="middle" x="846.5" y="-519" font-family="Helvetica,sans-Serif" font-size="10.00">s_prohibit_abort</text>
</a>
</g>
</g>
<!-- Node2 -->
<g id="Node000002" class="node">
<title>Node2</title>
<g id="a_Node000002"><a xlink:href="m__helper_8fpp_8f90.html#ac1893d0dc10d4afa0f4b3f5c36b8fb8b" target="_top" xlink:title=" ">
<polygon fill="white" stroke="#666666" points="743,-1044 618,-1044 618,-1025 743,-1025 743,-1044"/>
<text text-anchor="middle" x="680.5" y="-1032" font-family="Helvetica,sans-Serif" font-size="10.00">__m_helper_fpp_f90__</text>
</a>
</g>
</g>
<!-- Node1&#45;&gt;Node2 -->
<g id="edge1_Node000001_Node000002" class="edge">
<title>Node1&#45;&gt;Node2</title>
<g id="a_edge1_Node000001_Node000002"><a xlink:title=" ">
<path fill="none" stroke="#63b8ff" d="M845.02,-541.54C842.59,-625.15 829.06,-945.1 763,-1015.5 757.53,-1021.33 750.65,-1025.53 743.22,-1028.53"/>
<polygon fill="#63b8ff" stroke="#63b8ff" points="848.52,-541.45 845.29,-531.36 841.52,-541.26 848.52,-541.45"/>
</a>
</g>
</g>
<!-- Node3 -->
<g id="Node000003" class="node">
<title>Node3</title>
<g id="a_Node000003"><a xlink:href="m__checker__common_8fpp_8f90.html#a538dcaa242ef367d1b2cddca76058620" target="_top" xlink:title="Checks constraints on the adv_n flag. Called by s_check_inputs_common for pre&#45;processing and simulati...">
<polygon fill="white" stroke="#666666" points="743,-494 618,-494 618,-475 743,-475 743,-494"/>
<text text-anchor="middle" x="680.5" y="-482" font-family="Helvetica,sans-Serif" font-size="10.00">s_check_inputs_adv_n</text>
</a>
</g>
</g>
<!-- Node1&#45;&gt;Node3 -->
<g id="edge2_Node000001_Node000003" class="edge">
<title>Node1&#45;&gt;Node3</title>
<g id="a_edge2_Node000001_Node000003"><a xlink:title=" ">
<path fill="none" stroke="#63b8ff" d="M794.57,-509.7C784.13,-507.3 773.21,-504.8 763,-502.5 750.7,-499.73 737.35,-496.76 725.08,-494.05"/>
<polygon fill="#63b8ff" stroke="#63b8ff" points="793.86,-513.12 804.39,-511.96 795.43,-506.3 793.86,-513.12"/>
</a>
</g>
</g>
<!-- Node9 -->
<g id="Node000009" class="node">
<title>Node9</title>
<g id="a_Node000009"><a xlink:href="m__checker__common_8fpp_8f90.html#ab9d26fff561c55f5ef7f201aa14d2688" target="_top" xlink:title="Checks constraints on the boundary conditions in the x&#45;direction. Called by s_check_inputs_common for...">
<polygon fill="white" stroke="#666666" points="734,-457 627,-457 627,-438 734,-438 734,-457"/>
<text text-anchor="middle" x="680.5" y="-445" font-family="Helvetica,sans-Serif" font-size="10.00">s_check_inputs_bc</text>
</a>
</g>
</g>
<!-- Node1&#45;&gt;Node9 -->
<g id="edge8_Node000001_Node000009" class="edge">
<title>Node1&#45;&gt;Node9</title>
<g id="a_edge8_Node000001_Node000009"><a xlink:title=" ">
<path fill="none" stroke="#63b8ff" d="M826.29,-505.33C810.32,-492.69 786.47,-475.62 763,-465.5 753.95,-461.6 743.96,-458.5 734.16,-456.06"/>
<polygon fill="#63b8ff" stroke="#63b8ff" points="824.33,-508.25 834.3,-511.83 828.74,-502.81 824.33,-508.25"/>
</a>
</g>
</g>
<!-- Node10 -->
<g id="Node000010" class="node">
<title>Node10</title>
<g id="a_Node000010"><a xlink:href="m__checker__common_8fpp_8f90.html#a01441cca058c6ae5c7ad6d95023d7c74" target="_top" xlink:title="Checks constraints on the bubble parameters. Called by s_check_inputs_common for pre&#45;processing and s...">
<polygon fill="white" stroke="#666666" points="747.5,-420 613.5,-420 613.5,-401 747.5,-401 747.5,-420"/>
<text text-anchor="middle" x="680.5" y="-408" font-family="Helvetica,sans-Serif" font-size="10.00">s_check_inputs_bubbles</text>
</a>
</g>
</g>
<!-- Node1&#45;&gt;Node10 -->
<g id="edge10_Node000001_Node000010" class="edge">
<title>Node1&#45;&gt;Node10</title>
<g id="a_edge10_Node000001_Node000010"><a xlink:title=" ">
<path fill="none" stroke="#63b8ff" d="M834.5,-503.31C820.59,-481.94 794.61,-447.07 763,-428.5 757.13,-425.05 750.67,-422.26 744.03,-420"/>
<polygon fill="#63b8ff" stroke="#63b8ff" points="831.57,-505.22 839.86,-511.81 837.49,-501.48 831.57,-505.22"/>
</a>
</g>
</g>
<!-- Node11 -->
<g id="Node000011" class="node">
<title>Node11</title>
<g id="a_Node000011"><a xlink:href="m__checker__common_8fpp_8f90.html#a1f58bf767848b82995c95a02051a26a3" target="_top" xlink:title="Checks constraints on the finite difference parameters. Called by s_check_inputs_common for simulatio...">
<polygon fill="white" stroke="#666666" points="741,-1006.5 620,-1006.5 620,-976.5 741,-976.5 741,-1006.5"/>
<text text-anchor="start" x="628" y="-994.5" font-family="Helvetica,sans-Serif" font-size="10.00">s_check_inputs_finite</text>
<text text-anchor="middle" x="680.5" y="-983.5" font-family="Helvetica,sans-Serif" font-size="10.00">_difference</text>
</a>
</g>
</g>
<!-- Node1&#45;&gt;Node11 -->
<g id="edge12_Node000001_Node000011" class="edge">
<title>Node1&#45;&gt;Node11</title>
<g id="a_edge12_Node000001_Node000011"><a xlink:title=" ">
<path fill="none" stroke="#63b8ff" d="M844.52,-541.45C840.27,-619.52 821.05,-903.11 763,-967.5 757.07,-974.07 749.45,-978.88 741.25,-982.4"/>
<polygon fill="#63b8ff" stroke="#63b8ff" points="848.03,-541.28 845.05,-531.11 841.04,-540.92 848.03,-541.28"/>
</a>
</g>
</g>
<!-- Node12 -->
<g id="Node000012" class="node">
<title>Node12</title>
<g id="a_Node000012"><a xlink:href="m__checker_8fpp_8f90.html#a7c0748d319352ea5148ec7cbd1ce843c" target="_top" xlink:title="Checks constraints on flux limiter parameters.">
<polygon fill="white" stroke="#666666" points="737.5,-286.5 623.5,-286.5 623.5,-256.5 737.5,-256.5 737.5,-286.5"/>
<text text-anchor="start" x="631.5" y="-274.5" font-family="Helvetica,sans-Serif" font-size="10.00">s_check_inputs_flux</text>
<text text-anchor="middle" x="680.5" y="-263.5" font-family="Helvetica,sans-Serif" font-size="10.00">_limiter</text>
</a>
</g>
</g>
<!-- Node1&#45;&gt;Node12 -->
<g id="edge14_Node000001_Node000012" class="edge">
<title>Node1&#45;&gt;Node12</title>
<g id="a_edge14_Node000001_Node000012"><a xlink:title=" ">
<path fill="none" stroke="#63b8ff" d="M844.08,-501.47C839.88,-457.6 823.67,-352.43 763,-295.5 755.9,-288.84 747.05,-284.02 737.81,-280.53"/>
<polygon fill="#63b8ff" stroke="#63b8ff" points="840.61,-502.01 844.94,-511.68 847.59,-501.42 840.61,-502.01"/>
</a>
</g>
</g>
<!-- Node15 -->
<g id="Node000015" class="node">
<title>Node15</title>
<g id="a_Node000015"><a xlink:href="m__checker__common_8fpp_8f90.html#accfb74f37212066b8bc82dd89ed2ed22" target="_top" xlink:title="Checks constraints on the hypoelasticity parameters. Called by s_check_inputs_common for pre&#45;processi...">
<polygon fill="white" stroke="#666666" points="763,-958 598,-958 598,-939 763,-939 763,-958"/>
<text text-anchor="middle" x="680.5" y="-946" font-family="Helvetica,sans-Serif" font-size="10.00">s_check_inputs_hypoelasticity</text>
</a>
</g>
</g>
<!-- Node1&#45;&gt;Node15 -->
<g id="edge18_Node000001_Node000015" class="edge">
<title>Node1&#45;&gt;Node15</title>
<g id="a_edge18_Node000001_Node000015"><a xlink:title=" ">
<path fill="none" stroke="#63b8ff" d="M844.3,-541.32C839.4,-615.31 818.52,-873.95 763,-930.5 759.75,-933.81 756.04,-936.57 752.04,-938.87"/>
<polygon fill="#63b8ff" stroke="#63b8ff" points="847.81,-541.29 844.95,-531.09 840.82,-540.85 847.81,-541.29"/>
</a>
</g>
</g>
<!-- Node16 -->
<g id="Node000016" class="node">
<title>Node16</title>
<g id="a_Node000016"><a xlink:href="m__checker__common_8fpp_8f90.html#a5f288df12e9ccee0eb013354410ebfa8" target="_top" xlink:title="Checks constraints on the Immersed Boundaries parameters. Called by s_check_inputs_common for pre&#45;pro...">
<polygon fill="white" stroke="#666666" points="738,-921 623,-921 623,-902 738,-902 738,-921"/>
<text text-anchor="middle" x="680.5" y="-909" font-family="Helvetica,sans-Serif" font-size="10.00">s_check_inputs_ibm</text>
</a>
</g>
</g>
<!-- Node1&#45;&gt;Node16 -->
<g id="edge20_Node000001_Node000016" class="edge">
<title>Node1&#45;&gt;Node16</title>
<g id="a_edge20_Node000001_Node000016"><a xlink:title=" ">
<path fill="none" stroke="#63b8ff" d="M843.84,-541.24C837.61,-610.59 813.35,-841.64 763,-892.5 756.25,-899.31 747.57,-903.88 738.39,-906.9"/>
<polygon fill="#63b8ff" stroke="#63b8ff" points="847.33,-541.48 844.71,-531.22 840.36,-540.88 847.33,-541.48"/>
</a>
</g>
</g>
<!-- Node17 -->
<g id="Node000017" class="node">
<title>Node17</title>
<g id="a_Node000017"><a xlink:href="m__checker__common_8fpp_8f90.html#a62ef6c0450d3c2d10771bc88062ae6e4" target="_top" xlink:title="Checks constraints on model equations and number of fluids in the flow. Called by s_check_inputs_comm...">
<polygon fill="white" stroke="#666666" points="744,-883.5 617,-883.5 617,-853.5 744,-853.5 744,-883.5"/>
<text text-anchor="start" x="625" y="-871.5" font-family="Helvetica,sans-Serif" font-size="10.00">s_check_inputs_model</text>
<text text-anchor="middle" x="680.5" y="-860.5" font-family="Helvetica,sans-Serif" font-size="10.00">_eqns_and_num_fluids</text>
</a>
</g>
</g>
<!-- Node1&#45;&gt;Node17 -->
<g id="edge22_Node000001_Node000017" class="edge">
<title>Node1&#45;&gt;Node17</title>
<g id="a_edge22_Node000001_Node000017"><a xlink:title=" ">
<path fill="none" stroke="#63b8ff" d="M843,-541.4C834.67,-604.71 805.93,-799.99 763,-844.5 757.68,-850.02 751.15,-854.29 744.14,-857.59"/>
<polygon fill="#63b8ff" stroke="#63b8ff" points="846.51,-541.54 844.32,-531.18 839.57,-540.65 846.51,-541.54"/>
</a>
</g>
</g>
<!-- Node18 -->
<g id="Node000018" class="node">
<title>Node18</title>
<g id="a_Node000018"><a xlink:href="m__checker_8fpp_8f90.html#a98ff93f06f756e83e8fd89e8c636c836" target="_top" xlink:title="Checks constraints on momentum parameters.">
<polygon fill="white" stroke="#666666" points="757,-654 604,-654 604,-635 757,-635 757,-654"/>
<text text-anchor="middle" x="680.5" y="-642" font-family="Helvetica,sans-Serif" font-size="10.00">s_check_inputs_momentum</text>
</a>
</g>
</g>
<!-- Node1&#45;&gt;Node18 -->
<g id="edge24_Node000001_Node000018" class="edge">
<title>Node1&#45;&gt;Node18</title>
<g id="a_edge24_Node000001_Node000018"><a xlink:title=" ">
<path fill="none" stroke="#63b8ff" d="M835.98,-540.02C822.85,-563.65 796.9,-604.03 763,-625.5 756.86,-629.39 750.01,-632.48 742.97,-634.94"/>
<polygon fill="#63b8ff" stroke="#63b8ff" points="839.17,-541.49 840.81,-531.02 833,-538.18 839.17,-541.49"/>
</a>
</g>
</g>
<!-- Node19 -->
<g id="Node000019" class="node">
<title>Node19</title>
<g id="a_Node000019"><a xlink:href="m__checker_8fpp_8f90.html#a253b17be6608760baeaa0c5295fac290" target="_top" xlink:title="Checks constraints on the absence of flow variables.">
<polygon fill="white" stroke="#666666" points="747.5,-200.5 613.5,-200.5 613.5,-170.5 747.5,-170.5 747.5,-200.5"/>
<text text-anchor="start" x="621.5" y="-188.5" font-family="Helvetica,sans-Serif" font-size="10.00">s_check_inputs_no_flow</text>
<text text-anchor="middle" x="680.5" y="-177.5" font-family="Helvetica,sans-Serif" font-size="10.00">_variables</text>
</a>
</g>
</g>
<!-- Node1&#45;&gt;Node19 -->
<g id="edge25_Node000001_Node000019" class="edge">
<title>Node1&#45;&gt;Node19</title>
<g id="a_edge25_Node000001_Node000019"><a xlink:title=" ">
<path fill="none" stroke="#63b8ff" d="M842.85,-501.87C834.15,-440.26 804.65,-252.32 763,-209.5 758.58,-204.95 753.34,-201.26 747.69,-198.25"/>
<polygon fill="#63b8ff" stroke="#63b8ff" points="839.39,-502.41 844.23,-511.84 846.32,-501.45 839.39,-502.41"/>
</a>
</g>
</g>
<!-- Node20 -->
<g id="Node000020" class="node">
<title>Node20</title>
<g id="a_Node000020"><a xlink:href="m__checker_8fpp_8f90.html#a159e06772170bed7ea4e20308d3cab94" target="_top" xlink:title="Checks constraints on output format parameters.">
<polygon fill="white" stroke="#666666" points="744.5,-152.5 616.5,-152.5 616.5,-122.5 744.5,-122.5 744.5,-152.5"/>
<text text-anchor="start" x="624.5" y="-140.5" font-family="Helvetica,sans-Serif" font-size="10.00">s_check_inputs_output</text>
<text text-anchor="middle" x="680.5" y="-129.5" font-family="Helvetica,sans-Serif" font-size="10.00">_format</text>
</a>
</g>
</g>
<!-- Node1&#45;&gt;Node20 -->
<g id="edge27_Node000001_Node000020" class="edge">
<title>Node1&#45;&gt;Node20</title>
<g id="a_edge27_Node000001_Node000020"><a xlink:title=" ">
<path fill="none" stroke="#63b8ff" d="M843.56,-501.58C836.56,-433.56 810.45,-211.94 763,-161.5 757.85,-156.02 751.51,-151.77 744.67,-148.48"/>
<polygon fill="#63b8ff" stroke="#63b8ff" points="840.1,-502.18 844.59,-511.78 847.07,-501.48 840.1,-502.18"/>
</a>
</g>
</g>
<!-- Node21 -->
<g id="Node000021" class="node">
<title>Node21</title>
<g id="a_Node000021"><a xlink:href="m__checker_8fpp_8f90.html#a6611707a32d12b55a2ba0f73b0509633" target="_top" xlink:title="Checks constraints on partial density parameters.">
<polygon fill="white" stroke="#666666" points="744.5,-104.5 616.5,-104.5 616.5,-74.5 744.5,-74.5 744.5,-104.5"/>
<text text-anchor="start" x="624.5" y="-92.5" font-family="Helvetica,sans-Serif" font-size="10.00">s_check_inputs_partial</text>
<text text-anchor="middle" x="680.5" y="-81.5" font-family="Helvetica,sans-Serif" font-size="10.00">_density</text>
</a>
</g>
</g>
<!-- Node1&#45;&gt;Node21 -->
<g id="edge29_Node000001_Node000021" class="edge">
<title>Node1&#45;&gt;Node21</title>
<g id="a_edge29_Node000001_Node000021"><a xlink:title=" ">
<path fill="none" stroke="#63b8ff" d="M844.16,-501.84C838.79,-428.47 816.42,-171.78 763,-113.5 757.92,-107.95 751.62,-103.67 744.81,-100.35"/>
<polygon fill="#63b8ff" stroke="#63b8ff" points="840.68,-502.26 844.88,-511.99 847.67,-501.77 840.68,-502.26"/>
</a>
</g>
</g>
<!-- Node22 -->
<g id="Node000022" class="node">
<title>Node22</title>
<g id="a_Node000022"><a xlink:href="m__checker__common_8fpp_8f90.html#add5396f309ec2b5791b6e7e931a8a83a" target="_top" xlink:title="Checks constraints on the phase change parameters. Called by s_check_inputs_common for pre&#45;processing...">
<polygon fill="white" stroke="#666666" points="743,-835.5 618,-835.5 618,-805.5 743,-805.5 743,-835.5"/>
<text text-anchor="start" x="626" y="-823.5" font-family="Helvetica,sans-Serif" font-size="10.00">s_check_inputs_phase</text>
<text text-anchor="middle" x="680.5" y="-812.5" font-family="Helvetica,sans-Serif" font-size="10.00">_change</text>
</a>
</g>
</g>
<!-- Node1&#45;&gt;Node22 -->
<g id="edge31_Node000001_Node000022" class="edge">
<title>Node1&#45;&gt;Node22</title>
<g id="a_edge31_Node000001_Node000022"><a xlink:title=" ">
<path fill="none" stroke="#63b8ff" d="M845.61,-541.29C844.77,-591.4 835.45,-724.42 763,-796.5 757.35,-802.12 750.46,-806.43 743.1,-809.75"/>
<polygon fill="#63b8ff" stroke="#63b8ff" points="849.11,-541.18 845.67,-531.16 842.11,-541.13 849.11,-541.18"/>
</a>
</g>
</g>
<!-- Node23 -->
<g id="Node000023" class="node">
<title>Node23</title>
<g id="a_Node000023"><a xlink:href="m__checker__common_8fpp_8f90.html#adc048c92da5bb1fe5a2e0c05a6ac4363" target="_top" xlink:title="Checks constraints on the QBMM and polydisperse bubble parameters. Called by s_check_inputs_common fo...">
<polygon fill="white" stroke="#666666" points="744.5,-787.5 616.5,-787.5 616.5,-757.5 744.5,-757.5 744.5,-787.5"/>
<text text-anchor="start" x="624.5" y="-775.5" font-family="Helvetica,sans-Serif" font-size="10.00">s_check_inputs_qbmm</text>
<text text-anchor="middle" x="680.5" y="-764.5" font-family="Helvetica,sans-Serif" font-size="10.00">_and_polydisperse</text>
</a>
</g>
</g>
<!-- Node1&#45;&gt;Node23 -->
<g id="edge33_Node000001_Node000023" class="edge">
<title>Node1&#45;&gt;Node23</title>
<g id="a_edge33_Node000001_Node000023"><a xlink:title=" ">
<path fill="none" stroke="#63b8ff" d="M844.13,-541.34C840.03,-585.23 824,-691.18 763,-748.5 757.73,-753.45 751.5,-757.38 744.85,-760.51"/>
<polygon fill="#63b8ff" stroke="#63b8ff" points="847.62,-541.62 844.96,-531.36 840.65,-541.04 847.62,-541.62"/>
</a>
</g>
</g>
<!-- Node24 -->
<g id="Node000024" class="node">
<title>Node24</title>
<g id="a_Node000024"><a xlink:href="m__checker_8fpp_8f90.html#ab3480edd4ad9ffddc2a10a43d2cc7263" target="_top" xlink:title="Checks constraints on numerical Schlieren parameters (schlieren_wrt and schlieren_alpha)">
<polygon fill="white" stroke="#666666" points="750.5,-56 610.5,-56 610.5,-37 750.5,-37 750.5,-56"/>
<text text-anchor="middle" x="680.5" y="-44" font-family="Helvetica,sans-Serif" font-size="10.00">s_check_inputs_schlieren</text>
</a>
</g>
</g>
<!-- Node1&#45;&gt;Node24 -->
<g id="edge35_Node000001_Node000024" class="edge">
<title>Node1&#45;&gt;Node24</title>
<g id="a_edge35_Node000001_Node000024"><a xlink:title=" ">
<path fill="none" stroke="#63b8ff" d="M844.71,-501.49C841.18,-422.02 824.17,-129.81 763,-65.5 759.4,-61.71 755.19,-58.61 750.63,-56.08"/>
<polygon fill="#63b8ff" stroke="#63b8ff" points="841.22,-501.78 845.14,-511.62 848.22,-501.49 841.22,-501.78"/>
</a>
</g>
</g>
<!-- Node25 -->
<g id="Node000025" class="node">
<title>Node25</title>
<g id="a_Node000025"><a xlink:href="m__checker__common_8fpp_8f90.html#a3638eec34667eefff3ec91023602d436" target="_top" xlink:title="Checks constraints on dimensionality and the number of cells for the grid. Called by s_check_inputs_c...">
<polygon fill="white" stroke="#666666" points="754.5,-739.5 606.5,-739.5 606.5,-709.5 754.5,-709.5 754.5,-739.5"/>
<text text-anchor="start" x="614.5" y="-727.5" font-family="Helvetica,sans-Serif" font-size="10.00">s_check_inputs_simulation</text>
<text text-anchor="middle" x="680.5" y="-716.5" font-family="Helvetica,sans-Serif" font-size="10.00">_domain</text>
</a>
</g>
</g>
<!-- Node1&#45;&gt;Node25 -->
<g id="edge37_Node000001_Node000025" class="edge">
<title>Node1&#45;&gt;Node25</title>
<g id="a_edge37_Node000001_Node000025"><a xlink:title=" ">
<path fill="none" stroke="#63b8ff" d="M841.94,-541.34C834.29,-578.23 812.74,-657.52 763,-700.5 758.98,-703.97 754.48,-706.94 749.72,-709.48"/>
<polygon fill="#63b8ff" stroke="#63b8ff" points="845.42,-541.83 843.89,-531.34 838.55,-540.49 845.42,-541.83"/>
</a>
</g>
</g>
<!-- Node26 -->
<g id="Node000026" class="node">
<title>Node26</title>
<g id="a_Node000026"><a xlink:href="m__checker__common_8fpp_8f90.html#ae37785075c904635e02713670b0cfc46" target="_top" xlink:title="Checks constraints on the stiffened equation of state fluids parameters. Called by s_check_inputs_com...">
<polygon fill="white" stroke="#666666" points="761,-691 600,-691 600,-672 761,-672 761,-691"/>
<text text-anchor="middle" x="680.5" y="-679" font-family="Helvetica,sans-Serif" font-size="10.00">s_check_inputs_stiffened_eos</text>
</a>
</g>
</g>
<!-- Node1&#45;&gt;Node26 -->
<g id="edge39_Node000001_Node000026" class="edge">
<title>Node1&#45;&gt;Node26</title>
<g id="a_edge39_Node000001_Node000026"><a xlink:title=" ">
<path fill="none" stroke="#63b8ff" d="M839.84,-540.94C829.75,-571.97 805.63,-632.36 763,-663.5 758.32,-666.92 753.11,-669.71 747.66,-671.98"/>
<polygon fill="#63b8ff" stroke="#63b8ff" points="843.21,-541.88 842.83,-531.29 836.53,-539.81 843.21,-541.88"/>
</a>
</g>
</g>
<!-- Node27 -->
<g id="Node000027" class="node">
<title>Node27</title>
<g id="a_Node000027"><a xlink:href="m__checker_8fpp_8f90.html#af3b1dbbf0c45f4ee1f2afa417a617788" target="_top" xlink:title="Checks constraints on surface tension parameters (cf_wrt and sigma)">
<polygon fill="white" stroke="#666666" points="746.5,-382.5 614.5,-382.5 614.5,-352.5 746.5,-352.5 746.5,-382.5"/>
<text text-anchor="start" x="622.5" y="-370.5" font-family="Helvetica,sans-Serif" font-size="10.00">s_check_inputs_surface</text>
<text text-anchor="middle" x="680.5" y="-359.5" font-family="Helvetica,sans-Serif" font-size="10.00">_tension</text>
</a>
</g>
</g>
<!-- Node1&#45;&gt;Node27 -->
<g id="edge41_Node000001_Node000027" class="edge">
<title>Node1&#45;&gt;Node27</title>
<g id="a_edge41_Node000001_Node000027"><a xlink:title=" ">
<path fill="none" stroke="#63b8ff" d="M838.33,-502.01C826.85,-473.48 801.61,-420.6 763,-391.5 758.05,-387.77 752.54,-384.62 746.77,-381.96"/>
<polygon fill="#63b8ff" stroke="#63b8ff" points="835.19,-503.59 842.06,-511.65 841.72,-501.06 835.19,-503.59"/>
</a>
</g>
</g>
<!-- Node28 -->
<g id="Node000028" class="node">
<title>Node28</title>
<g id="a_Node000028"><a xlink:href="m__checker__common_8fpp_8f90.html#a5ce97109d7a61fb087f1b5246c654a96" target="_top" xlink:title="Checks constraints on the time&#45;stepping parameters. Called by s_check_inputs_common for simulation an...">
<polygon fill="white" stroke="#666666" points="740,-616.5 621,-616.5 621,-586.5 740,-586.5 740,-616.5"/>
<text text-anchor="start" x="629" y="-604.5" font-family="Helvetica,sans-Serif" font-size="10.00">s_check_inputs_time</text>
<text text-anchor="middle" x="680.5" y="-593.5" font-family="Helvetica,sans-Serif" font-size="10.00">_stepping</text>
</a>
</g>
</g>
<!-- Node1&#45;&gt;Node28 -->
<g id="edge44_Node000001_Node000028" class="edge">
<title>Node1&#45;&gt;Node28</title>
<g id="a_edge44_Node000001_Node000028"><a xlink:title=" ">
<path fill="none" stroke="#63b8ff" d="M825.82,-537.45C809.73,-549.82 785.98,-566.64 763,-577.5 755.8,-580.9 748.01,-583.94 740.2,-586.61"/>
<polygon fill="#63b8ff" stroke="#63b8ff" points="828.21,-540.02 833.91,-531.1 823.88,-534.52 828.21,-540.02"/>
</a>
</g>
</g>
<!-- Node29 -->
<g id="Node000029" class="node">
<title>Node29</title>
<g id="a_Node000029"><a xlink:href="m__checker_8fpp_8f90.html#ab34042a7c20cb888b048e50b751b1024" target="_top" xlink:title="Checks constraints on velocity parameters.">
<polygon fill="white" stroke="#666666" points="748,-19 613,-19 613,0 748,0 748,-19"/>
<text text-anchor="middle" x="680.5" y="-7" font-family="Helvetica,sans-Serif" font-size="10.00">s_check_inputs_velocity</text>
</a>
</g>
</g>
<!-- Node1&#45;&gt;Node29 -->
<g id="edge46_Node000001_Node000029" class="edge">
<title>Node1&#45;&gt;Node29</title>
<g id="a_edge46_Node000001_Node000029"><a xlink:title=" ">
<path fill="none" stroke="#63b8ff" d="M845.04,-501.44C842.7,-417.75 829.47,-97.51 763,-27.5 758.81,-23.09 753.8,-19.64 748.35,-16.95"/>
<polygon fill="#63b8ff" stroke="#63b8ff" points="841.55,-501.72 845.3,-511.63 848.54,-501.54 841.55,-501.72"/>
</a>
</g>
</g>
<!-- Node30 -->
<g id="Node000030" class="node">
<title>Node30</title>
<g id="a_Node000030"><a xlink:href="m__checker_8fpp_8f90.html#a9be22473b0747571bcebf9f0b934adc2" target="_top" xlink:title="Checks constraints on volume fraction parameters.">
<polygon fill="white" stroke="#666666" points="747,-334.5 614,-334.5 614,-304.5 747,-304.5 747,-334.5"/>
<text text-anchor="start" x="622" y="-322.5" font-family="Helvetica,sans-Serif" font-size="10.00">s_check_inputs_volume</text>
<text text-anchor="middle" x="680.5" y="-311.5" font-family="Helvetica,sans-Serif" font-size="10.00">_fraction</text>
</a>
</g>
</g>
<!-- Node1&#45;&gt;Node30 -->
<g id="edge48_Node000001_Node000030" class="edge">
<title>Node1&#45;&gt;Node30</title>
<g id="a_edge48_Node000001_Node000030"><a xlink:title=" ">
<path fill="none" stroke="#63b8ff" d="M841.91,-501.77C834.2,-465.08 812.56,-386.23 763,-343.5 758.31,-339.45 752.96,-336.09 747.3,-333.29"/>
<polygon fill="#63b8ff" stroke="#63b8ff" points="838.5,-502.58 843.87,-511.71 845.37,-501.22 838.5,-502.58"/>
</a>
</g>
</g>
<!-- Node31 -->
<g id="Node000031" class="node">
<title>Node31</title>
<g id="a_Node000031"><a xlink:href="m__checker_8fpp_8f90.html#a0b31e02f6cb29ec1091cd4dc212f20b1" target="_top" xlink:title="Checks constraints on vorticity parameters.">
<polygon fill="white" stroke="#666666" points="749,-238 612,-238 612,-219 749,-219 749,-238"/>
<text text-anchor="middle" x="680.5" y="-226" font-family="Helvetica,sans-Serif" font-size="10.00">s_check_inputs_vorticity</text>
</a>
</g>
</g>
<!-- Node1&#45;&gt;Node31 -->
<g id="edge50_Node000001_Node000031" class="edge">
<title>Node1&#45;&gt;Node31</title>
<g id="a_edge50_Node000001_Node000031"><a xlink:title=" ">
<path fill="none" stroke="#63b8ff" d="M845.82,-501.53C845.49,-451.01 837.27,-317.2 763,-247.5 758.97,-243.72 754.35,-240.65 749.39,-238.15"/>
<polygon fill="#63b8ff" stroke="#63b8ff" points="842.32,-501.74 845.78,-511.75 849.32,-501.76 842.32,-501.74"/>
</a>
</g>
</g>
<!-- Node32 -->
<g id="Node000032" class="node">
<title>Node32</title>
<g id="a_Node000032"><a xlink:href="m__checker__common_8fpp_8f90.html#aef9fe5f21786bdd9903e9d6f6085c8b9" target="_top" xlink:title="Checks constraints regarding WENO order. Called by s_check_inputs_common for all three stages.">
<polygon fill="white" stroke="#666666" points="741.5,-568 619.5,-568 619.5,-549 741.5,-549 741.5,-568"/>
<text text-anchor="middle" x="680.5" y="-556" font-family="Helvetica,sans-Serif" font-size="10.00">s_check_inputs_weno</text>
</a>
</g>
</g>
<!-- Node1&#45;&gt;Node32 -->
<g id="edge52_Node000001_Node000032" class="edge">
<title>Node1&#45;&gt;Node32</title>
<g id="a_edge52_Node000001_Node000032"><a xlink:title=" ">
<path fill="none" stroke="#63b8ff" d="M794.57,-533.3C784.13,-535.7 773.21,-538.2 763,-540.5 750.7,-543.27 737.35,-546.24 725.08,-548.95"/>
<polygon fill="#63b8ff" stroke="#63b8ff" points="795.43,-536.7 804.39,-531.04 793.86,-529.88 795.43,-536.7"/>
</a>
</g>
</g>
<!-- Node33 -->
<g id="Node000033" class="node">
<title>Node33</title>
<g id="a_Node000033"><a xlink:href="m__checker__common_8fpp_8f90.html#ac5ead5876fd9afbfaa1d2c233f13e716" target="_top" xlink:title=" ">
<polygon fill="white" stroke="#666666" points="736,-531 625,-531 625,-512 736,-512 736,-531"/>
<text text-anchor="middle" x="680.5" y="-519" font-family="Helvetica,sans-Serif" font-size="10.00">s_check_total_cells</text>
</a>
</g>
</g>
<!-- Node1&#45;&gt;Node33 -->
<g id="edge54_Node000001_Node000033" class="edge">
<title>Node1&#45;&gt;Node33</title>
<g id="a_edge54_Node000001_Node000033"><a xlink:title=" ">
<path fill="none" stroke="#63b8ff" d="M788.57,-521.5C771.53,-521.5 752.89,-521.5 736.01,-521.5"/>
<polygon fill="#63b8ff" stroke="#63b8ff" points="788.94,-525 798.94,-521.5 788.94,-518 788.94,-525"/>
</a>
</g>
</g>
<!-- Node4 -->
<g id="Node000004" class="node">
<title>Node4</title>
<g id="a_Node000004"><a xlink:href="m__checker__common_8fpp_8f90.html#ac1305563044bff409bb307d98e1dfe13" target="_top" xlink:title="Checks compatibility of parameters in the input file. Used by all three stages.">
<polygon fill="white" stroke="#666666" points="562,-651 423,-651 423,-632 562,-632 562,-651"/>
<text text-anchor="middle" x="492.5" y="-639" font-family="Helvetica,sans-Serif" font-size="10.00">s_check_inputs_common</text>
</a>
</g>
</g>
<!-- Node3&#45;&gt;Node4 -->
<g id="edge3_Node000003_Node000004" class="edge">
<title>Node3&#45;&gt;Node4</title>
<g id="a_edge3_Node000003_Node000004"><a xlink:title=" ">
<path fill="none" stroke="#63b8ff" d="M608.57,-496.8C604.88,-498.46 601.33,-500.36 598,-502.5 545.44,-536.32 509.56,-606.33 497.74,-631.89"/>
<polygon fill="#63b8ff" stroke="#63b8ff" points="609.93,-500.02 617.95,-493.09 607.36,-493.51 609.93,-500.02"/>
</a>
</g>
</g>
<!-- Node5 -->
<g id="Node000005" class="node">
<title>Node5</title>
<g id="a_Node000005"><a xlink:href="m__checker__common_8fpp_8f90.html#a3d7d0fa7763c21af55ac8bad130f285a" target="_top" xlink:title=" ">
<polygon fill="white" stroke="#666666" points="385,-656.5 257,-656.5 257,-626.5 385,-626.5 385,-656.5"/>
<text text-anchor="start" x="265" y="-644.5" font-family="Helvetica,sans-Serif" font-size="10.00">__m_checker_common</text>
<text text-anchor="middle" x="321" y="-633.5" font-family="Helvetica,sans-Serif" font-size="10.00">_fpp_f90__</text>
</a>
</g>
</g>
<!-- Node4&#45;&gt;Node5 -->
<g id="edge4_Node000004_Node000005" class="edge">
<title>Node4&#45;&gt;Node5</title>
<g id="a_edge4_Node000004_Node000005"><a xlink:title=" ">
<path fill="none" stroke="#63b8ff" d="M412.33,-641.5C403.21,-641.5 394.01,-641.5 385.15,-641.5"/>
<polygon fill="#63b8ff" stroke="#63b8ff" points="412.56,-645 422.56,-641.5 412.56,-638 412.56,-645"/>
</a>
</g>
</g>
<!-- Node6 -->
<g id="Node000006" class="node">
<title>Node6</title>
<g id="a_Node000006"><a xlink:href="namespacem__start__up.html#ad16cf885e1d387880fc2e42566c75dc4" target="_top" xlink:title="Checking that the user inputs make sense, i.e. that the individual choices are compatible with the co...">
<polygon fill="white" stroke="#666666" points="379,-446.5 263,-446.5 263,-416.5 379,-416.5 379,-446.5"/>
<text text-anchor="start" x="271" y="-434.5" font-family="Helvetica,sans-Serif" font-size="10.00">m_start_up::s_check</text>
<text text-anchor="middle" x="321" y="-423.5" font-family="Helvetica,sans-Serif" font-size="10.00">_input_file</text>
</a>
</g>
</g>
<!-- Node4&#45;&gt;Node6 -->
<g id="edge5_Node000004_Node000006" class="edge">
<title>Node4&#45;&gt;Node6</title>
<g id="a_edge5_Node000004_Node000006"><a xlink:title=" ">
<path fill="none" stroke="#63b8ff" d="M477.42,-624.06C444.92,-583.78 365.05,-484.84 334.33,-446.77"/>
<polygon fill="#63b8ff" stroke="#63b8ff" points="474.77,-626.35 483.78,-631.93 480.22,-621.95 474.77,-626.35"/>
</a>
</g>
</g>
<!-- Node7 -->
<g id="Node000007" class="node">
<title>Node7</title>
<g id="a_Node000007"><a xlink:href="namespacem__start__up.html#aee2018cb1e1175ef462340b975d3cabf" target="_top" xlink:title=" ">
<polygon fill="white" stroke="#666666" points="219,-446.5 89,-446.5 89,-416.5 219,-416.5 219,-446.5"/>
<text text-anchor="start" x="97" y="-434.5" font-family="Helvetica,sans-Serif" font-size="10.00">m_start_up::s_initialize</text>
<text text-anchor="middle" x="154" y="-423.5" font-family="Helvetica,sans-Serif" font-size="10.00">_mpi_domain</text>
</a>
</g>
</g>
<!-- Node6&#45;&gt;Node7 -->
<g id="edge6_Node000006_Node000007" class="edge">
<title>Node6&#45;&gt;Node7</title>
<g id="a_edge6_Node000006_Node000007"><a xlink:title=" ">
<path fill="none" stroke="#63b8ff" d="M252.72,-431.5C241.65,-431.5 230.2,-431.5 219.2,-431.5"/>
<polygon fill="#63b8ff" stroke="#63b8ff" points="252.75,-435 262.75,-431.5 252.75,-428 252.75,-435"/>
</a>
</g>
</g>
<!-- Node8 -->
<g id="Node000008" class="node">
<title>Node8</title>
<g id="a_Node000008"><a xlink:href="p__main_8fpp_8f90.html#aeec10ee8e2940c953967da3e374e1579" target="_top" xlink:title="The post&#45;process restructures raw unformatted data, outputted by the simulation, into a formatted dat...">
<polygon fill="white" stroke="#666666" points="53,-441 0,-441 0,-422 53,-422 53,-441"/>
<text text-anchor="middle" x="26.5" y="-429" font-family="Helvetica,sans-Serif" font-size="10.00">p_main</text>
</a>
</g>
</g>
<!-- Node7&#45;&gt;Node8 -->
<g id="edge7_Node000007_Node000008" class="edge">
<title>Node7&#45;&gt;Node8</title>
<g id="a_edge7_Node000007_Node000008"><a xlink:title=" ">
<path fill="none" stroke="#63b8ff" d="M78.74,-431.5C69.58,-431.5 60.76,-431.5 53.09,-431.5"/>
<polygon fill="#63b8ff" stroke="#63b8ff" points="78.78,-435 88.78,-431.5 78.78,-428 78.78,-435"/>
</a>
</g>
</g>
<!-- Node9&#45;&gt;Node4 -->
<g id="edge9_Node000009_Node000004" class="edge">
<title>Node9&#45;&gt;Node4</title>
<g id="a_edge9_Node000009_Node000004"><a xlink:title=" ">
<path fill="none" stroke="#63b8ff" d="M616.84,-455.71C610.12,-458.19 603.68,-461.39 598,-465.5 536.96,-509.65 505.35,-601.38 496.29,-631.6"/>
<polygon fill="#63b8ff" stroke="#63b8ff" points="618.34,-458.91 626.82,-452.55 616.23,-452.23 618.34,-458.91"/>
</a>
</g>
</g>
<!-- Node10&#45;&gt;Node4 -->
<g id="edge11_Node000010_Node000004" class="edge">
<title>Node10&#45;&gt;Node4</title>
<g id="a_edge11_Node000010_Node000004"><a xlink:title=" ">
<path fill="none" stroke="#63b8ff" d="M604.45,-424.08C602.2,-425.42 600.04,-426.89 598,-428.5 528.04,-483.47 501.74,-597.32 495.23,-631.55"/>
<polygon fill="#63b8ff" stroke="#63b8ff" points="606.15,-427.14 613.49,-419.5 602.98,-420.9 606.15,-427.14"/>
</a>
</g>
</g>
<!-- Node11&#45;&gt;Node4 -->
<g id="edge13_Node000011_Node000004" class="edge">
<title>Node11&#45;&gt;Node4</title>
<g id="a_edge13_Node000011_Node000004"><a xlink:title=" ">
<path fill="none" stroke="#63b8ff" d="M610.54,-976.86C605.98,-974.24 601.73,-971.14 598,-967.5 502.75,-874.49 494.18,-694.65 493.53,-651.15"/>
<polygon fill="#63b8ff" stroke="#63b8ff" points="609.12,-980.07 619.64,-981.36 612.23,-973.79 609.12,-980.07"/>
</a>
</g>
</g>
<!-- Node13 -->
<g id="Node000013" class="node">
<title>Node13</title>
<g id="a_Node000013"><a xlink:href="m__checker_8fpp_8f90.html#a66c49f3c83092720b368c30c6048538a" target="_top" xlink:title="Checks compatibility of parameters in the input file. Used by the post_process stage.">
<polygon fill="white" stroke="#666666" points="538,-216 447,-216 447,-197 538,-197 538,-216"/>
<text text-anchor="middle" x="492.5" y="-204" font-family="Helvetica,sans-Serif" font-size="10.00">s_check_inputs</text>
</a>
</g>
</g>
<!-- Node12&#45;&gt;Node13 -->
<g id="edge15_Node000012_Node000013" class="edge">
<title>Node12&#45;&gt;Node13</title>
<g id="a_edge15_Node000012_Node000013"><a xlink:title=" ">
<path fill="none" stroke="#63b8ff" d="M618.88,-253.41C611.82,-251.15 604.73,-248.82 598,-246.5 569.9,-236.82 538.06,-224.43 516.99,-216.02"/>
<polygon fill="#63b8ff" stroke="#63b8ff" points="617.87,-256.76 628.46,-256.43 619.98,-250.08 617.87,-256.76"/>
</a>
</g>
</g>
<!-- Node13&#45;&gt;Node6 -->
<g id="edge17_Node000013_Node000006" class="edge">
<title>Node13&#45;&gt;Node6</title>
<g id="a_edge17_Node000013_Node000006"><a xlink:title=" ">
<path fill="none" stroke="#63b8ff" d="M478.1,-224.29C445.74,-267.24 363.78,-376.04 333.48,-416.26"/>
<polygon fill="#63b8ff" stroke="#63b8ff" points="481,-226.26 484.22,-216.17 475.4,-222.05 481,-226.26"/>
</a>
</g>
</g>
<!-- Node14 -->
<g id="Node000014" class="node">
<title>Node14</title>
<g id="a_Node000014"><a xlink:href="m__checker_8fpp_8f90.html#a975b2bfe62199545eeb2519e9afb1395" target="_top" xlink:title=" ">
<polygon fill="white" stroke="#666666" points="387,-216 255,-216 255,-197 387,-197 387,-216"/>
<text text-anchor="middle" x="321" y="-204" font-family="Helvetica,sans-Serif" font-size="10.00">__m_checker_fpp_f90__</text>
</a>
</g>
</g>
<!-- Node13&#45;&gt;Node14 -->
<g id="edge16_Node000013_Node000014" class="edge">
<title>Node13&#45;&gt;Node14</title>
<g id="a_edge16_Node000013_Node000014"><a xlink:title=" ">
<path fill="none" stroke="#63b8ff" d="M436.85,-206.5C421.05,-206.5 403.65,-206.5 387.28,-206.5"/>
<polygon fill="#63b8ff" stroke="#63b8ff" points="436.97,-210 446.97,-206.5 436.97,-203 436.97,-210"/>
</a>
</g>
</g>
<!-- Node15&#45;&gt;Node4 -->
<g id="edge19_Node000015_Node000004" class="edge">
<title>Node15&#45;&gt;Node4</title>
<g id="a_edge19_Node000015_Node000004"><a xlink:title=" ">
<path fill="none" stroke="#63b8ff" d="M602.09,-933.75C600.68,-932.73 599.31,-931.65 598,-930.5 508.8,-852.17 495.71,-691.69 493.82,-651.03"/>
<polygon fill="#63b8ff" stroke="#63b8ff" points="600.3,-936.75 610.67,-938.9 603.9,-930.75 600.3,-936.75"/>
</a>
</g>
</g>
<!-- Node16&#45;&gt;Node4 -->
<g id="edge21_Node000016_Node000004" class="edge">
<title>Node16&#45;&gt;Node4</title>
<g id="a_edge21_Node000016_Node000004"><a xlink:title=" ">
<path fill="none" stroke="#63b8ff" d="M613.22,-901.95C607.73,-899.45 602.55,-896.35 598,-892.5 518.75,-825.39 498.54,-688.26 494.42,-651.01"/>
<polygon fill="#63b8ff" stroke="#63b8ff" points="612.12,-905.28 622.71,-905.61 614.64,-898.75 612.12,-905.28"/>
</a>
</g>
</g>
<!-- Node17&#45;&gt;Node4 -->
<g id="edge23_Node000017_Node000004" class="edge">
<title>Node17&#45;&gt;Node4</title>
<g id="a_edge23_Node000017_Node000004"><a xlink:title=" ">
<path fill="none" stroke="#63b8ff" d="M607.82,-851.29C604.35,-849.27 601.05,-847.02 598,-844.5 532.32,-790.19 503.25,-683.92 495.63,-651.27"/>
<polygon fill="#63b8ff" stroke="#63b8ff" points="606.24,-854.42 616.74,-855.83 609.42,-848.18 606.24,-854.42"/>
</a>
</g>
</g>
<!-- Node19&#45;&gt;Node13 -->
<g id="edge26_Node000019_Node000013" class="edge">
<title>Node19&#45;&gt;Node13</title>
<g id="a_edge26_Node000019_Node000013"><a xlink:title=" ">
<path fill="none" stroke="#63b8ff" d="M603.33,-194.1C581.16,-196.6 557.67,-199.26 538.13,-201.46"/>
<polygon fill="#63b8ff" stroke="#63b8ff" points="603.86,-197.56 613.4,-192.96 603.07,-190.61 603.86,-197.56"/>
</a>
</g>
</g>
<!-- Node20&#45;&gt;Node13 -->
<g id="edge28_Node000020_Node000013" class="edge">
<title>Node20&#45;&gt;Node13</title>
<g id="a_edge28_Node000020_Node000013"><a xlink:title=" ">
<path fill="none" stroke="#63b8ff" d="M615.08,-155.69C609.27,-157.56 603.51,-159.51 598,-161.5 568.09,-172.3 534.47,-187.31 513.63,-196.97"/>
<polygon fill="#63b8ff" stroke="#63b8ff" points="616.36,-158.95 624.84,-152.61 614.26,-152.27 616.36,-158.95"/>
</a>
</g>
</g>
<!-- Node21&#45;&gt;Node13 -->
<g id="edge30_Node000021_Node000013" class="edge">
<title>Node21&#45;&gt;Node13</title>
<g id="a_edge30_Node000021_Node000013"><a xlink:title=" ">
<path fill="none" stroke="#63b8ff" d="M608.04,-108.49C604.59,-110.05 601.22,-111.71 598,-113.5 556.81,-136.37 518.03,-177.99 501.67,-196.8"/>
<polygon fill="#63b8ff" stroke="#63b8ff" points="609.45,-111.7 617.35,-104.64 606.77,-105.23 609.45,-111.7"/>
</a>
</g>
</g>
<!-- Node22&#45;&gt;Node4 -->
<g id="edge32_Node000022_Node000004" class="edge">
<title>Node22&#45;&gt;Node4</title>
<g id="a_edge32_Node000022_Node000004"><a xlink:title=" ">
<path fill="none" stroke="#63b8ff" d="M608.38,-802.97C604.74,-801.03 601.25,-798.88 598,-796.5 543.27,-756.43 508.25,-678.48 497.24,-651.2"/>
<polygon fill="#63b8ff" stroke="#63b8ff" points="607.13,-806.25 617.67,-807.35 610.12,-799.92 607.13,-806.25"/>
</a>
</g>
</g>
<!-- Node23&#45;&gt;Node4 -->
<g id="edge34_Node000023_Node000004" class="edge">
<title>Node23&#45;&gt;Node4</title>
<g id="a_edge34_Node000023_Node000004"><a xlink:title=" ">
<path fill="none" stroke="#63b8ff" d="M606.87,-753.3C603.82,-751.81 600.84,-750.21 598,-748.5 553.73,-721.85 515.14,-671.98 500.15,-651.09"/>
<polygon fill="#63b8ff" stroke="#63b8ff" points="605.7,-756.6 616.26,-757.44 608.53,-750.2 605.7,-756.6"/>
</a>
</g>
</g>
<!-- Node24&#45;&gt;Node13 -->
<g id="edge36_Node000024_Node000013" class="edge">
<title>Node24&#45;&gt;Node13</title>
<g id="a_edge36_Node000024_Node000013"><a xlink:title=" ">
<path fill="none" stroke="#63b8ff" d="M608.01,-59.93C604.52,-61.57 601.16,-63.42 598,-65.5 545.28,-100.12 509.49,-170.94 497.73,-196.79"/>
<polygon fill="#63b8ff" stroke="#63b8ff" points="609.58,-63.06 617.49,-56.01 606.91,-56.59 609.58,-63.06"/>
</a>
</g>
</g>
<!-- Node25&#45;&gt;Node4 -->
<g id="edge38_Node000025_Node000004" class="edge">
<title>Node25&#45;&gt;Node4</title>
<g id="a_edge38_Node000025_Node000004"><a xlink:title=" ">
<path fill="none" stroke="#63b8ff" d="M612.67,-706.18C607.66,-704.39 602.72,-702.5 598,-700.5 564.42,-686.3 527.92,-663.94 508.18,-651.22"/>
<polygon fill="#63b8ff" stroke="#63b8ff" points="611.76,-709.57 622.36,-709.48 614.02,-702.94 611.76,-709.57"/>
</a>
</g>
</g>
<!-- Node26&#45;&gt;Node4 -->
<g id="edge40_Node000026_Node000004" class="edge">
<title>Node26&#45;&gt;Node4</title>
<g id="a_edge40_Node000026_Node000004"><a xlink:title=" ">
<path fill="none" stroke="#63b8ff" d="M624.99,-669.78C597.2,-663.8 563.85,-656.63 537.69,-651"/>
<polygon fill="#63b8ff" stroke="#63b8ff" points="624.44,-673.24 634.95,-671.92 625.91,-666.39 624.44,-673.24"/>
</a>
</g>
</g>
<!-- Node27&#45;&gt;Node4 -->
<g id="edge43_Node000027_Node000004" class="edge">
<title>Node27&#45;&gt;Node4</title>
<g id="a_edge43_Node000027_Node000004"><a xlink:title=" ">
<path fill="none" stroke="#63b8ff" d="M605.5,-385.74C602.86,-387.49 600.34,-389.4 598,-391.5 521.1,-460.41 499.25,-594.94 494.58,-631.91"/>
<polygon fill="#63b8ff" stroke="#63b8ff" points="607.38,-388.7 614.34,-380.71 603.92,-382.61 607.38,-388.7"/>
</a>
</g>
</g>
<!-- Node27&#45;&gt;Node13 -->
<g id="edge42_Node000027_Node000013" class="edge">
<title>Node27&#45;&gt;Node13</title>
<g id="a_edge42_Node000027_Node000013"><a xlink:title=" ">
<path fill="none" stroke="#63b8ff" d="M605.05,-347.87C602.62,-346.51 600.26,-345.05 598,-343.5 547.24,-308.56 510.5,-241.14 498.09,-216.14"/>
<polygon fill="#63b8ff" stroke="#63b8ff" points="603.63,-351.07 614.14,-352.4 606.76,-344.81 603.63,-351.07"/>
</a>
</g>
</g>
<!-- Node28&#45;&gt;Node4 -->
<g id="edge45_Node000028_Node000004" class="edge">
<title>Node28&#45;&gt;Node4</title>
<g id="a_edge45_Node000028_Node000004"><a xlink:title=" ">
<path fill="none" stroke="#63b8ff" d="M610.98,-616.24C586.59,-621.48 559.78,-627.25 537.94,-631.94"/>
<polygon fill="#63b8ff" stroke="#63b8ff" points="611.86,-619.63 620.9,-614.1 610.39,-612.78 611.86,-619.63"/>
</a>
</g>
</g>
<!-- Node29&#45;&gt;Node13 -->
<g id="edge47_Node000029_Node000013" class="edge">
<title>Node29&#45;&gt;Node13</title>
<g id="a_edge47_Node000029_Node000013"><a xlink:title=" ">
<path fill="none" stroke="#63b8ff" d="M603.95,-23.64C601.89,-24.83 599.9,-26.11 598,-27.5 536.06,-72.65 504.85,-166.58 496.11,-196.87"/>
<polygon fill="#63b8ff" stroke="#63b8ff" points="605.92,-26.58 613.35,-19.03 602.83,-20.29 605.92,-26.58"/>
</a>
</g>
</g>
<!-- Node30&#45;&gt;Node13 -->
<g id="edge49_Node000030_Node000013" class="edge">
<title>Node30&#45;&gt;Node13</title>
<g id="a_edge49_Node000030_Node000013"><a xlink:title=" ">
<path fill="none" stroke="#63b8ff" d="M608.31,-300.52C604.77,-298.96 601.31,-297.29 598,-295.5 557.55,-273.61 518.69,-234.14 502.02,-216.04"/>
<polygon fill="#63b8ff" stroke="#63b8ff" points="607.27,-303.88 617.85,-304.39 609.9,-297.39 607.27,-303.88"/>
</a>
</g>
</g>
<!-- Node31&#45;&gt;Node13 -->
<g id="edge51_Node000031_Node000013" class="edge">
<title>Node31&#45;&gt;Node13</title>
<g id="a_edge51_Node000031_Node000013"><a xlink:title=" ">
<path fill="none" stroke="#63b8ff" d="M601.65,-219.29C580.01,-216.73 557.24,-214.04 538.21,-211.79"/>
<polygon fill="#63b8ff" stroke="#63b8ff" points="601.48,-222.8 611.82,-220.5 602.3,-215.84 601.48,-222.8"/>
</a>
</g>
</g>
<!-- Node32&#45;&gt;Node4 -->
<g id="edge53_Node000032_Node000004" class="edge">
<title>Node32&#45;&gt;Node4</title>
<g id="a_edge53_Node000032_Node000004"><a xlink:title=" ">
<path fill="none" stroke="#63b8ff" d="M617.59,-570.71C610.88,-572.69 604.23,-574.94 598,-577.5 562.57,-592.03 525.3,-617.77 506.29,-631.77"/>
<polygon fill="#63b8ff" stroke="#63b8ff" points="618.7,-574.04 627.42,-568.01 616.85,-567.29 618.7,-574.04"/>
</a>
</g>
</g>
<!-- Node33&#45;&gt;Node4 -->
<g id="edge55_Node000033_Node000004" class="edge">
<title>Node33&#45;&gt;Node4</title>
<g id="a_edge55_Node000033_Node000004"><a xlink:title=" ">
<path fill="none" stroke="#63b8ff" d="M615.37,-532.92C609.33,-535.03 603.44,-537.54 598,-540.5 554.13,-564.39 515.61,-611.75 500.41,-631.98"/>
<polygon fill="#63b8ff" stroke="#63b8ff" points="616.46,-536.25 624.94,-529.9 614.35,-529.57 616.46,-536.25"/>
</a>
</g>
</g>
</g>
</svg>
