<?xml version="1.0" encoding="UTF-8" standalone="no"?>
<!DOCTYPE svg PUBLIC "-//W3C//DTD SVG 1.1//EN"
 "http://www.w3.org/Graphics/SVG/1.1/DTD/svg11.dtd">
<!-- Generated by graphviz version 2.43.0 (0)
 -->
<!-- Title: spherical_harmonic_func Pages: 1 -->
<svg width="430pt" height="82pt"
 viewBox="0.00 0.00 430.00 82.00" xmlns="http://www.w3.org/2000/svg" xmlns:xlink="http://www.w3.org/1999/xlink">
<g id="graph0" class="graph" transform="scale(1 1) rotate(0) translate(4 78)">
<title>spherical_harmonic_func</title>
<!-- Node1 -->
<g id="Node000001" class="node">
<title>Node1</title>
<g id="a_Node000001"><a xlink:title="This function calculates the spherical harmonic function evaluated at x and phi.">
<polygon fill="#999999" stroke="#666666" points="138,-37 0,-37 0,-18 138,-18 138,-37"/>
<text text-anchor="middle" x="69" y="-25" font-family="Helvetica,sans-Serif" font-size="10.00">spherical_harmonic_func</text>
</a>
</g>
</g>
<!-- Node2 -->
<g id="Node000002" class="node">
<title>Node2</title>
<g id="a_Node000002"><a xlink:href="m__helper_8fpp_8f90.html#a181b745e00e4a6f70a4d4300798c56b9" target="_top" xlink:title="This function generates the associated legendre polynomials evaluated at x with inputs l and m.">
<polygon fill="white" stroke="#666666" points="291,-56 174,-56 174,-37 291,-37 291,-56"/>
<text text-anchor="middle" x="232.5" y="-44" font-family="Helvetica,sans-Serif" font-size="10.00">associated_legendre</text>
</a>
</g>
</g>
<!-- Node1&#45;&gt;Node2 -->
<g id="edge1_Node000001_Node000002" class="edge">
<title>Node1&#45;&gt;Node2</title>
<g id="a_edge1_Node000001_Node000002"><a xlink:title=" ">
<path fill="none" stroke="#63b8ff" d="M138.02,-35.5C146.48,-36.5 155.13,-37.52 163.58,-38.51"/>
<polygon fill="#63b8ff" stroke="#63b8ff" points="163.44,-42.02 173.78,-39.71 164.25,-35.06 163.44,-42.02"/>
</a>
</g>
</g>
<!-- Node4 -->
<g id="Node000004" class="node">
<title>Node4</title>
<g id="a_Node000004"><a xlink:href="m__helper_8fpp_8f90.html#a2e4a1959ae675baaf3c9db3421599890" target="_top" xlink:title="The following function calculates the factorial value of an integer.">
<polygon fill="white" stroke="#666666" points="261,-19 204,-19 204,0 261,0 261,-19"/>
<text text-anchor="middle" x="232.5" y="-7" font-family="Helvetica,sans-Serif" font-size="10.00">factorial</text>
</a>
</g>
</g>
<!-- Node1&#45;&gt;Node4 -->
<g id="edge4_Node000001_Node000004" class="edge">
<title>Node1&#45;&gt;Node4</title>
<g id="a_edge4_Node000001_Node000004"><a xlink:title=" ">
<path fill="none" stroke="#63b8ff" d="M138.02,-19.92C156.97,-17.81 176.89,-15.59 193.44,-13.74"/>
<polygon fill="#63b8ff" stroke="#63b8ff" points="194.24,-17.18 203.79,-12.59 193.46,-10.22 194.24,-17.18"/>
</a>
</g>
</g>
<!-- Node2&#45;&gt;Node2 -->
<g id="edge2_Node000002_Node000002" class="edge">
<title>Node2&#45;&gt;Node2</title>
<g id="a_edge2_Node000002_Node000002"><a xlink:title=" ">
<path fill="none" stroke="#63b8ff" d="M210.61,-56.08C199.97,-64.73 207.26,-74 232.5,-74 248.67,-74 257.47,-70.2 258.91,-65.19"/>
<polygon fill="#63b8ff" stroke="#63b8ff" points="261.97,-63.48 254.39,-56.08 255.7,-66.6 261.97,-63.48"/>
</a>
</g>
</g>
<!-- Node3 -->
<g id="Node000003" class="node">
<title>Node3</title>
<g id="a_Node000003"><a xlink:href="m__helper_8fpp_8f90.html#ad4727ccfeccc20335c532d9fc378ab16" target="_top" xlink:title="This function calculates the double factorial value of an integer.">
<polygon fill="white" stroke="#666666" points="422,-56 327,-56 327,-37 422,-37 422,-56"/>
<text text-anchor="middle" x="374.5" y="-44" font-family="Helvetica,sans-Serif" font-size="10.00">double_factorial</text>
</a>
</g>
</g>
<!-- Node2&#45;&gt;Node3 -->
<g id="edge3_Node000002_Node000003" class="edge">
<title>Node2&#45;&gt;Node3</title>
<g id="a_edge3_Node000002_Node000003"><a xlink:title=" ">
<path fill="none" stroke="#63b8ff" d="M291.25,-46.5C299.71,-46.5 308.42,-46.5 316.86,-46.5"/>
<polygon fill="#63b8ff" stroke="#63b8ff" points="316.98,-50 326.98,-46.5 316.98,-43 316.98,-50"/>
</a>
</g>
</g>
</g>
</svg>
