<?xml version="1.0" encoding="UTF-8" standalone="no"?>
<!DOCTYPE svg PUBLIC "-//W3C//DTD SVG 1.1//EN"
 "http://www.w3.org/Graphics/SVG/1.1/DTD/svg11.dtd">
<!-- Generated by graphviz version 2.43.0 (0)
 -->
<!-- Title: s_int_to_str Pages: 1 -->
<svg width="886pt" height="285pt"
 viewBox="0.00 0.00 886.00 284.50" xmlns="http://www.w3.org/2000/svg" xmlns:xlink="http://www.w3.org/1999/xlink">
<g id="graph0" class="graph" transform="scale(1 1) rotate(0) translate(4 280.5)">
<title>s_int_to_str</title>
<!-- Node1 -->
<g id="Node000001" class="node">
<title>Node1</title>
<g id="a_Node000001"><a xlink:title=" ">
<polygon fill="#999999" stroke="#666666" points="878,-147.5 805,-147.5 805,-128.5 878,-128.5 878,-147.5"/>
<text text-anchor="middle" x="841.5" y="-135.5" font-family="Helvetica,sans-Serif" font-size="10.00">s_int_to_str</text>
</a>
</g>
</g>
<!-- Node2 -->
<g id="Node000002" class="node">
<title>Node2</title>
<g id="a_Node000002"><a xlink:href="m__helper_8fpp_8f90.html#ac1893d0dc10d4afa0f4b3f5c36b8fb8b" target="_top" xlink:title=" ">
<polygon fill="white" stroke="#666666" points="751,-276.5 626,-276.5 626,-257.5 751,-257.5 751,-276.5"/>
<text text-anchor="middle" x="688.5" y="-264.5" font-family="Helvetica,sans-Serif" font-size="10.00">__m_helper_fpp_f90__</text>
</a>
</g>
</g>
<!-- Node1&#45;&gt;Node2 -->
<g id="edge1_Node000001_Node000002" class="edge">
<title>Node1&#45;&gt;Node2</title>
<g id="a_edge1_Node000001_Node000002"><a xlink:title=" ">
<path fill="none" stroke="#63b8ff" d="M833.34,-157.17C823.02,-182.05 801.57,-225.02 769,-248 763.55,-251.85 757.42,-254.92 751.05,-257.38"/>
<polygon fill="#63b8ff" stroke="#63b8ff" points="836.65,-158.3 837.08,-147.72 830.14,-155.73 836.65,-158.3"/>
</a>
</g>
</g>
<!-- Node3 -->
<g id="Node000003" class="node">
<title>Node3</title>
<g id="a_Node000003"><a xlink:href="m__checker_8fpp_8f90.html#ac5cf78a3cc29acc205f91585f8bf8c6c" target="_top" xlink:title="Checks constraints on partial density parameters.">
<polygon fill="white" stroke="#666666" points="752.5,-239 624.5,-239 624.5,-209 752.5,-209 752.5,-239"/>
<text text-anchor="start" x="632.5" y="-227" font-family="Helvetica,sans-Serif" font-size="10.00">s_check_inputs_partial</text>
<text text-anchor="middle" x="688.5" y="-216" font-family="Helvetica,sans-Serif" font-size="10.00">_density</text>
</a>
</g>
</g>
<!-- Node1&#45;&gt;Node3 -->
<g id="edge2_Node000001_Node000003" class="edge">
<title>Node1&#45;&gt;Node3</title>
<g id="a_edge2_Node000001_Node000003"><a xlink:title=" ">
<path fill="none" stroke="#63b8ff" d="M824.65,-155.3C811.09,-169.17 790.41,-188.2 769,-200 762.81,-203.41 756.08,-206.39 749.24,-208.99"/>
<polygon fill="#63b8ff" stroke="#63b8ff" points="827.41,-157.48 831.76,-147.83 822.34,-152.66 827.41,-157.48"/>
</a>
</g>
</g>
<!-- Node9 -->
<g id="Node000009" class="node">
<title>Node9</title>
<g id="a_Node000009"><a xlink:href="m__checker_8fpp_8f90.html#a145c7f1bde18d009f9e27a11716cc5b6" target="_top" xlink:title="Checks constraints on numerical Schlieren parameters (schlieren_wrt and schlieren_alpha)">
<polygon fill="white" stroke="#666666" points="758.5,-190.5 618.5,-190.5 618.5,-171.5 758.5,-171.5 758.5,-190.5"/>
<text text-anchor="middle" x="688.5" y="-178.5" font-family="Helvetica,sans-Serif" font-size="10.00">s_check_inputs_schlieren</text>
</a>
</g>
</g>
<!-- Node1&#45;&gt;Node9 -->
<g id="edge8_Node000001_Node000009" class="edge">
<title>Node1&#45;&gt;Node9</title>
<g id="a_edge8_Node000001_Node000009"><a xlink:title=" ">
<path fill="none" stroke="#63b8ff" d="M804.34,-150.84C793.08,-154.64 780.58,-158.68 769,-162 757.27,-165.36 744.45,-168.61 732.59,-171.44"/>
<polygon fill="#63b8ff" stroke="#63b8ff" points="805.53,-154.13 813.85,-147.57 803.26,-147.51 805.53,-154.13"/>
</a>
</g>
</g>
<!-- Node10 -->
<g id="Node000010" class="node">
<title>Node10</title>
<g id="a_Node000010"><a xlink:href="m__checker__common_8fpp_8f90.html#ad15ca73133de2afa70c210c9a3d8a1ca" target="_top" xlink:title="Checks constraints on the stiffened equation of state fluids parameters. Called by s_check_inputs_com...">
<polygon fill="white" stroke="#666666" points="769,-104.5 608,-104.5 608,-85.5 769,-85.5 769,-104.5"/>
<text text-anchor="middle" x="688.5" y="-92.5" font-family="Helvetica,sans-Serif" font-size="10.00">s_check_inputs_stiffened_eos</text>
</a>
</g>
</g>
<!-- Node1&#45;&gt;Node10 -->
<g id="edge10_Node000001_Node000010" class="edge">
<title>Node1&#45;&gt;Node10</title>
<g id="a_edge10_Node000001_Node000010"><a xlink:title=" ">
<path fill="none" stroke="#63b8ff" d="M804.34,-125.16C793.08,-121.36 780.58,-117.32 769,-114 757.27,-110.64 744.45,-107.39 732.59,-104.56"/>
<polygon fill="#63b8ff" stroke="#63b8ff" points="803.26,-128.49 813.85,-128.43 805.53,-121.87 803.26,-128.49"/>
</a>
</g>
</g>
<!-- Node13 -->
<g id="Node000013" class="node">
<title>Node13</title>
<g id="a_Node000013"><a xlink:href="m__checker_8fpp_8f90.html#a476cf444c03edd440f4565f4e5a20677" target="_top" xlink:title="Checks constraints on volume fraction parameters.">
<polygon fill="white" stroke="#666666" points="755,-153 622,-153 622,-123 755,-123 755,-153"/>
<text text-anchor="start" x="630" y="-141" font-family="Helvetica,sans-Serif" font-size="10.00">s_check_inputs_volume</text>
<text text-anchor="middle" x="688.5" y="-130" font-family="Helvetica,sans-Serif" font-size="10.00">_fraction</text>
</a>
</g>
</g>
<!-- Node1&#45;&gt;Node13 -->
<g id="edge14_Node000001_Node000013" class="edge">
<title>Node1&#45;&gt;Node13</title>
<g id="a_edge14_Node000001_Node000013"><a xlink:title=" ">
<path fill="none" stroke="#63b8ff" d="M794.61,-138C782.19,-138 768.49,-138 755.2,-138"/>
<polygon fill="#63b8ff" stroke="#63b8ff" points="794.72,-141.5 804.72,-138 794.72,-134.5 794.72,-141.5"/>
</a>
</g>
</g>
<!-- Node14 -->
<g id="Node000014" class="node">
<title>Node14</title>
<g id="a_Node000014"><a xlink:href="m__checker__common_8fpp_8f90.html#a3c643456b84c219eab68ba27b908659a" target="_top" xlink:title=" ">
<polygon fill="white" stroke="#666666" points="744,-67.5 633,-67.5 633,-48.5 744,-48.5 744,-67.5"/>
<text text-anchor="middle" x="688.5" y="-55.5" font-family="Helvetica,sans-Serif" font-size="10.00">s_check_total_cells</text>
</a>
</g>
</g>
<!-- Node1&#45;&gt;Node14 -->
<g id="edge16_Node000001_Node000014" class="edge">
<title>Node1&#45;&gt;Node14</title>
<g id="a_edge16_Node000001_Node000014"><a xlink:title=" ">
<path fill="none" stroke="#63b8ff" d="M825.31,-120.77C811.89,-106.62 791.06,-87.16 769,-76 761.3,-72.1 752.75,-69.04 744.2,-66.64"/>
<polygon fill="#63b8ff" stroke="#63b8ff" points="822.97,-123.39 832.31,-128.38 828.12,-118.65 822.97,-123.39"/>
</a>
</g>
</g>
<!-- Node15 -->
<g id="Node000015" class="node">
<title>Node15</title>
<g id="a_Node000015"><a xlink:href="namespacem__data__input.html#a5139fe69b24a1dc0e32b632e9bf5d0ee" target="_top" xlink:title="Helper subroutine to read parallel conservative variable data.">
<polygon fill="white" stroke="#666666" points="765.5,-30 611.5,-30 611.5,0 765.5,0 765.5,-30"/>
<text text-anchor="start" x="619.5" y="-18" font-family="Helvetica,sans-Serif" font-size="10.00">m_data_input::s_read</text>
<text text-anchor="middle" x="688.5" y="-7" font-family="Helvetica,sans-Serif" font-size="10.00">_parallel_conservative_data</text>
</a>
</g>
</g>
<!-- Node1&#45;&gt;Node15 -->
<g id="edge18_Node000001_Node000015" class="edge">
<title>Node1&#45;&gt;Node15</title>
<g id="a_edge18_Node000001_Node000015"><a xlink:title=" ">
<path fill="none" stroke="#63b8ff" d="M831.64,-119.06C820.24,-96.7 798.34,-59.92 769,-39 764.19,-35.57 758.88,-32.62 753.35,-30.09"/>
<polygon fill="#63b8ff" stroke="#63b8ff" points="828.59,-120.77 836.13,-128.21 834.87,-117.69 828.59,-120.77"/>
</a>
</g>
</g>
<!-- Node4 -->
<g id="Node000004" class="node">
<title>Node4</title>
<g id="a_Node000004"><a xlink:href="m__checker_8fpp_8f90.html#a50c5aba681ca509c90f2cef3796ebdc9" target="_top" xlink:title="Checks compatibility of parameters in the input file. Used by the post_process stage.">
<polygon fill="white" stroke="#666666" points="548,-190.5 457,-190.5 457,-171.5 548,-171.5 548,-190.5"/>
<text text-anchor="middle" x="502.5" y="-178.5" font-family="Helvetica,sans-Serif" font-size="10.00">s_check_inputs</text>
</a>
</g>
</g>
<!-- Node3&#45;&gt;Node4 -->
<g id="edge3_Node000003_Node000004" class="edge">
<title>Node3&#45;&gt;Node4</title>
<g id="a_edge3_Node000003_Node000004"><a xlink:title=" ">
<path fill="none" stroke="#63b8ff" d="M614.66,-206.98C590.71,-201.38 564.96,-195.36 544.27,-190.53"/>
<polygon fill="#63b8ff" stroke="#63b8ff" points="613.9,-210.39 624.44,-209.26 615.49,-203.58 613.9,-210.39"/>
</a>
</g>
</g>
<!-- Node5 -->
<g id="Node000005" class="node">
<title>Node5</title>
<g id="a_Node000005"><a xlink:href="m__checker_8fpp_8f90.html#a975b2bfe62199545eeb2519e9afb1395" target="_top" xlink:title=" ">
<polygon fill="white" stroke="#666666" points="392,-192.5 260,-192.5 260,-173.5 392,-173.5 392,-192.5"/>
<text text-anchor="middle" x="326" y="-180.5" font-family="Helvetica,sans-Serif" font-size="10.00">__m_checker_fpp_f90__</text>
</a>
</g>
</g>
<!-- Node4&#45;&gt;Node5 -->
<g id="edge4_Node000004_Node000005" class="edge">
<title>Node4&#45;&gt;Node5</title>
<g id="a_edge4_Node000004_Node000005"><a xlink:title=" ">
<path fill="none" stroke="#63b8ff" d="M446.16,-181.63C429,-181.83 409.94,-182.05 392.18,-182.25"/>
<polygon fill="#63b8ff" stroke="#63b8ff" points="446.6,-185.13 456.56,-181.52 446.52,-178.13 446.6,-185.13"/>
</a>
</g>
</g>
<!-- Node6 -->
<g id="Node000006" class="node">
<title>Node6</title>
<g id="a_Node000006"><a xlink:href="namespacem__start__up.html#a045a171a9b44005a0e190f9a99784853" target="_top" xlink:title="Checking that the user inputs make sense, i.e. that the individual choices are compatible with the co...">
<polygon fill="white" stroke="#666666" points="384,-155 268,-155 268,-125 384,-125 384,-155"/>
<text text-anchor="start" x="276" y="-143" font-family="Helvetica,sans-Serif" font-size="10.00">m_start_up::s_check</text>
<text text-anchor="middle" x="326" y="-132" font-family="Helvetica,sans-Serif" font-size="10.00">_input_file</text>
</a>
</g>
</g>
<!-- Node4&#45;&gt;Node6 -->
<g id="edge5_Node000004_Node000006" class="edge">
<title>Node4&#45;&gt;Node6</title>
<g id="a_edge5_Node000004_Node000006"><a xlink:title=" ">
<path fill="none" stroke="#63b8ff" d="M451.05,-169.15C430.11,-164.23 405.7,-158.49 384.11,-153.42"/>
<polygon fill="#63b8ff" stroke="#63b8ff" points="450.49,-172.61 461.03,-171.49 452.09,-165.8 450.49,-172.61"/>
</a>
</g>
</g>
<!-- Node7 -->
<g id="Node000007" class="node">
<title>Node7</title>
<g id="a_Node000007"><a xlink:href="namespacem__start__up.html#a43f2e386d1bd2f0f6212f31a97542b96" target="_top" xlink:title=" ">
<polygon fill="white" stroke="#666666" points="219,-131 89,-131 89,-101 219,-101 219,-131"/>
<text text-anchor="start" x="97" y="-119" font-family="Helvetica,sans-Serif" font-size="10.00">m_start_up::s_initialize</text>
<text text-anchor="middle" x="154" y="-108" font-family="Helvetica,sans-Serif" font-size="10.00">_mpi_domain</text>
</a>
</g>
</g>
<!-- Node6&#45;&gt;Node7 -->
<g id="edge6_Node000006_Node000007" class="edge">
<title>Node6&#45;&gt;Node7</title>
<g id="a_edge6_Node000006_Node000007"><a xlink:title=" ">
<path fill="none" stroke="#63b8ff" d="M257.87,-130.52C245.15,-128.73 231.88,-126.85 219.25,-125.07"/>
<polygon fill="#63b8ff" stroke="#63b8ff" points="257.53,-134.01 267.92,-131.94 258.51,-127.08 257.53,-134.01"/>
</a>
</g>
</g>
<!-- Node8 -->
<g id="Node000008" class="node">
<title>Node8</title>
<g id="a_Node000008"><a xlink:href="p__main_8fpp_8f90.html#aeec10ee8e2940c953967da3e374e1579" target="_top" xlink:title="The post&#45;process restructures raw unformatted data, outputted by the simulation, into a formatted dat...">
<polygon fill="white" stroke="#666666" points="53,-77.5 0,-77.5 0,-58.5 53,-58.5 53,-77.5"/>
<text text-anchor="middle" x="26.5" y="-65.5" font-family="Helvetica,sans-Serif" font-size="10.00">p_main</text>
</a>
</g>
</g>
<!-- Node7&#45;&gt;Node8 -->
<g id="edge7_Node000007_Node000008" class="edge">
<title>Node7&#45;&gt;Node8</title>
<g id="a_edge7_Node000007_Node000008"><a xlink:title=" ">
<path fill="none" stroke="#63b8ff" d="M104.04,-97.27C86.4,-90.53 67.25,-83.2 52.51,-77.56"/>
<polygon fill="#63b8ff" stroke="#63b8ff" points="103.04,-100.64 113.64,-100.94 105.55,-94.1 103.04,-100.64"/>
</a>
</g>
</g>
<!-- Node9&#45;&gt;Node4 -->
<g id="edge9_Node000009_Node000004" class="edge">
<title>Node9&#45;&gt;Node4</title>
<g id="a_edge9_Node000009_Node000004"><a xlink:title=" ">
<path fill="none" stroke="#63b8ff" d="M608.42,-181C587.77,-181 566.23,-181 548.09,-181"/>
<polygon fill="#63b8ff" stroke="#63b8ff" points="608.46,-184.5 618.46,-181 608.46,-177.5 608.46,-184.5"/>
</a>
</g>
</g>
<!-- Node11 -->
<g id="Node000011" class="node">
<title>Node11</title>
<g id="a_Node000011"><a xlink:href="m__checker__common_8fpp_8f90.html#ac948a599f06abe1ea3d745c65e1cb81b" target="_top" xlink:title="Checks compatibility of parameters in the input file. Used by all three stages.">
<polygon fill="white" stroke="#666666" points="572,-102.5 433,-102.5 433,-83.5 572,-83.5 572,-102.5"/>
<text text-anchor="middle" x="502.5" y="-90.5" font-family="Helvetica,sans-Serif" font-size="10.00">s_check_inputs_common</text>
</a>
</g>
</g>
<!-- Node10&#45;&gt;Node11 -->
<g id="edge11_Node000010_Node000011" class="edge">
<title>Node10&#45;&gt;Node11</title>
<g id="a_edge11_Node000010_Node000011"><a xlink:title=" ">
<path fill="none" stroke="#63b8ff" d="M597.74,-94.02C589.08,-93.93 580.4,-93.84 572,-93.74"/>
<polygon fill="#63b8ff" stroke="#63b8ff" points="597.83,-97.53 607.87,-94.13 597.9,-90.53 597.83,-97.53"/>
</a>
</g>
</g>
<!-- Node11&#45;&gt;Node6 -->
<g id="edge13_Node000011_Node000006" class="edge">
<title>Node11&#45;&gt;Node6</title>
<g id="a_edge13_Node000011_Node000006"><a xlink:title=" ">
<path fill="none" stroke="#63b8ff" d="M456.26,-105.18C433.85,-111.22 406.58,-118.57 382.87,-124.95"/>
<polygon fill="#63b8ff" stroke="#63b8ff" points="457.44,-108.49 466.19,-102.51 455.62,-101.73 457.44,-108.49"/>
</a>
</g>
</g>
<!-- Node12 -->
<g id="Node000012" class="node">
<title>Node12</title>
<g id="a_Node000012"><a xlink:href="m__checker__common_8fpp_8f90.html#a3d7d0fa7763c21af55ac8bad130f285a" target="_top" xlink:title=" ">
<polygon fill="white" stroke="#666666" points="390,-107 262,-107 262,-77 390,-77 390,-107"/>
<text text-anchor="start" x="270" y="-95" font-family="Helvetica,sans-Serif" font-size="10.00">__m_checker_common</text>
<text text-anchor="middle" x="326" y="-84" font-family="Helvetica,sans-Serif" font-size="10.00">_fpp_f90__</text>
</a>
</g>
</g>
<!-- Node11&#45;&gt;Node12 -->
<g id="edge12_Node000011_Node000012" class="edge">
<title>Node11&#45;&gt;Node12</title>
<g id="a_edge12_Node000011_Node000012"><a xlink:title=" ">
<path fill="none" stroke="#63b8ff" d="M422.5,-92.55C411.7,-92.49 400.73,-92.42 390.26,-92.36"/>
<polygon fill="#63b8ff" stroke="#63b8ff" points="422.76,-96.05 432.78,-92.61 422.8,-89.05 422.76,-96.05"/>
</a>
</g>
</g>
<!-- Node13&#45;&gt;Node4 -->
<g id="edge15_Node000013_Node000004" class="edge">
<title>Node13&#45;&gt;Node4</title>
<g id="a_edge15_Node000013_Node000004"><a xlink:title=" ">
<path fill="none" stroke="#63b8ff" d="M613.18,-155.37C589.65,-160.87 564.51,-166.74 544.25,-171.48"/>
<polygon fill="#63b8ff" stroke="#63b8ff" points="614.2,-158.72 623.15,-153.04 612.61,-151.91 614.2,-158.72"/>
</a>
</g>
</g>
<!-- Node14&#45;&gt;Node11 -->
<g id="edge17_Node000014_Node000011" class="edge">
<title>Node14&#45;&gt;Node11</title>
<g id="a_edge17_Node000014_Node000011"><a xlink:title=" ">
<path fill="none" stroke="#63b8ff" d="M627.24,-69.46C603.45,-73.99 576.43,-79.13 553.72,-83.45"/>
<polygon fill="#63b8ff" stroke="#63b8ff" points="628.05,-72.87 637.22,-67.56 626.74,-65.99 628.05,-72.87"/>
</a>
</g>
</g>
<!-- Node16 -->
<g id="Node000016" class="node">
<title>Node16</title>
<g id="a_Node000016"><a xlink:href="namespacem__data__input.html#a1e9dfd5c6be77bbfa34abb90c77216b4" target="_top" xlink:title="This subroutine is called at each time&#45;step that has to be post&#45;processed in order to parallel&#45;read t...">
<polygon fill="white" stroke="#666666" points="563.5,-30 441.5,-30 441.5,0 563.5,0 563.5,-30"/>
<text text-anchor="start" x="449.5" y="-18" font-family="Helvetica,sans-Serif" font-size="10.00">m_data_input::s_read</text>
<text text-anchor="middle" x="502.5" y="-7" font-family="Helvetica,sans-Serif" font-size="10.00">_parallel_data_files</text>
</a>
</g>
</g>
<!-- Node15&#45;&gt;Node16 -->
<g id="edge19_Node000015_Node000016" class="edge">
<title>Node15&#45;&gt;Node16</title>
<g id="a_edge19_Node000015_Node000016"><a xlink:title=" ">
<path fill="none" stroke="#63b8ff" d="M601.19,-15C588.48,-15 575.63,-15 563.61,-15"/>
<polygon fill="#63b8ff" stroke="#63b8ff" points="601.33,-18.5 611.33,-15 601.33,-11.5 601.33,-18.5"/>
</a>
</g>
</g>
<!-- Node17 -->
<g id="Node000017" class="node">
<title>Node17</title>
<g id="a_Node000017"><a xlink:href="namespacem__data__input.html#a5746c07ce2bd024e906a721e6552443f" target="_top" xlink:title="Computation of parameters, allocation procedures, and/or any other tasks needed to properly setup the...">
<polygon fill="white" stroke="#666666" points="397,-59 255,-59 255,-29 397,-29 397,-59"/>
<text text-anchor="start" x="263" y="-47" font-family="Helvetica,sans-Serif" font-size="10.00">m_data_input::s_initialize</text>
<text text-anchor="middle" x="326" y="-36" font-family="Helvetica,sans-Serif" font-size="10.00">_data_input_module</text>
</a>
</g>
</g>
<!-- Node16&#45;&gt;Node17 -->
<g id="edge20_Node000016_Node000017" class="edge">
<title>Node16&#45;&gt;Node17</title>
<g id="a_edge20_Node000016_Node000017"><a xlink:title=" ">
<path fill="none" stroke="#63b8ff" d="M431.24,-26.68C419.98,-28.55 408.33,-30.48 397.07,-32.35"/>
<polygon fill="#63b8ff" stroke="#63b8ff" points="432.16,-30.07 441.45,-24.98 431.01,-23.17 432.16,-30.07"/>
</a>
</g>
</g>
<!-- Node18 -->
<g id="Node000018" class="node">
<title>Node18</title>
<g id="a_Node000018"><a xlink:href="namespacem__start__up.html#aea20fb8945d467b344a487cfe8213d99" target="_top" xlink:title=" ">
<polygon fill="white" stroke="#666666" points="219,-59 89,-59 89,-29 219,-29 219,-59"/>
<text text-anchor="start" x="97" y="-47" font-family="Helvetica,sans-Serif" font-size="10.00">m_start_up::s_initialize</text>
<text text-anchor="middle" x="154" y="-36" font-family="Helvetica,sans-Serif" font-size="10.00">_modules</text>
</a>
</g>
</g>
<!-- Node16&#45;&gt;Node18 -->
<g id="edge23_Node000016_Node000018" class="edge">
<title>Node16&#45;&gt;Node18</title>
<g id="a_edge23_Node000016_Node000018"><a xlink:title=" ">
<path fill="none" stroke="#63b8ff" d="M431.19,-12.42C381.71,-11.59 314.06,-12.4 255,-20 239.68,-21.97 223.3,-25.35 208.32,-28.96"/>
<polygon fill="#63b8ff" stroke="#63b8ff" points="431.39,-15.93 441.46,-12.63 431.53,-8.93 431.39,-15.93"/>
</a>
</g>
</g>
<!-- Node17&#45;&gt;Node18 -->
<g id="edge21_Node000017_Node000018" class="edge">
<title>Node17&#45;&gt;Node18</title>
<g id="a_edge21_Node000017_Node000018"><a xlink:title=" ">
<path fill="none" stroke="#63b8ff" d="M244.85,-44C236.26,-44 227.61,-44 219.24,-44"/>
<polygon fill="#63b8ff" stroke="#63b8ff" points="244.87,-47.5 254.87,-44 244.87,-40.5 244.87,-47.5"/>
</a>
</g>
</g>
<!-- Node18&#45;&gt;Node8 -->
<g id="edge22_Node000018_Node000008" class="edge">
<title>Node18&#45;&gt;Node8</title>
<g id="a_edge22_Node000018_Node000008"><a xlink:title=" ">
<path fill="none" stroke="#63b8ff" d="M78.74,-58.2C69.58,-59.95 60.76,-61.64 53.09,-63.11"/>
<polygon fill="#63b8ff" stroke="#63b8ff" points="79.61,-61.6 88.78,-56.28 78.3,-54.72 79.61,-61.6"/>
</a>
</g>
</g>
</g>
</svg>
