<?xml version="1.0" encoding="UTF-8" standalone="no"?>
<!DOCTYPE svg PUBLIC "-//W3C//DTD SVG 1.1//EN"
 "http://www.w3.org/Graphics/SVG/1.1/DTD/svg11.dtd">
<!-- Generated by graphviz version 2.43.0 (0)
 -->
<!-- Title: s_mpi_abort Pages: 1 -->
<svg width="716pt" height="351pt"
 viewBox="0.00 0.00 716.00 350.91" xmlns="http://www.w3.org/2000/svg" xmlns:xlink="http://www.w3.org/1999/xlink">
<g id="graph0" class="graph" transform="scale(1 1) rotate(0) translate(4 346.91)">
<title>s_mpi_abort</title>
<!-- Node1 -->
<g id="Node000001" class="node">
<title>Node1</title>
<g id="a_Node000001"><a xlink:title="The subroutine terminates the MPI execution environment.">
<polygon fill="#999999" stroke="#666666" points="708,-188.31 631,-188.31 631,-169.31 708,-169.31 708,-188.31"/>
<text text-anchor="middle" x="669.5" y="-176.31" font-family="Helvetica,sans-Serif" font-size="10.00">s_mpi_abort</text>
</a>
</g>
</g>
<!-- Node2 -->
<g id="Node000002" class="node">
<title>Node2</title>
<g id="a_Node000002"><a xlink:href="namespacem__start__up.html#ad77478b402c186b1f620b7d14aab9123" target="_top" xlink:title="Checking that the user inputs make sense, i.e. that the individual choices are compatible with the co...">
<polygon fill="white" stroke="#666666" points="394,-314.81 278,-314.81 278,-284.81 394,-284.81 394,-314.81"/>
<text text-anchor="start" x="286" y="-302.81" font-family="Helvetica,sans-Serif" font-size="10.00">m_start_up::s_check</text>
<text text-anchor="middle" x="336" y="-291.81" font-family="Helvetica,sans-Serif" font-size="10.00">_input_file</text>
</a>
</g>
</g>
<!-- Node1&#45;&gt;Node2 -->
<g id="edge1_Node000001_Node000002" class="edge">
<title>Node1&#45;&gt;Node2</title>
<g id="a_edge1_Node000001_Node000002"><a xlink:title=" ">
<path fill="none" stroke="#63b8ff" d="M665.02,-198.34C658.12,-230.52 639.34,-293.83 595,-320.81 525.32,-363.2 424.76,-334.93 372.13,-314.88"/>
<polygon fill="#63b8ff" stroke="#63b8ff" points="668.49,-198.85 666.99,-188.36 661.62,-197.49 668.49,-198.85"/>
</a>
</g>
</g>
<!-- Node5 -->
<g id="Node000005" class="node">
<title>Node5</title>
<g id="a_Node000005"><a xlink:href="namespacem__checker.html#af3af1277501908ef5a97721ebf04061f" target="_top" xlink:title=" ">
<polygon fill="white" stroke="#666666" points="577,-311.81 463,-311.81 463,-281.81 577,-281.81 577,-311.81"/>
<text text-anchor="start" x="471" y="-299.81" font-family="Helvetica,sans-Serif" font-size="10.00">m_checker::s_check</text>
<text text-anchor="middle" x="520" y="-288.81" font-family="Helvetica,sans-Serif" font-size="10.00">_inputs</text>
</a>
</g>
</g>
<!-- Node1&#45;&gt;Node5 -->
<g id="edge4_Node000001_Node000005" class="edge">
<title>Node1&#45;&gt;Node5</title>
<g id="a_edge4_Node000001_Node000005"><a xlink:title=" ">
<path fill="none" stroke="#63b8ff" d="M658.6,-197.29C646.35,-218.47 623.58,-252.82 595,-272.81 589.58,-276.6 583.52,-279.82 577.27,-282.55"/>
<polygon fill="#63b8ff" stroke="#63b8ff" points="661.78,-198.77 663.61,-188.33 655.67,-195.35 661.78,-198.77"/>
</a>
</g>
</g>
<!-- Node6 -->
<g id="Node000006" class="node">
<title>Node6</title>
<g id="a_Node000006"><a xlink:href="m__variables__conversion_8fpp_8f90.html#a5bc6f1a313312f4085accb9a1c224b99" target="_top" xlink:title="The following procedure handles the conversion between the primitive variables and the conservative v...">
<polygon fill="white" stroke="#666666" points="595,-263.81 445,-263.81 445,-233.81 595,-233.81 595,-263.81"/>
<text text-anchor="start" x="453" y="-251.81" font-family="Helvetica,sans-Serif" font-size="10.00">s_convert_primitive</text>
<text text-anchor="middle" x="520" y="-240.81" font-family="Helvetica,sans-Serif" font-size="10.00">_to_conservative_variables</text>
</a>
</g>
</g>
<!-- Node1&#45;&gt;Node6 -->
<g id="edge6_Node000001_Node000006" class="edge">
<title>Node1&#45;&gt;Node6</title>
<g id="a_edge6_Node000001_Node000006"><a xlink:title=" ">
<path fill="none" stroke="#63b8ff" d="M646.96,-194.27C632.71,-203.98 613.35,-216.25 595,-224.81 588.02,-228.06 580.48,-231.06 572.98,-233.75"/>
<polygon fill="#63b8ff" stroke="#63b8ff" points="649.3,-196.9 655.51,-188.32 645.31,-191.15 649.3,-196.9"/>
</a>
</g>
</g>
<!-- Node8 -->
<g id="Node000008" class="node">
<title>Node8</title>
<g id="a_Node000008"><a xlink:href="m__phase__change_8fpp_8f90.html#a14fb0d0271f50c4373b2f17b8e88a770" target="_top" xlink:title="The purpose of this subroutine is to initialize the phase change module by setting the parameters nee...">
<polygon fill="white" stroke="#666666" points="589.5,-215.81 450.5,-215.81 450.5,-185.81 589.5,-185.81 589.5,-215.81"/>
<text text-anchor="start" x="458.5" y="-203.81" font-family="Helvetica,sans-Serif" font-size="10.00">s_initialize_phasechange</text>
<text text-anchor="middle" x="520" y="-192.81" font-family="Helvetica,sans-Serif" font-size="10.00">_module</text>
</a>
</g>
</g>
<!-- Node1&#45;&gt;Node8 -->
<g id="edge8_Node000001_Node000008" class="edge">
<title>Node1&#45;&gt;Node8</title>
<g id="a_edge8_Node000001_Node000008"><a xlink:title=" ">
<path fill="none" stroke="#63b8ff" d="M620.79,-185.92C610.8,-187.41 600.08,-189.01 589.5,-190.59"/>
<polygon fill="#63b8ff" stroke="#63b8ff" points="621.52,-189.35 630.9,-184.42 620.49,-182.43 621.52,-189.35"/>
</a>
</g>
</g>
<!-- Node10 -->
<g id="Node000010" class="node">
<title>Node10</title>
<g id="a_Node000010"><a xlink:href="namespacem__data__output.html#ae767b4364e76ee05872868171fd2f05d" target="_top" xlink:title=" ">
<polygon fill="white" stroke="#666666" points="590.5,-129.81 449.5,-129.81 449.5,-99.81 590.5,-99.81 590.5,-129.81"/>
<text text-anchor="start" x="457.5" y="-117.81" font-family="Helvetica,sans-Serif" font-size="10.00">m_data_output::s_open</text>
<text text-anchor="middle" x="520" y="-106.81" font-family="Helvetica,sans-Serif" font-size="10.00">_formatted_database_file</text>
</a>
</g>
</g>
<!-- Node1&#45;&gt;Node10 -->
<g id="edge10_Node000001_Node000010" class="edge">
<title>Node1&#45;&gt;Node10</title>
<g id="a_edge10_Node000001_Node000010"><a xlink:title=" ">
<path fill="none" stroke="#63b8ff" d="M640.05,-164.68C626.51,-158.11 610.03,-150.32 595,-143.81 584.11,-139.09 572.19,-134.27 561.15,-129.95"/>
<polygon fill="#63b8ff" stroke="#63b8ff" points="638.81,-167.97 649.33,-169.22 641.88,-161.68 638.81,-167.97"/>
</a>
</g>
</g>
<!-- Node12 -->
<g id="Node000012" class="node">
<title>Node12</title>
<g id="a_Node000012"><a xlink:href="namespacem__start__up.html#a3a19eb11ae434dc590a1bd7835442891" target="_top" xlink:title="Reads the configuration file post_process.inp, in order to populate parameters in module m_global_par...">
<polygon fill="white" stroke="#666666" points="391,-170.81 281,-170.81 281,-140.81 391,-140.81 391,-170.81"/>
<text text-anchor="start" x="289" y="-158.81" font-family="Helvetica,sans-Serif" font-size="10.00">m_start_up::s_read</text>
<text text-anchor="middle" x="336" y="-147.81" font-family="Helvetica,sans-Serif" font-size="10.00">_input_file</text>
</a>
</g>
</g>
<!-- Node1&#45;&gt;Node12 -->
<g id="edge13_Node000001_Node000012" class="edge">
<title>Node1&#45;&gt;Node12</title>
<g id="a_edge13_Node000001_Node000012"><a xlink:title=" ">
<path fill="none" stroke="#63b8ff" d="M620.69,-175.49C559.8,-171.27 454.86,-163.99 391.11,-159.56"/>
<polygon fill="#63b8ff" stroke="#63b8ff" points="620.58,-178.99 630.8,-176.19 621.06,-172.01 620.58,-178.99"/>
</a>
</g>
</g>
<!-- Node13 -->
<g id="Node000013" class="node">
<title>Node13</title>
<g id="a_Node000013"><a xlink:href="namespacem__data__input.html#a0dd37369dd52b1299b06563f96c25805" target="_top" xlink:title="This subroutine is called at each time&#45;step that has to be post&#45;processed in order to parallel&#45;read t...">
<polygon fill="white" stroke="#666666" points="581,-33.81 459,-33.81 459,-3.81 581,-3.81 581,-33.81"/>
<text text-anchor="start" x="467" y="-21.81" font-family="Helvetica,sans-Serif" font-size="10.00">m_data_input::s_read</text>
<text text-anchor="middle" x="520" y="-10.81" font-family="Helvetica,sans-Serif" font-size="10.00">_parallel_data_files</text>
</a>
</g>
</g>
<!-- Node1&#45;&gt;Node13 -->
<g id="edge15_Node000001_Node000013" class="edge">
<title>Node1&#45;&gt;Node13</title>
<g id="a_edge15_Node000001_Node000013"><a xlink:title=" ">
<path fill="none" stroke="#63b8ff" d="M663,-159.01C653.8,-129.48 632.49,-74.03 595,-42.81 590.85,-39.35 586.19,-36.39 581.28,-33.85"/>
<polygon fill="#63b8ff" stroke="#63b8ff" points="659.75,-160.36 665.94,-168.96 666.46,-158.38 659.75,-160.36"/>
</a>
</g>
</g>
<!-- Node16 -->
<g id="Node000016" class="node">
<title>Node16</title>
<g id="a_Node000016"><a xlink:href="namespacem__data__input.html#a9d69f4bcb771c60157b62bc4b04a6ba1" target="_top" xlink:title="This subroutine is called at each time&#45;step that has to be post&#45;processed in order to read the raw da...">
<polygon fill="white" stroke="#666666" points="581,-81.81 459,-81.81 459,-51.81 581,-51.81 581,-81.81"/>
<text text-anchor="start" x="467" y="-69.81" font-family="Helvetica,sans-Serif" font-size="10.00">m_data_input::s_read</text>
<text text-anchor="middle" x="520" y="-58.81" font-family="Helvetica,sans-Serif" font-size="10.00">_serial_data_files</text>
</a>
</g>
</g>
<!-- Node1&#45;&gt;Node16 -->
<g id="edge20_Node000001_Node000016" class="edge">
<title>Node1&#45;&gt;Node16</title>
<g id="a_edge20_Node000001_Node000016"><a xlink:title=" ">
<path fill="none" stroke="#63b8ff" d="M657.56,-160.33C644.88,-140.44 622.21,-109.2 595,-90.81 589.96,-87.4 584.41,-84.46 578.68,-81.91"/>
<polygon fill="#63b8ff" stroke="#63b8ff" points="654.72,-162.4 662.95,-169.07 660.68,-158.72 654.72,-162.4"/>
</a>
</g>
</g>
<!-- Node3 -->
<g id="Node000003" class="node">
<title>Node3</title>
<g id="a_Node000003"><a xlink:href="namespacem__start__up.html#a94bf50fef8770db4e616cddfe41fc312" target="_top" xlink:title=" ">
<polygon fill="white" stroke="#666666" points="223,-170.81 93,-170.81 93,-140.81 223,-140.81 223,-170.81"/>
<text text-anchor="start" x="101" y="-158.81" font-family="Helvetica,sans-Serif" font-size="10.00">m_start_up::s_initialize</text>
<text text-anchor="middle" x="158" y="-147.81" font-family="Helvetica,sans-Serif" font-size="10.00">_mpi_domain</text>
</a>
</g>
</g>
<!-- Node2&#45;&gt;Node3 -->
<g id="edge2_Node000002_Node000003" class="edge">
<title>Node2&#45;&gt;Node3</title>
<g id="a_edge2_Node000002_Node000003"><a xlink:title=" ">
<path fill="none" stroke="#63b8ff" d="M270.13,-280.12C267.67,-278.77 265.28,-277.33 263,-275.81 220.14,-247.16 184.4,-196.33 168.25,-171.02"/>
<polygon fill="#63b8ff" stroke="#63b8ff" points="268.79,-283.36 279.31,-284.65 271.89,-277.09 268.79,-283.36"/>
</a>
</g>
</g>
<!-- Node4 -->
<g id="Node000004" class="node">
<title>Node4</title>
<g id="a_Node000004"><a xlink:href="p__main_8fpp_8f90.html#aeec10ee8e2940c953967da3e374e1579" target="_top" xlink:title="The post&#45;process restructures raw unformatted data, outputted by the simulation, into a formatted dat...">
<polygon fill="white" stroke="#666666" points="53,-122.31 0,-122.31 0,-103.31 53,-103.31 53,-122.31"/>
<text text-anchor="middle" x="26.5" y="-110.31" font-family="Helvetica,sans-Serif" font-size="10.00">p_main</text>
</a>
</g>
</g>
<!-- Node3&#45;&gt;Node4 -->
<g id="edge3_Node000003_Node000004" class="edge">
<title>Node3&#45;&gt;Node4</title>
<g id="a_edge3_Node000003_Node000004"><a xlink:title=" ">
<path fill="none" stroke="#63b8ff" d="M101.91,-137.52C85.04,-131.91 67.27,-126.01 53.33,-121.38"/>
<polygon fill="#63b8ff" stroke="#63b8ff" points="101.11,-140.94 111.71,-140.77 103.32,-134.3 101.11,-140.94"/>
</a>
</g>
</g>
<!-- Node5&#45;&gt;Node2 -->
<g id="edge5_Node000005_Node000002" class="edge">
<title>Node5&#45;&gt;Node2</title>
<g id="a_edge5_Node000005_Node000002"><a xlink:title=" ">
<path fill="none" stroke="#63b8ff" d="M452.73,-297.9C433.54,-298.22 412.75,-298.56 394.16,-298.87"/>
<polygon fill="#63b8ff" stroke="#63b8ff" points="452.97,-301.4 462.91,-297.73 452.85,-294.4 452.97,-301.4"/>
</a>
</g>
</g>
<!-- Node7 -->
<g id="Node000007" class="node">
<title>Node7</title>
<g id="a_Node000007"><a xlink:href="m__variables__conversion_8fpp_8f90.html#a347ac5f0eb3158bfb1edcad667b6025c" target="_top" xlink:title=" ">
<polygon fill="white" stroke="#666666" points="409,-266.81 263,-266.81 263,-236.81 409,-236.81 409,-266.81"/>
<text text-anchor="start" x="271" y="-254.81" font-family="Helvetica,sans-Serif" font-size="10.00">__m_variables_conversion</text>
<text text-anchor="middle" x="336" y="-243.81" font-family="Helvetica,sans-Serif" font-size="10.00">_fpp_f90__</text>
</a>
</g>
</g>
<!-- Node6&#45;&gt;Node7 -->
<g id="edge7_Node000006_Node000007" class="edge">
<title>Node6&#45;&gt;Node7</title>
<g id="a_edge7_Node000006_Node000007"><a xlink:title=" ">
<path fill="none" stroke="#63b8ff" d="M434.93,-250.19C426.33,-250.33 417.65,-250.48 409.19,-250.62"/>
<polygon fill="#63b8ff" stroke="#63b8ff" points="435.03,-253.69 444.97,-250.03 434.92,-246.69 435.03,-253.69"/>
</a>
</g>
</g>
<!-- Node9 -->
<g id="Node000009" class="node">
<title>Node9</title>
<g id="a_Node000009"><a xlink:href="m__phase__change_8fpp_8f90.html#ae587a492aa621ac7170d6b53d585d5d4" target="_top" xlink:title=" ">
<polygon fill="white" stroke="#666666" points="402.5,-218.81 269.5,-218.81 269.5,-188.81 402.5,-188.81 402.5,-218.81"/>
<text text-anchor="start" x="277.5" y="-206.81" font-family="Helvetica,sans-Serif" font-size="10.00">__m_phase_change_fpp</text>
<text text-anchor="middle" x="336" y="-195.81" font-family="Helvetica,sans-Serif" font-size="10.00">_f90__</text>
</a>
</g>
</g>
<!-- Node8&#45;&gt;Node9 -->
<g id="edge9_Node000008_Node000009" class="edge">
<title>Node8&#45;&gt;Node9</title>
<g id="a_edge9_Node000008_Node000009"><a xlink:title=" ">
<path fill="none" stroke="#63b8ff" d="M440.09,-202.11C427.64,-202.31 414.88,-202.52 402.78,-202.72"/>
<polygon fill="#63b8ff" stroke="#63b8ff" points="440.51,-205.6 450.45,-201.94 440.4,-198.6 440.51,-205.6"/>
</a>
</g>
</g>
<!-- Node11 -->
<g id="Node000011" class="node">
<title>Node11</title>
<g id="a_Node000011"><a xlink:href="namespacem__start__up.html#a6b63dfe2b03558e6b89bc29e1401de48" target="_top" xlink:title=" ">
<polygon fill="white" stroke="#666666" points="227,-122.31 89,-122.31 89,-103.31 227,-103.31 227,-122.31"/>
<text text-anchor="middle" x="158" y="-110.31" font-family="Helvetica,sans-Serif" font-size="10.00">m_start_up::s_save_data</text>
</a>
</g>
</g>
<!-- Node10&#45;&gt;Node11 -->
<g id="edge11_Node000010_Node000011" class="edge">
<title>Node10&#45;&gt;Node11</title>
<g id="a_edge11_Node000010_Node000011"><a xlink:title=" ">
<path fill="none" stroke="#63b8ff" d="M438.78,-114.36C375.19,-114.01 287.32,-113.52 227.12,-113.19"/>
<polygon fill="#63b8ff" stroke="#63b8ff" points="439.14,-117.86 449.16,-114.42 439.18,-110.86 439.14,-117.86"/>
</a>
</g>
</g>
<!-- Node11&#45;&gt;Node4 -->
<g id="edge12_Node000011_Node000004" class="edge">
<title>Node11&#45;&gt;Node4</title>
<g id="a_edge12_Node000011_Node000004"><a xlink:title=" ">
<path fill="none" stroke="#63b8ff" d="M78.81,-112.81C69.67,-112.81 60.91,-112.81 53.29,-112.81"/>
<polygon fill="#63b8ff" stroke="#63b8ff" points="78.84,-116.31 88.84,-112.81 78.84,-109.31 78.84,-116.31"/>
</a>
</g>
</g>
<!-- Node12&#45;&gt;Node3 -->
<g id="edge14_Node000012_Node000003" class="edge">
<title>Node12&#45;&gt;Node3</title>
<g id="a_edge14_Node000012_Node000003"><a xlink:title=" ">
<path fill="none" stroke="#63b8ff" d="M270.32,-155.81C254.97,-155.81 238.59,-155.81 223.26,-155.81"/>
<polygon fill="#63b8ff" stroke="#63b8ff" points="270.76,-159.31 280.76,-155.81 270.76,-152.31 270.76,-159.31"/>
</a>
</g>
</g>
<!-- Node14 -->
<g id="Node000014" class="node">
<title>Node14</title>
<g id="a_Node000014"><a xlink:href="namespacem__data__input.html#a806c2edb19d6a47fd494f8491d2b93d3" target="_top" xlink:title="Computation of parameters, allocation procedures, and/or any other tasks needed to properly setup the...">
<polygon fill="white" stroke="#666666" points="407,-46.81 265,-46.81 265,-16.81 407,-16.81 407,-46.81"/>
<text text-anchor="start" x="273" y="-34.81" font-family="Helvetica,sans-Serif" font-size="10.00">m_data_input::s_initialize</text>
<text text-anchor="middle" x="336" y="-23.81" font-family="Helvetica,sans-Serif" font-size="10.00">_data_input_module</text>
</a>
</g>
</g>
<!-- Node13&#45;&gt;Node14 -->
<g id="edge16_Node000013_Node000014" class="edge">
<title>Node13&#45;&gt;Node14</title>
<g id="a_edge16_Node000013_Node000014"><a xlink:title=" ">
<path fill="none" stroke="#63b8ff" d="M448.64,-23.83C435.02,-24.81 420.75,-25.83 407.14,-26.8"/>
<polygon fill="#63b8ff" stroke="#63b8ff" points="449.18,-27.3 458.9,-23.1 448.68,-20.32 449.18,-27.3"/>
</a>
</g>
</g>
<!-- Node15 -->
<g id="Node000015" class="node">
<title>Node15</title>
<g id="a_Node000015"><a xlink:href="namespacem__start__up.html#a99cb174d3205e5613dd370a10577fae2" target="_top" xlink:title=" ">
<polygon fill="white" stroke="#666666" points="223,-65.81 93,-65.81 93,-35.81 223,-35.81 223,-65.81"/>
<text text-anchor="start" x="101" y="-53.81" font-family="Helvetica,sans-Serif" font-size="10.00">m_start_up::s_initialize</text>
<text text-anchor="middle" x="158" y="-42.81" font-family="Helvetica,sans-Serif" font-size="10.00">_modules</text>
</a>
</g>
</g>
<!-- Node13&#45;&gt;Node15 -->
<g id="edge19_Node000013_Node000015" class="edge">
<title>Node13&#45;&gt;Node15</title>
<g id="a_edge19_Node000013_Node000015"><a xlink:title=" ">
<path fill="none" stroke="#63b8ff" d="M448.81,-6.89C396.98,-0.24 324.97,4.5 263,-7.81 236.17,-13.14 207.58,-25.5 187.18,-35.6"/>
<polygon fill="#63b8ff" stroke="#63b8ff" points="448.52,-10.38 458.9,-8.24 449.45,-3.45 448.52,-10.38"/>
</a>
</g>
</g>
<!-- Node14&#45;&gt;Node15 -->
<g id="edge17_Node000014_Node000015" class="edge">
<title>Node14&#45;&gt;Node15</title>
<g id="a_edge17_Node000014_Node000015"><a xlink:title=" ">
<path fill="none" stroke="#63b8ff" d="M254.82,-40.46C244.19,-41.61 233.42,-42.77 223.12,-43.89"/>
<polygon fill="#63b8ff" stroke="#63b8ff" points="255.37,-43.92 264.93,-39.37 254.62,-36.97 255.37,-43.92"/>
</a>
</g>
</g>
<!-- Node15&#45;&gt;Node4 -->
<g id="edge18_Node000015_Node000004" class="edge">
<title>Node15&#45;&gt;Node4</title>
<g id="a_edge18_Node000015_Node000004"><a xlink:title=" ">
<path fill="none" stroke="#63b8ff" d="M116.5,-70.2C93.62,-81.15 66.01,-94.37 47.67,-103.15"/>
<polygon fill="#63b8ff" stroke="#63b8ff" points="118.14,-73.29 125.65,-65.82 115.12,-66.98 118.14,-73.29"/>
</a>
</g>
</g>
<!-- Node16&#45;&gt;Node14 -->
<g id="edge21_Node000016_Node000014" class="edge">
<title>Node16&#45;&gt;Node14</title>
<g id="a_edge21_Node000016_Node000014"><a xlink:title=" ">
<path fill="none" stroke="#63b8ff" d="M449.04,-53.35C435.3,-50.71 420.88,-47.94 407.14,-45.3"/>
<polygon fill="#63b8ff" stroke="#63b8ff" points="448.42,-56.8 458.9,-55.25 449.74,-49.92 448.42,-56.8"/>
</a>
</g>
</g>
<!-- Node16&#45;&gt;Node15 -->
<g id="edge22_Node000016_Node000015" class="edge">
<title>Node16&#45;&gt;Node15</title>
<g id="a_edge22_Node000016_Node000015"><a xlink:title=" ">
<path fill="none" stroke="#63b8ff" d="M448.98,-63.9C397.52,-61.73 325.91,-58.67 263,-55.81 250.09,-55.22 236.28,-54.57 223.07,-53.94"/>
<polygon fill="#63b8ff" stroke="#63b8ff" points="448.86,-67.39 458.99,-64.32 449.15,-60.4 448.86,-67.39"/>
</a>
</g>
</g>
</g>
</svg>
