<?xml version="1.0" encoding="UTF-8" standalone="no"?>
<!DOCTYPE svg PUBLIC "-//W3C//DTD SVG 1.1//EN"
 "http://www.w3.org/Graphics/SVG/1.1/DTD/svg11.dtd">
<!-- Generated by graphviz version 2.43.0 (0)
 -->
<!-- Title: m_data_input::s_initialize_data_input_module Pages: 1 -->
<!--zoomable 709 -->

<svg id="main" version="1.1" xmlns="http://www.w3.org/2000/svg" xmlns:xlink="http://www.w3.org/1999/xlink" xml:space="preserve" onload="init(evt)">

<style type="text/css"><![CDATA[
.node, .edge {opacity: 0.7;}
.node.selected, .edge.selected {opacity: 1;}
.edge:hover path { stroke: red; }
.edge:hover polygon { stroke: red; fill: red; }
]]></style>

<defs>
  <circle id="rim" cx="0" cy="0" r="7"/>
  <circle id="rim2" cx="0" cy="0" r="3.5"/>
  <g id="zoomPlus">
    <use xlink:href="#rim" fill="#404040"><set attributeName="fill" to="#808080" begin="zoomplus.mouseover" end="zoomplus.mouseout"/></use>
    <path d="M-4,0h8M0,-4v8" fill="none" stroke="white" stroke-width="1.5" pointer-events="none"/>
  </g>
  <g id="zoomMin">
    <use xlink:href="#rim" fill="#404040"><set attributeName="fill" to="#808080" begin="zoomminus.mouseover" end="zoomminus.mouseout"/></use>
    <path d="M-4,0h8" fill="none" stroke="white" stroke-width="1.5" pointer-events="none"/>
  </g>
  <g id="arrowUp" transform="translate(30 24)">
    <use xlink:href="#rim"/>
    <path pointer-events="none" fill="none" stroke="white" stroke-width="1.5" d="M0,-3.0v7 M-2.5,-0.5L0,-3.0L2.5,-0.5"/>
  </g>
  <g id="arrowRight" transform="rotate(90) translate(36 -43)">
    <use xlink:href="#rim"/>
    <path pointer-events="none" fill="none" stroke="white" stroke-width="1.5" d="M0,-3.0v7 M-2.5,-0.5L0,-3.0L2.5,-0.5"/>
  </g>
  <g id="arrowDown" transform="rotate(180) translate(-30 -48)">
    <use xlink:href="#rim"/>
    <path pointer-events="none" fill="none" stroke="white" stroke-width="1.5" d="M0,-3.0v7 M-2.5,-0.5L0,-3.0L2.5,-0.5"/>
  </g>
  <g id="arrowLeft" transform="rotate(270) translate(-36 17)">
    <use xlink:href="#rim"/>
    <path pointer-events="none" fill="none" stroke="white" stroke-width="1.5" d="M0,-3.0v7 M-2.5,-0.5L0,-3.0L2.5,-0.5"/>
  </g>
  <g id="resetDef">
    <use xlink:href="#rim2" fill="#404040"><set attributeName="fill" to="#808080" begin="reset.mouseover" end="reset.mouseout"/></use>
  </g>
</defs>
<script type="application/ecmascript">
var viewWidth = 1121;
var viewHeight = 709;
var sectionId = 'dynsection-1';
</script>
<script type="application/ecmascript" xlink:href="svg.min.js"/>
<svg id="graph" class="graph">
<g id="viewport">
<title>m_data_input::s_initialize_data_input_module</title>
<!-- Node1 -->
<g id="Node000001" class="node">
<title>Node1</title>
<g id="a_Node000001"><a xlink:title="Computation of parameters, allocation procedures, and/or any other tasks needed to properly setup the...">
<polygon fill="#999999" stroke="#666666" points="142,-427 0,-427 0,-397 142,-397 142,-427"/>
<text text-anchor="start" x="8" y="-415" font-family="Helvetica,sans-Serif" font-size="10.00">m_data_input::s_initialize</text>
<text text-anchor="middle" x="71" y="-404" font-family="Helvetica,sans-Serif" font-size="10.00">_data_input_module</text>
</a>
</g>
</g>
<!-- Node2 -->
<g id="Node000002" class="node">
<title>Node2</title>
<g id="a_Node000002"><a xlink:href="namespacem__data__input.html#a0720f62ee34c602705db6ab4f9b7641e" target="_top" xlink:title="Helper subroutine to allocate field arrays for given dimensionality.">
<polygon fill="white" stroke="#666666" points="317,-475 178,-475 178,-445 317,-445 317,-475"/>
<text text-anchor="start" x="186" y="-463" font-family="Helvetica,sans-Serif" font-size="10.00">m_data_input::s_allocate</text>
<text text-anchor="middle" x="247.5" y="-452" font-family="Helvetica,sans-Serif" font-size="10.00">_field_arrays</text>
</a>
</g>
</g>
<!-- Node1&#45;&gt;Node2 -->
<g id="edge1_Node000001_Node000002" class="edge">
<title>Node1&#45;&gt;Node2</title>
<g id="a_edge1_Node000001_Node000002"><a xlink:title=" ">
<path fill="none" stroke="#63b8ff" d="M126.73,-427.06C144.36,-431.9 164.04,-437.32 182.29,-442.34"/>
<polygon fill="#63b8ff" stroke="#63b8ff" points="181.39,-445.72 191.96,-445 183.25,-438.97 181.39,-445.72"/>
</a>
</g>
</g>
<!-- Node3 -->
<g id="Node000003" class="node">
<title>Node3</title>
<g id="a_Node000003"><a xlink:href="namespacem__data__input.html#a1e9dfd5c6be77bbfa34abb90c77216b4" target="_top" xlink:title="Parallel&#45;read the raw data files present in the corresponding time&#45;step directory and to populate the...">
<polygon fill="white" stroke="#666666" points="308.5,-427 186.5,-427 186.5,-397 308.5,-397 308.5,-427"/>
<text text-anchor="start" x="194.5" y="-415" font-family="Helvetica,sans-Serif" font-size="10.00">m_data_input::s_read</text>
<text text-anchor="middle" x="247.5" y="-404" font-family="Helvetica,sans-Serif" font-size="10.00">_parallel_data_files</text>
</a>
</g>
</g>
<!-- Node1&#45;&gt;Node3 -->
<g id="edge2_Node000001_Node000003" class="edge">
<title>Node1&#45;&gt;Node3</title>
<g id="a_edge2_Node000001_Node000003"><a xlink:title=" ">
<path fill="none" stroke="#63b8ff" d="M142.22,-412C153.39,-412 164.94,-412 176.11,-412"/>
<polygon fill="#63b8ff" stroke="#63b8ff" points="176.24,-415.5 186.24,-412 176.24,-408.5 176.24,-415.5"/>
</a>
</g>
</g>
<!-- Node19 -->
<g id="Node000019" class="node">
<title>Node19</title>
<g id="a_Node000019"><a xlink:href="namespacem__data__input.html#a94700a0b549ac60847be9f4f0ab94adf" target="_top" xlink:title="Read the raw data files present in the corresponding time&#45;step directory and to populate the associat...">
<polygon fill="white" stroke="#666666" points="506.5,-154 384.5,-154 384.5,-124 506.5,-124 506.5,-154"/>
<text text-anchor="start" x="392.5" y="-142" font-family="Helvetica,sans-Serif" font-size="10.00">m_data_input::s_read</text>
<text text-anchor="middle" x="445.5" y="-131" font-family="Helvetica,sans-Serif" font-size="10.00">_serial_data_files</text>
</a>
</g>
</g>
<!-- Node1&#45;&gt;Node19 -->
<g id="edge27_Node000001_Node000019" class="edge">
<title>Node1&#45;&gt;Node19</title>
<g id="a_edge27_Node000001_Node000019"><a xlink:title=" ">
<path fill="none" stroke="#63b8ff" d="M86.47,-396.71C125.84,-355.86 239.54,-242.67 353,-175 363.87,-168.51 376.13,-162.77 388.05,-157.87"/>
<polygon fill="#63b8ff" stroke="#63b8ff" points="389.5,-161.06 397.51,-154.13 386.92,-154.55 389.5,-161.06"/>
</a>
</g>
</g>
<!-- Node4 -->
<g id="Node000004" class="node">
<title>Node4</title>
<g id="a_Node000004"><a xlink:href="namespacem__mpi__common.html#a60205c097faf19c0240af2eb40b28fee" target="_top" xlink:title="Populate the local cell&#45;boundary, cell&#45;center, and cell&#45;width arrays in one direction directly from t...">
<polygon fill="white" stroke="#666666" points="516.5,-534 374.5,-534 374.5,-504 516.5,-504 516.5,-534"/>
<text text-anchor="start" x="382.5" y="-522" font-family="Helvetica,sans-Serif" font-size="10.00">m_mpi_common::s_apply</text>
<text text-anchor="middle" x="445.5" y="-511" font-family="Helvetica,sans-Serif" font-size="10.00">_grid_from_global_dim</text>
</a>
</g>
</g>
<!-- Node3&#45;&gt;Node4 -->
<g id="edge3_Node000003_Node000004" class="edge">
<title>Node3&#45;&gt;Node4</title>
<g id="a_edge3_Node000003_Node000004"><a xlink:title=" ">
<path fill="none" stroke="#63b8ff" d="M303.1,-427.12C308.06,-429.65 312.79,-432.59 317,-436 340.89,-455.31 328.36,-476.66 353,-495 356.83,-497.85 360.98,-500.37 365.31,-502.58"/>
<polygon fill="#63b8ff" stroke="#63b8ff" points="363.88,-505.78 374.44,-506.72 366.78,-499.4 363.88,-505.78"/>
</a>
</g>
</g>
<!-- Node5 -->
<g id="Node000005" class="node">
<title>Node5</title>
<g id="a_Node000005"><a xlink:href="namespacem__boundary__io.html#a54cc36c0c0b8f86ec53db19e98570fc7" target="_top" xlink:title="Initialize the per&#45;cell boundary condition type arrays with the global default BC values.">
<polygon fill="white" stroke="#666666" points="732,-154 592,-154 592,-124 732,-124 732,-154"/>
<text text-anchor="start" x="600" y="-142" font-family="Helvetica,sans-Serif" font-size="10.00">m_boundary_io::s_assign</text>
<text text-anchor="middle" x="662" y="-131" font-family="Helvetica,sans-Serif" font-size="10.00">_default_bc_type</text>
</a>
</g>
</g>
<!-- Node3&#45;&gt;Node5 -->
<g id="edge4_Node000003_Node000005" class="edge">
<title>Node3&#45;&gt;Node5</title>
<g id="a_edge4_Node000003_Node000005"><a xlink:title=" ">
<path fill="none" stroke="#63b8ff" d="M257.88,-396.86C274.51,-370.98 311.34,-317.65 353,-283 438.94,-211.54 470.34,-204.8 574,-163 579.09,-160.95 584.41,-159.01 589.8,-157.19"/>
<polygon fill="#63b8ff" stroke="#63b8ff" points="591.12,-160.44 599.57,-154.05 588.98,-153.78 591.12,-160.44"/>
</a>
</g>
</g>
<!-- Node6 -->
<g id="Node000006" class="node">
<title>Node6</title>
<g id="a_Node000006"><a xlink:href="namespacem__mpi__common.html#a43b25b98517883b9eb717081e80a068e" target="_top" xlink:title="Abort naming the file if MPI_FILE_OPEN failed. File errors default to MPI_ERRORS_RETURN,...">
<polygon fill="white" stroke="#666666" points="936,-389 793,-389 793,-359 936,-359 936,-389"/>
<text text-anchor="start" x="801" y="-377" font-family="Helvetica,sans-Serif" font-size="10.00">m_mpi_common::s_check</text>
<text text-anchor="middle" x="864.5" y="-366" font-family="Helvetica,sans-Serif" font-size="10.00">_mpi_file_open</text>
</a>
</g>
</g>
<!-- Node3&#45;&gt;Node6 -->
<g id="edge5_Node000003_Node000006" class="edge">
<title>Node3&#45;&gt;Node6</title>
<g id="a_edge5_Node000003_Node000006"><a xlink:title=" ">
<path fill="none" stroke="#63b8ff" d="M308.59,-408.29C419.71,-401.42 657.39,-386.74 782.56,-379"/>
<polygon fill="#63b8ff" stroke="#63b8ff" points="783.08,-382.48 792.84,-378.37 782.65,-375.49 783.08,-382.48"/>
</a>
</g>
</g>
<!-- Node7 -->
<g id="Node000007" class="node">
<title>Node7</title>
<g id="a_Node000007"><a xlink:href="namespacem__mpi__common.html#a04cfc0bdb377a0ce2f9fd478e4bb3807" target="_top" xlink:title="The subroutine terminates the MPI execution environment.">
<polygon fill="white" stroke="#666666" points="1113,-389 979,-389 979,-359 1113,-359 1113,-389"/>
<text text-anchor="start" x="987" y="-377" font-family="Helvetica,sans-Serif" font-size="10.00">m_mpi_common::s_mpi</text>
<text text-anchor="middle" x="1046" y="-366" font-family="Helvetica,sans-Serif" font-size="10.00">_abort</text>
</a>
</g>
</g>
<!-- Node3&#45;&gt;Node7 -->
<g id="edge8_Node000003_Node000007" class="edge">
<title>Node3&#45;&gt;Node7</title>
<g id="a_edge8_Node000003_Node000007"><a xlink:title=" ">
<path fill="none" stroke="#63b8ff" d="M306.68,-427.16C310.5,-429.67 314,-432.59 317,-436 368,-494 300.9,-548.99 353,-606 473.77,-738.14 573.14,-701.71 750,-674 839.01,-660.05 876.37,-672.64 943,-612 1007.45,-553.35 1032.78,-447.06 1041.28,-398.91"/>
<polygon fill="#63b8ff" stroke="#63b8ff" points="1044.73,-399.46 1042.93,-389.02 1037.83,-398.31 1044.73,-399.46"/>
</a>
</g>
</g>
<!-- Node8 -->
<g id="Node000008" class="node">
<title>Node8</title>
<g id="a_Node000008"><a xlink:href="namespacem__helper.html#afd343d70a36c65cb7be86a183aa594ac" target="_top" xlink:title="Convert an integer to its trimmed string representation.">
<polygon fill="white" stroke="#666666" points="927,-545.5 802,-545.5 802,-526.5 927,-526.5 927,-545.5"/>
<text text-anchor="middle" x="864.5" y="-533.5" font-family="Helvetica,sans-Serif" font-size="10.00">m_helper::s_int_to_str</text>
</a>
</g>
</g>
<!-- Node3&#45;&gt;Node8 -->
<g id="edge7_Node000003_Node000008" class="edge">
<title>Node3&#45;&gt;Node8</title>
<g id="a_edge7_Node000003_Node000008"><a xlink:title=" ">
<path fill="none" stroke="#63b8ff" d="M305.6,-427.16C309.76,-429.67 313.64,-432.59 317,-436 352.26,-471.7 319.9,-505.29 353,-543 425.12,-625.16 467.49,-626.37 574,-651 650.21,-668.63 677.83,-681.17 750,-651 797.23,-631.26 834.8,-581.23 852.48,-554.12"/>
<polygon fill="#63b8ff" stroke="#63b8ff" points="855.5,-555.9 857.89,-545.57 849.58,-552.15 855.5,-555.9"/>
</a>
</g>
</g>
<!-- Node9 -->
<g id="Node000009" class="node">
<title>Node9</title>
<g id="a_Node000009"><a xlink:href="namespacem__boundary__io.html#ab6281588667a9843f9e3829c2a68c851" target="_top" xlink:title="Read boundary condition type and buffer data from per&#45;rank parallel files using MPI I/O.">
<polygon fill="white" stroke="#666666" points="538,-322 353,-322 353,-292 538,-292 538,-322"/>
<text text-anchor="start" x="361" y="-310" font-family="Helvetica,sans-Serif" font-size="10.00">m_boundary_io::s_read</text>
<text text-anchor="middle" x="445.5" y="-299" font-family="Helvetica,sans-Serif" font-size="10.00">_parallel_boundary_condition_files</text>
</a>
</g>
</g>
<!-- Node3&#45;&gt;Node9 -->
<g id="edge9_Node000003_Node000009" class="edge">
<title>Node3&#45;&gt;Node9</title>
<g id="a_edge9_Node000003_Node000009"><a xlink:title=" ">
<path fill="none" stroke="#63b8ff" d="M276.58,-396.96C310.93,-378.55 369.19,-347.34 407.25,-326.95"/>
<polygon fill="#63b8ff" stroke="#63b8ff" points="409.31,-329.82 416.47,-322.02 406,-323.65 409.31,-329.82"/>
</a>
</g>
</g>
<!-- Node13 -->
<g id="Node000013" class="node">
<title>Node13</title>
<g id="a_Node000013"><a xlink:href="namespacem__data__input.html#a5139fe69b24a1dc0e32b632e9bf5d0ee" target="_top" xlink:title="Helper subroutine to read parallel conservative variable data.">
<polygon fill="white" stroke="#666666" points="522.5,-486 368.5,-486 368.5,-456 522.5,-456 522.5,-486"/>
<text text-anchor="start" x="376.5" y="-474" font-family="Helvetica,sans-Serif" font-size="10.00">m_data_input::s_read</text>
<text text-anchor="middle" x="445.5" y="-463" font-family="Helvetica,sans-Serif" font-size="10.00">_parallel_conservative_data</text>
</a>
</g>
</g>
<!-- Node3&#45;&gt;Node13 -->
<g id="edge13_Node000003_Node000013" class="edge">
<title>Node3&#45;&gt;Node13</title>
<g id="a_edge13_Node000003_Node000013"><a xlink:title=" ">
<path fill="none" stroke="#63b8ff" d="M298.47,-427.04C324.73,-434.95 357.11,-444.69 384.7,-453"/>
<polygon fill="#63b8ff" stroke="#63b8ff" points="384.04,-456.46 394.63,-455.99 386.06,-449.75 384.04,-456.46"/>
</a>
</g>
</g>
<!-- Node6&#45;&gt;Node7 -->
<g id="edge6_Node000006_Node000007" class="edge">
<title>Node6&#45;&gt;Node7</title>
<g id="a_edge6_Node000006_Node000007"><a xlink:title=" ">
<path fill="none" stroke="#63b8ff" d="M936.19,-374C946.82,-374 957.82,-374 968.57,-374"/>
<polygon fill="#63b8ff" stroke="#63b8ff" points="968.77,-377.5 978.77,-374 968.77,-370.5 968.77,-377.5"/>
</a>
</g>
</g>
<!-- Node10 -->
<g id="Node000010" class="node">
<title>Node10</title>
<g id="a_Node000010"><a xlink:href="namespacem__compile__specific.html#a9cf8c029e502931415929734c03f340d" target="_top" xlink:title="Inquire on the existence of a directory or file.">
<polygon fill="white" stroke="#666666" points="718.5,-202 605.5,-202 605.5,-172 718.5,-172 718.5,-202"/>
<text text-anchor="start" x="613.5" y="-190" font-family="Helvetica,sans-Serif" font-size="10.00">m_compile_specific</text>
<text text-anchor="middle" x="662" y="-179" font-family="Helvetica,sans-Serif" font-size="10.00">::my_inquire</text>
</a>
</g>
</g>
<!-- Node9&#45;&gt;Node10 -->
<g id="edge10_Node000009_Node000010" class="edge">
<title>Node9&#45;&gt;Node10</title>
<g id="a_edge10_Node000009_Node000010"><a xlink:title=" ">
<path fill="none" stroke="#63b8ff" d="M474.13,-291.91C492.94,-281.06 517.96,-265.5 538,-249 555.96,-234.21 554.06,-222.98 574,-211 580.71,-206.97 588.1,-203.6 595.67,-200.79"/>
<polygon fill="#63b8ff" stroke="#63b8ff" points="596.97,-204.05 605.31,-197.51 594.71,-197.42 596.97,-204.05"/>
</a>
</g>
</g>
<!-- Node11 -->
<g id="Node000011" class="node">
<title>Node11</title>
<g id="a_Node000011"><a xlink:href="namespacem__boundary__io.html#a74922617e3b2c7a414056d32bc6aa14d" target="_top" xlink:title="Create MPI derived datatypes for boundary condition type arrays and buffer arrays used in parallel I/...">
<polygon fill="white" stroke="#666666" points="731.5,-346 592.5,-346 592.5,-316 731.5,-316 731.5,-346"/>
<text text-anchor="start" x="600.5" y="-334" font-family="Helvetica,sans-Serif" font-size="10.00">m_boundary_io::s_create</text>
<text text-anchor="middle" x="662" y="-323" font-family="Helvetica,sans-Serif" font-size="10.00">_mpi_types</text>
</a>
</g>
</g>
<!-- Node9&#45;&gt;Node11 -->
<g id="edge11_Node000009_Node000011" class="edge">
<title>Node9&#45;&gt;Node11</title>
<g id="a_edge11_Node000009_Node000011"><a xlink:title=" ">
<path fill="none" stroke="#63b8ff" d="M538.09,-317.25C552.75,-318.89 567.81,-320.57 582.14,-322.18"/>
<polygon fill="#63b8ff" stroke="#63b8ff" points="582.1,-325.69 592.43,-323.33 582.88,-318.74 582.1,-325.69"/>
</a>
</g>
</g>
<!-- Node12 -->
<g id="Node000012" class="node">
<title>Node12</title>
<g id="a_Node000012"><a xlink:href="namespacem__delay__file__access.html#af30d2642ae2ac77620de729f4c78b1bf" target="_top" xlink:title="Introduce a rank&#45;dependent busy&#45;wait delay to stagger parallel file access and reduce I/O contention.">
<polygon fill="white" stroke="#666666" points="721.5,-298 602.5,-298 602.5,-268 721.5,-268 721.5,-298"/>
<text text-anchor="start" x="610.5" y="-286" font-family="Helvetica,sans-Serif" font-size="10.00">m_delay_file_access</text>
<text text-anchor="middle" x="662" y="-275" font-family="Helvetica,sans-Serif" font-size="10.00">::s_delay_file_access</text>
</a>
</g>
</g>
<!-- Node9&#45;&gt;Node12 -->
<g id="edge12_Node000009_Node000012" class="edge">
<title>Node9&#45;&gt;Node12</title>
<g id="a_edge12_Node000009_Node000012"><a xlink:title=" ">
<path fill="none" stroke="#63b8ff" d="M538.09,-296.75C556.27,-294.72 575.06,-292.62 592.32,-290.68"/>
<polygon fill="#63b8ff" stroke="#63b8ff" points="592.74,-294.16 602.29,-289.57 591.96,-287.2 592.74,-294.16"/>
</a>
</g>
</g>
<!-- Node13&#45;&gt;Node6 -->
<g id="edge14_Node000013_Node000006" class="edge">
<title>Node13&#45;&gt;Node6</title>
<g id="a_edge14_Node000013_Node000006"><a xlink:title=" ">
<path fill="none" stroke="#63b8ff" d="M511.2,-455.95C586.34,-438.47 710.06,-409.69 789.1,-391.31"/>
<polygon fill="#63b8ff" stroke="#63b8ff" points="790.05,-394.68 798.99,-389.01 788.46,-387.86 790.05,-394.68"/>
</a>
</g>
</g>
<!-- Node13&#45;&gt;Node7 -->
<g id="edge19_Node000013_Node000007" class="edge">
<title>Node13&#45;&gt;Node7</title>
<g id="a_edge19_Node000013_Node000007"><a xlink:title=" ">
<path fill="none" stroke="#63b8ff" d="M522.66,-483.59C528.31,-486.65 533.54,-490.4 538,-495 587.56,-546.06 518.32,-606.7 574,-651 635.22,-699.7 673.85,-668.89 750,-651 843.26,-629.09 873.53,-620.97 943,-555 990.81,-509.59 1022.35,-436.73 1036.48,-398.79"/>
<polygon fill="#63b8ff" stroke="#63b8ff" points="1039.89,-399.66 1040,-389.06 1033.31,-397.27 1039.89,-399.66"/>
</a>
</g>
</g>
<!-- Node13&#45;&gt;Node8 -->
<g id="edge18_Node000013_Node000008" class="edge">
<title>Node13&#45;&gt;Node8</title>
<g id="a_edge18_Node000013_Node000008"><a xlink:title=" ">
<path fill="none" stroke="#63b8ff" d="M513.24,-486.06C521.7,-488.68 530.14,-491.65 538,-495 555.25,-502.35 556.13,-511.33 574,-517 645.6,-539.7 732.02,-542.4 791.69,-540.7"/>
<polygon fill="#63b8ff" stroke="#63b8ff" points="791.9,-544.2 801.77,-540.36 791.66,-537.2 791.9,-544.2"/>
</a>
</g>
</g>
<!-- Node14 -->
<g id="Node000014" class="node">
<title>Node14</title>
<g id="a_Node000014"><a xlink:href="namespacem__mpi__common.html#a83b21be0eb35c42744a1fe721197bdaa" target="_top" xlink:title="Set up MPI I/O data views and variable pointers for parallel file output.">
<polygon fill="white" stroke="#666666" points="943,-465 786,-465 786,-435 943,-435 943,-465"/>
<text text-anchor="start" x="794" y="-453" font-family="Helvetica,sans-Serif" font-size="10.00">m_mpi_common::s_initialize</text>
<text text-anchor="middle" x="864.5" y="-442" font-family="Helvetica,sans-Serif" font-size="10.00">_mpi_data</text>
</a>
</g>
</g>
<!-- Node13&#45;&gt;Node14 -->
<g id="edge15_Node000013_Node000014" class="edge">
<title>Node13&#45;&gt;Node14</title>
<g id="a_edge15_Node000013_Node000014"><a xlink:title=" ">
<path fill="none" stroke="#63b8ff" d="M522.98,-467.15C594.28,-463.56 700.57,-458.21 775.39,-454.44"/>
<polygon fill="#63b8ff" stroke="#63b8ff" points="775.92,-457.91 785.73,-453.92 775.57,-450.92 775.92,-457.91"/>
</a>
</g>
</g>
<!-- Node15 -->
<g id="Node000015" class="node">
<title>Node15</title>
<g id="a_Node000015"><a xlink:href="namespacem__mpi__common.html#ac5f668590f96ae130c6d2107ca3fb620" target="_top" xlink:title="Set up MPI I/O data views for downsampled (coarsened) parallel file output.">
<polygon fill="white" stroke="#666666" points="740.5,-642 583.5,-642 583.5,-612 740.5,-612 740.5,-642"/>
<text text-anchor="start" x="591.5" y="-630" font-family="Helvetica,sans-Serif" font-size="10.00">m_mpi_common::s_initialize</text>
<text text-anchor="middle" x="662" y="-619" font-family="Helvetica,sans-Serif" font-size="10.00">_mpi_data_ds</text>
</a>
</g>
</g>
<!-- Node13&#45;&gt;Node15 -->
<g id="edge17_Node000013_Node000015" class="edge">
<title>Node13&#45;&gt;Node15</title>
<g id="a_edge17_Node000013_Node000015"><a xlink:title=" ">
<path fill="none" stroke="#63b8ff" d="M522.64,-484.29C528.23,-487.2 533.45,-490.73 538,-495 574.92,-529.59 537.29,-568.18 574,-603 575.14,-604.08 576.32,-605.11 577.54,-606.09"/>
<polygon fill="#63b8ff" stroke="#63b8ff" points="575.87,-609.19 586.09,-611.96 579.82,-603.42 575.87,-609.19"/>
</a>
</g>
</g>
<!-- Node16 -->
<g id="Node000016" class="node">
<title>Node16</title>
<g id="a_Node000016"><a xlink:href="namespacem__mpi__common.html#a1073fc1fcb6f3b9394606d5c9285e9f0" target="_top" xlink:title="Halts all processes until all have reached barrier.">
<polygon fill="white" stroke="#666666" points="729,-594 595,-594 595,-564 729,-564 729,-594"/>
<text text-anchor="start" x="603" y="-582" font-family="Helvetica,sans-Serif" font-size="10.00">m_mpi_common::s_mpi</text>
<text text-anchor="middle" x="662" y="-571" font-family="Helvetica,sans-Serif" font-size="10.00">_barrier</text>
</a>
</g>
</g>
<!-- Node13&#45;&gt;Node16 -->
<g id="edge20_Node000013_Node000016" class="edge">
<title>Node13&#45;&gt;Node16</title>
<g id="a_edge20_Node000013_Node000016"><a xlink:title=" ">
<path fill="none" stroke="#63b8ff" d="M522.45,-486.06C527.94,-488.59 533.2,-491.55 538,-495 561.71,-512.07 550.86,-532.17 574,-550 578.69,-553.61 583.84,-556.78 589.24,-559.57"/>
<polygon fill="#63b8ff" stroke="#63b8ff" points="587.96,-562.84 598.5,-563.91 590.93,-556.5 587.96,-562.84"/>
</a>
</g>
</g>
<!-- Node17 -->
<g id="Node000017" class="node">
<title>Node17</title>
<g id="a_Node000017"><a xlink:href="namespacem__data__input.html#af83b04522a4d96faabec6f8142f90e80" target="_top" xlink:title="Helper subroutine to read IB data files.">
<polygon fill="white" stroke="#666666" points="723,-250 601,-250 601,-220 723,-220 723,-250"/>
<text text-anchor="start" x="609" y="-238" font-family="Helvetica,sans-Serif" font-size="10.00">m_data_input::s_read</text>
<text text-anchor="middle" x="662" y="-227" font-family="Helvetica,sans-Serif" font-size="10.00">_ib_data_files</text>
</a>
</g>
</g>
<!-- Node13&#45;&gt;Node17 -->
<g id="edge21_Node000013_Node000017" class="edge">
<title>Node13&#45;&gt;Node17</title>
<g id="a_edge21_Node000013_Node000017"><a xlink:title=" ">
<path fill="none" stroke="#63b8ff" d="M457.25,-455.83C474.99,-430.52 511.11,-377.83 538,-331 555.82,-299.97 546.37,-281.72 574,-259 579.2,-254.72 585.11,-251.2 591.35,-248.31"/>
<polygon fill="#63b8ff" stroke="#63b8ff" points="592.73,-251.52 600.66,-244.5 590.08,-245.04 592.73,-251.52"/>
</a>
</g>
</g>
<!-- Node18 -->
<g id="Node000018" class="node">
<title>Node18</title>
<g id="a_Node000018"><a xlink:href="namespacem__data__input.html#a6e65911baddf566b7a796fadcea57495" target="_top" xlink:title="Helper subroutine to setup MPI data I/O parameters.">
<polygon fill="white" stroke="#666666" points="725.5,-508 598.5,-508 598.5,-478 725.5,-478 725.5,-508"/>
<text text-anchor="start" x="606.5" y="-496" font-family="Helvetica,sans-Serif" font-size="10.00">m_data_input::s_setup</text>
<text text-anchor="middle" x="662" y="-485" font-family="Helvetica,sans-Serif" font-size="10.00">_mpi_io_params</text>
</a>
</g>
</g>
<!-- Node13&#45;&gt;Node18 -->
<g id="edge25_Node000013_Node000018" class="edge">
<title>Node13&#45;&gt;Node18</title>
<g id="a_edge25_Node000013_Node000018"><a xlink:title=" ">
<path fill="none" stroke="#63b8ff" d="M522.73,-478.82C544.05,-481 567.15,-483.37 588.26,-485.54"/>
<polygon fill="#63b8ff" stroke="#63b8ff" points="588.14,-489.05 598.45,-486.58 588.86,-482.08 588.14,-489.05"/>
</a>
</g>
</g>
<!-- Node14&#45;&gt;Node7 -->
<g id="edge16_Node000014_Node000007" class="edge">
<title>Node14&#45;&gt;Node7</title>
<g id="a_edge16_Node000014_Node000007"><a xlink:title=" ">
<path fill="none" stroke="#63b8ff" d="M900.96,-434.98C929.27,-423 969.11,-406.13 999.72,-393.17"/>
<polygon fill="#63b8ff" stroke="#63b8ff" points="1001.46,-396.24 1009.3,-389.11 998.73,-389.79 1001.46,-396.24"/>
</a>
</g>
</g>
<!-- Node17&#45;&gt;Node6 -->
<g id="edge22_Node000017_Node000006" class="edge">
<title>Node17&#45;&gt;Node6</title>
<g id="a_edge22_Node000017_Node000006"><a xlink:title=" ">
<path fill="none" stroke="#63b8ff" d="M723.27,-247C732.58,-250.14 741.81,-254.08 750,-259 769.94,-270.98 769.75,-280.36 786,-297 804.22,-315.66 825.23,-336.49 840.77,-351.77"/>
<polygon fill="#63b8ff" stroke="#63b8ff" points="838.34,-354.29 847.92,-358.8 843.24,-349.29 838.34,-354.29"/>
</a>
</g>
</g>
<!-- Node17&#45;&gt;Node7 -->
<g id="edge24_Node000017_Node000007" class="edge">
<title>Node17&#45;&gt;Node7</title>
<g id="a_edge24_Node000017_Node000007"><a xlink:title=" ">
<path fill="none" stroke="#63b8ff" d="M720.81,-250.05C730.61,-252.86 740.63,-255.89 750,-259 840.01,-288.87 942.67,-330.71 1000.06,-354.82"/>
<polygon fill="#63b8ff" stroke="#63b8ff" points="998.98,-358.16 1009.56,-358.82 1001.7,-351.71 998.98,-358.16"/>
</a>
</g>
</g>
<!-- Node17&#45;&gt;Node8 -->
<g id="edge23_Node000017_Node000008" class="edge">
<title>Node17&#45;&gt;Node8</title>
<g id="a_edge23_Node000017_Node000008"><a xlink:title=" ">
<path fill="none" stroke="#63b8ff" d="M723.3,-242.02C733.38,-245.68 742.87,-251.09 750,-259 814.88,-330.95 736.94,-390.45 786,-474 797.78,-494.06 818.69,-510.2 835.82,-520.98"/>
<polygon fill="#63b8ff" stroke="#63b8ff" points="834.49,-524.27 844.87,-526.41 838.09,-518.27 834.49,-524.27"/>
</a>
</g>
</g>
<!-- Node18&#45;&gt;Node14 -->
<g id="edge26_Node000018_Node000014" class="edge">
<title>Node18&#45;&gt;Node14</title>
<g id="a_edge26_Node000018_Node000014"><a xlink:title=" ">
<path fill="none" stroke="#63b8ff" d="M725.61,-479.57C743.91,-475.65 764.17,-471.3 783.39,-467.18"/>
<polygon fill="#63b8ff" stroke="#63b8ff" points="784.29,-470.57 793.33,-465.05 782.82,-463.72 784.29,-470.57"/>
</a>
</g>
</g>
<!-- Node19&#45;&gt;Node5 -->
<g id="edge29_Node000019_Node000005" class="edge">
<title>Node19&#45;&gt;Node5</title>
<g id="a_edge29_Node000019_Node000005"><a xlink:title=" ">
<path fill="none" stroke="#63b8ff" d="M506.54,-139C529.85,-139 556.88,-139 581.75,-139"/>
<polygon fill="#63b8ff" stroke="#63b8ff" points="581.89,-142.5 591.89,-139 581.89,-135.5 581.89,-142.5"/>
</a>
</g>
</g>
<!-- Node19&#45;&gt;Node7 -->
<g id="edge30_Node000019_Node000007" class="edge">
<title>Node19&#45;&gt;Node7</title>
<g id="a_edge30_Node000019_Node000007"><a xlink:title=" ">
<path fill="none" stroke="#63b8ff" d="M492.97,-123.95C553.84,-106.77 663.02,-84.71 750,-115 880.17,-160.34 988.78,-295.68 1028.66,-350.53"/>
<polygon fill="#63b8ff" stroke="#63b8ff" points="1026,-352.83 1034.67,-358.91 1031.68,-348.75 1026,-352.83"/>
</a>
</g>
</g>
<!-- Node19&#45;&gt;Node10 -->
<g id="edge28_Node000019_Node000010" class="edge">
<title>Node19&#45;&gt;Node10</title>
<g id="a_edge28_Node000019_Node000010"><a xlink:title=" ">
<path fill="none" stroke="#63b8ff" d="M506.54,-152.43C534.25,-158.64 567.23,-166.02 595.57,-172.36"/>
<polygon fill="#63b8ff" stroke="#63b8ff" points="594.87,-175.79 605.39,-174.56 596.4,-168.96 594.87,-175.79"/>
</a>
</g>
</g>
<!-- Node19&#45;&gt;Node17 -->
<g id="edge33_Node000019_Node000017" class="edge">
<title>Node19&#45;&gt;Node17</title>
<g id="a_edge33_Node000019_Node000017"><a xlink:title=" ">
<path fill="none" stroke="#63b8ff" d="M469.13,-154.05C493.98,-170.01 535.47,-195.09 574,-211 579.47,-213.26 585.23,-215.38 591.06,-217.34"/>
<polygon fill="#63b8ff" stroke="#63b8ff" points="590.32,-220.78 600.91,-220.51 592.46,-214.12 590.32,-220.78"/>
</a>
</g>
</g>
<!-- Node20 -->
<g id="Node000020" class="node">
<title>Node20</title>
<g id="a_Node000020"><a xlink:href="namespacem__data__input.html#a888fdc1ceb8dcce14220719df6a6f23f" target="_top" xlink:title="Helper subroutine to read grid data files for a given direction.">
<polygon fill="white" stroke="#666666" points="925.5,-68 803.5,-68 803.5,-38 925.5,-38 925.5,-68"/>
<text text-anchor="start" x="811.5" y="-56" font-family="Helvetica,sans-Serif" font-size="10.00">m_data_input::s_read</text>
<text text-anchor="middle" x="864.5" y="-45" font-family="Helvetica,sans-Serif" font-size="10.00">_grid_data_direction</text>
</a>
</g>
</g>
<!-- Node19&#45;&gt;Node20 -->
<g id="edge31_Node000019_Node000020" class="edge">
<title>Node19&#45;&gt;Node20</title>
<g id="a_edge31_Node000019_Node000020"><a xlink:title=" ">
<path fill="none" stroke="#63b8ff" d="M473.42,-123.9C498.6,-110.52 537.68,-91.67 574,-82 647.25,-62.5 734.11,-55.9 793.44,-53.77"/>
<polygon fill="#63b8ff" stroke="#63b8ff" points="793.57,-57.27 803.46,-53.45 793.35,-50.27 793.57,-57.27"/>
</a>
</g>
</g>
<!-- Node21 -->
<g id="Node000021" class="node">
<title>Node21</title>
<g id="a_Node000021"><a xlink:href="namespacem__boundary__io.html#a6bd453bc00436c7cbb2d823169f9dd10" target="_top" xlink:title="Read boundary condition type and buffer data from serial (unformatted) restart files.">
<polygon fill="white" stroke="#666666" points="750,-30 574,-30 574,0 750,0 750,-30"/>
<text text-anchor="start" x="582" y="-18" font-family="Helvetica,sans-Serif" font-size="10.00">m_boundary_io::s_read</text>
<text text-anchor="middle" x="662" y="-7" font-family="Helvetica,sans-Serif" font-size="10.00">_serial_boundary_condition_files</text>
</a>
</g>
</g>
<!-- Node19&#45;&gt;Node21 -->
<g id="edge34_Node000019_Node000021" class="edge">
<title>Node19&#45;&gt;Node21</title>
<g id="a_edge34_Node000019_Node000021"><a xlink:title=" ">
<path fill="none" stroke="#63b8ff" d="M463.06,-123.9C486.32,-103.37 530.69,-66.61 574,-44 581.41,-40.13 589.43,-36.64 597.51,-33.51"/>
<polygon fill="#63b8ff" stroke="#63b8ff" points="598.81,-36.77 606.98,-30.03 596.39,-30.2 598.81,-36.77"/>
</a>
</g>
</g>
<!-- Node20&#45;&gt;Node7 -->
<g id="edge32_Node000020_Node000007" class="edge">
<title>Node20&#45;&gt;Node7</title>
<g id="a_edge32_Node000020_Node000007"><a xlink:title=" ">
<path fill="none" stroke="#63b8ff" d="M923.59,-68.11C930.75,-71.79 937.47,-76.35 943,-82 1017.98,-158.65 1038.05,-293.39 1043.25,-348.96"/>
<polygon fill="#63b8ff" stroke="#63b8ff" points="1039.77,-349.31 1044.1,-358.97 1046.74,-348.71 1039.77,-349.31"/>
</a>
</g>
</g>
</g>
</svg>

<g id="navigator" transform="translate(0 0)" fill="#404254">
  <rect fill="#f2f5e9" fill-opacity="0.5" stroke="#606060" stroke-width=".5" x="0" y="0" width="60" height="60"/>
  <use id="zoomplus" xlink:href="#zoomPlus" x="17" y="9" onmousedown="handleZoom(evt,'in')"/>
  <use id="zoomminus" xlink:href="#zoomMin" x="42" y="9" onmousedown="handleZoom(evt,'out')"/>
  <use id="reset" xlink:href="#resetDef" x="30" y="36" onmousedown="handleReset()"/>
   <use id="arrowup" xlink:href="#arrowUp" x="0" y="0" onmousedown="handlePan(0,-1)"/>
  <use id="arrowright" xlink:href="#arrowRight" x="0" y="0" onmousedown="handlePan(1,0)"/>
  <use id="arrowdown" xlink:href="#arrowDown" x="0" y="0" onmousedown="handlePan(0,1)"/>
  <use id="arrowleft" xlink:href="#arrowLeft" x="0" y="0" onmousedown="handlePan(-1,0)"/>
</g>
<svg viewBox="0 0 15 15" width="100%" height="30px" preserveAspectRatio="xMaxYMin meet">
 <g id="arrow_out" transform="scale(0.3 0.3)">
  <a xlink:href="namespacem__data__input_a5746c07ce2bd024e906a721e6552443f_cgraph_org.svg" target="_base">
   <rect id="button" ry="5" rx="5" y="6" x="6" height="38" width="38"
        fill="#f2f5e9" fill-opacity="0.5" stroke="#606060" stroke-width="1.0"/>
   <path id="arrow"
     d="M 11.500037,31.436501 C 11.940474,20.09759 22.043105,11.32322 32.158766,21.979434 L 37.068811,17.246167 C 37.068811,17.246167 37.088388,32 37.088388,32 L 22.160133,31.978069 C 22.160133,31.978069 26.997745,27.140456 26.997745,27.140456 C 18.528582,18.264221 13.291696,25.230495 11.500037,31.436501 z"
     style="fill:#404040;"/>
  </a>
 </g>
</svg>

<style type='text/css'>
<![CDATA[
[data-mouse-over-selected='false'] { opacity: 0.7; }
[data-mouse-over-selected='true']  { opacity: 1.0; }
]]>
</style>
<script type="application/ecmascript"><![CDATA[
document.addEventListener('DOMContentLoaded', (event) => {
  highlightEdges();
  highlightAdjacentNodes();
});
]]></script>
</svg>
