<?xml version="1.0" encoding="UTF-8" standalone="no"?>
<!DOCTYPE svg PUBLIC "-//W3C//DTD SVG 1.1//EN"
 "http://www.w3.org/Graphics/SVG/1.1/DTD/svg11.dtd">
<!-- Generated by graphviz version 2.40.1 (20161225.0304)
 -->
<!-- Title: m_global_parameters::s_comp_n_from_prim Pages: 1 -->
<svg width="197pt" height="35pt"
 viewBox="0.00 0.00 197.00 35.00" xmlns="http://www.w3.org/2000/svg" xmlns:xlink="http://www.w3.org/1999/xlink">
<g id="graph0" class="graph" transform="scale(1 1) rotate(0) translate(4 31)">
<title>m_global_parameters::s_comp_n_from_prim</title>
<polygon fill="#ffffff" stroke="transparent" points="-4,4 -4,-31 193,-31 193,4 -4,4"/>
<!-- Node8 -->
<g id="node1" class="node">
<title>Node8</title>
<polygon fill="#bfbfbf" stroke="#000000" points="0,-.5 0,-26.5 78,-26.5 78,-.5 0,-.5"/>
<text text-anchor="start" x="8" y="-16.1" font-family="Helvetica,sans-Serif" font-size="8.00" fill="#000000">m_global_parameters</text>
<text text-anchor="middle" x="39" y="-7.1" font-family="Helvetica,sans-Serif" font-size="8.00" fill="#000000">::s_comp_n_from_prim</text>
</g>
<!-- Node9 -->
<g id="node2" class="node">
<title>Node9</title>
<g id="a_node2"><a xlink:href="namespacem__global__parameters.html#aa5a48fa9cc196136634022cfa6708213" target="_top" xlink:title="Computes the quadrature for polydisperse bubble populations. ">
<polygon fill="#ffffff" stroke="#000000" points="114,-.5 114,-26.5 189,-26.5 189,-.5 114,-.5"/>
<text text-anchor="start" x="122" y="-16.1" font-family="Helvetica,sans-Serif" font-size="8.00" fill="#000000">m_global_parameters</text>
<text text-anchor="middle" x="151.5" y="-7.1" font-family="Helvetica,sans-Serif" font-size="8.00" fill="#000000">::s_quad</text>
</a>
</g>
</g>
<!-- Node8&#45;&gt;Node9 -->
<g id="edge1" class="edge">
<title>Node8&#45;&gt;Node9</title>
<path fill="none" stroke="#191970" d="M78.0313,-13.5C86.2427,-13.5 94.996,-13.5 103.4927,-13.5"/>
<polygon fill="#191970" stroke="#191970" points="103.676,-17.0001 113.676,-13.5 103.676,-10.0001 103.676,-17.0001"/>
</g>
</g>
</svg>
