<?xml version="1.0" encoding="UTF-8" standalone="no"?>
<!DOCTYPE svg PUBLIC "-//W3C//DTD SVG 1.1//EN"
 "http://www.w3.org/Graphics/SVG/1.1/DTD/svg11.dtd">
<!-- Generated by graphviz version 2.43.0 (0)
 -->
<!-- Title: m_start_up::s_initialize_modules Pages: 1 -->
<!--zoomable 712 -->

<svg id="main" version="1.1" xmlns="http://www.w3.org/2000/svg" xmlns:xlink="http://www.w3.org/1999/xlink" xml:space="preserve" onload="init(evt)">

<style type="text/css"><![CDATA[
.node, .edge {opacity: 0.7;}
.node.selected, .edge.selected {opacity: 1;}
.edge:hover path { stroke: red; }
.edge:hover polygon { stroke: red; fill: red; }
]]></style>

<defs>
  <circle id="rim" cx="0" cy="0" r="7"/>
  <circle id="rim2" cx="0" cy="0" r="3.5"/>
  <g id="zoomPlus">
    <use xlink:href="#rim" fill="#404040"><set attributeName="fill" to="#808080" begin="zoomplus.mouseover" end="zoomplus.mouseout"/></use>
    <path d="M-4,0h8M0,-4v8" fill="none" stroke="white" stroke-width="1.5" pointer-events="none"/>
  </g>
  <g id="zoomMin">
    <use xlink:href="#rim" fill="#404040"><set attributeName="fill" to="#808080" begin="zoomminus.mouseover" end="zoomminus.mouseout"/></use>
    <path d="M-4,0h8" fill="none" stroke="white" stroke-width="1.5" pointer-events="none"/>
  </g>
  <g id="arrowUp" transform="translate(30 24)">
    <use xlink:href="#rim"/>
    <path pointer-events="none" fill="none" stroke="white" stroke-width="1.5" d="M0,-3.0v7 M-2.5,-0.5L0,-3.0L2.5,-0.5"/>
  </g>
  <g id="arrowRight" transform="rotate(90) translate(36 -43)">
    <use xlink:href="#rim"/>
    <path pointer-events="none" fill="none" stroke="white" stroke-width="1.5" d="M0,-3.0v7 M-2.5,-0.5L0,-3.0L2.5,-0.5"/>
  </g>
  <g id="arrowDown" transform="rotate(180) translate(-30 -48)">
    <use xlink:href="#rim"/>
    <path pointer-events="none" fill="none" stroke="white" stroke-width="1.5" d="M0,-3.0v7 M-2.5,-0.5L0,-3.0L2.5,-0.5"/>
  </g>
  <g id="arrowLeft" transform="rotate(270) translate(-36 17)">
    <use xlink:href="#rim"/>
    <path pointer-events="none" fill="none" stroke="white" stroke-width="1.5" d="M0,-3.0v7 M-2.5,-0.5L0,-3.0L2.5,-0.5"/>
  </g>
  <g id="resetDef">
    <use xlink:href="#rim2" fill="#404040"><set attributeName="fill" to="#808080" begin="reset.mouseover" end="reset.mouseout"/></use>
  </g>
</defs>
<script type="application/ecmascript">
var viewWidth = 1132;
var viewHeight = 712;
var sectionId = 'dynsection-3';
</script>
<script type="application/ecmascript" xlink:href="svg.min.js"/>
<svg id="graph" class="graph">
<g id="viewport">
<title>m_start_up::s_initialize_modules</title>
<!-- Node1 -->
<g id="Node000001" class="node">
<title>Node1</title>
<g id="a_Node000001"><a xlink:title="Initialize all post&#45;process sub&#45;modules, set up I/O pointers, and prepare FFTW plans and MPI communic...">
<polygon fill="#999999" stroke="#666666" points="130,-434 0,-434 0,-404 130,-404 130,-434"/>
<text text-anchor="start" x="8" y="-422" font-family="Helvetica,sans-Serif" font-size="10.00">m_start_up::s_initialize</text>
<text text-anchor="middle" x="65" y="-411" font-family="Helvetica,sans-Serif" font-size="10.00">_modules</text>
</a>
</g>
</g>
<!-- Node2 -->
<g id="Node000002" class="node">
<title>Node2</title>
<g id="a_Node000002"><a xlink:href="namespacem__boundary__common.html#a564aec3ec22d27138a881ca6bf54d94d" target="_top" xlink:title="Allocate and set up boundary condition buffer arrays for all coordinate directions.">
<polygon fill="white" stroke="#666666" points="310,-703.5 179,-703.5 179,-662.5 310,-662.5 310,-703.5"/>
<text text-anchor="start" x="187" y="-691.5" font-family="Helvetica,sans-Serif" font-size="10.00">m_boundary_common::</text>
<text text-anchor="start" x="187" y="-680.5" font-family="Helvetica,sans-Serif" font-size="10.00">s_initialize_boundary</text>
<text text-anchor="middle" x="244.5" y="-669.5" font-family="Helvetica,sans-Serif" font-size="10.00">_common_module</text>
</a>
</g>
</g>
<!-- Node1&#45;&gt;Node2 -->
<g id="edge1_Node000001_Node000002" class="edge">
<title>Node1&#45;&gt;Node2</title>
<g id="a_edge1_Node000001_Node000002"><a xlink:title=" ">
<path fill="none" stroke="#63b8ff" d="M68.31,-434.16C75.32,-475.13 100.07,-589.31 166,-653 167.44,-654.39 168.95,-655.72 170.52,-656.99"/>
<polygon fill="#63b8ff" stroke="#63b8ff" points="168.63,-659.94 178.82,-662.84 172.67,-654.22 168.63,-659.94"/>
</a>
</g>
</g>
<!-- Node3 -->
<g id="Node000003" class="node">
<title>Node3</title>
<g id="a_Node000003"><a xlink:href="namespacem__helper.html#aafee3a041d8a8605e3aa18c585dd8106" target="_top" xlink:title="Initialize bubble model arrays for Euler or Lagrangian bubbles with polytropic or non&#45;polytropic gas.">
<polygon fill="white" stroke="#666666" points="305,-644 184,-644 184,-614 305,-614 305,-644"/>
<text text-anchor="start" x="192" y="-632" font-family="Helvetica,sans-Serif" font-size="10.00">m_helper::s_initialize</text>
<text text-anchor="middle" x="244.5" y="-621" font-family="Helvetica,sans-Serif" font-size="10.00">_bubbles_model</text>
</a>
</g>
</g>
<!-- Node1&#45;&gt;Node3 -->
<g id="edge2_Node000001_Node000003" class="edge">
<title>Node1&#45;&gt;Node3</title>
<g id="a_edge2_Node000001_Node000003"><a xlink:title=" ">
<path fill="none" stroke="#63b8ff" d="M70.38,-434.2C81.03,-468.58 111.51,-552.97 166,-600 169.98,-603.43 174.4,-606.48 179.06,-609.17"/>
<polygon fill="#63b8ff" stroke="#63b8ff" points="177.76,-612.44 188.25,-613.94 180.98,-606.23 177.76,-612.44"/>
</a>
</g>
</g>
<!-- Node8 -->
<g id="Node000008" class="node">
<title>Node8</title>
<g id="a_Node000008"><a xlink:href="namespacem__data__input.html#a5746c07ce2bd024e906a721e6552443f" target="_top" xlink:title="Computation of parameters, allocation procedures, and/or any other tasks needed to properly setup the...">
<polygon fill="white" stroke="#666666" points="315.5,-520 173.5,-520 173.5,-490 315.5,-490 315.5,-520"/>
<text text-anchor="start" x="181.5" y="-508" font-family="Helvetica,sans-Serif" font-size="10.00">m_data_input::s_initialize</text>
<text text-anchor="middle" x="244.5" y="-497" font-family="Helvetica,sans-Serif" font-size="10.00">_data_input_module</text>
</a>
</g>
</g>
<!-- Node1&#45;&gt;Node8 -->
<g id="edge7_Node000001_Node000008" class="edge">
<title>Node1&#45;&gt;Node8</title>
<g id="a_edge7_Node000001_Node000008"><a xlink:title=" ">
<path fill="none" stroke="#63b8ff" d="M90.08,-434.18C109.98,-446.36 139.22,-463.45 166,-476 173.67,-479.59 181.91,-483.07 190.06,-486.29"/>
<polygon fill="#63b8ff" stroke="#63b8ff" points="188.96,-489.61 199.55,-489.95 191.47,-483.08 188.96,-489.61"/>
</a>
</g>
</g>
<!-- Node10 -->
<g id="Node000010" class="node">
<title>Node10</title>
<g id="a_Node000010"><a xlink:href="namespacem__data__input.html#a1e9dfd5c6be77bbfa34abb90c77216b4" target="_top" xlink:title="Parallel&#45;read the raw data files present in the corresponding time&#45;step directory and to populate the...">
<polygon fill="white" stroke="#666666" points="489.5,-472 367.5,-472 367.5,-442 489.5,-442 489.5,-472"/>
<text text-anchor="start" x="375.5" y="-460" font-family="Helvetica,sans-Serif" font-size="10.00">m_data_input::s_read</text>
<text text-anchor="middle" x="428.5" y="-449" font-family="Helvetica,sans-Serif" font-size="10.00">_parallel_data_files</text>
</a>
</g>
</g>
<!-- Node1&#45;&gt;Node10 -->
<g id="edge43_Node000001_Node000010" class="edge">
<title>Node1&#45;&gt;Node10</title>
<g id="a_edge43_Node000001_Node000010"><a xlink:title=" ">
<path fill="none" stroke="#63b8ff" d="M120.67,-434.02C135.29,-437.51 151.16,-440.84 166,-443 230.32,-452.36 304.36,-455.63 357.2,-456.7"/>
<polygon fill="#63b8ff" stroke="#63b8ff" points="357.41,-460.2 367.48,-456.88 357.54,-453.2 357.41,-460.2"/>
</a>
</g>
</g>
<!-- Node24 -->
<g id="Node000024" class="node">
<title>Node24</title>
<g id="a_Node000024"><a xlink:href="namespacem__data__input.html#a94700a0b549ac60847be9f4f0ab94adf" target="_top" xlink:title="Read the raw data files present in the corresponding time&#45;step directory and to populate the associat...">
<polygon fill="white" stroke="#666666" points="687.5,-562 565.5,-562 565.5,-532 687.5,-532 687.5,-562"/>
<text text-anchor="start" x="573.5" y="-550" font-family="Helvetica,sans-Serif" font-size="10.00">m_data_input::s_read</text>
<text text-anchor="middle" x="626.5" y="-539" font-family="Helvetica,sans-Serif" font-size="10.00">_serial_data_files</text>
</a>
</g>
</g>
<!-- Node1&#45;&gt;Node24 -->
<g id="edge44_Node000001_Node000024" class="edge">
<title>Node1&#45;&gt;Node24</title>
<g id="a_edge44_Node000001_Node000024"><a xlink:title=" ">
<path fill="none" stroke="#63b8ff" d="M74.73,-434.32C89.78,-459.09 123.16,-507.34 166,-529 291.28,-592.34 461.25,-577.16 555.41,-561.44"/>
<polygon fill="#63b8ff" stroke="#63b8ff" points="556.13,-564.87 565.4,-559.72 554.95,-557.97 556.13,-564.87"/>
</a>
</g>
</g>
<!-- Node27 -->
<g id="Node000027" class="node">
<title>Node27</title>
<g id="a_Node000027"><a xlink:href="namespacem__data__output.html#a62496dfe58afb9e18a8a1a58b64e155b" target="_top" xlink:title="Allocate storage arrays, configure output directories, and count flow variables for formatted databas...">
<polygon fill="white" stroke="#666666" points="319,-434 170,-434 170,-404 319,-404 319,-434"/>
<text text-anchor="start" x="178" y="-422" font-family="Helvetica,sans-Serif" font-size="10.00">m_data_output::s_initialize</text>
<text text-anchor="middle" x="244.5" y="-411" font-family="Helvetica,sans-Serif" font-size="10.00">_data_output_module</text>
</a>
</g>
</g>
<!-- Node1&#45;&gt;Node27 -->
<g id="edge34_Node000001_Node000027" class="edge">
<title>Node1&#45;&gt;Node27</title>
<g id="a_edge34_Node000001_Node000027"><a xlink:title=" ">
<path fill="none" stroke="#63b8ff" d="M130.08,-419C139.66,-419 149.66,-419 159.58,-419"/>
<polygon fill="#63b8ff" stroke="#63b8ff" points="159.86,-422.5 169.86,-419 159.86,-415.5 159.86,-422.5"/>
</a>
</g>
</g>
<!-- Node29 -->
<g id="Node000029" class="node">
<title>Node29</title>
<g id="a_Node000029"><a xlink:href="namespacem__derived__variables.html#a77b3f12eca15a93f0bbe8881f6bbcfd4" target="_top" xlink:title="Computation of parameters, allocation procedures, and/or any other tasks needed to properly setup the...">
<polygon fill="white" stroke="#666666" points="304,-385.5 185,-385.5 185,-344.5 304,-344.5 304,-385.5"/>
<text text-anchor="start" x="193" y="-373.5" font-family="Helvetica,sans-Serif" font-size="10.00">m_derived_variables</text>
<text text-anchor="start" x="193" y="-362.5" font-family="Helvetica,sans-Serif" font-size="10.00">::s_initialize_derived</text>
<text text-anchor="middle" x="244.5" y="-351.5" font-family="Helvetica,sans-Serif" font-size="10.00">_variables_module</text>
</a>
</g>
</g>
<!-- Node1&#45;&gt;Node29 -->
<g id="edge37_Node000001_Node000029" class="edge">
<title>Node1&#45;&gt;Node29</title>
<g id="a_edge37_Node000001_Node000029"><a xlink:title=" ">
<path fill="none" stroke="#63b8ff" d="M115.44,-403.96C133.96,-398.33 155.33,-391.82 175.24,-385.77"/>
<polygon fill="#63b8ff" stroke="#63b8ff" points="176.34,-389.09 184.88,-382.83 174.3,-382.39 176.34,-389.09"/>
</a>
</g>
</g>
<!-- Node30 -->
<g id="Node000030" class="node">
<title>Node30</title>
<g id="a_Node000030"><a xlink:href="namespacem__global__parameters.html#a7d78db66d7d2bd3001d7a7ef981b0d87" target="_top" xlink:title="Computation of parameters, allocation procedures, and/or any other tasks needed to properly setup the...">
<polygon fill="white" stroke="#666666" points="306,-326.5 183,-326.5 183,-285.5 306,-285.5 306,-326.5"/>
<text text-anchor="start" x="191" y="-314.5" font-family="Helvetica,sans-Serif" font-size="10.00">m_global_parameters</text>
<text text-anchor="start" x="191" y="-303.5" font-family="Helvetica,sans-Serif" font-size="10.00">::s_initialize_global</text>
<text text-anchor="middle" x="244.5" y="-292.5" font-family="Helvetica,sans-Serif" font-size="10.00">_parameters_module</text>
</a>
</g>
</g>
<!-- Node1&#45;&gt;Node30 -->
<g id="edge38_Node000001_Node000030" class="edge">
<title>Node1&#45;&gt;Node30</title>
<g id="a_edge38_Node000001_Node000030"><a xlink:title=" ">
<path fill="none" stroke="#63b8ff" d="M80.68,-403.83C99.15,-385.46 132.52,-354.55 166,-335 168.5,-333.54 171.09,-332.13 173.73,-330.77"/>
<polygon fill="#63b8ff" stroke="#63b8ff" points="175.42,-333.85 182.9,-326.35 172.38,-327.54 175.42,-333.85"/>
</a>
</g>
</g>
<!-- Node32 -->
<g id="Node000032" class="node">
<title>Node32</title>
<g id="a_Node000032"><a xlink:href="namespacem__mpi__common.html#a056c92bf55bd24a6cb43936abd313f4e" target="_top" xlink:title="Initialize the module.">
<polygon fill="white" stroke="#666666" points="323,-267 166,-267 166,-237 323,-237 323,-267"/>
<text text-anchor="start" x="174" y="-255" font-family="Helvetica,sans-Serif" font-size="10.00">m_mpi_common::s_initialize</text>
<text text-anchor="middle" x="244.5" y="-244" font-family="Helvetica,sans-Serif" font-size="10.00">_mpi_common_module</text>
</a>
</g>
</g>
<!-- Node1&#45;&gt;Node32 -->
<g id="edge40_Node000001_Node000032" class="edge">
<title>Node1&#45;&gt;Node32</title>
<g id="a_edge40_Node000001_Node000032"><a xlink:title=" ">
<path fill="none" stroke="#63b8ff" d="M72.4,-404C85.58,-374.9 118.53,-310.65 166,-276 167.9,-274.62 169.87,-273.31 171.91,-272.08"/>
<polygon fill="#63b8ff" stroke="#63b8ff" points="174.01,-274.93 181.2,-267.15 170.72,-268.75 174.01,-274.93"/>
</a>
</g>
</g>
<!-- Node33 -->
<g id="Node000033" class="node">
<title>Node33</title>
<g id="a_Node000033"><a xlink:href="namespacem__mpi__proxy.html#a0f7cd4188db4d19ada06d7cb7334991d" target="_top" xlink:title="Computation of parameters, allocation procedures, and/or any other tasks needed to properly setup the...">
<polygon fill="white" stroke="#666666" points="315,-219 174,-219 174,-189 315,-189 315,-219"/>
<text text-anchor="start" x="182" y="-207" font-family="Helvetica,sans-Serif" font-size="10.00">m_mpi_proxy::s_initialize</text>
<text text-anchor="middle" x="244.5" y="-196" font-family="Helvetica,sans-Serif" font-size="10.00">_mpi_proxy_module</text>
</a>
</g>
</g>
<!-- Node1&#45;&gt;Node33 -->
<g id="edge41_Node000001_Node000033" class="edge">
<title>Node1&#45;&gt;Node33</title>
<g id="a_edge41_Node000001_Node000033"><a xlink:title=" ">
<path fill="none" stroke="#63b8ff" d="M69.65,-403.82C79.09,-367.78 107.76,-276.5 166,-228 167.54,-226.72 169.15,-225.5 170.82,-224.35"/>
<polygon fill="#63b8ff" stroke="#63b8ff" points="172.78,-227.26 179.56,-219.12 169.18,-221.25 172.78,-227.26"/>
</a>
</g>
</g>
<!-- Node34 -->
<g id="Node000034" class="node">
<title>Node34</title>
<g id="a_Node000034"><a xlink:href="namespacem__variables__conversion.html#a7ebd3fab94230d88d603e76ac5435e05" target="_top" xlink:title="Initialize the variables conversion module.">
<polygon fill="white" stroke="#666666" points="312,-170.5 177,-170.5 177,-129.5 312,-129.5 312,-170.5"/>
<text text-anchor="start" x="185" y="-158.5" font-family="Helvetica,sans-Serif" font-size="10.00">m_variables_conversion</text>
<text text-anchor="start" x="185" y="-147.5" font-family="Helvetica,sans-Serif" font-size="10.00">::s_initialize_variables</text>
<text text-anchor="middle" x="244.5" y="-136.5" font-family="Helvetica,sans-Serif" font-size="10.00">_conversion_module</text>
</a>
</g>
</g>
<!-- Node1&#45;&gt;Node34 -->
<g id="edge42_Node000001_Node000034" class="edge">
<title>Node1&#45;&gt;Node34</title>
<g id="a_edge42_Node000001_Node000034"><a xlink:title=" ">
<path fill="none" stroke="#63b8ff" d="M68.16,-403.83C74.84,-362.25 98.96,-245.26 166,-180 167.24,-178.79 168.54,-177.63 169.89,-176.51"/>
<polygon fill="#63b8ff" stroke="#63b8ff" points="172,-179.3 178.04,-170.6 167.89,-173.63 172,-179.3"/>
</a>
</g>
</g>
<!-- Node4 -->
<g id="Node000004" class="node">
<title>Node4</title>
<g id="a_Node000004"><a xlink:href="namespacem__helper.html#a6ff0892396e5406dc3b8015a64231a0f" target="_top" xlink:title="Set bubble physical parameters and nondimensional numbers from the input configuration.">
<polygon fill="white" stroke="#666666" points="489,-692 368,-692 368,-662 489,-662 489,-692"/>
<text text-anchor="start" x="376" y="-680" font-family="Helvetica,sans-Serif" font-size="10.00">m_helper::s_initialize</text>
<text text-anchor="middle" x="428.5" y="-669" font-family="Helvetica,sans-Serif" font-size="10.00">_bubble_vars</text>
</a>
</g>
</g>
<!-- Node3&#45;&gt;Node4 -->
<g id="edge3_Node000003_Node000004" class="edge">
<title>Node3&#45;&gt;Node4</title>
<g id="a_edge3_Node000003_Node000004"><a xlink:title=" ">
<path fill="none" stroke="#63b8ff" d="M302.59,-644.06C321.05,-648.93 341.69,-654.37 360.79,-659.41"/>
<polygon fill="#63b8ff" stroke="#63b8ff" points="360.05,-662.83 370.62,-662 361.84,-656.06 360.05,-662.83"/>
</a>
</g>
</g>
<!-- Node7 -->
<g id="Node000007" class="node">
<title>Node7</title>
<g id="a_Node000007"><a xlink:href="namespacem__helper.html#a67fb0dea37f746739e38f0fc900a9455" target="_top" xlink:title="Computes the Simpson weights for quadrature.">
<polygon fill="white" stroke="#666666" points="488.5,-638.5 368.5,-638.5 368.5,-619.5 488.5,-619.5 488.5,-638.5"/>
<text text-anchor="middle" x="428.5" y="-626.5" font-family="Helvetica,sans-Serif" font-size="10.00">m_helper::s_simpson</text>
</a>
</g>
</g>
<!-- Node3&#45;&gt;Node7 -->
<g id="edge6_Node000003_Node000007" class="edge">
<title>Node3&#45;&gt;Node7</title>
<g id="a_edge6_Node000003_Node000007"><a xlink:title=" ">
<path fill="none" stroke="#63b8ff" d="M305.09,-629C322.08,-629 340.73,-629 358.24,-629"/>
<polygon fill="#63b8ff" stroke="#63b8ff" points="358.39,-632.5 368.39,-629 358.39,-625.5 358.39,-632.5"/>
</a>
</g>
</g>
<!-- Node5 -->
<g id="Node000005" class="node">
<title>Node5</title>
<g id="a_Node000005"><a xlink:href="namespacem__helper.html#a1e9d8d03a5b81a2f4a1b5a6348d11023" target="_top" xlink:title="Initializes non&#45;polydisperse bubble modeling.">
<polygon fill="white" stroke="#666666" points="687,-694 566,-694 566,-664 687,-664 687,-694"/>
<text text-anchor="start" x="574" y="-682" font-family="Helvetica,sans-Serif" font-size="10.00">m_helper::s_initialize</text>
<text text-anchor="middle" x="626.5" y="-671" font-family="Helvetica,sans-Serif" font-size="10.00">_nonpoly</text>
</a>
</g>
</g>
<!-- Node4&#45;&gt;Node5 -->
<g id="edge4_Node000004_Node000005" class="edge">
<title>Node4&#45;&gt;Node5</title>
<g id="a_edge4_Node000004_Node000005"><a xlink:title=" ">
<path fill="none" stroke="#63b8ff" d="M489.1,-677.61C510.11,-677.82 533.9,-678.07 555.67,-678.29"/>
<polygon fill="#63b8ff" stroke="#63b8ff" points="555.81,-681.79 565.84,-678.39 555.88,-674.79 555.81,-681.79"/>
</a>
</g>
</g>
<!-- Node6 -->
<g id="Node000006" class="node">
<title>Node6</title>
<g id="a_Node000006"><a xlink:href="namespacem__helper.html#ac1336e267ccea00e591824e9974f6188" target="_top" xlink:title="Computes the transfer coefficient for the non&#45;polytropic bubble compression process.">
<polygon fill="white" stroke="#666666" points="907,-689.5 779,-689.5 779,-670.5 907,-670.5 907,-689.5"/>
<text text-anchor="middle" x="843" y="-677.5" font-family="Helvetica,sans-Serif" font-size="10.00">m_helper::s_transcoeff</text>
</a>
</g>
</g>
<!-- Node5&#45;&gt;Node6 -->
<g id="edge5_Node000005_Node000006" class="edge">
<title>Node5&#45;&gt;Node6</title>
<g id="a_edge5_Node000005_Node000006"><a xlink:title=" ">
<path fill="none" stroke="#63b8ff" d="M687.25,-679.28C712.53,-679.4 742.23,-679.53 768.81,-679.66"/>
<polygon fill="#63b8ff" stroke="#63b8ff" points="768.81,-683.16 778.83,-679.71 768.84,-676.16 768.81,-683.16"/>
</a>
</g>
</g>
<!-- Node9 -->
<g id="Node000009" class="node">
<title>Node9</title>
<g id="a_Node000009"><a xlink:href="namespacem__data__input.html#a0720f62ee34c602705db6ab4f9b7641e" target="_top" xlink:title="Helper subroutine to allocate field arrays for given dimensionality.">
<polygon fill="white" stroke="#666666" points="498,-520 359,-520 359,-490 498,-490 498,-520"/>
<text text-anchor="start" x="367" y="-508" font-family="Helvetica,sans-Serif" font-size="10.00">m_data_input::s_allocate</text>
<text text-anchor="middle" x="428.5" y="-497" font-family="Helvetica,sans-Serif" font-size="10.00">_field_arrays</text>
</a>
</g>
</g>
<!-- Node8&#45;&gt;Node9 -->
<g id="edge8_Node000008_Node000009" class="edge">
<title>Node8&#45;&gt;Node9</title>
<g id="a_edge8_Node000008_Node000009"><a xlink:title=" ">
<path fill="none" stroke="#63b8ff" d="M315.61,-505C326.49,-505 337.8,-505 348.86,-505"/>
<polygon fill="#63b8ff" stroke="#63b8ff" points="348.93,-508.5 358.93,-505 348.93,-501.5 348.93,-508.5"/>
</a>
</g>
</g>
<!-- Node8&#45;&gt;Node10 -->
<g id="edge9_Node000008_Node000010" class="edge">
<title>Node8&#45;&gt;Node10</title>
<g id="a_edge9_Node000008_Node000010"><a xlink:title=" ">
<path fill="none" stroke="#63b8ff" d="M302.59,-489.94C321.05,-485.07 341.69,-479.63 360.79,-474.59"/>
<polygon fill="#63b8ff" stroke="#63b8ff" points="361.84,-477.94 370.62,-472 360.05,-471.17 361.84,-477.94"/>
</a>
</g>
</g>
<!-- Node8&#45;&gt;Node24 -->
<g id="edge26_Node000008_Node000024" class="edge">
<title>Node8&#45;&gt;Node24</title>
<g id="a_edge26_Node000008_Node000024"><a xlink:title=" ">
<path fill="none" stroke="#63b8ff" d="M308.85,-520.04C325.12,-523.45 342.64,-526.73 359,-529 425.24,-538.19 501.41,-542.74 555.32,-544.96"/>
<polygon fill="#63b8ff" stroke="#63b8ff" points="555.32,-548.46 565.45,-545.36 555.6,-541.47 555.32,-548.46"/>
</a>
</g>
</g>
<!-- Node11 -->
<g id="Node000011" class="node">
<title>Node11</title>
<g id="a_Node000011"><a xlink:href="namespacem__boundary__io.html#a54cc36c0c0b8f86ec53db19e98570fc7" target="_top" xlink:title="Initialize the per&#45;cell boundary condition type arrays with the global default BC values.">
<polygon fill="white" stroke="#666666" points="913,-518 773,-518 773,-488 913,-488 913,-518"/>
<text text-anchor="start" x="781" y="-506" font-family="Helvetica,sans-Serif" font-size="10.00">m_boundary_io::s_assign</text>
<text text-anchor="middle" x="843" y="-495" font-family="Helvetica,sans-Serif" font-size="10.00">_default_bc_type</text>
</a>
</g>
</g>
<!-- Node10&#45;&gt;Node11 -->
<g id="edge10_Node000010_Node000011" class="edge">
<title>Node10&#45;&gt;Node11</title>
<g id="a_edge10_Node000010_Node000011"><a xlink:title=" ">
<path fill="none" stroke="#63b8ff" d="M489.63,-467.49C504.13,-469.83 519.6,-472.15 534,-474 611.46,-483.94 700.29,-491.94 762.59,-497"/>
<polygon fill="#63b8ff" stroke="#63b8ff" points="762.49,-500.51 772.74,-497.82 763.05,-493.53 762.49,-500.51"/>
</a>
</g>
</g>
<!-- Node12 -->
<g id="Node000012" class="node">
<title>Node12</title>
<g id="a_Node000012"><a xlink:href="namespacem__mpi__common.html#a04cfc0bdb377a0ce2f9fd478e4bb3807" target="_top" xlink:title="The subroutine terminates the MPI execution environment.">
<polygon fill="white" stroke="#666666" points="1112.5,-475 978.5,-475 978.5,-445 1112.5,-445 1112.5,-475"/>
<text text-anchor="start" x="986.5" y="-463" font-family="Helvetica,sans-Serif" font-size="10.00">m_mpi_common::s_mpi</text>
<text text-anchor="middle" x="1045.5" y="-452" font-family="Helvetica,sans-Serif" font-size="10.00">_abort</text>
</a>
</g>
</g>
<!-- Node10&#45;&gt;Node12 -->
<g id="edge11_Node000010_Node000012" class="edge">
<title>Node10&#45;&gt;Node12</title>
<g id="a_edge11_Node000010_Node000012"><a xlink:title=" ">
<path fill="none" stroke="#63b8ff" d="M489.59,-457.29C602.04,-457.84 844.06,-459.02 967.98,-459.63"/>
<polygon fill="#63b8ff" stroke="#63b8ff" points="968.13,-463.13 978.15,-459.68 968.16,-456.13 968.13,-463.13"/>
</a>
</g>
</g>
<!-- Node13 -->
<g id="Node000013" class="node">
<title>Node13</title>
<g id="a_Node000013"><a xlink:href="namespacem__boundary__io.html#ab6281588667a9843f9e3829c2a68c851" target="_top" xlink:title="Read boundary condition type and buffer data from per&#45;rank parallel files using MPI I/O.">
<polygon fill="white" stroke="#666666" points="719,-384 534,-384 534,-354 719,-354 719,-384"/>
<text text-anchor="start" x="542" y="-372" font-family="Helvetica,sans-Serif" font-size="10.00">m_boundary_io::s_read</text>
<text text-anchor="middle" x="626.5" y="-361" font-family="Helvetica,sans-Serif" font-size="10.00">_parallel_boundary_condition_files</text>
</a>
</g>
</g>
<!-- Node10&#45;&gt;Node13 -->
<g id="edge12_Node000010_Node000013" class="edge">
<title>Node10&#45;&gt;Node13</title>
<g id="a_edge12_Node000010_Node000013"><a xlink:title=" ">
<path fill="none" stroke="#63b8ff" d="M463.19,-441.87C496.25,-427.03 546.78,-404.34 582.67,-388.23"/>
<polygon fill="#63b8ff" stroke="#63b8ff" points="584.23,-391.37 591.92,-384.08 581.36,-384.98 584.23,-391.37"/>
</a>
</g>
</g>
<!-- Node17 -->
<g id="Node000017" class="node">
<title>Node17</title>
<g id="a_Node000017"><a xlink:href="namespacem__data__input.html#a5139fe69b24a1dc0e32b632e9bf5d0ee" target="_top" xlink:title="Helper subroutine to read parallel conservative variable data.">
<polygon fill="white" stroke="#666666" points="703.5,-186 549.5,-186 549.5,-156 703.5,-156 703.5,-186"/>
<text text-anchor="start" x="557.5" y="-174" font-family="Helvetica,sans-Serif" font-size="10.00">m_data_input::s_read</text>
<text text-anchor="middle" x="626.5" y="-163" font-family="Helvetica,sans-Serif" font-size="10.00">_parallel_conservative_data</text>
</a>
</g>
</g>
<!-- Node10&#45;&gt;Node17 -->
<g id="edge16_Node000010_Node000017" class="edge">
<title>Node10&#45;&gt;Node17</title>
<g id="a_edge16_Node000010_Node000017"><a xlink:title=" ">
<path fill="none" stroke="#63b8ff" d="M449.37,-441.88C463.95,-430.14 483.64,-412.89 498,-395 550.9,-329.09 595.14,-238.52 614.71,-195.54"/>
<polygon fill="#63b8ff" stroke="#63b8ff" points="618.02,-196.72 618.93,-186.16 611.63,-193.84 618.02,-196.72"/>
</a>
</g>
</g>
<!-- Node14 -->
<g id="Node000014" class="node">
<title>Node14</title>
<g id="a_Node000014"><a xlink:href="namespacem__delay__file__access.html#a9b90086a2cf6bbb569047c955d2e67fe" target="_top" xlink:title="Introduce a rank&#45;dependent busy&#45;wait delay to stagger parallel file access and reduce I/O contention.">
<polygon fill="white" stroke="#666666" points="901.5,-384 784.5,-384 784.5,-354 901.5,-354 901.5,-384"/>
<text text-anchor="start" x="792.5" y="-372" font-family="Helvetica,sans-Serif" font-size="10.00">m_delay_file_access</text>
<text text-anchor="middle" x="843" y="-361" font-family="Helvetica,sans-Serif" font-size="10.00">::delayfileaccess</text>
</a>
</g>
</g>
<!-- Node13&#45;&gt;Node14 -->
<g id="edge13_Node000013_Node000014" class="edge">
<title>Node13&#45;&gt;Node14</title>
<g id="a_edge13_Node000013_Node000014"><a xlink:title=" ">
<path fill="none" stroke="#63b8ff" d="M719.09,-369C737.56,-369 756.65,-369 774.13,-369"/>
<polygon fill="#63b8ff" stroke="#63b8ff" points="774.22,-372.5 784.22,-369 774.22,-365.5 774.22,-372.5"/>
</a>
</g>
</g>
<!-- Node15 -->
<g id="Node000015" class="node">
<title>Node15</title>
<g id="a_Node000015"><a xlink:href="namespacem__compile__specific.html#a9cf8c029e502931415929734c03f340d" target="_top" xlink:title="Inquires on the existence of a directory.">
<polygon fill="white" stroke="#666666" points="899.5,-432 786.5,-432 786.5,-402 899.5,-402 899.5,-432"/>
<text text-anchor="start" x="794.5" y="-420" font-family="Helvetica,sans-Serif" font-size="10.00">m_compile_specific</text>
<text text-anchor="middle" x="843" y="-409" font-family="Helvetica,sans-Serif" font-size="10.00">::my_inquire</text>
</a>
</g>
</g>
<!-- Node13&#45;&gt;Node15 -->
<g id="edge14_Node000013_Node000015" class="edge">
<title>Node13&#45;&gt;Node15</title>
<g id="a_edge14_Node000013_Node000015"><a xlink:title=" ">
<path fill="none" stroke="#63b8ff" d="M694.78,-384.06C720.81,-389.88 750.51,-396.53 776.38,-402.32"/>
<polygon fill="#63b8ff" stroke="#63b8ff" points="775.94,-405.8 786.46,-404.57 777.47,-398.97 775.94,-405.8"/>
</a>
</g>
</g>
<!-- Node16 -->
<g id="Node000016" class="node">
<title>Node16</title>
<g id="a_Node000016"><a xlink:href="namespacem__boundary__io.html#a74922617e3b2c7a414056d32bc6aa14d" target="_top" xlink:title="Create MPI derived datatypes for boundary condition type arrays and buffer arrays used in parallel I/...">
<polygon fill="white" stroke="#666666" points="912.5,-288 773.5,-288 773.5,-258 912.5,-258 912.5,-288"/>
<text text-anchor="start" x="781.5" y="-276" font-family="Helvetica,sans-Serif" font-size="10.00">m_boundary_io::s_create</text>
<text text-anchor="middle" x="843" y="-265" font-family="Helvetica,sans-Serif" font-size="10.00">_mpi_types</text>
</a>
</g>
</g>
<!-- Node13&#45;&gt;Node16 -->
<g id="edge15_Node000013_Node000016" class="edge">
<title>Node13&#45;&gt;Node16</title>
<g id="a_edge15_Node000013_Node000016"><a xlink:title=" ">
<path fill="none" stroke="#63b8ff" d="M650.13,-353.95C674.98,-337.99 716.47,-312.91 755,-297 759.98,-294.94 765.19,-293.01 770.48,-291.2"/>
<polygon fill="#63b8ff" stroke="#63b8ff" points="771.63,-294.5 780.05,-288.07 769.46,-287.85 771.63,-294.5"/>
</a>
</g>
</g>
<!-- Node17&#45;&gt;Node12 -->
<g id="edge20_Node000017_Node000012" class="edge">
<title>Node17&#45;&gt;Node12</title>
<g id="a_edge20_Node000017_Node000012"><a xlink:title=" ">
<path fill="none" stroke="#63b8ff" d="M673.58,-186.05C697.7,-193.69 727.8,-202.84 755,-210 832.48,-230.4 867.11,-200.66 931,-249 994.26,-296.86 1026.26,-390.51 1038.46,-435.17"/>
<polygon fill="#63b8ff" stroke="#63b8ff" points="1035.1,-436.13 1041.02,-444.91 1041.87,-434.35 1035.1,-436.13"/>
</a>
</g>
</g>
<!-- Node18 -->
<g id="Node000018" class="node">
<title>Node18</title>
<g id="a_Node000018"><a xlink:href="namespacem__mpi__common.html#a2e27b3212956af624c8da826f0c2c529" target="_top" xlink:title="Set up MPI I/O data views and variable pointers for parallel file output.">
<polygon fill="white" stroke="#666666" points="1124,-95 967,-95 967,-65 1124,-65 1124,-95"/>
<text text-anchor="start" x="975" y="-83" font-family="Helvetica,sans-Serif" font-size="10.00">m_mpi_common::s_initialize</text>
<text text-anchor="middle" x="1045.5" y="-72" font-family="Helvetica,sans-Serif" font-size="10.00">_mpi_data</text>
</a>
</g>
</g>
<!-- Node17&#45;&gt;Node18 -->
<g id="edge17_Node000017_Node000018" class="edge">
<title>Node17&#45;&gt;Node18</title>
<g id="a_edge17_Node000017_Node000018"><a xlink:title=" ">
<path fill="none" stroke="#63b8ff" d="M641.38,-155.9C663.07,-133.55 707.45,-92.63 755,-77 820.22,-55.56 898.27,-57.85 956.88,-64.66"/>
<polygon fill="#63b8ff" stroke="#63b8ff" points="956.5,-68.14 966.85,-65.88 957.35,-61.19 956.5,-68.14"/>
</a>
</g>
</g>
<!-- Node19 -->
<g id="Node000019" class="node">
<title>Node19</title>
<g id="a_Node000019"><a xlink:href="namespacem__mpi__common.html#a564644bad898d940dc6caea3297bb424" target="_top" xlink:title="Set up MPI I/O data views for downsampled (coarsened) parallel file output.">
<polygon fill="white" stroke="#666666" points="921.5,-30 764.5,-30 764.5,0 921.5,0 921.5,-30"/>
<text text-anchor="start" x="772.5" y="-18" font-family="Helvetica,sans-Serif" font-size="10.00">m_mpi_common::s_initialize</text>
<text text-anchor="middle" x="843" y="-7" font-family="Helvetica,sans-Serif" font-size="10.00">_mpi_data_ds</text>
</a>
</g>
</g>
<!-- Node17&#45;&gt;Node19 -->
<g id="edge18_Node000017_Node000019" class="edge">
<title>Node17&#45;&gt;Node19</title>
<g id="a_edge18_Node000017_Node000019"><a xlink:title=" ">
<path fill="none" stroke="#63b8ff" d="M638.8,-155.83C659.2,-129.45 704.74,-74.99 755,-44 761.15,-40.21 767.85,-36.85 774.72,-33.89"/>
<polygon fill="#63b8ff" stroke="#63b8ff" points="776.18,-37.08 784.15,-30.1 773.56,-30.58 776.18,-37.08"/>
</a>
</g>
</g>
<!-- Node20 -->
<g id="Node000020" class="node">
<title>Node20</title>
<g id="a_Node000020"><a xlink:href="namespacem__helper.html#afd343d70a36c65cb7be86a183aa594ac" target="_top" xlink:title="Convert an integer to its trimmed string representation.">
<polygon fill="white" stroke="#666666" points="905.5,-201.5 780.5,-201.5 780.5,-182.5 905.5,-182.5 905.5,-201.5"/>
<text text-anchor="middle" x="843" y="-189.5" font-family="Helvetica,sans-Serif" font-size="10.00">m_helper::s_int_to_str</text>
</a>
</g>
</g>
<!-- Node17&#45;&gt;Node20 -->
<g id="edge19_Node000017_Node000020" class="edge">
<title>Node17&#45;&gt;Node20</title>
<g id="a_edge19_Node000017_Node000020"><a xlink:title=" ">
<path fill="none" stroke="#63b8ff" d="M703.73,-178.46C725.45,-180.59 749.04,-182.9 770.47,-185"/>
<polygon fill="#63b8ff" stroke="#63b8ff" points="770.19,-188.49 780.48,-185.98 770.87,-181.52 770.19,-188.49"/>
</a>
</g>
</g>
<!-- Node21 -->
<g id="Node000021" class="node">
<title>Node21</title>
<g id="a_Node000021"><a xlink:href="namespacem__mpi__common.html#a1073fc1fcb6f3b9394606d5c9285e9f0" target="_top" xlink:title="Halts all processes until all have reached barrier.">
<polygon fill="white" stroke="#666666" points="910,-164 776,-164 776,-134 910,-134 910,-164"/>
<text text-anchor="start" x="784" y="-152" font-family="Helvetica,sans-Serif" font-size="10.00">m_mpi_common::s_mpi</text>
<text text-anchor="middle" x="843" y="-141" font-family="Helvetica,sans-Serif" font-size="10.00">_barrier</text>
</a>
</g>
</g>
<!-- Node17&#45;&gt;Node21 -->
<g id="edge21_Node000017_Node000021" class="edge">
<title>Node17&#45;&gt;Node21</title>
<g id="a_edge21_Node000017_Node000021"><a xlink:title=" ">
<path fill="none" stroke="#63b8ff" d="M703.73,-163.18C723.92,-161.11 745.71,-158.88 765.9,-156.81"/>
<polygon fill="#63b8ff" stroke="#63b8ff" points="766.38,-160.27 775.97,-155.77 765.67,-153.31 766.38,-160.27"/>
</a>
</g>
</g>
<!-- Node22 -->
<g id="Node000022" class="node">
<title>Node22</title>
<g id="a_Node000022"><a xlink:href="namespacem__data__input.html#af83b04522a4d96faabec6f8142f90e80" target="_top" xlink:title="Helper subroutine to read IB data files.">
<polygon fill="white" stroke="#666666" points="904,-336 782,-336 782,-306 904,-306 904,-336"/>
<text text-anchor="start" x="790" y="-324" font-family="Helvetica,sans-Serif" font-size="10.00">m_data_input::s_read</text>
<text text-anchor="middle" x="843" y="-313" font-family="Helvetica,sans-Serif" font-size="10.00">_ib_data_files</text>
</a>
</g>
</g>
<!-- Node17&#45;&gt;Node22 -->
<g id="edge22_Node000017_Node000022" class="edge">
<title>Node17&#45;&gt;Node22</title>
<g id="a_edge22_Node000017_Node000022"><a xlink:title=" ">
<path fill="none" stroke="#63b8ff" d="M638.67,-186.32C658.85,-212.91 704.08,-267.55 755,-297 760.43,-300.14 766.29,-302.88 772.31,-305.28"/>
<polygon fill="#63b8ff" stroke="#63b8ff" points="771.27,-308.63 781.87,-308.77 773.67,-302.05 771.27,-308.63"/>
</a>
</g>
</g>
<!-- Node23 -->
<g id="Node000023" class="node">
<title>Node23</title>
<g id="a_Node000023"><a xlink:href="namespacem__data__input.html#a6e65911baddf566b7a796fadcea57495" target="_top" xlink:title="Helper subroutine to setup MPI data I/O parameters.">
<polygon fill="white" stroke="#666666" points="906.5,-116 779.5,-116 779.5,-86 906.5,-86 906.5,-116"/>
<text text-anchor="start" x="787.5" y="-104" font-family="Helvetica,sans-Serif" font-size="10.00">m_data_input::s_setup</text>
<text text-anchor="middle" x="843" y="-93" font-family="Helvetica,sans-Serif" font-size="10.00">_mpi_io_params</text>
</a>
</g>
</g>
<!-- Node17&#45;&gt;Node23 -->
<g id="edge24_Node000017_Node000023" class="edge">
<title>Node17&#45;&gt;Node23</title>
<g id="a_edge24_Node000017_Node000023"><a xlink:title=" ">
<path fill="none" stroke="#63b8ff" d="M666.86,-155.91C691.92,-146.52 725.17,-134.48 755,-125 761.42,-122.96 768.14,-120.93 774.87,-118.96"/>
<polygon fill="#63b8ff" stroke="#63b8ff" points="776.08,-122.25 784.72,-116.12 774.14,-115.53 776.08,-122.25"/>
</a>
</g>
</g>
<!-- Node22&#45;&gt;Node12 -->
<g id="edge23_Node000022_Node000012" class="edge">
<title>Node22&#45;&gt;Node12</title>
<g id="a_edge23_Node000022_Node000012"><a xlink:title=" ">
<path fill="none" stroke="#63b8ff" d="M904.19,-333.14C913.5,-336.27 922.76,-340.16 931,-345 971.43,-368.72 1007.44,-410.48 1027.57,-436.61"/>
<polygon fill="#63b8ff" stroke="#63b8ff" points="1024.96,-438.96 1033.78,-444.83 1030.55,-434.74 1024.96,-438.96"/>
</a>
</g>
</g>
<!-- Node23&#45;&gt;Node18 -->
<g id="edge25_Node000023_Node000018" class="edge">
<title>Node23&#45;&gt;Node18</title>
<g id="a_edge25_Node000023_Node000018"><a xlink:title=" ">
<path fill="none" stroke="#63b8ff" d="M906.61,-94.44C922.41,-92.79 939.66,-90.98 956.45,-89.22"/>
<polygon fill="#63b8ff" stroke="#63b8ff" points="957.25,-92.66 966.83,-88.13 956.52,-85.7 957.25,-92.66"/>
</a>
</g>
</g>
<!-- Node24&#45;&gt;Node11 -->
<g id="edge28_Node000024_Node000011" class="edge">
<title>Node24&#45;&gt;Node11</title>
<g id="a_edge28_Node000024_Node000011"><a xlink:title=" ">
<path fill="none" stroke="#63b8ff" d="M687.54,-534.69C710.95,-529.88 738.12,-524.31 763.08,-519.19"/>
<polygon fill="#63b8ff" stroke="#63b8ff" points="763.79,-522.62 772.89,-517.18 762.39,-515.76 763.79,-522.62"/>
</a>
</g>
</g>
<!-- Node24&#45;&gt;Node12 -->
<g id="edge29_Node000024_Node000012" class="edge">
<title>Node24&#45;&gt;Node12</title>
<g id="a_edge29_Node000024_Node000012"><a xlink:title=" ">
<path fill="none" stroke="#63b8ff" d="M687.73,-551.12C750.05,-553.54 849.52,-552.16 931,-527 962.85,-517.16 995.2,-496.83 1017.17,-481.13"/>
<polygon fill="#63b8ff" stroke="#63b8ff" points="1019.34,-483.88 1025.35,-475.16 1015.21,-478.23 1019.34,-483.88"/>
</a>
</g>
</g>
<!-- Node24&#45;&gt;Node15 -->
<g id="edge27_Node000024_Node000015" class="edge">
<title>Node24&#45;&gt;Node15</title>
<g id="a_edge27_Node000024_Node000015"><a xlink:title=" ">
<path fill="none" stroke="#63b8ff" d="M652.53,-531.83C691.11,-508.45 765.19,-463.55 808.4,-437.36"/>
<polygon fill="#63b8ff" stroke="#63b8ff" points="810.4,-440.25 817.13,-432.07 806.77,-434.26 810.4,-440.25"/>
</a>
</g>
</g>
<!-- Node24&#45;&gt;Node22 -->
<g id="edge32_Node000024_Node000022" class="edge">
<title>Node24&#45;&gt;Node22</title>
<g id="a_edge32_Node000024_Node000022"><a xlink:title=" ">
<path fill="none" stroke="#63b8ff" d="M636.12,-532C661.85,-487.42 737.39,-358.07 755,-345 760.2,-341.14 765.99,-337.9 772.05,-335.18"/>
<polygon fill="#63b8ff" stroke="#63b8ff" points="773.73,-338.28 781.73,-331.32 771.14,-331.77 773.73,-338.28"/>
</a>
</g>
</g>
<!-- Node25 -->
<g id="Node000025" class="node">
<title>Node25</title>
<g id="a_Node000025"><a xlink:href="namespacem__data__input.html#a888fdc1ceb8dcce14220719df6a6f23f" target="_top" xlink:title="Helper subroutine to read grid data files for a given direction.">
<polygon fill="white" stroke="#666666" points="904,-604 782,-604 782,-574 904,-574 904,-604"/>
<text text-anchor="start" x="790" y="-592" font-family="Helvetica,sans-Serif" font-size="10.00">m_data_input::s_read</text>
<text text-anchor="middle" x="843" y="-581" font-family="Helvetica,sans-Serif" font-size="10.00">_grid_data_direction</text>
</a>
</g>
</g>
<!-- Node24&#45;&gt;Node25 -->
<g id="edge30_Node000024_Node000025" class="edge">
<title>Node24&#45;&gt;Node25</title>
<g id="a_edge30_Node000024_Node000025"><a xlink:title=" ">
<path fill="none" stroke="#63b8ff" d="M687.54,-558.76C713.81,-563.9 744.8,-569.97 772.1,-575.31"/>
<polygon fill="#63b8ff" stroke="#63b8ff" points="771.49,-578.76 781.98,-577.25 772.84,-571.89 771.49,-578.76"/>
</a>
</g>
</g>
<!-- Node26 -->
<g id="Node000026" class="node">
<title>Node26</title>
<g id="a_Node000026"><a xlink:href="namespacem__boundary__io.html#a6bd453bc00436c7cbb2d823169f9dd10" target="_top" xlink:title="Read boundary condition type and buffer data from serial (unformatted) restart files.">
<polygon fill="white" stroke="#666666" points="931,-652 755,-652 755,-622 931,-622 931,-652"/>
<text text-anchor="start" x="763" y="-640" font-family="Helvetica,sans-Serif" font-size="10.00">m_boundary_io::s_read</text>
<text text-anchor="middle" x="843" y="-629" font-family="Helvetica,sans-Serif" font-size="10.00">_serial_boundary_condition_files</text>
</a>
</g>
</g>
<!-- Node24&#45;&gt;Node26 -->
<g id="edge33_Node000024_Node000026" class="edge">
<title>Node24&#45;&gt;Node26</title>
<g id="a_edge33_Node000024_Node000026"><a xlink:title=" ">
<path fill="none" stroke="#63b8ff" d="M652.65,-562.02C677.85,-576.58 718.1,-598.54 755,-613 760.33,-615.09 765.9,-617.07 771.55,-618.93"/>
<polygon fill="#63b8ff" stroke="#63b8ff" points="770.5,-622.27 781.09,-621.95 772.61,-615.59 770.5,-622.27"/>
</a>
</g>
</g>
<!-- Node25&#45;&gt;Node12 -->
<g id="edge31_Node000025_Node000012" class="edge">
<title>Node25&#45;&gt;Node12</title>
<g id="a_edge31_Node000025_Node000012"><a xlink:title=" ">
<path fill="none" stroke="#63b8ff" d="M900.2,-573.95C910.77,-570.11 921.48,-565.48 931,-560 967.45,-539.03 1002.71,-505.17 1024,-482.75"/>
<polygon fill="#63b8ff" stroke="#63b8ff" points="1026.66,-485.03 1030.93,-475.34 1021.55,-480.25 1026.66,-485.03"/>
</a>
</g>
</g>
<!-- Node27&#45;&gt;Node15 -->
<g id="edge35_Node000027_Node000015" class="edge">
<title>Node27&#45;&gt;Node15</title>
<g id="a_edge35_Node000027_Node000015"><a xlink:title=" ">
<path fill="none" stroke="#63b8ff" d="M319.24,-418.75C436.52,-418.36 663.74,-417.6 775.98,-417.22"/>
<polygon fill="#63b8ff" stroke="#63b8ff" points="776.16,-420.72 786.15,-417.19 776.13,-413.72 776.16,-420.72"/>
</a>
</g>
</g>
<!-- Node28 -->
<g id="Node000028" class="node">
<title>Node28</title>
<g id="a_Node000028"><a xlink:href="namespacem__compile__specific.html#aa1b4e12a20e09147a215c3b5018484b0" target="_top" xlink:title="Create a directory and all its parents if it does not exist.">
<polygon fill="white" stroke="#666666" points="485,-386 372,-386 372,-356 485,-356 485,-386"/>
<text text-anchor="start" x="380" y="-374" font-family="Helvetica,sans-Serif" font-size="10.00">m_compile_specific</text>
<text text-anchor="middle" x="428.5" y="-363" font-family="Helvetica,sans-Serif" font-size="10.00">::s_create_directory</text>
</a>
</g>
</g>
<!-- Node27&#45;&gt;Node28 -->
<g id="edge36_Node000027_Node000028" class="edge">
<title>Node27&#45;&gt;Node28</title>
<g id="a_edge36_Node000027_Node000028"><a xlink:title=" ">
<path fill="none" stroke="#63b8ff" d="M302.59,-403.94C321.49,-398.96 342.68,-393.37 362.16,-388.23"/>
<polygon fill="#63b8ff" stroke="#63b8ff" points="363.09,-391.61 371.86,-385.67 361.3,-384.84 363.09,-391.61"/>
</a>
</g>
</g>
<!-- Node31 -->
<g id="Node000031" class="node">
<title>Node31</title>
<g id="a_Node000031"><a xlink:href="namespacem__global__parameters__common.html#a9ff5283437e24cbb0bb7ddfa435b2aa6" target="_top" xlink:title="Initialize equation&#45;index state (eqn_idx, sys_size, b_size, tensor_size) from the namelist parameters...">
<polygon fill="white" stroke="#666666" points="490,-326.5 367,-326.5 367,-285.5 490,-285.5 490,-326.5"/>
<text text-anchor="start" x="375" y="-314.5" font-family="Helvetica,sans-Serif" font-size="10.00">m_global_parameters</text>
<text text-anchor="start" x="375" y="-303.5" font-family="Helvetica,sans-Serif" font-size="10.00">_common::s_initialize</text>
<text text-anchor="middle" x="428.5" y="-292.5" font-family="Helvetica,sans-Serif" font-size="10.00">_eqn_idx</text>
</a>
</g>
</g>
<!-- Node30&#45;&gt;Node31 -->
<g id="edge39_Node000030_Node000031" class="edge">
<title>Node30&#45;&gt;Node31</title>
<g id="a_edge39_Node000030_Node000031"><a xlink:title=" ">
<path fill="none" stroke="#63b8ff" d="M306.1,-306C322.29,-306 339.92,-306 356.61,-306"/>
<polygon fill="#63b8ff" stroke="#63b8ff" points="356.85,-309.5 366.85,-306 356.85,-302.5 356.85,-309.5"/>
</a>
</g>
</g>
</g>
</svg>

<g id="navigator" transform="translate(0 0)" fill="#404254">
  <rect fill="#f2f5e9" fill-opacity="0.5" stroke="#606060" stroke-width=".5" x="0" y="0" width="60" height="60"/>
  <use id="zoomplus" xlink:href="#zoomPlus" x="17" y="9" onmousedown="handleZoom(evt,'in')"/>
  <use id="zoomminus" xlink:href="#zoomMin" x="42" y="9" onmousedown="handleZoom(evt,'out')"/>
  <use id="reset" xlink:href="#resetDef" x="30" y="36" onmousedown="handleReset()"/>
   <use id="arrowup" xlink:href="#arrowUp" x="0" y="0" onmousedown="handlePan(0,-1)"/>
  <use id="arrowright" xlink:href="#arrowRight" x="0" y="0" onmousedown="handlePan(1,0)"/>
  <use id="arrowdown" xlink:href="#arrowDown" x="0" y="0" onmousedown="handlePan(0,1)"/>
  <use id="arrowleft" xlink:href="#arrowLeft" x="0" y="0" onmousedown="handlePan(-1,0)"/>
</g>
<svg viewBox="0 0 15 15" width="100%" height="30px" preserveAspectRatio="xMaxYMin meet">
 <g id="arrow_out" transform="scale(0.3 0.3)">
  <a xlink:href="namespacem__start__up_aea20fb8945d467b344a487cfe8213d99_cgraph_org.svg" target="_base">
   <rect id="button" ry="5" rx="5" y="6" x="6" height="38" width="38"
        fill="#f2f5e9" fill-opacity="0.5" stroke="#606060" stroke-width="1.0"/>
   <path id="arrow"
     d="M 11.500037,31.436501 C 11.940474,20.09759 22.043105,11.32322 32.158766,21.979434 L 37.068811,17.246167 C 37.068811,17.246167 37.088388,32 37.088388,32 L 22.160133,31.978069 C 22.160133,31.978069 26.997745,27.140456 26.997745,27.140456 C 18.528582,18.264221 13.291696,25.230495 11.500037,31.436501 z"
     style="fill:#404040;"/>
  </a>
 </g>
</svg>

<style type='text/css'>
<![CDATA[
[data-mouse-over-selected='false'] { opacity: 0.7; }
[data-mouse-over-selected='true']  { opacity: 1.0; }
]]>
</style>
<script type="application/ecmascript"><![CDATA[
document.addEventListener('DOMContentLoaded', (event) => {
  highlightEdges();
  highlightAdjacentNodes();
});
]]></script>
</svg>
