<?xml version="1.0" encoding="UTF-8" standalone="no"?>
<!DOCTYPE svg PUBLIC "-//W3C//DTD SVG 1.1//EN"
 "http://www.w3.org/Graphics/SVG/1.1/DTD/svg11.dtd">
<!-- Generated by graphviz version 2.43.0 (0)
 -->
<!-- Title: m_eos::f_c2_from_coefficients Pages: 1 -->
<!--zoomable 97 -->

<svg id="main" version="1.1" xmlns="http://www.w3.org/2000/svg" xmlns:xlink="http://www.w3.org/1999/xlink" xml:space="preserve" onload="init(evt)">

<style type="text/css"><![CDATA[
.node, .edge {opacity: 0.7;}
.node.selected, .edge.selected {opacity: 1;}
.edge:hover path { stroke: red; }
.edge:hover polygon { stroke: red; fill: red; }
]]></style>

<defs>
  <circle id="rim" cx="0" cy="0" r="7"/>
  <circle id="rim2" cx="0" cy="0" r="3.5"/>
  <g id="zoomPlus">
    <use xlink:href="#rim" fill="#404040"><set attributeName="fill" to="#808080" begin="zoomplus.mouseover" end="zoomplus.mouseout"/></use>
    <path d="M-4,0h8M0,-4v8" fill="none" stroke="white" stroke-width="1.5" pointer-events="none"/>
  </g>
  <g id="zoomMin">
    <use xlink:href="#rim" fill="#404040"><set attributeName="fill" to="#808080" begin="zoomminus.mouseover" end="zoomminus.mouseout"/></use>
    <path d="M-4,0h8" fill="none" stroke="white" stroke-width="1.5" pointer-events="none"/>
  </g>
  <g id="arrowUp" transform="translate(30 24)">
    <use xlink:href="#rim"/>
    <path pointer-events="none" fill="none" stroke="white" stroke-width="1.5" d="M0,-3.0v7 M-2.5,-0.5L0,-3.0L2.5,-0.5"/>
  </g>
  <g id="arrowRight" transform="rotate(90) translate(36 -43)">
    <use xlink:href="#rim"/>
    <path pointer-events="none" fill="none" stroke="white" stroke-width="1.5" d="M0,-3.0v7 M-2.5,-0.5L0,-3.0L2.5,-0.5"/>
  </g>
  <g id="arrowDown" transform="rotate(180) translate(-30 -48)">
    <use xlink:href="#rim"/>
    <path pointer-events="none" fill="none" stroke="white" stroke-width="1.5" d="M0,-3.0v7 M-2.5,-0.5L0,-3.0L2.5,-0.5"/>
  </g>
  <g id="arrowLeft" transform="rotate(270) translate(-36 17)">
    <use xlink:href="#rim"/>
    <path pointer-events="none" fill="none" stroke="white" stroke-width="1.5" d="M0,-3.0v7 M-2.5,-0.5L0,-3.0L2.5,-0.5"/>
  </g>
  <g id="resetDef">
    <use xlink:href="#rim2" fill="#404040"><set attributeName="fill" to="#808080" begin="reset.mouseover" end="reset.mouseout"/></use>
  </g>
</defs>
<script type="application/ecmascript">
var viewWidth = 1048;
var viewHeight = 97;
var sectionId = 'dynsection-1';
</script>
<script type="application/ecmascript" xlink:href="svg.min.js"/>
<svg id="graph" class="graph">
<g id="viewport">
<title>m_eos::f_c2_from_coefficients</title>
<!-- Node1 -->
<g id="Node000001" class="node">
<title>Node1</title>
<g id="a_Node000001"><a xlink:title="c^2 = [((Gamma + 1) p + Pi)/rho &#45; dPi/drho &#45; p dGamma/drho]/Gamma, the frozen speed of one phase.">
<polygon fill="#999999" stroke="#666666" points="1040,-21.5 875,-21.5 875,-2.5 1040,-2.5 1040,-21.5"/>
<text text-anchor="middle" x="957.5" y="-9.5" font-family="Helvetica,sans-Serif" font-size="10.00">m_eos::f_c2_from_coefficients</text>
</a>
</g>
</g>
<!-- Node2 -->
<g id="Node000002" class="node">
<title>Node2</title>
<g id="a_Node000002"><a xlink:href="namespacem__eos.html#a62af0ed16a0014e1f2af776d7af4f9e8" target="_top" xlink:title="Frozen sound speed squared of one phase at (rho, p) from its own coefficients. These helpers are subr...">
<polygon fill="white" stroke="#666666" points="839,-21.5 728,-21.5 728,-2.5 839,-2.5 839,-21.5"/>
<text text-anchor="middle" x="783.5" y="-9.5" font-family="Helvetica,sans-Serif" font-size="10.00">m_eos::s_phase_c2</text>
</a>
</g>
</g>
<!-- Node1&#45;&gt;Node2 -->
<g id="edge1_Node000001_Node000002" class="edge">
<title>Node1&#45;&gt;Node2</title>
<g id="a_edge1_Node000001_Node000002"><a xlink:title=" ">
<path fill="none" stroke="#63b8ff" d="M864.54,-12C855.82,-12 847.19,-12 839,-12"/>
<polygon fill="#63b8ff" stroke="#63b8ff" points="864.78,-15.5 874.78,-12 864.78,-8.5 864.78,-15.5"/>
</a>
</g>
</g>
<!-- Node3 -->
<g id="Node000003" class="node">
<title>Node3</title>
<g id="a_Node000003"><a xlink:href="namespacem__eos.html#a87cb1284cde4a4acbb3ccd640afa82bb" target="_top" xlink:title="Slope of the ODE kind for fluid i: dp/drho = c^2 along an isentrope (x = rho, y = p),...">
<polygon fill="white" stroke="#666666" points="692,-42.5 577,-42.5 577,-23.5 692,-23.5 692,-42.5"/>
<text text-anchor="middle" x="634.5" y="-30.5" font-family="Helvetica,sans-Serif" font-size="10.00">m_eos::s_ode_slope</text>
</a>
</g>
</g>
<!-- Node2&#45;&gt;Node3 -->
<g id="edge2_Node000002_Node000003" class="edge">
<title>Node2&#45;&gt;Node3</title>
<g id="a_edge2_Node000002_Node000003"><a xlink:title=" ">
<path fill="none" stroke="#63b8ff" d="M717.85,-21.24C709.32,-22.45 700.63,-23.7 692.25,-24.89"/>
<polygon fill="#63b8ff" stroke="#63b8ff" points="718.36,-24.7 727.76,-19.82 717.37,-17.77 718.36,-24.7"/>
</a>
</g>
</g>
<!-- Node6 -->
<g id="Node000006" class="node">
<title>Node6</title>
<g id="a_Node000006"><a xlink:href="namespacem__eos.html#a15f503de267bd44e1f964bd6f259f8d3" target="_top" xlink:title="Density of phase i on the isentrope through (rho_from, p_from) at p_to, and c^2 there: Newton on the ...">
<polygon fill="white" stroke="#666666" points="226,-30 90,-30 90,0 226,0 226,-30"/>
<text text-anchor="start" x="98" y="-18" font-family="Helvetica,sans-Serif" font-size="10.00">m_eos::s_phase_density</text>
<text text-anchor="middle" x="158" y="-7" font-family="Helvetica,sans-Serif" font-size="10.00">_on_isentrope</text>
</a>
</g>
</g>
<!-- Node2&#45;&gt;Node6 -->
<g id="edge9_Node000002_Node000006" class="edge">
<title>Node2&#45;&gt;Node6</title>
<g id="a_edge9_Node000002_Node000006"><a xlink:title=" ">
<path fill="none" stroke="#63b8ff" d="M717.82,-11.4C619.56,-10.63 426.75,-9.64 263,-12 251.08,-12.17 238.39,-12.45 226.13,-12.78"/>
<polygon fill="#63b8ff" stroke="#63b8ff" points="717.87,-14.9 727.9,-11.48 717.93,-7.9 717.87,-14.9"/>
</a>
</g>
</g>
<!-- Node4 -->
<g id="Node000004" class="node">
<title>Node4</title>
<g id="a_Node000004"><a xlink:href="namespacem__eos.html#a5ebc2d48e418d117cc50ca367b4dad9f" target="_top" xlink:title="Fixed&#45;step classical RK4 for the ODE kind from (x0, y0) to x1.">
<polygon fill="white" stroke="#666666" points="541,-45.5 460,-45.5 460,-26.5 541,-26.5 541,-45.5"/>
<text text-anchor="middle" x="500.5" y="-33.5" font-family="Helvetica,sans-Serif" font-size="10.00">m_eos::s_rk4</text>
</a>
</g>
</g>
<!-- Node3&#45;&gt;Node4 -->
<g id="edge3_Node000003_Node000004" class="edge">
<title>Node3&#45;&gt;Node4</title>
<g id="a_edge3_Node000003_Node000004"><a xlink:title=" ">
<path fill="none" stroke="#63b8ff" d="M566.55,-34.52C557.84,-34.72 549.14,-34.92 541.08,-35.1"/>
<polygon fill="#63b8ff" stroke="#63b8ff" points="566.84,-38.02 576.75,-34.29 566.68,-31.02 566.84,-38.02"/>
</a>
</g>
</g>
<!-- Node5 -->
<g id="Node000005" class="node">
<title>Node5</title>
<g id="a_Node000005"><a xlink:href="namespacem__eos.html#a329d9e1ced57f1ceb8650422b630791d" target="_top" xlink:title="Pressure of phase i after the isentropic density change rho &#45;&gt; xi rho: closed form for the constant&#45;c...">
<polygon fill="white" stroke="#666666" points="414.5,-51 272.5,-51 272.5,-21 414.5,-21 414.5,-51"/>
<text text-anchor="start" x="280.5" y="-39" font-family="Helvetica,sans-Serif" font-size="10.00">m_eos::s_phase_pressure</text>
<text text-anchor="middle" x="343.5" y="-28" font-family="Helvetica,sans-Serif" font-size="10.00">_on_isentrope</text>
</a>
</g>
</g>
<!-- Node4&#45;&gt;Node5 -->
<g id="edge4_Node000004_Node000005" class="edge">
<title>Node4&#45;&gt;Node5</title>
<g id="a_edge4_Node000004_Node000005"><a xlink:title=" ">
<path fill="none" stroke="#63b8ff" d="M449.95,-36C438.72,-36 426.58,-36 414.67,-36"/>
<polygon fill="#63b8ff" stroke="#63b8ff" points="449.99,-39.5 459.99,-36 449.99,-32.5 449.99,-39.5"/>
</a>
</g>
</g>
<!-- Node7 -->
<g id="Node000007" class="node">
<title>Node7</title>
<g id="a_Node000007"><a xlink:href="namespacem__eos.html#a54f9a6cbd744b112c24b6a9a03a4fb21" target="_top" xlink:title="Temperature of phase i at (rho, p): the stiffened&#45;gas relation, or T_ref(rho) + (e &#45; e_ref)/c_v.">
<polygon fill="white" stroke="#666666" points="424,-88.5 263,-88.5 263,-69.5 424,-69.5 424,-88.5"/>
<text text-anchor="middle" x="343.5" y="-76.5" font-family="Helvetica,sans-Serif" font-size="10.00">m_eos::s_phase_temperature</text>
</a>
</g>
</g>
<!-- Node4&#45;&gt;Node7 -->
<g id="edge6_Node000004_Node000007" class="edge">
<title>Node4&#45;&gt;Node7</title>
<g id="a_edge6_Node000004_Node000007"><a xlink:title=" ">
<path fill="none" stroke="#63b8ff" d="M461.33,-48.73C449.42,-52.54 436.22,-56.6 424,-60 412.11,-63.31 399.11,-66.56 387.14,-69.42"/>
<polygon fill="#63b8ff" stroke="#63b8ff" points="462.53,-52.02 470.97,-45.61 460.37,-45.36 462.53,-52.02"/>
</a>
</g>
</g>
<!-- Node5&#45;&gt;Node6 -->
<g id="edge5_Node000005_Node000006" class="edge">
<title>Node5&#45;&gt;Node6</title>
<g id="a_edge5_Node000005_Node000006"><a xlink:title=" ">
<path fill="none" stroke="#63b8ff" d="M262.28,-26.82C250.2,-25.44 237.86,-24.02 226.1,-22.68"/>
<polygon fill="#63b8ff" stroke="#63b8ff" points="262.01,-30.31 272.34,-27.97 262.8,-23.36 262.01,-30.31"/>
</a>
</g>
</g>
<!-- Node8 -->
<g id="Node000008" class="node">
<title>Node8</title>
<g id="a_Node000008"><a xlink:href="namespacem__start__up.html#a1b658dbb130b83de8ace22b3b76d76b3" target="_top" xlink:title="Derive requested flow quantities from primitive variables and write them to the formatted database fi...">
<polygon fill="white" stroke="#666666" points="227,-88.5 89,-88.5 89,-69.5 227,-69.5 227,-88.5"/>
<text text-anchor="middle" x="158" y="-76.5" font-family="Helvetica,sans-Serif" font-size="10.00">m_start_up::s_save_data</text>
</a>
</g>
</g>
<!-- Node7&#45;&gt;Node8 -->
<g id="edge7_Node000007_Node000008" class="edge">
<title>Node7&#45;&gt;Node8</title>
<g id="a_edge7_Node000007_Node000008"><a xlink:title=" ">
<path fill="none" stroke="#63b8ff" d="M252.73,-79C244.11,-79 235.48,-79 227.12,-79"/>
<polygon fill="#63b8ff" stroke="#63b8ff" points="252.81,-82.5 262.81,-79 252.81,-75.5 252.81,-82.5"/>
</a>
</g>
</g>
<!-- Node9 -->
<g id="Node000009" class="node">
<title>Node9</title>
<g id="a_Node000009"><a xlink:href="p__main_8fpp_8f90.html#aeec10ee8e2940c953967da3e374e1579" target="_top" xlink:title="Post&#45;process raw simulation data into formatted database files (Silo&#45;HDF5 or Binary).">
<polygon fill="white" stroke="#666666" points="53,-88.5 0,-88.5 0,-69.5 53,-69.5 53,-88.5"/>
<text text-anchor="middle" x="26.5" y="-76.5" font-family="Helvetica,sans-Serif" font-size="10.00">p_main</text>
</a>
</g>
</g>
<!-- Node8&#45;&gt;Node9 -->
<g id="edge8_Node000008_Node000009" class="edge">
<title>Node8&#45;&gt;Node9</title>
<g id="a_edge8_Node000008_Node000009"><a xlink:title=" ">
<path fill="none" stroke="#63b8ff" d="M78.81,-79C69.67,-79 60.91,-79 53.29,-79"/>
<polygon fill="#63b8ff" stroke="#63b8ff" points="78.84,-82.5 88.84,-79 78.84,-75.5 78.84,-82.5"/>
</a>
</g>
</g>
</g>
</svg>

<g id="navigator" transform="translate(0 0)" fill="#404254">
  <rect fill="#f2f5e9" fill-opacity="0.5" stroke="#606060" stroke-width=".5" x="0" y="0" width="60" height="60"/>
  <use id="zoomplus" xlink:href="#zoomPlus" x="17" y="9" onmousedown="handleZoom(evt,'in')"/>
  <use id="zoomminus" xlink:href="#zoomMin" x="42" y="9" onmousedown="handleZoom(evt,'out')"/>
  <use id="reset" xlink:href="#resetDef" x="30" y="36" onmousedown="handleReset()"/>
   <use id="arrowup" xlink:href="#arrowUp" x="0" y="0" onmousedown="handlePan(0,-1)"/>
  <use id="arrowright" xlink:href="#arrowRight" x="0" y="0" onmousedown="handlePan(1,0)"/>
  <use id="arrowdown" xlink:href="#arrowDown" x="0" y="0" onmousedown="handlePan(0,1)"/>
  <use id="arrowleft" xlink:href="#arrowLeft" x="0" y="0" onmousedown="handlePan(-1,0)"/>
</g>
<svg viewBox="0 0 15 15" width="100%" height="30px" preserveAspectRatio="xMaxYMin meet">
 <g id="arrow_out" transform="scale(0.3 0.3)">
  <a xlink:href="namespacem__eos_a7ba17e1c8ce6dd3120ae00e70e7f348c_icgraph_org.svg" target="_base">
   <rect id="button" ry="5" rx="5" y="6" x="6" height="38" width="38"
        fill="#f2f5e9" fill-opacity="0.5" stroke="#606060" stroke-width="1.0"/>
   <path id="arrow"
     d="M 11.500037,31.436501 C 11.940474,20.09759 22.043105,11.32322 32.158766,21.979434 L 37.068811,17.246167 C 37.068811,17.246167 37.088388,32 37.088388,32 L 22.160133,31.978069 C 22.160133,31.978069 26.997745,27.140456 26.997745,27.140456 C 18.528582,18.264221 13.291696,25.230495 11.500037,31.436501 z"
     style="fill:#404040;"/>
  </a>
 </g>
</svg>

<style type='text/css'>
<![CDATA[
[data-mouse-over-selected='false'] { opacity: 0.7; }
[data-mouse-over-selected='true']  { opacity: 1.0; }
]]>
</style>
<script type="application/ecmascript"><![CDATA[
document.addEventListener('DOMContentLoaded', (event) => {
  highlightEdges();
  highlightAdjacentNodes();
});
]]></script>
</svg>
