<?xml version="1.0" encoding="UTF-8" standalone="no"?>
<!DOCTYPE svg PUBLIC "-//W3C//DTD SVG 1.1//EN"
 "http://www.w3.org/Graphics/SVG/1.1/DTD/svg11.dtd">
<!-- Generated by graphviz version 2.43.0 (0)
 -->
<!-- Title: m_helper_basic::f_approx_equal Pages: 1 -->
<svg width="605pt" height="225pt"
 viewBox="0.00 0.00 605.00 225.00" xmlns="http://www.w3.org/2000/svg" xmlns:xlink="http://www.w3.org/1999/xlink">
<g id="graph0" class="graph" transform="scale(1 1) rotate(0) translate(4 221)">
<title>m_helper_basic::f_approx_equal</title>
<!-- Node1 -->
<g id="Node000001" class="node">
<title>Node1</title>
<g id="a_Node000001"><a xlink:title="This procedure checks if two floating point numbers of wp are within tolerance.">
<polygon fill="#999999" stroke="#666666" points="597,-121 455,-121 455,-91 597,-91 597,-121"/>
<text text-anchor="start" x="463" y="-109" font-family="Helvetica,sans-Serif" font-size="10.00">m_helper_basic::f_approx</text>
<text text-anchor="middle" x="526" y="-98" font-family="Helvetica,sans-Serif" font-size="10.00">_equal</text>
</a>
</g>
</g>
<!-- Node2 -->
<g id="Node000002" class="node">
<title>Node2</title>
<g id="a_Node000002"><a xlink:href="namespacem__helper__basic.html#a388ce5b49cbc696a303c4b90bc391dce" target="_top" xlink:title="This procedure checks if the point numbers of wp belongs to another array are within tolerance.">
<polygon fill="white" stroke="#666666" points="419,-217 277,-217 277,-187 419,-187 419,-217"/>
<text text-anchor="start" x="285" y="-205" font-family="Helvetica,sans-Serif" font-size="10.00">m_helper_basic::f_approx</text>
<text text-anchor="middle" x="348" y="-194" font-family="Helvetica,sans-Serif" font-size="10.00">_in_array</text>
</a>
</g>
</g>
<!-- Node1&#45;&gt;Node2 -->
<g id="edge1_Node000001_Node000002" class="edge">
<title>Node1&#45;&gt;Node2</title>
<g id="a_edge1_Node000001_Node000002"><a xlink:title=" ">
<path fill="none" stroke="#63b8ff" d="M498.02,-127.3C477.31,-142.9 447.51,-163.75 419,-178 412.45,-181.27 405.35,-184.28 398.26,-186.97"/>
<polygon fill="#63b8ff" stroke="#63b8ff" points="500.21,-130.03 506.04,-121.18 495.97,-124.47 500.21,-130.03"/>
</a>
</g>
</g>
<!-- Node3 -->
<g id="Node000003" class="node">
<title>Node3</title>
<g id="a_Node000003"><a xlink:href="namespacem__helper__basic.html#af1b06a05daa43f724ac3b0ff2f97db14" target="_top" xlink:title="Checks if a real(wp) variable is of default value.">
<polygon fill="white" stroke="#666666" points="406,-169 290,-169 290,-139 406,-139 406,-169"/>
<text text-anchor="start" x="298" y="-157" font-family="Helvetica,sans-Serif" font-size="10.00">m_helper_basic::f_is</text>
<text text-anchor="middle" x="348" y="-146" font-family="Helvetica,sans-Serif" font-size="10.00">_default</text>
</a>
</g>
</g>
<!-- Node1&#45;&gt;Node3 -->
<g id="edge2_Node000001_Node000003" class="edge">
<title>Node1&#45;&gt;Node3</title>
<g id="a_edge2_Node000001_Node000003"><a xlink:title=" ">
<path fill="none" stroke="#63b8ff" d="M460.03,-123.72C441.62,-128.74 421.77,-134.15 404.01,-139"/>
<polygon fill="#63b8ff" stroke="#63b8ff" points="461.07,-127.06 469.8,-121.06 459.23,-120.31 461.07,-127.06"/>
</a>
</g>
</g>
<!-- Node5 -->
<g id="Node000005" class="node">
<title>Node5</title>
<g id="a_Node000005"><a xlink:href="namespacem__helper__basic.html#a2c677da1905f9b1c52e69ae431bfb70d" target="_top" xlink:title="Checks if a real(wp) variable is an integer.">
<polygon fill="white" stroke="#666666" points="406,-121 290,-121 290,-91 406,-91 406,-121"/>
<text text-anchor="start" x="298" y="-109" font-family="Helvetica,sans-Serif" font-size="10.00">m_helper_basic::f_is</text>
<text text-anchor="middle" x="348" y="-98" font-family="Helvetica,sans-Serif" font-size="10.00">_integer</text>
</a>
</g>
</g>
<!-- Node1&#45;&gt;Node5 -->
<g id="edge4_Node000001_Node000005" class="edge">
<title>Node1&#45;&gt;Node5</title>
<g id="a_edge4_Node000001_Node000005"><a xlink:title=" ">
<path fill="none" stroke="#63b8ff" d="M444.59,-106C431.61,-106 418.4,-106 406.12,-106"/>
<polygon fill="#63b8ff" stroke="#63b8ff" points="444.93,-109.5 454.93,-106 444.93,-102.5 444.93,-109.5"/>
</a>
</g>
</g>
<!-- Node6 -->
<g id="Node000006" class="node">
<title>Node6</title>
<g id="a_Node000006"><a xlink:href="namespacem__derived__variables.html#ac85e77b0312f21389eb166960446f6ec" target="_top" xlink:title="This subroutine derives the flux_limiter at cell boundary i+1/2. This is an approximation because the...">
<polygon fill="white" stroke="#666666" points="410.5,-73 285.5,-73 285.5,-43 410.5,-43 410.5,-73"/>
<text text-anchor="start" x="293.5" y="-61" font-family="Helvetica,sans-Serif" font-size="10.00">m_derived_variables</text>
<text text-anchor="middle" x="348" y="-50" font-family="Helvetica,sans-Serif" font-size="10.00">::s_derive_flux_limiter</text>
</a>
</g>
</g>
<!-- Node1&#45;&gt;Node6 -->
<g id="edge5_Node000001_Node000006" class="edge">
<title>Node1&#45;&gt;Node6</title>
<g id="a_edge5_Node000001_Node000006"><a xlink:title=" ">
<path fill="none" stroke="#63b8ff" d="M460.03,-88.28C441.62,-83.26 421.77,-77.85 404.01,-73"/>
<polygon fill="#63b8ff" stroke="#63b8ff" points="459.23,-91.69 469.8,-90.94 461.07,-84.94 459.23,-91.69"/>
</a>
</g>
</g>
<!-- Node9 -->
<g id="Node000009" class="node">
<title>Node9</title>
<g id="a_Node000009"><a xlink:href="namespacem__phase__change.html#a1c6df16af0868f7d4004d427cc7cead9" target="_top" xlink:title="This auxiliary subroutine finds the Saturation temperature for a given saturation pressure through a ...">
<polygon fill="white" stroke="#666666" points="416.5,-24.5 279.5,-24.5 279.5,-5.5 416.5,-5.5 416.5,-24.5"/>
<text text-anchor="middle" x="348" y="-12.5" font-family="Helvetica,sans-Serif" font-size="10.00">m_phase_change::s_tsat</text>
</a>
</g>
</g>
<!-- Node1&#45;&gt;Node9 -->
<g id="edge8_Node000001_Node000009" class="edge">
<title>Node1&#45;&gt;Node9</title>
<g id="a_edge8_Node000001_Node000009"><a xlink:title=" ">
<path fill="none" stroke="#63b8ff" d="M499.04,-84.73C478.43,-68.79 448.31,-47.47 419,-34 410.88,-30.27 401.87,-27.14 393.11,-24.58"/>
<polygon fill="#63b8ff" stroke="#63b8ff" points="496.96,-87.55 506.98,-90.99 501.29,-82.05 496.96,-87.55"/>
</a>
</g>
</g>
<!-- Node4 -->
<g id="Node000004" class="node">
<title>Node4</title>
<g id="a_Node000004"><a xlink:href="namespacem__helper__basic.html#a2a51671bfbfddf6ecabbc9593be49e1d" target="_top" xlink:title="Checks if ALL elements of a real(wp) array are of default value.">
<polygon fill="white" stroke="#666666" points="225,-169 105,-169 105,-139 225,-139 225,-169"/>
<text text-anchor="start" x="113" y="-157" font-family="Helvetica,sans-Serif" font-size="10.00">m_helper_basic::f_all</text>
<text text-anchor="middle" x="165" y="-146" font-family="Helvetica,sans-Serif" font-size="10.00">_default</text>
</a>
</g>
</g>
<!-- Node3&#45;&gt;Node4 -->
<g id="edge3_Node000003_Node000004" class="edge">
<title>Node3&#45;&gt;Node4</title>
<g id="a_edge3_Node000003_Node000004"><a xlink:title=" ">
<path fill="none" stroke="#63b8ff" d="M279.64,-154C261.73,-154 242.51,-154 225.08,-154"/>
<polygon fill="#63b8ff" stroke="#63b8ff" points="279.73,-157.5 289.73,-154 279.73,-150.5 279.73,-157.5"/>
</a>
</g>
</g>
<!-- Node7 -->
<g id="Node000007" class="node">
<title>Node7</title>
<g id="a_Node000007"><a xlink:href="namespacem__start__up.html#a029c0f28f15ce3aab7ada6d95db89688" target="_top" xlink:title=" ">
<polygon fill="white" stroke="#666666" points="234,-67.5 96,-67.5 96,-48.5 234,-48.5 234,-67.5"/>
<text text-anchor="middle" x="165" y="-55.5" font-family="Helvetica,sans-Serif" font-size="10.00">m_start_up::s_save_data</text>
</a>
</g>
</g>
<!-- Node6&#45;&gt;Node7 -->
<g id="edge6_Node000006_Node000007" class="edge">
<title>Node6&#45;&gt;Node7</title>
<g id="a_edge6_Node000006_Node000007"><a xlink:title=" ">
<path fill="none" stroke="#63b8ff" d="M275.26,-58C261.73,-58 247.61,-58 234.2,-58"/>
<polygon fill="#63b8ff" stroke="#63b8ff" points="275.47,-61.5 285.47,-58 275.47,-54.5 275.47,-61.5"/>
</a>
</g>
</g>
<!-- Node8 -->
<g id="Node000008" class="node">
<title>Node8</title>
<g id="a_Node000008"><a xlink:href="p__main_8fpp_8f90.html#aeec10ee8e2940c953967da3e374e1579" target="_top" xlink:title="The post&#45;process restructures raw unformatted data, outputted by the simulation, into a formatted dat...">
<polygon fill="white" stroke="#666666" points="53,-67.5 0,-67.5 0,-48.5 53,-48.5 53,-67.5"/>
<text text-anchor="middle" x="26.5" y="-55.5" font-family="Helvetica,sans-Serif" font-size="10.00">p_main</text>
</a>
</g>
</g>
<!-- Node7&#45;&gt;Node8 -->
<g id="edge7_Node000007_Node000008" class="edge">
<title>Node7&#45;&gt;Node8</title>
<g id="a_edge7_Node000007_Node000008"><a xlink:title=" ">
<path fill="none" stroke="#63b8ff" d="M85.46,-58C73.82,-58 62.6,-58 53.17,-58"/>
<polygon fill="#63b8ff" stroke="#63b8ff" points="85.75,-61.5 95.75,-58 85.75,-54.5 85.75,-61.5"/>
</a>
</g>
</g>
<!-- Node10 -->
<g id="Node000010" class="node">
<title>Node10</title>
<g id="a_Node000010"><a xlink:href="namespacem__phase__change.html#a19a8a866830bfc285d631672287a851f" target="_top" xlink:title="This subroutine is created to activate either the pT&#45; (N fluids) or the pTg&#45;equilibrium (2 fluids for...">
<polygon fill="white" stroke="#666666" points="241,-30 89,-30 89,0 241,0 241,-30"/>
<text text-anchor="start" x="97" y="-18" font-family="Helvetica,sans-Serif" font-size="10.00">m_phase_change::s_infinite</text>
<text text-anchor="middle" x="165" y="-7" font-family="Helvetica,sans-Serif" font-size="10.00">_relaxation_k</text>
</a>
</g>
</g>
<!-- Node9&#45;&gt;Node10 -->
<g id="edge9_Node000009_Node000010" class="edge">
<title>Node9&#45;&gt;Node10</title>
<g id="a_edge9_Node000009_Node000010"><a xlink:title=" ">
<path fill="none" stroke="#63b8ff" d="M269.31,-15C259.98,-15 250.46,-15 241.17,-15"/>
<polygon fill="#63b8ff" stroke="#63b8ff" points="269.34,-18.5 279.34,-15 269.34,-11.5 269.34,-18.5"/>
</a>
</g>
</g>
</g>
</svg>
