<?xml version="1.0" encoding="UTF-8" standalone="no"?>
<!DOCTYPE svg PUBLIC "-//W3C//DTD SVG 1.1//EN"
 "http://www.w3.org/Graphics/SVG/1.1/DTD/svg11.dtd">
<!-- Generated by graphviz version 2.43.0 (0)
 -->
<!-- Title: m_data_input::s_read_parallel_data_files Pages: 1 -->
<svg width="737pt" height="526pt"
 viewBox="0.00 0.00 737.00 526.00" xmlns="http://www.w3.org/2000/svg" xmlns:xlink="http://www.w3.org/1999/xlink">
<g id="graph0" class="graph" transform="scale(1 1) rotate(0) translate(4 522)">
<title>m_data_input::s_read_parallel_data_files</title>
<!-- Node1 -->
<g id="Node000001" class="node">
<title>Node1</title>
<g id="a_Node000001"><a xlink:title="Parallel&#45;read the raw data files present in the corresponding time&#45;step directory and to populate the...">
<polygon fill="#999999" stroke="#666666" points="122,-452 0,-452 0,-422 122,-422 122,-452"/>
<text text-anchor="start" x="8" y="-440" font-family="Helvetica,sans-Serif" font-size="10.00">m_data_input::s_read</text>
<text text-anchor="middle" x="61" y="-429" font-family="Helvetica,sans-Serif" font-size="10.00">_parallel_data_files</text>
</a>
</g>
</g>
<!-- Node2 -->
<g id="Node000002" class="node">
<title>Node2</title>
<g id="a_Node000002"><a xlink:href="namespacem__boundary__io.html#a54cc36c0c0b8f86ec53db19e98570fc7" target="_top" xlink:title="Initialize the per&#45;cell boundary condition type arrays with the global default BC values.">
<polygon fill="white" stroke="#666666" points="320.5,-518 180.5,-518 180.5,-488 320.5,-488 320.5,-518"/>
<text text-anchor="start" x="188.5" y="-506" font-family="Helvetica,sans-Serif" font-size="10.00">m_boundary_io::s_assign</text>
<text text-anchor="middle" x="250.5" y="-495" font-family="Helvetica,sans-Serif" font-size="10.00">_default_bc_type</text>
</a>
</g>
</g>
<!-- Node1&#45;&gt;Node2 -->
<g id="edge1_Node000001_Node000002" class="edge">
<title>Node1&#45;&gt;Node2</title>
<g id="a_edge1_Node000001_Node000002"><a xlink:title=" ">
<path fill="none" stroke="#63b8ff" d="M99.65,-452.12C117.28,-459.04 138.62,-467.2 158,-474 168.35,-477.63 179.43,-481.31 190.18,-484.78"/>
<polygon fill="#63b8ff" stroke="#63b8ff" points="189.34,-488.19 199.93,-487.9 191.47,-481.52 189.34,-488.19"/>
</a>
</g>
</g>
<!-- Node3 -->
<g id="Node000003" class="node">
<title>Node3</title>
<g id="a_Node000003"><a xlink:href="namespacem__mpi__common.html#a04cfc0bdb377a0ce2f9fd478e4bb3807" target="_top" xlink:title="The subroutine terminates the MPI execution environment.">
<polygon fill="white" stroke="#666666" points="717.5,-202 583.5,-202 583.5,-172 717.5,-172 717.5,-202"/>
<text text-anchor="start" x="591.5" y="-190" font-family="Helvetica,sans-Serif" font-size="10.00">m_mpi_common::s_mpi</text>
<text text-anchor="middle" x="650.5" y="-179" font-family="Helvetica,sans-Serif" font-size="10.00">_abort</text>
</a>
</g>
</g>
<!-- Node1&#45;&gt;Node3 -->
<g id="edge2_Node000001_Node000003" class="edge">
<title>Node1&#45;&gt;Node3</title>
<g id="a_edge2_Node000001_Node000003"><a xlink:title=" ">
<path fill="none" stroke="#63b8ff" d="M122.32,-445.51C234.41,-460.06 469.45,-484.15 536,-441 616.19,-389 640.22,-265.64 647,-212.3"/>
<polygon fill="#63b8ff" stroke="#63b8ff" points="650.49,-212.66 648.17,-202.32 643.53,-211.84 650.49,-212.66"/>
</a>
</g>
</g>
<!-- Node4 -->
<g id="Node000004" class="node">
<title>Node4</title>
<g id="a_Node000004"><a xlink:href="namespacem__boundary__io.html#ab6281588667a9843f9e3829c2a68c851" target="_top" xlink:title="Read boundary condition type and buffer data from per&#45;rank parallel files using MPI I/O.">
<polygon fill="white" stroke="#666666" points="343,-407 158,-407 158,-377 343,-377 343,-407"/>
<text text-anchor="start" x="166" y="-395" font-family="Helvetica,sans-Serif" font-size="10.00">m_boundary_io::s_read</text>
<text text-anchor="middle" x="250.5" y="-384" font-family="Helvetica,sans-Serif" font-size="10.00">_parallel_boundary_condition_files</text>
</a>
</g>
</g>
<!-- Node1&#45;&gt;Node4 -->
<g id="edge3_Node000001_Node000004" class="edge">
<title>Node1&#45;&gt;Node4</title>
<g id="a_edge3_Node000001_Node000004"><a xlink:title=" ">
<path fill="none" stroke="#63b8ff" d="M122.1,-422.58C139.54,-418.39 158.78,-413.77 176.9,-409.42"/>
<polygon fill="#63b8ff" stroke="#63b8ff" points="177.93,-412.78 186.84,-407.04 176.29,-405.97 177.93,-412.78"/>
</a>
</g>
</g>
<!-- Node8 -->
<g id="Node000008" class="node">
<title>Node8</title>
<g id="a_Node000008"><a xlink:href="namespacem__data__input.html#a5139fe69b24a1dc0e32b632e9bf5d0ee" target="_top" xlink:title="Helper subroutine to read parallel conservative variable data.">
<polygon fill="white" stroke="#666666" points="327.5,-181 173.5,-181 173.5,-151 327.5,-151 327.5,-181"/>
<text text-anchor="start" x="181.5" y="-169" font-family="Helvetica,sans-Serif" font-size="10.00">m_data_input::s_read</text>
<text text-anchor="middle" x="250.5" y="-158" font-family="Helvetica,sans-Serif" font-size="10.00">_parallel_conservative_data</text>
</a>
</g>
</g>
<!-- Node1&#45;&gt;Node8 -->
<g id="edge7_Node000001_Node000008" class="edge">
<title>Node1&#45;&gt;Node8</title>
<g id="a_edge7_Node000001_Node000008"><a xlink:title=" ">
<path fill="none" stroke="#63b8ff" d="M72.62,-421.65C103.88,-376.47 195.74,-243.7 233.26,-189.48"/>
<polygon fill="#63b8ff" stroke="#63b8ff" points="236.19,-191.39 239,-181.18 230.43,-187.41 236.19,-191.39"/>
</a>
</g>
</g>
<!-- Node5 -->
<g id="Node000005" class="node">
<title>Node5</title>
<g id="a_Node000005"><a xlink:href="namespacem__delay__file__access.html#a9b90086a2cf6bbb569047c955d2e67fe" target="_top" xlink:title="Introduce a rank&#45;dependent busy&#45;wait delay to stagger parallel file access and reduce I/O contention.">
<polygon fill="white" stroke="#666666" points="516,-336 399,-336 399,-306 516,-306 516,-336"/>
<text text-anchor="start" x="407" y="-324" font-family="Helvetica,sans-Serif" font-size="10.00">m_delay_file_access</text>
<text text-anchor="middle" x="457.5" y="-313" font-family="Helvetica,sans-Serif" font-size="10.00">::delayfileaccess</text>
</a>
</g>
</g>
<!-- Node4&#45;&gt;Node5 -->
<g id="edge4_Node000004_Node000005" class="edge">
<title>Node4&#45;&gt;Node5</title>
<g id="a_edge4_Node000004_Node000005"><a xlink:title=" ">
<path fill="none" stroke="#63b8ff" d="M290.65,-376.96C315.78,-367.46 349.17,-355.11 379,-345 384.64,-343.09 390.53,-341.15 396.44,-339.26"/>
<polygon fill="#63b8ff" stroke="#63b8ff" points="397.88,-342.47 406.35,-336.11 395.76,-335.8 397.88,-342.47"/>
</a>
</g>
</g>
<!-- Node6 -->
<g id="Node000006" class="node">
<title>Node6</title>
<g id="a_Node000006"><a xlink:href="namespacem__compile__specific.html#a9cf8c029e502931415929734c03f340d" target="_top" xlink:title="Inquires on the existence of a directory.">
<polygon fill="white" stroke="#666666" points="514,-432 401,-432 401,-402 514,-402 514,-432"/>
<text text-anchor="start" x="409" y="-420" font-family="Helvetica,sans-Serif" font-size="10.00">m_compile_specific</text>
<text text-anchor="middle" x="457.5" y="-409" font-family="Helvetica,sans-Serif" font-size="10.00">::my_inquire</text>
</a>
</g>
</g>
<!-- Node4&#45;&gt;Node6 -->
<g id="edge5_Node000004_Node000006" class="edge">
<title>Node4&#45;&gt;Node6</title>
<g id="a_edge5_Node000004_Node000006"><a xlink:title=" ">
<path fill="none" stroke="#63b8ff" d="M343.21,-403.18C359.14,-405.13 375.43,-407.11 390.51,-408.95"/>
<polygon fill="#63b8ff" stroke="#63b8ff" points="390.39,-412.46 400.74,-410.2 391.23,-405.51 390.39,-412.46"/>
</a>
</g>
</g>
<!-- Node7 -->
<g id="Node000007" class="node">
<title>Node7</title>
<g id="a_Node000007"><a xlink:href="namespacem__boundary__io.html#a74922617e3b2c7a414056d32bc6aa14d" target="_top" xlink:title="Create MPI derived datatypes for boundary condition type arrays and buffer arrays used in parallel I/...">
<polygon fill="white" stroke="#666666" points="527,-384 388,-384 388,-354 527,-354 527,-384"/>
<text text-anchor="start" x="396" y="-372" font-family="Helvetica,sans-Serif" font-size="10.00">m_boundary_io::s_create</text>
<text text-anchor="middle" x="457.5" y="-361" font-family="Helvetica,sans-Serif" font-size="10.00">_mpi_types</text>
</a>
</g>
</g>
<!-- Node4&#45;&gt;Node7 -->
<g id="edge6_Node000004_Node000007" class="edge">
<title>Node4&#45;&gt;Node7</title>
<g id="a_edge6_Node000004_Node000007"><a xlink:title=" ">
<path fill="none" stroke="#63b8ff" d="M343.21,-381.71C354.72,-380.42 366.41,-379.11 377.69,-377.84"/>
<polygon fill="#63b8ff" stroke="#63b8ff" points="378.38,-381.29 387.93,-376.69 377.6,-374.33 378.38,-381.29"/>
</a>
</g>
</g>
<!-- Node8&#45;&gt;Node3 -->
<g id="edge11_Node000008_Node000003" class="edge">
<title>Node8&#45;&gt;Node3</title>
<g id="a_edge11_Node000008_Node000003"><a xlink:title=" ">
<path fill="none" stroke="#63b8ff" d="M327.8,-160.47C385.21,-157.45 465.75,-155.65 536,-163 550.32,-164.5 565.5,-167.03 579.93,-169.9"/>
<polygon fill="#63b8ff" stroke="#63b8ff" points="579.29,-173.34 589.79,-171.94 580.7,-166.49 579.29,-173.34"/>
</a>
</g>
</g>
<!-- Node9 -->
<g id="Node000009" class="node">
<title>Node9</title>
<g id="a_Node000009"><a xlink:href="namespacem__mpi__common.html#a2e27b3212956af624c8da826f0c2c529" target="_top" xlink:title="Set up MPI I/O data views and variable pointers for parallel file output.">
<polygon fill="white" stroke="#666666" points="729,-95 572,-95 572,-65 729,-65 729,-95"/>
<text text-anchor="start" x="580" y="-83" font-family="Helvetica,sans-Serif" font-size="10.00">m_mpi_common::s_initialize</text>
<text text-anchor="middle" x="650.5" y="-72" font-family="Helvetica,sans-Serif" font-size="10.00">_mpi_data</text>
</a>
</g>
</g>
<!-- Node8&#45;&gt;Node9 -->
<g id="edge8_Node000008_Node000009" class="edge">
<title>Node8&#45;&gt;Node9</title>
<g id="a_edge8_Node000008_Node000009"><a xlink:title=" ">
<path fill="none" stroke="#63b8ff" d="M266.28,-150.98C288.44,-129.66 332.65,-91.58 379,-77 437.92,-58.47 507.7,-59.77 561.63,-65.42"/>
<polygon fill="#63b8ff" stroke="#63b8ff" points="561.52,-68.93 571.85,-66.56 562.3,-61.97 561.52,-68.93"/>
</a>
</g>
</g>
<!-- Node10 -->
<g id="Node000010" class="node">
<title>Node10</title>
<g id="a_Node000010"><a xlink:href="namespacem__mpi__common.html#a564644bad898d940dc6caea3297bb424" target="_top" xlink:title="Set up MPI I/O data views for downsampled (coarsened) parallel file output.">
<polygon fill="white" stroke="#666666" points="536,-30 379,-30 379,0 536,0 536,-30"/>
<text text-anchor="start" x="387" y="-18" font-family="Helvetica,sans-Serif" font-size="10.00">m_mpi_common::s_initialize</text>
<text text-anchor="middle" x="457.5" y="-7" font-family="Helvetica,sans-Serif" font-size="10.00">_mpi_data_ds</text>
</a>
</g>
</g>
<!-- Node8&#45;&gt;Node10 -->
<g id="edge9_Node000008_Node000010" class="edge">
<title>Node8&#45;&gt;Node10</title>
<g id="a_edge9_Node000008_Node000010"><a xlink:title=" ">
<path fill="none" stroke="#63b8ff" d="M263.72,-150.83C284.81,-125.52 330.48,-74.47 379,-44 384.8,-40.36 391.14,-37.06 397.6,-34.12"/>
<polygon fill="#63b8ff" stroke="#63b8ff" points="399.29,-37.2 407.11,-30.05 396.54,-30.76 399.29,-37.2"/>
</a>
</g>
</g>
<!-- Node11 -->
<g id="Node000011" class="node">
<title>Node11</title>
<g id="a_Node000011"><a xlink:href="namespacem__helper.html#afd343d70a36c65cb7be86a183aa594ac" target="_top" xlink:title="Convert an integer to its trimmed string representation.">
<polygon fill="white" stroke="#666666" points="520,-287.5 395,-287.5 395,-268.5 520,-268.5 520,-287.5"/>
<text text-anchor="middle" x="457.5" y="-275.5" font-family="Helvetica,sans-Serif" font-size="10.00">m_helper::s_int_to_str</text>
</a>
</g>
</g>
<!-- Node8&#45;&gt;Node11 -->
<g id="edge10_Node000008_Node000011" class="edge">
<title>Node8&#45;&gt;Node11</title>
<g id="a_edge10_Node000008_Node000011"><a xlink:title=" ">
<path fill="none" stroke="#63b8ff" d="M267.87,-181.26C290.91,-201.92 335.03,-238.55 379,-259 384.23,-261.43 389.81,-263.58 395.49,-265.46"/>
<polygon fill="#63b8ff" stroke="#63b8ff" points="394.5,-268.82 405.09,-268.39 396.55,-262.12 394.5,-268.82"/>
</a>
</g>
</g>
<!-- Node12 -->
<g id="Node000012" class="node">
<title>Node12</title>
<g id="a_Node000012"><a xlink:href="namespacem__mpi__common.html#a1073fc1fcb6f3b9394606d5c9285e9f0" target="_top" xlink:title="Halts all processes until all have reached barrier.">
<polygon fill="white" stroke="#666666" points="524.5,-250 390.5,-250 390.5,-220 524.5,-220 524.5,-250"/>
<text text-anchor="start" x="398.5" y="-238" font-family="Helvetica,sans-Serif" font-size="10.00">m_mpi_common::s_mpi</text>
<text text-anchor="middle" x="457.5" y="-227" font-family="Helvetica,sans-Serif" font-size="10.00">_barrier</text>
</a>
</g>
</g>
<!-- Node8&#45;&gt;Node12 -->
<g id="edge12_Node000008_Node000012" class="edge">
<title>Node8&#45;&gt;Node12</title>
<g id="a_edge12_Node000008_Node000012"><a xlink:title=" ">
<path fill="none" stroke="#63b8ff" d="M292.7,-181C317.61,-189.95 350.03,-201.41 379,-211 384.88,-212.95 391.02,-214.93 397.17,-216.89"/>
<polygon fill="#63b8ff" stroke="#63b8ff" points="396.21,-220.25 406.8,-219.92 398.31,-213.58 396.21,-220.25"/>
</a>
</g>
</g>
<!-- Node13 -->
<g id="Node000013" class="node">
<title>Node13</title>
<g id="a_Node000013"><a xlink:href="namespacem__data__input.html#af83b04522a4d96faabec6f8142f90e80" target="_top" xlink:title="Helper subroutine to read IB data files.">
<polygon fill="white" stroke="#666666" points="518.5,-202 396.5,-202 396.5,-172 518.5,-172 518.5,-202"/>
<text text-anchor="start" x="404.5" y="-190" font-family="Helvetica,sans-Serif" font-size="10.00">m_data_input::s_read</text>
<text text-anchor="middle" x="457.5" y="-179" font-family="Helvetica,sans-Serif" font-size="10.00">_ib_data_files</text>
</a>
</g>
</g>
<!-- Node8&#45;&gt;Node13 -->
<g id="edge13_Node000008_Node000013" class="edge">
<title>Node8&#45;&gt;Node13</title>
<g id="a_edge13_Node000008_Node000013"><a xlink:title=" ">
<path fill="none" stroke="#63b8ff" d="M327.54,-173.79C346.76,-175.76 367.32,-177.86 386.24,-179.8"/>
<polygon fill="#63b8ff" stroke="#63b8ff" points="385.96,-183.29 396.27,-180.83 386.67,-176.33 385.96,-183.29"/>
</a>
</g>
</g>
<!-- Node14 -->
<g id="Node000014" class="node">
<title>Node14</title>
<g id="a_Node000014"><a xlink:href="namespacem__data__input.html#a6e65911baddf566b7a796fadcea57495" target="_top" xlink:title="Helper subroutine to setup MPI data I/O parameters.">
<polygon fill="white" stroke="#666666" points="521,-116 394,-116 394,-86 521,-86 521,-116"/>
<text text-anchor="start" x="402" y="-104" font-family="Helvetica,sans-Serif" font-size="10.00">m_data_input::s_setup</text>
<text text-anchor="middle" x="457.5" y="-93" font-family="Helvetica,sans-Serif" font-size="10.00">_mpi_io_params</text>
</a>
</g>
</g>
<!-- Node8&#45;&gt;Node14 -->
<g id="edge15_Node000008_Node000014" class="edge">
<title>Node8&#45;&gt;Node14</title>
<g id="a_edge15_Node000008_Node000014"><a xlink:title=" ">
<path fill="none" stroke="#63b8ff" d="M299.05,-150.92C328.95,-141.44 367.72,-129.15 399.3,-119.14"/>
<polygon fill="#63b8ff" stroke="#63b8ff" points="400.38,-122.47 408.86,-116.11 398.27,-115.79 400.38,-122.47"/>
</a>
</g>
</g>
<!-- Node13&#45;&gt;Node3 -->
<g id="edge14_Node000013_Node000003" class="edge">
<title>Node13&#45;&gt;Node3</title>
<g id="a_edge14_Node000013_Node000003"><a xlink:title=" ">
<path fill="none" stroke="#63b8ff" d="M518.67,-187C535.94,-187 554.99,-187 573.1,-187"/>
<polygon fill="#63b8ff" stroke="#63b8ff" points="573.33,-190.5 583.33,-187 573.33,-183.5 573.33,-190.5"/>
</a>
</g>
</g>
<!-- Node14&#45;&gt;Node9 -->
<g id="edge16_Node000014_Node000009" class="edge">
<title>Node14&#45;&gt;Node9</title>
<g id="a_edge16_Node000014_Node000009"><a xlink:title=" ">
<path fill="none" stroke="#63b8ff" d="M521.04,-94.12C534.09,-92.69 548.06,-91.15 561.83,-89.64"/>
<polygon fill="#63b8ff" stroke="#63b8ff" points="562.23,-93.12 571.79,-88.54 561.47,-86.16 562.23,-93.12"/>
</a>
</g>
</g>
</g>
</svg>
