<?xml version="1.0" encoding="UTF-8" standalone="no"?>
<!DOCTYPE svg PUBLIC "-//W3C//DTD SVG 1.1//EN"
 "http://www.w3.org/Graphics/SVG/1.1/DTD/svg11.dtd">
<!-- Generated by graphviz version 2.43.0 (0)
 -->
<!-- Title: m_nvtx::nvtxstartrange Pages: 1 -->
<svg width="649pt" height="86pt"
 viewBox="0.00 0.00 649.00 86.00" xmlns="http://www.w3.org/2000/svg" xmlns:xlink="http://www.w3.org/1999/xlink">
<g id="graph0" class="graph" transform="scale(1 1) rotate(0) translate(4 82)">
<title>m_nvtx::nvtxstartrange</title>
<!-- Node1 -->
<g id="Node000001" class="node">
<title>Node1</title>
<g id="a_Node000001"><a xlink:title=" ">
<polygon fill="#999999" stroke="#666666" points="641,-48.5 510,-48.5 510,-29.5 641,-29.5 641,-48.5"/>
<text text-anchor="middle" x="575.5" y="-36.5" font-family="Helvetica,sans-Serif" font-size="10.00">m_nvtx::nvtxstartrange</text>
</a>
</g>
</g>
<!-- Node2 -->
<g id="Node000002" class="node">
<title>Node2</title>
<g id="a_Node000002"><a xlink:href="m__mpi__common_8fpp_8f90.html#a767ff1f924147e7f0230c8a47f56b6c9" target="_top" xlink:title=" ">
<polygon fill="white" stroke="#666666" points="471,-78 331,-78 331,-48 471,-48 471,-78"/>
<text text-anchor="start" x="339" y="-66" font-family="Helvetica,sans-Serif" font-size="10.00">s_mpi_sendrecv_capilary</text>
<text text-anchor="middle" x="401" y="-55" font-family="Helvetica,sans-Serif" font-size="10.00">_variables_buffers</text>
</a>
</g>
</g>
<!-- Node1&#45;&gt;Node2 -->
<g id="edge1_Node000001_Node000002" class="edge">
<title>Node1&#45;&gt;Node2</title>
<g id="a_edge1_Node000001_Node000002"><a xlink:title=" ">
<path fill="none" stroke="#63b8ff" d="M499.6,-49.42C490.14,-50.74 480.49,-52.08 471.13,-53.38"/>
<polygon fill="#63b8ff" stroke="#63b8ff" points="500.35,-52.85 509.78,-48 499.39,-45.92 500.35,-52.85"/>
</a>
</g>
</g>
<!-- Node5 -->
<g id="Node000005" class="node">
<title>Node5</title>
<g id="a_Node000005"><a xlink:href="m__mpi__common_8fpp_8f90.html#a815e648dc99c14163990d199ff63d785" target="_top" xlink:title="The goal of this procedure is to populate the buffers of the cell&#45;average conservative variables by c...">
<polygon fill="white" stroke="#666666" points="474,-30 328,-30 328,0 474,0 474,-30"/>
<text text-anchor="start" x="336" y="-18" font-family="Helvetica,sans-Serif" font-size="10.00">s_mpi_sendrecv_variables</text>
<text text-anchor="middle" x="401" y="-7" font-family="Helvetica,sans-Serif" font-size="10.00">_buffers</text>
</a>
</g>
</g>
<!-- Node1&#45;&gt;Node5 -->
<g id="edge4_Node000001_Node000005" class="edge">
<title>Node1&#45;&gt;Node5</title>
<g id="a_edge4_Node000001_Node000005"><a xlink:title=" ">
<path fill="none" stroke="#63b8ff" d="M499.82,-28.61C491.27,-27.42 482.55,-26.21 474.03,-25.02"/>
<polygon fill="#63b8ff" stroke="#63b8ff" points="499.39,-32.08 509.78,-30 500.35,-25.15 499.39,-32.08"/>
</a>
</g>
</g>
<!-- Node3 -->
<g id="Node000003" class="node">
<title>Node3</title>
<g id="a_Node000003"><a xlink:href="m__boundary__common_8fpp_8f90.html#ae5e76db6a44ec3681f3fe1ed39d9ae05" target="_top" xlink:title=" ">
<polygon fill="white" stroke="#666666" points="290.5,-78 173.5,-78 173.5,-48 290.5,-48 290.5,-78"/>
<text text-anchor="start" x="181.5" y="-66" font-family="Helvetica,sans-Serif" font-size="10.00">s_populate_capillary</text>
<text text-anchor="middle" x="232" y="-55" font-family="Helvetica,sans-Serif" font-size="10.00">_buffers</text>
</a>
</g>
</g>
<!-- Node2&#45;&gt;Node3 -->
<g id="edge2_Node000002_Node000003" class="edge">
<title>Node2&#45;&gt;Node3</title>
<g id="a_edge2_Node000002_Node000003"><a xlink:title=" ">
<path fill="none" stroke="#63b8ff" d="M320.54,-63C310.41,-63 300.19,-63 290.5,-63"/>
<polygon fill="#63b8ff" stroke="#63b8ff" points="320.63,-66.5 330.63,-63 320.63,-59.5 320.63,-66.5"/>
</a>
</g>
</g>
<!-- Node4 -->
<g id="Node000004" class="node">
<title>Node4</title>
<g id="a_Node000004"><a xlink:href="m__boundary__common_8fpp_8f90.html#a29323c7f76c504aefa670ebf315fad51" target="_top" xlink:title="The purpose of the module is to apply noncharacteristic and processor boundary condiitons.">
<polygon fill="white" stroke="#666666" points="136,-54 0,-54 0,-24 136,-24 136,-54"/>
<text text-anchor="start" x="8" y="-42" font-family="Helvetica,sans-Serif" font-size="10.00">__m_boundary_common</text>
<text text-anchor="middle" x="68" y="-31" font-family="Helvetica,sans-Serif" font-size="10.00">_fpp_f90__</text>
</a>
</g>
</g>
<!-- Node3&#45;&gt;Node4 -->
<g id="edge3_Node000003_Node000004" class="edge">
<title>Node3&#45;&gt;Node4</title>
<g id="a_edge3_Node000003_Node000004"><a xlink:title=" ">
<path fill="none" stroke="#63b8ff" d="M163.36,-52.98C154.33,-51.64 145.08,-50.27 136.07,-48.94"/>
<polygon fill="#63b8ff" stroke="#63b8ff" points="163.02,-56.47 173.43,-54.47 164.05,-49.54 163.02,-56.47"/>
</a>
</g>
</g>
<!-- Node6 -->
<g id="Node000006" class="node">
<title>Node6</title>
<g id="a_Node000006"><a xlink:href="m__boundary__common_8fpp_8f90.html#ac453f843fd9086ee383c2ad446ab21f9" target="_top" xlink:title="The purpose of this procedure is to populate the buffers of the primitive variables,...">
<polygon fill="white" stroke="#666666" points="292,-30 172,-30 172,0 292,0 292,-30"/>
<text text-anchor="start" x="180" y="-18" font-family="Helvetica,sans-Serif" font-size="10.00">s_populate_variables</text>
<text text-anchor="middle" x="232" y="-7" font-family="Helvetica,sans-Serif" font-size="10.00">_buffers</text>
</a>
</g>
</g>
<!-- Node5&#45;&gt;Node6 -->
<g id="edge5_Node000005_Node000006" class="edge">
<title>Node5&#45;&gt;Node6</title>
<g id="a_edge5_Node000005_Node000006"><a xlink:title=" ">
<path fill="none" stroke="#63b8ff" d="M317.63,-15C309.01,-15 300.37,-15 292.08,-15"/>
<polygon fill="#63b8ff" stroke="#63b8ff" points="317.72,-18.5 327.72,-15 317.72,-11.5 317.72,-18.5"/>
</a>
</g>
</g>
<!-- Node6&#45;&gt;Node4 -->
<g id="edge6_Node000006_Node000004" class="edge">
<title>Node6&#45;&gt;Node4</title>
<g id="a_edge6_Node000006_Node000004"><a xlink:title=" ">
<path fill="none" stroke="#63b8ff" d="M161.44,-25.31C153.02,-26.55 144.44,-27.82 136.06,-29.07"/>
<polygon fill="#63b8ff" stroke="#63b8ff" points="162.22,-28.73 171.6,-23.8 161.19,-21.8 162.22,-28.73"/>
</a>
</g>
</g>
</g>
</svg>
