<?xml version="1.0" encoding="UTF-8" standalone="no"?>
<!DOCTYPE svg PUBLIC "-//W3C//DTD SVG 1.1//EN"
 "http://www.w3.org/Graphics/SVG/1.1/DTD/svg11.dtd">
<!-- Generated by graphviz version 2.40.1 (20161225.0304)
 -->
<!-- Title: m_data_input::s_read_serial_data_files Pages: 1 -->
<svg width="191pt" height="80pt"
 viewBox="0.00 0.00 191.00 80.00" xmlns="http://www.w3.org/2000/svg" xmlns:xlink="http://www.w3.org/1999/xlink">
<g id="graph0" class="graph" transform="scale(1 1) rotate(0) translate(4 76)">
<title>m_data_input::s_read_serial_data_files</title>
<polygon fill="#ffffff" stroke="transparent" points="-4,4 -4,-76 187,-76 187,4 -4,4"/>
<!-- Node27 -->
<g id="node1" class="node">
<title>Node27</title>
<polygon fill="#bfbfbf" stroke="#000000" points="0,-22.5 0,-48.5 75,-48.5 75,-22.5 0,-22.5"/>
<text text-anchor="start" x="8" y="-38.1" font-family="Helvetica,sans-Serif" font-size="8.00" fill="#000000">m_data_input::s_read</text>
<text text-anchor="middle" x="37.5" y="-29.1" font-family="Helvetica,sans-Serif" font-size="8.00" fill="#000000">_serial_data_files</text>
</g>
<!-- Node28 -->
<g id="node2" class="node">
<title>Node28</title>
<g id="a_node2"><a xlink:href="namespacem__compile__specific.html#aa7f14da74305c1d061ce326b16a3263e" target="_top" xlink:title="Inquires on the existence of a directory. ">
<polygon fill="#ffffff" stroke="#000000" points="112.5,-45.5 112.5,-71.5 181.5,-71.5 181.5,-45.5 112.5,-45.5"/>
<text text-anchor="start" x="120.5" y="-61.1" font-family="Helvetica,sans-Serif" font-size="8.00" fill="#000000">m_compile_specific</text>
<text text-anchor="middle" x="147" y="-52.1" font-family="Helvetica,sans-Serif" font-size="8.00" fill="#000000">::my_inquire</text>
</a>
</g>
</g>
<!-- Node27&#45;&gt;Node28 -->
<g id="edge1" class="edge">
<title>Node27&#45;&gt;Node28</title>
<path fill="none" stroke="#191970" d="M75.1837,-43.4153C83.9036,-45.2469 93.2653,-47.2133 102.2545,-49.1014"/>
<polygon fill="#191970" stroke="#191970" points="101.6854,-52.5582 112.1913,-51.1886 103.1243,-45.7076 101.6854,-52.5582"/>
</g>
<!-- Node29 -->
<g id="node3" class="node">
<title>Node29</title>
<g id="a_node3"><a xlink:href="namespacem__mpi__proxy.html#a04ac565bad2b22dc045a5eeb4f516e2e" target="_top" xlink:title="The subroutine terminates the MPI execution environment. ">
<polygon fill="#ffffff" stroke="#000000" points="111,-.5 111,-26.5 183,-26.5 183,-.5 111,-.5"/>
<text text-anchor="start" x="119" y="-16.1" font-family="Helvetica,sans-Serif" font-size="8.00" fill="#000000">m_mpi_proxy::s_mpi</text>
<text text-anchor="middle" x="147" y="-7.1" font-family="Helvetica,sans-Serif" font-size="8.00" fill="#000000">_abort</text>
</a>
</g>
</g>
<!-- Node27&#45;&gt;Node29 -->
<g id="edge2" class="edge">
<title>Node27&#45;&gt;Node29</title>
<path fill="none" stroke="#191970" d="M75.1837,-27.9288C83.4542,-26.2672 92.3019,-24.4896 100.8616,-22.7698"/>
<polygon fill="#191970" stroke="#191970" points="101.6112,-26.1892 110.7258,-20.788 100.2323,-19.3264 101.6112,-26.1892"/>
</g>
</g>
</svg>
