<?xml version="1.0" encoding="UTF-8" standalone="no"?>
<!DOCTYPE svg PUBLIC "-//W3C//DTD SVG 1.1//EN"
 "http://www.w3.org/Graphics/SVG/1.1/DTD/svg11.dtd">
<!-- Generated by graphviz version 2.43.0 (0)
 -->
<!-- Title: m_start_up::s_perform_time_step Pages: 1 -->
<svg width="849pt" height="243pt"
 viewBox="0.00 0.00 849.00 243.00" xmlns="http://www.w3.org/2000/svg" xmlns:xlink="http://www.w3.org/1999/xlink">
<g id="graph0" class="graph" transform="scale(1 1) rotate(0) translate(4 239)">
<title>m_start_up::s_perform_time_step</title>
<!-- Node1 -->
<g id="Node000001" class="node">
<title>Node1</title>
<g id="a_Node000001"><a xlink:title="Load grid and conservative data for a time step, fill ghost&#45;cell buffers, and convert to primitive va...">
<polygon fill="#999999" stroke="#666666" points="127,-143 0,-143 0,-113 127,-113 127,-143"/>
<text text-anchor="start" x="8" y="-131" font-family="Helvetica,sans-Serif" font-size="10.00">m_start_up::s_perform</text>
<text text-anchor="middle" x="63.5" y="-120" font-family="Helvetica,sans-Serif" font-size="10.00">_time_step</text>
</a>
</g>
</g>
<!-- Node2 -->
<g id="Node000002" class="node">
<title>Node2</title>
<g id="a_Node000002"><a xlink:href="namespacem__chemistry.html#a8fb021e54cf3ca51481377075435c6a9" target="_top" xlink:title="Initialize the temperature field from conservative variables by inverting the energy equation.">
<polygon fill="white" stroke="#666666" points="302,-197 163,-197 163,-167 302,-167 302,-197"/>
<text text-anchor="start" x="171" y="-185" font-family="Helvetica,sans-Serif" font-size="10.00">m_chemistry::s_compute</text>
<text text-anchor="middle" x="232.5" y="-174" font-family="Helvetica,sans-Serif" font-size="10.00">_q_t_sf</text>
</a>
</g>
</g>
<!-- Node1&#45;&gt;Node2 -->
<g id="edge1_Node000001_Node000002" class="edge">
<title>Node1&#45;&gt;Node2</title>
<g id="a_edge1_Node000001_Node000002"><a xlink:title=" ">
<path fill="none" stroke="#63b8ff" d="M111.02,-143.04C130.93,-149.48 154.36,-157.06 175.24,-163.81"/>
<polygon fill="#63b8ff" stroke="#63b8ff" points="174.35,-167.2 184.94,-166.95 176.5,-160.54 174.35,-167.2"/>
</a>
</g>
</g>
<!-- Node3 -->
<g id="Node000003" class="node">
<title>Node3</title>
<g id="a_Node000003"><a xlink:href="namespacem__variables__conversion.html#a7d567315b057c0da0cb37f89ef298031" target="_top" xlink:title="Convert conserved variables (rho*alpha, rho*u, E, alpha) to primitives (rho, u, p,...">
<polygon fill="white" stroke="#666666" points="301.5,-148.5 163.5,-148.5 163.5,-107.5 301.5,-107.5 301.5,-148.5"/>
<text text-anchor="start" x="171.5" y="-136.5" font-family="Helvetica,sans-Serif" font-size="10.00">m_variables_conversion</text>
<text text-anchor="start" x="171.5" y="-125.5" font-family="Helvetica,sans-Serif" font-size="10.00">::s_convert_conservative</text>
<text text-anchor="middle" x="232.5" y="-114.5" font-family="Helvetica,sans-Serif" font-size="10.00">_to_primitive_variables</text>
</a>
</g>
</g>
<!-- Node1&#45;&gt;Node3 -->
<g id="edge2_Node000001_Node000003" class="edge">
<title>Node1&#45;&gt;Node3</title>
<g id="a_edge2_Node000001_Node000003"><a xlink:title=" ">
<path fill="none" stroke="#63b8ff" d="M127.16,-128C135.67,-128 144.5,-128 153.24,-128"/>
<polygon fill="#63b8ff" stroke="#63b8ff" points="153.45,-131.5 163.45,-128 153.45,-124.5 153.45,-131.5"/>
</a>
</g>
</g>
<!-- Node10 -->
<g id="Node000010" class="node">
<title>Node10</title>
<g id="a_Node000010"><a xlink:href="namespacem__boundary__common.html#abfbb20311259fa39676228027f156929" target="_top" xlink:title="Populate the buffers of the primitive variables based on the selected boundary conditions.">
<polygon fill="white" stroke="#666666" points="298,-62.5 167,-62.5 167,-21.5 298,-21.5 298,-62.5"/>
<text text-anchor="start" x="175" y="-50.5" font-family="Helvetica,sans-Serif" font-size="10.00">m_boundary_common::</text>
<text text-anchor="start" x="175" y="-39.5" font-family="Helvetica,sans-Serif" font-size="10.00">s_populate_variables</text>
<text text-anchor="middle" x="232.5" y="-28.5" font-family="Helvetica,sans-Serif" font-size="10.00">_buffers</text>
</a>
</g>
</g>
<!-- Node1&#45;&gt;Node10 -->
<g id="edge10_Node000001_Node000010" class="edge">
<title>Node1&#45;&gt;Node10</title>
<g id="a_edge10_Node000001_Node000010"><a xlink:title=" ">
<path fill="none" stroke="#63b8ff" d="M93.97,-112.82C118.47,-100.2 153.86,-81.98 182.59,-67.18"/>
<polygon fill="#63b8ff" stroke="#63b8ff" points="184.38,-70.2 191.67,-62.51 181.18,-63.98 184.38,-70.2"/>
</a>
</g>
</g>
<!-- Node4 -->
<g id="Node000004" class="node">
<title>Node4</title>
<g id="a_Node000004"><a xlink:href="namespacem__variables__conversion.html#a58c19a9ba2767016cd7c916cd52b8d0e" target="_top" xlink:title="Compute the pressure from the appropriate equation of state.">
<polygon fill="white" stroke="#666666" points="473,-235 338,-235 338,-205 473,-205 473,-235"/>
<text text-anchor="start" x="346" y="-223" font-family="Helvetica,sans-Serif" font-size="10.00">m_variables_conversion</text>
<text text-anchor="middle" x="405.5" y="-212" font-family="Helvetica,sans-Serif" font-size="10.00">::s_compute_pressure</text>
</a>
</g>
</g>
<!-- Node3&#45;&gt;Node4 -->
<g id="edge3_Node000003_Node000004" class="edge">
<title>Node3&#45;&gt;Node4</title>
<g id="a_edge3_Node000003_Node000004"><a xlink:title=" ">
<path fill="none" stroke="#63b8ff" d="M285.7,-148.68C291.34,-151.55 296.89,-154.67 302,-158 320.19,-169.85 319.8,-179.17 338,-191 343.27,-194.42 349,-197.62 354.83,-200.53"/>
<polygon fill="#63b8ff" stroke="#63b8ff" points="353.47,-203.76 364,-204.89 356.47,-197.44 353.47,-203.76"/>
</a>
</g>
</g>
<!-- Node5 -->
<g id="Node000005" class="node">
<title>Node5</title>
<g id="a_Node000005"><a xlink:href="namespacem__variables__conversion.html#a21906a4c29bbb1187212feb969c00502" target="_top" xlink:title="Compute partial densities and volume fractions.">
<polygon fill="white" stroke="#666666" points="841,-138 680,-138 680,-108 841,-108 841,-138"/>
<text text-anchor="start" x="688" y="-126" font-family="Helvetica,sans-Serif" font-size="10.00">m_variables_conversion</text>
<text text-anchor="middle" x="760.5" y="-115" font-family="Helvetica,sans-Serif" font-size="10.00">::s_compute_species_fraction</text>
</a>
</g>
</g>
<!-- Node3&#45;&gt;Node5 -->
<g id="edge4_Node000003_Node000005" class="edge">
<title>Node3&#45;&gt;Node5</title>
<g id="a_edge4_Node000003_Node000005"><a xlink:title=" ">
<path fill="none" stroke="#63b8ff" d="M294.22,-148.52C308.42,-152.45 323.61,-155.98 338,-158 472.67,-176.95 509.47,-177.94 644,-158 666.35,-154.69 690.37,-147.95 710.69,-141.27"/>
<polygon fill="#63b8ff" stroke="#63b8ff" points="711.98,-144.53 720.34,-138.01 709.74,-137.89 711.98,-144.53"/>
</a>
</g>
</g>
<!-- Node6 -->
<g id="Node000006" class="node">
<title>Node6</title>
<g id="a_Node000006"><a xlink:href="namespacem__variables__conversion.html#af1bda14464459b0fd9448dd8885741c7" target="_top" xlink:title="GPU&#45;accelerated conversion of species volume fractions and partial densities to mixture density,...">
<polygon fill="white" stroke="#666666" points="473,-148.5 338,-148.5 338,-107.5 473,-107.5 473,-148.5"/>
<text text-anchor="start" x="346" y="-136.5" font-family="Helvetica,sans-Serif" font-size="10.00">m_variables_conversion</text>
<text text-anchor="start" x="346" y="-125.5" font-family="Helvetica,sans-Serif" font-size="10.00">::s_convert_species_to</text>
<text text-anchor="middle" x="405.5" y="-114.5" font-family="Helvetica,sans-Serif" font-size="10.00">_mixture_variables_acc</text>
</a>
</g>
</g>
<!-- Node3&#45;&gt;Node6 -->
<g id="edge5_Node000003_Node000006" class="edge">
<title>Node3&#45;&gt;Node6</title>
<g id="a_edge5_Node000003_Node000006"><a xlink:title=" ">
<path fill="none" stroke="#63b8ff" d="M301.58,-128C310.14,-128 318.96,-128 327.65,-128"/>
<polygon fill="#63b8ff" stroke="#63b8ff" points="327.77,-131.5 337.77,-128 327.77,-124.5 327.77,-131.5"/>
</a>
</g>
</g>
<!-- Node7 -->
<g id="Node000007" class="node">
<title>Node7</title>
<g id="a_Node000007"><a xlink:href="namespacem__variables__conversion.html#ad79dc943a9108e838d80bb2b264fba8e" target="_top" xlink:title="Dispatch to the s_convert_mixture_to_mixture_variables and s_convert_species_to_mixture_variables sub...">
<polygon fill="white" stroke="#666666" points="473,-89.5 338,-89.5 338,-48.5 473,-48.5 473,-89.5"/>
<text text-anchor="start" x="346" y="-77.5" font-family="Helvetica,sans-Serif" font-size="10.00">m_variables_conversion</text>
<text text-anchor="start" x="346" y="-66.5" font-family="Helvetica,sans-Serif" font-size="10.00">::s_convert_to_mixture</text>
<text text-anchor="middle" x="405.5" y="-55.5" font-family="Helvetica,sans-Serif" font-size="10.00">_variables</text>
</a>
</g>
</g>
<!-- Node3&#45;&gt;Node7 -->
<g id="edge6_Node000003_Node000007" class="edge">
<title>Node3&#45;&gt;Node7</title>
<g id="a_edge6_Node000003_Node000007"><a xlink:title=" ">
<path fill="none" stroke="#63b8ff" d="M293.31,-107.36C306.92,-102.67 321.5,-97.64 335.46,-92.82"/>
<polygon fill="#63b8ff" stroke="#63b8ff" points="336.7,-96.09 345.02,-89.52 334.42,-89.48 336.7,-96.09"/>
</a>
</g>
</g>
<!-- Node8 -->
<g id="Node000008" class="node">
<title>Node8</title>
<g id="a_Node000008"><a xlink:href="namespacem__variables__conversion.html#a8b30b668d9de48d0bf0d53fa56116847" target="_top" xlink:title="Convert mixture variables to density, gamma, pi_inf, and qv for the gamma/pi_inf model....">
<polygon fill="white" stroke="#666666" points="644,-148.5 509,-148.5 509,-107.5 644,-107.5 644,-148.5"/>
<text text-anchor="start" x="517" y="-136.5" font-family="Helvetica,sans-Serif" font-size="10.00">m_variables_conversion</text>
<text text-anchor="start" x="517" y="-125.5" font-family="Helvetica,sans-Serif" font-size="10.00">::s_convert_mixture_to</text>
<text text-anchor="middle" x="576.5" y="-114.5" font-family="Helvetica,sans-Serif" font-size="10.00">_mixture_variables</text>
</a>
</g>
</g>
<!-- Node7&#45;&gt;Node8 -->
<g id="edge7_Node000007_Node000008" class="edge">
<title>Node7&#45;&gt;Node8</title>
<g id="a_edge7_Node000007_Node000008"><a xlink:title=" ">
<path fill="none" stroke="#63b8ff" d="M465.61,-89.64C478.94,-94.29 493.19,-99.27 506.87,-104.04"/>
<polygon fill="#63b8ff" stroke="#63b8ff" points="506.12,-107.48 516.71,-107.48 508.42,-100.88 506.12,-107.48"/>
</a>
</g>
</g>
<!-- Node9 -->
<g id="Node000009" class="node">
<title>Node9</title>
<g id="a_Node000009"><a xlink:href="namespacem__variables__conversion.html#a7f3bffa0ba13432f79f095a78fcf6e5a" target="_top" xlink:title="Convert species volume fractions and partial densities to mixture density, gamma, pi_inf,...">
<polygon fill="white" stroke="#666666" points="644,-89.5 509,-89.5 509,-48.5 644,-48.5 644,-89.5"/>
<text text-anchor="start" x="517" y="-77.5" font-family="Helvetica,sans-Serif" font-size="10.00">m_variables_conversion</text>
<text text-anchor="start" x="517" y="-66.5" font-family="Helvetica,sans-Serif" font-size="10.00">::s_convert_species_to</text>
<text text-anchor="middle" x="576.5" y="-55.5" font-family="Helvetica,sans-Serif" font-size="10.00">_mixture_variables</text>
</a>
</g>
</g>
<!-- Node7&#45;&gt;Node9 -->
<g id="edge8_Node000007_Node000009" class="edge">
<title>Node7&#45;&gt;Node9</title>
<g id="a_edge8_Node000007_Node000009"><a xlink:title=" ">
<path fill="none" stroke="#63b8ff" d="M473.29,-69C481.62,-69 490.19,-69 498.66,-69"/>
<polygon fill="#63b8ff" stroke="#63b8ff" points="498.92,-72.5 508.92,-69 498.92,-65.5 498.92,-72.5"/>
</a>
</g>
</g>
<!-- Node9&#45;&gt;Node5 -->
<g id="edge9_Node000009_Node000005" class="edge">
<title>Node9&#45;&gt;Node5</title>
<g id="a_edge9_Node000009_Node000005"><a xlink:title=" ">
<path fill="none" stroke="#63b8ff" d="M644.24,-88.8C662.05,-94.09 681.19,-99.77 698.67,-104.95"/>
<polygon fill="#63b8ff" stroke="#63b8ff" points="698.16,-108.45 708.74,-107.94 700.15,-101.74 698.16,-108.45"/>
</a>
</g>
</g>
<!-- Node11 -->
<g id="Node000011" class="node">
<title>Node11</title>
<g id="a_Node000011"><a xlink:href="namespacem__boundary__common.html#a352fa827d9dbbfb0be060dedcce86792" target="_top" xlink:title="Populate the variable buffers along one direction and location, via MPI exchange for processor bounda...">
<polygon fill="white" stroke="#666666" points="472.5,-30 338.5,-30 338.5,0 472.5,0 472.5,-30"/>
<text text-anchor="start" x="346.5" y="-18" font-family="Helvetica,sans-Serif" font-size="10.00">m_boundary_common::</text>
<text text-anchor="middle" x="405.5" y="-7" font-family="Helvetica,sans-Serif" font-size="10.00">s_populate_bc_direction</text>
</a>
</g>
</g>
<!-- Node10&#45;&gt;Node11 -->
<g id="edge11_Node000010_Node000011" class="edge">
<title>Node10&#45;&gt;Node11</title>
<g id="a_edge11_Node000010_Node000011"><a xlink:title=" ">
<path fill="none" stroke="#63b8ff" d="M298.15,-31.79C308.01,-30.24 318.26,-28.62 328.34,-27.03"/>
<polygon fill="#63b8ff" stroke="#63b8ff" points="329.01,-30.46 338.34,-25.45 327.92,-23.55 329.01,-30.46"/>
</a>
</g>
</g>
</g>
</svg>
