<?xml version="1.0" encoding="UTF-8" standalone="no"?>
<!DOCTYPE svg PUBLIC "-//W3C//DTD SVG 1.1//EN"
 "http://www.w3.org/Graphics/SVG/1.1/DTD/svg11.dtd">
<!-- Generated by graphviz version 2.40.1 (20161225.0304)
 -->
<!-- Title: m_data_input::s_populate_grid_variables_buffer_regions Pages: 1 -->
<svg width="202pt" height="44pt"
 viewBox="0.00 0.00 202.00 44.00" xmlns="http://www.w3.org/2000/svg" xmlns:xlink="http://www.w3.org/1999/xlink">
<g id="graph0" class="graph" transform="scale(1 1) rotate(0) translate(4 40)">
<title>m_data_input::s_populate_grid_variables_buffer_regions</title>
<polygon fill="#ffffff" stroke="transparent" points="-4,4 -4,-40 198,-40 198,4 -4,4"/>
<!-- Node16 -->
<g id="node1" class="node">
<title>Node16</title>
<polygon fill="#bfbfbf" stroke="#000000" points="0,-.5 0,-35.5 86,-35.5 86,-.5 0,-.5"/>
<text text-anchor="start" x="8" y="-25.1" font-family="Helvetica,sans-Serif" font-size="8.00" fill="#000000">m_data_input::s_populate</text>
<text text-anchor="start" x="8" y="-16.1" font-family="Helvetica,sans-Serif" font-size="8.00" fill="#000000">_grid_variables_buffer</text>
<text text-anchor="middle" x="43" y="-7.1" font-family="Helvetica,sans-Serif" font-size="8.00" fill="#000000">_regions</text>
</g>
<!-- Node17 -->
<g id="node2" class="node">
<title>Node17</title>
<g id="a_node2"><a xlink:href="namespacem__mpi__proxy.html#a8e48d59a04981a6594f25ad7a7562492" target="_top" xlink:title="Communicates the buffer regions associated with the grid variables with processors in charge of the n...">
<polygon fill="#ffffff" stroke="#000000" points="122,-.5 122,-35.5 194,-35.5 194,-.5 122,-.5"/>
<text text-anchor="start" x="130" y="-25.1" font-family="Helvetica,sans-Serif" font-size="8.00" fill="#000000">m_mpi_proxy::s_mpi</text>
<text text-anchor="start" x="130" y="-16.1" font-family="Helvetica,sans-Serif" font-size="8.00" fill="#000000">_sendrecv_grid_vars</text>
<text text-anchor="middle" x="158" y="-7.1" font-family="Helvetica,sans-Serif" font-size="8.00" fill="#000000">_buffer_regions</text>
</a>
</g>
</g>
<!-- Node16&#45;&gt;Node17 -->
<g id="edge1" class="edge">
<title>Node16&#45;&gt;Node17</title>
<path fill="none" stroke="#191970" d="M86.1489,-18C94.4861,-18 103.2533,-18 111.6866,-18"/>
<polygon fill="#191970" stroke="#191970" points="111.7564,-21.5001 121.7563,-18 111.7563,-14.5001 111.7564,-21.5001"/>
</g>
</g>
</svg>
