<?xml version="1.0" encoding="UTF-8" standalone="no"?>
<!DOCTYPE svg PUBLIC "-//W3C//DTD SVG 1.1//EN"
 "http://www.w3.org/Graphics/SVG/1.1/DTD/svg11.dtd">
<!-- Generated by graphviz version 2.40.1 (20161225.0304)
 -->
<!-- Title: m_variables_conversion::s_convert_conservative_to_primitive_variables Pages: 1 -->
<svg width="163pt" height="44pt"
 viewBox="0.00 0.00 163.00 44.00" xmlns="http://www.w3.org/2000/svg" xmlns:xlink="http://www.w3.org/1999/xlink">
<g id="graph0" class="graph" transform="scale(1 1) rotate(0) translate(4 40)">
<title>m_variables_conversion::s_convert_conservative_to_primitive_variables</title>
<polygon fill="#ffffff" stroke="transparent" points="-4,4 -4,-40 159,-40 159,4 -4,4"/>
<!-- Node3 -->
<g id="node1" class="node">
<title>Node3</title>
<polygon fill="#bfbfbf" stroke="#000000" points="0,-.5 0,-35.5 83,-35.5 83,-.5 0,-.5"/>
<text text-anchor="start" x="8" y="-25.1" font-family="Helvetica,sans-Serif" font-size="8.00" fill="#000000">m_variables_conversion</text>
<text text-anchor="start" x="8" y="-16.1" font-family="Helvetica,sans-Serif" font-size="8.00" fill="#000000">::s_convert_conservative</text>
<text text-anchor="middle" x="41.5" y="-7.1" font-family="Helvetica,sans-Serif" font-size="8.00" fill="#000000">_to_primitive_variables</text>
</g>
<!-- Node4 -->
<g id="node2" class="node">
<title>Node4</title>
<g id="a_node2"><a xlink:href="p__main_8f90.html#aeec10ee8e2940c953967da3e374e1579" target="_top" xlink:title="The post&#45;process restructures raw unformatted data, outputted by the simulation, into a formatted dat...">
<polygon fill="#ffffff" stroke="#000000" points="119,-9.5 119,-26.5 155,-26.5 155,-9.5 119,-9.5"/>
<text text-anchor="middle" x="137" y="-16.1" font-family="Helvetica,sans-Serif" font-size="8.00" fill="#000000">p_main</text>
</a>
</g>
</g>
<!-- Node3&#45;&gt;Node4 -->
<g id="edge1" class="edge">
<title>Node3&#45;&gt;Node4</title>
<path fill="none" stroke="#191970" d="M93.3918,-18C102.4856,-18 111.3775,-18 118.7349,-18"/>
<polygon fill="#191970" stroke="#191970" points="93.1099,-14.5001 83.1099,-18 93.1098,-21.5001 93.1099,-14.5001"/>
</g>
</g>
</svg>
