<?xml version="1.0" encoding="UTF-8" standalone="no"?>
<!DOCTYPE svg PUBLIC "-//W3C//DTD SVG 1.1//EN"
 "http://www.w3.org/Graphics/SVG/1.1/DTD/svg11.dtd">
<!-- Generated by graphviz version 2.43.0 (0)
 -->
<!-- Title: m_start_up::s_initialize_modules Pages: 1 -->
<!--zoomable 818 -->

<svg id="main" version="1.1" xmlns="http://www.w3.org/2000/svg" xmlns:xlink="http://www.w3.org/1999/xlink" xml:space="preserve" onload="init(evt)">

<style type="text/css"><![CDATA[
.node, .edge {opacity: 0.7;}
.node.selected, .edge.selected {opacity: 1;}
.edge:hover path { stroke: red; }
.edge:hover polygon { stroke: red; fill: red; }
]]></style>

<defs>
  <circle id="rim" cx="0" cy="0" r="7"/>
  <circle id="rim2" cx="0" cy="0" r="3.5"/>
  <g id="zoomPlus">
    <use xlink:href="#rim" fill="#404040"><set attributeName="fill" to="#808080" begin="zoomplus.mouseover" end="zoomplus.mouseout"/></use>
    <path d="M-4,0h8M0,-4v8" fill="none" stroke="white" stroke-width="1.5" pointer-events="none"/>
  </g>
  <g id="zoomMin">
    <use xlink:href="#rim" fill="#404040"><set attributeName="fill" to="#808080" begin="zoomminus.mouseover" end="zoomminus.mouseout"/></use>
    <path d="M-4,0h8" fill="none" stroke="white" stroke-width="1.5" pointer-events="none"/>
  </g>
  <g id="arrowUp" transform="translate(30 24)">
    <use xlink:href="#rim"/>
    <path pointer-events="none" fill="none" stroke="white" stroke-width="1.5" d="M0,-3.0v7 M-2.5,-0.5L0,-3.0L2.5,-0.5"/>
  </g>
  <g id="arrowRight" transform="rotate(90) translate(36 -43)">
    <use xlink:href="#rim"/>
    <path pointer-events="none" fill="none" stroke="white" stroke-width="1.5" d="M0,-3.0v7 M-2.5,-0.5L0,-3.0L2.5,-0.5"/>
  </g>
  <g id="arrowDown" transform="rotate(180) translate(-30 -48)">
    <use xlink:href="#rim"/>
    <path pointer-events="none" fill="none" stroke="white" stroke-width="1.5" d="M0,-3.0v7 M-2.5,-0.5L0,-3.0L2.5,-0.5"/>
  </g>
  <g id="arrowLeft" transform="rotate(270) translate(-36 17)">
    <use xlink:href="#rim"/>
    <path pointer-events="none" fill="none" stroke="white" stroke-width="1.5" d="M0,-3.0v7 M-2.5,-0.5L0,-3.0L2.5,-0.5"/>
  </g>
  <g id="resetDef">
    <use xlink:href="#rim2" fill="#404040"><set attributeName="fill" to="#808080" begin="reset.mouseover" end="reset.mouseout"/></use>
  </g>
</defs>
<script type="application/ecmascript">
var viewWidth = 1082;
var viewHeight = 818;
var sectionId = 'dynsection-4';
</script>
<script type="application/ecmascript" xlink:href="svg.min.js"/>
<svg id="graph" class="graph">
<g id="viewport">
<title>m_start_up::s_initialize_modules</title>
<!-- Node1 -->
<g id="Node000001" class="node">
<title>Node1</title>
<g id="a_Node000001"><a xlink:title=" ">
<polygon fill="#999999" stroke="#666666" points="130,-298.5 0,-298.5 0,-268.5 130,-268.5 130,-298.5"/>
<text text-anchor="start" x="8" y="-286.5" font-family="Helvetica,sans-Serif" font-size="10.00">m_start_up::s_initialize</text>
<text text-anchor="middle" x="65" y="-275.5" font-family="Helvetica,sans-Serif" font-size="10.00">_modules</text>
</a>
</g>
</g>
<!-- Node2 -->
<g id="Node000002" class="node">
<title>Node2</title>
<g id="a_Node000002"><a xlink:href="namespacem__boundary__common.html#a564aec3ec22d27138a881ca6bf54d94d" target="_top" xlink:title=" ">
<polygon fill="white" stroke="#666666" points="310,-563 179,-563 179,-522 310,-522 310,-563"/>
<text text-anchor="start" x="187" y="-551" font-family="Helvetica,sans-Serif" font-size="10.00">m_boundary_common::</text>
<text text-anchor="start" x="187" y="-540" font-family="Helvetica,sans-Serif" font-size="10.00">s_initialize_boundary</text>
<text text-anchor="middle" x="244.5" y="-529" font-family="Helvetica,sans-Serif" font-size="10.00">_common_module</text>
</a>
</g>
</g>
<!-- Node1&#45;&gt;Node2 -->
<g id="edge1_Node000001_Node000002" class="edge">
<title>Node1&#45;&gt;Node2</title>
<g id="a_edge1_Node000001_Node000002"><a xlink:title=" ">
<path fill="none" stroke="#63b8ff" d="M68.87,-298.68C77.07,-338.17 104.1,-445.33 166,-507.5 169.19,-510.71 172.73,-513.65 176.49,-516.34"/>
<polygon fill="#63b8ff" stroke="#63b8ff" points="174.71,-519.35 185,-521.84 178.5,-513.47 174.71,-519.35"/>
</a>
</g>
</g>
<!-- Node3 -->
<g id="Node000003" class="node">
<title>Node3</title>
<g id="a_Node000003"><a xlink:href="namespacem__data__input.html#a5746c07ce2bd024e906a721e6552443f" target="_top" xlink:title="Computation of parameters, allocation procedures, and/or any other tasks needed to properly setup the...">
<polygon fill="white" stroke="#666666" points="315.5,-465.5 173.5,-465.5 173.5,-435.5 315.5,-435.5 315.5,-465.5"/>
<text text-anchor="start" x="181.5" y="-453.5" font-family="Helvetica,sans-Serif" font-size="10.00">m_data_input::s_initialize</text>
<text text-anchor="middle" x="244.5" y="-442.5" font-family="Helvetica,sans-Serif" font-size="10.00">_data_input_module</text>
</a>
</g>
</g>
<!-- Node1&#45;&gt;Node3 -->
<g id="edge2_Node000001_Node000003" class="edge">
<title>Node1&#45;&gt;Node3</title>
<g id="a_edge2_Node000001_Node000003"><a xlink:title=" ">
<path fill="none" stroke="#63b8ff" d="M73.15,-298.61C87.15,-326.67 120.81,-387.08 166,-421.5 170.69,-425.07 175.86,-428.24 181.24,-431.04"/>
<polygon fill="#63b8ff" stroke="#63b8ff" points="179.92,-434.29 190.45,-435.43 182.93,-427.97 179.92,-434.29"/>
</a>
</g>
</g>
<!-- Node5 -->
<g id="Node000005" class="node">
<title>Node5</title>
<g id="a_Node000005"><a xlink:href="namespacem__data__input.html#a1e9dfd5c6be77bbfa34abb90c77216b4" target="_top" xlink:title="This subroutine is called at each time&#45;step that has to be post&#45;processed in order to parallel&#45;read t...">
<polygon fill="white" stroke="#666666" points="489.5,-532.5 367.5,-532.5 367.5,-502.5 489.5,-502.5 489.5,-532.5"/>
<text text-anchor="start" x="375.5" y="-520.5" font-family="Helvetica,sans-Serif" font-size="10.00">m_data_input::s_read</text>
<text text-anchor="middle" x="428.5" y="-509.5" font-family="Helvetica,sans-Serif" font-size="10.00">_parallel_data_files</text>
</a>
</g>
</g>
<!-- Node1&#45;&gt;Node5 -->
<g id="edge37_Node000001_Node000005" class="edge">
<title>Node1&#45;&gt;Node5</title>
<g id="a_edge37_Node000001_Node000005"><a xlink:title=" ">
<path fill="none" stroke="#63b8ff" d="M69.1,-298.68C77.49,-335.51 104.26,-429.89 166,-474.5 195.84,-496.06 290.56,-507.47 357.39,-512.99"/>
<polygon fill="#63b8ff" stroke="#63b8ff" points="357.2,-516.49 367.45,-513.8 357.76,-509.51 357.2,-516.49"/>
</a>
</g>
</g>
<!-- Node17 -->
<g id="Node000017" class="node">
<title>Node17</title>
<g id="a_Node000017"><a xlink:href="namespacem__data__input.html#a94700a0b549ac60847be9f4f0ab94adf" target="_top" xlink:title="This subroutine is called at each time&#45;step that has to be post&#45;processed in order to read the raw da...">
<polygon fill="white" stroke="#666666" points="489.5,-422.5 367.5,-422.5 367.5,-392.5 489.5,-392.5 489.5,-422.5"/>
<text text-anchor="start" x="375.5" y="-410.5" font-family="Helvetica,sans-Serif" font-size="10.00">m_data_input::s_read</text>
<text text-anchor="middle" x="428.5" y="-399.5" font-family="Helvetica,sans-Serif" font-size="10.00">_serial_data_files</text>
</a>
</g>
</g>
<!-- Node1&#45;&gt;Node17 -->
<g id="edge38_Node000001_Node000017" class="edge">
<title>Node1&#45;&gt;Node17</title>
<g id="a_edge38_Node000001_Node000017"><a xlink:title=" ">
<path fill="none" stroke="#63b8ff" d="M75.09,-298.66C90.42,-322.64 123.89,-368.61 166,-388.5 225.94,-416.8 302.29,-419.05 357,-415.73"/>
<polygon fill="#63b8ff" stroke="#63b8ff" points="357.56,-419.2 367.3,-415.03 357.08,-412.22 357.56,-419.2"/>
</a>
</g>
</g>
<!-- Node21 -->
<g id="Node000021" class="node">
<title>Node21</title>
<g id="a_Node000021"><a xlink:href="namespacem__data__output.html#a62496dfe58afb9e18a8a1a58b64e155b" target="_top" xlink:title=" ">
<polygon fill="white" stroke="#666666" points="319,-379.5 170,-379.5 170,-349.5 319,-349.5 319,-379.5"/>
<text text-anchor="start" x="178" y="-367.5" font-family="Helvetica,sans-Serif" font-size="10.00">m_data_output::s_initialize</text>
<text text-anchor="middle" x="244.5" y="-356.5" font-family="Helvetica,sans-Serif" font-size="10.00">_data_output_module</text>
</a>
</g>
</g>
<!-- Node1&#45;&gt;Node21 -->
<g id="edge27_Node000001_Node000021" class="edge">
<title>Node1&#45;&gt;Node21</title>
<g id="a_edge27_Node000001_Node000021"><a xlink:title=" ">
<path fill="none" stroke="#63b8ff" d="M89.96,-298.7C109.8,-310.85 139.01,-327.73 166,-339.5 171.1,-341.73 176.47,-343.86 181.9,-345.87"/>
<polygon fill="#63b8ff" stroke="#63b8ff" points="181.1,-349.3 191.69,-349.37 183.45,-342.71 181.1,-349.3"/>
</a>
</g>
</g>
<!-- Node23 -->
<g id="Node000023" class="node">
<title>Node23</title>
<g id="a_Node000023"><a xlink:href="namespacem__derived__variables.html#a77b3f12eca15a93f0bbe8881f6bbcfd4" target="_top" xlink:title="Computation of parameters, allocation procedures, and/or any other tasks needed to properly setup the...">
<polygon fill="white" stroke="#666666" points="304,-331 185,-331 185,-290 304,-290 304,-331"/>
<text text-anchor="start" x="193" y="-319" font-family="Helvetica,sans-Serif" font-size="10.00">m_derived_variables</text>
<text text-anchor="start" x="193" y="-308" font-family="Helvetica,sans-Serif" font-size="10.00">::s_initialize_derived</text>
<text text-anchor="middle" x="244.5" y="-297" font-family="Helvetica,sans-Serif" font-size="10.00">_variables_module</text>
</a>
</g>
</g>
<!-- Node1&#45;&gt;Node23 -->
<g id="edge30_Node000001_Node000023" class="edge">
<title>Node1&#45;&gt;Node23</title>
<g id="a_edge30_Node000001_Node000023"><a xlink:title=" ">
<path fill="none" stroke="#63b8ff" d="M130.08,-293.25C144.6,-295.46 160.08,-297.81 174.79,-300.05"/>
<polygon fill="#63b8ff" stroke="#63b8ff" points="174.41,-303.53 184.83,-301.57 175.47,-296.61 174.41,-303.53"/>
</a>
</g>
</g>
<!-- Node24 -->
<g id="Node000024" class="node">
<title>Node24</title>
<g id="a_Node000024"><a xlink:href="namespacem__mpi__common.html#a056c92bf55bd24a6cb43936abd313f4e" target="_top" xlink:title="The computation of parameters, the allocation of memory, the association of pointers and/or the execu...">
<polygon fill="white" stroke="#666666" points="323,-271.5 166,-271.5 166,-241.5 323,-241.5 323,-271.5"/>
<text text-anchor="start" x="174" y="-259.5" font-family="Helvetica,sans-Serif" font-size="10.00">m_mpi_common::s_initialize</text>
<text text-anchor="middle" x="244.5" y="-248.5" font-family="Helvetica,sans-Serif" font-size="10.00">_mpi_common_module</text>
</a>
</g>
</g>
<!-- Node1&#45;&gt;Node24 -->
<g id="edge31_Node000001_Node000024" class="edge">
<title>Node1&#45;&gt;Node24</title>
<g id="a_edge31_Node000001_Node000024"><a xlink:title=" ">
<path fill="none" stroke="#63b8ff" d="M130.08,-273.75C138.43,-272.48 147.1,-271.16 155.75,-269.85"/>
<polygon fill="#63b8ff" stroke="#63b8ff" points="156.53,-273.27 165.89,-268.31 155.48,-266.35 156.53,-273.27"/>
</a>
</g>
</g>
<!-- Node25 -->
<g id="Node000025" class="node">
<title>Node25</title>
<g id="a_Node000025"><a xlink:href="namespacem__mpi__proxy.html#a0f7cd4188db4d19ada06d7cb7334991d" target="_top" xlink:title="Computation of parameters, allocation procedures, and/or any other tasks needed to properly setup the...">
<polygon fill="white" stroke="#666666" points="315,-223.5 174,-223.5 174,-193.5 315,-193.5 315,-223.5"/>
<text text-anchor="start" x="182" y="-211.5" font-family="Helvetica,sans-Serif" font-size="10.00">m_mpi_proxy::s_initialize</text>
<text text-anchor="middle" x="244.5" y="-200.5" font-family="Helvetica,sans-Serif" font-size="10.00">_mpi_proxy_module</text>
</a>
</g>
</g>
<!-- Node1&#45;&gt;Node25 -->
<g id="edge32_Node000001_Node000025" class="edge">
<title>Node1&#45;&gt;Node25</title>
<g id="a_edge32_Node000001_Node000025"><a xlink:title=" ">
<path fill="none" stroke="#63b8ff" d="M92.58,-268.36C112.4,-257.47 140.36,-242.92 166,-232.5 170.77,-230.56 175.76,-228.69 180.81,-226.9"/>
<polygon fill="#63b8ff" stroke="#63b8ff" points="182.21,-230.12 190.54,-223.57 179.95,-223.49 182.21,-230.12"/>
</a>
</g>
</g>
<!-- Node26 -->
<g id="Node000026" class="node">
<title>Node26</title>
<g id="a_Node000026"><a xlink:href="namespacem__helper.html#a23ee37a0676e042dc2a2754df0c21f52" target="_top" xlink:title="Initializes non&#45;polydisperse bubble modeling.">
<polygon fill="white" stroke="#666666" points="305,-175.5 184,-175.5 184,-145.5 305,-145.5 305,-175.5"/>
<text text-anchor="start" x="192" y="-163.5" font-family="Helvetica,sans-Serif" font-size="10.00">m_helper::s_initialize</text>
<text text-anchor="middle" x="244.5" y="-152.5" font-family="Helvetica,sans-Serif" font-size="10.00">_nonpoly</text>
</a>
</g>
</g>
<!-- Node1&#45;&gt;Node26 -->
<g id="edge33_Node000001_Node000026" class="edge">
<title>Node1&#45;&gt;Node26</title>
<g id="a_edge33_Node000001_Node000026"><a xlink:title=" ">
<path fill="none" stroke="#63b8ff" d="M77.24,-268.49C94.17,-246.88 128.29,-207.12 166,-184.5 168.84,-182.8 171.81,-181.2 174.86,-179.72"/>
<polygon fill="#63b8ff" stroke="#63b8ff" points="176.51,-182.82 184.23,-175.56 173.67,-176.42 176.51,-182.82"/>
</a>
</g>
</g>
<!-- Node28 -->
<g id="Node000028" class="node">
<title>Node28</title>
<g id="a_Node000028"><a xlink:href="namespacem__variables__conversion.html#a7ebd3fab94230d88d603e76ac5435e05" target="_top" xlink:title="The computation of parameters, the allocation of memory, the association of pointers and/or the execu...">
<polygon fill="white" stroke="#666666" points="312,-127 177,-127 177,-86 312,-86 312,-127"/>
<text text-anchor="start" x="185" y="-115" font-family="Helvetica,sans-Serif" font-size="10.00">m_variables_conversion</text>
<text text-anchor="start" x="185" y="-104" font-family="Helvetica,sans-Serif" font-size="10.00">::s_initialize_variables</text>
<text text-anchor="middle" x="244.5" y="-93" font-family="Helvetica,sans-Serif" font-size="10.00">_conversion_module</text>
</a>
</g>
</g>
<!-- Node1&#45;&gt;Node28 -->
<g id="edge35_Node000001_Node000028" class="edge">
<title>Node1&#45;&gt;Node28</title>
<g id="a_edge35_Node000001_Node000028"><a xlink:title=" ">
<path fill="none" stroke="#63b8ff" d="M72.51,-268.36C85.86,-238.96 119.12,-173.75 166,-136.5 167.79,-135.08 169.65,-133.72 171.58,-132.42"/>
<polygon fill="#63b8ff" stroke="#63b8ff" points="173.62,-135.27 180.34,-127.08 169.98,-129.29 173.62,-135.27"/>
</a>
</g>
</g>
<!-- Node29 -->
<g id="Node000029" class="node">
<title>Node29</title>
<g id="a_Node000029"><a xlink:href="namespacem__mpi__common.html#a150d5a63224d7e80c1290d699fbb5855" target="_top" xlink:title="The subroutine initializes the MPI execution environment and queries both the number of processors wh...">
<polygon fill="white" stroke="#666666" points="311.5,-67.5 177.5,-67.5 177.5,-37.5 311.5,-37.5 311.5,-67.5"/>
<text text-anchor="start" x="185.5" y="-55.5" font-family="Helvetica,sans-Serif" font-size="10.00">m_mpi_common::s_mpi</text>
<text text-anchor="middle" x="244.5" y="-44.5" font-family="Helvetica,sans-Serif" font-size="10.00">_initialize</text>
</a>
</g>
</g>
<!-- Node1&#45;&gt;Node29 -->
<g id="edge36_Node000001_Node000029" class="edge">
<title>Node1&#45;&gt;Node29</title>
<g id="a_edge36_Node000001_Node000029"><a xlink:title=" ">
<path fill="none" stroke="#63b8ff" d="M68.94,-268.48C77.16,-230.5 103.98,-129.87 166,-76.5 167.36,-75.33 168.77,-74.22 170.23,-73.16"/>
<polygon fill="#63b8ff" stroke="#63b8ff" points="172.41,-75.93 179.06,-67.68 168.72,-69.98 172.41,-75.93"/>
</a>
</g>
</g>
<!-- Node30 -->
<g id="Node000030" class="node">
<title>Node30</title>
<g id="a_Node000030"><a xlink:href="namespacem__helper.html#a67fb0dea37f746739e38f0fc900a9455" target="_top" xlink:title="Computes the Simpson weights for quadrature.">
<polygon fill="white" stroke="#666666" points="304.5,-19 184.5,-19 184.5,0 304.5,0 304.5,-19"/>
<text text-anchor="middle" x="244.5" y="-7" font-family="Helvetica,sans-Serif" font-size="10.00">m_helper::s_simpson</text>
</a>
</g>
</g>
<!-- Node1&#45;&gt;Node30 -->
<g id="edge39_Node000001_Node000030" class="edge">
<title>Node1&#45;&gt;Node30</title>
<g id="a_edge39_Node000001_Node000030"><a xlink:title=" ">
<path fill="none" stroke="#63b8ff" d="M67.21,-268.44C71.61,-224.34 90.66,-94.41 166,-28.5 168.82,-26.03 171.92,-23.87 175.2,-21.98"/>
<polygon fill="#63b8ff" stroke="#63b8ff" points="176.77,-25.11 184.23,-17.59 173.71,-18.81 176.77,-25.11"/>
</a>
</g>
</g>
<!-- Node4 -->
<g id="Node000004" class="node">
<title>Node4</title>
<g id="a_Node000004"><a xlink:href="namespacem__data__input.html#a0720f62ee34c602705db6ab4f9b7641e" target="_top" xlink:title="Helper subroutine to allocate field arrays for given dimensionality.">
<polygon fill="white" stroke="#666666" points="498,-470.5 359,-470.5 359,-440.5 498,-440.5 498,-470.5"/>
<text text-anchor="start" x="367" y="-458.5" font-family="Helvetica,sans-Serif" font-size="10.00">m_data_input::s_allocate</text>
<text text-anchor="middle" x="428.5" y="-447.5" font-family="Helvetica,sans-Serif" font-size="10.00">_field_arrays</text>
</a>
</g>
</g>
<!-- Node3&#45;&gt;Node4 -->
<g id="edge3_Node000003_Node000004" class="edge">
<title>Node3&#45;&gt;Node4</title>
<g id="a_edge3_Node000003_Node000004"><a xlink:title=" ">
<path fill="none" stroke="#63b8ff" d="M315.61,-452.43C326.49,-452.73 337.8,-453.04 348.86,-453.34"/>
<polygon fill="#63b8ff" stroke="#63b8ff" points="348.84,-456.84 358.93,-453.62 349.03,-449.84 348.84,-456.84"/>
</a>
</g>
</g>
<!-- Node3&#45;&gt;Node5 -->
<g id="edge4_Node000003_Node000005" class="edge">
<title>Node3&#45;&gt;Node5</title>
<g id="a_edge4_Node000003_Node000005"><a xlink:title=" ">
<path fill="none" stroke="#63b8ff" d="M286.34,-465.54C313.18,-475.42 348.48,-488.41 377.06,-498.93"/>
<polygon fill="#63b8ff" stroke="#63b8ff" points="375.88,-502.23 386.48,-502.4 378.3,-495.66 375.88,-502.23"/>
</a>
</g>
</g>
<!-- Node3&#45;&gt;Node17 -->
<g id="edge19_Node000003_Node000017" class="edge">
<title>Node3&#45;&gt;Node17</title>
<g id="a_edge19_Node000003_Node000017"><a xlink:title=" ">
<path fill="none" stroke="#63b8ff" d="M309.15,-435.46C324.77,-431.77 341.58,-427.8 357.48,-424.04"/>
<polygon fill="#63b8ff" stroke="#63b8ff" points="358.32,-427.44 367.24,-421.74 356.71,-420.63 358.32,-427.44"/>
</a>
</g>
</g>
<!-- Node6 -->
<g id="Node000006" class="node">
<title>Node6</title>
<g id="a_Node000006"><a xlink:href="namespacem__boundary__common.html#af8621fd7814593e9a18ba4d1461723d0" target="_top" xlink:title=" ">
<polygon fill="white" stroke="#666666" points="682,-503.5 540,-503.5 540,-473.5 682,-473.5 682,-503.5"/>
<text text-anchor="start" x="548" y="-491.5" font-family="Helvetica,sans-Serif" font-size="10.00">m_boundary_common::</text>
<text text-anchor="middle" x="611" y="-480.5" font-family="Helvetica,sans-Serif" font-size="10.00">s_assign_default_bc_type</text>
</a>
</g>
</g>
<!-- Node5&#45;&gt;Node6 -->
<g id="edge5_Node000005_Node000006" class="edge">
<title>Node5&#45;&gt;Node6</title>
<g id="a_edge5_Node000005_Node000006"><a xlink:title=" ">
<path fill="none" stroke="#63b8ff" d="M489.6,-507.84C502.43,-505.78 516.18,-503.57 529.64,-501.41"/>
<polygon fill="#63b8ff" stroke="#63b8ff" points="530.53,-504.81 539.84,-499.77 529.42,-497.9 530.53,-504.81"/>
</a>
</g>
</g>
<!-- Node7 -->
<g id="Node000007" class="node">
<title>Node7</title>
<g id="a_Node000007"><a xlink:href="namespacem__mpi__common.html#a04cfc0bdb377a0ce2f9fd478e4bb3807" target="_top" xlink:title="The subroutine terminates the MPI execution environment.">
<polygon fill="white" stroke="#666666" points="1062.5,-460.5 928.5,-460.5 928.5,-430.5 1062.5,-430.5 1062.5,-460.5"/>
<text text-anchor="start" x="936.5" y="-448.5" font-family="Helvetica,sans-Serif" font-size="10.00">m_mpi_common::s_mpi</text>
<text text-anchor="middle" x="995.5" y="-437.5" font-family="Helvetica,sans-Serif" font-size="10.00">_abort</text>
</a>
</g>
</g>
<!-- Node5&#45;&gt;Node7 -->
<g id="edge6_Node000005_Node000007" class="edge">
<title>Node5&#45;&gt;Node7</title>
<g id="a_edge6_Node000005_Node000007"><a xlink:title=" ">
<path fill="none" stroke="#63b8ff" d="M489.54,-530.59C544.37,-539.36 626.07,-544.22 688,-512.5 711.73,-500.34 700.58,-477.25 724,-464.5 783.38,-432.16 861.28,-430.13 918.22,-434.57"/>
<polygon fill="#63b8ff" stroke="#63b8ff" points="917.98,-438.07 928.24,-435.44 918.58,-431.09 917.98,-438.07"/>
</a>
</g>
</g>
<!-- Node8 -->
<g id="Node000008" class="node">
<title>Node8</title>
<g id="a_Node000008"><a xlink:href="namespacem__boundary__common.html#a81909d1af9c5476df6c091b1e714ca99" target="_top" xlink:title=" ">
<polygon fill="white" stroke="#666666" points="682,-732 540,-732 540,-691 682,-691 682,-732"/>
<text text-anchor="start" x="548" y="-720" font-family="Helvetica,sans-Serif" font-size="10.00">m_boundary_common::</text>
<text text-anchor="start" x="548" y="-709" font-family="Helvetica,sans-Serif" font-size="10.00">s_read_parallel_boundary</text>
<text text-anchor="middle" x="611" y="-698" font-family="Helvetica,sans-Serif" font-size="10.00">_condition_files</text>
</a>
</g>
</g>
<!-- Node5&#45;&gt;Node8 -->
<g id="edge7_Node000005_Node000008" class="edge">
<title>Node5&#45;&gt;Node8</title>
<g id="a_edge7_Node000005_Node000008"><a xlink:title=" ">
<path fill="none" stroke="#63b8ff" d="M443.66,-532.72C473.94,-565.27 545.35,-642.02 584.03,-683.58"/>
<polygon fill="#63b8ff" stroke="#63b8ff" points="581.47,-685.98 590.85,-690.92 586.6,-681.21 581.47,-685.98"/>
</a>
</g>
</g>
<!-- Node10 -->
<g id="Node000010" class="node">
<title>Node10</title>
<g id="a_Node000010"><a xlink:href="namespacem__data__input.html#a5139fe69b24a1dc0e32b632e9bf5d0ee" target="_top" xlink:title="Helper subroutine to read parallel conservative variable data.">
<polygon fill="white" stroke="#666666" points="688,-608.5 534,-608.5 534,-578.5 688,-578.5 688,-608.5"/>
<text text-anchor="start" x="542" y="-596.5" font-family="Helvetica,sans-Serif" font-size="10.00">m_data_input::s_read</text>
<text text-anchor="middle" x="611" y="-585.5" font-family="Helvetica,sans-Serif" font-size="10.00">_parallel_conservative_data</text>
</a>
</g>
</g>
<!-- Node5&#45;&gt;Node10 -->
<g id="edge9_Node000005_Node000010" class="edge">
<title>Node5&#45;&gt;Node10</title>
<g id="a_edge9_Node000005_Node000010"><a xlink:title=" ">
<path fill="none" stroke="#63b8ff" d="M465.16,-532.52C493.75,-544.55 534.03,-561.51 564.86,-574.5"/>
<polygon fill="#63b8ff" stroke="#63b8ff" points="563.53,-577.73 574.1,-578.39 566.25,-571.28 563.53,-577.73"/>
</a>
</g>
</g>
<!-- Node9 -->
<g id="Node000009" class="node">
<title>Node9</title>
<g id="a_Node000009"><a xlink:href="namespacem__boundary__common.html#ab5d422a797dcdf7a95587c937dbdf74c" target="_top" xlink:title=" ">
<polygon fill="white" stroke="#666666" points="868,-809.5 737,-809.5 737,-779.5 868,-779.5 868,-809.5"/>
<text text-anchor="start" x="745" y="-797.5" font-family="Helvetica,sans-Serif" font-size="10.00">m_boundary_common::</text>
<text text-anchor="middle" x="802.5" y="-786.5" font-family="Helvetica,sans-Serif" font-size="10.00">s_create_mpi_types</text>
</a>
</g>
</g>
<!-- Node8&#45;&gt;Node9 -->
<g id="edge8_Node000008_Node000009" class="edge">
<title>Node8&#45;&gt;Node9</title>
<g id="a_edge8_Node000008_Node000009"><a xlink:title=" ">
<path fill="none" stroke="#63b8ff" d="M647.01,-732.08C668.7,-744.29 697.4,-759.49 724,-770.5 728.68,-772.44 733.57,-774.3 738.53,-776.08"/>
<polygon fill="#63b8ff" stroke="#63b8ff" points="737.5,-779.43 748.09,-779.38 739.78,-772.81 737.5,-779.43"/>
</a>
</g>
</g>
<!-- Node10&#45;&gt;Node7 -->
<g id="edge13_Node000010_Node000007" class="edge">
<title>Node10&#45;&gt;Node7</title>
<g id="a_edge13_Node000010_Node000007"><a xlink:title=" ">
<path fill="none" stroke="#63b8ff" d="M677.7,-578.44C733.15,-564.62 813.99,-541.85 881,-512.5 910.6,-499.53 942.09,-480.48 964.38,-466"/>
<polygon fill="#63b8ff" stroke="#63b8ff" points="966.3,-468.92 972.74,-460.5 962.46,-463.07 966.3,-468.92"/>
</a>
</g>
</g>
<!-- Node11 -->
<g id="Node000011" class="node">
<title>Node11</title>
<g id="a_Node000011"><a xlink:href="namespacem__mpi__common.html#a2b579eba6293e56232ba5129614b5a18" target="_top" xlink:title=" ">
<polygon fill="white" stroke="#666666" points="1074,-605.5 917,-605.5 917,-575.5 1074,-575.5 1074,-605.5"/>
<text text-anchor="start" x="925" y="-593.5" font-family="Helvetica,sans-Serif" font-size="10.00">m_mpi_common::s_initialize</text>
<text text-anchor="middle" x="995.5" y="-582.5" font-family="Helvetica,sans-Serif" font-size="10.00">_mpi_data</text>
</a>
</g>
</g>
<!-- Node10&#45;&gt;Node11 -->
<g id="edge10_Node000010_Node000011" class="edge">
<title>Node10&#45;&gt;Node11</title>
<g id="a_edge10_Node000010_Node000011"><a xlink:title=" ">
<path fill="none" stroke="#63b8ff" d="M688.2,-589.64C700.18,-589.17 712.42,-588.76 724,-588.5 785.09,-587.14 853.96,-587.68 906.92,-588.54"/>
<polygon fill="#63b8ff" stroke="#63b8ff" points="906.89,-592.04 916.95,-588.71 907.01,-585.04 906.89,-592.04"/>
</a>
</g>
</g>
<!-- Node12 -->
<g id="Node000012" class="node">
<title>Node12</title>
<g id="a_Node000012"><a xlink:href="namespacem__mpi__common.html#a564644bad898d940dc6caea3297bb424" target="_top" xlink:title=" ">
<polygon fill="white" stroke="#666666" points="881,-761.5 724,-761.5 724,-731.5 881,-731.5 881,-761.5"/>
<text text-anchor="start" x="732" y="-749.5" font-family="Helvetica,sans-Serif" font-size="10.00">m_mpi_common::s_initialize</text>
<text text-anchor="middle" x="802.5" y="-738.5" font-family="Helvetica,sans-Serif" font-size="10.00">_mpi_data_ds</text>
</a>
</g>
</g>
<!-- Node10&#45;&gt;Node12 -->
<g id="edge11_Node000010_Node000012" class="edge">
<title>Node10&#45;&gt;Node12</title>
<g id="a_edge11_Node000010_Node000012"><a xlink:title=" ">
<path fill="none" stroke="#63b8ff" d="M624.86,-608.52C653.61,-642.1 720.88,-720.46 724,-722.5 726.43,-724.09 728.98,-725.57 731.6,-726.97"/>
<polygon fill="#63b8ff" stroke="#63b8ff" points="730.23,-730.19 740.76,-731.35 733.25,-723.88 730.23,-730.19"/>
</a>
</g>
</g>
<!-- Node13 -->
<g id="Node000013" class="node">
<title>Node13</title>
<g id="a_Node000013"><a xlink:href="namespacem__helper.html#a6b74248bdd19bc6b0b43f757a3212275" target="_top" xlink:title=" ">
<polygon fill="white" stroke="#666666" points="865,-713 740,-713 740,-694 865,-694 865,-713"/>
<text text-anchor="middle" x="802.5" y="-701" font-family="Helvetica,sans-Serif" font-size="10.00">m_helper::s_int_to_str</text>
</a>
</g>
</g>
<!-- Node10&#45;&gt;Node13 -->
<g id="edge12_Node000010_Node000013" class="edge">
<title>Node10&#45;&gt;Node13</title>
<g id="a_edge12_Node000010_Node000013"><a xlink:title=" ">
<path fill="none" stroke="#63b8ff" d="M626.07,-608.51C645.95,-628.81 684.29,-664.76 724,-684.5 728.69,-686.83 733.68,-688.89 738.78,-690.7"/>
<polygon fill="#63b8ff" stroke="#63b8ff" points="738.09,-694.15 748.69,-693.89 740.24,-687.49 738.09,-694.15"/>
</a>
</g>
</g>
<!-- Node14 -->
<g id="Node000014" class="node">
<title>Node14</title>
<g id="a_Node000014"><a xlink:href="namespacem__mpi__common.html#a1073fc1fcb6f3b9394606d5c9285e9f0" target="_top" xlink:title="Halts all processes until all have reached barrier.">
<polygon fill="white" stroke="#666666" points="869.5,-675.5 735.5,-675.5 735.5,-645.5 869.5,-645.5 869.5,-675.5"/>
<text text-anchor="start" x="743.5" y="-663.5" font-family="Helvetica,sans-Serif" font-size="10.00">m_mpi_common::s_mpi</text>
<text text-anchor="middle" x="802.5" y="-652.5" font-family="Helvetica,sans-Serif" font-size="10.00">_barrier</text>
</a>
</g>
</g>
<!-- Node10&#45;&gt;Node14 -->
<g id="edge14_Node000010_Node000014" class="edge">
<title>Node10&#45;&gt;Node14</title>
<g id="a_edge14_Node000010_Node000014"><a xlink:title=" ">
<path fill="none" stroke="#63b8ff" d="M649.36,-608.56C671.03,-617.11 698.91,-627.81 724,-636.5 729.63,-638.45 735.51,-640.41 741.41,-642.32"/>
<polygon fill="#63b8ff" stroke="#63b8ff" points="740.72,-645.78 751.31,-645.49 742.86,-639.11 740.72,-645.78"/>
</a>
</g>
</g>
<!-- Node15 -->
<g id="Node000015" class="node">
<title>Node15</title>
<g id="a_Node000015"><a xlink:href="namespacem__data__input.html#ab706af65baa287cc6e78ab873a4e67e9" target="_top" xlink:title="Helper subroutine to read IB data files.">
<polygon fill="white" stroke="#666666" points="863.5,-503.5 741.5,-503.5 741.5,-473.5 863.5,-473.5 863.5,-503.5"/>
<text text-anchor="start" x="749.5" y="-491.5" font-family="Helvetica,sans-Serif" font-size="10.00">m_data_input::s_read</text>
<text text-anchor="middle" x="802.5" y="-480.5" font-family="Helvetica,sans-Serif" font-size="10.00">_ib_data_files</text>
</a>
</g>
</g>
<!-- Node10&#45;&gt;Node15 -->
<g id="edge15_Node000010_Node000015" class="edge">
<title>Node10&#45;&gt;Node15</title>
<g id="a_edge15_Node000010_Node000015"><a xlink:title=" ">
<path fill="none" stroke="#63b8ff" d="M637.39,-578.32C652.36,-569.17 671.52,-557.07 688,-545.5 704.59,-533.85 706.31,-527.39 724,-517.5 730.47,-513.89 737.47,-510.55 744.54,-507.53"/>
<polygon fill="#63b8ff" stroke="#63b8ff" points="746.22,-510.62 754.16,-503.61 743.58,-504.14 746.22,-510.62"/>
</a>
</g>
</g>
<!-- Node16 -->
<g id="Node000016" class="node">
<title>Node16</title>
<g id="a_Node000016"><a xlink:href="namespacem__data__input.html#a6e65911baddf566b7a796fadcea57495" target="_top" xlink:title="Helper subroutine to setup MPI data I/O parameters.">
<polygon fill="white" stroke="#666666" points="866,-627.5 739,-627.5 739,-597.5 866,-597.5 866,-627.5"/>
<text text-anchor="start" x="747" y="-615.5" font-family="Helvetica,sans-Serif" font-size="10.00">m_data_input::s_setup</text>
<text text-anchor="middle" x="802.5" y="-604.5" font-family="Helvetica,sans-Serif" font-size="10.00">_mpi_io_params</text>
</a>
</g>
</g>
<!-- Node10&#45;&gt;Node16 -->
<g id="edge17_Node000010_Node000016" class="edge">
<title>Node10&#45;&gt;Node16</title>
<g id="a_edge17_Node000010_Node000016"><a xlink:title=" ">
<path fill="none" stroke="#63b8ff" d="M688.26,-601.15C701.62,-602.49 715.49,-603.88 728.75,-605.21"/>
<polygon fill="#63b8ff" stroke="#63b8ff" points="728.45,-608.69 738.75,-606.21 729.15,-601.73 728.45,-608.69"/>
</a>
</g>
</g>
<!-- Node15&#45;&gt;Node7 -->
<g id="edge16_Node000015_Node000007" class="edge">
<title>Node15&#45;&gt;Node7</title>
<g id="a_edge16_Node000015_Node000007"><a xlink:title=" ">
<path fill="none" stroke="#63b8ff" d="M863.67,-474.95C881.02,-471.05 900.17,-466.74 918.35,-462.64"/>
<polygon fill="#63b8ff" stroke="#63b8ff" points="919.34,-466.01 928.33,-460.4 917.81,-459.18 919.34,-466.01"/>
</a>
</g>
</g>
<!-- Node16&#45;&gt;Node11 -->
<g id="edge18_Node000016_Node000011" class="edge">
<title>Node16&#45;&gt;Node11</title>
<g id="a_edge18_Node000016_Node000011"><a xlink:title=" ">
<path fill="none" stroke="#63b8ff" d="M866.04,-605.3C879.09,-603.79 893.06,-602.18 906.83,-600.6"/>
<polygon fill="#63b8ff" stroke="#63b8ff" points="907.26,-604.07 916.79,-599.45 906.46,-597.12 907.26,-604.07"/>
</a>
</g>
</g>
<!-- Node17&#45;&gt;Node6 -->
<g id="edge21_Node000017_Node000006" class="edge">
<title>Node17&#45;&gt;Node6</title>
<g id="a_edge21_Node000017_Node000006"><a xlink:title=" ">
<path fill="none" stroke="#63b8ff" d="M478.62,-422.52C485.28,-425.18 491.91,-428.18 498,-431.5 515.8,-441.2 516.34,-449.56 534,-459.5 540.43,-463.12 547.4,-466.47 554.42,-469.51"/>
<polygon fill="#63b8ff" stroke="#63b8ff" points="553.41,-472.88 563.99,-473.46 556.08,-466.41 553.41,-472.88"/>
</a>
</g>
</g>
<!-- Node17&#45;&gt;Node7 -->
<g id="edge22_Node000017_Node000007" class="edge">
<title>Node17&#45;&gt;Node7</title>
<g id="a_edge22_Node000017_Node000007"><a xlink:title=" ">
<path fill="none" stroke="#63b8ff" d="M489.84,-409.37C576.52,-412.36 741.23,-419.18 881,-431.5 892.97,-432.56 905.63,-433.89 917.98,-435.32"/>
<polygon fill="#63b8ff" stroke="#63b8ff" points="917.92,-438.84 928.26,-436.54 918.75,-431.89 917.92,-438.84"/>
</a>
</g>
</g>
<!-- Node17&#45;&gt;Node15 -->
<g id="edge25_Node000017_Node000015" class="edge">
<title>Node17&#45;&gt;Node15</title>
<g id="a_edge25_Node000017_Node000015"><a xlink:title=" ">
<path fill="none" stroke="#63b8ff" d="M489.68,-420.6C555.73,-434.99 661.63,-458.04 731.38,-473.23"/>
<polygon fill="#63b8ff" stroke="#63b8ff" points="730.89,-476.71 741.4,-475.41 732.38,-469.87 730.89,-476.71"/>
</a>
</g>
</g>
<!-- Node18 -->
<g id="Node000018" class="node">
<title>Node18</title>
<g id="a_Node000018"><a xlink:href="namespacem__compile__specific.html#a9cf8c029e502931415929734c03f340d" target="_top" xlink:title="Inquires on the existence of a directory.">
<polygon fill="white" stroke="#666666" points="667.5,-271.5 554.5,-271.5 554.5,-241.5 667.5,-241.5 667.5,-271.5"/>
<text text-anchor="start" x="562.5" y="-259.5" font-family="Helvetica,sans-Serif" font-size="10.00">m_compile_specific</text>
<text text-anchor="middle" x="611" y="-248.5" font-family="Helvetica,sans-Serif" font-size="10.00">::my_inquire</text>
</a>
</g>
</g>
<!-- Node17&#45;&gt;Node18 -->
<g id="edge20_Node000017_Node000018" class="edge">
<title>Node17&#45;&gt;Node18</title>
<g id="a_edge20_Node000017_Node000018"><a xlink:title=" ">
<path fill="none" stroke="#63b8ff" d="M479.08,-392.4C486.05,-388.68 492.66,-384.11 498,-378.5 530.01,-344.9 500.44,-312.54 534,-280.5 537.36,-277.3 541.14,-274.52 545.17,-272.11"/>
<polygon fill="#63b8ff" stroke="#63b8ff" points="547.04,-275.09 554.35,-267.42 543.86,-268.86 547.04,-275.09"/>
</a>
</g>
</g>
<!-- Node19 -->
<g id="Node000019" class="node">
<title>Node19</title>
<g id="a_Node000019"><a xlink:href="namespacem__data__input.html#a888fdc1ceb8dcce14220719df6a6f23f" target="_top" xlink:title="Helper subroutine to read grid data files for a given direction.">
<polygon fill="white" stroke="#666666" points="672,-379.5 550,-379.5 550,-349.5 672,-349.5 672,-379.5"/>
<text text-anchor="start" x="558" y="-367.5" font-family="Helvetica,sans-Serif" font-size="10.00">m_data_input::s_read</text>
<text text-anchor="middle" x="611" y="-356.5" font-family="Helvetica,sans-Serif" font-size="10.00">_grid_data_direction</text>
</a>
</g>
</g>
<!-- Node17&#45;&gt;Node19 -->
<g id="edge23_Node000017_Node000019" class="edge">
<title>Node17&#45;&gt;Node19</title>
<g id="a_edge23_Node000017_Node000019"><a xlink:title=" ">
<path fill="none" stroke="#63b8ff" d="M489.6,-393.18C505.66,-389.36 523.14,-385.19 539.69,-381.25"/>
<polygon fill="#63b8ff" stroke="#63b8ff" points="540.93,-384.55 549.85,-378.83 539.31,-377.74 540.93,-384.55"/>
</a>
</g>
</g>
<!-- Node20 -->
<g id="Node000020" class="node">
<title>Node20</title>
<g id="a_Node000020"><a xlink:href="namespacem__boundary__common.html#adfa0ae0acfddcffc6762f126d83ae3d0" target="_top" xlink:title=" ">
<polygon fill="white" stroke="#666666" points="677,-331 545,-331 545,-290 677,-290 677,-331"/>
<text text-anchor="start" x="553" y="-319" font-family="Helvetica,sans-Serif" font-size="10.00">m_boundary_common::</text>
<text text-anchor="start" x="553" y="-308" font-family="Helvetica,sans-Serif" font-size="10.00">s_read_serial_boundary</text>
<text text-anchor="middle" x="611" y="-297" font-family="Helvetica,sans-Serif" font-size="10.00">_condition_files</text>
</a>
</g>
</g>
<!-- Node17&#45;&gt;Node20 -->
<g id="edge26_Node000017_Node000020" class="edge">
<title>Node17&#45;&gt;Node20</title>
<g id="a_edge26_Node000017_Node000020"><a xlink:title=" ">
<path fill="none" stroke="#63b8ff" d="M472.59,-392.47C481.36,-388.54 490.25,-383.87 498,-378.5 517.12,-365.24 514.72,-353.52 534,-340.5 536.37,-338.9 538.84,-337.36 541.37,-335.9"/>
<polygon fill="#63b8ff" stroke="#63b8ff" points="543.05,-338.97 550.21,-331.15 539.74,-332.8 543.05,-338.97"/>
</a>
</g>
</g>
<!-- Node19&#45;&gt;Node7 -->
<g id="edge24_Node000019_Node000007" class="edge">
<title>Node19&#45;&gt;Node7</title>
<g id="a_edge24_Node000019_Node000007"><a xlink:title=" ">
<path fill="none" stroke="#63b8ff" d="M672.06,-365.47C727.27,-367.65 810.92,-374.22 881,-393.5 908.25,-401 937.18,-414.34 959.01,-425.64"/>
<polygon fill="#63b8ff" stroke="#63b8ff" points="957.43,-428.76 967.91,-430.33 960.7,-422.57 957.43,-428.76"/>
</a>
</g>
</g>
<!-- Node21&#45;&gt;Node18 -->
<g id="edge28_Node000021_Node000018" class="edge">
<title>Node21&#45;&gt;Node18</title>
<g id="a_edge28_Node000021_Node000018"><a xlink:title=" ">
<path fill="none" stroke="#63b8ff" d="M319.01,-376.52C372.75,-381.37 445.17,-379.37 498,-345.5 525.8,-327.68 508.44,-301.4 534,-280.5 537.47,-277.66 541.27,-275.16 545.28,-272.95"/>
<polygon fill="#63b8ff" stroke="#63b8ff" points="546.83,-276.09 554.3,-268.58 543.78,-269.79 546.83,-276.09"/>
</a>
</g>
</g>
<!-- Node22 -->
<g id="Node000022" class="node">
<title>Node22</title>
<g id="a_Node000022"><a xlink:href="namespacem__compile__specific.html#aa1b4e12a20e09147a215c3b5018484b0" target="_top" xlink:title="Creates a directory and all its parents if it does not exist.">
<polygon fill="white" stroke="#666666" points="485,-336.5 372,-336.5 372,-306.5 485,-306.5 485,-336.5"/>
<text text-anchor="start" x="380" y="-324.5" font-family="Helvetica,sans-Serif" font-size="10.00">m_compile_specific</text>
<text text-anchor="middle" x="428.5" y="-313.5" font-family="Helvetica,sans-Serif" font-size="10.00">::s_create_directory</text>
</a>
</g>
</g>
<!-- Node21&#45;&gt;Node22 -->
<g id="edge29_Node000021_Node000022" class="edge">
<title>Node21&#45;&gt;Node22</title>
<g id="a_edge29_Node000021_Node000022"><a xlink:title=" ">
<path fill="none" stroke="#63b8ff" d="M309.15,-349.46C326.21,-345.43 344.67,-341.07 361.83,-337.02"/>
<polygon fill="#63b8ff" stroke="#63b8ff" points="362.83,-340.37 371.76,-334.67 361.22,-333.56 362.83,-340.37"/>
</a>
</g>
</g>
<!-- Node27 -->
<g id="Node000027" class="node">
<title>Node27</title>
<g id="a_Node000027"><a xlink:href="namespacem__helper.html#ae7cd99428d2408715b0db060b43de489" target="_top" xlink:title="Computes the transfer coefficient for the non&#45;polytropic bubble compression process.">
<polygon fill="white" stroke="#666666" points="492.5,-170 364.5,-170 364.5,-151 492.5,-151 492.5,-170"/>
<text text-anchor="middle" x="428.5" y="-158" font-family="Helvetica,sans-Serif" font-size="10.00">m_helper::s_transcoeff</text>
</a>
</g>
</g>
<!-- Node26&#45;&gt;Node27 -->
<g id="edge34_Node000026_Node000027" class="edge">
<title>Node26&#45;&gt;Node27</title>
<g id="a_edge34_Node000026_Node000027"><a xlink:title=" ">
<path fill="none" stroke="#63b8ff" d="M305.09,-160.5C320.8,-160.5 337.94,-160.5 354.28,-160.5"/>
<polygon fill="#63b8ff" stroke="#63b8ff" points="354.33,-164 364.33,-160.5 354.33,-157 354.33,-164"/>
</a>
</g>
</g>
</g>
</svg>

<g id="navigator" transform="translate(0 0)" fill="#404254">
  <rect fill="#f2f5e9" fill-opacity="0.5" stroke="#606060" stroke-width=".5" x="0" y="0" width="60" height="60"/>
  <use id="zoomplus" xlink:href="#zoomPlus" x="17" y="9" onmousedown="handleZoom(evt,'in')"/>
  <use id="zoomminus" xlink:href="#zoomMin" x="42" y="9" onmousedown="handleZoom(evt,'out')"/>
  <use id="reset" xlink:href="#resetDef" x="30" y="36" onmousedown="handleReset()"/>
   <use id="arrowup" xlink:href="#arrowUp" x="0" y="0" onmousedown="handlePan(0,-1)"/>
  <use id="arrowright" xlink:href="#arrowRight" x="0" y="0" onmousedown="handlePan(1,0)"/>
  <use id="arrowdown" xlink:href="#arrowDown" x="0" y="0" onmousedown="handlePan(0,1)"/>
  <use id="arrowleft" xlink:href="#arrowLeft" x="0" y="0" onmousedown="handlePan(-1,0)"/>
</g>
<svg viewBox="0 0 15 15" width="100%" height="30px" preserveAspectRatio="xMaxYMin meet">
 <g id="arrow_out" transform="scale(0.3 0.3)">
  <a xlink:href="namespacem__start__up_aea20fb8945d467b344a487cfe8213d99_cgraph_org.svg" target="_base">
   <rect id="button" ry="5" rx="5" y="6" x="6" height="38" width="38"
        fill="#f2f5e9" fill-opacity="0.5" stroke="#606060" stroke-width="1.0"/>
   <path id="arrow"
     d="M 11.500037,31.436501 C 11.940474,20.09759 22.043105,11.32322 32.158766,21.979434 L 37.068811,17.246167 C 37.068811,17.246167 37.088388,32 37.088388,32 L 22.160133,31.978069 C 22.160133,31.978069 26.997745,27.140456 26.997745,27.140456 C 18.528582,18.264221 13.291696,25.230495 11.500037,31.436501 z"
     style="fill:#404040;"/>
  </a>
 </g>
</svg>

<style type='text/css'>
<![CDATA[
[data-mouse-over-selected='false'] { opacity: 0.7; }
[data-mouse-over-selected='true']  { opacity: 1.0; }
]]>
</style>
<script type="application/ecmascript"><![CDATA[
document.addEventListener('DOMContentLoaded', (event) => {
  highlightEdges();
  highlightAdjacentNodes();
});
]]></script>
</svg>
