<?xml version="1.0" encoding="UTF-8" standalone="no"?>
<!DOCTYPE svg PUBLIC "-//W3C//DTD SVG 1.1//EN"
 "http://www.w3.org/Graphics/SVG/1.1/DTD/svg11.dtd">
<!-- Generated by graphviz version 2.43.0 (0)
 -->
<!-- Title: m_compile_specific::my_inquire Pages: 1 -->
<svg width="782pt" height="220pt"
 viewBox="0.00 0.00 782.00 220.00" xmlns="http://www.w3.org/2000/svg" xmlns:xlink="http://www.w3.org/1999/xlink">
<g id="graph0" class="graph" transform="scale(1 1) rotate(0) translate(4 216)">
<title>m_compile_specific::my_inquire</title>
<!-- Node1 -->
<g id="Node000001" class="node">
<title>Node1</title>
<g id="a_Node000001"><a xlink:title="Inquires on the existence of a directory.">
<polygon fill="#999999" stroke="#666666" points="774,-126 661,-126 661,-96 774,-96 774,-126"/>
<text text-anchor="start" x="669" y="-114" font-family="Helvetica,sans-Serif" font-size="10.00">m_compile_specific</text>
<text text-anchor="middle" x="717.5" y="-103" font-family="Helvetica,sans-Serif" font-size="10.00">::my_inquire</text>
</a>
</g>
</g>
<!-- Node2 -->
<g id="Node000002" class="node">
<title>Node2</title>
<g id="a_Node000002"><a xlink:href="namespacem__start__up.html#a045a171a9b44005a0e190f9a99784853" target="_top" xlink:title="Checking that the user inputs make sense, i.e. that the individual choices are compatible with the co...">
<polygon fill="white" stroke="#666666" points="590.5,-212 474.5,-212 474.5,-182 590.5,-182 590.5,-212"/>
<text text-anchor="start" x="482.5" y="-200" font-family="Helvetica,sans-Serif" font-size="10.00">m_start_up::s_check</text>
<text text-anchor="middle" x="532.5" y="-189" font-family="Helvetica,sans-Serif" font-size="10.00">_input_file</text>
</a>
</g>
</g>
<!-- Node1&#45;&gt;Node2 -->
<g id="edge1_Node000001_Node000002" class="edge">
<title>Node1&#45;&gt;Node2</title>
<g id="a_edge1_Node000001_Node000002"><a xlink:title=" ">
<path fill="none" stroke="#63b8ff" d="M686.96,-132.05C669.53,-143.78 646.71,-157.99 625,-168 613.65,-173.23 601.1,-177.89 589.02,-181.86"/>
<polygon fill="#63b8ff" stroke="#63b8ff" points="689.26,-134.71 695.54,-126.18 685.31,-128.94 689.26,-134.71"/>
</a>
</g>
</g>
<!-- Node5 -->
<g id="Node000005" class="node">
<title>Node5</title>
<g id="a_Node000005"><a xlink:href="namespacem__data__output.html#a62496dfe58afb9e18a8a1a58b64e155b" target="_top" xlink:title="Allocate storage arrays, configure output directories, and count flow variables for formatted databas...">
<polygon fill="white" stroke="#666666" points="404,-168 255,-168 255,-138 404,-138 404,-168"/>
<text text-anchor="start" x="263" y="-156" font-family="Helvetica,sans-Serif" font-size="10.00">m_data_output::s_initialize</text>
<text text-anchor="middle" x="329.5" y="-145" font-family="Helvetica,sans-Serif" font-size="10.00">_data_output_module</text>
</a>
</g>
</g>
<!-- Node1&#45;&gt;Node5 -->
<g id="edge4_Node000001_Node000005" class="edge">
<title>Node1&#45;&gt;Node5</title>
<g id="a_edge4_Node000001_Node000005"><a xlink:title=" ">
<path fill="none" stroke="#63b8ff" d="M656.27,-128.58C645.91,-131.09 635.2,-133.37 625,-135 550.4,-146.95 463.99,-151.1 404.16,-152.48"/>
<polygon fill="#63b8ff" stroke="#63b8ff" points="657.21,-131.95 666.06,-126.11 655.51,-125.16 657.21,-131.95"/>
</a>
</g>
</g>
<!-- Node7 -->
<g id="Node000007" class="node">
<title>Node7</title>
<g id="a_Node000007"><a xlink:href="namespacem__boundary__io.html#ab6281588667a9843f9e3829c2a68c851" target="_top" xlink:title="Read boundary condition type and buffer data from per&#45;rank parallel files using MPI I/O.">
<polygon fill="white" stroke="#666666" points="625,-126 440,-126 440,-96 625,-96 625,-126"/>
<text text-anchor="start" x="448" y="-114" font-family="Helvetica,sans-Serif" font-size="10.00">m_boundary_io::s_read</text>
<text text-anchor="middle" x="532.5" y="-103" font-family="Helvetica,sans-Serif" font-size="10.00">_parallel_boundary_condition_files</text>
</a>
</g>
</g>
<!-- Node1&#45;&gt;Node7 -->
<g id="edge7_Node000001_Node000007" class="edge">
<title>Node1&#45;&gt;Node7</title>
<g id="a_edge7_Node000001_Node000007"><a xlink:title=" ">
<path fill="none" stroke="#63b8ff" d="M650.38,-111C642.17,-111 633.66,-111 625.15,-111"/>
<polygon fill="#63b8ff" stroke="#63b8ff" points="650.6,-114.5 660.6,-111 650.6,-107.5 650.6,-114.5"/>
</a>
</g>
</g>
<!-- Node8 -->
<g id="Node000008" class="node">
<title>Node8</title>
<g id="a_Node000008"><a xlink:href="namespacem__data__input.html#a94700a0b549ac60847be9f4f0ab94adf" target="_top" xlink:title="Read the raw data files present in the corresponding time&#45;step directory and to populate the associat...">
<polygon fill="white" stroke="#666666" points="593.5,-78 471.5,-78 471.5,-48 593.5,-48 593.5,-78"/>
<text text-anchor="start" x="479.5" y="-66" font-family="Helvetica,sans-Serif" font-size="10.00">m_data_input::s_read</text>
<text text-anchor="middle" x="532.5" y="-55" font-family="Helvetica,sans-Serif" font-size="10.00">_serial_data_files</text>
</a>
</g>
</g>
<!-- Node1&#45;&gt;Node8 -->
<g id="edge8_Node000001_Node000008" class="edge">
<title>Node1&#45;&gt;Node8</title>
<g id="a_edge8_Node000001_Node000008"><a xlink:title=" ">
<path fill="none" stroke="#63b8ff" d="M650.84,-93.78C631.26,-88.64 609.97,-83.06 590.96,-78.07"/>
<polygon fill="#63b8ff" stroke="#63b8ff" points="650.04,-97.19 660.6,-96.34 651.81,-90.41 650.04,-97.19"/>
</a>
</g>
</g>
<!-- Node10 -->
<g id="Node000010" class="node">
<title>Node10</title>
<g id="a_Node000010"><a xlink:href="namespacem__boundary__io.html#a1b6a5f4b89c0cc5313f8f448ce1a9b2c" target="_top" xlink:title="Write boundary condition type and buffer data to per&#45;rank parallel files using MPI I/O.">
<polygon fill="white" stroke="#666666" points="625,-30 440,-30 440,0 625,0 625,-30"/>
<text text-anchor="start" x="448" y="-18" font-family="Helvetica,sans-Serif" font-size="10.00">m_boundary_io::s_write</text>
<text text-anchor="middle" x="532.5" y="-7" font-family="Helvetica,sans-Serif" font-size="10.00">_parallel_boundary_condition_files</text>
</a>
</g>
</g>
<!-- Node1&#45;&gt;Node10 -->
<g id="edge12_Node000001_Node000010" class="edge">
<title>Node1&#45;&gt;Node10</title>
<g id="a_edge12_Node000001_Node000010"><a xlink:title=" ">
<path fill="none" stroke="#63b8ff" d="M693.91,-88.85C676.43,-72.86 650.9,-51.88 625,-39 618.24,-35.64 610.95,-32.7 603.54,-30.16"/>
<polygon fill="#63b8ff" stroke="#63b8ff" points="691.66,-91.54 701.35,-95.81 696.44,-86.42 691.66,-91.54"/>
</a>
</g>
</g>
<!-- Node3 -->
<g id="Node000003" class="node">
<title>Node3</title>
<g id="a_Node000003"><a xlink:href="namespacem__start__up.html#a43f2e386d1bd2f0f6212f31a97542b96" target="_top" xlink:title="Set up the MPI environment, read and broadcast user inputs, and decompose the computational domain.">
<polygon fill="white" stroke="#666666" points="219,-201 89,-201 89,-171 219,-171 219,-201"/>
<text text-anchor="start" x="97" y="-189" font-family="Helvetica,sans-Serif" font-size="10.00">m_start_up::s_initialize</text>
<text text-anchor="middle" x="154" y="-178" font-family="Helvetica,sans-Serif" font-size="10.00">_mpi_domain</text>
</a>
</g>
</g>
<!-- Node2&#45;&gt;Node3 -->
<g id="edge2_Node000002_Node000003" class="edge">
<title>Node2&#45;&gt;Node3</title>
<g id="a_edge2_Node000002_Node000003"><a xlink:title=" ">
<path fill="none" stroke="#63b8ff" d="M463.93,-195.03C394.49,-193 287.16,-189.86 219.03,-187.87"/>
<polygon fill="#63b8ff" stroke="#63b8ff" points="464.22,-198.54 474.32,-195.33 464.42,-191.54 464.22,-198.54"/>
</a>
</g>
</g>
<!-- Node4 -->
<g id="Node000004" class="node">
<title>Node4</title>
<g id="a_Node000004"><a xlink:href="p__main_8fpp_8f90.html#aeec10ee8e2940c953967da3e374e1579" target="_top" xlink:title="Post&#45;process raw simulation data into formatted database files (Silo&#45;HDF5 or Binary).">
<polygon fill="white" stroke="#666666" points="53,-161.5 0,-161.5 0,-142.5 53,-142.5 53,-161.5"/>
<text text-anchor="middle" x="26.5" y="-149.5" font-family="Helvetica,sans-Serif" font-size="10.00">p_main</text>
</a>
</g>
</g>
<!-- Node3&#45;&gt;Node4 -->
<g id="edge3_Node000003_Node000004" class="edge">
<title>Node3&#45;&gt;Node4</title>
<g id="a_edge3_Node000003_Node000004"><a xlink:title=" ">
<path fill="none" stroke="#63b8ff" d="M87.74,-168.32C75.44,-164.99 63.28,-161.69 53.13,-158.94"/>
<polygon fill="#63b8ff" stroke="#63b8ff" points="87.02,-171.75 97.59,-170.99 88.85,-164.99 87.02,-171.75"/>
</a>
</g>
</g>
<!-- Node6 -->
<g id="Node000006" class="node">
<title>Node6</title>
<g id="a_Node000006"><a xlink:href="namespacem__start__up.html#aea20fb8945d467b344a487cfe8213d99" target="_top" xlink:title="Initialize all post&#45;process sub&#45;modules, set up I/O pointers, and prepare FFTW plans and MPI communic...">
<polygon fill="white" stroke="#666666" points="219,-143 89,-143 89,-113 219,-113 219,-143"/>
<text text-anchor="start" x="97" y="-131" font-family="Helvetica,sans-Serif" font-size="10.00">m_start_up::s_initialize</text>
<text text-anchor="middle" x="154" y="-120" font-family="Helvetica,sans-Serif" font-size="10.00">_modules</text>
</a>
</g>
</g>
<!-- Node5&#45;&gt;Node6 -->
<g id="edge5_Node000005_Node000006" class="edge">
<title>Node5&#45;&gt;Node6</title>
<g id="a_edge5_Node000005_Node000006"><a xlink:title=" ">
<path fill="none" stroke="#63b8ff" d="M244.81,-140.94C236.16,-139.69 227.47,-138.44 219.09,-137.23"/>
<polygon fill="#63b8ff" stroke="#63b8ff" points="244.52,-144.44 254.92,-142.4 245.52,-137.51 244.52,-144.44"/>
</a>
</g>
</g>
<!-- Node6&#45;&gt;Node4 -->
<g id="edge6_Node000006_Node000004" class="edge">
<title>Node6&#45;&gt;Node4</title>
<g id="a_edge6_Node000006_Node000004"><a xlink:title=" ">
<path fill="none" stroke="#63b8ff" d="M78.74,-142.2C69.58,-143.95 60.76,-145.64 53.09,-147.11"/>
<polygon fill="#63b8ff" stroke="#63b8ff" points="79.61,-145.6 88.78,-140.28 78.3,-138.72 79.61,-145.6"/>
</a>
</g>
</g>
<!-- Node8&#45;&gt;Node6 -->
<g id="edge11_Node000008_Node000006" class="edge">
<title>Node8&#45;&gt;Node6</title>
<g id="a_edge11_Node000008_Node000006"><a xlink:title=" ">
<path fill="none" stroke="#63b8ff" d="M461.41,-77.89C442.78,-81.69 422.66,-85.64 404,-89 341.34,-100.29 269.47,-111.34 219.11,-118.78"/>
<polygon fill="#63b8ff" stroke="#63b8ff" points="462.2,-81.3 471.29,-75.87 460.79,-74.45 462.2,-81.3"/>
</a>
</g>
</g>
<!-- Node9 -->
<g id="Node000009" class="node">
<title>Node9</title>
<g id="a_Node000009"><a xlink:href="namespacem__data__input.html#a5746c07ce2bd024e906a721e6552443f" target="_top" xlink:title="Computation of parameters, allocation procedures, and/or any other tasks needed to properly setup the...">
<polygon fill="white" stroke="#666666" points="400.5,-80 258.5,-80 258.5,-50 400.5,-50 400.5,-80"/>
<text text-anchor="start" x="266.5" y="-68" font-family="Helvetica,sans-Serif" font-size="10.00">m_data_input::s_initialize</text>
<text text-anchor="middle" x="329.5" y="-57" font-family="Helvetica,sans-Serif" font-size="10.00">_data_input_module</text>
</a>
</g>
</g>
<!-- Node8&#45;&gt;Node9 -->
<g id="edge9_Node000008_Node000009" class="edge">
<title>Node8&#45;&gt;Node9</title>
<g id="a_edge9_Node000008_Node000009"><a xlink:title=" ">
<path fill="none" stroke="#63b8ff" d="M461.38,-63.7C441.77,-63.89 420.46,-64.1 400.84,-64.3"/>
<polygon fill="#63b8ff" stroke="#63b8ff" points="461.5,-67.2 471.47,-63.6 461.43,-60.2 461.5,-67.2"/>
</a>
</g>
</g>
<!-- Node9&#45;&gt;Node6 -->
<g id="edge10_Node000009_Node000006" class="edge">
<title>Node9&#45;&gt;Node6</title>
<g id="a_edge10_Node000009_Node000006"><a xlink:title=" ">
<path fill="none" stroke="#63b8ff" d="M277.35,-83.57C251.59,-92.93 220.78,-104.11 196.52,-112.92"/>
<polygon fill="#63b8ff" stroke="#63b8ff" points="278.74,-86.79 286.94,-80.09 276.35,-80.21 278.74,-86.79"/>
</a>
</g>
</g>
</g>
</svg>
