<?xml version="1.0" encoding="UTF-8" standalone="no"?>
<!DOCTYPE svg PUBLIC "-//W3C//DTD SVG 1.1//EN"
 "http://www.w3.org/Graphics/SVG/1.1/DTD/svg11.dtd">
<!-- Generated by graphviz version 2.40.1 (20161225.0304)
 -->
<!-- Title: m_derived_variables::s_derive_curvature Pages: 1 -->
<svg width="197pt" height="90pt"
 viewBox="0.00 0.00 197.00 89.50" xmlns="http://www.w3.org/2000/svg" xmlns:xlink="http://www.w3.org/1999/xlink">
<g id="graph0" class="graph" transform="scale(1 1) rotate(0) translate(4 85.5)">
<title>m_derived_variables::s_derive_curvature</title>
<polygon fill="#ffffff" stroke="transparent" points="-4,4 -4,-85.5 193,-85.5 193,4 -4,4"/>
<!-- Node3 -->
<g id="node1" class="node">
<title>Node3</title>
<polygon fill="#bfbfbf" stroke="#000000" points="0,-25.5 0,-51.5 72,-51.5 72,-25.5 0,-25.5"/>
<text text-anchor="start" x="8" y="-41.1" font-family="Helvetica,sans-Serif" font-size="8.00" fill="#000000">m_derived_variables</text>
<text text-anchor="middle" x="36" y="-32.1" font-family="Helvetica,sans-Serif" font-size="8.00" fill="#000000">::s_derive_curvature</text>
</g>
<!-- Node4 -->
<g id="node2" class="node">
<title>Node4</title>
<g id="a_node2"><a xlink:href="namespacem__derived__variables.html#a7fadac6924cf61654373f9f334106001" target="_top" xlink:title="This subroutine is used together with the volume fraction model and when called upon, it computes the values of the unadvected volume fraction from the inputted conservative variables, q_cons_vf. The calculated values are stored in the derived flow quantity storage variable, q_sf. ">
<polygon fill="#ffffff" stroke="#000000" points="110,-46 110,-81 187,-81 187,-46 110,-46"/>
<text text-anchor="start" x="118" y="-70.6" font-family="Helvetica,sans-Serif" font-size="8.00" fill="#000000">m_derived_variables</text>
<text text-anchor="start" x="118" y="-61.6" font-family="Helvetica,sans-Serif" font-size="8.00" fill="#000000">::s_derive_unadvected</text>
<text text-anchor="middle" x="148.5" y="-52.6" font-family="Helvetica,sans-Serif" font-size="8.00" fill="#000000">_volume_fraction</text>
</a>
</g>
</g>
<!-- Node3&#45;&gt;Node4 -->
<g id="edge1" class="edge">
<title>Node3&#45;&gt;Node4</title>
<path fill="none" stroke="#191970" d="M72.215,-46.5478C80.9888,-48.4975 90.5107,-50.6135 99.757,-52.6682"/>
<polygon fill="#191970" stroke="#191970" points="99.1126,-56.1103 109.6337,-54.8631 100.6311,-49.277 99.1126,-56.1103"/>
</g>
<!-- Node5 -->
<g id="node3" class="node">
<title>Node5</title>
<g id="a_node3"><a xlink:href="namespacem__derived__variables.html#a2604318b4c2822441b485a32c755e5b6" target="_top" xlink:title="Computes the solution to the linear system Ax=b w/ sol = x. ">
<polygon fill="#ffffff" stroke="#000000" points="108,-.5 108,-26.5 189,-26.5 189,-.5 108,-.5"/>
<text text-anchor="start" x="116" y="-16.1" font-family="Helvetica,sans-Serif" font-size="8.00" fill="#000000">m_derived_variables</text>
<text text-anchor="middle" x="148.5" y="-7.1" font-family="Helvetica,sans-Serif" font-size="8.00" fill="#000000">::s_solve_linear_system</text>
</a>
</g>
</g>
<!-- Node3&#45;&gt;Node5 -->
<g id="edge2" class="edge">
<title>Node3&#45;&gt;Node5</title>
<path fill="none" stroke="#191970" d="M72.215,-30.4522C80.3404,-28.6466 89.1075,-26.6983 97.7031,-24.7882"/>
<polygon fill="#191970" stroke="#191970" points="98.6636,-28.1602 107.6662,-22.5742 97.145,-21.3269 98.6636,-28.1602"/>
</g>
</g>
</svg>
