<?xml version="1.0" encoding="UTF-8" standalone="no"?>
<!DOCTYPE svg PUBLIC "-//W3C//DTD SVG 1.1//EN"
 "http://www.w3.org/Graphics/SVG/1.1/DTD/svg11.dtd">
<!-- Generated by graphviz version 2.43.0 (0)
 -->
<!-- Title: m_start_up::s_check_input_file Pages: 1 -->
<svg width="863pt" height="1073pt"
 viewBox="0.00 0.00 863.00 1072.51" xmlns="http://www.w3.org/2000/svg" xmlns:xlink="http://www.w3.org/1999/xlink">
<g id="graph0" class="graph" transform="scale(1 1) rotate(0) translate(4 1068.51)">
<title>m_start_up::s_check_input_file</title>
<!-- Node1 -->
<g id="Node000001" class="node">
<title>Node1</title>
<g id="a_Node000001"><a xlink:title="Checking that the user inputs make sense, i.e. that the individual choices are compatible with the co...">
<polygon fill="#999999" stroke="#666666" points="116,-610.51 0,-610.51 0,-580.51 116,-580.51 116,-610.51"/>
<text text-anchor="start" x="8" y="-598.51" font-family="Helvetica,sans-Serif" font-size="10.00">m_start_up::s_check</text>
<text text-anchor="middle" x="58" y="-587.51" font-family="Helvetica,sans-Serif" font-size="10.00">_input_file</text>
</a>
</g>
</g>
<!-- Node2 -->
<g id="Node000002" class="node">
<title>Node2</title>
<g id="a_Node000002"><a xlink:href="namespacem__compile__specific.html#aa7f14da74305c1d061ce326b16a3263e" target="_top" xlink:title="Inquires on the existence of a directory.">
<polygon fill="white" stroke="#666666" points="278,-851.51 165,-851.51 165,-821.51 278,-821.51 278,-851.51"/>
<text text-anchor="start" x="173" y="-839.51" font-family="Helvetica,sans-Serif" font-size="10.00">m_compile_specific</text>
<text text-anchor="middle" x="221.5" y="-828.51" font-family="Helvetica,sans-Serif" font-size="10.00">::my_inquire</text>
</a>
</g>
</g>
<!-- Node1&#45;&gt;Node2 -->
<g id="edge1_Node000001_Node000002" class="edge">
<title>Node1&#45;&gt;Node2</title>
<g id="a_edge1_Node000001_Node000002"><a xlink:title=" ">
<path fill="none" stroke="#63b8ff" d="M61.2,-610.52C67.68,-649.48 90.3,-754.87 152,-812.51 153.3,-813.73 154.66,-814.88 156.08,-815.97"/>
<polygon fill="#63b8ff" stroke="#63b8ff" points="154.42,-819.07 164.7,-821.63 158.25,-813.22 154.42,-819.07"/>
</a>
</g>
</g>
<!-- Node3 -->
<g id="Node000003" class="node">
<title>Node3</title>
<g id="a_Node000003"><a xlink:href="m__checker_8fpp_8f90.html#a66c49f3c83092720b368c30c6048538a" target="_top" xlink:title="Checks compatibility of parameters in the input file. Used by the post_process stage.">
<polygon fill="white" stroke="#666666" points="267,-803.01 176,-803.01 176,-784.01 267,-784.01 267,-803.01"/>
<text text-anchor="middle" x="221.5" y="-791.01" font-family="Helvetica,sans-Serif" font-size="10.00">s_check_inputs</text>
</a>
</g>
</g>
<!-- Node1&#45;&gt;Node3 -->
<g id="edge2_Node000001_Node000003" class="edge">
<title>Node1&#45;&gt;Node3</title>
<g id="a_edge2_Node000001_Node000003"><a xlink:title=" ">
<path fill="none" stroke="#63b8ff" d="M71.4,-610.72C100.81,-646.77 174.62,-737.27 206.01,-775.75"/>
<polygon fill="#63b8ff" stroke="#63b8ff" points="203.66,-778.41 212.7,-783.95 209.09,-773.99 203.66,-778.41"/>
</a>
</g>
</g>
<!-- Node6 -->
<g id="Node000006" class="node">
<title>Node6</title>
<g id="a_Node000006"><a xlink:href="m__mpi__common_8fpp_8f90.html#ad9e1329e498b65ad4256658675d6f797" target="_top" xlink:title="The subroutine terminates the MPI execution environment.">
<polygon fill="white" stroke="#666666" points="822.5,-75.01 745.5,-75.01 745.5,-56.01 822.5,-56.01 822.5,-75.01"/>
<text text-anchor="middle" x="784" y="-63.01" font-family="Helvetica,sans-Serif" font-size="10.00">s_mpi_abort</text>
</a>
</g>
</g>
<!-- Node1&#45;&gt;Node6 -->
<g id="edge66_Node000001_Node000006" class="edge">
<title>Node1&#45;&gt;Node6</title>
<g id="a_edge66_Node000001_Node000006"><a xlink:title=" ">
<path fill="none" stroke="#63b8ff" d="M60.62,-580.15C69.54,-504.15 120.17,-167.16 327,-41.51 464.75,42.17 671.3,-22.2 750.5,-52.25"/>
<polygon fill="#63b8ff" stroke="#63b8ff" points="749.36,-55.56 759.95,-55.9 751.88,-49.03 749.36,-55.56"/>
</a>
</g>
</g>
<!-- Node18 -->
<g id="Node000018" class="node">
<title>Node18</title>
<g id="a_Node000018"><a xlink:href="m__checker__common_8fpp_8f90.html#ac1305563044bff409bb307d98e1dfe13" target="_top" xlink:title="Checks compatibility of parameters in the input file. Used by all three stages.">
<polygon fill="white" stroke="#666666" points="291,-407.01 152,-407.01 152,-388.01 291,-388.01 291,-407.01"/>
<text text-anchor="middle" x="221.5" y="-395.01" font-family="Helvetica,sans-Serif" font-size="10.00">s_check_inputs_common</text>
</a>
</g>
</g>
<!-- Node1&#45;&gt;Node18 -->
<g id="edge28_Node000001_Node000018" class="edge">
<title>Node1&#45;&gt;Node18</title>
<g id="a_edge28_Node000001_Node000018"><a xlink:title=" ">
<path fill="none" stroke="#63b8ff" d="M71.4,-580.31C100.81,-544.26 174.62,-453.76 206.01,-415.28"/>
<polygon fill="#63b8ff" stroke="#63b8ff" points="209.09,-417.04 212.7,-407.08 203.66,-412.62 209.09,-417.04"/>
</a>
</g>
</g>
<!-- Node4 -->
<g id="Node000004" class="node">
<title>Node4</title>
<g id="a_Node000004"><a xlink:href="m__checker_8fpp_8f90.html#a7c0748d319352ea5148ec7cbd1ce843c" target="_top" xlink:title="Checks constraints on flux limiter parameters.">
<polygon fill="white" stroke="#666666" points="466.5,-856.51 352.5,-856.51 352.5,-826.51 466.5,-826.51 466.5,-856.51"/>
<text text-anchor="start" x="360.5" y="-844.51" font-family="Helvetica,sans-Serif" font-size="10.00">s_check_inputs_flux</text>
<text text-anchor="middle" x="409.5" y="-833.51" font-family="Helvetica,sans-Serif" font-size="10.00">_limiter</text>
</a>
</g>
</g>
<!-- Node3&#45;&gt;Node4 -->
<g id="edge3_Node000003_Node000004" class="edge">
<title>Node3&#45;&gt;Node4</title>
<g id="a_edge3_Node000003_Node000004"><a xlink:title=" ">
<path fill="none" stroke="#63b8ff" d="M259.69,-803.11C283.3,-809.2 314.51,-817.26 342.26,-824.42"/>
<polygon fill="#63b8ff" stroke="#63b8ff" points="341.74,-827.9 352.3,-827.01 343.49,-821.12 341.74,-827.9"/>
</a>
</g>
</g>
<!-- Node7 -->
<g id="Node000007" class="node">
<title>Node7</title>
<g id="a_Node000007"><a xlink:href="m__checker_8fpp_8f90.html#a253b17be6608760baeaa0c5295fac290" target="_top" xlink:title="Checks constraints on the absence of flow variables.">
<polygon fill="white" stroke="#666666" points="476.5,-808.51 342.5,-808.51 342.5,-778.51 476.5,-778.51 476.5,-808.51"/>
<text text-anchor="start" x="350.5" y="-796.51" font-family="Helvetica,sans-Serif" font-size="10.00">s_check_inputs_no_flow</text>
<text text-anchor="middle" x="409.5" y="-785.51" font-family="Helvetica,sans-Serif" font-size="10.00">_variables</text>
</a>
</g>
</g>
<!-- Node3&#45;&gt;Node7 -->
<g id="edge6_Node000003_Node000007" class="edge">
<title>Node3&#45;&gt;Node7</title>
<g id="a_edge6_Node000003_Node000007"><a xlink:title=" ">
<path fill="none" stroke="#63b8ff" d="M267.05,-793.51C286.62,-793.51 310.17,-793.51 332.38,-793.51"/>
<polygon fill="#63b8ff" stroke="#63b8ff" points="332.48,-797.01 342.48,-793.51 332.48,-790.01 332.48,-797.01"/>
</a>
</g>
</g>
<!-- Node8 -->
<g id="Node000008" class="node">
<title>Node8</title>
<g id="a_Node000008"><a xlink:href="m__checker_8fpp_8f90.html#a159e06772170bed7ea4e20308d3cab94" target="_top" xlink:title="Checks constraints on output format parameters.">
<polygon fill="white" stroke="#666666" points="473.5,-760.51 345.5,-760.51 345.5,-730.51 473.5,-730.51 473.5,-760.51"/>
<text text-anchor="start" x="353.5" y="-748.51" font-family="Helvetica,sans-Serif" font-size="10.00">s_check_inputs_output</text>
<text text-anchor="middle" x="409.5" y="-737.51" font-family="Helvetica,sans-Serif" font-size="10.00">_format</text>
</a>
</g>
</g>
<!-- Node3&#45;&gt;Node8 -->
<g id="edge8_Node000003_Node000008" class="edge">
<title>Node3&#45;&gt;Node8</title>
<g id="a_edge8_Node000003_Node000008"><a xlink:title=" ">
<path fill="none" stroke="#63b8ff" d="M259.69,-783.92C282.73,-777.97 313.02,-770.15 340.25,-763.13"/>
<polygon fill="#63b8ff" stroke="#63b8ff" points="341.32,-766.47 350.13,-760.58 339.57,-759.69 341.32,-766.47"/>
</a>
</g>
</g>
<!-- Node9 -->
<g id="Node000009" class="node">
<title>Node9</title>
<g id="a_Node000009"><a xlink:href="m__checker_8fpp_8f90.html#a6611707a32d12b55a2ba0f73b0509633" target="_top" xlink:title="Checks constraints on partial density parameters.">
<polygon fill="white" stroke="#666666" points="473.5,-1064.51 345.5,-1064.51 345.5,-1034.51 473.5,-1034.51 473.5,-1064.51"/>
<text text-anchor="start" x="353.5" y="-1052.51" font-family="Helvetica,sans-Serif" font-size="10.00">s_check_inputs_partial</text>
<text text-anchor="middle" x="409.5" y="-1041.51" font-family="Helvetica,sans-Serif" font-size="10.00">_density</text>
</a>
</g>
</g>
<!-- Node3&#45;&gt;Node9 -->
<g id="edge10_Node000003_Node000009" class="edge">
<title>Node3&#45;&gt;Node9</title>
<g id="a_edge10_Node000003_Node000009"><a xlink:title=" ">
<path fill="none" stroke="#63b8ff" d="M267.16,-798.15C276.13,-801.04 284.72,-805.55 291,-812.51 355.3,-883.81 263.27,-953.71 327,-1025.51 329.86,-1028.74 333.14,-1031.54 336.69,-1033.98"/>
<polygon fill="#63b8ff" stroke="#63b8ff" points="335.01,-1037.05 345.42,-1039.01 338.51,-1030.98 335.01,-1037.05"/>
</a>
</g>
</g>
<!-- Node11 -->
<g id="Node000011" class="node">
<title>Node11</title>
<g id="a_Node000011"><a xlink:href="m__checker_8fpp_8f90.html#ab3480edd4ad9ffddc2a10a43d2cc7263" target="_top" xlink:title="Checks constraints on numerical Schlieren parameters (schlieren_wrt and schlieren_alpha)">
<polygon fill="white" stroke="#666666" points="479.5,-712.01 339.5,-712.01 339.5,-693.01 479.5,-693.01 479.5,-712.01"/>
<text text-anchor="middle" x="409.5" y="-700.01" font-family="Helvetica,sans-Serif" font-size="10.00">s_check_inputs_schlieren</text>
</a>
</g>
</g>
<!-- Node3&#45;&gt;Node11 -->
<g id="edge13_Node000003_Node000011" class="edge">
<title>Node3&#45;&gt;Node11</title>
<g id="a_edge13_Node000003_Node000011"><a xlink:title=" ">
<path fill="none" stroke="#63b8ff" d="M233.55,-783.77C251.75,-768.25 289.72,-737.99 327,-721.51 332.67,-719.01 338.71,-716.81 344.84,-714.89"/>
<polygon fill="#63b8ff" stroke="#63b8ff" points="345.89,-718.23 354.52,-712.09 343.94,-711.51 345.89,-718.23"/>
</a>
</g>
</g>
<!-- Node14 -->
<g id="Node000014" class="node">
<title>Node14</title>
<g id="a_Node000014"><a xlink:href="m__checker_8fpp_8f90.html#af3b1dbbf0c45f4ee1f2afa417a617788" target="_top" xlink:title="Checks constraints on surface tension parameters (cf_wrt and sigma)">
<polygon fill="white" stroke="#666666" points="475.5,-588.51 343.5,-588.51 343.5,-558.51 475.5,-558.51 475.5,-588.51"/>
<text text-anchor="start" x="351.5" y="-576.51" font-family="Helvetica,sans-Serif" font-size="10.00">s_check_inputs_surface</text>
<text text-anchor="middle" x="409.5" y="-565.51" font-family="Helvetica,sans-Serif" font-size="10.00">_tension</text>
</a>
</g>
</g>
<!-- Node3&#45;&gt;Node14 -->
<g id="edge18_Node000003_Node000014" class="edge">
<title>Node3&#45;&gt;Node14</title>
<g id="a_edge18_Node000003_Node000014"><a xlink:title=" ">
<path fill="none" stroke="#63b8ff" d="M224.89,-783.71C233.15,-751.91 263.52,-650.72 327,-598.51 329.38,-596.56 331.91,-594.75 334.56,-593.09"/>
<polygon fill="#63b8ff" stroke="#63b8ff" points="336.27,-596.14 343.33,-588.24 332.89,-590.01 336.27,-596.14"/>
</a>
</g>
</g>
<!-- Node15 -->
<g id="Node000015" class="node">
<title>Node15</title>
<g id="a_Node000015"><a xlink:href="m__checker_8fpp_8f90.html#ab34042a7c20cb888b048e50b751b1024" target="_top" xlink:title="Checks constraints on velocity parameters.">
<polygon fill="white" stroke="#666666" points="477,-931.01 342,-931.01 342,-912.01 477,-912.01 477,-931.01"/>
<text text-anchor="middle" x="409.5" y="-919.01" font-family="Helvetica,sans-Serif" font-size="10.00">s_check_inputs_velocity</text>
</a>
</g>
</g>
<!-- Node3&#45;&gt;Node15 -->
<g id="edge21_Node000003_Node000015" class="edge">
<title>Node3&#45;&gt;Node15</title>
<g id="a_edge21_Node000003_Node000015"><a xlink:title=" ">
<path fill="none" stroke="#63b8ff" d="M267.2,-799.53C275.85,-802.36 284.3,-806.49 291,-812.51 323.34,-841.59 293.89,-875.3 327,-903.51 328.79,-905.04 330.69,-906.45 332.66,-907.74"/>
<polygon fill="#63b8ff" stroke="#63b8ff" points="331.32,-911 341.77,-912.72 334.68,-904.85 331.32,-911"/>
</a>
</g>
</g>
<!-- Node16 -->
<g id="Node000016" class="node">
<title>Node16</title>
<g id="a_Node000016"><a xlink:href="m__checker_8fpp_8f90.html#a9be22473b0747571bcebf9f0b934adc2" target="_top" xlink:title="Checks constraints on volume fraction parameters.">
<polygon fill="white" stroke="#666666" points="476,-1016.51 343,-1016.51 343,-986.51 476,-986.51 476,-1016.51"/>
<text text-anchor="start" x="351" y="-1004.51" font-family="Helvetica,sans-Serif" font-size="10.00">s_check_inputs_volume</text>
<text text-anchor="middle" x="409.5" y="-993.51" font-family="Helvetica,sans-Serif" font-size="10.00">_fraction</text>
</a>
</g>
</g>
<!-- Node3&#45;&gt;Node16 -->
<g id="edge23_Node000003_Node000016" class="edge">
<title>Node3&#45;&gt;Node16</title>
<g id="a_edge23_Node000003_Node000016"><a xlink:title=" ">
<path fill="none" stroke="#63b8ff" d="M267.27,-798.49C276.13,-801.37 284.64,-805.79 291,-812.51 342.57,-867.05 275.86,-922.57 327,-977.51 329.12,-979.79 331.44,-981.86 333.92,-983.73"/>
<polygon fill="#63b8ff" stroke="#63b8ff" points="332.56,-987.01 342.89,-989.38 336.29,-981.09 332.56,-987.01"/>
</a>
</g>
</g>
<!-- Node17 -->
<g id="Node000017" class="node">
<title>Node17</title>
<g id="a_Node000017"><a xlink:href="m__checker_8fpp_8f90.html#a0b31e02f6cb29ec1091cd4dc212f20b1" target="_top" xlink:title="Checks constraints on vorticity parameters.">
<polygon fill="white" stroke="#666666" points="478,-894.01 341,-894.01 341,-875.01 478,-875.01 478,-894.01"/>
<text text-anchor="middle" x="409.5" y="-882.01" font-family="Helvetica,sans-Serif" font-size="10.00">s_check_inputs_vorticity</text>
</a>
</g>
</g>
<!-- Node3&#45;&gt;Node17 -->
<g id="edge26_Node000003_Node000017" class="edge">
<title>Node3&#45;&gt;Node17</title>
<g id="a_edge26_Node000003_Node000017"><a xlink:title=" ">
<path fill="none" stroke="#63b8ff" d="M267.32,-801.05C275.68,-803.78 283.98,-807.48 291,-812.51 314.14,-829.11 303.52,-849.4 327,-865.51 329.9,-867.51 332.99,-869.29 336.19,-870.89"/>
<polygon fill="#63b8ff" stroke="#63b8ff" points="334.92,-874.16 345.49,-874.93 337.71,-867.74 334.92,-874.16"/>
</a>
</g>
</g>
<!-- Node5 -->
<g id="Node000005" class="node">
<title>Node5</title>
<g id="a_Node000005"><a xlink:href="m__helper_8fpp_8f90.html#aaf652be9ac041c3a38652bb42475f83f" target="_top" xlink:title=" ">
<polygon fill="white" stroke="#666666" points="650,-559.01 555,-559.01 555,-540.01 650,-540.01 650,-559.01"/>
<text text-anchor="middle" x="602.5" y="-547.01" font-family="Helvetica,sans-Serif" font-size="10.00">s_prohibit_abort</text>
</a>
</g>
</g>
<!-- Node4&#45;&gt;Node5 -->
<g id="edge4_Node000004_Node000005" class="edge">
<title>Node4&#45;&gt;Node5</title>
<g id="a_edge4_Node000004_Node000005"><a xlink:title=" ">
<path fill="none" stroke="#63b8ff" d="M466.6,-832.26C475.86,-828.8 484.78,-824.04 492,-817.51 568.3,-748.59 592.58,-618.69 599.26,-569.28"/>
<polygon fill="#63b8ff" stroke="#63b8ff" points="602.74,-569.62 600.51,-559.26 595.79,-568.75 602.74,-569.62"/>
</a>
</g>
</g>
<!-- Node5&#45;&gt;Node6 -->
<g id="edge5_Node000005_Node000006" class="edge">
<title>Node5&#45;&gt;Node6</title>
<g id="a_edge5_Node000005_Node000006"><a xlink:title=" ">
<path fill="none" stroke="#63b8ff" d="M607.43,-539.82C618.61,-512.22 651.41,-430.78 677,-362.51 716.13,-258.12 760.08,-131.88 776.42,-84.61"/>
<polygon fill="#63b8ff" stroke="#63b8ff" points="779.77,-85.64 779.72,-75.04 773.15,-83.35 779.77,-85.64"/>
</a>
</g>
</g>
<!-- Node7&#45;&gt;Node5 -->
<g id="edge7_Node000007_Node000005" class="edge">
<title>Node7&#45;&gt;Node5</title>
<g id="a_edge7_Node000007_Node000005"><a xlink:title=" ">
<path fill="none" stroke="#63b8ff" d="M476.59,-779.38C482.13,-776.66 487.37,-773.4 492,-769.51 557.13,-714.92 587.2,-612.08 597.34,-569.14"/>
<polygon fill="#63b8ff" stroke="#63b8ff" points="600.81,-569.66 599.59,-559.14 593.98,-568.12 600.81,-569.66"/>
</a>
</g>
</g>
<!-- Node8&#45;&gt;Node5 -->
<g id="edge9_Node000008_Node000005" class="edge">
<title>Node8&#45;&gt;Node5</title>
<g id="a_edge9_Node000008_Node000005"><a xlink:title=" ">
<path fill="none" stroke="#63b8ff" d="M473.69,-731.98C480.21,-729.13 486.46,-725.68 492,-721.51 546.09,-680.81 580.47,-604.95 594.4,-569.16"/>
<polygon fill="#63b8ff" stroke="#63b8ff" points="597.82,-570.02 598.07,-559.43 591.27,-567.55 597.82,-570.02"/>
</a>
</g>
</g>
<!-- Node9&#45;&gt;Node5 -->
<g id="edge12_Node000009_Node000005" class="edge">
<title>Node9&#45;&gt;Node5</title>
<g id="a_edge12_Node000009_Node000005"><a xlink:title=" ">
<path fill="none" stroke="#63b8ff" d="M473.67,-1038.53C480.51,-1035.24 486.84,-1030.99 492,-1025.51 524.47,-991.02 583.69,-654.04 598.22,-568.95"/>
<polygon fill="#63b8ff" stroke="#63b8ff" points="601.67,-569.51 599.9,-559.06 594.77,-568.34 601.67,-569.51"/>
</a>
</g>
</g>
<!-- Node10 -->
<g id="Node000010" class="node">
<title>Node10</title>
<g id="a_Node000010"><a xlink:href="m__helper_8fpp_8f90.html#a8a0505b2bd4f3d8cb2bf3ce16cfe01e3" target="_top" xlink:title=" ">
<polygon fill="white" stroke="#666666" points="639,-968.01 566,-968.01 566,-949.01 639,-949.01 639,-968.01"/>
<text text-anchor="middle" x="602.5" y="-956.01" font-family="Helvetica,sans-Serif" font-size="10.00">s_int_to_str</text>
</a>
</g>
</g>
<!-- Node9&#45;&gt;Node10 -->
<g id="edge11_Node000009_Node000010" class="edge">
<title>Node9&#45;&gt;Node10</title>
<g id="a_edge11_Node000009_Node000010"><a xlink:title=" ">
<path fill="none" stroke="#63b8ff" d="M468.62,-1034.45C476.59,-1031.79 484.59,-1028.81 492,-1025.51 524.26,-1011.19 558.51,-988.95 579.95,-974.07"/>
<polygon fill="#63b8ff" stroke="#63b8ff" points="582.14,-976.8 588.31,-968.18 578.11,-971.08 582.14,-976.8"/>
</a>
</g>
</g>
<!-- Node11&#45;&gt;Node5 -->
<g id="edge17_Node000011_Node000005" class="edge">
<title>Node11&#45;&gt;Node5</title>
<g id="a_edge17_Node000011_Node000005"><a xlink:title=" ">
<path fill="none" stroke="#63b8ff" d="M471.91,-692.87C478.97,-690.42 485.84,-687.36 492,-683.51 539.19,-654.1 575.38,-597.18 591.81,-567.9"/>
<polygon fill="#63b8ff" stroke="#63b8ff" points="594.89,-569.56 596.61,-559.11 588.75,-566.2 594.89,-569.56"/>
</a>
</g>
</g>
<!-- Node11&#45;&gt;Node10 -->
<g id="edge16_Node000011_Node000010" class="edge">
<title>Node11&#45;&gt;Node10</title>
<g id="a_edge16_Node000011_Node000010"><a xlink:title=" ">
<path fill="none" stroke="#63b8ff" d="M476.22,-712.07C481.9,-714.56 487.27,-717.66 492,-721.51 562.78,-779.16 589.96,-892.78 598.34,-938.63"/>
<polygon fill="#63b8ff" stroke="#63b8ff" points="594.9,-939.26 600.04,-948.52 601.79,-938.07 594.9,-939.26"/>
</a>
</g>
</g>
<!-- Node12 -->
<g id="Node000012" class="node">
<title>Node12</title>
<g id="a_Node000012"><a xlink:href="namespacem__helper__basic.html#af1ad5f2cff7ebf5c909a7fc212815ff2" target="_top" xlink:title="Checks if a real(kind(0d0)) variable is of default value.">
<polygon fill="white" stroke="#666666" points="660.5,-353.51 544.5,-353.51 544.5,-323.51 660.5,-323.51 660.5,-353.51"/>
<text text-anchor="start" x="552.5" y="-341.51" font-family="Helvetica,sans-Serif" font-size="10.00">m_helper_basic::f_is</text>
<text text-anchor="middle" x="602.5" y="-330.51" font-family="Helvetica,sans-Serif" font-size="10.00">_default</text>
</a>
</g>
</g>
<!-- Node11&#45;&gt;Node12 -->
<g id="edge14_Node000011_Node000012" class="edge">
<title>Node11&#45;&gt;Node12</title>
<g id="a_edge14_Node000011_Node000012"><a xlink:title=" ">
<path fill="none" stroke="#63b8ff" d="M479.03,-692.93C483.79,-690.41 488.19,-687.31 492,-683.51 541.45,-634.17 507.47,-597.29 528,-530.51 546.89,-469.08 575.57,-399.08 590.92,-362.95"/>
<polygon fill="#63b8ff" stroke="#63b8ff" points="594.17,-364.27 594.88,-353.7 587.73,-361.52 594.17,-364.27"/>
</a>
</g>
</g>
<!-- Node13 -->
<g id="Node000013" class="node">
<title>Node13</title>
<g id="a_Node000013"><a xlink:href="namespacem__helper__basic.html#a4d4fbabb3807eb662390dd48ef95330d" target="_top" xlink:title="This procedure checks if two floating point numbers of kind(0d0) are within tolerance.">
<polygon fill="white" stroke="#666666" points="855,-353.51 713,-353.51 713,-323.51 855,-323.51 855,-353.51"/>
<text text-anchor="start" x="721" y="-341.51" font-family="Helvetica,sans-Serif" font-size="10.00">m_helper_basic::f_approx</text>
<text text-anchor="middle" x="784" y="-330.51" font-family="Helvetica,sans-Serif" font-size="10.00">_equal</text>
</a>
</g>
</g>
<!-- Node12&#45;&gt;Node13 -->
<g id="edge15_Node000012_Node000013" class="edge">
<title>Node12&#45;&gt;Node13</title>
<g id="a_edge15_Node000012_Node000013"><a xlink:title=" ">
<path fill="none" stroke="#63b8ff" d="M660.79,-338.51C674.08,-338.51 688.47,-338.51 702.55,-338.51"/>
<polygon fill="#63b8ff" stroke="#63b8ff" points="702.73,-342.01 712.73,-338.51 702.73,-335.01 702.73,-342.01"/>
</a>
</g>
</g>
<!-- Node14&#45;&gt;Node5 -->
<g id="edge20_Node000014_Node000005" class="edge">
<title>Node14&#45;&gt;Node5</title>
<g id="a_edge20_Node000014_Node000005"><a xlink:title=" ">
<path fill="none" stroke="#63b8ff" d="M475.7,-565.32C498.18,-562.5 523.16,-559.36 544.9,-556.63"/>
<polygon fill="#63b8ff" stroke="#63b8ff" points="545.48,-560.08 554.97,-555.36 544.61,-553.14 545.48,-560.08"/>
</a>
</g>
</g>
<!-- Node14&#45;&gt;Node12 -->
<g id="edge19_Node000014_Node000012" class="edge">
<title>Node14&#45;&gt;Node12</title>
<g id="a_edge19_Node000014_Node000012"><a xlink:title=" ">
<path fill="none" stroke="#63b8ff" d="M475.71,-559.7C481.56,-556.9 487.11,-553.55 492,-549.51 552.47,-499.69 583.47,-407.72 595.46,-363.52"/>
<polygon fill="#63b8ff" stroke="#63b8ff" points="598.9,-364.17 598.04,-353.61 592.13,-362.4 598.9,-364.17"/>
</a>
</g>
</g>
<!-- Node15&#45;&gt;Node5 -->
<g id="edge22_Node000015_Node000005" class="edge">
<title>Node15&#45;&gt;Node5</title>
<g id="a_edge22_Node000015_Node000005"><a xlink:title=" ">
<path fill="none" stroke="#63b8ff" d="M477.15,-913.27C482.57,-910.73 487.63,-907.54 492,-903.51 592.26,-811.21 601.57,-629.25 601.8,-569.24"/>
<polygon fill="#63b8ff" stroke="#63b8ff" points="605.3,-569.19 601.75,-559.21 598.3,-569.22 605.3,-569.19"/>
</a>
</g>
</g>
<!-- Node16&#45;&gt;Node5 -->
<g id="edge25_Node000016_Node000005" class="edge">
<title>Node16&#45;&gt;Node5</title>
<g id="a_edge25_Node000016_Node000005"><a xlink:title=" ">
<path fill="none" stroke="#63b8ff" d="M476.33,-989.01C482.13,-985.96 487.49,-982.19 492,-977.51 550.5,-916.87 589.24,-645.04 599.05,-569.21"/>
<polygon fill="#63b8ff" stroke="#63b8ff" points="602.54,-569.5 600.33,-559.14 595.6,-568.62 602.54,-569.5"/>
</a>
</g>
</g>
<!-- Node16&#45;&gt;Node10 -->
<g id="edge24_Node000016_Node000010" class="edge">
<title>Node16&#45;&gt;Node10</title>
<g id="a_edge24_Node000016_Node000010"><a xlink:title=" ">
<path fill="none" stroke="#63b8ff" d="M476.23,-986.72C502.57,-980.79 532.28,-974.1 556.14,-968.73"/>
<polygon fill="#63b8ff" stroke="#63b8ff" points="557,-972.12 565.99,-966.51 555.46,-965.29 557,-972.12"/>
</a>
</g>
</g>
<!-- Node17&#45;&gt;Node5 -->
<g id="edge27_Node000017_Node000005" class="edge">
<title>Node17&#45;&gt;Node5</title>
<g id="a_edge27_Node000017_Node000005"><a xlink:title=" ">
<path fill="none" stroke="#63b8ff" d="M477.83,-874.88C482.97,-872.38 487.79,-869.31 492,-865.51 582.02,-784.44 598.04,-625.6 600.89,-569.62"/>
<polygon fill="#63b8ff" stroke="#63b8ff" points="604.4,-569.44 601.32,-559.3 597.4,-569.15 604.4,-569.44"/>
</a>
</g>
</g>
<!-- Node18&#45;&gt;Node14 -->
<g id="edge58_Node000018_Node000014" class="edge">
<title>Node18&#45;&gt;Node14</title>
<g id="a_edge58_Node000018_Node000014"><a xlink:title=" ">
<path fill="none" stroke="#63b8ff" d="M226.29,-407.03C237.45,-433.78 272.82,-510.22 327,-549.51 329.35,-551.22 331.82,-552.8 334.38,-554.28"/>
<polygon fill="#63b8ff" stroke="#63b8ff" points="332.88,-557.44 343.37,-558.86 336.06,-551.2 332.88,-557.44"/>
</a>
</g>
</g>
<!-- Node19 -->
<g id="Node000019" class="node">
<title>Node19</title>
<g id="a_Node000019"><a xlink:href="m__checker__common_8fpp_8f90.html#a538dcaa242ef367d1b2cddca76058620" target="_top" xlink:title="Checks constraints on the adv_n flag. Called by s_check_inputs_common for pre&#45;processing and simulati...">
<polygon fill="white" stroke="#666666" points="472,-407.01 347,-407.01 347,-388.01 472,-388.01 472,-407.01"/>
<text text-anchor="middle" x="409.5" y="-395.01" font-family="Helvetica,sans-Serif" font-size="10.00">s_check_inputs_adv_n</text>
</a>
</g>
</g>
<!-- Node18&#45;&gt;Node19 -->
<g id="edge29_Node000018_Node000019" class="edge">
<title>Node18&#45;&gt;Node19</title>
<g id="a_edge29_Node000018_Node000019"><a xlink:title=" ">
<path fill="none" stroke="#63b8ff" d="M291.23,-397.51C306.03,-397.51 321.71,-397.51 336.62,-397.51"/>
<polygon fill="#63b8ff" stroke="#63b8ff" points="336.81,-401.01 346.81,-397.51 336.81,-394.01 336.81,-401.01"/>
</a>
</g>
</g>
<!-- Node20 -->
<g id="Node000020" class="node">
<title>Node20</title>
<g id="a_Node000020"><a xlink:href="m__checker__common_8fpp_8f90.html#ab9d26fff561c55f5ef7f201aa14d2688" target="_top" xlink:title="Checks constraints on the boundary conditions in the x&#45;direction. Called by s_check_inputs_common for...">
<polygon fill="white" stroke="#666666" points="463,-370.01 356,-370.01 356,-351.01 463,-351.01 463,-370.01"/>
<text text-anchor="middle" x="409.5" y="-358.01" font-family="Helvetica,sans-Serif" font-size="10.00">s_check_inputs_bc</text>
</a>
</g>
</g>
<!-- Node18&#45;&gt;Node20 -->
<g id="edge31_Node000018_Node000020" class="edge">
<title>Node18&#45;&gt;Node20</title>
<g id="a_edge31_Node000018_Node000020"><a xlink:title=" ">
<path fill="none" stroke="#63b8ff" d="M270.4,-387.99C294.82,-383.13 324.72,-377.18 350.44,-372.06"/>
<polygon fill="#63b8ff" stroke="#63b8ff" points="351.31,-375.46 360.44,-370.07 349.95,-368.59 351.31,-375.46"/>
</a>
</g>
</g>
<!-- Node21 -->
<g id="Node000021" class="node">
<title>Node21</title>
<g id="a_Node000021"><a xlink:href="m__checker__common_8fpp_8f90.html#a01441cca058c6ae5c7ad6d95023d7c74" target="_top" xlink:title="Checks constraints on the bubble parameters. Called by s_check_inputs_common for pre&#45;processing and s...">
<polygon fill="white" stroke="#666666" points="476.5,-161.01 342.5,-161.01 342.5,-142.01 476.5,-142.01 476.5,-161.01"/>
<text text-anchor="middle" x="409.5" y="-149.01" font-family="Helvetica,sans-Serif" font-size="10.00">s_check_inputs_bubbles</text>
</a>
</g>
</g>
<!-- Node18&#45;&gt;Node21 -->
<g id="edge33_Node000018_Node000021" class="edge">
<title>Node18&#45;&gt;Node21</title>
<g id="a_edge33_Node000018_Node000021"><a xlink:title=" ">
<path fill="none" stroke="#63b8ff" d="M223.88,-387.95C229.46,-352.87 253.71,-230.29 327,-170.51 329.07,-168.83 331.26,-167.28 333.55,-165.87"/>
<polygon fill="#63b8ff" stroke="#63b8ff" points="335.52,-168.79 342.77,-161.06 332.29,-162.58 335.52,-168.79"/>
</a>
</g>
</g>
<!-- Node22 -->
<g id="Node000022" class="node">
<title>Node22</title>
<g id="a_Node000022"><a xlink:href="m__checker__common_8fpp_8f90.html#a1f58bf767848b82995c95a02051a26a3" target="_top" xlink:title="Checks constraints on the finite difference parameters. Called by s_check_inputs_common for simulatio...">
<polygon fill="white" stroke="#666666" points="470,-332.51 349,-332.51 349,-302.51 470,-302.51 470,-332.51"/>
<text text-anchor="start" x="357" y="-320.51" font-family="Helvetica,sans-Serif" font-size="10.00">s_check_inputs_finite</text>
<text text-anchor="middle" x="409.5" y="-309.51" font-family="Helvetica,sans-Serif" font-size="10.00">_difference</text>
</a>
</g>
</g>
<!-- Node18&#45;&gt;Node22 -->
<g id="edge36_Node000018_Node000022" class="edge">
<title>Node18&#45;&gt;Node22</title>
<g id="a_edge36_Node000018_Node000022"><a xlink:title=" ">
<path fill="none" stroke="#63b8ff" d="M237.94,-387.93C257.91,-375.85 294.05,-355.02 327,-341.51 331.95,-339.49 337.13,-337.55 342.38,-335.72"/>
<polygon fill="#63b8ff" stroke="#63b8ff" points="343.49,-339.04 351.86,-332.55 341.27,-332.4 343.49,-339.04"/>
</a>
</g>
</g>
<!-- Node23 -->
<g id="Node000023" class="node">
<title>Node23</title>
<g id="a_Node000023"><a xlink:href="m__checker__common_8fpp_8f90.html#accfb74f37212066b8bc82dd89ed2ed22" target="_top" xlink:title="Checks constraints on the hypoelasticity parameters. Called by s_check_inputs_common for pre&#45;processi...">
<polygon fill="white" stroke="#666666" points="492,-284.01 327,-284.01 327,-265.01 492,-265.01 492,-284.01"/>
<text text-anchor="middle" x="409.5" y="-272.01" font-family="Helvetica,sans-Serif" font-size="10.00">s_check_inputs_hypoelasticity</text>
</a>
</g>
</g>
<!-- Node18&#45;&gt;Node23 -->
<g id="edge38_Node000018_Node000023" class="edge">
<title>Node18&#45;&gt;Node23</title>
<g id="a_edge38_Node000018_Node000023"><a xlink:title=" ">
<path fill="none" stroke="#63b8ff" d="M229.34,-387.7C244.4,-366.86 282.67,-318.08 327,-293.51 331.15,-291.21 335.57,-289.19 340.12,-287.41"/>
<polygon fill="#63b8ff" stroke="#63b8ff" points="341.31,-290.7 349.6,-284.1 339,-284.1 341.31,-290.7"/>
</a>
</g>
</g>
<!-- Node24 -->
<g id="Node000024" class="node">
<title>Node24</title>
<g id="a_Node000024"><a xlink:href="m__checker__common_8fpp_8f90.html#a5f288df12e9ccee0eb013354410ebfa8" target="_top" xlink:title="Checks constraints on the Immersed Boundaries parameters. Called by s_check_inputs_common for pre&#45;pro...">
<polygon fill="white" stroke="#666666" points="467,-247.01 352,-247.01 352,-228.01 467,-228.01 467,-247.01"/>
<text text-anchor="middle" x="409.5" y="-235.01" font-family="Helvetica,sans-Serif" font-size="10.00">s_check_inputs_ibm</text>
</a>
</g>
</g>
<!-- Node18&#45;&gt;Node24 -->
<g id="edge40_Node000018_Node000024" class="edge">
<title>Node18&#45;&gt;Node24</title>
<g id="a_edge40_Node000018_Node000024"><a xlink:title=" ">
<path fill="none" stroke="#63b8ff" d="M226.68,-387.7C238.35,-361.59 273.89,-290.07 327,-255.51 331.71,-252.45 336.86,-249.9 342.2,-247.79"/>
<polygon fill="#63b8ff" stroke="#63b8ff" points="343.68,-250.98 352,-244.42 341.4,-244.36 343.68,-250.98"/>
</a>
</g>
</g>
<!-- Node25 -->
<g id="Node000025" class="node">
<title>Node25</title>
<g id="a_Node000025"><a xlink:href="m__checker__common_8fpp_8f90.html#a62ef6c0450d3c2d10771bc88062ae6e4" target="_top" xlink:title="Checks constraints on model equations and number of fluids in the flow. Called by s_check_inputs_comm...">
<polygon fill="white" stroke="#666666" points="473,-674.51 346,-674.51 346,-644.51 473,-644.51 473,-674.51"/>
<text text-anchor="start" x="354" y="-662.51" font-family="Helvetica,sans-Serif" font-size="10.00">s_check_inputs_model</text>
<text text-anchor="middle" x="409.5" y="-651.51" font-family="Helvetica,sans-Serif" font-size="10.00">_eqns_and_num_fluids</text>
</a>
</g>
</g>
<!-- Node18&#45;&gt;Node25 -->
<g id="edge42_Node000018_Node000025" class="edge">
<title>Node18&#45;&gt;Node25</title>
<g id="a_edge42_Node000018_Node000025"><a xlink:title=" ">
<path fill="none" stroke="#63b8ff" d="M223.84,-407.39C229.3,-443.63 253.15,-570.52 327,-635.51 330.03,-638.18 333.34,-640.55 336.84,-642.65"/>
<polygon fill="#63b8ff" stroke="#63b8ff" points="335.38,-645.84 345.87,-647.37 338.62,-639.64 335.38,-645.84"/>
</a>
</g>
</g>
<!-- Node26 -->
<g id="Node000026" class="node">
<title>Node26</title>
<g id="a_Node000026"><a xlink:href="m__checker__common_8fpp_8f90.html#a697321811bee46ce0c7e4d23ef95fb9e" target="_top" xlink:title="Checks constraints on the inputs for moving boundaries. Called by s_check_inputs_common for all three...">
<polygon fill="white" stroke="#666666" points="677,-75.01 528,-75.01 528,-56.01 677,-56.01 677,-75.01"/>
<text text-anchor="middle" x="602.5" y="-63.01" font-family="Helvetica,sans-Serif" font-size="10.00">s_check_inputs_moving_bc</text>
</a>
</g>
</g>
<!-- Node18&#45;&gt;Node26 -->
<g id="edge44_Node000018_Node000026" class="edge">
<title>Node18&#45;&gt;Node26</title>
<g id="a_edge44_Node000018_Node000026"><a xlink:title=" ">
<path fill="none" stroke="#63b8ff" d="M222.23,-387.75C221.62,-343.8 225.53,-163.08 327,-84.51 391.81,-34.34 493.05,-42.88 552.77,-53.98"/>
<polygon fill="#63b8ff" stroke="#63b8ff" points="552.22,-57.44 562.71,-55.92 553.56,-50.57 552.22,-57.44"/>
</a>
</g>
</g>
<!-- Node27 -->
<g id="Node000027" class="node">
<title>Node27</title>
<g id="a_Node000027"><a xlink:href="m__checker__common_8fpp_8f90.html#add5396f309ec2b5791b6e7e931a8a83a" target="_top" xlink:title="Checks constraints on the phase change parameters. Called by s_check_inputs_common for pre&#45;processing...">
<polygon fill="white" stroke="#666666" points="472,-123.51 347,-123.51 347,-93.51 472,-93.51 472,-123.51"/>
<text text-anchor="start" x="355" y="-111.51" font-family="Helvetica,sans-Serif" font-size="10.00">s_check_inputs_phase</text>
<text text-anchor="middle" x="409.5" y="-100.51" font-family="Helvetica,sans-Serif" font-size="10.00">_change</text>
</a>
</g>
</g>
<!-- Node18&#45;&gt;Node27 -->
<g id="edge46_Node000018_Node000027" class="edge">
<title>Node18&#45;&gt;Node27</title>
<g id="a_edge46_Node000018_Node000027"><a xlink:title=" ">
<path fill="none" stroke="#63b8ff" d="M223.33,-387.89C227.15,-349.52 246.53,-206.11 327,-132.51 330.34,-129.46 334.04,-126.8 337.98,-124.47"/>
<polygon fill="#63b8ff" stroke="#63b8ff" points="339.61,-127.57 346.92,-119.9 336.42,-121.34 339.61,-127.57"/>
</a>
</g>
</g>
<!-- Node28 -->
<g id="Node000028" class="node">
<title>Node28</title>
<g id="a_Node000028"><a xlink:href="m__checker__common_8fpp_8f90.html#adc048c92da5bb1fe5a2e0c05a6ac4363" target="_top" xlink:title="Checks constraints on the QBMM and polydisperse bubble parameters. Called by s_check_inputs_common fo...">
<polygon fill="white" stroke="#666666" points="473.5,-209.51 345.5,-209.51 345.5,-179.51 473.5,-179.51 473.5,-209.51"/>
<text text-anchor="start" x="353.5" y="-197.51" font-family="Helvetica,sans-Serif" font-size="10.00">s_check_inputs_qbmm</text>
<text text-anchor="middle" x="409.5" y="-186.51" font-family="Helvetica,sans-Serif" font-size="10.00">_and_polydisperse</text>
</a>
</g>
</g>
<!-- Node18&#45;&gt;Node28 -->
<g id="edge49_Node000018_Node000028" class="edge">
<title>Node18&#45;&gt;Node28</title>
<g id="a_edge49_Node000018_Node000028"><a xlink:title=" ">
<path fill="none" stroke="#63b8ff" d="M225.38,-387.64C234.69,-357.44 266.94,-265.55 327,-218.51 329.81,-216.31 332.83,-214.31 335.97,-212.49"/>
<polygon fill="#63b8ff" stroke="#63b8ff" points="337.81,-215.48 345.15,-207.84 334.64,-209.24 337.81,-215.48"/>
</a>
</g>
</g>
<!-- Node29 -->
<g id="Node000029" class="node">
<title>Node29</title>
<g id="a_Node000029"><a xlink:href="m__checker__common_8fpp_8f90.html#a3638eec34667eefff3ec91023602d436" target="_top" xlink:title="Checks constraints on dimensionality and the number of cells for the grid. Called by s_check_inputs_c...">
<polygon fill="white" stroke="#666666" points="483.5,-540.51 335.5,-540.51 335.5,-510.51 483.5,-510.51 483.5,-540.51"/>
<text text-anchor="start" x="343.5" y="-528.51" font-family="Helvetica,sans-Serif" font-size="10.00">s_check_inputs_simulation</text>
<text text-anchor="middle" x="409.5" y="-517.51" font-family="Helvetica,sans-Serif" font-size="10.00">_domain</text>
</a>
</g>
</g>
<!-- Node18&#45;&gt;Node29 -->
<g id="edge52_Node000018_Node000029" class="edge">
<title>Node18&#45;&gt;Node29</title>
<g id="a_edge52_Node000018_Node000029"><a xlink:title=" ">
<path fill="none" stroke="#63b8ff" d="M229.45,-407.13C244.73,-427.6 283.39,-475.69 327,-501.51 329.86,-503.21 332.84,-504.78 335.91,-506.26"/>
<polygon fill="#63b8ff" stroke="#63b8ff" points="334.74,-509.57 345.31,-510.37 337.55,-503.16 334.74,-509.57"/>
</a>
</g>
</g>
<!-- Node30 -->
<g id="Node000030" class="node">
<title>Node30</title>
<g id="a_Node000030"><a xlink:href="m__checker__common_8fpp_8f90.html#ae37785075c904635e02713670b0cfc46" target="_top" xlink:title="Checks constraints on the stiffened equation of state fluids parameters. Called by s_check_inputs_com...">
<polygon fill="white" stroke="#666666" points="490,-626.01 329,-626.01 329,-607.01 490,-607.01 490,-626.01"/>
<text text-anchor="middle" x="409.5" y="-614.01" font-family="Helvetica,sans-Serif" font-size="10.00">s_check_inputs_stiffened_eos</text>
</a>
</g>
</g>
<!-- Node18&#45;&gt;Node30 -->
<g id="edge54_Node000018_Node000030" class="edge">
<title>Node18&#45;&gt;Node30</title>
<g id="a_edge54_Node000018_Node000030"><a xlink:title=" ">
<path fill="none" stroke="#63b8ff" d="M224.56,-407.29C231.96,-439.92 260.42,-545.93 327,-597.51 329.31,-599.31 331.77,-600.94 334.33,-602.42"/>
<polygon fill="#63b8ff" stroke="#63b8ff" points="332.87,-605.6 343.38,-606.89 335.97,-599.32 332.87,-605.6"/>
</a>
</g>
</g>
<!-- Node31 -->
<g id="Node000031" class="node">
<title>Node31</title>
<g id="a_Node000031"><a xlink:href="m__checker__common_8fpp_8f90.html#a5ce97109d7a61fb087f1b5246c654a96" target="_top" xlink:title="Checks constraints on the time&#45;stepping parameters. Called by s_check_inputs_common for simulation an...">
<polygon fill="white" stroke="#666666" points="469,-492.51 350,-492.51 350,-462.51 469,-462.51 469,-492.51"/>
<text text-anchor="start" x="358" y="-480.51" font-family="Helvetica,sans-Serif" font-size="10.00">s_check_inputs_time</text>
<text text-anchor="middle" x="409.5" y="-469.51" font-family="Helvetica,sans-Serif" font-size="10.00">_stepping</text>
</a>
</g>
</g>
<!-- Node18&#45;&gt;Node31 -->
<g id="edge59_Node000018_Node000031" class="edge">
<title>Node18&#45;&gt;Node31</title>
<g id="a_edge59_Node000018_Node000031"><a xlink:title=" ">
<path fill="none" stroke="#63b8ff" d="M238.34,-407.05C258.43,-418.87 294.4,-439.07 327,-452.51 332.75,-454.88 338.8,-457.15 344.91,-459.28"/>
<polygon fill="#63b8ff" stroke="#63b8ff" points="343.92,-462.64 354.51,-462.51 346.15,-456 343.92,-462.64"/>
</a>
</g>
</g>
<!-- Node32 -->
<g id="Node000032" class="node">
<title>Node32</title>
<g id="a_Node000032"><a xlink:href="m__checker__common_8fpp_8f90.html#aef9fe5f21786bdd9903e9d6f6085c8b9" target="_top" xlink:title="Checks constraints regarding WENO order. Called by s_check_inputs_common for all three stages.">
<polygon fill="white" stroke="#666666" points="470.5,-444.01 348.5,-444.01 348.5,-425.01 470.5,-425.01 470.5,-444.01"/>
<text text-anchor="middle" x="409.5" y="-432.01" font-family="Helvetica,sans-Serif" font-size="10.00">s_check_inputs_weno</text>
</a>
</g>
</g>
<!-- Node18&#45;&gt;Node32 -->
<g id="edge61_Node000018_Node000032" class="edge">
<title>Node18&#45;&gt;Node32</title>
<g id="a_edge61_Node000018_Node000032"><a xlink:title=" ">
<path fill="none" stroke="#63b8ff" d="M270.4,-407.04C294.82,-411.9 324.72,-417.85 350.44,-422.96"/>
<polygon fill="#63b8ff" stroke="#63b8ff" points="349.95,-426.44 360.44,-424.95 351.31,-419.57 349.95,-426.44"/>
</a>
</g>
</g>
<!-- Node33 -->
<g id="Node000033" class="node">
<title>Node33</title>
<g id="a_Node000033"><a xlink:href="m__checker__common_8fpp_8f90.html#ac5ead5876fd9afbfaa1d2c233f13e716" target="_top" xlink:title=" ">
<polygon fill="white" stroke="#666666" points="465,-968.01 354,-968.01 354,-949.01 465,-949.01 465,-968.01"/>
<text text-anchor="middle" x="409.5" y="-956.01" font-family="Helvetica,sans-Serif" font-size="10.00">s_check_total_cells</text>
</a>
</g>
</g>
<!-- Node18&#45;&gt;Node33 -->
<g id="edge63_Node000018_Node000033" class="edge">
<title>Node18&#45;&gt;Node33</title>
<g id="a_edge63_Node000018_Node000033"><a xlink:title=" ">
<path fill="none" stroke="#63b8ff" d="M224.21,-407.21C236.99,-479.38 317.15,-930.39 327,-940.51 331.89,-945.54 337.84,-949.31 344.28,-952.11"/>
<polygon fill="#63b8ff" stroke="#63b8ff" points="343.4,-955.51 353.99,-955.57 345.74,-948.92 343.4,-955.51"/>
</a>
</g>
</g>
<!-- Node19&#45;&gt;Node5 -->
<g id="edge30_Node000019_Node000005" class="edge">
<title>Node19&#45;&gt;Node5</title>
<g id="a_edge30_Node000019_Node000005"><a xlink:title=" ">
<path fill="none" stroke="#63b8ff" d="M472.32,-406.49C479.23,-408.84 485.95,-411.79 492,-415.51 539.36,-444.65 575.47,-501.7 591.85,-531.07"/>
<polygon fill="#63b8ff" stroke="#63b8ff" points="588.79,-532.77 596.63,-539.89 594.94,-529.43 588.79,-532.77"/>
</a>
</g>
</g>
<!-- Node20&#45;&gt;Node5 -->
<g id="edge32_Node000020_Node000005" class="edge">
<title>Node20&#45;&gt;Node5</title>
<g id="a_edge32_Node000020_Node000005"><a xlink:title=" ">
<path fill="none" stroke="#63b8ff" d="M463.03,-365.79C473.25,-368.51 483.44,-372.54 492,-378.51 547.54,-417.28 581.39,-494.17 594.82,-530.13"/>
<polygon fill="#63b8ff" stroke="#63b8ff" points="591.66,-531.66 598.34,-539.89 598.24,-529.29 591.66,-531.66"/>
</a>
</g>
</g>
<!-- Node21&#45;&gt;Node5 -->
<g id="edge35_Node000021_Node000005" class="edge">
<title>Node21&#45;&gt;Node5</title>
<g id="a_edge35_Node000021_Node000005"><a xlink:title=" ">
<path fill="none" stroke="#63b8ff" d="M476.51,-159.52C482.27,-162.3 487.58,-165.9 492,-170.51 552.04,-233.23 504.01,-279.07 528,-362.51 546.18,-425.74 577.46,-497.3 592.68,-530.6"/>
<polygon fill="#63b8ff" stroke="#63b8ff" points="589.65,-532.39 597.01,-540 596.01,-529.46 589.65,-532.39"/>
</a>
</g>
</g>
<!-- Node21&#45;&gt;Node12 -->
<g id="edge34_Node000021_Node000012" class="edge">
<title>Node21&#45;&gt;Node12</title>
<g id="a_edge34_Node000021_Node000012"><a xlink:title=" ">
<path fill="none" stroke="#63b8ff" d="M474,-161.15C480.39,-163.61 486.53,-166.68 492,-170.51 544,-206.94 577.48,-276.72 592.44,-313.85"/>
<polygon fill="#63b8ff" stroke="#63b8ff" points="589.27,-315.36 596.17,-323.4 595.79,-312.81 589.27,-315.36"/>
</a>
</g>
</g>
<!-- Node22&#45;&gt;Node5 -->
<g id="edge37_Node000022_Node000005" class="edge">
<title>Node22&#45;&gt;Node5</title>
<g id="a_edge37_Node000022_Node000005"><a xlink:title=" ">
<path fill="none" stroke="#63b8ff" d="M470.31,-328.99C478.12,-332.19 485.61,-336.28 492,-341.51 554.46,-392.68 585.78,-489.01 596.79,-530.12"/>
<polygon fill="#63b8ff" stroke="#63b8ff" points="593.44,-531.14 599.31,-539.96 600.22,-529.4 593.44,-531.14"/>
</a>
</g>
</g>
<!-- Node23&#45;&gt;Node5 -->
<g id="edge39_Node000023_Node000005" class="edge">
<title>Node23&#45;&gt;Node5</title>
<g id="a_edge39_Node000023_Node000005"><a xlink:title=" ">
<path fill="none" stroke="#63b8ff" d="M476.74,-284.11C482.24,-286.6 487.44,-289.69 492,-293.51 501.83,-301.76 570.65,-472.37 593.87,-530.39"/>
<polygon fill="#63b8ff" stroke="#63b8ff" points="590.69,-531.86 597.65,-539.85 597.19,-529.27 590.69,-531.86"/>
</a>
</g>
</g>
<!-- Node24&#45;&gt;Node5 -->
<g id="edge41_Node000024_Node000005" class="edge">
<title>Node24&#45;&gt;Node5</title>
<g id="a_edge41_Node000024_Node000005"><a xlink:title=" ">
<path fill="none" stroke="#63b8ff" d="M467.2,-242.11C476.29,-244.96 484.99,-249.22 492,-255.51 529.33,-289.04 510.82,-315.37 528,-362.51 550.53,-424.32 579.75,-496.55 593.58,-530.3"/>
<polygon fill="#63b8ff" stroke="#63b8ff" points="590.46,-531.93 597.5,-539.85 596.94,-529.27 590.46,-531.93"/>
</a>
</g>
</g>
<!-- Node25&#45;&gt;Node5 -->
<g id="edge43_Node000025_Node000005" class="edge">
<title>Node25&#45;&gt;Node5</title>
<g id="a_edge43_Node000025_Node000005"><a xlink:title=" ">
<path fill="none" stroke="#63b8ff" d="M471.15,-644.47C478.34,-641.87 485.45,-638.89 492,-635.51 528.23,-616.83 564.24,-585.45 584.6,-566.2"/>
<polygon fill="#63b8ff" stroke="#63b8ff" points="587.06,-568.69 591.84,-559.24 582.21,-563.65 587.06,-568.69"/>
</a>
</g>
</g>
<!-- Node26&#45;&gt;Node6 -->
<g id="edge45_Node000026_Node000006" class="edge">
<title>Node26&#45;&gt;Node6</title>
<g id="a_edge45_Node000026_Node000006"><a xlink:title=" ">
<path fill="none" stroke="#63b8ff" d="M677.03,-65.51C696.61,-65.51 717.27,-65.51 735.08,-65.51"/>
<polygon fill="#63b8ff" stroke="#63b8ff" points="735.22,-69.01 745.22,-65.51 735.22,-62.01 735.22,-69.01"/>
</a>
</g>
</g>
<!-- Node27&#45;&gt;Node5 -->
<g id="edge48_Node000027_Node000005" class="edge">
<title>Node27&#45;&gt;Node5</title>
<g id="a_edge48_Node000027_Node000005"><a xlink:title=" ">
<path fill="none" stroke="#63b8ff" d="M472.04,-118.2C479.59,-121.66 486.55,-126.3 492,-132.51 560.21,-210.31 500.91,-262.66 528,-362.51 545.14,-425.7 576.65,-496.75 592.25,-530.17"/>
<polygon fill="#63b8ff" stroke="#63b8ff" points="589.29,-532.09 596.72,-539.64 595.62,-529.1 589.29,-532.09"/>
</a>
</g>
</g>
<!-- Node27&#45;&gt;Node12 -->
<g id="edge47_Node000027_Node000012" class="edge">
<title>Node27&#45;&gt;Node12</title>
<g id="a_edge47_Node000027_Node000012"><a xlink:title=" ">
<path fill="none" stroke="#63b8ff" d="M472.37,-120.89C479.43,-123.95 486.17,-127.76 492,-132.51 551.44,-181 582.86,-270.49 595.19,-313.78"/>
<polygon fill="#63b8ff" stroke="#63b8ff" points="591.83,-314.78 597.85,-323.49 598.58,-312.92 591.83,-314.78"/>
</a>
</g>
</g>
<!-- Node28&#45;&gt;Node5 -->
<g id="edge51_Node000028_Node000005" class="edge">
<title>Node28&#45;&gt;Node5</title>
<g id="a_edge51_Node000028_Node000005"><a xlink:title=" ">
<path fill="none" stroke="#63b8ff" d="M473.57,-205.59C480.42,-208.87 486.79,-213.09 492,-218.51 537.67,-266.12 507.89,-299.68 528,-362.51 548.05,-425.17 578.45,-497 593.07,-530.48"/>
<polygon fill="#63b8ff" stroke="#63b8ff" points="590,-532.19 597.22,-539.94 596.41,-529.38 590,-532.19"/>
</a>
</g>
</g>
<!-- Node28&#45;&gt;Node12 -->
<g id="edge50_Node000028_Node000012" class="edge">
<title>Node28&#45;&gt;Node12</title>
<g id="a_edge50_Node000028_Node000012"><a xlink:title=" ">
<path fill="none" stroke="#63b8ff" d="M473.86,-209.38C480.2,-211.97 486.37,-215 492,-218.51 532.18,-243.63 566.78,-287.47 585.82,-314.63"/>
<polygon fill="#63b8ff" stroke="#63b8ff" points="583.13,-316.89 591.67,-323.15 588.9,-312.93 583.13,-316.89"/>
</a>
</g>
</g>
<!-- Node29&#45;&gt;Node5 -->
<g id="edge53_Node000029_Node000005" class="edge">
<title>Node29&#45;&gt;Node5</title>
<g id="a_edge53_Node000029_Node000005"><a xlink:title=" ">
<path fill="none" stroke="#63b8ff" d="M483.53,-534.69C503.79,-537.24 525.49,-539.96 544.67,-542.37"/>
<polygon fill="#63b8ff" stroke="#63b8ff" points="544.4,-545.87 554.75,-543.64 545.27,-538.92 544.4,-545.87"/>
</a>
</g>
</g>
<!-- Node30&#45;&gt;Node5 -->
<g id="edge57_Node000030_Node000005" class="edge">
<title>Node30&#45;&gt;Node5</title>
<g id="a_edge57_Node000030_Node000005"><a xlink:title=" ">
<path fill="none" stroke="#63b8ff" d="M458.32,-606.92C469.48,-604.25 481.25,-601.09 492,-597.51 520.48,-588.04 551.72,-573.96 573.52,-563.49"/>
<polygon fill="#63b8ff" stroke="#63b8ff" points="575.07,-566.63 582.54,-559.11 572.01,-560.33 575.07,-566.63"/>
</a>
</g>
</g>
<!-- Node30&#45;&gt;Node10 -->
<g id="edge56_Node000030_Node000010" class="edge">
<title>Node30&#45;&gt;Node10</title>
<g id="a_edge56_Node000030_Node000010"><a xlink:title=" ">
<path fill="none" stroke="#63b8ff" d="M477.85,-626.12C482.99,-628.62 487.8,-631.71 492,-635.51 583.93,-718.86 598.73,-882.2 601.07,-938.71"/>
<polygon fill="#63b8ff" stroke="#63b8ff" points="597.58,-938.93 601.4,-948.81 604.57,-938.7 597.58,-938.93"/>
</a>
</g>
</g>
<!-- Node30&#45;&gt;Node12 -->
<g id="edge55_Node000030_Node000012" class="edge">
<title>Node30&#45;&gt;Node12</title>
<g id="a_edge55_Node000030_Node000012"><a xlink:title=" ">
<path fill="none" stroke="#63b8ff" d="M476.76,-606.94C482.26,-604.45 487.44,-601.35 492,-597.51 511.15,-581.39 569.92,-424.81 592.52,-363.22"/>
<polygon fill="#63b8ff" stroke="#63b8ff" points="595.91,-364.12 596.06,-353.53 589.34,-361.72 595.91,-364.12"/>
</a>
</g>
</g>
<!-- Node31&#45;&gt;Node5 -->
<g id="edge60_Node000031_Node000005" class="edge">
<title>Node31&#45;&gt;Node5</title>
<g id="a_edge60_Node000031_Node000005"><a xlink:title=" ">
<path fill="none" stroke="#63b8ff" d="M465.17,-492.57C474.2,-495.36 483.41,-498.38 492,-501.51 519.86,-511.68 550.72,-525.44 572.56,-535.63"/>
<polygon fill="#63b8ff" stroke="#63b8ff" points="571.09,-538.8 581.63,-539.89 574.07,-532.47 571.09,-538.8"/>
</a>
</g>
</g>
<!-- Node32&#45;&gt;Node5 -->
<g id="edge62_Node000032_Node000005" class="edge">
<title>Node32&#45;&gt;Node5</title>
<g id="a_edge62_Node000032_Node000005"><a xlink:title=" ">
<path fill="none" stroke="#63b8ff" d="M467.89,-444.12C476.22,-446.58 484.5,-449.66 492,-453.51 530.91,-473.5 567.25,-510.32 586.71,-532.1"/>
<polygon fill="#63b8ff" stroke="#63b8ff" points="584.32,-534.68 593.54,-539.9 589.59,-530.07 584.32,-534.68"/>
</a>
</g>
</g>
<!-- Node33&#45;&gt;Node5 -->
<g id="edge65_Node000033_Node000005" class="edge">
<title>Node33&#45;&gt;Node5</title>
<g id="a_edge65_Node000033_Node000005"><a xlink:title=" ">
<path fill="none" stroke="#63b8ff" d="M465.38,-954.85C475.2,-951.99 484.63,-947.48 492,-940.51 547.91,-887.64 588.1,-640.58 598.72,-569"/>
<polygon fill="#63b8ff" stroke="#63b8ff" points="602.18,-569.47 600.16,-559.07 595.26,-568.46 602.18,-569.47"/>
</a>
</g>
</g>
<!-- Node33&#45;&gt;Node10 -->
<g id="edge64_Node000033_Node000010" class="edge">
<title>Node33&#45;&gt;Node10</title>
<g id="a_edge64_Node000033_Node000010"><a xlink:title=" ">
<path fill="none" stroke="#63b8ff" d="M465.23,-958.51C493.87,-958.51 528.53,-958.51 555.73,-958.51"/>
<polygon fill="#63b8ff" stroke="#63b8ff" points="555.76,-962.01 565.76,-958.51 555.76,-955.01 555.76,-962.01"/>
</a>
</g>
</g>
</g>
</svg>
