<?xml version="1.0" encoding="UTF-8" standalone="no"?>
<!DOCTYPE svg PUBLIC "-//W3C//DTD SVG 1.1//EN"
 "http://www.w3.org/Graphics/SVG/1.1/DTD/svg11.dtd">
<!-- Generated by graphviz version 2.43.0 (0)
 -->
<!-- Title: m_data_input::s_read_parallel_conservative_data Pages: 1 -->
<svg width="481pt" height="200pt"
 viewBox="0.00 0.00 481.00 199.50" xmlns="http://www.w3.org/2000/svg" xmlns:xlink="http://www.w3.org/1999/xlink">

<svg id="main" version="1.1" xmlns="http://www.w3.org/2000/svg" xmlns:xlink="http://www.w3.org/1999/xlink" xml:space="preserve">

<style type="text/css"><![CDATA[
.node, .edge {opacity: 0.7;}
.node.selected, .edge.selected {opacity: 1;}
.edge:hover path { stroke: red; }
.edge:hover polygon { stroke: red; fill: red; }
]]></style>
<script type="application/ecmascript" xlink:href="svg.min.js"/>
<svg id="graph" class="graph">
<g id="graph0" class="graph" transform="scale(1 1) rotate(0) translate(4 195.5)">
<title>m_data_input::s_read_parallel_conservative_data</title>
<!-- Node1 -->
<g id="Node000001" class="node">
<title>Node1</title>
<g id="a_Node000001"><a xlink:title="Helper subroutine to read parallel conservative variable data.">
<polygon fill="#999999" stroke="#666666" points="154,-121 0,-121 0,-91 154,-91 154,-121"/>
<text text-anchor="start" x="8" y="-109" font-family="Helvetica,sans-Serif" font-size="10.00">m_data_input::s_read</text>
<text text-anchor="middle" x="77" y="-98" font-family="Helvetica,sans-Serif" font-size="10.00">_parallel_conservative_data</text>
</a>
</g>
</g>
<!-- Node2 -->
<g id="Node000002" class="node">
<title>Node2</title>
<g id="a_Node000002"><a xlink:href="m__helper_8fpp_8f90.html#a61ed7167a8466d96b3403bf41febc469" target="_top" xlink:title=" ">
<polygon fill="white" stroke="#666666" points="290,-191.5 217,-191.5 217,-172.5 290,-172.5 290,-191.5"/>
<text text-anchor="middle" x="253.5" y="-179.5" font-family="Helvetica,sans-Serif" font-size="10.00">s_int_to_str</text>
</a>
</g>
</g>
<!-- Node1&#45;&gt;Node2 -->
<g id="edge1_Node000001_Node000002" class="edge">
<title>Node1&#45;&gt;Node2</title>
<g id="a_edge1_Node000001_Node000002"><a xlink:title=" ">
<path fill="none" stroke="#63b8ff" d="M109.13,-121.14C131.46,-131.84 162.36,-146.29 190,-158 198.72,-161.7 208.23,-165.47 217.13,-168.9"/>
<polygon fill="#63b8ff" stroke="#63b8ff" points="215.9,-172.18 226.49,-172.47 218.4,-165.64 215.9,-172.18"/>
</a>
</g>
</g>
<!-- Node3 -->
<g id="Node000003" class="node">
<title>Node3</title>
<g id="a_Node000003"><a xlink:href="m__mpi__common_8fpp_8f90.html#adbcc47e90968ff0f14ccc2ca3c47586a" target="_top" xlink:title="The subroutine terminates the MPI execution environment.">
<polygon fill="white" stroke="#666666" points="451.5,-112.5 374.5,-112.5 374.5,-93.5 451.5,-93.5 451.5,-112.5"/>
<text text-anchor="middle" x="413" y="-100.5" font-family="Helvetica,sans-Serif" font-size="10.00">s_mpi_abort</text>
</a>
</g>
</g>
<!-- Node1&#45;&gt;Node3 -->
<g id="edge2_Node000001_Node000003" class="edge">
<title>Node1&#45;&gt;Node3</title>
<g id="a_edge2_Node000001_Node000003"><a xlink:title=" ">
<path fill="none" stroke="#63b8ff" d="M154.3,-120.7C166.21,-122.49 178.4,-124.02 190,-125 246.25,-129.74 260.92,-131.41 317,-125 334.27,-123.03 352.97,-119.1 369.18,-115.1"/>
<polygon fill="#63b8ff" stroke="#63b8ff" points="370.09,-118.48 378.91,-112.61 368.35,-111.69 370.09,-118.48"/>
</a>
</g>
</g>
<!-- Node4 -->
<g id="Node000004" class="node">
<title>Node4</title>
<g id="a_Node000004"><a xlink:href="m__mpi__common_8fpp_8f90.html#abf2b4ebce724f44c966c7f1b865ce619" target="_top" xlink:title="Halts all processes until all have reached barrier.">
<polygon fill="white" stroke="#666666" points="295,-115.5 212,-115.5 212,-96.5 295,-96.5 295,-115.5"/>
<text text-anchor="middle" x="253.5" y="-103.5" font-family="Helvetica,sans-Serif" font-size="10.00">s_mpi_barrier</text>
</a>
</g>
</g>
<!-- Node1&#45;&gt;Node4 -->
<g id="edge3_Node000001_Node000004" class="edge">
<title>Node1&#45;&gt;Node4</title>
<g id="a_edge3_Node000001_Node000004"><a xlink:title=" ">
<path fill="none" stroke="#63b8ff" d="M154.03,-106C170.15,-106 186.79,-106 201.69,-106"/>
<polygon fill="#63b8ff" stroke="#63b8ff" points="201.71,-109.5 211.71,-106 201.71,-102.5 201.71,-109.5"/>
</a>
</g>
</g>
<!-- Node5 -->
<g id="Node000005" class="node">
<title>Node5</title>
<g id="a_Node000005"><a xlink:href="namespacem__data__input.html#ab706af65baa287cc6e78ab873a4e67e9" target="_top" xlink:title="Helper subroutine to read IB data files.">
<polygon fill="white" stroke="#666666" points="314.5,-78 192.5,-78 192.5,-48 314.5,-48 314.5,-78"/>
<text text-anchor="start" x="200.5" y="-66" font-family="Helvetica,sans-Serif" font-size="10.00">m_data_input::s_read</text>
<text text-anchor="middle" x="253.5" y="-55" font-family="Helvetica,sans-Serif" font-size="10.00">_ib_data_files</text>
</a>
</g>
</g>
<!-- Node1&#45;&gt;Node5 -->
<g id="edge4_Node000001_Node000005" class="edge">
<title>Node1&#45;&gt;Node5</title>
<g id="a_edge4_Node000001_Node000005"><a xlink:title=" ">
<path fill="none" stroke="#63b8ff" d="M139.03,-90.96C153.09,-87.5 168.14,-83.79 182.54,-80.24"/>
<polygon fill="#63b8ff" stroke="#63b8ff" points="183.51,-83.6 192.39,-77.81 181.84,-76.81 183.51,-83.6"/>
</a>
</g>
</g>
<!-- Node6 -->
<g id="Node000006" class="node">
<title>Node6</title>
<g id="a_Node000006"><a xlink:href="namespacem__data__input.html#a6e65911baddf566b7a796fadcea57495" target="_top" xlink:title="Helper subroutine to setup MPI data I/O parameters.">
<polygon fill="white" stroke="#666666" points="317,-30 190,-30 190,0 317,0 317,-30"/>
<text text-anchor="start" x="198" y="-18" font-family="Helvetica,sans-Serif" font-size="10.00">m_data_input::s_setup</text>
<text text-anchor="middle" x="253.5" y="-7" font-family="Helvetica,sans-Serif" font-size="10.00">_mpi_io_params</text>
</a>
</g>
</g>
<!-- Node1&#45;&gt;Node6 -->
<g id="edge6_Node000001_Node000006" class="edge">
<title>Node1&#45;&gt;Node6</title>
<g id="a_edge6_Node000001_Node000006"><a xlink:title=" ">
<path fill="none" stroke="#63b8ff" d="M100.52,-90.95C122.69,-76.51 157.81,-54.66 190,-39 193.54,-37.28 197.25,-35.59 201,-33.95"/>
<polygon fill="#63b8ff" stroke="#63b8ff" points="202.51,-37.12 210.39,-30.03 199.81,-30.66 202.51,-37.12"/>
</a>
</g>
</g>
<!-- Node5&#45;&gt;Node3 -->
<g id="edge5_Node000005_Node000003" class="edge">
<title>Node5&#45;&gt;Node3</title>
<g id="a_edge5_Node000005_Node000003"><a xlink:title=" ">
<path fill="none" stroke="#63b8ff" d="M313.6,-78.01C330.51,-82.3 348.72,-86.93 364.82,-91.02"/>
<polygon fill="#63b8ff" stroke="#63b8ff" points="363.98,-94.42 374.54,-93.49 365.71,-87.63 363.98,-94.42"/>
</a>
</g>
</g>
<!-- Node7 -->
<g id="Node000007" class="node">
<title>Node7</title>
<g id="a_Node000007"><a xlink:href="m__mpi__common_8fpp_8f90.html#aff6f50a37632c54b36bc810df56db363" target="_top" xlink:title=" ">
<polygon fill="white" stroke="#666666" points="473,-24.5 353,-24.5 353,-5.5 473,-5.5 473,-24.5"/>
<text text-anchor="middle" x="413" y="-12.5" font-family="Helvetica,sans-Serif" font-size="10.00">s_initialize_mpi_data</text>
</a>
</g>
</g>
<!-- Node6&#45;&gt;Node7 -->
<g id="edge7_Node000006_Node000007" class="edge">
<title>Node6&#45;&gt;Node7</title>
<g id="a_edge7_Node000006_Node000007"><a xlink:title=" ">
<path fill="none" stroke="#63b8ff" d="M317.2,-15C325.56,-15 334.16,-15 342.62,-15"/>
<polygon fill="#63b8ff" stroke="#63b8ff" points="342.84,-18.5 352.84,-15 342.84,-11.5 342.84,-18.5"/>
</a>
</g>
</g>
</g>
</svg>
</svg>

<style type='text/css'>
<![CDATA[
[data-mouse-over-selected='false'] { opacity: 0.7; }
[data-mouse-over-selected='true']  { opacity: 1.0; }
]]>
</style>
<script type="application/ecmascript"><![CDATA[
document.addEventListener('DOMContentLoaded', (event) => {
  highlightEdges();
  highlightAdjacentNodes();
});
]]></script>
</svg>
