<?xml version="1.0" encoding="UTF-8" standalone="no"?>
<!DOCTYPE svg PUBLIC "-//W3C//DTD SVG 1.1//EN"
 "http://www.w3.org/Graphics/SVG/1.1/DTD/svg11.dtd">
<!-- Generated by graphviz version 2.40.1 (20161225.0304)
 -->
<!-- Title: m_derived_variables::s_solve_linear_system Pages: 1 -->
<svg width="269pt" height="35pt"
 viewBox="0.00 0.00 269.00 35.00" xmlns="http://www.w3.org/2000/svg" xmlns:xlink="http://www.w3.org/1999/xlink">
<g id="graph0" class="graph" transform="scale(1 1) rotate(0) translate(4 31)">
<title>m_derived_variables::s_solve_linear_system</title>
<polygon fill="#ffffff" stroke="transparent" points="-4,4 -4,-31 265,-31 265,4 -4,4"/>
<!-- Node38 -->
<g id="node1" class="node">
<title>Node38</title>
<polygon fill="#bfbfbf" stroke="#000000" points="0,-.5 0,-26.5 81,-26.5 81,-.5 0,-.5"/>
<text text-anchor="start" x="8" y="-16.1" font-family="Helvetica,sans-Serif" font-size="8.00" fill="#000000">m_derived_variables</text>
<text text-anchor="middle" x="40.5" y="-7.1" font-family="Helvetica,sans-Serif" font-size="8.00" fill="#000000">::s_solve_linear_system</text>
</g>
<!-- Node39 -->
<g id="node2" class="node">
<title>Node39</title>
<g id="a_node2"><a xlink:href="namespacem__derived__variables.html#a2c43e6d73417e237731fdad2eea07b22" target="_top" xlink:title="Computes the local curvatures. ">
<polygon fill="#ffffff" stroke="#000000" points="117,-.5 117,-26.5 189,-26.5 189,-.5 117,-.5"/>
<text text-anchor="start" x="125" y="-16.1" font-family="Helvetica,sans-Serif" font-size="8.00" fill="#000000">m_derived_variables</text>
<text text-anchor="middle" x="153" y="-7.1" font-family="Helvetica,sans-Serif" font-size="8.00" fill="#000000">::s_derive_curvature</text>
</a>
</g>
</g>
<!-- Node38&#45;&gt;Node39 -->
<g id="edge1" class="edge">
<title>Node38&#45;&gt;Node39</title>
<path fill="none" stroke="#191970" d="M91.1751,-13.5C99.8575,-13.5 108.7189,-13.5 116.9207,-13.5"/>
<polygon fill="#191970" stroke="#191970" points="91.1151,-10.0001 81.1151,-13.5 91.115,-17.0001 91.1151,-10.0001"/>
</g>
<!-- Node40 -->
<g id="node3" class="node">
<title>Node40</title>
<g id="a_node3"><a xlink:href="p__main_8f90.html#aeec10ee8e2940c953967da3e374e1579" target="_top" xlink:title="The post&#45;process restructures raw unformatted data, outputted by the simulation, into a formatted dat...">
<polygon fill="#ffffff" stroke="#000000" points="225,-5 225,-22 261,-22 261,-5 225,-5"/>
<text text-anchor="middle" x="243" y="-11.6" font-family="Helvetica,sans-Serif" font-size="8.00" fill="#000000">p_main</text>
</a>
</g>
</g>
<!-- Node39&#45;&gt;Node40 -->
<g id="edge2" class="edge">
<title>Node39&#45;&gt;Node40</title>
<path fill="none" stroke="#191970" d="M199.3258,-13.5C208.437,-13.5 217.4757,-13.5 224.9461,-13.5"/>
<polygon fill="#191970" stroke="#191970" points="199.0879,-10.0001 189.0879,-13.5 199.0878,-17.0001 199.0879,-10.0001"/>
</g>
</g>
</svg>
