<?xml version="1.0" encoding="UTF-8" standalone="no"?>
<!DOCTYPE svg PUBLIC "-//W3C//DTD SVG 1.1//EN"
 "http://www.w3.org/Graphics/SVG/1.1/DTD/svg11.dtd">
<!-- Generated by graphviz version 2.40.1 (20161225.0304)
 -->
<!-- Title: m_derived_variables::s_derive_unadvected_volume_fraction Pages: 1 -->
<svg width="265pt" height="61pt"
 viewBox="0.00 0.00 265.00 60.50" xmlns="http://www.w3.org/2000/svg" xmlns:xlink="http://www.w3.org/1999/xlink">
<g id="graph0" class="graph" transform="scale(1 1) rotate(0) translate(4 56.5)">
<title>m_derived_variables::s_derive_unadvected_volume_fraction</title>
<polygon fill="#ffffff" stroke="transparent" points="-4,4 -4,-56.5 261,-56.5 261,4 -4,4"/>
<!-- Node24 -->
<g id="node1" class="node">
<title>Node24</title>
<polygon fill="#bfbfbf" stroke="#000000" points="0,-.5 0,-35.5 77,-35.5 77,-.5 0,-.5"/>
<text text-anchor="start" x="8" y="-25.1" font-family="Helvetica,sans-Serif" font-size="8.00" fill="#000000">m_derived_variables</text>
<text text-anchor="start" x="8" y="-16.1" font-family="Helvetica,sans-Serif" font-size="8.00" fill="#000000">::s_derive_unadvected</text>
<text text-anchor="middle" x="38.5" y="-7.1" font-family="Helvetica,sans-Serif" font-size="8.00" fill="#000000">_volume_fraction</text>
</g>
<!-- Node25 -->
<g id="node2" class="node">
<title>Node25</title>
<g id="a_node2"><a xlink:href="namespacem__derived__variables.html#a2c43e6d73417e237731fdad2eea07b22" target="_top" xlink:title="Computes the local curvatures. ">
<polygon fill="#ffffff" stroke="#000000" points="113,-26 113,-52 185,-52 185,-26 113,-26"/>
<text text-anchor="start" x="121" y="-41.6" font-family="Helvetica,sans-Serif" font-size="8.00" fill="#000000">m_derived_variables</text>
<text text-anchor="middle" x="149" y="-32.6" font-family="Helvetica,sans-Serif" font-size="8.00" fill="#000000">::s_derive_curvature</text>
</a>
</g>
</g>
<!-- Node24&#45;&gt;Node25 -->
<g id="edge1" class="edge">
<title>Node24&#45;&gt;Node25</title>
<path fill="none" stroke="#191970" d="M87.1178,-27.2396C95.7403,-28.8782 104.5814,-30.5585 112.7847,-32.1175"/>
<polygon fill="#191970" stroke="#191970" points="87.6252,-23.7734 77.1475,-25.3448 86.3182,-30.6504 87.6252,-23.7734"/>
</g>
<!-- Node26 -->
<g id="node3" class="node">
<title>Node26</title>
<g id="a_node3"><a xlink:href="p__main_8f90.html#aeec10ee8e2940c953967da3e374e1579" target="_top" xlink:title="The post&#45;process restructures raw unformatted data, outputted by the simulation, into a formatted dat...">
<polygon fill="#ffffff" stroke="#000000" points="221,-9.5 221,-26.5 257,-26.5 257,-9.5 221,-9.5"/>
<text text-anchor="middle" x="239" y="-16.1" font-family="Helvetica,sans-Serif" font-size="8.00" fill="#000000">p_main</text>
</a>
</g>
</g>
<!-- Node24&#45;&gt;Node26 -->
<g id="edge3" class="edge">
<title>Node24&#45;&gt;Node26</title>
<path fill="none" stroke="#191970" d="M87.3959,-17.2499C95.9305,-17.1458 104.7237,-17.0555 113,-17 144.9993,-16.7852 153.0014,-16.7037 185,-17 196.814,-17.1094 210.08,-17.3533 220.5068,-17.5729"/>
<polygon fill="#191970" stroke="#191970" points="87.1197,-13.7531 77.1659,-17.3824 87.2105,-20.7525 87.1197,-13.7531"/>
</g>
<!-- Node25&#45;&gt;Node26 -->
<g id="edge2" class="edge">
<title>Node25&#45;&gt;Node26</title>
<path fill="none" stroke="#191970" d="M195.0319,-28.2592C204.2425,-26.1101 213.3954,-23.9744 220.9461,-22.2126"/>
<polygon fill="#191970" stroke="#191970" points="194.031,-24.8987 185.0879,-30.5795 195.6216,-31.7156 194.031,-24.8987"/>
</g>
</g>
</svg>
