<?xml version="1.0" encoding="UTF-8" standalone="no"?>
<!DOCTYPE svg PUBLIC "-//W3C//DTD SVG 1.1//EN"
 "http://www.w3.org/Graphics/SVG/1.1/DTD/svg11.dtd">
<!-- Generated by graphviz version 2.43.0 (0)
 -->
<!-- Title: m_helper_basic::f_is_default Pages: 1 -->
<svg width="919pt" height="354pt"
 viewBox="0.00 0.00 919.00 353.50" xmlns="http://www.w3.org/2000/svg" xmlns:xlink="http://www.w3.org/1999/xlink">
<g id="graph0" class="graph" transform="scale(1 1) rotate(0) translate(4 349.5)">
<title>m_helper_basic::f_is_default</title>
<!-- Node1 -->
<g id="Node000001" class="node">
<title>Node1</title>
<g id="a_Node000001"><a xlink:title="Checks if a real(wp) variable is of default value.">
<polygon fill="#999999" stroke="#666666" points="911,-179.5 795,-179.5 795,-149.5 911,-149.5 911,-179.5"/>
<text text-anchor="start" x="803" y="-167.5" font-family="Helvetica,sans-Serif" font-size="10.00">m_helper_basic::f_is</text>
<text text-anchor="middle" x="853" y="-156.5" font-family="Helvetica,sans-Serif" font-size="10.00">_default</text>
</a>
</g>
</g>
<!-- Node2 -->
<g id="Node000002" class="node">
<title>Node2</title>
<g id="a_Node000002"><a xlink:href="namespacem__helper__basic.html#a2a51671bfbfddf6ecabbc9593be49e1d" target="_top" xlink:title="Checks if ALL elements of a real(wp) array are of default value.">
<polygon fill="white" stroke="#666666" points="738.5,-345.5 618.5,-345.5 618.5,-315.5 738.5,-315.5 738.5,-345.5"/>
<text text-anchor="start" x="626.5" y="-333.5" font-family="Helvetica,sans-Serif" font-size="10.00">m_helper_basic::f_all</text>
<text text-anchor="middle" x="678.5" y="-322.5" font-family="Helvetica,sans-Serif" font-size="10.00">_default</text>
</a>
</g>
</g>
<!-- Node1&#45;&gt;Node2 -->
<g id="edge1_Node000001_Node000002" class="edge">
<title>Node1&#45;&gt;Node2</title>
<g id="a_edge1_Node000001_Node000002"><a xlink:title=" ">
<path fill="none" stroke="#63b8ff" d="M842.16,-189.34C828.32,-221.13 800.1,-275.77 759,-306.5 752.88,-311.08 745.89,-314.79 738.64,-317.79"/>
<polygon fill="#63b8ff" stroke="#63b8ff" points="845.49,-190.45 846.15,-179.88 839.04,-187.73 845.49,-190.45"/>
</a>
</g>
</g>
<!-- Node3 -->
<g id="Node000003" class="node">
<title>Node3</title>
<g id="a_Node000003"><a xlink:href="m__checker__common_8fpp_8f90.html#ad303eb73a684151b34b7a78d459e8969" target="_top" xlink:title="Checks constraints on the bubble parameters. Called by s_check_inputs_common for pre&#45;processing and s...">
<polygon fill="white" stroke="#666666" points="745.5,-297.5 611.5,-297.5 611.5,-267.5 745.5,-267.5 745.5,-297.5"/>
<text text-anchor="start" x="619.5" y="-285.5" font-family="Helvetica,sans-Serif" font-size="10.00">s_check_inputs_bubbles</text>
<text text-anchor="middle" x="678.5" y="-274.5" font-family="Helvetica,sans-Serif" font-size="10.00">_euler</text>
</a>
</g>
</g>
<!-- Node1&#45;&gt;Node3 -->
<g id="edge2_Node000001_Node000003" class="edge">
<title>Node1&#45;&gt;Node3</title>
<g id="a_edge2_Node000001_Node000003"><a xlink:title=" ">
<path fill="none" stroke="#63b8ff" d="M834.64,-187.76C817.6,-209.06 789.73,-240 759,-258.5 753.32,-261.92 747.11,-264.89 740.75,-267.45"/>
<polygon fill="#63b8ff" stroke="#63b8ff" points="837.43,-189.87 840.84,-179.84 831.92,-185.56 837.43,-189.87"/>
</a>
</g>
</g>
<!-- Node9 -->
<g id="Node000009" class="node">
<title>Node9</title>
<g id="a_Node000009"><a xlink:href="m__checker_8fpp_8f90.html#a0f81a97bd75142371576937eea184f9e" target="_top" xlink:title="Checks constraints on partial domain parameters.">
<polygon fill="white" stroke="#666666" points="742.5,-67.5 614.5,-67.5 614.5,-37.5 742.5,-37.5 742.5,-67.5"/>
<text text-anchor="start" x="622.5" y="-55.5" font-family="Helvetica,sans-Serif" font-size="10.00">s_check_inputs_partial</text>
<text text-anchor="middle" x="678.5" y="-44.5" font-family="Helvetica,sans-Serif" font-size="10.00">_domain</text>
</a>
</g>
</g>
<!-- Node1&#45;&gt;Node9 -->
<g id="edge8_Node000001_Node000009" class="edge">
<title>Node1&#45;&gt;Node9</title>
<g id="a_edge8_Node000001_Node000009"><a xlink:title=" ">
<path fill="none" stroke="#63b8ff" d="M833.21,-141.48C815.87,-121.64 788.41,-93.55 759,-76.5 753.14,-73.1 746.75,-70.14 740.22,-67.57"/>
<polygon fill="#63b8ff" stroke="#63b8ff" points="830.63,-143.84 839.79,-149.17 835.95,-139.29 830.63,-143.84"/>
</a>
</g>
</g>
<!-- Node12 -->
<g id="Node000012" class="node">
<title>Node12</title>
<g id="a_Node000012"><a xlink:href="m__checker__common_8fpp_8f90.html#add5396f309ec2b5791b6e7e931a8a83a" target="_top" xlink:title="Checks constraints on the phase change parameters. Called by s_check_inputs_common for pre&#45;processing...">
<polygon fill="white" stroke="#666666" points="741,-249.5 616,-249.5 616,-219.5 741,-219.5 741,-249.5"/>
<text text-anchor="start" x="624" y="-237.5" font-family="Helvetica,sans-Serif" font-size="10.00">s_check_inputs_phase</text>
<text text-anchor="middle" x="678.5" y="-226.5" font-family="Helvetica,sans-Serif" font-size="10.00">_change</text>
</a>
</g>
</g>
<!-- Node1&#45;&gt;Node12 -->
<g id="edge12_Node000001_Node000012" class="edge">
<title>Node1&#45;&gt;Node12</title>
<g id="a_edge12_Node000001_Node000012"><a xlink:title=" ">
<path fill="none" stroke="#63b8ff" d="M815.49,-184.32C798.6,-193.02 778.08,-202.96 759,-210.5 750.95,-213.68 742.31,-216.69 733.8,-219.43"/>
<polygon fill="#63b8ff" stroke="#63b8ff" points="817.22,-187.36 824.47,-179.63 813.98,-181.15 817.22,-187.36"/>
</a>
</g>
</g>
<!-- Node13 -->
<g id="Node000013" class="node">
<title>Node13</title>
<g id="a_Node000013"><a xlink:href="m__checker__common_8fpp_8f90.html#adc048c92da5bb1fe5a2e0c05a6ac4363" target="_top" xlink:title="Checks constraints on the QBMM and polydisperse bubble parameters. Called by s_check_inputs_common fo...">
<polygon fill="white" stroke="#666666" points="742.5,-201.5 614.5,-201.5 614.5,-171.5 742.5,-171.5 742.5,-201.5"/>
<text text-anchor="start" x="622.5" y="-189.5" font-family="Helvetica,sans-Serif" font-size="10.00">s_check_inputs_qbmm</text>
<text text-anchor="middle" x="678.5" y="-178.5" font-family="Helvetica,sans-Serif" font-size="10.00">_and_polydisperse</text>
</a>
</g>
</g>
<!-- Node1&#45;&gt;Node13 -->
<g id="edge14_Node000001_Node000013" class="edge">
<title>Node1&#45;&gt;Node13</title>
<g id="a_edge14_Node000001_Node000013"><a xlink:title=" ">
<path fill="none" stroke="#63b8ff" d="M784.63,-173.09C770.81,-174.86 756.3,-176.71 742.63,-178.45"/>
<polygon fill="#63b8ff" stroke="#63b8ff" points="785.08,-176.56 794.56,-171.83 784.2,-169.62 785.08,-176.56"/>
</a>
</g>
</g>
<!-- Node14 -->
<g id="Node000014" class="node">
<title>Node14</title>
<g id="a_Node000014"><a xlink:href="m__checker_8fpp_8f90.html#ab3480edd4ad9ffddc2a10a43d2cc7263" target="_top" xlink:title="Checks constraints on numerical Schlieren parameters (schlieren_wrt and schlieren_alpha)">
<polygon fill="white" stroke="#666666" points="748.5,-19 608.5,-19 608.5,0 748.5,0 748.5,-19"/>
<text text-anchor="middle" x="678.5" y="-7" font-family="Helvetica,sans-Serif" font-size="10.00">s_check_inputs_schlieren</text>
</a>
</g>
</g>
<!-- Node1&#45;&gt;Node14 -->
<g id="edge16_Node000001_Node000014" class="edge">
<title>Node1&#45;&gt;Node14</title>
<g id="a_edge16_Node000001_Node000014"><a xlink:title=" ">
<path fill="none" stroke="#63b8ff" d="M841.93,-139.86C827.98,-108.95 799.82,-56.6 759,-28.5 753.39,-24.64 747.09,-21.56 740.55,-19.1"/>
<polygon fill="#63b8ff" stroke="#63b8ff" points="838.74,-141.32 845.95,-149.09 845.16,-138.52 838.74,-141.32"/>
</a>
</g>
</g>
<!-- Node15 -->
<g id="Node000015" class="node">
<title>Node15</title>
<g id="a_Node000015"><a xlink:href="m__checker__common_8fpp_8f90.html#ae37785075c904635e02713670b0cfc46" target="_top" xlink:title="Checks constraints on the stiffened equation of state fluids parameters. Called by s_check_inputs_com...">
<polygon fill="white" stroke="#666666" points="759,-153 598,-153 598,-134 759,-134 759,-153"/>
<text text-anchor="middle" x="678.5" y="-141" font-family="Helvetica,sans-Serif" font-size="10.00">s_check_inputs_stiffened_eos</text>
</a>
</g>
</g>
<!-- Node1&#45;&gt;Node15 -->
<g id="edge18_Node000001_Node000015" class="edge">
<title>Node1&#45;&gt;Node15</title>
<g id="a_edge18_Node000001_Node000015"><a xlink:title=" ">
<path fill="none" stroke="#63b8ff" d="M784.38,-156.27C775.59,-155.2 766.52,-154.09 757.57,-153"/>
<polygon fill="#63b8ff" stroke="#63b8ff" points="784.21,-159.77 794.56,-157.51 785.06,-152.82 784.21,-159.77"/>
</a>
</g>
</g>
<!-- Node16 -->
<g id="Node000016" class="node">
<title>Node16</title>
<g id="a_Node000016"><a xlink:href="m__checker__common_8fpp_8f90.html#ad84e19a34c1b30082df3e369b5c8e921" target="_top" xlink:title="Checks constraints on the surface tension parameters. Called by s_check_inputs_common for all three s...">
<polygon fill="white" stroke="#666666" points="744.5,-115.5 612.5,-115.5 612.5,-85.5 744.5,-85.5 744.5,-115.5"/>
<text text-anchor="start" x="620.5" y="-103.5" font-family="Helvetica,sans-Serif" font-size="10.00">s_check_inputs_surface</text>
<text text-anchor="middle" x="678.5" y="-92.5" font-family="Helvetica,sans-Serif" font-size="10.00">_tension</text>
</a>
</g>
</g>
<!-- Node1&#45;&gt;Node16 -->
<g id="edge20_Node000001_Node000016" class="edge">
<title>Node1&#45;&gt;Node16</title>
<g id="a_edge20_Node000001_Node000016"><a xlink:title=" ">
<path fill="none" stroke="#63b8ff" d="M808.9,-145.45C793.3,-138.81 775.47,-131.53 759,-125.5 749.63,-122.07 739.53,-118.67 729.78,-115.54"/>
<polygon fill="#63b8ff" stroke="#63b8ff" points="807.72,-148.75 818.29,-149.48 810.48,-142.32 807.72,-148.75"/>
</a>
</g>
</g>
<!-- Node4 -->
<g id="Node000004" class="node">
<title>Node4</title>
<g id="a_Node000004"><a xlink:href="m__checker__common_8fpp_8f90.html#ac1305563044bff409bb307d98e1dfe13" target="_top" xlink:title="Checks compatibility of parameters in the input file. Used by all three stages.">
<polygon fill="white" stroke="#666666" points="562,-185 423,-185 423,-166 562,-166 562,-185"/>
<text text-anchor="middle" x="492.5" y="-173" font-family="Helvetica,sans-Serif" font-size="10.00">s_check_inputs_common</text>
</a>
</g>
</g>
<!-- Node3&#45;&gt;Node4 -->
<g id="edge3_Node000003_Node000004" class="edge">
<title>Node3&#45;&gt;Node4</title>
<g id="a_edge3_Node000003_Node000004"><a xlink:title=" ">
<path fill="none" stroke="#63b8ff" d="M608.89,-263.64C605.15,-262.04 601.49,-260.33 598,-258.5 559,-238.09 520.33,-202.25 502.98,-185.14"/>
<polygon fill="#63b8ff" stroke="#63b8ff" points="607.73,-266.95 618.32,-267.38 610.32,-260.44 607.73,-266.95"/>
</a>
</g>
</g>
<!-- Node5 -->
<g id="Node000005" class="node">
<title>Node5</title>
<g id="a_Node000005"><a xlink:href="m__checker__common_8fpp_8f90.html#a3d7d0fa7763c21af55ac8bad130f285a" target="_top" xlink:title=" ">
<polygon fill="white" stroke="#666666" points="385,-190.5 257,-190.5 257,-160.5 385,-160.5 385,-190.5"/>
<text text-anchor="start" x="265" y="-178.5" font-family="Helvetica,sans-Serif" font-size="10.00">__m_checker_common</text>
<text text-anchor="middle" x="321" y="-167.5" font-family="Helvetica,sans-Serif" font-size="10.00">_fpp_f90__</text>
</a>
</g>
</g>
<!-- Node4&#45;&gt;Node5 -->
<g id="edge4_Node000004_Node000005" class="edge">
<title>Node4&#45;&gt;Node5</title>
<g id="a_edge4_Node000004_Node000005"><a xlink:title=" ">
<path fill="none" stroke="#63b8ff" d="M412.33,-175.5C403.21,-175.5 394.01,-175.5 385.15,-175.5"/>
<polygon fill="#63b8ff" stroke="#63b8ff" points="412.56,-179 422.56,-175.5 412.56,-172 412.56,-179"/>
</a>
</g>
</g>
<!-- Node6 -->
<g id="Node000006" class="node">
<title>Node6</title>
<g id="a_Node000006"><a xlink:href="namespacem__start__up.html#ad16cf885e1d387880fc2e42566c75dc4" target="_top" xlink:title="Checking that the user inputs make sense, i.e. that the individual choices are compatible with the co...">
<polygon fill="white" stroke="#666666" points="379,-131.5 263,-131.5 263,-101.5 379,-101.5 379,-131.5"/>
<text text-anchor="start" x="271" y="-119.5" font-family="Helvetica,sans-Serif" font-size="10.00">m_start_up::s_check</text>
<text text-anchor="middle" x="321" y="-108.5" font-family="Helvetica,sans-Serif" font-size="10.00">_input_file</text>
</a>
</g>
</g>
<!-- Node4&#45;&gt;Node6 -->
<g id="edge5_Node000004_Node000006" class="edge">
<title>Node4&#45;&gt;Node6</title>
<g id="a_edge5_Node000004_Node000006"><a xlink:title=" ">
<path fill="none" stroke="#63b8ff" d="M454.29,-162.55C428.01,-153.4 392.7,-141.11 365.18,-131.53"/>
<polygon fill="#63b8ff" stroke="#63b8ff" points="453.29,-165.91 463.89,-165.89 455.6,-159.3 453.29,-165.91"/>
</a>
</g>
</g>
<!-- Node7 -->
<g id="Node000007" class="node">
<title>Node7</title>
<g id="a_Node000007"><a xlink:href="namespacem__start__up.html#aee2018cb1e1175ef462340b975d3cabf" target="_top" xlink:title=" ">
<polygon fill="white" stroke="#666666" points="219,-131.5 89,-131.5 89,-101.5 219,-101.5 219,-131.5"/>
<text text-anchor="start" x="97" y="-119.5" font-family="Helvetica,sans-Serif" font-size="10.00">m_start_up::s_initialize</text>
<text text-anchor="middle" x="154" y="-108.5" font-family="Helvetica,sans-Serif" font-size="10.00">_mpi_domain</text>
</a>
</g>
</g>
<!-- Node6&#45;&gt;Node7 -->
<g id="edge6_Node000006_Node000007" class="edge">
<title>Node6&#45;&gt;Node7</title>
<g id="a_edge6_Node000006_Node000007"><a xlink:title=" ">
<path fill="none" stroke="#63b8ff" d="M252.72,-116.5C241.65,-116.5 230.2,-116.5 219.2,-116.5"/>
<polygon fill="#63b8ff" stroke="#63b8ff" points="252.75,-120 262.75,-116.5 252.75,-113 252.75,-120"/>
</a>
</g>
</g>
<!-- Node8 -->
<g id="Node000008" class="node">
<title>Node8</title>
<g id="a_Node000008"><a xlink:href="p__main_8fpp_8f90.html#aeec10ee8e2940c953967da3e374e1579" target="_top" xlink:title="The post&#45;process restructures raw unformatted data, outputted by the simulation, into a formatted dat...">
<polygon fill="white" stroke="#666666" points="53,-126 0,-126 0,-107 53,-107 53,-126"/>
<text text-anchor="middle" x="26.5" y="-114" font-family="Helvetica,sans-Serif" font-size="10.00">p_main</text>
</a>
</g>
</g>
<!-- Node7&#45;&gt;Node8 -->
<g id="edge7_Node000007_Node000008" class="edge">
<title>Node7&#45;&gt;Node8</title>
<g id="a_edge7_Node000007_Node000008"><a xlink:title=" ">
<path fill="none" stroke="#63b8ff" d="M78.74,-116.5C69.58,-116.5 60.76,-116.5 53.09,-116.5"/>
<polygon fill="#63b8ff" stroke="#63b8ff" points="78.78,-120 88.78,-116.5 78.78,-113 78.78,-120"/>
</a>
</g>
</g>
<!-- Node10 -->
<g id="Node000010" class="node">
<title>Node10</title>
<g id="a_Node000010"><a xlink:href="m__checker_8fpp_8f90.html#a66c49f3c83092720b368c30c6048538a" target="_top" xlink:title="Checks compatibility of parameters in the input file. Used by the post_process stage.">
<polygon fill="white" stroke="#666666" points="538,-62 447,-62 447,-43 538,-43 538,-62"/>
<text text-anchor="middle" x="492.5" y="-50" font-family="Helvetica,sans-Serif" font-size="10.00">s_check_inputs</text>
</a>
</g>
</g>
<!-- Node9&#45;&gt;Node10 -->
<g id="edge9_Node000009_Node000010" class="edge">
<title>Node9&#45;&gt;Node10</title>
<g id="a_edge9_Node000009_Node000010"><a xlink:title=" ">
<path fill="none" stroke="#63b8ff" d="M604.3,-52.5C581.95,-52.5 558.06,-52.5 538.2,-52.5"/>
<polygon fill="#63b8ff" stroke="#63b8ff" points="604.44,-56 614.44,-52.5 604.44,-49 604.44,-56"/>
</a>
</g>
</g>
<!-- Node10&#45;&gt;Node6 -->
<g id="edge11_Node000010_Node000006" class="edge">
<title>Node10&#45;&gt;Node6</title>
<g id="a_edge11_Node000010_Node000006"><a xlink:title=" ">
<path fill="none" stroke="#63b8ff" d="M456.5,-65.72C428.92,-76.13 390.47,-90.65 361.74,-101.5"/>
<polygon fill="#63b8ff" stroke="#63b8ff" points="458.01,-68.89 466.12,-62.08 455.53,-62.34 458.01,-68.89"/>
</a>
</g>
</g>
<!-- Node11 -->
<g id="Node000011" class="node">
<title>Node11</title>
<g id="a_Node000011"><a xlink:href="m__checker_8fpp_8f90.html#a975b2bfe62199545eeb2519e9afb1395" target="_top" xlink:title=" ">
<polygon fill="white" stroke="#666666" points="387,-62 255,-62 255,-43 387,-43 387,-62"/>
<text text-anchor="middle" x="321" y="-50" font-family="Helvetica,sans-Serif" font-size="10.00">__m_checker_fpp_f90__</text>
</a>
</g>
</g>
<!-- Node10&#45;&gt;Node11 -->
<g id="edge10_Node000010_Node000011" class="edge">
<title>Node10&#45;&gt;Node11</title>
<g id="a_edge10_Node000010_Node000011"><a xlink:title=" ">
<path fill="none" stroke="#63b8ff" d="M436.85,-52.5C421.05,-52.5 403.65,-52.5 387.28,-52.5"/>
<polygon fill="#63b8ff" stroke="#63b8ff" points="436.97,-56 446.97,-52.5 436.97,-49 436.97,-56"/>
</a>
</g>
</g>
<!-- Node12&#45;&gt;Node4 -->
<g id="edge13_Node000012_Node000004" class="edge">
<title>Node12&#45;&gt;Node4</title>
<g id="a_edge13_Node000012_Node000004"><a xlink:title=" ">
<path fill="none" stroke="#63b8ff" d="M616.94,-216.42C610.54,-214.45 604.13,-212.45 598,-210.5 571.93,-202.2 542.38,-192.25 521.37,-185.09"/>
<polygon fill="#63b8ff" stroke="#63b8ff" points="616.38,-219.91 626.96,-219.49 618.42,-213.22 616.38,-219.91"/>
</a>
</g>
</g>
<!-- Node13&#45;&gt;Node4 -->
<g id="edge15_Node000013_Node000004" class="edge">
<title>Node13&#45;&gt;Node4</title>
<g id="a_edge15_Node000013_Node000004"><a xlink:title=" ">
<path fill="none" stroke="#63b8ff" d="M604.41,-182.13C590.48,-181.3 575.94,-180.43 562.15,-179.6"/>
<polygon fill="#63b8ff" stroke="#63b8ff" points="604.24,-185.63 614.44,-182.73 604.66,-178.64 604.24,-185.63"/>
</a>
</g>
</g>
<!-- Node14&#45;&gt;Node10 -->
<g id="edge17_Node000014_Node000010" class="edge">
<title>Node14&#45;&gt;Node10</title>
<g id="a_edge17_Node000014_Node000010"><a xlink:title=" ">
<path fill="none" stroke="#63b8ff" d="M626.68,-21.38C597.54,-28.19 561.47,-36.62 534.22,-42.98"/>
<polygon fill="#63b8ff" stroke="#63b8ff" points="627.72,-24.73 636.66,-19.04 626.13,-17.91 627.72,-24.73"/>
</a>
</g>
</g>
<!-- Node15&#45;&gt;Node4 -->
<g id="edge19_Node000015_Node000004" class="edge">
<title>Node15&#45;&gt;Node4</title>
<g id="a_edge19_Node000015_Node000004"><a xlink:title=" ">
<path fill="none" stroke="#63b8ff" d="M612.66,-154.78C591.64,-158.43 568.54,-162.45 548.31,-165.97"/>
<polygon fill="#63b8ff" stroke="#63b8ff" points="613.54,-158.18 622.79,-153.01 612.34,-151.28 613.54,-158.18"/>
</a>
</g>
</g>
<!-- Node16&#45;&gt;Node4 -->
<g id="edge21_Node000016_Node000004" class="edge">
<title>Node16&#45;&gt;Node4</title>
<g id="a_edge21_Node000016_Node000004"><a xlink:title=" ">
<path fill="none" stroke="#63b8ff" d="M616.13,-118.84C609.96,-120.97 603.83,-123.2 598,-125.5 566.94,-137.74 532.22,-155.13 511.65,-165.85"/>
<polygon fill="#63b8ff" stroke="#63b8ff" points="617.44,-122.09 625.81,-115.58 615.21,-115.45 617.44,-122.09"/>
</a>
</g>
</g>
</g>
</svg>
