<?xml version="1.0" encoding="UTF-8" standalone="no"?>
<!DOCTYPE svg PUBLIC "-//W3C//DTD SVG 1.1//EN"
 "http://www.w3.org/Graphics/SVG/1.1/DTD/svg11.dtd">
<!-- Generated by graphviz version 2.43.0 (0)
 -->
<!-- Title: m_data_input::s_initialize_data_input_module Pages: 1 -->
<svg width="636pt" height="361pt"
 viewBox="0.00 0.00 636.00 360.50" xmlns="http://www.w3.org/2000/svg" xmlns:xlink="http://www.w3.org/1999/xlink">
<g id="graph0" class="graph" transform="scale(1 1) rotate(0) translate(4 356.5)">
<title>m_data_input::s_initialize_data_input_module</title>
<!-- Node1 -->
<g id="Node000001" class="node">
<title>Node1</title>
<g id="a_Node000001"><a xlink:title="Computation of parameters, allocation procedures, and/or any other tasks needed to properly setup the...">
<polygon fill="#999999" stroke="#666666" points="142,-180 0,-180 0,-150 142,-150 142,-180"/>
<text text-anchor="start" x="8" y="-168" font-family="Helvetica,sans-Serif" font-size="10.00">m_data_input::s_initialize</text>
<text text-anchor="middle" x="71" y="-157" font-family="Helvetica,sans-Serif" font-size="10.00">_data_input_module</text>
</a>
</g>
</g>
<!-- Node2 -->
<g id="Node000002" class="node">
<title>Node2</title>
<g id="a_Node000002"><a xlink:href="namespacem__data__input.html#a1e9dfd5c6be77bbfa34abb90c77216b4" target="_top" xlink:title="This subroutine is called at each time&#45;step that has to be post&#45;processed in order to parallel&#45;read t...">
<polygon fill="white" stroke="#666666" points="300,-240 178,-240 178,-210 300,-210 300,-240"/>
<text text-anchor="start" x="186" y="-228" font-family="Helvetica,sans-Serif" font-size="10.00">m_data_input::s_read</text>
<text text-anchor="middle" x="239" y="-217" font-family="Helvetica,sans-Serif" font-size="10.00">_parallel_data_files</text>
</a>
</g>
</g>
<!-- Node1&#45;&gt;Node2 -->
<g id="edge1_Node000001_Node000002" class="edge">
<title>Node1&#45;&gt;Node2</title>
<g id="a_edge1_Node000001_Node000002"><a xlink:title=" ">
<path fill="none" stroke="#63b8ff" d="M113.89,-180.14C136.09,-188.17 163.54,-198.09 186.98,-206.56"/>
<polygon fill="#63b8ff" stroke="#63b8ff" points="185.82,-209.86 196.41,-209.97 188.2,-203.28 185.82,-209.86"/>
</a>
</g>
</g>
<!-- Node10 -->
<g id="Node000010" class="node">
<title>Node10</title>
<g id="a_Node000010"><a xlink:href="namespacem__data__input.html#a94700a0b549ac60847be9f4f0ab94adf" target="_top" xlink:title="This subroutine is called at each time&#45;step that has to be post&#45;processed in order to read the raw da...">
<polygon fill="white" stroke="#666666" points="300,-121 178,-121 178,-91 300,-91 300,-121"/>
<text text-anchor="start" x="186" y="-109" font-family="Helvetica,sans-Serif" font-size="10.00">m_data_input::s_read</text>
<text text-anchor="middle" x="239" y="-98" font-family="Helvetica,sans-Serif" font-size="10.00">_serial_data_files</text>
</a>
</g>
</g>
<!-- Node1&#45;&gt;Node10 -->
<g id="edge11_Node000001_Node000010" class="edge">
<title>Node1&#45;&gt;Node10</title>
<g id="a_edge11_Node000001_Node000010"><a xlink:title=" ">
<path fill="none" stroke="#63b8ff" d="M114.32,-149.96C136.17,-142.19 163.02,-132.65 186.12,-124.44"/>
<polygon fill="#63b8ff" stroke="#63b8ff" points="187.51,-127.66 195.76,-121.01 185.16,-121.06 187.51,-127.66"/>
</a>
</g>
</g>
<!-- Node3 -->
<g id="Node000003" class="node">
<title>Node3</title>
<g id="a_Node000003"><a xlink:href="m__boundary__common_8fpp_8f90.html#a308b06531f570d883d107e71b3b77c8f" target="_top" xlink:title=" ">
<polygon fill="white" stroke="#666666" points="478,-153.5 336,-153.5 336,-134.5 478,-134.5 478,-153.5"/>
<text text-anchor="middle" x="407" y="-141.5" font-family="Helvetica,sans-Serif" font-size="10.00">s_assign_default_bc_type</text>
</a>
</g>
</g>
<!-- Node2&#45;&gt;Node3 -->
<g id="edge2_Node000002_Node000003" class="edge">
<title>Node2&#45;&gt;Node3</title>
<g id="a_edge2_Node000002_Node000003"><a xlink:title=" ">
<path fill="none" stroke="#63b8ff" d="M262.55,-209.8C281.57,-197.44 309.79,-180.12 336,-168 344.91,-163.88 354.75,-160.08 364.15,-156.78"/>
<polygon fill="#63b8ff" stroke="#63b8ff" points="365.4,-160.05 373.75,-153.52 363.15,-153.42 365.4,-160.05"/>
</a>
</g>
</g>
<!-- Node4 -->
<g id="Node000004" class="node">
<title>Node4</title>
<g id="a_Node000004"><a xlink:href="m__mpi__common_8fpp_8f90.html#aff6f50a37632c54b36bc810df56db363" target="_top" xlink:title=" ">
<polygon fill="white" stroke="#666666" points="467,-352.5 347,-352.5 347,-333.5 467,-333.5 467,-352.5"/>
<text text-anchor="middle" x="407" y="-340.5" font-family="Helvetica,sans-Serif" font-size="10.00">s_initialize_mpi_data</text>
</a>
</g>
</g>
<!-- Node2&#45;&gt;Node4 -->
<g id="edge3_Node000002_Node000004" class="edge">
<title>Node2&#45;&gt;Node4</title>
<g id="a_edge3_Node000002_Node000004"><a xlink:title=" ">
<path fill="none" stroke="#63b8ff" d="M250.21,-240.06C265.97,-262.14 298.39,-303.03 336,-325 339.02,-326.76 342.21,-328.35 345.49,-329.79"/>
<polygon fill="#63b8ff" stroke="#63b8ff" points="344.37,-333.11 354.96,-333.45 346.89,-326.58 344.37,-333.11"/>
</a>
</g>
</g>
<!-- Node5 -->
<g id="Node000005" class="node">
<title>Node5</title>
<g id="a_Node000005"><a xlink:href="m__helper_8fpp_8f90.html#a61ed7167a8466d96b3403bf41febc469" target="_top" xlink:title=" ">
<polygon fill="white" stroke="#666666" points="443.5,-315.5 370.5,-315.5 370.5,-296.5 443.5,-296.5 443.5,-315.5"/>
<text text-anchor="middle" x="407" y="-303.5" font-family="Helvetica,sans-Serif" font-size="10.00">s_int_to_str</text>
</a>
</g>
</g>
<!-- Node2&#45;&gt;Node5 -->
<g id="edge4_Node000002_Node000005" class="edge">
<title>Node2&#45;&gt;Node5</title>
<g id="a_edge4_Node000002_Node000005"><a xlink:title=" ">
<path fill="none" stroke="#63b8ff" d="M262.55,-240.2C281.57,-252.56 309.79,-269.88 336,-282 344.91,-286.12 354.75,-289.92 364.15,-293.22"/>
<polygon fill="#63b8ff" stroke="#63b8ff" points="363.15,-296.58 373.75,-296.48 365.4,-289.95 363.15,-296.58"/>
</a>
</g>
</g>
<!-- Node6 -->
<g id="Node000006" class="node">
<title>Node6</title>
<g id="a_Node000006"><a xlink:href="m__mpi__common_8fpp_8f90.html#adbcc47e90968ff0f14ccc2ca3c47586a" target="_top" xlink:title="The subroutine terminates the MPI execution environment.">
<polygon fill="white" stroke="#666666" points="609.5,-153.5 532.5,-153.5 532.5,-134.5 609.5,-134.5 609.5,-153.5"/>
<text text-anchor="middle" x="571" y="-141.5" font-family="Helvetica,sans-Serif" font-size="10.00">s_mpi_abort</text>
</a>
</g>
</g>
<!-- Node2&#45;&gt;Node6 -->
<g id="edge5_Node000002_Node000006" class="edge">
<title>Node2&#45;&gt;Node6</title>
<g id="a_edge5_Node000002_Node000006"><a xlink:title=" ">
<path fill="none" stroke="#63b8ff" d="M299.9,-209.97C311.86,-206.98 324.32,-203.88 336,-201 400.48,-185.09 475.04,-166.98 522.33,-155.52"/>
<polygon fill="#63b8ff" stroke="#63b8ff" points="523.4,-158.87 532.29,-153.11 521.75,-152.06 523.4,-158.87"/>
</a>
</g>
</g>
<!-- Node7 -->
<g id="Node000007" class="node">
<title>Node7</title>
<g id="a_Node000007"><a xlink:href="m__mpi__common_8fpp_8f90.html#abf2b4ebce724f44c966c7f1b865ce619" target="_top" xlink:title="Halts all processes until all have reached barrier.">
<polygon fill="white" stroke="#666666" points="612.5,-274.5 529.5,-274.5 529.5,-255.5 612.5,-255.5 612.5,-274.5"/>
<text text-anchor="middle" x="571" y="-262.5" font-family="Helvetica,sans-Serif" font-size="10.00">s_mpi_barrier</text>
</a>
</g>
</g>
<!-- Node2&#45;&gt;Node7 -->
<g id="edge6_Node000002_Node000007" class="edge">
<title>Node2&#45;&gt;Node7</title>
<g id="a_edge6_Node000002_Node000007"><a xlink:title=" ">
<path fill="none" stroke="#63b8ff" d="M292.97,-240.02C306.87,-243.47 321.92,-246.78 336,-249 398.58,-258.88 471.52,-262.66 519.12,-264.11"/>
<polygon fill="#63b8ff" stroke="#63b8ff" points="519.08,-267.61 529.17,-264.39 519.28,-260.61 519.08,-267.61"/>
</a>
</g>
</g>
<!-- Node8 -->
<g id="Node000008" class="node">
<title>Node8</title>
<g id="a_Node000008"><a xlink:href="m__boundary__common_8fpp_8f90.html#a2ad576cc45b1391ba36cad21020f1139" target="_top" xlink:title=" ">
<polygon fill="white" stroke="#666666" points="478,-240 336,-240 336,-210 478,-210 478,-240"/>
<text text-anchor="start" x="344" y="-228" font-family="Helvetica,sans-Serif" font-size="10.00">s_read_parallel_boundary</text>
<text text-anchor="middle" x="407" y="-217" font-family="Helvetica,sans-Serif" font-size="10.00">_condition_files</text>
</a>
</g>
</g>
<!-- Node2&#45;&gt;Node8 -->
<g id="edge7_Node000002_Node000008" class="edge">
<title>Node2&#45;&gt;Node8</title>
<g id="a_edge7_Node000002_Node000008"><a xlink:title=" ">
<path fill="none" stroke="#63b8ff" d="M300.4,-225C308.57,-225 317.06,-225 325.51,-225"/>
<polygon fill="#63b8ff" stroke="#63b8ff" points="325.79,-228.5 335.79,-225 325.79,-221.5 325.79,-228.5"/>
</a>
</g>
</g>
<!-- Node8&#45;&gt;Node6 -->
<g id="edge9_Node000008_Node000006" class="edge">
<title>Node8&#45;&gt;Node6</title>
<g id="a_edge9_Node000008_Node000006"><a xlink:title=" ">
<path fill="none" stroke="#63b8ff" d="M446.89,-209.88C457.12,-205.63 468.07,-200.84 478,-196 501.56,-184.51 527.48,-169.65 545.78,-158.76"/>
<polygon fill="#63b8ff" stroke="#63b8ff" points="547.58,-161.76 554.36,-153.62 543.98,-155.76 547.58,-161.76"/>
</a>
</g>
</g>
<!-- Node8&#45;&gt;Node7 -->
<g id="edge10_Node000008_Node000007" class="edge">
<title>Node8&#45;&gt;Node7</title>
<g id="a_edge10_Node000008_Node000007"><a xlink:title=" ">
<path fill="none" stroke="#63b8ff" d="M468.78,-240.01C486.18,-244.3 504.91,-248.93 521.47,-253.02"/>
<polygon fill="#63b8ff" stroke="#63b8ff" points="520.92,-256.49 531.47,-255.49 522.6,-249.69 520.92,-256.49"/>
</a>
</g>
</g>
<!-- Node9 -->
<g id="Node000009" class="node">
<title>Node9</title>
<g id="a_Node000009"><a xlink:href="m__boundary__common_8fpp_8f90.html#a2a2935ab487f4c076cd0822fbd57fbce" target="_top" xlink:title=" ">
<polygon fill="white" stroke="#666666" points="628,-234.5 514,-234.5 514,-215.5 628,-215.5 628,-234.5"/>
<text text-anchor="middle" x="571" y="-222.5" font-family="Helvetica,sans-Serif" font-size="10.00">s_create_mpi_types</text>
</a>
</g>
</g>
<!-- Node8&#45;&gt;Node9 -->
<g id="edge8_Node000008_Node000009" class="edge">
<title>Node8&#45;&gt;Node9</title>
<g id="a_edge8_Node000008_Node000009"><a xlink:title=" ">
<path fill="none" stroke="#63b8ff" d="M478.11,-225C486.62,-225 495.3,-225 503.75,-225"/>
<polygon fill="#63b8ff" stroke="#63b8ff" points="503.93,-228.5 513.93,-225 503.93,-221.5 503.93,-228.5"/>
</a>
</g>
</g>
<!-- Node10&#45;&gt;Node3 -->
<g id="edge13_Node000010_Node000003" class="edge">
<title>Node10&#45;&gt;Node3</title>
<g id="a_edge13_Node000010_Node000003"><a xlink:title=" ">
<path fill="none" stroke="#63b8ff" d="M300.4,-119.83C318.15,-123.89 337.38,-128.29 354.52,-132.21"/>
<polygon fill="#63b8ff" stroke="#63b8ff" points="353.81,-135.64 364.33,-134.46 355.37,-128.82 353.81,-135.64"/>
</a>
</g>
</g>
<!-- Node10&#45;&gt;Node6 -->
<g id="edge14_Node000010_Node000006" class="edge">
<title>Node10&#45;&gt;Node6</title>
<g id="a_edge14_Node000010_Node000006"><a xlink:title=" ">
<path fill="none" stroke="#63b8ff" d="M300.36,-109.24C348.59,-112.27 417.84,-117.61 478,-126 492.4,-128.01 507.95,-130.81 522.09,-133.6"/>
<polygon fill="#63b8ff" stroke="#63b8ff" points="521.62,-137.07 532.11,-135.62 523,-130.21 521.62,-137.07"/>
</a>
</g>
</g>
<!-- Node11 -->
<g id="Node000011" class="node">
<title>Node11</title>
<g id="a_Node000011"><a xlink:href="namespacem__compile__specific.html#a9cf8c029e502931415929734c03f340d" target="_top" xlink:title="Inquires on the existence of a directory.">
<polygon fill="white" stroke="#666666" points="463.5,-78 350.5,-78 350.5,-48 463.5,-48 463.5,-78"/>
<text text-anchor="start" x="358.5" y="-66" font-family="Helvetica,sans-Serif" font-size="10.00">m_compile_specific</text>
<text text-anchor="middle" x="407" y="-55" font-family="Helvetica,sans-Serif" font-size="10.00">::my_inquire</text>
</a>
</g>
</g>
<!-- Node10&#45;&gt;Node11 -->
<g id="edge12_Node000010_Node000011" class="edge">
<title>Node10&#45;&gt;Node11</title>
<g id="a_edge12_Node000010_Node000011"><a xlink:title=" ">
<path fill="none" stroke="#63b8ff" d="M298.06,-90.96C311.75,-87.41 326.44,-83.61 340.44,-79.98"/>
<polygon fill="#63b8ff" stroke="#63b8ff" points="341.68,-83.28 350.49,-77.38 339.93,-76.5 341.68,-83.28"/>
</a>
</g>
</g>
<!-- Node12 -->
<g id="Node000012" class="node">
<title>Node12</title>
<g id="a_Node000012"><a xlink:href="m__boundary__common_8fpp_8f90.html#ad6ba3efd073151fc1f23a294c0328098" target="_top" xlink:title=" ">
<polygon fill="white" stroke="#666666" points="473,-30 341,-30 341,0 473,0 473,-30"/>
<text text-anchor="start" x="349" y="-18" font-family="Helvetica,sans-Serif" font-size="10.00">s_read_serial_boundary</text>
<text text-anchor="middle" x="407" y="-7" font-family="Helvetica,sans-Serif" font-size="10.00">_condition_files</text>
</a>
</g>
</g>
<!-- Node10&#45;&gt;Node12 -->
<g id="edge15_Node000010_Node000012" class="edge">
<title>Node10&#45;&gt;Node12</title>
<g id="a_edge15_Node000010_Node000012"><a xlink:title=" ">
<path fill="none" stroke="#63b8ff" d="M258.49,-90.73C277.13,-75.93 307.19,-53.63 336,-39 339.51,-37.22 343.18,-35.52 346.92,-33.91"/>
<polygon fill="#63b8ff" stroke="#63b8ff" points="348.38,-37.1 356.33,-30.09 345.75,-30.61 348.38,-37.1"/>
</a>
</g>
</g>
<!-- Node12&#45;&gt;Node6 -->
<g id="edge16_Node000012_Node000006" class="edge">
<title>Node12&#45;&gt;Node6</title>
<g id="a_edge16_Node000012_Node000006"><a xlink:title=" ">
<path fill="none" stroke="#63b8ff" d="M461.76,-30.14C467.45,-32.7 472.99,-35.64 478,-39 513.03,-62.49 542.95,-102.57 558.52,-125.82"/>
<polygon fill="#63b8ff" stroke="#63b8ff" points="555.71,-127.93 564.11,-134.39 561.57,-124.1 555.71,-127.93"/>
</a>
</g>
</g>
</g>
</svg>
