<?xml version="1.0" encoding="UTF-8" standalone="no"?>
<!DOCTYPE svg PUBLIC "-//W3C//DTD SVG 1.1//EN"
 "http://www.w3.org/Graphics/SVG/1.1/DTD/svg11.dtd">
<!-- Generated by graphviz version 2.43.0 (0)
 -->
<!-- Title: m_helper_basic::f_approx_equal Pages: 1 -->
<svg width="591pt" height="230pt"
 viewBox="0.00 0.00 591.00 230.00" xmlns="http://www.w3.org/2000/svg" xmlns:xlink="http://www.w3.org/1999/xlink">
<g id="graph0" class="graph" transform="scale(1 1) rotate(0) translate(4 226)">
<title>m_helper_basic::f_approx_equal</title>
<!-- Node1 -->
<g id="Node000001" class="node">
<title>Node1</title>
<g id="a_Node000001"><a xlink:title="Check if two floating point numbers of wp are within tolerance.">
<polygon fill="#999999" stroke="#666666" points="583,-126 441,-126 441,-96 583,-96 583,-126"/>
<text text-anchor="start" x="449" y="-114" font-family="Helvetica,sans-Serif" font-size="10.00">m_helper_basic::f_approx</text>
<text text-anchor="middle" x="512" y="-103" font-family="Helvetica,sans-Serif" font-size="10.00">_equal</text>
</a>
</g>
</g>
<!-- Node2 -->
<g id="Node000002" class="node">
<title>Node2</title>
<g id="a_Node000002"><a xlink:href="namespacem__helper__basic.html#a388ce5b49cbc696a303c4b90bc391dce" target="_top" xlink:title="Check if a wp value approximately matches any element of an array within tolerance.">
<polygon fill="white" stroke="#666666" points="405,-222 263,-222 263,-192 405,-192 405,-222"/>
<text text-anchor="start" x="271" y="-210" font-family="Helvetica,sans-Serif" font-size="10.00">m_helper_basic::f_approx</text>
<text text-anchor="middle" x="334" y="-199" font-family="Helvetica,sans-Serif" font-size="10.00">_in_array</text>
</a>
</g>
</g>
<!-- Node1&#45;&gt;Node2 -->
<g id="edge1_Node000001_Node000002" class="edge">
<title>Node1&#45;&gt;Node2</title>
<g id="a_edge1_Node000001_Node000002"><a xlink:title=" ">
<path fill="none" stroke="#63b8ff" d="M484.02,-132.3C463.31,-147.9 433.51,-168.75 405,-183 398.45,-186.27 391.35,-189.28 384.26,-191.97"/>
<polygon fill="#63b8ff" stroke="#63b8ff" points="486.21,-135.03 492.04,-126.18 481.97,-129.47 486.21,-135.03"/>
</a>
</g>
</g>
<!-- Node3 -->
<g id="Node000003" class="node">
<title>Node3</title>
<g id="a_Node000003"><a xlink:href="namespacem__helper__basic.html#af1b06a05daa43f724ac3b0ff2f97db14" target="_top" xlink:title="Check if a real(wp) variable is of default value.">
<polygon fill="white" stroke="#666666" points="392,-174 276,-174 276,-144 392,-144 392,-174"/>
<text text-anchor="start" x="284" y="-162" font-family="Helvetica,sans-Serif" font-size="10.00">m_helper_basic::f_is</text>
<text text-anchor="middle" x="334" y="-151" font-family="Helvetica,sans-Serif" font-size="10.00">_default</text>
</a>
</g>
</g>
<!-- Node1&#45;&gt;Node3 -->
<g id="edge2_Node000001_Node000003" class="edge">
<title>Node1&#45;&gt;Node3</title>
<g id="a_edge2_Node000001_Node000003"><a xlink:title=" ">
<path fill="none" stroke="#63b8ff" d="M446.03,-128.72C427.62,-133.74 407.77,-139.15 390.01,-144"/>
<polygon fill="#63b8ff" stroke="#63b8ff" points="447.07,-132.06 455.8,-126.06 445.23,-125.31 447.07,-132.06"/>
</a>
</g>
</g>
<!-- Node5 -->
<g id="Node000005" class="node">
<title>Node5</title>
<g id="a_Node000005"><a xlink:href="namespacem__patch__geometries.html#afeec9dce9eb3814e5a76863a1f29aefe" target="_top" xlink:title="Check if the x, y, are bounded by a NACA airfoil. Check if the z coordinate is inside the left and ri...">
<polygon fill="white" stroke="#666666" points="393.5,-126 274.5,-126 274.5,-96 393.5,-96 393.5,-126"/>
<text text-anchor="start" x="282.5" y="-114" font-family="Helvetica,sans-Serif" font-size="10.00">m_patch_geometries</text>
<text text-anchor="middle" x="334" y="-103" font-family="Helvetica,sans-Serif" font-size="10.00">::f_is_inside_airfoil</text>
</a>
</g>
</g>
<!-- Node1&#45;&gt;Node5 -->
<g id="edge4_Node000001_Node000005" class="edge">
<title>Node1&#45;&gt;Node5</title>
<g id="a_edge4_Node000001_Node000005"><a xlink:title=" ">
<path fill="none" stroke="#63b8ff" d="M430.9,-111C418.3,-111 405.49,-111 393.5,-111"/>
<polygon fill="#63b8ff" stroke="#63b8ff" points="430.93,-114.5 440.93,-111 430.93,-107.5 430.93,-114.5"/>
</a>
</g>
</g>
<!-- Node6 -->
<g id="Node000006" class="node">
<title>Node6</title>
<g id="a_Node000006"><a xlink:href="namespacem__helper__basic.html#a2c677da1905f9b1c52e69ae431bfb70d" target="_top" xlink:title="Check if a real(wp) variable is an integer.">
<polygon fill="white" stroke="#666666" points="392,-78 276,-78 276,-48 392,-48 392,-78"/>
<text text-anchor="start" x="284" y="-66" font-family="Helvetica,sans-Serif" font-size="10.00">m_helper_basic::f_is</text>
<text text-anchor="middle" x="334" y="-55" font-family="Helvetica,sans-Serif" font-size="10.00">_integer</text>
</a>
</g>
</g>
<!-- Node1&#45;&gt;Node6 -->
<g id="edge5_Node000001_Node000006" class="edge">
<title>Node1&#45;&gt;Node6</title>
<g id="a_edge5_Node000001_Node000006"><a xlink:title=" ">
<path fill="none" stroke="#63b8ff" d="M446.03,-93.28C427.62,-88.26 407.77,-82.85 390.01,-78"/>
<polygon fill="#63b8ff" stroke="#63b8ff" points="445.23,-96.69 455.8,-95.94 447.07,-89.94 445.23,-96.69"/>
</a>
</g>
</g>
<!-- Node7 -->
<g id="Node000007" class="node">
<title>Node7</title>
<g id="a_Node000007"><a xlink:href="namespacem__derived__variables.html#ac85e77b0312f21389eb166960446f6ec" target="_top" xlink:title="Derive the flux limiter at cell boundary i+1/2. This is an approximation because the velocity used to...">
<polygon fill="white" stroke="#666666" points="396.5,-30 271.5,-30 271.5,0 396.5,0 396.5,-30"/>
<text text-anchor="start" x="279.5" y="-18" font-family="Helvetica,sans-Serif" font-size="10.00">m_derived_variables</text>
<text text-anchor="middle" x="334" y="-7" font-family="Helvetica,sans-Serif" font-size="10.00">::s_derive_flux_limiter</text>
</a>
</g>
</g>
<!-- Node1&#45;&gt;Node7 -->
<g id="edge6_Node000001_Node000007" class="edge">
<title>Node1&#45;&gt;Node7</title>
<g id="a_edge6_Node000001_Node000007"><a xlink:title=" ">
<path fill="none" stroke="#63b8ff" d="M484.02,-89.7C463.31,-74.1 433.51,-53.25 405,-39 398.45,-35.73 391.35,-32.72 384.26,-30.03"/>
<polygon fill="#63b8ff" stroke="#63b8ff" points="481.97,-92.53 492.04,-95.82 486.21,-86.97 481.97,-92.53"/>
</a>
</g>
</g>
<!-- Node4 -->
<g id="Node000004" class="node">
<title>Node4</title>
<g id="a_Node000004"><a xlink:href="namespacem__helper__basic.html#a2a51671bfbfddf6ecabbc9593be49e1d" target="_top" xlink:title="Check if ALL elements of a real(wp) array are of default value.">
<polygon fill="white" stroke="#666666" points="218,-174 98,-174 98,-144 218,-144 218,-174"/>
<text text-anchor="start" x="106" y="-162" font-family="Helvetica,sans-Serif" font-size="10.00">m_helper_basic::f_all</text>
<text text-anchor="middle" x="158" y="-151" font-family="Helvetica,sans-Serif" font-size="10.00">_default</text>
</a>
</g>
</g>
<!-- Node3&#45;&gt;Node4 -->
<g id="edge3_Node000003_Node000004" class="edge">
<title>Node3&#45;&gt;Node4</title>
<g id="a_edge3_Node000003_Node000004"><a xlink:title=" ">
<path fill="none" stroke="#63b8ff" d="M265.45,-159C249.86,-159 233.39,-159 218.18,-159"/>
<polygon fill="#63b8ff" stroke="#63b8ff" points="265.54,-162.5 275.54,-159 265.54,-155.5 265.54,-162.5"/>
</a>
</g>
</g>
<!-- Node8 -->
<g id="Node000008" class="node">
<title>Node8</title>
<g id="a_Node000008"><a xlink:href="namespacem__start__up.html#a029c0f28f15ce3aab7ada6d95db89688" target="_top" xlink:title="Derive requested flow quantities from primitive variables and write them to the formatted database fi...">
<polygon fill="white" stroke="#666666" points="227,-24.5 89,-24.5 89,-5.5 227,-5.5 227,-24.5"/>
<text text-anchor="middle" x="158" y="-12.5" font-family="Helvetica,sans-Serif" font-size="10.00">m_start_up::s_save_data</text>
</a>
</g>
</g>
<!-- Node7&#45;&gt;Node8 -->
<g id="edge7_Node000007_Node000008" class="edge">
<title>Node7&#45;&gt;Node8</title>
<g id="a_edge7_Node000007_Node000008"><a xlink:title=" ">
<path fill="none" stroke="#63b8ff" d="M261,-15C249.8,-15 238.25,-15 227.14,-15"/>
<polygon fill="#63b8ff" stroke="#63b8ff" points="261.16,-18.5 271.16,-15 261.16,-11.5 261.16,-18.5"/>
</a>
</g>
</g>
<!-- Node9 -->
<g id="Node000009" class="node">
<title>Node9</title>
<g id="a_Node000009"><a xlink:href="p__main_8fpp_8f90.html#aeec10ee8e2940c953967da3e374e1579" target="_top" xlink:title="Post&#45;process raw simulation data into formatted database files (Silo&#45;HDF5 or Binary).">
<polygon fill="white" stroke="#666666" points="53,-24.5 0,-24.5 0,-5.5 53,-5.5 53,-24.5"/>
<text text-anchor="middle" x="26.5" y="-12.5" font-family="Helvetica,sans-Serif" font-size="10.00">p_main</text>
</a>
</g>
</g>
<!-- Node8&#45;&gt;Node9 -->
<g id="edge8_Node000008_Node000009" class="edge">
<title>Node8&#45;&gt;Node9</title>
<g id="a_edge8_Node000008_Node000009"><a xlink:title=" ">
<path fill="none" stroke="#63b8ff" d="M78.81,-15C69.67,-15 60.91,-15 53.29,-15"/>
<polygon fill="#63b8ff" stroke="#63b8ff" points="78.84,-18.5 88.84,-15 78.84,-11.5 78.84,-18.5"/>
</a>
</g>
</g>
</g>
</svg>
