<?xml version="1.0" encoding="UTF-8" standalone="no"?>
<!DOCTYPE svg PUBLIC "-//W3C//DTD SVG 1.1//EN"
 "http://www.w3.org/Graphics/SVG/1.1/DTD/svg11.dtd">
<!-- Generated by graphviz version 2.40.1 (20161225.0304)
 -->
<!-- Title: m_derived_variables::s_compute_finite_difference_coefficients Pages: 1 -->
<svg width="175pt" height="44pt"
 viewBox="0.00 0.00 175.00 44.00" xmlns="http://www.w3.org/2000/svg" xmlns:xlink="http://www.w3.org/1999/xlink">
<g id="graph0" class="graph" transform="scale(1 1) rotate(0) translate(4 40)">
<title>m_derived_variables::s_compute_finite_difference_coefficients</title>
<polygon fill="#ffffff" stroke="transparent" points="-4,4 -4,-40 171,-40 171,4 -4,4"/>
<!-- Node1 -->
<g id="node1" class="node">
<title>Node1</title>
<polygon fill="#bfbfbf" stroke="#000000" points="0,-.5 0,-35.5 95,-35.5 95,-.5 0,-.5"/>
<text text-anchor="start" x="8" y="-25.1" font-family="Helvetica,sans-Serif" font-size="8.00" fill="#000000">m_derived_variables</text>
<text text-anchor="start" x="8" y="-16.1" font-family="Helvetica,sans-Serif" font-size="8.00" fill="#000000">::s_compute_finite_difference</text>
<text text-anchor="middle" x="47.5" y="-7.1" font-family="Helvetica,sans-Serif" font-size="8.00" fill="#000000">_coefficients</text>
</g>
<!-- Node2 -->
<g id="node2" class="node">
<title>Node2</title>
<g id="a_node2"><a xlink:href="p__main_8f90.html#aeec10ee8e2940c953967da3e374e1579" target="_top" xlink:title="The post&#45;process restructures raw unformatted data, outputted by the simulation, into a formatted dat...">
<polygon fill="#ffffff" stroke="#000000" points="131,-9.5 131,-26.5 167,-26.5 167,-9.5 131,-9.5"/>
<text text-anchor="middle" x="149" y="-16.1" font-family="Helvetica,sans-Serif" font-size="8.00" fill="#000000">p_main</text>
</a>
</g>
</g>
<!-- Node1&#45;&gt;Node2 -->
<g id="edge1" class="edge">
<title>Node1&#45;&gt;Node2</title>
<path fill="none" stroke="#191970" d="M105.561,-18C114.6057,-18 123.3339,-18 130.5639,-18"/>
<polygon fill="#191970" stroke="#191970" points="105.2779,-14.5001 95.2779,-18 105.2778,-21.5001 105.2779,-14.5001"/>
</g>
</g>
</svg>
