<?xml version="1.0" encoding="UTF-8" standalone="no"?>
<!DOCTYPE svg PUBLIC "-//W3C//DTD SVG 1.1//EN"
 "http://www.w3.org/Graphics/SVG/1.1/DTD/svg11.dtd">
<!-- Generated by graphviz version 2.43.0 (0)
 -->
<!-- Title: m_start_up::s_check_input_file Pages: 1 -->
<svg width="863pt" height="1071pt"
 viewBox="0.00 0.00 863.00 1070.96" xmlns="http://www.w3.org/2000/svg" xmlns:xlink="http://www.w3.org/1999/xlink">
<g id="graph0" class="graph" transform="scale(1 1) rotate(0) translate(4 1066.96)">
<title>m_start_up::s_check_input_file</title>
<!-- Node1 -->
<g id="Node000001" class="node">
<title>Node1</title>
<g id="a_Node000001"><a xlink:title="Checking that the user inputs make sense, i.e. that the individual choices are compatible with the co...">
<polygon fill="#999999" stroke="#666666" points="116,-606.96 0,-606.96 0,-576.96 116,-576.96 116,-606.96"/>
<text text-anchor="start" x="8" y="-594.96" font-family="Helvetica,sans-Serif" font-size="10.00">m_start_up::s_check</text>
<text text-anchor="middle" x="58" y="-583.96" font-family="Helvetica,sans-Serif" font-size="10.00">_input_file</text>
</a>
</g>
</g>
<!-- Node2 -->
<g id="Node000002" class="node">
<title>Node2</title>
<g id="a_Node000002"><a xlink:href="namespacem__compile__specific.html#aa7f14da74305c1d061ce326b16a3263e" target="_top" xlink:title="Inquires on the existence of a directory.">
<polygon fill="white" stroke="#666666" points="278,-833.96 165,-833.96 165,-803.96 278,-803.96 278,-833.96"/>
<text text-anchor="start" x="173" y="-821.96" font-family="Helvetica,sans-Serif" font-size="10.00">m_compile_specific</text>
<text text-anchor="middle" x="221.5" y="-810.96" font-family="Helvetica,sans-Serif" font-size="10.00">::my_inquire</text>
</a>
</g>
</g>
<!-- Node1&#45;&gt;Node2 -->
<g id="edge1_Node000001_Node000002" class="edge">
<title>Node1&#45;&gt;Node2</title>
<g id="a_edge1_Node000001_Node000002"><a xlink:title=" ">
<path fill="none" stroke="#63b8ff" d="M61.72,-607.09C69.2,-644.41 93.55,-741.69 152,-794.96 153.31,-796.16 154.69,-797.29 156.12,-798.37"/>
<polygon fill="#63b8ff" stroke="#63b8ff" points="154.49,-801.49 164.79,-803.97 158.29,-795.61 154.49,-801.49"/>
</a>
</g>
</g>
<!-- Node3 -->
<g id="Node000003" class="node">
<title>Node3</title>
<g id="a_Node000003"><a xlink:href="m__checker_8fpp_8f90.html#a66c49f3c83092720b368c30c6048538a" target="_top" xlink:title="Checks compatibility of parameters in the input file. Used by the post_process stage.">
<polygon fill="white" stroke="#666666" points="267,-785.46 176,-785.46 176,-766.46 267,-766.46 267,-785.46"/>
<text text-anchor="middle" x="221.5" y="-773.46" font-family="Helvetica,sans-Serif" font-size="10.00">s_check_inputs</text>
</a>
</g>
</g>
<!-- Node1&#45;&gt;Node3 -->
<g id="edge2_Node000001_Node000003" class="edge">
<title>Node1&#45;&gt;Node3</title>
<g id="a_edge2_Node000001_Node000003"><a xlink:title=" ">
<path fill="none" stroke="#63b8ff" d="M72.22,-607.02C101.93,-640.87 173.85,-722.81 205.32,-758.67"/>
<polygon fill="#63b8ff" stroke="#63b8ff" points="202.84,-761.15 212.07,-766.36 208.1,-756.53 202.84,-761.15"/>
</a>
</g>
</g>
<!-- Node6 -->
<g id="Node000006" class="node">
<title>Node6</title>
<g id="a_Node000006"><a xlink:href="m__mpi__common_8fpp_8f90.html#ad9e1329e498b65ad4256658675d6f797" target="_top" xlink:title="The subroutine terminates the MPI execution environment.">
<polygon fill="white" stroke="#666666" points="822.5,-75.46 745.5,-75.46 745.5,-56.46 822.5,-56.46 822.5,-75.46"/>
<text text-anchor="middle" x="784" y="-63.46" font-family="Helvetica,sans-Serif" font-size="10.00">s_mpi_abort</text>
</a>
</g>
</g>
<!-- Node1&#45;&gt;Node6 -->
<g id="edge65_Node000001_Node000006" class="edge">
<title>Node1&#45;&gt;Node6</title>
<g id="a_edge65_Node000001_Node000006"><a xlink:title=" ">
<path fill="none" stroke="#63b8ff" d="M60.69,-576.76C69.99,-501.57 122.13,-168.09 327,-41.96 464.25,42.54 671.1,-22.31 750.44,-52.59"/>
<polygon fill="#63b8ff" stroke="#63b8ff" points="749.31,-55.9 759.9,-56.27 751.85,-49.38 749.31,-55.9"/>
</a>
</g>
</g>
<!-- Node18 -->
<g id="Node000018" class="node">
<title>Node18</title>
<g id="a_Node000018"><a xlink:href="m__checker__common_8fpp_8f90.html#ac1305563044bff409bb307d98e1dfe13" target="_top" xlink:title="Checks compatibility of parameters in the input file. Used by all three stages.">
<polygon fill="white" stroke="#666666" points="291,-417.46 152,-417.46 152,-398.46 291,-398.46 291,-417.46"/>
<text text-anchor="middle" x="221.5" y="-405.46" font-family="Helvetica,sans-Serif" font-size="10.00">s_check_inputs_common</text>
</a>
</g>
</g>
<!-- Node1&#45;&gt;Node18 -->
<g id="edge27_Node000001_Node000018" class="edge">
<title>Node1&#45;&gt;Node18</title>
<g id="a_edge27_Node000001_Node000018"><a xlink:title=" ">
<path fill="none" stroke="#63b8ff" d="M72.22,-576.9C101.93,-543.05 173.85,-461.11 205.32,-425.25"/>
<polygon fill="#63b8ff" stroke="#63b8ff" points="208.1,-427.39 212.07,-417.56 202.84,-422.77 208.1,-427.39"/>
</a>
</g>
</g>
<!-- Node4 -->
<g id="Node000004" class="node">
<title>Node4</title>
<g id="a_Node000004"><a xlink:href="m__checker_8fpp_8f90.html#a7c0748d319352ea5148ec7cbd1ce843c" target="_top" xlink:title="Checks constraints on flux limiter parameters.">
<polygon fill="white" stroke="#666666" points="466.5,-966.96 352.5,-966.96 352.5,-936.96 466.5,-936.96 466.5,-966.96"/>
<text text-anchor="start" x="360.5" y="-954.96" font-family="Helvetica,sans-Serif" font-size="10.00">s_check_inputs_flux</text>
<text text-anchor="middle" x="409.5" y="-943.96" font-family="Helvetica,sans-Serif" font-size="10.00">_limiter</text>
</a>
</g>
</g>
<!-- Node3&#45;&gt;Node4 -->
<g id="edge3_Node000003_Node000004" class="edge">
<title>Node3&#45;&gt;Node4</title>
<g id="a_edge3_Node000003_Node000004"><a xlink:title=" ">
<path fill="none" stroke="#63b8ff" d="M267.02,-781.18C275.89,-784.04 284.48,-788.39 291,-794.96 334.17,-838.4 284.18,-884.18 327,-927.96 331.54,-932.59 336.92,-936.35 342.72,-939.38"/>
<polygon fill="#63b8ff" stroke="#63b8ff" points="341.57,-942.7 352.13,-943.58 344.42,-936.31 341.57,-942.7"/>
</a>
</g>
</g>
<!-- Node7 -->
<g id="Node000007" class="node">
<title>Node7</title>
<g id="a_Node000007"><a xlink:href="m__checker_8fpp_8f90.html#a253b17be6608760baeaa0c5295fac290" target="_top" xlink:title="Checks constraints on the absence of flow variables.">
<polygon fill="white" stroke="#666666" points="476.5,-918.96 342.5,-918.96 342.5,-888.96 476.5,-888.96 476.5,-918.96"/>
<text text-anchor="start" x="350.5" y="-906.96" font-family="Helvetica,sans-Serif" font-size="10.00">s_check_inputs_no_flow</text>
<text text-anchor="middle" x="409.5" y="-895.96" font-family="Helvetica,sans-Serif" font-size="10.00">_variables</text>
</a>
</g>
</g>
<!-- Node3&#45;&gt;Node7 -->
<g id="edge6_Node000003_Node000007" class="edge">
<title>Node3&#45;&gt;Node7</title>
<g id="a_edge6_Node000003_Node000007"><a xlink:title=" ">
<path fill="none" stroke="#63b8ff" d="M267.09,-782.09C275.75,-784.92 284.23,-789.02 291,-794.96 321.83,-822.02 296.38,-852.65 327,-879.96 328.97,-881.72 331.07,-883.35 333.27,-884.86"/>
<polygon fill="#63b8ff" stroke="#63b8ff" points="331.76,-888.04 342.15,-890.13 335.33,-882.02 331.76,-888.04"/>
</a>
</g>
</g>
<!-- Node8 -->
<g id="Node000008" class="node">
<title>Node8</title>
<g id="a_Node000008"><a xlink:href="m__checker_8fpp_8f90.html#a159e06772170bed7ea4e20308d3cab94" target="_top" xlink:title="Checks constraints on output format parameters.">
<polygon fill="white" stroke="#666666" points="473.5,-870.96 345.5,-870.96 345.5,-840.96 473.5,-840.96 473.5,-870.96"/>
<text text-anchor="start" x="353.5" y="-858.96" font-family="Helvetica,sans-Serif" font-size="10.00">s_check_inputs_output</text>
<text text-anchor="middle" x="409.5" y="-847.96" font-family="Helvetica,sans-Serif" font-size="10.00">_format</text>
</a>
</g>
</g>
<!-- Node3&#45;&gt;Node8 -->
<g id="edge8_Node000003_Node000008" class="edge">
<title>Node3&#45;&gt;Node8</title>
<g id="a_edge8_Node000003_Node000008"><a xlink:title=" ">
<path fill="none" stroke="#63b8ff" d="M267.03,-784.61C275.32,-787.24 283.67,-790.62 291,-794.96 310.74,-806.65 307.35,-820.11 327,-831.96 329.84,-833.67 332.81,-835.27 335.87,-836.76"/>
<polygon fill="#63b8ff" stroke="#63b8ff" points="334.69,-840.07 345.25,-840.91 337.52,-833.66 334.69,-840.07"/>
</a>
</g>
</g>
<!-- Node9 -->
<g id="Node000009" class="node">
<title>Node9</title>
<g id="a_Node000009"><a xlink:href="m__checker_8fpp_8f90.html#a6611707a32d12b55a2ba0f73b0509633" target="_top" xlink:title="Checks constraints on partial density parameters.">
<polygon fill="white" stroke="#666666" points="473.5,-1062.96 345.5,-1062.96 345.5,-1032.96 473.5,-1032.96 473.5,-1062.96"/>
<text text-anchor="start" x="353.5" y="-1050.96" font-family="Helvetica,sans-Serif" font-size="10.00">s_check_inputs_partial</text>
<text text-anchor="middle" x="409.5" y="-1039.96" font-family="Helvetica,sans-Serif" font-size="10.00">_density</text>
</a>
</g>
</g>
<!-- Node3&#45;&gt;Node9 -->
<g id="edge10_Node000003_Node000009" class="edge">
<title>Node3&#45;&gt;Node9</title>
<g id="a_edge10_Node000003_Node000009"><a xlink:title=" ">
<path fill="none" stroke="#63b8ff" d="M267.22,-780.55C276.19,-783.44 284.76,-787.96 291,-794.96 359.56,-871.86 259.05,-946.51 327,-1023.96 329.85,-1027.2 333.1,-1030.02 336.65,-1032.46"/>
<polygon fill="#63b8ff" stroke="#63b8ff" points="334.95,-1035.52 345.36,-1037.51 338.46,-1029.47 334.95,-1035.52"/>
</a>
</g>
</g>
<!-- Node11 -->
<g id="Node000011" class="node">
<title>Node11</title>
<g id="a_Node000011"><a xlink:href="m__checker_8fpp_8f90.html#ab3480edd4ad9ffddc2a10a43d2cc7263" target="_top" xlink:title="Checks constraints on numerical Schlieren parameters (schlieren_wrt and schlieren_alpha)">
<polygon fill="white" stroke="#666666" points="479.5,-785.46 339.5,-785.46 339.5,-766.46 479.5,-766.46 479.5,-785.46"/>
<text text-anchor="middle" x="409.5" y="-773.46" font-family="Helvetica,sans-Serif" font-size="10.00">s_check_inputs_schlieren</text>
</a>
</g>
</g>
<!-- Node3&#45;&gt;Node11 -->
<g id="edge13_Node000003_Node000011" class="edge">
<title>Node3&#45;&gt;Node11</title>
<g id="a_edge13_Node000003_Node000011"><a xlink:title=" ">
<path fill="none" stroke="#63b8ff" d="M267.05,-775.96C285.7,-775.96 307.96,-775.96 329.23,-775.96"/>
<polygon fill="#63b8ff" stroke="#63b8ff" points="329.25,-779.46 339.25,-775.96 329.25,-772.46 329.25,-779.46"/>
</a>
</g>
</g>
<!-- Node14 -->
<g id="Node000014" class="node">
<title>Node14</title>
<g id="a_Node000014"><a xlink:href="m__checker_8fpp_8f90.html#af3b1dbbf0c45f4ee1f2afa417a617788" target="_top" xlink:title="Checks constraints on surface tension parameters (cf_wrt and sigma)">
<polygon fill="white" stroke="#666666" points="475.5,-673.96 343.5,-673.96 343.5,-643.96 475.5,-643.96 475.5,-673.96"/>
<text text-anchor="start" x="351.5" y="-661.96" font-family="Helvetica,sans-Serif" font-size="10.00">s_check_inputs_surface</text>
<text text-anchor="middle" x="409.5" y="-650.96" font-family="Helvetica,sans-Serif" font-size="10.00">_tension</text>
</a>
</g>
</g>
<!-- Node3&#45;&gt;Node14 -->
<g id="edge18_Node000003_Node000014" class="edge">
<title>Node3&#45;&gt;Node14</title>
<g id="a_edge18_Node000003_Node000014"><a xlink:title=" ">
<path fill="none" stroke="#63b8ff" d="M230.72,-766.41C247.16,-747.88 286.07,-706.84 327,-683.96 330.96,-681.75 335.14,-679.7 339.43,-677.83"/>
<polygon fill="#63b8ff" stroke="#63b8ff" points="340.99,-680.97 348.95,-673.97 338.37,-674.48 340.99,-680.97"/>
</a>
</g>
</g>
<!-- Node15 -->
<g id="Node000015" class="node">
<title>Node15</title>
<g id="a_Node000015"><a xlink:href="m__checker_8fpp_8f90.html#ab34042a7c20cb888b048e50b751b1024" target="_top" xlink:title="Checks constraints on velocity parameters.">
<polygon fill="white" stroke="#666666" points="477,-748.46 342,-748.46 342,-729.46 477,-729.46 477,-748.46"/>
<text text-anchor="middle" x="409.5" y="-736.46" font-family="Helvetica,sans-Serif" font-size="10.00">s_check_inputs_velocity</text>
</a>
</g>
</g>
<!-- Node3&#45;&gt;Node15 -->
<g id="edge20_Node000003_Node000015" class="edge">
<title>Node3&#45;&gt;Node15</title>
<g id="a_edge20_Node000003_Node000015"><a xlink:title=" ">
<path fill="none" stroke="#63b8ff" d="M267.05,-767.1C292.12,-762.11 323.69,-755.83 350.65,-750.47"/>
<polygon fill="#63b8ff" stroke="#63b8ff" points="351.61,-753.84 360.73,-748.46 350.24,-746.98 351.61,-753.84"/>
</a>
</g>
</g>
<!-- Node16 -->
<g id="Node000016" class="node">
<title>Node16</title>
<g id="a_Node000016"><a xlink:href="m__checker_8fpp_8f90.html#a9be22473b0747571bcebf9f0b934adc2" target="_top" xlink:title="Checks constraints on volume fraction parameters.">
<polygon fill="white" stroke="#666666" points="476,-1014.96 343,-1014.96 343,-984.96 476,-984.96 476,-1014.96"/>
<text text-anchor="start" x="351" y="-1002.96" font-family="Helvetica,sans-Serif" font-size="10.00">s_check_inputs_volume</text>
<text text-anchor="middle" x="409.5" y="-991.96" font-family="Helvetica,sans-Serif" font-size="10.00">_fraction</text>
</a>
</g>
</g>
<!-- Node3&#45;&gt;Node16 -->
<g id="edge22_Node000003_Node000016" class="edge">
<title>Node3&#45;&gt;Node16</title>
<g id="a_edge22_Node000003_Node000016"><a xlink:title=" ">
<path fill="none" stroke="#63b8ff" d="M267.01,-780.73C275.99,-783.62 284.62,-788.08 291,-794.96 346.8,-855.07 271.67,-915.41 327,-975.96 329.1,-978.26 331.41,-980.34 333.87,-982.22"/>
<polygon fill="#63b8ff" stroke="#63b8ff" points="332.48,-985.49 342.79,-987.91 336.24,-979.58 332.48,-985.49"/>
</a>
</g>
</g>
<!-- Node17 -->
<g id="Node000017" class="node">
<title>Node17</title>
<g id="a_Node000017"><a xlink:href="m__checker_8fpp_8f90.html#a0b31e02f6cb29ec1091cd4dc212f20b1" target="_top" xlink:title="Checks constraints on vorticity parameters.">
<polygon fill="white" stroke="#666666" points="478,-711.46 341,-711.46 341,-692.46 478,-692.46 478,-711.46"/>
<text text-anchor="middle" x="409.5" y="-699.46" font-family="Helvetica,sans-Serif" font-size="10.00">s_check_inputs_vorticity</text>
</a>
</g>
</g>
<!-- Node3&#45;&gt;Node17 -->
<g id="edge25_Node000003_Node000017" class="edge">
<title>Node3&#45;&gt;Node17</title>
<g id="a_edge25_Node000003_Node000017"><a xlink:title=" ">
<path fill="none" stroke="#63b8ff" d="M237.85,-766.27C257.73,-754.11 293.77,-733.35 327,-720.96 333.83,-718.41 341.12,-716.13 348.42,-714.12"/>
<polygon fill="#63b8ff" stroke="#63b8ff" points="349.55,-717.44 358.34,-711.53 347.78,-710.67 349.55,-717.44"/>
</a>
</g>
</g>
<!-- Node5 -->
<g id="Node000005" class="node">
<title>Node5</title>
<g id="a_Node000005"><a xlink:href="m__helper_8fpp_8f90.html#aaf652be9ac041c3a38652bb42475f83f" target="_top" xlink:title=" ">
<polygon fill="white" stroke="#666666" points="650,-558.46 555,-558.46 555,-539.46 650,-539.46 650,-558.46"/>
<text text-anchor="middle" x="602.5" y="-546.46" font-family="Helvetica,sans-Serif" font-size="10.00">s_prohibit_abort</text>
</a>
</g>
</g>
<!-- Node4&#45;&gt;Node5 -->
<g id="edge4_Node000004_Node000005" class="edge">
<title>Node4&#45;&gt;Node5</title>
<g id="a_edge4_Node000004_Node000005"><a xlink:title=" ">
<path fill="none" stroke="#63b8ff" d="M466.87,-943.58C476.21,-940.03 485.09,-935.02 492,-927.96 534.82,-884.18 511.23,-853.86 528,-794.96 552.09,-710.35 582.72,-609.99 595.49,-568.45"/>
<polygon fill="#63b8ff" stroke="#63b8ff" points="598.87,-569.36 598.47,-558.77 592.18,-567.3 598.87,-569.36"/>
</a>
</g>
</g>
<!-- Node5&#45;&gt;Node6 -->
<g id="edge5_Node000005_Node000006" class="edge">
<title>Node5&#45;&gt;Node6</title>
<g id="a_edge5_Node000005_Node000006"><a xlink:title=" ">
<path fill="none" stroke="#63b8ff" d="M605.18,-539.22C613.04,-495.06 648.51,-309.75 713,-170.96 728.36,-137.9 753.32,-103.46 768.92,-83.4"/>
<polygon fill="#63b8ff" stroke="#63b8ff" points="771.71,-85.51 775.16,-75.49 766.22,-81.17 771.71,-85.51"/>
</a>
</g>
</g>
<!-- Node7&#45;&gt;Node5 -->
<g id="edge7_Node000007_Node000005" class="edge">
<title>Node7&#45;&gt;Node5</title>
<g id="a_edge7_Node000007_Node000005"><a xlink:title=" ">
<path fill="none" stroke="#63b8ff" d="M476.8,-890.71C482.36,-887.81 487.55,-884.27 492,-879.96 503.85,-868.5 574.82,-636.85 595.72,-568.06"/>
<polygon fill="#63b8ff" stroke="#63b8ff" points="599.07,-569.06 598.62,-558.48 592.37,-567.03 599.07,-569.06"/>
</a>
</g>
</g>
<!-- Node8&#45;&gt;Node5 -->
<g id="edge9_Node000008_Node000005" class="edge">
<title>Node8&#45;&gt;Node5</title>
<g id="a_edge9_Node000008_Node000005"><a xlink:title=" ">
<path fill="none" stroke="#63b8ff" d="M473.75,-843.86C480.41,-840.75 486.68,-836.85 492,-831.96 571.82,-758.49 594.08,-620.1 599.73,-568.77"/>
<polygon fill="#63b8ff" stroke="#63b8ff" points="603.23,-568.99 600.75,-558.69 596.26,-568.29 603.23,-568.99"/>
</a>
</g>
</g>
<!-- Node9&#45;&gt;Node5 -->
<g id="edge12_Node000009_Node000005" class="edge">
<title>Node9&#45;&gt;Node5</title>
<g id="a_edge12_Node000009_Node000005"><a xlink:title=" ">
<path fill="none" stroke="#63b8ff" d="M473.64,-1037.51C480.58,-1034.14 486.94,-1029.72 492,-1023.96 559.95,-946.51 505.2,-895.43 528,-794.96 547.47,-709.17 580.6,-609.44 594.76,-568.26"/>
<polygon fill="#63b8ff" stroke="#63b8ff" points="598.12,-569.27 598.08,-558.68 591.5,-566.98 598.12,-569.27"/>
</a>
</g>
</g>
<!-- Node10 -->
<g id="Node000010" class="node">
<title>Node10</title>
<g id="a_Node000010"><a xlink:href="m__helper_8fpp_8f90.html#a8a0505b2bd4f3d8cb2bf3ce16cfe01e3" target="_top" xlink:title=" ">
<polygon fill="white" stroke="#666666" points="639,-822.46 566,-822.46 566,-803.46 639,-803.46 639,-822.46"/>
<text text-anchor="middle" x="602.5" y="-810.46" font-family="Helvetica,sans-Serif" font-size="10.00">s_int_to_str</text>
</a>
</g>
</g>
<!-- Node9&#45;&gt;Node10 -->
<g id="edge11_Node000009_Node000010" class="edge">
<title>Node9&#45;&gt;Node10</title>
<g id="a_edge11_Node000009_Node000010"><a xlink:title=" ">
<path fill="none" stroke="#63b8ff" d="M473.66,-1035.09C480.26,-1032.12 486.54,-1028.46 492,-1023.96 555.15,-971.92 586.17,-873.91 596.94,-832.36"/>
<polygon fill="#63b8ff" stroke="#63b8ff" points="600.34,-833.2 599.35,-822.65 593.55,-831.51 600.34,-833.2"/>
</a>
</g>
</g>
<!-- Node11&#45;&gt;Node5 -->
<g id="edge17_Node000011_Node000005" class="edge">
<title>Node11&#45;&gt;Node5</title>
<g id="a_edge17_Node000011_Node000005"><a xlink:title=" ">
<path fill="none" stroke="#63b8ff" d="M477.63,-766.31C482.75,-764.05 487.63,-761.3 492,-757.96 556.52,-708.62 586.78,-610.33 597.15,-568.52"/>
<polygon fill="#63b8ff" stroke="#63b8ff" points="600.57,-569.27 599.46,-558.74 593.76,-567.66 600.57,-569.27"/>
</a>
</g>
</g>
<!-- Node11&#45;&gt;Node10 -->
<g id="edge16_Node000011_Node000010" class="edge">
<title>Node11&#45;&gt;Node10</title>
<g id="a_edge16_Node000011_Node000010"><a xlink:title=" ">
<path fill="none" stroke="#63b8ff" d="M459.69,-785.49C489.35,-791.23 526.88,-798.5 555.87,-804.12"/>
<polygon fill="#63b8ff" stroke="#63b8ff" points="555.27,-807.57 565.75,-806.03 556.6,-800.7 555.27,-807.57"/>
</a>
</g>
</g>
<!-- Node12 -->
<g id="Node000012" class="node">
<title>Node12</title>
<g id="a_Node000012"><a xlink:href="namespacem__helper__basic.html#af1ad5f2cff7ebf5c909a7fc212815ff2" target="_top" xlink:title="Checks if a real(kind(0d0)) variable is of default value.">
<polygon fill="white" stroke="#666666" points="660.5,-209.96 544.5,-209.96 544.5,-179.96 660.5,-179.96 660.5,-209.96"/>
<text text-anchor="start" x="552.5" y="-197.96" font-family="Helvetica,sans-Serif" font-size="10.00">m_helper_basic::f_is</text>
<text text-anchor="middle" x="602.5" y="-186.96" font-family="Helvetica,sans-Serif" font-size="10.00">_default</text>
</a>
</g>
</g>
<!-- Node11&#45;&gt;Node12 -->
<g id="edge14_Node000011_Node000012" class="edge">
<title>Node11&#45;&gt;Node12</title>
<g id="a_edge14_Node000011_Node000012"><a xlink:title=" ">
<path fill="none" stroke="#63b8ff" d="M479.7,-767.34C484.24,-764.84 488.43,-761.76 492,-757.96 527.15,-720.6 518.5,-580.37 528,-529.96 549.92,-413.66 582.11,-276.02 595.41,-220.28"/>
<polygon fill="#63b8ff" stroke="#63b8ff" points="598.88,-220.79 597.8,-210.25 592.07,-219.16 598.88,-220.79"/>
</a>
</g>
</g>
<!-- Node13 -->
<g id="Node000013" class="node">
<title>Node13</title>
<g id="a_Node000013"><a xlink:href="namespacem__helper__basic.html#a4d4fbabb3807eb662390dd48ef95330d" target="_top" xlink:title="This procedure checks if two floating point numbers of kind(0d0) are within tolerance.">
<polygon fill="white" stroke="#666666" points="855,-209.96 713,-209.96 713,-179.96 855,-179.96 855,-209.96"/>
<text text-anchor="start" x="721" y="-197.96" font-family="Helvetica,sans-Serif" font-size="10.00">m_helper_basic::f_approx</text>
<text text-anchor="middle" x="784" y="-186.96" font-family="Helvetica,sans-Serif" font-size="10.00">_equal</text>
</a>
</g>
</g>
<!-- Node12&#45;&gt;Node13 -->
<g id="edge15_Node000012_Node000013" class="edge">
<title>Node12&#45;&gt;Node13</title>
<g id="a_edge15_Node000012_Node000013"><a xlink:title=" ">
<path fill="none" stroke="#63b8ff" d="M660.79,-194.96C674.08,-194.96 688.47,-194.96 702.55,-194.96"/>
<polygon fill="#63b8ff" stroke="#63b8ff" points="702.73,-198.46 712.73,-194.96 702.73,-191.46 702.73,-198.46"/>
</a>
</g>
</g>
<!-- Node14&#45;&gt;Node5 -->
<g id="edge19_Node000014_Node000005" class="edge">
<title>Node14&#45;&gt;Node5</title>
<g id="a_edge19_Node000014_Node000005"><a xlink:title=" ">
<path fill="none" stroke="#63b8ff" d="M471.15,-643.91C478.34,-641.31 485.45,-638.34 492,-634.96 528.23,-616.28 564.24,-584.9 584.6,-565.65"/>
<polygon fill="#63b8ff" stroke="#63b8ff" points="587.06,-568.14 591.84,-558.68 582.21,-563.09 587.06,-568.14"/>
</a>
</g>
</g>
<!-- Node15&#45;&gt;Node5 -->
<g id="edge21_Node000015_Node000005" class="edge">
<title>Node15&#45;&gt;Node5</title>
<g id="a_edge21_Node000015_Node000005"><a xlink:title=" ">
<path fill="none" stroke="#63b8ff" d="M476.1,-729.4C481.73,-727.14 487.13,-724.37 492,-720.96 547.72,-681.96 581.48,-604.62 594.86,-568.46"/>
<polygon fill="#63b8ff" stroke="#63b8ff" points="598.29,-569.24 598.36,-558.64 591.7,-566.89 598.29,-569.24"/>
</a>
</g>
</g>
<!-- Node16&#45;&gt;Node5 -->
<g id="edge24_Node000016_Node000005" class="edge">
<title>Node16&#45;&gt;Node5</title>
<g id="a_edge24_Node000016_Node000005"><a xlink:title=" ">
<path fill="none" stroke="#63b8ff" d="M476.21,-987.91C482.1,-984.78 487.52,-980.86 492,-975.96 547.33,-915.41 508.24,-874.56 528,-794.96 549.2,-709.58 581.4,-609.63 595.03,-568.33"/>
<polygon fill="#63b8ff" stroke="#63b8ff" points="598.4,-569.3 598.22,-558.71 591.75,-567.1 598.4,-569.3"/>
</a>
</g>
</g>
<!-- Node16&#45;&gt;Node10 -->
<g id="edge23_Node000016_Node000010" class="edge">
<title>Node16&#45;&gt;Node10</title>
<g id="a_edge23_Node000016_Node000010"><a xlink:title=" ">
<path fill="none" stroke="#63b8ff" d="M476.08,-985.18C481.72,-982.58 487.12,-979.54 492,-975.96 544.32,-937.59 579.36,-866.18 593.9,-832.07"/>
<polygon fill="#63b8ff" stroke="#63b8ff" points="597.17,-833.33 597.76,-822.75 590.7,-830.66 597.17,-833.33"/>
</a>
</g>
</g>
<!-- Node17&#45;&gt;Node5 -->
<g id="edge26_Node000017_Node000005" class="edge">
<title>Node17&#45;&gt;Node5</title>
<g id="a_edge26_Node000017_Node000005"><a xlink:title=" ">
<path fill="none" stroke="#63b8ff" d="M471.91,-692.31C478.97,-689.87 485.84,-686.8 492,-682.96 539.19,-653.55 575.38,-596.62 591.81,-567.34"/>
<polygon fill="#63b8ff" stroke="#63b8ff" points="594.89,-569 596.61,-558.55 588.75,-565.65 594.89,-569"/>
</a>
</g>
</g>
<!-- Node18&#45;&gt;Node14 -->
<g id="edge57_Node000018_Node000014" class="edge">
<title>Node18&#45;&gt;Node14</title>
<g id="a_edge57_Node000018_Node000014"><a xlink:title=" ">
<path fill="none" stroke="#63b8ff" d="M224.08,-417.87C230.21,-453.09 255.78,-573.39 327,-634.96 329.38,-637.01 331.93,-638.89 334.6,-640.61"/>
<polygon fill="#63b8ff" stroke="#63b8ff" points="333.06,-643.76 343.5,-645.57 336.47,-637.65 333.06,-643.76"/>
</a>
</g>
</g>
<!-- Node19 -->
<g id="Node000019" class="node">
<title>Node19</title>
<g id="a_Node000019"><a xlink:href="m__checker__common_8fpp_8f90.html#a538dcaa242ef367d1b2cddca76058620" target="_top" xlink:title="Checks constraints on the adv_n flag. Called by s_check_inputs_common for pre&#45;processing and simulati...">
<polygon fill="white" stroke="#666666" points="472,-540.46 347,-540.46 347,-521.46 472,-521.46 472,-540.46"/>
<text text-anchor="middle" x="409.5" y="-528.46" font-family="Helvetica,sans-Serif" font-size="10.00">s_check_inputs_adv_n</text>
</a>
</g>
</g>
<!-- Node18&#45;&gt;Node19 -->
<g id="edge28_Node000018_Node000019" class="edge">
<title>Node18&#45;&gt;Node19</title>
<g id="a_edge28_Node000018_Node000019"><a xlink:title=" ">
<path fill="none" stroke="#63b8ff" d="M229.34,-417.77C244.4,-438.61 282.67,-487.39 327,-511.96 331.15,-514.26 335.57,-516.28 340.12,-518.06"/>
<polygon fill="#63b8ff" stroke="#63b8ff" points="339,-521.38 349.6,-521.38 341.31,-514.77 339,-521.38"/>
</a>
</g>
</g>
<!-- Node20 -->
<g id="Node000020" class="node">
<title>Node20</title>
<g id="a_Node000020"><a xlink:href="m__checker__common_8fpp_8f90.html#ab9d26fff561c55f5ef7f201aa14d2688" target="_top" xlink:title="Checks constraints on the boundary conditions in the x&#45;direction. Called by s_check_inputs_common for...">
<polygon fill="white" stroke="#666666" points="463,-503.46 356,-503.46 356,-484.46 463,-484.46 463,-503.46"/>
<text text-anchor="middle" x="409.5" y="-491.46" font-family="Helvetica,sans-Serif" font-size="10.00">s_check_inputs_bc</text>
</a>
</g>
</g>
<!-- Node18&#45;&gt;Node20 -->
<g id="edge30_Node000018_Node000020" class="edge">
<title>Node18&#45;&gt;Node20</title>
<g id="a_edge30_Node000018_Node000020"><a xlink:title=" ">
<path fill="none" stroke="#63b8ff" d="M234.59,-417.69C253.29,-432.27 290.87,-459.7 327,-474.96 333.11,-477.54 339.64,-479.81 346.24,-481.79"/>
<polygon fill="#63b8ff" stroke="#63b8ff" points="345.35,-485.17 355.92,-484.49 347.23,-478.43 345.35,-485.17"/>
</a>
</g>
</g>
<!-- Node21 -->
<g id="Node000021" class="node">
<title>Node21</title>
<g id="a_Node000021"><a xlink:href="m__checker__common_8fpp_8f90.html#a01441cca058c6ae5c7ad6d95023d7c74" target="_top" xlink:title="Checks constraints on the bubble parameters. Called by s_check_inputs_common for pre&#45;processing and s...">
<polygon fill="white" stroke="#666666" points="476.5,-161.46 342.5,-161.46 342.5,-142.46 476.5,-142.46 476.5,-161.46"/>
<text text-anchor="middle" x="409.5" y="-149.46" font-family="Helvetica,sans-Serif" font-size="10.00">s_check_inputs_bubbles</text>
</a>
</g>
</g>
<!-- Node18&#45;&gt;Node21 -->
<g id="edge32_Node000018_Node000021" class="edge">
<title>Node18&#45;&gt;Node21</title>
<g id="a_edge32_Node000018_Node000021"><a xlink:title=" ">
<path fill="none" stroke="#63b8ff" d="M223.74,-397.98C228.82,-361.4 251.54,-233.53 327,-170.96 329.01,-169.3 331.13,-167.77 333.35,-166.38"/>
<polygon fill="#63b8ff" stroke="#63b8ff" points="335.12,-169.4 342.3,-161.61 331.83,-163.22 335.12,-169.4"/>
</a>
</g>
</g>
<!-- Node22 -->
<g id="Node000022" class="node">
<title>Node22</title>
<g id="a_Node000022"><a xlink:href="m__checker__common_8fpp_8f90.html#a1f58bf767848b82995c95a02051a26a3" target="_top" xlink:title="Checks constraints on the finite difference parameters. Called by s_check_inputs_common for simulatio...">
<polygon fill="white" stroke="#666666" points="470,-465.96 349,-465.96 349,-435.96 470,-435.96 470,-465.96"/>
<text text-anchor="start" x="357" y="-453.96" font-family="Helvetica,sans-Serif" font-size="10.00">s_check_inputs_finite</text>
<text text-anchor="middle" x="409.5" y="-442.96" font-family="Helvetica,sans-Serif" font-size="10.00">_difference</text>
</a>
</g>
</g>
<!-- Node18&#45;&gt;Node22 -->
<g id="edge35_Node000018_Node000022" class="edge">
<title>Node18&#45;&gt;Node22</title>
<g id="a_edge35_Node000018_Node000022"><a xlink:title=" ">
<path fill="none" stroke="#63b8ff" d="M263.78,-417.5C285.89,-422.61 313.72,-429.05 339.05,-434.9"/>
<polygon fill="#63b8ff" stroke="#63b8ff" points="338.45,-438.36 348.99,-437.2 340.03,-431.54 338.45,-438.36"/>
</a>
</g>
</g>
<!-- Node23 -->
<g id="Node000023" class="node">
<title>Node23</title>
<g id="a_Node000023"><a xlink:href="m__checker__common_8fpp_8f90.html#accfb74f37212066b8bc82dd89ed2ed22" target="_top" xlink:title="Checks constraints on the hypoelasticity parameters. Called by s_check_inputs_common for pre&#45;processi...">
<polygon fill="white" stroke="#666666" points="492,-417.46 327,-417.46 327,-398.46 492,-398.46 492,-417.46"/>
<text text-anchor="middle" x="409.5" y="-405.46" font-family="Helvetica,sans-Serif" font-size="10.00">s_check_inputs_hypoelasticity</text>
</a>
</g>
</g>
<!-- Node18&#45;&gt;Node23 -->
<g id="edge37_Node000018_Node000023" class="edge">
<title>Node18&#45;&gt;Node23</title>
<g id="a_edge37_Node000018_Node000023"><a xlink:title=" ">
<path fill="none" stroke="#63b8ff" d="M291.23,-407.96C299.56,-407.96 308.17,-407.96 316.77,-407.96"/>
<polygon fill="#63b8ff" stroke="#63b8ff" points="316.83,-411.46 326.83,-407.96 316.83,-404.46 316.83,-411.46"/>
</a>
</g>
</g>
<!-- Node24 -->
<g id="Node000024" class="node">
<title>Node24</title>
<g id="a_Node000024"><a xlink:href="m__checker__common_8fpp_8f90.html#a5f288df12e9ccee0eb013354410ebfa8" target="_top" xlink:title="Checks constraints on the Immersed Boundaries parameters. Called by s_check_inputs_common for pre&#45;pro...">
<polygon fill="white" stroke="#666666" points="467,-343.46 352,-343.46 352,-324.46 467,-324.46 467,-343.46"/>
<text text-anchor="middle" x="409.5" y="-331.46" font-family="Helvetica,sans-Serif" font-size="10.00">s_check_inputs_ibm</text>
</a>
</g>
</g>
<!-- Node18&#45;&gt;Node24 -->
<g id="edge39_Node000018_Node000024" class="edge">
<title>Node18&#45;&gt;Node24</title>
<g id="a_edge39_Node000018_Node000024"><a xlink:title=" ">
<path fill="none" stroke="#63b8ff" d="M237.12,-398.44C256.79,-386.04 293.22,-364.47 327,-351.96 332.89,-349.78 339.11,-347.82 345.4,-346.07"/>
<polygon fill="#63b8ff" stroke="#63b8ff" points="346.48,-349.41 355.28,-343.5 344.72,-342.63 346.48,-349.41"/>
</a>
</g>
</g>
<!-- Node25 -->
<g id="Node000025" class="node">
<title>Node25</title>
<g id="a_Node000025"><a xlink:href="m__checker__common_8fpp_8f90.html#a62ef6c0450d3c2d10771bc88062ae6e4" target="_top" xlink:title="Checks constraints on model equations and number of fluids in the flow. Called by s_check_inputs_comm...">
<polygon fill="white" stroke="#666666" points="473,-305.96 346,-305.96 346,-275.96 473,-275.96 473,-305.96"/>
<text text-anchor="start" x="354" y="-293.96" font-family="Helvetica,sans-Serif" font-size="10.00">s_check_inputs_model</text>
<text text-anchor="middle" x="409.5" y="-282.96" font-family="Helvetica,sans-Serif" font-size="10.00">_eqns_and_num_fluids</text>
</a>
</g>
</g>
<!-- Node18&#45;&gt;Node25 -->
<g id="edge41_Node000018_Node000025" class="edge">
<title>Node18&#45;&gt;Node25</title>
<g id="a_edge41_Node000018_Node000025"><a xlink:title=" ">
<path fill="none" stroke="#63b8ff" d="M230.67,-398.26C247.03,-379.44 285.81,-337.83 327,-314.96 330.22,-313.17 333.59,-311.5 337.04,-309.95"/>
<polygon fill="#63b8ff" stroke="#63b8ff" points="338.45,-313.16 346.35,-306.1 335.77,-306.69 338.45,-313.16"/>
</a>
</g>
</g>
<!-- Node26 -->
<g id="Node000026" class="node">
<title>Node26</title>
<g id="a_Node000026"><a xlink:href="m__checker__common_8fpp_8f90.html#a697321811bee46ce0c7e4d23ef95fb9e" target="_top" xlink:title="Checks constraints on the inputs for moving boundaries. Called by s_check_inputs_common for all three...">
<polygon fill="white" stroke="#666666" points="677,-75.46 528,-75.46 528,-56.46 677,-56.46 677,-75.46"/>
<text text-anchor="middle" x="602.5" y="-63.46" font-family="Helvetica,sans-Serif" font-size="10.00">s_check_inputs_moving_bc</text>
</a>
</g>
</g>
<!-- Node18&#45;&gt;Node26 -->
<g id="edge43_Node000018_Node000026" class="edge">
<title>Node18&#45;&gt;Node26</title>
<g id="a_edge43_Node000018_Node000026"><a xlink:title=" ">
<path fill="none" stroke="#63b8ff" d="M222.12,-398.19C220.98,-353.42 222.76,-166.45 327,-84.96 391.75,-34.34 493.45,-43.18 553.19,-54.42"/>
<polygon fill="#63b8ff" stroke="#63b8ff" points="552.63,-57.88 563.12,-56.38 553.99,-51.01 552.63,-57.88"/>
</a>
</g>
</g>
<!-- Node27 -->
<g id="Node000027" class="node">
<title>Node27</title>
<g id="a_Node000027"><a xlink:href="m__checker__common_8fpp_8f90.html#add5396f309ec2b5791b6e7e931a8a83a" target="_top" xlink:title="Checks constraints on the phase change parameters. Called by s_check_inputs_common for pre&#45;processing...">
<polygon fill="white" stroke="#666666" points="472,-209.96 347,-209.96 347,-179.96 472,-179.96 472,-209.96"/>
<text text-anchor="start" x="355" y="-197.96" font-family="Helvetica,sans-Serif" font-size="10.00">s_check_inputs_phase</text>
<text text-anchor="middle" x="409.5" y="-186.96" font-family="Helvetica,sans-Serif" font-size="10.00">_change</text>
</a>
</g>
</g>
<!-- Node18&#45;&gt;Node27 -->
<g id="edge45_Node000018_Node000027" class="edge">
<title>Node18&#45;&gt;Node27</title>
<g id="a_edge45_Node000018_Node000027"><a xlink:title=" ">
<path fill="none" stroke="#63b8ff" d="M224.96,-398.42C233.44,-367.5 264.41,-269.16 327,-218.96 330.3,-216.31 333.89,-213.96 337.65,-211.86"/>
<polygon fill="#63b8ff" stroke="#63b8ff" points="339.26,-214.97 346.7,-207.43 336.18,-208.68 339.26,-214.97"/>
</a>
</g>
</g>
<!-- Node28 -->
<g id="Node000028" class="node">
<title>Node28</title>
<g id="a_Node000028"><a xlink:href="m__checker__common_8fpp_8f90.html#adc048c92da5bb1fe5a2e0c05a6ac4363" target="_top" xlink:title="Checks constraints on the QBMM and polydisperse bubble parameters. Called by s_check_inputs_common fo...">
<polygon fill="white" stroke="#666666" points="473.5,-123.96 345.5,-123.96 345.5,-93.96 473.5,-93.96 473.5,-123.96"/>
<text text-anchor="start" x="353.5" y="-111.96" font-family="Helvetica,sans-Serif" font-size="10.00">s_check_inputs_qbmm</text>
<text text-anchor="middle" x="409.5" y="-100.96" font-family="Helvetica,sans-Serif" font-size="10.00">_and_polydisperse</text>
</a>
</g>
</g>
<!-- Node18&#45;&gt;Node28 -->
<g id="edge48_Node000018_Node000028" class="edge">
<title>Node18&#45;&gt;Node28</title>
<g id="a_edge48_Node000018_Node000028"><a xlink:title=" ">
<path fill="none" stroke="#63b8ff" d="M223.18,-398.24C226.48,-358.87 244.18,-209.65 327,-132.96 329.82,-130.35 332.9,-128.02 336.18,-125.95"/>
<polygon fill="#63b8ff" stroke="#63b8ff" points="338.11,-128.88 345.22,-121.03 334.76,-122.74 338.11,-128.88"/>
</a>
</g>
</g>
<!-- Node29 -->
<g id="Node000029" class="node">
<title>Node29</title>
<g id="a_Node000029"><a xlink:href="m__checker__common_8fpp_8f90.html#a3638eec34667eefff3ec91023602d436" target="_top" xlink:title="Checks constraints on dimensionality and the number of cells for the grid. Called by s_check_inputs_c...">
<polygon fill="white" stroke="#666666" points="483.5,-257.96 335.5,-257.96 335.5,-227.96 483.5,-227.96 483.5,-257.96"/>
<text text-anchor="start" x="343.5" y="-245.96" font-family="Helvetica,sans-Serif" font-size="10.00">s_check_inputs_simulation</text>
<text text-anchor="middle" x="409.5" y="-234.96" font-family="Helvetica,sans-Serif" font-size="10.00">_domain</text>
</a>
</g>
</g>
<!-- Node18&#45;&gt;Node29 -->
<g id="edge51_Node000018_Node000029" class="edge">
<title>Node18&#45;&gt;Node29</title>
<g id="a_edge51_Node000018_Node000029"><a xlink:title=" ">
<path fill="none" stroke="#63b8ff" d="M226.84,-398.41C238.88,-372.97 275.29,-303.07 327,-266.96 329.25,-265.39 331.6,-263.92 334.02,-262.55"/>
<polygon fill="#63b8ff" stroke="#63b8ff" points="335.74,-265.61 343.09,-257.98 332.59,-259.35 335.74,-265.61"/>
</a>
</g>
</g>
<!-- Node30 -->
<g id="Node000030" class="node">
<title>Node30</title>
<g id="a_Node000030"><a xlink:href="m__checker__common_8fpp_8f90.html#ae37785075c904635e02713670b0cfc46" target="_top" xlink:title="Checks constraints on the stiffened equation of state fluids parameters. Called by s_check_inputs_com...">
<polygon fill="white" stroke="#666666" points="490,-380.46 329,-380.46 329,-361.46 490,-361.46 490,-380.46"/>
<text text-anchor="middle" x="409.5" y="-368.46" font-family="Helvetica,sans-Serif" font-size="10.00">s_check_inputs_stiffened_eos</text>
</a>
</g>
</g>
<!-- Node18&#45;&gt;Node30 -->
<g id="edge53_Node000018_Node000030" class="edge">
<title>Node18&#45;&gt;Node30</title>
<g id="a_edge53_Node000018_Node000030"><a xlink:title=" ">
<path fill="none" stroke="#63b8ff" d="M270.4,-398.43C294.82,-393.57 324.72,-387.63 350.44,-382.51"/>
<polygon fill="#63b8ff" stroke="#63b8ff" points="351.31,-385.9 360.44,-380.52 349.95,-379.04 351.31,-385.9"/>
</a>
</g>
</g>
<!-- Node31 -->
<g id="Node000031" class="node">
<title>Node31</title>
<g id="a_Node000031"><a xlink:href="m__checker__common_8fpp_8f90.html#a5ce97109d7a61fb087f1b5246c654a96" target="_top" xlink:title="Checks constraints on the time&#45;stepping parameters. Called by s_check_inputs_common for simulation an...">
<polygon fill="white" stroke="#666666" points="469,-625.96 350,-625.96 350,-595.96 469,-595.96 469,-625.96"/>
<text text-anchor="start" x="358" y="-613.96" font-family="Helvetica,sans-Serif" font-size="10.00">s_check_inputs_time</text>
<text text-anchor="middle" x="409.5" y="-602.96" font-family="Helvetica,sans-Serif" font-size="10.00">_stepping</text>
</a>
</g>
</g>
<!-- Node18&#45;&gt;Node31 -->
<g id="edge58_Node000018_Node000031" class="edge">
<title>Node18&#45;&gt;Node31</title>
<g id="a_edge58_Node000018_Node000031"><a xlink:title=" ">
<path fill="none" stroke="#63b8ff" d="M225.38,-417.84C234.69,-448.03 266.94,-539.92 327,-586.96 331.1,-590.17 335.63,-592.96 340.38,-595.37"/>
<polygon fill="#63b8ff" stroke="#63b8ff" points="339.19,-598.67 349.74,-599.56 342.05,-592.28 339.19,-598.67"/>
</a>
</g>
</g>
<!-- Node32 -->
<g id="Node000032" class="node">
<title>Node32</title>
<g id="a_Node000032"><a xlink:href="m__checker__common_8fpp_8f90.html#aef9fe5f21786bdd9903e9d6f6085c8b9" target="_top" xlink:title="Checks constraints regarding WENO order. Called by s_check_inputs_common for all three stages.">
<polygon fill="white" stroke="#666666" points="470.5,-577.46 348.5,-577.46 348.5,-558.46 470.5,-558.46 470.5,-577.46"/>
<text text-anchor="middle" x="409.5" y="-565.46" font-family="Helvetica,sans-Serif" font-size="10.00">s_check_inputs_weno</text>
</a>
</g>
</g>
<!-- Node18&#45;&gt;Node32 -->
<g id="edge60_Node000018_Node000032" class="edge">
<title>Node18&#45;&gt;Node32</title>
<g id="a_edge60_Node000018_Node000032"><a xlink:title=" ">
<path fill="none" stroke="#63b8ff" d="M226.68,-417.78C238.35,-443.89 273.89,-515.4 327,-549.96 330.62,-552.31 334.5,-554.37 338.54,-556.15"/>
<polygon fill="#63b8ff" stroke="#63b8ff" points="337.59,-559.54 348.18,-559.86 340.1,-553 337.59,-559.54"/>
</a>
</g>
</g>
<!-- Node33 -->
<g id="Node000033" class="node">
<title>Node33</title>
<g id="a_Node000033"><a xlink:href="m__checker__common_8fpp_8f90.html#ac5ead5876fd9afbfaa1d2c233f13e716" target="_top" xlink:title=" ">
<polygon fill="white" stroke="#666666" points="465,-822.46 354,-822.46 354,-803.46 465,-803.46 465,-822.46"/>
<text text-anchor="middle" x="409.5" y="-810.46" font-family="Helvetica,sans-Serif" font-size="10.00">s_check_total_cells</text>
</a>
</g>
</g>
<!-- Node18&#45;&gt;Node33 -->
<g id="edge62_Node000018_Node000033" class="edge">
<title>Node18&#45;&gt;Node33</title>
<g id="a_edge62_Node000018_Node000033"><a xlink:title=" ">
<path fill="none" stroke="#63b8ff" d="M223.77,-417.77C231.06,-472.52 269.24,-739.81 327,-794.96 332,-799.73 337.97,-803.35 344.37,-806.08"/>
<polygon fill="#63b8ff" stroke="#63b8ff" points="343.39,-809.45 353.99,-809.47 345.72,-802.85 343.39,-809.45"/>
</a>
</g>
</g>
<!-- Node19&#45;&gt;Node5 -->
<g id="edge29_Node000019_Node000005" class="edge">
<title>Node19&#45;&gt;Node5</title>
<g id="a_edge29_Node000019_Node000005"><a xlink:title=" ">
<path fill="none" stroke="#63b8ff" d="M472.25,-536.78C495.5,-538.97 521.81,-541.45 544.6,-543.6"/>
<polygon fill="#63b8ff" stroke="#63b8ff" points="544.52,-547.1 554.8,-544.56 545.17,-540.13 544.52,-547.1"/>
</a>
</g>
</g>
<!-- Node20&#45;&gt;Node5 -->
<g id="edge31_Node000020_Node000005" class="edge">
<title>Node20&#45;&gt;Node5</title>
<g id="a_edge31_Node000020_Node000005"><a xlink:title=" ">
<path fill="none" stroke="#63b8ff" d="M457.69,-503.47C468.99,-506 480.97,-508.89 492,-511.96 517.03,-518.93 544.76,-528.32 566.05,-535.89"/>
<polygon fill="#63b8ff" stroke="#63b8ff" points="565.05,-539.25 575.64,-539.33 567.41,-532.66 565.05,-539.25"/>
</a>
</g>
</g>
<!-- Node21&#45;&gt;Node5 -->
<g id="edge34_Node000021_Node000005" class="edge">
<title>Node21&#45;&gt;Node5</title>
<g id="a_edge34_Node000021_Node000005"><a xlink:title=" ">
<path fill="none" stroke="#63b8ff" d="M476.86,-160.79C482.4,-163.43 487.57,-166.76 492,-170.96 545.89,-222.07 587.22,-458.97 598.46,-529.25"/>
<polygon fill="#63b8ff" stroke="#63b8ff" points="595.04,-530.05 600.05,-539.38 601.95,-528.96 595.04,-530.05"/>
</a>
</g>
</g>
<!-- Node21&#45;&gt;Node12 -->
<g id="edge33_Node000021_Node000012" class="edge">
<title>Node21&#45;&gt;Node12</title>
<g id="a_edge33_Node000021_Node000012"><a xlink:title=" ">
<path fill="none" stroke="#63b8ff" d="M452.89,-161.5C476.87,-166.9 507.4,-173.77 534.55,-179.89"/>
<polygon fill="#63b8ff" stroke="#63b8ff" points="533.85,-183.32 544.38,-182.1 535.39,-176.49 533.85,-183.32"/>
</a>
</g>
</g>
<!-- Node22&#45;&gt;Node5 -->
<g id="edge36_Node000022_Node000005" class="edge">
<title>Node22&#45;&gt;Node5</title>
<g id="a_edge36_Node000022_Node000005"><a xlink:title=" ">
<path fill="none" stroke="#63b8ff" d="M469.63,-466.01C477.29,-468.65 484.93,-471.63 492,-474.96 525.75,-490.86 560.8,-516.42 581.88,-532.95"/>
<polygon fill="#63b8ff" stroke="#63b8ff" points="579.76,-535.73 589.76,-539.22 584.12,-530.25 579.76,-535.73"/>
</a>
</g>
</g>
<!-- Node23&#45;&gt;Node5 -->
<g id="edge38_Node000023_Node000005" class="edge">
<title>Node23&#45;&gt;Node5</title>
<g id="a_edge38_Node000023_Node000005"><a xlink:title=" ">
<path fill="none" stroke="#63b8ff" d="M470.89,-417.6C478.27,-420.04 485.5,-423.11 492,-426.96 536.48,-453.27 572.95,-503.64 590.4,-530.7"/>
<polygon fill="#63b8ff" stroke="#63b8ff" points="587.47,-532.62 595.76,-539.22 593.4,-528.89 587.47,-532.62"/>
</a>
</g>
</g>
<!-- Node24&#45;&gt;Node5 -->
<g id="edge40_Node000024_Node000005" class="edge">
<title>Node24&#45;&gt;Node5</title>
<g id="a_edge40_Node000024_Node000005"><a xlink:title=" ">
<path fill="none" stroke="#63b8ff" d="M467.14,-339.92C476.03,-342.64 484.68,-346.5 492,-351.96 553.66,-397.91 585.18,-489.41 596.5,-529.44"/>
<polygon fill="#63b8ff" stroke="#63b8ff" points="593.17,-530.55 599.16,-539.29 599.93,-528.72 593.17,-530.55"/>
</a>
</g>
</g>
<!-- Node25&#45;&gt;Node5 -->
<g id="edge42_Node000025_Node000005" class="edge">
<title>Node25&#45;&gt;Node5</title>
<g id="a_edge42_Node000025_Node000005"><a xlink:title=" ">
<path fill="none" stroke="#63b8ff" d="M473.02,-303.23C479.89,-306.31 486.41,-310.15 492,-314.96 560.37,-373.7 588.88,-484.42 597.97,-529.31"/>
<polygon fill="#63b8ff" stroke="#63b8ff" points="594.56,-530.07 599.88,-539.23 601.43,-528.75 594.56,-530.07"/>
</a>
</g>
</g>
<!-- Node26&#45;&gt;Node6 -->
<g id="edge44_Node000026_Node000006" class="edge">
<title>Node26&#45;&gt;Node6</title>
<g id="a_edge44_Node000026_Node000006"><a xlink:title=" ">
<path fill="none" stroke="#63b8ff" d="M677.03,-65.96C696.61,-65.96 717.27,-65.96 735.08,-65.96"/>
<polygon fill="#63b8ff" stroke="#63b8ff" points="735.22,-69.46 745.22,-65.96 735.22,-62.46 735.22,-69.46"/>
</a>
</g>
</g>
<!-- Node27&#45;&gt;Node5 -->
<g id="edge47_Node000027_Node000005" class="edge">
<title>Node27&#45;&gt;Node5</title>
<g id="a_edge47_Node000027_Node000005"><a xlink:title=" ">
<path fill="none" stroke="#63b8ff" d="M472.36,-206.05C479.59,-209.31 486.38,-213.53 492,-218.96 582.96,-306.87 598.38,-471.99 600.98,-529"/>
<polygon fill="#63b8ff" stroke="#63b8ff" points="597.49,-529.32 601.35,-539.18 604.48,-529.06 597.49,-529.32"/>
</a>
</g>
</g>
<!-- Node27&#45;&gt;Node12 -->
<g id="edge46_Node000027_Node000012" class="edge">
<title>Node27&#45;&gt;Node12</title>
<g id="a_edge46_Node000027_Node000012"><a xlink:title=" ">
<path fill="none" stroke="#63b8ff" d="M472.25,-194.96C492.11,-194.96 514.2,-194.96 534.43,-194.96"/>
<polygon fill="#63b8ff" stroke="#63b8ff" points="534.5,-198.46 544.5,-194.96 534.5,-191.46 534.5,-198.46"/>
</a>
</g>
</g>
<!-- Node28&#45;&gt;Node5 -->
<g id="edge50_Node000028_Node000005" class="edge">
<title>Node28&#45;&gt;Node5</title>
<g id="a_edge50_Node000028_Node000005"><a xlink:title=" ">
<path fill="none" stroke="#63b8ff" d="M473.5,-120.1C480.37,-123.36 486.76,-127.56 492,-132.96 520.7,-162.51 581.27,-450.16 597.45,-529.04"/>
<polygon fill="#63b8ff" stroke="#63b8ff" points="594.08,-530.01 599.51,-539.11 600.94,-528.61 594.08,-530.01"/>
</a>
</g>
</g>
<!-- Node28&#45;&gt;Node12 -->
<g id="edge49_Node000028_Node000012" class="edge">
<title>Node28&#45;&gt;Node12</title>
<g id="a_edge49_Node000028_Node000012"><a xlink:title=" ">
<path fill="none" stroke="#63b8ff" d="M467.64,-123.97C475.92,-126.67 484.26,-129.68 492,-132.96 519.28,-144.52 548.39,-161.23 569.73,-174.39"/>
<polygon fill="#63b8ff" stroke="#63b8ff" points="568.04,-177.46 578.38,-179.79 571.75,-171.53 568.04,-177.46"/>
</a>
</g>
</g>
<!-- Node29&#45;&gt;Node5 -->
<g id="edge52_Node000029_Node000005" class="edge">
<title>Node29&#45;&gt;Node5</title>
<g id="a_edge52_Node000029_Node000005"><a xlink:title=" ">
<path fill="none" stroke="#63b8ff" d="M479.74,-258.14C484.16,-260.65 488.31,-263.56 492,-266.96 571.62,-340.16 594,-478.06 599.71,-529.21"/>
<polygon fill="#63b8ff" stroke="#63b8ff" points="596.24,-529.67 600.74,-539.26 603.2,-528.96 596.24,-529.67"/>
</a>
</g>
</g>
<!-- Node30&#45;&gt;Node5 -->
<g id="edge56_Node000030_Node000005" class="edge">
<title>Node30&#45;&gt;Node5</title>
<g id="a_edge56_Node000030_Node000005"><a xlink:title=" ">
<path fill="none" stroke="#63b8ff" d="M475.57,-380.52C481.37,-382.78 486.96,-385.55 492,-388.96 545.09,-424.81 579.76,-495.78 594.06,-529.84"/>
<polygon fill="#63b8ff" stroke="#63b8ff" points="590.83,-531.2 597.84,-539.15 597.32,-528.57 590.83,-531.2"/>
</a>
</g>
</g>
<!-- Node30&#45;&gt;Node10 -->
<g id="edge55_Node000030_Node000010" class="edge">
<title>Node30&#45;&gt;Node10</title>
<g id="a_edge55_Node000030_Node000010"><a xlink:title=" ">
<path fill="none" stroke="#63b8ff" d="M481.04,-380.58C485.04,-382.89 488.75,-385.65 492,-388.96 548.84,-446.88 508.32,-489.23 528,-567.96 549.26,-652.99 581.42,-752.53 595.04,-793.67"/>
<polygon fill="#63b8ff" stroke="#63b8ff" points="591.75,-794.86 598.23,-803.25 598.39,-792.65 591.75,-794.86"/>
</a>
</g>
</g>
<!-- Node30&#45;&gt;Node12 -->
<g id="edge54_Node000030_Node000012" class="edge">
<title>Node30&#45;&gt;Node12</title>
<g id="a_edge54_Node000030_Node000012"><a xlink:title=" ">
<path fill="none" stroke="#63b8ff" d="M473.04,-361.46C479.75,-358.98 486.23,-355.87 492,-351.96 541.33,-318.54 575.28,-254.92 591.19,-219.79"/>
<polygon fill="#63b8ff" stroke="#63b8ff" points="594.55,-220.84 595.37,-210.28 588.14,-218.03 594.55,-220.84"/>
</a>
</g>
</g>
<!-- Node31&#45;&gt;Node5 -->
<g id="edge59_Node000031_Node000005" class="edge">
<title>Node31&#45;&gt;Node5</title>
<g id="a_edge59_Node000031_Node000005"><a xlink:title=" ">
<path fill="none" stroke="#63b8ff" d="M463.22,-595.83C472.82,-592.97 482.73,-589.93 492,-586.96 516.65,-579.06 544.17,-569.5 565.46,-561.95"/>
<polygon fill="#63b8ff" stroke="#63b8ff" points="566.82,-565.18 575.07,-558.53 564.47,-558.59 566.82,-565.18"/>
</a>
</g>
</g>
<!-- Node32&#45;&gt;Node5 -->
<g id="edge61_Node000032_Node000005" class="edge">
<title>Node32&#45;&gt;Node5</title>
<g id="a_edge61_Node000032_Node000005"><a xlink:title=" ">
<path fill="none" stroke="#63b8ff" d="M470.67,-561.97C494.39,-559.61 521.49,-556.92 544.85,-554.59"/>
<polygon fill="#63b8ff" stroke="#63b8ff" points="545.35,-558.06 554.96,-553.59 544.66,-551.1 545.35,-558.06"/>
</a>
</g>
</g>
<!-- Node33&#45;&gt;Node5 -->
<g id="edge64_Node000033_Node000005" class="edge">
<title>Node33&#45;&gt;Node5</title>
<g id="a_edge64_Node000033_Node000005"><a xlink:title=" ">
<path fill="none" stroke="#63b8ff" d="M465.03,-808.3C474.76,-805.5 484.26,-801.28 492,-794.96 565.43,-735.01 591.24,-615.68 598.79,-568.66"/>
<polygon fill="#63b8ff" stroke="#63b8ff" points="602.28,-568.99 600.3,-558.58 595.36,-567.95 602.28,-568.99"/>
</a>
</g>
</g>
<!-- Node33&#45;&gt;Node10 -->
<g id="edge63_Node000033_Node000010" class="edge">
<title>Node33&#45;&gt;Node10</title>
<g id="a_edge63_Node000033_Node000010"><a xlink:title=" ">
<path fill="none" stroke="#63b8ff" d="M465.23,-812.96C493.87,-812.96 528.53,-812.96 555.73,-812.96"/>
<polygon fill="#63b8ff" stroke="#63b8ff" points="555.76,-816.46 565.76,-812.96 555.76,-809.46 555.76,-816.46"/>
</a>
</g>
</g>
</g>
</svg>
