<?xml version="1.0" encoding="UTF-8" standalone="no"?>
<!DOCTYPE svg PUBLIC "-//W3C//DTD SVG 1.1//EN"
 "http://www.w3.org/Graphics/SVG/1.1/DTD/svg11.dtd">
<!-- Generated by graphviz version 2.43.0 (0)
 -->
<!-- Title: m_mpi_common::s_mpi_abort Pages: 1 -->
<svg width="1129pt" height="511pt"
 viewBox="0.00 0.00 1129.00 511.00" xmlns="http://www.w3.org/2000/svg" xmlns:xlink="http://www.w3.org/1999/xlink">
<g id="graph0" class="graph" transform="scale(1 1) rotate(0) translate(4 507)">
<title>m_mpi_common::s_mpi_abort</title>
<!-- Node1 -->
<g id="Node000001" class="node">
<title>Node1</title>
<g id="a_Node000001"><a xlink:title="The subroutine terminates the MPI execution environment.">
<polygon fill="#999999" stroke="#666666" points="1121,-240 987,-240 987,-210 1121,-210 1121,-240"/>
<text text-anchor="start" x="995" y="-228" font-family="Helvetica,sans-Serif" font-size="10.00">m_mpi_common::s_mpi</text>
<text text-anchor="middle" x="1054" y="-217" font-family="Helvetica,sans-Serif" font-size="10.00">_abort</text>
</a>
</g>
</g>
<!-- Node2 -->
<g id="Node000002" class="node">
<title>Node2</title>
<g id="a_Node000002"><a xlink:href="namespacem__start__up.html#a045a171a9b44005a0e190f9a99784853" target="_top" xlink:title="Checking that the user inputs make sense, i.e. that the individual choices are compatible with the co...">
<polygon fill="white" stroke="#666666" points="932,-503 816,-503 816,-473 932,-473 932,-503"/>
<text text-anchor="start" x="824" y="-491" font-family="Helvetica,sans-Serif" font-size="10.00">m_start_up::s_check</text>
<text text-anchor="middle" x="874" y="-480" font-family="Helvetica,sans-Serif" font-size="10.00">_input_file</text>
</a>
</g>
</g>
<!-- Node1&#45;&gt;Node2 -->
<g id="edge1_Node000001_Node000002" class="edge">
<title>Node1&#45;&gt;Node2</title>
<g id="a_edge1_Node000001_Node000002"><a xlink:title=" ">
<path fill="none" stroke="#63b8ff" d="M1049.34,-250.04C1040.94,-298.44 1015.78,-405.25 951,-464 945.57,-468.93 939.13,-472.84 932.33,-475.95"/>
<polygon fill="#63b8ff" stroke="#63b8ff" points="1052.8,-250.54 1050.96,-240.1 1045.89,-249.41 1052.8,-250.54"/>
</a>
</g>
</g>
<!-- Node5 -->
<g id="Node000005" class="node">
<title>Node5</title>
<g id="a_Node000005"><a xlink:href="namespacem__mpi__common.html#afe54fe25c12eda7afe195fbf0fa166fc" target="_top" xlink:title="The purpose of this procedure is to optimally decompose the computational domain among the available ...">
<polygon fill="white" stroke="#666666" points="951,-454.5 797,-454.5 797,-413.5 951,-413.5 951,-454.5"/>
<text text-anchor="start" x="805" y="-442.5" font-family="Helvetica,sans-Serif" font-size="10.00">m_mpi_common::s_mpi</text>
<text text-anchor="start" x="805" y="-431.5" font-family="Helvetica,sans-Serif" font-size="10.00">_decompose_computational</text>
<text text-anchor="middle" x="874" y="-420.5" font-family="Helvetica,sans-Serif" font-size="10.00">_domain</text>
</a>
</g>
</g>
<!-- Node1&#45;&gt;Node5 -->
<g id="edge4_Node000001_Node000005" class="edge">
<title>Node1&#45;&gt;Node5</title>
<g id="a_edge4_Node000001_Node000005"><a xlink:title=" ">
<path fill="none" stroke="#63b8ff" d="M1045.07,-249.94C1031.64,-288.37 1000.93,-362.1 951,-405 947.36,-408.13 943.34,-410.94 939.12,-413.46"/>
<polygon fill="#63b8ff" stroke="#63b8ff" points="1048.51,-250.69 1048.4,-240.09 1041.88,-248.45 1048.51,-250.69"/>
</a>
</g>
</g>
<!-- Node6 -->
<g id="Node000006" class="node">
<title>Node6</title>
<g id="a_Node000006"><a xlink:href="namespacem__mpi__common.html#a8c037ba2780709c25f5f904e47641479" target="_top" xlink:title="The goal of this procedure is to populate the buffers of the cell&#45;average conservative variables by c...">
<polygon fill="white" stroke="#666666" points="941,-395.5 807,-395.5 807,-354.5 941,-354.5 941,-395.5"/>
<text text-anchor="start" x="815" y="-383.5" font-family="Helvetica,sans-Serif" font-size="10.00">m_mpi_common::s_mpi</text>
<text text-anchor="start" x="815" y="-372.5" font-family="Helvetica,sans-Serif" font-size="10.00">_sendrecv_variables</text>
<text text-anchor="middle" x="874" y="-361.5" font-family="Helvetica,sans-Serif" font-size="10.00">_buffers</text>
</a>
</g>
</g>
<!-- Node1&#45;&gt;Node6 -->
<g id="edge5_Node000001_Node000006" class="edge">
<title>Node1&#45;&gt;Node6</title>
<g id="a_edge5_Node000001_Node000006"><a xlink:title=" ">
<path fill="none" stroke="#63b8ff" d="M1038.09,-248.74C1020.27,-275.4 988.16,-318.41 951,-345 946.16,-348.47 940.85,-351.6 935.38,-354.43"/>
<polygon fill="#63b8ff" stroke="#63b8ff" points="1041.02,-250.65 1043.57,-240.37 1035.16,-246.82 1041.02,-250.65"/>
</a>
</g>
</g>
<!-- Node7 -->
<g id="Node000007" class="node">
<title>Node7</title>
<g id="a_Node000007"><a xlink:href="namespacem__mpi__common.html#a4d03f5fc95657b6bec1f89221295b0cc" target="_top" xlink:title="Print a case file error with the prohibited condition and message, then abort execution.">
<polygon fill="white" stroke="#666666" points="950,-336 798,-336 798,-306 950,-306 950,-336"/>
<text text-anchor="start" x="806" y="-324" font-family="Helvetica,sans-Serif" font-size="10.00">m_mpi_common::s_prohibit</text>
<text text-anchor="middle" x="874" y="-313" font-family="Helvetica,sans-Serif" font-size="10.00">_abort</text>
</a>
</g>
</g>
<!-- Node1&#45;&gt;Node7 -->
<g id="edge6_Node000001_Node000007" class="edge">
<title>Node1&#45;&gt;Node7</title>
<g id="a_edge6_Node000001_Node000007"><a xlink:title=" ">
<path fill="none" stroke="#63b8ff" d="M1027.36,-246.49C1007.54,-262.23 978.87,-283.18 951,-297 944.31,-300.32 937.05,-303.31 929.78,-305.95"/>
<polygon fill="#63b8ff" stroke="#63b8ff" points="1029.7,-249.1 1035.29,-240.1 1025.31,-243.65 1029.7,-249.1"/>
</a>
</g>
</g>
<!-- Node8 -->
<g id="Node000008" class="node">
<title>Node8</title>
<g id="a_Node000008"><a xlink:href="namespacem__data__input.html#a888fdc1ceb8dcce14220719df6a6f23f" target="_top" xlink:title="Helper subroutine to read grid data files for a given direction.">
<polygon fill="white" stroke="#666666" points="935,-240 813,-240 813,-210 935,-210 935,-240"/>
<text text-anchor="start" x="821" y="-228" font-family="Helvetica,sans-Serif" font-size="10.00">m_data_input::s_read</text>
<text text-anchor="middle" x="874" y="-217" font-family="Helvetica,sans-Serif" font-size="10.00">_grid_data_direction</text>
</a>
</g>
</g>
<!-- Node1&#45;&gt;Node8 -->
<g id="edge7_Node000001_Node000008" class="edge">
<title>Node1&#45;&gt;Node8</title>
<g id="a_edge7_Node000001_Node000008"><a xlink:title=" ">
<path fill="none" stroke="#63b8ff" d="M976.88,-225C962.9,-225 948.47,-225 935.04,-225"/>
<polygon fill="#63b8ff" stroke="#63b8ff" points="976.97,-228.5 986.97,-225 976.97,-221.5 976.97,-228.5"/>
</a>
</g>
</g>
<!-- Node9 -->
<g id="Node000009" class="node">
<title>Node9</title>
<g id="a_Node000009"><a xlink:href="namespacem__data__input.html#a94700a0b549ac60847be9f4f0ab94adf" target="_top" xlink:title="Read the raw data files present in the corresponding time&#45;step directory and to populate the associat...">
<polygon fill="white" stroke="#666666" points="745,-197 623,-197 623,-167 745,-167 745,-197"/>
<text text-anchor="start" x="631" y="-185" font-family="Helvetica,sans-Serif" font-size="10.00">m_data_input::s_read</text>
<text text-anchor="middle" x="684" y="-174" font-family="Helvetica,sans-Serif" font-size="10.00">_serial_data_files</text>
</a>
</g>
</g>
<!-- Node1&#45;&gt;Node9 -->
<g id="edge23_Node000001_Node000009" class="edge">
<title>Node1&#45;&gt;Node9</title>
<g id="a_edge23_Node000001_Node000009"><a xlink:title=" ">
<path fill="none" stroke="#63b8ff" d="M986.61,-207.76C974.81,-205.16 962.59,-202.77 951,-201 880.86,-190.31 799.37,-185.61 745.26,-183.56"/>
<polygon fill="#63b8ff" stroke="#63b8ff" points="985.87,-211.19 996.4,-209.99 987.42,-204.36 985.87,-211.19"/>
</a>
</g>
</g>
<!-- Node12 -->
<g id="Node000012" class="node">
<title>Node12</title>
<g id="a_Node000012"><a xlink:href="namespacem__data__input.html#af83b04522a4d96faabec6f8142f90e80" target="_top" xlink:title="Helper subroutine to read IB data files.">
<polygon fill="white" stroke="#666666" points="935,-154 813,-154 813,-124 935,-124 935,-154"/>
<text text-anchor="start" x="821" y="-142" font-family="Helvetica,sans-Serif" font-size="10.00">m_data_input::s_read</text>
<text text-anchor="middle" x="874" y="-131" font-family="Helvetica,sans-Serif" font-size="10.00">_ib_data_files</text>
</a>
</g>
</g>
<!-- Node1&#45;&gt;Node12 -->
<g id="edge13_Node000001_Node000012" class="edge">
<title>Node1&#45;&gt;Node12</title>
<g id="a_edge13_Node000001_Node000012"><a xlink:title=" ">
<path fill="none" stroke="#63b8ff" d="M1019.54,-204.68C999.93,-193.19 974.48,-178.97 951,-168 940.38,-163.04 928.66,-158.25 917.66,-154.03"/>
<polygon fill="#63b8ff" stroke="#63b8ff" points="1017.99,-207.83 1028.38,-209.91 1021.55,-201.81 1017.99,-207.83"/>
</a>
</g>
</g>
<!-- Node13 -->
<g id="Node000013" class="node">
<title>Node13</title>
<g id="a_Node000013"><a xlink:href="namespacem__data__input.html#a5139fe69b24a1dc0e32b632e9bf5d0ee" target="_top" xlink:title="Helper subroutine to read parallel conservative variable data.">
<polygon fill="white" stroke="#666666" points="761,-116 607,-116 607,-86 761,-86 761,-116"/>
<text text-anchor="start" x="615" y="-104" font-family="Helvetica,sans-Serif" font-size="10.00">m_data_input::s_read</text>
<text text-anchor="middle" x="684" y="-93" font-family="Helvetica,sans-Serif" font-size="10.00">_parallel_conservative_data</text>
</a>
</g>
</g>
<!-- Node1&#45;&gt;Node13 -->
<g id="edge21_Node000001_Node000013" class="edge">
<title>Node1&#45;&gt;Node13</title>
<g id="a_edge21_Node000001_Node000013"><a xlink:title=" ">
<path fill="none" stroke="#63b8ff" d="M1038.96,-201.18C1021.9,-174.77 990.46,-133.47 951,-115 891.63,-87.21 816.46,-85.9 761.18,-90.27"/>
<polygon fill="#63b8ff" stroke="#63b8ff" points="1036.1,-203.22 1044.38,-209.83 1042.04,-199.5 1036.1,-203.22"/>
</a>
</g>
</g>
<!-- Node14 -->
<g id="Node000014" class="node">
<title>Node14</title>
<g id="a_Node000014"><a xlink:href="namespacem__data__input.html#a1e9dfd5c6be77bbfa34abb90c77216b4" target="_top" xlink:title="Parallel&#45;read the raw data files present in the corresponding time&#45;step directory and to populate the...">
<polygon fill="white" stroke="#666666" points="563,-114 441,-114 441,-84 563,-84 563,-114"/>
<text text-anchor="start" x="449" y="-102" font-family="Helvetica,sans-Serif" font-size="10.00">m_data_input::s_read</text>
<text text-anchor="middle" x="502" y="-91" font-family="Helvetica,sans-Serif" font-size="10.00">_parallel_data_files</text>
</a>
</g>
</g>
<!-- Node1&#45;&gt;Node14 -->
<g id="edge22_Node000001_Node000014" class="edge">
<title>Node1&#45;&gt;Node14</title>
<g id="a_edge22_Node000001_Node000014"><a xlink:title=" ">
<path fill="none" stroke="#63b8ff" d="M1043.19,-200.25C1028.62,-167.25 997.85,-110.09 951,-85 818.6,-14.11 631.2,-58.06 546.99,-83.99"/>
<polygon fill="#63b8ff" stroke="#63b8ff" points="1040.06,-201.82 1047.19,-209.66 1046.5,-199.08 1040.06,-201.82"/>
</a>
</g>
</g>
<!-- Node15 -->
<g id="Node000015" class="node">
<title>Node15</title>
<g id="a_Node000015"><a xlink:href="namespacem__start__up.html#a5df8ed5a8e1268f3d48821ee0dd8772a" target="_top" xlink:title="Reads the configuration file post_process.inp, in order to populate parameters in module m_global_par...">
<polygon fill="white" stroke="#666666" points="929,-288 819,-288 819,-258 929,-258 929,-288"/>
<text text-anchor="start" x="827" y="-276" font-family="Helvetica,sans-Serif" font-size="10.00">m_start_up::s_read</text>
<text text-anchor="middle" x="874" y="-265" font-family="Helvetica,sans-Serif" font-size="10.00">_input_file</text>
</a>
</g>
</g>
<!-- Node1&#45;&gt;Node15 -->
<g id="edge19_Node000001_Node000015" class="edge">
<title>Node1&#45;&gt;Node15</title>
<g id="a_edge19_Node000001_Node000015"><a xlink:title=" ">
<path fill="none" stroke="#63b8ff" d="M987.31,-242.71C968.16,-247.88 947.46,-253.46 929.11,-258.41"/>
<polygon fill="#63b8ff" stroke="#63b8ff" points="988.42,-246.04 997.17,-240.06 986.6,-239.28 988.42,-246.04"/>
</a>
</g>
</g>
<!-- Node16 -->
<g id="Node000016" class="node">
<title>Node16</title>
<g id="a_Node000016"><a xlink:href="namespacem__start__up.html#a742dab7988fbf7098faea99c924cfe74" target="_top" xlink:title="Fill outq_sf from src (if given), write varname to the database, and clear varname.">
<polygon fill="white" stroke="#666666" points="930.5,-30 817.5,-30 817.5,0 930.5,0 930.5,-30"/>
<text text-anchor="start" x="825.5" y="-18" font-family="Helvetica,sans-Serif" font-size="10.00">m_start_up::s_write</text>
<text text-anchor="middle" x="874" y="-7" font-family="Helvetica,sans-Serif" font-size="10.00">_field</text>
</a>
</g>
</g>
<!-- Node1&#45;&gt;Node16 -->
<g id="edge24_Node000001_Node000016" class="edge">
<title>Node1&#45;&gt;Node16</title>
<g id="a_edge24_Node000001_Node000016"><a xlink:title=" ">
<path fill="none" stroke="#63b8ff" d="M1045.11,-199.92C1031.73,-161.28 1001.09,-87.14 951,-44 944.47,-38.38 936.74,-33.79 928.75,-30.06"/>
<polygon fill="#63b8ff" stroke="#63b8ff" points="1041.93,-201.45 1048.42,-209.82 1048.57,-199.23 1041.93,-201.45"/>
</a>
</g>
</g>
<!-- Node3 -->
<g id="Node000003" class="node">
<title>Node3</title>
<g id="a_Node000003"><a xlink:href="namespacem__start__up.html#a43f2e386d1bd2f0f6212f31a97542b96" target="_top" xlink:title="Set up the MPI environment, read and broadcast user inputs, and decompose the computational domain.">
<polygon fill="white" stroke="#666666" points="749,-288 619,-288 619,-258 749,-258 749,-288"/>
<text text-anchor="start" x="627" y="-276" font-family="Helvetica,sans-Serif" font-size="10.00">m_start_up::s_initialize</text>
<text text-anchor="middle" x="684" y="-265" font-family="Helvetica,sans-Serif" font-size="10.00">_mpi_domain</text>
</a>
</g>
</g>
<!-- Node2&#45;&gt;Node3 -->
<g id="edge2_Node000002_Node000003" class="edge">
<title>Node2&#45;&gt;Node3</title>
<g id="a_edge2_Node000002_Node000003"><a xlink:title=" ">
<path fill="none" stroke="#63b8ff" d="M806.9,-470.64C803.41,-468.66 800.08,-466.45 797,-464 736.14,-415.47 701.48,-324.21 689.66,-288.18"/>
<polygon fill="#63b8ff" stroke="#63b8ff" points="805.34,-473.77 815.85,-475.11 808.47,-467.51 805.34,-473.77"/>
</a>
</g>
</g>
<!-- Node4 -->
<g id="Node000004" class="node">
<title>Node4</title>
<g id="a_Node000004"><a xlink:href="p__main_8fpp_8f90.html#aeec10ee8e2940c953967da3e374e1579" target="_top" xlink:title="Post&#45;process raw simulation data into formatted database files (Silo&#45;HDF5 or Binary).">
<polygon fill="white" stroke="#666666" points="53,-149.5 0,-149.5 0,-130.5 53,-130.5 53,-149.5"/>
<text text-anchor="middle" x="26.5" y="-137.5" font-family="Helvetica,sans-Serif" font-size="10.00">p_main</text>
</a>
</g>
</g>
<!-- Node3&#45;&gt;Node4 -->
<g id="edge3_Node000003_Node000004" class="edge">
<title>Node3&#45;&gt;Node4</title>
<g id="a_edge3_Node000003_Node000004"><a xlink:title=" ">
<path fill="none" stroke="#63b8ff" d="M608.82,-264.01C495.36,-249.24 272.57,-216.14 89,-164 75.44,-160.15 60.71,-154.46 49.07,-149.58"/>
<polygon fill="#63b8ff" stroke="#63b8ff" points="608.42,-267.49 618.79,-265.3 609.32,-260.55 608.42,-267.49"/>
</a>
</g>
</g>
<!-- Node8&#45;&gt;Node9 -->
<g id="edge8_Node000008_Node000009" class="edge">
<title>Node8&#45;&gt;Node9</title>
<g id="a_edge8_Node000008_Node000009"><a xlink:title=" ">
<path fill="none" stroke="#63b8ff" d="M803.17,-209.03C784.08,-204.66 763.57,-199.97 745.08,-195.74"/>
<polygon fill="#63b8ff" stroke="#63b8ff" points="802.47,-212.46 813,-211.28 804.03,-205.63 802.47,-212.46"/>
</a>
</g>
</g>
<!-- Node10 -->
<g id="Node000010" class="node">
<title>Node10</title>
<g id="a_Node000010"><a xlink:href="namespacem__data__input.html#a5746c07ce2bd024e906a721e6552443f" target="_top" xlink:title="Computation of parameters, allocation procedures, and/or any other tasks needed to properly setup the...">
<polygon fill="white" stroke="#666666" points="397,-155 255,-155 255,-125 397,-125 397,-155"/>
<text text-anchor="start" x="263" y="-143" font-family="Helvetica,sans-Serif" font-size="10.00">m_data_input::s_initialize</text>
<text text-anchor="middle" x="326" y="-132" font-family="Helvetica,sans-Serif" font-size="10.00">_data_input_module</text>
</a>
</g>
</g>
<!-- Node9&#45;&gt;Node10 -->
<g id="edge9_Node000009_Node000010" class="edge">
<title>Node9&#45;&gt;Node10</title>
<g id="a_edge9_Node000009_Node000010"><a xlink:title=" ">
<path fill="none" stroke="#63b8ff" d="M612.46,-173.68C550.05,-166.31 459.47,-155.63 397.17,-148.28"/>
<polygon fill="#63b8ff" stroke="#63b8ff" points="612.27,-177.18 622.61,-174.88 613.09,-170.23 612.27,-177.18"/>
</a>
</g>
</g>
<!-- Node11 -->
<g id="Node000011" class="node">
<title>Node11</title>
<g id="a_Node000011"><a xlink:href="namespacem__start__up.html#aea20fb8945d467b344a487cfe8213d99" target="_top" xlink:title="Initialize all post&#45;process sub&#45;modules, set up I/O pointers, and prepare FFTW plans and MPI communic...">
<polygon fill="white" stroke="#666666" points="219,-155 89,-155 89,-125 219,-125 219,-155"/>
<text text-anchor="start" x="97" y="-143" font-family="Helvetica,sans-Serif" font-size="10.00">m_start_up::s_initialize</text>
<text text-anchor="middle" x="154" y="-132" font-family="Helvetica,sans-Serif" font-size="10.00">_modules</text>
</a>
</g>
</g>
<!-- Node9&#45;&gt;Node11 -->
<g id="edge12_Node000009_Node000011" class="edge">
<title>Node9&#45;&gt;Node11</title>
<g id="a_edge12_Node000009_Node000011"><a xlink:title=" ">
<path fill="none" stroke="#63b8ff" d="M612.71,-183.19C527.6,-183.69 380.1,-181.47 255,-164 239.97,-161.9 223.9,-158.55 209.13,-155.01"/>
<polygon fill="#63b8ff" stroke="#63b8ff" points="612.8,-186.69 622.77,-183.12 612.75,-179.69 612.8,-186.69"/>
</a>
</g>
</g>
<!-- Node10&#45;&gt;Node11 -->
<g id="edge10_Node000010_Node000011" class="edge">
<title>Node10&#45;&gt;Node11</title>
<g id="a_edge10_Node000010_Node000011"><a xlink:title=" ">
<path fill="none" stroke="#63b8ff" d="M244.85,-140C236.26,-140 227.61,-140 219.24,-140"/>
<polygon fill="#63b8ff" stroke="#63b8ff" points="244.87,-143.5 254.87,-140 244.87,-136.5 244.87,-143.5"/>
</a>
</g>
</g>
<!-- Node11&#45;&gt;Node4 -->
<g id="edge11_Node000011_Node000004" class="edge">
<title>Node11&#45;&gt;Node4</title>
<g id="a_edge11_Node000011_Node000004"><a xlink:title=" ">
<path fill="none" stroke="#63b8ff" d="M78.74,-140C69.58,-140 60.76,-140 53.09,-140"/>
<polygon fill="#63b8ff" stroke="#63b8ff" points="78.78,-143.5 88.78,-140 78.78,-136.5 78.78,-143.5"/>
</a>
</g>
</g>
<!-- Node12&#45;&gt;Node9 -->
<g id="edge18_Node000012_Node000009" class="edge">
<title>Node12&#45;&gt;Node9</title>
<g id="a_edge18_Node000012_Node000009"><a xlink:title=" ">
<path fill="none" stroke="#63b8ff" d="M803.17,-154.97C784.08,-159.34 763.57,-164.03 745.08,-168.26"/>
<polygon fill="#63b8ff" stroke="#63b8ff" points="804.03,-158.37 813,-152.72 802.47,-151.54 804.03,-158.37"/>
</a>
</g>
</g>
<!-- Node12&#45;&gt;Node13 -->
<g id="edge14_Node000012_Node000013" class="edge">
<title>Node12&#45;&gt;Node13</title>
<g id="a_edge14_Node000012_Node000013"><a xlink:title=" ">
<path fill="none" stroke="#63b8ff" d="M802.81,-124.81C788.6,-121.94 773.61,-118.91 759.27,-116.01"/>
<polygon fill="#63b8ff" stroke="#63b8ff" points="802.5,-128.32 813,-126.87 803.89,-121.46 802.5,-128.32"/>
</a>
</g>
</g>
<!-- Node13&#45;&gt;Node14 -->
<g id="edge15_Node000013_Node000014" class="edge">
<title>Node13&#45;&gt;Node14</title>
<g id="a_edge15_Node000013_Node000014"><a xlink:title=" ">
<path fill="none" stroke="#63b8ff" d="M596.61,-100.04C585.33,-99.91 573.97,-99.79 563.25,-99.67"/>
<polygon fill="#63b8ff" stroke="#63b8ff" points="596.89,-103.54 606.92,-100.15 596.96,-96.54 596.89,-103.54"/>
</a>
</g>
</g>
<!-- Node14&#45;&gt;Node10 -->
<g id="edge16_Node000014_Node000010" class="edge">
<title>Node14&#45;&gt;Node10</title>
<g id="a_edge16_Node000014_Node000010"><a xlink:title=" ">
<path fill="none" stroke="#63b8ff" d="M430.68,-115.57C417.5,-118.68 403.78,-121.91 390.81,-124.96"/>
<polygon fill="#63b8ff" stroke="#63b8ff" points="431.7,-118.93 440.63,-113.22 430.1,-112.11 431.7,-118.93"/>
</a>
</g>
</g>
<!-- Node14&#45;&gt;Node11 -->
<g id="edge17_Node000014_Node000011" class="edge">
<title>Node14&#45;&gt;Node11</title>
<g id="a_edge17_Node000014_Node000011"><a xlink:title=" ">
<path fill="none" stroke="#63b8ff" d="M430.54,-100.76C381.16,-102.75 313.76,-106.98 255,-116 240.44,-118.23 224.88,-121.52 210.48,-124.95"/>
<polygon fill="#63b8ff" stroke="#63b8ff" points="430.93,-104.24 440.79,-100.37 430.66,-97.25 430.93,-104.24"/>
</a>
</g>
</g>
<!-- Node15&#45;&gt;Node3 -->
<g id="edge20_Node000015_Node000003" class="edge">
<title>Node15&#45;&gt;Node3</title>
<g id="a_edge20_Node000015_Node000003"><a xlink:title=" ">
<path fill="none" stroke="#63b8ff" d="M808.69,-273C789.42,-273 768.29,-273 749.04,-273"/>
<polygon fill="#63b8ff" stroke="#63b8ff" points="808.87,-276.5 818.87,-273 808.87,-269.5 808.87,-276.5"/>
</a>
</g>
</g>
<!-- Node17 -->
<g id="Node000017" class="node">
<title>Node17</title>
<g id="a_Node000017"><a xlink:href="namespacem__start__up.html#a029c0f28f15ce3aab7ada6d95db89688" target="_top" xlink:title="Derive requested flow quantities from primitive variables and write them to the formatted database fi...">
<polygon fill="white" stroke="#666666" points="571,-40.5 433,-40.5 433,-21.5 571,-21.5 571,-40.5"/>
<text text-anchor="middle" x="502" y="-28.5" font-family="Helvetica,sans-Serif" font-size="10.00">m_start_up::s_save_data</text>
</a>
</g>
</g>
<!-- Node16&#45;&gt;Node17 -->
<g id="edge25_Node000016_Node000017" class="edge">
<title>Node16&#45;&gt;Node17</title>
<g id="a_edge25_Node000016_Node000017"><a xlink:title=" ">
<path fill="none" stroke="#63b8ff" d="M806.85,-17.86C740.38,-20.73 638.41,-25.14 571.22,-28.05"/>
<polygon fill="#63b8ff" stroke="#63b8ff" points="807.37,-21.34 817.21,-17.41 807.06,-14.35 807.37,-21.34"/>
</a>
</g>
</g>
<!-- Node17&#45;&gt;Node4 -->
<g id="edge26_Node000017_Node000004" class="edge">
<title>Node17&#45;&gt;Node4</title>
<g id="a_edge26_Node000017_Node000004"><a xlink:title=" ">
<path fill="none" stroke="#63b8ff" d="M428.33,-42.18C345.3,-55.82 205.81,-81.43 89,-116 75.59,-119.97 61,-125.61 49.39,-130.42"/>
<polygon fill="#63b8ff" stroke="#63b8ff" points="429.12,-45.6 438.42,-40.53 427.99,-38.69 429.12,-45.6"/>
</a>
</g>
</g>
</g>
</svg>
