<?xml version="1.0" encoding="UTF-8" standalone="no"?>
<!DOCTYPE svg PUBLIC "-//W3C//DTD SVG 1.1//EN"
 "http://www.w3.org/Graphics/SVG/1.1/DTD/svg11.dtd">
<!-- Generated by graphviz version 2.43.0 (0)
 -->
<!-- Title: m_data_input::s_read_parallel_data_files Pages: 1 -->
<svg width="737pt" height="574pt"
 viewBox="0.00 0.00 737.00 574.00" xmlns="http://www.w3.org/2000/svg" xmlns:xlink="http://www.w3.org/1999/xlink">
<g id="graph0" class="graph" transform="scale(1 1) rotate(0) translate(4 570)">
<title>m_data_input::s_read_parallel_data_files</title>
<!-- Node1 -->
<g id="Node000001" class="node">
<title>Node1</title>
<g id="a_Node000001"><a xlink:title="Parallel&#45;read the raw data files present in the corresponding time&#45;step directory and to populate the...">
<polygon fill="#999999" stroke="#666666" points="122,-475 0,-475 0,-445 122,-445 122,-475"/>
<text text-anchor="start" x="8" y="-463" font-family="Helvetica,sans-Serif" font-size="10.00">m_data_input::s_read</text>
<text text-anchor="middle" x="61" y="-452" font-family="Helvetica,sans-Serif" font-size="10.00">_parallel_data_files</text>
</a>
</g>
</g>
<!-- Node2 -->
<g id="Node000002" class="node">
<title>Node2</title>
<g id="a_Node000002"><a xlink:href="namespacem__mpi__common.html#a60205c097faf19c0240af2eb40b28fee" target="_top" xlink:title="Populate the local cell&#45;boundary, cell&#45;center, and cell&#45;width arrays in one direction directly from t...">
<polygon fill="white" stroke="#666666" points="321.5,-566 179.5,-566 179.5,-536 321.5,-536 321.5,-566"/>
<text text-anchor="start" x="187.5" y="-554" font-family="Helvetica,sans-Serif" font-size="10.00">m_mpi_common::s_apply</text>
<text text-anchor="middle" x="250.5" y="-543" font-family="Helvetica,sans-Serif" font-size="10.00">_grid_from_global_dim</text>
</a>
</g>
</g>
<!-- Node1&#45;&gt;Node2 -->
<g id="edge1_Node000001_Node000002" class="edge">
<title>Node1&#45;&gt;Node2</title>
<g id="a_edge1_Node000001_Node000002"><a xlink:title=" ">
<path fill="none" stroke="#63b8ff" d="M79.58,-475.16C97.98,-490.31 128.3,-513.27 158,-527 162.34,-529 166.87,-530.86 171.5,-532.58"/>
<polygon fill="#63b8ff" stroke="#63b8ff" points="170.51,-535.94 181.1,-535.92 172.81,-529.33 170.51,-535.94"/>
</a>
</g>
</g>
<!-- Node3 -->
<g id="Node000003" class="node">
<title>Node3</title>
<g id="a_Node000003"><a xlink:href="namespacem__boundary__io.html#a54cc36c0c0b8f86ec53db19e98570fc7" target="_top" xlink:title="Initialize the per&#45;cell boundary condition type arrays with the global default BC values.">
<polygon fill="white" stroke="#666666" points="320.5,-518 180.5,-518 180.5,-488 320.5,-488 320.5,-518"/>
<text text-anchor="start" x="188.5" y="-506" font-family="Helvetica,sans-Serif" font-size="10.00">m_boundary_io::s_assign</text>
<text text-anchor="middle" x="250.5" y="-495" font-family="Helvetica,sans-Serif" font-size="10.00">_default_bc_type</text>
</a>
</g>
</g>
<!-- Node1&#45;&gt;Node3 -->
<g id="edge2_Node000001_Node000003" class="edge">
<title>Node1&#45;&gt;Node3</title>
<g id="a_edge2_Node000001_Node000003"><a xlink:title=" ">
<path fill="none" stroke="#63b8ff" d="M122.1,-473.78C138.58,-477.56 156.65,-481.71 173.88,-485.66"/>
<polygon fill="#63b8ff" stroke="#63b8ff" points="173.37,-489.13 183.9,-487.96 174.94,-482.31 173.37,-489.13"/>
</a>
</g>
</g>
<!-- Node4 -->
<g id="Node000004" class="node">
<title>Node4</title>
<g id="a_Node000004"><a xlink:href="namespacem__mpi__common.html#a04cfc0bdb377a0ce2f9fd478e4bb3807" target="_top" xlink:title="The subroutine terminates the MPI execution environment.">
<polygon fill="white" stroke="#666666" points="717.5,-202 583.5,-202 583.5,-172 717.5,-172 717.5,-202"/>
<text text-anchor="start" x="591.5" y="-190" font-family="Helvetica,sans-Serif" font-size="10.00">m_mpi_common::s_mpi</text>
<text text-anchor="middle" x="650.5" y="-179" font-family="Helvetica,sans-Serif" font-size="10.00">_abort</text>
</a>
</g>
</g>
<!-- Node1&#45;&gt;Node4 -->
<g id="edge3_Node000001_Node000004" class="edge">
<title>Node1&#45;&gt;Node4</title>
<g id="a_edge3_Node000001_Node000004"><a xlink:title=" ">
<path fill="none" stroke="#63b8ff" d="M122.03,-465.21C234.2,-473.73 470.2,-485.57 536,-441 614.96,-387.52 639.64,-265.43 646.8,-212.39"/>
<polygon fill="#63b8ff" stroke="#63b8ff" points="650.31,-212.52 648.07,-202.16 643.36,-211.65 650.31,-212.52"/>
</a>
</g>
</g>
<!-- Node5 -->
<g id="Node000005" class="node">
<title>Node5</title>
<g id="a_Node000005"><a xlink:href="namespacem__boundary__io.html#ab6281588667a9843f9e3829c2a68c851" target="_top" xlink:title="Read boundary condition type and buffer data from per&#45;rank parallel files using MPI I/O.">
<polygon fill="white" stroke="#666666" points="343,-408 158,-408 158,-378 343,-378 343,-408"/>
<text text-anchor="start" x="166" y="-396" font-family="Helvetica,sans-Serif" font-size="10.00">m_boundary_io::s_read</text>
<text text-anchor="middle" x="250.5" y="-385" font-family="Helvetica,sans-Serif" font-size="10.00">_parallel_boundary_condition_files</text>
</a>
</g>
</g>
<!-- Node1&#45;&gt;Node5 -->
<g id="edge4_Node000001_Node000005" class="edge">
<title>Node1&#45;&gt;Node5</title>
<g id="a_edge4_Node000001_Node000005"><a xlink:title=" ">
<path fill="none" stroke="#63b8ff" d="M104.08,-444.96C131.73,-435.08 168.09,-422.09 197.54,-411.57"/>
<polygon fill="#63b8ff" stroke="#63b8ff" points="199,-414.76 207.24,-408.1 196.64,-408.17 199,-414.76"/>
</a>
</g>
</g>
<!-- Node9 -->
<g id="Node000009" class="node">
<title>Node9</title>
<g id="a_Node000009"><a xlink:href="namespacem__data__input.html#a5139fe69b24a1dc0e32b632e9bf5d0ee" target="_top" xlink:title="Helper subroutine to read parallel conservative variable data.">
<polygon fill="white" stroke="#666666" points="327.5,-181 173.5,-181 173.5,-151 327.5,-151 327.5,-181"/>
<text text-anchor="start" x="181.5" y="-169" font-family="Helvetica,sans-Serif" font-size="10.00">m_data_input::s_read</text>
<text text-anchor="middle" x="250.5" y="-158" font-family="Helvetica,sans-Serif" font-size="10.00">_parallel_conservative_data</text>
</a>
</g>
</g>
<!-- Node1&#45;&gt;Node9 -->
<g id="edge8_Node000001_Node000009" class="edge">
<title>Node1&#45;&gt;Node9</title>
<g id="a_edge8_Node000001_Node000009"><a xlink:title=" ">
<path fill="none" stroke="#63b8ff" d="M71.82,-444.61C102.57,-396.38 197.21,-247.99 234.33,-189.78"/>
<polygon fill="#63b8ff" stroke="#63b8ff" points="237.35,-191.55 239.78,-181.24 231.45,-187.79 237.35,-191.55"/>
</a>
</g>
</g>
<!-- Node6 -->
<g id="Node000006" class="node">
<title>Node6</title>
<g id="a_Node000006"><a xlink:href="namespacem__delay__file__access.html#a9b90086a2cf6bbb569047c955d2e67fe" target="_top" xlink:title="Introduce a rank&#45;dependent busy&#45;wait delay to stagger parallel file access and reduce I/O contention.">
<polygon fill="white" stroke="#666666" points="516,-336 399,-336 399,-306 516,-306 516,-336"/>
<text text-anchor="start" x="407" y="-324" font-family="Helvetica,sans-Serif" font-size="10.00">m_delay_file_access</text>
<text text-anchor="middle" x="457.5" y="-313" font-family="Helvetica,sans-Serif" font-size="10.00">::delayfileaccess</text>
</a>
</g>
</g>
<!-- Node5&#45;&gt;Node6 -->
<g id="edge5_Node000005_Node000006" class="edge">
<title>Node5&#45;&gt;Node6</title>
<g id="a_edge5_Node000005_Node000006"><a xlink:title=" ">
<path fill="none" stroke="#63b8ff" d="M289.78,-377.91C314.99,-368.13 348.79,-355.35 379,-345 384.63,-343.07 390.52,-341.12 396.42,-339.22"/>
<polygon fill="#63b8ff" stroke="#63b8ff" points="397.87,-342.43 406.33,-336.06 395.74,-335.76 397.87,-342.43"/>
</a>
</g>
</g>
<!-- Node7 -->
<g id="Node000007" class="node">
<title>Node7</title>
<g id="a_Node000007"><a xlink:href="namespacem__compile__specific.html#a9cf8c029e502931415929734c03f340d" target="_top" xlink:title="Inquire on the existence of a directory or file.">
<polygon fill="white" stroke="#666666" points="514,-432 401,-432 401,-402 514,-402 514,-432"/>
<text text-anchor="start" x="409" y="-420" font-family="Helvetica,sans-Serif" font-size="10.00">m_compile_specific</text>
<text text-anchor="middle" x="457.5" y="-409" font-family="Helvetica,sans-Serif" font-size="10.00">::my_inquire</text>
</a>
</g>
</g>
<!-- Node5&#45;&gt;Node7 -->
<g id="edge6_Node000005_Node000007" class="edge">
<title>Node5&#45;&gt;Node7</title>
<g id="a_edge6_Node000005_Node000007"><a xlink:title=" ">
<path fill="none" stroke="#63b8ff" d="M343.21,-403.74C359.14,-405.6 375.43,-407.51 390.51,-409.27"/>
<polygon fill="#63b8ff" stroke="#63b8ff" points="390.4,-412.78 400.74,-410.47 391.21,-405.83 390.4,-412.78"/>
</a>
</g>
</g>
<!-- Node8 -->
<g id="Node000008" class="node">
<title>Node8</title>
<g id="a_Node000008"><a xlink:href="namespacem__boundary__io.html#a74922617e3b2c7a414056d32bc6aa14d" target="_top" xlink:title="Create MPI derived datatypes for boundary condition type arrays and buffer arrays used in parallel I/...">
<polygon fill="white" stroke="#666666" points="527,-384 388,-384 388,-354 527,-354 527,-384"/>
<text text-anchor="start" x="396" y="-372" font-family="Helvetica,sans-Serif" font-size="10.00">m_boundary_io::s_create</text>
<text text-anchor="middle" x="457.5" y="-361" font-family="Helvetica,sans-Serif" font-size="10.00">_mpi_types</text>
</a>
</g>
</g>
<!-- Node5&#45;&gt;Node8 -->
<g id="edge7_Node000005_Node000008" class="edge">
<title>Node5&#45;&gt;Node8</title>
<g id="a_edge7_Node000005_Node000008"><a xlink:title=" ">
<path fill="none" stroke="#63b8ff" d="M343.21,-382.26C354.72,-380.92 366.41,-379.55 377.69,-378.23"/>
<polygon fill="#63b8ff" stroke="#63b8ff" points="378.4,-381.67 387.93,-377.03 377.59,-374.71 378.4,-381.67"/>
</a>
</g>
</g>
<!-- Node9&#45;&gt;Node4 -->
<g id="edge12_Node000009_Node000004" class="edge">
<title>Node9&#45;&gt;Node4</title>
<g id="a_edge12_Node000009_Node000004"><a xlink:title=" ">
<path fill="none" stroke="#63b8ff" d="M327.8,-160.47C385.21,-157.45 465.75,-155.65 536,-163 550.32,-164.5 565.5,-167.03 579.93,-169.9"/>
<polygon fill="#63b8ff" stroke="#63b8ff" points="579.29,-173.34 589.79,-171.94 580.7,-166.49 579.29,-173.34"/>
</a>
</g>
</g>
<!-- Node10 -->
<g id="Node000010" class="node">
<title>Node10</title>
<g id="a_Node000010"><a xlink:href="namespacem__mpi__common.html#a2e27b3212956af624c8da826f0c2c529" target="_top" xlink:title="Set up MPI I/O data views and variable pointers for parallel file output.">
<polygon fill="white" stroke="#666666" points="729,-95 572,-95 572,-65 729,-65 729,-95"/>
<text text-anchor="start" x="580" y="-83" font-family="Helvetica,sans-Serif" font-size="10.00">m_mpi_common::s_initialize</text>
<text text-anchor="middle" x="650.5" y="-72" font-family="Helvetica,sans-Serif" font-size="10.00">_mpi_data</text>
</a>
</g>
</g>
<!-- Node9&#45;&gt;Node10 -->
<g id="edge9_Node000009_Node000010" class="edge">
<title>Node9&#45;&gt;Node10</title>
<g id="a_edge9_Node000009_Node000010"><a xlink:title=" ">
<path fill="none" stroke="#63b8ff" d="M266.28,-150.98C288.44,-129.66 332.65,-91.58 379,-77 437.92,-58.47 507.7,-59.77 561.63,-65.42"/>
<polygon fill="#63b8ff" stroke="#63b8ff" points="561.52,-68.93 571.85,-66.56 562.3,-61.97 561.52,-68.93"/>
</a>
</g>
</g>
<!-- Node11 -->
<g id="Node000011" class="node">
<title>Node11</title>
<g id="a_Node000011"><a xlink:href="namespacem__mpi__common.html#a564644bad898d940dc6caea3297bb424" target="_top" xlink:title="Set up MPI I/O data views for downsampled (coarsened) parallel file output.">
<polygon fill="white" stroke="#666666" points="536,-30 379,-30 379,0 536,0 536,-30"/>
<text text-anchor="start" x="387" y="-18" font-family="Helvetica,sans-Serif" font-size="10.00">m_mpi_common::s_initialize</text>
<text text-anchor="middle" x="457.5" y="-7" font-family="Helvetica,sans-Serif" font-size="10.00">_mpi_data_ds</text>
</a>
</g>
</g>
<!-- Node9&#45;&gt;Node11 -->
<g id="edge10_Node000009_Node000011" class="edge">
<title>Node9&#45;&gt;Node11</title>
<g id="a_edge10_Node000009_Node000011"><a xlink:title=" ">
<path fill="none" stroke="#63b8ff" d="M263.72,-150.83C284.81,-125.52 330.48,-74.47 379,-44 384.8,-40.36 391.14,-37.06 397.6,-34.12"/>
<polygon fill="#63b8ff" stroke="#63b8ff" points="399.29,-37.2 407.11,-30.05 396.54,-30.76 399.29,-37.2"/>
</a>
</g>
</g>
<!-- Node12 -->
<g id="Node000012" class="node">
<title>Node12</title>
<g id="a_Node000012"><a xlink:href="namespacem__helper.html#afd343d70a36c65cb7be86a183aa594ac" target="_top" xlink:title="Convert an integer to its trimmed string representation.">
<polygon fill="white" stroke="#666666" points="520,-287.5 395,-287.5 395,-268.5 520,-268.5 520,-287.5"/>
<text text-anchor="middle" x="457.5" y="-275.5" font-family="Helvetica,sans-Serif" font-size="10.00">m_helper::s_int_to_str</text>
</a>
</g>
</g>
<!-- Node9&#45;&gt;Node12 -->
<g id="edge11_Node000009_Node000012" class="edge">
<title>Node9&#45;&gt;Node12</title>
<g id="a_edge11_Node000009_Node000012"><a xlink:title=" ">
<path fill="none" stroke="#63b8ff" d="M267.87,-181.26C290.91,-201.92 335.03,-238.55 379,-259 384.23,-261.43 389.81,-263.58 395.49,-265.46"/>
<polygon fill="#63b8ff" stroke="#63b8ff" points="394.5,-268.82 405.09,-268.39 396.55,-262.12 394.5,-268.82"/>
</a>
</g>
</g>
<!-- Node13 -->
<g id="Node000013" class="node">
<title>Node13</title>
<g id="a_Node000013"><a xlink:href="namespacem__mpi__common.html#a1073fc1fcb6f3b9394606d5c9285e9f0" target="_top" xlink:title="Halts all processes until all have reached barrier.">
<polygon fill="white" stroke="#666666" points="524.5,-250 390.5,-250 390.5,-220 524.5,-220 524.5,-250"/>
<text text-anchor="start" x="398.5" y="-238" font-family="Helvetica,sans-Serif" font-size="10.00">m_mpi_common::s_mpi</text>
<text text-anchor="middle" x="457.5" y="-227" font-family="Helvetica,sans-Serif" font-size="10.00">_barrier</text>
</a>
</g>
</g>
<!-- Node9&#45;&gt;Node13 -->
<g id="edge13_Node000009_Node000013" class="edge">
<title>Node9&#45;&gt;Node13</title>
<g id="a_edge13_Node000009_Node000013"><a xlink:title=" ">
<path fill="none" stroke="#63b8ff" d="M292.7,-181C317.61,-189.95 350.03,-201.41 379,-211 384.88,-212.95 391.02,-214.93 397.17,-216.89"/>
<polygon fill="#63b8ff" stroke="#63b8ff" points="396.21,-220.25 406.8,-219.92 398.31,-213.58 396.21,-220.25"/>
</a>
</g>
</g>
<!-- Node14 -->
<g id="Node000014" class="node">
<title>Node14</title>
<g id="a_Node000014"><a xlink:href="namespacem__data__input.html#af83b04522a4d96faabec6f8142f90e80" target="_top" xlink:title="Helper subroutine to read IB data files.">
<polygon fill="white" stroke="#666666" points="518.5,-202 396.5,-202 396.5,-172 518.5,-172 518.5,-202"/>
<text text-anchor="start" x="404.5" y="-190" font-family="Helvetica,sans-Serif" font-size="10.00">m_data_input::s_read</text>
<text text-anchor="middle" x="457.5" y="-179" font-family="Helvetica,sans-Serif" font-size="10.00">_ib_data_files</text>
</a>
</g>
</g>
<!-- Node9&#45;&gt;Node14 -->
<g id="edge14_Node000009_Node000014" class="edge">
<title>Node9&#45;&gt;Node14</title>
<g id="a_edge14_Node000009_Node000014"><a xlink:title=" ">
<path fill="none" stroke="#63b8ff" d="M327.54,-173.79C346.76,-175.76 367.32,-177.86 386.24,-179.8"/>
<polygon fill="#63b8ff" stroke="#63b8ff" points="385.96,-183.29 396.27,-180.83 386.67,-176.33 385.96,-183.29"/>
</a>
</g>
</g>
<!-- Node15 -->
<g id="Node000015" class="node">
<title>Node15</title>
<g id="a_Node000015"><a xlink:href="namespacem__data__input.html#a6e65911baddf566b7a796fadcea57495" target="_top" xlink:title="Helper subroutine to setup MPI data I/O parameters.">
<polygon fill="white" stroke="#666666" points="521,-116 394,-116 394,-86 521,-86 521,-116"/>
<text text-anchor="start" x="402" y="-104" font-family="Helvetica,sans-Serif" font-size="10.00">m_data_input::s_setup</text>
<text text-anchor="middle" x="457.5" y="-93" font-family="Helvetica,sans-Serif" font-size="10.00">_mpi_io_params</text>
</a>
</g>
</g>
<!-- Node9&#45;&gt;Node15 -->
<g id="edge16_Node000009_Node000015" class="edge">
<title>Node9&#45;&gt;Node15</title>
<g id="a_edge16_Node000009_Node000015"><a xlink:title=" ">
<path fill="none" stroke="#63b8ff" d="M299.05,-150.92C328.95,-141.44 367.72,-129.15 399.3,-119.14"/>
<polygon fill="#63b8ff" stroke="#63b8ff" points="400.38,-122.47 408.86,-116.11 398.27,-115.79 400.38,-122.47"/>
</a>
</g>
</g>
<!-- Node14&#45;&gt;Node4 -->
<g id="edge15_Node000014_Node000004" class="edge">
<title>Node14&#45;&gt;Node4</title>
<g id="a_edge15_Node000014_Node000004"><a xlink:title=" ">
<path fill="none" stroke="#63b8ff" d="M518.67,-187C535.94,-187 554.99,-187 573.1,-187"/>
<polygon fill="#63b8ff" stroke="#63b8ff" points="573.33,-190.5 583.33,-187 573.33,-183.5 573.33,-190.5"/>
</a>
</g>
</g>
<!-- Node15&#45;&gt;Node10 -->
<g id="edge17_Node000015_Node000010" class="edge">
<title>Node15&#45;&gt;Node10</title>
<g id="a_edge17_Node000015_Node000010"><a xlink:title=" ">
<path fill="none" stroke="#63b8ff" d="M521.04,-94.12C534.09,-92.69 548.06,-91.15 561.83,-89.64"/>
<polygon fill="#63b8ff" stroke="#63b8ff" points="562.23,-93.12 571.79,-88.54 561.47,-86.16 562.23,-93.12"/>
</a>
</g>
</g>
</g>
</svg>
