<?xml version="1.0" encoding="UTF-8" standalone="no"?>
<!DOCTYPE svg PUBLIC "-//W3C//DTD SVG 1.1//EN"
 "http://www.w3.org/Graphics/SVG/1.1/DTD/svg11.dtd">
<!-- Generated by graphviz version 2.43.0 (0)
 -->
<!-- Title: m_checker::s_check_inputs Pages: 1 -->
<svg width="633pt" height="422pt"
 viewBox="0.00 0.00 633.00 422.00" xmlns="http://www.w3.org/2000/svg" xmlns:xlink="http://www.w3.org/1999/xlink">
<g id="graph0" class="graph" transform="scale(1 1) rotate(0) translate(4 418)">
<title>m_checker::s_check_inputs</title>
<!-- Node1 -->
<g id="Node000001" class="node">
<title>Node1</title>
<g id="a_Node000001"><a xlink:title="Checks compatibility of parameters in the input file. Used by the post_process stage.">
<polygon fill="#999999" stroke="#666666" points="114,-222 0,-222 0,-192 114,-192 114,-222"/>
<text text-anchor="start" x="8" y="-210" font-family="Helvetica,sans-Serif" font-size="10.00">m_checker::s_check</text>
<text text-anchor="middle" x="57" y="-199" font-family="Helvetica,sans-Serif" font-size="10.00">_inputs</text>
</a>
</g>
</g>
<!-- Node2 -->
<g id="Node000002" class="node">
<title>Node2</title>
<g id="a_Node000002"><a xlink:href="namespacem__checker.html#a6bd8c5039f6ddb1b9f6396e68756960f" target="_top" xlink:title="Checks constraints on flux limiter parameters.">
<polygon fill="white" stroke="#666666" points="279.5,-318 165.5,-318 165.5,-288 279.5,-288 279.5,-318"/>
<text text-anchor="start" x="173.5" y="-306" font-family="Helvetica,sans-Serif" font-size="10.00">m_checker::s_check</text>
<text text-anchor="middle" x="222.5" y="-295" font-family="Helvetica,sans-Serif" font-size="10.00">_inputs_flux_limiter</text>
</a>
</g>
</g>
<!-- Node1&#45;&gt;Node2 -->
<g id="edge1_Node000001_Node000002" class="edge">
<title>Node1&#45;&gt;Node2</title>
<g id="a_edge1_Node000001_Node000002"><a xlink:title=" ">
<path fill="none" stroke="#63b8ff" d="M73.76,-222.1C91.19,-238.12 120.71,-263.23 150,-279 153.25,-280.75 156.64,-282.4 160.12,-283.96"/>
<polygon fill="#63b8ff" stroke="#63b8ff" points="158.88,-287.23 169.45,-287.87 161.58,-280.78 158.88,-287.23"/>
</a>
</g>
</g>
<!-- Node4 -->
<g id="Node000004" class="node">
<title>Node4</title>
<g id="a_Node000004"><a xlink:href="namespacem__checker.html#a7788327ecf45b7eaa93dc39d7f88b1c5" target="_top" xlink:title="Checks constraints on the absence of flow variables.">
<polygon fill="white" stroke="#666666" points="295,-270 150,-270 150,-240 295,-240 295,-270"/>
<text text-anchor="start" x="158" y="-258" font-family="Helvetica,sans-Serif" font-size="10.00">m_checker::s_check</text>
<text text-anchor="middle" x="222.5" y="-247" font-family="Helvetica,sans-Serif" font-size="10.00">_inputs_no_flow_variables</text>
</a>
</g>
</g>
<!-- Node1&#45;&gt;Node4 -->
<g id="edge3_Node000001_Node000004" class="edge">
<title>Node1&#45;&gt;Node4</title>
<g id="a_edge3_Node000001_Node000004"><a xlink:title=" ">
<path fill="none" stroke="#63b8ff" d="M109.28,-222.06C125.57,-226.84 143.73,-232.17 160.62,-237.13"/>
<polygon fill="#63b8ff" stroke="#63b8ff" points="159.82,-240.54 170.4,-240 161.79,-233.82 159.82,-240.54"/>
</a>
</g>
</g>
<!-- Node5 -->
<g id="Node000005" class="node">
<title>Node5</title>
<g id="a_Node000005"><a xlink:href="namespacem__checker.html#a87010e5a4be52fcb42bd21899b450e4a" target="_top" xlink:title="Checks constraints on output format parameters.">
<polygon fill="white" stroke="#666666" points="286,-222 159,-222 159,-192 286,-192 286,-222"/>
<text text-anchor="start" x="167" y="-210" font-family="Helvetica,sans-Serif" font-size="10.00">m_checker::s_check</text>
<text text-anchor="middle" x="222.5" y="-199" font-family="Helvetica,sans-Serif" font-size="10.00">_inputs_output_format</text>
</a>
</g>
</g>
<!-- Node1&#45;&gt;Node5 -->
<g id="edge5_Node000001_Node000005" class="edge">
<title>Node1&#45;&gt;Node5</title>
<g id="a_edge5_Node000001_Node000005"><a xlink:title=" ">
<path fill="none" stroke="#63b8ff" d="M114.27,-207C125.41,-207 137.26,-207 148.86,-207"/>
<polygon fill="#63b8ff" stroke="#63b8ff" points="148.97,-210.5 158.97,-207 148.97,-203.5 148.97,-210.5"/>
</a>
</g>
</g>
<!-- Node6 -->
<g id="Node000006" class="node">
<title>Node6</title>
<g id="a_Node000006"><a xlink:href="namespacem__checker.html#aecbbeab4d718cd61a32b28e630b0ab67" target="_top" xlink:title="Checks constraints on partial density parameters.">
<polygon fill="white" stroke="#666666" points="287.5,-126 157.5,-126 157.5,-96 287.5,-96 287.5,-126"/>
<text text-anchor="start" x="165.5" y="-114" font-family="Helvetica,sans-Serif" font-size="10.00">m_checker::s_check</text>
<text text-anchor="middle" x="222.5" y="-103" font-family="Helvetica,sans-Serif" font-size="10.00">_inputs_partial_density</text>
</a>
</g>
</g>
<!-- Node1&#45;&gt;Node6 -->
<g id="edge7_Node000001_Node000006" class="edge">
<title>Node1&#45;&gt;Node6</title>
<g id="a_edge7_Node000001_Node000006"><a xlink:title=" ">
<path fill="none" stroke="#63b8ff" d="M73.76,-191.9C91.19,-175.88 120.71,-150.77 150,-135 153.25,-133.25 156.64,-131.6 160.12,-130.04"/>
<polygon fill="#63b8ff" stroke="#63b8ff" points="161.58,-133.22 169.45,-126.13 158.88,-126.77 161.58,-133.22"/>
</a>
</g>
</g>
<!-- Node8 -->
<g id="Node000008" class="node">
<title>Node8</title>
<g id="a_Node000008"><a xlink:href="namespacem__checker.html#a4d0dee9261f9345fc89ec04d90b2b8c3" target="_top" xlink:title="Checks constraints on numerical Schlieren parameters (schlieren_wrt and schlieren_alpha)">
<polygon fill="white" stroke="#666666" points="279.5,-30 165.5,-30 165.5,0 279.5,0 279.5,-30"/>
<text text-anchor="start" x="173.5" y="-18" font-family="Helvetica,sans-Serif" font-size="10.00">m_checker::s_check</text>
<text text-anchor="middle" x="222.5" y="-7" font-family="Helvetica,sans-Serif" font-size="10.00">_inputs_schlieren</text>
</a>
</g>
</g>
<!-- Node1&#45;&gt;Node8 -->
<g id="edge10_Node000001_Node000008" class="edge">
<title>Node1&#45;&gt;Node8</title>
<g id="a_edge10_Node000001_Node000008"><a xlink:title=" ">
<path fill="none" stroke="#63b8ff" d="M62.25,-191.54C72.09,-158.65 99.51,-81.26 150,-39 152.02,-37.31 154.17,-35.74 156.4,-34.27"/>
<polygon fill="#63b8ff" stroke="#63b8ff" points="158.45,-37.13 165.42,-29.15 155,-31.04 158.45,-37.13"/>
</a>
</g>
</g>
<!-- Node11 -->
<g id="Node000011" class="node">
<title>Node11</title>
<g id="a_Node000011"><a xlink:href="namespacem__checker.html#a67c9b8050a2f0a353c310ca69d23db3d" target="_top" xlink:title="Checks constraints on surface tension parameters (cf_wrt and sigma)">
<polygon fill="white" stroke="#666666" points="289.5,-78 155.5,-78 155.5,-48 289.5,-48 289.5,-78"/>
<text text-anchor="start" x="163.5" y="-66" font-family="Helvetica,sans-Serif" font-size="10.00">m_checker::s_check</text>
<text text-anchor="middle" x="222.5" y="-55" font-family="Helvetica,sans-Serif" font-size="10.00">_inputs_surface_tension</text>
</a>
</g>
</g>
<!-- Node1&#45;&gt;Node11 -->
<g id="edge15_Node000001_Node000011" class="edge">
<title>Node1&#45;&gt;Node11</title>
<g id="a_edge15_Node000001_Node000011"><a xlink:title=" ">
<path fill="none" stroke="#63b8ff" d="M65.74,-191.77C79.38,-166.41 110.05,-115.53 150,-87 152.1,-85.5 154.3,-84.09 156.57,-82.77"/>
<polygon fill="#63b8ff" stroke="#63b8ff" points="158.37,-85.77 165.62,-78.06 155.14,-79.56 158.37,-85.77"/>
</a>
</g>
</g>
<!-- Node12 -->
<g id="Node000012" class="node">
<title>Node12</title>
<g id="a_Node000012"><a xlink:href="namespacem__checker.html#ad1d40185798c72a4132ec9696e138eeb" target="_top" xlink:title="Checks constraints on velocity parameters.">
<polygon fill="white" stroke="#666666" points="279.5,-414 165.5,-414 165.5,-384 279.5,-384 279.5,-414"/>
<text text-anchor="start" x="173.5" y="-402" font-family="Helvetica,sans-Serif" font-size="10.00">m_checker::s_check</text>
<text text-anchor="middle" x="222.5" y="-391" font-family="Helvetica,sans-Serif" font-size="10.00">_inputs_velocity</text>
</a>
</g>
</g>
<!-- Node1&#45;&gt;Node12 -->
<g id="edge18_Node000001_Node000012" class="edge">
<title>Node1&#45;&gt;Node12</title>
<g id="a_edge18_Node000001_Node000012"><a xlink:title=" ">
<path fill="none" stroke="#63b8ff" d="M62.25,-222.46C72.09,-255.35 99.51,-332.74 150,-375 152.02,-376.69 154.17,-378.26 156.4,-379.73"/>
<polygon fill="#63b8ff" stroke="#63b8ff" points="155,-382.96 165.42,-384.85 158.45,-376.87 155,-382.96"/>
</a>
</g>
</g>
<!-- Node13 -->
<g id="Node000013" class="node">
<title>Node13</title>
<g id="a_Node000013"><a xlink:href="namespacem__checker.html#a7124f202b14d85736e0478330c8841a6" target="_top" xlink:title="Checks constraints on volume fraction parameters.">
<polygon fill="white" stroke="#666666" points="291,-174 154,-174 154,-144 291,-144 291,-174"/>
<text text-anchor="start" x="162" y="-162" font-family="Helvetica,sans-Serif" font-size="10.00">m_checker::s_check</text>
<text text-anchor="middle" x="222.5" y="-151" font-family="Helvetica,sans-Serif" font-size="10.00">_inputs_volume_fraction</text>
</a>
</g>
</g>
<!-- Node1&#45;&gt;Node13 -->
<g id="edge20_Node000001_Node000013" class="edge">
<title>Node1&#45;&gt;Node13</title>
<g id="a_edge20_Node000001_Node000013"><a xlink:title=" ">
<path fill="none" stroke="#63b8ff" d="M109.28,-191.94C125.57,-187.16 143.73,-181.83 160.62,-176.87"/>
<polygon fill="#63b8ff" stroke="#63b8ff" points="161.79,-180.18 170.4,-174 159.82,-173.46 161.79,-180.18"/>
</a>
</g>
</g>
<!-- Node14 -->
<g id="Node000014" class="node">
<title>Node14</title>
<g id="a_Node000014"><a xlink:href="namespacem__checker.html#a511b7da09e37e40033864f321ad811eb" target="_top" xlink:title="Checks constraints on vorticity parameters.">
<polygon fill="white" stroke="#666666" points="279.5,-366 165.5,-366 165.5,-336 279.5,-336 279.5,-366"/>
<text text-anchor="start" x="173.5" y="-354" font-family="Helvetica,sans-Serif" font-size="10.00">m_checker::s_check</text>
<text text-anchor="middle" x="222.5" y="-343" font-family="Helvetica,sans-Serif" font-size="10.00">_inputs_vorticity</text>
</a>
</g>
</g>
<!-- Node1&#45;&gt;Node14 -->
<g id="edge23_Node000001_Node000014" class="edge">
<title>Node1&#45;&gt;Node14</title>
<g id="a_edge23_Node000001_Node000014"><a xlink:title=" ">
<path fill="none" stroke="#63b8ff" d="M65.74,-222.23C79.38,-247.59 110.05,-298.47 150,-327 152.1,-328.5 154.3,-329.91 156.57,-331.23"/>
<polygon fill="#63b8ff" stroke="#63b8ff" points="155.14,-334.44 165.62,-335.94 158.37,-328.23 155.14,-334.44"/>
</a>
</g>
</g>
<!-- Node3 -->
<g id="Node000003" class="node">
<title>Node3</title>
<g id="a_Node000003"><a xlink:href="m__mpi__common_8fpp_8f90.html#ad9e1329e498b65ad4256658675d6f797" target="_top" xlink:title="The subroutine terminates the MPI execution environment.">
<polygon fill="white" stroke="#666666" points="427.5,-216.5 350.5,-216.5 350.5,-197.5 427.5,-197.5 427.5,-216.5"/>
<text text-anchor="middle" x="389" y="-204.5" font-family="Helvetica,sans-Serif" font-size="10.00">s_mpi_abort</text>
</a>
</g>
</g>
<!-- Node2&#45;&gt;Node3 -->
<g id="edge2_Node000002_Node000003" class="edge">
<title>Node2&#45;&gt;Node3</title>
<g id="a_edge2_Node000002_Node000003"><a xlink:title=" ">
<path fill="none" stroke="#63b8ff" d="M275.15,-287.98C281.98,-285.33 288.77,-282.34 295,-279 323.47,-263.77 352.25,-239.88 370.1,-223.85"/>
<polygon fill="#63b8ff" stroke="#63b8ff" points="372.92,-226.01 377.93,-216.68 368.19,-220.85 372.92,-226.01"/>
</a>
</g>
</g>
<!-- Node4&#45;&gt;Node3 -->
<g id="edge4_Node000004_Node000003" class="edge">
<title>Node4&#45;&gt;Node3</title>
<g id="a_edge4_Node000004_Node000003"><a xlink:title=" ">
<path fill="none" stroke="#63b8ff" d="M275.1,-239.94C297.71,-233.35 323.93,-225.7 345.41,-219.43"/>
<polygon fill="#63b8ff" stroke="#63b8ff" points="346.6,-222.73 355.22,-216.56 344.64,-216.01 346.6,-222.73"/>
</a>
</g>
</g>
<!-- Node5&#45;&gt;Node3 -->
<g id="edge6_Node000005_Node000003" class="edge">
<title>Node5&#45;&gt;Node3</title>
<g id="a_edge6_Node000005_Node000003"><a xlink:title=" ">
<path fill="none" stroke="#63b8ff" d="M286.16,-207C304.06,-207 323.26,-207 340.12,-207"/>
<polygon fill="#63b8ff" stroke="#63b8ff" points="340.28,-210.5 350.28,-207 340.28,-203.5 340.28,-210.5"/>
</a>
</g>
</g>
<!-- Node6&#45;&gt;Node3 -->
<g id="edge9_Node000006_Node000003" class="edge">
<title>Node6&#45;&gt;Node3</title>
<g id="a_edge9_Node000006_Node000003"><a xlink:title=" ">
<path fill="none" stroke="#63b8ff" d="M275.15,-126.02C281.98,-128.67 288.77,-131.66 295,-135 323.47,-150.23 352.25,-174.12 370.1,-190.15"/>
<polygon fill="#63b8ff" stroke="#63b8ff" points="368.19,-193.15 377.93,-197.32 372.92,-187.99 368.19,-193.15"/>
</a>
</g>
</g>
<!-- Node7 -->
<g id="Node000007" class="node">
<title>Node7</title>
<g id="a_Node000007"><a xlink:href="m__helper_8fpp_8f90.html#a8a0505b2bd4f3d8cb2bf3ce16cfe01e3" target="_top" xlink:title=" ">
<polygon fill="white" stroke="#666666" points="425.5,-120.5 352.5,-120.5 352.5,-101.5 425.5,-101.5 425.5,-120.5"/>
<text text-anchor="middle" x="389" y="-108.5" font-family="Helvetica,sans-Serif" font-size="10.00">s_int_to_str</text>
</a>
</g>
</g>
<!-- Node6&#45;&gt;Node7 -->
<g id="edge8_Node000006_Node000007" class="edge">
<title>Node6&#45;&gt;Node7</title>
<g id="a_edge8_Node000006_Node000007"><a xlink:title=" ">
<path fill="none" stroke="#63b8ff" d="M287.57,-111C305.8,-111 325.28,-111 342.19,-111"/>
<polygon fill="#63b8ff" stroke="#63b8ff" points="342.35,-114.5 352.35,-111 342.35,-107.5 342.35,-114.5"/>
</a>
</g>
</g>
<!-- Node8&#45;&gt;Node3 -->
<g id="edge14_Node000008_Node000003" class="edge">
<title>Node8&#45;&gt;Node3</title>
<g id="a_edge14_Node000008_Node000003"><a xlink:title=" ">
<path fill="none" stroke="#63b8ff" d="M279.71,-28.42C285.29,-31.29 290.53,-34.77 295,-39 326.31,-68.59 310.13,-91.31 331,-129 343.23,-151.08 360.77,-174.15 373.16,-189.42"/>
<polygon fill="#63b8ff" stroke="#63b8ff" points="370.72,-191.95 379.78,-197.44 376.12,-187.5 370.72,-191.95"/>
</a>
</g>
</g>
<!-- Node8&#45;&gt;Node7 -->
<g id="edge13_Node000008_Node000007" class="edge">
<title>Node8&#45;&gt;Node7</title>
<g id="a_edge13_Node000008_Node000007"><a xlink:title=" ">
<path fill="none" stroke="#63b8ff" d="M275.15,-30.02C281.98,-32.67 288.77,-35.66 295,-39 310.33,-47.2 346.4,-76.34 368.85,-94.94"/>
<polygon fill="#63b8ff" stroke="#63b8ff" points="366.78,-97.78 376.71,-101.48 371.26,-92.4 366.78,-97.78"/>
</a>
</g>
</g>
<!-- Node9 -->
<g id="Node000009" class="node">
<title>Node9</title>
<g id="a_Node000009"><a xlink:href="namespacem__helper__basic.html#af1ad5f2cff7ebf5c909a7fc212815ff2" target="_top" xlink:title="Checks if a real(kind(0d0)) variable is of default value.">
<polygon fill="white" stroke="#666666" points="447,-54 331,-54 331,-24 447,-24 447,-54"/>
<text text-anchor="start" x="339" y="-42" font-family="Helvetica,sans-Serif" font-size="10.00">m_helper_basic::f_is</text>
<text text-anchor="middle" x="389" y="-31" font-family="Helvetica,sans-Serif" font-size="10.00">_default</text>
</a>
</g>
</g>
<!-- Node8&#45;&gt;Node9 -->
<g id="edge11_Node000008_Node000009" class="edge">
<title>Node8&#45;&gt;Node9</title>
<g id="a_edge11_Node000008_Node000009"><a xlink:title=" ">
<path fill="none" stroke="#63b8ff" d="M279.65,-23.19C292.85,-25.12 307.06,-27.19 320.69,-29.18"/>
<polygon fill="#63b8ff" stroke="#63b8ff" points="320.58,-32.7 330.98,-30.68 321.59,-25.77 320.58,-32.7"/>
</a>
</g>
</g>
<!-- Node10 -->
<g id="Node000010" class="node">
<title>Node10</title>
<g id="a_Node000010"><a xlink:href="namespacem__helper__basic.html#a4d4fbabb3807eb662390dd48ef95330d" target="_top" xlink:title="This procedure checks if two floating point numbers of kind(0d0) are within tolerance.">
<polygon fill="white" stroke="#666666" points="625,-54 483,-54 483,-24 625,-24 625,-54"/>
<text text-anchor="start" x="491" y="-42" font-family="Helvetica,sans-Serif" font-size="10.00">m_helper_basic::f_approx</text>
<text text-anchor="middle" x="554" y="-31" font-family="Helvetica,sans-Serif" font-size="10.00">_equal</text>
</a>
</g>
</g>
<!-- Node9&#45;&gt;Node10 -->
<g id="edge12_Node000009_Node000010" class="edge">
<title>Node9&#45;&gt;Node10</title>
<g id="a_edge12_Node000009_Node000010"><a xlink:title=" ">
<path fill="none" stroke="#63b8ff" d="M447.01,-39C455.32,-39 464.01,-39 472.68,-39"/>
<polygon fill="#63b8ff" stroke="#63b8ff" points="472.83,-42.5 482.83,-39 472.83,-35.5 472.83,-42.5"/>
</a>
</g>
</g>
<!-- Node11&#45;&gt;Node3 -->
<g id="edge17_Node000011_Node000003" class="edge">
<title>Node11&#45;&gt;Node3</title>
<g id="a_edge17_Node000011_Node000003"><a xlink:title=" ">
<path fill="none" stroke="#63b8ff" d="M279.36,-78.08C284.87,-80.63 290.2,-83.59 295,-87 305.22,-94.26 351.6,-156.99 374.76,-188.74"/>
<polygon fill="#63b8ff" stroke="#63b8ff" points="372.17,-191.13 380.88,-197.16 377.83,-187.01 372.17,-191.13"/>
</a>
</g>
</g>
<!-- Node11&#45;&gt;Node9 -->
<g id="edge16_Node000011_Node000009" class="edge">
<title>Node11&#45;&gt;Node9</title>
<g id="a_edge16_Node000011_Node000009"><a xlink:title=" ">
<path fill="none" stroke="#63b8ff" d="M289.93,-53.31C300.1,-51.82 310.6,-50.29 320.78,-48.81"/>
<polygon fill="#63b8ff" stroke="#63b8ff" points="321.44,-52.25 330.83,-47.34 320.43,-45.32 321.44,-52.25"/>
</a>
</g>
</g>
<!-- Node12&#45;&gt;Node3 -->
<g id="edge19_Node000012_Node000003" class="edge">
<title>Node12&#45;&gt;Node3</title>
<g id="a_edge19_Node000012_Node000003"><a xlink:title=" ">
<path fill="none" stroke="#63b8ff" d="M279.56,-384.83C285.1,-382.1 290.37,-378.85 295,-375 343.77,-334.38 371.44,-261.25 382.42,-226.44"/>
<polygon fill="#63b8ff" stroke="#63b8ff" points="385.86,-227.16 385.4,-216.57 379.15,-225.13 385.86,-227.16"/>
</a>
</g>
</g>
<!-- Node13&#45;&gt;Node3 -->
<g id="edge22_Node000013_Node000003" class="edge">
<title>Node13&#45;&gt;Node3</title>
<g id="a_edge22_Node000013_Node000003"><a xlink:title=" ">
<path fill="none" stroke="#63b8ff" d="M275.1,-174.06C297.71,-180.65 323.93,-188.3 345.41,-194.57"/>
<polygon fill="#63b8ff" stroke="#63b8ff" points="344.64,-197.99 355.22,-197.44 346.6,-191.27 344.64,-197.99"/>
</a>
</g>
</g>
<!-- Node13&#45;&gt;Node7 -->
<g id="edge21_Node000013_Node000007" class="edge">
<title>Node13&#45;&gt;Node7</title>
<g id="a_edge21_Node000013_Node000007"><a xlink:title=" ">
<path fill="none" stroke="#63b8ff" d="M275.1,-143.94C297.71,-137.35 323.93,-129.7 345.41,-123.43"/>
<polygon fill="#63b8ff" stroke="#63b8ff" points="346.6,-126.73 355.22,-120.56 344.64,-120.01 346.6,-126.73"/>
</a>
</g>
</g>
<!-- Node14&#45;&gt;Node3 -->
<g id="edge24_Node000014_Node000003" class="edge">
<title>Node14&#45;&gt;Node3</title>
<g id="a_edge24_Node000014_Node000003"><a xlink:title=" ">
<path fill="none" stroke="#63b8ff" d="M279.36,-335.92C284.87,-333.37 290.2,-330.41 295,-327 333.49,-299.66 363.65,-251.83 378.29,-225.57"/>
<polygon fill="#63b8ff" stroke="#63b8ff" points="381.44,-227.11 383.13,-216.65 375.28,-223.77 381.44,-227.11"/>
</a>
</g>
</g>
</g>
</svg>
