<?xml version="1.0" encoding="UTF-8" standalone="no"?>
<!DOCTYPE svg PUBLIC "-//W3C//DTD SVG 1.1//EN"
 "http://www.w3.org/Graphics/SVG/1.1/DTD/svg11.dtd">
<!-- Generated by graphviz version 2.43.0 (0)
 -->
<!-- Title: m_start_up::s_perform_time_step Pages: 1 -->
<svg width="526pt" height="275pt"
 viewBox="0.00 0.00 526.00 274.50" xmlns="http://www.w3.org/2000/svg" xmlns:xlink="http://www.w3.org/1999/xlink">
<g id="graph0" class="graph" transform="scale(1 1) rotate(0) translate(4 270.5)">
<title>m_start_up::s_perform_time_step</title>
<!-- Node1 -->
<g id="Node000001" class="node">
<title>Node1</title>
<g id="a_Node000001"><a xlink:title=" ">
<polygon fill="#999999" stroke="#666666" points="127,-94.5 0,-94.5 0,-64.5 127,-64.5 127,-94.5"/>
<text text-anchor="start" x="8" y="-82.5" font-family="Helvetica,sans-Serif" font-size="10.00">m_start_up::s_perform</text>
<text text-anchor="middle" x="63.5" y="-71.5" font-family="Helvetica,sans-Serif" font-size="10.00">_time_step</text>
</a>
</g>
</g>
<!-- Node2 -->
<g id="Node000002" class="node">
<title>Node2</title>
<g id="a_Node000002"><a xlink:href="namespacem__variables__conversion.html#a86ac76fa70eabaede1b0f3a4af740560" target="_top" xlink:title="The following procedure handles the conversion between the conservative variables and the primitive v...">
<polygon fill="white" stroke="#666666" points="303.5,-188 165.5,-188 165.5,-147 303.5,-147 303.5,-188"/>
<text text-anchor="start" x="173.5" y="-176" font-family="Helvetica,sans-Serif" font-size="10.00">m_variables_conversion</text>
<text text-anchor="start" x="173.5" y="-165" font-family="Helvetica,sans-Serif" font-size="10.00">::s_convert_conservative</text>
<text text-anchor="middle" x="234.5" y="-154" font-family="Helvetica,sans-Serif" font-size="10.00">_to_primitive_variables</text>
</a>
</g>
</g>
<!-- Node1&#45;&gt;Node2 -->
<g id="edge1_Node000001_Node000002" class="edge">
<title>Node1&#45;&gt;Node2</title>
<g id="a_edge1_Node000001_Node000002"><a xlink:title=" ">
<path fill="none" stroke="#63b8ff" d="M93.55,-94.63C118.7,-107.72 155.57,-126.92 185.16,-142.33"/>
<polygon fill="#63b8ff" stroke="#63b8ff" points="183.6,-145.46 194.08,-146.97 186.83,-139.25 183.6,-145.46"/>
</a>
</g>
</g>
<!-- Node6 -->
<g id="Node000006" class="node">
<title>Node6</title>
<g id="a_Node000006"><a xlink:href="namespacem__data__input.html#a5cef0da967dbbf0d148b26bd67046c8d" target="_top" xlink:title="The purpose of this procedure is to populate the buffers of the cell&#45;average conservative variables,...">
<polygon fill="white" stroke="#666666" points="306,-100 163,-100 163,-59 306,-59 306,-100"/>
<text text-anchor="start" x="171" y="-88" font-family="Helvetica,sans-Serif" font-size="10.00">m_data_input::s_populate</text>
<text text-anchor="start" x="171" y="-77" font-family="Helvetica,sans-Serif" font-size="10.00">_conservative_variables</text>
<text text-anchor="middle" x="234.5" y="-66" font-family="Helvetica,sans-Serif" font-size="10.00">_buffer_regions</text>
</a>
</g>
</g>
<!-- Node1&#45;&gt;Node6 -->
<g id="edge5_Node000001_Node000006" class="edge">
<title>Node1&#45;&gt;Node6</title>
<g id="a_edge5_Node000001_Node000006"><a xlink:title=" ">
<path fill="none" stroke="#63b8ff" d="M127.43,-79.5C135.64,-79.5 144.13,-79.5 152.58,-79.5"/>
<polygon fill="#63b8ff" stroke="#63b8ff" points="152.84,-83 162.84,-79.5 152.84,-76 152.84,-83"/>
</a>
</g>
</g>
<!-- Node8 -->
<g id="Node000008" class="node">
<title>Node8</title>
<g id="a_Node000008"><a xlink:href="namespacem__data__input.html#afc05d7714001946feb2485ce18cb00f6" target="_top" xlink:title="The following subroutine populates the buffer regions of the cell&#45;width spacings, the cell&#45;boundary l...">
<polygon fill="white" stroke="#666666" points="306,-41 163,-41 163,0 306,0 306,-41"/>
<text text-anchor="start" x="171" y="-29" font-family="Helvetica,sans-Serif" font-size="10.00">m_data_input::s_populate</text>
<text text-anchor="start" x="171" y="-18" font-family="Helvetica,sans-Serif" font-size="10.00">_grid_variables_buffer</text>
<text text-anchor="middle" x="234.5" y="-7" font-family="Helvetica,sans-Serif" font-size="10.00">_regions</text>
</a>
</g>
</g>
<!-- Node1&#45;&gt;Node8 -->
<g id="edge7_Node000001_Node000008" class="edge">
<title>Node1&#45;&gt;Node8</title>
<g id="a_edge7_Node000001_Node000008"><a xlink:title=" ">
<path fill="none" stroke="#63b8ff" d="M107.58,-64.46C124.98,-58.38 145.5,-51.22 164.86,-44.46"/>
<polygon fill="#63b8ff" stroke="#63b8ff" points="166.27,-47.68 174.56,-41.08 163.96,-41.07 166.27,-47.68"/>
</a>
</g>
</g>
<!-- Node3 -->
<g id="Node000003" class="node">
<title>Node3</title>
<g id="a_Node000003"><a xlink:href="namespacem__variables__conversion.html#a1be52cb9db2d49f8f256b226d72b8d4c" target="_top" xlink:title="This procedure conditionally calculates the appropriate pressure.">
<polygon fill="white" stroke="#666666" points="497.5,-266.5 362.5,-266.5 362.5,-236.5 497.5,-236.5 497.5,-266.5"/>
<text text-anchor="start" x="370.5" y="-254.5" font-family="Helvetica,sans-Serif" font-size="10.00">m_variables_conversion</text>
<text text-anchor="middle" x="430" y="-243.5" font-family="Helvetica,sans-Serif" font-size="10.00">::s_compute_pressure</text>
</a>
</g>
</g>
<!-- Node2&#45;&gt;Node3 -->
<g id="edge2_Node000002_Node000003" class="edge">
<title>Node2&#45;&gt;Node3</title>
<g id="a_edge2_Node000002_Node000003"><a xlink:title=" ">
<path fill="none" stroke="#63b8ff" d="M267.1,-188.01C287.76,-200.73 315.71,-216.66 342,-227.5 346.98,-229.55 352.19,-231.49 357.48,-233.3"/>
<polygon fill="#63b8ff" stroke="#63b8ff" points="356.46,-236.65 367.06,-236.42 358.63,-229.99 356.46,-236.65"/>
</a>
</g>
</g>
<!-- Node4 -->
<g id="Node000004" class="node">
<title>Node4</title>
<g id="a_Node000004"><a xlink:href="namespacem__variables__conversion.html#a0e52444cc72f2fd0ea3a6d3543cfa32e" target="_top" xlink:title=" ">
<polygon fill="white" stroke="#666666" points="497.5,-218 362.5,-218 362.5,-177 497.5,-177 497.5,-218"/>
<text text-anchor="start" x="370.5" y="-206" font-family="Helvetica,sans-Serif" font-size="10.00">m_variables_conversion</text>
<text text-anchor="start" x="370.5" y="-195" font-family="Helvetica,sans-Serif" font-size="10.00">::s_convert_species_to</text>
<text text-anchor="middle" x="430" y="-184" font-family="Helvetica,sans-Serif" font-size="10.00">_mixture_variables_acc</text>
</a>
</g>
</g>
<!-- Node2&#45;&gt;Node4 -->
<g id="edge3_Node000002_Node000004" class="edge">
<title>Node2&#45;&gt;Node4</title>
<g id="a_edge3_Node000002_Node000004"><a xlink:title=" ">
<path fill="none" stroke="#63b8ff" d="M303.72,-178.08C319.49,-180.52 336.37,-183.14 352.47,-185.63"/>
<polygon fill="#63b8ff" stroke="#63b8ff" points="351.95,-189.1 362.37,-187.17 353.03,-182.18 351.95,-189.1"/>
</a>
</g>
</g>
<!-- Node5 -->
<g id="Node000005" class="node">
<title>Node5</title>
<g id="a_Node000005"><a xlink:href="namespacem__variables__conversion.html#a8c5b7c732af2020216749229776452c3" target="_top" xlink:title=" ">
<polygon fill="white" stroke="#666666" points="518,-159 342,-159 342,-118 518,-118 518,-159"/>
<text text-anchor="start" x="350" y="-147" font-family="Helvetica,sans-Serif" font-size="10.00">m_variables_conversion</text>
<text text-anchor="start" x="350" y="-136" font-family="Helvetica,sans-Serif" font-size="10.00">::s_convert_species_to</text>
<text text-anchor="middle" x="430" y="-125" font-family="Helvetica,sans-Serif" font-size="10.00">_mixture_variables_bubbles_acc</text>
</a>
</g>
</g>
<!-- Node2&#45;&gt;Node5 -->
<g id="edge4_Node000002_Node000005" class="edge">
<title>Node2&#45;&gt;Node5</title>
<g id="a_edge4_Node000002_Node000005"><a xlink:title=" ">
<path fill="none" stroke="#63b8ff" d="M303.72,-157.28C312.75,-155.92 322.14,-154.51 331.55,-153.11"/>
<polygon fill="#63b8ff" stroke="#63b8ff" points="332.36,-156.52 341.74,-151.58 331.33,-149.6 332.36,-156.52"/>
</a>
</g>
</g>
<!-- Node7 -->
<g id="Node000007" class="node">
<title>Node7</title>
<g id="a_Node000007"><a xlink:href="namespacem__mpi__proxy.html#a4d7ec0d1976967504babdf44ec83c1b1" target="_top" xlink:title="Communicates buffer regions associated with conservative variables with processors in charge of the n...">
<polygon fill="white" stroke="#666666" points="490,-100 370,-100 370,-59 490,-59 490,-100"/>
<text text-anchor="start" x="378" y="-88" font-family="Helvetica,sans-Serif" font-size="10.00">m_mpi_proxy::s_mpi</text>
<text text-anchor="start" x="378" y="-77" font-family="Helvetica,sans-Serif" font-size="10.00">_sendrecv_cons_vars</text>
<text text-anchor="middle" x="430" y="-66" font-family="Helvetica,sans-Serif" font-size="10.00">_buffer_regions</text>
</a>
</g>
</g>
<!-- Node6&#45;&gt;Node7 -->
<g id="edge6_Node000006_Node000007" class="edge">
<title>Node6&#45;&gt;Node7</title>
<g id="a_edge6_Node000006_Node000007"><a xlink:title=" ">
<path fill="none" stroke="#63b8ff" d="M306.18,-79.5C323.69,-79.5 342.43,-79.5 359.86,-79.5"/>
<polygon fill="#63b8ff" stroke="#63b8ff" points="359.96,-83 369.95,-79.5 359.95,-76 359.96,-83"/>
</a>
</g>
</g>
<!-- Node9 -->
<g id="Node000009" class="node">
<title>Node9</title>
<g id="a_Node000009"><a xlink:href="namespacem__mpi__proxy.html#a8e48d59a04981a6594f25ad7a7562492" target="_top" xlink:title="Communicates the buffer regions associated with the grid variables with processors in charge of the n...">
<polygon fill="white" stroke="#666666" points="489,-41 371,-41 371,0 489,0 489,-41"/>
<text text-anchor="start" x="379" y="-29" font-family="Helvetica,sans-Serif" font-size="10.00">m_mpi_proxy::s_mpi</text>
<text text-anchor="start" x="379" y="-18" font-family="Helvetica,sans-Serif" font-size="10.00">_sendrecv_grid_vars</text>
<text text-anchor="middle" x="430" y="-7" font-family="Helvetica,sans-Serif" font-size="10.00">_buffer_regions</text>
</a>
</g>
</g>
<!-- Node8&#45;&gt;Node9 -->
<g id="edge8_Node000008_Node000009" class="edge">
<title>Node8&#45;&gt;Node9</title>
<g id="a_edge8_Node000008_Node000009"><a xlink:title=" ">
<path fill="none" stroke="#63b8ff" d="M306.18,-20.5C323.96,-20.5 343.01,-20.5 360.67,-20.5"/>
<polygon fill="#63b8ff" stroke="#63b8ff" points="360.89,-24 370.89,-20.5 360.89,-17 360.89,-24"/>
</a>
</g>
</g>
</g>
</svg>
