<?xml version="1.0" encoding="UTF-8" standalone="no"?>
<!DOCTYPE svg PUBLIC "-//W3C//DTD SVG 1.1//EN"
 "http://www.w3.org/Graphics/SVG/1.1/DTD/svg11.dtd">
<!-- Generated by graphviz version 2.40.1 (20161225.0304)
 -->
<!-- Title: m_variables_conversion::s_initialize_variables_conversion_module Pages: 1 -->
<svg width="216pt" height="152pt"
 viewBox="0.00 0.00 216.00 152.00" xmlns="http://www.w3.org/2000/svg" xmlns:xlink="http://www.w3.org/1999/xlink">
<g id="graph0" class="graph" transform="scale(1 1) rotate(0) translate(4 148)">
<title>m_variables_conversion::s_initialize_variables_conversion_module</title>
<polygon fill="#ffffff" stroke="transparent" points="-4,4 -4,-148 212,-148 212,4 -4,4"/>
<!-- Node20 -->
<g id="node1" class="node">
<title>Node20</title>
<polygon fill="#bfbfbf" stroke="#000000" points="0,-54.5 0,-89.5 81,-89.5 81,-54.5 0,-54.5"/>
<text text-anchor="start" x="8" y="-79.1" font-family="Helvetica,sans-Serif" font-size="8.00" fill="#000000">m_variables_conversion</text>
<text text-anchor="start" x="8" y="-70.1" font-family="Helvetica,sans-Serif" font-size="8.00" fill="#000000">::s_initialize_variables</text>
<text text-anchor="middle" x="40.5" y="-61.1" font-family="Helvetica,sans-Serif" font-size="8.00" fill="#000000">_conversion_module</text>
</g>
<!-- Node21 -->
<g id="node2" class="node">
<title>Node21</title>
<g id="a_node2"><a xlink:href="namespacem__variables__conversion.html#a272a4452dad903bf877b475d322b921a" target="_top" xlink:title="This subroutine is constructed for the gamma/pi_inf model and provided a set of conservative variable...">
<polygon fill="#ffffff" stroke="#000000" points="122,-108.5 122,-143.5 203,-143.5 203,-108.5 122,-108.5"/>
<text text-anchor="start" x="130" y="-133.1" font-family="Helvetica,sans-Serif" font-size="8.00" fill="#000000">m_variables_conversion</text>
<text text-anchor="start" x="130" y="-124.1" font-family="Helvetica,sans-Serif" font-size="8.00" fill="#000000">::s_convert_mixture_to</text>
<text text-anchor="middle" x="162.5" y="-115.1" font-family="Helvetica,sans-Serif" font-size="8.00" fill="#000000">_mixture_variables</text>
</a>
</g>
</g>
<!-- Node20&#45;&gt;Node21 -->
<g id="edge1" class="edge">
<title>Node20&#45;&gt;Node21</title>
<path fill="none" stroke="#191970" d="M80.1099,-89.5323C90.7638,-94.2479 102.4145,-99.4048 113.5127,-104.3171"/>
<polygon fill="#191970" stroke="#191970" points="112.1104,-107.5239 122.6714,-108.3709 114.9437,-101.1229 112.1104,-107.5239"/>
</g>
<!-- Node22 -->
<g id="node3" class="node">
<title>Node22</title>
<g id="a_node3"><a xlink:href="namespacem__variables__conversion.html#acf8095b9ff1a0e61e857cd39cc4b87cc" target="_top" xlink:title="This subroutine is designed for the volume fraction model with sub&#45;grid ensemble averaged bubbles (Br...">
<polygon fill="#ffffff" stroke="#000000" points="117,-54.5 117,-89.5 208,-89.5 208,-54.5 117,-54.5"/>
<text text-anchor="start" x="125" y="-79.1" font-family="Helvetica,sans-Serif" font-size="8.00" fill="#000000">m_variables_conversion</text>
<text text-anchor="start" x="125" y="-70.1" font-family="Helvetica,sans-Serif" font-size="8.00" fill="#000000">::s_convert_species_to</text>
<text text-anchor="middle" x="162.5" y="-61.1" font-family="Helvetica,sans-Serif" font-size="8.00" fill="#000000">_mixture_variables_bubbles</text>
</a>
</g>
</g>
<!-- Node20&#45;&gt;Node22 -->
<g id="edge2" class="edge">
<title>Node20&#45;&gt;Node22</title>
<path fill="none" stroke="#191970" d="M81.1242,-72C89.2061,-72 97.827,-72 106.3224,-72"/>
<polygon fill="#191970" stroke="#191970" points="106.5781,-75.5001 116.578,-72 106.578,-68.5001 106.5781,-75.5001"/>
</g>
<!-- Node23 -->
<g id="node4" class="node">
<title>Node23</title>
<g id="a_node4"><a xlink:href="namespacem__variables__conversion.html#ae1178f49330fb2bccdc60a6076432626" target="_top" xlink:title="This subroutine is designed for the volume fraction model and provided a set of conservative variable...">
<polygon fill="#ffffff" stroke="#000000" points="122,-.5 122,-35.5 203,-35.5 203,-.5 122,-.5"/>
<text text-anchor="start" x="130" y="-25.1" font-family="Helvetica,sans-Serif" font-size="8.00" fill="#000000">m_variables_conversion</text>
<text text-anchor="start" x="130" y="-16.1" font-family="Helvetica,sans-Serif" font-size="8.00" fill="#000000">::s_convert_species_to</text>
<text text-anchor="middle" x="162.5" y="-7.1" font-family="Helvetica,sans-Serif" font-size="8.00" fill="#000000">_mixture_variables</text>
</a>
</g>
</g>
<!-- Node20&#45;&gt;Node23 -->
<g id="edge3" class="edge">
<title>Node20&#45;&gt;Node23</title>
<path fill="none" stroke="#191970" d="M80.1099,-54.4677C90.7638,-49.7521 102.4145,-44.5952 113.5127,-39.6829"/>
<polygon fill="#191970" stroke="#191970" points="114.9437,-42.8771 122.6714,-35.6291 112.1104,-36.4761 114.9437,-42.8771"/>
</g>
</g>
</svg>
